G04 #@! TF.GenerationSoftware,KiCad,Pcbnew,7.0.11*
G04 #@! TF.CreationDate,2024-12-14T07:48:54-05:00*
G04 #@! TF.ProjectId,accessory_v2,61636365-7373-46f7-9279-5f76322e6b69,rev?*
G04 #@! TF.SameCoordinates,Original*
G04 #@! TF.FileFunction,Legend,Bot*
G04 #@! TF.FilePolarity,Positive*
%FSLAX46Y46*%
G04 Gerber Fmt 4.6, Leading zero omitted, Abs format (unit mm)*
G04 Created by KiCad (PCBNEW 7.0.11) date 2024-12-14 07:48:54*
%MOMM*%
%LPD*%
G01*
G04 APERTURE LIST*
G04 Aperture macros list*
%AMRoundRect*
0 Rectangle with rounded corners*
0 $1 Rounding radius*
0 $2 $3 $4 $5 $6 $7 $8 $9 X,Y pos of 4 corners*
0 Add a 4 corners polygon primitive as box body*
4,1,4,$2,$3,$4,$5,$6,$7,$8,$9,$2,$3,0*
0 Add four circle primitives for the rounded corners*
1,1,$1+$1,$2,$3*
1,1,$1+$1,$4,$5*
1,1,$1+$1,$6,$7*
1,1,$1+$1,$8,$9*
0 Add four rect primitives between the rounded corners*
20,1,$1+$1,$2,$3,$4,$5,0*
20,1,$1+$1,$4,$5,$6,$7,0*
20,1,$1+$1,$6,$7,$8,$9,0*
20,1,$1+$1,$8,$9,$2,$3,0*%
G04 Aperture macros list end*
%ADD10C,0.150000*%
%ADD11C,0.254000*%
%ADD12C,0.120000*%
%ADD13C,0.200000*%
%ADD14C,0.127000*%
%ADD15C,0.250000*%
%ADD16C,1.638000*%
%ADD17C,4.801000*%
%ADD18R,5.200000X1.250000*%
%ADD19C,2.004000*%
%ADD20C,1.554000*%
%ADD21RoundRect,0.135000X0.135000X0.185000X-0.135000X0.185000X-0.135000X-0.185000X0.135000X-0.185000X0*%
%ADD22RoundRect,0.140000X-0.170000X0.140000X-0.170000X-0.140000X0.170000X-0.140000X0.170000X0.140000X0*%
%ADD23R,0.450000X1.400000*%
%ADD24RoundRect,0.135000X0.185000X-0.135000X0.185000X0.135000X-0.185000X0.135000X-0.185000X-0.135000X0*%
%ADD25RoundRect,0.150000X0.512500X0.150000X-0.512500X0.150000X-0.512500X-0.150000X0.512500X-0.150000X0*%
%ADD26RoundRect,0.140000X-0.140000X-0.170000X0.140000X-0.170000X0.140000X0.170000X-0.140000X0.170000X0*%
%ADD27RoundRect,0.140000X0.140000X0.170000X-0.140000X0.170000X-0.140000X-0.170000X0.140000X-0.170000X0*%
%ADD28RoundRect,0.060500X0.766500X0.181500X-0.766500X0.181500X-0.766500X-0.181500X0.766500X-0.181500X0*%
%ADD29RoundRect,0.102000X0.825500X1.422500X-0.825500X1.422500X-0.825500X-1.422500X0.825500X-1.422500X0*%
%ADD30RoundRect,0.225000X-0.250000X0.225000X-0.250000X-0.225000X0.250000X-0.225000X0.250000X0.225000X0*%
%ADD31RoundRect,0.225000X0.225000X0.250000X-0.225000X0.250000X-0.225000X-0.250000X0.225000X-0.250000X0*%
%ADD32RoundRect,0.225000X-0.225000X-0.250000X0.225000X-0.250000X0.225000X0.250000X-0.225000X0.250000X0*%
%ADD33RoundRect,0.140000X0.170000X-0.140000X0.170000X0.140000X-0.170000X0.140000X-0.170000X-0.140000X0*%
%ADD34RoundRect,0.135000X-0.185000X0.135000X-0.185000X-0.135000X0.185000X-0.135000X0.185000X0.135000X0*%
%ADD35RoundRect,0.135000X-0.135000X-0.185000X0.135000X-0.185000X0.135000X0.185000X-0.135000X0.185000X0*%
%ADD36R,1.475000X0.450000*%
%ADD37RoundRect,0.150000X0.150000X-0.512500X0.150000X0.512500X-0.150000X0.512500X-0.150000X-0.512500X0*%
%ADD38RoundRect,0.060500X-0.181500X0.766500X-0.181500X-0.766500X0.181500X-0.766500X0.181500X0.766500X0*%
%ADD39RoundRect,0.102000X-1.422500X0.825500X-1.422500X-0.825500X1.422500X-0.825500X1.422500X0.825500X0*%
%ADD40RoundRect,0.150000X-0.512500X-0.150000X0.512500X-0.150000X0.512500X0.150000X-0.512500X0.150000X0*%
%ADD41R,0.300000X0.850000*%
%ADD42R,0.850000X0.300000*%
%ADD43R,4.050000X4.050000*%
%ADD44RoundRect,0.225000X0.250000X-0.225000X0.250000X0.225000X-0.250000X0.225000X-0.250000X-0.225000X0*%
G04 APERTURE END LIST*
D10*
X39694404Y-36074819D02*
X39694404Y-36884342D01*
X39694404Y-36884342D02*
X39646785Y-36979580D01*
X39646785Y-36979580D02*
X39599166Y-37027200D01*
X39599166Y-37027200D02*
X39503928Y-37074819D01*
X39503928Y-37074819D02*
X39313452Y-37074819D01*
X39313452Y-37074819D02*
X39218214Y-37027200D01*
X39218214Y-37027200D02*
X39170595Y-36979580D01*
X39170595Y-36979580D02*
X39122976Y-36884342D01*
X39122976Y-36884342D02*
X39122976Y-36074819D01*
X38742023Y-36074819D02*
X38075357Y-36074819D01*
X38075357Y-36074819D02*
X38503928Y-37074819D01*
X56436666Y-16204819D02*
X56769999Y-15728628D01*
X57008094Y-16204819D02*
X57008094Y-15204819D01*
X57008094Y-15204819D02*
X56627142Y-15204819D01*
X56627142Y-15204819D02*
X56531904Y-15252438D01*
X56531904Y-15252438D02*
X56484285Y-15300057D01*
X56484285Y-15300057D02*
X56436666Y-15395295D01*
X56436666Y-15395295D02*
X56436666Y-15538152D01*
X56436666Y-15538152D02*
X56484285Y-15633390D01*
X56484285Y-15633390D02*
X56531904Y-15681009D01*
X56531904Y-15681009D02*
X56627142Y-15728628D01*
X56627142Y-15728628D02*
X57008094Y-15728628D01*
X56055713Y-15300057D02*
X56008094Y-15252438D01*
X56008094Y-15252438D02*
X55912856Y-15204819D01*
X55912856Y-15204819D02*
X55674761Y-15204819D01*
X55674761Y-15204819D02*
X55579523Y-15252438D01*
X55579523Y-15252438D02*
X55531904Y-15300057D01*
X55531904Y-15300057D02*
X55484285Y-15395295D01*
X55484285Y-15395295D02*
X55484285Y-15490533D01*
X55484285Y-15490533D02*
X55531904Y-15633390D01*
X55531904Y-15633390D02*
X56103332Y-16204819D01*
X56103332Y-16204819D02*
X55484285Y-16204819D01*
X58144819Y-29343810D02*
X57144819Y-29343810D01*
X58049580Y-30391428D02*
X58097200Y-30343809D01*
X58097200Y-30343809D02*
X58144819Y-30200952D01*
X58144819Y-30200952D02*
X58144819Y-30105714D01*
X58144819Y-30105714D02*
X58097200Y-29962857D01*
X58097200Y-29962857D02*
X58001961Y-29867619D01*
X58001961Y-29867619D02*
X57906723Y-29820000D01*
X57906723Y-29820000D02*
X57716247Y-29772381D01*
X57716247Y-29772381D02*
X57573390Y-29772381D01*
X57573390Y-29772381D02*
X57382914Y-29820000D01*
X57382914Y-29820000D02*
X57287676Y-29867619D01*
X57287676Y-29867619D02*
X57192438Y-29962857D01*
X57192438Y-29962857D02*
X57144819Y-30105714D01*
X57144819Y-30105714D02*
X57144819Y-30200952D01*
X57144819Y-30200952D02*
X57192438Y-30343809D01*
X57192438Y-30343809D02*
X57240057Y-30391428D01*
X57240057Y-30772381D02*
X57192438Y-30820000D01*
X57192438Y-30820000D02*
X57144819Y-30915238D01*
X57144819Y-30915238D02*
X57144819Y-31153333D01*
X57144819Y-31153333D02*
X57192438Y-31248571D01*
X57192438Y-31248571D02*
X57240057Y-31296190D01*
X57240057Y-31296190D02*
X57335295Y-31343809D01*
X57335295Y-31343809D02*
X57430533Y-31343809D01*
X57430533Y-31343809D02*
X57573390Y-31296190D01*
X57573390Y-31296190D02*
X58144819Y-30724762D01*
X58144819Y-30724762D02*
X58144819Y-31343809D01*
X56426666Y-17714819D02*
X56759999Y-17238628D01*
X56998094Y-17714819D02*
X56998094Y-16714819D01*
X56998094Y-16714819D02*
X56617142Y-16714819D01*
X56617142Y-16714819D02*
X56521904Y-16762438D01*
X56521904Y-16762438D02*
X56474285Y-16810057D01*
X56474285Y-16810057D02*
X56426666Y-16905295D01*
X56426666Y-16905295D02*
X56426666Y-17048152D01*
X56426666Y-17048152D02*
X56474285Y-17143390D01*
X56474285Y-17143390D02*
X56521904Y-17191009D01*
X56521904Y-17191009D02*
X56617142Y-17238628D01*
X56617142Y-17238628D02*
X56998094Y-17238628D01*
X55569523Y-17048152D02*
X55569523Y-17714819D01*
X55807618Y-16667200D02*
X56045713Y-17381485D01*
X56045713Y-17381485D02*
X55426666Y-17381485D01*
X60936666Y-17804819D02*
X61269999Y-17328628D01*
X61508094Y-17804819D02*
X61508094Y-16804819D01*
X61508094Y-16804819D02*
X61127142Y-16804819D01*
X61127142Y-16804819D02*
X61031904Y-16852438D01*
X61031904Y-16852438D02*
X60984285Y-16900057D01*
X60984285Y-16900057D02*
X60936666Y-16995295D01*
X60936666Y-16995295D02*
X60936666Y-17138152D01*
X60936666Y-17138152D02*
X60984285Y-17233390D01*
X60984285Y-17233390D02*
X61031904Y-17281009D01*
X61031904Y-17281009D02*
X61127142Y-17328628D01*
X61127142Y-17328628D02*
X61508094Y-17328628D01*
X59984285Y-17804819D02*
X60555713Y-17804819D01*
X60269999Y-17804819D02*
X60269999Y-16804819D01*
X60269999Y-16804819D02*
X60365237Y-16947676D01*
X60365237Y-16947676D02*
X60460475Y-17042914D01*
X60460475Y-17042914D02*
X60555713Y-17090533D01*
X60986666Y-16414819D02*
X61319999Y-15938628D01*
X61558094Y-16414819D02*
X61558094Y-15414819D01*
X61558094Y-15414819D02*
X61177142Y-15414819D01*
X61177142Y-15414819D02*
X61081904Y-15462438D01*
X61081904Y-15462438D02*
X61034285Y-15510057D01*
X61034285Y-15510057D02*
X60986666Y-15605295D01*
X60986666Y-15605295D02*
X60986666Y-15748152D01*
X60986666Y-15748152D02*
X61034285Y-15843390D01*
X61034285Y-15843390D02*
X61081904Y-15891009D01*
X61081904Y-15891009D02*
X61177142Y-15938628D01*
X61177142Y-15938628D02*
X61558094Y-15938628D01*
X60653332Y-15414819D02*
X60034285Y-15414819D01*
X60034285Y-15414819D02*
X60367618Y-15795771D01*
X60367618Y-15795771D02*
X60224761Y-15795771D01*
X60224761Y-15795771D02*
X60129523Y-15843390D01*
X60129523Y-15843390D02*
X60081904Y-15891009D01*
X60081904Y-15891009D02*
X60034285Y-15986247D01*
X60034285Y-15986247D02*
X60034285Y-16224342D01*
X60034285Y-16224342D02*
X60081904Y-16319580D01*
X60081904Y-16319580D02*
X60129523Y-16367200D01*
X60129523Y-16367200D02*
X60224761Y-16414819D01*
X60224761Y-16414819D02*
X60510475Y-16414819D01*
X60510475Y-16414819D02*
X60605713Y-16367200D01*
X60605713Y-16367200D02*
X60653332Y-16319580D01*
D11*
X31434318Y-23050237D02*
X30164318Y-23050237D01*
X31313365Y-24380714D02*
X31373842Y-24320238D01*
X31373842Y-24320238D02*
X31434318Y-24138809D01*
X31434318Y-24138809D02*
X31434318Y-24017857D01*
X31434318Y-24017857D02*
X31373842Y-23836428D01*
X31373842Y-23836428D02*
X31252889Y-23715476D01*
X31252889Y-23715476D02*
X31131937Y-23654999D01*
X31131937Y-23654999D02*
X30890032Y-23594523D01*
X30890032Y-23594523D02*
X30708603Y-23594523D01*
X30708603Y-23594523D02*
X30466699Y-23654999D01*
X30466699Y-23654999D02*
X30345746Y-23715476D01*
X30345746Y-23715476D02*
X30224794Y-23836428D01*
X30224794Y-23836428D02*
X30164318Y-24017857D01*
X30164318Y-24017857D02*
X30164318Y-24138809D01*
X30164318Y-24138809D02*
X30224794Y-24320238D01*
X30224794Y-24320238D02*
X30285270Y-24380714D01*
X31434318Y-24985476D02*
X31434318Y-25227380D01*
X31434318Y-25227380D02*
X31373842Y-25348333D01*
X31373842Y-25348333D02*
X31313365Y-25408809D01*
X31313365Y-25408809D02*
X31131937Y-25529761D01*
X31131937Y-25529761D02*
X30890032Y-25590238D01*
X30890032Y-25590238D02*
X30406222Y-25590238D01*
X30406222Y-25590238D02*
X30285270Y-25529761D01*
X30285270Y-25529761D02*
X30224794Y-25469285D01*
X30224794Y-25469285D02*
X30164318Y-25348333D01*
X30164318Y-25348333D02*
X30164318Y-25106428D01*
X30164318Y-25106428D02*
X30224794Y-24985476D01*
X30224794Y-24985476D02*
X30285270Y-24924999D01*
X30285270Y-24924999D02*
X30406222Y-24864523D01*
X30406222Y-24864523D02*
X30708603Y-24864523D01*
X30708603Y-24864523D02*
X30829556Y-24924999D01*
X30829556Y-24924999D02*
X30890032Y-24985476D01*
X30890032Y-24985476D02*
X30950508Y-25106428D01*
X30950508Y-25106428D02*
X30950508Y-25348333D01*
X30950508Y-25348333D02*
X30890032Y-25469285D01*
X30890032Y-25469285D02*
X30829556Y-25529761D01*
X30829556Y-25529761D02*
X30708603Y-25590238D01*
D12*
X48803641Y-16720000D02*
X48496359Y-16720000D01*
X48803641Y-15960000D02*
X48496359Y-15960000D01*
X46751141Y-16707500D02*
X46443859Y-16707500D01*
X46751141Y-15947500D02*
X46443859Y-15947500D01*
X44603641Y-25632500D02*
X44296359Y-25632500D01*
X44603641Y-24872500D02*
X44296359Y-24872500D01*
X46457500Y-23512164D02*
X46457500Y-23727836D01*
X45737500Y-23512164D02*
X45737500Y-23727836D01*
D13*
X64080000Y-14710000D02*
X64080000Y-13310000D01*
X61030000Y-12960000D02*
X64030000Y-12960000D01*
X64030000Y-12960000D02*
X64030000Y-10660000D01*
X61030000Y-10660000D02*
X61030000Y-12960000D01*
X64030000Y-10660000D02*
X61030000Y-10660000D01*
D12*
X33640000Y-38873641D02*
X33640000Y-38566359D01*
X34400000Y-38873641D02*
X34400000Y-38566359D01*
X41632500Y-31045000D02*
X42432500Y-31045000D01*
X41632500Y-31045000D02*
X40832500Y-31045000D01*
X41632500Y-27925000D02*
X42432500Y-27925000D01*
X41632500Y-27925000D02*
X40832500Y-27925000D01*
X42932500Y-27975000D02*
X42692500Y-27645000D01*
X43172500Y-27645000D01*
X42932500Y-27975000D01*
G36*
X42932500Y-27975000D02*
G01*
X42692500Y-27645000D01*
X43172500Y-27645000D01*
X42932500Y-27975000D01*
G37*
X47577500Y-23522164D02*
X47577500Y-23737836D01*
X46857500Y-23522164D02*
X46857500Y-23737836D01*
X57200000Y-55523641D02*
X57200000Y-55216359D01*
X57960000Y-55523641D02*
X57960000Y-55216359D01*
X48500000Y-18022164D02*
X48500000Y-18237836D01*
X47780000Y-18022164D02*
X47780000Y-18237836D01*
X59312164Y-36520000D02*
X59527836Y-36520000D01*
X59312164Y-37240000D02*
X59527836Y-37240000D01*
X46665336Y-17967500D02*
X46449664Y-17967500D01*
X46665336Y-17247500D02*
X46449664Y-17247500D01*
D14*
X38500000Y-13220000D02*
X35500000Y-13220000D01*
X38500000Y-8800000D02*
X35500000Y-8800000D01*
D13*
X40710000Y-8980000D02*
G75*
G03*
X40510000Y-8980000I-100000J0D01*
G01*
X40510000Y-8980000D02*
G75*
G03*
X40710000Y-8980000I100000J0D01*
G01*
D12*
X42336141Y-38385000D02*
X42028859Y-38385000D01*
X42336141Y-37625000D02*
X42028859Y-37625000D01*
X42482836Y-33502500D02*
X42267164Y-33502500D01*
X42482836Y-32782500D02*
X42267164Y-32782500D01*
X63730000Y-28239420D02*
X63730000Y-28520580D01*
X62710000Y-28239420D02*
X62710000Y-28520580D01*
X35860580Y-14670000D02*
X35579420Y-14670000D01*
X35860580Y-13650000D02*
X35579420Y-13650000D01*
X30322500Y-40743641D02*
X30322500Y-40436359D01*
X31082500Y-40743641D02*
X31082500Y-40436359D01*
X21640000Y-20643641D02*
X21640000Y-20336359D01*
X22400000Y-20643641D02*
X22400000Y-20336359D01*
X41457836Y-10610000D02*
X41242164Y-10610000D01*
X41457836Y-9890000D02*
X41242164Y-9890000D01*
X61532164Y-36610000D02*
X61747836Y-36610000D01*
X61532164Y-37330000D02*
X61747836Y-37330000D01*
X30232164Y-29600000D02*
X30447836Y-29600000D01*
X30232164Y-30320000D02*
X30447836Y-30320000D01*
X38932500Y-40580000D02*
X39732500Y-40580000D01*
X38932500Y-40580000D02*
X38132500Y-40580000D01*
X38932500Y-37460000D02*
X39732500Y-37460000D01*
X38932500Y-37460000D02*
X38132500Y-37460000D01*
X40232500Y-37510000D02*
X39992500Y-37180000D01*
X40472500Y-37180000D01*
X40232500Y-37510000D01*
G36*
X40232500Y-37510000D02*
G01*
X39992500Y-37180000D01*
X40472500Y-37180000D01*
X40232500Y-37510000D01*
G37*
X11338641Y-36120000D02*
X11031359Y-36120000D01*
X11338641Y-35360000D02*
X11031359Y-35360000D01*
X22393641Y-36050000D02*
X22086359Y-36050000D01*
X22393641Y-35290000D02*
X22086359Y-35290000D01*
X41659420Y-13220000D02*
X41940580Y-13220000D01*
X41659420Y-14240000D02*
X41940580Y-14240000D01*
X43272500Y-37237500D02*
X44072500Y-37237500D01*
X43272500Y-37237500D02*
X42472500Y-37237500D01*
X43272500Y-34117500D02*
X44072500Y-34117500D01*
X43272500Y-34117500D02*
X42472500Y-34117500D01*
X44572500Y-34167500D02*
X44332500Y-33837500D01*
X44812500Y-33837500D01*
X44572500Y-34167500D01*
G36*
X44572500Y-34167500D02*
G01*
X44332500Y-33837500D01*
X44812500Y-33837500D01*
X44572500Y-34167500D01*
G37*
X39032500Y-22210000D02*
X39832500Y-22210000D01*
X39032500Y-22210000D02*
X38232500Y-22210000D01*
X39032500Y-19090000D02*
X39832500Y-19090000D01*
X39032500Y-19090000D02*
X38232500Y-19090000D01*
X40332500Y-19140000D02*
X40092500Y-18810000D01*
X40572500Y-18810000D01*
X40332500Y-19140000D01*
G36*
X40332500Y-19140000D02*
G01*
X40092500Y-18810000D01*
X40572500Y-18810000D01*
X40332500Y-19140000D01*
G37*
X29162500Y-38577836D02*
X29162500Y-38362164D01*
X29882500Y-38577836D02*
X29882500Y-38362164D01*
X61800000Y-20516359D02*
X61800000Y-20823641D01*
X61040000Y-20516359D02*
X61040000Y-20823641D01*
X48402500Y-35992164D02*
X48402500Y-36207836D01*
X47682500Y-35992164D02*
X47682500Y-36207836D01*
X60670000Y-28392164D02*
X60670000Y-28607836D01*
X59950000Y-28392164D02*
X59950000Y-28607836D01*
X44342164Y-26122500D02*
X44557836Y-26122500D01*
X44342164Y-26842500D02*
X44557836Y-26842500D01*
X29860000Y-40482164D02*
X29860000Y-40697836D01*
X29140000Y-40482164D02*
X29140000Y-40697836D01*
X58193641Y-16240000D02*
X57886359Y-16240000D01*
X58193641Y-15480000D02*
X57886359Y-15480000D01*
X25830000Y-38523641D02*
X25830000Y-38216359D01*
X26590000Y-38523641D02*
X26590000Y-38216359D01*
X62996359Y-19610000D02*
X63303641Y-19610000D01*
X62996359Y-20370000D02*
X63303641Y-20370000D01*
X43340000Y-18840000D02*
X44140000Y-18840000D01*
X43340000Y-18840000D02*
X42540000Y-18840000D01*
X43340000Y-15720000D02*
X44140000Y-15720000D01*
X43340000Y-15720000D02*
X42540000Y-15720000D01*
X44640000Y-15770000D02*
X44400000Y-15440000D01*
X44880000Y-15440000D01*
X44640000Y-15770000D01*
G36*
X44640000Y-15770000D02*
G01*
X44400000Y-15440000D01*
X44880000Y-15440000D01*
X44640000Y-15770000D01*
G37*
X48146580Y-12702000D02*
X47865420Y-12702000D01*
X48146580Y-11682000D02*
X47865420Y-11682000D01*
X57800000Y-20436359D02*
X57800000Y-20743641D01*
X57040000Y-20436359D02*
X57040000Y-20743641D01*
X41457836Y-11760000D02*
X41242164Y-11760000D01*
X41457836Y-11040000D02*
X41242164Y-11040000D01*
X47617500Y-21376359D02*
X47617500Y-21683641D01*
X46857500Y-21376359D02*
X46857500Y-21683641D01*
D13*
X54195000Y-4530000D02*
X52720000Y-4530000D01*
X52370000Y-9880000D02*
X52370000Y-4880000D01*
X52370000Y-4880000D02*
X48670000Y-4880000D01*
X48670000Y-9880000D02*
X52370000Y-9880000D01*
X48670000Y-4880000D02*
X48670000Y-9880000D01*
D12*
X58906359Y-19560000D02*
X59213641Y-19560000D01*
X58906359Y-20320000D02*
X59213641Y-20320000D01*
X27970580Y-30320000D02*
X27689420Y-30320000D01*
X27970580Y-29300000D02*
X27689420Y-29300000D01*
X42423641Y-25612500D02*
X42116359Y-25612500D01*
X42423641Y-24852500D02*
X42116359Y-24852500D01*
X27972500Y-35420000D02*
X27972500Y-36220000D01*
X27972500Y-35420000D02*
X27972500Y-34620000D01*
X31092500Y-35420000D02*
X31092500Y-36220000D01*
X31092500Y-35420000D02*
X31092500Y-34620000D01*
X31372500Y-36960000D02*
X31042500Y-36720000D01*
X31372500Y-36480000D01*
X31372500Y-36960000D01*
G36*
X31372500Y-36960000D02*
G01*
X31042500Y-36720000D01*
X31372500Y-36480000D01*
X31372500Y-36960000D01*
G37*
X29247836Y-20420000D02*
X29032164Y-20420000D01*
X29247836Y-19700000D02*
X29032164Y-19700000D01*
X33640000Y-40933641D02*
X33640000Y-40626359D01*
X34400000Y-40933641D02*
X34400000Y-40626359D01*
X58430000Y-33809420D02*
X58430000Y-34090580D01*
X57410000Y-33809420D02*
X57410000Y-34090580D01*
X63360000Y-7447836D02*
X63360000Y-7232164D01*
X64080000Y-7447836D02*
X64080000Y-7232164D01*
D14*
X63320000Y-31700000D02*
X63320000Y-34700000D01*
X58900000Y-31700000D02*
X58900000Y-34700000D01*
D13*
X59180000Y-29590000D02*
G75*
G03*
X58980000Y-29590000I-100000J0D01*
G01*
X58980000Y-29590000D02*
G75*
G03*
X59180000Y-29590000I100000J0D01*
G01*
D12*
X42310336Y-39545000D02*
X42094664Y-39545000D01*
X42310336Y-38825000D02*
X42094664Y-38825000D01*
X60036359Y-46330000D02*
X60343641Y-46330000D01*
X60036359Y-47090000D02*
X60343641Y-47090000D01*
X46662500Y-30097164D02*
X46662500Y-30312836D01*
X45942500Y-30097164D02*
X45942500Y-30312836D01*
X39120000Y-27430000D02*
X39920000Y-27430000D01*
X39120000Y-27430000D02*
X38320000Y-27430000D01*
X39120000Y-24310000D02*
X39920000Y-24310000D01*
X39120000Y-24310000D02*
X38320000Y-24310000D01*
X40420000Y-24360000D02*
X40180000Y-24030000D01*
X40660000Y-24030000D01*
X40420000Y-24360000D01*
G36*
X40420000Y-24360000D02*
G01*
X40180000Y-24030000D01*
X40660000Y-24030000D01*
X40420000Y-24360000D01*
G37*
X25373641Y-21580000D02*
X25066359Y-21580000D01*
X25373641Y-20820000D02*
X25066359Y-20820000D01*
X26533641Y-9230000D02*
X26226359Y-9230000D01*
X26533641Y-8470000D02*
X26226359Y-8470000D01*
X27280000Y-19707836D02*
X27280000Y-19492164D01*
X28000000Y-19707836D02*
X28000000Y-19492164D01*
X33089420Y-29520000D02*
X33370580Y-29520000D01*
X33089420Y-30540000D02*
X33370580Y-30540000D01*
X44850336Y-29975000D02*
X44634664Y-29975000D01*
X44850336Y-29255000D02*
X44634664Y-29255000D01*
X30320000Y-38613641D02*
X30320000Y-38306359D01*
X31080000Y-38613641D02*
X31080000Y-38306359D01*
X47936141Y-34770000D02*
X47628859Y-34770000D01*
X47936141Y-34010000D02*
X47628859Y-34010000D01*
X44294664Y-20352500D02*
X44510336Y-20352500D01*
X44294664Y-21072500D02*
X44510336Y-21072500D01*
X58183641Y-17600000D02*
X57876359Y-17600000D01*
X58183641Y-16840000D02*
X57876359Y-16840000D01*
X62843641Y-17600000D02*
X62536359Y-17600000D01*
X62843641Y-16840000D02*
X62536359Y-16840000D01*
X32480000Y-10059420D02*
X32480000Y-10340580D01*
X31460000Y-10059420D02*
X31460000Y-10340580D01*
X46406141Y-28925000D02*
X46098859Y-28925000D01*
X46406141Y-28165000D02*
X46098859Y-28165000D01*
X32577500Y-38787836D02*
X32577500Y-38572164D01*
X33297500Y-38787836D02*
X33297500Y-38572164D01*
X42528641Y-32202500D02*
X42221359Y-32202500D01*
X42528641Y-31442500D02*
X42221359Y-31442500D01*
X44587164Y-32742500D02*
X44802836Y-32742500D01*
X44587164Y-33462500D02*
X44802836Y-33462500D01*
X42326141Y-19922500D02*
X42018859Y-19922500D01*
X42326141Y-19162500D02*
X42018859Y-19162500D01*
X44566141Y-19922500D02*
X44258859Y-19922500D01*
X44566141Y-19162500D02*
X44258859Y-19162500D01*
X11130000Y-23983641D02*
X11130000Y-23676359D01*
X11890000Y-23983641D02*
X11890000Y-23676359D01*
X57290000Y-50653641D02*
X57290000Y-50346359D01*
X58050000Y-50653641D02*
X58050000Y-50346359D01*
X43397500Y-24560000D02*
X44197500Y-24560000D01*
X43397500Y-24560000D02*
X42597500Y-24560000D01*
X43397500Y-21440000D02*
X44197500Y-21440000D01*
X43397500Y-21440000D02*
X42597500Y-21440000D01*
X44697500Y-21490000D02*
X44457500Y-21160000D01*
X44937500Y-21160000D01*
X44697500Y-21490000D01*
G36*
X44697500Y-21490000D02*
G01*
X44457500Y-21160000D01*
X44937500Y-21160000D01*
X44697500Y-21490000D01*
G37*
X45752500Y-34273641D02*
X45752500Y-33966359D01*
X46512500Y-34273641D02*
X46512500Y-33966359D01*
X63243641Y-21550000D02*
X62936359Y-21550000D01*
X63243641Y-20790000D02*
X62936359Y-20790000D01*
X59263641Y-21520000D02*
X58956359Y-21520000D01*
X59263641Y-20760000D02*
X58956359Y-20760000D01*
X42377836Y-26832500D02*
X42162164Y-26832500D01*
X42377836Y-26112500D02*
X42162164Y-26112500D01*
X42270336Y-21102500D02*
X42054664Y-21102500D01*
X42270336Y-20382500D02*
X42054664Y-20382500D01*
X48621836Y-11028000D02*
X48406164Y-11028000D01*
X48621836Y-10308000D02*
X48406164Y-10308000D01*
D13*
X59470000Y-14660000D02*
X59470000Y-13260000D01*
X56420000Y-12910000D02*
X59420000Y-12910000D01*
X59420000Y-12910000D02*
X59420000Y-10610000D01*
X56420000Y-10610000D02*
X56420000Y-12910000D01*
X59420000Y-10610000D02*
X56420000Y-10610000D01*
D12*
X22408641Y-38700000D02*
X22101359Y-38700000D01*
X22408641Y-37940000D02*
X22101359Y-37940000D01*
X31612500Y-35410000D02*
X31612500Y-36210000D01*
X31612500Y-35410000D02*
X31612500Y-34610000D01*
X34732500Y-35410000D02*
X34732500Y-36210000D01*
X34732500Y-35410000D02*
X34732500Y-34610000D01*
X35012500Y-36950000D02*
X34682500Y-36710000D01*
X35012500Y-36470000D01*
X35012500Y-36950000D01*
G36*
X35012500Y-36950000D02*
G01*
X34682500Y-36710000D01*
X35012500Y-36470000D01*
X35012500Y-36950000D01*
G37*
X30232164Y-28560000D02*
X30447836Y-28560000D01*
X30232164Y-29280000D02*
X30447836Y-29280000D01*
X29367836Y-19370000D02*
X29152164Y-19370000D01*
X29367836Y-18650000D02*
X29152164Y-18650000D01*
X58670000Y-7437836D02*
X58670000Y-7222164D01*
X59390000Y-7437836D02*
X59390000Y-7222164D01*
X61139420Y-37850000D02*
X61420580Y-37850000D01*
X61139420Y-38870000D02*
X61420580Y-38870000D01*
X33730000Y-9872164D02*
X33730000Y-10087836D01*
X33010000Y-9872164D02*
X33010000Y-10087836D01*
X44282500Y-28198641D02*
X44282500Y-27891359D01*
X45042500Y-28198641D02*
X45042500Y-27891359D01*
X62823641Y-16230000D02*
X62516359Y-16230000D01*
X62823641Y-15470000D02*
X62516359Y-15470000D01*
X61740000Y-28402164D02*
X61740000Y-28617836D01*
X61020000Y-28402164D02*
X61020000Y-28617836D01*
X33230000Y-40642164D02*
X33230000Y-40857836D01*
X32510000Y-40642164D02*
X32510000Y-40857836D01*
X60350000Y-47410000D02*
X59550000Y-47410000D01*
X60350000Y-47410000D02*
X61150000Y-47410000D01*
X60350000Y-50530000D02*
X59550000Y-50530000D01*
X60350000Y-50530000D02*
X61150000Y-50530000D01*
X59290000Y-50810000D02*
X58810000Y-50810000D01*
X59050000Y-50480000D01*
X59290000Y-50810000D01*
G36*
X59290000Y-50810000D02*
G01*
X58810000Y-50810000D01*
X59050000Y-50480000D01*
X59290000Y-50810000D01*
G37*
X45717500Y-21673641D02*
X45717500Y-21366359D01*
X46477500Y-21673641D02*
X46477500Y-21366359D01*
X23050000Y-20433641D02*
X23050000Y-20126359D01*
X23810000Y-20433641D02*
X23810000Y-20126359D01*
X44596141Y-38365000D02*
X44288859Y-38365000D01*
X44596141Y-37605000D02*
X44288859Y-37605000D01*
X28467836Y-28810000D02*
X28252164Y-28810000D01*
X28467836Y-28090000D02*
X28252164Y-28090000D01*
D15*
X33985000Y-27665000D02*
G75*
G03*
X33735000Y-27665000I-125000J0D01*
G01*
X33735000Y-27665000D02*
G75*
G03*
X33985000Y-27665000I125000J0D01*
G01*
D12*
X38965000Y-34570000D02*
X39765000Y-34570000D01*
X38965000Y-34570000D02*
X38165000Y-34570000D01*
X38965000Y-31450000D02*
X39765000Y-31450000D01*
X38965000Y-31450000D02*
X38165000Y-31450000D01*
X40265000Y-31500000D02*
X40025000Y-31170000D01*
X40505000Y-31170000D01*
X40265000Y-31500000D01*
G36*
X40265000Y-31500000D02*
G01*
X40025000Y-31170000D01*
X40505000Y-31170000D01*
X40265000Y-31500000D01*
G37*
X60076359Y-51280000D02*
X60383641Y-51280000D01*
X60076359Y-52040000D02*
X60383641Y-52040000D01*
X25810000Y-19170580D02*
X25810000Y-18889420D01*
X26830000Y-19170580D02*
X26830000Y-18889420D01*
X32950000Y-12697836D02*
X32950000Y-12482164D01*
X33670000Y-12697836D02*
X33670000Y-12482164D01*
X46610336Y-36050000D02*
X46394664Y-36050000D01*
X46610336Y-35330000D02*
X46394664Y-35330000D01*
X44314664Y-38835000D02*
X44530336Y-38835000D01*
X44314664Y-39555000D02*
X44530336Y-39555000D01*
X60340000Y-52440000D02*
X59540000Y-52440000D01*
X60340000Y-52440000D02*
X61140000Y-52440000D01*
X60340000Y-55560000D02*
X59540000Y-55560000D01*
X60340000Y-55560000D02*
X61140000Y-55560000D01*
X59280000Y-55840000D02*
X58800000Y-55840000D01*
X59040000Y-55510000D01*
X59280000Y-55840000D01*
G36*
X59280000Y-55840000D02*
G01*
X58800000Y-55840000D01*
X59040000Y-55510000D01*
X59280000Y-55840000D01*
G37*
X44808641Y-32232500D02*
X44501359Y-32232500D01*
X44808641Y-31472500D02*
X44501359Y-31472500D01*
X33652164Y-28390000D02*
X33867836Y-28390000D01*
X33652164Y-29110000D02*
X33867836Y-29110000D01*
%LPC*%
D16*
X50460000Y-55869000D03*
X50460000Y-53583000D03*
X50460000Y-51297000D03*
X50460000Y-49011000D03*
X50460000Y-46725000D03*
X50460000Y-44439000D03*
X50460000Y-42153000D03*
X50460000Y-39867000D03*
X50460000Y-37581000D03*
X50460000Y-35295000D03*
X50460000Y-33009000D03*
X50460000Y-30723000D03*
X50460000Y-28437000D03*
X50460000Y-26151000D03*
X50460000Y-23865000D03*
X53000000Y-57012000D03*
X53000000Y-54726000D03*
X53000000Y-52440000D03*
X53000000Y-50154000D03*
X53000000Y-47868000D03*
X53000000Y-45582000D03*
X53000000Y-43296000D03*
X53000000Y-41010000D03*
X53000000Y-38724000D03*
X53000000Y-36438000D03*
X53000000Y-34152000D03*
X53000000Y-31866000D03*
X53000000Y-29580000D03*
X53000000Y-27294000D03*
X53000000Y-25008000D03*
X55540000Y-55869000D03*
X55540000Y-53583000D03*
X55540000Y-51297000D03*
X55540000Y-49011000D03*
X55540000Y-46725000D03*
X55540000Y-44439000D03*
X55540000Y-42153000D03*
X55540000Y-39867000D03*
X55540000Y-37581000D03*
X55540000Y-35295000D03*
X55540000Y-33009000D03*
X55540000Y-30723000D03*
X55540000Y-28437000D03*
X55540000Y-26151000D03*
D17*
X53000000Y-63895000D03*
X53000000Y-16855000D03*
D18*
X3000000Y-36875000D03*
X3000000Y-38875000D03*
X3000000Y-40875000D03*
X3000000Y-42875000D03*
X3000000Y-44775000D03*
D19*
X8980000Y-63720000D03*
X19140000Y-23080000D03*
X21170000Y-62450000D03*
X24220000Y-51020000D03*
X24220000Y-48480000D03*
X24220000Y-40860000D03*
X24220000Y-38320000D03*
X24220000Y-35780000D03*
X8980000Y-35780000D03*
X8980000Y-48480000D03*
X8980000Y-51020000D03*
X8980000Y-61180000D03*
X24220000Y-25620000D03*
X24220000Y-23080000D03*
X24220000Y-15460000D03*
X24220000Y-12920000D03*
X24220000Y-10380000D03*
X8980000Y-10380000D03*
X8980000Y-23080000D03*
X8980000Y-25620000D03*
X8980000Y-28160000D03*
X8980000Y-30700000D03*
X21170000Y-57370000D03*
X21170000Y-59910000D03*
X24220000Y-68800000D03*
X8980000Y-33240000D03*
X8980000Y-66260000D03*
X16600000Y-23080000D03*
D20*
X13430000Y-53830000D03*
X13430000Y-55830000D03*
X11430000Y-55830000D03*
X11430000Y-53830000D03*
X15430000Y-53830000D03*
X15430000Y-55830000D03*
D19*
X21170000Y-54830000D03*
X21170000Y-52290000D03*
X21680000Y-23080000D03*
X8980000Y-68800000D03*
X11520000Y-66260000D03*
D21*
X49160000Y-16340000D03*
X48140000Y-16340000D03*
X47107500Y-16327500D03*
X46087500Y-16327500D03*
X44960000Y-25252500D03*
X43940000Y-25252500D03*
D22*
X46097500Y-23140000D03*
X46097500Y-24100000D03*
D23*
X63505000Y-14010000D03*
X62855000Y-14010000D03*
X62205000Y-14010000D03*
X61555000Y-14010000D03*
X61555000Y-9610000D03*
X62205000Y-9610000D03*
X62855000Y-9610000D03*
X63505000Y-9610000D03*
D24*
X34020000Y-39230000D03*
X34020000Y-38210000D03*
D25*
X42770000Y-28535000D03*
X42770000Y-29485000D03*
X42770000Y-30435000D03*
X40495000Y-30435000D03*
X40495000Y-28535000D03*
D22*
X47217500Y-23150000D03*
X47217500Y-24110000D03*
D24*
X57580000Y-55880000D03*
X57580000Y-54860000D03*
D22*
X48140000Y-17650000D03*
X48140000Y-18610000D03*
D26*
X58940000Y-36880000D03*
X59900000Y-36880000D03*
D27*
X47037500Y-17607500D03*
X46077500Y-17607500D03*
D28*
X39160000Y-9260000D03*
X39160000Y-9760000D03*
X39160000Y-10260000D03*
X39160000Y-10760000D03*
X39160000Y-11260000D03*
X39160000Y-11760000D03*
X39160000Y-12260000D03*
X39160000Y-12760000D03*
X34840000Y-12760000D03*
X34840000Y-12260000D03*
X34840000Y-11760000D03*
X34840000Y-11260000D03*
X34840000Y-10760000D03*
X34840000Y-10260000D03*
X34840000Y-9760000D03*
X34840000Y-9260000D03*
D29*
X37000000Y-11010000D03*
D21*
X42692500Y-38005000D03*
X41672500Y-38005000D03*
D27*
X42855000Y-33142500D03*
X41895000Y-33142500D03*
D30*
X63220000Y-27605000D03*
X63220000Y-29155000D03*
D31*
X36495000Y-14160000D03*
X34945000Y-14160000D03*
D24*
X30702500Y-41100000D03*
X30702500Y-40080000D03*
X22020000Y-21000000D03*
X22020000Y-19980000D03*
D27*
X41830000Y-10250000D03*
X40870000Y-10250000D03*
D26*
X61160000Y-36970000D03*
X62120000Y-36970000D03*
X29860000Y-29960000D03*
X30820000Y-29960000D03*
D25*
X40070000Y-38070000D03*
X40070000Y-39020000D03*
X40070000Y-39970000D03*
X37795000Y-39970000D03*
X37795000Y-38070000D03*
D21*
X11695000Y-35740000D03*
X10675000Y-35740000D03*
X22750000Y-35670000D03*
X21730000Y-35670000D03*
D32*
X41025000Y-13730000D03*
X42575000Y-13730000D03*
D25*
X44410000Y-34727500D03*
X44410000Y-35677500D03*
X44410000Y-36627500D03*
X42135000Y-36627500D03*
X42135000Y-34727500D03*
X40170000Y-19700000D03*
X40170000Y-20650000D03*
X40170000Y-21600000D03*
X37895000Y-21600000D03*
X37895000Y-19700000D03*
D33*
X29522500Y-38950000D03*
X29522500Y-37990000D03*
D34*
X61420000Y-20160000D03*
X61420000Y-21180000D03*
D22*
X48042500Y-35620000D03*
X48042500Y-36580000D03*
X60310000Y-28020000D03*
X60310000Y-28980000D03*
D26*
X43970000Y-26482500D03*
X44930000Y-26482500D03*
D22*
X29500000Y-40110000D03*
X29500000Y-41070000D03*
D21*
X58550000Y-15860000D03*
X57530000Y-15860000D03*
D24*
X26210000Y-38880000D03*
X26210000Y-37860000D03*
D35*
X62640000Y-19990000D03*
X63660000Y-19990000D03*
D25*
X44477500Y-16330000D03*
X44477500Y-17280000D03*
X44477500Y-18230000D03*
X42202500Y-18230000D03*
X42202500Y-16330000D03*
D31*
X48781000Y-12192000D03*
X47231000Y-12192000D03*
D34*
X57420000Y-20080000D03*
X57420000Y-21100000D03*
D27*
X41830000Y-11400000D03*
X40870000Y-11400000D03*
D34*
X47237500Y-21020000D03*
X47237500Y-22040000D03*
D36*
X53458000Y-5105000D03*
X53458000Y-5755000D03*
X53458000Y-6405000D03*
X53458000Y-7055000D03*
X53458000Y-7705000D03*
X53458000Y-8355000D03*
X53458000Y-9005000D03*
X53458000Y-9655000D03*
X47582000Y-9655000D03*
X47582000Y-9005000D03*
X47582000Y-8355000D03*
X47582000Y-7705000D03*
X47582000Y-7055000D03*
X47582000Y-6405000D03*
X47582000Y-5755000D03*
X47582000Y-5105000D03*
D35*
X58550000Y-19940000D03*
X59570000Y-19940000D03*
D31*
X28605000Y-29810000D03*
X27055000Y-29810000D03*
D21*
X42780000Y-25232500D03*
X41760000Y-25232500D03*
D37*
X30482500Y-36557500D03*
X29532500Y-36557500D03*
X28582500Y-36557500D03*
X28582500Y-34282500D03*
X30482500Y-34282500D03*
D27*
X29620000Y-20060000D03*
X28660000Y-20060000D03*
D24*
X34020000Y-41290000D03*
X34020000Y-40270000D03*
D30*
X57920000Y-33175000D03*
X57920000Y-34725000D03*
D33*
X63720000Y-7820000D03*
X63720000Y-6860000D03*
D38*
X59360000Y-31040000D03*
X59860000Y-31040000D03*
X60360000Y-31040000D03*
X60860000Y-31040000D03*
X61360000Y-31040000D03*
X61860000Y-31040000D03*
X62360000Y-31040000D03*
X62860000Y-31040000D03*
X62860000Y-35360000D03*
X62360000Y-35360000D03*
X61860000Y-35360000D03*
X61360000Y-35360000D03*
X60860000Y-35360000D03*
X60360000Y-35360000D03*
X59860000Y-35360000D03*
X59360000Y-35360000D03*
D39*
X61110000Y-33200000D03*
D27*
X42682500Y-39185000D03*
X41722500Y-39185000D03*
D35*
X59680000Y-46710000D03*
X60700000Y-46710000D03*
D22*
X46302500Y-29725000D03*
X46302500Y-30685000D03*
D25*
X40257500Y-24920000D03*
X40257500Y-25870000D03*
X40257500Y-26820000D03*
X37982500Y-26820000D03*
X37982500Y-24920000D03*
D21*
X25730000Y-21200000D03*
X24710000Y-21200000D03*
X26890000Y-8850000D03*
X25870000Y-8850000D03*
D33*
X27640000Y-20080000D03*
X27640000Y-19120000D03*
D32*
X32455000Y-30030000D03*
X34005000Y-30030000D03*
D27*
X45222500Y-29615000D03*
X44262500Y-29615000D03*
D24*
X30700000Y-38970000D03*
X30700000Y-37950000D03*
D21*
X48292500Y-34390000D03*
X47272500Y-34390000D03*
D26*
X43922500Y-20712500D03*
X44882500Y-20712500D03*
D21*
X58540000Y-17220000D03*
X57520000Y-17220000D03*
X63200000Y-17220000D03*
X62180000Y-17220000D03*
D30*
X31970000Y-9425000D03*
X31970000Y-10975000D03*
D21*
X46762500Y-28545000D03*
X45742500Y-28545000D03*
D33*
X32937500Y-39160000D03*
X32937500Y-38200000D03*
D21*
X42885000Y-31822500D03*
X41865000Y-31822500D03*
D26*
X44215000Y-33102500D03*
X45175000Y-33102500D03*
D21*
X42682500Y-19542500D03*
X41662500Y-19542500D03*
X44922500Y-19542500D03*
X43902500Y-19542500D03*
D24*
X11510000Y-24340000D03*
X11510000Y-23320000D03*
X57670000Y-51010000D03*
X57670000Y-49990000D03*
D25*
X44535000Y-22050000D03*
X44535000Y-23000000D03*
X44535000Y-23950000D03*
X42260000Y-23950000D03*
X42260000Y-22050000D03*
D24*
X46132500Y-34630000D03*
X46132500Y-33610000D03*
D21*
X63600000Y-21170000D03*
X62580000Y-21170000D03*
X59620000Y-21140000D03*
X58600000Y-21140000D03*
D27*
X42750000Y-26472500D03*
X41790000Y-26472500D03*
X42642500Y-20742500D03*
X41682500Y-20742500D03*
X48994000Y-10668000D03*
X48034000Y-10668000D03*
D23*
X58895000Y-13960000D03*
X58245000Y-13960000D03*
X57595000Y-13960000D03*
X56945000Y-13960000D03*
X56945000Y-9560000D03*
X57595000Y-9560000D03*
X58245000Y-9560000D03*
X58895000Y-9560000D03*
D21*
X22765000Y-38320000D03*
X21745000Y-38320000D03*
D37*
X34122500Y-36547500D03*
X33172500Y-36547500D03*
X32222500Y-36547500D03*
X32222500Y-34272500D03*
X34122500Y-34272500D03*
D26*
X29860000Y-28920000D03*
X30820000Y-28920000D03*
D27*
X29740000Y-19010000D03*
X28780000Y-19010000D03*
D33*
X59030000Y-7810000D03*
X59030000Y-6850000D03*
D32*
X60505000Y-38360000D03*
X62055000Y-38360000D03*
D22*
X33370000Y-9500000D03*
X33370000Y-10460000D03*
D24*
X44662500Y-28555000D03*
X44662500Y-27535000D03*
D21*
X63180000Y-15850000D03*
X62160000Y-15850000D03*
D22*
X61380000Y-28030000D03*
X61380000Y-28990000D03*
X32870000Y-40270000D03*
X32870000Y-41230000D03*
D40*
X59212500Y-49920000D03*
X59212500Y-48020000D03*
X61487500Y-48970000D03*
D24*
X46097500Y-22030000D03*
X46097500Y-21010000D03*
X23430000Y-20790000D03*
X23430000Y-19770000D03*
D21*
X44952500Y-37985000D03*
X43932500Y-37985000D03*
D27*
X28840000Y-28450000D03*
X27880000Y-28450000D03*
D41*
X33110000Y-27240000D03*
X32610000Y-27240000D03*
X32110000Y-27240000D03*
X31610000Y-27240000D03*
X31110000Y-27240000D03*
X30610000Y-27240000D03*
X30110000Y-27240000D03*
X29610000Y-27240000D03*
X29110000Y-27240000D03*
X28610000Y-27240000D03*
D42*
X27910000Y-26540000D03*
X27910000Y-26040000D03*
X27910000Y-25540000D03*
X27910000Y-25040000D03*
X27910000Y-24540000D03*
X27910000Y-24040000D03*
X27910000Y-23540000D03*
X27910000Y-23040000D03*
X27910000Y-22540000D03*
X27910000Y-22040000D03*
D41*
X28610000Y-21340000D03*
X29110000Y-21340000D03*
X29610000Y-21340000D03*
X30110000Y-21340000D03*
X30610000Y-21340000D03*
X31110000Y-21340000D03*
X31610000Y-21340000D03*
X32110000Y-21340000D03*
X32610000Y-21340000D03*
X33110000Y-21340000D03*
D42*
X33810000Y-22040000D03*
X33810000Y-22540000D03*
X33810000Y-23040000D03*
X33810000Y-23540000D03*
X33810000Y-24040000D03*
X33810000Y-24540000D03*
X33810000Y-25040000D03*
X33810000Y-25540000D03*
X33810000Y-26040000D03*
X33810000Y-26540000D03*
D43*
X30860000Y-24290000D03*
D25*
X40102500Y-32060000D03*
X40102500Y-33010000D03*
X40102500Y-33960000D03*
X37827500Y-33960000D03*
X37827500Y-32060000D03*
D35*
X59720000Y-51660000D03*
X60740000Y-51660000D03*
D44*
X26320000Y-19805000D03*
X26320000Y-18255000D03*
D33*
X33310000Y-13070000D03*
X33310000Y-12110000D03*
D27*
X46982500Y-35690000D03*
X46022500Y-35690000D03*
D26*
X43942500Y-39195000D03*
X44902500Y-39195000D03*
D40*
X59202500Y-54950000D03*
X59202500Y-53050000D03*
X61477500Y-54000000D03*
D21*
X45165000Y-31852500D03*
X44145000Y-31852500D03*
D26*
X33280000Y-28750000D03*
X34240000Y-28750000D03*
%LPD*%
M02*
