G04 #@! TF.GenerationSoftware,KiCad,Pcbnew,7.0.10*
G04 #@! TF.CreationDate,2024-12-23T15:35:51-08:00*
G04 #@! TF.ProjectId,accessory_v2,61636365-7373-46f7-9279-5f76322e6b69,rev?*
G04 #@! TF.SameCoordinates,Original*
G04 #@! TF.FileFunction,Paste,Top*
G04 #@! TF.FilePolarity,Positive*
%FSLAX46Y46*%
G04 Gerber Fmt 4.6, Leading zero omitted, Abs format (unit mm)*
G04 Created by KiCad (PCBNEW 7.0.10) date 2024-12-23 15:35:51*
%MOMM*%
%LPD*%
G01*
G04 APERTURE LIST*
G04 Aperture macros list*
%AMRoundRect*
0 Rectangle with rounded corners*
0 $1 Rounding radius*
0 $2 $3 $4 $5 $6 $7 $8 $9 X,Y pos of 4 corners*
0 Add a 4 corners polygon primitive as box body*
4,1,4,$2,$3,$4,$5,$6,$7,$8,$9,$2,$3,0*
0 Add four circle primitives for the rounded corners*
1,1,$1+$1,$2,$3*
1,1,$1+$1,$4,$5*
1,1,$1+$1,$6,$7*
1,1,$1+$1,$8,$9*
0 Add four rect primitives between the rounded corners*
20,1,$1+$1,$2,$3,$4,$5,0*
20,1,$1+$1,$4,$5,$6,$7,0*
20,1,$1+$1,$6,$7,$8,$9,0*
20,1,$1+$1,$8,$9,$2,$3,0*%
G04 Aperture macros list end*
%ADD10RoundRect,0.140000X0.140000X0.170000X-0.140000X0.170000X-0.140000X-0.170000X0.140000X-0.170000X0*%
%ADD11RoundRect,0.140000X-0.170000X0.140000X-0.170000X-0.140000X0.170000X-0.140000X0.170000X0.140000X0*%
%ADD12RoundRect,0.051250X-0.733750X-0.153750X0.733750X-0.153750X0.733750X0.153750X-0.733750X0.153750X0*%
%ADD13R,1.200000X0.600000*%
%ADD14R,3.960000X3.960000*%
%ADD15R,2.540000X3.170000*%
%ADD16RoundRect,0.135000X-0.135000X-0.185000X0.135000X-0.185000X0.135000X0.185000X-0.135000X0.185000X0*%
%ADD17R,2.440000X1.200000*%
%ADD18RoundRect,0.225000X0.250000X-0.225000X0.250000X0.225000X-0.250000X0.225000X-0.250000X-0.225000X0*%
%ADD19RoundRect,0.225000X0.225000X0.250000X-0.225000X0.250000X-0.225000X-0.250000X0.225000X-0.250000X0*%
%ADD20RoundRect,0.140000X-0.140000X-0.170000X0.140000X-0.170000X0.140000X0.170000X-0.140000X0.170000X0*%
%ADD21R,1.910000X0.640000*%
%ADD22RoundRect,0.225000X-0.225000X-0.250000X0.225000X-0.250000X0.225000X0.250000X-0.225000X0.250000X0*%
%ADD23RoundRect,0.250000X-0.375000X-0.625000X0.375000X-0.625000X0.375000X0.625000X-0.375000X0.625000X0*%
%ADD24RoundRect,0.135000X-0.185000X0.135000X-0.185000X-0.135000X0.185000X-0.135000X0.185000X0.135000X0*%
G04 APERTURE END LIST*
D10*
X31780000Y-60410000D03*
X30820000Y-60410000D03*
D11*
X41610000Y-22010000D03*
X41610000Y-22970000D03*
D12*
X34625000Y-41255000D03*
X34625000Y-41905000D03*
X34625000Y-42555000D03*
X34625000Y-43205000D03*
X34625000Y-43855000D03*
X34625000Y-44505000D03*
X34625000Y-45155000D03*
X34625000Y-45805000D03*
X34625000Y-46455000D03*
X34625000Y-47105000D03*
X40365000Y-47105000D03*
X40365000Y-46455000D03*
X40365000Y-45805000D03*
X40365000Y-45155000D03*
X40365000Y-44505000D03*
X40365000Y-43855000D03*
X40365000Y-43205000D03*
X40365000Y-42555000D03*
X40365000Y-41905000D03*
X40365000Y-41255000D03*
D10*
X52160000Y-8780000D03*
X51200000Y-8780000D03*
X31830000Y-55170000D03*
X30870000Y-55170000D03*
D11*
X40420000Y-21980000D03*
X40420000Y-22940000D03*
D13*
X38990000Y-23790000D03*
X38990000Y-22840000D03*
X38990000Y-21890000D03*
X36490000Y-21890000D03*
X36490000Y-22840000D03*
X36490000Y-23790000D03*
D14*
X36810000Y-13190000D03*
D15*
X44430000Y-13190000D03*
X29190000Y-13190000D03*
D16*
X10890000Y-26720000D03*
X11910000Y-26720000D03*
D17*
X40010000Y-27210000D03*
X40010000Y-29210000D03*
X40010000Y-32010000D03*
X40010000Y-36010000D03*
X29370000Y-28210000D03*
X29370000Y-35010000D03*
D16*
X45520000Y-54660000D03*
X46540000Y-54660000D03*
D18*
X42980000Y-27545000D03*
X42980000Y-25995000D03*
D13*
X50950000Y-5450000D03*
X50950000Y-6400000D03*
X50950000Y-7350000D03*
X53450000Y-7350000D03*
X53450000Y-6400000D03*
X53450000Y-5450000D03*
D19*
X51925000Y-11220000D03*
X50375000Y-11220000D03*
D10*
X39830000Y-39980000D03*
X38870000Y-39980000D03*
D20*
X35710000Y-39890000D03*
X36670000Y-39890000D03*
D16*
X26270000Y-22960000D03*
X27290000Y-22960000D03*
X45520000Y-60960000D03*
X46540000Y-60960000D03*
D10*
X52130000Y-9880000D03*
X51170000Y-9880000D03*
D21*
X34385000Y-53395000D03*
X34385000Y-54665000D03*
X34385000Y-55935000D03*
X34385000Y-57205000D03*
X34385000Y-58475000D03*
X34385000Y-59745000D03*
X34385000Y-61015000D03*
X34385000Y-62285000D03*
X43155000Y-62285000D03*
X43155000Y-61015000D03*
X43155000Y-59745000D03*
X43155000Y-58475000D03*
X43155000Y-57205000D03*
X43155000Y-55935000D03*
X43155000Y-54665000D03*
X43155000Y-53395000D03*
D11*
X53230000Y-8850000D03*
X53230000Y-9810000D03*
D22*
X55355000Y-5790000D03*
X56905000Y-5790000D03*
D16*
X10850000Y-25270000D03*
X11870000Y-25270000D03*
D18*
X34800000Y-23595000D03*
X34800000Y-22045000D03*
D10*
X31790000Y-61540000D03*
X30830000Y-61540000D03*
X31840000Y-54090000D03*
X30880000Y-54090000D03*
D23*
X42990000Y-29630000D03*
X45790000Y-29630000D03*
D24*
X24240000Y-27740000D03*
X24240000Y-28760000D03*
M02*
