G04 #@! TF.GenerationSoftware,KiCad,Pcbnew,7.0.11*
G04 #@! TF.CreationDate,2024-12-14T07:48:54-05:00*
G04 #@! TF.ProjectId,accessory_v2,61636365-7373-46f7-9279-5f76322e6b69,rev?*
G04 #@! TF.SameCoordinates,Original*
G04 #@! TF.FileFunction,Copper,L1,Top*
G04 #@! TF.FilePolarity,Positive*
%FSLAX46Y46*%
G04 Gerber Fmt 4.6, Leading zero omitted, Abs format (unit mm)*
G04 Created by KiCad (PCBNEW 7.0.11) date 2024-12-14 07:48:54*
%MOMM*%
%LPD*%
G01*
G04 APERTURE LIST*
G04 Aperture macros list*
%AMRoundRect*
0 Rectangle with rounded corners*
0 $1 Rounding radius*
0 $2 $3 $4 $5 $6 $7 $8 $9 X,Y pos of 4 corners*
0 Add a 4 corners polygon primitive as box body*
4,1,4,$2,$3,$4,$5,$6,$7,$8,$9,$2,$3,0*
0 Add four circle primitives for the rounded corners*
1,1,$1+$1,$2,$3*
1,1,$1+$1,$4,$5*
1,1,$1+$1,$6,$7*
1,1,$1+$1,$8,$9*
0 Add four rect primitives between the rounded corners*
20,1,$1+$1,$2,$3,$4,$5,0*
20,1,$1+$1,$4,$5,$6,$7,0*
20,1,$1+$1,$6,$7,$8,$9,0*
20,1,$1+$1,$8,$9,$2,$3,0*%
G04 Aperture macros list end*
G04 #@! TA.AperFunction,SMDPad,CuDef*
%ADD10RoundRect,0.140000X0.140000X0.170000X-0.140000X0.170000X-0.140000X-0.170000X0.140000X-0.170000X0*%
G04 #@! TD*
G04 #@! TA.AperFunction,SMDPad,CuDef*
%ADD11RoundRect,0.140000X-0.170000X0.140000X-0.170000X-0.140000X0.170000X-0.140000X0.170000X0.140000X0*%
G04 #@! TD*
G04 #@! TA.AperFunction,ComponentPad*
%ADD12C,1.638000*%
G04 #@! TD*
G04 #@! TA.AperFunction,ComponentPad*
%ADD13C,4.801000*%
G04 #@! TD*
G04 #@! TA.AperFunction,SMDPad,CuDef*
%ADD14RoundRect,0.051250X-0.733750X-0.153750X0.733750X-0.153750X0.733750X0.153750X-0.733750X0.153750X0*%
G04 #@! TD*
G04 #@! TA.AperFunction,SMDPad,CuDef*
%ADD15RoundRect,0.135000X-0.135000X-0.185000X0.135000X-0.185000X0.135000X0.185000X-0.135000X0.185000X0*%
G04 #@! TD*
G04 #@! TA.AperFunction,SMDPad,CuDef*
%ADD16R,1.200000X0.600000*%
G04 #@! TD*
G04 #@! TA.AperFunction,SMDPad,CuDef*
%ADD17R,3.960000X3.960000*%
G04 #@! TD*
G04 #@! TA.AperFunction,SMDPad,CuDef*
%ADD18R,2.540000X3.170000*%
G04 #@! TD*
G04 #@! TA.AperFunction,SMDPad,CuDef*
%ADD19RoundRect,0.135000X0.185000X-0.135000X0.185000X0.135000X-0.185000X0.135000X-0.185000X-0.135000X0*%
G04 #@! TD*
G04 #@! TA.AperFunction,SMDPad,CuDef*
%ADD20RoundRect,0.150000X-0.512500X-0.150000X0.512500X-0.150000X0.512500X0.150000X-0.512500X0.150000X0*%
G04 #@! TD*
G04 #@! TA.AperFunction,SMDPad,CuDef*
%ADD21R,2.440000X1.200000*%
G04 #@! TD*
G04 #@! TA.AperFunction,SMDPad,CuDef*
%ADD22RoundRect,0.140000X0.170000X-0.140000X0.170000X0.140000X-0.170000X0.140000X-0.170000X-0.140000X0*%
G04 #@! TD*
G04 #@! TA.AperFunction,SMDPad,CuDef*
%ADD23RoundRect,0.225000X0.225000X0.250000X-0.225000X0.250000X-0.225000X-0.250000X0.225000X-0.250000X0*%
G04 #@! TD*
G04 #@! TA.AperFunction,SMDPad,CuDef*
%ADD24RoundRect,0.218750X-0.218750X-0.256250X0.218750X-0.256250X0.218750X0.256250X-0.218750X0.256250X0*%
G04 #@! TD*
G04 #@! TA.AperFunction,SMDPad,CuDef*
%ADD25RoundRect,0.140000X-0.140000X-0.170000X0.140000X-0.170000X0.140000X0.170000X-0.140000X0.170000X0*%
G04 #@! TD*
G04 #@! TA.AperFunction,SMDPad,CuDef*
%ADD26R,1.910000X0.640000*%
G04 #@! TD*
G04 #@! TA.AperFunction,SMDPad,CuDef*
%ADD27R,5.200000X1.250000*%
G04 #@! TD*
G04 #@! TA.AperFunction,SMDPad,CuDef*
%ADD28RoundRect,0.225000X-0.225000X-0.250000X0.225000X-0.250000X0.225000X0.250000X-0.225000X0.250000X0*%
G04 #@! TD*
G04 #@! TA.AperFunction,SMDPad,CuDef*
%ADD29RoundRect,0.225000X0.250000X-0.225000X0.250000X0.225000X-0.250000X0.225000X-0.250000X-0.225000X0*%
G04 #@! TD*
G04 #@! TA.AperFunction,ComponentPad*
%ADD30C,1.800000*%
G04 #@! TD*
G04 #@! TA.AperFunction,ComponentPad*
%ADD31C,1.350000*%
G04 #@! TD*
G04 #@! TA.AperFunction,SMDPad,CuDef*
%ADD32RoundRect,0.250000X-0.375000X-0.625000X0.375000X-0.625000X0.375000X0.625000X-0.375000X0.625000X0*%
G04 #@! TD*
G04 #@! TA.AperFunction,SMDPad,CuDef*
%ADD33RoundRect,0.135000X-0.185000X0.135000X-0.185000X-0.135000X0.185000X-0.135000X0.185000X0.135000X0*%
G04 #@! TD*
G04 #@! TA.AperFunction,SMDPad,CuDef*
%ADD34C,0.230000*%
G04 #@! TD*
G04 #@! TA.AperFunction,ViaPad*
%ADD35C,0.800000*%
G04 #@! TD*
G04 #@! TA.AperFunction,ViaPad*
%ADD36C,0.600000*%
G04 #@! TD*
G04 #@! TA.AperFunction,ViaPad*
%ADD37C,0.450000*%
G04 #@! TD*
G04 #@! TA.AperFunction,ViaPad*
%ADD38C,0.300000*%
G04 #@! TD*
G04 #@! TA.AperFunction,Conductor*
%ADD39C,0.200000*%
G04 #@! TD*
G04 #@! TA.AperFunction,Conductor*
%ADD40C,0.500000*%
G04 #@! TD*
G04 #@! TA.AperFunction,Conductor*
%ADD41C,0.150000*%
G04 #@! TD*
G04 APERTURE END LIST*
D10*
X31780000Y-60410000D03*
X30820000Y-60410000D03*
D11*
X41610000Y-22010000D03*
X41610000Y-22970000D03*
D12*
X50460000Y-55869000D03*
X50460000Y-53583000D03*
X50460000Y-51297000D03*
X50460000Y-49011000D03*
X50460000Y-46725000D03*
X50460000Y-44439000D03*
X50460000Y-42153000D03*
X50460000Y-39867000D03*
X50460000Y-37581000D03*
X50460000Y-35295000D03*
X50460000Y-33009000D03*
X50460000Y-30723000D03*
X50460000Y-28437000D03*
X50460000Y-26151000D03*
X50460000Y-23865000D03*
X53000000Y-57012000D03*
X53000000Y-54726000D03*
X53000000Y-52440000D03*
X53000000Y-50154000D03*
X53000000Y-47868000D03*
X53000000Y-45582000D03*
X53000000Y-43296000D03*
X53000000Y-41010000D03*
X53000000Y-38724000D03*
X53000000Y-36438000D03*
X53000000Y-34152000D03*
X53000000Y-31866000D03*
X53000000Y-29580000D03*
X53000000Y-27294000D03*
X53000000Y-25008000D03*
X55540000Y-55869000D03*
X55540000Y-53583000D03*
X55540000Y-51297000D03*
X55540000Y-49011000D03*
X55540000Y-46725000D03*
X55540000Y-44439000D03*
X55540000Y-42153000D03*
X55540000Y-39867000D03*
X55540000Y-37581000D03*
X55540000Y-35295000D03*
X55540000Y-33009000D03*
X55540000Y-30723000D03*
X55540000Y-28437000D03*
X55540000Y-26151000D03*
D13*
X53000000Y-63895000D03*
X53000000Y-16855000D03*
D14*
X34625000Y-41255000D03*
X34625000Y-41905000D03*
X34625000Y-42555000D03*
X34625000Y-43205000D03*
X34625000Y-43855000D03*
X34625000Y-44505000D03*
X34625000Y-45155000D03*
X34625000Y-45805000D03*
X34625000Y-46455000D03*
X34625000Y-47105000D03*
X40365000Y-47105000D03*
X40365000Y-46455000D03*
X40365000Y-45805000D03*
X40365000Y-45155000D03*
X40365000Y-44505000D03*
X40365000Y-43855000D03*
X40365000Y-43205000D03*
X40365000Y-42555000D03*
X40365000Y-41905000D03*
X40365000Y-41255000D03*
D10*
X52160000Y-8780000D03*
X51200000Y-8780000D03*
X31830000Y-55170000D03*
X30870000Y-55170000D03*
D11*
X40420000Y-21980000D03*
X40420000Y-22940000D03*
D15*
X4330000Y-62870000D03*
X5350000Y-62870000D03*
D16*
X38990000Y-23790000D03*
X38990000Y-22840000D03*
X38990000Y-21890000D03*
X36490000Y-21890000D03*
X36490000Y-22840000D03*
X36490000Y-23790000D03*
D17*
X36810000Y-13190000D03*
D18*
X44430000Y-13190000D03*
X29190000Y-13190000D03*
D19*
X6480000Y-74150000D03*
X6480000Y-73130000D03*
D11*
X6870000Y-68000000D03*
X6870000Y-68960000D03*
D20*
X2715000Y-71200000D03*
X2715000Y-73100000D03*
X4990000Y-72150000D03*
D15*
X10890000Y-26720000D03*
X11910000Y-26720000D03*
D21*
X40010000Y-27210000D03*
X40010000Y-29210000D03*
X40010000Y-32010000D03*
X40010000Y-36010000D03*
X29370000Y-28210000D03*
X29370000Y-35010000D03*
D15*
X45520000Y-54660000D03*
X46540000Y-54660000D03*
D22*
X7950000Y-72550000D03*
X7950000Y-71590000D03*
D16*
X50950000Y-5450000D03*
X50950000Y-6400000D03*
X50950000Y-7350000D03*
X53450000Y-7350000D03*
X53450000Y-6400000D03*
X53450000Y-5450000D03*
D23*
X51925000Y-11220000D03*
X50375000Y-11220000D03*
D22*
X42980000Y-27750000D03*
X42980000Y-26790000D03*
D24*
X4362500Y-61170000D03*
X5937500Y-61170000D03*
D10*
X39830000Y-39980000D03*
X38870000Y-39980000D03*
D25*
X35710000Y-39890000D03*
X36670000Y-39890000D03*
D15*
X26270000Y-22960000D03*
X27290000Y-22960000D03*
X45520000Y-60960000D03*
X46540000Y-60960000D03*
D10*
X52130000Y-9880000D03*
X51170000Y-9880000D03*
D26*
X34385000Y-53395000D03*
X34385000Y-54665000D03*
X34385000Y-55935000D03*
X34385000Y-57205000D03*
X34385000Y-58475000D03*
X34385000Y-59745000D03*
X34385000Y-61015000D03*
X34385000Y-62285000D03*
X43155000Y-62285000D03*
X43155000Y-61015000D03*
X43155000Y-59745000D03*
X43155000Y-58475000D03*
X43155000Y-57205000D03*
X43155000Y-55935000D03*
X43155000Y-54665000D03*
X43155000Y-53395000D03*
D27*
X3000000Y-35975000D03*
X3000000Y-37875000D03*
X3000000Y-39875000D03*
X3000000Y-41875000D03*
X3000000Y-43875000D03*
D11*
X53230000Y-8850000D03*
X53230000Y-9810000D03*
D28*
X55355000Y-5790000D03*
X56905000Y-5790000D03*
D15*
X10850000Y-25270000D03*
X11870000Y-25270000D03*
D29*
X34800000Y-23595000D03*
X34800000Y-22045000D03*
D10*
X31790000Y-61540000D03*
X30830000Y-61540000D03*
X31840000Y-54090000D03*
X30880000Y-54090000D03*
D30*
X8980000Y-63720000D03*
X19140000Y-23080000D03*
X21170000Y-62450000D03*
X24220000Y-51020000D03*
X24220000Y-48480000D03*
X24220000Y-40860000D03*
X24220000Y-38320000D03*
X24220000Y-35780000D03*
X8980000Y-35780000D03*
X8980000Y-48480000D03*
X8980000Y-51020000D03*
X8980000Y-61180000D03*
X24220000Y-25620000D03*
X24220000Y-23080000D03*
X24220000Y-15460000D03*
X24220000Y-12920000D03*
X24220000Y-10380000D03*
X8980000Y-10380000D03*
X8980000Y-23080000D03*
X8980000Y-25620000D03*
X8980000Y-28160000D03*
X8980000Y-30700000D03*
X21170000Y-57370000D03*
X21170000Y-59910000D03*
X24220000Y-68800000D03*
X8980000Y-33240000D03*
X8980000Y-66260000D03*
X16600000Y-23080000D03*
D31*
X13430000Y-53830000D03*
X13430000Y-55830000D03*
X11430000Y-55830000D03*
X11430000Y-53830000D03*
X15430000Y-53830000D03*
X15430000Y-55830000D03*
D30*
X21170000Y-54830000D03*
X21170000Y-52290000D03*
X21680000Y-23080000D03*
X8980000Y-68800000D03*
X11520000Y-66260000D03*
D19*
X4230000Y-68920000D03*
X4230000Y-67900000D03*
D32*
X42990000Y-29630000D03*
X45790000Y-29630000D03*
D33*
X24240000Y-27740000D03*
X24240000Y-28760000D03*
D34*
X5760000Y-68890002D03*
X5359998Y-68890002D03*
X5760000Y-68490000D03*
X5359998Y-68490000D03*
D35*
X51670000Y-57750000D03*
X45110000Y-59000000D03*
X48520000Y-55130000D03*
X47680000Y-51920000D03*
X41480000Y-54970000D03*
X48530000Y-62980000D03*
X41440000Y-62870000D03*
X45190000Y-57720000D03*
D36*
X30840000Y-10940000D03*
D37*
X57895000Y-51810000D03*
X57895000Y-56530000D03*
D36*
X55050000Y-8405000D03*
D35*
X7150000Y-36960000D03*
D38*
X32230000Y-28910000D03*
X33560000Y-28000000D03*
D37*
X32520000Y-31350000D03*
X61840000Y-25270000D03*
D38*
X30660000Y-23520000D03*
X36270000Y-20720000D03*
X47210000Y-24950000D03*
D36*
X29890000Y-55170000D03*
D38*
X38440000Y-26270000D03*
X32620000Y-26630000D03*
D37*
X42590000Y-11620000D03*
X58100000Y-5520000D03*
D38*
X46440000Y-32950000D03*
D37*
X40220000Y-23820000D03*
D38*
X48910000Y-36060000D03*
D37*
X53240000Y-10920000D03*
D38*
X48170000Y-19350000D03*
D37*
X62600000Y-21940000D03*
D38*
X39160000Y-14140000D03*
D37*
X33300000Y-13840000D03*
X60500000Y-37430000D03*
D38*
X29400000Y-23790000D03*
D37*
X58390000Y-22100000D03*
D38*
X39120000Y-30370000D03*
D37*
X52160000Y-6430000D03*
X52140000Y-5470000D03*
X63170000Y-26020000D03*
D38*
X45900000Y-26680000D03*
D37*
X59860000Y-29850000D03*
D38*
X46420000Y-31510000D03*
D37*
X35430000Y-20340000D03*
X42550000Y-10870000D03*
X59030000Y-29670000D03*
D38*
X35100000Y-37910000D03*
X29230000Y-25880000D03*
X28870000Y-32790000D03*
D36*
X27890000Y-31640000D03*
D38*
X28270000Y-40280000D03*
D37*
X41158404Y-9533598D03*
D36*
X29890000Y-54090000D03*
X29950000Y-60410000D03*
D38*
X29400000Y-24820000D03*
X32670000Y-23650000D03*
D37*
X61835000Y-29840000D03*
X31970000Y-7930000D03*
D38*
X30660000Y-22820000D03*
D36*
X29930000Y-61560000D03*
D38*
X31890000Y-40110000D03*
X40830000Y-18240000D03*
D37*
X58070000Y-6780000D03*
D38*
X46280000Y-38800000D03*
D36*
X34250000Y-27880000D03*
D37*
X62750000Y-6810000D03*
X36335000Y-44185000D03*
X52140000Y-7240000D03*
X45940000Y-9205000D03*
X50490000Y-9120000D03*
D38*
X42150000Y-35840000D03*
X32690000Y-24750000D03*
D37*
X41220000Y-12230000D03*
D38*
X40920000Y-23800000D03*
D37*
X40470000Y-9085000D03*
D38*
X32720000Y-25760000D03*
D36*
X26670000Y-28510000D03*
D37*
X63150000Y-33200000D03*
D38*
X58140000Y-36880000D03*
D37*
X61480000Y-26500000D03*
D38*
X32630000Y-22790000D03*
D37*
X37800000Y-8035000D03*
D35*
X27370000Y-17420000D03*
D37*
X33390000Y-7940000D03*
X45720000Y-10668000D03*
D38*
X45720000Y-20190000D03*
D37*
X60260000Y-8540000D03*
D38*
X30660000Y-24250000D03*
X33190000Y-34000000D03*
D37*
X43440000Y-23790000D03*
D36*
X47420000Y-54660000D03*
D37*
X39900000Y-13870000D03*
D35*
X28810000Y-18020000D03*
D37*
X57810000Y-31850000D03*
X55496232Y-10666232D03*
X59390000Y-27940000D03*
D36*
X47480000Y-61000000D03*
D38*
X26890000Y-22270000D03*
X29380000Y-22700000D03*
X30190000Y-25900000D03*
D36*
X29950000Y-31030000D03*
D37*
X44958000Y-10922000D03*
D38*
X34220000Y-27100000D03*
X37550000Y-33210000D03*
D37*
X55570000Y-4800000D03*
D38*
X31470000Y-29840000D03*
D37*
X48958768Y-7841232D03*
X58730000Y-51630000D03*
X48006000Y-12954000D03*
X58780000Y-46680000D03*
X49022000Y-6350000D03*
X30988000Y-15494000D03*
D36*
X25250000Y-20090000D03*
D37*
X58470000Y-18690000D03*
X61610000Y-18680000D03*
X46640000Y-14375000D03*
D38*
X39000000Y-21200000D03*
X45820000Y-24970000D03*
D37*
X62320000Y-27320000D03*
D38*
X45180000Y-37160000D03*
D37*
X58040000Y-7810000D03*
D36*
X29924000Y-32330000D03*
D38*
X29620000Y-33830000D03*
D37*
X62220000Y-28860000D03*
X62740000Y-7820000D03*
D38*
X45790000Y-18580000D03*
X44190000Y-30830000D03*
X32480000Y-35430000D03*
X35830000Y-37760000D03*
X39050000Y-33940000D03*
D37*
X46540000Y-18880000D03*
D38*
X38680000Y-28170000D03*
D36*
X12830000Y-31620000D03*
X25430000Y-29980000D03*
X25940000Y-24000000D03*
D38*
X33640000Y-14730000D03*
X31120000Y-26670000D03*
D36*
X24280000Y-33350000D03*
X24540000Y-30670000D03*
D38*
X50180000Y-8560000D03*
X32675000Y-28175000D03*
D39*
X35752463Y-6320000D02*
X31132463Y-10940000D01*
X39830000Y-39980000D02*
X39830000Y-39520000D01*
X53415505Y-42129000D02*
X52049000Y-42129000D01*
X54350000Y-43063495D02*
X53415505Y-42129000D01*
X39629336Y-41905000D02*
X40365000Y-41905000D01*
D40*
X37580000Y-34440000D02*
X37580000Y-64040000D01*
D39*
X49879000Y-40986000D02*
X49533000Y-40640000D01*
X52160000Y-8780000D02*
X52160000Y-8640000D01*
X54350000Y-43249000D02*
X54350000Y-43063495D01*
X52049000Y-42129000D02*
X50906000Y-40986000D01*
X52130000Y-8810000D02*
X52160000Y-8780000D01*
X42114463Y-6320000D02*
X35752463Y-6320000D01*
X39830000Y-39520000D02*
X43000000Y-36350000D01*
D40*
X4990967Y-68920000D02*
X4230000Y-68920000D01*
D39*
X42340000Y-32010000D02*
X40010000Y-32010000D01*
X49533000Y-40640000D02*
X47290000Y-40640000D01*
X55540000Y-44439000D02*
X54350000Y-43249000D01*
X47789463Y-11995000D02*
X42114463Y-6320000D01*
D40*
X40010000Y-32010000D02*
X37580000Y-34440000D01*
D39*
X39830000Y-39980000D02*
X39280000Y-40530000D01*
D40*
X37580000Y-64040000D02*
X30140000Y-71480000D01*
D39*
X54350000Y-45535000D02*
X55540000Y-46725000D01*
X43000000Y-36350000D02*
X43000000Y-32670000D01*
X31132463Y-10940000D02*
X30840000Y-10940000D01*
X55050000Y-8405000D02*
X54895735Y-8250735D01*
X50906000Y-40986000D02*
X49879000Y-40986000D01*
X54605000Y-8850000D02*
X55050000Y-8405000D01*
X43000000Y-32670000D02*
X42340000Y-32010000D01*
X53160000Y-8780000D02*
X53230000Y-8850000D01*
X52160000Y-8560000D02*
X50950000Y-7350000D01*
X52130000Y-9880000D02*
X52130000Y-11520000D01*
X52160000Y-8640000D02*
X53450000Y-7350000D01*
X51150000Y-11995000D02*
X47789463Y-11995000D01*
D40*
X7540000Y-71480000D02*
X7340000Y-71280000D01*
X7340000Y-71280000D02*
X7340000Y-71269033D01*
D39*
X54350000Y-43249000D02*
X54350000Y-45535000D01*
X52130000Y-9880000D02*
X52130000Y-8810000D01*
X53995000Y-7350000D02*
X53450000Y-7350000D01*
X52160000Y-8780000D02*
X52160000Y-8560000D01*
X39280000Y-41555664D02*
X39629336Y-41905000D01*
D40*
X7340000Y-71269033D02*
X4990967Y-68920000D01*
D39*
X47290000Y-40640000D02*
X43000000Y-36350000D01*
X53230000Y-8850000D02*
X54605000Y-8850000D01*
X39280000Y-40530000D02*
X39280000Y-41555664D01*
D40*
X30140000Y-71480000D02*
X7540000Y-71480000D01*
D39*
X52160000Y-8780000D02*
X53160000Y-8780000D01*
X51925000Y-11220000D02*
X51150000Y-11995000D01*
X36810000Y-13190000D02*
X35880000Y-13190000D01*
X35880000Y-13190000D02*
X27330000Y-21740000D01*
X23020000Y-21740000D02*
X21680000Y-23080000D01*
X27330000Y-21740000D02*
X23020000Y-21740000D01*
X7150000Y-36960000D02*
X6065000Y-35875000D01*
X6065000Y-35875000D02*
X3000000Y-35875000D01*
X35210000Y-22840000D02*
X36490000Y-22840000D01*
X34800000Y-23250000D02*
X35210000Y-22840000D01*
X34800000Y-23595000D02*
X34800000Y-23250000D01*
X34995000Y-23790000D02*
X34800000Y-23595000D01*
X33560000Y-24835000D02*
X33560000Y-28000000D01*
X34800000Y-23595000D02*
X33560000Y-24835000D01*
X36490000Y-23790000D02*
X34995000Y-23790000D01*
X33860000Y-61540000D02*
X34385000Y-61015000D01*
X31780000Y-60410000D02*
X33780000Y-60410000D01*
X33780000Y-60410000D02*
X34385000Y-61015000D01*
X31790000Y-61540000D02*
X33860000Y-61540000D01*
X31830000Y-55170000D02*
X33880000Y-55170000D01*
X31840000Y-54090000D02*
X33810000Y-54090000D01*
X33810000Y-54090000D02*
X34385000Y-54665000D01*
X33880000Y-55170000D02*
X34385000Y-54665000D01*
X4362500Y-61170000D02*
X4362500Y-62837500D01*
X4362500Y-62837500D02*
X4330000Y-62870000D01*
X5947500Y-61180000D02*
X5937500Y-61170000D01*
X8980000Y-61180000D02*
X5947500Y-61180000D01*
X40010000Y-29210000D02*
X38440000Y-29210000D01*
D40*
X42990000Y-29630000D02*
X40430000Y-29630000D01*
D39*
X37986000Y-22344000D02*
X37532000Y-21890000D01*
X40420000Y-21980000D02*
X41580000Y-21980000D01*
D40*
X42990000Y-29630000D02*
X42990000Y-27790000D01*
D39*
X59316000Y-22746000D02*
X42346000Y-22746000D01*
D40*
X41170000Y-29210000D02*
X40010000Y-29210000D01*
D39*
X37986000Y-22344000D02*
X38440000Y-21890000D01*
X61840000Y-25270000D02*
X59316000Y-22746000D01*
X38440000Y-21890000D02*
X38990000Y-21890000D01*
X37532000Y-21890000D02*
X36490000Y-21890000D01*
X40330000Y-21890000D02*
X40420000Y-21980000D01*
X38440000Y-29210000D02*
X37986000Y-28756000D01*
X42346000Y-22746000D02*
X41610000Y-22010000D01*
X41580000Y-21980000D02*
X41610000Y-22010000D01*
D40*
X40430000Y-29630000D02*
X40010000Y-29210000D01*
D39*
X42980000Y-27780000D02*
X42990000Y-27790000D01*
X37986000Y-28756000D02*
X37986000Y-22344000D01*
X38990000Y-21890000D02*
X40330000Y-21890000D01*
D40*
X6050000Y-67180000D02*
X3798944Y-67180000D01*
D41*
X6380000Y-68490000D02*
X6870000Y-68000000D01*
D39*
X46280000Y-60960000D02*
X47440000Y-60960000D01*
X40420000Y-22940000D02*
X41580000Y-22940000D01*
X29950000Y-61540000D02*
X30830000Y-61540000D01*
X40190000Y-23790000D02*
X40220000Y-23820000D01*
X29190000Y-13190000D02*
X32250000Y-13190000D01*
X45940000Y-9205000D02*
X47955000Y-11220000D01*
D40*
X4990000Y-72150000D02*
X5500000Y-72150000D01*
D39*
X51170000Y-9880000D02*
X51170000Y-9800000D01*
X5350000Y-62870000D02*
X5590000Y-62870000D01*
X50950000Y-6400000D02*
X52130000Y-6400000D01*
D40*
X5500000Y-72150000D02*
X6480000Y-73130000D01*
D39*
X50830000Y-8780000D02*
X50490000Y-9120000D01*
X42110000Y-10870000D02*
X44430000Y-13190000D01*
X29930000Y-61560000D02*
X29950000Y-61540000D01*
D40*
X1602500Y-69376444D02*
X1602500Y-71612500D01*
X8980000Y-66260000D02*
X8610000Y-66260000D01*
D39*
X57830000Y-5790000D02*
X58100000Y-5520000D01*
X42430000Y-23790000D02*
X43440000Y-23790000D01*
X46280000Y-54660000D02*
X47420000Y-54660000D01*
X47955000Y-11220000D02*
X50375000Y-11220000D01*
X32250000Y-13190000D02*
X34570000Y-10870000D01*
X53230000Y-9810000D02*
X53230000Y-10910000D01*
X21900000Y-17780000D02*
X16600000Y-23080000D01*
X52120000Y-5450000D02*
X52140000Y-5470000D01*
X29890000Y-54090000D02*
X30880000Y-54090000D01*
D40*
X30720000Y-72570000D02*
X8260000Y-72570000D01*
D39*
X51200000Y-8780000D02*
X50830000Y-8780000D01*
D40*
X1602500Y-71612500D02*
X2140000Y-72150000D01*
D39*
X36680000Y-40090000D02*
X36470000Y-40300000D01*
D40*
X3798944Y-67180000D02*
X1602500Y-69376444D01*
D39*
X38990000Y-22840000D02*
X40320000Y-22840000D01*
X40320000Y-22840000D02*
X40420000Y-22940000D01*
X53230000Y-10910000D02*
X53240000Y-10920000D01*
X36470000Y-40300000D02*
X36470000Y-44050000D01*
D40*
X2140000Y-72150000D02*
X4990000Y-72150000D01*
D39*
X41580000Y-22940000D02*
X41610000Y-22970000D01*
X36470000Y-44050000D02*
X36335000Y-44185000D01*
X34800000Y-22045000D02*
X34800000Y-20970000D01*
D40*
X6480000Y-73130000D02*
X7370000Y-73130000D01*
X38730000Y-64560000D02*
X30720000Y-72570000D01*
D39*
X5590000Y-62870000D02*
X8980000Y-66260000D01*
D40*
X38730000Y-37290000D02*
X38730000Y-64560000D01*
D39*
X34800000Y-20970000D02*
X35430000Y-20340000D01*
X52130000Y-6400000D02*
X52160000Y-6430000D01*
X24600000Y-17780000D02*
X21900000Y-17780000D01*
X41610000Y-22970000D02*
X42430000Y-23790000D01*
D40*
X6870000Y-68000000D02*
X6050000Y-67180000D01*
D39*
X50950000Y-5450000D02*
X52120000Y-5450000D01*
X29950000Y-60410000D02*
X30820000Y-60410000D01*
X40365000Y-47105000D02*
X39595000Y-47105000D01*
X56905000Y-5790000D02*
X57830000Y-5790000D01*
D40*
X8610000Y-66260000D02*
X6870000Y-68000000D01*
D39*
X29890000Y-55170000D02*
X30870000Y-55170000D01*
X34570000Y-10870000D02*
X42110000Y-10870000D01*
X29190000Y-13190000D02*
X24600000Y-17780000D01*
X51170000Y-9800000D02*
X50490000Y-9120000D01*
X38990000Y-23790000D02*
X40190000Y-23790000D01*
D40*
X40010000Y-36010000D02*
X38730000Y-37290000D01*
X7370000Y-73130000D02*
X7950000Y-72550000D01*
D39*
X39595000Y-47105000D02*
X38730000Y-46240000D01*
X47440000Y-60960000D02*
X47480000Y-61000000D01*
D41*
X5760000Y-68490000D02*
X6380000Y-68490000D01*
D39*
X55355000Y-5015000D02*
X55570000Y-4800000D01*
X55240000Y-5790000D02*
X55355000Y-5790000D01*
X54610000Y-6400000D02*
X54620000Y-6410000D01*
X54620000Y-6410000D02*
X55240000Y-5790000D01*
X55355000Y-5790000D02*
X55355000Y-5015000D01*
X55015000Y-5450000D02*
X55355000Y-5790000D01*
X53450000Y-6400000D02*
X54610000Y-6400000D01*
X53450000Y-5450000D02*
X55015000Y-5450000D01*
X31025000Y-41905000D02*
X31020000Y-41900000D01*
X14547057Y-67590000D02*
X10677057Y-63720000D01*
X25260000Y-20090000D02*
X25250000Y-20090000D01*
X35710000Y-42205001D02*
X35409999Y-41905000D01*
X36720000Y-47814999D02*
X36720000Y-63550000D01*
X23588000Y-20100000D02*
X22120000Y-20100000D01*
X26890000Y-37770000D02*
X26890000Y-34450000D01*
X34625000Y-41905000D02*
X31025000Y-41905000D01*
X35710000Y-46804999D02*
X36720000Y-47814999D01*
X34625000Y-47105000D02*
X35409999Y-47105000D01*
X10677057Y-63720000D02*
X8980000Y-63720000D01*
X35409999Y-47105000D02*
X35710000Y-46804999D01*
X19140000Y-26700000D02*
X19140000Y-23080000D01*
X22120000Y-20100000D02*
X19140000Y-23080000D01*
X35720000Y-41594999D02*
X35720000Y-40090000D01*
X49022000Y-7778000D02*
X48958768Y-7841232D01*
X36720000Y-63550000D02*
X32680000Y-67590000D01*
X25270000Y-20100000D02*
X22120000Y-20100000D01*
X28194000Y-15494000D02*
X23588000Y-20100000D01*
X32680000Y-67590000D02*
X14547057Y-67590000D01*
X26890000Y-34450000D02*
X19140000Y-26700000D01*
X30988000Y-15494000D02*
X28194000Y-15494000D01*
X49022000Y-6350000D02*
X49022000Y-7778000D01*
X31020000Y-41900000D02*
X26890000Y-37770000D01*
X35409999Y-41905000D02*
X35720000Y-41594999D01*
X35409999Y-41905000D02*
X34625000Y-41905000D01*
X25270000Y-20100000D02*
X25260000Y-20090000D01*
X35710000Y-46804999D02*
X35710000Y-42205001D01*
X51881416Y-14154500D02*
X50299500Y-15736416D01*
X53375500Y-14154500D02*
X51881416Y-14154500D01*
X50299500Y-17230500D02*
X48650000Y-18880000D01*
X48650000Y-18880000D02*
X46540000Y-18880000D01*
X50299500Y-15736416D02*
X50299500Y-17230500D01*
X58050000Y-7820000D02*
X58040000Y-7810000D01*
X58040000Y-9490000D02*
X53375500Y-14154500D01*
X62740000Y-7820000D02*
X58050000Y-7820000D01*
X58040000Y-7810000D02*
X58040000Y-9490000D01*
D41*
X6800002Y-68890002D02*
X6870000Y-68960000D01*
X5760000Y-68890002D02*
X6800002Y-68890002D01*
D40*
X8980000Y-68800000D02*
X7030000Y-68800000D01*
X7030000Y-68800000D02*
X6870000Y-68960000D01*
D39*
X10850000Y-24950001D02*
X10850000Y-25270000D01*
X8980000Y-23080000D02*
X10850000Y-24950001D01*
X25065000Y-43855000D02*
X12830000Y-31620000D01*
X34625000Y-43855000D02*
X25065000Y-43855000D01*
X23320000Y-45180000D02*
X10830000Y-32690000D01*
X10830000Y-32690000D02*
X10830000Y-30010000D01*
X34600000Y-45180000D02*
X23320000Y-45180000D01*
X34625000Y-45155000D02*
X34600000Y-45180000D01*
X10830000Y-30010000D02*
X8980000Y-28160000D01*
X25960000Y-29450000D02*
X25430000Y-29980000D01*
X25960000Y-24020000D02*
X25960000Y-29450000D01*
X25940000Y-24000000D02*
X25960000Y-24020000D01*
X8396185Y-39833962D02*
X8289705Y-39940441D01*
X9244701Y-40682504D02*
X9138234Y-40788970D01*
X5800000Y-37875000D02*
X3000000Y-37875000D01*
X8713970Y-40364706D02*
X8713971Y-40364706D01*
X19730000Y-51805000D02*
X9562500Y-41637500D01*
X21170000Y-57370000D02*
X19730000Y-55930000D01*
X9562499Y-41213235D02*
X9562500Y-41213235D01*
X8713971Y-40364706D02*
X8820450Y-40258226D01*
X7865441Y-39940441D02*
X7865442Y-39940442D01*
X8396185Y-39833961D02*
X8396185Y-39833962D01*
X19730000Y-55930000D02*
X19730000Y-51805000D01*
X7865442Y-39940442D02*
X5800000Y-37875000D01*
X8713970Y-40788970D02*
X8713971Y-40788971D01*
X9244701Y-40682503D02*
X9244701Y-40682504D01*
X9562500Y-41213235D02*
X9668966Y-41106768D01*
X8713971Y-40788969D02*
G75*
G03*
X9138233Y-40788969I212131J212131D01*
G01*
X8820432Y-39833980D02*
G75*
G03*
X8396186Y-39833962I-212132J-212120D01*
G01*
X8713972Y-40364708D02*
G75*
G03*
X8713971Y-40788971I212128J-212132D01*
G01*
X9668932Y-40682538D02*
G75*
G03*
X9244702Y-40682504I-212132J-212062D01*
G01*
X8820455Y-40258231D02*
G75*
G03*
X8820449Y-39833963I-212155J212131D01*
G01*
X7865442Y-39940440D02*
G75*
G03*
X8289704Y-39940440I212131J212131D01*
G01*
X9668970Y-41106772D02*
G75*
G03*
X9668966Y-40682504I-212140J212132D01*
G01*
X9562502Y-41213238D02*
G75*
G03*
X9562500Y-41637500I212128J-212132D01*
G01*
X21170000Y-59910000D02*
X19950000Y-59910000D01*
X19330000Y-52180000D02*
X7025000Y-39875000D01*
X19950000Y-59910000D02*
X19330000Y-59290000D01*
X7025000Y-39875000D02*
X3000000Y-39875000D01*
X19330000Y-59290000D02*
X19330000Y-52180000D01*
X43790000Y-55935000D02*
X44867000Y-57012000D01*
X43155000Y-55935000D02*
X43790000Y-55935000D01*
X44867000Y-57012000D02*
X53000000Y-57012000D01*
X47986000Y-53395000D02*
X50460000Y-55869000D01*
X43155000Y-53395000D02*
X47986000Y-53395000D01*
X53000000Y-54726000D02*
X53000000Y-54854315D01*
X53590686Y-55445000D02*
X54519000Y-56373315D01*
X54519000Y-57641191D02*
X52015190Y-60145000D01*
X54519000Y-56373315D02*
X54519000Y-57641191D01*
X53000000Y-54854315D02*
X52555748Y-55298567D01*
X53590686Y-55316686D02*
X53000000Y-54726000D01*
X50585000Y-60145000D02*
X48480000Y-62250000D01*
X53590686Y-55445000D02*
X53590686Y-55316686D01*
X52015190Y-60145000D02*
X50585000Y-60145000D01*
X48480000Y-62250000D02*
X43190000Y-62250000D01*
X43190000Y-62250000D02*
X43155000Y-62285000D01*
X54119000Y-56539000D02*
X53425000Y-55845000D01*
X54119000Y-57475505D02*
X54119000Y-56539000D01*
X53425000Y-55845000D02*
X52536495Y-55845000D01*
X52536495Y-55845000D02*
X50460000Y-53768505D01*
X50460000Y-53768505D02*
X50460000Y-53583000D01*
X51849505Y-59745000D02*
X54119000Y-57475505D01*
X43155000Y-59745000D02*
X51849505Y-59745000D01*
X45725000Y-61015000D02*
X45780000Y-60960000D01*
X43155000Y-61015000D02*
X45725000Y-61015000D01*
X43155000Y-54665000D02*
X45775000Y-54665000D01*
X45775000Y-54665000D02*
X45780000Y-54660000D01*
X26860000Y-54380000D02*
X28751471Y-54380000D01*
X23230000Y-64210000D02*
X24600000Y-62840000D01*
X24600000Y-62840000D02*
X24600000Y-56640000D01*
X28751471Y-54380000D02*
X29736471Y-53395000D01*
X11870000Y-51840000D02*
X16290000Y-51840000D01*
X18910000Y-64210000D02*
X23230000Y-64210000D01*
X17600000Y-62900000D02*
X18910000Y-64210000D01*
X29736471Y-53395000D02*
X34385000Y-53395000D01*
X24600000Y-56640000D02*
X26860000Y-54380000D01*
X10455000Y-54855000D02*
X10455000Y-53255000D01*
X11430000Y-55830000D02*
X10455000Y-54855000D01*
X16290000Y-51840000D02*
X17600000Y-53150000D01*
X17600000Y-53150000D02*
X17600000Y-62900000D01*
X10455000Y-53255000D02*
X11870000Y-51840000D01*
X25000000Y-63005685D02*
X23385686Y-64620000D01*
X26177155Y-56052796D02*
X26322680Y-56198321D01*
X34385000Y-55935000D02*
X29806471Y-55935000D01*
X27025685Y-55204266D02*
X27171197Y-55349778D01*
X26177156Y-56052796D02*
X26177155Y-56052796D01*
X27171198Y-55774042D02*
X27171197Y-55774044D01*
X25328627Y-56477060D02*
X25000000Y-56805686D01*
X11430000Y-52920000D02*
X11430000Y-53830000D01*
X27025686Y-55204266D02*
X27025685Y-55204266D01*
X25000000Y-60505686D02*
X25000000Y-63005685D01*
X25000000Y-56805686D02*
X25000000Y-57455686D01*
X25000000Y-58655686D02*
X25000000Y-60505686D01*
X26177158Y-55628532D02*
X26177156Y-55628530D01*
X18754314Y-64620000D02*
X17200000Y-63065685D01*
X12110000Y-52240000D02*
X11430000Y-52920000D01*
X17200000Y-53350000D02*
X16090000Y-52240000D01*
X26177157Y-55628532D02*
X26177158Y-55628532D01*
X25898417Y-56622585D02*
X25752893Y-56477061D01*
X28651471Y-54780000D02*
X27025686Y-54780000D01*
X26746933Y-55774044D02*
X26601422Y-55628533D01*
X27171198Y-55774043D02*
X27171198Y-55774042D01*
X26322680Y-56622585D02*
X26322681Y-56622585D01*
X25328629Y-56477061D02*
X25328627Y-56477060D01*
X17200000Y-63065685D02*
X17200000Y-53350000D01*
X25505810Y-58355686D02*
X25300000Y-58355686D01*
X23385686Y-64620000D02*
X18754314Y-64620000D01*
X29806471Y-55935000D02*
X28651471Y-54780000D01*
X25300000Y-57755686D02*
X25505810Y-57755686D01*
X16090000Y-52240000D02*
X12110000Y-52240000D01*
X27171187Y-55774032D02*
G75*
G03*
X27171197Y-55349778I-212087J212132D01*
G01*
X26746934Y-55774043D02*
G75*
G03*
X27171196Y-55774043I212131J212131D01*
G01*
X26177194Y-55628568D02*
G75*
G03*
X26177157Y-56052795I212106J-212132D01*
G01*
X25805814Y-58055686D02*
G75*
G03*
X25505810Y-57755686I-300014J-14D01*
G01*
X25505810Y-58355710D02*
G75*
G03*
X25805810Y-58055686I-10J300010D01*
G01*
X27025653Y-54779967D02*
G75*
G03*
X27025686Y-55204266I212147J-212133D01*
G01*
X25300000Y-58355700D02*
G75*
G03*
X25000000Y-58655686I0J-300000D01*
G01*
X25000014Y-57455686D02*
G75*
G03*
X25300000Y-57755686I299986J-14D01*
G01*
X26601433Y-55628522D02*
G75*
G03*
X26177157Y-55628532I-212133J-212178D01*
G01*
X25752892Y-56477062D02*
G75*
G03*
X25328630Y-56477062I-212131J-212131D01*
G01*
X25898418Y-56622584D02*
G75*
G03*
X26322680Y-56622584I212131J212131D01*
G01*
X26322727Y-56622632D02*
G75*
G03*
X26322680Y-56198321I-212227J212132D01*
G01*
X15880000Y-63170000D02*
X18200000Y-65490000D01*
X15880000Y-57070000D02*
X15880000Y-63170000D01*
X16405000Y-54805000D02*
X16405000Y-56545000D01*
X16405000Y-56545000D02*
X15880000Y-57070000D01*
X23754314Y-65490000D02*
X29499314Y-59745000D01*
X18200000Y-65490000D02*
X23754314Y-65490000D01*
X29499314Y-59745000D02*
X34385000Y-59745000D01*
X15430000Y-53830000D02*
X16405000Y-54805000D01*
X27174134Y-63353988D02*
X27027207Y-63207061D01*
X26602941Y-63207060D02*
X23920000Y-65890000D01*
X18034315Y-65890000D02*
X15480000Y-63335686D01*
X28022664Y-62505458D02*
X27875737Y-62358531D01*
X28299999Y-61934266D02*
X28446927Y-62081194D01*
X27598397Y-63353988D02*
X27598398Y-63353988D01*
X34385000Y-62285000D02*
X29806471Y-62285000D01*
X27451469Y-62782796D02*
X27598397Y-62929724D01*
X26602943Y-63207061D02*
X26602941Y-63207060D01*
X27451470Y-62782796D02*
X27451469Y-62782796D01*
X15480000Y-63335686D02*
X15480000Y-55880000D01*
X23920000Y-65890000D02*
X18034315Y-65890000D01*
X15480000Y-55880000D02*
X15430000Y-55830000D01*
X27451471Y-62358530D02*
X27451470Y-62358530D01*
X29806471Y-62285000D02*
X29031471Y-61510000D01*
X28300000Y-61934266D02*
X28299999Y-61934266D01*
X28446927Y-62505458D02*
X28446928Y-62505458D01*
X29031471Y-61510000D02*
X28300000Y-61510000D01*
X27451473Y-62358531D02*
X27451471Y-62358530D01*
X28299967Y-61509967D02*
G75*
G03*
X28300000Y-61934266I212133J-212133D01*
G01*
X27598441Y-63354032D02*
G75*
G03*
X27598397Y-62929724I-212141J212132D01*
G01*
X27451507Y-62358567D02*
G75*
G03*
X27451470Y-62782796I212093J-212133D01*
G01*
X28022665Y-62505457D02*
G75*
G03*
X28446927Y-62505457I212131J212131D01*
G01*
X27027206Y-63207062D02*
G75*
G03*
X26602944Y-63207062I-212131J-212131D01*
G01*
X27875736Y-62358532D02*
G75*
G03*
X27451474Y-62358532I-212131J-212131D01*
G01*
X27174135Y-63353987D02*
G75*
G03*
X27598397Y-63353987I212131J212131D01*
G01*
X28446901Y-62505432D02*
G75*
G03*
X28446927Y-62081194I-212101J212132D01*
G01*
X26150000Y-23080000D02*
X26270000Y-22960000D01*
X24440000Y-23300000D02*
X24220000Y-23080000D01*
X24220000Y-23080000D02*
X26150000Y-23080000D01*
X24220000Y-25620000D02*
X24220000Y-27720000D01*
X24260000Y-25580000D02*
X24220000Y-25620000D01*
X24220000Y-27720000D02*
X24240000Y-27740000D01*
X10080000Y-26720000D02*
X10890000Y-26720000D01*
X8980000Y-25620000D02*
X10080000Y-26720000D01*
X28805000Y-46455000D02*
X24240000Y-51020000D01*
X34625000Y-46455000D02*
X28805000Y-46455000D01*
X24240000Y-51020000D02*
X24220000Y-51020000D01*
X26865000Y-45805000D02*
X24220000Y-48450000D01*
X34625000Y-45805000D02*
X26865000Y-45805000D01*
X24220000Y-48450000D02*
X24220000Y-48480000D01*
X40365000Y-44505000D02*
X48240000Y-44505000D01*
X48240000Y-44505000D02*
X50460000Y-46725000D01*
X49226000Y-43205000D02*
X50460000Y-44439000D01*
X40365000Y-43205000D02*
X49226000Y-43205000D01*
X40365000Y-41255000D02*
X49562000Y-41255000D01*
X49562000Y-41255000D02*
X50460000Y-42153000D01*
X40365000Y-46455000D02*
X44035495Y-46455000D01*
X44035495Y-46455000D02*
X50020495Y-52440000D01*
X50020495Y-52440000D02*
X53000000Y-52440000D01*
X40365000Y-45805000D02*
X45671495Y-45805000D01*
X50020495Y-50154000D02*
X53000000Y-50154000D01*
X45671495Y-45805000D02*
X50020495Y-50154000D01*
X40365000Y-45155000D02*
X47307495Y-45155000D01*
X50020495Y-47868000D02*
X53000000Y-47868000D01*
X47307495Y-45155000D02*
X50020495Y-47868000D01*
X40365000Y-43855000D02*
X48293495Y-43855000D01*
X48293495Y-43855000D02*
X50020495Y-45582000D01*
X50020495Y-45582000D02*
X53000000Y-45582000D01*
X49972495Y-43296000D02*
X53000000Y-43296000D01*
X49231495Y-42555000D02*
X49972495Y-43296000D01*
X40365000Y-42555000D02*
X49231495Y-42555000D01*
X55540000Y-39867000D02*
X57370000Y-41697000D01*
X5895000Y-74390000D02*
X4605000Y-73100000D01*
X57370000Y-63344084D02*
X46324084Y-74390000D01*
X57370000Y-41697000D02*
X57370000Y-63344084D01*
X46324084Y-74390000D02*
X5895000Y-74390000D01*
X4605000Y-73100000D02*
X2715000Y-73100000D01*
D41*
X3821406Y-67900000D02*
X2715000Y-69006406D01*
X5359998Y-68490000D02*
X4769998Y-67900000D01*
X4769998Y-67900000D02*
X4230000Y-67900000D01*
X2715000Y-69006406D02*
X2715000Y-71200000D01*
X4230000Y-67900000D02*
X3821406Y-67900000D01*
D39*
X27290000Y-36850000D02*
X31695000Y-41255000D01*
X27290000Y-22960000D02*
X27290000Y-36850000D01*
X31695000Y-41255000D02*
X34625000Y-41255000D01*
X17048529Y-25270000D02*
X11870000Y-25270000D01*
X26130000Y-39494314D02*
X26130000Y-34351471D01*
X33684336Y-42760000D02*
X29395686Y-42760000D01*
X33889336Y-42555000D02*
X33684336Y-42760000D01*
X26130000Y-34351471D02*
X17048529Y-25270000D01*
X34625000Y-42555000D02*
X33889336Y-42555000D01*
X29395686Y-42760000D02*
X26130000Y-39494314D01*
X29275000Y-43205000D02*
X34625000Y-43205000D01*
X25730000Y-34800000D02*
X25730000Y-39660000D01*
X24540000Y-30670000D02*
X24240000Y-30370000D01*
X25730000Y-39660000D02*
X29275000Y-43205000D01*
X24240000Y-30370000D02*
X24240000Y-28760000D01*
X24280000Y-33350000D02*
X25730000Y-34800000D01*
X24235000Y-44505000D02*
X34625000Y-44505000D01*
X11910000Y-26720000D02*
X11910000Y-32180000D01*
X11910000Y-32180000D02*
X24235000Y-44505000D01*
X48935073Y-8560000D02*
X50180000Y-8560000D01*
X31430000Y-5710000D02*
X46085073Y-5710000D01*
X46085073Y-5710000D02*
X48935073Y-8560000D01*
X24220000Y-12920000D02*
X31430000Y-5710000D01*
D40*
X52190000Y-41010000D02*
X51047000Y-39867000D01*
X48387051Y-39867000D02*
X45790000Y-37269949D01*
X50460000Y-39867000D02*
X48387051Y-39867000D01*
X45790000Y-37269949D02*
X45790000Y-29630000D01*
X53000000Y-41010000D02*
X52190000Y-41010000D01*
X51047000Y-39867000D02*
X50460000Y-39867000D01*
D39*
X55540000Y-42153000D02*
X55540000Y-41967495D01*
D40*
X47240001Y-36170001D02*
X49801181Y-38731181D01*
X44946878Y-26790000D02*
X47240001Y-29083123D01*
X47240001Y-29083123D02*
X47240001Y-36170001D01*
X49801181Y-38731181D02*
X49826181Y-38706181D01*
D39*
X50923505Y-38748000D02*
X49868000Y-38748000D01*
X53415505Y-39843000D02*
X52018505Y-39843000D01*
D40*
X40010000Y-27210000D02*
X40430000Y-26790000D01*
D39*
X52018505Y-39843000D02*
X50923505Y-38748000D01*
D40*
X42980000Y-26790000D02*
X44946878Y-26790000D01*
D39*
X49868000Y-38748000D02*
X49826181Y-38706181D01*
D40*
X40430000Y-26790000D02*
X42980000Y-26790000D01*
D39*
X55540000Y-41967495D02*
X53415505Y-39843000D01*
G04 #@! TA.AperFunction,Conductor*
G36*
X31923076Y-23393040D02*
G01*
X31971399Y-23443504D01*
X31985228Y-23504941D01*
X31873301Y-26670002D01*
X31810000Y-28460000D01*
X31913408Y-28571681D01*
X31944512Y-28634245D01*
X31936852Y-28703694D01*
X31932908Y-28712220D01*
X31888646Y-28799091D01*
X31871081Y-28909997D01*
X31871081Y-28910002D01*
X31888646Y-29020909D01*
X31939626Y-29120965D01*
X32019034Y-29200373D01*
X32119090Y-29251353D01*
X32229998Y-29268919D01*
X32230000Y-29268919D01*
X32230002Y-29268919D01*
X32285456Y-29260135D01*
X32340912Y-29251352D01*
X32394476Y-29224059D01*
X32463144Y-29211163D01*
X32527884Y-29237439D01*
X32541756Y-29250297D01*
X33310000Y-30080000D01*
X37174038Y-29951855D01*
X37241690Y-29969307D01*
X37268395Y-29990752D01*
X38335175Y-31123037D01*
X38366819Y-31185329D01*
X38368892Y-31210773D01*
X38329756Y-33004451D01*
X38308614Y-33071045D01*
X38293467Y-33089427D01*
X37504163Y-33878731D01*
X37442840Y-33912216D01*
X37417183Y-33915048D01*
X30103620Y-33956407D01*
X30036471Y-33937102D01*
X29990418Y-33884557D01*
X29980510Y-33839628D01*
X29980446Y-33839639D01*
X29980274Y-33838556D01*
X29978919Y-33832409D01*
X29978919Y-33829997D01*
X29961353Y-33719090D01*
X29910373Y-33619034D01*
X29830965Y-33539626D01*
X29730909Y-33488646D01*
X29620002Y-33471081D01*
X29619998Y-33471081D01*
X29509090Y-33488646D01*
X29409034Y-33539626D01*
X29329626Y-33619034D01*
X29278646Y-33719090D01*
X29261081Y-33829997D01*
X29261081Y-33837870D01*
X29241396Y-33904909D01*
X29188592Y-33950664D01*
X29137782Y-33961868D01*
X27823148Y-33969303D01*
X27755999Y-33949998D01*
X27709946Y-33897454D01*
X27698457Y-33846861D01*
X27679460Y-32330000D01*
X29418353Y-32330000D01*
X29438834Y-32472456D01*
X29498622Y-32603371D01*
X29498623Y-32603373D01*
X29592872Y-32712143D01*
X29713947Y-32789953D01*
X29713950Y-32789954D01*
X29713949Y-32789954D01*
X29852036Y-32830499D01*
X29852038Y-32830500D01*
X29852039Y-32830500D01*
X29995962Y-32830500D01*
X29995962Y-32830499D01*
X30134053Y-32789953D01*
X30255128Y-32712143D01*
X30349377Y-32603373D01*
X30409165Y-32472457D01*
X30429647Y-32330000D01*
X30409165Y-32187543D01*
X30349377Y-32056627D01*
X30255128Y-31947857D01*
X30134053Y-31870047D01*
X30134051Y-31870046D01*
X30134049Y-31870045D01*
X30134050Y-31870045D01*
X29995963Y-31829500D01*
X29995961Y-31829500D01*
X29852039Y-31829500D01*
X29852036Y-31829500D01*
X29713949Y-31870045D01*
X29592873Y-31947856D01*
X29498623Y-32056626D01*
X29498622Y-32056628D01*
X29438834Y-32187543D01*
X29418353Y-32330000D01*
X27679460Y-32330000D01*
X27667186Y-31350002D01*
X32089196Y-31350002D01*
X32110279Y-31483121D01*
X32110280Y-31483124D01*
X32110281Y-31483126D01*
X32171472Y-31603220D01*
X32171473Y-31603221D01*
X32171476Y-31603225D01*
X32266774Y-31698523D01*
X32266778Y-31698526D01*
X32266780Y-31698528D01*
X32386874Y-31759719D01*
X32386876Y-31759719D01*
X32386878Y-31759720D01*
X32519998Y-31780804D01*
X32520000Y-31780804D01*
X32520002Y-31780804D01*
X32653121Y-31759720D01*
X32653121Y-31759719D01*
X32653126Y-31759719D01*
X32773220Y-31698528D01*
X32868528Y-31603220D01*
X32929719Y-31483126D01*
X32950804Y-31350000D01*
X32929719Y-31216874D01*
X32868528Y-31096780D01*
X32868526Y-31096778D01*
X32868523Y-31096774D01*
X32773225Y-31001476D01*
X32773221Y-31001473D01*
X32773220Y-31001472D01*
X32653126Y-30940281D01*
X32653124Y-30940280D01*
X32653121Y-30940279D01*
X32520002Y-30919196D01*
X32519998Y-30919196D01*
X32386878Y-30940279D01*
X32266778Y-31001473D01*
X32266774Y-31001476D01*
X32171476Y-31096774D01*
X32171473Y-31096778D01*
X32110279Y-31216878D01*
X32089196Y-31349997D01*
X32089196Y-31350002D01*
X27667186Y-31350002D01*
X27648275Y-29840002D01*
X31111081Y-29840002D01*
X31128646Y-29950909D01*
X31179626Y-30050965D01*
X31259034Y-30130373D01*
X31359090Y-30181353D01*
X31469998Y-30198919D01*
X31470000Y-30198919D01*
X31470002Y-30198919D01*
X31580909Y-30181353D01*
X31580910Y-30181352D01*
X31580912Y-30181352D01*
X31680967Y-30130372D01*
X31760372Y-30050967D01*
X31811352Y-29950912D01*
X31811352Y-29950910D01*
X31811353Y-29950909D01*
X31828919Y-29840002D01*
X31828919Y-29839997D01*
X31811353Y-29729090D01*
X31760373Y-29629034D01*
X31680965Y-29549626D01*
X31580909Y-29498646D01*
X31470002Y-29481081D01*
X31469998Y-29481081D01*
X31359090Y-29498646D01*
X31259034Y-29549626D01*
X31179626Y-29629034D01*
X31128646Y-29729090D01*
X31111081Y-29839997D01*
X31111081Y-29840002D01*
X27648275Y-29840002D01*
X27635623Y-28829752D01*
X27949500Y-28829752D01*
X27961131Y-28888229D01*
X27961132Y-28888230D01*
X28005447Y-28954552D01*
X28071769Y-28998867D01*
X28071770Y-28998868D01*
X28130247Y-29010499D01*
X28130250Y-29010500D01*
X28130252Y-29010500D01*
X30609750Y-29010500D01*
X30609751Y-29010499D01*
X30624568Y-29007552D01*
X30668229Y-28998868D01*
X30668229Y-28998867D01*
X30668231Y-28998867D01*
X30734552Y-28954552D01*
X30778867Y-28888231D01*
X30778867Y-28888229D01*
X30778868Y-28888229D01*
X30790499Y-28829752D01*
X30790500Y-28829750D01*
X30790500Y-27590249D01*
X30790499Y-27590247D01*
X30778868Y-27531770D01*
X30778867Y-27531769D01*
X30734552Y-27465447D01*
X30668230Y-27421132D01*
X30668229Y-27421131D01*
X30609752Y-27409500D01*
X30609748Y-27409500D01*
X28130252Y-27409500D01*
X28130247Y-27409500D01*
X28071770Y-27421131D01*
X28071769Y-27421132D01*
X28005447Y-27465447D01*
X27961132Y-27531769D01*
X27961131Y-27531770D01*
X27949500Y-27590247D01*
X27949500Y-28829752D01*
X27635623Y-28829752D01*
X27608574Y-26670002D01*
X30761081Y-26670002D01*
X30778646Y-26780909D01*
X30829626Y-26880965D01*
X30909034Y-26960373D01*
X31009090Y-27011353D01*
X31119998Y-27028919D01*
X31120000Y-27028919D01*
X31120002Y-27028919D01*
X31230909Y-27011353D01*
X31230910Y-27011352D01*
X31230912Y-27011352D01*
X31330967Y-26960372D01*
X31410372Y-26880967D01*
X31461352Y-26780912D01*
X31461352Y-26780910D01*
X31461353Y-26780909D01*
X31478919Y-26670002D01*
X31478919Y-26669997D01*
X31461353Y-26559090D01*
X31410373Y-26459034D01*
X31330965Y-26379626D01*
X31230909Y-26328646D01*
X31120002Y-26311081D01*
X31119998Y-26311081D01*
X31009090Y-26328646D01*
X30909034Y-26379626D01*
X30829626Y-26459034D01*
X30778646Y-26559090D01*
X30761081Y-26669997D01*
X30761081Y-26670002D01*
X27608574Y-26670002D01*
X27590510Y-25227644D01*
X27590500Y-25226091D01*
X27590500Y-23706960D01*
X27610185Y-23639921D01*
X27662989Y-23594166D01*
X27708328Y-23583114D01*
X31855142Y-23376712D01*
X31923076Y-23393040D01*
G37*
G04 #@! TD.AperFunction*
M02*
