G04 #@! TF.GenerationSoftware,KiCad,Pcbnew,7.0.11*
G04 #@! TF.CreationDate,2024-12-14T07:48:54-05:00*
G04 #@! TF.ProjectId,accessory_v2,61636365-7373-46f7-9279-5f76322e6b69,rev?*
G04 #@! TF.SameCoordinates,Original*
G04 #@! TF.FileFunction,Paste,Bot*
G04 #@! TF.FilePolarity,Positive*
%FSLAX46Y46*%
G04 Gerber Fmt 4.6, Leading zero omitted, Abs format (unit mm)*
G04 Created by KiCad (PCBNEW 7.0.11) date 2024-12-14 07:48:54*
%MOMM*%
%LPD*%
G01*
G04 APERTURE LIST*
G04 Aperture macros list*
%AMRoundRect*
0 Rectangle with rounded corners*
0 $1 Rounding radius*
0 $2 $3 $4 $5 $6 $7 $8 $9 X,Y pos of 4 corners*
0 Add a 4 corners polygon primitive as box body*
4,1,4,$2,$3,$4,$5,$6,$7,$8,$9,$2,$3,0*
0 Add four circle primitives for the rounded corners*
1,1,$1+$1,$2,$3*
1,1,$1+$1,$4,$5*
1,1,$1+$1,$6,$7*
1,1,$1+$1,$8,$9*
0 Add four rect primitives between the rounded corners*
20,1,$1+$1,$2,$3,$4,$5,0*
20,1,$1+$1,$4,$5,$6,$7,0*
20,1,$1+$1,$6,$7,$8,$9,0*
20,1,$1+$1,$8,$9,$2,$3,0*%
G04 Aperture macros list end*
%ADD10C,0.010000*%
%ADD11R,5.200000X1.250000*%
%ADD12RoundRect,0.135000X0.135000X0.185000X-0.135000X0.185000X-0.135000X-0.185000X0.135000X-0.185000X0*%
%ADD13RoundRect,0.140000X-0.170000X0.140000X-0.170000X-0.140000X0.170000X-0.140000X0.170000X0.140000X0*%
%ADD14R,0.450000X1.400000*%
%ADD15RoundRect,0.135000X0.185000X-0.135000X0.185000X0.135000X-0.185000X0.135000X-0.185000X-0.135000X0*%
%ADD16RoundRect,0.150000X0.512500X0.150000X-0.512500X0.150000X-0.512500X-0.150000X0.512500X-0.150000X0*%
%ADD17RoundRect,0.140000X-0.140000X-0.170000X0.140000X-0.170000X0.140000X0.170000X-0.140000X0.170000X0*%
%ADD18RoundRect,0.140000X0.140000X0.170000X-0.140000X0.170000X-0.140000X-0.170000X0.140000X-0.170000X0*%
%ADD19RoundRect,0.035000X0.690000X0.105000X-0.690000X0.105000X-0.690000X-0.105000X0.690000X-0.105000X0*%
%ADD20RoundRect,0.225000X-0.250000X0.225000X-0.250000X-0.225000X0.250000X-0.225000X0.250000X0.225000X0*%
%ADD21RoundRect,0.225000X0.225000X0.250000X-0.225000X0.250000X-0.225000X-0.250000X0.225000X-0.250000X0*%
%ADD22RoundRect,0.225000X-0.225000X-0.250000X0.225000X-0.250000X0.225000X0.250000X-0.225000X0.250000X0*%
%ADD23RoundRect,0.140000X0.170000X-0.140000X0.170000X0.140000X-0.170000X0.140000X-0.170000X-0.140000X0*%
%ADD24RoundRect,0.135000X-0.185000X0.135000X-0.185000X-0.135000X0.185000X-0.135000X0.185000X0.135000X0*%
%ADD25RoundRect,0.135000X-0.135000X-0.185000X0.135000X-0.185000X0.135000X0.185000X-0.135000X0.185000X0*%
%ADD26R,1.475000X0.450000*%
%ADD27RoundRect,0.150000X0.150000X-0.512500X0.150000X0.512500X-0.150000X0.512500X-0.150000X-0.512500X0*%
%ADD28RoundRect,0.035000X-0.105000X0.690000X-0.105000X-0.690000X0.105000X-0.690000X0.105000X0.690000X0*%
%ADD29RoundRect,0.150000X-0.512500X-0.150000X0.512500X-0.150000X0.512500X0.150000X-0.512500X0.150000X0*%
%ADD30R,0.300000X0.850000*%
%ADD31R,0.850000X0.300000*%
%ADD32R,4.050000X4.050000*%
%ADD33RoundRect,0.225000X0.250000X-0.225000X0.250000X0.225000X-0.250000X0.225000X-0.250000X-0.225000X0*%
G04 APERTURE END LIST*
D10*
X37413000Y-11721000D02*
X36587000Y-11721000D01*
X36587000Y-10299000D01*
X37413000Y-10299000D01*
X37413000Y-11721000D01*
G36*
X37413000Y-11721000D02*
G01*
X36587000Y-11721000D01*
X36587000Y-10299000D01*
X37413000Y-10299000D01*
X37413000Y-11721000D01*
G37*
X61821000Y-33613000D02*
X60399000Y-33613000D01*
X60399000Y-32787000D01*
X61821000Y-32787000D01*
X61821000Y-33613000D01*
G36*
X61821000Y-33613000D02*
G01*
X60399000Y-33613000D01*
X60399000Y-32787000D01*
X61821000Y-32787000D01*
X61821000Y-33613000D01*
G37*
D11*
X3000000Y-36875000D03*
X3000000Y-38875000D03*
X3000000Y-40875000D03*
X3000000Y-42875000D03*
X3000000Y-44775000D03*
D12*
X49160000Y-16340000D03*
X48140000Y-16340000D03*
X47107500Y-16327500D03*
X46087500Y-16327500D03*
X44960000Y-25252500D03*
X43940000Y-25252500D03*
D13*
X46097500Y-23140000D03*
X46097500Y-24100000D03*
D14*
X63505000Y-14010000D03*
X62855000Y-14010000D03*
X62205000Y-14010000D03*
X61555000Y-14010000D03*
X61555000Y-9610000D03*
X62205000Y-9610000D03*
X62855000Y-9610000D03*
X63505000Y-9610000D03*
D15*
X34020000Y-39230000D03*
X34020000Y-38210000D03*
D16*
X42770000Y-28535000D03*
X42770000Y-29485000D03*
X42770000Y-30435000D03*
X40495000Y-30435000D03*
X40495000Y-28535000D03*
D13*
X47217500Y-23150000D03*
X47217500Y-24110000D03*
D15*
X57580000Y-55880000D03*
X57580000Y-54860000D03*
D13*
X48140000Y-17650000D03*
X48140000Y-18610000D03*
D17*
X58940000Y-36880000D03*
X59900000Y-36880000D03*
D18*
X47037500Y-17607500D03*
X46077500Y-17607500D03*
D19*
X39160000Y-9260000D03*
X39160000Y-9760000D03*
X39160000Y-10260000D03*
X39160000Y-10760000D03*
X39160000Y-11260000D03*
X39160000Y-11760000D03*
X39160000Y-12260000D03*
X39160000Y-12760000D03*
X34840000Y-12760000D03*
X34840000Y-12260000D03*
X34840000Y-11760000D03*
X34840000Y-11260000D03*
X34840000Y-10760000D03*
X34840000Y-10260000D03*
X34840000Y-9760000D03*
X34840000Y-9260000D03*
D12*
X42692500Y-38005000D03*
X41672500Y-38005000D03*
D18*
X42855000Y-33142500D03*
X41895000Y-33142500D03*
D20*
X63220000Y-27605000D03*
X63220000Y-29155000D03*
D21*
X36495000Y-14160000D03*
X34945000Y-14160000D03*
D15*
X30702500Y-41100000D03*
X30702500Y-40080000D03*
X22020000Y-21000000D03*
X22020000Y-19980000D03*
D18*
X41830000Y-10250000D03*
X40870000Y-10250000D03*
D17*
X61160000Y-36970000D03*
X62120000Y-36970000D03*
X29860000Y-29960000D03*
X30820000Y-29960000D03*
D16*
X40070000Y-38070000D03*
X40070000Y-39020000D03*
X40070000Y-39970000D03*
X37795000Y-39970000D03*
X37795000Y-38070000D03*
D12*
X11695000Y-35740000D03*
X10675000Y-35740000D03*
X22750000Y-35670000D03*
X21730000Y-35670000D03*
D22*
X41025000Y-13730000D03*
X42575000Y-13730000D03*
D16*
X44410000Y-34727500D03*
X44410000Y-35677500D03*
X44410000Y-36627500D03*
X42135000Y-36627500D03*
X42135000Y-34727500D03*
X40170000Y-19700000D03*
X40170000Y-20650000D03*
X40170000Y-21600000D03*
X37895000Y-21600000D03*
X37895000Y-19700000D03*
D23*
X29522500Y-38950000D03*
X29522500Y-37990000D03*
D24*
X61420000Y-20160000D03*
X61420000Y-21180000D03*
D13*
X48042500Y-35620000D03*
X48042500Y-36580000D03*
X60310000Y-28020000D03*
X60310000Y-28980000D03*
D17*
X43970000Y-26482500D03*
X44930000Y-26482500D03*
D13*
X29500000Y-40110000D03*
X29500000Y-41070000D03*
D12*
X58550000Y-15860000D03*
X57530000Y-15860000D03*
D15*
X26210000Y-38880000D03*
X26210000Y-37860000D03*
D25*
X62640000Y-19990000D03*
X63660000Y-19990000D03*
D16*
X44477500Y-16330000D03*
X44477500Y-17280000D03*
X44477500Y-18230000D03*
X42202500Y-18230000D03*
X42202500Y-16330000D03*
D21*
X48781000Y-12192000D03*
X47231000Y-12192000D03*
D24*
X57420000Y-20080000D03*
X57420000Y-21100000D03*
D18*
X41830000Y-11400000D03*
X40870000Y-11400000D03*
D24*
X47237500Y-21020000D03*
X47237500Y-22040000D03*
D26*
X53458000Y-5105000D03*
X53458000Y-5755000D03*
X53458000Y-6405000D03*
X53458000Y-7055000D03*
X53458000Y-7705000D03*
X53458000Y-8355000D03*
X53458000Y-9005000D03*
X53458000Y-9655000D03*
X47582000Y-9655000D03*
X47582000Y-9005000D03*
X47582000Y-8355000D03*
X47582000Y-7705000D03*
X47582000Y-7055000D03*
X47582000Y-6405000D03*
X47582000Y-5755000D03*
X47582000Y-5105000D03*
D25*
X58550000Y-19940000D03*
X59570000Y-19940000D03*
D21*
X28605000Y-29810000D03*
X27055000Y-29810000D03*
D12*
X42780000Y-25232500D03*
X41760000Y-25232500D03*
D27*
X30482500Y-36557500D03*
X29532500Y-36557500D03*
X28582500Y-36557500D03*
X28582500Y-34282500D03*
X30482500Y-34282500D03*
D18*
X29620000Y-20060000D03*
X28660000Y-20060000D03*
D15*
X34020000Y-41290000D03*
X34020000Y-40270000D03*
D20*
X57920000Y-33175000D03*
X57920000Y-34725000D03*
D23*
X63720000Y-7820000D03*
X63720000Y-6860000D03*
D28*
X59360000Y-31040000D03*
X59860000Y-31040000D03*
X60360000Y-31040000D03*
X60860000Y-31040000D03*
X61360000Y-31040000D03*
X61860000Y-31040000D03*
X62360000Y-31040000D03*
X62860000Y-31040000D03*
X62860000Y-35360000D03*
X62360000Y-35360000D03*
X61860000Y-35360000D03*
X61360000Y-35360000D03*
X60860000Y-35360000D03*
X60360000Y-35360000D03*
X59860000Y-35360000D03*
X59360000Y-35360000D03*
D18*
X42682500Y-39185000D03*
X41722500Y-39185000D03*
D25*
X59680000Y-46710000D03*
X60700000Y-46710000D03*
D13*
X46302500Y-29725000D03*
X46302500Y-30685000D03*
D16*
X40257500Y-24920000D03*
X40257500Y-25870000D03*
X40257500Y-26820000D03*
X37982500Y-26820000D03*
X37982500Y-24920000D03*
D12*
X25730000Y-21200000D03*
X24710000Y-21200000D03*
X26890000Y-8850000D03*
X25870000Y-8850000D03*
D23*
X27640000Y-20080000D03*
X27640000Y-19120000D03*
D22*
X32455000Y-30030000D03*
X34005000Y-30030000D03*
D18*
X45222500Y-29615000D03*
X44262500Y-29615000D03*
D15*
X30700000Y-38970000D03*
X30700000Y-37950000D03*
D12*
X48292500Y-34390000D03*
X47272500Y-34390000D03*
D17*
X43922500Y-20712500D03*
X44882500Y-20712500D03*
D12*
X58540000Y-17220000D03*
X57520000Y-17220000D03*
X63200000Y-17220000D03*
X62180000Y-17220000D03*
D20*
X31970000Y-9425000D03*
X31970000Y-10975000D03*
D12*
X46762500Y-28545000D03*
X45742500Y-28545000D03*
D23*
X32937500Y-39160000D03*
X32937500Y-38200000D03*
D12*
X42885000Y-31822500D03*
X41865000Y-31822500D03*
D17*
X44215000Y-33102500D03*
X45175000Y-33102500D03*
D12*
X42682500Y-19542500D03*
X41662500Y-19542500D03*
X44922500Y-19542500D03*
X43902500Y-19542500D03*
D15*
X11510000Y-24340000D03*
X11510000Y-23320000D03*
X57670000Y-51010000D03*
X57670000Y-49990000D03*
D16*
X44535000Y-22050000D03*
X44535000Y-23000000D03*
X44535000Y-23950000D03*
X42260000Y-23950000D03*
X42260000Y-22050000D03*
D15*
X46132500Y-34630000D03*
X46132500Y-33610000D03*
D12*
X63600000Y-21170000D03*
X62580000Y-21170000D03*
X59620000Y-21140000D03*
X58600000Y-21140000D03*
D18*
X42750000Y-26472500D03*
X41790000Y-26472500D03*
X42642500Y-20742500D03*
X41682500Y-20742500D03*
X48994000Y-10668000D03*
X48034000Y-10668000D03*
D14*
X58895000Y-13960000D03*
X58245000Y-13960000D03*
X57595000Y-13960000D03*
X56945000Y-13960000D03*
X56945000Y-9560000D03*
X57595000Y-9560000D03*
X58245000Y-9560000D03*
X58895000Y-9560000D03*
D12*
X22765000Y-38320000D03*
X21745000Y-38320000D03*
D27*
X34122500Y-36547500D03*
X33172500Y-36547500D03*
X32222500Y-36547500D03*
X32222500Y-34272500D03*
X34122500Y-34272500D03*
D17*
X29860000Y-28920000D03*
X30820000Y-28920000D03*
D18*
X29740000Y-19010000D03*
X28780000Y-19010000D03*
D23*
X59030000Y-7810000D03*
X59030000Y-6850000D03*
D22*
X60505000Y-38360000D03*
X62055000Y-38360000D03*
D13*
X33370000Y-9500000D03*
X33370000Y-10460000D03*
D15*
X44662500Y-28555000D03*
X44662500Y-27535000D03*
D12*
X63180000Y-15850000D03*
X62160000Y-15850000D03*
D13*
X61380000Y-28030000D03*
X61380000Y-28990000D03*
X32870000Y-40270000D03*
X32870000Y-41230000D03*
D29*
X59212500Y-49920000D03*
X59212500Y-48020000D03*
X61487500Y-48970000D03*
D15*
X46097500Y-22030000D03*
X46097500Y-21010000D03*
X23430000Y-20790000D03*
X23430000Y-19770000D03*
D12*
X44952500Y-37985000D03*
X43932500Y-37985000D03*
D18*
X28840000Y-28450000D03*
X27880000Y-28450000D03*
D30*
X33110000Y-27240000D03*
X32610000Y-27240000D03*
X32110000Y-27240000D03*
X31610000Y-27240000D03*
X31110000Y-27240000D03*
X30610000Y-27240000D03*
X30110000Y-27240000D03*
X29610000Y-27240000D03*
X29110000Y-27240000D03*
X28610000Y-27240000D03*
D31*
X27910000Y-26540000D03*
X27910000Y-26040000D03*
X27910000Y-25540000D03*
X27910000Y-25040000D03*
X27910000Y-24540000D03*
X27910000Y-24040000D03*
X27910000Y-23540000D03*
X27910000Y-23040000D03*
X27910000Y-22540000D03*
X27910000Y-22040000D03*
D30*
X28610000Y-21340000D03*
X29110000Y-21340000D03*
X29610000Y-21340000D03*
X30110000Y-21340000D03*
X30610000Y-21340000D03*
X31110000Y-21340000D03*
X31610000Y-21340000D03*
X32110000Y-21340000D03*
X32610000Y-21340000D03*
X33110000Y-21340000D03*
D31*
X33810000Y-22040000D03*
X33810000Y-22540000D03*
X33810000Y-23040000D03*
X33810000Y-23540000D03*
X33810000Y-24040000D03*
X33810000Y-24540000D03*
X33810000Y-25040000D03*
X33810000Y-25540000D03*
X33810000Y-26040000D03*
X33810000Y-26540000D03*
D32*
X30860000Y-24290000D03*
D16*
X40102500Y-32060000D03*
X40102500Y-33010000D03*
X40102500Y-33960000D03*
X37827500Y-33960000D03*
X37827500Y-32060000D03*
D25*
X59720000Y-51660000D03*
X60740000Y-51660000D03*
D33*
X26320000Y-19805000D03*
X26320000Y-18255000D03*
D23*
X33310000Y-13070000D03*
X33310000Y-12110000D03*
D18*
X46982500Y-35690000D03*
X46022500Y-35690000D03*
D17*
X43942500Y-39195000D03*
X44902500Y-39195000D03*
D29*
X59202500Y-54950000D03*
X59202500Y-53050000D03*
X61477500Y-54000000D03*
D12*
X45165000Y-31852500D03*
X44145000Y-31852500D03*
D17*
X33280000Y-28750000D03*
X34240000Y-28750000D03*
M02*
