M48
; DRILL file {KiCad 8.0.7} date 2025-04-11T02:00:04-0400
; FORMAT={-:-/ absolute / inch / decimal}
; #@! TF.CreationDate,2025-04-11T02:00:04-04:00
; #@! TF.GenerationSoftware,Kicad,Pcbnew,8.0.7
; #@! TF.FileFunction,Plated,1,6,PTH
FMAT,2
INCH
; #@! TA.AperFunction,Plated,PTH,ViaDrill
T1C0.0118
; #@! TA.AperFunction,Plated,PTH,ComponentDrill
T2C0.0492
%
G90
G05
T1
X3.3573Y-1.9498
X3.3701Y-1.6063
X3.3848Y-1.7087
X3.3848Y-1.7756
X3.3848Y-1.8425
X3.4242Y-1.9498
X3.436Y-2.1407
X3.437Y-1.6063
X3.4911Y-1.9498
X3.5039Y-1.6063
X3.5413Y-2.1417
X3.5581Y-1.9498
X3.5709Y-1.6063
X3.6516Y-1.7382
X3.6516Y-1.8051
X3.6516Y-1.872
X3.6516Y-1.939
X3.6555Y-2.1437
X3.6555Y-2.2106
X3.6555Y-2.2776
X3.6555Y-2.3445
X3.6624Y-1.4232
X3.6624Y-1.4902
X3.6624Y-1.5571
X3.6624Y-1.624
X3.7028Y-1.7037
X3.7087Y-2.0069
X3.753Y-2.0758
X3.7697Y-1.7037
X3.7756Y-2.0069
X3.8199Y-2.0758
X3.8366Y-1.7037
X3.8425Y-2.0069
X3.8868Y-2.0758
X3.8878Y-2.2707
X3.8927Y-2.2047
X3.8927Y-2.3386
X3.8957Y-1.3917
X3.9035Y-1.7037
X3.9094Y-2.0069
X3.937Y-1.4665
X3.9537Y-2.0758
X3.9626Y-1.3917
X3.9705Y-1.7028
X3.9764Y-2.0059
X4.0Y-2.3465
X4.0039Y-1.4665
X4.0207Y-2.0748
X4.0295Y-1.3917
X4.0374Y-1.7028
X4.0433Y-2.0059
X4.0709Y-1.4665
X4.0787Y-2.3465
X4.0876Y-2.0748
X4.0965Y-1.3917
X4.1043Y-1.7028
X4.1102Y-2.0059
X4.1378Y-1.4665
X4.1545Y-2.0748
X4.1713Y-1.7028
X4.1732Y-2.3465
X4.1772Y-2.0059
X4.185Y-2.2008
X4.185Y-2.2677
X4.2215Y-2.0748
X4.2736Y-1.6496
X4.2736Y-1.7165
X4.2736Y-1.7835
X4.2736Y-1.8504
X4.2736Y-1.9163
X4.3406Y-1.9163
X4.3701Y-1.6083
X4.4075Y-1.9163
X4.437Y-1.6083
X4.4744Y-1.9163
X4.5364Y-1.6585
X4.5364Y-1.7254
X4.5364Y-1.7923
X4.5364Y-1.8593
X4.5413Y-1.9459
X4.5413Y-2.0128
X4.5413Y-2.0797
X4.5413Y-2.1467
T2
G00X3.4651Y-2.0443
M15
G01X3.5733Y-2.0443
M16
G05
G00X3.5433Y-1.7288
M15
G01X3.5433Y-1.8371
M16
G05
G00X3.7874Y-1.4833
M15
G01X3.7874Y-1.5915
M16
G05
G00X3.7904Y-2.1609
M15
G01X3.7904Y-2.2692
M16
G05
G00X3.8271Y-1.822
M15
G01X3.8271Y-1.9302
M16
G05
G00X4.1029Y-1.5615
M15
G01X3.9946Y-1.5615
M16
G05
G00X3.9949Y-1.852
M15
G01X4.1031Y-1.852
M16
G05
G00X4.1058Y-2.2392
M15
G01X3.9975Y-2.2392
M16
G05
G00X4.3263Y-2.0305
M15
G01X4.4345Y-2.0305
M16
G05
G00X4.4045Y-1.7151
M15
G01X4.4045Y-1.8233
M16
G05
M30
