%TF.GenerationSoftware,KiCad,Pcbnew,8.0.7*%
%TF.CreationDate,2025-04-11T02:00:03-04:00*%
%TF.ProjectId,1M_4F,314d5f34-462e-46b6-9963-61645f706362,rev?*%
%TF.SameCoordinates,Original*%
%TF.FileFunction,Copper,L4,Inr*%
%TF.FilePolarity,Positive*%
%FSLAX46Y46*%
G04 Gerber Fmt 4.6, Leading zero omitted, Abs format (unit mm)*
G04 Created by KiCad (PCBNEW 8.0.7) date 2025-04-11 02:00:03*
%MOMM*%
%LPD*%
G01*
G04 APERTURE LIST*
%TA.AperFunction,ComponentPad*%
%ADD10R,3.000000X5.000000*%
%TD*%
%TA.AperFunction,ComponentPad*%
%ADD11R,5.000000X3.000000*%
%TD*%
%TA.AperFunction,ViaPad*%
%ADD12C,0.600000*%
%TD*%
G04 APERTURE END LIST*
D10*
%TO.N,Net-(J1-Pin_1)*%
%TO.C,J1*%
X97207100Y-47653300D03*
D11*
%TO.N,GND*%
X102844600Y-47040800D03*
%TD*%
%TO.N,Net-(J1-Pin_1)*%
%TO.C,J5*%
X89387500Y-51925000D03*
D10*
%TO.N,GND*%
X90000000Y-45287500D03*
%TD*%
%TO.N,Net-(J1-Pin_1)*%
%TO.C,J3*%
X96275000Y-56262500D03*
D11*
%TO.N,GND*%
X102912500Y-56875000D03*
%TD*%
%TO.N,Net-(J1-Pin_1)*%
%TO.C,J4*%
X111262500Y-51575000D03*
D10*
%TO.N,GND*%
X111875000Y-44937500D03*
%TD*%
%TO.N,Net-(J1-Pin_1)*%
%TO.C,J2*%
X96200000Y-39050000D03*
D11*
%TO.N,GND*%
X102837500Y-39662500D03*
%TD*%
D12*
%TO.N,GND*%
X103600000Y-59600000D03*
X108550000Y-48675000D03*
X100000000Y-37250000D03*
X94200000Y-50975000D03*
X93025000Y-37850000D03*
X94050000Y-43275000D03*
X85975000Y-45100000D03*
X98750000Y-57675000D03*
X104400000Y-50950000D03*
X105525000Y-52700000D03*
X89950000Y-54400000D03*
X92750000Y-45850000D03*
X98950000Y-35350000D03*
X95325000Y-52725000D03*
X115350000Y-51125000D03*
X115225000Y-43825000D03*
X115225000Y-47225000D03*
X92750000Y-49250000D03*
X108550000Y-45300000D03*
X100850000Y-43250000D03*
X111950000Y-48675000D03*
X103400000Y-37250000D03*
X97450000Y-43275000D03*
X102125000Y-52700000D03*
X85275000Y-49525000D03*
X97600000Y-50975000D03*
X89000000Y-40800000D03*
X93025000Y-41250000D03*
X92850000Y-59550000D03*
X115350000Y-54525000D03*
X104250000Y-43250000D03*
X112700000Y-40850000D03*
X106300000Y-57600000D03*
X102350000Y-35350000D03*
X88675000Y-49525000D03*
X92850000Y-56150000D03*
X101000000Y-50950000D03*
X108550000Y-41900000D03*
X98725000Y-52725000D03*
X85600000Y-40800000D03*
%TO.N,Net-(J1-Pin_1)*%
X98875000Y-59400000D03*
X102550000Y-43250000D03*
X93025000Y-39550000D03*
X115350000Y-52825000D03*
X100425000Y-52725000D03*
X92750000Y-44150000D03*
X102700000Y-50950000D03*
X105950000Y-43250000D03*
X92850000Y-54450000D03*
X97025000Y-52725000D03*
X108550000Y-47000000D03*
X92850000Y-57850000D03*
X85975000Y-46800000D03*
X106100000Y-50950000D03*
X87300000Y-40800000D03*
X95750000Y-43275000D03*
X87275000Y-54375000D03*
X110250000Y-48675000D03*
X100650000Y-35350000D03*
X106300000Y-55900000D03*
X111000000Y-40850000D03*
X93025000Y-36150000D03*
X103825000Y-52700000D03*
X108550000Y-43600000D03*
X86975000Y-49525000D03*
X115350000Y-49425000D03*
X95900000Y-50975000D03*
X99150000Y-43275000D03*
X92750000Y-47550000D03*
X99300000Y-50975000D03*
X107225000Y-52700000D03*
X106000000Y-59600000D03*
X115225000Y-45525000D03*
X115225000Y-42125000D03*
X90375000Y-49525000D03*
X105100000Y-37250000D03*
X98875000Y-56000000D03*
X90700000Y-40800000D03*
X104050000Y-35350000D03*
X113650000Y-48675000D03*
X101600000Y-59600000D03*
X101700000Y-37250000D03*
X85975000Y-43400000D03*
%TD*%
%TA.AperFunction,Conductor*%
%TO.N,GND*%
G36*
X100135881Y-34520185D02*
G01*
X100181636Y-34572989D01*
X100191580Y-34642147D01*
X100162555Y-34705703D01*
X100152631Y-34715229D01*
X100152662Y-34715260D01*
X100020184Y-34847737D01*
X99924211Y-35000476D01*
X99864631Y-35170745D01*
X99864630Y-35170750D01*
X99844435Y-35349996D01*
X99844435Y-35350003D01*
X99864630Y-35529249D01*
X99864631Y-35529254D01*
X99924211Y-35699523D01*
X99987646Y-35800478D01*
X100020184Y-35852262D01*
X100147738Y-35979816D01*
X100238080Y-36036582D01*
X100268837Y-36055908D01*
X100300478Y-36075789D01*
X100387399Y-36106204D01*
X100470745Y-36135368D01*
X100470750Y-36135369D01*
X100649996Y-36155565D01*
X100650000Y-36155565D01*
X100650004Y-36155565D01*
X100829249Y-36135369D01*
X100829252Y-36135368D01*
X100829255Y-36135368D01*
X100999522Y-36075789D01*
X101152262Y-35979816D01*
X101279816Y-35852262D01*
X101375789Y-35699522D01*
X101435368Y-35529255D01*
X101447204Y-35424211D01*
X101455565Y-35350003D01*
X101455565Y-35349996D01*
X101435369Y-35170750D01*
X101435368Y-35170745D01*
X101375788Y-35000476D01*
X101334086Y-34934108D01*
X101279816Y-34847738D01*
X101152262Y-34720184D01*
X101147338Y-34715260D01*
X101148609Y-34713988D01*
X101113705Y-34664260D01*
X101110855Y-34594448D01*
X101146200Y-34534178D01*
X101208518Y-34502584D01*
X101231158Y-34500500D01*
X103468842Y-34500500D01*
X103535881Y-34520185D01*
X103581636Y-34572989D01*
X103591580Y-34642147D01*
X103562555Y-34705703D01*
X103552631Y-34715229D01*
X103552662Y-34715260D01*
X103420184Y-34847737D01*
X103324211Y-35000476D01*
X103264631Y-35170745D01*
X103264630Y-35170750D01*
X103244435Y-35349996D01*
X103244435Y-35350003D01*
X103264630Y-35529249D01*
X103264631Y-35529254D01*
X103324211Y-35699523D01*
X103387646Y-35800478D01*
X103420184Y-35852262D01*
X103547738Y-35979816D01*
X103638080Y-36036582D01*
X103668837Y-36055908D01*
X103700478Y-36075789D01*
X103787399Y-36106204D01*
X103870745Y-36135368D01*
X103870750Y-36135369D01*
X104049996Y-36155565D01*
X104050000Y-36155565D01*
X104050004Y-36155565D01*
X104229249Y-36135369D01*
X104229252Y-36135368D01*
X104229255Y-36135368D01*
X104399522Y-36075789D01*
X104552262Y-35979816D01*
X104679816Y-35852262D01*
X104775789Y-35699522D01*
X104835368Y-35529255D01*
X104847204Y-35424211D01*
X104855565Y-35350003D01*
X104855565Y-35349996D01*
X104835369Y-35170750D01*
X104835368Y-35170745D01*
X104775788Y-35000476D01*
X104734086Y-34934108D01*
X104679816Y-34847738D01*
X104552262Y-34720184D01*
X104547338Y-34715260D01*
X104548609Y-34713988D01*
X104513705Y-34664260D01*
X104510855Y-34594448D01*
X104546200Y-34534178D01*
X104608518Y-34502584D01*
X104631158Y-34500500D01*
X108334108Y-34500500D01*
X108393038Y-34500500D01*
X108406922Y-34501280D01*
X108497266Y-34511459D01*
X108524331Y-34517636D01*
X108603540Y-34545352D01*
X108628553Y-34557398D01*
X108699606Y-34602043D01*
X108721313Y-34619355D01*
X108780644Y-34678686D01*
X108797957Y-34700395D01*
X108842600Y-34771444D01*
X108854648Y-34796462D01*
X108882362Y-34875666D01*
X108888540Y-34902735D01*
X108898720Y-34993076D01*
X108899500Y-35006961D01*
X108899500Y-38514469D01*
X108932080Y-38741075D01*
X108932083Y-38741085D01*
X108996583Y-38960751D01*
X109091680Y-39168985D01*
X109091693Y-39169008D01*
X109215456Y-39361587D01*
X109215460Y-39361593D01*
X109365384Y-39534615D01*
X109538406Y-39684539D01*
X109538412Y-39684543D01*
X109730991Y-39808306D01*
X109731014Y-39808319D01*
X109939248Y-39903416D01*
X109939252Y-39903417D01*
X109939254Y-39903418D01*
X110158920Y-39967918D01*
X110158921Y-39967918D01*
X110158924Y-39967919D01*
X110226494Y-39977633D01*
X110385530Y-40000500D01*
X110418842Y-40000500D01*
X110485881Y-40020185D01*
X110531636Y-40072989D01*
X110541580Y-40142147D01*
X110512555Y-40205703D01*
X110502631Y-40215229D01*
X110502662Y-40215260D01*
X110370184Y-40347737D01*
X110274211Y-40500476D01*
X110214631Y-40670745D01*
X110214630Y-40670750D01*
X110194435Y-40849996D01*
X110194435Y-40850003D01*
X110214630Y-41029249D01*
X110214631Y-41029254D01*
X110274211Y-41199523D01*
X110338767Y-41302262D01*
X110370184Y-41352262D01*
X110497738Y-41479816D01*
X110650478Y-41575789D01*
X110735573Y-41605565D01*
X110820745Y-41635368D01*
X110820750Y-41635369D01*
X110999996Y-41655565D01*
X111000000Y-41655565D01*
X111000004Y-41655565D01*
X111179249Y-41635369D01*
X111179252Y-41635368D01*
X111179255Y-41635368D01*
X111349522Y-41575789D01*
X111502262Y-41479816D01*
X111629816Y-41352262D01*
X111725789Y-41199522D01*
X111785368Y-41029255D01*
X111791002Y-40979254D01*
X111805565Y-40850003D01*
X111805565Y-40849996D01*
X111785369Y-40670750D01*
X111785368Y-40670745D01*
X111725788Y-40500476D01*
X111684086Y-40434108D01*
X111629816Y-40347738D01*
X111502262Y-40220184D01*
X111497338Y-40215260D01*
X111498609Y-40213988D01*
X111463705Y-40164260D01*
X111460855Y-40094448D01*
X111496200Y-40034178D01*
X111558518Y-40002584D01*
X111581158Y-40000500D01*
X115759108Y-40000500D01*
X115818038Y-40000500D01*
X115831922Y-40001280D01*
X115922266Y-40011459D01*
X115949331Y-40017636D01*
X116028540Y-40045352D01*
X116053553Y-40057398D01*
X116124606Y-40102043D01*
X116146313Y-40119355D01*
X116205644Y-40178686D01*
X116222957Y-40200395D01*
X116267600Y-40271444D01*
X116279648Y-40296462D01*
X116307362Y-40375666D01*
X116313540Y-40402735D01*
X116323720Y-40493076D01*
X116324500Y-40506961D01*
X116324500Y-49056439D01*
X116304815Y-49123478D01*
X116252011Y-49169233D01*
X116182853Y-49179177D01*
X116119297Y-49150152D01*
X116083459Y-49097395D01*
X116075790Y-49075479D01*
X115979815Y-48922737D01*
X115852262Y-48795184D01*
X115699523Y-48699211D01*
X115529254Y-48639631D01*
X115529249Y-48639630D01*
X115350004Y-48619435D01*
X115349996Y-48619435D01*
X115170750Y-48639630D01*
X115170745Y-48639631D01*
X115000476Y-48699211D01*
X114847737Y-48795184D01*
X114720184Y-48922737D01*
X114624211Y-49075476D01*
X114564631Y-49245745D01*
X114564630Y-49245750D01*
X114544435Y-49424996D01*
X114544435Y-49425003D01*
X114564630Y-49604249D01*
X114564631Y-49604254D01*
X114624211Y-49774523D01*
X114687045Y-49874522D01*
X114720184Y-49927262D01*
X114847738Y-50054816D01*
X114938080Y-50111582D01*
X114999438Y-50150136D01*
X115000478Y-50150789D01*
X115091572Y-50182664D01*
X115170745Y-50210368D01*
X115170750Y-50210369D01*
X115349996Y-50230565D01*
X115350000Y-50230565D01*
X115350004Y-50230565D01*
X115529249Y-50210369D01*
X115529252Y-50210368D01*
X115529255Y-50210368D01*
X115699522Y-50150789D01*
X115852262Y-50054816D01*
X115979816Y-49927262D01*
X116075789Y-49774522D01*
X116083458Y-49752606D01*
X116124180Y-49695830D01*
X116189132Y-49670082D01*
X116257694Y-49683538D01*
X116308097Y-49731925D01*
X116324500Y-49793560D01*
X116324500Y-52456439D01*
X116304815Y-52523478D01*
X116252011Y-52569233D01*
X116182853Y-52579177D01*
X116119297Y-52550152D01*
X116083459Y-52497395D01*
X116075790Y-52475479D01*
X116012955Y-52375478D01*
X115979816Y-52322738D01*
X115852262Y-52195184D01*
X115699523Y-52099211D01*
X115529254Y-52039631D01*
X115529249Y-52039630D01*
X115350004Y-52019435D01*
X115349996Y-52019435D01*
X115170750Y-52039630D01*
X115170745Y-52039631D01*
X115000476Y-52099211D01*
X114847737Y-52195184D01*
X114720184Y-52322737D01*
X114624211Y-52475476D01*
X114564631Y-52645745D01*
X114564630Y-52645750D01*
X114544435Y-52824996D01*
X114544435Y-52825003D01*
X114564630Y-53004249D01*
X114564631Y-53004254D01*
X114624211Y-53174523D01*
X114683204Y-53268409D01*
X114720184Y-53327262D01*
X114847738Y-53454816D01*
X115000478Y-53550789D01*
X115071098Y-53575500D01*
X115170745Y-53610368D01*
X115170750Y-53610369D01*
X115349996Y-53630565D01*
X115350000Y-53630565D01*
X115350004Y-53630565D01*
X115529249Y-53610369D01*
X115529252Y-53610368D01*
X115529255Y-53610368D01*
X115699522Y-53550789D01*
X115852262Y-53454816D01*
X115979816Y-53327262D01*
X116075789Y-53174522D01*
X116083458Y-53152606D01*
X116124180Y-53095830D01*
X116189132Y-53070082D01*
X116257694Y-53083538D01*
X116308097Y-53131925D01*
X116324500Y-53193560D01*
X116324500Y-54493038D01*
X116323720Y-54506923D01*
X116313540Y-54597264D01*
X116307362Y-54624333D01*
X116279648Y-54703537D01*
X116267600Y-54728555D01*
X116222957Y-54799604D01*
X116205644Y-54821313D01*
X116146313Y-54880644D01*
X116124604Y-54897957D01*
X116053555Y-54942600D01*
X116028537Y-54954648D01*
X115949333Y-54982362D01*
X115922264Y-54988540D01*
X115842075Y-54997576D01*
X115831921Y-54998720D01*
X115818038Y-54999500D01*
X115759108Y-54999500D01*
X115759106Y-54999500D01*
X115759034Y-54999510D01*
X115742847Y-55000571D01*
X110583899Y-55000571D01*
X110583871Y-55000569D01*
X110560716Y-55000569D01*
X110560712Y-55000568D01*
X110394886Y-55000571D01*
X110394878Y-55000572D01*
X110168289Y-55033157D01*
X110168288Y-55033157D01*
X109948620Y-55097661D01*
X109740373Y-55192767D01*
X109740367Y-55192771D01*
X109547785Y-55316537D01*
X109547781Y-55316540D01*
X109374761Y-55466463D01*
X109224839Y-55639482D01*
X109101070Y-55832069D01*
X109101061Y-55832087D01*
X109005960Y-56040323D01*
X108965164Y-56179254D01*
X108951057Y-56227297D01*
X108941458Y-56259985D01*
X108941455Y-56259996D01*
X108908872Y-56486579D01*
X108908556Y-56491005D01*
X108907945Y-56490961D01*
X108904647Y-56515964D01*
X108899501Y-56535171D01*
X108899500Y-56535180D01*
X108899500Y-60593038D01*
X108898720Y-60606923D01*
X108888540Y-60697264D01*
X108882362Y-60724333D01*
X108854648Y-60803537D01*
X108842600Y-60828555D01*
X108797957Y-60899604D01*
X108780644Y-60921313D01*
X108721313Y-60980644D01*
X108699604Y-60997957D01*
X108628555Y-61042600D01*
X108603537Y-61054648D01*
X108524333Y-61082362D01*
X108497264Y-61088540D01*
X108417075Y-61097576D01*
X108406921Y-61098720D01*
X108393038Y-61099500D01*
X92006962Y-61099500D01*
X91993078Y-61098720D01*
X91980553Y-61097308D01*
X91902735Y-61088540D01*
X91875666Y-61082362D01*
X91796462Y-61054648D01*
X91771444Y-61042600D01*
X91700395Y-60997957D01*
X91678686Y-60980644D01*
X91619355Y-60921313D01*
X91602042Y-60899604D01*
X91557399Y-60828555D01*
X91545351Y-60803537D01*
X91517637Y-60724333D01*
X91511459Y-60697263D01*
X91501280Y-60606922D01*
X91500500Y-60593038D01*
X91500500Y-57849996D01*
X92044435Y-57849996D01*
X92044435Y-57850003D01*
X92064630Y-58029249D01*
X92064631Y-58029254D01*
X92124211Y-58199523D01*
X92220184Y-58352262D01*
X92347738Y-58479816D01*
X92500478Y-58575789D01*
X92611479Y-58614630D01*
X92670745Y-58635368D01*
X92670750Y-58635369D01*
X92849996Y-58655565D01*
X92850000Y-58655565D01*
X92850004Y-58655565D01*
X93029249Y-58635369D01*
X93029252Y-58635368D01*
X93029255Y-58635368D01*
X93199522Y-58575789D01*
X93352262Y-58479816D01*
X93479816Y-58352262D01*
X93575789Y-58199522D01*
X93635368Y-58029255D01*
X93655565Y-57850000D01*
X93635368Y-57670745D01*
X93575789Y-57500478D01*
X93479816Y-57347738D01*
X93352262Y-57220184D01*
X93199523Y-57124211D01*
X93029254Y-57064631D01*
X93029249Y-57064630D01*
X92850004Y-57044435D01*
X92849996Y-57044435D01*
X92670750Y-57064630D01*
X92670745Y-57064631D01*
X92500476Y-57124211D01*
X92347737Y-57220184D01*
X92220184Y-57347737D01*
X92124211Y-57500476D01*
X92064631Y-57670745D01*
X92064630Y-57670750D01*
X92044435Y-57849996D01*
X91500500Y-57849996D01*
X91500500Y-56618249D01*
X91504723Y-56586162D01*
X91509871Y-56566949D01*
X91509870Y-56552478D01*
X91509929Y-56552275D01*
X91509928Y-56501056D01*
X91509929Y-56501056D01*
X91509926Y-56393736D01*
X91479373Y-56181282D01*
X91418896Y-55975338D01*
X91329726Y-55780097D01*
X91213677Y-55599534D01*
X91073113Y-55437324D01*
X91073111Y-55437322D01*
X90910897Y-55296771D01*
X90910892Y-55296768D01*
X90730331Y-55180735D01*
X90730328Y-55180733D01*
X90719501Y-55175789D01*
X90703459Y-55168463D01*
X90535076Y-55091570D01*
X90329133Y-55031108D01*
X90116680Y-55000568D01*
X90116674Y-55000568D01*
X90009353Y-55000571D01*
X88051697Y-55000571D01*
X87984658Y-54980886D01*
X87938903Y-54928082D01*
X87928959Y-54858924D01*
X87946703Y-54810599D01*
X87953612Y-54799604D01*
X88000789Y-54724522D01*
X88060368Y-54554255D01*
X88066481Y-54500000D01*
X88080565Y-54375003D01*
X88080565Y-54374996D01*
X88060369Y-54195750D01*
X88060368Y-54195745D01*
X88027029Y-54100469D01*
X88023524Y-54090453D01*
X88019964Y-54020675D01*
X88054693Y-53960047D01*
X88116686Y-53927820D01*
X88140567Y-53925499D01*
X91935371Y-53925499D01*
X91935372Y-53925499D01*
X91994983Y-53919091D01*
X91994984Y-53919090D01*
X92001650Y-53918374D01*
X92070410Y-53930781D01*
X92121546Y-53978391D01*
X92138825Y-54046091D01*
X92126624Y-54095465D01*
X92124213Y-54100469D01*
X92064631Y-54270745D01*
X92064630Y-54270750D01*
X92044435Y-54449996D01*
X92044435Y-54450003D01*
X92064630Y-54629249D01*
X92064631Y-54629254D01*
X92124211Y-54799523D01*
X92173058Y-54877262D01*
X92220184Y-54952262D01*
X92347738Y-55079816D01*
X92438080Y-55136582D01*
X92497966Y-55174211D01*
X92500478Y-55175789D01*
X92611479Y-55214630D01*
X92670745Y-55235368D01*
X92670750Y-55235369D01*
X92849996Y-55255565D01*
X92850000Y-55255565D01*
X92850004Y-55255565D01*
X93029249Y-55235369D01*
X93029252Y-55235368D01*
X93029255Y-55235368D01*
X93199522Y-55175789D01*
X93352262Y-55079816D01*
X93479816Y-54952262D01*
X93575789Y-54799522D01*
X93635368Y-54629255D01*
X93637840Y-54607318D01*
X93655565Y-54450003D01*
X93655565Y-54449996D01*
X93635369Y-54270750D01*
X93635368Y-54270745D01*
X93575788Y-54100476D01*
X93525645Y-54020675D01*
X93479816Y-53947738D01*
X93352262Y-53820184D01*
X93292357Y-53782543D01*
X93199523Y-53724211D01*
X93172157Y-53714635D01*
X94274500Y-53714635D01*
X94274500Y-58810370D01*
X94274501Y-58810376D01*
X94280908Y-58869983D01*
X94331202Y-59004828D01*
X94331206Y-59004835D01*
X94417452Y-59120044D01*
X94417455Y-59120047D01*
X94532664Y-59206293D01*
X94532671Y-59206297D01*
X94667517Y-59256591D01*
X94667516Y-59256591D01*
X94674444Y-59257335D01*
X94727127Y-59263000D01*
X97822872Y-59262999D01*
X97873026Y-59257607D01*
X97882484Y-59256591D01*
X97891966Y-59253053D01*
X97905342Y-59248064D01*
X97975032Y-59243078D01*
X98036356Y-59276561D01*
X98069843Y-59337883D01*
X98071899Y-59378125D01*
X98069435Y-59400000D01*
X98069435Y-59400003D01*
X98089630Y-59579249D01*
X98089631Y-59579254D01*
X98149211Y-59749523D01*
X98245184Y-59902262D01*
X98372738Y-60029816D01*
X98525478Y-60125789D01*
X98695745Y-60185368D01*
X98695750Y-60185369D01*
X98874996Y-60205565D01*
X98875000Y-60205565D01*
X98875004Y-60205565D01*
X99054249Y-60185369D01*
X99054252Y-60185368D01*
X99054255Y-60185368D01*
X99224522Y-60125789D01*
X99377262Y-60029816D01*
X99504816Y-59902262D01*
X99600789Y-59749522D01*
X99653110Y-59599996D01*
X100794435Y-59599996D01*
X100794435Y-59600003D01*
X100814630Y-59779249D01*
X100814631Y-59779254D01*
X100874211Y-59949523D01*
X100924662Y-60029815D01*
X100970184Y-60102262D01*
X101097738Y-60229816D01*
X101250478Y-60325789D01*
X101420745Y-60385368D01*
X101420750Y-60385369D01*
X101599996Y-60405565D01*
X101600000Y-60405565D01*
X101600004Y-60405565D01*
X101779249Y-60385369D01*
X101779252Y-60385368D01*
X101779255Y-60385368D01*
X101949522Y-60325789D01*
X102102262Y-60229816D01*
X102229816Y-60102262D01*
X102325789Y-59949522D01*
X102385368Y-59779255D01*
X102405565Y-59600000D01*
X102405565Y-59599996D01*
X105194435Y-59599996D01*
X105194435Y-59600003D01*
X105214630Y-59779249D01*
X105214631Y-59779254D01*
X105274211Y-59949523D01*
X105324662Y-60029815D01*
X105370184Y-60102262D01*
X105497738Y-60229816D01*
X105650478Y-60325789D01*
X105820745Y-60385368D01*
X105820750Y-60385369D01*
X105999996Y-60405565D01*
X106000000Y-60405565D01*
X106000004Y-60405565D01*
X106179249Y-60385369D01*
X106179252Y-60385368D01*
X106179255Y-60385368D01*
X106349522Y-60325789D01*
X106502262Y-60229816D01*
X106629816Y-60102262D01*
X106725789Y-59949522D01*
X106785368Y-59779255D01*
X106805565Y-59600000D01*
X106785368Y-59420745D01*
X106725789Y-59250478D01*
X106707106Y-59220745D01*
X106648726Y-59127833D01*
X106629816Y-59097738D01*
X106502262Y-58970184D01*
X106349523Y-58874211D01*
X106179254Y-58814631D01*
X106179249Y-58814630D01*
X106000004Y-58794435D01*
X105999996Y-58794435D01*
X105820750Y-58814630D01*
X105820745Y-58814631D01*
X105650476Y-58874211D01*
X105497737Y-58970184D01*
X105370184Y-59097737D01*
X105274211Y-59250476D01*
X105214631Y-59420745D01*
X105214630Y-59420750D01*
X105194435Y-59599996D01*
X102405565Y-59599996D01*
X102385368Y-59420745D01*
X102325789Y-59250478D01*
X102307106Y-59220745D01*
X102248726Y-59127833D01*
X102229816Y-59097738D01*
X102102262Y-58970184D01*
X101949523Y-58874211D01*
X101779254Y-58814631D01*
X101779249Y-58814630D01*
X101600004Y-58794435D01*
X101599996Y-58794435D01*
X101420750Y-58814630D01*
X101420745Y-58814631D01*
X101250476Y-58874211D01*
X101097737Y-58970184D01*
X100970184Y-59097737D01*
X100874211Y-59250476D01*
X100814631Y-59420745D01*
X100814630Y-59420750D01*
X100794435Y-59599996D01*
X99653110Y-59599996D01*
X99660368Y-59579255D01*
X99680565Y-59400000D01*
X99678100Y-59378125D01*
X99660369Y-59220750D01*
X99660368Y-59220745D01*
X99617326Y-59097738D01*
X99600789Y-59050478D01*
X99504816Y-58897738D01*
X99377262Y-58770184D01*
X99284528Y-58711915D01*
X99224523Y-58674211D01*
X99054254Y-58614631D01*
X99054249Y-58614630D01*
X98875004Y-58594435D01*
X98874996Y-58594435D01*
X98695750Y-58614630D01*
X98695745Y-58614631D01*
X98525474Y-58674212D01*
X98465470Y-58711915D01*
X98398233Y-58730915D01*
X98331398Y-58710547D01*
X98286185Y-58657279D01*
X98275499Y-58606925D01*
X98275499Y-56793077D01*
X98295184Y-56726039D01*
X98347988Y-56680284D01*
X98417146Y-56670340D01*
X98465470Y-56688083D01*
X98525478Y-56725789D01*
X98695745Y-56785368D01*
X98695750Y-56785369D01*
X98874996Y-56805565D01*
X98875000Y-56805565D01*
X98875004Y-56805565D01*
X99054249Y-56785369D01*
X99054252Y-56785368D01*
X99054255Y-56785368D01*
X99224522Y-56725789D01*
X99377262Y-56629816D01*
X99504816Y-56502262D01*
X99600789Y-56349522D01*
X99660368Y-56179255D01*
X99668110Y-56110543D01*
X99680565Y-56000003D01*
X99680565Y-55999996D01*
X99669298Y-55899996D01*
X105494435Y-55899996D01*
X105494435Y-55900003D01*
X105514630Y-56079249D01*
X105514631Y-56079254D01*
X105574211Y-56249523D01*
X105580785Y-56259985D01*
X105670184Y-56402262D01*
X105797738Y-56529816D01*
X105950478Y-56625789D01*
X106106216Y-56680284D01*
X106120745Y-56685368D01*
X106120750Y-56685369D01*
X106299996Y-56705565D01*
X106300000Y-56705565D01*
X106300004Y-56705565D01*
X106479249Y-56685369D01*
X106479252Y-56685368D01*
X106479255Y-56685368D01*
X106649522Y-56625789D01*
X106802262Y-56529816D01*
X106929816Y-56402262D01*
X107025789Y-56249522D01*
X107085368Y-56079255D01*
X107094121Y-56001571D01*
X107105565Y-55900003D01*
X107105565Y-55899996D01*
X107085369Y-55720750D01*
X107085368Y-55720745D01*
X107079607Y-55704281D01*
X107025789Y-55550478D01*
X106929816Y-55397738D01*
X106802262Y-55270184D01*
X106778996Y-55255565D01*
X106649523Y-55174211D01*
X106479254Y-55114631D01*
X106479249Y-55114630D01*
X106300004Y-55094435D01*
X106299996Y-55094435D01*
X106120750Y-55114630D01*
X106120745Y-55114631D01*
X105950476Y-55174211D01*
X105797737Y-55270184D01*
X105670184Y-55397737D01*
X105574211Y-55550476D01*
X105514631Y-55720745D01*
X105514630Y-55720750D01*
X105494435Y-55899996D01*
X99669298Y-55899996D01*
X99660369Y-55820750D01*
X99660368Y-55820745D01*
X99600788Y-55650476D01*
X99537955Y-55550478D01*
X99504816Y-55497738D01*
X99377262Y-55370184D01*
X99314766Y-55330915D01*
X99224523Y-55274211D01*
X99054254Y-55214631D01*
X99054249Y-55214630D01*
X98875004Y-55194435D01*
X98874996Y-55194435D01*
X98695750Y-55214630D01*
X98695745Y-55214631D01*
X98525474Y-55274212D01*
X98465470Y-55311915D01*
X98398233Y-55330915D01*
X98331398Y-55310547D01*
X98286185Y-55257279D01*
X98275499Y-55206921D01*
X98275499Y-53714629D01*
X98275498Y-53714623D01*
X98275497Y-53714616D01*
X98269091Y-53655017D01*
X98265144Y-53644435D01*
X98218797Y-53520171D01*
X98218793Y-53520164D01*
X98132547Y-53404955D01*
X98132544Y-53404952D01*
X98017335Y-53318706D01*
X98017328Y-53318702D01*
X97882482Y-53268408D01*
X97882484Y-53268408D01*
X97842333Y-53264092D01*
X97777782Y-53237354D01*
X97737934Y-53179961D01*
X97735441Y-53110136D01*
X97747989Y-53080901D01*
X97747769Y-53080795D01*
X97750217Y-53075710D01*
X97750596Y-53074829D01*
X97750789Y-53074522D01*
X97810368Y-52904255D01*
X97813185Y-52879254D01*
X97830565Y-52725003D01*
X97830565Y-52724996D01*
X99619435Y-52724996D01*
X99619435Y-52725003D01*
X99639630Y-52904249D01*
X99639631Y-52904254D01*
X99699211Y-53074523D01*
X99779475Y-53202262D01*
X99795184Y-53227262D01*
X99922738Y-53354816D01*
X100075478Y-53450789D01*
X100174299Y-53485368D01*
X100245745Y-53510368D01*
X100245750Y-53510369D01*
X100424996Y-53530565D01*
X100425000Y-53530565D01*
X100425004Y-53530565D01*
X100604249Y-53510369D01*
X100604252Y-53510368D01*
X100604255Y-53510368D01*
X100774522Y-53450789D01*
X100927262Y-53354816D01*
X101054816Y-53227262D01*
X101150789Y-53074522D01*
X101210368Y-52904255D01*
X101213185Y-52879254D01*
X101230565Y-52725003D01*
X101230565Y-52724996D01*
X101227748Y-52699996D01*
X103019435Y-52699996D01*
X103019435Y-52700003D01*
X103039630Y-52879249D01*
X103039631Y-52879254D01*
X103099211Y-53049523D01*
X103150988Y-53131925D01*
X103195184Y-53202262D01*
X103322738Y-53329816D01*
X103475478Y-53425789D01*
X103610045Y-53472876D01*
X103645745Y-53485368D01*
X103645750Y-53485369D01*
X103824996Y-53505565D01*
X103825000Y-53505565D01*
X103825004Y-53505565D01*
X104004249Y-53485369D01*
X104004252Y-53485368D01*
X104004255Y-53485368D01*
X104174522Y-53425789D01*
X104327262Y-53329816D01*
X104454816Y-53202262D01*
X104550789Y-53049522D01*
X104610368Y-52879255D01*
X104616481Y-52825000D01*
X104630565Y-52700003D01*
X104630565Y-52699996D01*
X106419435Y-52699996D01*
X106419435Y-52700003D01*
X106439630Y-52879249D01*
X106439631Y-52879254D01*
X106499211Y-53049523D01*
X106550988Y-53131925D01*
X106595184Y-53202262D01*
X106722738Y-53329816D01*
X106875478Y-53425789D01*
X107010045Y-53472876D01*
X107045745Y-53485368D01*
X107045750Y-53485369D01*
X107224996Y-53505565D01*
X107225000Y-53505565D01*
X107225004Y-53505565D01*
X107404249Y-53485369D01*
X107404252Y-53485368D01*
X107404255Y-53485368D01*
X107574522Y-53425789D01*
X107727262Y-53329816D01*
X107854816Y-53202262D01*
X107950789Y-53049522D01*
X108010368Y-52879255D01*
X108014780Y-52840092D01*
X108041845Y-52775682D01*
X108099439Y-52736125D01*
X108169276Y-52733986D01*
X108229183Y-52769943D01*
X108260140Y-52832580D01*
X108262000Y-52853977D01*
X108262000Y-53122870D01*
X108262001Y-53122876D01*
X108268408Y-53182483D01*
X108318702Y-53317328D01*
X108318706Y-53317335D01*
X108404952Y-53432544D01*
X108404955Y-53432547D01*
X108520164Y-53518793D01*
X108520171Y-53518797D01*
X108655017Y-53569091D01*
X108655016Y-53569091D01*
X108661944Y-53569835D01*
X108714627Y-53575500D01*
X113810372Y-53575499D01*
X113869983Y-53569091D01*
X114004831Y-53518796D01*
X114120046Y-53432546D01*
X114206296Y-53317331D01*
X114256591Y-53182483D01*
X114263000Y-53122873D01*
X114262999Y-50027128D01*
X114256591Y-49967517D01*
X114206296Y-49832669D01*
X114206295Y-49832668D01*
X114206293Y-49832664D01*
X114120047Y-49717455D01*
X114120044Y-49717452D01*
X114004835Y-49631206D01*
X114004824Y-49631200D01*
X114004791Y-49631188D01*
X114004762Y-49631166D01*
X113997046Y-49626953D01*
X113997652Y-49625843D01*
X113948860Y-49589313D01*
X113924447Y-49523847D01*
X113939304Y-49455575D01*
X113988712Y-49406173D01*
X113994336Y-49403286D01*
X113999514Y-49400791D01*
X113999522Y-49400789D01*
X114152262Y-49304816D01*
X114279816Y-49177262D01*
X114375789Y-49024522D01*
X114435368Y-48854255D01*
X114448283Y-48739630D01*
X114455565Y-48675003D01*
X114455565Y-48674996D01*
X114435369Y-48495750D01*
X114435368Y-48495745D01*
X114379250Y-48335369D01*
X114375789Y-48325478D01*
X114279816Y-48172738D01*
X114152262Y-48045184D01*
X113999523Y-47949211D01*
X113829254Y-47889631D01*
X113829249Y-47889630D01*
X113650004Y-47869435D01*
X113649996Y-47869435D01*
X113470750Y-47889630D01*
X113470745Y-47889631D01*
X113300476Y-47949211D01*
X113147737Y-48045184D01*
X113020184Y-48172737D01*
X112924211Y-48325476D01*
X112864631Y-48495745D01*
X112864630Y-48495750D01*
X112844435Y-48674996D01*
X112844435Y-48675003D01*
X112864630Y-48854249D01*
X112864631Y-48854254D01*
X112924211Y-49024523D01*
X113020184Y-49177262D01*
X113147739Y-49304817D01*
X113212496Y-49345507D01*
X113258787Y-49397842D01*
X113269434Y-49466895D01*
X113241059Y-49530743D01*
X113182669Y-49569115D01*
X113146523Y-49574500D01*
X110753475Y-49574500D01*
X110686436Y-49554815D01*
X110640681Y-49502011D01*
X110630737Y-49432853D01*
X110659762Y-49369297D01*
X110687504Y-49345506D01*
X110752259Y-49304818D01*
X110752259Y-49304817D01*
X110752262Y-49304816D01*
X110879816Y-49177262D01*
X110975789Y-49024522D01*
X111035368Y-48854255D01*
X111048283Y-48739630D01*
X111055565Y-48675003D01*
X111055565Y-48674996D01*
X111035369Y-48495750D01*
X111035368Y-48495745D01*
X110979250Y-48335369D01*
X110975789Y-48325478D01*
X110879816Y-48172738D01*
X110752262Y-48045184D01*
X110599523Y-47949211D01*
X110429254Y-47889631D01*
X110429249Y-47889630D01*
X110250004Y-47869435D01*
X110249996Y-47869435D01*
X110070750Y-47889630D01*
X110070745Y-47889631D01*
X109900476Y-47949211D01*
X109747737Y-48045184D01*
X109620184Y-48172737D01*
X109524211Y-48325476D01*
X109464631Y-48495745D01*
X109464630Y-48495750D01*
X109444435Y-48674996D01*
X109444435Y-48675003D01*
X109464630Y-48854249D01*
X109464631Y-48854254D01*
X109524211Y-49024523D01*
X109620184Y-49177262D01*
X109747740Y-49304818D01*
X109812496Y-49345506D01*
X109858788Y-49397840D01*
X109869437Y-49466894D01*
X109841062Y-49530742D01*
X109782672Y-49569114D01*
X109746525Y-49574500D01*
X108714629Y-49574500D01*
X108714623Y-49574501D01*
X108655016Y-49580908D01*
X108520171Y-49631202D01*
X108520164Y-49631206D01*
X108404955Y-49717452D01*
X108404952Y-49717455D01*
X108318706Y-49832664D01*
X108318702Y-49832671D01*
X108268408Y-49967517D01*
X108262001Y-50027116D01*
X108262001Y-50027123D01*
X108262000Y-50027135D01*
X108262000Y-52546021D01*
X108242315Y-52613060D01*
X108189511Y-52658815D01*
X108120353Y-52668759D01*
X108056797Y-52639734D01*
X108019023Y-52580956D01*
X108014781Y-52559912D01*
X108010368Y-52520745D01*
X107950789Y-52350478D01*
X107854816Y-52197738D01*
X107727262Y-52070184D01*
X107678639Y-52039632D01*
X107574523Y-51974211D01*
X107404254Y-51914631D01*
X107404249Y-51914630D01*
X107225004Y-51894435D01*
X107224996Y-51894435D01*
X107045750Y-51914630D01*
X107045745Y-51914631D01*
X106875476Y-51974211D01*
X106722737Y-52070184D01*
X106595184Y-52197737D01*
X106499211Y-52350476D01*
X106439631Y-52520745D01*
X106439630Y-52520750D01*
X106419435Y-52699996D01*
X104630565Y-52699996D01*
X104610369Y-52520750D01*
X104610368Y-52520745D01*
X104550788Y-52350476D01*
X104511582Y-52288080D01*
X104454816Y-52197738D01*
X104327262Y-52070184D01*
X104278639Y-52039632D01*
X104174523Y-51974211D01*
X104004254Y-51914631D01*
X104004249Y-51914630D01*
X103825004Y-51894435D01*
X103824996Y-51894435D01*
X103645750Y-51914630D01*
X103645745Y-51914631D01*
X103475476Y-51974211D01*
X103322737Y-52070184D01*
X103195184Y-52197737D01*
X103099211Y-52350476D01*
X103039631Y-52520745D01*
X103039630Y-52520750D01*
X103019435Y-52699996D01*
X101227748Y-52699996D01*
X101210369Y-52545750D01*
X101210368Y-52545745D01*
X101185781Y-52475479D01*
X101150789Y-52375478D01*
X101135080Y-52350478D01*
X101054815Y-52222737D01*
X100927262Y-52095184D01*
X100774523Y-51999211D01*
X100604254Y-51939631D01*
X100604249Y-51939630D01*
X100425004Y-51919435D01*
X100424996Y-51919435D01*
X100245750Y-51939630D01*
X100245745Y-51939631D01*
X100075476Y-51999211D01*
X99922737Y-52095184D01*
X99795184Y-52222737D01*
X99699211Y-52375476D01*
X99639631Y-52545745D01*
X99639630Y-52545750D01*
X99619435Y-52724996D01*
X97830565Y-52724996D01*
X97810369Y-52545750D01*
X97810368Y-52545745D01*
X97785781Y-52475479D01*
X97750789Y-52375478D01*
X97735080Y-52350478D01*
X97654815Y-52222737D01*
X97527262Y-52095184D01*
X97374523Y-51999211D01*
X97204254Y-51939631D01*
X97204249Y-51939630D01*
X97025004Y-51919435D01*
X97024996Y-51919435D01*
X96845750Y-51939630D01*
X96845745Y-51939631D01*
X96675476Y-51999211D01*
X96522737Y-52095184D01*
X96395184Y-52222737D01*
X96299211Y-52375476D01*
X96239631Y-52545745D01*
X96239630Y-52545750D01*
X96219435Y-52724996D01*
X96219435Y-52725003D01*
X96239630Y-52904249D01*
X96239631Y-52904254D01*
X96299213Y-53074529D01*
X96302231Y-53080795D01*
X96300375Y-53081688D01*
X96316642Y-53139281D01*
X96296266Y-53206113D01*
X96242993Y-53251320D01*
X96192649Y-53262000D01*
X94727129Y-53262000D01*
X94727123Y-53262001D01*
X94667516Y-53268408D01*
X94532671Y-53318702D01*
X94532664Y-53318706D01*
X94417455Y-53404952D01*
X94417452Y-53404955D01*
X94331206Y-53520164D01*
X94331202Y-53520171D01*
X94280908Y-53655017D01*
X94274501Y-53714616D01*
X94274501Y-53714623D01*
X94274500Y-53714635D01*
X93172157Y-53714635D01*
X93029254Y-53664631D01*
X93029249Y-53664630D01*
X92850004Y-53644435D01*
X92849996Y-53644435D01*
X92670750Y-53664630D01*
X92670742Y-53664632D01*
X92531019Y-53713523D01*
X92461240Y-53717084D01*
X92400613Y-53682355D01*
X92368386Y-53620361D01*
X92373884Y-53553146D01*
X92374764Y-53550788D01*
X92381591Y-53532483D01*
X92388000Y-53472873D01*
X92387999Y-50974996D01*
X95094435Y-50974996D01*
X95094435Y-50975003D01*
X95114630Y-51154249D01*
X95114631Y-51154254D01*
X95174211Y-51324523D01*
X95254475Y-51452262D01*
X95270184Y-51477262D01*
X95397738Y-51604816D01*
X95550478Y-51700789D01*
X95649299Y-51735368D01*
X95720745Y-51760368D01*
X95720750Y-51760369D01*
X95899996Y-51780565D01*
X95900000Y-51780565D01*
X95900004Y-51780565D01*
X96079249Y-51760369D01*
X96079252Y-51760368D01*
X96079255Y-51760368D01*
X96249522Y-51700789D01*
X96402262Y-51604816D01*
X96529816Y-51477262D01*
X96625789Y-51324522D01*
X96685368Y-51154255D01*
X96688185Y-51129254D01*
X96705565Y-50975003D01*
X96705565Y-50974996D01*
X96684911Y-50791682D01*
X96696966Y-50722860D01*
X96744315Y-50671481D01*
X96808131Y-50653799D01*
X98391869Y-50653799D01*
X98458908Y-50673484D01*
X98504663Y-50726288D01*
X98515089Y-50791682D01*
X98494435Y-50974996D01*
X98494435Y-50975003D01*
X98514630Y-51154249D01*
X98514631Y-51154254D01*
X98574211Y-51324523D01*
X98654475Y-51452262D01*
X98670184Y-51477262D01*
X98797738Y-51604816D01*
X98950478Y-51700789D01*
X99049299Y-51735368D01*
X99120745Y-51760368D01*
X99120750Y-51760369D01*
X99299996Y-51780565D01*
X99300000Y-51780565D01*
X99300004Y-51780565D01*
X99479249Y-51760369D01*
X99479252Y-51760368D01*
X99479255Y-51760368D01*
X99649522Y-51700789D01*
X99802262Y-51604816D01*
X99929816Y-51477262D01*
X100025789Y-51324522D01*
X100085368Y-51154255D01*
X100088185Y-51129254D01*
X100105565Y-50975003D01*
X100105565Y-50974996D01*
X100102748Y-50949996D01*
X101894435Y-50949996D01*
X101894435Y-50950003D01*
X101914630Y-51129249D01*
X101914631Y-51129254D01*
X101974211Y-51299523D01*
X101989920Y-51324523D01*
X102070184Y-51452262D01*
X102197738Y-51579816D01*
X102350478Y-51675789D01*
X102421924Y-51700789D01*
X102520745Y-51735368D01*
X102520750Y-51735369D01*
X102699996Y-51755565D01*
X102700000Y-51755565D01*
X102700004Y-51755565D01*
X102879249Y-51735369D01*
X102879252Y-51735368D01*
X102879255Y-51735368D01*
X103049522Y-51675789D01*
X103202262Y-51579816D01*
X103329816Y-51452262D01*
X103425789Y-51299522D01*
X103485368Y-51129255D01*
X103502748Y-50975003D01*
X103505565Y-50950003D01*
X103505565Y-50949996D01*
X105294435Y-50949996D01*
X105294435Y-50950003D01*
X105314630Y-51129249D01*
X105314631Y-51129254D01*
X105374211Y-51299523D01*
X105389920Y-51324523D01*
X105470184Y-51452262D01*
X105597738Y-51579816D01*
X105750478Y-51675789D01*
X105821924Y-51700789D01*
X105920745Y-51735368D01*
X105920750Y-51735369D01*
X106099996Y-51755565D01*
X106100000Y-51755565D01*
X106100004Y-51755565D01*
X106279249Y-51735369D01*
X106279252Y-51735368D01*
X106279255Y-51735368D01*
X106449522Y-51675789D01*
X106602262Y-51579816D01*
X106729816Y-51452262D01*
X106825789Y-51299522D01*
X106885368Y-51129255D01*
X106902748Y-50975003D01*
X106905565Y-50950003D01*
X106905565Y-50949996D01*
X106885369Y-50770750D01*
X106885368Y-50770745D01*
X106825788Y-50600476D01*
X106764399Y-50502776D01*
X106729816Y-50447738D01*
X106602262Y-50320184D01*
X106449523Y-50224211D01*
X106279254Y-50164631D01*
X106279249Y-50164630D01*
X106100004Y-50144435D01*
X106099996Y-50144435D01*
X105920750Y-50164630D01*
X105920745Y-50164631D01*
X105750476Y-50224211D01*
X105597737Y-50320184D01*
X105470184Y-50447737D01*
X105374211Y-50600476D01*
X105314631Y-50770745D01*
X105314630Y-50770750D01*
X105294435Y-50949996D01*
X103505565Y-50949996D01*
X103485369Y-50770750D01*
X103485368Y-50770745D01*
X103425788Y-50600476D01*
X103364399Y-50502776D01*
X103329816Y-50447738D01*
X103202262Y-50320184D01*
X103049523Y-50224211D01*
X102879254Y-50164631D01*
X102879249Y-50164630D01*
X102700004Y-50144435D01*
X102699996Y-50144435D01*
X102520750Y-50164630D01*
X102520745Y-50164631D01*
X102350476Y-50224211D01*
X102197737Y-50320184D01*
X102070184Y-50447737D01*
X101974211Y-50600476D01*
X101914631Y-50770745D01*
X101914630Y-50770750D01*
X101894435Y-50949996D01*
X100102748Y-50949996D01*
X100085369Y-50795750D01*
X100085368Y-50795745D01*
X100025788Y-50625476D01*
X99929815Y-50472737D01*
X99802262Y-50345184D01*
X99649523Y-50249211D01*
X99479254Y-50189631D01*
X99479250Y-50189630D01*
X99317715Y-50171430D01*
X99253301Y-50144363D01*
X99213746Y-50086768D01*
X99207599Y-50048210D01*
X99207599Y-46999996D01*
X107744435Y-46999996D01*
X107744435Y-47000003D01*
X107764630Y-47179249D01*
X107764631Y-47179254D01*
X107824211Y-47349523D01*
X107837546Y-47370745D01*
X107920184Y-47502262D01*
X108047738Y-47629816D01*
X108200478Y-47725789D01*
X108370745Y-47785368D01*
X108370750Y-47785369D01*
X108549996Y-47805565D01*
X108550000Y-47805565D01*
X108550004Y-47805565D01*
X108729249Y-47785369D01*
X108729252Y-47785368D01*
X108729255Y-47785368D01*
X108899522Y-47725789D01*
X109052262Y-47629816D01*
X109179816Y-47502262D01*
X109275789Y-47349522D01*
X109335368Y-47179255D01*
X109338718Y-47149522D01*
X109355565Y-47000003D01*
X109355565Y-46999996D01*
X109335369Y-46820750D01*
X109335368Y-46820745D01*
X109315733Y-46764631D01*
X109275789Y-46650478D01*
X109257106Y-46620745D01*
X109179815Y-46497737D01*
X109052262Y-46370184D01*
X108899523Y-46274211D01*
X108729254Y-46214631D01*
X108729249Y-46214630D01*
X108550004Y-46194435D01*
X108549996Y-46194435D01*
X108370750Y-46214630D01*
X108370745Y-46214631D01*
X108200476Y-46274211D01*
X108047737Y-46370184D01*
X107920184Y-46497737D01*
X107824211Y-46650476D01*
X107764631Y-46820745D01*
X107764630Y-46820750D01*
X107744435Y-46999996D01*
X99207599Y-46999996D01*
X99207599Y-45524996D01*
X114419435Y-45524996D01*
X114419435Y-45525003D01*
X114439630Y-45704249D01*
X114439631Y-45704254D01*
X114499211Y-45874523D01*
X114574557Y-45994435D01*
X114595184Y-46027262D01*
X114722738Y-46154816D01*
X114747196Y-46170184D01*
X114817934Y-46214632D01*
X114875478Y-46250789D01*
X115009648Y-46297737D01*
X115045745Y-46310368D01*
X115045750Y-46310369D01*
X115224996Y-46330565D01*
X115225000Y-46330565D01*
X115225004Y-46330565D01*
X115404249Y-46310369D01*
X115404252Y-46310368D01*
X115404255Y-46310368D01*
X115574522Y-46250789D01*
X115727262Y-46154816D01*
X115854816Y-46027262D01*
X115950789Y-45874522D01*
X116010368Y-45704255D01*
X116030565Y-45525000D01*
X116010368Y-45345745D01*
X115950789Y-45175478D01*
X115854816Y-45022738D01*
X115727262Y-44895184D01*
X115696395Y-44875789D01*
X115574523Y-44799211D01*
X115404254Y-44739631D01*
X115404249Y-44739630D01*
X115225004Y-44719435D01*
X115224996Y-44719435D01*
X115045750Y-44739630D01*
X115045745Y-44739631D01*
X114875476Y-44799211D01*
X114722737Y-44895184D01*
X114595184Y-45022737D01*
X114499211Y-45175476D01*
X114439631Y-45345745D01*
X114439630Y-45345750D01*
X114419435Y-45524996D01*
X99207599Y-45524996D01*
X99207599Y-45105429D01*
X99207598Y-45105423D01*
X99207597Y-45105416D01*
X99201191Y-45045817D01*
X99167529Y-44955565D01*
X99150897Y-44910971D01*
X99150893Y-44910964D01*
X99064647Y-44795755D01*
X99064644Y-44795752D01*
X98949435Y-44709506D01*
X98949428Y-44709502D01*
X98814582Y-44659208D01*
X98814583Y-44659208D01*
X98754983Y-44652801D01*
X98754981Y-44652800D01*
X98754973Y-44652800D01*
X98754964Y-44652800D01*
X95659229Y-44652800D01*
X95659223Y-44652801D01*
X95599616Y-44659208D01*
X95464771Y-44709502D01*
X95464764Y-44709506D01*
X95349555Y-44795752D01*
X95349552Y-44795755D01*
X95263306Y-44910964D01*
X95263302Y-44910971D01*
X95213008Y-45045817D01*
X95206601Y-45105416D01*
X95206601Y-45105423D01*
X95206600Y-45105435D01*
X95206600Y-50201170D01*
X95206601Y-50201176D01*
X95213009Y-50260784D01*
X95262497Y-50393472D01*
X95267481Y-50463164D01*
X95251309Y-50502776D01*
X95174211Y-50625476D01*
X95114631Y-50795745D01*
X95114630Y-50795750D01*
X95094435Y-50974996D01*
X92387999Y-50974996D01*
X92387999Y-50377128D01*
X92381591Y-50317517D01*
X92343690Y-50215900D01*
X92331297Y-50182671D01*
X92331293Y-50182664D01*
X92245047Y-50067455D01*
X92245044Y-50067452D01*
X92129835Y-49981206D01*
X92129828Y-49981202D01*
X91994982Y-49930908D01*
X91994983Y-49930908D01*
X91935383Y-49924501D01*
X91935381Y-49924500D01*
X91935373Y-49924500D01*
X91935365Y-49924500D01*
X91258063Y-49924500D01*
X91191024Y-49904815D01*
X91145269Y-49852011D01*
X91135325Y-49782853D01*
X91141022Y-49759545D01*
X91160366Y-49704262D01*
X91160369Y-49704249D01*
X91180565Y-49525003D01*
X91180565Y-49524996D01*
X91160369Y-49345750D01*
X91160368Y-49345745D01*
X91100788Y-49175476D01*
X91037955Y-49075478D01*
X91004816Y-49022738D01*
X90877262Y-48895184D01*
X90812124Y-48854255D01*
X90724523Y-48799211D01*
X90554254Y-48739631D01*
X90554249Y-48739630D01*
X90375004Y-48719435D01*
X90374996Y-48719435D01*
X90195750Y-48739630D01*
X90195745Y-48739631D01*
X90025476Y-48799211D01*
X89872737Y-48895184D01*
X89745184Y-49022737D01*
X89649211Y-49175476D01*
X89589631Y-49345745D01*
X89589630Y-49345750D01*
X89569435Y-49524996D01*
X89569435Y-49525003D01*
X89589630Y-49704249D01*
X89589633Y-49704262D01*
X89608978Y-49759545D01*
X89612540Y-49829324D01*
X89577812Y-49889951D01*
X89515818Y-49922179D01*
X89491937Y-49924500D01*
X87858063Y-49924500D01*
X87791024Y-49904815D01*
X87745269Y-49852011D01*
X87735325Y-49782853D01*
X87741022Y-49759545D01*
X87760366Y-49704262D01*
X87760369Y-49704249D01*
X87780565Y-49525003D01*
X87780565Y-49524996D01*
X87760369Y-49345750D01*
X87760368Y-49345745D01*
X87700788Y-49175476D01*
X87637955Y-49075478D01*
X87604816Y-49022738D01*
X87477262Y-48895184D01*
X87412124Y-48854255D01*
X87324523Y-48799211D01*
X87154254Y-48739631D01*
X87154249Y-48739630D01*
X86975004Y-48719435D01*
X86974996Y-48719435D01*
X86795750Y-48739630D01*
X86795745Y-48739631D01*
X86625476Y-48799211D01*
X86472737Y-48895184D01*
X86345184Y-49022737D01*
X86249211Y-49175476D01*
X86189631Y-49345745D01*
X86189630Y-49345750D01*
X86169435Y-49524996D01*
X86169435Y-49525003D01*
X86189630Y-49704249D01*
X86189631Y-49704254D01*
X86249211Y-49874523D01*
X86345184Y-50027262D01*
X86402808Y-50084886D01*
X86436293Y-50146209D01*
X86431309Y-50215900D01*
X86393408Y-50317517D01*
X86390434Y-50345184D01*
X86387001Y-50377123D01*
X86387000Y-50377135D01*
X86387000Y-53472870D01*
X86387001Y-53472876D01*
X86393408Y-53532483D01*
X86443702Y-53667328D01*
X86443706Y-53667335D01*
X86529951Y-53782543D01*
X86529952Y-53782544D01*
X86529954Y-53782546D01*
X86555385Y-53801584D01*
X86597255Y-53857516D01*
X86602239Y-53927207D01*
X86586067Y-53966821D01*
X86549211Y-54025476D01*
X86489631Y-54195745D01*
X86489630Y-54195750D01*
X86469435Y-54374996D01*
X86469435Y-54375003D01*
X86489630Y-54554249D01*
X86489631Y-54554254D01*
X86549211Y-54724522D01*
X86603297Y-54810599D01*
X86622297Y-54877835D01*
X86601930Y-54944671D01*
X86548662Y-54989885D01*
X86498303Y-55000571D01*
X85082153Y-55000571D01*
X85065966Y-54999510D01*
X85065893Y-54999500D01*
X85065892Y-54999500D01*
X85065890Y-54999500D01*
X85006962Y-54999500D01*
X84993078Y-54998720D01*
X84980553Y-54997308D01*
X84902735Y-54988540D01*
X84875666Y-54982362D01*
X84796462Y-54954648D01*
X84771444Y-54942600D01*
X84700395Y-54897957D01*
X84678686Y-54880644D01*
X84619355Y-54821313D01*
X84602042Y-54799604D01*
X84601990Y-54799522D01*
X84557398Y-54728553D01*
X84545351Y-54703537D01*
X84517637Y-54624333D01*
X84511459Y-54597263D01*
X84506612Y-54554249D01*
X84501280Y-54506922D01*
X84500500Y-54493038D01*
X84500500Y-46799996D01*
X85169435Y-46799996D01*
X85169435Y-46800003D01*
X85189630Y-46979249D01*
X85189631Y-46979254D01*
X85249211Y-47149523D01*
X85345184Y-47302262D01*
X85472738Y-47429816D01*
X85625478Y-47525789D01*
X85694678Y-47550003D01*
X85795745Y-47585368D01*
X85795750Y-47585369D01*
X85974996Y-47605565D01*
X85975000Y-47605565D01*
X85975004Y-47605565D01*
X86154249Y-47585369D01*
X86154252Y-47585368D01*
X86154255Y-47585368D01*
X86255342Y-47549996D01*
X91944435Y-47549996D01*
X91944435Y-47550003D01*
X91964630Y-47729249D01*
X91964631Y-47729254D01*
X92024211Y-47899523D01*
X92115737Y-48045184D01*
X92120184Y-48052262D01*
X92247738Y-48179816D01*
X92400478Y-48275789D01*
X92542475Y-48325476D01*
X92570745Y-48335368D01*
X92570750Y-48335369D01*
X92749996Y-48355565D01*
X92750000Y-48355565D01*
X92750004Y-48355565D01*
X92929249Y-48335369D01*
X92929252Y-48335368D01*
X92929255Y-48335368D01*
X93099522Y-48275789D01*
X93252262Y-48179816D01*
X93379816Y-48052262D01*
X93475789Y-47899522D01*
X93535368Y-47729255D01*
X93546572Y-47629815D01*
X93555565Y-47550003D01*
X93555565Y-47549996D01*
X93535369Y-47370750D01*
X93535368Y-47370745D01*
X93475788Y-47200476D01*
X93379815Y-47047737D01*
X93252262Y-46920184D01*
X93099523Y-46824211D01*
X92929254Y-46764631D01*
X92929249Y-46764630D01*
X92750004Y-46744435D01*
X92749996Y-46744435D01*
X92570750Y-46764630D01*
X92570745Y-46764631D01*
X92400476Y-46824211D01*
X92247737Y-46920184D01*
X92120184Y-47047737D01*
X92024211Y-47200476D01*
X91964631Y-47370745D01*
X91964630Y-47370750D01*
X91944435Y-47549996D01*
X86255342Y-47549996D01*
X86324522Y-47525789D01*
X86477262Y-47429816D01*
X86604816Y-47302262D01*
X86700789Y-47149522D01*
X86760368Y-46979255D01*
X86780565Y-46800000D01*
X86774304Y-46744435D01*
X86760369Y-46620750D01*
X86760368Y-46620745D01*
X86717326Y-46497738D01*
X86700789Y-46450478D01*
X86604816Y-46297738D01*
X86477262Y-46170184D01*
X86452804Y-46154816D01*
X86324523Y-46074211D01*
X86154254Y-46014631D01*
X86154249Y-46014630D01*
X85975004Y-45994435D01*
X85974996Y-45994435D01*
X85795750Y-46014630D01*
X85795745Y-46014631D01*
X85625476Y-46074211D01*
X85472737Y-46170184D01*
X85345184Y-46297737D01*
X85249211Y-46450476D01*
X85189631Y-46620745D01*
X85189630Y-46620750D01*
X85169435Y-46799996D01*
X84500500Y-46799996D01*
X84500500Y-43399996D01*
X85169435Y-43399996D01*
X85169435Y-43400003D01*
X85189630Y-43579249D01*
X85189631Y-43579254D01*
X85249211Y-43749523D01*
X85331080Y-43879815D01*
X85345184Y-43902262D01*
X85472738Y-44029816D01*
X85625478Y-44125789D01*
X85694678Y-44150003D01*
X85795745Y-44185368D01*
X85795750Y-44185369D01*
X85974996Y-44205565D01*
X85975000Y-44205565D01*
X85975004Y-44205565D01*
X86154249Y-44185369D01*
X86154252Y-44185368D01*
X86154255Y-44185368D01*
X86255342Y-44149996D01*
X91944435Y-44149996D01*
X91944435Y-44150003D01*
X91964630Y-44329249D01*
X91964631Y-44329254D01*
X92024211Y-44499523D01*
X92120184Y-44652262D01*
X92247738Y-44779816D01*
X92400478Y-44875789D01*
X92570745Y-44935368D01*
X92570750Y-44935369D01*
X92749996Y-44955565D01*
X92750000Y-44955565D01*
X92750004Y-44955565D01*
X92929249Y-44935369D01*
X92929252Y-44935368D01*
X92929255Y-44935368D01*
X93099522Y-44875789D01*
X93252262Y-44779816D01*
X93379816Y-44652262D01*
X93475789Y-44499522D01*
X93535368Y-44329255D01*
X93546572Y-44229815D01*
X93555565Y-44150003D01*
X93555565Y-44149996D01*
X93535369Y-43970750D01*
X93535368Y-43970745D01*
X93511405Y-43902262D01*
X93475789Y-43800478D01*
X93461201Y-43777262D01*
X93379815Y-43647737D01*
X93252262Y-43520184D01*
X93099523Y-43424211D01*
X92929254Y-43364631D01*
X92929249Y-43364630D01*
X92750004Y-43344435D01*
X92749996Y-43344435D01*
X92570750Y-43364630D01*
X92570745Y-43364631D01*
X92400476Y-43424211D01*
X92247737Y-43520184D01*
X92120184Y-43647737D01*
X92024211Y-43800476D01*
X91964631Y-43970745D01*
X91964630Y-43970750D01*
X91944435Y-44149996D01*
X86255342Y-44149996D01*
X86324522Y-44125789D01*
X86477262Y-44029816D01*
X86604816Y-43902262D01*
X86700789Y-43749522D01*
X86760368Y-43579255D01*
X86777269Y-43429254D01*
X86780565Y-43400003D01*
X86780565Y-43399996D01*
X86766481Y-43274996D01*
X94944435Y-43274996D01*
X94944435Y-43275003D01*
X94964630Y-43454249D01*
X94964631Y-43454254D01*
X95024211Y-43624523D01*
X95102754Y-43749522D01*
X95120184Y-43777262D01*
X95247738Y-43904816D01*
X95400478Y-44000789D01*
X95499299Y-44035368D01*
X95570745Y-44060368D01*
X95570750Y-44060369D01*
X95749996Y-44080565D01*
X95750000Y-44080565D01*
X95750004Y-44080565D01*
X95929249Y-44060369D01*
X95929252Y-44060368D01*
X95929255Y-44060368D01*
X96099522Y-44000789D01*
X96252262Y-43904816D01*
X96379816Y-43777262D01*
X96475789Y-43624522D01*
X96535368Y-43454255D01*
X96538185Y-43429254D01*
X96555565Y-43275003D01*
X96555565Y-43274996D01*
X98344435Y-43274996D01*
X98344435Y-43275003D01*
X98364630Y-43454249D01*
X98364631Y-43454254D01*
X98424211Y-43624523D01*
X98502754Y-43749522D01*
X98520184Y-43777262D01*
X98647738Y-43904816D01*
X98800478Y-44000789D01*
X98899299Y-44035368D01*
X98970745Y-44060368D01*
X98970750Y-44060369D01*
X99149996Y-44080565D01*
X99150000Y-44080565D01*
X99150004Y-44080565D01*
X99329249Y-44060369D01*
X99329252Y-44060368D01*
X99329255Y-44060368D01*
X99499522Y-44000789D01*
X99652262Y-43904816D01*
X99779816Y-43777262D01*
X99875789Y-43624522D01*
X99935368Y-43454255D01*
X99938185Y-43429254D01*
X99955565Y-43275003D01*
X99955565Y-43274996D01*
X99952748Y-43249996D01*
X101744435Y-43249996D01*
X101744435Y-43250003D01*
X101764630Y-43429249D01*
X101764631Y-43429254D01*
X101824211Y-43599523D01*
X101854507Y-43647738D01*
X101920184Y-43752262D01*
X102047738Y-43879816D01*
X102138080Y-43936582D01*
X102192450Y-43970745D01*
X102200478Y-43975789D01*
X102354878Y-44029816D01*
X102370745Y-44035368D01*
X102370750Y-44035369D01*
X102549996Y-44055565D01*
X102550000Y-44055565D01*
X102550004Y-44055565D01*
X102729249Y-44035369D01*
X102729252Y-44035368D01*
X102729255Y-44035368D01*
X102899522Y-43975789D01*
X103052262Y-43879816D01*
X103179816Y-43752262D01*
X103275789Y-43599522D01*
X103335368Y-43429255D01*
X103335369Y-43429249D01*
X103355565Y-43250003D01*
X103355565Y-43249996D01*
X105144435Y-43249996D01*
X105144435Y-43250003D01*
X105164630Y-43429249D01*
X105164631Y-43429254D01*
X105224211Y-43599523D01*
X105254507Y-43647738D01*
X105320184Y-43752262D01*
X105447738Y-43879816D01*
X105538080Y-43936582D01*
X105592450Y-43970745D01*
X105600478Y-43975789D01*
X105754878Y-44029816D01*
X105770745Y-44035368D01*
X105770750Y-44035369D01*
X105949996Y-44055565D01*
X105950000Y-44055565D01*
X105950004Y-44055565D01*
X106129249Y-44035369D01*
X106129252Y-44035368D01*
X106129255Y-44035368D01*
X106299522Y-43975789D01*
X106452262Y-43879816D01*
X106579816Y-43752262D01*
X106675491Y-43599996D01*
X107744435Y-43599996D01*
X107744435Y-43600003D01*
X107764630Y-43779249D01*
X107764631Y-43779254D01*
X107824211Y-43949523D01*
X107878152Y-44035369D01*
X107920184Y-44102262D01*
X108047738Y-44229816D01*
X108200478Y-44325789D01*
X108370745Y-44385368D01*
X108370750Y-44385369D01*
X108549996Y-44405565D01*
X108550000Y-44405565D01*
X108550004Y-44405565D01*
X108729249Y-44385369D01*
X108729252Y-44385368D01*
X108729255Y-44385368D01*
X108899522Y-44325789D01*
X109052262Y-44229816D01*
X109179816Y-44102262D01*
X109275789Y-43949522D01*
X109335368Y-43779255D01*
X109335593Y-43777262D01*
X109355565Y-43600003D01*
X109355565Y-43599996D01*
X109335369Y-43420750D01*
X109335368Y-43420745D01*
X109315733Y-43364631D01*
X109275789Y-43250478D01*
X109257106Y-43220745D01*
X109179815Y-43097737D01*
X109052262Y-42970184D01*
X108899523Y-42874211D01*
X108729254Y-42814631D01*
X108729249Y-42814630D01*
X108550004Y-42794435D01*
X108549996Y-42794435D01*
X108370750Y-42814630D01*
X108370745Y-42814631D01*
X108200476Y-42874211D01*
X108047737Y-42970184D01*
X107920184Y-43097737D01*
X107824211Y-43250476D01*
X107764631Y-43420745D01*
X107764630Y-43420750D01*
X107744435Y-43599996D01*
X106675491Y-43599996D01*
X106675789Y-43599522D01*
X106735368Y-43429255D01*
X106735369Y-43429249D01*
X106755565Y-43250003D01*
X106755565Y-43249996D01*
X106735369Y-43070750D01*
X106735368Y-43070745D01*
X106679250Y-42910369D01*
X106675789Y-42900478D01*
X106674067Y-42897738D01*
X106609158Y-42794435D01*
X106579816Y-42747738D01*
X106452262Y-42620184D01*
X106443426Y-42614632D01*
X106299523Y-42524211D01*
X106129254Y-42464631D01*
X106129249Y-42464630D01*
X105950004Y-42444435D01*
X105949996Y-42444435D01*
X105770750Y-42464630D01*
X105770745Y-42464631D01*
X105600476Y-42524211D01*
X105447737Y-42620184D01*
X105320184Y-42747737D01*
X105224211Y-42900476D01*
X105164631Y-43070745D01*
X105164630Y-43070750D01*
X105144435Y-43249996D01*
X103355565Y-43249996D01*
X103335369Y-43070750D01*
X103335368Y-43070745D01*
X103279250Y-42910369D01*
X103275789Y-42900478D01*
X103274067Y-42897738D01*
X103209158Y-42794435D01*
X103179816Y-42747738D01*
X103052262Y-42620184D01*
X103043426Y-42614632D01*
X102899523Y-42524211D01*
X102729254Y-42464631D01*
X102729249Y-42464630D01*
X102550004Y-42444435D01*
X102549996Y-42444435D01*
X102370750Y-42464630D01*
X102370745Y-42464631D01*
X102200476Y-42524211D01*
X102047737Y-42620184D01*
X101920184Y-42747737D01*
X101824211Y-42900476D01*
X101764631Y-43070745D01*
X101764630Y-43070750D01*
X101744435Y-43249996D01*
X99952748Y-43249996D01*
X99935369Y-43095750D01*
X99935368Y-43095745D01*
X99875788Y-42925476D01*
X99806139Y-42814631D01*
X99779816Y-42772738D01*
X99652262Y-42645184D01*
X99499523Y-42549211D01*
X99329254Y-42489631D01*
X99329249Y-42489630D01*
X99150004Y-42469435D01*
X99149996Y-42469435D01*
X98970750Y-42489630D01*
X98970745Y-42489631D01*
X98800476Y-42549211D01*
X98647737Y-42645184D01*
X98520184Y-42772737D01*
X98424211Y-42925476D01*
X98364631Y-43095745D01*
X98364630Y-43095750D01*
X98344435Y-43274996D01*
X96555565Y-43274996D01*
X96535369Y-43095750D01*
X96535368Y-43095745D01*
X96475788Y-42925476D01*
X96406139Y-42814631D01*
X96379816Y-42772738D01*
X96252262Y-42645184D01*
X96099523Y-42549211D01*
X95929254Y-42489631D01*
X95929249Y-42489630D01*
X95750004Y-42469435D01*
X95749996Y-42469435D01*
X95570750Y-42489630D01*
X95570745Y-42489631D01*
X95400476Y-42549211D01*
X95247737Y-42645184D01*
X95120184Y-42772737D01*
X95024211Y-42925476D01*
X94964631Y-43095745D01*
X94964630Y-43095750D01*
X94944435Y-43274996D01*
X86766481Y-43274996D01*
X86760369Y-43220750D01*
X86760368Y-43220745D01*
X86717326Y-43097738D01*
X86700789Y-43050478D01*
X86604816Y-42897738D01*
X86477262Y-42770184D01*
X86452804Y-42754816D01*
X86324523Y-42674211D01*
X86154254Y-42614631D01*
X86154249Y-42614630D01*
X85975004Y-42594435D01*
X85974996Y-42594435D01*
X85795750Y-42614630D01*
X85795745Y-42614631D01*
X85625476Y-42674211D01*
X85472737Y-42770184D01*
X85345184Y-42897737D01*
X85249211Y-43050476D01*
X85189631Y-43220745D01*
X85189630Y-43220750D01*
X85169435Y-43399996D01*
X84500500Y-43399996D01*
X84500500Y-42124996D01*
X114419435Y-42124996D01*
X114419435Y-42125003D01*
X114439630Y-42304249D01*
X114439631Y-42304254D01*
X114499211Y-42474523D01*
X114546141Y-42549211D01*
X114595184Y-42627262D01*
X114722738Y-42754816D01*
X114747196Y-42770184D01*
X114817934Y-42814632D01*
X114875478Y-42850789D01*
X115009648Y-42897737D01*
X115045745Y-42910368D01*
X115045750Y-42910369D01*
X115224996Y-42930565D01*
X115225000Y-42930565D01*
X115225004Y-42930565D01*
X115404249Y-42910369D01*
X115404252Y-42910368D01*
X115404255Y-42910368D01*
X115574522Y-42850789D01*
X115727262Y-42754816D01*
X115854816Y-42627262D01*
X115950789Y-42474522D01*
X116010368Y-42304255D01*
X116030565Y-42125000D01*
X116015782Y-41993797D01*
X116010369Y-41945750D01*
X116010368Y-41945745D01*
X115997001Y-41907544D01*
X115950789Y-41775478D01*
X115854816Y-41622738D01*
X115727262Y-41495184D01*
X115702804Y-41479816D01*
X115574523Y-41399211D01*
X115404254Y-41339631D01*
X115404249Y-41339630D01*
X115225004Y-41319435D01*
X115224996Y-41319435D01*
X115045750Y-41339630D01*
X115045745Y-41339631D01*
X114875476Y-41399211D01*
X114722737Y-41495184D01*
X114595184Y-41622737D01*
X114499211Y-41775476D01*
X114439631Y-41945745D01*
X114439630Y-41945750D01*
X114419435Y-42124996D01*
X84500500Y-42124996D01*
X84500500Y-40506961D01*
X84501280Y-40493077D01*
X84506080Y-40450476D01*
X84511459Y-40402731D01*
X84517635Y-40375670D01*
X84545353Y-40296456D01*
X84557396Y-40271450D01*
X84602046Y-40200389D01*
X84619351Y-40178690D01*
X84678690Y-40119351D01*
X84700389Y-40102046D01*
X84771450Y-40057396D01*
X84796456Y-40045353D01*
X84875670Y-40017635D01*
X84902733Y-40011459D01*
X84965419Y-40004396D01*
X84993079Y-40001280D01*
X85006962Y-40000500D01*
X85065892Y-40000500D01*
X86668060Y-40000500D01*
X86735099Y-40020185D01*
X86780854Y-40072989D01*
X86790798Y-40142147D01*
X86761773Y-40205703D01*
X86755741Y-40212181D01*
X86670184Y-40297737D01*
X86574211Y-40450476D01*
X86514631Y-40620745D01*
X86514630Y-40620750D01*
X86494435Y-40799996D01*
X86494435Y-40800003D01*
X86514630Y-40979249D01*
X86514631Y-40979254D01*
X86574211Y-41149523D01*
X86670184Y-41302262D01*
X86797738Y-41429816D01*
X86950478Y-41525789D01*
X87093367Y-41575788D01*
X87120745Y-41585368D01*
X87120750Y-41585369D01*
X87299996Y-41605565D01*
X87300000Y-41605565D01*
X87300004Y-41605565D01*
X87479249Y-41585369D01*
X87479252Y-41585368D01*
X87479255Y-41585368D01*
X87649522Y-41525789D01*
X87802262Y-41429816D01*
X87929816Y-41302262D01*
X88025789Y-41149522D01*
X88085368Y-40979255D01*
X88099931Y-40850003D01*
X88105565Y-40800003D01*
X88105565Y-40799996D01*
X88085369Y-40620750D01*
X88085368Y-40620745D01*
X88040695Y-40493077D01*
X88025789Y-40450478D01*
X87929816Y-40297738D01*
X87844259Y-40212181D01*
X87810774Y-40150858D01*
X87815758Y-40081166D01*
X87857630Y-40025233D01*
X87923094Y-40000816D01*
X87931940Y-40000500D01*
X90068060Y-40000500D01*
X90135099Y-40020185D01*
X90180854Y-40072989D01*
X90190798Y-40142147D01*
X90161773Y-40205703D01*
X90155741Y-40212181D01*
X90070184Y-40297737D01*
X89974211Y-40450476D01*
X89914631Y-40620745D01*
X89914630Y-40620750D01*
X89894435Y-40799996D01*
X89894435Y-40800003D01*
X89914630Y-40979249D01*
X89914631Y-40979254D01*
X89974211Y-41149523D01*
X90070184Y-41302262D01*
X90197738Y-41429816D01*
X90350478Y-41525789D01*
X90493367Y-41575788D01*
X90520745Y-41585368D01*
X90520750Y-41585369D01*
X90699996Y-41605565D01*
X90700000Y-41605565D01*
X90700004Y-41605565D01*
X90879249Y-41585369D01*
X90879252Y-41585368D01*
X90879255Y-41585368D01*
X91049522Y-41525789D01*
X91202262Y-41429816D01*
X91329816Y-41302262D01*
X91425789Y-41149522D01*
X91485368Y-40979255D01*
X91499931Y-40850003D01*
X91505565Y-40800003D01*
X91505565Y-40799996D01*
X91485369Y-40620750D01*
X91485368Y-40620745D01*
X91440695Y-40493077D01*
X91425789Y-40450478D01*
X91329816Y-40297738D01*
X91202262Y-40170184D01*
X91171505Y-40150858D01*
X91049523Y-40074211D01*
X90879254Y-40014631D01*
X90879250Y-40014630D01*
X90833778Y-40009507D01*
X90769364Y-39982440D01*
X90729809Y-39924845D01*
X90727672Y-39855008D01*
X90763631Y-39795102D01*
X90780617Y-39781975D01*
X90901513Y-39704281D01*
X91063724Y-39563724D01*
X91075619Y-39549996D01*
X92219435Y-39549996D01*
X92219435Y-39550003D01*
X92239630Y-39729249D01*
X92239631Y-39729254D01*
X92299211Y-39899523D01*
X92393741Y-40049966D01*
X92395184Y-40052262D01*
X92522738Y-40179816D01*
X92675478Y-40275789D01*
X92738202Y-40297737D01*
X92845745Y-40335368D01*
X92845750Y-40335369D01*
X93024996Y-40355565D01*
X93025000Y-40355565D01*
X93025004Y-40355565D01*
X93204249Y-40335369D01*
X93204252Y-40335368D01*
X93204255Y-40335368D01*
X93374522Y-40275789D01*
X93527262Y-40179816D01*
X93654816Y-40052262D01*
X93750789Y-39899522D01*
X93810368Y-39729255D01*
X93815406Y-39684543D01*
X93830565Y-39550003D01*
X93830565Y-39549996D01*
X93810369Y-39370750D01*
X93810368Y-39370745D01*
X93750788Y-39200476D01*
X93654815Y-39047737D01*
X93527262Y-38920184D01*
X93374523Y-38824211D01*
X93204254Y-38764631D01*
X93204249Y-38764630D01*
X93025004Y-38744435D01*
X93024996Y-38744435D01*
X92845750Y-38764630D01*
X92845745Y-38764631D01*
X92675476Y-38824211D01*
X92522737Y-38920184D01*
X92395184Y-39047737D01*
X92299211Y-39200476D01*
X92239631Y-39370745D01*
X92239630Y-39370750D01*
X92219435Y-39549996D01*
X91075619Y-39549996D01*
X91204281Y-39401513D01*
X91320321Y-39220950D01*
X91320323Y-39220944D01*
X91320327Y-39220938D01*
X91409482Y-39025715D01*
X91409482Y-39025713D01*
X91409484Y-39025710D01*
X91469954Y-38819769D01*
X91500500Y-38607318D01*
X91500500Y-38500000D01*
X91500500Y-38434108D01*
X91500500Y-36149996D01*
X92219435Y-36149996D01*
X92219435Y-36150003D01*
X92239630Y-36329249D01*
X92239631Y-36329254D01*
X92299211Y-36499523D01*
X92314724Y-36524211D01*
X92395184Y-36652262D01*
X92522738Y-36779816D01*
X92675478Y-36875789D01*
X92845745Y-36935368D01*
X92845750Y-36935369D01*
X93024996Y-36955565D01*
X93025000Y-36955565D01*
X93025004Y-36955565D01*
X93204249Y-36935369D01*
X93204252Y-36935368D01*
X93204255Y-36935368D01*
X93374522Y-36875789D01*
X93527262Y-36779816D01*
X93654816Y-36652262D01*
X93749147Y-36502135D01*
X94199500Y-36502135D01*
X94199500Y-41597870D01*
X94199501Y-41597876D01*
X94205908Y-41657483D01*
X94256202Y-41792328D01*
X94256206Y-41792335D01*
X94342452Y-41907544D01*
X94342455Y-41907547D01*
X94457664Y-41993793D01*
X94457671Y-41993797D01*
X94592517Y-42044091D01*
X94592516Y-42044091D01*
X94599444Y-42044835D01*
X94652127Y-42050500D01*
X97747872Y-42050499D01*
X97807483Y-42044091D01*
X97942331Y-41993796D01*
X98057546Y-41907546D01*
X98143796Y-41792331D01*
X98194091Y-41657483D01*
X98200500Y-41597873D01*
X98200499Y-37249996D01*
X100894435Y-37249996D01*
X100894435Y-37250003D01*
X100914630Y-37429249D01*
X100914631Y-37429254D01*
X100974211Y-37599523D01*
X101070184Y-37752262D01*
X101197738Y-37879816D01*
X101350478Y-37975789D01*
X101520745Y-38035368D01*
X101520750Y-38035369D01*
X101699996Y-38055565D01*
X101700000Y-38055565D01*
X101700004Y-38055565D01*
X101879249Y-38035369D01*
X101879252Y-38035368D01*
X101879255Y-38035368D01*
X102049522Y-37975789D01*
X102202262Y-37879816D01*
X102329816Y-37752262D01*
X102425789Y-37599522D01*
X102485368Y-37429255D01*
X102505565Y-37250000D01*
X102505565Y-37249996D01*
X104294435Y-37249996D01*
X104294435Y-37250003D01*
X104314630Y-37429249D01*
X104314631Y-37429254D01*
X104374211Y-37599523D01*
X104470184Y-37752262D01*
X104597738Y-37879816D01*
X104750478Y-37975789D01*
X104920745Y-38035368D01*
X104920750Y-38035369D01*
X105099996Y-38055565D01*
X105100000Y-38055565D01*
X105100004Y-38055565D01*
X105279249Y-38035369D01*
X105279252Y-38035368D01*
X105279255Y-38035368D01*
X105449522Y-37975789D01*
X105602262Y-37879816D01*
X105729816Y-37752262D01*
X105825789Y-37599522D01*
X105885368Y-37429255D01*
X105905565Y-37250000D01*
X105885368Y-37070745D01*
X105825789Y-36900478D01*
X105729816Y-36747738D01*
X105602262Y-36620184D01*
X105449523Y-36524211D01*
X105279254Y-36464631D01*
X105279249Y-36464630D01*
X105100004Y-36444435D01*
X105099996Y-36444435D01*
X104920750Y-36464630D01*
X104920745Y-36464631D01*
X104750476Y-36524211D01*
X104597737Y-36620184D01*
X104470184Y-36747737D01*
X104374211Y-36900476D01*
X104314631Y-37070745D01*
X104314630Y-37070750D01*
X104294435Y-37249996D01*
X102505565Y-37249996D01*
X102485368Y-37070745D01*
X102425789Y-36900478D01*
X102329816Y-36747738D01*
X102202262Y-36620184D01*
X102049523Y-36524211D01*
X101879254Y-36464631D01*
X101879249Y-36464630D01*
X101700004Y-36444435D01*
X101699996Y-36444435D01*
X101520750Y-36464630D01*
X101520745Y-36464631D01*
X101350476Y-36524211D01*
X101197737Y-36620184D01*
X101070184Y-36747737D01*
X100974211Y-36900476D01*
X100914631Y-37070745D01*
X100914630Y-37070750D01*
X100894435Y-37249996D01*
X98200499Y-37249996D01*
X98200499Y-36502128D01*
X98194091Y-36442517D01*
X98143796Y-36307669D01*
X98143795Y-36307668D01*
X98143793Y-36307664D01*
X98057547Y-36192455D01*
X98057544Y-36192452D01*
X97942335Y-36106206D01*
X97942328Y-36106202D01*
X97807482Y-36055908D01*
X97807483Y-36055908D01*
X97747883Y-36049501D01*
X97747881Y-36049500D01*
X97747873Y-36049500D01*
X97747864Y-36049500D01*
X94652129Y-36049500D01*
X94652123Y-36049501D01*
X94592516Y-36055908D01*
X94457671Y-36106202D01*
X94457664Y-36106206D01*
X94342455Y-36192452D01*
X94342452Y-36192455D01*
X94256206Y-36307664D01*
X94256202Y-36307671D01*
X94205908Y-36442517D01*
X94203531Y-36464631D01*
X94199501Y-36502123D01*
X94199500Y-36502135D01*
X93749147Y-36502135D01*
X93750789Y-36499522D01*
X93810368Y-36329255D01*
X93830565Y-36150000D01*
X93828916Y-36135369D01*
X93810369Y-35970750D01*
X93810368Y-35970745D01*
X93750788Y-35800476D01*
X93654815Y-35647737D01*
X93527262Y-35520184D01*
X93374523Y-35424211D01*
X93204254Y-35364631D01*
X93204249Y-35364630D01*
X93025004Y-35344435D01*
X93024996Y-35344435D01*
X92845750Y-35364630D01*
X92845745Y-35364631D01*
X92675476Y-35424211D01*
X92522737Y-35520184D01*
X92395184Y-35647737D01*
X92299211Y-35800476D01*
X92239631Y-35970745D01*
X92239630Y-35970750D01*
X92219435Y-36149996D01*
X91500500Y-36149996D01*
X91500500Y-35006961D01*
X91501280Y-34993077D01*
X91501280Y-34993076D01*
X91511459Y-34902731D01*
X91517635Y-34875670D01*
X91545353Y-34796456D01*
X91557396Y-34771450D01*
X91602046Y-34700389D01*
X91619351Y-34678690D01*
X91678690Y-34619351D01*
X91700389Y-34602046D01*
X91771450Y-34557396D01*
X91796456Y-34545353D01*
X91875670Y-34517635D01*
X91902733Y-34511459D01*
X91965419Y-34504396D01*
X91993079Y-34501280D01*
X92006962Y-34500500D01*
X92065892Y-34500500D01*
X100068842Y-34500500D01*
X100135881Y-34520185D01*
G37*
%TD.AperFunction*%
%TD*%
M02*
