M48
; DRILL file {KiCad 8.0.6-1.fc41} date 2024-12-07T12:30:39-0500
; FORMAT={-:-/ absolute / inch / decimal}
; #@! TF.CreationDate,2024-12-07T12:30:39-05:00
; #@! TF.GenerationSoftware,Kicad,Pcbnew,8.0.6-1.fc41
; #@! TF.FileFunction,Plated,1,2,PTH
FMAT,2
INCH
; #@! TA.AperFunction,Plated,PTH,ViaDrill
T1C0.0118
; #@! TA.AperFunction,Plated,PTH,ComponentDrill
T2C0.0394
; #@! TA.AperFunction,Plated,PTH,ComponentDrill
T3C0.1063
%
G90
G05
T1
X5.748Y-3.622
X5.7579Y-3.8583
X5.8607Y-3.6811
X5.8659Y-3.7598
X5.8661Y-3.9173
X5.9843Y-3.563
X5.9941Y-3.7303
X6.0903Y-3.8506
T2
X5.4921Y-3.4811
X5.4921Y-3.5811
X5.4921Y-3.6811
X5.4921Y-3.7811
X5.4921Y-3.8811
X5.4921Y-3.9811
X5.4921Y-4.0811
X5.4921Y-4.1811
X5.6921Y-4.1811
X5.7921Y-4.1811
X5.8921Y-4.1811
X5.9268Y-3.3657
X5.9921Y-4.1811
X6.0268Y-3.3657
X6.0921Y-4.1811
X6.1921Y-4.1811
X6.2921Y-4.1811
T3
X6.2008Y-3.4843
M30
