M48
; DRILL file {KiCad 7.0.9} date Tue Apr 30 03:57:06 2024
; FORMAT={-:-/ absolute / inch / decimal}
; #@! TF.CreationDate,2024-04-30T03:57:06-04:00
; #@! TF.GenerationSoftware,Kicad,Pcbnew,7.0.9
; #@! TF.FileFunction,Plated,1,4,PTH
FMAT,2
INCH
; #@! TA.AperFunction,Plated,PTH,ViaDrill
T1C0.0157
; #@! TA.AperFunction,Plated,PTH,ViaDrill
T2C0.0295
; #@! TA.AperFunction,Plated,PTH,ComponentDrill
T3C0.0402
; #@! TA.AperFunction,Plated,PTH,ComponentDrill
T4C0.0866
%
G90
G05
T1
X5.04Y-1.745
X5.055Y-1.8
X5.1132Y-2.11
X5.2154Y-1.9486
X5.2746Y-1.9646
X5.33Y-1.52
X5.39Y-1.81
X5.53Y-1.82
X5.58Y-2.195
X5.61Y-1.425
X5.795Y-1.54
X5.825Y-1.935
X5.98Y-1.285
X6.0295Y-1.5325
X6.0797Y-1.4498
X6.1053Y-1.3031
X6.165Y-2.0
X6.165Y-2.04
X6.165Y-2.085
X6.255Y-1.81
X6.265Y-2.16
X6.4894Y-1.7306
X6.5896Y-2.2106
X6.7195Y-1.5531
X6.8465Y-1.5079
X6.8878Y-2.1033
T2
X5.99Y-1.45
X6.0896Y-1.7264
T3
X6.6218Y-1.4622
X6.6218Y-1.5622
X6.6218Y-1.6622
X6.6218Y-1.7622
X6.6218Y-1.8622
X6.6218Y-1.9622
X6.6218Y-2.0622
X7.2218Y-1.4622
X7.2218Y-1.5622
X7.2218Y-1.6622
X7.2218Y-1.7622
X7.2218Y-1.8622
X7.2218Y-1.9622
X7.2218Y-2.0622
T4
X5.332Y-1.356
X5.362Y-2.13
X6.282Y-1.348
T0
M30
