%TF.GenerationSoftware,KiCad,Pcbnew,7.0.7*%
%TF.CreationDate,2024-08-03T11:40:47-04:00*%
%TF.ProjectId,mainbox1.0,6d61696e-626f-4783-912e-302e6b696361,rev?*%
%TF.SameCoordinates,Original*%
%TF.FileFunction,Legend,Top*%
%TF.FilePolarity,Positive*%
%FSLAX46Y46*%
G04 Gerber Fmt 4.6, Leading zero omitted, Abs format (unit mm)*
G04 Created by KiCad (PCBNEW 7.0.7) date 2024-08-03 11:40:47*
%MOMM*%
%LPD*%
G01*
G04 APERTURE LIST*
G04 Aperture macros list*
%AMRoundRect*
0 Rectangle with rounded corners*
0 $1 Rounding radius*
0 $2 $3 $4 $5 $6 $7 $8 $9 X,Y pos of 4 corners*
0 Add a 4 corners polygon primitive as box body*
4,1,4,$2,$3,$4,$5,$6,$7,$8,$9,$2,$3,0*
0 Add four circle primitives for the rounded corners*
1,1,$1+$1,$2,$3*
1,1,$1+$1,$4,$5*
1,1,$1+$1,$6,$7*
1,1,$1+$1,$8,$9*
0 Add four rect primitives between the rounded corners*
20,1,$1+$1,$2,$3,$4,$5,0*
20,1,$1+$1,$4,$5,$6,$7,0*
20,1,$1+$1,$6,$7,$8,$9,0*
20,1,$1+$1,$8,$9,$2,$3,0*%
G04 Aperture macros list end*
%ADD10C,0.200000*%
%ADD11C,0.100000*%
%ADD12C,0.150000*%
%ADD13C,0.120000*%
%ADD14C,0.254000*%
%ADD15C,0.127000*%
%ADD16C,0.152400*%
%ADD17C,0.250000*%
%ADD18C,0.010000*%
%ADD19C,2.800000*%
%ADD20RoundRect,0.100000X-1.295000X-1.295000X1.295000X-1.295000X1.295000X1.295000X-1.295000X1.295000X0*%
%ADD21RoundRect,0.380000X-1.120000X-0.380000X1.120000X-0.380000X1.120000X0.380000X-1.120000X0.380000X0*%
%ADD22RoundRect,0.380000X0.380000X-1.120000X0.380000X1.120000X-0.380000X1.120000X-0.380000X-1.120000X0*%
%ADD23O,1.700000X1.700000*%
%ADD24R,1.700000X1.700000*%
%ADD25R,1.500000X1.500000*%
%ADD26RoundRect,0.225000X-0.225000X-0.250000X0.225000X-0.250000X0.225000X0.250000X-0.225000X0.250000X0*%
%ADD27RoundRect,0.142000X0.380000X0.120000X-0.380000X0.120000X-0.380000X-0.120000X0.380000X-0.120000X0*%
%ADD28RoundRect,0.142000X0.120000X0.380000X-0.120000X0.380000X-0.120000X-0.380000X0.120000X-0.380000X0*%
%ADD29RoundRect,0.102000X1.300000X1.300000X-1.300000X1.300000X-1.300000X-1.300000X1.300000X-1.300000X0*%
%ADD30RoundRect,0.200000X0.275000X-0.200000X0.275000X0.200000X-0.275000X0.200000X-0.275000X-0.200000X0*%
%ADD31RoundRect,0.250000X-0.375000X-1.075000X0.375000X-1.075000X0.375000X1.075000X-0.375000X1.075000X0*%
%ADD32R,1.003300X0.508000*%
%ADD33RoundRect,0.225000X0.225000X0.250000X-0.225000X0.250000X-0.225000X-0.250000X0.225000X-0.250000X0*%
%ADD34RoundRect,0.225000X0.250000X-0.225000X0.250000X0.225000X-0.250000X0.225000X-0.250000X-0.225000X0*%
%ADD35R,1.397000X0.279400*%
%ADD36R,1.651000X2.844800*%
%ADD37RoundRect,0.218750X-0.256250X0.218750X-0.256250X-0.218750X0.256250X-0.218750X0.256250X0.218750X0*%
%ADD38RoundRect,0.225000X-0.250000X0.225000X-0.250000X-0.225000X0.250000X-0.225000X0.250000X0.225000X0*%
%ADD39RoundRect,0.102000X0.654000X0.654000X-0.654000X0.654000X-0.654000X-0.654000X0.654000X-0.654000X0*%
%ADD40C,1.512000*%
%ADD41R,0.850000X0.300000*%
%ADD42R,0.300000X0.850000*%
%ADD43R,4.050000X4.050000*%
%ADD44RoundRect,0.102000X0.754000X0.754000X-0.754000X0.754000X-0.754000X-0.754000X0.754000X-0.754000X0*%
%ADD45C,1.712000*%
%ADD46R,0.558800X2.159000*%
%ADD47RoundRect,0.200000X-0.275000X0.200000X-0.275000X-0.200000X0.275000X-0.200000X0.275000X0.200000X0*%
%ADD48RoundRect,0.102000X-0.600000X0.600000X-0.600000X-0.600000X0.600000X-0.600000X0.600000X0.600000X0*%
%ADD49C,1.404000*%
%ADD50RoundRect,0.076200X1.050000X1.500000X-1.050000X1.500000X-1.050000X-1.500000X1.050000X-1.500000X0*%
%ADD51RoundRect,0.076200X0.400000X0.650000X-0.400000X0.650000X-0.400000X-0.650000X0.400000X-0.650000X0*%
%ADD52RoundRect,0.076200X-1.500000X1.050000X-1.500000X-1.050000X1.500000X-1.050000X1.500000X1.050000X0*%
%ADD53RoundRect,0.076200X-0.650000X0.400000X-0.650000X-0.400000X0.650000X-0.400000X0.650000X0.400000X0*%
G04 APERTURE END LIST*
D10*
X89349006Y-50733409D02*
X89491863Y-50781028D01*
X89491863Y-50781028D02*
X89539482Y-50828647D01*
X89539482Y-50828647D02*
X89587101Y-50923885D01*
X89587101Y-50923885D02*
X89587101Y-51066742D01*
X89587101Y-51066742D02*
X89539482Y-51161980D01*
X89539482Y-51161980D02*
X89491863Y-51209600D01*
X89491863Y-51209600D02*
X89396625Y-51257219D01*
X89396625Y-51257219D02*
X89015673Y-51257219D01*
X89015673Y-51257219D02*
X89015673Y-50257219D01*
X89015673Y-50257219D02*
X89349006Y-50257219D01*
X89349006Y-50257219D02*
X89444244Y-50304838D01*
X89444244Y-50304838D02*
X89491863Y-50352457D01*
X89491863Y-50352457D02*
X89539482Y-50447695D01*
X89539482Y-50447695D02*
X89539482Y-50542933D01*
X89539482Y-50542933D02*
X89491863Y-50638171D01*
X89491863Y-50638171D02*
X89444244Y-50685790D01*
X89444244Y-50685790D02*
X89349006Y-50733409D01*
X89349006Y-50733409D02*
X89015673Y-50733409D01*
X90158530Y-51257219D02*
X90063292Y-51209600D01*
X90063292Y-51209600D02*
X90015673Y-51114361D01*
X90015673Y-51114361D02*
X90015673Y-50257219D01*
X90968054Y-50590552D02*
X90968054Y-51257219D01*
X90539483Y-50590552D02*
X90539483Y-51114361D01*
X90539483Y-51114361D02*
X90587102Y-51209600D01*
X90587102Y-51209600D02*
X90682340Y-51257219D01*
X90682340Y-51257219D02*
X90825197Y-51257219D01*
X90825197Y-51257219D02*
X90920435Y-51209600D01*
X90920435Y-51209600D02*
X90968054Y-51161980D01*
X91825197Y-51209600D02*
X91729959Y-51257219D01*
X91729959Y-51257219D02*
X91539483Y-51257219D01*
X91539483Y-51257219D02*
X91444245Y-51209600D01*
X91444245Y-51209600D02*
X91396626Y-51114361D01*
X91396626Y-51114361D02*
X91396626Y-50733409D01*
X91396626Y-50733409D02*
X91444245Y-50638171D01*
X91444245Y-50638171D02*
X91539483Y-50590552D01*
X91539483Y-50590552D02*
X91729959Y-50590552D01*
X91729959Y-50590552D02*
X91825197Y-50638171D01*
X91825197Y-50638171D02*
X91872816Y-50733409D01*
X91872816Y-50733409D02*
X91872816Y-50828647D01*
X91872816Y-50828647D02*
X91396626Y-50923885D01*
X93349007Y-50257219D02*
X93349007Y-50971504D01*
X93349007Y-50971504D02*
X93301388Y-51114361D01*
X93301388Y-51114361D02*
X93206150Y-51209600D01*
X93206150Y-51209600D02*
X93063293Y-51257219D01*
X93063293Y-51257219D02*
X92968055Y-51257219D01*
X94253769Y-51257219D02*
X94253769Y-50733409D01*
X94253769Y-50733409D02*
X94206150Y-50638171D01*
X94206150Y-50638171D02*
X94110912Y-50590552D01*
X94110912Y-50590552D02*
X93920436Y-50590552D01*
X93920436Y-50590552D02*
X93825198Y-50638171D01*
X94253769Y-51209600D02*
X94158531Y-51257219D01*
X94158531Y-51257219D02*
X93920436Y-51257219D01*
X93920436Y-51257219D02*
X93825198Y-51209600D01*
X93825198Y-51209600D02*
X93777579Y-51114361D01*
X93777579Y-51114361D02*
X93777579Y-51019123D01*
X93777579Y-51019123D02*
X93825198Y-50923885D01*
X93825198Y-50923885D02*
X93920436Y-50876266D01*
X93920436Y-50876266D02*
X94158531Y-50876266D01*
X94158531Y-50876266D02*
X94253769Y-50828647D01*
X94634722Y-50590552D02*
X94872817Y-51257219D01*
X95110912Y-50590552D02*
X94872817Y-51257219D01*
X94872817Y-51257219D02*
X94777579Y-51495314D01*
X94777579Y-51495314D02*
X94729960Y-51542933D01*
X94729960Y-51542933D02*
X94634722Y-51590552D01*
X96825198Y-51257219D02*
X96491865Y-50781028D01*
X96253770Y-51257219D02*
X96253770Y-50257219D01*
X96253770Y-50257219D02*
X96634722Y-50257219D01*
X96634722Y-50257219D02*
X96729960Y-50304838D01*
X96729960Y-50304838D02*
X96777579Y-50352457D01*
X96777579Y-50352457D02*
X96825198Y-50447695D01*
X96825198Y-50447695D02*
X96825198Y-50590552D01*
X96825198Y-50590552D02*
X96777579Y-50685790D01*
X96777579Y-50685790D02*
X96729960Y-50733409D01*
X96729960Y-50733409D02*
X96634722Y-50781028D01*
X96634722Y-50781028D02*
X96253770Y-50781028D01*
X97682341Y-51257219D02*
X97682341Y-50733409D01*
X97682341Y-50733409D02*
X97634722Y-50638171D01*
X97634722Y-50638171D02*
X97539484Y-50590552D01*
X97539484Y-50590552D02*
X97349008Y-50590552D01*
X97349008Y-50590552D02*
X97253770Y-50638171D01*
X97682341Y-51209600D02*
X97587103Y-51257219D01*
X97587103Y-51257219D02*
X97349008Y-51257219D01*
X97349008Y-51257219D02*
X97253770Y-51209600D01*
X97253770Y-51209600D02*
X97206151Y-51114361D01*
X97206151Y-51114361D02*
X97206151Y-51019123D01*
X97206151Y-51019123D02*
X97253770Y-50923885D01*
X97253770Y-50923885D02*
X97349008Y-50876266D01*
X97349008Y-50876266D02*
X97587103Y-50876266D01*
X97587103Y-50876266D02*
X97682341Y-50828647D01*
X98587103Y-51209600D02*
X98491865Y-51257219D01*
X98491865Y-51257219D02*
X98301389Y-51257219D01*
X98301389Y-51257219D02*
X98206151Y-51209600D01*
X98206151Y-51209600D02*
X98158532Y-51161980D01*
X98158532Y-51161980D02*
X98110913Y-51066742D01*
X98110913Y-51066742D02*
X98110913Y-50781028D01*
X98110913Y-50781028D02*
X98158532Y-50685790D01*
X98158532Y-50685790D02*
X98206151Y-50638171D01*
X98206151Y-50638171D02*
X98301389Y-50590552D01*
X98301389Y-50590552D02*
X98491865Y-50590552D01*
X98491865Y-50590552D02*
X98587103Y-50638171D01*
X99015675Y-51257219D02*
X99015675Y-50590552D01*
X99015675Y-50257219D02*
X98968056Y-50304838D01*
X98968056Y-50304838D02*
X99015675Y-50352457D01*
X99015675Y-50352457D02*
X99063294Y-50304838D01*
X99063294Y-50304838D02*
X99015675Y-50257219D01*
X99015675Y-50257219D02*
X99015675Y-50352457D01*
X99491865Y-50590552D02*
X99491865Y-51257219D01*
X99491865Y-50685790D02*
X99539484Y-50638171D01*
X99539484Y-50638171D02*
X99634722Y-50590552D01*
X99634722Y-50590552D02*
X99777579Y-50590552D01*
X99777579Y-50590552D02*
X99872817Y-50638171D01*
X99872817Y-50638171D02*
X99920436Y-50733409D01*
X99920436Y-50733409D02*
X99920436Y-51257219D01*
X100825198Y-50590552D02*
X100825198Y-51400076D01*
X100825198Y-51400076D02*
X100777579Y-51495314D01*
X100777579Y-51495314D02*
X100729960Y-51542933D01*
X100729960Y-51542933D02*
X100634722Y-51590552D01*
X100634722Y-51590552D02*
X100491865Y-51590552D01*
X100491865Y-51590552D02*
X100396627Y-51542933D01*
X100825198Y-51209600D02*
X100729960Y-51257219D01*
X100729960Y-51257219D02*
X100539484Y-51257219D01*
X100539484Y-51257219D02*
X100444246Y-51209600D01*
X100444246Y-51209600D02*
X100396627Y-51161980D01*
X100396627Y-51161980D02*
X100349008Y-51066742D01*
X100349008Y-51066742D02*
X100349008Y-50781028D01*
X100349008Y-50781028D02*
X100396627Y-50685790D01*
X100396627Y-50685790D02*
X100444246Y-50638171D01*
X100444246Y-50638171D02*
X100539484Y-50590552D01*
X100539484Y-50590552D02*
X100729960Y-50590552D01*
X100729960Y-50590552D02*
X100825198Y-50638171D01*
X102682341Y-50781028D02*
X102634722Y-50733409D01*
X102634722Y-50733409D02*
X102539484Y-50685790D01*
X102539484Y-50685790D02*
X102444246Y-50685790D01*
X102444246Y-50685790D02*
X102349008Y-50733409D01*
X102349008Y-50733409D02*
X102301389Y-50781028D01*
X102301389Y-50781028D02*
X102253770Y-50876266D01*
X102253770Y-50876266D02*
X102253770Y-50971504D01*
X102253770Y-50971504D02*
X102301389Y-51066742D01*
X102301389Y-51066742D02*
X102349008Y-51114361D01*
X102349008Y-51114361D02*
X102444246Y-51161980D01*
X102444246Y-51161980D02*
X102539484Y-51161980D01*
X102539484Y-51161980D02*
X102634722Y-51114361D01*
X102634722Y-51114361D02*
X102682341Y-51066742D01*
X102682341Y-50685790D02*
X102682341Y-51066742D01*
X102682341Y-51066742D02*
X102729960Y-51114361D01*
X102729960Y-51114361D02*
X102777579Y-51114361D01*
X102777579Y-51114361D02*
X102872818Y-51066742D01*
X102872818Y-51066742D02*
X102920437Y-50971504D01*
X102920437Y-50971504D02*
X102920437Y-50733409D01*
X102920437Y-50733409D02*
X102825199Y-50590552D01*
X102825199Y-50590552D02*
X102682341Y-50495314D01*
X102682341Y-50495314D02*
X102491865Y-50447695D01*
X102491865Y-50447695D02*
X102301389Y-50495314D01*
X102301389Y-50495314D02*
X102158532Y-50590552D01*
X102158532Y-50590552D02*
X102063294Y-50733409D01*
X102063294Y-50733409D02*
X102015675Y-50923885D01*
X102015675Y-50923885D02*
X102063294Y-51114361D01*
X102063294Y-51114361D02*
X102158532Y-51257219D01*
X102158532Y-51257219D02*
X102301389Y-51352457D01*
X102301389Y-51352457D02*
X102491865Y-51400076D01*
X102491865Y-51400076D02*
X102682341Y-51352457D01*
X102682341Y-51352457D02*
X102825199Y-51257219D01*
X104396627Y-50257219D02*
X104396627Y-50971504D01*
X104396627Y-50971504D02*
X104349008Y-51114361D01*
X104349008Y-51114361D02*
X104253770Y-51209600D01*
X104253770Y-51209600D02*
X104110913Y-51257219D01*
X104110913Y-51257219D02*
X104015675Y-51257219D01*
X104872818Y-51257219D02*
X104872818Y-50257219D01*
X104872818Y-50733409D02*
X105444246Y-50733409D01*
X105444246Y-51257219D02*
X105444246Y-50257219D01*
X105920437Y-50257219D02*
X105920437Y-51066742D01*
X105920437Y-51066742D02*
X105968056Y-51161980D01*
X105968056Y-51161980D02*
X106015675Y-51209600D01*
X106015675Y-51209600D02*
X106110913Y-51257219D01*
X106110913Y-51257219D02*
X106301389Y-51257219D01*
X106301389Y-51257219D02*
X106396627Y-51209600D01*
X106396627Y-51209600D02*
X106444246Y-51161980D01*
X106444246Y-51161980D02*
X106491865Y-51066742D01*
X106491865Y-51066742D02*
X106491865Y-50257219D01*
X88968054Y-51962457D02*
X89015673Y-51914838D01*
X89015673Y-51914838D02*
X89110911Y-51867219D01*
X89110911Y-51867219D02*
X89349006Y-51867219D01*
X89349006Y-51867219D02*
X89444244Y-51914838D01*
X89444244Y-51914838D02*
X89491863Y-51962457D01*
X89491863Y-51962457D02*
X89539482Y-52057695D01*
X89539482Y-52057695D02*
X89539482Y-52152933D01*
X89539482Y-52152933D02*
X89491863Y-52295790D01*
X89491863Y-52295790D02*
X88920435Y-52867219D01*
X88920435Y-52867219D02*
X89539482Y-52867219D01*
X90158530Y-51867219D02*
X90253768Y-51867219D01*
X90253768Y-51867219D02*
X90349006Y-51914838D01*
X90349006Y-51914838D02*
X90396625Y-51962457D01*
X90396625Y-51962457D02*
X90444244Y-52057695D01*
X90444244Y-52057695D02*
X90491863Y-52248171D01*
X90491863Y-52248171D02*
X90491863Y-52486266D01*
X90491863Y-52486266D02*
X90444244Y-52676742D01*
X90444244Y-52676742D02*
X90396625Y-52771980D01*
X90396625Y-52771980D02*
X90349006Y-52819600D01*
X90349006Y-52819600D02*
X90253768Y-52867219D01*
X90253768Y-52867219D02*
X90158530Y-52867219D01*
X90158530Y-52867219D02*
X90063292Y-52819600D01*
X90063292Y-52819600D02*
X90015673Y-52771980D01*
X90015673Y-52771980D02*
X89968054Y-52676742D01*
X89968054Y-52676742D02*
X89920435Y-52486266D01*
X89920435Y-52486266D02*
X89920435Y-52248171D01*
X89920435Y-52248171D02*
X89968054Y-52057695D01*
X89968054Y-52057695D02*
X90015673Y-51962457D01*
X90015673Y-51962457D02*
X90063292Y-51914838D01*
X90063292Y-51914838D02*
X90158530Y-51867219D01*
X90825197Y-51867219D02*
X91491863Y-52867219D01*
X91491863Y-51867219D02*
X90825197Y-52867219D01*
X91729959Y-51867219D02*
X92301387Y-51867219D01*
X92015673Y-52867219D02*
X92015673Y-51867219D01*
X89349006Y-53953409D02*
X89015673Y-53953409D01*
X89015673Y-54477219D02*
X89015673Y-53477219D01*
X89015673Y-53477219D02*
X89491863Y-53477219D01*
X89872816Y-54477219D02*
X89872816Y-53810552D01*
X89872816Y-54001028D02*
X89920435Y-53905790D01*
X89920435Y-53905790D02*
X89968054Y-53858171D01*
X89968054Y-53858171D02*
X90063292Y-53810552D01*
X90063292Y-53810552D02*
X90158530Y-53810552D01*
X90634721Y-54477219D02*
X90539483Y-54429600D01*
X90539483Y-54429600D02*
X90491864Y-54381980D01*
X90491864Y-54381980D02*
X90444245Y-54286742D01*
X90444245Y-54286742D02*
X90444245Y-54001028D01*
X90444245Y-54001028D02*
X90491864Y-53905790D01*
X90491864Y-53905790D02*
X90539483Y-53858171D01*
X90539483Y-53858171D02*
X90634721Y-53810552D01*
X90634721Y-53810552D02*
X90777578Y-53810552D01*
X90777578Y-53810552D02*
X90872816Y-53858171D01*
X90872816Y-53858171D02*
X90920435Y-53905790D01*
X90920435Y-53905790D02*
X90968054Y-54001028D01*
X90968054Y-54001028D02*
X90968054Y-54286742D01*
X90968054Y-54286742D02*
X90920435Y-54381980D01*
X90920435Y-54381980D02*
X90872816Y-54429600D01*
X90872816Y-54429600D02*
X90777578Y-54477219D01*
X90777578Y-54477219D02*
X90634721Y-54477219D01*
X91396626Y-53810552D02*
X91396626Y-54477219D01*
X91396626Y-53905790D02*
X91444245Y-53858171D01*
X91444245Y-53858171D02*
X91539483Y-53810552D01*
X91539483Y-53810552D02*
X91682340Y-53810552D01*
X91682340Y-53810552D02*
X91777578Y-53858171D01*
X91777578Y-53858171D02*
X91825197Y-53953409D01*
X91825197Y-53953409D02*
X91825197Y-54477219D01*
X92158531Y-53810552D02*
X92539483Y-53810552D01*
X92301388Y-53477219D02*
X92301388Y-54334361D01*
X92301388Y-54334361D02*
X92349007Y-54429600D01*
X92349007Y-54429600D02*
X92444245Y-54477219D01*
X92444245Y-54477219D02*
X92539483Y-54477219D01*
X93968055Y-53953409D02*
X94110912Y-54001028D01*
X94110912Y-54001028D02*
X94158531Y-54048647D01*
X94158531Y-54048647D02*
X94206150Y-54143885D01*
X94206150Y-54143885D02*
X94206150Y-54286742D01*
X94206150Y-54286742D02*
X94158531Y-54381980D01*
X94158531Y-54381980D02*
X94110912Y-54429600D01*
X94110912Y-54429600D02*
X94015674Y-54477219D01*
X94015674Y-54477219D02*
X93634722Y-54477219D01*
X93634722Y-54477219D02*
X93634722Y-53477219D01*
X93634722Y-53477219D02*
X93968055Y-53477219D01*
X93968055Y-53477219D02*
X94063293Y-53524838D01*
X94063293Y-53524838D02*
X94110912Y-53572457D01*
X94110912Y-53572457D02*
X94158531Y-53667695D01*
X94158531Y-53667695D02*
X94158531Y-53762933D01*
X94158531Y-53762933D02*
X94110912Y-53858171D01*
X94110912Y-53858171D02*
X94063293Y-53905790D01*
X94063293Y-53905790D02*
X93968055Y-53953409D01*
X93968055Y-53953409D02*
X93634722Y-53953409D01*
X94777579Y-54477219D02*
X94682341Y-54429600D01*
X94682341Y-54429600D02*
X94634722Y-54381980D01*
X94634722Y-54381980D02*
X94587103Y-54286742D01*
X94587103Y-54286742D02*
X94587103Y-54001028D01*
X94587103Y-54001028D02*
X94634722Y-53905790D01*
X94634722Y-53905790D02*
X94682341Y-53858171D01*
X94682341Y-53858171D02*
X94777579Y-53810552D01*
X94777579Y-53810552D02*
X94920436Y-53810552D01*
X94920436Y-53810552D02*
X95015674Y-53858171D01*
X95015674Y-53858171D02*
X95063293Y-53905790D01*
X95063293Y-53905790D02*
X95110912Y-54001028D01*
X95110912Y-54001028D02*
X95110912Y-54286742D01*
X95110912Y-54286742D02*
X95063293Y-54381980D01*
X95063293Y-54381980D02*
X95015674Y-54429600D01*
X95015674Y-54429600D02*
X94920436Y-54477219D01*
X94920436Y-54477219D02*
X94777579Y-54477219D01*
X95444246Y-54477219D02*
X95968055Y-53810552D01*
X95444246Y-53810552D02*
X95968055Y-54477219D01*
X97110913Y-54477219D02*
X97110913Y-53477219D01*
X97110913Y-53477219D02*
X97444246Y-54191504D01*
X97444246Y-54191504D02*
X97777579Y-53477219D01*
X97777579Y-53477219D02*
X97777579Y-54477219D01*
X98682341Y-54477219D02*
X98682341Y-53953409D01*
X98682341Y-53953409D02*
X98634722Y-53858171D01*
X98634722Y-53858171D02*
X98539484Y-53810552D01*
X98539484Y-53810552D02*
X98349008Y-53810552D01*
X98349008Y-53810552D02*
X98253770Y-53858171D01*
X98682341Y-54429600D02*
X98587103Y-54477219D01*
X98587103Y-54477219D02*
X98349008Y-54477219D01*
X98349008Y-54477219D02*
X98253770Y-54429600D01*
X98253770Y-54429600D02*
X98206151Y-54334361D01*
X98206151Y-54334361D02*
X98206151Y-54239123D01*
X98206151Y-54239123D02*
X98253770Y-54143885D01*
X98253770Y-54143885D02*
X98349008Y-54096266D01*
X98349008Y-54096266D02*
X98587103Y-54096266D01*
X98587103Y-54096266D02*
X98682341Y-54048647D01*
X99158532Y-54477219D02*
X99158532Y-53810552D01*
X99158532Y-53477219D02*
X99110913Y-53524838D01*
X99110913Y-53524838D02*
X99158532Y-53572457D01*
X99158532Y-53572457D02*
X99206151Y-53524838D01*
X99206151Y-53524838D02*
X99158532Y-53477219D01*
X99158532Y-53477219D02*
X99158532Y-53572457D01*
X99634722Y-53810552D02*
X99634722Y-54477219D01*
X99634722Y-53905790D02*
X99682341Y-53858171D01*
X99682341Y-53858171D02*
X99777579Y-53810552D01*
X99777579Y-53810552D02*
X99920436Y-53810552D01*
X99920436Y-53810552D02*
X100015674Y-53858171D01*
X100015674Y-53858171D02*
X100063293Y-53953409D01*
X100063293Y-53953409D02*
X100063293Y-54477219D01*
X101634722Y-53953409D02*
X101777579Y-54001028D01*
X101777579Y-54001028D02*
X101825198Y-54048647D01*
X101825198Y-54048647D02*
X101872817Y-54143885D01*
X101872817Y-54143885D02*
X101872817Y-54286742D01*
X101872817Y-54286742D02*
X101825198Y-54381980D01*
X101825198Y-54381980D02*
X101777579Y-54429600D01*
X101777579Y-54429600D02*
X101682341Y-54477219D01*
X101682341Y-54477219D02*
X101301389Y-54477219D01*
X101301389Y-54477219D02*
X101301389Y-53477219D01*
X101301389Y-53477219D02*
X101634722Y-53477219D01*
X101634722Y-53477219D02*
X101729960Y-53524838D01*
X101729960Y-53524838D02*
X101777579Y-53572457D01*
X101777579Y-53572457D02*
X101825198Y-53667695D01*
X101825198Y-53667695D02*
X101825198Y-53762933D01*
X101825198Y-53762933D02*
X101777579Y-53858171D01*
X101777579Y-53858171D02*
X101729960Y-53905790D01*
X101729960Y-53905790D02*
X101634722Y-53953409D01*
X101634722Y-53953409D02*
X101301389Y-53953409D01*
X102444246Y-54477219D02*
X102349008Y-54429600D01*
X102349008Y-54429600D02*
X102301389Y-54381980D01*
X102301389Y-54381980D02*
X102253770Y-54286742D01*
X102253770Y-54286742D02*
X102253770Y-54001028D01*
X102253770Y-54001028D02*
X102301389Y-53905790D01*
X102301389Y-53905790D02*
X102349008Y-53858171D01*
X102349008Y-53858171D02*
X102444246Y-53810552D01*
X102444246Y-53810552D02*
X102587103Y-53810552D01*
X102587103Y-53810552D02*
X102682341Y-53858171D01*
X102682341Y-53858171D02*
X102729960Y-53905790D01*
X102729960Y-53905790D02*
X102777579Y-54001028D01*
X102777579Y-54001028D02*
X102777579Y-54286742D01*
X102777579Y-54286742D02*
X102729960Y-54381980D01*
X102729960Y-54381980D02*
X102682341Y-54429600D01*
X102682341Y-54429600D02*
X102587103Y-54477219D01*
X102587103Y-54477219D02*
X102444246Y-54477219D01*
X103634722Y-54477219D02*
X103634722Y-53953409D01*
X103634722Y-53953409D02*
X103587103Y-53858171D01*
X103587103Y-53858171D02*
X103491865Y-53810552D01*
X103491865Y-53810552D02*
X103301389Y-53810552D01*
X103301389Y-53810552D02*
X103206151Y-53858171D01*
X103634722Y-54429600D02*
X103539484Y-54477219D01*
X103539484Y-54477219D02*
X103301389Y-54477219D01*
X103301389Y-54477219D02*
X103206151Y-54429600D01*
X103206151Y-54429600D02*
X103158532Y-54334361D01*
X103158532Y-54334361D02*
X103158532Y-54239123D01*
X103158532Y-54239123D02*
X103206151Y-54143885D01*
X103206151Y-54143885D02*
X103301389Y-54096266D01*
X103301389Y-54096266D02*
X103539484Y-54096266D01*
X103539484Y-54096266D02*
X103634722Y-54048647D01*
X104110913Y-54477219D02*
X104110913Y-53810552D01*
X104110913Y-54001028D02*
X104158532Y-53905790D01*
X104158532Y-53905790D02*
X104206151Y-53858171D01*
X104206151Y-53858171D02*
X104301389Y-53810552D01*
X104301389Y-53810552D02*
X104396627Y-53810552D01*
X105158532Y-54477219D02*
X105158532Y-53477219D01*
X105158532Y-54429600D02*
X105063294Y-54477219D01*
X105063294Y-54477219D02*
X104872818Y-54477219D01*
X104872818Y-54477219D02*
X104777580Y-54429600D01*
X104777580Y-54429600D02*
X104729961Y-54381980D01*
X104729961Y-54381980D02*
X104682342Y-54286742D01*
X104682342Y-54286742D02*
X104682342Y-54001028D01*
X104682342Y-54001028D02*
X104729961Y-53905790D01*
X104729961Y-53905790D02*
X104777580Y-53858171D01*
X104777580Y-53858171D02*
X104872818Y-53810552D01*
X104872818Y-53810552D02*
X105063294Y-53810552D01*
X105063294Y-53810552D02*
X105158532Y-53858171D01*
D11*
X148573810Y-89409419D02*
X148573810Y-88409419D01*
X149621428Y-89314180D02*
X149573809Y-89361800D01*
X149573809Y-89361800D02*
X149430952Y-89409419D01*
X149430952Y-89409419D02*
X149335714Y-89409419D01*
X149335714Y-89409419D02*
X149192857Y-89361800D01*
X149192857Y-89361800D02*
X149097619Y-89266561D01*
X149097619Y-89266561D02*
X149050000Y-89171323D01*
X149050000Y-89171323D02*
X149002381Y-88980847D01*
X149002381Y-88980847D02*
X149002381Y-88837990D01*
X149002381Y-88837990D02*
X149050000Y-88647514D01*
X149050000Y-88647514D02*
X149097619Y-88552276D01*
X149097619Y-88552276D02*
X149192857Y-88457038D01*
X149192857Y-88457038D02*
X149335714Y-88409419D01*
X149335714Y-88409419D02*
X149430952Y-88409419D01*
X149430952Y-88409419D02*
X149573809Y-88457038D01*
X149573809Y-88457038D02*
X149621428Y-88504657D01*
X150002381Y-88504657D02*
X150050000Y-88457038D01*
X150050000Y-88457038D02*
X150145238Y-88409419D01*
X150145238Y-88409419D02*
X150383333Y-88409419D01*
X150383333Y-88409419D02*
X150478571Y-88457038D01*
X150478571Y-88457038D02*
X150526190Y-88504657D01*
X150526190Y-88504657D02*
X150573809Y-88599895D01*
X150573809Y-88599895D02*
X150573809Y-88695133D01*
X150573809Y-88695133D02*
X150526190Y-88837990D01*
X150526190Y-88837990D02*
X149954762Y-89409419D01*
X149954762Y-89409419D02*
X150573809Y-89409419D01*
X145554484Y-80452219D02*
X145554484Y-79452219D01*
X145554484Y-79833171D02*
X145649722Y-79785552D01*
X145649722Y-79785552D02*
X145840198Y-79785552D01*
X145840198Y-79785552D02*
X145935436Y-79833171D01*
X145935436Y-79833171D02*
X145983055Y-79880790D01*
X145983055Y-79880790D02*
X146030674Y-79976028D01*
X146030674Y-79976028D02*
X146030674Y-80261742D01*
X146030674Y-80261742D02*
X145983055Y-80356980D01*
X145983055Y-80356980D02*
X145935436Y-80404600D01*
X145935436Y-80404600D02*
X145840198Y-80452219D01*
X145840198Y-80452219D02*
X145649722Y-80452219D01*
X145649722Y-80452219D02*
X145554484Y-80404600D01*
X146840198Y-80404600D02*
X146744960Y-80452219D01*
X146744960Y-80452219D02*
X146554484Y-80452219D01*
X146554484Y-80452219D02*
X146459246Y-80404600D01*
X146459246Y-80404600D02*
X146411627Y-80309361D01*
X146411627Y-80309361D02*
X146411627Y-79928409D01*
X146411627Y-79928409D02*
X146459246Y-79833171D01*
X146459246Y-79833171D02*
X146554484Y-79785552D01*
X146554484Y-79785552D02*
X146744960Y-79785552D01*
X146744960Y-79785552D02*
X146840198Y-79833171D01*
X146840198Y-79833171D02*
X146887817Y-79928409D01*
X146887817Y-79928409D02*
X146887817Y-80023647D01*
X146887817Y-80023647D02*
X146411627Y-80118885D01*
X147173532Y-79785552D02*
X147554484Y-79785552D01*
X147316389Y-80452219D02*
X147316389Y-79595076D01*
X147316389Y-79595076D02*
X147364008Y-79499838D01*
X147364008Y-79499838D02*
X147459246Y-79452219D01*
X147459246Y-79452219D02*
X147554484Y-79452219D01*
X148030675Y-80452219D02*
X147935437Y-80404600D01*
X147935437Y-80404600D02*
X147887818Y-80356980D01*
X147887818Y-80356980D02*
X147840199Y-80261742D01*
X147840199Y-80261742D02*
X147840199Y-79976028D01*
X147840199Y-79976028D02*
X147887818Y-79880790D01*
X147887818Y-79880790D02*
X147935437Y-79833171D01*
X147935437Y-79833171D02*
X148030675Y-79785552D01*
X148030675Y-79785552D02*
X148173532Y-79785552D01*
X148173532Y-79785552D02*
X148268770Y-79833171D01*
X148268770Y-79833171D02*
X148316389Y-79880790D01*
X148316389Y-79880790D02*
X148364008Y-79976028D01*
X148364008Y-79976028D02*
X148364008Y-80261742D01*
X148364008Y-80261742D02*
X148316389Y-80356980D01*
X148316389Y-80356980D02*
X148268770Y-80404600D01*
X148268770Y-80404600D02*
X148173532Y-80452219D01*
X148173532Y-80452219D02*
X148030675Y-80452219D01*
X148792580Y-80452219D02*
X148792580Y-79785552D01*
X148792580Y-79976028D02*
X148840199Y-79880790D01*
X148840199Y-79880790D02*
X148887818Y-79833171D01*
X148887818Y-79833171D02*
X148983056Y-79785552D01*
X148983056Y-79785552D02*
X149078294Y-79785552D01*
X149792580Y-80404600D02*
X149697342Y-80452219D01*
X149697342Y-80452219D02*
X149506866Y-80452219D01*
X149506866Y-80452219D02*
X149411628Y-80404600D01*
X149411628Y-80404600D02*
X149364009Y-80309361D01*
X149364009Y-80309361D02*
X149364009Y-79928409D01*
X149364009Y-79928409D02*
X149411628Y-79833171D01*
X149411628Y-79833171D02*
X149506866Y-79785552D01*
X149506866Y-79785552D02*
X149697342Y-79785552D01*
X149697342Y-79785552D02*
X149792580Y-79833171D01*
X149792580Y-79833171D02*
X149840199Y-79928409D01*
X149840199Y-79928409D02*
X149840199Y-80023647D01*
X149840199Y-80023647D02*
X149364009Y-80118885D01*
X151459247Y-80452219D02*
X151459247Y-79928409D01*
X151459247Y-79928409D02*
X151411628Y-79833171D01*
X151411628Y-79833171D02*
X151316390Y-79785552D01*
X151316390Y-79785552D02*
X151125914Y-79785552D01*
X151125914Y-79785552D02*
X151030676Y-79833171D01*
X151459247Y-80404600D02*
X151364009Y-80452219D01*
X151364009Y-80452219D02*
X151125914Y-80452219D01*
X151125914Y-80452219D02*
X151030676Y-80404600D01*
X151030676Y-80404600D02*
X150983057Y-80309361D01*
X150983057Y-80309361D02*
X150983057Y-80214123D01*
X150983057Y-80214123D02*
X151030676Y-80118885D01*
X151030676Y-80118885D02*
X151125914Y-80071266D01*
X151125914Y-80071266D02*
X151364009Y-80071266D01*
X151364009Y-80071266D02*
X151459247Y-80023647D01*
X152364009Y-80452219D02*
X152364009Y-79452219D01*
X152364009Y-80404600D02*
X152268771Y-80452219D01*
X152268771Y-80452219D02*
X152078295Y-80452219D01*
X152078295Y-80452219D02*
X151983057Y-80404600D01*
X151983057Y-80404600D02*
X151935438Y-80356980D01*
X151935438Y-80356980D02*
X151887819Y-80261742D01*
X151887819Y-80261742D02*
X151887819Y-79976028D01*
X151887819Y-79976028D02*
X151935438Y-79880790D01*
X151935438Y-79880790D02*
X151983057Y-79833171D01*
X151983057Y-79833171D02*
X152078295Y-79785552D01*
X152078295Y-79785552D02*
X152268771Y-79785552D01*
X152268771Y-79785552D02*
X152364009Y-79833171D01*
X153268771Y-80452219D02*
X153268771Y-79452219D01*
X153268771Y-80404600D02*
X153173533Y-80452219D01*
X153173533Y-80452219D02*
X152983057Y-80452219D01*
X152983057Y-80452219D02*
X152887819Y-80404600D01*
X152887819Y-80404600D02*
X152840200Y-80356980D01*
X152840200Y-80356980D02*
X152792581Y-80261742D01*
X152792581Y-80261742D02*
X152792581Y-79976028D01*
X152792581Y-79976028D02*
X152840200Y-79880790D01*
X152840200Y-79880790D02*
X152887819Y-79833171D01*
X152887819Y-79833171D02*
X152983057Y-79785552D01*
X152983057Y-79785552D02*
X153173533Y-79785552D01*
X153173533Y-79785552D02*
X153268771Y-79833171D01*
X154459248Y-80404600D02*
X154554486Y-80452219D01*
X154554486Y-80452219D02*
X154744962Y-80452219D01*
X154744962Y-80452219D02*
X154840200Y-80404600D01*
X154840200Y-80404600D02*
X154887819Y-80309361D01*
X154887819Y-80309361D02*
X154887819Y-80261742D01*
X154887819Y-80261742D02*
X154840200Y-80166504D01*
X154840200Y-80166504D02*
X154744962Y-80118885D01*
X154744962Y-80118885D02*
X154602105Y-80118885D01*
X154602105Y-80118885D02*
X154506867Y-80071266D01*
X154506867Y-80071266D02*
X154459248Y-79976028D01*
X154459248Y-79976028D02*
X154459248Y-79928409D01*
X154459248Y-79928409D02*
X154506867Y-79833171D01*
X154506867Y-79833171D02*
X154602105Y-79785552D01*
X154602105Y-79785552D02*
X154744962Y-79785552D01*
X154744962Y-79785552D02*
X154840200Y-79833171D01*
X155459248Y-80452219D02*
X155364010Y-80404600D01*
X155364010Y-80404600D02*
X155316391Y-80356980D01*
X155316391Y-80356980D02*
X155268772Y-80261742D01*
X155268772Y-80261742D02*
X155268772Y-79976028D01*
X155268772Y-79976028D02*
X155316391Y-79880790D01*
X155316391Y-79880790D02*
X155364010Y-79833171D01*
X155364010Y-79833171D02*
X155459248Y-79785552D01*
X155459248Y-79785552D02*
X155602105Y-79785552D01*
X155602105Y-79785552D02*
X155697343Y-79833171D01*
X155697343Y-79833171D02*
X155744962Y-79880790D01*
X155744962Y-79880790D02*
X155792581Y-79976028D01*
X155792581Y-79976028D02*
X155792581Y-80261742D01*
X155792581Y-80261742D02*
X155744962Y-80356980D01*
X155744962Y-80356980D02*
X155697343Y-80404600D01*
X155697343Y-80404600D02*
X155602105Y-80452219D01*
X155602105Y-80452219D02*
X155459248Y-80452219D01*
X156364010Y-80452219D02*
X156268772Y-80404600D01*
X156268772Y-80404600D02*
X156221153Y-80309361D01*
X156221153Y-80309361D02*
X156221153Y-79452219D01*
X157173534Y-80452219D02*
X157173534Y-79452219D01*
X157173534Y-80404600D02*
X157078296Y-80452219D01*
X157078296Y-80452219D02*
X156887820Y-80452219D01*
X156887820Y-80452219D02*
X156792582Y-80404600D01*
X156792582Y-80404600D02*
X156744963Y-80356980D01*
X156744963Y-80356980D02*
X156697344Y-80261742D01*
X156697344Y-80261742D02*
X156697344Y-79976028D01*
X156697344Y-79976028D02*
X156744963Y-79880790D01*
X156744963Y-79880790D02*
X156792582Y-79833171D01*
X156792582Y-79833171D02*
X156887820Y-79785552D01*
X156887820Y-79785552D02*
X157078296Y-79785552D01*
X157078296Y-79785552D02*
X157173534Y-79833171D01*
X158030677Y-80404600D02*
X157935439Y-80452219D01*
X157935439Y-80452219D02*
X157744963Y-80452219D01*
X157744963Y-80452219D02*
X157649725Y-80404600D01*
X157649725Y-80404600D02*
X157602106Y-80309361D01*
X157602106Y-80309361D02*
X157602106Y-79928409D01*
X157602106Y-79928409D02*
X157649725Y-79833171D01*
X157649725Y-79833171D02*
X157744963Y-79785552D01*
X157744963Y-79785552D02*
X157935439Y-79785552D01*
X157935439Y-79785552D02*
X158030677Y-79833171D01*
X158030677Y-79833171D02*
X158078296Y-79928409D01*
X158078296Y-79928409D02*
X158078296Y-80023647D01*
X158078296Y-80023647D02*
X157602106Y-80118885D01*
X158506868Y-80452219D02*
X158506868Y-79785552D01*
X158506868Y-79976028D02*
X158554487Y-79880790D01*
X158554487Y-79880790D02*
X158602106Y-79833171D01*
X158602106Y-79833171D02*
X158697344Y-79785552D01*
X158697344Y-79785552D02*
X158792582Y-79785552D01*
X159887821Y-79785552D02*
X159887821Y-80785552D01*
X159887821Y-79833171D02*
X159983059Y-79785552D01*
X159983059Y-79785552D02*
X160173535Y-79785552D01*
X160173535Y-79785552D02*
X160268773Y-79833171D01*
X160268773Y-79833171D02*
X160316392Y-79880790D01*
X160316392Y-79880790D02*
X160364011Y-79976028D01*
X160364011Y-79976028D02*
X160364011Y-80261742D01*
X160364011Y-80261742D02*
X160316392Y-80356980D01*
X160316392Y-80356980D02*
X160268773Y-80404600D01*
X160268773Y-80404600D02*
X160173535Y-80452219D01*
X160173535Y-80452219D02*
X159983059Y-80452219D01*
X159983059Y-80452219D02*
X159887821Y-80404600D01*
X161221154Y-80452219D02*
X161221154Y-79928409D01*
X161221154Y-79928409D02*
X161173535Y-79833171D01*
X161173535Y-79833171D02*
X161078297Y-79785552D01*
X161078297Y-79785552D02*
X160887821Y-79785552D01*
X160887821Y-79785552D02*
X160792583Y-79833171D01*
X161221154Y-80404600D02*
X161125916Y-80452219D01*
X161125916Y-80452219D02*
X160887821Y-80452219D01*
X160887821Y-80452219D02*
X160792583Y-80404600D01*
X160792583Y-80404600D02*
X160744964Y-80309361D01*
X160744964Y-80309361D02*
X160744964Y-80214123D01*
X160744964Y-80214123D02*
X160792583Y-80118885D01*
X160792583Y-80118885D02*
X160887821Y-80071266D01*
X160887821Y-80071266D02*
X161125916Y-80071266D01*
X161125916Y-80071266D02*
X161221154Y-80023647D01*
X161649726Y-80404600D02*
X161744964Y-80452219D01*
X161744964Y-80452219D02*
X161935440Y-80452219D01*
X161935440Y-80452219D02*
X162030678Y-80404600D01*
X162030678Y-80404600D02*
X162078297Y-80309361D01*
X162078297Y-80309361D02*
X162078297Y-80261742D01*
X162078297Y-80261742D02*
X162030678Y-80166504D01*
X162030678Y-80166504D02*
X161935440Y-80118885D01*
X161935440Y-80118885D02*
X161792583Y-80118885D01*
X161792583Y-80118885D02*
X161697345Y-80071266D01*
X161697345Y-80071266D02*
X161649726Y-79976028D01*
X161649726Y-79976028D02*
X161649726Y-79928409D01*
X161649726Y-79928409D02*
X161697345Y-79833171D01*
X161697345Y-79833171D02*
X161792583Y-79785552D01*
X161792583Y-79785552D02*
X161935440Y-79785552D01*
X161935440Y-79785552D02*
X162030678Y-79833171D01*
X162364012Y-79785552D02*
X162744964Y-79785552D01*
X162506869Y-79452219D02*
X162506869Y-80309361D01*
X162506869Y-80309361D02*
X162554488Y-80404600D01*
X162554488Y-80404600D02*
X162649726Y-80452219D01*
X162649726Y-80452219D02*
X162744964Y-80452219D01*
X163459250Y-80404600D02*
X163364012Y-80452219D01*
X163364012Y-80452219D02*
X163173536Y-80452219D01*
X163173536Y-80452219D02*
X163078298Y-80404600D01*
X163078298Y-80404600D02*
X163030679Y-80309361D01*
X163030679Y-80309361D02*
X163030679Y-79928409D01*
X163030679Y-79928409D02*
X163078298Y-79833171D01*
X163078298Y-79833171D02*
X163173536Y-79785552D01*
X163173536Y-79785552D02*
X163364012Y-79785552D01*
X163364012Y-79785552D02*
X163459250Y-79833171D01*
X163459250Y-79833171D02*
X163506869Y-79928409D01*
X163506869Y-79928409D02*
X163506869Y-80023647D01*
X163506869Y-80023647D02*
X163030679Y-80118885D01*
X145764484Y-78175552D02*
X145764484Y-79175552D01*
X145764484Y-78223171D02*
X145859722Y-78175552D01*
X145859722Y-78175552D02*
X146050198Y-78175552D01*
X146050198Y-78175552D02*
X146145436Y-78223171D01*
X146145436Y-78223171D02*
X146193055Y-78270790D01*
X146193055Y-78270790D02*
X146240674Y-78366028D01*
X146240674Y-78366028D02*
X146240674Y-78651742D01*
X146240674Y-78651742D02*
X146193055Y-78746980D01*
X146193055Y-78746980D02*
X146145436Y-78794600D01*
X146145436Y-78794600D02*
X146050198Y-78842219D01*
X146050198Y-78842219D02*
X145859722Y-78842219D01*
X145859722Y-78842219D02*
X145764484Y-78794600D01*
X146812103Y-78842219D02*
X146716865Y-78794600D01*
X146716865Y-78794600D02*
X146669246Y-78699361D01*
X146669246Y-78699361D02*
X146669246Y-77842219D01*
X147621627Y-78175552D02*
X147621627Y-78842219D01*
X147193056Y-78175552D02*
X147193056Y-78699361D01*
X147193056Y-78699361D02*
X147240675Y-78794600D01*
X147240675Y-78794600D02*
X147335913Y-78842219D01*
X147335913Y-78842219D02*
X147478770Y-78842219D01*
X147478770Y-78842219D02*
X147574008Y-78794600D01*
X147574008Y-78794600D02*
X147621627Y-78746980D01*
X148526389Y-78175552D02*
X148526389Y-78985076D01*
X148526389Y-78985076D02*
X148478770Y-79080314D01*
X148478770Y-79080314D02*
X148431151Y-79127933D01*
X148431151Y-79127933D02*
X148335913Y-79175552D01*
X148335913Y-79175552D02*
X148193056Y-79175552D01*
X148193056Y-79175552D02*
X148097818Y-79127933D01*
X148526389Y-78794600D02*
X148431151Y-78842219D01*
X148431151Y-78842219D02*
X148240675Y-78842219D01*
X148240675Y-78842219D02*
X148145437Y-78794600D01*
X148145437Y-78794600D02*
X148097818Y-78746980D01*
X148097818Y-78746980D02*
X148050199Y-78651742D01*
X148050199Y-78651742D02*
X148050199Y-78366028D01*
X148050199Y-78366028D02*
X148097818Y-78270790D01*
X148097818Y-78270790D02*
X148145437Y-78223171D01*
X148145437Y-78223171D02*
X148240675Y-78175552D01*
X148240675Y-78175552D02*
X148431151Y-78175552D01*
X148431151Y-78175552D02*
X148526389Y-78223171D01*
X149669247Y-78175552D02*
X149907342Y-78842219D01*
X149907342Y-78842219D02*
X150145437Y-78175552D01*
X150526390Y-78842219D02*
X150526390Y-78175552D01*
X150526390Y-77842219D02*
X150478771Y-77889838D01*
X150478771Y-77889838D02*
X150526390Y-77937457D01*
X150526390Y-77937457D02*
X150574009Y-77889838D01*
X150574009Y-77889838D02*
X150526390Y-77842219D01*
X150526390Y-77842219D02*
X150526390Y-77937457D01*
X151431151Y-78842219D02*
X151431151Y-78318409D01*
X151431151Y-78318409D02*
X151383532Y-78223171D01*
X151383532Y-78223171D02*
X151288294Y-78175552D01*
X151288294Y-78175552D02*
X151097818Y-78175552D01*
X151097818Y-78175552D02*
X151002580Y-78223171D01*
X151431151Y-78794600D02*
X151335913Y-78842219D01*
X151335913Y-78842219D02*
X151097818Y-78842219D01*
X151097818Y-78842219D02*
X151002580Y-78794600D01*
X151002580Y-78794600D02*
X150954961Y-78699361D01*
X150954961Y-78699361D02*
X150954961Y-78604123D01*
X150954961Y-78604123D02*
X151002580Y-78508885D01*
X151002580Y-78508885D02*
X151097818Y-78461266D01*
X151097818Y-78461266D02*
X151335913Y-78461266D01*
X151335913Y-78461266D02*
X151431151Y-78413647D01*
X151859723Y-78794600D02*
X151954961Y-78842219D01*
X151954961Y-78842219D02*
X152145437Y-78842219D01*
X152145437Y-78842219D02*
X152240675Y-78794600D01*
X152240675Y-78794600D02*
X152288294Y-78699361D01*
X152288294Y-78699361D02*
X152288294Y-78651742D01*
X152288294Y-78651742D02*
X152240675Y-78556504D01*
X152240675Y-78556504D02*
X152145437Y-78508885D01*
X152145437Y-78508885D02*
X152002580Y-78508885D01*
X152002580Y-78508885D02*
X151907342Y-78461266D01*
X151907342Y-78461266D02*
X151859723Y-78366028D01*
X151859723Y-78366028D02*
X151859723Y-78318409D01*
X151859723Y-78318409D02*
X151907342Y-78223171D01*
X151907342Y-78223171D02*
X152002580Y-78175552D01*
X152002580Y-78175552D02*
X152145437Y-78175552D01*
X152145437Y-78175552D02*
X152240675Y-78223171D01*
X153383533Y-78175552D02*
X153574009Y-78842219D01*
X153574009Y-78842219D02*
X153764485Y-78366028D01*
X153764485Y-78366028D02*
X153954961Y-78842219D01*
X153954961Y-78842219D02*
X154145437Y-78175552D01*
X155240675Y-77794600D02*
X154383533Y-79080314D01*
X156716866Y-78794600D02*
X156621628Y-78842219D01*
X156621628Y-78842219D02*
X156431152Y-78842219D01*
X156431152Y-78842219D02*
X156335914Y-78794600D01*
X156335914Y-78794600D02*
X156288295Y-78699361D01*
X156288295Y-78699361D02*
X156288295Y-78318409D01*
X156288295Y-78318409D02*
X156335914Y-78223171D01*
X156335914Y-78223171D02*
X156431152Y-78175552D01*
X156431152Y-78175552D02*
X156621628Y-78175552D01*
X156621628Y-78175552D02*
X156716866Y-78223171D01*
X156716866Y-78223171D02*
X156764485Y-78318409D01*
X156764485Y-78318409D02*
X156764485Y-78413647D01*
X156764485Y-78413647D02*
X156288295Y-78508885D01*
X157193057Y-78175552D02*
X157193057Y-79175552D01*
X157193057Y-78223171D02*
X157288295Y-78175552D01*
X157288295Y-78175552D02*
X157478771Y-78175552D01*
X157478771Y-78175552D02*
X157574009Y-78223171D01*
X157574009Y-78223171D02*
X157621628Y-78270790D01*
X157621628Y-78270790D02*
X157669247Y-78366028D01*
X157669247Y-78366028D02*
X157669247Y-78651742D01*
X157669247Y-78651742D02*
X157621628Y-78746980D01*
X157621628Y-78746980D02*
X157574009Y-78794600D01*
X157574009Y-78794600D02*
X157478771Y-78842219D01*
X157478771Y-78842219D02*
X157288295Y-78842219D01*
X157288295Y-78842219D02*
X157193057Y-78794600D01*
X158240676Y-78842219D02*
X158145438Y-78794600D01*
X158145438Y-78794600D02*
X158097819Y-78746980D01*
X158097819Y-78746980D02*
X158050200Y-78651742D01*
X158050200Y-78651742D02*
X158050200Y-78366028D01*
X158050200Y-78366028D02*
X158097819Y-78270790D01*
X158097819Y-78270790D02*
X158145438Y-78223171D01*
X158145438Y-78223171D02*
X158240676Y-78175552D01*
X158240676Y-78175552D02*
X158383533Y-78175552D01*
X158383533Y-78175552D02*
X158478771Y-78223171D01*
X158478771Y-78223171D02*
X158526390Y-78270790D01*
X158526390Y-78270790D02*
X158574009Y-78366028D01*
X158574009Y-78366028D02*
X158574009Y-78651742D01*
X158574009Y-78651742D02*
X158526390Y-78746980D01*
X158526390Y-78746980D02*
X158478771Y-78794600D01*
X158478771Y-78794600D02*
X158383533Y-78842219D01*
X158383533Y-78842219D02*
X158240676Y-78842219D01*
X158907343Y-78842219D02*
X159431152Y-78175552D01*
X158907343Y-78175552D02*
X159431152Y-78842219D01*
X159716867Y-78175552D02*
X159954962Y-78842219D01*
X160193057Y-78175552D02*
X159954962Y-78842219D01*
X159954962Y-78842219D02*
X159859724Y-79080314D01*
X159859724Y-79080314D02*
X159812105Y-79127933D01*
X159812105Y-79127933D02*
X159716867Y-79175552D01*
X165433646Y-59977419D02*
X166052693Y-59977419D01*
X166052693Y-59977419D02*
X165719360Y-60358371D01*
X165719360Y-60358371D02*
X165862217Y-60358371D01*
X165862217Y-60358371D02*
X165957455Y-60405990D01*
X165957455Y-60405990D02*
X166005074Y-60453609D01*
X166005074Y-60453609D02*
X166052693Y-60548847D01*
X166052693Y-60548847D02*
X166052693Y-60786942D01*
X166052693Y-60786942D02*
X166005074Y-60882180D01*
X166005074Y-60882180D02*
X165957455Y-60929800D01*
X165957455Y-60929800D02*
X165862217Y-60977419D01*
X165862217Y-60977419D02*
X165576503Y-60977419D01*
X165576503Y-60977419D02*
X165481265Y-60929800D01*
X165481265Y-60929800D02*
X165433646Y-60882180D01*
X166386027Y-59977419D02*
X167052693Y-59977419D01*
X167052693Y-59977419D02*
X166624122Y-60977419D01*
X142252693Y-66967419D02*
X141681265Y-66967419D01*
X141966979Y-66967419D02*
X141966979Y-65967419D01*
X141966979Y-65967419D02*
X141871741Y-66110276D01*
X141871741Y-66110276D02*
X141776503Y-66205514D01*
X141776503Y-66205514D02*
X141681265Y-66253133D01*
D12*
X145929819Y-58753333D02*
X146644104Y-58753333D01*
X146644104Y-58753333D02*
X146786961Y-58800952D01*
X146786961Y-58800952D02*
X146882200Y-58896190D01*
X146882200Y-58896190D02*
X146929819Y-59039047D01*
X146929819Y-59039047D02*
X146929819Y-59134285D01*
X146929819Y-58229523D02*
X146929819Y-58039047D01*
X146929819Y-58039047D02*
X146882200Y-57943809D01*
X146882200Y-57943809D02*
X146834580Y-57896190D01*
X146834580Y-57896190D02*
X146691723Y-57800952D01*
X146691723Y-57800952D02*
X146501247Y-57753333D01*
X146501247Y-57753333D02*
X146120295Y-57753333D01*
X146120295Y-57753333D02*
X146025057Y-57800952D01*
X146025057Y-57800952D02*
X145977438Y-57848571D01*
X145977438Y-57848571D02*
X145929819Y-57943809D01*
X145929819Y-57943809D02*
X145929819Y-58134285D01*
X145929819Y-58134285D02*
X145977438Y-58229523D01*
X145977438Y-58229523D02*
X146025057Y-58277142D01*
X146025057Y-58277142D02*
X146120295Y-58324761D01*
X146120295Y-58324761D02*
X146358390Y-58324761D01*
X146358390Y-58324761D02*
X146453628Y-58277142D01*
X146453628Y-58277142D02*
X146501247Y-58229523D01*
X146501247Y-58229523D02*
X146548866Y-58134285D01*
X146548866Y-58134285D02*
X146548866Y-57943809D01*
X146548866Y-57943809D02*
X146501247Y-57848571D01*
X146501247Y-57848571D02*
X146453628Y-57800952D01*
X146453628Y-57800952D02*
X146358390Y-57753333D01*
X129419819Y-58753333D02*
X130134104Y-58753333D01*
X130134104Y-58753333D02*
X130276961Y-58800952D01*
X130276961Y-58800952D02*
X130372200Y-58896190D01*
X130372200Y-58896190D02*
X130419819Y-59039047D01*
X130419819Y-59039047D02*
X130419819Y-59134285D01*
X129848390Y-58134285D02*
X129800771Y-58229523D01*
X129800771Y-58229523D02*
X129753152Y-58277142D01*
X129753152Y-58277142D02*
X129657914Y-58324761D01*
X129657914Y-58324761D02*
X129610295Y-58324761D01*
X129610295Y-58324761D02*
X129515057Y-58277142D01*
X129515057Y-58277142D02*
X129467438Y-58229523D01*
X129467438Y-58229523D02*
X129419819Y-58134285D01*
X129419819Y-58134285D02*
X129419819Y-57943809D01*
X129419819Y-57943809D02*
X129467438Y-57848571D01*
X129467438Y-57848571D02*
X129515057Y-57800952D01*
X129515057Y-57800952D02*
X129610295Y-57753333D01*
X129610295Y-57753333D02*
X129657914Y-57753333D01*
X129657914Y-57753333D02*
X129753152Y-57800952D01*
X129753152Y-57800952D02*
X129800771Y-57848571D01*
X129800771Y-57848571D02*
X129848390Y-57943809D01*
X129848390Y-57943809D02*
X129848390Y-58134285D01*
X129848390Y-58134285D02*
X129896009Y-58229523D01*
X129896009Y-58229523D02*
X129943628Y-58277142D01*
X129943628Y-58277142D02*
X130038866Y-58324761D01*
X130038866Y-58324761D02*
X130229342Y-58324761D01*
X130229342Y-58324761D02*
X130324580Y-58277142D01*
X130324580Y-58277142D02*
X130372200Y-58229523D01*
X130372200Y-58229523D02*
X130419819Y-58134285D01*
X130419819Y-58134285D02*
X130419819Y-57943809D01*
X130419819Y-57943809D02*
X130372200Y-57848571D01*
X130372200Y-57848571D02*
X130324580Y-57800952D01*
X130324580Y-57800952D02*
X130229342Y-57753333D01*
X130229342Y-57753333D02*
X130038866Y-57753333D01*
X130038866Y-57753333D02*
X129943628Y-57800952D01*
X129943628Y-57800952D02*
X129896009Y-57848571D01*
X129896009Y-57848571D02*
X129848390Y-57943809D01*
X158129505Y-56938019D02*
X158700933Y-56938019D01*
X158415219Y-57938019D02*
X158415219Y-56938019D01*
X159034267Y-57938019D02*
X159034267Y-56938019D01*
X159034267Y-56938019D02*
X159415219Y-56938019D01*
X159415219Y-56938019D02*
X159510457Y-56985638D01*
X159510457Y-56985638D02*
X159558076Y-57033257D01*
X159558076Y-57033257D02*
X159605695Y-57128495D01*
X159605695Y-57128495D02*
X159605695Y-57271352D01*
X159605695Y-57271352D02*
X159558076Y-57366590D01*
X159558076Y-57366590D02*
X159510457Y-57414209D01*
X159510457Y-57414209D02*
X159415219Y-57461828D01*
X159415219Y-57461828D02*
X159034267Y-57461828D01*
X160558076Y-57938019D02*
X159986648Y-57938019D01*
X160272362Y-57938019D02*
X160272362Y-56938019D01*
X160272362Y-56938019D02*
X160177124Y-57080876D01*
X160177124Y-57080876D02*
X160081886Y-57176114D01*
X160081886Y-57176114D02*
X159986648Y-57223733D01*
X161415219Y-56938019D02*
X161224743Y-56938019D01*
X161224743Y-56938019D02*
X161129505Y-56985638D01*
X161129505Y-56985638D02*
X161081886Y-57033257D01*
X161081886Y-57033257D02*
X160986648Y-57176114D01*
X160986648Y-57176114D02*
X160939029Y-57366590D01*
X160939029Y-57366590D02*
X160939029Y-57747542D01*
X160939029Y-57747542D02*
X160986648Y-57842780D01*
X160986648Y-57842780D02*
X161034267Y-57890400D01*
X161034267Y-57890400D02*
X161129505Y-57938019D01*
X161129505Y-57938019D02*
X161319981Y-57938019D01*
X161319981Y-57938019D02*
X161415219Y-57890400D01*
X161415219Y-57890400D02*
X161462838Y-57842780D01*
X161462838Y-57842780D02*
X161510457Y-57747542D01*
X161510457Y-57747542D02*
X161510457Y-57509447D01*
X161510457Y-57509447D02*
X161462838Y-57414209D01*
X161462838Y-57414209D02*
X161415219Y-57366590D01*
X161415219Y-57366590D02*
X161319981Y-57318971D01*
X161319981Y-57318971D02*
X161129505Y-57318971D01*
X161129505Y-57318971D02*
X161034267Y-57366590D01*
X161034267Y-57366590D02*
X160986648Y-57414209D01*
X160986648Y-57414209D02*
X160939029Y-57509447D01*
X96385142Y-91893580D02*
X96337523Y-91941200D01*
X96337523Y-91941200D02*
X96194666Y-91988819D01*
X96194666Y-91988819D02*
X96099428Y-91988819D01*
X96099428Y-91988819D02*
X95956571Y-91941200D01*
X95956571Y-91941200D02*
X95861333Y-91845961D01*
X95861333Y-91845961D02*
X95813714Y-91750723D01*
X95813714Y-91750723D02*
X95766095Y-91560247D01*
X95766095Y-91560247D02*
X95766095Y-91417390D01*
X95766095Y-91417390D02*
X95813714Y-91226914D01*
X95813714Y-91226914D02*
X95861333Y-91131676D01*
X95861333Y-91131676D02*
X95956571Y-91036438D01*
X95956571Y-91036438D02*
X96099428Y-90988819D01*
X96099428Y-90988819D02*
X96194666Y-90988819D01*
X96194666Y-90988819D02*
X96337523Y-91036438D01*
X96337523Y-91036438D02*
X96385142Y-91084057D01*
X97337523Y-91988819D02*
X96766095Y-91988819D01*
X97051809Y-91988819D02*
X97051809Y-90988819D01*
X97051809Y-90988819D02*
X96956571Y-91131676D01*
X96956571Y-91131676D02*
X96861333Y-91226914D01*
X96861333Y-91226914D02*
X96766095Y-91274533D01*
X97908952Y-91417390D02*
X97813714Y-91369771D01*
X97813714Y-91369771D02*
X97766095Y-91322152D01*
X97766095Y-91322152D02*
X97718476Y-91226914D01*
X97718476Y-91226914D02*
X97718476Y-91179295D01*
X97718476Y-91179295D02*
X97766095Y-91084057D01*
X97766095Y-91084057D02*
X97813714Y-91036438D01*
X97813714Y-91036438D02*
X97908952Y-90988819D01*
X97908952Y-90988819D02*
X98099428Y-90988819D01*
X98099428Y-90988819D02*
X98194666Y-91036438D01*
X98194666Y-91036438D02*
X98242285Y-91084057D01*
X98242285Y-91084057D02*
X98289904Y-91179295D01*
X98289904Y-91179295D02*
X98289904Y-91226914D01*
X98289904Y-91226914D02*
X98242285Y-91322152D01*
X98242285Y-91322152D02*
X98194666Y-91369771D01*
X98194666Y-91369771D02*
X98099428Y-91417390D01*
X98099428Y-91417390D02*
X97908952Y-91417390D01*
X97908952Y-91417390D02*
X97813714Y-91465009D01*
X97813714Y-91465009D02*
X97766095Y-91512628D01*
X97766095Y-91512628D02*
X97718476Y-91607866D01*
X97718476Y-91607866D02*
X97718476Y-91798342D01*
X97718476Y-91798342D02*
X97766095Y-91893580D01*
X97766095Y-91893580D02*
X97813714Y-91941200D01*
X97813714Y-91941200D02*
X97908952Y-91988819D01*
X97908952Y-91988819D02*
X98099428Y-91988819D01*
X98099428Y-91988819D02*
X98194666Y-91941200D01*
X98194666Y-91941200D02*
X98242285Y-91893580D01*
X98242285Y-91893580D02*
X98289904Y-91798342D01*
X98289904Y-91798342D02*
X98289904Y-91607866D01*
X98289904Y-91607866D02*
X98242285Y-91512628D01*
X98242285Y-91512628D02*
X98194666Y-91465009D01*
X98194666Y-91465009D02*
X98099428Y-91417390D01*
X101315095Y-67220819D02*
X101315095Y-68030342D01*
X101315095Y-68030342D02*
X101362714Y-68125580D01*
X101362714Y-68125580D02*
X101410333Y-68173200D01*
X101410333Y-68173200D02*
X101505571Y-68220819D01*
X101505571Y-68220819D02*
X101696047Y-68220819D01*
X101696047Y-68220819D02*
X101791285Y-68173200D01*
X101791285Y-68173200D02*
X101838904Y-68125580D01*
X101838904Y-68125580D02*
X101886523Y-68030342D01*
X101886523Y-68030342D02*
X101886523Y-67220819D01*
X102838904Y-67220819D02*
X102362714Y-67220819D01*
X102362714Y-67220819D02*
X102315095Y-67697009D01*
X102315095Y-67697009D02*
X102362714Y-67649390D01*
X102362714Y-67649390D02*
X102457952Y-67601771D01*
X102457952Y-67601771D02*
X102696047Y-67601771D01*
X102696047Y-67601771D02*
X102791285Y-67649390D01*
X102791285Y-67649390D02*
X102838904Y-67697009D01*
X102838904Y-67697009D02*
X102886523Y-67792247D01*
X102886523Y-67792247D02*
X102886523Y-68030342D01*
X102886523Y-68030342D02*
X102838904Y-68125580D01*
X102838904Y-68125580D02*
X102791285Y-68173200D01*
X102791285Y-68173200D02*
X102696047Y-68220819D01*
X102696047Y-68220819D02*
X102457952Y-68220819D01*
X102457952Y-68220819D02*
X102362714Y-68173200D01*
X102362714Y-68173200D02*
X102315095Y-68125580D01*
X133771819Y-71921666D02*
X133295628Y-72254999D01*
X133771819Y-72493094D02*
X132771819Y-72493094D01*
X132771819Y-72493094D02*
X132771819Y-72112142D01*
X132771819Y-72112142D02*
X132819438Y-72016904D01*
X132819438Y-72016904D02*
X132867057Y-71969285D01*
X132867057Y-71969285D02*
X132962295Y-71921666D01*
X132962295Y-71921666D02*
X133105152Y-71921666D01*
X133105152Y-71921666D02*
X133200390Y-71969285D01*
X133200390Y-71969285D02*
X133248009Y-72016904D01*
X133248009Y-72016904D02*
X133295628Y-72112142D01*
X133295628Y-72112142D02*
X133295628Y-72493094D01*
X132867057Y-71540713D02*
X132819438Y-71493094D01*
X132819438Y-71493094D02*
X132771819Y-71397856D01*
X132771819Y-71397856D02*
X132771819Y-71159761D01*
X132771819Y-71159761D02*
X132819438Y-71064523D01*
X132819438Y-71064523D02*
X132867057Y-71016904D01*
X132867057Y-71016904D02*
X132962295Y-70969285D01*
X132962295Y-70969285D02*
X133057533Y-70969285D01*
X133057533Y-70969285D02*
X133200390Y-71016904D01*
X133200390Y-71016904D02*
X133771819Y-71588332D01*
X133771819Y-71588332D02*
X133771819Y-70969285D01*
X92241905Y-78578819D02*
X92813333Y-78578819D01*
X92527619Y-79578819D02*
X92527619Y-78578819D01*
X93146667Y-79578819D02*
X93146667Y-78578819D01*
X93146667Y-78578819D02*
X93527619Y-78578819D01*
X93527619Y-78578819D02*
X93622857Y-78626438D01*
X93622857Y-78626438D02*
X93670476Y-78674057D01*
X93670476Y-78674057D02*
X93718095Y-78769295D01*
X93718095Y-78769295D02*
X93718095Y-78912152D01*
X93718095Y-78912152D02*
X93670476Y-79007390D01*
X93670476Y-79007390D02*
X93622857Y-79055009D01*
X93622857Y-79055009D02*
X93527619Y-79102628D01*
X93527619Y-79102628D02*
X93146667Y-79102628D01*
X94670476Y-79578819D02*
X94099048Y-79578819D01*
X94384762Y-79578819D02*
X94384762Y-78578819D01*
X94384762Y-78578819D02*
X94289524Y-78721676D01*
X94289524Y-78721676D02*
X94194286Y-78816914D01*
X94194286Y-78816914D02*
X94099048Y-78864533D01*
X95003810Y-78578819D02*
X95622857Y-78578819D01*
X95622857Y-78578819D02*
X95289524Y-78959771D01*
X95289524Y-78959771D02*
X95432381Y-78959771D01*
X95432381Y-78959771D02*
X95527619Y-79007390D01*
X95527619Y-79007390D02*
X95575238Y-79055009D01*
X95575238Y-79055009D02*
X95622857Y-79150247D01*
X95622857Y-79150247D02*
X95622857Y-79388342D01*
X95622857Y-79388342D02*
X95575238Y-79483580D01*
X95575238Y-79483580D02*
X95527619Y-79531200D01*
X95527619Y-79531200D02*
X95432381Y-79578819D01*
X95432381Y-79578819D02*
X95146667Y-79578819D01*
X95146667Y-79578819D02*
X95051429Y-79531200D01*
X95051429Y-79531200D02*
X95003810Y-79483580D01*
X165106819Y-102917523D02*
X165821104Y-102917523D01*
X165821104Y-102917523D02*
X165963961Y-102965142D01*
X165963961Y-102965142D02*
X166059200Y-103060380D01*
X166059200Y-103060380D02*
X166106819Y-103203237D01*
X166106819Y-103203237D02*
X166106819Y-103298475D01*
X166106819Y-101917523D02*
X166106819Y-102488951D01*
X166106819Y-102203237D02*
X165106819Y-102203237D01*
X165106819Y-102203237D02*
X165249676Y-102298475D01*
X165249676Y-102298475D02*
X165344914Y-102393713D01*
X165344914Y-102393713D02*
X165392533Y-102488951D01*
X165202057Y-101536570D02*
X165154438Y-101488951D01*
X165154438Y-101488951D02*
X165106819Y-101393713D01*
X165106819Y-101393713D02*
X165106819Y-101155618D01*
X165106819Y-101155618D02*
X165154438Y-101060380D01*
X165154438Y-101060380D02*
X165202057Y-101012761D01*
X165202057Y-101012761D02*
X165297295Y-100965142D01*
X165297295Y-100965142D02*
X165392533Y-100965142D01*
X165392533Y-100965142D02*
X165535390Y-101012761D01*
X165535390Y-101012761D02*
X166106819Y-101584189D01*
X166106819Y-101584189D02*
X166106819Y-100965142D01*
X163838133Y-57179019D02*
X163361943Y-57179019D01*
X163361943Y-57179019D02*
X163361943Y-56179019D01*
X164695276Y-57179019D02*
X164123848Y-57179019D01*
X164409562Y-57179019D02*
X164409562Y-56179019D01*
X164409562Y-56179019D02*
X164314324Y-56321876D01*
X164314324Y-56321876D02*
X164219086Y-56417114D01*
X164219086Y-56417114D02*
X164123848Y-56464733D01*
X101708045Y-82578818D02*
X101708045Y-83388341D01*
X101708045Y-83388341D02*
X101755664Y-83483579D01*
X101755664Y-83483579D02*
X101803283Y-83531199D01*
X101803283Y-83531199D02*
X101898521Y-83578818D01*
X101898521Y-83578818D02*
X102088997Y-83578818D01*
X102088997Y-83578818D02*
X102184235Y-83531199D01*
X102184235Y-83531199D02*
X102231854Y-83483579D01*
X102231854Y-83483579D02*
X102279473Y-83388341D01*
X102279473Y-83388341D02*
X102279473Y-82578818D01*
X102708045Y-82674056D02*
X102755664Y-82626437D01*
X102755664Y-82626437D02*
X102850902Y-82578818D01*
X102850902Y-82578818D02*
X103088997Y-82578818D01*
X103088997Y-82578818D02*
X103184235Y-82626437D01*
X103184235Y-82626437D02*
X103231854Y-82674056D01*
X103231854Y-82674056D02*
X103279473Y-82769294D01*
X103279473Y-82769294D02*
X103279473Y-82864532D01*
X103279473Y-82864532D02*
X103231854Y-83007389D01*
X103231854Y-83007389D02*
X102660426Y-83578818D01*
X102660426Y-83578818D02*
X103279473Y-83578818D01*
X100838000Y-79977818D02*
X100838000Y-80215913D01*
X100599905Y-80120675D02*
X100838000Y-80215913D01*
X100838000Y-80215913D02*
X101076095Y-80120675D01*
X100695143Y-80406389D02*
X100838000Y-80215913D01*
X100838000Y-80215913D02*
X100980857Y-80406389D01*
X100838000Y-79977818D02*
X100838000Y-80215913D01*
X100599905Y-80120675D02*
X100838000Y-80215913D01*
X100838000Y-80215913D02*
X101076095Y-80120675D01*
X100695143Y-80406389D02*
X100838000Y-80215913D01*
X100838000Y-80215913D02*
X100980857Y-80406389D01*
X92778342Y-76196380D02*
X92730723Y-76244000D01*
X92730723Y-76244000D02*
X92587866Y-76291619D01*
X92587866Y-76291619D02*
X92492628Y-76291619D01*
X92492628Y-76291619D02*
X92349771Y-76244000D01*
X92349771Y-76244000D02*
X92254533Y-76148761D01*
X92254533Y-76148761D02*
X92206914Y-76053523D01*
X92206914Y-76053523D02*
X92159295Y-75863047D01*
X92159295Y-75863047D02*
X92159295Y-75720190D01*
X92159295Y-75720190D02*
X92206914Y-75529714D01*
X92206914Y-75529714D02*
X92254533Y-75434476D01*
X92254533Y-75434476D02*
X92349771Y-75339238D01*
X92349771Y-75339238D02*
X92492628Y-75291619D01*
X92492628Y-75291619D02*
X92587866Y-75291619D01*
X92587866Y-75291619D02*
X92730723Y-75339238D01*
X92730723Y-75339238D02*
X92778342Y-75386857D01*
X93730723Y-76291619D02*
X93159295Y-76291619D01*
X93445009Y-76291619D02*
X93445009Y-75291619D01*
X93445009Y-75291619D02*
X93349771Y-75434476D01*
X93349771Y-75434476D02*
X93254533Y-75529714D01*
X93254533Y-75529714D02*
X93159295Y-75577333D01*
X94635485Y-75291619D02*
X94159295Y-75291619D01*
X94159295Y-75291619D02*
X94111676Y-75767809D01*
X94111676Y-75767809D02*
X94159295Y-75720190D01*
X94159295Y-75720190D02*
X94254533Y-75672571D01*
X94254533Y-75672571D02*
X94492628Y-75672571D01*
X94492628Y-75672571D02*
X94587866Y-75720190D01*
X94587866Y-75720190D02*
X94635485Y-75767809D01*
X94635485Y-75767809D02*
X94683104Y-75863047D01*
X94683104Y-75863047D02*
X94683104Y-76101142D01*
X94683104Y-76101142D02*
X94635485Y-76196380D01*
X94635485Y-76196380D02*
X94587866Y-76244000D01*
X94587866Y-76244000D02*
X94492628Y-76291619D01*
X94492628Y-76291619D02*
X94254533Y-76291619D01*
X94254533Y-76291619D02*
X94159295Y-76244000D01*
X94159295Y-76244000D02*
X94111676Y-76196380D01*
X115403333Y-72589580D02*
X115355714Y-72637200D01*
X115355714Y-72637200D02*
X115212857Y-72684819D01*
X115212857Y-72684819D02*
X115117619Y-72684819D01*
X115117619Y-72684819D02*
X114974762Y-72637200D01*
X114974762Y-72637200D02*
X114879524Y-72541961D01*
X114879524Y-72541961D02*
X114831905Y-72446723D01*
X114831905Y-72446723D02*
X114784286Y-72256247D01*
X114784286Y-72256247D02*
X114784286Y-72113390D01*
X114784286Y-72113390D02*
X114831905Y-71922914D01*
X114831905Y-71922914D02*
X114879524Y-71827676D01*
X114879524Y-71827676D02*
X114974762Y-71732438D01*
X114974762Y-71732438D02*
X115117619Y-71684819D01*
X115117619Y-71684819D02*
X115212857Y-71684819D01*
X115212857Y-71684819D02*
X115355714Y-71732438D01*
X115355714Y-71732438D02*
X115403333Y-71780057D01*
X116260476Y-71684819D02*
X116070000Y-71684819D01*
X116070000Y-71684819D02*
X115974762Y-71732438D01*
X115974762Y-71732438D02*
X115927143Y-71780057D01*
X115927143Y-71780057D02*
X115831905Y-71922914D01*
X115831905Y-71922914D02*
X115784286Y-72113390D01*
X115784286Y-72113390D02*
X115784286Y-72494342D01*
X115784286Y-72494342D02*
X115831905Y-72589580D01*
X115831905Y-72589580D02*
X115879524Y-72637200D01*
X115879524Y-72637200D02*
X115974762Y-72684819D01*
X115974762Y-72684819D02*
X116165238Y-72684819D01*
X116165238Y-72684819D02*
X116260476Y-72637200D01*
X116260476Y-72637200D02*
X116308095Y-72589580D01*
X116308095Y-72589580D02*
X116355714Y-72494342D01*
X116355714Y-72494342D02*
X116355714Y-72256247D01*
X116355714Y-72256247D02*
X116308095Y-72161009D01*
X116308095Y-72161009D02*
X116260476Y-72113390D01*
X116260476Y-72113390D02*
X116165238Y-72065771D01*
X116165238Y-72065771D02*
X115974762Y-72065771D01*
X115974762Y-72065771D02*
X115879524Y-72113390D01*
X115879524Y-72113390D02*
X115831905Y-72161009D01*
X115831905Y-72161009D02*
X115784286Y-72256247D01*
X113324819Y-89828666D02*
X112848628Y-90161999D01*
X113324819Y-90400094D02*
X112324819Y-90400094D01*
X112324819Y-90400094D02*
X112324819Y-90019142D01*
X112324819Y-90019142D02*
X112372438Y-89923904D01*
X112372438Y-89923904D02*
X112420057Y-89876285D01*
X112420057Y-89876285D02*
X112515295Y-89828666D01*
X112515295Y-89828666D02*
X112658152Y-89828666D01*
X112658152Y-89828666D02*
X112753390Y-89876285D01*
X112753390Y-89876285D02*
X112801009Y-89923904D01*
X112801009Y-89923904D02*
X112848628Y-90019142D01*
X112848628Y-90019142D02*
X112848628Y-90400094D01*
X113324819Y-88876285D02*
X113324819Y-89447713D01*
X113324819Y-89161999D02*
X112324819Y-89161999D01*
X112324819Y-89161999D02*
X112467676Y-89257237D01*
X112467676Y-89257237D02*
X112562914Y-89352475D01*
X112562914Y-89352475D02*
X112610533Y-89447713D01*
X99854142Y-62454580D02*
X99806523Y-62502200D01*
X99806523Y-62502200D02*
X99663666Y-62549819D01*
X99663666Y-62549819D02*
X99568428Y-62549819D01*
X99568428Y-62549819D02*
X99425571Y-62502200D01*
X99425571Y-62502200D02*
X99330333Y-62406961D01*
X99330333Y-62406961D02*
X99282714Y-62311723D01*
X99282714Y-62311723D02*
X99235095Y-62121247D01*
X99235095Y-62121247D02*
X99235095Y-61978390D01*
X99235095Y-61978390D02*
X99282714Y-61787914D01*
X99282714Y-61787914D02*
X99330333Y-61692676D01*
X99330333Y-61692676D02*
X99425571Y-61597438D01*
X99425571Y-61597438D02*
X99568428Y-61549819D01*
X99568428Y-61549819D02*
X99663666Y-61549819D01*
X99663666Y-61549819D02*
X99806523Y-61597438D01*
X99806523Y-61597438D02*
X99854142Y-61645057D01*
X100235095Y-61645057D02*
X100282714Y-61597438D01*
X100282714Y-61597438D02*
X100377952Y-61549819D01*
X100377952Y-61549819D02*
X100616047Y-61549819D01*
X100616047Y-61549819D02*
X100711285Y-61597438D01*
X100711285Y-61597438D02*
X100758904Y-61645057D01*
X100758904Y-61645057D02*
X100806523Y-61740295D01*
X100806523Y-61740295D02*
X100806523Y-61835533D01*
X100806523Y-61835533D02*
X100758904Y-61978390D01*
X100758904Y-61978390D02*
X100187476Y-62549819D01*
X100187476Y-62549819D02*
X100806523Y-62549819D01*
X101663666Y-61883152D02*
X101663666Y-62549819D01*
X101425571Y-61502200D02*
X101187476Y-62216485D01*
X101187476Y-62216485D02*
X101806523Y-62216485D01*
X104767142Y-76907580D02*
X104719523Y-76955200D01*
X104719523Y-76955200D02*
X104576666Y-77002819D01*
X104576666Y-77002819D02*
X104481428Y-77002819D01*
X104481428Y-77002819D02*
X104338571Y-76955200D01*
X104338571Y-76955200D02*
X104243333Y-76859961D01*
X104243333Y-76859961D02*
X104195714Y-76764723D01*
X104195714Y-76764723D02*
X104148095Y-76574247D01*
X104148095Y-76574247D02*
X104148095Y-76431390D01*
X104148095Y-76431390D02*
X104195714Y-76240914D01*
X104195714Y-76240914D02*
X104243333Y-76145676D01*
X104243333Y-76145676D02*
X104338571Y-76050438D01*
X104338571Y-76050438D02*
X104481428Y-76002819D01*
X104481428Y-76002819D02*
X104576666Y-76002819D01*
X104576666Y-76002819D02*
X104719523Y-76050438D01*
X104719523Y-76050438D02*
X104767142Y-76098057D01*
X105719523Y-77002819D02*
X105148095Y-77002819D01*
X105433809Y-77002819D02*
X105433809Y-76002819D01*
X105433809Y-76002819D02*
X105338571Y-76145676D01*
X105338571Y-76145676D02*
X105243333Y-76240914D01*
X105243333Y-76240914D02*
X105148095Y-76288533D01*
X106052857Y-76002819D02*
X106719523Y-76002819D01*
X106719523Y-76002819D02*
X106290952Y-77002819D01*
X97735580Y-83192857D02*
X97783200Y-83240476D01*
X97783200Y-83240476D02*
X97830819Y-83383333D01*
X97830819Y-83383333D02*
X97830819Y-83478571D01*
X97830819Y-83478571D02*
X97783200Y-83621428D01*
X97783200Y-83621428D02*
X97687961Y-83716666D01*
X97687961Y-83716666D02*
X97592723Y-83764285D01*
X97592723Y-83764285D02*
X97402247Y-83811904D01*
X97402247Y-83811904D02*
X97259390Y-83811904D01*
X97259390Y-83811904D02*
X97068914Y-83764285D01*
X97068914Y-83764285D02*
X96973676Y-83716666D01*
X96973676Y-83716666D02*
X96878438Y-83621428D01*
X96878438Y-83621428D02*
X96830819Y-83478571D01*
X96830819Y-83478571D02*
X96830819Y-83383333D01*
X96830819Y-83383333D02*
X96878438Y-83240476D01*
X96878438Y-83240476D02*
X96926057Y-83192857D01*
X97830819Y-82240476D02*
X97830819Y-82811904D01*
X97830819Y-82526190D02*
X96830819Y-82526190D01*
X96830819Y-82526190D02*
X96973676Y-82621428D01*
X96973676Y-82621428D02*
X97068914Y-82716666D01*
X97068914Y-82716666D02*
X97116533Y-82811904D01*
X96830819Y-81907142D02*
X96830819Y-81288095D01*
X96830819Y-81288095D02*
X97211771Y-81621428D01*
X97211771Y-81621428D02*
X97211771Y-81478571D01*
X97211771Y-81478571D02*
X97259390Y-81383333D01*
X97259390Y-81383333D02*
X97307009Y-81335714D01*
X97307009Y-81335714D02*
X97402247Y-81288095D01*
X97402247Y-81288095D02*
X97640342Y-81288095D01*
X97640342Y-81288095D02*
X97735580Y-81335714D01*
X97735580Y-81335714D02*
X97783200Y-81383333D01*
X97783200Y-81383333D02*
X97830819Y-81478571D01*
X97830819Y-81478571D02*
X97830819Y-81764285D01*
X97830819Y-81764285D02*
X97783200Y-81859523D01*
X97783200Y-81859523D02*
X97735580Y-81907142D01*
X111898895Y-84526019D02*
X112470323Y-84526019D01*
X112184609Y-85526019D02*
X112184609Y-84526019D01*
X112803657Y-85526019D02*
X112803657Y-84526019D01*
X112803657Y-84526019D02*
X113184609Y-84526019D01*
X113184609Y-84526019D02*
X113279847Y-84573638D01*
X113279847Y-84573638D02*
X113327466Y-84621257D01*
X113327466Y-84621257D02*
X113375085Y-84716495D01*
X113375085Y-84716495D02*
X113375085Y-84859352D01*
X113375085Y-84859352D02*
X113327466Y-84954590D01*
X113327466Y-84954590D02*
X113279847Y-85002209D01*
X113279847Y-85002209D02*
X113184609Y-85049828D01*
X113184609Y-85049828D02*
X112803657Y-85049828D01*
X114327466Y-85526019D02*
X113756038Y-85526019D01*
X114041752Y-85526019D02*
X114041752Y-84526019D01*
X114041752Y-84526019D02*
X113946514Y-84668876D01*
X113946514Y-84668876D02*
X113851276Y-84764114D01*
X113851276Y-84764114D02*
X113756038Y-84811733D01*
X167172819Y-97257666D02*
X166696628Y-97590999D01*
X167172819Y-97829094D02*
X166172819Y-97829094D01*
X166172819Y-97829094D02*
X166172819Y-97448142D01*
X166172819Y-97448142D02*
X166220438Y-97352904D01*
X166220438Y-97352904D02*
X166268057Y-97305285D01*
X166268057Y-97305285D02*
X166363295Y-97257666D01*
X166363295Y-97257666D02*
X166506152Y-97257666D01*
X166506152Y-97257666D02*
X166601390Y-97305285D01*
X166601390Y-97305285D02*
X166649009Y-97352904D01*
X166649009Y-97352904D02*
X166696628Y-97448142D01*
X166696628Y-97448142D02*
X166696628Y-97829094D01*
X166601390Y-96686237D02*
X166553771Y-96781475D01*
X166553771Y-96781475D02*
X166506152Y-96829094D01*
X166506152Y-96829094D02*
X166410914Y-96876713D01*
X166410914Y-96876713D02*
X166363295Y-96876713D01*
X166363295Y-96876713D02*
X166268057Y-96829094D01*
X166268057Y-96829094D02*
X166220438Y-96781475D01*
X166220438Y-96781475D02*
X166172819Y-96686237D01*
X166172819Y-96686237D02*
X166172819Y-96495761D01*
X166172819Y-96495761D02*
X166220438Y-96400523D01*
X166220438Y-96400523D02*
X166268057Y-96352904D01*
X166268057Y-96352904D02*
X166363295Y-96305285D01*
X166363295Y-96305285D02*
X166410914Y-96305285D01*
X166410914Y-96305285D02*
X166506152Y-96352904D01*
X166506152Y-96352904D02*
X166553771Y-96400523D01*
X166553771Y-96400523D02*
X166601390Y-96495761D01*
X166601390Y-96495761D02*
X166601390Y-96686237D01*
X166601390Y-96686237D02*
X166649009Y-96781475D01*
X166649009Y-96781475D02*
X166696628Y-96829094D01*
X166696628Y-96829094D02*
X166791866Y-96876713D01*
X166791866Y-96876713D02*
X166982342Y-96876713D01*
X166982342Y-96876713D02*
X167077580Y-96829094D01*
X167077580Y-96829094D02*
X167125200Y-96781475D01*
X167125200Y-96781475D02*
X167172819Y-96686237D01*
X167172819Y-96686237D02*
X167172819Y-96495761D01*
X167172819Y-96495761D02*
X167125200Y-96400523D01*
X167125200Y-96400523D02*
X167077580Y-96352904D01*
X167077580Y-96352904D02*
X166982342Y-96305285D01*
X166982342Y-96305285D02*
X166791866Y-96305285D01*
X166791866Y-96305285D02*
X166696628Y-96352904D01*
X166696628Y-96352904D02*
X166649009Y-96400523D01*
X166649009Y-96400523D02*
X166601390Y-96495761D01*
X115403333Y-71065580D02*
X115355714Y-71113200D01*
X115355714Y-71113200D02*
X115212857Y-71160819D01*
X115212857Y-71160819D02*
X115117619Y-71160819D01*
X115117619Y-71160819D02*
X114974762Y-71113200D01*
X114974762Y-71113200D02*
X114879524Y-71017961D01*
X114879524Y-71017961D02*
X114831905Y-70922723D01*
X114831905Y-70922723D02*
X114784286Y-70732247D01*
X114784286Y-70732247D02*
X114784286Y-70589390D01*
X114784286Y-70589390D02*
X114831905Y-70398914D01*
X114831905Y-70398914D02*
X114879524Y-70303676D01*
X114879524Y-70303676D02*
X114974762Y-70208438D01*
X114974762Y-70208438D02*
X115117619Y-70160819D01*
X115117619Y-70160819D02*
X115212857Y-70160819D01*
X115212857Y-70160819D02*
X115355714Y-70208438D01*
X115355714Y-70208438D02*
X115403333Y-70256057D01*
X116308095Y-70160819D02*
X115831905Y-70160819D01*
X115831905Y-70160819D02*
X115784286Y-70637009D01*
X115784286Y-70637009D02*
X115831905Y-70589390D01*
X115831905Y-70589390D02*
X115927143Y-70541771D01*
X115927143Y-70541771D02*
X116165238Y-70541771D01*
X116165238Y-70541771D02*
X116260476Y-70589390D01*
X116260476Y-70589390D02*
X116308095Y-70637009D01*
X116308095Y-70637009D02*
X116355714Y-70732247D01*
X116355714Y-70732247D02*
X116355714Y-70970342D01*
X116355714Y-70970342D02*
X116308095Y-71065580D01*
X116308095Y-71065580D02*
X116260476Y-71113200D01*
X116260476Y-71113200D02*
X116165238Y-71160819D01*
X116165238Y-71160819D02*
X115927143Y-71160819D01*
X115927143Y-71160819D02*
X115831905Y-71113200D01*
X115831905Y-71113200D02*
X115784286Y-71065580D01*
X101549295Y-93231619D02*
X101549295Y-94041142D01*
X101549295Y-94041142D02*
X101596914Y-94136380D01*
X101596914Y-94136380D02*
X101644533Y-94184000D01*
X101644533Y-94184000D02*
X101739771Y-94231619D01*
X101739771Y-94231619D02*
X101930247Y-94231619D01*
X101930247Y-94231619D02*
X102025485Y-94184000D01*
X102025485Y-94184000D02*
X102073104Y-94136380D01*
X102073104Y-94136380D02*
X102120723Y-94041142D01*
X102120723Y-94041142D02*
X102120723Y-93231619D01*
X103025485Y-93564952D02*
X103025485Y-94231619D01*
X102787390Y-93184000D02*
X102549295Y-93898285D01*
X102549295Y-93898285D02*
X103168342Y-93898285D01*
X99872800Y-90059219D02*
X99872800Y-90297314D01*
X99634705Y-90202076D02*
X99872800Y-90297314D01*
X99872800Y-90297314D02*
X100110895Y-90202076D01*
X99729943Y-90487790D02*
X99872800Y-90297314D01*
X99872800Y-90297314D02*
X100015657Y-90487790D01*
X99872800Y-90059219D02*
X99872800Y-90297314D01*
X99634705Y-90202076D02*
X99872800Y-90297314D01*
X99872800Y-90297314D02*
X100110895Y-90202076D01*
X99729943Y-90487790D02*
X99872800Y-90297314D01*
X99872800Y-90297314D02*
X100015657Y-90487790D01*
X139311142Y-65086380D02*
X139263523Y-65134000D01*
X139263523Y-65134000D02*
X139120666Y-65181619D01*
X139120666Y-65181619D02*
X139025428Y-65181619D01*
X139025428Y-65181619D02*
X138882571Y-65134000D01*
X138882571Y-65134000D02*
X138787333Y-65038761D01*
X138787333Y-65038761D02*
X138739714Y-64943523D01*
X138739714Y-64943523D02*
X138692095Y-64753047D01*
X138692095Y-64753047D02*
X138692095Y-64610190D01*
X138692095Y-64610190D02*
X138739714Y-64419714D01*
X138739714Y-64419714D02*
X138787333Y-64324476D01*
X138787333Y-64324476D02*
X138882571Y-64229238D01*
X138882571Y-64229238D02*
X139025428Y-64181619D01*
X139025428Y-64181619D02*
X139120666Y-64181619D01*
X139120666Y-64181619D02*
X139263523Y-64229238D01*
X139263523Y-64229238D02*
X139311142Y-64276857D01*
X139692095Y-64276857D02*
X139739714Y-64229238D01*
X139739714Y-64229238D02*
X139834952Y-64181619D01*
X139834952Y-64181619D02*
X140073047Y-64181619D01*
X140073047Y-64181619D02*
X140168285Y-64229238D01*
X140168285Y-64229238D02*
X140215904Y-64276857D01*
X140215904Y-64276857D02*
X140263523Y-64372095D01*
X140263523Y-64372095D02*
X140263523Y-64467333D01*
X140263523Y-64467333D02*
X140215904Y-64610190D01*
X140215904Y-64610190D02*
X139644476Y-65181619D01*
X139644476Y-65181619D02*
X140263523Y-65181619D01*
X140739714Y-65181619D02*
X140930190Y-65181619D01*
X140930190Y-65181619D02*
X141025428Y-65134000D01*
X141025428Y-65134000D02*
X141073047Y-65086380D01*
X141073047Y-65086380D02*
X141168285Y-64943523D01*
X141168285Y-64943523D02*
X141215904Y-64753047D01*
X141215904Y-64753047D02*
X141215904Y-64372095D01*
X141215904Y-64372095D02*
X141168285Y-64276857D01*
X141168285Y-64276857D02*
X141120666Y-64229238D01*
X141120666Y-64229238D02*
X141025428Y-64181619D01*
X141025428Y-64181619D02*
X140834952Y-64181619D01*
X140834952Y-64181619D02*
X140739714Y-64229238D01*
X140739714Y-64229238D02*
X140692095Y-64276857D01*
X140692095Y-64276857D02*
X140644476Y-64372095D01*
X140644476Y-64372095D02*
X140644476Y-64610190D01*
X140644476Y-64610190D02*
X140692095Y-64705428D01*
X140692095Y-64705428D02*
X140739714Y-64753047D01*
X140739714Y-64753047D02*
X140834952Y-64800666D01*
X140834952Y-64800666D02*
X141025428Y-64800666D01*
X141025428Y-64800666D02*
X141120666Y-64753047D01*
X141120666Y-64753047D02*
X141168285Y-64705428D01*
X141168285Y-64705428D02*
X141215904Y-64610190D01*
X140994219Y-70252694D02*
X139994219Y-70252694D01*
X139994219Y-70252694D02*
X139994219Y-70014599D01*
X139994219Y-70014599D02*
X140041838Y-69871742D01*
X140041838Y-69871742D02*
X140137076Y-69776504D01*
X140137076Y-69776504D02*
X140232314Y-69728885D01*
X140232314Y-69728885D02*
X140422790Y-69681266D01*
X140422790Y-69681266D02*
X140565647Y-69681266D01*
X140565647Y-69681266D02*
X140756123Y-69728885D01*
X140756123Y-69728885D02*
X140851361Y-69776504D01*
X140851361Y-69776504D02*
X140946600Y-69871742D01*
X140946600Y-69871742D02*
X140994219Y-70014599D01*
X140994219Y-70014599D02*
X140994219Y-70252694D01*
X140994219Y-68728885D02*
X140994219Y-69300313D01*
X140994219Y-69014599D02*
X139994219Y-69014599D01*
X139994219Y-69014599D02*
X140137076Y-69109837D01*
X140137076Y-69109837D02*
X140232314Y-69205075D01*
X140232314Y-69205075D02*
X140279933Y-69300313D01*
X169204819Y-97530657D02*
X168728628Y-97863990D01*
X169204819Y-98102085D02*
X168204819Y-98102085D01*
X168204819Y-98102085D02*
X168204819Y-97721133D01*
X168204819Y-97721133D02*
X168252438Y-97625895D01*
X168252438Y-97625895D02*
X168300057Y-97578276D01*
X168300057Y-97578276D02*
X168395295Y-97530657D01*
X168395295Y-97530657D02*
X168538152Y-97530657D01*
X168538152Y-97530657D02*
X168633390Y-97578276D01*
X168633390Y-97578276D02*
X168681009Y-97625895D01*
X168681009Y-97625895D02*
X168728628Y-97721133D01*
X168728628Y-97721133D02*
X168728628Y-98102085D01*
X169204819Y-96578276D02*
X169204819Y-97149704D01*
X169204819Y-96863990D02*
X168204819Y-96863990D01*
X168204819Y-96863990D02*
X168347676Y-96959228D01*
X168347676Y-96959228D02*
X168442914Y-97054466D01*
X168442914Y-97054466D02*
X168490533Y-97149704D01*
X168204819Y-95959228D02*
X168204819Y-95863990D01*
X168204819Y-95863990D02*
X168252438Y-95768752D01*
X168252438Y-95768752D02*
X168300057Y-95721133D01*
X168300057Y-95721133D02*
X168395295Y-95673514D01*
X168395295Y-95673514D02*
X168585771Y-95625895D01*
X168585771Y-95625895D02*
X168823866Y-95625895D01*
X168823866Y-95625895D02*
X169014342Y-95673514D01*
X169014342Y-95673514D02*
X169109580Y-95721133D01*
X169109580Y-95721133D02*
X169157200Y-95768752D01*
X169157200Y-95768752D02*
X169204819Y-95863990D01*
X169204819Y-95863990D02*
X169204819Y-95959228D01*
X169204819Y-95959228D02*
X169157200Y-96054466D01*
X169157200Y-96054466D02*
X169109580Y-96102085D01*
X169109580Y-96102085D02*
X169014342Y-96149704D01*
X169014342Y-96149704D02*
X168823866Y-96197323D01*
X168823866Y-96197323D02*
X168585771Y-96197323D01*
X168585771Y-96197323D02*
X168395295Y-96149704D01*
X168395295Y-96149704D02*
X168300057Y-96102085D01*
X168300057Y-96102085D02*
X168252438Y-96054466D01*
X168252438Y-96054466D02*
X168204819Y-95959228D01*
X170826580Y-59520057D02*
X170874200Y-59567676D01*
X170874200Y-59567676D02*
X170921819Y-59710533D01*
X170921819Y-59710533D02*
X170921819Y-59805771D01*
X170921819Y-59805771D02*
X170874200Y-59948628D01*
X170874200Y-59948628D02*
X170778961Y-60043866D01*
X170778961Y-60043866D02*
X170683723Y-60091485D01*
X170683723Y-60091485D02*
X170493247Y-60139104D01*
X170493247Y-60139104D02*
X170350390Y-60139104D01*
X170350390Y-60139104D02*
X170159914Y-60091485D01*
X170159914Y-60091485D02*
X170064676Y-60043866D01*
X170064676Y-60043866D02*
X169969438Y-59948628D01*
X169969438Y-59948628D02*
X169921819Y-59805771D01*
X169921819Y-59805771D02*
X169921819Y-59710533D01*
X169921819Y-59710533D02*
X169969438Y-59567676D01*
X169969438Y-59567676D02*
X170017057Y-59520057D01*
X170017057Y-59139104D02*
X169969438Y-59091485D01*
X169969438Y-59091485D02*
X169921819Y-58996247D01*
X169921819Y-58996247D02*
X169921819Y-58758152D01*
X169921819Y-58758152D02*
X169969438Y-58662914D01*
X169969438Y-58662914D02*
X170017057Y-58615295D01*
X170017057Y-58615295D02*
X170112295Y-58567676D01*
X170112295Y-58567676D02*
X170207533Y-58567676D01*
X170207533Y-58567676D02*
X170350390Y-58615295D01*
X170350390Y-58615295D02*
X170921819Y-59186723D01*
X170921819Y-59186723D02*
X170921819Y-58567676D01*
X169921819Y-57710533D02*
X169921819Y-57901009D01*
X169921819Y-57901009D02*
X169969438Y-57996247D01*
X169969438Y-57996247D02*
X170017057Y-58043866D01*
X170017057Y-58043866D02*
X170159914Y-58139104D01*
X170159914Y-58139104D02*
X170350390Y-58186723D01*
X170350390Y-58186723D02*
X170731342Y-58186723D01*
X170731342Y-58186723D02*
X170826580Y-58139104D01*
X170826580Y-58139104D02*
X170874200Y-58091485D01*
X170874200Y-58091485D02*
X170921819Y-57996247D01*
X170921819Y-57996247D02*
X170921819Y-57805771D01*
X170921819Y-57805771D02*
X170874200Y-57710533D01*
X170874200Y-57710533D02*
X170826580Y-57662914D01*
X170826580Y-57662914D02*
X170731342Y-57615295D01*
X170731342Y-57615295D02*
X170493247Y-57615295D01*
X170493247Y-57615295D02*
X170398009Y-57662914D01*
X170398009Y-57662914D02*
X170350390Y-57710533D01*
X170350390Y-57710533D02*
X170302771Y-57805771D01*
X170302771Y-57805771D02*
X170302771Y-57996247D01*
X170302771Y-57996247D02*
X170350390Y-58091485D01*
X170350390Y-58091485D02*
X170398009Y-58139104D01*
X170398009Y-58139104D02*
X170493247Y-58186723D01*
X105355580Y-83700857D02*
X105403200Y-83748476D01*
X105403200Y-83748476D02*
X105450819Y-83891333D01*
X105450819Y-83891333D02*
X105450819Y-83986571D01*
X105450819Y-83986571D02*
X105403200Y-84129428D01*
X105403200Y-84129428D02*
X105307961Y-84224666D01*
X105307961Y-84224666D02*
X105212723Y-84272285D01*
X105212723Y-84272285D02*
X105022247Y-84319904D01*
X105022247Y-84319904D02*
X104879390Y-84319904D01*
X104879390Y-84319904D02*
X104688914Y-84272285D01*
X104688914Y-84272285D02*
X104593676Y-84224666D01*
X104593676Y-84224666D02*
X104498438Y-84129428D01*
X104498438Y-84129428D02*
X104450819Y-83986571D01*
X104450819Y-83986571D02*
X104450819Y-83891333D01*
X104450819Y-83891333D02*
X104498438Y-83748476D01*
X104498438Y-83748476D02*
X104546057Y-83700857D01*
X105450819Y-82748476D02*
X105450819Y-83319904D01*
X105450819Y-83034190D02*
X104450819Y-83034190D01*
X104450819Y-83034190D02*
X104593676Y-83129428D01*
X104593676Y-83129428D02*
X104688914Y-83224666D01*
X104688914Y-83224666D02*
X104736533Y-83319904D01*
X104450819Y-81891333D02*
X104450819Y-82081809D01*
X104450819Y-82081809D02*
X104498438Y-82177047D01*
X104498438Y-82177047D02*
X104546057Y-82224666D01*
X104546057Y-82224666D02*
X104688914Y-82319904D01*
X104688914Y-82319904D02*
X104879390Y-82367523D01*
X104879390Y-82367523D02*
X105260342Y-82367523D01*
X105260342Y-82367523D02*
X105355580Y-82319904D01*
X105355580Y-82319904D02*
X105403200Y-82272285D01*
X105403200Y-82272285D02*
X105450819Y-82177047D01*
X105450819Y-82177047D02*
X105450819Y-81986571D01*
X105450819Y-81986571D02*
X105403200Y-81891333D01*
X105403200Y-81891333D02*
X105355580Y-81843714D01*
X105355580Y-81843714D02*
X105260342Y-81796095D01*
X105260342Y-81796095D02*
X105022247Y-81796095D01*
X105022247Y-81796095D02*
X104927009Y-81843714D01*
X104927009Y-81843714D02*
X104879390Y-81891333D01*
X104879390Y-81891333D02*
X104831771Y-81986571D01*
X104831771Y-81986571D02*
X104831771Y-82177047D01*
X104831771Y-82177047D02*
X104879390Y-82272285D01*
X104879390Y-82272285D02*
X104927009Y-82319904D01*
X104927009Y-82319904D02*
X105022247Y-82367523D01*
X109273580Y-82462666D02*
X109321200Y-82510285D01*
X109321200Y-82510285D02*
X109368819Y-82653142D01*
X109368819Y-82653142D02*
X109368819Y-82748380D01*
X109368819Y-82748380D02*
X109321200Y-82891237D01*
X109321200Y-82891237D02*
X109225961Y-82986475D01*
X109225961Y-82986475D02*
X109130723Y-83034094D01*
X109130723Y-83034094D02*
X108940247Y-83081713D01*
X108940247Y-83081713D02*
X108797390Y-83081713D01*
X108797390Y-83081713D02*
X108606914Y-83034094D01*
X108606914Y-83034094D02*
X108511676Y-82986475D01*
X108511676Y-82986475D02*
X108416438Y-82891237D01*
X108416438Y-82891237D02*
X108368819Y-82748380D01*
X108368819Y-82748380D02*
X108368819Y-82653142D01*
X108368819Y-82653142D02*
X108416438Y-82510285D01*
X108416438Y-82510285D02*
X108464057Y-82462666D01*
X108464057Y-82081713D02*
X108416438Y-82034094D01*
X108416438Y-82034094D02*
X108368819Y-81938856D01*
X108368819Y-81938856D02*
X108368819Y-81700761D01*
X108368819Y-81700761D02*
X108416438Y-81605523D01*
X108416438Y-81605523D02*
X108464057Y-81557904D01*
X108464057Y-81557904D02*
X108559295Y-81510285D01*
X108559295Y-81510285D02*
X108654533Y-81510285D01*
X108654533Y-81510285D02*
X108797390Y-81557904D01*
X108797390Y-81557904D02*
X109368819Y-82129332D01*
X109368819Y-82129332D02*
X109368819Y-81510285D01*
X135454580Y-74162857D02*
X135502200Y-74210476D01*
X135502200Y-74210476D02*
X135549819Y-74353333D01*
X135549819Y-74353333D02*
X135549819Y-74448571D01*
X135549819Y-74448571D02*
X135502200Y-74591428D01*
X135502200Y-74591428D02*
X135406961Y-74686666D01*
X135406961Y-74686666D02*
X135311723Y-74734285D01*
X135311723Y-74734285D02*
X135121247Y-74781904D01*
X135121247Y-74781904D02*
X134978390Y-74781904D01*
X134978390Y-74781904D02*
X134787914Y-74734285D01*
X134787914Y-74734285D02*
X134692676Y-74686666D01*
X134692676Y-74686666D02*
X134597438Y-74591428D01*
X134597438Y-74591428D02*
X134549819Y-74448571D01*
X134549819Y-74448571D02*
X134549819Y-74353333D01*
X134549819Y-74353333D02*
X134597438Y-74210476D01*
X134597438Y-74210476D02*
X134645057Y-74162857D01*
X135549819Y-73210476D02*
X135549819Y-73781904D01*
X135549819Y-73496190D02*
X134549819Y-73496190D01*
X134549819Y-73496190D02*
X134692676Y-73591428D01*
X134692676Y-73591428D02*
X134787914Y-73686666D01*
X134787914Y-73686666D02*
X134835533Y-73781904D01*
X135549819Y-72258095D02*
X135549819Y-72829523D01*
X135549819Y-72543809D02*
X134549819Y-72543809D01*
X134549819Y-72543809D02*
X134692676Y-72639047D01*
X134692676Y-72639047D02*
X134787914Y-72734285D01*
X134787914Y-72734285D02*
X134835533Y-72829523D01*
X92791342Y-74418380D02*
X92743723Y-74466000D01*
X92743723Y-74466000D02*
X92600866Y-74513619D01*
X92600866Y-74513619D02*
X92505628Y-74513619D01*
X92505628Y-74513619D02*
X92362771Y-74466000D01*
X92362771Y-74466000D02*
X92267533Y-74370761D01*
X92267533Y-74370761D02*
X92219914Y-74275523D01*
X92219914Y-74275523D02*
X92172295Y-74085047D01*
X92172295Y-74085047D02*
X92172295Y-73942190D01*
X92172295Y-73942190D02*
X92219914Y-73751714D01*
X92219914Y-73751714D02*
X92267533Y-73656476D01*
X92267533Y-73656476D02*
X92362771Y-73561238D01*
X92362771Y-73561238D02*
X92505628Y-73513619D01*
X92505628Y-73513619D02*
X92600866Y-73513619D01*
X92600866Y-73513619D02*
X92743723Y-73561238D01*
X92743723Y-73561238D02*
X92791342Y-73608857D01*
X93743723Y-74513619D02*
X93172295Y-74513619D01*
X93458009Y-74513619D02*
X93458009Y-73513619D01*
X93458009Y-73513619D02*
X93362771Y-73656476D01*
X93362771Y-73656476D02*
X93267533Y-73751714D01*
X93267533Y-73751714D02*
X93172295Y-73799333D01*
X94600866Y-73846952D02*
X94600866Y-74513619D01*
X94362771Y-73466000D02*
X94124676Y-74180285D01*
X94124676Y-74180285D02*
X94743723Y-74180285D01*
X168068666Y-77129819D02*
X168068666Y-77844104D01*
X168068666Y-77844104D02*
X168021047Y-77986961D01*
X168021047Y-77986961D02*
X167925809Y-78082200D01*
X167925809Y-78082200D02*
X167782952Y-78129819D01*
X167782952Y-78129819D02*
X167687714Y-78129819D01*
X168973428Y-77129819D02*
X168782952Y-77129819D01*
X168782952Y-77129819D02*
X168687714Y-77177438D01*
X168687714Y-77177438D02*
X168640095Y-77225057D01*
X168640095Y-77225057D02*
X168544857Y-77367914D01*
X168544857Y-77367914D02*
X168497238Y-77558390D01*
X168497238Y-77558390D02*
X168497238Y-77939342D01*
X168497238Y-77939342D02*
X168544857Y-78034580D01*
X168544857Y-78034580D02*
X168592476Y-78082200D01*
X168592476Y-78082200D02*
X168687714Y-78129819D01*
X168687714Y-78129819D02*
X168878190Y-78129819D01*
X168878190Y-78129819D02*
X168973428Y-78082200D01*
X168973428Y-78082200D02*
X169021047Y-78034580D01*
X169021047Y-78034580D02*
X169068666Y-77939342D01*
X169068666Y-77939342D02*
X169068666Y-77701247D01*
X169068666Y-77701247D02*
X169021047Y-77606009D01*
X169021047Y-77606009D02*
X168973428Y-77558390D01*
X168973428Y-77558390D02*
X168878190Y-77510771D01*
X168878190Y-77510771D02*
X168687714Y-77510771D01*
X168687714Y-77510771D02*
X168592476Y-77558390D01*
X168592476Y-77558390D02*
X168544857Y-77606009D01*
X168544857Y-77606009D02*
X168497238Y-77701247D01*
X139336542Y-63587780D02*
X139288923Y-63635400D01*
X139288923Y-63635400D02*
X139146066Y-63683019D01*
X139146066Y-63683019D02*
X139050828Y-63683019D01*
X139050828Y-63683019D02*
X138907971Y-63635400D01*
X138907971Y-63635400D02*
X138812733Y-63540161D01*
X138812733Y-63540161D02*
X138765114Y-63444923D01*
X138765114Y-63444923D02*
X138717495Y-63254447D01*
X138717495Y-63254447D02*
X138717495Y-63111590D01*
X138717495Y-63111590D02*
X138765114Y-62921114D01*
X138765114Y-62921114D02*
X138812733Y-62825876D01*
X138812733Y-62825876D02*
X138907971Y-62730638D01*
X138907971Y-62730638D02*
X139050828Y-62683019D01*
X139050828Y-62683019D02*
X139146066Y-62683019D01*
X139146066Y-62683019D02*
X139288923Y-62730638D01*
X139288923Y-62730638D02*
X139336542Y-62778257D01*
X139717495Y-62778257D02*
X139765114Y-62730638D01*
X139765114Y-62730638D02*
X139860352Y-62683019D01*
X139860352Y-62683019D02*
X140098447Y-62683019D01*
X140098447Y-62683019D02*
X140193685Y-62730638D01*
X140193685Y-62730638D02*
X140241304Y-62778257D01*
X140241304Y-62778257D02*
X140288923Y-62873495D01*
X140288923Y-62873495D02*
X140288923Y-62968733D01*
X140288923Y-62968733D02*
X140241304Y-63111590D01*
X140241304Y-63111590D02*
X139669876Y-63683019D01*
X139669876Y-63683019D02*
X140288923Y-63683019D01*
X140860352Y-63111590D02*
X140765114Y-63063971D01*
X140765114Y-63063971D02*
X140717495Y-63016352D01*
X140717495Y-63016352D02*
X140669876Y-62921114D01*
X140669876Y-62921114D02*
X140669876Y-62873495D01*
X140669876Y-62873495D02*
X140717495Y-62778257D01*
X140717495Y-62778257D02*
X140765114Y-62730638D01*
X140765114Y-62730638D02*
X140860352Y-62683019D01*
X140860352Y-62683019D02*
X141050828Y-62683019D01*
X141050828Y-62683019D02*
X141146066Y-62730638D01*
X141146066Y-62730638D02*
X141193685Y-62778257D01*
X141193685Y-62778257D02*
X141241304Y-62873495D01*
X141241304Y-62873495D02*
X141241304Y-62921114D01*
X141241304Y-62921114D02*
X141193685Y-63016352D01*
X141193685Y-63016352D02*
X141146066Y-63063971D01*
X141146066Y-63063971D02*
X141050828Y-63111590D01*
X141050828Y-63111590D02*
X140860352Y-63111590D01*
X140860352Y-63111590D02*
X140765114Y-63159209D01*
X140765114Y-63159209D02*
X140717495Y-63206828D01*
X140717495Y-63206828D02*
X140669876Y-63302066D01*
X140669876Y-63302066D02*
X140669876Y-63492542D01*
X140669876Y-63492542D02*
X140717495Y-63587780D01*
X140717495Y-63587780D02*
X140765114Y-63635400D01*
X140765114Y-63635400D02*
X140860352Y-63683019D01*
X140860352Y-63683019D02*
X141050828Y-63683019D01*
X141050828Y-63683019D02*
X141146066Y-63635400D01*
X141146066Y-63635400D02*
X141193685Y-63587780D01*
X141193685Y-63587780D02*
X141241304Y-63492542D01*
X141241304Y-63492542D02*
X141241304Y-63302066D01*
X141241304Y-63302066D02*
X141193685Y-63206828D01*
X141193685Y-63206828D02*
X141146066Y-63159209D01*
X141146066Y-63159209D02*
X141050828Y-63111590D01*
X126988780Y-82833657D02*
X127036400Y-82881276D01*
X127036400Y-82881276D02*
X127084019Y-83024133D01*
X127084019Y-83024133D02*
X127084019Y-83119371D01*
X127084019Y-83119371D02*
X127036400Y-83262228D01*
X127036400Y-83262228D02*
X126941161Y-83357466D01*
X126941161Y-83357466D02*
X126845923Y-83405085D01*
X126845923Y-83405085D02*
X126655447Y-83452704D01*
X126655447Y-83452704D02*
X126512590Y-83452704D01*
X126512590Y-83452704D02*
X126322114Y-83405085D01*
X126322114Y-83405085D02*
X126226876Y-83357466D01*
X126226876Y-83357466D02*
X126131638Y-83262228D01*
X126131638Y-83262228D02*
X126084019Y-83119371D01*
X126084019Y-83119371D02*
X126084019Y-83024133D01*
X126084019Y-83024133D02*
X126131638Y-82881276D01*
X126131638Y-82881276D02*
X126179257Y-82833657D01*
X127084019Y-81881276D02*
X127084019Y-82452704D01*
X127084019Y-82166990D02*
X126084019Y-82166990D01*
X126084019Y-82166990D02*
X126226876Y-82262228D01*
X126226876Y-82262228D02*
X126322114Y-82357466D01*
X126322114Y-82357466D02*
X126369733Y-82452704D01*
X126084019Y-81262228D02*
X126084019Y-81166990D01*
X126084019Y-81166990D02*
X126131638Y-81071752D01*
X126131638Y-81071752D02*
X126179257Y-81024133D01*
X126179257Y-81024133D02*
X126274495Y-80976514D01*
X126274495Y-80976514D02*
X126464971Y-80928895D01*
X126464971Y-80928895D02*
X126703066Y-80928895D01*
X126703066Y-80928895D02*
X126893542Y-80976514D01*
X126893542Y-80976514D02*
X126988780Y-81024133D01*
X126988780Y-81024133D02*
X127036400Y-81071752D01*
X127036400Y-81071752D02*
X127084019Y-81166990D01*
X127084019Y-81166990D02*
X127084019Y-81262228D01*
X127084019Y-81262228D02*
X127036400Y-81357466D01*
X127036400Y-81357466D02*
X126988780Y-81405085D01*
X126988780Y-81405085D02*
X126893542Y-81452704D01*
X126893542Y-81452704D02*
X126703066Y-81500323D01*
X126703066Y-81500323D02*
X126464971Y-81500323D01*
X126464971Y-81500323D02*
X126274495Y-81452704D01*
X126274495Y-81452704D02*
X126179257Y-81405085D01*
X126179257Y-81405085D02*
X126131638Y-81357466D01*
X126131638Y-81357466D02*
X126084019Y-81262228D01*
X107481905Y-84166819D02*
X108053333Y-84166819D01*
X107767619Y-85166819D02*
X107767619Y-84166819D01*
X108386667Y-85166819D02*
X108386667Y-84166819D01*
X108386667Y-84166819D02*
X108767619Y-84166819D01*
X108767619Y-84166819D02*
X108862857Y-84214438D01*
X108862857Y-84214438D02*
X108910476Y-84262057D01*
X108910476Y-84262057D02*
X108958095Y-84357295D01*
X108958095Y-84357295D02*
X108958095Y-84500152D01*
X108958095Y-84500152D02*
X108910476Y-84595390D01*
X108910476Y-84595390D02*
X108862857Y-84643009D01*
X108862857Y-84643009D02*
X108767619Y-84690628D01*
X108767619Y-84690628D02*
X108386667Y-84690628D01*
X109910476Y-85166819D02*
X109339048Y-85166819D01*
X109624762Y-85166819D02*
X109624762Y-84166819D01*
X109624762Y-84166819D02*
X109529524Y-84309676D01*
X109529524Y-84309676D02*
X109434286Y-84404914D01*
X109434286Y-84404914D02*
X109339048Y-84452533D01*
X110291429Y-84262057D02*
X110339048Y-84214438D01*
X110339048Y-84214438D02*
X110434286Y-84166819D01*
X110434286Y-84166819D02*
X110672381Y-84166819D01*
X110672381Y-84166819D02*
X110767619Y-84214438D01*
X110767619Y-84214438D02*
X110815238Y-84262057D01*
X110815238Y-84262057D02*
X110862857Y-84357295D01*
X110862857Y-84357295D02*
X110862857Y-84452533D01*
X110862857Y-84452533D02*
X110815238Y-84595390D01*
X110815238Y-84595390D02*
X110243810Y-85166819D01*
X110243810Y-85166819D02*
X110862857Y-85166819D01*
X96131142Y-93671580D02*
X96083523Y-93719200D01*
X96083523Y-93719200D02*
X95940666Y-93766819D01*
X95940666Y-93766819D02*
X95845428Y-93766819D01*
X95845428Y-93766819D02*
X95702571Y-93719200D01*
X95702571Y-93719200D02*
X95607333Y-93623961D01*
X95607333Y-93623961D02*
X95559714Y-93528723D01*
X95559714Y-93528723D02*
X95512095Y-93338247D01*
X95512095Y-93338247D02*
X95512095Y-93195390D01*
X95512095Y-93195390D02*
X95559714Y-93004914D01*
X95559714Y-93004914D02*
X95607333Y-92909676D01*
X95607333Y-92909676D02*
X95702571Y-92814438D01*
X95702571Y-92814438D02*
X95845428Y-92766819D01*
X95845428Y-92766819D02*
X95940666Y-92766819D01*
X95940666Y-92766819D02*
X96083523Y-92814438D01*
X96083523Y-92814438D02*
X96131142Y-92862057D01*
X97083523Y-93766819D02*
X96512095Y-93766819D01*
X96797809Y-93766819D02*
X96797809Y-92766819D01*
X96797809Y-92766819D02*
X96702571Y-92909676D01*
X96702571Y-92909676D02*
X96607333Y-93004914D01*
X96607333Y-93004914D02*
X96512095Y-93052533D01*
X97559714Y-93766819D02*
X97750190Y-93766819D01*
X97750190Y-93766819D02*
X97845428Y-93719200D01*
X97845428Y-93719200D02*
X97893047Y-93671580D01*
X97893047Y-93671580D02*
X97988285Y-93528723D01*
X97988285Y-93528723D02*
X98035904Y-93338247D01*
X98035904Y-93338247D02*
X98035904Y-92957295D01*
X98035904Y-92957295D02*
X97988285Y-92862057D01*
X97988285Y-92862057D02*
X97940666Y-92814438D01*
X97940666Y-92814438D02*
X97845428Y-92766819D01*
X97845428Y-92766819D02*
X97654952Y-92766819D01*
X97654952Y-92766819D02*
X97559714Y-92814438D01*
X97559714Y-92814438D02*
X97512095Y-92862057D01*
X97512095Y-92862057D02*
X97464476Y-92957295D01*
X97464476Y-92957295D02*
X97464476Y-93195390D01*
X97464476Y-93195390D02*
X97512095Y-93290628D01*
X97512095Y-93290628D02*
X97559714Y-93338247D01*
X97559714Y-93338247D02*
X97654952Y-93385866D01*
X97654952Y-93385866D02*
X97845428Y-93385866D01*
X97845428Y-93385866D02*
X97940666Y-93338247D01*
X97940666Y-93338247D02*
X97988285Y-93290628D01*
X97988285Y-93290628D02*
X98035904Y-93195390D01*
X108323142Y-94433580D02*
X108275523Y-94481200D01*
X108275523Y-94481200D02*
X108132666Y-94528819D01*
X108132666Y-94528819D02*
X108037428Y-94528819D01*
X108037428Y-94528819D02*
X107894571Y-94481200D01*
X107894571Y-94481200D02*
X107799333Y-94385961D01*
X107799333Y-94385961D02*
X107751714Y-94290723D01*
X107751714Y-94290723D02*
X107704095Y-94100247D01*
X107704095Y-94100247D02*
X107704095Y-93957390D01*
X107704095Y-93957390D02*
X107751714Y-93766914D01*
X107751714Y-93766914D02*
X107799333Y-93671676D01*
X107799333Y-93671676D02*
X107894571Y-93576438D01*
X107894571Y-93576438D02*
X108037428Y-93528819D01*
X108037428Y-93528819D02*
X108132666Y-93528819D01*
X108132666Y-93528819D02*
X108275523Y-93576438D01*
X108275523Y-93576438D02*
X108323142Y-93624057D01*
X108704095Y-93624057D02*
X108751714Y-93576438D01*
X108751714Y-93576438D02*
X108846952Y-93528819D01*
X108846952Y-93528819D02*
X109085047Y-93528819D01*
X109085047Y-93528819D02*
X109180285Y-93576438D01*
X109180285Y-93576438D02*
X109227904Y-93624057D01*
X109227904Y-93624057D02*
X109275523Y-93719295D01*
X109275523Y-93719295D02*
X109275523Y-93814533D01*
X109275523Y-93814533D02*
X109227904Y-93957390D01*
X109227904Y-93957390D02*
X108656476Y-94528819D01*
X108656476Y-94528819D02*
X109275523Y-94528819D01*
X110227904Y-94528819D02*
X109656476Y-94528819D01*
X109942190Y-94528819D02*
X109942190Y-93528819D01*
X109942190Y-93528819D02*
X109846952Y-93671676D01*
X109846952Y-93671676D02*
X109751714Y-93766914D01*
X109751714Y-93766914D02*
X109656476Y-93814533D01*
X169023180Y-59494657D02*
X169070800Y-59542276D01*
X169070800Y-59542276D02*
X169118419Y-59685133D01*
X169118419Y-59685133D02*
X169118419Y-59780371D01*
X169118419Y-59780371D02*
X169070800Y-59923228D01*
X169070800Y-59923228D02*
X168975561Y-60018466D01*
X168975561Y-60018466D02*
X168880323Y-60066085D01*
X168880323Y-60066085D02*
X168689847Y-60113704D01*
X168689847Y-60113704D02*
X168546990Y-60113704D01*
X168546990Y-60113704D02*
X168356514Y-60066085D01*
X168356514Y-60066085D02*
X168261276Y-60018466D01*
X168261276Y-60018466D02*
X168166038Y-59923228D01*
X168166038Y-59923228D02*
X168118419Y-59780371D01*
X168118419Y-59780371D02*
X168118419Y-59685133D01*
X168118419Y-59685133D02*
X168166038Y-59542276D01*
X168166038Y-59542276D02*
X168213657Y-59494657D01*
X168213657Y-59113704D02*
X168166038Y-59066085D01*
X168166038Y-59066085D02*
X168118419Y-58970847D01*
X168118419Y-58970847D02*
X168118419Y-58732752D01*
X168118419Y-58732752D02*
X168166038Y-58637514D01*
X168166038Y-58637514D02*
X168213657Y-58589895D01*
X168213657Y-58589895D02*
X168308895Y-58542276D01*
X168308895Y-58542276D02*
X168404133Y-58542276D01*
X168404133Y-58542276D02*
X168546990Y-58589895D01*
X168546990Y-58589895D02*
X169118419Y-59161323D01*
X169118419Y-59161323D02*
X169118419Y-58542276D01*
X168118419Y-58208942D02*
X168118419Y-57542276D01*
X168118419Y-57542276D02*
X169118419Y-57970847D01*
X97235819Y-64641666D02*
X96759628Y-64974999D01*
X97235819Y-65213094D02*
X96235819Y-65213094D01*
X96235819Y-65213094D02*
X96235819Y-64832142D01*
X96235819Y-64832142D02*
X96283438Y-64736904D01*
X96283438Y-64736904D02*
X96331057Y-64689285D01*
X96331057Y-64689285D02*
X96426295Y-64641666D01*
X96426295Y-64641666D02*
X96569152Y-64641666D01*
X96569152Y-64641666D02*
X96664390Y-64689285D01*
X96664390Y-64689285D02*
X96712009Y-64736904D01*
X96712009Y-64736904D02*
X96759628Y-64832142D01*
X96759628Y-64832142D02*
X96759628Y-65213094D01*
X96569152Y-63784523D02*
X97235819Y-63784523D01*
X96188200Y-64022618D02*
X96902485Y-64260713D01*
X96902485Y-64260713D02*
X96902485Y-63641666D01*
X108323142Y-95515580D02*
X108275523Y-95563200D01*
X108275523Y-95563200D02*
X108132666Y-95610819D01*
X108132666Y-95610819D02*
X108037428Y-95610819D01*
X108037428Y-95610819D02*
X107894571Y-95563200D01*
X107894571Y-95563200D02*
X107799333Y-95467961D01*
X107799333Y-95467961D02*
X107751714Y-95372723D01*
X107751714Y-95372723D02*
X107704095Y-95182247D01*
X107704095Y-95182247D02*
X107704095Y-95039390D01*
X107704095Y-95039390D02*
X107751714Y-94848914D01*
X107751714Y-94848914D02*
X107799333Y-94753676D01*
X107799333Y-94753676D02*
X107894571Y-94658438D01*
X107894571Y-94658438D02*
X108037428Y-94610819D01*
X108037428Y-94610819D02*
X108132666Y-94610819D01*
X108132666Y-94610819D02*
X108275523Y-94658438D01*
X108275523Y-94658438D02*
X108323142Y-94706057D01*
X108704095Y-94706057D02*
X108751714Y-94658438D01*
X108751714Y-94658438D02*
X108846952Y-94610819D01*
X108846952Y-94610819D02*
X109085047Y-94610819D01*
X109085047Y-94610819D02*
X109180285Y-94658438D01*
X109180285Y-94658438D02*
X109227904Y-94706057D01*
X109227904Y-94706057D02*
X109275523Y-94801295D01*
X109275523Y-94801295D02*
X109275523Y-94896533D01*
X109275523Y-94896533D02*
X109227904Y-95039390D01*
X109227904Y-95039390D02*
X108656476Y-95610819D01*
X108656476Y-95610819D02*
X109275523Y-95610819D01*
X109656476Y-94706057D02*
X109704095Y-94658438D01*
X109704095Y-94658438D02*
X109799333Y-94610819D01*
X109799333Y-94610819D02*
X110037428Y-94610819D01*
X110037428Y-94610819D02*
X110132666Y-94658438D01*
X110132666Y-94658438D02*
X110180285Y-94706057D01*
X110180285Y-94706057D02*
X110227904Y-94801295D01*
X110227904Y-94801295D02*
X110227904Y-94896533D01*
X110227904Y-94896533D02*
X110180285Y-95039390D01*
X110180285Y-95039390D02*
X109608857Y-95610819D01*
X109608857Y-95610819D02*
X110227904Y-95610819D01*
X110275913Y-77813580D02*
X110228294Y-77861200D01*
X110228294Y-77861200D02*
X110085437Y-77908819D01*
X110085437Y-77908819D02*
X109990199Y-77908819D01*
X109990199Y-77908819D02*
X109847342Y-77861200D01*
X109847342Y-77861200D02*
X109752104Y-77765961D01*
X109752104Y-77765961D02*
X109704485Y-77670723D01*
X109704485Y-77670723D02*
X109656866Y-77480247D01*
X109656866Y-77480247D02*
X109656866Y-77337390D01*
X109656866Y-77337390D02*
X109704485Y-77146914D01*
X109704485Y-77146914D02*
X109752104Y-77051676D01*
X109752104Y-77051676D02*
X109847342Y-76956438D01*
X109847342Y-76956438D02*
X109990199Y-76908819D01*
X109990199Y-76908819D02*
X110085437Y-76908819D01*
X110085437Y-76908819D02*
X110228294Y-76956438D01*
X110228294Y-76956438D02*
X110275913Y-77004057D01*
X110609247Y-76908819D02*
X111228294Y-76908819D01*
X111228294Y-76908819D02*
X110894961Y-77289771D01*
X110894961Y-77289771D02*
X111037818Y-77289771D01*
X111037818Y-77289771D02*
X111133056Y-77337390D01*
X111133056Y-77337390D02*
X111180675Y-77385009D01*
X111180675Y-77385009D02*
X111228294Y-77480247D01*
X111228294Y-77480247D02*
X111228294Y-77718342D01*
X111228294Y-77718342D02*
X111180675Y-77813580D01*
X111180675Y-77813580D02*
X111133056Y-77861200D01*
X111133056Y-77861200D02*
X111037818Y-77908819D01*
X111037818Y-77908819D02*
X110752104Y-77908819D01*
X110752104Y-77908819D02*
X110656866Y-77861200D01*
X110656866Y-77861200D02*
X110609247Y-77813580D01*
D13*
X163617200Y-58131317D02*
X163617200Y-58474174D01*
X163617200Y-58474174D02*
X163594343Y-58542745D01*
X163594343Y-58542745D02*
X163548629Y-58588460D01*
X163548629Y-58588460D02*
X163480057Y-58611317D01*
X163480057Y-58611317D02*
X163434343Y-58611317D01*
X164074343Y-58131317D02*
X163845771Y-58131317D01*
X163845771Y-58131317D02*
X163822914Y-58359888D01*
X163822914Y-58359888D02*
X163845771Y-58337031D01*
X163845771Y-58337031D02*
X163891486Y-58314174D01*
X163891486Y-58314174D02*
X164005771Y-58314174D01*
X164005771Y-58314174D02*
X164051486Y-58337031D01*
X164051486Y-58337031D02*
X164074343Y-58359888D01*
X164074343Y-58359888D02*
X164097200Y-58405602D01*
X164097200Y-58405602D02*
X164097200Y-58519888D01*
X164097200Y-58519888D02*
X164074343Y-58565602D01*
X164074343Y-58565602D02*
X164051486Y-58588460D01*
X164051486Y-58588460D02*
X164005771Y-58611317D01*
X164005771Y-58611317D02*
X163891486Y-58611317D01*
X163891486Y-58611317D02*
X163845771Y-58588460D01*
X163845771Y-58588460D02*
X163822914Y-58565602D01*
D12*
X139158742Y-68515380D02*
X139111123Y-68563000D01*
X139111123Y-68563000D02*
X138968266Y-68610619D01*
X138968266Y-68610619D02*
X138873028Y-68610619D01*
X138873028Y-68610619D02*
X138730171Y-68563000D01*
X138730171Y-68563000D02*
X138634933Y-68467761D01*
X138634933Y-68467761D02*
X138587314Y-68372523D01*
X138587314Y-68372523D02*
X138539695Y-68182047D01*
X138539695Y-68182047D02*
X138539695Y-68039190D01*
X138539695Y-68039190D02*
X138587314Y-67848714D01*
X138587314Y-67848714D02*
X138634933Y-67753476D01*
X138634933Y-67753476D02*
X138730171Y-67658238D01*
X138730171Y-67658238D02*
X138873028Y-67610619D01*
X138873028Y-67610619D02*
X138968266Y-67610619D01*
X138968266Y-67610619D02*
X139111123Y-67658238D01*
X139111123Y-67658238D02*
X139158742Y-67705857D01*
X139492076Y-67610619D02*
X140111123Y-67610619D01*
X140111123Y-67610619D02*
X139777790Y-67991571D01*
X139777790Y-67991571D02*
X139920647Y-67991571D01*
X139920647Y-67991571D02*
X140015885Y-68039190D01*
X140015885Y-68039190D02*
X140063504Y-68086809D01*
X140063504Y-68086809D02*
X140111123Y-68182047D01*
X140111123Y-68182047D02*
X140111123Y-68420142D01*
X140111123Y-68420142D02*
X140063504Y-68515380D01*
X140063504Y-68515380D02*
X140015885Y-68563000D01*
X140015885Y-68563000D02*
X139920647Y-68610619D01*
X139920647Y-68610619D02*
X139634933Y-68610619D01*
X139634933Y-68610619D02*
X139539695Y-68563000D01*
X139539695Y-68563000D02*
X139492076Y-68515380D01*
X141063504Y-68610619D02*
X140492076Y-68610619D01*
X140777790Y-68610619D02*
X140777790Y-67610619D01*
X140777790Y-67610619D02*
X140682552Y-67753476D01*
X140682552Y-67753476D02*
X140587314Y-67848714D01*
X140587314Y-67848714D02*
X140492076Y-67896333D01*
X96020095Y-54956819D02*
X96591523Y-54956819D01*
X96305809Y-55956819D02*
X96305809Y-54956819D01*
X96924857Y-55956819D02*
X96924857Y-54956819D01*
X96924857Y-54956819D02*
X97305809Y-54956819D01*
X97305809Y-54956819D02*
X97401047Y-55004438D01*
X97401047Y-55004438D02*
X97448666Y-55052057D01*
X97448666Y-55052057D02*
X97496285Y-55147295D01*
X97496285Y-55147295D02*
X97496285Y-55290152D01*
X97496285Y-55290152D02*
X97448666Y-55385390D01*
X97448666Y-55385390D02*
X97401047Y-55433009D01*
X97401047Y-55433009D02*
X97305809Y-55480628D01*
X97305809Y-55480628D02*
X96924857Y-55480628D01*
X98067714Y-55385390D02*
X97972476Y-55337771D01*
X97972476Y-55337771D02*
X97924857Y-55290152D01*
X97924857Y-55290152D02*
X97877238Y-55194914D01*
X97877238Y-55194914D02*
X97877238Y-55147295D01*
X97877238Y-55147295D02*
X97924857Y-55052057D01*
X97924857Y-55052057D02*
X97972476Y-55004438D01*
X97972476Y-55004438D02*
X98067714Y-54956819D01*
X98067714Y-54956819D02*
X98258190Y-54956819D01*
X98258190Y-54956819D02*
X98353428Y-55004438D01*
X98353428Y-55004438D02*
X98401047Y-55052057D01*
X98401047Y-55052057D02*
X98448666Y-55147295D01*
X98448666Y-55147295D02*
X98448666Y-55194914D01*
X98448666Y-55194914D02*
X98401047Y-55290152D01*
X98401047Y-55290152D02*
X98353428Y-55337771D01*
X98353428Y-55337771D02*
X98258190Y-55385390D01*
X98258190Y-55385390D02*
X98067714Y-55385390D01*
X98067714Y-55385390D02*
X97972476Y-55433009D01*
X97972476Y-55433009D02*
X97924857Y-55480628D01*
X97924857Y-55480628D02*
X97877238Y-55575866D01*
X97877238Y-55575866D02*
X97877238Y-55766342D01*
X97877238Y-55766342D02*
X97924857Y-55861580D01*
X97924857Y-55861580D02*
X97972476Y-55909200D01*
X97972476Y-55909200D02*
X98067714Y-55956819D01*
X98067714Y-55956819D02*
X98258190Y-55956819D01*
X98258190Y-55956819D02*
X98353428Y-55909200D01*
X98353428Y-55909200D02*
X98401047Y-55861580D01*
X98401047Y-55861580D02*
X98448666Y-55766342D01*
X98448666Y-55766342D02*
X98448666Y-55575866D01*
X98448666Y-55575866D02*
X98401047Y-55480628D01*
X98401047Y-55480628D02*
X98353428Y-55433009D01*
X98353428Y-55433009D02*
X98258190Y-55385390D01*
D14*
X116819437Y-80635118D02*
X116819437Y-79365118D01*
X118149914Y-80514165D02*
X118089438Y-80574642D01*
X118089438Y-80574642D02*
X117908009Y-80635118D01*
X117908009Y-80635118D02*
X117787057Y-80635118D01*
X117787057Y-80635118D02*
X117605628Y-80574642D01*
X117605628Y-80574642D02*
X117484676Y-80453689D01*
X117484676Y-80453689D02*
X117424199Y-80332737D01*
X117424199Y-80332737D02*
X117363723Y-80090832D01*
X117363723Y-80090832D02*
X117363723Y-79909403D01*
X117363723Y-79909403D02*
X117424199Y-79667499D01*
X117424199Y-79667499D02*
X117484676Y-79546546D01*
X117484676Y-79546546D02*
X117605628Y-79425594D01*
X117605628Y-79425594D02*
X117787057Y-79365118D01*
X117787057Y-79365118D02*
X117908009Y-79365118D01*
X117908009Y-79365118D02*
X118089438Y-79425594D01*
X118089438Y-79425594D02*
X118149914Y-79486070D01*
X119359438Y-80635118D02*
X118633723Y-80635118D01*
X118996580Y-80635118D02*
X118996580Y-79365118D01*
X118996580Y-79365118D02*
X118875628Y-79546546D01*
X118875628Y-79546546D02*
X118754676Y-79667499D01*
X118754676Y-79667499D02*
X118633723Y-79727975D01*
D12*
X125083780Y-82357466D02*
X125131400Y-82405085D01*
X125131400Y-82405085D02*
X125179019Y-82547942D01*
X125179019Y-82547942D02*
X125179019Y-82643180D01*
X125179019Y-82643180D02*
X125131400Y-82786037D01*
X125131400Y-82786037D02*
X125036161Y-82881275D01*
X125036161Y-82881275D02*
X124940923Y-82928894D01*
X124940923Y-82928894D02*
X124750447Y-82976513D01*
X124750447Y-82976513D02*
X124607590Y-82976513D01*
X124607590Y-82976513D02*
X124417114Y-82928894D01*
X124417114Y-82928894D02*
X124321876Y-82881275D01*
X124321876Y-82881275D02*
X124226638Y-82786037D01*
X124226638Y-82786037D02*
X124179019Y-82643180D01*
X124179019Y-82643180D02*
X124179019Y-82547942D01*
X124179019Y-82547942D02*
X124226638Y-82405085D01*
X124226638Y-82405085D02*
X124274257Y-82357466D01*
X125179019Y-81881275D02*
X125179019Y-81690799D01*
X125179019Y-81690799D02*
X125131400Y-81595561D01*
X125131400Y-81595561D02*
X125083780Y-81547942D01*
X125083780Y-81547942D02*
X124940923Y-81452704D01*
X124940923Y-81452704D02*
X124750447Y-81405085D01*
X124750447Y-81405085D02*
X124369495Y-81405085D01*
X124369495Y-81405085D02*
X124274257Y-81452704D01*
X124274257Y-81452704D02*
X124226638Y-81500323D01*
X124226638Y-81500323D02*
X124179019Y-81595561D01*
X124179019Y-81595561D02*
X124179019Y-81786037D01*
X124179019Y-81786037D02*
X124226638Y-81881275D01*
X124226638Y-81881275D02*
X124274257Y-81928894D01*
X124274257Y-81928894D02*
X124369495Y-81976513D01*
X124369495Y-81976513D02*
X124607590Y-81976513D01*
X124607590Y-81976513D02*
X124702828Y-81928894D01*
X124702828Y-81928894D02*
X124750447Y-81881275D01*
X124750447Y-81881275D02*
X124798066Y-81786037D01*
X124798066Y-81786037D02*
X124798066Y-81595561D01*
X124798066Y-81595561D02*
X124750447Y-81500323D01*
X124750447Y-81500323D02*
X124702828Y-81452704D01*
X124702828Y-81452704D02*
X124607590Y-81405085D01*
X110960333Y-76145580D02*
X110912714Y-76193200D01*
X110912714Y-76193200D02*
X110769857Y-76240819D01*
X110769857Y-76240819D02*
X110674619Y-76240819D01*
X110674619Y-76240819D02*
X110531762Y-76193200D01*
X110531762Y-76193200D02*
X110436524Y-76097961D01*
X110436524Y-76097961D02*
X110388905Y-76002723D01*
X110388905Y-76002723D02*
X110341286Y-75812247D01*
X110341286Y-75812247D02*
X110341286Y-75669390D01*
X110341286Y-75669390D02*
X110388905Y-75478914D01*
X110388905Y-75478914D02*
X110436524Y-75383676D01*
X110436524Y-75383676D02*
X110531762Y-75288438D01*
X110531762Y-75288438D02*
X110674619Y-75240819D01*
X110674619Y-75240819D02*
X110769857Y-75240819D01*
X110769857Y-75240819D02*
X110912714Y-75288438D01*
X110912714Y-75288438D02*
X110960333Y-75336057D01*
X111912714Y-76240819D02*
X111341286Y-76240819D01*
X111627000Y-76240819D02*
X111627000Y-75240819D01*
X111627000Y-75240819D02*
X111531762Y-75383676D01*
X111531762Y-75383676D02*
X111436524Y-75478914D01*
X111436524Y-75478914D02*
X111341286Y-75526533D01*
X153649514Y-60206219D02*
X153649514Y-59206219D01*
X153649514Y-59206219D02*
X154030466Y-59206219D01*
X154030466Y-59206219D02*
X154125704Y-59253838D01*
X154125704Y-59253838D02*
X154173323Y-59301457D01*
X154173323Y-59301457D02*
X154220942Y-59396695D01*
X154220942Y-59396695D02*
X154220942Y-59539552D01*
X154220942Y-59539552D02*
X154173323Y-59634790D01*
X154173323Y-59634790D02*
X154125704Y-59682409D01*
X154125704Y-59682409D02*
X154030466Y-59730028D01*
X154030466Y-59730028D02*
X153649514Y-59730028D01*
X154601895Y-60158600D02*
X154744752Y-60206219D01*
X154744752Y-60206219D02*
X154982847Y-60206219D01*
X154982847Y-60206219D02*
X155078085Y-60158600D01*
X155078085Y-60158600D02*
X155125704Y-60110980D01*
X155125704Y-60110980D02*
X155173323Y-60015742D01*
X155173323Y-60015742D02*
X155173323Y-59920504D01*
X155173323Y-59920504D02*
X155125704Y-59825266D01*
X155125704Y-59825266D02*
X155078085Y-59777647D01*
X155078085Y-59777647D02*
X154982847Y-59730028D01*
X154982847Y-59730028D02*
X154792371Y-59682409D01*
X154792371Y-59682409D02*
X154697133Y-59634790D01*
X154697133Y-59634790D02*
X154649514Y-59587171D01*
X154649514Y-59587171D02*
X154601895Y-59491933D01*
X154601895Y-59491933D02*
X154601895Y-59396695D01*
X154601895Y-59396695D02*
X154649514Y-59301457D01*
X154649514Y-59301457D02*
X154697133Y-59253838D01*
X154697133Y-59253838D02*
X154792371Y-59206219D01*
X154792371Y-59206219D02*
X155030466Y-59206219D01*
X155030466Y-59206219D02*
X155173323Y-59253838D01*
X156125704Y-60206219D02*
X155554276Y-60206219D01*
X155839990Y-60206219D02*
X155839990Y-59206219D01*
X155839990Y-59206219D02*
X155744752Y-59349076D01*
X155744752Y-59349076D02*
X155649514Y-59444314D01*
X155649514Y-59444314D02*
X155554276Y-59491933D01*
X102989142Y-68271580D02*
X102941523Y-68319200D01*
X102941523Y-68319200D02*
X102798666Y-68366819D01*
X102798666Y-68366819D02*
X102703428Y-68366819D01*
X102703428Y-68366819D02*
X102560571Y-68319200D01*
X102560571Y-68319200D02*
X102465333Y-68223961D01*
X102465333Y-68223961D02*
X102417714Y-68128723D01*
X102417714Y-68128723D02*
X102370095Y-67938247D01*
X102370095Y-67938247D02*
X102370095Y-67795390D01*
X102370095Y-67795390D02*
X102417714Y-67604914D01*
X102417714Y-67604914D02*
X102465333Y-67509676D01*
X102465333Y-67509676D02*
X102560571Y-67414438D01*
X102560571Y-67414438D02*
X102703428Y-67366819D01*
X102703428Y-67366819D02*
X102798666Y-67366819D01*
X102798666Y-67366819D02*
X102941523Y-67414438D01*
X102941523Y-67414438D02*
X102989142Y-67462057D01*
X103370095Y-67462057D02*
X103417714Y-67414438D01*
X103417714Y-67414438D02*
X103512952Y-67366819D01*
X103512952Y-67366819D02*
X103751047Y-67366819D01*
X103751047Y-67366819D02*
X103846285Y-67414438D01*
X103846285Y-67414438D02*
X103893904Y-67462057D01*
X103893904Y-67462057D02*
X103941523Y-67557295D01*
X103941523Y-67557295D02*
X103941523Y-67652533D01*
X103941523Y-67652533D02*
X103893904Y-67795390D01*
X103893904Y-67795390D02*
X103322476Y-68366819D01*
X103322476Y-68366819D02*
X103941523Y-68366819D01*
X104846285Y-67366819D02*
X104370095Y-67366819D01*
X104370095Y-67366819D02*
X104322476Y-67843009D01*
X104322476Y-67843009D02*
X104370095Y-67795390D01*
X104370095Y-67795390D02*
X104465333Y-67747771D01*
X104465333Y-67747771D02*
X104703428Y-67747771D01*
X104703428Y-67747771D02*
X104798666Y-67795390D01*
X104798666Y-67795390D02*
X104846285Y-67843009D01*
X104846285Y-67843009D02*
X104893904Y-67938247D01*
X104893904Y-67938247D02*
X104893904Y-68176342D01*
X104893904Y-68176342D02*
X104846285Y-68271580D01*
X104846285Y-68271580D02*
X104798666Y-68319200D01*
X104798666Y-68319200D02*
X104703428Y-68366819D01*
X104703428Y-68366819D02*
X104465333Y-68366819D01*
X104465333Y-68366819D02*
X104370095Y-68319200D01*
X104370095Y-68319200D02*
X104322476Y-68271580D01*
X130948780Y-64643095D02*
X130139257Y-64643095D01*
X130139257Y-64643095D02*
X130044019Y-64690714D01*
X130044019Y-64690714D02*
X129996400Y-64738333D01*
X129996400Y-64738333D02*
X129948780Y-64833571D01*
X129948780Y-64833571D02*
X129948780Y-65024047D01*
X129948780Y-65024047D02*
X129996400Y-65119285D01*
X129996400Y-65119285D02*
X130044019Y-65166904D01*
X130044019Y-65166904D02*
X130139257Y-65214523D01*
X130139257Y-65214523D02*
X130948780Y-65214523D01*
X129948780Y-66214523D02*
X129948780Y-65643095D01*
X129948780Y-65928809D02*
X130948780Y-65928809D01*
X130948780Y-65928809D02*
X130805923Y-65833571D01*
X130805923Y-65833571D02*
X130710685Y-65738333D01*
X130710685Y-65738333D02*
X130663066Y-65643095D01*
X137275219Y-61772799D02*
X137513314Y-61772799D01*
X137418076Y-62010894D02*
X137513314Y-61772799D01*
X137513314Y-61772799D02*
X137418076Y-61534704D01*
X137703790Y-61915656D02*
X137513314Y-61772799D01*
X137513314Y-61772799D02*
X137703790Y-61629942D01*
X138365580Y-61772800D02*
X138127485Y-61772800D01*
X138222723Y-61534705D02*
X138127485Y-61772800D01*
X138127485Y-61772800D02*
X138222723Y-62010895D01*
X137937009Y-61629943D02*
X138127485Y-61772800D01*
X138127485Y-61772800D02*
X137937009Y-61915657D01*
X104005142Y-77532380D02*
X103957523Y-77580000D01*
X103957523Y-77580000D02*
X103814666Y-77627619D01*
X103814666Y-77627619D02*
X103719428Y-77627619D01*
X103719428Y-77627619D02*
X103576571Y-77580000D01*
X103576571Y-77580000D02*
X103481333Y-77484761D01*
X103481333Y-77484761D02*
X103433714Y-77389523D01*
X103433714Y-77389523D02*
X103386095Y-77199047D01*
X103386095Y-77199047D02*
X103386095Y-77056190D01*
X103386095Y-77056190D02*
X103433714Y-76865714D01*
X103433714Y-76865714D02*
X103481333Y-76770476D01*
X103481333Y-76770476D02*
X103576571Y-76675238D01*
X103576571Y-76675238D02*
X103719428Y-76627619D01*
X103719428Y-76627619D02*
X103814666Y-76627619D01*
X103814666Y-76627619D02*
X103957523Y-76675238D01*
X103957523Y-76675238D02*
X104005142Y-76722857D01*
X104386095Y-76722857D02*
X104433714Y-76675238D01*
X104433714Y-76675238D02*
X104528952Y-76627619D01*
X104528952Y-76627619D02*
X104767047Y-76627619D01*
X104767047Y-76627619D02*
X104862285Y-76675238D01*
X104862285Y-76675238D02*
X104909904Y-76722857D01*
X104909904Y-76722857D02*
X104957523Y-76818095D01*
X104957523Y-76818095D02*
X104957523Y-76913333D01*
X104957523Y-76913333D02*
X104909904Y-77056190D01*
X104909904Y-77056190D02*
X104338476Y-77627619D01*
X104338476Y-77627619D02*
X104957523Y-77627619D01*
X105576571Y-76627619D02*
X105671809Y-76627619D01*
X105671809Y-76627619D02*
X105767047Y-76675238D01*
X105767047Y-76675238D02*
X105814666Y-76722857D01*
X105814666Y-76722857D02*
X105862285Y-76818095D01*
X105862285Y-76818095D02*
X105909904Y-77008571D01*
X105909904Y-77008571D02*
X105909904Y-77246666D01*
X105909904Y-77246666D02*
X105862285Y-77437142D01*
X105862285Y-77437142D02*
X105814666Y-77532380D01*
X105814666Y-77532380D02*
X105767047Y-77580000D01*
X105767047Y-77580000D02*
X105671809Y-77627619D01*
X105671809Y-77627619D02*
X105576571Y-77627619D01*
X105576571Y-77627619D02*
X105481333Y-77580000D01*
X105481333Y-77580000D02*
X105433714Y-77532380D01*
X105433714Y-77532380D02*
X105386095Y-77437142D01*
X105386095Y-77437142D02*
X105338476Y-77246666D01*
X105338476Y-77246666D02*
X105338476Y-77008571D01*
X105338476Y-77008571D02*
X105386095Y-76818095D01*
X105386095Y-76818095D02*
X105433714Y-76722857D01*
X105433714Y-76722857D02*
X105481333Y-76675238D01*
X105481333Y-76675238D02*
X105576571Y-76627619D01*
X103497142Y-59889580D02*
X103449523Y-59937200D01*
X103449523Y-59937200D02*
X103306666Y-59984819D01*
X103306666Y-59984819D02*
X103211428Y-59984819D01*
X103211428Y-59984819D02*
X103068571Y-59937200D01*
X103068571Y-59937200D02*
X102973333Y-59841961D01*
X102973333Y-59841961D02*
X102925714Y-59746723D01*
X102925714Y-59746723D02*
X102878095Y-59556247D01*
X102878095Y-59556247D02*
X102878095Y-59413390D01*
X102878095Y-59413390D02*
X102925714Y-59222914D01*
X102925714Y-59222914D02*
X102973333Y-59127676D01*
X102973333Y-59127676D02*
X103068571Y-59032438D01*
X103068571Y-59032438D02*
X103211428Y-58984819D01*
X103211428Y-58984819D02*
X103306666Y-58984819D01*
X103306666Y-58984819D02*
X103449523Y-59032438D01*
X103449523Y-59032438D02*
X103497142Y-59080057D01*
X103878095Y-59080057D02*
X103925714Y-59032438D01*
X103925714Y-59032438D02*
X104020952Y-58984819D01*
X104020952Y-58984819D02*
X104259047Y-58984819D01*
X104259047Y-58984819D02*
X104354285Y-59032438D01*
X104354285Y-59032438D02*
X104401904Y-59080057D01*
X104401904Y-59080057D02*
X104449523Y-59175295D01*
X104449523Y-59175295D02*
X104449523Y-59270533D01*
X104449523Y-59270533D02*
X104401904Y-59413390D01*
X104401904Y-59413390D02*
X103830476Y-59984819D01*
X103830476Y-59984819D02*
X104449523Y-59984819D01*
X104782857Y-58984819D02*
X105401904Y-58984819D01*
X105401904Y-58984819D02*
X105068571Y-59365771D01*
X105068571Y-59365771D02*
X105211428Y-59365771D01*
X105211428Y-59365771D02*
X105306666Y-59413390D01*
X105306666Y-59413390D02*
X105354285Y-59461009D01*
X105354285Y-59461009D02*
X105401904Y-59556247D01*
X105401904Y-59556247D02*
X105401904Y-59794342D01*
X105401904Y-59794342D02*
X105354285Y-59889580D01*
X105354285Y-59889580D02*
X105306666Y-59937200D01*
X105306666Y-59937200D02*
X105211428Y-59984819D01*
X105211428Y-59984819D02*
X104925714Y-59984819D01*
X104925714Y-59984819D02*
X104830476Y-59937200D01*
X104830476Y-59937200D02*
X104782857Y-59889580D01*
X98247295Y-75705619D02*
X98247295Y-76515142D01*
X98247295Y-76515142D02*
X98294914Y-76610380D01*
X98294914Y-76610380D02*
X98342533Y-76658000D01*
X98342533Y-76658000D02*
X98437771Y-76705619D01*
X98437771Y-76705619D02*
X98628247Y-76705619D01*
X98628247Y-76705619D02*
X98723485Y-76658000D01*
X98723485Y-76658000D02*
X98771104Y-76610380D01*
X98771104Y-76610380D02*
X98818723Y-76515142D01*
X98818723Y-76515142D02*
X98818723Y-75705619D01*
X99199676Y-75705619D02*
X99818723Y-75705619D01*
X99818723Y-75705619D02*
X99485390Y-76086571D01*
X99485390Y-76086571D02*
X99628247Y-76086571D01*
X99628247Y-76086571D02*
X99723485Y-76134190D01*
X99723485Y-76134190D02*
X99771104Y-76181809D01*
X99771104Y-76181809D02*
X99818723Y-76277047D01*
X99818723Y-76277047D02*
X99818723Y-76515142D01*
X99818723Y-76515142D02*
X99771104Y-76610380D01*
X99771104Y-76610380D02*
X99723485Y-76658000D01*
X99723485Y-76658000D02*
X99628247Y-76705619D01*
X99628247Y-76705619D02*
X99342533Y-76705619D01*
X99342533Y-76705619D02*
X99247295Y-76658000D01*
X99247295Y-76658000D02*
X99199676Y-76610380D01*
X96570800Y-72533219D02*
X96570800Y-72771314D01*
X96332705Y-72676076D02*
X96570800Y-72771314D01*
X96570800Y-72771314D02*
X96808895Y-72676076D01*
X96427943Y-72961790D02*
X96570800Y-72771314D01*
X96570800Y-72771314D02*
X96713657Y-72961790D01*
X96570800Y-72533219D02*
X96570800Y-72771314D01*
X96332705Y-72676076D02*
X96570800Y-72771314D01*
X96570800Y-72771314D02*
X96808895Y-72676076D01*
X96427943Y-72961790D02*
X96570800Y-72771314D01*
X96570800Y-72771314D02*
X96713657Y-72961790D01*
X111178580Y-82462666D02*
X111226200Y-82510285D01*
X111226200Y-82510285D02*
X111273819Y-82653142D01*
X111273819Y-82653142D02*
X111273819Y-82748380D01*
X111273819Y-82748380D02*
X111226200Y-82891237D01*
X111226200Y-82891237D02*
X111130961Y-82986475D01*
X111130961Y-82986475D02*
X111035723Y-83034094D01*
X111035723Y-83034094D02*
X110845247Y-83081713D01*
X110845247Y-83081713D02*
X110702390Y-83081713D01*
X110702390Y-83081713D02*
X110511914Y-83034094D01*
X110511914Y-83034094D02*
X110416676Y-82986475D01*
X110416676Y-82986475D02*
X110321438Y-82891237D01*
X110321438Y-82891237D02*
X110273819Y-82748380D01*
X110273819Y-82748380D02*
X110273819Y-82653142D01*
X110273819Y-82653142D02*
X110321438Y-82510285D01*
X110321438Y-82510285D02*
X110369057Y-82462666D01*
X110607152Y-81605523D02*
X111273819Y-81605523D01*
X110226200Y-81843618D02*
X110940485Y-82081713D01*
X110940485Y-82081713D02*
X110940485Y-81462666D01*
X109580819Y-64387666D02*
X109104628Y-64720999D01*
X109580819Y-64959094D02*
X108580819Y-64959094D01*
X108580819Y-64959094D02*
X108580819Y-64578142D01*
X108580819Y-64578142D02*
X108628438Y-64482904D01*
X108628438Y-64482904D02*
X108676057Y-64435285D01*
X108676057Y-64435285D02*
X108771295Y-64387666D01*
X108771295Y-64387666D02*
X108914152Y-64387666D01*
X108914152Y-64387666D02*
X109009390Y-64435285D01*
X109009390Y-64435285D02*
X109057009Y-64482904D01*
X109057009Y-64482904D02*
X109104628Y-64578142D01*
X109104628Y-64578142D02*
X109104628Y-64959094D01*
X108580819Y-64054332D02*
X108580819Y-63435285D01*
X108580819Y-63435285D02*
X108961771Y-63768618D01*
X108961771Y-63768618D02*
X108961771Y-63625761D01*
X108961771Y-63625761D02*
X109009390Y-63530523D01*
X109009390Y-63530523D02*
X109057009Y-63482904D01*
X109057009Y-63482904D02*
X109152247Y-63435285D01*
X109152247Y-63435285D02*
X109390342Y-63435285D01*
X109390342Y-63435285D02*
X109485580Y-63482904D01*
X109485580Y-63482904D02*
X109533200Y-63530523D01*
X109533200Y-63530523D02*
X109580819Y-63625761D01*
X109580819Y-63625761D02*
X109580819Y-63911475D01*
X109580819Y-63911475D02*
X109533200Y-64006713D01*
X109533200Y-64006713D02*
X109485580Y-64054332D01*
X139361942Y-66737380D02*
X139314323Y-66785000D01*
X139314323Y-66785000D02*
X139171466Y-66832619D01*
X139171466Y-66832619D02*
X139076228Y-66832619D01*
X139076228Y-66832619D02*
X138933371Y-66785000D01*
X138933371Y-66785000D02*
X138838133Y-66689761D01*
X138838133Y-66689761D02*
X138790514Y-66594523D01*
X138790514Y-66594523D02*
X138742895Y-66404047D01*
X138742895Y-66404047D02*
X138742895Y-66261190D01*
X138742895Y-66261190D02*
X138790514Y-66070714D01*
X138790514Y-66070714D02*
X138838133Y-65975476D01*
X138838133Y-65975476D02*
X138933371Y-65880238D01*
X138933371Y-65880238D02*
X139076228Y-65832619D01*
X139076228Y-65832619D02*
X139171466Y-65832619D01*
X139171466Y-65832619D02*
X139314323Y-65880238D01*
X139314323Y-65880238D02*
X139361942Y-65927857D01*
X139695276Y-65832619D02*
X140314323Y-65832619D01*
X140314323Y-65832619D02*
X139980990Y-66213571D01*
X139980990Y-66213571D02*
X140123847Y-66213571D01*
X140123847Y-66213571D02*
X140219085Y-66261190D01*
X140219085Y-66261190D02*
X140266704Y-66308809D01*
X140266704Y-66308809D02*
X140314323Y-66404047D01*
X140314323Y-66404047D02*
X140314323Y-66642142D01*
X140314323Y-66642142D02*
X140266704Y-66737380D01*
X140266704Y-66737380D02*
X140219085Y-66785000D01*
X140219085Y-66785000D02*
X140123847Y-66832619D01*
X140123847Y-66832619D02*
X139838133Y-66832619D01*
X139838133Y-66832619D02*
X139742895Y-66785000D01*
X139742895Y-66785000D02*
X139695276Y-66737380D01*
X140933371Y-65832619D02*
X141028609Y-65832619D01*
X141028609Y-65832619D02*
X141123847Y-65880238D01*
X141123847Y-65880238D02*
X141171466Y-65927857D01*
X141171466Y-65927857D02*
X141219085Y-66023095D01*
X141219085Y-66023095D02*
X141266704Y-66213571D01*
X141266704Y-66213571D02*
X141266704Y-66451666D01*
X141266704Y-66451666D02*
X141219085Y-66642142D01*
X141219085Y-66642142D02*
X141171466Y-66737380D01*
X141171466Y-66737380D02*
X141123847Y-66785000D01*
X141123847Y-66785000D02*
X141028609Y-66832619D01*
X141028609Y-66832619D02*
X140933371Y-66832619D01*
X140933371Y-66832619D02*
X140838133Y-66785000D01*
X140838133Y-66785000D02*
X140790514Y-66737380D01*
X140790514Y-66737380D02*
X140742895Y-66642142D01*
X140742895Y-66642142D02*
X140695276Y-66451666D01*
X140695276Y-66451666D02*
X140695276Y-66213571D01*
X140695276Y-66213571D02*
X140742895Y-66023095D01*
X140742895Y-66023095D02*
X140790514Y-65927857D01*
X140790514Y-65927857D02*
X140838133Y-65880238D01*
X140838133Y-65880238D02*
X140933371Y-65832619D01*
X95703580Y-83192857D02*
X95751200Y-83240476D01*
X95751200Y-83240476D02*
X95798819Y-83383333D01*
X95798819Y-83383333D02*
X95798819Y-83478571D01*
X95798819Y-83478571D02*
X95751200Y-83621428D01*
X95751200Y-83621428D02*
X95655961Y-83716666D01*
X95655961Y-83716666D02*
X95560723Y-83764285D01*
X95560723Y-83764285D02*
X95370247Y-83811904D01*
X95370247Y-83811904D02*
X95227390Y-83811904D01*
X95227390Y-83811904D02*
X95036914Y-83764285D01*
X95036914Y-83764285D02*
X94941676Y-83716666D01*
X94941676Y-83716666D02*
X94846438Y-83621428D01*
X94846438Y-83621428D02*
X94798819Y-83478571D01*
X94798819Y-83478571D02*
X94798819Y-83383333D01*
X94798819Y-83383333D02*
X94846438Y-83240476D01*
X94846438Y-83240476D02*
X94894057Y-83192857D01*
X95798819Y-82240476D02*
X95798819Y-82811904D01*
X95798819Y-82526190D02*
X94798819Y-82526190D01*
X94798819Y-82526190D02*
X94941676Y-82621428D01*
X94941676Y-82621428D02*
X95036914Y-82716666D01*
X95036914Y-82716666D02*
X95084533Y-82811904D01*
X94894057Y-81859523D02*
X94846438Y-81811904D01*
X94846438Y-81811904D02*
X94798819Y-81716666D01*
X94798819Y-81716666D02*
X94798819Y-81478571D01*
X94798819Y-81478571D02*
X94846438Y-81383333D01*
X94846438Y-81383333D02*
X94894057Y-81335714D01*
X94894057Y-81335714D02*
X94989295Y-81288095D01*
X94989295Y-81288095D02*
X95084533Y-81288095D01*
X95084533Y-81288095D02*
X95227390Y-81335714D01*
X95227390Y-81335714D02*
X95798819Y-81907142D01*
X95798819Y-81907142D02*
X95798819Y-81288095D01*
X102147905Y-96866819D02*
X102719333Y-96866819D01*
X102433619Y-97866819D02*
X102433619Y-96866819D01*
X103052667Y-97866819D02*
X103052667Y-96866819D01*
X103052667Y-96866819D02*
X103433619Y-96866819D01*
X103433619Y-96866819D02*
X103528857Y-96914438D01*
X103528857Y-96914438D02*
X103576476Y-96962057D01*
X103576476Y-96962057D02*
X103624095Y-97057295D01*
X103624095Y-97057295D02*
X103624095Y-97200152D01*
X103624095Y-97200152D02*
X103576476Y-97295390D01*
X103576476Y-97295390D02*
X103528857Y-97343009D01*
X103528857Y-97343009D02*
X103433619Y-97390628D01*
X103433619Y-97390628D02*
X103052667Y-97390628D01*
X104576476Y-97866819D02*
X104005048Y-97866819D01*
X104290762Y-97866819D02*
X104290762Y-96866819D01*
X104290762Y-96866819D02*
X104195524Y-97009676D01*
X104195524Y-97009676D02*
X104100286Y-97104914D01*
X104100286Y-97104914D02*
X104005048Y-97152533D01*
X105528857Y-97866819D02*
X104957429Y-97866819D01*
X105243143Y-97866819D02*
X105243143Y-96866819D01*
X105243143Y-96866819D02*
X105147905Y-97009676D01*
X105147905Y-97009676D02*
X105052667Y-97104914D01*
X105052667Y-97104914D02*
X104957429Y-97152533D01*
X115636666Y-47647819D02*
X115636666Y-48362104D01*
X115636666Y-48362104D02*
X115589047Y-48504961D01*
X115589047Y-48504961D02*
X115493809Y-48600200D01*
X115493809Y-48600200D02*
X115350952Y-48647819D01*
X115350952Y-48647819D02*
X115255714Y-48647819D01*
X116017619Y-47647819D02*
X116636666Y-47647819D01*
X116636666Y-47647819D02*
X116303333Y-48028771D01*
X116303333Y-48028771D02*
X116446190Y-48028771D01*
X116446190Y-48028771D02*
X116541428Y-48076390D01*
X116541428Y-48076390D02*
X116589047Y-48124009D01*
X116589047Y-48124009D02*
X116636666Y-48219247D01*
X116636666Y-48219247D02*
X116636666Y-48457342D01*
X116636666Y-48457342D02*
X116589047Y-48552580D01*
X116589047Y-48552580D02*
X116541428Y-48600200D01*
X116541428Y-48600200D02*
X116446190Y-48647819D01*
X116446190Y-48647819D02*
X116160476Y-48647819D01*
X116160476Y-48647819D02*
X116065238Y-48600200D01*
X116065238Y-48600200D02*
X116017619Y-48552580D01*
X137879295Y-76572219D02*
X138450723Y-76572219D01*
X138165009Y-77572219D02*
X138165009Y-76572219D01*
X138784057Y-77572219D02*
X138784057Y-76572219D01*
X138784057Y-76572219D02*
X139165009Y-76572219D01*
X139165009Y-76572219D02*
X139260247Y-76619838D01*
X139260247Y-76619838D02*
X139307866Y-76667457D01*
X139307866Y-76667457D02*
X139355485Y-76762695D01*
X139355485Y-76762695D02*
X139355485Y-76905552D01*
X139355485Y-76905552D02*
X139307866Y-77000790D01*
X139307866Y-77000790D02*
X139260247Y-77048409D01*
X139260247Y-77048409D02*
X139165009Y-77096028D01*
X139165009Y-77096028D02*
X138784057Y-77096028D01*
X139688819Y-76572219D02*
X140307866Y-76572219D01*
X140307866Y-76572219D02*
X139974533Y-76953171D01*
X139974533Y-76953171D02*
X140117390Y-76953171D01*
X140117390Y-76953171D02*
X140212628Y-77000790D01*
X140212628Y-77000790D02*
X140260247Y-77048409D01*
X140260247Y-77048409D02*
X140307866Y-77143647D01*
X140307866Y-77143647D02*
X140307866Y-77381742D01*
X140307866Y-77381742D02*
X140260247Y-77476980D01*
X140260247Y-77476980D02*
X140212628Y-77524600D01*
X140212628Y-77524600D02*
X140117390Y-77572219D01*
X140117390Y-77572219D02*
X139831676Y-77572219D01*
X139831676Y-77572219D02*
X139736438Y-77524600D01*
X139736438Y-77524600D02*
X139688819Y-77476980D01*
X95471906Y-94534927D02*
X96186821Y-94534927D01*
X96186821Y-94534927D02*
X96329804Y-94582588D01*
X96329804Y-94582588D02*
X96425127Y-94677910D01*
X96425127Y-94677910D02*
X96472788Y-94820893D01*
X96472788Y-94820893D02*
X96472788Y-94916215D01*
X95471906Y-94153638D02*
X95471906Y-93486384D01*
X95471906Y-93486384D02*
X96472788Y-93915333D01*
X138782466Y-76841819D02*
X138782466Y-77556104D01*
X138782466Y-77556104D02*
X138734847Y-77698961D01*
X138734847Y-77698961D02*
X138639609Y-77794200D01*
X138639609Y-77794200D02*
X138496752Y-77841819D01*
X138496752Y-77841819D02*
X138401514Y-77841819D01*
X139687228Y-77175152D02*
X139687228Y-77841819D01*
X139449133Y-76794200D02*
X139211038Y-77508485D01*
X139211038Y-77508485D02*
X139830085Y-77508485D01*
X120968533Y-87155380D02*
X120920914Y-87203000D01*
X120920914Y-87203000D02*
X120778057Y-87250619D01*
X120778057Y-87250619D02*
X120682819Y-87250619D01*
X120682819Y-87250619D02*
X120539962Y-87203000D01*
X120539962Y-87203000D02*
X120444724Y-87107761D01*
X120444724Y-87107761D02*
X120397105Y-87012523D01*
X120397105Y-87012523D02*
X120349486Y-86822047D01*
X120349486Y-86822047D02*
X120349486Y-86679190D01*
X120349486Y-86679190D02*
X120397105Y-86488714D01*
X120397105Y-86488714D02*
X120444724Y-86393476D01*
X120444724Y-86393476D02*
X120539962Y-86298238D01*
X120539962Y-86298238D02*
X120682819Y-86250619D01*
X120682819Y-86250619D02*
X120778057Y-86250619D01*
X120778057Y-86250619D02*
X120920914Y-86298238D01*
X120920914Y-86298238D02*
X120968533Y-86345857D01*
X121301867Y-86250619D02*
X121968533Y-86250619D01*
X121968533Y-86250619D02*
X121539962Y-87250619D01*
X169778819Y-97093066D02*
X169302628Y-97426399D01*
X169778819Y-97664494D02*
X168778819Y-97664494D01*
X168778819Y-97664494D02*
X168778819Y-97283542D01*
X168778819Y-97283542D02*
X168826438Y-97188304D01*
X168826438Y-97188304D02*
X168874057Y-97140685D01*
X168874057Y-97140685D02*
X168969295Y-97093066D01*
X168969295Y-97093066D02*
X169112152Y-97093066D01*
X169112152Y-97093066D02*
X169207390Y-97140685D01*
X169207390Y-97140685D02*
X169255009Y-97188304D01*
X169255009Y-97188304D02*
X169302628Y-97283542D01*
X169302628Y-97283542D02*
X169302628Y-97664494D01*
X169778819Y-96616875D02*
X169778819Y-96426399D01*
X169778819Y-96426399D02*
X169731200Y-96331161D01*
X169731200Y-96331161D02*
X169683580Y-96283542D01*
X169683580Y-96283542D02*
X169540723Y-96188304D01*
X169540723Y-96188304D02*
X169350247Y-96140685D01*
X169350247Y-96140685D02*
X168969295Y-96140685D01*
X168969295Y-96140685D02*
X168874057Y-96188304D01*
X168874057Y-96188304D02*
X168826438Y-96235923D01*
X168826438Y-96235923D02*
X168778819Y-96331161D01*
X168778819Y-96331161D02*
X168778819Y-96521637D01*
X168778819Y-96521637D02*
X168826438Y-96616875D01*
X168826438Y-96616875D02*
X168874057Y-96664494D01*
X168874057Y-96664494D02*
X168969295Y-96712113D01*
X168969295Y-96712113D02*
X169207390Y-96712113D01*
X169207390Y-96712113D02*
X169302628Y-96664494D01*
X169302628Y-96664494D02*
X169350247Y-96616875D01*
X169350247Y-96616875D02*
X169397866Y-96521637D01*
X169397866Y-96521637D02*
X169397866Y-96331161D01*
X169397866Y-96331161D02*
X169350247Y-96235923D01*
X169350247Y-96235923D02*
X169302628Y-96188304D01*
X169302628Y-96188304D02*
X169207390Y-96140685D01*
X120968533Y-89060380D02*
X120920914Y-89108000D01*
X120920914Y-89108000D02*
X120778057Y-89155619D01*
X120778057Y-89155619D02*
X120682819Y-89155619D01*
X120682819Y-89155619D02*
X120539962Y-89108000D01*
X120539962Y-89108000D02*
X120444724Y-89012761D01*
X120444724Y-89012761D02*
X120397105Y-88917523D01*
X120397105Y-88917523D02*
X120349486Y-88727047D01*
X120349486Y-88727047D02*
X120349486Y-88584190D01*
X120349486Y-88584190D02*
X120397105Y-88393714D01*
X120397105Y-88393714D02*
X120444724Y-88298476D01*
X120444724Y-88298476D02*
X120539962Y-88203238D01*
X120539962Y-88203238D02*
X120682819Y-88155619D01*
X120682819Y-88155619D02*
X120778057Y-88155619D01*
X120778057Y-88155619D02*
X120920914Y-88203238D01*
X120920914Y-88203238D02*
X120968533Y-88250857D01*
X121539962Y-88584190D02*
X121444724Y-88536571D01*
X121444724Y-88536571D02*
X121397105Y-88488952D01*
X121397105Y-88488952D02*
X121349486Y-88393714D01*
X121349486Y-88393714D02*
X121349486Y-88346095D01*
X121349486Y-88346095D02*
X121397105Y-88250857D01*
X121397105Y-88250857D02*
X121444724Y-88203238D01*
X121444724Y-88203238D02*
X121539962Y-88155619D01*
X121539962Y-88155619D02*
X121730438Y-88155619D01*
X121730438Y-88155619D02*
X121825676Y-88203238D01*
X121825676Y-88203238D02*
X121873295Y-88250857D01*
X121873295Y-88250857D02*
X121920914Y-88346095D01*
X121920914Y-88346095D02*
X121920914Y-88393714D01*
X121920914Y-88393714D02*
X121873295Y-88488952D01*
X121873295Y-88488952D02*
X121825676Y-88536571D01*
X121825676Y-88536571D02*
X121730438Y-88584190D01*
X121730438Y-88584190D02*
X121539962Y-88584190D01*
X121539962Y-88584190D02*
X121444724Y-88631809D01*
X121444724Y-88631809D02*
X121397105Y-88679428D01*
X121397105Y-88679428D02*
X121349486Y-88774666D01*
X121349486Y-88774666D02*
X121349486Y-88965142D01*
X121349486Y-88965142D02*
X121397105Y-89060380D01*
X121397105Y-89060380D02*
X121444724Y-89108000D01*
X121444724Y-89108000D02*
X121539962Y-89155619D01*
X121539962Y-89155619D02*
X121730438Y-89155619D01*
X121730438Y-89155619D02*
X121825676Y-89108000D01*
X121825676Y-89108000D02*
X121873295Y-89060380D01*
X121873295Y-89060380D02*
X121920914Y-88965142D01*
X121920914Y-88965142D02*
X121920914Y-88774666D01*
X121920914Y-88774666D02*
X121873295Y-88679428D01*
X121873295Y-88679428D02*
X121825676Y-88631809D01*
X121825676Y-88631809D02*
X121730438Y-88584190D01*
X142047436Y-55834299D02*
X142047436Y-56548584D01*
X142047436Y-56548584D02*
X141999817Y-56691441D01*
X141999817Y-56691441D02*
X141904579Y-56786680D01*
X141904579Y-56786680D02*
X141761722Y-56834299D01*
X141761722Y-56834299D02*
X141666484Y-56834299D01*
X142476008Y-55929537D02*
X142523627Y-55881918D01*
X142523627Y-55881918D02*
X142618865Y-55834299D01*
X142618865Y-55834299D02*
X142856960Y-55834299D01*
X142856960Y-55834299D02*
X142952198Y-55881918D01*
X142952198Y-55881918D02*
X142999817Y-55929537D01*
X142999817Y-55929537D02*
X143047436Y-56024775D01*
X143047436Y-56024775D02*
X143047436Y-56120013D01*
X143047436Y-56120013D02*
X142999817Y-56262870D01*
X142999817Y-56262870D02*
X142428389Y-56834299D01*
X142428389Y-56834299D02*
X143047436Y-56834299D01*
X93032599Y-61554363D02*
X93746884Y-61554363D01*
X93746884Y-61554363D02*
X93889741Y-61601982D01*
X93889741Y-61601982D02*
X93984980Y-61697220D01*
X93984980Y-61697220D02*
X94032599Y-61840077D01*
X94032599Y-61840077D02*
X94032599Y-61935315D01*
X94032599Y-60554363D02*
X94032599Y-61125791D01*
X94032599Y-60840077D02*
X93032599Y-60840077D01*
X93032599Y-60840077D02*
X93175456Y-60935315D01*
X93175456Y-60935315D02*
X93270694Y-61030553D01*
X93270694Y-61030553D02*
X93318313Y-61125791D01*
D11*
%TO.C,IC2*%
X156575000Y-66975000D02*
X162895000Y-66975000D01*
X162895000Y-66975000D02*
X162895000Y-70655000D01*
X162895000Y-70655000D02*
X156575000Y-70655000D01*
X156575000Y-70655000D02*
X156575000Y-66975000D01*
X142595000Y-94285000D02*
X164495000Y-94285000D01*
X164495000Y-94285000D02*
X164495000Y-60505000D01*
X164495000Y-60505000D02*
X142595000Y-60505000D01*
X142595000Y-60505000D02*
X142595000Y-94285000D01*
D13*
%TO.C,J9*%
X142875000Y-59750000D02*
X130115000Y-59750000D01*
X130115000Y-57090000D02*
X130115000Y-59750000D01*
X142875000Y-57090000D02*
X142875000Y-59750000D01*
X145475000Y-57090000D02*
X145475000Y-58420000D01*
X144145000Y-57090000D02*
X145475000Y-57090000D01*
X142875000Y-57090000D02*
X130115000Y-57090000D01*
%TO.C,J8*%
X127635000Y-57090000D02*
X128965000Y-57090000D01*
X126365000Y-59750000D02*
X103445000Y-59750000D01*
X126365000Y-57090000D02*
X103445000Y-57090000D01*
X128965000Y-57090000D02*
X128965000Y-58420000D01*
X126365000Y-57090000D02*
X126365000Y-59750000D01*
X103445000Y-57090000D02*
X103445000Y-59750000D01*
%TO.C,TP16*%
X158917600Y-58181200D02*
X160817600Y-58181200D01*
X158917600Y-60081200D02*
X158917600Y-58181200D01*
X160817600Y-58181200D02*
X160817600Y-60081200D01*
X160817600Y-60081200D02*
X158917600Y-60081200D01*
%TO.C,C18*%
X96887420Y-92454000D02*
X97168580Y-92454000D01*
X96887420Y-93474000D02*
X97168580Y-93474000D01*
D15*
%TO.C,U5*%
X104412000Y-66566000D02*
X104412000Y-65971000D01*
X104412000Y-66566000D02*
X103817000Y-66566000D01*
X104412000Y-62466000D02*
X104412000Y-63061000D01*
X104412000Y-62466000D02*
X103817000Y-62466000D01*
X100312000Y-66566000D02*
X100907000Y-66566000D01*
X100312000Y-66566000D02*
X100312000Y-65971000D01*
X100312000Y-62466000D02*
X100907000Y-62466000D01*
X100312000Y-62466000D02*
X100312000Y-63061000D01*
D10*
X105447000Y-65491000D02*
G75*
G03*
X105447000Y-65491000I-100000J0D01*
G01*
D13*
%TO.C,R2*%
X134224500Y-71992258D02*
X134224500Y-71517742D01*
X135269500Y-71992258D02*
X135269500Y-71517742D01*
%TO.C,TP13*%
X93030000Y-79822000D02*
X94930000Y-79822000D01*
X93030000Y-81722000D02*
X93030000Y-79822000D01*
X94930000Y-79822000D02*
X94930000Y-81722000D01*
X94930000Y-81722000D02*
X93030000Y-81722000D01*
%TO.C,J12*%
X164652000Y-99508000D02*
X164652000Y-100838000D01*
X163322000Y-99508000D02*
X164652000Y-99508000D01*
X162052000Y-99508000D02*
X113732000Y-99508000D01*
X162052000Y-99508000D02*
X162052000Y-102108000D01*
X113732000Y-99508000D02*
X113732000Y-104708000D01*
X164652000Y-102108000D02*
X164652000Y-104708000D01*
X162052000Y-102108000D02*
X164652000Y-102108000D01*
X164652000Y-104708000D02*
X113732000Y-104708000D01*
%TO.C,L1*%
X163402736Y-57644200D02*
X164606864Y-57644200D01*
X163402736Y-60364200D02*
X164606864Y-60364200D01*
D16*
%TO.C,U2*%
X101466650Y-84774999D02*
X103473250Y-84774999D01*
X103473250Y-81472999D02*
X101466650Y-81472999D01*
X103473250Y-83487260D02*
X103473250Y-82760738D01*
D13*
%TO.C,C15*%
X93280620Y-76756800D02*
X93561780Y-76756800D01*
X93280620Y-77776800D02*
X93561780Y-77776800D01*
%TO.C,C6*%
X115429420Y-73150000D02*
X115710580Y-73150000D01*
X115429420Y-74170000D02*
X115710580Y-74170000D01*
%TO.C,R1*%
X113777500Y-89899258D02*
X113777500Y-89424742D01*
X114822500Y-89899258D02*
X114822500Y-89424742D01*
%TO.C,C24*%
X100637580Y-61175000D02*
X100356420Y-61175000D01*
X100637580Y-60155000D02*
X100356420Y-60155000D01*
%TO.C,C17*%
X105269420Y-77468000D02*
X105550580Y-77468000D01*
X105269420Y-78488000D02*
X105550580Y-78488000D01*
%TO.C,C13*%
X98296000Y-82690580D02*
X98296000Y-82409420D01*
X99316000Y-82690580D02*
X99316000Y-82409420D01*
%TO.C,TP1*%
X113096000Y-85664000D02*
X114996000Y-85664000D01*
X113096000Y-87564000D02*
X113096000Y-85664000D01*
X114996000Y-85664000D02*
X114996000Y-87564000D01*
X114996000Y-87564000D02*
X113096000Y-87564000D01*
%TO.C,R8*%
X167625500Y-97328258D02*
X167625500Y-96853742D01*
X168670500Y-97328258D02*
X168670500Y-96853742D01*
%TO.C,C5*%
X115429420Y-71626000D02*
X115710580Y-71626000D01*
X115429420Y-72646000D02*
X115710580Y-72646000D01*
D16*
%TO.C,U4*%
X101037130Y-95923100D02*
X103585267Y-95923100D01*
X103585270Y-91630500D02*
X101037133Y-91630500D01*
G36*
X105702100Y-95217300D02*
G01*
X105448100Y-95217300D01*
X105448100Y-94836300D01*
X105702100Y-94836300D01*
X105702100Y-95217300D01*
G37*
D13*
%TO.C,C29*%
X140094580Y-63806800D02*
X139813420Y-63806800D01*
X140094580Y-62786800D02*
X139813420Y-62786800D01*
%TO.C,D1*%
X139444400Y-67704600D02*
X137974400Y-67704600D01*
X137974400Y-67704600D02*
X137974400Y-69989600D01*
X139444400Y-69989600D02*
X139444400Y-67704600D01*
%TO.C,R10*%
X164831500Y-97328258D02*
X164831500Y-96853742D01*
X165876500Y-97328258D02*
X165876500Y-96853742D01*
%TO.C,C26*%
X169547000Y-58736620D02*
X169547000Y-59017780D01*
X168527000Y-58736620D02*
X168527000Y-59017780D01*
%TO.C,C16*%
X105916000Y-83198580D02*
X105916000Y-82917420D01*
X106936000Y-83198580D02*
X106936000Y-82917420D01*
%TO.C,C2*%
X109834000Y-82436580D02*
X109834000Y-82155420D01*
X110854000Y-82436580D02*
X110854000Y-82155420D01*
%TO.C,C11*%
X136015000Y-73660580D02*
X136015000Y-73379420D01*
X137035000Y-73660580D02*
X137035000Y-73379420D01*
%TO.C,C14*%
X93293620Y-74978800D02*
X93574780Y-74978800D01*
X93293620Y-75998800D02*
X93574780Y-75998800D01*
%TO.C,J6*%
X167072000Y-78675000D02*
X168402000Y-78675000D01*
X167072000Y-80005000D02*
X167072000Y-78675000D01*
X167072000Y-81275000D02*
X167072000Y-83875000D01*
X167072000Y-81275000D02*
X169732000Y-81275000D01*
X167072000Y-83875000D02*
X169732000Y-83875000D01*
X169732000Y-81275000D02*
X169732000Y-83875000D01*
%TO.C,C28*%
X140119980Y-62308200D02*
X139838820Y-62308200D01*
X140119980Y-61288200D02*
X139838820Y-61288200D01*
%TO.C,C10*%
X125709200Y-82050220D02*
X125709200Y-82331380D01*
X124689200Y-82050220D02*
X124689200Y-82331380D01*
%TO.C,TP12*%
X108270000Y-85410000D02*
X110170000Y-85410000D01*
X108270000Y-87310000D02*
X108270000Y-85410000D01*
X110170000Y-85410000D02*
X110170000Y-87310000D01*
X110170000Y-87310000D02*
X108270000Y-87310000D01*
%TO.C,C19*%
X96633420Y-94232000D02*
X96914580Y-94232000D01*
X96633420Y-95252000D02*
X96914580Y-95252000D01*
%TO.C,C21*%
X108825420Y-94994000D02*
X109106580Y-94994000D01*
X108825420Y-96014000D02*
X109106580Y-96014000D01*
%TO.C,C27*%
X167743600Y-58711220D02*
X167743600Y-58992380D01*
X166723600Y-58711220D02*
X166723600Y-58992380D01*
%TO.C,R4*%
X97688500Y-64712258D02*
X97688500Y-64237742D01*
X98733500Y-64712258D02*
X98733500Y-64237742D01*
%TO.C,C22*%
X108839580Y-93728000D02*
X108558420Y-93728000D01*
X108839580Y-92708000D02*
X108558420Y-92708000D01*
%TO.C,C3*%
X111111420Y-78484000D02*
X111392580Y-78484000D01*
X111111420Y-79504000D02*
X111392580Y-79504000D01*
D15*
%TO.C,J5*%
X164951200Y-57105700D02*
X159051200Y-57105700D01*
X164951200Y-49505700D02*
X164951200Y-57105700D01*
X159051200Y-57105700D02*
X159051200Y-49505700D01*
X159051200Y-49505700D02*
X164951200Y-49505700D01*
D10*
X163101200Y-57655700D02*
G75*
G03*
X163101200Y-57655700I-100000J0D01*
G01*
D13*
%TO.C,C31*%
X139942180Y-67235800D02*
X139661020Y-67235800D01*
X139942180Y-66215800D02*
X139661020Y-66215800D01*
%TO.C,TP8*%
X96332000Y-56200000D02*
X98232000Y-56200000D01*
X96332000Y-58100000D02*
X96332000Y-56200000D01*
X98232000Y-56200000D02*
X98232000Y-58100000D01*
X98232000Y-58100000D02*
X96332000Y-58100000D01*
D17*
%TO.C,IC1*%
X114809200Y-77060800D02*
G75*
G03*
X114809200Y-77060800I-125000J0D01*
G01*
D13*
%TO.C,C9*%
X123804200Y-82050220D02*
X123804200Y-82331380D01*
X122784200Y-82050220D02*
X122784200Y-82331380D01*
%TO.C,C1*%
X110986420Y-76706000D02*
X111267580Y-76706000D01*
X110986420Y-77726000D02*
X111267580Y-77726000D01*
D15*
%TO.C,PS1*%
X158073800Y-58286400D02*
X158073800Y-49786400D01*
X158073800Y-49786400D02*
X146573800Y-49786400D01*
X146573800Y-58286400D02*
X158073800Y-58286400D01*
X146573800Y-49786400D02*
X146573800Y-58286400D01*
D10*
X158773800Y-56286400D02*
G75*
G03*
X158773800Y-56286400I-100000J0D01*
G01*
D13*
%TO.C,C25*%
X103491420Y-68832000D02*
X103772580Y-68832000D01*
X103491420Y-69852000D02*
X103772580Y-69852000D01*
D16*
%TO.C,U1*%
X123952000Y-62611000D02*
X123952000Y-68199000D01*
X136855200Y-68199000D02*
X136855200Y-62611000D01*
X136855200Y-65100200D02*
G75*
G03*
X136855200Y-65709800I0J-304800D01*
G01*
G36*
X124879100Y-60693300D02*
G01*
X124498100Y-60693300D01*
X124498100Y-60439300D01*
X124879100Y-60439300D01*
X124879100Y-60693300D01*
G37*
G36*
X136309100Y-70370700D02*
G01*
X135928100Y-70370700D01*
X135928100Y-70116700D01*
X136309100Y-70116700D01*
X136309100Y-70370700D01*
G37*
D13*
%TO.C,C20*%
X104788580Y-76252800D02*
X104507420Y-76252800D01*
X104788580Y-75232800D02*
X104507420Y-75232800D01*
%TO.C,C23*%
X103999420Y-60450000D02*
X104280580Y-60450000D01*
X103999420Y-61470000D02*
X104280580Y-61470000D01*
D16*
%TO.C,U3*%
X97735130Y-78397100D02*
X100283267Y-78397100D01*
X100283270Y-74104500D02*
X97735133Y-74104500D01*
G36*
X102400100Y-77691300D02*
G01*
X102146100Y-77691300D01*
X102146100Y-77310300D01*
X102400100Y-77310300D01*
X102400100Y-77691300D01*
G37*
D13*
%TO.C,C4*%
X111739000Y-82436580D02*
X111739000Y-82155420D01*
X112759000Y-82436580D02*
X112759000Y-82155420D01*
%TO.C,R3*%
X108218500Y-63983742D02*
X108218500Y-64458258D01*
X107173500Y-63983742D02*
X107173500Y-64458258D01*
%TO.C,C30*%
X140145380Y-65457800D02*
X139864220Y-65457800D01*
X140145380Y-64437800D02*
X139864220Y-64437800D01*
%TO.C,C12*%
X96264000Y-82690580D02*
X96264000Y-82409420D01*
X97284000Y-82690580D02*
X97284000Y-82409420D01*
%TO.C,TP11*%
X102936000Y-98110000D02*
X104836000Y-98110000D01*
X102936000Y-100010000D02*
X102936000Y-98110000D01*
X104836000Y-98110000D02*
X104836000Y-100010000D01*
X104836000Y-100010000D02*
X102936000Y-100010000D01*
D15*
%TO.C,J3*%
X130745000Y-54678000D02*
X128265000Y-54678000D01*
X130745000Y-53398000D02*
X130745000Y-54678000D01*
X128725000Y-50478000D02*
X115115000Y-50478000D01*
X127845000Y-55808000D02*
X127245000Y-55808000D01*
X127545000Y-55308000D02*
X127845000Y-55808000D01*
X127245000Y-55808000D02*
X127545000Y-55308000D01*
X115575000Y-54678000D02*
X113095000Y-54678000D01*
X113095000Y-54678000D02*
X113095000Y-53398000D01*
D13*
%TO.C,TP3*%
X138191200Y-77815400D02*
X140091200Y-77815400D01*
X138191200Y-79715400D02*
X138191200Y-77815400D01*
X140091200Y-77815400D02*
X140091200Y-79715400D01*
X140091200Y-79715400D02*
X138191200Y-79715400D01*
D15*
%TO.C,J7*%
X94732000Y-91073500D02*
X94732000Y-104973500D01*
X87132000Y-91073500D02*
X94732000Y-91073500D01*
X94732000Y-104973500D02*
X87132000Y-104973500D01*
X87132000Y-104973500D02*
X87132000Y-91073500D01*
D10*
X93482000Y-90023500D02*
G75*
G03*
X93482000Y-90023500I-100000J0D01*
G01*
D13*
%TO.C,J4*%
X140445800Y-76387000D02*
X139115800Y-76387000D01*
X140445800Y-75057000D02*
X140445800Y-76387000D01*
X140445800Y-73787000D02*
X140445800Y-71187000D01*
X140445800Y-73787000D02*
X137785800Y-73787000D01*
X140445800Y-71187000D02*
X137785800Y-71187000D01*
X137785800Y-73787000D02*
X137785800Y-71187000D01*
%TO.C,C7*%
X121275780Y-85875800D02*
X120994620Y-85875800D01*
X121275780Y-84855800D02*
X120994620Y-84855800D01*
%TO.C,R9*%
X163590500Y-96892342D02*
X163590500Y-97366858D01*
X162545500Y-96892342D02*
X162545500Y-97366858D01*
%TO.C,C8*%
X121275780Y-87780800D02*
X120994620Y-87780800D01*
X121275780Y-86760800D02*
X120994620Y-86760800D01*
D10*
%TO.C,J2*%
X142538600Y-55290100D02*
G75*
G03*
X142538600Y-55290100I-100000J0D01*
G01*
D15*
X133168600Y-53990100D02*
X133168600Y-53240100D01*
X135343600Y-53990100D02*
X133168600Y-53990100D01*
X143293600Y-50290100D02*
X135293600Y-50290100D01*
X145418600Y-53240100D02*
X145418600Y-53990100D01*
X145418600Y-53990100D02*
X143243600Y-53990100D01*
D10*
%TO.C,J1*%
X92588400Y-61163200D02*
G75*
G03*
X92588400Y-61163200I-100000J0D01*
G01*
D15*
X91188400Y-70433200D02*
X90438400Y-70433200D01*
X91188400Y-68258200D02*
X91188400Y-70433200D01*
X87488400Y-60308200D02*
X87488400Y-68308200D01*
X90438400Y-58183200D02*
X91188400Y-58183200D01*
X91188400Y-58183200D02*
X91188400Y-60358200D01*
%TD*%
%LPC*%
%TO.C,J3*%
D18*
X131221200Y-53154200D02*
X128968800Y-53154200D01*
X128968800Y-50001800D01*
X131221200Y-50001800D01*
X131221200Y-53154200D01*
G36*
X131221200Y-53154200D02*
G01*
X128968800Y-53154200D01*
X128968800Y-50001800D01*
X131221200Y-50001800D01*
X131221200Y-53154200D01*
G37*
X128021200Y-55054200D02*
X127068800Y-55054200D01*
X127068800Y-53601800D01*
X128021200Y-53601800D01*
X128021200Y-55054200D01*
G36*
X128021200Y-55054200D02*
G01*
X127068800Y-55054200D01*
X127068800Y-53601800D01*
X128021200Y-53601800D01*
X128021200Y-55054200D01*
G37*
X126771200Y-55054200D02*
X125818800Y-55054200D01*
X125818800Y-53601800D01*
X126771200Y-53601800D01*
X126771200Y-55054200D01*
G36*
X126771200Y-55054200D02*
G01*
X125818800Y-55054200D01*
X125818800Y-53601800D01*
X126771200Y-53601800D01*
X126771200Y-55054200D01*
G37*
X125521200Y-55054200D02*
X124568800Y-55054200D01*
X124568800Y-53601800D01*
X125521200Y-53601800D01*
X125521200Y-55054200D01*
G36*
X125521200Y-55054200D02*
G01*
X124568800Y-55054200D01*
X124568800Y-53601800D01*
X125521200Y-53601800D01*
X125521200Y-55054200D01*
G37*
X124271200Y-55054200D02*
X123318800Y-55054200D01*
X123318800Y-53601800D01*
X124271200Y-53601800D01*
X124271200Y-55054200D01*
G36*
X124271200Y-55054200D02*
G01*
X123318800Y-55054200D01*
X123318800Y-53601800D01*
X124271200Y-53601800D01*
X124271200Y-55054200D01*
G37*
X123021200Y-55054200D02*
X122068800Y-55054200D01*
X122068800Y-53601800D01*
X123021200Y-53601800D01*
X123021200Y-55054200D01*
G36*
X123021200Y-55054200D02*
G01*
X122068800Y-55054200D01*
X122068800Y-53601800D01*
X123021200Y-53601800D01*
X123021200Y-55054200D01*
G37*
X121771200Y-55054200D02*
X120818800Y-55054200D01*
X120818800Y-53601800D01*
X121771200Y-53601800D01*
X121771200Y-55054200D01*
G36*
X121771200Y-55054200D02*
G01*
X120818800Y-55054200D01*
X120818800Y-53601800D01*
X121771200Y-53601800D01*
X121771200Y-55054200D01*
G37*
X120521200Y-55054200D02*
X119568800Y-55054200D01*
X119568800Y-53601800D01*
X120521200Y-53601800D01*
X120521200Y-55054200D01*
G36*
X120521200Y-55054200D02*
G01*
X119568800Y-55054200D01*
X119568800Y-53601800D01*
X120521200Y-53601800D01*
X120521200Y-55054200D01*
G37*
X119271200Y-55054200D02*
X118318800Y-55054200D01*
X118318800Y-53601800D01*
X119271200Y-53601800D01*
X119271200Y-55054200D01*
G36*
X119271200Y-55054200D02*
G01*
X118318800Y-55054200D01*
X118318800Y-53601800D01*
X119271200Y-53601800D01*
X119271200Y-55054200D01*
G37*
X118021200Y-55054200D02*
X117068800Y-55054200D01*
X117068800Y-53601800D01*
X118021200Y-53601800D01*
X118021200Y-55054200D01*
G36*
X118021200Y-55054200D02*
G01*
X117068800Y-55054200D01*
X117068800Y-53601800D01*
X118021200Y-53601800D01*
X118021200Y-55054200D01*
G37*
X116771200Y-55054200D02*
X115818800Y-55054200D01*
X115818800Y-53601800D01*
X116771200Y-53601800D01*
X116771200Y-55054200D01*
G36*
X116771200Y-55054200D02*
G01*
X115818800Y-55054200D01*
X115818800Y-53601800D01*
X116771200Y-53601800D01*
X116771200Y-55054200D01*
G37*
X114871200Y-53154200D02*
X112618800Y-53154200D01*
X112618800Y-50001800D01*
X114871200Y-50001800D01*
X114871200Y-53154200D01*
G36*
X114871200Y-53154200D02*
G01*
X112618800Y-53154200D01*
X112618800Y-50001800D01*
X114871200Y-50001800D01*
X114871200Y-53154200D01*
G37*
%TD*%
D19*
%TO.C,H4*%
X167894000Y-53217000D03*
%TD*%
D20*
%TO.C,IC2*%
X148690000Y-71170000D03*
D21*
X164495000Y-62175000D03*
X164495000Y-64175000D03*
X164495000Y-66175000D03*
X164495000Y-68175000D03*
X164495000Y-70175000D03*
X164495000Y-72175000D03*
X164495000Y-74175000D03*
X164495000Y-76175000D03*
X164495000Y-78175000D03*
X164495000Y-80175000D03*
X164495000Y-82175000D03*
X164495000Y-84175000D03*
X164495000Y-86175000D03*
X164495000Y-88175000D03*
X164495000Y-90175000D03*
X164495000Y-92175000D03*
D22*
X160595000Y-94285000D03*
X158595000Y-94285000D03*
X156595000Y-94285000D03*
X154595000Y-94285000D03*
X152595000Y-94285000D03*
X150595000Y-94285000D03*
X148595000Y-94285000D03*
X146595000Y-94285000D03*
D21*
X142635000Y-92205000D03*
X142635000Y-90205000D03*
X142635000Y-88205000D03*
X142635000Y-86205000D03*
X142635000Y-84205000D03*
X142635000Y-82205000D03*
X142635000Y-80205000D03*
X142635000Y-78205000D03*
X142635000Y-76205000D03*
X142635000Y-74205000D03*
X142635000Y-72205000D03*
X142635000Y-70205000D03*
X142635000Y-68205000D03*
%TD*%
D19*
%TO.C,H3*%
X109728000Y-53090000D03*
%TD*%
%TO.C,H2*%
X110490000Y-102235000D03*
%TD*%
%TO.C,H1*%
X167894000Y-102239000D03*
%TD*%
D23*
%TO.C,J9*%
X131445000Y-58420000D03*
X133985000Y-58420000D03*
X136525000Y-58420000D03*
X139065000Y-58420000D03*
X141605000Y-58420000D03*
D24*
X144145000Y-58420000D03*
%TD*%
D23*
%TO.C,J8*%
X104775000Y-58420000D03*
X107315000Y-58420000D03*
X109855000Y-58420000D03*
X112395000Y-58420000D03*
X114935000Y-58420000D03*
X117475000Y-58420000D03*
X120015000Y-58420000D03*
X122555000Y-58420000D03*
X125095000Y-58420000D03*
D24*
X127635000Y-58420000D03*
%TD*%
D25*
%TO.C,TP16*%
X159867600Y-59131200D03*
%TD*%
D26*
%TO.C,C18*%
X96253000Y-92964000D03*
X97803000Y-92964000D03*
%TD*%
D27*
%TO.C,U5*%
X104307000Y-65491000D03*
X104307000Y-64841000D03*
X104307000Y-64191000D03*
X104307000Y-63541000D03*
D28*
X103337000Y-62571000D03*
X102687000Y-62571000D03*
X102037000Y-62571000D03*
X101387000Y-62571000D03*
D27*
X100417000Y-63541000D03*
X100417000Y-64191000D03*
X100417000Y-64841000D03*
X100417000Y-65491000D03*
D28*
X101387000Y-66461000D03*
X102037000Y-66461000D03*
X102687000Y-66461000D03*
X103337000Y-66461000D03*
D29*
X102362000Y-64516000D03*
%TD*%
D30*
%TO.C,R2*%
X134747000Y-72580000D03*
X134747000Y-70930000D03*
%TD*%
D25*
%TO.C,TP13*%
X93980000Y-80772000D03*
%TD*%
D24*
%TO.C,J12*%
X163322000Y-100838000D03*
D23*
X163322000Y-103378000D03*
X160782000Y-100838000D03*
X160782000Y-103378000D03*
X158242000Y-100838000D03*
X158242000Y-103378000D03*
X155702000Y-100838000D03*
X155702000Y-103378000D03*
X153162000Y-100838000D03*
X153162000Y-103378000D03*
X150622000Y-100838000D03*
X150622000Y-103378000D03*
X148082000Y-100838000D03*
X148082000Y-103378000D03*
X145542000Y-100838000D03*
X145542000Y-103378000D03*
X143002000Y-100838000D03*
X143002000Y-103378000D03*
X140462000Y-100838000D03*
X140462000Y-103378000D03*
X137922000Y-100838000D03*
X137922000Y-103378000D03*
X135382000Y-100838000D03*
X135382000Y-103378000D03*
X132842000Y-100838000D03*
X132842000Y-103378000D03*
X130302000Y-100838000D03*
X130302000Y-103378000D03*
X127762000Y-100838000D03*
X127762000Y-103378000D03*
X125222000Y-100838000D03*
X125222000Y-103378000D03*
X122682000Y-100838000D03*
X122682000Y-103378000D03*
X120142000Y-100838000D03*
X120142000Y-103378000D03*
X117602000Y-100838000D03*
X117602000Y-103378000D03*
X115062000Y-100838000D03*
X115062000Y-103378000D03*
%TD*%
D31*
%TO.C,L1*%
X162604800Y-59004200D03*
X165404800Y-59004200D03*
%TD*%
D32*
%TO.C,U2*%
X101092000Y-82173998D03*
X101092000Y-83123999D03*
X101092000Y-84074000D03*
X103847900Y-84074000D03*
X103847900Y-82173998D03*
%TD*%
D26*
%TO.C,C15*%
X92646200Y-77266800D03*
X94196200Y-77266800D03*
%TD*%
%TO.C,C6*%
X114795000Y-73660000D03*
X116345000Y-73660000D03*
%TD*%
D30*
%TO.C,R1*%
X114300000Y-90487000D03*
X114300000Y-88837000D03*
%TD*%
D33*
%TO.C,C24*%
X101272000Y-60665000D03*
X99722000Y-60665000D03*
%TD*%
D26*
%TO.C,C17*%
X104635000Y-77978000D03*
X106185000Y-77978000D03*
%TD*%
D34*
%TO.C,C13*%
X98806000Y-83325000D03*
X98806000Y-81775000D03*
%TD*%
D25*
%TO.C,TP1*%
X114046000Y-86614000D03*
%TD*%
D30*
%TO.C,R8*%
X168148000Y-97916000D03*
X168148000Y-96266000D03*
%TD*%
D26*
%TO.C,C5*%
X114795000Y-72136000D03*
X116345000Y-72136000D03*
%TD*%
D35*
%TO.C,U4*%
X100126800Y-92026798D03*
X100126800Y-92526800D03*
X100126800Y-93026799D03*
X100126800Y-93526800D03*
X100126800Y-94026800D03*
X100126800Y-94526798D03*
X100126800Y-95026800D03*
X100126800Y-95526799D03*
X104495600Y-95526802D03*
X104495600Y-95026800D03*
X104495600Y-94526801D03*
X104495600Y-94026800D03*
X104495600Y-93526800D03*
X104495600Y-93026802D03*
X104495600Y-92526800D03*
X104495600Y-92026801D03*
D36*
X102311200Y-93776800D03*
%TD*%
D33*
%TO.C,C29*%
X140729000Y-63296800D03*
X139179000Y-63296800D03*
%TD*%
D37*
%TO.C,D1*%
X138709400Y-68402100D03*
X138709400Y-69977100D03*
%TD*%
D30*
%TO.C,R10*%
X165354000Y-97916000D03*
X165354000Y-96266000D03*
%TD*%
D38*
%TO.C,C26*%
X169037000Y-58102200D03*
X169037000Y-59652200D03*
%TD*%
D34*
%TO.C,C16*%
X106426000Y-83833000D03*
X106426000Y-82283000D03*
%TD*%
%TO.C,C2*%
X110344000Y-83071000D03*
X110344000Y-81521000D03*
%TD*%
%TO.C,C11*%
X136525000Y-74295000D03*
X136525000Y-72745000D03*
%TD*%
D26*
%TO.C,C14*%
X92659200Y-75488800D03*
X94209200Y-75488800D03*
%TD*%
D24*
%TO.C,J6*%
X168402000Y-80005000D03*
D23*
X168402000Y-82545000D03*
%TD*%
D33*
%TO.C,C28*%
X140754400Y-61798200D03*
X139204400Y-61798200D03*
%TD*%
D38*
%TO.C,C10*%
X125199200Y-81415800D03*
X125199200Y-82965800D03*
%TD*%
D25*
%TO.C,TP12*%
X109220000Y-86360000D03*
%TD*%
D26*
%TO.C,C19*%
X95999000Y-94742000D03*
X97549000Y-94742000D03*
%TD*%
%TO.C,C21*%
X108191000Y-95504000D03*
X109741000Y-95504000D03*
%TD*%
D38*
%TO.C,C27*%
X167233600Y-58076800D03*
X167233600Y-59626800D03*
%TD*%
D30*
%TO.C,R4*%
X98211000Y-65300000D03*
X98211000Y-63650000D03*
%TD*%
D33*
%TO.C,C22*%
X109474000Y-93218000D03*
X107924000Y-93218000D03*
%TD*%
D26*
%TO.C,C3*%
X110477000Y-78994000D03*
X112027000Y-78994000D03*
%TD*%
D39*
%TO.C,J5*%
X163001200Y-55755700D03*
D40*
X161001200Y-55755700D03*
%TD*%
D33*
%TO.C,C31*%
X140576600Y-66725800D03*
X139026600Y-66725800D03*
%TD*%
D25*
%TO.C,TP8*%
X97282000Y-57150000D03*
%TD*%
D41*
%TO.C,IC1*%
X115109200Y-77810800D03*
X115109200Y-78310800D03*
X115109200Y-78810800D03*
X115109200Y-79310800D03*
X115109200Y-79810800D03*
X115109200Y-80310800D03*
X115109200Y-80810800D03*
X115109200Y-81310800D03*
X115109200Y-81810800D03*
X115109200Y-82310800D03*
D42*
X115809200Y-83010800D03*
X116309200Y-83010800D03*
X116809200Y-83010800D03*
X117309200Y-83010800D03*
X117809200Y-83010800D03*
X118309200Y-83010800D03*
X118809200Y-83010800D03*
X119309200Y-83010800D03*
X119809200Y-83010800D03*
X120309200Y-83010800D03*
D41*
X121009200Y-82310800D03*
X121009200Y-81810800D03*
X121009200Y-81310800D03*
X121009200Y-80810800D03*
X121009200Y-80310800D03*
X121009200Y-79810800D03*
X121009200Y-79310800D03*
X121009200Y-78810800D03*
X121009200Y-78310800D03*
X121009200Y-77810800D03*
D42*
X120309200Y-77110800D03*
X119809200Y-77110800D03*
X119309200Y-77110800D03*
X118809200Y-77110800D03*
X118309200Y-77110800D03*
X117809200Y-77110800D03*
X117309200Y-77110800D03*
X116809200Y-77110800D03*
X116309200Y-77110800D03*
X115809200Y-77110800D03*
D43*
X118059200Y-80060800D03*
%TD*%
D38*
%TO.C,C9*%
X123294200Y-81415800D03*
X123294200Y-82965800D03*
%TD*%
D26*
%TO.C,C1*%
X110352000Y-77216000D03*
X111902000Y-77216000D03*
%TD*%
D44*
%TO.C,PS1*%
X154863800Y-56286400D03*
D45*
X152323800Y-56286400D03*
X149783800Y-56286400D03*
%TD*%
D26*
%TO.C,C25*%
X102857000Y-69342000D03*
X104407000Y-69342000D03*
%TD*%
D46*
%TO.C,U1*%
X136118600Y-62026800D03*
X134848600Y-62026800D03*
X133578600Y-62026800D03*
X132308600Y-62026800D03*
X131038600Y-62026800D03*
X129768600Y-62026800D03*
X128498600Y-62026800D03*
X127228600Y-62026800D03*
X125958600Y-62026800D03*
X124688600Y-62026800D03*
X124688600Y-68783200D03*
X125958600Y-68783200D03*
X127228600Y-68783200D03*
X128498600Y-68783200D03*
X129768600Y-68783200D03*
X131038600Y-68783200D03*
X132308600Y-68783200D03*
X133578600Y-68783200D03*
X134848600Y-68783200D03*
X136118600Y-68783200D03*
%TD*%
D33*
%TO.C,C20*%
X105423000Y-75742800D03*
X103873000Y-75742800D03*
%TD*%
D26*
%TO.C,C23*%
X103365000Y-60960000D03*
X104915000Y-60960000D03*
%TD*%
D35*
%TO.C,U3*%
X96824800Y-74500798D03*
X96824800Y-75000800D03*
X96824800Y-75500799D03*
X96824800Y-76000800D03*
X96824800Y-76500800D03*
X96824800Y-77000798D03*
X96824800Y-77500800D03*
X96824800Y-78000799D03*
X101193600Y-78000802D03*
X101193600Y-77500800D03*
X101193600Y-77000801D03*
X101193600Y-76500800D03*
X101193600Y-76000800D03*
X101193600Y-75500802D03*
X101193600Y-75000800D03*
X101193600Y-74500801D03*
D36*
X99009200Y-76250800D03*
%TD*%
D34*
%TO.C,C4*%
X112249000Y-83071000D03*
X112249000Y-81521000D03*
%TD*%
D47*
%TO.C,R3*%
X107696000Y-63396000D03*
X107696000Y-65046000D03*
%TD*%
D33*
%TO.C,C30*%
X140779800Y-64947800D03*
X139229800Y-64947800D03*
%TD*%
D34*
%TO.C,C12*%
X96774000Y-83325000D03*
X96774000Y-81775000D03*
%TD*%
D25*
%TO.C,TP11*%
X103886000Y-99060000D03*
%TD*%
%TO.C,TP3*%
X139141200Y-78765400D03*
%TD*%
D48*
%TO.C,J7*%
X93382000Y-93023500D03*
D49*
X93382000Y-95023500D03*
X93382000Y-97023500D03*
X93382000Y-99023500D03*
X93382000Y-101023500D03*
X93382000Y-103023500D03*
%TD*%
D24*
%TO.C,J4*%
X139115800Y-75057000D03*
D23*
X139115800Y-72517000D03*
%TD*%
D33*
%TO.C,C7*%
X121910200Y-85365800D03*
X120360200Y-85365800D03*
%TD*%
D47*
%TO.C,R9*%
X163068000Y-96304600D03*
X163068000Y-97954600D03*
%TD*%
D33*
%TO.C,C8*%
X121910200Y-87270800D03*
X120360200Y-87270800D03*
%TD*%
D50*
%TO.C,J2*%
X133618600Y-51390100D03*
X144968600Y-51390100D03*
D51*
X136168600Y-54140100D03*
X137418600Y-54140100D03*
X138668600Y-54140100D03*
X139918600Y-54140100D03*
X141168600Y-54140100D03*
X142418600Y-54140100D03*
%TD*%
D52*
%TO.C,J1*%
X88588400Y-69983200D03*
X88588400Y-58633200D03*
D53*
X91338400Y-67433200D03*
X91338400Y-66183200D03*
X91338400Y-64933200D03*
X91338400Y-63683200D03*
X91338400Y-62433200D03*
X91338400Y-61183200D03*
%TD*%
%LPD*%
M02*
