%TF.GenerationSoftware,KiCad,Pcbnew,7.0.7*%
%TF.CreationDate,2024-08-03T11:40:47-04:00*%
%TF.ProjectId,mainbox1.0,6d61696e-626f-4783-912e-302e6b696361,rev?*%
%TF.SameCoordinates,Original*%
%TF.FileFunction,Paste,Top*%
%TF.FilePolarity,Positive*%
%FSLAX46Y46*%
G04 Gerber Fmt 4.6, Leading zero omitted, Abs format (unit mm)*
G04 Created by KiCad (PCBNEW 7.0.7) date 2024-08-03 11:40:47*
%MOMM*%
%LPD*%
G01*
G04 APERTURE LIST*
G04 Aperture macros list*
%AMRoundRect*
0 Rectangle with rounded corners*
0 $1 Rounding radius*
0 $2 $3 $4 $5 $6 $7 $8 $9 X,Y pos of 4 corners*
0 Add a 4 corners polygon primitive as box body*
4,1,4,$2,$3,$4,$5,$6,$7,$8,$9,$2,$3,0*
0 Add four circle primitives for the rounded corners*
1,1,$1+$1,$2,$3*
1,1,$1+$1,$4,$5*
1,1,$1+$1,$6,$7*
1,1,$1+$1,$8,$9*
0 Add four rect primitives between the rounded corners*
20,1,$1+$1,$2,$3,$4,$5,0*
20,1,$1+$1,$4,$5,$6,$7,0*
20,1,$1+$1,$6,$7,$8,$9,0*
20,1,$1+$1,$8,$9,$2,$3,0*%
G04 Aperture macros list end*
%ADD10C,0.010000*%
%ADD11RoundRect,0.100000X-1.295000X-1.295000X1.295000X-1.295000X1.295000X1.295000X-1.295000X1.295000X0*%
%ADD12RoundRect,0.380000X-1.120000X-0.380000X1.120000X-0.380000X1.120000X0.380000X-1.120000X0.380000X0*%
%ADD13RoundRect,0.380000X0.380000X-1.120000X0.380000X1.120000X-0.380000X1.120000X-0.380000X-1.120000X0*%
%ADD14RoundRect,0.225000X-0.225000X-0.250000X0.225000X-0.250000X0.225000X0.250000X-0.225000X0.250000X0*%
%ADD15RoundRect,0.040000X0.380000X0.120000X-0.380000X0.120000X-0.380000X-0.120000X0.380000X-0.120000X0*%
%ADD16RoundRect,0.040000X0.120000X0.380000X-0.120000X0.380000X-0.120000X-0.380000X0.120000X-0.380000X0*%
%ADD17RoundRect,0.200000X0.275000X-0.200000X0.275000X0.200000X-0.275000X0.200000X-0.275000X-0.200000X0*%
%ADD18RoundRect,0.250000X-0.375000X-1.075000X0.375000X-1.075000X0.375000X1.075000X-0.375000X1.075000X0*%
%ADD19R,1.003300X0.508000*%
%ADD20RoundRect,0.225000X0.225000X0.250000X-0.225000X0.250000X-0.225000X-0.250000X0.225000X-0.250000X0*%
%ADD21RoundRect,0.225000X0.250000X-0.225000X0.250000X0.225000X-0.250000X0.225000X-0.250000X-0.225000X0*%
%ADD22R,1.397000X0.279400*%
%ADD23RoundRect,0.218750X-0.256250X0.218750X-0.256250X-0.218750X0.256250X-0.218750X0.256250X0.218750X0*%
%ADD24RoundRect,0.225000X-0.250000X0.225000X-0.250000X-0.225000X0.250000X-0.225000X0.250000X0.225000X0*%
%ADD25R,0.850000X0.300000*%
%ADD26R,0.300000X0.850000*%
%ADD27R,4.050000X4.050000*%
%ADD28R,0.558800X2.159000*%
%ADD29RoundRect,0.200000X-0.275000X0.200000X-0.275000X-0.200000X0.275000X-0.200000X0.275000X0.200000X0*%
%ADD30R,2.100000X3.000000*%
%ADD31R,0.800000X1.300000*%
%ADD32R,3.000000X2.100000*%
%ADD33R,1.300000X0.800000*%
G04 APERTURE END LIST*
%TO.C,U5*%
D10*
X103182000Y-65336000D02*
X101542000Y-65336000D01*
X101542000Y-63696000D01*
X103182000Y-63696000D01*
X103182000Y-65336000D01*
G36*
X103182000Y-65336000D02*
G01*
X101542000Y-65336000D01*
X101542000Y-63696000D01*
X103182000Y-63696000D01*
X103182000Y-65336000D01*
G37*
%TO.C,U4*%
G36*
X103036700Y-93676800D02*
G01*
X101585700Y-93676800D01*
X101585700Y-92454400D01*
X103036700Y-92454400D01*
X103036700Y-93676800D01*
G37*
G36*
X103036700Y-95099200D02*
G01*
X101585700Y-95099200D01*
X101585700Y-93876800D01*
X103036700Y-93876800D01*
X103036700Y-95099200D01*
G37*
%TO.C,U3*%
G36*
X99734700Y-76150800D02*
G01*
X98283700Y-76150800D01*
X98283700Y-74928400D01*
X99734700Y-74928400D01*
X99734700Y-76150800D01*
G37*
G36*
X99734700Y-77573200D02*
G01*
X98283700Y-77573200D01*
X98283700Y-76350800D01*
X99734700Y-76350800D01*
X99734700Y-77573200D01*
G37*
%TD*%
D11*
%TO.C,IC2*%
X148690000Y-71170000D03*
D12*
X164495000Y-62175000D03*
X164495000Y-64175000D03*
X164495000Y-66175000D03*
X164495000Y-68175000D03*
X164495000Y-70175000D03*
X164495000Y-72175000D03*
X164495000Y-74175000D03*
X164495000Y-76175000D03*
X164495000Y-78175000D03*
X164495000Y-80175000D03*
X164495000Y-82175000D03*
X164495000Y-84175000D03*
X164495000Y-86175000D03*
X164495000Y-88175000D03*
X164495000Y-90175000D03*
X164495000Y-92175000D03*
D13*
X160595000Y-94285000D03*
X158595000Y-94285000D03*
X156595000Y-94285000D03*
X154595000Y-94285000D03*
X152595000Y-94285000D03*
X150595000Y-94285000D03*
X148595000Y-94285000D03*
X146595000Y-94285000D03*
D12*
X142635000Y-92205000D03*
X142635000Y-90205000D03*
X142635000Y-88205000D03*
X142635000Y-86205000D03*
X142635000Y-84205000D03*
X142635000Y-82205000D03*
X142635000Y-80205000D03*
X142635000Y-78205000D03*
X142635000Y-76205000D03*
X142635000Y-74205000D03*
X142635000Y-72205000D03*
X142635000Y-70205000D03*
X142635000Y-68205000D03*
%TD*%
D14*
%TO.C,C18*%
X96253000Y-92964000D03*
X97803000Y-92964000D03*
%TD*%
D15*
%TO.C,U5*%
X104307000Y-65491000D03*
X104307000Y-64841000D03*
X104307000Y-64191000D03*
X104307000Y-63541000D03*
D16*
X103337000Y-62571000D03*
X102687000Y-62571000D03*
X102037000Y-62571000D03*
X101387000Y-62571000D03*
D15*
X100417000Y-63541000D03*
X100417000Y-64191000D03*
X100417000Y-64841000D03*
X100417000Y-65491000D03*
D16*
X101387000Y-66461000D03*
X102037000Y-66461000D03*
X102687000Y-66461000D03*
X103337000Y-66461000D03*
%TD*%
D17*
%TO.C,R2*%
X134747000Y-72580000D03*
X134747000Y-70930000D03*
%TD*%
D18*
%TO.C,L1*%
X162604800Y-59004200D03*
X165404800Y-59004200D03*
%TD*%
D19*
%TO.C,U2*%
X101092000Y-82173998D03*
X101092000Y-83123999D03*
X101092000Y-84074000D03*
X103847900Y-84074000D03*
X103847900Y-82173998D03*
%TD*%
D14*
%TO.C,C15*%
X92646200Y-77266800D03*
X94196200Y-77266800D03*
%TD*%
%TO.C,C6*%
X114795000Y-73660000D03*
X116345000Y-73660000D03*
%TD*%
D17*
%TO.C,R1*%
X114300000Y-90487000D03*
X114300000Y-88837000D03*
%TD*%
D20*
%TO.C,C24*%
X101272000Y-60665000D03*
X99722000Y-60665000D03*
%TD*%
D14*
%TO.C,C17*%
X104635000Y-77978000D03*
X106185000Y-77978000D03*
%TD*%
D21*
%TO.C,C13*%
X98806000Y-83325000D03*
X98806000Y-81775000D03*
%TD*%
D17*
%TO.C,R8*%
X168148000Y-97916000D03*
X168148000Y-96266000D03*
%TD*%
D14*
%TO.C,C5*%
X114795000Y-72136000D03*
X116345000Y-72136000D03*
%TD*%
D22*
%TO.C,U4*%
X100126800Y-92026798D03*
X100126800Y-92526800D03*
X100126800Y-93026799D03*
X100126800Y-93526800D03*
X100126800Y-94026800D03*
X100126800Y-94526798D03*
X100126800Y-95026800D03*
X100126800Y-95526799D03*
X104495600Y-95526802D03*
X104495600Y-95026800D03*
X104495600Y-94526801D03*
X104495600Y-94026800D03*
X104495600Y-93526800D03*
X104495600Y-93026802D03*
X104495600Y-92526800D03*
X104495600Y-92026801D03*
%TD*%
D20*
%TO.C,C29*%
X140729000Y-63296800D03*
X139179000Y-63296800D03*
%TD*%
D23*
%TO.C,D1*%
X138709400Y-68402100D03*
X138709400Y-69977100D03*
%TD*%
D17*
%TO.C,R10*%
X165354000Y-97916000D03*
X165354000Y-96266000D03*
%TD*%
D24*
%TO.C,C26*%
X169037000Y-58102200D03*
X169037000Y-59652200D03*
%TD*%
D21*
%TO.C,C16*%
X106426000Y-83833000D03*
X106426000Y-82283000D03*
%TD*%
%TO.C,C2*%
X110344000Y-83071000D03*
X110344000Y-81521000D03*
%TD*%
%TO.C,C11*%
X136525000Y-74295000D03*
X136525000Y-72745000D03*
%TD*%
D14*
%TO.C,C14*%
X92659200Y-75488800D03*
X94209200Y-75488800D03*
%TD*%
D20*
%TO.C,C28*%
X140754400Y-61798200D03*
X139204400Y-61798200D03*
%TD*%
D24*
%TO.C,C10*%
X125199200Y-81415800D03*
X125199200Y-82965800D03*
%TD*%
D14*
%TO.C,C19*%
X95999000Y-94742000D03*
X97549000Y-94742000D03*
%TD*%
%TO.C,C21*%
X108191000Y-95504000D03*
X109741000Y-95504000D03*
%TD*%
D24*
%TO.C,C27*%
X167233600Y-58076800D03*
X167233600Y-59626800D03*
%TD*%
D17*
%TO.C,R4*%
X98211000Y-65300000D03*
X98211000Y-63650000D03*
%TD*%
D20*
%TO.C,C22*%
X109474000Y-93218000D03*
X107924000Y-93218000D03*
%TD*%
D14*
%TO.C,C3*%
X110477000Y-78994000D03*
X112027000Y-78994000D03*
%TD*%
D20*
%TO.C,C31*%
X140576600Y-66725800D03*
X139026600Y-66725800D03*
%TD*%
D25*
%TO.C,IC1*%
X115109200Y-77810800D03*
X115109200Y-78310800D03*
X115109200Y-78810800D03*
X115109200Y-79310800D03*
X115109200Y-79810800D03*
X115109200Y-80310800D03*
X115109200Y-80810800D03*
X115109200Y-81310800D03*
X115109200Y-81810800D03*
X115109200Y-82310800D03*
D26*
X115809200Y-83010800D03*
X116309200Y-83010800D03*
X116809200Y-83010800D03*
X117309200Y-83010800D03*
X117809200Y-83010800D03*
X118309200Y-83010800D03*
X118809200Y-83010800D03*
X119309200Y-83010800D03*
X119809200Y-83010800D03*
X120309200Y-83010800D03*
D25*
X121009200Y-82310800D03*
X121009200Y-81810800D03*
X121009200Y-81310800D03*
X121009200Y-80810800D03*
X121009200Y-80310800D03*
X121009200Y-79810800D03*
X121009200Y-79310800D03*
X121009200Y-78810800D03*
X121009200Y-78310800D03*
X121009200Y-77810800D03*
D26*
X120309200Y-77110800D03*
X119809200Y-77110800D03*
X119309200Y-77110800D03*
X118809200Y-77110800D03*
X118309200Y-77110800D03*
X117809200Y-77110800D03*
X117309200Y-77110800D03*
X116809200Y-77110800D03*
X116309200Y-77110800D03*
X115809200Y-77110800D03*
D27*
X118059200Y-80060800D03*
%TD*%
D24*
%TO.C,C9*%
X123294200Y-81415800D03*
X123294200Y-82965800D03*
%TD*%
D14*
%TO.C,C1*%
X110352000Y-77216000D03*
X111902000Y-77216000D03*
%TD*%
%TO.C,C25*%
X102857000Y-69342000D03*
X104407000Y-69342000D03*
%TD*%
D28*
%TO.C,U1*%
X136118600Y-62026800D03*
X134848600Y-62026800D03*
X133578600Y-62026800D03*
X132308600Y-62026800D03*
X131038600Y-62026800D03*
X129768600Y-62026800D03*
X128498600Y-62026800D03*
X127228600Y-62026800D03*
X125958600Y-62026800D03*
X124688600Y-62026800D03*
X124688600Y-68783200D03*
X125958600Y-68783200D03*
X127228600Y-68783200D03*
X128498600Y-68783200D03*
X129768600Y-68783200D03*
X131038600Y-68783200D03*
X132308600Y-68783200D03*
X133578600Y-68783200D03*
X134848600Y-68783200D03*
X136118600Y-68783200D03*
%TD*%
D20*
%TO.C,C20*%
X105423000Y-75742800D03*
X103873000Y-75742800D03*
%TD*%
D14*
%TO.C,C23*%
X103365000Y-60960000D03*
X104915000Y-60960000D03*
%TD*%
D22*
%TO.C,U3*%
X96824800Y-74500798D03*
X96824800Y-75000800D03*
X96824800Y-75500799D03*
X96824800Y-76000800D03*
X96824800Y-76500800D03*
X96824800Y-77000798D03*
X96824800Y-77500800D03*
X96824800Y-78000799D03*
X101193600Y-78000802D03*
X101193600Y-77500800D03*
X101193600Y-77000801D03*
X101193600Y-76500800D03*
X101193600Y-76000800D03*
X101193600Y-75500802D03*
X101193600Y-75000800D03*
X101193600Y-74500801D03*
%TD*%
D21*
%TO.C,C4*%
X112249000Y-83071000D03*
X112249000Y-81521000D03*
%TD*%
D29*
%TO.C,R3*%
X107696000Y-63396000D03*
X107696000Y-65046000D03*
%TD*%
D20*
%TO.C,C30*%
X140779800Y-64947800D03*
X139229800Y-64947800D03*
%TD*%
D21*
%TO.C,C12*%
X96774000Y-83325000D03*
X96774000Y-81775000D03*
%TD*%
D30*
%TO.C,J3*%
X130095000Y-51578000D03*
X113745000Y-51578000D03*
D31*
X116295000Y-54328000D03*
X117545000Y-54328000D03*
X118795000Y-54328000D03*
X120045000Y-54328000D03*
X121295000Y-54328000D03*
X122545000Y-54328000D03*
X123795000Y-54328000D03*
X125045000Y-54328000D03*
X126295000Y-54328000D03*
X127545000Y-54328000D03*
%TD*%
D20*
%TO.C,C7*%
X121910200Y-85365800D03*
X120360200Y-85365800D03*
%TD*%
D29*
%TO.C,R9*%
X163068000Y-96304600D03*
X163068000Y-97954600D03*
%TD*%
D20*
%TO.C,C8*%
X121910200Y-87270800D03*
X120360200Y-87270800D03*
%TD*%
D30*
%TO.C,J2*%
X133618600Y-51390100D03*
X144968600Y-51390100D03*
D31*
X136168600Y-54140100D03*
X137418600Y-54140100D03*
X138668600Y-54140100D03*
X139918600Y-54140100D03*
X141168600Y-54140100D03*
X142418600Y-54140100D03*
%TD*%
D32*
%TO.C,J1*%
X88588400Y-69983200D03*
X88588400Y-58633200D03*
D33*
X91338400Y-67433200D03*
X91338400Y-66183200D03*
X91338400Y-64933200D03*
X91338400Y-63683200D03*
X91338400Y-62433200D03*
X91338400Y-61183200D03*
%TD*%
M02*
