%TF.GenerationSoftware,KiCad,Pcbnew,7.0.7*%
%TF.CreationDate,2024-08-03T11:40:46-04:00*%
%TF.ProjectId,mainbox1.0,6d61696e-626f-4783-912e-302e6b696361,rev?*%
%TF.SameCoordinates,Original*%
%TF.FileFunction,Copper,L2,Inr*%
%TF.FilePolarity,Positive*%
%FSLAX46Y46*%
G04 Gerber Fmt 4.6, Leading zero omitted, Abs format (unit mm)*
G04 Created by KiCad (PCBNEW 7.0.7) date 2024-08-03 11:40:46*
%MOMM*%
%LPD*%
G01*
G04 APERTURE LIST*
%TA.AperFunction,ComponentPad*%
%ADD10C,2.800000*%
%TD*%
%TA.AperFunction,ComponentPad*%
%ADD11C,1.300000*%
%TD*%
%TA.AperFunction,ComponentPad*%
%ADD12O,1.700000X1.700000*%
%TD*%
%TA.AperFunction,ComponentPad*%
%ADD13R,1.700000X1.700000*%
%TD*%
%TA.AperFunction,ComponentPad*%
%ADD14R,1.308000X1.308000*%
%TD*%
%TA.AperFunction,ComponentPad*%
%ADD15C,1.308000*%
%TD*%
%TA.AperFunction,ComponentPad*%
%ADD16R,1.508000X1.508000*%
%TD*%
%TA.AperFunction,ComponentPad*%
%ADD17C,1.508000*%
%TD*%
%TA.AperFunction,ComponentPad*%
%ADD18R,1.200000X1.200000*%
%TD*%
%TA.AperFunction,ComponentPad*%
%ADD19C,1.200000*%
%TD*%
%TA.AperFunction,ViaPad*%
%ADD20C,0.800000*%
%TD*%
%TA.AperFunction,ViaPad*%
%ADD21C,4.000000*%
%TD*%
%TA.AperFunction,ViaPad*%
%ADD22C,1.000000*%
%TD*%
%TA.AperFunction,ViaPad*%
%ADD23C,7.190000*%
%TD*%
G04 APERTURE END LIST*
D10*
%TO.N,N/C*%
%TO.C,H4*%
X167894000Y-53217000D03*
%TD*%
D11*
%TO.N,GND*%
%TO.C,IC2*%
X149225000Y-71755000D03*
X148105000Y-70595000D03*
%TD*%
D10*
%TO.N,N/C*%
%TO.C,H3*%
X109728000Y-53090000D03*
%TD*%
%TO.N,N/C*%
%TO.C,H2*%
X110490000Y-102235000D03*
%TD*%
%TO.N,N/C*%
%TO.C,H1*%
X167894000Y-102239000D03*
%TD*%
D12*
%TO.N,DS6*%
%TO.C,J9*%
X131445000Y-58420000D03*
%TO.N,DS5*%
X133985000Y-58420000D03*
%TO.N,DS4*%
X136525000Y-58420000D03*
%TO.N,DS3*%
X139065000Y-58420000D03*
%TO.N,DS2*%
X141605000Y-58420000D03*
D13*
%TO.N,DS1*%
X144145000Y-58420000D03*
%TD*%
D12*
%TO.N,ANI3*%
%TO.C,J8*%
X104775000Y-58420000D03*
%TO.N,ANI16*%
X107315000Y-58420000D03*
%TO.N,ANI1*%
X109855000Y-58420000D03*
%TO.N,ANI15*%
X112395000Y-58420000D03*
%TO.N,ANI14*%
X114935000Y-58420000D03*
%TO.N,ANI13*%
X117475000Y-58420000D03*
%TO.N,ANI11*%
X120015000Y-58420000D03*
%TO.N,ANI9*%
X122555000Y-58420000D03*
%TO.N,GND*%
X125095000Y-58420000D03*
D13*
%TO.N,5VASupply{slash}Ref*%
X127635000Y-58420000D03*
%TD*%
%TO.N,unconnected-(J12-Pin_1-Pad1)*%
%TO.C,J12*%
X163322000Y-100838000D03*
D12*
%TO.N,5.2V*%
X163322000Y-103378000D03*
%TO.N,DO1*%
X160782000Y-100838000D03*
%TO.N,5.2V*%
X160782000Y-103378000D03*
%TO.N,DO2*%
X158242000Y-100838000D03*
%TO.N,GND*%
X158242000Y-103378000D03*
%TO.N,DO3*%
X155702000Y-100838000D03*
%TO.N,Net-(J12-Pin_8)*%
X155702000Y-103378000D03*
%TO.N,GND*%
X153162000Y-100838000D03*
%TO.N,Net-(J12-Pin_10)*%
X153162000Y-103378000D03*
%TO.N,DO4*%
X150622000Y-100838000D03*
%TO.N,unconnected-(J12-Pin_12-Pad12)*%
X150622000Y-103378000D03*
%TO.N,DO5*%
X148082000Y-100838000D03*
%TO.N,unconnected-(J12-Pin_14-Pad14)*%
X148082000Y-103378000D03*
%TO.N,DO6*%
X145542000Y-100838000D03*
%TO.N,unconnected-(J12-Pin_16-Pad16)*%
X145542000Y-103378000D03*
%TO.N,3V3*%
X143002000Y-100838000D03*
%TO.N,unconnected-(J12-Pin_18-Pad18)*%
X143002000Y-103378000D03*
%TO.N,DIN*%
X140462000Y-100838000D03*
%TO.N,unconnected-(J12-Pin_20-Pad20)*%
X140462000Y-103378000D03*
%TO.N,DOUT*%
X137922000Y-100838000D03*
%TO.N,unconnected-(J12-Pin_22-Pad22)*%
X137922000Y-103378000D03*
%TO.N,SCLK*%
X135382000Y-100838000D03*
%TO.N,CS*%
X135382000Y-103378000D03*
%TO.N,unconnected-(J12-Pin_25-Pad25)*%
X132842000Y-100838000D03*
%TO.N,unconnected-(J12-Pin_26-Pad26)*%
X132842000Y-103378000D03*
%TO.N,unconnected-(J12-Pin_27-Pad27)*%
X130302000Y-100838000D03*
%TO.N,unconnected-(J12-Pin_28-Pad28)*%
X130302000Y-103378000D03*
%TO.N,unconnected-(J12-Pin_29-Pad29)*%
X127762000Y-100838000D03*
%TO.N,unconnected-(J12-Pin_30-Pad30)*%
X127762000Y-103378000D03*
%TO.N,unconnected-(J12-Pin_31-Pad31)*%
X125222000Y-100838000D03*
%TO.N,unconnected-(J12-Pin_32-Pad32)*%
X125222000Y-103378000D03*
%TO.N,unconnected-(J12-Pin_33-Pad33)*%
X122682000Y-100838000D03*
%TO.N,unconnected-(J12-Pin_34-Pad34)*%
X122682000Y-103378000D03*
%TO.N,unconnected-(J12-Pin_35-Pad35)*%
X120142000Y-100838000D03*
%TO.N,unconnected-(J12-Pin_36-Pad36)*%
X120142000Y-103378000D03*
%TO.N,unconnected-(J12-Pin_37-Pad37)*%
X117602000Y-100838000D03*
%TO.N,unconnected-(J12-Pin_38-Pad38)*%
X117602000Y-103378000D03*
%TO.N,unconnected-(J12-Pin_39-Pad39)*%
X115062000Y-100838000D03*
%TO.N,unconnected-(J12-Pin_40-Pad40)*%
X115062000Y-103378000D03*
%TD*%
D13*
%TO.N,Net-(IC2-DIO6{slash}~{RTS})*%
%TO.C,J6*%
X168402000Y-80005000D03*
D12*
%TO.N,Net-(IC2-DIO9{slash}ON{slash}~{SLEEP})*%
X168402000Y-82545000D03*
%TD*%
D14*
%TO.N,GND*%
%TO.C,J5*%
X163001200Y-55755700D03*
D15*
%TO.N,5VXbee*%
X161001200Y-55755700D03*
%TD*%
D16*
%TO.N,Net-(PS1-+VIN)*%
%TO.C,PS1*%
X154863800Y-56286400D03*
D17*
%TO.N,GND*%
X152323800Y-56286400D03*
%TO.N,Net-(D1-A)*%
X149783800Y-56286400D03*
%TD*%
D18*
%TO.N,GND*%
%TO.C,J7*%
X93382000Y-93023500D03*
D19*
X93382000Y-95023500D03*
X93382000Y-97023500D03*
%TO.N,5.2V*%
X93382000Y-99023500D03*
X93382000Y-101023500D03*
X93382000Y-103023500D03*
%TD*%
D13*
%TO.N,DINXBee*%
%TO.C,J4*%
X139115800Y-75057000D03*
D12*
%TO.N,DOUTXBee*%
X139115800Y-72517000D03*
%TD*%
D20*
%TO.N,VOUT*%
X145288000Y-71374000D03*
%TO.N,DS5*%
X134620000Y-57239500D03*
%TO.N,DS3*%
X139626850Y-55171851D03*
X132715000Y-60325000D03*
%TO.N,DS2*%
X133985000Y-60325000D03*
X140970000Y-55245000D03*
%TO.N,DS1*%
X136525000Y-60325000D03*
X142240000Y-55245000D03*
%TO.N,DS5*%
X137160000Y-55245000D03*
X130011024Y-60161024D03*
%TO.N,DS6*%
X129754500Y-59055000D03*
X135890000Y-54610000D03*
%TO.N,ANI16*%
X110490000Y-62230000D03*
%TO.N,5VASupply{slash}Ref*%
X127508000Y-55372000D03*
%TO.N,ANI3*%
X111210795Y-61505500D03*
X115824000Y-55245000D03*
%TO.N,ANI16*%
X112395000Y-61595000D03*
X117231267Y-55245991D03*
%TO.N,ANI1*%
X115570000Y-64770000D03*
X118481244Y-55245500D03*
%TO.N,ANI15*%
X119883003Y-55621003D03*
X118745000Y-66675000D03*
%TO.N,ANI14*%
X121158000Y-55626000D03*
X120650000Y-66675000D03*
%TO.N,ANI13*%
X123190000Y-66040000D03*
%TO.N,GND*%
X126365000Y-55245000D03*
X126365000Y-60325000D03*
X110998000Y-94488000D03*
X120371901Y-84098099D03*
X121927639Y-82535300D03*
X98806000Y-94751300D03*
X152908000Y-98552000D03*
X98552000Y-91186000D03*
X124460000Y-79756000D03*
X114808000Y-83566000D03*
X135994851Y-75565000D03*
X121939799Y-76981799D03*
X95250000Y-77216000D03*
X140970000Y-68884800D03*
X102870000Y-70612000D03*
X157226000Y-104902000D03*
X113894900Y-77621100D03*
X95250000Y-73914000D03*
X99466400Y-58228500D03*
X106426000Y-74930000D03*
X107696000Y-84836000D03*
X113226233Y-81143843D03*
X117348000Y-71120000D03*
X96774000Y-84836000D03*
D21*
X94996000Y-89916000D03*
D20*
X107950000Y-77724000D03*
D22*
%TO.N,5VADC*%
X102620181Y-75276300D03*
X104635000Y-77978000D03*
%TO.N,5VASupply{slash}Ref*%
X115585070Y-75442797D03*
X125984000Y-72390000D03*
X112014000Y-85090000D03*
X123444000Y-76200000D03*
D20*
%TO.N,3V3*%
X116586000Y-90170000D03*
X135890000Y-71755000D03*
X129286000Y-83820000D03*
X121666000Y-88646000D03*
X134645400Y-75565000D03*
%TO.N,5.2V*%
X108204000Y-94488000D03*
D23*
X98425000Y-104013000D03*
D20*
X106893185Y-92793460D03*
%TO.N,2.5V*%
X100584000Y-61468000D03*
X105410000Y-72898000D03*
X104882700Y-76754632D03*
X103378000Y-79248000D03*
D22*
%TO.N,5VXbee*%
X161391600Y-58226500D03*
D20*
%TO.N,VOUT*%
X161290000Y-90424000D03*
D22*
X140538200Y-79578200D03*
D20*
X165354000Y-94488000D03*
%TO.N,ANI1*%
X117221000Y-69050500D03*
X113295500Y-76708000D03*
%TO.N,ANI3*%
X113284000Y-74930000D03*
X113502221Y-79278324D03*
%TO.N,DOUT*%
X133604000Y-94742000D03*
X120523000Y-88764402D03*
X117084700Y-84328000D03*
%TO.N,DIN*%
X119380000Y-88646000D03*
X117216701Y-85720701D03*
%TO.N,Net-(IC1-~{ERROR})*%
X117954700Y-88387701D03*
X115316000Y-86614000D03*
%TO.N,SG1*%
X122744070Y-79434211D03*
X103405431Y-67553347D03*
%TO.N,SG2*%
X102486799Y-67947201D03*
X122428000Y-78486000D03*
%TO.N,ANI9*%
X124460000Y-71755000D03*
X124968000Y-55626000D03*
%TO.N,ANI11*%
X123113800Y-71120000D03*
X123825000Y-55523600D03*
%TO.N,SG1-*%
X105664000Y-65565500D03*
X94518274Y-62949644D03*
%TO.N,SG1+*%
X105918000Y-62992000D03*
X94488000Y-61950600D03*
%TO.N,DO5*%
X140208000Y-90678000D03*
X147066000Y-97536000D03*
%TO.N,DO4*%
X140208000Y-88900000D03*
X149606000Y-98298000D03*
%TO.N,DO3*%
X150622000Y-97282000D03*
X139700000Y-86360000D03*
%TO.N,DO2*%
X155702000Y-96520000D03*
X139700000Y-84582000D03*
%TO.N,DO1*%
X139700000Y-82804000D03*
X160274000Y-98552000D03*
%TO.N,DOUTXBee*%
X159512000Y-91440000D03*
X166624000Y-95504000D03*
%TO.N,DINXBee*%
X158242000Y-91440000D03*
X162560000Y-95250000D03*
%TO.N,Net-(J12-Pin_8)*%
X165608000Y-100059503D03*
%TD*%
%TA.AperFunction,Conductor*%
%TO.N,GND*%
G36*
X148626181Y-70765197D02*
G01*
X148642419Y-70778866D01*
X149066913Y-71203359D01*
X149100398Y-71264682D01*
X149103232Y-71291040D01*
X149103232Y-71292125D01*
X149083547Y-71359164D01*
X149035528Y-71402609D01*
X148986956Y-71427358D01*
X148986949Y-71427363D01*
X148897363Y-71516949D01*
X148897358Y-71516956D01*
X148885745Y-71539748D01*
X148837770Y-71590544D01*
X148769949Y-71607338D01*
X148703814Y-71584800D01*
X148687580Y-71571133D01*
X148263084Y-71146638D01*
X148229599Y-71085315D01*
X148226765Y-71058957D01*
X148226765Y-71057875D01*
X148246450Y-70990836D01*
X148294469Y-70947391D01*
X148343045Y-70922641D01*
X148432641Y-70833045D01*
X148444254Y-70810252D01*
X148492225Y-70759458D01*
X148560046Y-70742661D01*
X148626181Y-70765197D01*
G37*
%TD.AperFunction*%
%TA.AperFunction,Conductor*%
G36*
X168486819Y-49302033D02*
G01*
X168521998Y-49304338D01*
X168568508Y-49307386D01*
X168750259Y-49320385D01*
X168757900Y-49321415D01*
X168851538Y-49340041D01*
X168874220Y-49344553D01*
X168899823Y-49350122D01*
X169018466Y-49375931D01*
X169025183Y-49377795D01*
X169144237Y-49418209D01*
X169241471Y-49454476D01*
X169276541Y-49467557D01*
X169282299Y-49470043D01*
X169397752Y-49526978D01*
X169519706Y-49593570D01*
X169524434Y-49596432D01*
X169581371Y-49634476D01*
X169631449Y-49667937D01*
X169634158Y-49669854D01*
X169743452Y-49751671D01*
X169747145Y-49754665D01*
X169844302Y-49839869D01*
X169847248Y-49842628D01*
X169943569Y-49938949D01*
X169946326Y-49941892D01*
X170031529Y-50039048D01*
X170034532Y-50042753D01*
X170086364Y-50111992D01*
X170116343Y-50152039D01*
X170118261Y-50154749D01*
X170189762Y-50261757D01*
X170192628Y-50266491D01*
X170259221Y-50388447D01*
X170316155Y-50503899D01*
X170318641Y-50509657D01*
X170355012Y-50607168D01*
X170367996Y-50641978D01*
X170373089Y-50656981D01*
X170408397Y-50760996D01*
X170410272Y-50767752D01*
X170441646Y-50911979D01*
X170464780Y-51028280D01*
X170465815Y-51035960D01*
X170478817Y-51217750D01*
X170484167Y-51299366D01*
X170484300Y-51303423D01*
X170484300Y-110392975D01*
X170484167Y-110397032D01*
X170478817Y-110478648D01*
X170465815Y-110660438D01*
X170464780Y-110668118D01*
X170441646Y-110784420D01*
X170410272Y-110928646D01*
X170408397Y-110935401D01*
X170374097Y-111036448D01*
X170368008Y-111054388D01*
X170367995Y-111054425D01*
X170318641Y-111186741D01*
X170316155Y-111192499D01*
X170259221Y-111307952D01*
X170192628Y-111429907D01*
X170189761Y-111434641D01*
X170118261Y-111541649D01*
X170116343Y-111544359D01*
X170034544Y-111653631D01*
X170031523Y-111657357D01*
X169946329Y-111754502D01*
X169943555Y-111757464D01*
X169847264Y-111853755D01*
X169844302Y-111856529D01*
X169747157Y-111941723D01*
X169743431Y-111944744D01*
X169634159Y-112026543D01*
X169631449Y-112028461D01*
X169524441Y-112099961D01*
X169519707Y-112102828D01*
X169397752Y-112169421D01*
X169282299Y-112226355D01*
X169276541Y-112228841D01*
X169155756Y-112273893D01*
X169144218Y-112278197D01*
X169025201Y-112318597D01*
X169018446Y-112320472D01*
X168874220Y-112351846D01*
X168757918Y-112374980D01*
X168750238Y-112376015D01*
X168568448Y-112389017D01*
X168517382Y-112392364D01*
X168486825Y-112394367D01*
X168482776Y-112394500D01*
X88870024Y-112394500D01*
X88865974Y-112394367D01*
X88827954Y-112391875D01*
X88784350Y-112389017D01*
X88602560Y-112376015D01*
X88594880Y-112374980D01*
X88478579Y-112351846D01*
X88334352Y-112320472D01*
X88327596Y-112318597D01*
X88295881Y-112307831D01*
X88208578Y-112278196D01*
X88173768Y-112265212D01*
X88076257Y-112228841D01*
X88070499Y-112226355D01*
X87955047Y-112169421D01*
X87833091Y-112102828D01*
X87828357Y-112099962D01*
X87721349Y-112028461D01*
X87718639Y-112026543D01*
X87678592Y-111996564D01*
X87609353Y-111944732D01*
X87605648Y-111941729D01*
X87508492Y-111856526D01*
X87505549Y-111853769D01*
X87409228Y-111757448D01*
X87406469Y-111754502D01*
X87373450Y-111716851D01*
X87321265Y-111657345D01*
X87318271Y-111653652D01*
X87236454Y-111544358D01*
X87234537Y-111541649D01*
X87163036Y-111434641D01*
X87160170Y-111429906D01*
X87093578Y-111307952D01*
X87036643Y-111192499D01*
X87034157Y-111186741D01*
X87021076Y-111151671D01*
X86984805Y-111054425D01*
X86944395Y-110935383D01*
X86942531Y-110928666D01*
X86911153Y-110784420D01*
X86906641Y-110761738D01*
X86888015Y-110668100D01*
X86886985Y-110660459D01*
X86873986Y-110478708D01*
X86870938Y-110432198D01*
X86868633Y-110397019D01*
X86868500Y-110392964D01*
X86868500Y-103023500D01*
X92276785Y-103023500D01*
X92295602Y-103226582D01*
X92351417Y-103422747D01*
X92351422Y-103422760D01*
X92442327Y-103605321D01*
X92565237Y-103768081D01*
X92715958Y-103905480D01*
X92715960Y-103905482D01*
X92744676Y-103923262D01*
X92889363Y-104012848D01*
X93079544Y-104086524D01*
X93280024Y-104124000D01*
X93280026Y-104124000D01*
X93483974Y-104124000D01*
X93483976Y-104124000D01*
X93684456Y-104086524D01*
X93874637Y-104012848D01*
X94048041Y-103905481D01*
X94120917Y-103839045D01*
X94183720Y-103808428D01*
X94253107Y-103816625D01*
X94307048Y-103861035D01*
X94328416Y-103927557D01*
X94328306Y-103936766D01*
X94324561Y-104013000D01*
X94344306Y-104414913D01*
X94344306Y-104414919D01*
X94344307Y-104414921D01*
X94403351Y-104812962D01*
X94501125Y-105203295D01*
X94636687Y-105582168D01*
X94636688Y-105582170D01*
X94808737Y-105945937D01*
X95015608Y-106291079D01*
X95255322Y-106614296D01*
X95525551Y-106912448D01*
X95823703Y-107182677D01*
X95823709Y-107182682D01*
X96146918Y-107422390D01*
X96146920Y-107422391D01*
X96492062Y-107629262D01*
X96492065Y-107629263D01*
X96492066Y-107629264D01*
X96855830Y-107801312D01*
X97234705Y-107936875D01*
X97625044Y-108034650D01*
X98023087Y-108093694D01*
X98425000Y-108113439D01*
X98826913Y-108093694D01*
X99224956Y-108034650D01*
X99615295Y-107936875D01*
X99994170Y-107801312D01*
X100357934Y-107629264D01*
X100703082Y-107422390D01*
X101026291Y-107182682D01*
X101324448Y-106912448D01*
X101594682Y-106614291D01*
X101834390Y-106291082D01*
X102041264Y-105945934D01*
X102213312Y-105582170D01*
X102348875Y-105203295D01*
X102446650Y-104812956D01*
X102505694Y-104414913D01*
X102525439Y-104013000D01*
X102505694Y-103611087D01*
X102446650Y-103213044D01*
X102348875Y-102822705D01*
X102213312Y-102443830D01*
X102114543Y-102235001D01*
X108584645Y-102235001D01*
X108604039Y-102506160D01*
X108604040Y-102506167D01*
X108655555Y-102742977D01*
X108661825Y-102771801D01*
X108714991Y-102914344D01*
X108756830Y-103026519D01*
X108887109Y-103265107D01*
X108887110Y-103265108D01*
X108887113Y-103265113D01*
X109050029Y-103482742D01*
X109050033Y-103482746D01*
X109050038Y-103482752D01*
X109242247Y-103674961D01*
X109242253Y-103674966D01*
X109242258Y-103674971D01*
X109459887Y-103837887D01*
X109459891Y-103837889D01*
X109459892Y-103837890D01*
X109698481Y-103968169D01*
X109698480Y-103968169D01*
X109698484Y-103968170D01*
X109698487Y-103968172D01*
X109953199Y-104063175D01*
X110218840Y-104120961D01*
X110470605Y-104138967D01*
X110489999Y-104140355D01*
X110490000Y-104140355D01*
X110490001Y-104140355D01*
X110508100Y-104139060D01*
X110761160Y-104120961D01*
X111026801Y-104063175D01*
X111281513Y-103968172D01*
X111281517Y-103968169D01*
X111281519Y-103968169D01*
X111512782Y-103841890D01*
X111520113Y-103837887D01*
X111737742Y-103674971D01*
X111929971Y-103482742D01*
X112008380Y-103378000D01*
X113706341Y-103378000D01*
X113726936Y-103613403D01*
X113726938Y-103613413D01*
X113788094Y-103841655D01*
X113788096Y-103841659D01*
X113788097Y-103841663D01*
X113867801Y-104012588D01*
X113887965Y-104055830D01*
X113887967Y-104055834D01*
X113936370Y-104124960D01*
X114023505Y-104249401D01*
X114190599Y-104416495D01*
X114287384Y-104484264D01*
X114384165Y-104552032D01*
X114384167Y-104552033D01*
X114384170Y-104552035D01*
X114598337Y-104651903D01*
X114826592Y-104713063D01*
X115014918Y-104729539D01*
X115061999Y-104733659D01*
X115062000Y-104733659D01*
X115062001Y-104733659D01*
X115101234Y-104730226D01*
X115297408Y-104713063D01*
X115525663Y-104651903D01*
X115739830Y-104552035D01*
X115933401Y-104416495D01*
X116100495Y-104249401D01*
X116230424Y-104063842D01*
X116285002Y-104020217D01*
X116354500Y-104013023D01*
X116416855Y-104044546D01*
X116433575Y-104063842D01*
X116563500Y-104249395D01*
X116563505Y-104249401D01*
X116730599Y-104416495D01*
X116827384Y-104484264D01*
X116924165Y-104552032D01*
X116924167Y-104552033D01*
X116924170Y-104552035D01*
X117138337Y-104651903D01*
X117366592Y-104713063D01*
X117554918Y-104729539D01*
X117601999Y-104733659D01*
X117602000Y-104733659D01*
X117602001Y-104733659D01*
X117641234Y-104730226D01*
X117837408Y-104713063D01*
X118065663Y-104651903D01*
X118279830Y-104552035D01*
X118473401Y-104416495D01*
X118640495Y-104249401D01*
X118770424Y-104063842D01*
X118825002Y-104020217D01*
X118894500Y-104013023D01*
X118956855Y-104044546D01*
X118973575Y-104063842D01*
X119103500Y-104249395D01*
X119103505Y-104249401D01*
X119270599Y-104416495D01*
X119367384Y-104484265D01*
X119464165Y-104552032D01*
X119464167Y-104552033D01*
X119464170Y-104552035D01*
X119678337Y-104651903D01*
X119906592Y-104713063D01*
X120094918Y-104729539D01*
X120141999Y-104733659D01*
X120142000Y-104733659D01*
X120142001Y-104733659D01*
X120181234Y-104730226D01*
X120377408Y-104713063D01*
X120605663Y-104651903D01*
X120819830Y-104552035D01*
X121013401Y-104416495D01*
X121180495Y-104249401D01*
X121310424Y-104063842D01*
X121365002Y-104020217D01*
X121434500Y-104013023D01*
X121496855Y-104044546D01*
X121513575Y-104063842D01*
X121643500Y-104249395D01*
X121643505Y-104249401D01*
X121810599Y-104416495D01*
X121907384Y-104484265D01*
X122004165Y-104552032D01*
X122004167Y-104552033D01*
X122004170Y-104552035D01*
X122218337Y-104651903D01*
X122446592Y-104713063D01*
X122634918Y-104729539D01*
X122681999Y-104733659D01*
X122682000Y-104733659D01*
X122682001Y-104733659D01*
X122721234Y-104730226D01*
X122917408Y-104713063D01*
X123145663Y-104651903D01*
X123359830Y-104552035D01*
X123553401Y-104416495D01*
X123720495Y-104249401D01*
X123850424Y-104063842D01*
X123905002Y-104020217D01*
X123974500Y-104013023D01*
X124036855Y-104044546D01*
X124053575Y-104063842D01*
X124183500Y-104249395D01*
X124183505Y-104249401D01*
X124350599Y-104416495D01*
X124447384Y-104484265D01*
X124544165Y-104552032D01*
X124544167Y-104552033D01*
X124544170Y-104552035D01*
X124758337Y-104651903D01*
X124986592Y-104713063D01*
X125174918Y-104729539D01*
X125221999Y-104733659D01*
X125222000Y-104733659D01*
X125222001Y-104733659D01*
X125261234Y-104730226D01*
X125457408Y-104713063D01*
X125685663Y-104651903D01*
X125899830Y-104552035D01*
X126093401Y-104416495D01*
X126260495Y-104249401D01*
X126390424Y-104063842D01*
X126445002Y-104020217D01*
X126514500Y-104013023D01*
X126576855Y-104044546D01*
X126593575Y-104063842D01*
X126723500Y-104249395D01*
X126723505Y-104249401D01*
X126890599Y-104416495D01*
X126987384Y-104484265D01*
X127084165Y-104552032D01*
X127084167Y-104552033D01*
X127084170Y-104552035D01*
X127298337Y-104651903D01*
X127526592Y-104713063D01*
X127714918Y-104729539D01*
X127761999Y-104733659D01*
X127762000Y-104733659D01*
X127762001Y-104733659D01*
X127801234Y-104730226D01*
X127997408Y-104713063D01*
X128225663Y-104651903D01*
X128439830Y-104552035D01*
X128633401Y-104416495D01*
X128800495Y-104249401D01*
X128930424Y-104063842D01*
X128985002Y-104020217D01*
X129054500Y-104013023D01*
X129116855Y-104044546D01*
X129133575Y-104063842D01*
X129263500Y-104249395D01*
X129263505Y-104249401D01*
X129430599Y-104416495D01*
X129527384Y-104484265D01*
X129624165Y-104552032D01*
X129624167Y-104552033D01*
X129624170Y-104552035D01*
X129838337Y-104651903D01*
X130066592Y-104713063D01*
X130254918Y-104729539D01*
X130301999Y-104733659D01*
X130302000Y-104733659D01*
X130302001Y-104733659D01*
X130341234Y-104730226D01*
X130537408Y-104713063D01*
X130765663Y-104651903D01*
X130979830Y-104552035D01*
X131173401Y-104416495D01*
X131340495Y-104249401D01*
X131470424Y-104063842D01*
X131525002Y-104020217D01*
X131594500Y-104013023D01*
X131656855Y-104044546D01*
X131673575Y-104063842D01*
X131803500Y-104249395D01*
X131803505Y-104249401D01*
X131970599Y-104416495D01*
X132067384Y-104484265D01*
X132164165Y-104552032D01*
X132164167Y-104552033D01*
X132164170Y-104552035D01*
X132378337Y-104651903D01*
X132606592Y-104713063D01*
X132794918Y-104729539D01*
X132841999Y-104733659D01*
X132842000Y-104733659D01*
X132842001Y-104733659D01*
X132881234Y-104730226D01*
X133077408Y-104713063D01*
X133305663Y-104651903D01*
X133519830Y-104552035D01*
X133713401Y-104416495D01*
X133880495Y-104249401D01*
X134010424Y-104063842D01*
X134065002Y-104020217D01*
X134134500Y-104013023D01*
X134196855Y-104044546D01*
X134213575Y-104063842D01*
X134343500Y-104249395D01*
X134343505Y-104249401D01*
X134510599Y-104416495D01*
X134607384Y-104484264D01*
X134704165Y-104552032D01*
X134704167Y-104552033D01*
X134704170Y-104552035D01*
X134918337Y-104651903D01*
X135146592Y-104713063D01*
X135334918Y-104729539D01*
X135381999Y-104733659D01*
X135382000Y-104733659D01*
X135382001Y-104733659D01*
X135421234Y-104730226D01*
X135617408Y-104713063D01*
X135845663Y-104651903D01*
X136059830Y-104552035D01*
X136253401Y-104416495D01*
X136420495Y-104249401D01*
X136550424Y-104063842D01*
X136605002Y-104020217D01*
X136674500Y-104013023D01*
X136736855Y-104044546D01*
X136753575Y-104063842D01*
X136883500Y-104249395D01*
X136883505Y-104249401D01*
X137050599Y-104416495D01*
X137147384Y-104484264D01*
X137244165Y-104552032D01*
X137244167Y-104552033D01*
X137244170Y-104552035D01*
X137458337Y-104651903D01*
X137686592Y-104713063D01*
X137874918Y-104729539D01*
X137921999Y-104733659D01*
X137922000Y-104733659D01*
X137922001Y-104733659D01*
X137961234Y-104730226D01*
X138157408Y-104713063D01*
X138385663Y-104651903D01*
X138599830Y-104552035D01*
X138793401Y-104416495D01*
X138960495Y-104249401D01*
X139090424Y-104063842D01*
X139145002Y-104020217D01*
X139214500Y-104013023D01*
X139276855Y-104044546D01*
X139293575Y-104063842D01*
X139423500Y-104249395D01*
X139423505Y-104249401D01*
X139590599Y-104416495D01*
X139687384Y-104484264D01*
X139784165Y-104552032D01*
X139784167Y-104552033D01*
X139784170Y-104552035D01*
X139998337Y-104651903D01*
X140226592Y-104713063D01*
X140414918Y-104729539D01*
X140461999Y-104733659D01*
X140462000Y-104733659D01*
X140462001Y-104733659D01*
X140501234Y-104730226D01*
X140697408Y-104713063D01*
X140925663Y-104651903D01*
X141139830Y-104552035D01*
X141333401Y-104416495D01*
X141500495Y-104249401D01*
X141630424Y-104063842D01*
X141685002Y-104020217D01*
X141754500Y-104013023D01*
X141816855Y-104044546D01*
X141833575Y-104063842D01*
X141963500Y-104249395D01*
X141963505Y-104249401D01*
X142130599Y-104416495D01*
X142227384Y-104484265D01*
X142324165Y-104552032D01*
X142324167Y-104552033D01*
X142324170Y-104552035D01*
X142538337Y-104651903D01*
X142766592Y-104713063D01*
X142954918Y-104729539D01*
X143001999Y-104733659D01*
X143002000Y-104733659D01*
X143002001Y-104733659D01*
X143041234Y-104730226D01*
X143237408Y-104713063D01*
X143465663Y-104651903D01*
X143679830Y-104552035D01*
X143873401Y-104416495D01*
X144040495Y-104249401D01*
X144170424Y-104063842D01*
X144225002Y-104020217D01*
X144294500Y-104013023D01*
X144356855Y-104044546D01*
X144373575Y-104063842D01*
X144503500Y-104249395D01*
X144503505Y-104249401D01*
X144670599Y-104416495D01*
X144767384Y-104484265D01*
X144864165Y-104552032D01*
X144864167Y-104552033D01*
X144864170Y-104552035D01*
X145078337Y-104651903D01*
X145306592Y-104713063D01*
X145494918Y-104729539D01*
X145541999Y-104733659D01*
X145542000Y-104733659D01*
X145542001Y-104733659D01*
X145581234Y-104730226D01*
X145777408Y-104713063D01*
X146005663Y-104651903D01*
X146219830Y-104552035D01*
X146413401Y-104416495D01*
X146580495Y-104249401D01*
X146710424Y-104063842D01*
X146765002Y-104020217D01*
X146834500Y-104013023D01*
X146896855Y-104044546D01*
X146913575Y-104063842D01*
X147043500Y-104249395D01*
X147043505Y-104249401D01*
X147210599Y-104416495D01*
X147307384Y-104484265D01*
X147404165Y-104552032D01*
X147404167Y-104552033D01*
X147404170Y-104552035D01*
X147618337Y-104651903D01*
X147846592Y-104713063D01*
X148034918Y-104729539D01*
X148081999Y-104733659D01*
X148082000Y-104733659D01*
X148082001Y-104733659D01*
X148121234Y-104730226D01*
X148317408Y-104713063D01*
X148545663Y-104651903D01*
X148759830Y-104552035D01*
X148953401Y-104416495D01*
X149120495Y-104249401D01*
X149250424Y-104063842D01*
X149305002Y-104020217D01*
X149374500Y-104013023D01*
X149436855Y-104044546D01*
X149453575Y-104063842D01*
X149583500Y-104249395D01*
X149583505Y-104249401D01*
X149750599Y-104416495D01*
X149847384Y-104484265D01*
X149944165Y-104552032D01*
X149944167Y-104552033D01*
X149944170Y-104552035D01*
X150158337Y-104651903D01*
X150386592Y-104713063D01*
X150574918Y-104729539D01*
X150621999Y-104733659D01*
X150622000Y-104733659D01*
X150622001Y-104733659D01*
X150661234Y-104730226D01*
X150857408Y-104713063D01*
X151085663Y-104651903D01*
X151299830Y-104552035D01*
X151493401Y-104416495D01*
X151660495Y-104249401D01*
X151790424Y-104063842D01*
X151845002Y-104020217D01*
X151914500Y-104013023D01*
X151976855Y-104044546D01*
X151993575Y-104063842D01*
X152123500Y-104249395D01*
X152123505Y-104249401D01*
X152290599Y-104416495D01*
X152387384Y-104484265D01*
X152484165Y-104552032D01*
X152484167Y-104552033D01*
X152484170Y-104552035D01*
X152698337Y-104651903D01*
X152926592Y-104713063D01*
X153114918Y-104729539D01*
X153161999Y-104733659D01*
X153162000Y-104733659D01*
X153162001Y-104733659D01*
X153201234Y-104730226D01*
X153397408Y-104713063D01*
X153625663Y-104651903D01*
X153839830Y-104552035D01*
X154033401Y-104416495D01*
X154200495Y-104249401D01*
X154330424Y-104063842D01*
X154385002Y-104020217D01*
X154454500Y-104013023D01*
X154516855Y-104044546D01*
X154533575Y-104063842D01*
X154663500Y-104249395D01*
X154663505Y-104249401D01*
X154830599Y-104416495D01*
X154927384Y-104484265D01*
X155024165Y-104552032D01*
X155024167Y-104552033D01*
X155024170Y-104552035D01*
X155238337Y-104651903D01*
X155466592Y-104713063D01*
X155654918Y-104729539D01*
X155701999Y-104733659D01*
X155702000Y-104733659D01*
X155702001Y-104733659D01*
X155741234Y-104730226D01*
X155937408Y-104713063D01*
X156165663Y-104651903D01*
X156379830Y-104552035D01*
X156573401Y-104416495D01*
X156740495Y-104249401D01*
X156870730Y-104063405D01*
X156925307Y-104019781D01*
X156994805Y-104012587D01*
X157057160Y-104044110D01*
X157073879Y-104063405D01*
X157203890Y-104249078D01*
X157370917Y-104416105D01*
X157564421Y-104551600D01*
X157778507Y-104651429D01*
X157778516Y-104651433D01*
X157992000Y-104708634D01*
X157992000Y-103990301D01*
X158011685Y-103923262D01*
X158064489Y-103877507D01*
X158133647Y-103867563D01*
X158206237Y-103878000D01*
X158206238Y-103878000D01*
X158277762Y-103878000D01*
X158277763Y-103878000D01*
X158350353Y-103867563D01*
X158419512Y-103877507D01*
X158472315Y-103923262D01*
X158492000Y-103990301D01*
X158492000Y-104708633D01*
X158705483Y-104651433D01*
X158705492Y-104651429D01*
X158919578Y-104551600D01*
X159113082Y-104416105D01*
X159280105Y-104249082D01*
X159410119Y-104063405D01*
X159464696Y-104019781D01*
X159534195Y-104012588D01*
X159596549Y-104044110D01*
X159613269Y-104063405D01*
X159743505Y-104249401D01*
X159910599Y-104416495D01*
X160007384Y-104484264D01*
X160104165Y-104552032D01*
X160104167Y-104552033D01*
X160104170Y-104552035D01*
X160318337Y-104651903D01*
X160546592Y-104713063D01*
X160734918Y-104729539D01*
X160781999Y-104733659D01*
X160782000Y-104733659D01*
X160782001Y-104733659D01*
X160821234Y-104730226D01*
X161017408Y-104713063D01*
X161245663Y-104651903D01*
X161459830Y-104552035D01*
X161653401Y-104416495D01*
X161820495Y-104249401D01*
X161950424Y-104063842D01*
X162005002Y-104020217D01*
X162074500Y-104013023D01*
X162136855Y-104044546D01*
X162153575Y-104063842D01*
X162283500Y-104249395D01*
X162283505Y-104249401D01*
X162450599Y-104416495D01*
X162547384Y-104484264D01*
X162644165Y-104552032D01*
X162644167Y-104552033D01*
X162644170Y-104552035D01*
X162858337Y-104651903D01*
X163086592Y-104713063D01*
X163274918Y-104729539D01*
X163321999Y-104733659D01*
X163322000Y-104733659D01*
X163322001Y-104733659D01*
X163361234Y-104730226D01*
X163557408Y-104713063D01*
X163785663Y-104651903D01*
X163999830Y-104552035D01*
X164193401Y-104416495D01*
X164360495Y-104249401D01*
X164496035Y-104055830D01*
X164595903Y-103841663D01*
X164657063Y-103613408D01*
X164677659Y-103378000D01*
X164657063Y-103142592D01*
X164595903Y-102914337D01*
X164496035Y-102700171D01*
X164490730Y-102692595D01*
X164360496Y-102506600D01*
X164360056Y-102506160D01*
X164238567Y-102384671D01*
X164205084Y-102323351D01*
X164210068Y-102253659D01*
X164221041Y-102239001D01*
X165988645Y-102239001D01*
X166008039Y-102510160D01*
X166008040Y-102510167D01*
X166058779Y-102743412D01*
X166065825Y-102775801D01*
X166117499Y-102914344D01*
X166160830Y-103030519D01*
X166291109Y-103269107D01*
X166291110Y-103269108D01*
X166291113Y-103269113D01*
X166454029Y-103486742D01*
X166454033Y-103486746D01*
X166454038Y-103486752D01*
X166646247Y-103678961D01*
X166646253Y-103678966D01*
X166646258Y-103678971D01*
X166863887Y-103841887D01*
X166863891Y-103841889D01*
X166863892Y-103841890D01*
X167102481Y-103972169D01*
X167102480Y-103972169D01*
X167102484Y-103972170D01*
X167102487Y-103972172D01*
X167357199Y-104067175D01*
X167622840Y-104124961D01*
X167874604Y-104142967D01*
X167893999Y-104144355D01*
X167894000Y-104144355D01*
X167894001Y-104144355D01*
X167912100Y-104143060D01*
X168165160Y-104124961D01*
X168430801Y-104067175D01*
X168685513Y-103972172D01*
X168685517Y-103972169D01*
X168685519Y-103972169D01*
X168857977Y-103878000D01*
X168924113Y-103841887D01*
X169141742Y-103678971D01*
X169333971Y-103486742D01*
X169496887Y-103269113D01*
X169627172Y-103030513D01*
X169722175Y-102775801D01*
X169779961Y-102510160D01*
X169799355Y-102239000D01*
X169779961Y-101967840D01*
X169722175Y-101702199D01*
X169627172Y-101447487D01*
X169627170Y-101447484D01*
X169627169Y-101447480D01*
X169496890Y-101208892D01*
X169496889Y-101208891D01*
X169496887Y-101208887D01*
X169333971Y-100991258D01*
X169333966Y-100991253D01*
X169333961Y-100991247D01*
X169141752Y-100799038D01*
X169141746Y-100799033D01*
X169141742Y-100799029D01*
X168924113Y-100636113D01*
X168924108Y-100636110D01*
X168924107Y-100636109D01*
X168685518Y-100505830D01*
X168685519Y-100505830D01*
X168635920Y-100487330D01*
X168430801Y-100410825D01*
X168430794Y-100410823D01*
X168430793Y-100410823D01*
X168165167Y-100353040D01*
X168165160Y-100353039D01*
X167894001Y-100333645D01*
X167893999Y-100333645D01*
X167622839Y-100353039D01*
X167622832Y-100353040D01*
X167357206Y-100410823D01*
X167357202Y-100410824D01*
X167357199Y-100410825D01*
X167274477Y-100441679D01*
X167102480Y-100505830D01*
X166863892Y-100636109D01*
X166863891Y-100636110D01*
X166646259Y-100799028D01*
X166646247Y-100799038D01*
X166454038Y-100991247D01*
X166454028Y-100991259D01*
X166291110Y-101208891D01*
X166291109Y-101208892D01*
X166160830Y-101447480D01*
X166132349Y-101523842D01*
X166065825Y-101702199D01*
X166065824Y-101702202D01*
X166065823Y-101702206D01*
X166008040Y-101967832D01*
X166008039Y-101967839D01*
X165988645Y-102238998D01*
X165988645Y-102239001D01*
X164221041Y-102239001D01*
X164251939Y-102197725D01*
X164282915Y-102180810D01*
X164414331Y-102131796D01*
X164529546Y-102045546D01*
X164615796Y-101930331D01*
X164666091Y-101795483D01*
X164672500Y-101735873D01*
X164672499Y-100689329D01*
X164692183Y-100622292D01*
X164744987Y-100576537D01*
X164814146Y-100566593D01*
X164877702Y-100595618D01*
X164888648Y-100606358D01*
X165002129Y-100732390D01*
X165002129Y-100732391D01*
X165155265Y-100843651D01*
X165155270Y-100843654D01*
X165328192Y-100920645D01*
X165328197Y-100920647D01*
X165513354Y-100960003D01*
X165513355Y-100960003D01*
X165702644Y-100960003D01*
X165702646Y-100960003D01*
X165887803Y-100920647D01*
X166060730Y-100843654D01*
X166213871Y-100732391D01*
X166340533Y-100591719D01*
X166435179Y-100427787D01*
X166493674Y-100247759D01*
X166513460Y-100059503D01*
X166493674Y-99871247D01*
X166435179Y-99691219D01*
X166340533Y-99527287D01*
X166213871Y-99386615D01*
X166213870Y-99386614D01*
X166060734Y-99275354D01*
X166060729Y-99275351D01*
X165887807Y-99198360D01*
X165887802Y-99198358D01*
X165742000Y-99167368D01*
X165702646Y-99159003D01*
X165513354Y-99159003D01*
X165480897Y-99165901D01*
X165328197Y-99198358D01*
X165328192Y-99198360D01*
X165155270Y-99275351D01*
X165155265Y-99275354D01*
X165002129Y-99386614D01*
X164875465Y-99527288D01*
X164785211Y-99683614D01*
X164734644Y-99731830D01*
X164666037Y-99745053D01*
X164601172Y-99719084D01*
X164578559Y-99695927D01*
X164529546Y-99630454D01*
X164481853Y-99594751D01*
X164414335Y-99544206D01*
X164414328Y-99544202D01*
X164279482Y-99493908D01*
X164279483Y-99493908D01*
X164219883Y-99487501D01*
X164219881Y-99487500D01*
X164219873Y-99487500D01*
X164219864Y-99487500D01*
X162424129Y-99487500D01*
X162424123Y-99487501D01*
X162364516Y-99493908D01*
X162229671Y-99544202D01*
X162229664Y-99544206D01*
X162114455Y-99630452D01*
X162114452Y-99630455D01*
X162028206Y-99745664D01*
X162028203Y-99745669D01*
X161979189Y-99877083D01*
X161937317Y-99933016D01*
X161871853Y-99957433D01*
X161803580Y-99942581D01*
X161775326Y-99921430D01*
X161653402Y-99799506D01*
X161653395Y-99799501D01*
X161459834Y-99663967D01*
X161459830Y-99663965D01*
X161431778Y-99650884D01*
X161245663Y-99564097D01*
X161245659Y-99564096D01*
X161245655Y-99564094D01*
X161017413Y-99502938D01*
X161017403Y-99502936D01*
X160883472Y-99491218D01*
X160818403Y-99465765D01*
X160777425Y-99409174D01*
X160773547Y-99339412D01*
X160808002Y-99278628D01*
X160821383Y-99267381D01*
X160879871Y-99224888D01*
X161006533Y-99084216D01*
X161101179Y-98920284D01*
X161159674Y-98740256D01*
X161179460Y-98552000D01*
X161159674Y-98363744D01*
X161101179Y-98183716D01*
X161006533Y-98019784D01*
X160879871Y-97879112D01*
X160879870Y-97879111D01*
X160726734Y-97767851D01*
X160726729Y-97767848D01*
X160553807Y-97690857D01*
X160553802Y-97690855D01*
X160408000Y-97659865D01*
X160368646Y-97651500D01*
X160179354Y-97651500D01*
X160146897Y-97658398D01*
X159994197Y-97690855D01*
X159994192Y-97690857D01*
X159821270Y-97767848D01*
X159821265Y-97767851D01*
X159668129Y-97879111D01*
X159541466Y-98019785D01*
X159446821Y-98183715D01*
X159446818Y-98183722D01*
X159402491Y-98320148D01*
X159388326Y-98363744D01*
X159368540Y-98552000D01*
X159388326Y-98740256D01*
X159388327Y-98740259D01*
X159446818Y-98920277D01*
X159446821Y-98920284D01*
X159541467Y-99084216D01*
X159608806Y-99159003D01*
X159668129Y-99224888D01*
X159821265Y-99336148D01*
X159821270Y-99336151D01*
X159994191Y-99413142D01*
X159994193Y-99413142D01*
X159994197Y-99413144D01*
X160076713Y-99430683D01*
X160138191Y-99463874D01*
X160171968Y-99525036D01*
X160167316Y-99594751D01*
X160125712Y-99650884D01*
X160108763Y-99661088D01*
X160108861Y-99661257D01*
X160104169Y-99663965D01*
X159910597Y-99799505D01*
X159743505Y-99966597D01*
X159613575Y-100152158D01*
X159558998Y-100195783D01*
X159489500Y-100202977D01*
X159427145Y-100171454D01*
X159410425Y-100152158D01*
X159280494Y-99966597D01*
X159113402Y-99799506D01*
X159113395Y-99799501D01*
X158919834Y-99663967D01*
X158919830Y-99663965D01*
X158891778Y-99650884D01*
X158705663Y-99564097D01*
X158705659Y-99564096D01*
X158705655Y-99564094D01*
X158477413Y-99502938D01*
X158477403Y-99502936D01*
X158242001Y-99482341D01*
X158241999Y-99482341D01*
X158006596Y-99502936D01*
X158006586Y-99502938D01*
X157778344Y-99564094D01*
X157778335Y-99564098D01*
X157564171Y-99663964D01*
X157564169Y-99663965D01*
X157370597Y-99799505D01*
X157203505Y-99966597D01*
X157073575Y-100152158D01*
X157018998Y-100195783D01*
X156949500Y-100202977D01*
X156887145Y-100171454D01*
X156870425Y-100152158D01*
X156740494Y-99966597D01*
X156573402Y-99799506D01*
X156573395Y-99799501D01*
X156379834Y-99663967D01*
X156379830Y-99663965D01*
X156351778Y-99650884D01*
X156165663Y-99564097D01*
X156165659Y-99564096D01*
X156165655Y-99564094D01*
X155937413Y-99502938D01*
X155937403Y-99502936D01*
X155702001Y-99482341D01*
X155701999Y-99482341D01*
X155466596Y-99502936D01*
X155466586Y-99502938D01*
X155238344Y-99564094D01*
X155238335Y-99564098D01*
X155024171Y-99663964D01*
X155024169Y-99663965D01*
X154830597Y-99799505D01*
X154663508Y-99966594D01*
X154533269Y-100152595D01*
X154478692Y-100196219D01*
X154409193Y-100203412D01*
X154346839Y-100171890D01*
X154330119Y-100152594D01*
X154200113Y-99966926D01*
X154200108Y-99966920D01*
X154033082Y-99799894D01*
X153839578Y-99664399D01*
X153625492Y-99564570D01*
X153625486Y-99564567D01*
X153412000Y-99507364D01*
X153412000Y-100225698D01*
X153392315Y-100292737D01*
X153339511Y-100338492D01*
X153270355Y-100348436D01*
X153197766Y-100338000D01*
X153197763Y-100338000D01*
X153126237Y-100338000D01*
X153126233Y-100338000D01*
X153053645Y-100348436D01*
X152984487Y-100338492D01*
X152931684Y-100292736D01*
X152912000Y-100225698D01*
X152912000Y-99507364D01*
X152911999Y-99507364D01*
X152698513Y-99564567D01*
X152698507Y-99564570D01*
X152484422Y-99664399D01*
X152484420Y-99664400D01*
X152290926Y-99799886D01*
X152290920Y-99799891D01*
X152123891Y-99966920D01*
X152123890Y-99966922D01*
X151993880Y-100152595D01*
X151939303Y-100196219D01*
X151869804Y-100203412D01*
X151807450Y-100171890D01*
X151790730Y-100152594D01*
X151660494Y-99966597D01*
X151493402Y-99799506D01*
X151493395Y-99799501D01*
X151299834Y-99663967D01*
X151299830Y-99663965D01*
X151271778Y-99650884D01*
X151085663Y-99564097D01*
X151085659Y-99564096D01*
X151085655Y-99564094D01*
X150857413Y-99502938D01*
X150857403Y-99502936D01*
X150622001Y-99482341D01*
X150621999Y-99482341D01*
X150386596Y-99502936D01*
X150386586Y-99502938D01*
X150158344Y-99564094D01*
X150158335Y-99564098D01*
X149944171Y-99663964D01*
X149944169Y-99663965D01*
X149750597Y-99799505D01*
X149583505Y-99966597D01*
X149453575Y-100152158D01*
X149398998Y-100195783D01*
X149329500Y-100202977D01*
X149267145Y-100171454D01*
X149250425Y-100152158D01*
X149120494Y-99966597D01*
X148953402Y-99799506D01*
X148953395Y-99799501D01*
X148759834Y-99663967D01*
X148759830Y-99663965D01*
X148731778Y-99650884D01*
X148545663Y-99564097D01*
X148545659Y-99564096D01*
X148545655Y-99564094D01*
X148317413Y-99502938D01*
X148317403Y-99502936D01*
X148082001Y-99482341D01*
X148081999Y-99482341D01*
X147846596Y-99502936D01*
X147846586Y-99502938D01*
X147618344Y-99564094D01*
X147618335Y-99564098D01*
X147404171Y-99663964D01*
X147404169Y-99663965D01*
X147210597Y-99799505D01*
X147043505Y-99966597D01*
X146913575Y-100152158D01*
X146858998Y-100195783D01*
X146789500Y-100202977D01*
X146727145Y-100171454D01*
X146710425Y-100152158D01*
X146580494Y-99966597D01*
X146413402Y-99799506D01*
X146413395Y-99799501D01*
X146219834Y-99663967D01*
X146219830Y-99663965D01*
X146191778Y-99650884D01*
X146005663Y-99564097D01*
X146005659Y-99564096D01*
X146005655Y-99564094D01*
X145777413Y-99502938D01*
X145777403Y-99502936D01*
X145542001Y-99482341D01*
X145541999Y-99482341D01*
X145306596Y-99502936D01*
X145306586Y-99502938D01*
X145078344Y-99564094D01*
X145078335Y-99564098D01*
X144864171Y-99663964D01*
X144864169Y-99663965D01*
X144670597Y-99799505D01*
X144503505Y-99966597D01*
X144373575Y-100152158D01*
X144318998Y-100195783D01*
X144249500Y-100202977D01*
X144187145Y-100171454D01*
X144170425Y-100152158D01*
X144040494Y-99966597D01*
X143873402Y-99799506D01*
X143873395Y-99799501D01*
X143679834Y-99663967D01*
X143679830Y-99663965D01*
X143651778Y-99650884D01*
X143465663Y-99564097D01*
X143465659Y-99564096D01*
X143465655Y-99564094D01*
X143237413Y-99502938D01*
X143237403Y-99502936D01*
X143002001Y-99482341D01*
X143001999Y-99482341D01*
X142766596Y-99502936D01*
X142766586Y-99502938D01*
X142538344Y-99564094D01*
X142538335Y-99564098D01*
X142324171Y-99663964D01*
X142324169Y-99663965D01*
X142130597Y-99799505D01*
X141963505Y-99966597D01*
X141833575Y-100152158D01*
X141778998Y-100195783D01*
X141709500Y-100202977D01*
X141647145Y-100171454D01*
X141630425Y-100152158D01*
X141500494Y-99966597D01*
X141333402Y-99799506D01*
X141333395Y-99799501D01*
X141139834Y-99663967D01*
X141139830Y-99663965D01*
X141111778Y-99650884D01*
X140925663Y-99564097D01*
X140925659Y-99564096D01*
X140925655Y-99564094D01*
X140697413Y-99502938D01*
X140697403Y-99502936D01*
X140462001Y-99482341D01*
X140461999Y-99482341D01*
X140226596Y-99502936D01*
X140226586Y-99502938D01*
X139998344Y-99564094D01*
X139998335Y-99564098D01*
X139784171Y-99663964D01*
X139784169Y-99663965D01*
X139590597Y-99799505D01*
X139423505Y-99966597D01*
X139293575Y-100152158D01*
X139238998Y-100195783D01*
X139169500Y-100202977D01*
X139107145Y-100171454D01*
X139090425Y-100152158D01*
X138960494Y-99966597D01*
X138793402Y-99799506D01*
X138793395Y-99799501D01*
X138599834Y-99663967D01*
X138599830Y-99663965D01*
X138571778Y-99650884D01*
X138385663Y-99564097D01*
X138385659Y-99564096D01*
X138385655Y-99564094D01*
X138157413Y-99502938D01*
X138157403Y-99502936D01*
X137922001Y-99482341D01*
X137921999Y-99482341D01*
X137686596Y-99502936D01*
X137686586Y-99502938D01*
X137458344Y-99564094D01*
X137458335Y-99564098D01*
X137244171Y-99663964D01*
X137244169Y-99663965D01*
X137050597Y-99799505D01*
X136883505Y-99966597D01*
X136753575Y-100152158D01*
X136698998Y-100195783D01*
X136629500Y-100202977D01*
X136567145Y-100171454D01*
X136550425Y-100152158D01*
X136420494Y-99966597D01*
X136253402Y-99799506D01*
X136253395Y-99799501D01*
X136059834Y-99663967D01*
X136059830Y-99663965D01*
X136031778Y-99650884D01*
X135845663Y-99564097D01*
X135845659Y-99564096D01*
X135845655Y-99564094D01*
X135617413Y-99502938D01*
X135617403Y-99502936D01*
X135382001Y-99482341D01*
X135381999Y-99482341D01*
X135146596Y-99502936D01*
X135146586Y-99502938D01*
X134918344Y-99564094D01*
X134918335Y-99564098D01*
X134704171Y-99663964D01*
X134704169Y-99663965D01*
X134510597Y-99799505D01*
X134343508Y-99966594D01*
X134213574Y-100152159D01*
X134158997Y-100195784D01*
X134089498Y-100202976D01*
X134027144Y-100171454D01*
X134010424Y-100152158D01*
X133994158Y-100128928D01*
X133927796Y-100034152D01*
X133880494Y-99966597D01*
X133713402Y-99799506D01*
X133713395Y-99799501D01*
X133519834Y-99663967D01*
X133519830Y-99663965D01*
X133491778Y-99650884D01*
X133305663Y-99564097D01*
X133305659Y-99564096D01*
X133305655Y-99564094D01*
X133077413Y-99502938D01*
X133077403Y-99502936D01*
X132842001Y-99482341D01*
X132841999Y-99482341D01*
X132606596Y-99502936D01*
X132606586Y-99502938D01*
X132378344Y-99564094D01*
X132378335Y-99564098D01*
X132164171Y-99663964D01*
X132164169Y-99663965D01*
X131970597Y-99799505D01*
X131803508Y-99966594D01*
X131673574Y-100152160D01*
X131618997Y-100195784D01*
X131549498Y-100202977D01*
X131487144Y-100171455D01*
X131470429Y-100152164D01*
X131340495Y-99966599D01*
X131340493Y-99966596D01*
X131173402Y-99799506D01*
X131173395Y-99799501D01*
X130979834Y-99663967D01*
X130979830Y-99663965D01*
X130951778Y-99650884D01*
X130765663Y-99564097D01*
X130765659Y-99564096D01*
X130765655Y-99564094D01*
X130537413Y-99502938D01*
X130537403Y-99502936D01*
X130302001Y-99482341D01*
X130301999Y-99482341D01*
X130066596Y-99502936D01*
X130066586Y-99502938D01*
X129838344Y-99564094D01*
X129838335Y-99564098D01*
X129624171Y-99663964D01*
X129624169Y-99663965D01*
X129430597Y-99799505D01*
X129263505Y-99966597D01*
X129133575Y-100152158D01*
X129078998Y-100195783D01*
X129009500Y-100202977D01*
X128947145Y-100171454D01*
X128930425Y-100152158D01*
X128800494Y-99966597D01*
X128633402Y-99799506D01*
X128633395Y-99799501D01*
X128439834Y-99663967D01*
X128439830Y-99663965D01*
X128411778Y-99650884D01*
X128225663Y-99564097D01*
X128225659Y-99564096D01*
X128225655Y-99564094D01*
X127997413Y-99502938D01*
X127997403Y-99502936D01*
X127762001Y-99482341D01*
X127761999Y-99482341D01*
X127526596Y-99502936D01*
X127526586Y-99502938D01*
X127298344Y-99564094D01*
X127298335Y-99564098D01*
X127084171Y-99663964D01*
X127084169Y-99663965D01*
X126890597Y-99799505D01*
X126723505Y-99966597D01*
X126593575Y-100152158D01*
X126538998Y-100195783D01*
X126469500Y-100202977D01*
X126407145Y-100171454D01*
X126390425Y-100152158D01*
X126260494Y-99966597D01*
X126093402Y-99799506D01*
X126093395Y-99799501D01*
X125899834Y-99663967D01*
X125899830Y-99663965D01*
X125871778Y-99650884D01*
X125685663Y-99564097D01*
X125685659Y-99564096D01*
X125685655Y-99564094D01*
X125457413Y-99502938D01*
X125457403Y-99502936D01*
X125222001Y-99482341D01*
X125221999Y-99482341D01*
X124986596Y-99502936D01*
X124986586Y-99502938D01*
X124758344Y-99564094D01*
X124758335Y-99564098D01*
X124544171Y-99663964D01*
X124544169Y-99663965D01*
X124350597Y-99799505D01*
X124183508Y-99966594D01*
X124053574Y-100152159D01*
X123998997Y-100195784D01*
X123929498Y-100202976D01*
X123867144Y-100171454D01*
X123850424Y-100152158D01*
X123834158Y-100128928D01*
X123767796Y-100034152D01*
X123720494Y-99966597D01*
X123553402Y-99799506D01*
X123553395Y-99799501D01*
X123359834Y-99663967D01*
X123359830Y-99663965D01*
X123331778Y-99650884D01*
X123145663Y-99564097D01*
X123145659Y-99564096D01*
X123145655Y-99564094D01*
X122917413Y-99502938D01*
X122917403Y-99502936D01*
X122682001Y-99482341D01*
X122681999Y-99482341D01*
X122446596Y-99502936D01*
X122446586Y-99502938D01*
X122218344Y-99564094D01*
X122218335Y-99564098D01*
X122004171Y-99663964D01*
X122004169Y-99663965D01*
X121810597Y-99799505D01*
X121643508Y-99966594D01*
X121513574Y-100152160D01*
X121458997Y-100195784D01*
X121389498Y-100202977D01*
X121327144Y-100171455D01*
X121310429Y-100152164D01*
X121180495Y-99966599D01*
X121180493Y-99966596D01*
X121013402Y-99799506D01*
X121013395Y-99799501D01*
X120819834Y-99663967D01*
X120819830Y-99663965D01*
X120791778Y-99650884D01*
X120605663Y-99564097D01*
X120605659Y-99564096D01*
X120605655Y-99564094D01*
X120377413Y-99502938D01*
X120377403Y-99502936D01*
X120142001Y-99482341D01*
X120141999Y-99482341D01*
X119906596Y-99502936D01*
X119906586Y-99502938D01*
X119678344Y-99564094D01*
X119678335Y-99564098D01*
X119464171Y-99663964D01*
X119464169Y-99663965D01*
X119270597Y-99799505D01*
X119103505Y-99966597D01*
X118973575Y-100152158D01*
X118918998Y-100195783D01*
X118849500Y-100202977D01*
X118787145Y-100171454D01*
X118770425Y-100152158D01*
X118640494Y-99966597D01*
X118473402Y-99799506D01*
X118473395Y-99799501D01*
X118279834Y-99663967D01*
X118279830Y-99663965D01*
X118251778Y-99650884D01*
X118065663Y-99564097D01*
X118065659Y-99564096D01*
X118065655Y-99564094D01*
X117837413Y-99502938D01*
X117837403Y-99502936D01*
X117602001Y-99482341D01*
X117601999Y-99482341D01*
X117366596Y-99502936D01*
X117366586Y-99502938D01*
X117138344Y-99564094D01*
X117138335Y-99564098D01*
X116924171Y-99663964D01*
X116924169Y-99663965D01*
X116730597Y-99799505D01*
X116563505Y-99966597D01*
X116433575Y-100152158D01*
X116378998Y-100195783D01*
X116309500Y-100202977D01*
X116247145Y-100171454D01*
X116230425Y-100152158D01*
X116100494Y-99966597D01*
X115933402Y-99799506D01*
X115933395Y-99799501D01*
X115739834Y-99663967D01*
X115739830Y-99663965D01*
X115711778Y-99650884D01*
X115525663Y-99564097D01*
X115525659Y-99564096D01*
X115525655Y-99564094D01*
X115297413Y-99502938D01*
X115297403Y-99502936D01*
X115062001Y-99482341D01*
X115061999Y-99482341D01*
X114826596Y-99502936D01*
X114826586Y-99502938D01*
X114598344Y-99564094D01*
X114598335Y-99564098D01*
X114384171Y-99663964D01*
X114384169Y-99663965D01*
X114190597Y-99799505D01*
X114023505Y-99966597D01*
X113887965Y-100160169D01*
X113887964Y-100160171D01*
X113788098Y-100374335D01*
X113788094Y-100374344D01*
X113726938Y-100602586D01*
X113726936Y-100602596D01*
X113706341Y-100837999D01*
X113706341Y-100838000D01*
X113726936Y-101073403D01*
X113726938Y-101073413D01*
X113788094Y-101301655D01*
X113788096Y-101301659D01*
X113788097Y-101301663D01*
X113867801Y-101472588D01*
X113887965Y-101515830D01*
X113887967Y-101515834D01*
X113950627Y-101605321D01*
X114023504Y-101709400D01*
X114023506Y-101709402D01*
X114190597Y-101876493D01*
X114190603Y-101876498D01*
X114376158Y-102006425D01*
X114419783Y-102061002D01*
X114426977Y-102130500D01*
X114395454Y-102192855D01*
X114376158Y-102209575D01*
X114190597Y-102339505D01*
X114023505Y-102506597D01*
X113887965Y-102700169D01*
X113887964Y-102700171D01*
X113788098Y-102914335D01*
X113788094Y-102914344D01*
X113726938Y-103142586D01*
X113726936Y-103142596D01*
X113706341Y-103377999D01*
X113706341Y-103378000D01*
X112008380Y-103378000D01*
X112092887Y-103265113D01*
X112223172Y-103026513D01*
X112318175Y-102771801D01*
X112375961Y-102506160D01*
X112395355Y-102235000D01*
X112375961Y-101963840D01*
X112318175Y-101698199D01*
X112223172Y-101443487D01*
X112223170Y-101443484D01*
X112223169Y-101443480D01*
X112092890Y-101204892D01*
X112092889Y-101204891D01*
X112092887Y-101204887D01*
X111929971Y-100987258D01*
X111929966Y-100987253D01*
X111929961Y-100987247D01*
X111737752Y-100795038D01*
X111737746Y-100795033D01*
X111737742Y-100795029D01*
X111520113Y-100632113D01*
X111520108Y-100632110D01*
X111520107Y-100632109D01*
X111281518Y-100501830D01*
X111281519Y-100501830D01*
X111231920Y-100483330D01*
X111026801Y-100406825D01*
X111026794Y-100406823D01*
X111026793Y-100406823D01*
X110761167Y-100349040D01*
X110761160Y-100349039D01*
X110490001Y-100329645D01*
X110489999Y-100329645D01*
X110218839Y-100349039D01*
X110218832Y-100349040D01*
X109953206Y-100406823D01*
X109953202Y-100406824D01*
X109953199Y-100406825D01*
X109825843Y-100454326D01*
X109698480Y-100501830D01*
X109459892Y-100632109D01*
X109459891Y-100632110D01*
X109242259Y-100795028D01*
X109242247Y-100795038D01*
X109050038Y-100987247D01*
X109050028Y-100987259D01*
X108887110Y-101204891D01*
X108887109Y-101204892D01*
X108756830Y-101443480D01*
X108726857Y-101523842D01*
X108661825Y-101698199D01*
X108661824Y-101698202D01*
X108661823Y-101698206D01*
X108604040Y-101963832D01*
X108604039Y-101963839D01*
X108584645Y-102234998D01*
X108584645Y-102235001D01*
X102114543Y-102235001D01*
X102041264Y-102080066D01*
X102030020Y-102061307D01*
X101903347Y-101849967D01*
X101834390Y-101734918D01*
X101594682Y-101411709D01*
X101594677Y-101411703D01*
X101324448Y-101113551D01*
X101026296Y-100843322D01*
X101019120Y-100838000D01*
X100703082Y-100603610D01*
X100703079Y-100603608D01*
X100357937Y-100396737D01*
X99994170Y-100224688D01*
X99994168Y-100224687D01*
X99615295Y-100089125D01*
X99224962Y-99991351D01*
X99224957Y-99991350D01*
X99224956Y-99991350D01*
X99077395Y-99969461D01*
X98826921Y-99932307D01*
X98826919Y-99932306D01*
X98826913Y-99932306D01*
X98425000Y-99912561D01*
X98424999Y-99912561D01*
X98392468Y-99914159D01*
X98023087Y-99932306D01*
X98023081Y-99932306D01*
X98023078Y-99932307D01*
X97625037Y-99991351D01*
X97234704Y-100089125D01*
X96855831Y-100224687D01*
X96855829Y-100224688D01*
X96492062Y-100396737D01*
X96146920Y-100603608D01*
X95823703Y-100843322D01*
X95525551Y-101113551D01*
X95255322Y-101411703D01*
X95015608Y-101734920D01*
X94808737Y-102080062D01*
X94636688Y-102443829D01*
X94636685Y-102443837D01*
X94603458Y-102536699D01*
X94562339Y-102593187D01*
X94497207Y-102618478D01*
X94428741Y-102604540D01*
X94378679Y-102555800D01*
X94375707Y-102550194D01*
X94353784Y-102506167D01*
X94321673Y-102441679D01*
X94198764Y-102278921D01*
X94198762Y-102278918D01*
X94048042Y-102141519D01*
X94032339Y-102131797D01*
X94027704Y-102128926D01*
X93981069Y-102076901D01*
X93969964Y-102007919D01*
X93997916Y-101943885D01*
X94027703Y-101918073D01*
X94048041Y-101905481D01*
X94198764Y-101768079D01*
X94321673Y-101605321D01*
X94412582Y-101422750D01*
X94468397Y-101226583D01*
X94487215Y-101023500D01*
X94484227Y-100991259D01*
X94468397Y-100820417D01*
X94462314Y-100799038D01*
X94412582Y-100624250D01*
X94411607Y-100622292D01*
X94351623Y-100501828D01*
X94321673Y-100441679D01*
X94237069Y-100329645D01*
X94198762Y-100278918D01*
X94048042Y-100141519D01*
X94036723Y-100134511D01*
X94027704Y-100128926D01*
X93981069Y-100076901D01*
X93969964Y-100007919D01*
X93997916Y-99943885D01*
X94027703Y-99918073D01*
X94048041Y-99905481D01*
X94198764Y-99768079D01*
X94321673Y-99605321D01*
X94412582Y-99422750D01*
X94468397Y-99226583D01*
X94487215Y-99023500D01*
X94468397Y-98820417D01*
X94412582Y-98624250D01*
X94376605Y-98551999D01*
X94343871Y-98486259D01*
X94321673Y-98441679D01*
X94262704Y-98363591D01*
X94198762Y-98278918D01*
X94048041Y-98141519D01*
X94048036Y-98141515D01*
X94015490Y-98121363D01*
X93968854Y-98069335D01*
X93957594Y-98001646D01*
X93962687Y-97957740D01*
X93565866Y-97560919D01*
X93532381Y-97499596D01*
X93537365Y-97429905D01*
X93579236Y-97373971D01*
X93597245Y-97362758D01*
X93620045Y-97351141D01*
X93709641Y-97261545D01*
X93721254Y-97238752D01*
X93769225Y-97187958D01*
X93837046Y-97171161D01*
X93903181Y-97193697D01*
X93919419Y-97207366D01*
X94319465Y-97607412D01*
X94321247Y-97605052D01*
X94321249Y-97605050D01*
X94355632Y-97536000D01*
X146160540Y-97536000D01*
X146180326Y-97724256D01*
X146180327Y-97724259D01*
X146238818Y-97904277D01*
X146238821Y-97904284D01*
X146333467Y-98068216D01*
X146442167Y-98188939D01*
X146460129Y-98208888D01*
X146613265Y-98320148D01*
X146613270Y-98320151D01*
X146786192Y-98397142D01*
X146786197Y-98397144D01*
X146971354Y-98436500D01*
X146971355Y-98436500D01*
X147160644Y-98436500D01*
X147160646Y-98436500D01*
X147345803Y-98397144D01*
X147518730Y-98320151D01*
X147549218Y-98298000D01*
X148700540Y-98298000D01*
X148720326Y-98486256D01*
X148720327Y-98486259D01*
X148778818Y-98666277D01*
X148778821Y-98666284D01*
X148873467Y-98830216D01*
X148954559Y-98920277D01*
X149000129Y-98970888D01*
X149153265Y-99082148D01*
X149153270Y-99082151D01*
X149326192Y-99159142D01*
X149326197Y-99159144D01*
X149511354Y-99198500D01*
X149511355Y-99198500D01*
X149700644Y-99198500D01*
X149700646Y-99198500D01*
X149885803Y-99159144D01*
X150058730Y-99082151D01*
X150211871Y-98970888D01*
X150338533Y-98830216D01*
X150433179Y-98666284D01*
X150491674Y-98486256D01*
X150511460Y-98298000D01*
X150511459Y-98297999D01*
X150511929Y-98293538D01*
X150538514Y-98228924D01*
X150595811Y-98188939D01*
X150635250Y-98182500D01*
X150716644Y-98182500D01*
X150716646Y-98182500D01*
X150901803Y-98143144D01*
X151074730Y-98066151D01*
X151227871Y-97954888D01*
X151354533Y-97814216D01*
X151449179Y-97650284D01*
X151507674Y-97470256D01*
X151527460Y-97282000D01*
X151507674Y-97093744D01*
X151449179Y-96913716D01*
X151354533Y-96749784D01*
X151227871Y-96609112D01*
X151227870Y-96609111D01*
X151105219Y-96520000D01*
X154796540Y-96520000D01*
X154816326Y-96708256D01*
X154816327Y-96708259D01*
X154874818Y-96888277D01*
X154874821Y-96888284D01*
X154969467Y-97052216D01*
X155076566Y-97171161D01*
X155096129Y-97192888D01*
X155249265Y-97304148D01*
X155249270Y-97304151D01*
X155422192Y-97381142D01*
X155422197Y-97381144D01*
X155607354Y-97420500D01*
X155607355Y-97420500D01*
X155796644Y-97420500D01*
X155796646Y-97420500D01*
X155981803Y-97381144D01*
X156154730Y-97304151D01*
X156307871Y-97192888D01*
X156434533Y-97052216D01*
X156529179Y-96888284D01*
X156587674Y-96708256D01*
X156607460Y-96520000D01*
X156587674Y-96331744D01*
X156529179Y-96151716D01*
X156434533Y-95987784D01*
X156307871Y-95847112D01*
X156307870Y-95847111D01*
X156154734Y-95735851D01*
X156154729Y-95735848D01*
X155981807Y-95658857D01*
X155981802Y-95658855D01*
X155836000Y-95627865D01*
X155796646Y-95619500D01*
X155607354Y-95619500D01*
X155574897Y-95626398D01*
X155422197Y-95658855D01*
X155422192Y-95658857D01*
X155249270Y-95735848D01*
X155249265Y-95735851D01*
X155096129Y-95847111D01*
X154969466Y-95987785D01*
X154874821Y-96151715D01*
X154874818Y-96151722D01*
X154830491Y-96288148D01*
X154816326Y-96331744D01*
X154796540Y-96520000D01*
X151105219Y-96520000D01*
X151074734Y-96497851D01*
X151074729Y-96497848D01*
X150901807Y-96420857D01*
X150901802Y-96420855D01*
X150756001Y-96389865D01*
X150716646Y-96381500D01*
X150527354Y-96381500D01*
X150494897Y-96388398D01*
X150342197Y-96420855D01*
X150342192Y-96420857D01*
X150169270Y-96497848D01*
X150169265Y-96497851D01*
X150016129Y-96609111D01*
X149889466Y-96749785D01*
X149794821Y-96913715D01*
X149794818Y-96913722D01*
X149749820Y-97052214D01*
X149736326Y-97093744D01*
X149721085Y-97238755D01*
X149716071Y-97286462D01*
X149689486Y-97351076D01*
X149632189Y-97391061D01*
X149592750Y-97397500D01*
X149511354Y-97397500D01*
X149482684Y-97403594D01*
X149326197Y-97436855D01*
X149326192Y-97436857D01*
X149153270Y-97513848D01*
X149153265Y-97513851D01*
X149000129Y-97625111D01*
X148873466Y-97765785D01*
X148778821Y-97929715D01*
X148778818Y-97929722D01*
X148733074Y-98070509D01*
X148720326Y-98109744D01*
X148700540Y-98298000D01*
X147549218Y-98298000D01*
X147671871Y-98208888D01*
X147798533Y-98068216D01*
X147893179Y-97904284D01*
X147951674Y-97724256D01*
X147971460Y-97536000D01*
X147951674Y-97347744D01*
X147893179Y-97167716D01*
X147798533Y-97003784D01*
X147671871Y-96863112D01*
X147639555Y-96839633D01*
X147518734Y-96751851D01*
X147518729Y-96751848D01*
X147345807Y-96674857D01*
X147345802Y-96674855D01*
X147200000Y-96643865D01*
X147160646Y-96635500D01*
X146971354Y-96635500D01*
X146938897Y-96642398D01*
X146786197Y-96674855D01*
X146786192Y-96674857D01*
X146613270Y-96751848D01*
X146613265Y-96751851D01*
X146460129Y-96863111D01*
X146333466Y-97003785D01*
X146238821Y-97167715D01*
X146238818Y-97167722D01*
X146194491Y-97304148D01*
X146180326Y-97347744D01*
X146160540Y-97536000D01*
X94355632Y-97536000D01*
X94412113Y-97422569D01*
X94412116Y-97422563D01*
X94467902Y-97226492D01*
X94467903Y-97226489D01*
X94486713Y-97023500D01*
X94486713Y-97023499D01*
X94467903Y-96820510D01*
X94467902Y-96820507D01*
X94412116Y-96624436D01*
X94412113Y-96624430D01*
X94321244Y-96441941D01*
X94319466Y-96439586D01*
X94319465Y-96439585D01*
X93919419Y-96839632D01*
X93858096Y-96873117D01*
X93788404Y-96868133D01*
X93732471Y-96826261D01*
X93721256Y-96808251D01*
X93709641Y-96785455D01*
X93709637Y-96785451D01*
X93709636Y-96785449D01*
X93620050Y-96695863D01*
X93620047Y-96695861D01*
X93620045Y-96695859D01*
X93597250Y-96684244D01*
X93546456Y-96636271D01*
X93529661Y-96568450D01*
X93552198Y-96502315D01*
X93565866Y-96486080D01*
X93962687Y-96089259D01*
X93956716Y-96037790D01*
X93956716Y-96009208D01*
X93962687Y-95957739D01*
X93565866Y-95560919D01*
X93532381Y-95499596D01*
X93537365Y-95429905D01*
X93579236Y-95373971D01*
X93597245Y-95362758D01*
X93620045Y-95351141D01*
X93709641Y-95261545D01*
X93721254Y-95238752D01*
X93769225Y-95187958D01*
X93837046Y-95171161D01*
X93903181Y-95193697D01*
X93919419Y-95207366D01*
X94319465Y-95607412D01*
X94321247Y-95605052D01*
X94321249Y-95605050D01*
X94412113Y-95422569D01*
X94412116Y-95422563D01*
X94467902Y-95226492D01*
X94467903Y-95226489D01*
X94486713Y-95023500D01*
X94486713Y-95023499D01*
X94467903Y-94820510D01*
X94467902Y-94820507D01*
X94412116Y-94624436D01*
X94412113Y-94624430D01*
X94344179Y-94488000D01*
X107298540Y-94488000D01*
X107318326Y-94676256D01*
X107318327Y-94676259D01*
X107376818Y-94856277D01*
X107376821Y-94856284D01*
X107471467Y-95020216D01*
X107587108Y-95148648D01*
X107598129Y-95160888D01*
X107751265Y-95272148D01*
X107751270Y-95272151D01*
X107924192Y-95349142D01*
X107924197Y-95349144D01*
X108109354Y-95388500D01*
X108109355Y-95388500D01*
X108298644Y-95388500D01*
X108298646Y-95388500D01*
X108483803Y-95349144D01*
X108656730Y-95272151D01*
X108809871Y-95160888D01*
X108936533Y-95020216D01*
X109031179Y-94856284D01*
X109068312Y-94742000D01*
X132698540Y-94742000D01*
X132718326Y-94930256D01*
X132718327Y-94930259D01*
X132776818Y-95110277D01*
X132776821Y-95110284D01*
X132871467Y-95274216D01*
X132955895Y-95367982D01*
X132998129Y-95414888D01*
X133151265Y-95526148D01*
X133151270Y-95526151D01*
X133324192Y-95603142D01*
X133324197Y-95603144D01*
X133509354Y-95642500D01*
X133509355Y-95642500D01*
X133698644Y-95642500D01*
X133698646Y-95642500D01*
X133883803Y-95603144D01*
X134056730Y-95526151D01*
X134209871Y-95414888D01*
X134336533Y-95274216D01*
X134350514Y-95250000D01*
X161654540Y-95250000D01*
X161674326Y-95438256D01*
X161674327Y-95438259D01*
X161732818Y-95618277D01*
X161732821Y-95618284D01*
X161827467Y-95782216D01*
X161885899Y-95847111D01*
X161954129Y-95922888D01*
X162107265Y-96034148D01*
X162107270Y-96034151D01*
X162280192Y-96111142D01*
X162280197Y-96111144D01*
X162465354Y-96150500D01*
X162465355Y-96150500D01*
X162654644Y-96150500D01*
X162654646Y-96150500D01*
X162839803Y-96111144D01*
X163012730Y-96034151D01*
X163165871Y-95922888D01*
X163292533Y-95782216D01*
X163387179Y-95618284D01*
X163445674Y-95438256D01*
X163465460Y-95250000D01*
X163445674Y-95061744D01*
X163387179Y-94881716D01*
X163292533Y-94717784D01*
X163165871Y-94577112D01*
X163133708Y-94553744D01*
X163043219Y-94488000D01*
X164448540Y-94488000D01*
X164468326Y-94676256D01*
X164468327Y-94676259D01*
X164526818Y-94856277D01*
X164526821Y-94856284D01*
X164621467Y-95020216D01*
X164737108Y-95148648D01*
X164748129Y-95160888D01*
X164901265Y-95272148D01*
X164901270Y-95272151D01*
X165074192Y-95349142D01*
X165074197Y-95349144D01*
X165259354Y-95388500D01*
X165259355Y-95388500D01*
X165448644Y-95388500D01*
X165448646Y-95388500D01*
X165570185Y-95362666D01*
X165639849Y-95367982D01*
X165695582Y-95410119D01*
X165719688Y-95475698D01*
X165719284Y-95496911D01*
X165718540Y-95503993D01*
X165718540Y-95503997D01*
X165718540Y-95504000D01*
X165738326Y-95692256D01*
X165738327Y-95692259D01*
X165796818Y-95872277D01*
X165796821Y-95872284D01*
X165891467Y-96036216D01*
X166018129Y-96176888D01*
X166171265Y-96288148D01*
X166171270Y-96288151D01*
X166344192Y-96365142D01*
X166344197Y-96365144D01*
X166529354Y-96404500D01*
X166529355Y-96404500D01*
X166718644Y-96404500D01*
X166718646Y-96404500D01*
X166903803Y-96365144D01*
X167076730Y-96288151D01*
X167229871Y-96176888D01*
X167356533Y-96036216D01*
X167451179Y-95872284D01*
X167509674Y-95692256D01*
X167529460Y-95504000D01*
X167509674Y-95315744D01*
X167451179Y-95135716D01*
X167356533Y-94971784D01*
X167229871Y-94831112D01*
X167229870Y-94831111D01*
X167076734Y-94719851D01*
X167076729Y-94719848D01*
X166903807Y-94642857D01*
X166903802Y-94642855D01*
X166758000Y-94611865D01*
X166718646Y-94603500D01*
X166529354Y-94603500D01*
X166529353Y-94603500D01*
X166407816Y-94629333D01*
X166338149Y-94624017D01*
X166282416Y-94581880D01*
X166258311Y-94516300D01*
X166258716Y-94495078D01*
X166259460Y-94488000D01*
X166239674Y-94299744D01*
X166181179Y-94119716D01*
X166086533Y-93955784D01*
X165959871Y-93815112D01*
X165959870Y-93815111D01*
X165806734Y-93703851D01*
X165806729Y-93703848D01*
X165633807Y-93626857D01*
X165633802Y-93626855D01*
X165488001Y-93595865D01*
X165448646Y-93587500D01*
X165259354Y-93587500D01*
X165226897Y-93594398D01*
X165074197Y-93626855D01*
X165074192Y-93626857D01*
X164901270Y-93703848D01*
X164901265Y-93703851D01*
X164748129Y-93815111D01*
X164621466Y-93955785D01*
X164526821Y-94119715D01*
X164526818Y-94119722D01*
X164468327Y-94299740D01*
X164468326Y-94299744D01*
X164448540Y-94488000D01*
X163043219Y-94488000D01*
X163012734Y-94465851D01*
X163012729Y-94465848D01*
X162839807Y-94388857D01*
X162839802Y-94388855D01*
X162694001Y-94357865D01*
X162654646Y-94349500D01*
X162465354Y-94349500D01*
X162432897Y-94356398D01*
X162280197Y-94388855D01*
X162280192Y-94388857D01*
X162107270Y-94465848D01*
X162107265Y-94465851D01*
X161954129Y-94577111D01*
X161827466Y-94717785D01*
X161732821Y-94881715D01*
X161732818Y-94881722D01*
X161686752Y-95023500D01*
X161674326Y-95061744D01*
X161654540Y-95250000D01*
X134350514Y-95250000D01*
X134431179Y-95110284D01*
X134489674Y-94930256D01*
X134509460Y-94742000D01*
X134489674Y-94553744D01*
X134431179Y-94373716D01*
X134336533Y-94209784D01*
X134209871Y-94069112D01*
X134209870Y-94069111D01*
X134056734Y-93957851D01*
X134056729Y-93957848D01*
X133883807Y-93880857D01*
X133883802Y-93880855D01*
X133738001Y-93849865D01*
X133698646Y-93841500D01*
X133509354Y-93841500D01*
X133476897Y-93848398D01*
X133324197Y-93880855D01*
X133324192Y-93880857D01*
X133151270Y-93957848D01*
X133151265Y-93957851D01*
X132998129Y-94069111D01*
X132871466Y-94209785D01*
X132776821Y-94373715D01*
X132776818Y-94373722D01*
X132735036Y-94502315D01*
X132718326Y-94553744D01*
X132698540Y-94742000D01*
X109068312Y-94742000D01*
X109089674Y-94676256D01*
X109109460Y-94488000D01*
X109089674Y-94299744D01*
X109031179Y-94119716D01*
X108936533Y-93955784D01*
X108809871Y-93815112D01*
X108809870Y-93815111D01*
X108656734Y-93703851D01*
X108656729Y-93703848D01*
X108483807Y-93626857D01*
X108483802Y-93626855D01*
X108338001Y-93595865D01*
X108298646Y-93587500D01*
X108109354Y-93587500D01*
X108076897Y-93594398D01*
X107924197Y-93626855D01*
X107924192Y-93626857D01*
X107751270Y-93703848D01*
X107751265Y-93703851D01*
X107598129Y-93815111D01*
X107471466Y-93955785D01*
X107376821Y-94119715D01*
X107376818Y-94119722D01*
X107318327Y-94299740D01*
X107318326Y-94299744D01*
X107298540Y-94488000D01*
X94344179Y-94488000D01*
X94321244Y-94441941D01*
X94319466Y-94439586D01*
X94319465Y-94439585D01*
X93919419Y-94839632D01*
X93858096Y-94873117D01*
X93788404Y-94868133D01*
X93732471Y-94826261D01*
X93721256Y-94808251D01*
X93709641Y-94785455D01*
X93709637Y-94785451D01*
X93709636Y-94785449D01*
X93620050Y-94695863D01*
X93620047Y-94695861D01*
X93620045Y-94695859D01*
X93597250Y-94684244D01*
X93546456Y-94636271D01*
X93529661Y-94568450D01*
X93552198Y-94502315D01*
X93565866Y-94486080D01*
X93923643Y-94128302D01*
X93984966Y-94094817D01*
X94054657Y-94099801D01*
X94074312Y-94112433D01*
X94087952Y-94117249D01*
X94089377Y-94117097D01*
X94224086Y-94066854D01*
X94224093Y-94066850D01*
X94339187Y-93980690D01*
X94339190Y-93980687D01*
X94425350Y-93865593D01*
X94425354Y-93865586D01*
X94475596Y-93730879D01*
X94475598Y-93730872D01*
X94481999Y-93671344D01*
X94482000Y-93671327D01*
X94482000Y-93273500D01*
X93892576Y-93273500D01*
X93825537Y-93253815D01*
X93779782Y-93201011D01*
X93769838Y-93131853D01*
X93770103Y-93130103D01*
X93786986Y-93023503D01*
X93786986Y-93023496D01*
X93770103Y-92916897D01*
X93779058Y-92847604D01*
X93824054Y-92794152D01*
X93826292Y-92793460D01*
X105987725Y-92793460D01*
X106007511Y-92981716D01*
X106007512Y-92981719D01*
X106066003Y-93161737D01*
X106066006Y-93161744D01*
X106160652Y-93325676D01*
X106287313Y-93466347D01*
X106287314Y-93466348D01*
X106440450Y-93577608D01*
X106440455Y-93577611D01*
X106613377Y-93654602D01*
X106613382Y-93654604D01*
X106798539Y-93693960D01*
X106798540Y-93693960D01*
X106987829Y-93693960D01*
X106987831Y-93693960D01*
X107172988Y-93654604D01*
X107345915Y-93577611D01*
X107499056Y-93466348D01*
X107625718Y-93325676D01*
X107720364Y-93161744D01*
X107778859Y-92981716D01*
X107798645Y-92793460D01*
X107778859Y-92605204D01*
X107720364Y-92425176D01*
X107625718Y-92261244D01*
X107499056Y-92120572D01*
X107488480Y-92112888D01*
X107345919Y-92009311D01*
X107345914Y-92009308D01*
X107172992Y-91932317D01*
X107172987Y-91932315D01*
X107027186Y-91901325D01*
X106987831Y-91892960D01*
X106798539Y-91892960D01*
X106766082Y-91899858D01*
X106613382Y-91932315D01*
X106613377Y-91932317D01*
X106440455Y-92009308D01*
X106440450Y-92009311D01*
X106287314Y-92120571D01*
X106160651Y-92261245D01*
X106066006Y-92425175D01*
X106066003Y-92425182D01*
X106015712Y-92579963D01*
X106007511Y-92605204D01*
X105987725Y-92793460D01*
X93826292Y-92793460D01*
X93890806Y-92773513D01*
X93892576Y-92773500D01*
X94482000Y-92773500D01*
X94482000Y-92375672D01*
X94481999Y-92375655D01*
X94475598Y-92316127D01*
X94475596Y-92316120D01*
X94425354Y-92181413D01*
X94425350Y-92181406D01*
X94339190Y-92066312D01*
X94339187Y-92066309D01*
X94224093Y-91980149D01*
X94224086Y-91980145D01*
X94089379Y-91929903D01*
X94089372Y-91929901D01*
X94029844Y-91923500D01*
X93632000Y-91923500D01*
X93632000Y-92512924D01*
X93612315Y-92579963D01*
X93559511Y-92625718D01*
X93490353Y-92635662D01*
X93488602Y-92635397D01*
X93413486Y-92623500D01*
X93413481Y-92623500D01*
X93350519Y-92623500D01*
X93350514Y-92623500D01*
X93275398Y-92635397D01*
X93206104Y-92626442D01*
X93152652Y-92581446D01*
X93132013Y-92514694D01*
X93132000Y-92512924D01*
X93132000Y-91923500D01*
X92734155Y-91923500D01*
X92674627Y-91929901D01*
X92674620Y-91929903D01*
X92539913Y-91980145D01*
X92539906Y-91980149D01*
X92424812Y-92066309D01*
X92424809Y-92066312D01*
X92338649Y-92181406D01*
X92338645Y-92181413D01*
X92288403Y-92316120D01*
X92288401Y-92316127D01*
X92282000Y-92375655D01*
X92282000Y-92773500D01*
X92871424Y-92773500D01*
X92938463Y-92793185D01*
X92984218Y-92845989D01*
X92994162Y-92915147D01*
X92993897Y-92916897D01*
X92977014Y-93023496D01*
X92977014Y-93023503D01*
X92993897Y-93130103D01*
X92984942Y-93199396D01*
X92939946Y-93252848D01*
X92873194Y-93273487D01*
X92871424Y-93273500D01*
X92282000Y-93273500D01*
X92282000Y-93671344D01*
X92288401Y-93730872D01*
X92288403Y-93730879D01*
X92338645Y-93865586D01*
X92338649Y-93865593D01*
X92424809Y-93980687D01*
X92424812Y-93980690D01*
X92539906Y-94066850D01*
X92539913Y-94066854D01*
X92674624Y-94117097D01*
X92676045Y-94117249D01*
X92702042Y-94108071D01*
X92726316Y-94094817D01*
X92796008Y-94099801D01*
X92840355Y-94128302D01*
X93198133Y-94486080D01*
X93231618Y-94547403D01*
X93226634Y-94617095D01*
X93184762Y-94673028D01*
X93166748Y-94684245D01*
X93143956Y-94695858D01*
X93143949Y-94695863D01*
X93054363Y-94785449D01*
X93054358Y-94785456D01*
X93042745Y-94808248D01*
X92994770Y-94859044D01*
X92926949Y-94875838D01*
X92860814Y-94853300D01*
X92844580Y-94839633D01*
X92444533Y-94439585D01*
X92442754Y-94441943D01*
X92351886Y-94624430D01*
X92351883Y-94624436D01*
X92296097Y-94820507D01*
X92296096Y-94820510D01*
X92277287Y-95023499D01*
X92277287Y-95023500D01*
X92296096Y-95226489D01*
X92296097Y-95226492D01*
X92351883Y-95422563D01*
X92351886Y-95422569D01*
X92442754Y-95605056D01*
X92442755Y-95605057D01*
X92444533Y-95607412D01*
X92844580Y-95207365D01*
X92905903Y-95173880D01*
X92975594Y-95178864D01*
X93031528Y-95220735D01*
X93042742Y-95238746D01*
X93048477Y-95250000D01*
X93054358Y-95261544D01*
X93054363Y-95261550D01*
X93143949Y-95351136D01*
X93143951Y-95351137D01*
X93143955Y-95351141D01*
X93166747Y-95362754D01*
X93217542Y-95410728D01*
X93234337Y-95478549D01*
X93211799Y-95544684D01*
X93198132Y-95560919D01*
X92801310Y-95957740D01*
X92807282Y-96009209D01*
X92807282Y-96037789D01*
X92801310Y-96089258D01*
X93198133Y-96486080D01*
X93231618Y-96547403D01*
X93226634Y-96617094D01*
X93184763Y-96673028D01*
X93166748Y-96684245D01*
X93143956Y-96695858D01*
X93143949Y-96695863D01*
X93054363Y-96785449D01*
X93054358Y-96785456D01*
X93042745Y-96808248D01*
X92994770Y-96859044D01*
X92926949Y-96875838D01*
X92860814Y-96853300D01*
X92844580Y-96839633D01*
X92444533Y-96439585D01*
X92442754Y-96441943D01*
X92351886Y-96624430D01*
X92351883Y-96624436D01*
X92296097Y-96820507D01*
X92296096Y-96820510D01*
X92277287Y-97023499D01*
X92277287Y-97023500D01*
X92296096Y-97226489D01*
X92296097Y-97226492D01*
X92351883Y-97422563D01*
X92351886Y-97422569D01*
X92442754Y-97605056D01*
X92442755Y-97605057D01*
X92444533Y-97607412D01*
X92844580Y-97207365D01*
X92905903Y-97173880D01*
X92975594Y-97178864D01*
X93031528Y-97220735D01*
X93042742Y-97238746D01*
X93049296Y-97251609D01*
X93054358Y-97261544D01*
X93054363Y-97261550D01*
X93143949Y-97351136D01*
X93143951Y-97351137D01*
X93143955Y-97351141D01*
X93166747Y-97362754D01*
X93217542Y-97410728D01*
X93234337Y-97478549D01*
X93211799Y-97544684D01*
X93198132Y-97560919D01*
X92801310Y-97957740D01*
X92806405Y-98001648D01*
X92794577Y-98070509D01*
X92748509Y-98121365D01*
X92715957Y-98141520D01*
X92565237Y-98278918D01*
X92442327Y-98441678D01*
X92351422Y-98624239D01*
X92351417Y-98624252D01*
X92295602Y-98820417D01*
X92276785Y-99023499D01*
X92276785Y-99023500D01*
X92295602Y-99226582D01*
X92351417Y-99422747D01*
X92351422Y-99422760D01*
X92442327Y-99605321D01*
X92565237Y-99768081D01*
X92600135Y-99799894D01*
X92715959Y-99905481D01*
X92727394Y-99912561D01*
X92736296Y-99918073D01*
X92782931Y-99970101D01*
X92794035Y-100039083D01*
X92766082Y-100103117D01*
X92736296Y-100128927D01*
X92715957Y-100141520D01*
X92565237Y-100278918D01*
X92442327Y-100441678D01*
X92351422Y-100624239D01*
X92351417Y-100624252D01*
X92295602Y-100820417D01*
X92276785Y-101023499D01*
X92276785Y-101023500D01*
X92295602Y-101226582D01*
X92351417Y-101422747D01*
X92351422Y-101422760D01*
X92442327Y-101605321D01*
X92565237Y-101768081D01*
X92683735Y-101876105D01*
X92715959Y-101905481D01*
X92736294Y-101918072D01*
X92736296Y-101918073D01*
X92782931Y-101970101D01*
X92794035Y-102039083D01*
X92766082Y-102103117D01*
X92736296Y-102128927D01*
X92715957Y-102141520D01*
X92565237Y-102278918D01*
X92442327Y-102441678D01*
X92351422Y-102624239D01*
X92351417Y-102624252D01*
X92295602Y-102820417D01*
X92276785Y-103023499D01*
X92276785Y-103023500D01*
X86868500Y-103023500D01*
X86868500Y-90170000D01*
X115680540Y-90170000D01*
X115700326Y-90358256D01*
X115700327Y-90358259D01*
X115758818Y-90538277D01*
X115758821Y-90538284D01*
X115853467Y-90702216D01*
X115890167Y-90742975D01*
X115980129Y-90842888D01*
X116133265Y-90954148D01*
X116133270Y-90954151D01*
X116306192Y-91031142D01*
X116306197Y-91031144D01*
X116491354Y-91070500D01*
X116491355Y-91070500D01*
X116680644Y-91070500D01*
X116680646Y-91070500D01*
X116865803Y-91031144D01*
X117038730Y-90954151D01*
X117191871Y-90842888D01*
X117318533Y-90702216D01*
X117332514Y-90678000D01*
X139302540Y-90678000D01*
X139322326Y-90866256D01*
X139322327Y-90866259D01*
X139380818Y-91046277D01*
X139380821Y-91046284D01*
X139475467Y-91210216D01*
X139542931Y-91285142D01*
X139602129Y-91350888D01*
X139755265Y-91462148D01*
X139755270Y-91462151D01*
X139928192Y-91539142D01*
X139928197Y-91539144D01*
X140113354Y-91578500D01*
X140113355Y-91578500D01*
X140302644Y-91578500D01*
X140302646Y-91578500D01*
X140487803Y-91539144D01*
X140660730Y-91462151D01*
X140691218Y-91440000D01*
X157336540Y-91440000D01*
X157356326Y-91628256D01*
X157356327Y-91628259D01*
X157414818Y-91808277D01*
X157414821Y-91808284D01*
X157509467Y-91972216D01*
X157542865Y-92009308D01*
X157636129Y-92112888D01*
X157789265Y-92224148D01*
X157789270Y-92224151D01*
X157962192Y-92301142D01*
X157962197Y-92301144D01*
X158147354Y-92340500D01*
X158147355Y-92340500D01*
X158336644Y-92340500D01*
X158336646Y-92340500D01*
X158521803Y-92301144D01*
X158694730Y-92224151D01*
X158804117Y-92144676D01*
X158869920Y-92121198D01*
X158937974Y-92137023D01*
X158949871Y-92144668D01*
X159059266Y-92224148D01*
X159059270Y-92224151D01*
X159232192Y-92301142D01*
X159232197Y-92301144D01*
X159417354Y-92340500D01*
X159417355Y-92340500D01*
X159606644Y-92340500D01*
X159606646Y-92340500D01*
X159791803Y-92301144D01*
X159964730Y-92224151D01*
X160117871Y-92112888D01*
X160244533Y-91972216D01*
X160339179Y-91808284D01*
X160397674Y-91628256D01*
X160417460Y-91440000D01*
X160397674Y-91251744D01*
X160339179Y-91071716D01*
X160337171Y-91065535D01*
X160339352Y-91064826D01*
X160331465Y-91005992D01*
X160353828Y-90958231D01*
X160311881Y-90957824D01*
X160253473Y-90919481D01*
X160247651Y-90912076D01*
X160244534Y-90907785D01*
X160244533Y-90907784D01*
X160117871Y-90767112D01*
X160106432Y-90758801D01*
X159964734Y-90655851D01*
X159964729Y-90655848D01*
X159791807Y-90578857D01*
X159791802Y-90578855D01*
X159646000Y-90547865D01*
X159606646Y-90539500D01*
X159417354Y-90539500D01*
X159384897Y-90546398D01*
X159232197Y-90578855D01*
X159232192Y-90578857D01*
X159059270Y-90655848D01*
X159059265Y-90655851D01*
X158949885Y-90735321D01*
X158884079Y-90758801D01*
X158816025Y-90742975D01*
X158804115Y-90735321D01*
X158694734Y-90655851D01*
X158694729Y-90655848D01*
X158521807Y-90578857D01*
X158521802Y-90578855D01*
X158376001Y-90547865D01*
X158336646Y-90539500D01*
X158147354Y-90539500D01*
X158114897Y-90546398D01*
X157962197Y-90578855D01*
X157962192Y-90578857D01*
X157789270Y-90655848D01*
X157789265Y-90655851D01*
X157636129Y-90767111D01*
X157509466Y-90907785D01*
X157414821Y-91071715D01*
X157414818Y-91071722D01*
X157370491Y-91208148D01*
X157356326Y-91251744D01*
X157336540Y-91440000D01*
X140691218Y-91440000D01*
X140813871Y-91350888D01*
X140940533Y-91210216D01*
X141035179Y-91046284D01*
X141093674Y-90866256D01*
X141113460Y-90678000D01*
X141093674Y-90489744D01*
X141072312Y-90424000D01*
X160384540Y-90424000D01*
X160404326Y-90612256D01*
X160404327Y-90612259D01*
X160464829Y-90798465D01*
X160462650Y-90799172D01*
X160470531Y-90858030D01*
X160448166Y-90905768D01*
X160490095Y-90906168D01*
X160548511Y-90944500D01*
X160554347Y-90951921D01*
X160557464Y-90956212D01*
X160557467Y-90956216D01*
X160602286Y-91005992D01*
X160684129Y-91096888D01*
X160837265Y-91208148D01*
X160837270Y-91208151D01*
X161010192Y-91285142D01*
X161010197Y-91285144D01*
X161195354Y-91324500D01*
X161195355Y-91324500D01*
X161384644Y-91324500D01*
X161384646Y-91324500D01*
X161569803Y-91285144D01*
X161742730Y-91208151D01*
X161895871Y-91096888D01*
X162022533Y-90956216D01*
X162117179Y-90792284D01*
X162175674Y-90612256D01*
X162195460Y-90424000D01*
X162175674Y-90235744D01*
X162117179Y-90055716D01*
X162022533Y-89891784D01*
X161895871Y-89751112D01*
X161895870Y-89751111D01*
X161742734Y-89639851D01*
X161742729Y-89639848D01*
X161569807Y-89562857D01*
X161569802Y-89562855D01*
X161424001Y-89531865D01*
X161384646Y-89523500D01*
X161195354Y-89523500D01*
X161162897Y-89530398D01*
X161010197Y-89562855D01*
X161010192Y-89562857D01*
X160837270Y-89639848D01*
X160837265Y-89639851D01*
X160684129Y-89751111D01*
X160557466Y-89891785D01*
X160462821Y-90055715D01*
X160462818Y-90055722D01*
X160404327Y-90235740D01*
X160404326Y-90235744D01*
X160384540Y-90424000D01*
X141072312Y-90424000D01*
X141035179Y-90309716D01*
X140940533Y-90145784D01*
X140813871Y-90005112D01*
X140781708Y-89981744D01*
X140655473Y-89890029D01*
X140657028Y-89887888D01*
X140616921Y-89845840D01*
X140603685Y-89777235D01*
X140629642Y-89712366D01*
X140656370Y-89689205D01*
X140655473Y-89687971D01*
X140741396Y-89625544D01*
X140813871Y-89572888D01*
X140940533Y-89432216D01*
X141035179Y-89268284D01*
X141093674Y-89088256D01*
X141113460Y-88900000D01*
X141093674Y-88711744D01*
X141035179Y-88531716D01*
X140940533Y-88367784D01*
X140813871Y-88227112D01*
X140813870Y-88227111D01*
X140660734Y-88115851D01*
X140660729Y-88115848D01*
X140487807Y-88038857D01*
X140487802Y-88038855D01*
X140342001Y-88007865D01*
X140302646Y-87999500D01*
X140113354Y-87999500D01*
X140080897Y-88006398D01*
X139928197Y-88038855D01*
X139928192Y-88038857D01*
X139755270Y-88115848D01*
X139755265Y-88115851D01*
X139602129Y-88227111D01*
X139475466Y-88367785D01*
X139380821Y-88531715D01*
X139380818Y-88531722D01*
X139322327Y-88711740D01*
X139322326Y-88711744D01*
X139302540Y-88900000D01*
X139322326Y-89088256D01*
X139322327Y-89088259D01*
X139380818Y-89268277D01*
X139380821Y-89268284D01*
X139475467Y-89432216D01*
X139533899Y-89497111D01*
X139602129Y-89572888D01*
X139760527Y-89687971D01*
X139758976Y-89690105D01*
X139799098Y-89732199D01*
X139812309Y-89800808D01*
X139786330Y-89865668D01*
X139759634Y-89888800D01*
X139760527Y-89890029D01*
X139602129Y-90005111D01*
X139475466Y-90145785D01*
X139380821Y-90309715D01*
X139380818Y-90309722D01*
X139322327Y-90489740D01*
X139322326Y-90489744D01*
X139302540Y-90678000D01*
X117332514Y-90678000D01*
X117413179Y-90538284D01*
X117471674Y-90358256D01*
X117491460Y-90170000D01*
X117471674Y-89981744D01*
X117413179Y-89801716D01*
X117318533Y-89637784D01*
X117191871Y-89497112D01*
X117191870Y-89497111D01*
X117038734Y-89385851D01*
X117038729Y-89385848D01*
X116865807Y-89308857D01*
X116865802Y-89308855D01*
X116720000Y-89277865D01*
X116680646Y-89269500D01*
X116491354Y-89269500D01*
X116458897Y-89276398D01*
X116306197Y-89308855D01*
X116306192Y-89308857D01*
X116133270Y-89385848D01*
X116133265Y-89385851D01*
X115980129Y-89497111D01*
X115853466Y-89637785D01*
X115758821Y-89801715D01*
X115758818Y-89801722D01*
X115700327Y-89981740D01*
X115700326Y-89981744D01*
X115680540Y-90170000D01*
X86868500Y-90170000D01*
X86868500Y-88387701D01*
X117049240Y-88387701D01*
X117069026Y-88575957D01*
X117069027Y-88575960D01*
X117127518Y-88755978D01*
X117127521Y-88755985D01*
X117222167Y-88919917D01*
X117348828Y-89060588D01*
X117348829Y-89060589D01*
X117501965Y-89171849D01*
X117501970Y-89171852D01*
X117674892Y-89248843D01*
X117674897Y-89248845D01*
X117860054Y-89288201D01*
X117860055Y-89288201D01*
X118049344Y-89288201D01*
X118049346Y-89288201D01*
X118234503Y-89248845D01*
X118407430Y-89171852D01*
X118462531Y-89131818D01*
X118528335Y-89108339D01*
X118596389Y-89124164D01*
X118642801Y-89170135D01*
X118646262Y-89176129D01*
X118647467Y-89178216D01*
X118711060Y-89248843D01*
X118774129Y-89318888D01*
X118927265Y-89430148D01*
X118927270Y-89430151D01*
X119100192Y-89507142D01*
X119100197Y-89507144D01*
X119285354Y-89546500D01*
X119285355Y-89546500D01*
X119474644Y-89546500D01*
X119474646Y-89546500D01*
X119659803Y-89507144D01*
X119813564Y-89438684D01*
X119882815Y-89429399D01*
X119936886Y-89451645D01*
X120070265Y-89548550D01*
X120070270Y-89548553D01*
X120243192Y-89625544D01*
X120243197Y-89625546D01*
X120428354Y-89664902D01*
X120428355Y-89664902D01*
X120617644Y-89664902D01*
X120617646Y-89664902D01*
X120802803Y-89625546D01*
X120975730Y-89548553D01*
X121109116Y-89451642D01*
X121174918Y-89428164D01*
X121232431Y-89438682D01*
X121386197Y-89507144D01*
X121571354Y-89546500D01*
X121571355Y-89546500D01*
X121760644Y-89546500D01*
X121760646Y-89546500D01*
X121945803Y-89507144D01*
X122118730Y-89430151D01*
X122271871Y-89318888D01*
X122398533Y-89178216D01*
X122493179Y-89014284D01*
X122551674Y-88834256D01*
X122571460Y-88646000D01*
X122551674Y-88457744D01*
X122493179Y-88277716D01*
X122398533Y-88113784D01*
X122271871Y-87973112D01*
X122271870Y-87973111D01*
X122118734Y-87861851D01*
X122118729Y-87861848D01*
X121945807Y-87784857D01*
X121945802Y-87784855D01*
X121800001Y-87753865D01*
X121760646Y-87745500D01*
X121571354Y-87745500D01*
X121538897Y-87752398D01*
X121386197Y-87784855D01*
X121386192Y-87784857D01*
X121213270Y-87861848D01*
X121213265Y-87861851D01*
X121079886Y-87958757D01*
X121014080Y-87982237D01*
X120956565Y-87971718D01*
X120802807Y-87903259D01*
X120802802Y-87903257D01*
X120657001Y-87872267D01*
X120617646Y-87863902D01*
X120428354Y-87863902D01*
X120395897Y-87870800D01*
X120243197Y-87903257D01*
X120243192Y-87903259D01*
X120089434Y-87971718D01*
X120020184Y-87981003D01*
X119966113Y-87958757D01*
X119832734Y-87861851D01*
X119832729Y-87861848D01*
X119659807Y-87784857D01*
X119659802Y-87784855D01*
X119514000Y-87753865D01*
X119474646Y-87745500D01*
X119285354Y-87745500D01*
X119252897Y-87752398D01*
X119100197Y-87784855D01*
X119100192Y-87784857D01*
X118927271Y-87861848D01*
X118872169Y-87901882D01*
X118806362Y-87925361D01*
X118738308Y-87909535D01*
X118691896Y-87863562D01*
X118690907Y-87861849D01*
X118687233Y-87855485D01*
X118560571Y-87714813D01*
X118560570Y-87714812D01*
X118407434Y-87603552D01*
X118407429Y-87603549D01*
X118234507Y-87526558D01*
X118234502Y-87526556D01*
X118088700Y-87495566D01*
X118049346Y-87487201D01*
X117860054Y-87487201D01*
X117827597Y-87494099D01*
X117674897Y-87526556D01*
X117674892Y-87526558D01*
X117501970Y-87603549D01*
X117501965Y-87603552D01*
X117348829Y-87714812D01*
X117222166Y-87855486D01*
X117127521Y-88019416D01*
X117127518Y-88019423D01*
X117069027Y-88199441D01*
X117069026Y-88199445D01*
X117049240Y-88387701D01*
X86868500Y-88387701D01*
X86868500Y-86614000D01*
X114410540Y-86614000D01*
X114430326Y-86802256D01*
X114430327Y-86802259D01*
X114488818Y-86982277D01*
X114488821Y-86982284D01*
X114583467Y-87146216D01*
X114650931Y-87221142D01*
X114710129Y-87286888D01*
X114863265Y-87398148D01*
X114863270Y-87398151D01*
X115036192Y-87475142D01*
X115036197Y-87475144D01*
X115221354Y-87514500D01*
X115221355Y-87514500D01*
X115410644Y-87514500D01*
X115410646Y-87514500D01*
X115595803Y-87475144D01*
X115768730Y-87398151D01*
X115921871Y-87286888D01*
X116048533Y-87146216D01*
X116143179Y-86982284D01*
X116201674Y-86802256D01*
X116221460Y-86614000D01*
X116201674Y-86425744D01*
X116143179Y-86245716D01*
X116048533Y-86081784D01*
X115921871Y-85941112D01*
X115921870Y-85941111D01*
X115768734Y-85829851D01*
X115768729Y-85829848D01*
X115595807Y-85752857D01*
X115595802Y-85752855D01*
X115444524Y-85720701D01*
X115410646Y-85713500D01*
X115221354Y-85713500D01*
X115188897Y-85720398D01*
X115036197Y-85752855D01*
X115036192Y-85752857D01*
X114863270Y-85829848D01*
X114863265Y-85829851D01*
X114710129Y-85941111D01*
X114583466Y-86081785D01*
X114488821Y-86245715D01*
X114488818Y-86245722D01*
X114430327Y-86425740D01*
X114430326Y-86425744D01*
X114410540Y-86614000D01*
X86868500Y-86614000D01*
X86868500Y-85090000D01*
X111008659Y-85090000D01*
X111027975Y-85286129D01*
X111027976Y-85286132D01*
X111084055Y-85471000D01*
X111085188Y-85474733D01*
X111178086Y-85648532D01*
X111178090Y-85648539D01*
X111303116Y-85800883D01*
X111455460Y-85925909D01*
X111455467Y-85925913D01*
X111629266Y-86018811D01*
X111629269Y-86018811D01*
X111629273Y-86018814D01*
X111817868Y-86076024D01*
X112014000Y-86095341D01*
X112210132Y-86076024D01*
X112398727Y-86018814D01*
X112572538Y-85925910D01*
X112724883Y-85800883D01*
X112849910Y-85648538D01*
X112911965Y-85532441D01*
X112942811Y-85474733D01*
X112942811Y-85474732D01*
X112942814Y-85474727D01*
X113000024Y-85286132D01*
X113019341Y-85090000D01*
X113000024Y-84893868D01*
X112942814Y-84705273D01*
X112942811Y-84705269D01*
X112942811Y-84705266D01*
X112849913Y-84531467D01*
X112849909Y-84531460D01*
X112724883Y-84379116D01*
X112662598Y-84328000D01*
X116179240Y-84328000D01*
X116199026Y-84516256D01*
X116199027Y-84516259D01*
X116257518Y-84696277D01*
X116257521Y-84696284D01*
X116352167Y-84860216D01*
X116478829Y-85000888D01*
X116478832Y-85000891D01*
X116482914Y-85004567D01*
X116519561Y-85064054D01*
X116518228Y-85133911D01*
X116492091Y-85179684D01*
X116484171Y-85188479D01*
X116484166Y-85188486D01*
X116389522Y-85352416D01*
X116389519Y-85352423D01*
X116332523Y-85527840D01*
X116331027Y-85532445D01*
X116311241Y-85720701D01*
X116331027Y-85908957D01*
X116331028Y-85908960D01*
X116389519Y-86088978D01*
X116389522Y-86088985D01*
X116484168Y-86252917D01*
X116580586Y-86360000D01*
X116610830Y-86393589D01*
X116763966Y-86504849D01*
X116763971Y-86504852D01*
X116936893Y-86581843D01*
X116936898Y-86581845D01*
X117122055Y-86621201D01*
X117122056Y-86621201D01*
X117311345Y-86621201D01*
X117311347Y-86621201D01*
X117496504Y-86581845D01*
X117669431Y-86504852D01*
X117822572Y-86393589D01*
X117852816Y-86360000D01*
X138794540Y-86360000D01*
X138814326Y-86548256D01*
X138814327Y-86548259D01*
X138872818Y-86728277D01*
X138872821Y-86728284D01*
X138967467Y-86892216D01*
X139048559Y-86982277D01*
X139094129Y-87032888D01*
X139247265Y-87144148D01*
X139247270Y-87144151D01*
X139420192Y-87221142D01*
X139420197Y-87221144D01*
X139605354Y-87260500D01*
X139605355Y-87260500D01*
X139794644Y-87260500D01*
X139794646Y-87260500D01*
X139979803Y-87221144D01*
X140152730Y-87144151D01*
X140305871Y-87032888D01*
X140432533Y-86892216D01*
X140527179Y-86728284D01*
X140585674Y-86548256D01*
X140605460Y-86360000D01*
X140585674Y-86171744D01*
X140527179Y-85991716D01*
X140432533Y-85827784D01*
X140305871Y-85687112D01*
X140252780Y-85648539D01*
X140147473Y-85572029D01*
X140149028Y-85569888D01*
X140108921Y-85527840D01*
X140095685Y-85459235D01*
X140121642Y-85394366D01*
X140148370Y-85371205D01*
X140147473Y-85369971D01*
X140262871Y-85286129D01*
X140305871Y-85254888D01*
X140432533Y-85114216D01*
X140527179Y-84950284D01*
X140585674Y-84770256D01*
X140605460Y-84582000D01*
X140585674Y-84393744D01*
X140527179Y-84213716D01*
X140432533Y-84049784D01*
X140305871Y-83909112D01*
X140305870Y-83909111D01*
X140147473Y-83794029D01*
X140149028Y-83791888D01*
X140108921Y-83749840D01*
X140095685Y-83681235D01*
X140121642Y-83616366D01*
X140148370Y-83593205D01*
X140147473Y-83591971D01*
X140217879Y-83540817D01*
X140305871Y-83476888D01*
X140432533Y-83336216D01*
X140527179Y-83172284D01*
X140585674Y-82992256D01*
X140605460Y-82804000D01*
X140585674Y-82615744D01*
X140562688Y-82545000D01*
X167046341Y-82545000D01*
X167066936Y-82780403D01*
X167066938Y-82780413D01*
X167128094Y-83008655D01*
X167128096Y-83008659D01*
X167128097Y-83008663D01*
X167140775Y-83035851D01*
X167227965Y-83222830D01*
X167227967Y-83222834D01*
X167273446Y-83287784D01*
X167363505Y-83416401D01*
X167530599Y-83583495D01*
X167545752Y-83594105D01*
X167724165Y-83719032D01*
X167724167Y-83719033D01*
X167724170Y-83719035D01*
X167938337Y-83818903D01*
X168166592Y-83880063D01*
X168354918Y-83896539D01*
X168401999Y-83900659D01*
X168402000Y-83900659D01*
X168402001Y-83900659D01*
X168441234Y-83897226D01*
X168637408Y-83880063D01*
X168865663Y-83818903D01*
X169079830Y-83719035D01*
X169273401Y-83583495D01*
X169440495Y-83416401D01*
X169576035Y-83222830D01*
X169675903Y-83008663D01*
X169737063Y-82780408D01*
X169757659Y-82545000D01*
X169737063Y-82309592D01*
X169675903Y-82081337D01*
X169576035Y-81867171D01*
X169440495Y-81673599D01*
X169318567Y-81551671D01*
X169285084Y-81490351D01*
X169290068Y-81420659D01*
X169331939Y-81364725D01*
X169362915Y-81347810D01*
X169494331Y-81298796D01*
X169609546Y-81212546D01*
X169695796Y-81097331D01*
X169746091Y-80962483D01*
X169752500Y-80902873D01*
X169752499Y-79107128D01*
X169746091Y-79047517D01*
X169735162Y-79018216D01*
X169695797Y-78912671D01*
X169695793Y-78912664D01*
X169609547Y-78797455D01*
X169609544Y-78797452D01*
X169494335Y-78711206D01*
X169494328Y-78711202D01*
X169359482Y-78660908D01*
X169359483Y-78660908D01*
X169299883Y-78654501D01*
X169299881Y-78654500D01*
X169299873Y-78654500D01*
X169299864Y-78654500D01*
X167504129Y-78654500D01*
X167504123Y-78654501D01*
X167444516Y-78660908D01*
X167309671Y-78711202D01*
X167309664Y-78711206D01*
X167194455Y-78797452D01*
X167194452Y-78797455D01*
X167108206Y-78912664D01*
X167108202Y-78912671D01*
X167057908Y-79047517D01*
X167053334Y-79090068D01*
X167051501Y-79107123D01*
X167051500Y-79107135D01*
X167051500Y-80902870D01*
X167051501Y-80902876D01*
X167057908Y-80962483D01*
X167108202Y-81097328D01*
X167108206Y-81097335D01*
X167194452Y-81212544D01*
X167194455Y-81212547D01*
X167309664Y-81298793D01*
X167309671Y-81298797D01*
X167441081Y-81347810D01*
X167497015Y-81389681D01*
X167521432Y-81455145D01*
X167506580Y-81523418D01*
X167485430Y-81551673D01*
X167363503Y-81673600D01*
X167227965Y-81867169D01*
X167227964Y-81867171D01*
X167128098Y-82081335D01*
X167128094Y-82081344D01*
X167066938Y-82309586D01*
X167066936Y-82309596D01*
X167046341Y-82544999D01*
X167046341Y-82545000D01*
X140562688Y-82545000D01*
X140527179Y-82435716D01*
X140432533Y-82271784D01*
X140305871Y-82131112D01*
X140305870Y-82131111D01*
X140152734Y-82019851D01*
X140152729Y-82019848D01*
X139979807Y-81942857D01*
X139979802Y-81942855D01*
X139834000Y-81911865D01*
X139794646Y-81903500D01*
X139605354Y-81903500D01*
X139572897Y-81910398D01*
X139420197Y-81942855D01*
X139420192Y-81942857D01*
X139247270Y-82019848D01*
X139247265Y-82019851D01*
X139094129Y-82131111D01*
X138967466Y-82271785D01*
X138872821Y-82435715D01*
X138872818Y-82435722D01*
X138837312Y-82545000D01*
X138814326Y-82615744D01*
X138794540Y-82804000D01*
X138814326Y-82992256D01*
X138814327Y-82992259D01*
X138872818Y-83172277D01*
X138872821Y-83172284D01*
X138967467Y-83336216D01*
X139085095Y-83466855D01*
X139094129Y-83476888D01*
X139252527Y-83591971D01*
X139250976Y-83594105D01*
X139291098Y-83636199D01*
X139304309Y-83704808D01*
X139278330Y-83769668D01*
X139251634Y-83792800D01*
X139252527Y-83794029D01*
X139094129Y-83909111D01*
X138967466Y-84049785D01*
X138872821Y-84213715D01*
X138872818Y-84213722D01*
X138814327Y-84393740D01*
X138814326Y-84393744D01*
X138794540Y-84582000D01*
X138814326Y-84770256D01*
X138814327Y-84770259D01*
X138872818Y-84950277D01*
X138872821Y-84950284D01*
X138967467Y-85114216D01*
X139094128Y-85254888D01*
X139094129Y-85254888D01*
X139252527Y-85369971D01*
X139250976Y-85372105D01*
X139291098Y-85414199D01*
X139304309Y-85482808D01*
X139278330Y-85547668D01*
X139251634Y-85570800D01*
X139252527Y-85572029D01*
X139094129Y-85687111D01*
X138967466Y-85827785D01*
X138872821Y-85991715D01*
X138872818Y-85991722D01*
X138814327Y-86171740D01*
X138814326Y-86171744D01*
X138794540Y-86360000D01*
X117852816Y-86360000D01*
X117949234Y-86252917D01*
X118043880Y-86088985D01*
X118102375Y-85908957D01*
X118122161Y-85720701D01*
X118102375Y-85532445D01*
X118043880Y-85352417D01*
X117949234Y-85188485D01*
X117882360Y-85114214D01*
X117822574Y-85047814D01*
X117818495Y-85044142D01*
X117781842Y-84984658D01*
X117783167Y-84914801D01*
X117809311Y-84869013D01*
X117817233Y-84860216D01*
X117911879Y-84696284D01*
X117970374Y-84516256D01*
X117990160Y-84328000D01*
X117970374Y-84139744D01*
X117911879Y-83959716D01*
X117831214Y-83820000D01*
X128380540Y-83820000D01*
X128400326Y-84008256D01*
X128400327Y-84008259D01*
X128458818Y-84188277D01*
X128458821Y-84188284D01*
X128553467Y-84352216D01*
X128680128Y-84492887D01*
X128680129Y-84492888D01*
X128833265Y-84604148D01*
X128833270Y-84604151D01*
X129006192Y-84681142D01*
X129006197Y-84681144D01*
X129191354Y-84720500D01*
X129191355Y-84720500D01*
X129380644Y-84720500D01*
X129380646Y-84720500D01*
X129565803Y-84681144D01*
X129738730Y-84604151D01*
X129891871Y-84492888D01*
X130018533Y-84352216D01*
X130113179Y-84188284D01*
X130171674Y-84008256D01*
X130191460Y-83820000D01*
X130171674Y-83631744D01*
X130113179Y-83451716D01*
X130018533Y-83287784D01*
X129891871Y-83147112D01*
X129891870Y-83147111D01*
X129738734Y-83035851D01*
X129738729Y-83035848D01*
X129565807Y-82958857D01*
X129565802Y-82958855D01*
X129420001Y-82927865D01*
X129380646Y-82919500D01*
X129191354Y-82919500D01*
X129158897Y-82926398D01*
X129006197Y-82958855D01*
X129006192Y-82958857D01*
X128833270Y-83035848D01*
X128833265Y-83035851D01*
X128680129Y-83147111D01*
X128553466Y-83287785D01*
X128458821Y-83451715D01*
X128458818Y-83451722D01*
X128400327Y-83631740D01*
X128400326Y-83631744D01*
X128393888Y-83693000D01*
X128380656Y-83818901D01*
X128380540Y-83820000D01*
X117831214Y-83820000D01*
X117817233Y-83795784D01*
X117690571Y-83655112D01*
X117690570Y-83655111D01*
X117537434Y-83543851D01*
X117537429Y-83543848D01*
X117364507Y-83466857D01*
X117364502Y-83466855D01*
X117218700Y-83435865D01*
X117179346Y-83427500D01*
X116990054Y-83427500D01*
X116957597Y-83434398D01*
X116804897Y-83466855D01*
X116804892Y-83466857D01*
X116631970Y-83543848D01*
X116631965Y-83543851D01*
X116478829Y-83655111D01*
X116352166Y-83795785D01*
X116257521Y-83959715D01*
X116257518Y-83959722D01*
X116199027Y-84139740D01*
X116199026Y-84139744D01*
X116179240Y-84328000D01*
X112662598Y-84328000D01*
X112572539Y-84254090D01*
X112572532Y-84254086D01*
X112398733Y-84161188D01*
X112398727Y-84161186D01*
X112210132Y-84103976D01*
X112210129Y-84103975D01*
X112014000Y-84084659D01*
X111817870Y-84103975D01*
X111629266Y-84161188D01*
X111455467Y-84254086D01*
X111455460Y-84254090D01*
X111303116Y-84379116D01*
X111178090Y-84531460D01*
X111178086Y-84531467D01*
X111085188Y-84705266D01*
X111027975Y-84893870D01*
X111008659Y-85090000D01*
X86868500Y-85090000D01*
X86868500Y-79248000D01*
X102472540Y-79248000D01*
X102492326Y-79436256D01*
X102492327Y-79436259D01*
X102550818Y-79616277D01*
X102550821Y-79616284D01*
X102645467Y-79780216D01*
X102772128Y-79920887D01*
X102772129Y-79920888D01*
X102925265Y-80032148D01*
X102925270Y-80032151D01*
X103098192Y-80109142D01*
X103098197Y-80109144D01*
X103283354Y-80148500D01*
X103283355Y-80148500D01*
X103472644Y-80148500D01*
X103472646Y-80148500D01*
X103657803Y-80109144D01*
X103830730Y-80032151D01*
X103983871Y-79920888D01*
X104110533Y-79780216D01*
X104205179Y-79616284D01*
X104263674Y-79436256D01*
X104280273Y-79278324D01*
X112596761Y-79278324D01*
X112616547Y-79466580D01*
X112616548Y-79466583D01*
X112675039Y-79646601D01*
X112675042Y-79646608D01*
X112769688Y-79810540D01*
X112869046Y-79920888D01*
X112896350Y-79951212D01*
X113049486Y-80062472D01*
X113049491Y-80062475D01*
X113222413Y-80139466D01*
X113222418Y-80139468D01*
X113407575Y-80178824D01*
X113407576Y-80178824D01*
X113596865Y-80178824D01*
X113596867Y-80178824D01*
X113782024Y-80139468D01*
X113954951Y-80062475D01*
X114108092Y-79951212D01*
X114234754Y-79810540D01*
X114329400Y-79646608D01*
X114387895Y-79466580D01*
X114407681Y-79278324D01*
X114387895Y-79090068D01*
X114329400Y-78910040D01*
X114234754Y-78746108D01*
X114108092Y-78605436D01*
X114108091Y-78605435D01*
X113954955Y-78494175D01*
X113954950Y-78494172D01*
X113936596Y-78486000D01*
X121522540Y-78486000D01*
X121542326Y-78674256D01*
X121542327Y-78674259D01*
X121600818Y-78854277D01*
X121600821Y-78854284D01*
X121695467Y-79018216D01*
X121760163Y-79090068D01*
X121825857Y-79163029D01*
X121856087Y-79226020D01*
X121857028Y-79258961D01*
X121844090Y-79382068D01*
X121838610Y-79434211D01*
X121858396Y-79622467D01*
X121858397Y-79622470D01*
X121916888Y-79802488D01*
X121916891Y-79802495D01*
X122011537Y-79966427D01*
X122138198Y-80107099D01*
X122138199Y-80107099D01*
X122291335Y-80218359D01*
X122291340Y-80218362D01*
X122464262Y-80295353D01*
X122464267Y-80295355D01*
X122649424Y-80334711D01*
X122649425Y-80334711D01*
X122838714Y-80334711D01*
X122838716Y-80334711D01*
X123023873Y-80295355D01*
X123196800Y-80218362D01*
X123349941Y-80107099D01*
X123476603Y-79966427D01*
X123571249Y-79802495D01*
X123629744Y-79622467D01*
X123634397Y-79578200D01*
X139532859Y-79578200D01*
X139552175Y-79774329D01*
X139609388Y-79962933D01*
X139702286Y-80136732D01*
X139702290Y-80136739D01*
X139827316Y-80289083D01*
X139979660Y-80414109D01*
X139979667Y-80414113D01*
X140153466Y-80507011D01*
X140153469Y-80507011D01*
X140153473Y-80507014D01*
X140342068Y-80564224D01*
X140538200Y-80583541D01*
X140734332Y-80564224D01*
X140922927Y-80507014D01*
X141096738Y-80414110D01*
X141249083Y-80289083D01*
X141374110Y-80136738D01*
X141467014Y-79962927D01*
X141524224Y-79774332D01*
X141543541Y-79578200D01*
X141524224Y-79382068D01*
X141467014Y-79193473D01*
X141467011Y-79193469D01*
X141467011Y-79193466D01*
X141374113Y-79019667D01*
X141374109Y-79019660D01*
X141249083Y-78867316D01*
X141096739Y-78742290D01*
X141096732Y-78742286D01*
X140922933Y-78649388D01*
X140922927Y-78649386D01*
X140734332Y-78592176D01*
X140734329Y-78592175D01*
X140538200Y-78572859D01*
X140342070Y-78592175D01*
X140153466Y-78649388D01*
X139979667Y-78742286D01*
X139979660Y-78742290D01*
X139827316Y-78867316D01*
X139702290Y-79019660D01*
X139702286Y-79019667D01*
X139609388Y-79193466D01*
X139552175Y-79382070D01*
X139532859Y-79578200D01*
X123634397Y-79578200D01*
X123649530Y-79434211D01*
X123629744Y-79245955D01*
X123571249Y-79065927D01*
X123476603Y-78901995D01*
X123385238Y-78800525D01*
X123346211Y-78757180D01*
X123315981Y-78694189D01*
X123315040Y-78661256D01*
X123333460Y-78486000D01*
X123313674Y-78297744D01*
X123255179Y-78117716D01*
X123160533Y-77953784D01*
X123033871Y-77813112D01*
X123033870Y-77813111D01*
X122880734Y-77701851D01*
X122880729Y-77701848D01*
X122707807Y-77624857D01*
X122707802Y-77624855D01*
X122559182Y-77593266D01*
X122522646Y-77585500D01*
X122333354Y-77585500D01*
X122300897Y-77592398D01*
X122148197Y-77624855D01*
X122148192Y-77624857D01*
X121975270Y-77701848D01*
X121975265Y-77701851D01*
X121822129Y-77813111D01*
X121695466Y-77953785D01*
X121600821Y-78117715D01*
X121600818Y-78117722D01*
X121551849Y-78268434D01*
X121542326Y-78297744D01*
X121522540Y-78486000D01*
X113936596Y-78486000D01*
X113782028Y-78417181D01*
X113782023Y-78417179D01*
X113636222Y-78386189D01*
X113596867Y-78377824D01*
X113407575Y-78377824D01*
X113375118Y-78384722D01*
X113222418Y-78417179D01*
X113222413Y-78417181D01*
X113049491Y-78494172D01*
X113049486Y-78494175D01*
X112896350Y-78605435D01*
X112769687Y-78746109D01*
X112675042Y-78910039D01*
X112675039Y-78910046D01*
X112624392Y-79065924D01*
X112616547Y-79090068D01*
X112596761Y-79278324D01*
X104280273Y-79278324D01*
X104283460Y-79248000D01*
X104267048Y-79091849D01*
X104279618Y-79023123D01*
X104327350Y-78972099D01*
X104395090Y-78954981D01*
X104426365Y-78960231D01*
X104438868Y-78964024D01*
X104635000Y-78983341D01*
X104831132Y-78964024D01*
X105019727Y-78906814D01*
X105093623Y-78867316D01*
X105193532Y-78813913D01*
X105193538Y-78813910D01*
X105345883Y-78688883D01*
X105470910Y-78536538D01*
X105550917Y-78386855D01*
X105563811Y-78362733D01*
X105563811Y-78362732D01*
X105563814Y-78362727D01*
X105621024Y-78174132D01*
X105640341Y-77978000D01*
X105621024Y-77781868D01*
X105563814Y-77593273D01*
X105521215Y-77513577D01*
X105506974Y-77445176D01*
X105531974Y-77379932D01*
X105538424Y-77372153D01*
X105545638Y-77364139D01*
X105615233Y-77286848D01*
X105709879Y-77122916D01*
X105768374Y-76942888D01*
X105788160Y-76754632D01*
X105768374Y-76566376D01*
X105709879Y-76386348D01*
X105615233Y-76222416D01*
X105488571Y-76081744D01*
X105424389Y-76035113D01*
X105335434Y-75970483D01*
X105335429Y-75970480D01*
X105162507Y-75893489D01*
X105162502Y-75893487D01*
X105016700Y-75862497D01*
X104977346Y-75854132D01*
X104788054Y-75854132D01*
X104755597Y-75861030D01*
X104602897Y-75893487D01*
X104602892Y-75893489D01*
X104429970Y-75970480D01*
X104429965Y-75970483D01*
X104276829Y-76081743D01*
X104150166Y-76222417D01*
X104055521Y-76386347D01*
X104055518Y-76386354D01*
X103997027Y-76566372D01*
X103997026Y-76566376D01*
X103977240Y-76754632D01*
X103997026Y-76942888D01*
X103997027Y-76942891D01*
X104038696Y-77071137D01*
X104040691Y-77140979D01*
X104004610Y-77200811D01*
X103999431Y-77205307D01*
X103924114Y-77267118D01*
X103799090Y-77419460D01*
X103799086Y-77419467D01*
X103706188Y-77593266D01*
X103648975Y-77781870D01*
X103629659Y-77978000D01*
X103648976Y-78174133D01*
X103656388Y-78198567D01*
X103657012Y-78268434D01*
X103619764Y-78327547D01*
X103556471Y-78357138D01*
X103511949Y-78355854D01*
X103509663Y-78355368D01*
X103472646Y-78347500D01*
X103283354Y-78347500D01*
X103250897Y-78354398D01*
X103098197Y-78386855D01*
X103098192Y-78386857D01*
X102925270Y-78463848D01*
X102925265Y-78463851D01*
X102772129Y-78575111D01*
X102645466Y-78715785D01*
X102550821Y-78879715D01*
X102550818Y-78879722D01*
X102492327Y-79059740D01*
X102492326Y-79059744D01*
X102472540Y-79248000D01*
X86868500Y-79248000D01*
X86868500Y-75276300D01*
X101614840Y-75276300D01*
X101634156Y-75472429D01*
X101634157Y-75472432D01*
X101685431Y-75641460D01*
X101691369Y-75661033D01*
X101784267Y-75834832D01*
X101784271Y-75834839D01*
X101909297Y-75987183D01*
X102061641Y-76112209D01*
X102061648Y-76112213D01*
X102235447Y-76205111D01*
X102235450Y-76205111D01*
X102235454Y-76205114D01*
X102424049Y-76262324D01*
X102620181Y-76281641D01*
X102816313Y-76262324D01*
X103004908Y-76205114D01*
X103178719Y-76112210D01*
X103331064Y-75987183D01*
X103456091Y-75834838D01*
X103548995Y-75661027D01*
X103606205Y-75472432D01*
X103625522Y-75276300D01*
X103606205Y-75080168D01*
X103560652Y-74930000D01*
X112378540Y-74930000D01*
X112398326Y-75118256D01*
X112398327Y-75118259D01*
X112456818Y-75298277D01*
X112456821Y-75298284D01*
X112551467Y-75462216D01*
X112678129Y-75602888D01*
X112831268Y-75714150D01*
X112833140Y-75715231D01*
X112834006Y-75716139D01*
X112836527Y-75717971D01*
X112836192Y-75718431D01*
X112881356Y-75765798D01*
X112894578Y-75834405D01*
X112868610Y-75899270D01*
X112844026Y-75922936D01*
X112689627Y-76035113D01*
X112562966Y-76175785D01*
X112468321Y-76339715D01*
X112468318Y-76339722D01*
X112433092Y-76448138D01*
X112409826Y-76519744D01*
X112390040Y-76708000D01*
X112409826Y-76896256D01*
X112409827Y-76896259D01*
X112468318Y-77076277D01*
X112468321Y-77076284D01*
X112562967Y-77240216D01*
X112587189Y-77267117D01*
X112689629Y-77380888D01*
X112842765Y-77492148D01*
X112842770Y-77492151D01*
X113015692Y-77569142D01*
X113015697Y-77569144D01*
X113200854Y-77608500D01*
X113200855Y-77608500D01*
X113390144Y-77608500D01*
X113390146Y-77608500D01*
X113575303Y-77569144D01*
X113748230Y-77492151D01*
X113901371Y-77380888D01*
X114028033Y-77240216D01*
X114122679Y-77076284D01*
X114181174Y-76896256D01*
X114200960Y-76708000D01*
X114181174Y-76519744D01*
X114122679Y-76339716D01*
X114028033Y-76175784D01*
X113901371Y-76035112D01*
X113872978Y-76014483D01*
X113748228Y-75923847D01*
X113746354Y-75922765D01*
X113745486Y-75921855D01*
X113742973Y-75920029D01*
X113743307Y-75919569D01*
X113698141Y-75872196D01*
X113684921Y-75803588D01*
X113710892Y-75738725D01*
X113735474Y-75715063D01*
X113736728Y-75714151D01*
X113736730Y-75714151D01*
X113889871Y-75602888D01*
X114016533Y-75462216D01*
X114027745Y-75442796D01*
X114579729Y-75442796D01*
X114599045Y-75638926D01*
X114656258Y-75827530D01*
X114749156Y-76001329D01*
X114749160Y-76001336D01*
X114874186Y-76153680D01*
X115026530Y-76278706D01*
X115026537Y-76278710D01*
X115200336Y-76371608D01*
X115200339Y-76371608D01*
X115200343Y-76371611D01*
X115388938Y-76428821D01*
X115585070Y-76448138D01*
X115781202Y-76428821D01*
X115969797Y-76371611D01*
X116143608Y-76278707D01*
X116239512Y-76200000D01*
X122438659Y-76200000D01*
X122457975Y-76396129D01*
X122515188Y-76584733D01*
X122608086Y-76758532D01*
X122608090Y-76758539D01*
X122733116Y-76910883D01*
X122885460Y-77035909D01*
X122885467Y-77035913D01*
X123059266Y-77128811D01*
X123059269Y-77128811D01*
X123059273Y-77128814D01*
X123247868Y-77186024D01*
X123444000Y-77205341D01*
X123640132Y-77186024D01*
X123828727Y-77128814D01*
X123839762Y-77122916D01*
X124002532Y-77035913D01*
X124002538Y-77035910D01*
X124154883Y-76910883D01*
X124279910Y-76758538D01*
X124372814Y-76584727D01*
X124430024Y-76396132D01*
X124449341Y-76200000D01*
X124430024Y-76003868D01*
X124372814Y-75815273D01*
X124372811Y-75815269D01*
X124372811Y-75815266D01*
X124279913Y-75641467D01*
X124279909Y-75641460D01*
X124217160Y-75565000D01*
X133739940Y-75565000D01*
X133759726Y-75753256D01*
X133759727Y-75753259D01*
X133818218Y-75933277D01*
X133818221Y-75933284D01*
X133912867Y-76097216D01*
X134010019Y-76205114D01*
X134039529Y-76237888D01*
X134192665Y-76349148D01*
X134192670Y-76349151D01*
X134365592Y-76426142D01*
X134365597Y-76426144D01*
X134550754Y-76465500D01*
X134550755Y-76465500D01*
X134740044Y-76465500D01*
X134740046Y-76465500D01*
X134925203Y-76426144D01*
X135098130Y-76349151D01*
X135251271Y-76237888D01*
X135377933Y-76097216D01*
X135472579Y-75933284D01*
X135531074Y-75753256D01*
X135550860Y-75565000D01*
X135531074Y-75376744D01*
X135472579Y-75196716D01*
X135377933Y-75032784D01*
X135251271Y-74892112D01*
X135251270Y-74892111D01*
X135098134Y-74780851D01*
X135098129Y-74780848D01*
X134925207Y-74703857D01*
X134925202Y-74703855D01*
X134779400Y-74672865D01*
X134740046Y-74664500D01*
X134550754Y-74664500D01*
X134518297Y-74671398D01*
X134365597Y-74703855D01*
X134365592Y-74703857D01*
X134192670Y-74780848D01*
X134192665Y-74780851D01*
X134039529Y-74892111D01*
X133912866Y-75032785D01*
X133818221Y-75196715D01*
X133818218Y-75196722D01*
X133759727Y-75376740D01*
X133759726Y-75376744D01*
X133739940Y-75565000D01*
X124217160Y-75565000D01*
X124154883Y-75489116D01*
X124002539Y-75364090D01*
X124002532Y-75364086D01*
X123828733Y-75271188D01*
X123828727Y-75271186D01*
X123640132Y-75213976D01*
X123640129Y-75213975D01*
X123444000Y-75194659D01*
X123247870Y-75213975D01*
X123059266Y-75271188D01*
X122885467Y-75364086D01*
X122885460Y-75364090D01*
X122733116Y-75489116D01*
X122608090Y-75641460D01*
X122608086Y-75641467D01*
X122515188Y-75815266D01*
X122457975Y-76003870D01*
X122438659Y-76200000D01*
X116239512Y-76200000D01*
X116295953Y-76153680D01*
X116420980Y-76001335D01*
X116478625Y-75893489D01*
X116513881Y-75827530D01*
X116513881Y-75827529D01*
X116513884Y-75827524D01*
X116571094Y-75638929D01*
X116590411Y-75442797D01*
X116571094Y-75246665D01*
X116513884Y-75058070D01*
X116513881Y-75058066D01*
X116513881Y-75058063D01*
X116420983Y-74884264D01*
X116420979Y-74884257D01*
X116295953Y-74731913D01*
X116143609Y-74606887D01*
X116143602Y-74606883D01*
X115969803Y-74513985D01*
X115969797Y-74513983D01*
X115781202Y-74456773D01*
X115781199Y-74456772D01*
X115585070Y-74437456D01*
X115388940Y-74456772D01*
X115200336Y-74513985D01*
X115026537Y-74606883D01*
X115026530Y-74606887D01*
X114874186Y-74731913D01*
X114749160Y-74884257D01*
X114749156Y-74884264D01*
X114656258Y-75058063D01*
X114599045Y-75246667D01*
X114579729Y-75442796D01*
X114027745Y-75442796D01*
X114111179Y-75298284D01*
X114169674Y-75118256D01*
X114189460Y-74930000D01*
X114169674Y-74741744D01*
X114111179Y-74561716D01*
X114016533Y-74397784D01*
X113889871Y-74257112D01*
X113889870Y-74257111D01*
X113736734Y-74145851D01*
X113736729Y-74145848D01*
X113563807Y-74068857D01*
X113563802Y-74068855D01*
X113418000Y-74037865D01*
X113378646Y-74029500D01*
X113189354Y-74029500D01*
X113156897Y-74036398D01*
X113004197Y-74068855D01*
X113004192Y-74068857D01*
X112831270Y-74145848D01*
X112831265Y-74145851D01*
X112678129Y-74257111D01*
X112551466Y-74397785D01*
X112456821Y-74561715D01*
X112456818Y-74561722D01*
X112401520Y-74731913D01*
X112398326Y-74741744D01*
X112378540Y-74930000D01*
X103560652Y-74930000D01*
X103548995Y-74891573D01*
X103548992Y-74891569D01*
X103548992Y-74891566D01*
X103456094Y-74717767D01*
X103456090Y-74717760D01*
X103331064Y-74565416D01*
X103178720Y-74440390D01*
X103178713Y-74440386D01*
X103004914Y-74347488D01*
X103004908Y-74347486D01*
X102816313Y-74290276D01*
X102816310Y-74290275D01*
X102620181Y-74270959D01*
X102424051Y-74290275D01*
X102235447Y-74347488D01*
X102061648Y-74440386D01*
X102061641Y-74440390D01*
X101909297Y-74565416D01*
X101784271Y-74717760D01*
X101784267Y-74717767D01*
X101691369Y-74891566D01*
X101634156Y-75080170D01*
X101614840Y-75276300D01*
X86868500Y-75276300D01*
X86868500Y-72898000D01*
X104504540Y-72898000D01*
X104524326Y-73086256D01*
X104524327Y-73086259D01*
X104582818Y-73266277D01*
X104582821Y-73266284D01*
X104677467Y-73430216D01*
X104749598Y-73510325D01*
X104804129Y-73570888D01*
X104957265Y-73682148D01*
X104957270Y-73682151D01*
X105130192Y-73759142D01*
X105130197Y-73759144D01*
X105315354Y-73798500D01*
X105315355Y-73798500D01*
X105504644Y-73798500D01*
X105504646Y-73798500D01*
X105689803Y-73759144D01*
X105862730Y-73682151D01*
X106015871Y-73570888D01*
X106142533Y-73430216D01*
X106237179Y-73266284D01*
X106295674Y-73086256D01*
X106315460Y-72898000D01*
X106295674Y-72709744D01*
X106237179Y-72529716D01*
X106142533Y-72365784D01*
X106015871Y-72225112D01*
X106015870Y-72225111D01*
X105862734Y-72113851D01*
X105862729Y-72113848D01*
X105689807Y-72036857D01*
X105689802Y-72036855D01*
X105541182Y-72005266D01*
X105504646Y-71997500D01*
X105315354Y-71997500D01*
X105282897Y-72004398D01*
X105130197Y-72036855D01*
X105130192Y-72036857D01*
X104957270Y-72113848D01*
X104957265Y-72113851D01*
X104804129Y-72225111D01*
X104677466Y-72365785D01*
X104582821Y-72529715D01*
X104582818Y-72529722D01*
X104545129Y-72645719D01*
X104524326Y-72709744D01*
X104504540Y-72898000D01*
X86868500Y-72898000D01*
X86868500Y-71120000D01*
X122208340Y-71120000D01*
X122228126Y-71308256D01*
X122228127Y-71308259D01*
X122286618Y-71488277D01*
X122286621Y-71488284D01*
X122381267Y-71652216D01*
X122507928Y-71792887D01*
X122507929Y-71792888D01*
X122661065Y-71904148D01*
X122661070Y-71904151D01*
X122833992Y-71981142D01*
X122833997Y-71981144D01*
X123019154Y-72020500D01*
X123019155Y-72020500D01*
X123208444Y-72020500D01*
X123208446Y-72020500D01*
X123393603Y-71981144D01*
X123436430Y-71962075D01*
X123505679Y-71952790D01*
X123568956Y-71982418D01*
X123604797Y-72037037D01*
X123632818Y-72123277D01*
X123632821Y-72123284D01*
X123727467Y-72287216D01*
X123854129Y-72427887D01*
X123854129Y-72427888D01*
X124007265Y-72539148D01*
X124007270Y-72539151D01*
X124180192Y-72616142D01*
X124180197Y-72616144D01*
X124365354Y-72655500D01*
X124365355Y-72655500D01*
X124554644Y-72655500D01*
X124554646Y-72655500D01*
X124739803Y-72616144D01*
X124846956Y-72568435D01*
X124916204Y-72559150D01*
X124979481Y-72588778D01*
X125016051Y-72645719D01*
X125055186Y-72774728D01*
X125148086Y-72948532D01*
X125148090Y-72948539D01*
X125273116Y-73100883D01*
X125425460Y-73225909D01*
X125425467Y-73225913D01*
X125599266Y-73318811D01*
X125599269Y-73318811D01*
X125599273Y-73318814D01*
X125787868Y-73376024D01*
X125984000Y-73395341D01*
X126180132Y-73376024D01*
X126368727Y-73318814D01*
X126542538Y-73225910D01*
X126694883Y-73100883D01*
X126819910Y-72948538D01*
X126912814Y-72774727D01*
X126970024Y-72586132D01*
X126989341Y-72390000D01*
X126970024Y-72193868D01*
X126912814Y-72005273D01*
X126912811Y-72005269D01*
X126912811Y-72005266D01*
X126819913Y-71831467D01*
X126819909Y-71831460D01*
X126757160Y-71755000D01*
X134984540Y-71755000D01*
X135004326Y-71943256D01*
X135004327Y-71943259D01*
X135062818Y-72123277D01*
X135062821Y-72123284D01*
X135157467Y-72287216D01*
X135284129Y-72427887D01*
X135284129Y-72427888D01*
X135437265Y-72539148D01*
X135437270Y-72539151D01*
X135610192Y-72616142D01*
X135610197Y-72616144D01*
X135795354Y-72655500D01*
X135795355Y-72655500D01*
X135984644Y-72655500D01*
X135984646Y-72655500D01*
X136169803Y-72616144D01*
X136342730Y-72539151D01*
X136373218Y-72517000D01*
X137760141Y-72517000D01*
X137780736Y-72752403D01*
X137780738Y-72752413D01*
X137841894Y-72980655D01*
X137841896Y-72980659D01*
X137841897Y-72980663D01*
X137897957Y-73100883D01*
X137941765Y-73194830D01*
X137941767Y-73194834D01*
X138050081Y-73349521D01*
X138077301Y-73388396D01*
X138077306Y-73388402D01*
X138199230Y-73510326D01*
X138232715Y-73571649D01*
X138227731Y-73641341D01*
X138185859Y-73697274D01*
X138154883Y-73714189D01*
X138023469Y-73763203D01*
X138023464Y-73763206D01*
X137908255Y-73849452D01*
X137908252Y-73849455D01*
X137822006Y-73964664D01*
X137822002Y-73964671D01*
X137771708Y-74099517D01*
X137766727Y-74145851D01*
X137765301Y-74159123D01*
X137765300Y-74159135D01*
X137765300Y-75954870D01*
X137765301Y-75954876D01*
X137771708Y-76014483D01*
X137822002Y-76149328D01*
X137822006Y-76149335D01*
X137908252Y-76264544D01*
X137908255Y-76264547D01*
X138023464Y-76350793D01*
X138023471Y-76350797D01*
X138158317Y-76401091D01*
X138158316Y-76401091D01*
X138165244Y-76401835D01*
X138217927Y-76407500D01*
X140013672Y-76407499D01*
X140073283Y-76401091D01*
X140208131Y-76350796D01*
X140323346Y-76264546D01*
X140409596Y-76149331D01*
X140459891Y-76014483D01*
X140466300Y-75954873D01*
X140466299Y-74159128D01*
X140459891Y-74099517D01*
X140448455Y-74068856D01*
X140409597Y-73964671D01*
X140409593Y-73964664D01*
X140323347Y-73849455D01*
X140323344Y-73849452D01*
X140208135Y-73763206D01*
X140208128Y-73763202D01*
X140076717Y-73714189D01*
X140020783Y-73672318D01*
X139996366Y-73606853D01*
X140011218Y-73538580D01*
X140032363Y-73510332D01*
X140154295Y-73388401D01*
X140289835Y-73194830D01*
X140389703Y-72980663D01*
X140450863Y-72752408D01*
X140471459Y-72517000D01*
X140450863Y-72281592D01*
X140389703Y-72053337D01*
X140289835Y-71839171D01*
X140284438Y-71831462D01*
X140154294Y-71645597D01*
X139987202Y-71478506D01*
X139987195Y-71478501D01*
X139837953Y-71374000D01*
X144382540Y-71374000D01*
X144402326Y-71562256D01*
X144402327Y-71562259D01*
X144460818Y-71742277D01*
X144460821Y-71742284D01*
X144555467Y-71906216D01*
X144644659Y-72005273D01*
X144682129Y-72046888D01*
X144835265Y-72158148D01*
X144835270Y-72158151D01*
X145008192Y-72235142D01*
X145008197Y-72235144D01*
X145193354Y-72274500D01*
X145193355Y-72274500D01*
X145382644Y-72274500D01*
X145382646Y-72274500D01*
X145567803Y-72235144D01*
X145740730Y-72158151D01*
X145893871Y-72046888D01*
X146020533Y-71906216D01*
X146115179Y-71742284D01*
X146173674Y-71562256D01*
X146193460Y-71374000D01*
X146173674Y-71185744D01*
X146117291Y-71012216D01*
X146115181Y-71005722D01*
X146115180Y-71005721D01*
X146115179Y-71005716D01*
X146020533Y-70841784D01*
X145893871Y-70701112D01*
X145893870Y-70701111D01*
X145747821Y-70595000D01*
X146950073Y-70595000D01*
X146969737Y-70807216D01*
X146969738Y-70807219D01*
X147028058Y-71012196D01*
X147028066Y-71012216D01*
X147123060Y-71202990D01*
X147131834Y-71214609D01*
X147567579Y-70778865D01*
X147628902Y-70745380D01*
X147698593Y-70750364D01*
X147754527Y-70792235D01*
X147765744Y-70810250D01*
X147777358Y-70833044D01*
X147777363Y-70833050D01*
X147866949Y-70922636D01*
X147866951Y-70922637D01*
X147866955Y-70922641D01*
X147889747Y-70934254D01*
X147940542Y-70982228D01*
X147957337Y-71050049D01*
X147934799Y-71116184D01*
X147921132Y-71132419D01*
X147487991Y-71565560D01*
X147487992Y-71565561D01*
X147590201Y-71628845D01*
X147590210Y-71628850D01*
X147788936Y-71705836D01*
X147788941Y-71705837D01*
X147978346Y-71741244D01*
X148040627Y-71772912D01*
X148075900Y-71833225D01*
X148079032Y-71851691D01*
X148089737Y-71967216D01*
X148089738Y-71967219D01*
X148148058Y-72172196D01*
X148148066Y-72172216D01*
X148243060Y-72362990D01*
X148251834Y-72374609D01*
X148687579Y-71938865D01*
X148748902Y-71905380D01*
X148818593Y-71910364D01*
X148874527Y-71952235D01*
X148885744Y-71970250D01*
X148897358Y-71993044D01*
X148897363Y-71993050D01*
X148986949Y-72082636D01*
X148986951Y-72082637D01*
X148986955Y-72082641D01*
X149009747Y-72094254D01*
X149060542Y-72142228D01*
X149077337Y-72210049D01*
X149054799Y-72276184D01*
X149041132Y-72292419D01*
X148607991Y-72725560D01*
X148607992Y-72725561D01*
X148710201Y-72788845D01*
X148710210Y-72788850D01*
X148908936Y-72865836D01*
X148908941Y-72865837D01*
X149118439Y-72905000D01*
X149331561Y-72905000D01*
X149541058Y-72865837D01*
X149541063Y-72865836D01*
X149739789Y-72788850D01*
X149739793Y-72788848D01*
X149842007Y-72725560D01*
X149408866Y-72292419D01*
X149375381Y-72231096D01*
X149380365Y-72161404D01*
X149422237Y-72105471D01*
X149440245Y-72094258D01*
X149463045Y-72082641D01*
X149552641Y-71993045D01*
X149564254Y-71970252D01*
X149612225Y-71919458D01*
X149680046Y-71902661D01*
X149746181Y-71925197D01*
X149762419Y-71938866D01*
X150198163Y-72374610D01*
X150206935Y-72362996D01*
X150206938Y-72362991D01*
X150301935Y-72172211D01*
X150301941Y-72172196D01*
X150360261Y-71967219D01*
X150360262Y-71967216D01*
X150379927Y-71755000D01*
X150379927Y-71754999D01*
X150360262Y-71542783D01*
X150360261Y-71542780D01*
X150301941Y-71337803D01*
X150301933Y-71337783D01*
X150206940Y-71147010D01*
X150198163Y-71135388D01*
X149762419Y-71571132D01*
X149701096Y-71604617D01*
X149631404Y-71599633D01*
X149575471Y-71557761D01*
X149564256Y-71539751D01*
X149552641Y-71516955D01*
X149552637Y-71516951D01*
X149552636Y-71516949D01*
X149463050Y-71427363D01*
X149463044Y-71427358D01*
X149453109Y-71422296D01*
X149440250Y-71415744D01*
X149389456Y-71367773D01*
X149372660Y-71299952D01*
X149395197Y-71233817D01*
X149408865Y-71217580D01*
X149842007Y-70784438D01*
X149739789Y-70721149D01*
X149541063Y-70644163D01*
X149541060Y-70644162D01*
X149351652Y-70608755D01*
X149289372Y-70577086D01*
X149254099Y-70516774D01*
X149250967Y-70498307D01*
X149240262Y-70382783D01*
X149240261Y-70382780D01*
X149181941Y-70177803D01*
X149181933Y-70177783D01*
X149086940Y-69987010D01*
X149078163Y-69975388D01*
X148642419Y-70411132D01*
X148581096Y-70444617D01*
X148511404Y-70439633D01*
X148455471Y-70397761D01*
X148444256Y-70379751D01*
X148432641Y-70356955D01*
X148432637Y-70356951D01*
X148432636Y-70356949D01*
X148343050Y-70267363D01*
X148343044Y-70267358D01*
X148333109Y-70262296D01*
X148320250Y-70255744D01*
X148269456Y-70207773D01*
X148252660Y-70139952D01*
X148275197Y-70073817D01*
X148288865Y-70057580D01*
X148722007Y-69624438D01*
X148619789Y-69561149D01*
X148421063Y-69484163D01*
X148421058Y-69484162D01*
X148211561Y-69445000D01*
X147998439Y-69445000D01*
X147788941Y-69484162D01*
X147788940Y-69484162D01*
X147590208Y-69561151D01*
X147590205Y-69561152D01*
X147487992Y-69624438D01*
X147921133Y-70057580D01*
X147954618Y-70118903D01*
X147949634Y-70188595D01*
X147907762Y-70244528D01*
X147889748Y-70255745D01*
X147866956Y-70267358D01*
X147866949Y-70267363D01*
X147777363Y-70356949D01*
X147777358Y-70356956D01*
X147765745Y-70379748D01*
X147717770Y-70430544D01*
X147649949Y-70447338D01*
X147583814Y-70424800D01*
X147567580Y-70411133D01*
X147131835Y-69975389D01*
X147123056Y-69987015D01*
X147028066Y-70177783D01*
X147028058Y-70177803D01*
X146969738Y-70382780D01*
X146969737Y-70382783D01*
X146950073Y-70594999D01*
X146950073Y-70595000D01*
X145747821Y-70595000D01*
X145740734Y-70589851D01*
X145740729Y-70589848D01*
X145567807Y-70512857D01*
X145567802Y-70512855D01*
X145422001Y-70481865D01*
X145382646Y-70473500D01*
X145193354Y-70473500D01*
X145160897Y-70480398D01*
X145008197Y-70512855D01*
X145008192Y-70512857D01*
X144835270Y-70589848D01*
X144835265Y-70589851D01*
X144682129Y-70701111D01*
X144555466Y-70841785D01*
X144460821Y-71005715D01*
X144460818Y-71005722D01*
X144402327Y-71185740D01*
X144402326Y-71185744D01*
X144382540Y-71374000D01*
X139837953Y-71374000D01*
X139793634Y-71342967D01*
X139793630Y-71342965D01*
X139719203Y-71308259D01*
X139579463Y-71243097D01*
X139579459Y-71243096D01*
X139579455Y-71243094D01*
X139351213Y-71181938D01*
X139351203Y-71181936D01*
X139115801Y-71161341D01*
X139115799Y-71161341D01*
X138880396Y-71181936D01*
X138880386Y-71181938D01*
X138652144Y-71243094D01*
X138652135Y-71243098D01*
X138437971Y-71342964D01*
X138437969Y-71342965D01*
X138244397Y-71478505D01*
X138077305Y-71645597D01*
X137941765Y-71839169D01*
X137941764Y-71839171D01*
X137841898Y-72053335D01*
X137841894Y-72053344D01*
X137780738Y-72281586D01*
X137780736Y-72281596D01*
X137760141Y-72516999D01*
X137760141Y-72517000D01*
X136373218Y-72517000D01*
X136495871Y-72427888D01*
X136622533Y-72287216D01*
X136717179Y-72123284D01*
X136775674Y-71943256D01*
X136795460Y-71755000D01*
X136775674Y-71566744D01*
X136717179Y-71386716D01*
X136622533Y-71222784D01*
X136495871Y-71082112D01*
X136464001Y-71058957D01*
X136342734Y-70970851D01*
X136342729Y-70970848D01*
X136169807Y-70893857D01*
X136169802Y-70893855D01*
X136024000Y-70862865D01*
X135984646Y-70854500D01*
X135795354Y-70854500D01*
X135762897Y-70861398D01*
X135610197Y-70893855D01*
X135610192Y-70893857D01*
X135437270Y-70970848D01*
X135437265Y-70970851D01*
X135284129Y-71082111D01*
X135157466Y-71222785D01*
X135062821Y-71386715D01*
X135062818Y-71386722D01*
X135004710Y-71565561D01*
X135004326Y-71566744D01*
X134984540Y-71755000D01*
X126757160Y-71755000D01*
X126694883Y-71679116D01*
X126542539Y-71554090D01*
X126542532Y-71554086D01*
X126368733Y-71461188D01*
X126368727Y-71461186D01*
X126180132Y-71403976D01*
X126180129Y-71403975D01*
X125984000Y-71384659D01*
X125787870Y-71403975D01*
X125599266Y-71461188D01*
X125484594Y-71522482D01*
X125416191Y-71536724D01*
X125350947Y-71511724D01*
X125309577Y-71455418D01*
X125308210Y-71451442D01*
X125287181Y-71386721D01*
X125287178Y-71386715D01*
X125279837Y-71374000D01*
X125192533Y-71222784D01*
X125065871Y-71082112D01*
X125034001Y-71058957D01*
X124912734Y-70970851D01*
X124912729Y-70970848D01*
X124739807Y-70893857D01*
X124739802Y-70893855D01*
X124594001Y-70862865D01*
X124554646Y-70854500D01*
X124365354Y-70854500D01*
X124332897Y-70861398D01*
X124180197Y-70893855D01*
X124180192Y-70893857D01*
X124137367Y-70912924D01*
X124068117Y-70922208D01*
X124004841Y-70892579D01*
X123969002Y-70837962D01*
X123967404Y-70833045D01*
X123949800Y-70778865D01*
X123940981Y-70751721D01*
X123940978Y-70751715D01*
X123940198Y-70750364D01*
X123846333Y-70587784D01*
X123719671Y-70447112D01*
X123709377Y-70439633D01*
X123566534Y-70335851D01*
X123566529Y-70335848D01*
X123393607Y-70258857D01*
X123393602Y-70258855D01*
X123247801Y-70227865D01*
X123208446Y-70219500D01*
X123019154Y-70219500D01*
X122986697Y-70226398D01*
X122833997Y-70258855D01*
X122833992Y-70258857D01*
X122661070Y-70335848D01*
X122661065Y-70335851D01*
X122507929Y-70447111D01*
X122381266Y-70587785D01*
X122286621Y-70751715D01*
X122286618Y-70751722D01*
X122228127Y-70931740D01*
X122228126Y-70931744D01*
X122208340Y-71120000D01*
X86868500Y-71120000D01*
X86868500Y-69050500D01*
X116315540Y-69050500D01*
X116335326Y-69238756D01*
X116335327Y-69238759D01*
X116393818Y-69418777D01*
X116393821Y-69418784D01*
X116488467Y-69582716D01*
X116526034Y-69624438D01*
X116615129Y-69723388D01*
X116768265Y-69834648D01*
X116768270Y-69834651D01*
X116941192Y-69911642D01*
X116941197Y-69911644D01*
X117126354Y-69951000D01*
X117126355Y-69951000D01*
X117315644Y-69951000D01*
X117315646Y-69951000D01*
X117500803Y-69911644D01*
X117673730Y-69834651D01*
X117826871Y-69723388D01*
X117953533Y-69582716D01*
X118048179Y-69418784D01*
X118106674Y-69238756D01*
X118126460Y-69050500D01*
X118106674Y-68862244D01*
X118048179Y-68682216D01*
X117953533Y-68518284D01*
X117826871Y-68377612D01*
X117771659Y-68337498D01*
X117673734Y-68266351D01*
X117673729Y-68266348D01*
X117500807Y-68189357D01*
X117500802Y-68189355D01*
X117355000Y-68158365D01*
X117315646Y-68150000D01*
X117126354Y-68150000D01*
X117093897Y-68156898D01*
X116941197Y-68189355D01*
X116941192Y-68189357D01*
X116768270Y-68266348D01*
X116768265Y-68266351D01*
X116615129Y-68377611D01*
X116488466Y-68518285D01*
X116393821Y-68682215D01*
X116393818Y-68682222D01*
X116340051Y-68847701D01*
X116335326Y-68862244D01*
X116315540Y-69050500D01*
X86868500Y-69050500D01*
X86868500Y-67947201D01*
X101581339Y-67947201D01*
X101601125Y-68135457D01*
X101601126Y-68135460D01*
X101659617Y-68315478D01*
X101659620Y-68315485D01*
X101754266Y-68479417D01*
X101880928Y-68620088D01*
X101880928Y-68620089D01*
X102034064Y-68731349D01*
X102034069Y-68731352D01*
X102206991Y-68808343D01*
X102206996Y-68808345D01*
X102392153Y-68847701D01*
X102392154Y-68847701D01*
X102581443Y-68847701D01*
X102581445Y-68847701D01*
X102766602Y-68808345D01*
X102939529Y-68731352D01*
X103092670Y-68620089D01*
X103205995Y-68494228D01*
X103265482Y-68457580D01*
X103304286Y-68454434D01*
X103304286Y-68453847D01*
X103500075Y-68453847D01*
X103500077Y-68453847D01*
X103685234Y-68414491D01*
X103858161Y-68337498D01*
X104011302Y-68226235D01*
X104137964Y-68085563D01*
X104232610Y-67921631D01*
X104291105Y-67741603D01*
X104310891Y-67553347D01*
X104291105Y-67365091D01*
X104232610Y-67185063D01*
X104137964Y-67021131D01*
X104011302Y-66880459D01*
X104011298Y-66880456D01*
X103858165Y-66769198D01*
X103858160Y-66769195D01*
X103685238Y-66692204D01*
X103685233Y-66692202D01*
X103604301Y-66675000D01*
X117839540Y-66675000D01*
X117859326Y-66863256D01*
X117859327Y-66863259D01*
X117917818Y-67043277D01*
X117917821Y-67043283D01*
X117917821Y-67043284D01*
X118012467Y-67207216D01*
X118072881Y-67274312D01*
X118139129Y-67347888D01*
X118292265Y-67459148D01*
X118292270Y-67459151D01*
X118465192Y-67536142D01*
X118465197Y-67536144D01*
X118650354Y-67575500D01*
X118650355Y-67575500D01*
X118839644Y-67575500D01*
X118839646Y-67575500D01*
X119024803Y-67536144D01*
X119197730Y-67459151D01*
X119350871Y-67347888D01*
X119477533Y-67207216D01*
X119572179Y-67043284D01*
X119579568Y-67020541D01*
X119619002Y-66962868D01*
X119683359Y-66935667D01*
X119752206Y-66947578D01*
X119803684Y-66994820D01*
X119815429Y-67020537D01*
X119822818Y-67043276D01*
X119822821Y-67043283D01*
X119822821Y-67043284D01*
X119917467Y-67207216D01*
X119977881Y-67274312D01*
X120044129Y-67347888D01*
X120197265Y-67459148D01*
X120197270Y-67459151D01*
X120370192Y-67536142D01*
X120370197Y-67536144D01*
X120555354Y-67575500D01*
X120555355Y-67575500D01*
X120744644Y-67575500D01*
X120744646Y-67575500D01*
X120929803Y-67536144D01*
X121102730Y-67459151D01*
X121255871Y-67347888D01*
X121382533Y-67207216D01*
X121477179Y-67043284D01*
X121535674Y-66863256D01*
X121555460Y-66675000D01*
X121535674Y-66486744D01*
X121477179Y-66306716D01*
X121382533Y-66142784D01*
X121289986Y-66040000D01*
X122284540Y-66040000D01*
X122304326Y-66228256D01*
X122304327Y-66228259D01*
X122362818Y-66408277D01*
X122362821Y-66408284D01*
X122457467Y-66572216D01*
X122565503Y-66692202D01*
X122584129Y-66712888D01*
X122737265Y-66824148D01*
X122737270Y-66824151D01*
X122910192Y-66901142D01*
X122910197Y-66901144D01*
X123095354Y-66940500D01*
X123095355Y-66940500D01*
X123284644Y-66940500D01*
X123284646Y-66940500D01*
X123469803Y-66901144D01*
X123642730Y-66824151D01*
X123795871Y-66712888D01*
X123922533Y-66572216D01*
X124017179Y-66408284D01*
X124075674Y-66228256D01*
X124095460Y-66040000D01*
X124075674Y-65851744D01*
X124017179Y-65671716D01*
X123922533Y-65507784D01*
X123795871Y-65367112D01*
X123795870Y-65367111D01*
X123642734Y-65255851D01*
X123642729Y-65255848D01*
X123469807Y-65178857D01*
X123469802Y-65178855D01*
X123324000Y-65147865D01*
X123284646Y-65139500D01*
X123095354Y-65139500D01*
X123062897Y-65146398D01*
X122910197Y-65178855D01*
X122910192Y-65178857D01*
X122737270Y-65255848D01*
X122737265Y-65255851D01*
X122584129Y-65367111D01*
X122457466Y-65507785D01*
X122362821Y-65671715D01*
X122362818Y-65671722D01*
X122316636Y-65813857D01*
X122304326Y-65851744D01*
X122284540Y-66040000D01*
X121289986Y-66040000D01*
X121255871Y-66002112D01*
X121255870Y-66002111D01*
X121102734Y-65890851D01*
X121102729Y-65890848D01*
X120929807Y-65813857D01*
X120929802Y-65813855D01*
X120784001Y-65782865D01*
X120744646Y-65774500D01*
X120555354Y-65774500D01*
X120522897Y-65781398D01*
X120370197Y-65813855D01*
X120370192Y-65813857D01*
X120197270Y-65890848D01*
X120197265Y-65890851D01*
X120044129Y-66002111D01*
X119917466Y-66142785D01*
X119822821Y-66306715D01*
X119822819Y-66306721D01*
X119815429Y-66329463D01*
X119775989Y-66387137D01*
X119711630Y-66414333D01*
X119642784Y-66402417D01*
X119591310Y-66355171D01*
X119579569Y-66329461D01*
X119572179Y-66306716D01*
X119477533Y-66142784D01*
X119350871Y-66002112D01*
X119350870Y-66002111D01*
X119197734Y-65890851D01*
X119197729Y-65890848D01*
X119024807Y-65813857D01*
X119024802Y-65813855D01*
X118879001Y-65782865D01*
X118839646Y-65774500D01*
X118650354Y-65774500D01*
X118617897Y-65781398D01*
X118465197Y-65813855D01*
X118465192Y-65813857D01*
X118292270Y-65890848D01*
X118292265Y-65890851D01*
X118139129Y-66002111D01*
X118012466Y-66142785D01*
X117917821Y-66306715D01*
X117917818Y-66306722D01*
X117866066Y-66466000D01*
X117859326Y-66486744D01*
X117839540Y-66675000D01*
X103604301Y-66675000D01*
X103539432Y-66661212D01*
X103500077Y-66652847D01*
X103310785Y-66652847D01*
X103278328Y-66659745D01*
X103125628Y-66692202D01*
X103125623Y-66692204D01*
X102952701Y-66769195D01*
X102952696Y-66769198D01*
X102799563Y-66880456D01*
X102799560Y-66880458D01*
X102799560Y-66880459D01*
X102696589Y-66994820D01*
X102686235Y-67006319D01*
X102626748Y-67042967D01*
X102587944Y-67046115D01*
X102587944Y-67046701D01*
X102581445Y-67046701D01*
X102392153Y-67046701D01*
X102359696Y-67053599D01*
X102206996Y-67086056D01*
X102206991Y-67086058D01*
X102034069Y-67163049D01*
X102034064Y-67163052D01*
X101880928Y-67274312D01*
X101754265Y-67414986D01*
X101659620Y-67578916D01*
X101659617Y-67578923D01*
X101601126Y-67758941D01*
X101601125Y-67758945D01*
X101581339Y-67947201D01*
X86868500Y-67947201D01*
X86868500Y-65565500D01*
X104758540Y-65565500D01*
X104778326Y-65753756D01*
X104778327Y-65753759D01*
X104836818Y-65933777D01*
X104836821Y-65933784D01*
X104931467Y-66097716D01*
X105049006Y-66228256D01*
X105058129Y-66238388D01*
X105211265Y-66349648D01*
X105211270Y-66349651D01*
X105384192Y-66426642D01*
X105384197Y-66426644D01*
X105569354Y-66466000D01*
X105569355Y-66466000D01*
X105758644Y-66466000D01*
X105758646Y-66466000D01*
X105943803Y-66426644D01*
X106116730Y-66349651D01*
X106269871Y-66238388D01*
X106396533Y-66097716D01*
X106491179Y-65933784D01*
X106549674Y-65753756D01*
X106569460Y-65565500D01*
X106549674Y-65377244D01*
X106491179Y-65197216D01*
X106396533Y-65033284D01*
X106269871Y-64892612D01*
X106269870Y-64892611D01*
X106116734Y-64781351D01*
X106116729Y-64781348D01*
X106091241Y-64770000D01*
X114664540Y-64770000D01*
X114684326Y-64958256D01*
X114684327Y-64958259D01*
X114742818Y-65138277D01*
X114742821Y-65138284D01*
X114837467Y-65302216D01*
X114895899Y-65367111D01*
X114964129Y-65442888D01*
X115117265Y-65554148D01*
X115117270Y-65554151D01*
X115290192Y-65631142D01*
X115290197Y-65631144D01*
X115475354Y-65670500D01*
X115475355Y-65670500D01*
X115664644Y-65670500D01*
X115664646Y-65670500D01*
X115849803Y-65631144D01*
X116022730Y-65554151D01*
X116175871Y-65442888D01*
X116302533Y-65302216D01*
X116397179Y-65138284D01*
X116455674Y-64958256D01*
X116475460Y-64770000D01*
X116455674Y-64581744D01*
X116397179Y-64401716D01*
X116302533Y-64237784D01*
X116175871Y-64097112D01*
X116175870Y-64097111D01*
X116022734Y-63985851D01*
X116022729Y-63985848D01*
X115849807Y-63908857D01*
X115849802Y-63908855D01*
X115704000Y-63877865D01*
X115664646Y-63869500D01*
X115475354Y-63869500D01*
X115442897Y-63876398D01*
X115290197Y-63908855D01*
X115290192Y-63908857D01*
X115117270Y-63985848D01*
X115117265Y-63985851D01*
X114964129Y-64097111D01*
X114837466Y-64237785D01*
X114742821Y-64401715D01*
X114742818Y-64401722D01*
X114684327Y-64581740D01*
X114684326Y-64581744D01*
X114664540Y-64770000D01*
X106091241Y-64770000D01*
X105943807Y-64704357D01*
X105943802Y-64704355D01*
X105798001Y-64673365D01*
X105758646Y-64665000D01*
X105569354Y-64665000D01*
X105536897Y-64671898D01*
X105384197Y-64704355D01*
X105384192Y-64704357D01*
X105211270Y-64781348D01*
X105211265Y-64781351D01*
X105058129Y-64892611D01*
X104931466Y-65033285D01*
X104836821Y-65197215D01*
X104836818Y-65197222D01*
X104802704Y-65302216D01*
X104778326Y-65377244D01*
X104758540Y-65565500D01*
X86868500Y-65565500D01*
X86868500Y-61950600D01*
X93582540Y-61950600D01*
X93602326Y-62138856D01*
X93602327Y-62138859D01*
X93660818Y-62318877D01*
X93660820Y-62318881D01*
X93660821Y-62318884D01*
X93715933Y-62414341D01*
X93732405Y-62482241D01*
X93715933Y-62538338D01*
X93691096Y-62581357D01*
X93691092Y-62581366D01*
X93632601Y-62761384D01*
X93632600Y-62761388D01*
X93612814Y-62949644D01*
X93632600Y-63137900D01*
X93632601Y-63137903D01*
X93691092Y-63317921D01*
X93691095Y-63317928D01*
X93785741Y-63481860D01*
X93823877Y-63524214D01*
X93912403Y-63622532D01*
X94065539Y-63733792D01*
X94065544Y-63733795D01*
X94238466Y-63810786D01*
X94238471Y-63810788D01*
X94423628Y-63850144D01*
X94423629Y-63850144D01*
X94612918Y-63850144D01*
X94612920Y-63850144D01*
X94798077Y-63810788D01*
X94971004Y-63733795D01*
X95124145Y-63622532D01*
X95250807Y-63481860D01*
X95345453Y-63317928D01*
X95403948Y-63137900D01*
X95419282Y-62992000D01*
X105012540Y-62992000D01*
X105032326Y-63180256D01*
X105032327Y-63180259D01*
X105090818Y-63360277D01*
X105090821Y-63360284D01*
X105185467Y-63524216D01*
X105312128Y-63664887D01*
X105312129Y-63664888D01*
X105465265Y-63776148D01*
X105465270Y-63776151D01*
X105638192Y-63853142D01*
X105638197Y-63853144D01*
X105823354Y-63892500D01*
X105823355Y-63892500D01*
X106012644Y-63892500D01*
X106012646Y-63892500D01*
X106197803Y-63853144D01*
X106370730Y-63776151D01*
X106523871Y-63664888D01*
X106650533Y-63524216D01*
X106745179Y-63360284D01*
X106803674Y-63180256D01*
X106823460Y-62992000D01*
X106803674Y-62803744D01*
X106745179Y-62623716D01*
X106650533Y-62459784D01*
X106523871Y-62319112D01*
X106523870Y-62319111D01*
X106401219Y-62230000D01*
X109584540Y-62230000D01*
X109604326Y-62418256D01*
X109604327Y-62418259D01*
X109662818Y-62598277D01*
X109662821Y-62598284D01*
X109757467Y-62762216D01*
X109884128Y-62902888D01*
X109884129Y-62902888D01*
X110037265Y-63014148D01*
X110037270Y-63014151D01*
X110210192Y-63091142D01*
X110210197Y-63091144D01*
X110395354Y-63130500D01*
X110395355Y-63130500D01*
X110584644Y-63130500D01*
X110584646Y-63130500D01*
X110769803Y-63091144D01*
X110942730Y-63014151D01*
X111095871Y-62902888D01*
X111222533Y-62762216D01*
X111317179Y-62598284D01*
X111363039Y-62457140D01*
X111402475Y-62399467D01*
X111455186Y-62374170D01*
X111490598Y-62366644D01*
X111490602Y-62366642D01*
X111490603Y-62366642D01*
X111597355Y-62319112D01*
X111663525Y-62289651D01*
X111668414Y-62286098D01*
X111734218Y-62262616D01*
X111802273Y-62278437D01*
X111814180Y-62286088D01*
X111918530Y-62361903D01*
X111942270Y-62379151D01*
X112115192Y-62456142D01*
X112115197Y-62456144D01*
X112300354Y-62495500D01*
X112300355Y-62495500D01*
X112489644Y-62495500D01*
X112489646Y-62495500D01*
X112674803Y-62456144D01*
X112847730Y-62379151D01*
X113000871Y-62267888D01*
X113127533Y-62127216D01*
X113222179Y-61963284D01*
X113280674Y-61783256D01*
X113300460Y-61595000D01*
X113280674Y-61406744D01*
X113222179Y-61226716D01*
X113127533Y-61062784D01*
X113000871Y-60922112D01*
X113000870Y-60922111D01*
X112847734Y-60810851D01*
X112847729Y-60810848D01*
X112674807Y-60733857D01*
X112674802Y-60733855D01*
X112529001Y-60702865D01*
X112489646Y-60694500D01*
X112300354Y-60694500D01*
X112267897Y-60701398D01*
X112115197Y-60733855D01*
X112115192Y-60733857D01*
X111942270Y-60810849D01*
X111937365Y-60814412D01*
X111871556Y-60837884D01*
X111803504Y-60822052D01*
X111791605Y-60814404D01*
X111663529Y-60721351D01*
X111663524Y-60721348D01*
X111490602Y-60644357D01*
X111490597Y-60644355D01*
X111344795Y-60613365D01*
X111305441Y-60605000D01*
X111116149Y-60605000D01*
X111083692Y-60611898D01*
X110930992Y-60644355D01*
X110930987Y-60644357D01*
X110758065Y-60721348D01*
X110758060Y-60721351D01*
X110604924Y-60832611D01*
X110478261Y-60973285D01*
X110383616Y-61137215D01*
X110383613Y-61137222D01*
X110337756Y-61278357D01*
X110298318Y-61336033D01*
X110245607Y-61361329D01*
X110210196Y-61368856D01*
X110210192Y-61368857D01*
X110037270Y-61445848D01*
X110037265Y-61445851D01*
X109884129Y-61557111D01*
X109757466Y-61697785D01*
X109662821Y-61861715D01*
X109662818Y-61861722D01*
X109629819Y-61963284D01*
X109604326Y-62041744D01*
X109584540Y-62230000D01*
X106401219Y-62230000D01*
X106370734Y-62207851D01*
X106370729Y-62207848D01*
X106197807Y-62130857D01*
X106197802Y-62130855D01*
X106052000Y-62099865D01*
X106012646Y-62091500D01*
X105823354Y-62091500D01*
X105790897Y-62098398D01*
X105638197Y-62130855D01*
X105638192Y-62130857D01*
X105465270Y-62207848D01*
X105465265Y-62207851D01*
X105312129Y-62319111D01*
X105185466Y-62459785D01*
X105090821Y-62623715D01*
X105090818Y-62623722D01*
X105046088Y-62761388D01*
X105032326Y-62803744D01*
X105012540Y-62992000D01*
X95419282Y-62992000D01*
X95423734Y-62949644D01*
X95403948Y-62761388D01*
X95345453Y-62581360D01*
X95290340Y-62485902D01*
X95273868Y-62418004D01*
X95290341Y-62361903D01*
X95315047Y-62319112D01*
X95315179Y-62318884D01*
X95373674Y-62138856D01*
X95393460Y-61950600D01*
X95373674Y-61762344D01*
X95315179Y-61582316D01*
X95249179Y-61468000D01*
X99678540Y-61468000D01*
X99698326Y-61656256D01*
X99698327Y-61656259D01*
X99756818Y-61836277D01*
X99756821Y-61836284D01*
X99851467Y-62000216D01*
X99933660Y-62091500D01*
X99978129Y-62140888D01*
X100131265Y-62252148D01*
X100131270Y-62252151D01*
X100304192Y-62329142D01*
X100304197Y-62329144D01*
X100489354Y-62368500D01*
X100489355Y-62368500D01*
X100678644Y-62368500D01*
X100678646Y-62368500D01*
X100863803Y-62329144D01*
X101036730Y-62252151D01*
X101189871Y-62140888D01*
X101316533Y-62000216D01*
X101411179Y-61836284D01*
X101469674Y-61656256D01*
X101489460Y-61468000D01*
X101469674Y-61279744D01*
X101411179Y-61099716D01*
X101316533Y-60935784D01*
X101189871Y-60795112D01*
X101189870Y-60795111D01*
X101036734Y-60683851D01*
X101036729Y-60683848D01*
X100863807Y-60606857D01*
X100863802Y-60606855D01*
X100718000Y-60575865D01*
X100678646Y-60567500D01*
X100489354Y-60567500D01*
X100456897Y-60574398D01*
X100304197Y-60606855D01*
X100304192Y-60606857D01*
X100131270Y-60683848D01*
X100131265Y-60683851D01*
X99978129Y-60795111D01*
X99851466Y-60935785D01*
X99756821Y-61099715D01*
X99756818Y-61099722D01*
X99698327Y-61279740D01*
X99698326Y-61279744D01*
X99678540Y-61468000D01*
X95249179Y-61468000D01*
X95220533Y-61418384D01*
X95093871Y-61277712D01*
X95093870Y-61277711D01*
X94940734Y-61166451D01*
X94940729Y-61166448D01*
X94767807Y-61089457D01*
X94767802Y-61089455D01*
X94622000Y-61058465D01*
X94582646Y-61050100D01*
X94393354Y-61050100D01*
X94360897Y-61056998D01*
X94208197Y-61089455D01*
X94208192Y-61089457D01*
X94035270Y-61166448D01*
X94035265Y-61166451D01*
X93882129Y-61277711D01*
X93755466Y-61418385D01*
X93660821Y-61582315D01*
X93660818Y-61582322D01*
X93602327Y-61762340D01*
X93602326Y-61762344D01*
X93582540Y-61950600D01*
X86868500Y-61950600D01*
X86868500Y-58420000D01*
X103419341Y-58420000D01*
X103439936Y-58655403D01*
X103439938Y-58655413D01*
X103501094Y-58883655D01*
X103501096Y-58883659D01*
X103501097Y-58883663D01*
X103581004Y-59055023D01*
X103600965Y-59097830D01*
X103600967Y-59097834D01*
X103709281Y-59252521D01*
X103736505Y-59291401D01*
X103903599Y-59458495D01*
X104000384Y-59526264D01*
X104097165Y-59594032D01*
X104097167Y-59594033D01*
X104097170Y-59594035D01*
X104311337Y-59693903D01*
X104311343Y-59693904D01*
X104311344Y-59693905D01*
X104339973Y-59701576D01*
X104539592Y-59755063D01*
X104716034Y-59770500D01*
X104774999Y-59775659D01*
X104775000Y-59775659D01*
X104775001Y-59775659D01*
X104833966Y-59770500D01*
X105010408Y-59755063D01*
X105238663Y-59693903D01*
X105452830Y-59594035D01*
X105646401Y-59458495D01*
X105813495Y-59291401D01*
X105943426Y-59105840D01*
X105998001Y-59062217D01*
X106067499Y-59055023D01*
X106129854Y-59086546D01*
X106146574Y-59105841D01*
X106276505Y-59291401D01*
X106443599Y-59458495D01*
X106540384Y-59526264D01*
X106637165Y-59594032D01*
X106637167Y-59594033D01*
X106637170Y-59594035D01*
X106851337Y-59693903D01*
X106851343Y-59693904D01*
X106851344Y-59693905D01*
X106879973Y-59701576D01*
X107079592Y-59755063D01*
X107256034Y-59770500D01*
X107314999Y-59775659D01*
X107315000Y-59775659D01*
X107315001Y-59775659D01*
X107373966Y-59770500D01*
X107550408Y-59755063D01*
X107778663Y-59693903D01*
X107992830Y-59594035D01*
X108186401Y-59458495D01*
X108353495Y-59291401D01*
X108483426Y-59105841D01*
X108538002Y-59062217D01*
X108607500Y-59055023D01*
X108669855Y-59086546D01*
X108686575Y-59105842D01*
X108816500Y-59291395D01*
X108816505Y-59291401D01*
X108983599Y-59458495D01*
X109080384Y-59526264D01*
X109177165Y-59594032D01*
X109177167Y-59594033D01*
X109177170Y-59594035D01*
X109391337Y-59693903D01*
X109391343Y-59693904D01*
X109391344Y-59693905D01*
X109419973Y-59701576D01*
X109619592Y-59755063D01*
X109796034Y-59770500D01*
X109854999Y-59775659D01*
X109855000Y-59775659D01*
X109855001Y-59775659D01*
X109913966Y-59770500D01*
X110090408Y-59755063D01*
X110318663Y-59693903D01*
X110532830Y-59594035D01*
X110726401Y-59458495D01*
X110893495Y-59291401D01*
X111023426Y-59105840D01*
X111078001Y-59062217D01*
X111147499Y-59055023D01*
X111209854Y-59086546D01*
X111226574Y-59105841D01*
X111356505Y-59291401D01*
X111523599Y-59458495D01*
X111620384Y-59526264D01*
X111717165Y-59594032D01*
X111717167Y-59594033D01*
X111717170Y-59594035D01*
X111931337Y-59693903D01*
X111931343Y-59693904D01*
X111931344Y-59693905D01*
X111959973Y-59701576D01*
X112159592Y-59755063D01*
X112336034Y-59770500D01*
X112394999Y-59775659D01*
X112395000Y-59775659D01*
X112395001Y-59775659D01*
X112453966Y-59770500D01*
X112630408Y-59755063D01*
X112858663Y-59693903D01*
X113072830Y-59594035D01*
X113266401Y-59458495D01*
X113433495Y-59291401D01*
X113563426Y-59105841D01*
X113618002Y-59062217D01*
X113687500Y-59055023D01*
X113749855Y-59086546D01*
X113766575Y-59105842D01*
X113896500Y-59291395D01*
X113896505Y-59291401D01*
X114063599Y-59458495D01*
X114160384Y-59526264D01*
X114257165Y-59594032D01*
X114257167Y-59594033D01*
X114257170Y-59594035D01*
X114471337Y-59693903D01*
X114471343Y-59693904D01*
X114471344Y-59693905D01*
X114499973Y-59701576D01*
X114699592Y-59755063D01*
X114876034Y-59770500D01*
X114934999Y-59775659D01*
X114935000Y-59775659D01*
X114935001Y-59775659D01*
X114993966Y-59770500D01*
X115170408Y-59755063D01*
X115398663Y-59693903D01*
X115612830Y-59594035D01*
X115806401Y-59458495D01*
X115973495Y-59291401D01*
X116103426Y-59105840D01*
X116158001Y-59062217D01*
X116227499Y-59055023D01*
X116289854Y-59086546D01*
X116306574Y-59105841D01*
X116436505Y-59291401D01*
X116603599Y-59458495D01*
X116700384Y-59526264D01*
X116797165Y-59594032D01*
X116797167Y-59594033D01*
X116797170Y-59594035D01*
X117011337Y-59693903D01*
X117011343Y-59693904D01*
X117011344Y-59693905D01*
X117039973Y-59701576D01*
X117239592Y-59755063D01*
X117416034Y-59770500D01*
X117474999Y-59775659D01*
X117475000Y-59775659D01*
X117475001Y-59775659D01*
X117533966Y-59770500D01*
X117710408Y-59755063D01*
X117938663Y-59693903D01*
X118152830Y-59594035D01*
X118346401Y-59458495D01*
X118513495Y-59291401D01*
X118643426Y-59105841D01*
X118698002Y-59062217D01*
X118767500Y-59055023D01*
X118829855Y-59086546D01*
X118846575Y-59105842D01*
X118976500Y-59291395D01*
X118976505Y-59291401D01*
X119143599Y-59458495D01*
X119240384Y-59526264D01*
X119337165Y-59594032D01*
X119337167Y-59594033D01*
X119337170Y-59594035D01*
X119551337Y-59693903D01*
X119551343Y-59693904D01*
X119551344Y-59693905D01*
X119579973Y-59701576D01*
X119779592Y-59755063D01*
X119956034Y-59770500D01*
X120014999Y-59775659D01*
X120015000Y-59775659D01*
X120015001Y-59775659D01*
X120073966Y-59770500D01*
X120250408Y-59755063D01*
X120478663Y-59693903D01*
X120692830Y-59594035D01*
X120886401Y-59458495D01*
X121053495Y-59291401D01*
X121183426Y-59105840D01*
X121238001Y-59062217D01*
X121307499Y-59055023D01*
X121369854Y-59086546D01*
X121386574Y-59105841D01*
X121516505Y-59291401D01*
X121683599Y-59458495D01*
X121780384Y-59526264D01*
X121877165Y-59594032D01*
X121877167Y-59594033D01*
X121877170Y-59594035D01*
X122091337Y-59693903D01*
X122091343Y-59693904D01*
X122091344Y-59693905D01*
X122119973Y-59701576D01*
X122319592Y-59755063D01*
X122496034Y-59770500D01*
X122554999Y-59775659D01*
X122555000Y-59775659D01*
X122555001Y-59775659D01*
X122613966Y-59770500D01*
X122790408Y-59755063D01*
X123018663Y-59693903D01*
X123232830Y-59594035D01*
X123426401Y-59458495D01*
X123593495Y-59291401D01*
X123723730Y-59105405D01*
X123778307Y-59061781D01*
X123847805Y-59054587D01*
X123910160Y-59086110D01*
X123926879Y-59105405D01*
X124056890Y-59291078D01*
X124223917Y-59458105D01*
X124417421Y-59593600D01*
X124631507Y-59693429D01*
X124631516Y-59693433D01*
X124845000Y-59750634D01*
X124845000Y-59032301D01*
X124864685Y-58965262D01*
X124917489Y-58919507D01*
X124986647Y-58909563D01*
X125059237Y-58920000D01*
X125059238Y-58920000D01*
X125130762Y-58920000D01*
X125130763Y-58920000D01*
X125203353Y-58909563D01*
X125272512Y-58919507D01*
X125325315Y-58965262D01*
X125345000Y-59032301D01*
X125344999Y-59750633D01*
X125558483Y-59693433D01*
X125558492Y-59693429D01*
X125772578Y-59593600D01*
X125966078Y-59458108D01*
X126088133Y-59336053D01*
X126149456Y-59302568D01*
X126219148Y-59307552D01*
X126275082Y-59349423D01*
X126291997Y-59380401D01*
X126341202Y-59512328D01*
X126341206Y-59512335D01*
X126427452Y-59627544D01*
X126427455Y-59627547D01*
X126542664Y-59713793D01*
X126542671Y-59713797D01*
X126677517Y-59764091D01*
X126677516Y-59764091D01*
X126684444Y-59764835D01*
X126737127Y-59770500D01*
X128532872Y-59770499D01*
X128592483Y-59764091D01*
X128727331Y-59713796D01*
X128842546Y-59627546D01*
X128850044Y-59617528D01*
X128905975Y-59575658D01*
X128975666Y-59570672D01*
X129036990Y-59604156D01*
X129041461Y-59608867D01*
X129142086Y-59720622D01*
X129172316Y-59783613D01*
X129167867Y-59841912D01*
X129125351Y-59972764D01*
X129125350Y-59972768D01*
X129105564Y-60161024D01*
X129125350Y-60349280D01*
X129125351Y-60349283D01*
X129183842Y-60529301D01*
X129183845Y-60529308D01*
X129278491Y-60693240D01*
X129370217Y-60795112D01*
X129405153Y-60833912D01*
X129558289Y-60945172D01*
X129558294Y-60945175D01*
X129731216Y-61022166D01*
X129731221Y-61022168D01*
X129916378Y-61061524D01*
X129916379Y-61061524D01*
X130105668Y-61061524D01*
X130105670Y-61061524D01*
X130290827Y-61022168D01*
X130463754Y-60945175D01*
X130616895Y-60833912D01*
X130743557Y-60693240D01*
X130838203Y-60529308D01*
X130896698Y-60349280D01*
X130916484Y-60161024D01*
X130896698Y-59972768D01*
X130859950Y-59859669D01*
X130857955Y-59789828D01*
X130894035Y-59729995D01*
X130956736Y-59699167D01*
X131009973Y-59701575D01*
X131209592Y-59755063D01*
X131386034Y-59770500D01*
X131444999Y-59775659D01*
X131445000Y-59775659D01*
X131445001Y-59775659D01*
X131503966Y-59770500D01*
X131680408Y-59755063D01*
X131774352Y-59729891D01*
X131844199Y-59731554D01*
X131902062Y-59770716D01*
X131929566Y-59834945D01*
X131917980Y-59903847D01*
X131913831Y-59911664D01*
X131887822Y-59956713D01*
X131887818Y-59956722D01*
X131829327Y-60136740D01*
X131829326Y-60136744D01*
X131809540Y-60325000D01*
X131829326Y-60513256D01*
X131829327Y-60513259D01*
X131887818Y-60693277D01*
X131887821Y-60693284D01*
X131982467Y-60857216D01*
X132086976Y-60973285D01*
X132109129Y-60997888D01*
X132262265Y-61109148D01*
X132262270Y-61109151D01*
X132435192Y-61186142D01*
X132435197Y-61186144D01*
X132620354Y-61225500D01*
X132620355Y-61225500D01*
X132809644Y-61225500D01*
X132809646Y-61225500D01*
X132994803Y-61186144D01*
X133167730Y-61109151D01*
X133277117Y-61029676D01*
X133342920Y-61006198D01*
X133410974Y-61022023D01*
X133422871Y-61029668D01*
X133519284Y-61099716D01*
X133532270Y-61109151D01*
X133705192Y-61186142D01*
X133705197Y-61186144D01*
X133890354Y-61225500D01*
X133890355Y-61225500D01*
X134079644Y-61225500D01*
X134079646Y-61225500D01*
X134264803Y-61186144D01*
X134437730Y-61109151D01*
X134590871Y-60997888D01*
X134717533Y-60857216D01*
X134812179Y-60693284D01*
X134870674Y-60513256D01*
X134890460Y-60325000D01*
X134870674Y-60136744D01*
X134812179Y-59956716D01*
X134717533Y-59792784D01*
X134680406Y-59751550D01*
X134650177Y-59688560D01*
X134658801Y-59619225D01*
X134701431Y-59567006D01*
X134856401Y-59458495D01*
X135023495Y-59291401D01*
X135153426Y-59105841D01*
X135208002Y-59062217D01*
X135277500Y-59055023D01*
X135339855Y-59086546D01*
X135356575Y-59105842D01*
X135486501Y-59291396D01*
X135486506Y-59291402D01*
X135653597Y-59458493D01*
X135653603Y-59458498D01*
X135808566Y-59567004D01*
X135852191Y-59621581D01*
X135859385Y-59691079D01*
X135829593Y-59751551D01*
X135792466Y-59792784D01*
X135697821Y-59956715D01*
X135697818Y-59956722D01*
X135639327Y-60136740D01*
X135639326Y-60136744D01*
X135619540Y-60325000D01*
X135639326Y-60513256D01*
X135639327Y-60513259D01*
X135697818Y-60693277D01*
X135697821Y-60693284D01*
X135792467Y-60857216D01*
X135896976Y-60973285D01*
X135919129Y-60997888D01*
X136072265Y-61109148D01*
X136072270Y-61109151D01*
X136245192Y-61186142D01*
X136245197Y-61186144D01*
X136430354Y-61225500D01*
X136430355Y-61225500D01*
X136619644Y-61225500D01*
X136619646Y-61225500D01*
X136804803Y-61186144D01*
X136977730Y-61109151D01*
X137130871Y-60997888D01*
X137257533Y-60857216D01*
X137352179Y-60693284D01*
X137410674Y-60513256D01*
X137430460Y-60325000D01*
X137410674Y-60136744D01*
X137352179Y-59956716D01*
X137257533Y-59792784D01*
X137220406Y-59751550D01*
X137190177Y-59688560D01*
X137198801Y-59619225D01*
X137241431Y-59567006D01*
X137396401Y-59458495D01*
X137563495Y-59291401D01*
X137693426Y-59105841D01*
X137748002Y-59062217D01*
X137817500Y-59055023D01*
X137879855Y-59086546D01*
X137896575Y-59105842D01*
X138026500Y-59291395D01*
X138026505Y-59291401D01*
X138193599Y-59458495D01*
X138290384Y-59526264D01*
X138387165Y-59594032D01*
X138387167Y-59594033D01*
X138387170Y-59594035D01*
X138601337Y-59693903D01*
X138601343Y-59693904D01*
X138601344Y-59693905D01*
X138629973Y-59701576D01*
X138829592Y-59755063D01*
X139006034Y-59770500D01*
X139064999Y-59775659D01*
X139065000Y-59775659D01*
X139065001Y-59775659D01*
X139123966Y-59770500D01*
X139300408Y-59755063D01*
X139528663Y-59693903D01*
X139742830Y-59594035D01*
X139936401Y-59458495D01*
X140103495Y-59291401D01*
X140233426Y-59105841D01*
X140288002Y-59062217D01*
X140357500Y-59055023D01*
X140419855Y-59086546D01*
X140436575Y-59105842D01*
X140566500Y-59291395D01*
X140566505Y-59291401D01*
X140733599Y-59458495D01*
X140830384Y-59526264D01*
X140927165Y-59594032D01*
X140927167Y-59594033D01*
X140927170Y-59594035D01*
X141141337Y-59693903D01*
X141141343Y-59693904D01*
X141141344Y-59693905D01*
X141169973Y-59701576D01*
X141369592Y-59755063D01*
X141546034Y-59770500D01*
X141604999Y-59775659D01*
X141605000Y-59775659D01*
X141605001Y-59775659D01*
X141663966Y-59770500D01*
X141840408Y-59755063D01*
X142068663Y-59693903D01*
X142282830Y-59594035D01*
X142476401Y-59458495D01*
X142598329Y-59336566D01*
X142659648Y-59303084D01*
X142729340Y-59308068D01*
X142785274Y-59349939D01*
X142802189Y-59380917D01*
X142851202Y-59512328D01*
X142851206Y-59512335D01*
X142937452Y-59627544D01*
X142937455Y-59627547D01*
X143052664Y-59713793D01*
X143052671Y-59713797D01*
X143187517Y-59764091D01*
X143187516Y-59764091D01*
X143194444Y-59764835D01*
X143247127Y-59770500D01*
X145042872Y-59770499D01*
X145102483Y-59764091D01*
X145237331Y-59713796D01*
X145352546Y-59627546D01*
X145438796Y-59512331D01*
X145489091Y-59377483D01*
X145495500Y-59317873D01*
X145495499Y-58226500D01*
X160386259Y-58226500D01*
X160405575Y-58422629D01*
X160462788Y-58611233D01*
X160555686Y-58785032D01*
X160555690Y-58785039D01*
X160680716Y-58937383D01*
X160833060Y-59062409D01*
X160833067Y-59062413D01*
X161006866Y-59155311D01*
X161006869Y-59155311D01*
X161006873Y-59155314D01*
X161195468Y-59212524D01*
X161391600Y-59231841D01*
X161587732Y-59212524D01*
X161776327Y-59155314D01*
X161950138Y-59062410D01*
X162102483Y-58937383D01*
X162227510Y-58785038D01*
X162296799Y-58655408D01*
X162320411Y-58611233D01*
X162320411Y-58611232D01*
X162320414Y-58611227D01*
X162377624Y-58422632D01*
X162396941Y-58226500D01*
X162377624Y-58030368D01*
X162320414Y-57841773D01*
X162320411Y-57841769D01*
X162320411Y-57841766D01*
X162227513Y-57667967D01*
X162227509Y-57667960D01*
X162102483Y-57515616D01*
X161950139Y-57390590D01*
X161950132Y-57390586D01*
X161776333Y-57297688D01*
X161776327Y-57297686D01*
X161607261Y-57246400D01*
X161587729Y-57240475D01*
X161391600Y-57221159D01*
X161195470Y-57240475D01*
X161006866Y-57297688D01*
X160833067Y-57390586D01*
X160833060Y-57390590D01*
X160680716Y-57515616D01*
X160555690Y-57667960D01*
X160555686Y-57667967D01*
X160462788Y-57841766D01*
X160405575Y-58030370D01*
X160386259Y-58226500D01*
X145495499Y-58226500D01*
X145495499Y-57522128D01*
X145489818Y-57469278D01*
X145489091Y-57462516D01*
X145438797Y-57327671D01*
X145438793Y-57327664D01*
X145352547Y-57212455D01*
X145352544Y-57212452D01*
X145237335Y-57126206D01*
X145237328Y-57126202D01*
X145102482Y-57075908D01*
X145102483Y-57075908D01*
X145042883Y-57069501D01*
X145042881Y-57069500D01*
X145042873Y-57069500D01*
X145042864Y-57069500D01*
X143247129Y-57069500D01*
X143247123Y-57069501D01*
X143187516Y-57075908D01*
X143052671Y-57126202D01*
X143052664Y-57126206D01*
X142937455Y-57212452D01*
X142937452Y-57212455D01*
X142851206Y-57327664D01*
X142851203Y-57327669D01*
X142802189Y-57459083D01*
X142760317Y-57515016D01*
X142694853Y-57539433D01*
X142626580Y-57524581D01*
X142598326Y-57503430D01*
X142476402Y-57381506D01*
X142476395Y-57381501D01*
X142469938Y-57376980D01*
X142399518Y-57327671D01*
X142282834Y-57245967D01*
X142282830Y-57245965D01*
X142268966Y-57239500D01*
X142068663Y-57146097D01*
X142068659Y-57146096D01*
X142068655Y-57146094D01*
X141840413Y-57084938D01*
X141840403Y-57084936D01*
X141605001Y-57064341D01*
X141604999Y-57064341D01*
X141369596Y-57084936D01*
X141369586Y-57084938D01*
X141141344Y-57146094D01*
X141141335Y-57146098D01*
X140927171Y-57245964D01*
X140927169Y-57245965D01*
X140733597Y-57381505D01*
X140566505Y-57548597D01*
X140436575Y-57734158D01*
X140381998Y-57777783D01*
X140312500Y-57784977D01*
X140250145Y-57753454D01*
X140233425Y-57734158D01*
X140103494Y-57548597D01*
X139936402Y-57381506D01*
X139936395Y-57381501D01*
X139929938Y-57376980D01*
X139859518Y-57327671D01*
X139742834Y-57245967D01*
X139742830Y-57245965D01*
X139728966Y-57239500D01*
X139528663Y-57146097D01*
X139528659Y-57146096D01*
X139528655Y-57146094D01*
X139300413Y-57084938D01*
X139300403Y-57084936D01*
X139065001Y-57064341D01*
X139064999Y-57064341D01*
X138829596Y-57084936D01*
X138829586Y-57084938D01*
X138601344Y-57146094D01*
X138601335Y-57146098D01*
X138387171Y-57245964D01*
X138387169Y-57245965D01*
X138193597Y-57381505D01*
X138026505Y-57548597D01*
X137896575Y-57734158D01*
X137841998Y-57777783D01*
X137772500Y-57784977D01*
X137710145Y-57753454D01*
X137693425Y-57734158D01*
X137563494Y-57548597D01*
X137396402Y-57381506D01*
X137396395Y-57381501D01*
X137389938Y-57376980D01*
X137319518Y-57327671D01*
X137202834Y-57245967D01*
X137202830Y-57245965D01*
X137188966Y-57239500D01*
X136988663Y-57146097D01*
X136988659Y-57146096D01*
X136988655Y-57146094D01*
X136760413Y-57084938D01*
X136760403Y-57084936D01*
X136525001Y-57064341D01*
X136524999Y-57064341D01*
X136289596Y-57084936D01*
X136289586Y-57084938D01*
X136061344Y-57146094D01*
X136061335Y-57146098D01*
X135847171Y-57245964D01*
X135847169Y-57245965D01*
X135720583Y-57334602D01*
X135654377Y-57356929D01*
X135586610Y-57339919D01*
X135538797Y-57288971D01*
X135528485Y-57245716D01*
X135526139Y-57245963D01*
X135523532Y-57221159D01*
X135505674Y-57051244D01*
X135447179Y-56871216D01*
X135352533Y-56707284D01*
X135225871Y-56566612D01*
X135220126Y-56562438D01*
X135072734Y-56455351D01*
X135072729Y-56455348D01*
X134899807Y-56378357D01*
X134899802Y-56378355D01*
X134754001Y-56347365D01*
X134714646Y-56339000D01*
X134525354Y-56339000D01*
X134492897Y-56345898D01*
X134340197Y-56378355D01*
X134340192Y-56378357D01*
X134167270Y-56455348D01*
X134167265Y-56455351D01*
X134014129Y-56566611D01*
X133887466Y-56707285D01*
X133792821Y-56871215D01*
X133792818Y-56871222D01*
X133741684Y-57028598D01*
X133702246Y-57086274D01*
X133655847Y-57110055D01*
X133521341Y-57146095D01*
X133521335Y-57146098D01*
X133307171Y-57245964D01*
X133307169Y-57245965D01*
X133113597Y-57381505D01*
X132946508Y-57548594D01*
X132816574Y-57734160D01*
X132761997Y-57777784D01*
X132692498Y-57784977D01*
X132630144Y-57753455D01*
X132613429Y-57734164D01*
X132483495Y-57548599D01*
X132483493Y-57548596D01*
X132316402Y-57381506D01*
X132316395Y-57381501D01*
X132309938Y-57376980D01*
X132239518Y-57327671D01*
X132122834Y-57245967D01*
X132122830Y-57245965D01*
X132108966Y-57239500D01*
X131908663Y-57146097D01*
X131908659Y-57146096D01*
X131908655Y-57146094D01*
X131680413Y-57084938D01*
X131680403Y-57084936D01*
X131445001Y-57064341D01*
X131444999Y-57064341D01*
X131209596Y-57084936D01*
X131209586Y-57084938D01*
X130981344Y-57146094D01*
X130981335Y-57146098D01*
X130767171Y-57245964D01*
X130767169Y-57245965D01*
X130573597Y-57381505D01*
X130406505Y-57548597D01*
X130270965Y-57742169D01*
X130270964Y-57742171D01*
X130171098Y-57956335D01*
X130171094Y-57956344D01*
X130133968Y-58094904D01*
X130097603Y-58154565D01*
X130034756Y-58185094D01*
X129988413Y-58184101D01*
X129849147Y-58154500D01*
X129849146Y-58154500D01*
X129659854Y-58154500D01*
X129627397Y-58161398D01*
X129474697Y-58193855D01*
X129474692Y-58193857D01*
X129301771Y-58270848D01*
X129182383Y-58357588D01*
X129116576Y-58381067D01*
X129048522Y-58365241D01*
X128999828Y-58315135D01*
X128985499Y-58257273D01*
X128985499Y-57522128D01*
X128979818Y-57469278D01*
X128979091Y-57462516D01*
X128928797Y-57327671D01*
X128928793Y-57327664D01*
X128842547Y-57212455D01*
X128842544Y-57212452D01*
X128727335Y-57126206D01*
X128727328Y-57126202D01*
X128592482Y-57075908D01*
X128592483Y-57075908D01*
X128532883Y-57069501D01*
X128532881Y-57069500D01*
X128532873Y-57069500D01*
X128532864Y-57069500D01*
X126737129Y-57069500D01*
X126737123Y-57069501D01*
X126677516Y-57075908D01*
X126542671Y-57126202D01*
X126542664Y-57126206D01*
X126427455Y-57212452D01*
X126427452Y-57212455D01*
X126341206Y-57327664D01*
X126341202Y-57327671D01*
X126291997Y-57459598D01*
X126250126Y-57515532D01*
X126184661Y-57539949D01*
X126116388Y-57525097D01*
X126088134Y-57503946D01*
X125966082Y-57381894D01*
X125772578Y-57246399D01*
X125558492Y-57146570D01*
X125558486Y-57146567D01*
X125345000Y-57089364D01*
X125345000Y-57807698D01*
X125325315Y-57874737D01*
X125272511Y-57920492D01*
X125203355Y-57930436D01*
X125130766Y-57920000D01*
X125130763Y-57920000D01*
X125059237Y-57920000D01*
X125059233Y-57920000D01*
X124986645Y-57930436D01*
X124917487Y-57920492D01*
X124864684Y-57874736D01*
X124845000Y-57807698D01*
X124845000Y-57089364D01*
X124844999Y-57089364D01*
X124631513Y-57146567D01*
X124631507Y-57146570D01*
X124417422Y-57246399D01*
X124417420Y-57246400D01*
X124223926Y-57381886D01*
X124223920Y-57381891D01*
X124056891Y-57548920D01*
X124056890Y-57548922D01*
X123926880Y-57734595D01*
X123872303Y-57778219D01*
X123802804Y-57785412D01*
X123740450Y-57753890D01*
X123723730Y-57734594D01*
X123593494Y-57548597D01*
X123426402Y-57381506D01*
X123426395Y-57381501D01*
X123419938Y-57376980D01*
X123349518Y-57327671D01*
X123232834Y-57245967D01*
X123232830Y-57245965D01*
X123218966Y-57239500D01*
X123018663Y-57146097D01*
X123018659Y-57146096D01*
X123018655Y-57146094D01*
X122790413Y-57084938D01*
X122790403Y-57084936D01*
X122555001Y-57064341D01*
X122554999Y-57064341D01*
X122319596Y-57084936D01*
X122319586Y-57084938D01*
X122091344Y-57146094D01*
X122091335Y-57146098D01*
X121877171Y-57245964D01*
X121877169Y-57245965D01*
X121683597Y-57381505D01*
X121516505Y-57548597D01*
X121386575Y-57734158D01*
X121331998Y-57777783D01*
X121262500Y-57784977D01*
X121200145Y-57753454D01*
X121183425Y-57734158D01*
X121053494Y-57548597D01*
X120886402Y-57381506D01*
X120886395Y-57381501D01*
X120879938Y-57376980D01*
X120809518Y-57327671D01*
X120692834Y-57245967D01*
X120692830Y-57245965D01*
X120678966Y-57239500D01*
X120478663Y-57146097D01*
X120478659Y-57146096D01*
X120478655Y-57146094D01*
X120250413Y-57084938D01*
X120250403Y-57084936D01*
X120015001Y-57064341D01*
X120014999Y-57064341D01*
X119779596Y-57084936D01*
X119779586Y-57084938D01*
X119551344Y-57146094D01*
X119551335Y-57146098D01*
X119337171Y-57245964D01*
X119337169Y-57245965D01*
X119143597Y-57381505D01*
X118976505Y-57548597D01*
X118846575Y-57734158D01*
X118791998Y-57777783D01*
X118722500Y-57784977D01*
X118660145Y-57753454D01*
X118643425Y-57734158D01*
X118513494Y-57548597D01*
X118346402Y-57381506D01*
X118346395Y-57381501D01*
X118339938Y-57376980D01*
X118269518Y-57327671D01*
X118152834Y-57245967D01*
X118152830Y-57245965D01*
X118138966Y-57239500D01*
X117938663Y-57146097D01*
X117938659Y-57146096D01*
X117938655Y-57146094D01*
X117710413Y-57084938D01*
X117710403Y-57084936D01*
X117475001Y-57064341D01*
X117474999Y-57064341D01*
X117239596Y-57084936D01*
X117239586Y-57084938D01*
X117011344Y-57146094D01*
X117011335Y-57146098D01*
X116797171Y-57245964D01*
X116797169Y-57245965D01*
X116603597Y-57381505D01*
X116436505Y-57548597D01*
X116306575Y-57734158D01*
X116251998Y-57777783D01*
X116182500Y-57784977D01*
X116120145Y-57753454D01*
X116103425Y-57734158D01*
X115973494Y-57548597D01*
X115806402Y-57381506D01*
X115806395Y-57381501D01*
X115799938Y-57376980D01*
X115729518Y-57327671D01*
X115612834Y-57245967D01*
X115612830Y-57245965D01*
X115598966Y-57239500D01*
X115398663Y-57146097D01*
X115398659Y-57146096D01*
X115398655Y-57146094D01*
X115170413Y-57084938D01*
X115170403Y-57084936D01*
X114935001Y-57064341D01*
X114934999Y-57064341D01*
X114699596Y-57084936D01*
X114699586Y-57084938D01*
X114471344Y-57146094D01*
X114471335Y-57146098D01*
X114257171Y-57245964D01*
X114257169Y-57245965D01*
X114063597Y-57381505D01*
X113896505Y-57548597D01*
X113766575Y-57734158D01*
X113711998Y-57777783D01*
X113642500Y-57784977D01*
X113580145Y-57753454D01*
X113563425Y-57734158D01*
X113433494Y-57548597D01*
X113266402Y-57381506D01*
X113266395Y-57381501D01*
X113259938Y-57376980D01*
X113189518Y-57327671D01*
X113072834Y-57245967D01*
X113072830Y-57245965D01*
X113058966Y-57239500D01*
X112858663Y-57146097D01*
X112858659Y-57146096D01*
X112858655Y-57146094D01*
X112630413Y-57084938D01*
X112630403Y-57084936D01*
X112395001Y-57064341D01*
X112394999Y-57064341D01*
X112159596Y-57084936D01*
X112159586Y-57084938D01*
X111931344Y-57146094D01*
X111931335Y-57146098D01*
X111717171Y-57245964D01*
X111717169Y-57245965D01*
X111523597Y-57381505D01*
X111356505Y-57548597D01*
X111226575Y-57734158D01*
X111171998Y-57777783D01*
X111102500Y-57784977D01*
X111040145Y-57753454D01*
X111023425Y-57734158D01*
X110893494Y-57548597D01*
X110726402Y-57381506D01*
X110726395Y-57381501D01*
X110719938Y-57376980D01*
X110649518Y-57327671D01*
X110532834Y-57245967D01*
X110532830Y-57245965D01*
X110518966Y-57239500D01*
X110318663Y-57146097D01*
X110318659Y-57146096D01*
X110318655Y-57146094D01*
X110090413Y-57084938D01*
X110090403Y-57084936D01*
X109855001Y-57064341D01*
X109854999Y-57064341D01*
X109619596Y-57084936D01*
X109619586Y-57084938D01*
X109391344Y-57146094D01*
X109391335Y-57146098D01*
X109177171Y-57245964D01*
X109177169Y-57245965D01*
X108983597Y-57381505D01*
X108816505Y-57548597D01*
X108686575Y-57734158D01*
X108631998Y-57777783D01*
X108562500Y-57784977D01*
X108500145Y-57753454D01*
X108483425Y-57734158D01*
X108353494Y-57548597D01*
X108186402Y-57381506D01*
X108186395Y-57381501D01*
X108179938Y-57376980D01*
X108109518Y-57327671D01*
X107992834Y-57245967D01*
X107992830Y-57245965D01*
X107978966Y-57239500D01*
X107778663Y-57146097D01*
X107778659Y-57146096D01*
X107778655Y-57146094D01*
X107550413Y-57084938D01*
X107550403Y-57084936D01*
X107315001Y-57064341D01*
X107314999Y-57064341D01*
X107079596Y-57084936D01*
X107079586Y-57084938D01*
X106851344Y-57146094D01*
X106851335Y-57146098D01*
X106637171Y-57245964D01*
X106637169Y-57245965D01*
X106443597Y-57381505D01*
X106276505Y-57548597D01*
X106146575Y-57734158D01*
X106091998Y-57777783D01*
X106022500Y-57784977D01*
X105960145Y-57753454D01*
X105943425Y-57734158D01*
X105813494Y-57548597D01*
X105646402Y-57381506D01*
X105646395Y-57381501D01*
X105639938Y-57376980D01*
X105569518Y-57327671D01*
X105452834Y-57245967D01*
X105452830Y-57245965D01*
X105438966Y-57239500D01*
X105238663Y-57146097D01*
X105238659Y-57146096D01*
X105238655Y-57146094D01*
X105010413Y-57084938D01*
X105010403Y-57084936D01*
X104775001Y-57064341D01*
X104774999Y-57064341D01*
X104539596Y-57084936D01*
X104539586Y-57084938D01*
X104311344Y-57146094D01*
X104311335Y-57146098D01*
X104097171Y-57245964D01*
X104097169Y-57245965D01*
X103903597Y-57381505D01*
X103736505Y-57548597D01*
X103600965Y-57742169D01*
X103600964Y-57742171D01*
X103501098Y-57956335D01*
X103501094Y-57956344D01*
X103439938Y-58184586D01*
X103439936Y-58184596D01*
X103419341Y-58419999D01*
X103419341Y-58420000D01*
X86868500Y-58420000D01*
X86868500Y-55245000D01*
X114918540Y-55245000D01*
X114938326Y-55433256D01*
X114938327Y-55433259D01*
X114996818Y-55613277D01*
X114996821Y-55613284D01*
X115091467Y-55777216D01*
X115189000Y-55885537D01*
X115218129Y-55917888D01*
X115371265Y-56029148D01*
X115371270Y-56029151D01*
X115544192Y-56106142D01*
X115544197Y-56106144D01*
X115729354Y-56145500D01*
X115729355Y-56145500D01*
X115918644Y-56145500D01*
X115918646Y-56145500D01*
X116103803Y-56106144D01*
X116276730Y-56029151D01*
X116429871Y-55917888D01*
X116435034Y-55912153D01*
X116494520Y-55875502D01*
X116564377Y-55876830D01*
X116619336Y-55912149D01*
X116625395Y-55918878D01*
X116625396Y-55918879D01*
X116778532Y-56030139D01*
X116778537Y-56030142D01*
X116951459Y-56107133D01*
X116951464Y-56107135D01*
X117136621Y-56146491D01*
X117136622Y-56146491D01*
X117325911Y-56146491D01*
X117325913Y-56146491D01*
X117511070Y-56107135D01*
X117683997Y-56030142D01*
X117783709Y-55957696D01*
X117849512Y-55934218D01*
X117917566Y-55950043D01*
X117929477Y-55957697D01*
X117958542Y-55978813D01*
X118028514Y-56029651D01*
X118201436Y-56106642D01*
X118201441Y-56106644D01*
X118386598Y-56146000D01*
X118386599Y-56146000D01*
X118575888Y-56146000D01*
X118575890Y-56146000D01*
X118761047Y-56106644D01*
X118933974Y-56029651D01*
X118933979Y-56029646D01*
X118935442Y-56028803D01*
X118936403Y-56028569D01*
X118939911Y-56027008D01*
X118940196Y-56027649D01*
X119003340Y-56012324D01*
X119069369Y-56035170D01*
X119104839Y-56074184D01*
X119110126Y-56083341D01*
X119150470Y-56153219D01*
X119270384Y-56286397D01*
X119277132Y-56293891D01*
X119430268Y-56405151D01*
X119430273Y-56405154D01*
X119603195Y-56482145D01*
X119603200Y-56482147D01*
X119788357Y-56521503D01*
X119788358Y-56521503D01*
X119977647Y-56521503D01*
X119977649Y-56521503D01*
X120162806Y-56482147D01*
X120335733Y-56405154D01*
X120444178Y-56326364D01*
X120509983Y-56302885D01*
X120578037Y-56318710D01*
X120589947Y-56326365D01*
X120705265Y-56410148D01*
X120705270Y-56410151D01*
X120878192Y-56487142D01*
X120878197Y-56487144D01*
X121063354Y-56526500D01*
X121063355Y-56526500D01*
X121252644Y-56526500D01*
X121252646Y-56526500D01*
X121437803Y-56487144D01*
X121610730Y-56410151D01*
X121763871Y-56298888D01*
X121890533Y-56158216D01*
X121985179Y-55994284D01*
X122043674Y-55814256D01*
X122063460Y-55626000D01*
X122052698Y-55523600D01*
X122919540Y-55523600D01*
X122939326Y-55711856D01*
X122939327Y-55711859D01*
X122997818Y-55891877D01*
X122997821Y-55891884D01*
X123092467Y-56055816D01*
X123184667Y-56158214D01*
X123219129Y-56196488D01*
X123372265Y-56307748D01*
X123372270Y-56307751D01*
X123545192Y-56384742D01*
X123545197Y-56384744D01*
X123730354Y-56424100D01*
X123730355Y-56424100D01*
X123919644Y-56424100D01*
X123919646Y-56424100D01*
X124104803Y-56384744D01*
X124191238Y-56346260D01*
X124272221Y-56310204D01*
X124341471Y-56300919D01*
X124395542Y-56323165D01*
X124515265Y-56410148D01*
X124515270Y-56410151D01*
X124688192Y-56487142D01*
X124688197Y-56487144D01*
X124873354Y-56526500D01*
X124873355Y-56526500D01*
X125062644Y-56526500D01*
X125062646Y-56526500D01*
X125247803Y-56487144D01*
X125420730Y-56410151D01*
X125573871Y-56298888D01*
X125585113Y-56286402D01*
X148524508Y-56286402D01*
X148543638Y-56505068D01*
X148543639Y-56505075D01*
X148557061Y-56555165D01*
X148600453Y-56717103D01*
X148600454Y-56717106D01*
X148600455Y-56717108D01*
X148693219Y-56916042D01*
X148693223Y-56916050D01*
X148819122Y-57095852D01*
X148819127Y-57095858D01*
X148974341Y-57251072D01*
X148974347Y-57251077D01*
X149154149Y-57376976D01*
X149154151Y-57376977D01*
X149154154Y-57376979D01*
X149353097Y-57469747D01*
X149565126Y-57526561D01*
X149718156Y-57539949D01*
X149783798Y-57545692D01*
X149783800Y-57545692D01*
X149783802Y-57545692D01*
X149849444Y-57539949D01*
X150002474Y-57526561D01*
X150214503Y-57469747D01*
X150413446Y-57376979D01*
X150593257Y-57251074D01*
X150748474Y-57095857D01*
X150874379Y-56916046D01*
X150941693Y-56771688D01*
X150987865Y-56719249D01*
X151055058Y-56700097D01*
X151121939Y-56720312D01*
X151166457Y-56771688D01*
X151233655Y-56915793D01*
X151233656Y-56915795D01*
X151277802Y-56978842D01*
X151277802Y-56978843D01*
X151714849Y-56541795D01*
X151776172Y-56508310D01*
X151845863Y-56513294D01*
X151901797Y-56555165D01*
X151906845Y-56562436D01*
X151942038Y-56617197D01*
X151942039Y-56617198D01*
X152046006Y-56707285D01*
X152057402Y-56717159D01*
X152055093Y-56719822D01*
X152089806Y-56759899D01*
X152099735Y-56829060D01*
X152070698Y-56892610D01*
X152064682Y-56899069D01*
X151631355Y-57332395D01*
X151631356Y-57332396D01*
X151694404Y-57376543D01*
X151694406Y-57376544D01*
X151893266Y-57469275D01*
X151893275Y-57469278D01*
X152105207Y-57526064D01*
X152105217Y-57526066D01*
X152323799Y-57545190D01*
X152323801Y-57545190D01*
X152542382Y-57526066D01*
X152542392Y-57526064D01*
X152754324Y-57469278D01*
X152754333Y-57469274D01*
X152953192Y-57376545D01*
X153016243Y-57332396D01*
X152582916Y-56899069D01*
X152549431Y-56837746D01*
X152554415Y-56768054D01*
X152591441Y-56718593D01*
X152590198Y-56717159D01*
X152596900Y-56711352D01*
X152705561Y-56617198D01*
X152740755Y-56562434D01*
X152793554Y-56516683D01*
X152862713Y-56506738D01*
X152926269Y-56535762D01*
X152932749Y-56541795D01*
X153369795Y-56978842D01*
X153383724Y-56958951D01*
X153438301Y-56915325D01*
X153507799Y-56908131D01*
X153570154Y-56939653D01*
X153605569Y-56999882D01*
X153609300Y-57030071D01*
X153609300Y-57088269D01*
X153609301Y-57088276D01*
X153615708Y-57147883D01*
X153666002Y-57282728D01*
X153666006Y-57282735D01*
X153752252Y-57397944D01*
X153752255Y-57397947D01*
X153867464Y-57484193D01*
X153867471Y-57484197D01*
X154002317Y-57534491D01*
X154002316Y-57534491D01*
X154009244Y-57535235D01*
X154061927Y-57540900D01*
X155665672Y-57540899D01*
X155725283Y-57534491D01*
X155860131Y-57484196D01*
X155975346Y-57397946D01*
X156061596Y-57282731D01*
X156111891Y-57147883D01*
X156118300Y-57088273D01*
X156118299Y-55755700D01*
X159841754Y-55755700D01*
X159861495Y-55968747D01*
X159861496Y-55968750D01*
X159920046Y-56174535D01*
X159920049Y-56174541D01*
X159982978Y-56300919D01*
X160015419Y-56366070D01*
X160144359Y-56536814D01*
X160302478Y-56680958D01*
X160302483Y-56680961D01*
X160302486Y-56680963D01*
X160484386Y-56793591D01*
X160484387Y-56793591D01*
X160484390Y-56793593D01*
X160683903Y-56870885D01*
X160894220Y-56910200D01*
X160894222Y-56910200D01*
X161108178Y-56910200D01*
X161108180Y-56910200D01*
X161318497Y-56870885D01*
X161518010Y-56793593D01*
X161699922Y-56680958D01*
X161733166Y-56650651D01*
X161795966Y-56620037D01*
X161865354Y-56628234D01*
X161915967Y-56667980D01*
X161990009Y-56766887D01*
X161990012Y-56766890D01*
X162105106Y-56853050D01*
X162105113Y-56853054D01*
X162239820Y-56903296D01*
X162239827Y-56903298D01*
X162299355Y-56909699D01*
X162299372Y-56909700D01*
X162751200Y-56909700D01*
X162751200Y-56266275D01*
X162770885Y-56199236D01*
X162823689Y-56153481D01*
X162892847Y-56143537D01*
X162894531Y-56143791D01*
X162926899Y-56148918D01*
X162969715Y-56155700D01*
X162969719Y-56155700D01*
X163032685Y-56155700D01*
X163075500Y-56148918D01*
X163107802Y-56143802D01*
X163177094Y-56152756D01*
X163230547Y-56197752D01*
X163251187Y-56264503D01*
X163251200Y-56266275D01*
X163251200Y-56909700D01*
X163703028Y-56909700D01*
X163703044Y-56909699D01*
X163762572Y-56903298D01*
X163762579Y-56903296D01*
X163897286Y-56853054D01*
X163897293Y-56853050D01*
X164012387Y-56766890D01*
X164012390Y-56766887D01*
X164098550Y-56651793D01*
X164098554Y-56651786D01*
X164148796Y-56517079D01*
X164148798Y-56517072D01*
X164155199Y-56457544D01*
X164155200Y-56457527D01*
X164155200Y-56005700D01*
X163511776Y-56005700D01*
X163444737Y-55986015D01*
X163398982Y-55933211D01*
X163389038Y-55864053D01*
X163389303Y-55862303D01*
X163406186Y-55755703D01*
X163406186Y-55755696D01*
X163389303Y-55649097D01*
X163398258Y-55579804D01*
X163443254Y-55526352D01*
X163510006Y-55505713D01*
X163511776Y-55505700D01*
X164155200Y-55505700D01*
X164155200Y-55053872D01*
X164155199Y-55053855D01*
X164148798Y-54994327D01*
X164148796Y-54994320D01*
X164098554Y-54859613D01*
X164098550Y-54859606D01*
X164012390Y-54744512D01*
X164012387Y-54744509D01*
X163897293Y-54658349D01*
X163897286Y-54658345D01*
X163762579Y-54608103D01*
X163762572Y-54608101D01*
X163703044Y-54601700D01*
X163251200Y-54601700D01*
X163251200Y-55245124D01*
X163231515Y-55312163D01*
X163178711Y-55357918D01*
X163109553Y-55367862D01*
X163107802Y-55367597D01*
X163032686Y-55355700D01*
X163032681Y-55355700D01*
X162969719Y-55355700D01*
X162969714Y-55355700D01*
X162894598Y-55367597D01*
X162825304Y-55358642D01*
X162771852Y-55313646D01*
X162751213Y-55246894D01*
X162751200Y-55245124D01*
X162751200Y-54601700D01*
X162299355Y-54601700D01*
X162239827Y-54608101D01*
X162239820Y-54608103D01*
X162105113Y-54658345D01*
X162105106Y-54658349D01*
X161990012Y-54744509D01*
X161915967Y-54843420D01*
X161860033Y-54885290D01*
X161790341Y-54890274D01*
X161733164Y-54860746D01*
X161714158Y-54843420D01*
X161699922Y-54830442D01*
X161699915Y-54830438D01*
X161699913Y-54830436D01*
X161518013Y-54717808D01*
X161518007Y-54717806D01*
X161506337Y-54713285D01*
X161318497Y-54640515D01*
X161108180Y-54601200D01*
X160894220Y-54601200D01*
X160683903Y-54640515D01*
X160578927Y-54681183D01*
X160484392Y-54717806D01*
X160484386Y-54717808D01*
X160302486Y-54830436D01*
X160302483Y-54830438D01*
X160302479Y-54830440D01*
X160302478Y-54830442D01*
X160171143Y-54950169D01*
X160144358Y-54974587D01*
X160015419Y-55145329D01*
X159920049Y-55336858D01*
X159920046Y-55336864D01*
X159861496Y-55542649D01*
X159861495Y-55542652D01*
X159841754Y-55755699D01*
X159841754Y-55755700D01*
X156118299Y-55755700D01*
X156118299Y-55484528D01*
X156111891Y-55424917D01*
X156092154Y-55372000D01*
X156061597Y-55290071D01*
X156061593Y-55290064D01*
X155975347Y-55174855D01*
X155975344Y-55174852D01*
X155860135Y-55088606D01*
X155860128Y-55088602D01*
X155725282Y-55038308D01*
X155725283Y-55038308D01*
X155665683Y-55031901D01*
X155665681Y-55031900D01*
X155665673Y-55031900D01*
X155665664Y-55031900D01*
X154061929Y-55031900D01*
X154061923Y-55031901D01*
X154002316Y-55038308D01*
X153867471Y-55088602D01*
X153867464Y-55088606D01*
X153752255Y-55174852D01*
X153752252Y-55174855D01*
X153666006Y-55290064D01*
X153666002Y-55290071D01*
X153615708Y-55424917D01*
X153610115Y-55476943D01*
X153609301Y-55484523D01*
X153609300Y-55484535D01*
X153609300Y-55542724D01*
X153589615Y-55609763D01*
X153536811Y-55655518D01*
X153467653Y-55665462D01*
X153404097Y-55636437D01*
X153383725Y-55613847D01*
X153369797Y-55593956D01*
X153369796Y-55593955D01*
X152932749Y-56031003D01*
X152871426Y-56064488D01*
X152801734Y-56059504D01*
X152745801Y-56017632D01*
X152740752Y-56010361D01*
X152730420Y-55994284D01*
X152705561Y-55955602D01*
X152699145Y-55950043D01*
X152640147Y-55898921D01*
X152596900Y-55861448D01*
X152596899Y-55861447D01*
X152590198Y-55855641D01*
X152592498Y-55852985D01*
X152557760Y-55812828D01*
X152547874Y-55743661D01*
X152576952Y-55680129D01*
X152582916Y-55673729D01*
X153016243Y-55240402D01*
X152953195Y-55196256D01*
X152953193Y-55196255D01*
X152754333Y-55103524D01*
X152754324Y-55103521D01*
X152542392Y-55046735D01*
X152542382Y-55046733D01*
X152323801Y-55027610D01*
X152323799Y-55027610D01*
X152105217Y-55046733D01*
X152105207Y-55046735D01*
X151893275Y-55103521D01*
X151893266Y-55103524D01*
X151694402Y-55196257D01*
X151631355Y-55240401D01*
X151631355Y-55240402D01*
X152064683Y-55673730D01*
X152098168Y-55735053D01*
X152093184Y-55804745D01*
X152056157Y-55854205D01*
X152057402Y-55855641D01*
X151942037Y-55955603D01*
X151906846Y-56010362D01*
X151854042Y-56056117D01*
X151784884Y-56066061D01*
X151721328Y-56037036D01*
X151714850Y-56031004D01*
X151277801Y-55593955D01*
X151233658Y-55657000D01*
X151166457Y-55801112D01*
X151120284Y-55853551D01*
X151053090Y-55872702D01*
X150986209Y-55852486D01*
X150941693Y-55801110D01*
X150882295Y-55673730D01*
X150874379Y-55656754D01*
X150874377Y-55656751D01*
X150874376Y-55656749D01*
X150748477Y-55476947D01*
X150748472Y-55476941D01*
X150593258Y-55321727D01*
X150593252Y-55321722D01*
X150413450Y-55195823D01*
X150413442Y-55195819D01*
X150214508Y-55103055D01*
X150214506Y-55103054D01*
X150214503Y-55103053D01*
X150041664Y-55056740D01*
X150002475Y-55046239D01*
X150002468Y-55046238D01*
X149783802Y-55027108D01*
X149783798Y-55027108D01*
X149565131Y-55046238D01*
X149565124Y-55046239D01*
X149442702Y-55079042D01*
X149353097Y-55103053D01*
X149353095Y-55103053D01*
X149353091Y-55103055D01*
X149154157Y-55195819D01*
X149154149Y-55195823D01*
X148974347Y-55321722D01*
X148974341Y-55321727D01*
X148819127Y-55476941D01*
X148819122Y-55476947D01*
X148693223Y-55656749D01*
X148693219Y-55656757D01*
X148600455Y-55855691D01*
X148600453Y-55855695D01*
X148600453Y-55855697D01*
X148583523Y-55918879D01*
X148543639Y-56067724D01*
X148543638Y-56067731D01*
X148524508Y-56286397D01*
X148524508Y-56286402D01*
X125585113Y-56286402D01*
X125700533Y-56158216D01*
X125795179Y-55994284D01*
X125853674Y-55814256D01*
X125873460Y-55626000D01*
X125853674Y-55437744D01*
X125832312Y-55372000D01*
X126602540Y-55372000D01*
X126622326Y-55560256D01*
X126622327Y-55560259D01*
X126680818Y-55740277D01*
X126680821Y-55740284D01*
X126775467Y-55904216D01*
X126893379Y-56035170D01*
X126902129Y-56044888D01*
X127055265Y-56156148D01*
X127055270Y-56156151D01*
X127228192Y-56233142D01*
X127228197Y-56233144D01*
X127413354Y-56272500D01*
X127413355Y-56272500D01*
X127602644Y-56272500D01*
X127602646Y-56272500D01*
X127787803Y-56233144D01*
X127960730Y-56156151D01*
X128113871Y-56044888D01*
X128240533Y-55904216D01*
X128335179Y-55740284D01*
X128393674Y-55560256D01*
X128413460Y-55372000D01*
X128393674Y-55183744D01*
X128335179Y-55003716D01*
X128240533Y-54839784D01*
X128113871Y-54699112D01*
X128113870Y-54699111D01*
X127991219Y-54610000D01*
X134984540Y-54610000D01*
X135004326Y-54798256D01*
X135004327Y-54798259D01*
X135062818Y-54978277D01*
X135062821Y-54978284D01*
X135157467Y-55142216D01*
X135284128Y-55282887D01*
X135284129Y-55282888D01*
X135437265Y-55394148D01*
X135437270Y-55394151D01*
X135610192Y-55471142D01*
X135610197Y-55471144D01*
X135795354Y-55510500D01*
X135795355Y-55510500D01*
X135984644Y-55510500D01*
X135984646Y-55510500D01*
X136169803Y-55471144D01*
X136169803Y-55471143D01*
X136169878Y-55471128D01*
X136239545Y-55476444D01*
X136295279Y-55518581D01*
X136313590Y-55554099D01*
X136332819Y-55613280D01*
X136332821Y-55613284D01*
X136427467Y-55777216D01*
X136525000Y-55885537D01*
X136554129Y-55917888D01*
X136707265Y-56029148D01*
X136707270Y-56029151D01*
X136880192Y-56106142D01*
X136880197Y-56106144D01*
X137065354Y-56145500D01*
X137065355Y-56145500D01*
X137254644Y-56145500D01*
X137254646Y-56145500D01*
X137439803Y-56106144D01*
X137612730Y-56029151D01*
X137765871Y-55917888D01*
X137892533Y-55777216D01*
X137987179Y-55613284D01*
X138045674Y-55433256D01*
X138065460Y-55245000D01*
X138057772Y-55171851D01*
X138721390Y-55171851D01*
X138741176Y-55360107D01*
X138741177Y-55360110D01*
X138799668Y-55540128D01*
X138799671Y-55540135D01*
X138894317Y-55704067D01*
X138984968Y-55804745D01*
X139020979Y-55844739D01*
X139174115Y-55955999D01*
X139174120Y-55956002D01*
X139347042Y-56032993D01*
X139347047Y-56032995D01*
X139532204Y-56072351D01*
X139532205Y-56072351D01*
X139721494Y-56072351D01*
X139721496Y-56072351D01*
X139906653Y-56032995D01*
X140079580Y-55956002D01*
X140182019Y-55881575D01*
X140247822Y-55858097D01*
X140315876Y-55873922D01*
X140347050Y-55898921D01*
X140364127Y-55917886D01*
X140364129Y-55917888D01*
X140517265Y-56029148D01*
X140517270Y-56029151D01*
X140690192Y-56106142D01*
X140690197Y-56106144D01*
X140875354Y-56145500D01*
X140875355Y-56145500D01*
X141064644Y-56145500D01*
X141064646Y-56145500D01*
X141249803Y-56106144D01*
X141422730Y-56029151D01*
X141532117Y-55949676D01*
X141597920Y-55926198D01*
X141665974Y-55942023D01*
X141677871Y-55949668D01*
X141784320Y-56027008D01*
X141787270Y-56029151D01*
X141960192Y-56106142D01*
X141960197Y-56106144D01*
X142145354Y-56145500D01*
X142145355Y-56145500D01*
X142334644Y-56145500D01*
X142334646Y-56145500D01*
X142519803Y-56106144D01*
X142692730Y-56029151D01*
X142845871Y-55917888D01*
X142972533Y-55777216D01*
X143067179Y-55613284D01*
X143125674Y-55433256D01*
X143145460Y-55245000D01*
X143125674Y-55056744D01*
X143069033Y-54882423D01*
X143067181Y-54876722D01*
X143067180Y-54876721D01*
X143067179Y-54876716D01*
X142972533Y-54712784D01*
X142845871Y-54572112D01*
X142845870Y-54572111D01*
X142692734Y-54460851D01*
X142692729Y-54460848D01*
X142519807Y-54383857D01*
X142519802Y-54383855D01*
X142374001Y-54352865D01*
X142334646Y-54344500D01*
X142145354Y-54344500D01*
X142112897Y-54351398D01*
X141960197Y-54383855D01*
X141960192Y-54383857D01*
X141787270Y-54460848D01*
X141787265Y-54460851D01*
X141677885Y-54540321D01*
X141612079Y-54563801D01*
X141544025Y-54547975D01*
X141532115Y-54540321D01*
X141422734Y-54460851D01*
X141422729Y-54460848D01*
X141249807Y-54383857D01*
X141249802Y-54383855D01*
X141104001Y-54352865D01*
X141064646Y-54344500D01*
X140875354Y-54344500D01*
X140842897Y-54351398D01*
X140690197Y-54383855D01*
X140690192Y-54383857D01*
X140517270Y-54460848D01*
X140517266Y-54460851D01*
X140414830Y-54535274D01*
X140349024Y-54558753D01*
X140280970Y-54542927D01*
X140249796Y-54517927D01*
X140243429Y-54510856D01*
X140232721Y-54498963D01*
X140232720Y-54498962D01*
X140079584Y-54387702D01*
X140079579Y-54387699D01*
X139906657Y-54310708D01*
X139906652Y-54310706D01*
X139760851Y-54279716D01*
X139721496Y-54271351D01*
X139532204Y-54271351D01*
X139499747Y-54278249D01*
X139347047Y-54310706D01*
X139347042Y-54310708D01*
X139174120Y-54387699D01*
X139174115Y-54387702D01*
X139020979Y-54498962D01*
X138894316Y-54639636D01*
X138799671Y-54803566D01*
X138799668Y-54803573D01*
X138741177Y-54983591D01*
X138741176Y-54983595D01*
X138721390Y-55171851D01*
X138057772Y-55171851D01*
X138045674Y-55056744D01*
X137989033Y-54882423D01*
X137987181Y-54876722D01*
X137987180Y-54876721D01*
X137987179Y-54876716D01*
X137892533Y-54712784D01*
X137765871Y-54572112D01*
X137765870Y-54572111D01*
X137612734Y-54460851D01*
X137612729Y-54460848D01*
X137439807Y-54383857D01*
X137439802Y-54383855D01*
X137294000Y-54352865D01*
X137254646Y-54344500D01*
X137065354Y-54344500D01*
X136957990Y-54367320D01*
X136880121Y-54383872D01*
X136810453Y-54378556D01*
X136754720Y-54336419D01*
X136736409Y-54300899D01*
X136717182Y-54241724D01*
X136717180Y-54241720D01*
X136717179Y-54241716D01*
X136622533Y-54077784D01*
X136495871Y-53937112D01*
X136495870Y-53937111D01*
X136342734Y-53825851D01*
X136342729Y-53825848D01*
X136169807Y-53748857D01*
X136169802Y-53748855D01*
X136024000Y-53717865D01*
X135984646Y-53709500D01*
X135795354Y-53709500D01*
X135762897Y-53716398D01*
X135610197Y-53748855D01*
X135610192Y-53748857D01*
X135437270Y-53825848D01*
X135437265Y-53825851D01*
X135284129Y-53937111D01*
X135157466Y-54077785D01*
X135062821Y-54241715D01*
X135062818Y-54241722D01*
X135015387Y-54387702D01*
X135004326Y-54421744D01*
X134991059Y-54547975D01*
X134984740Y-54608101D01*
X134984540Y-54610000D01*
X127991219Y-54610000D01*
X127960734Y-54587851D01*
X127960729Y-54587848D01*
X127787807Y-54510857D01*
X127787802Y-54510855D01*
X127642000Y-54479865D01*
X127602646Y-54471500D01*
X127413354Y-54471500D01*
X127380897Y-54478398D01*
X127228197Y-54510855D01*
X127228192Y-54510857D01*
X127055270Y-54587848D01*
X127055265Y-54587851D01*
X126902129Y-54699111D01*
X126775466Y-54839785D01*
X126680821Y-55003715D01*
X126680818Y-55003722D01*
X126625214Y-55174855D01*
X126622326Y-55183744D01*
X126602540Y-55372000D01*
X125832312Y-55372000D01*
X125795179Y-55257716D01*
X125700533Y-55093784D01*
X125573871Y-54953112D01*
X125573870Y-54953111D01*
X125420734Y-54841851D01*
X125420729Y-54841848D01*
X125247807Y-54764857D01*
X125247802Y-54764855D01*
X125102000Y-54733865D01*
X125062646Y-54725500D01*
X124873354Y-54725500D01*
X124840897Y-54732398D01*
X124688197Y-54764855D01*
X124688192Y-54764857D01*
X124520779Y-54839396D01*
X124451529Y-54848681D01*
X124397458Y-54826435D01*
X124277734Y-54739451D01*
X124277729Y-54739448D01*
X124104807Y-54662457D01*
X124104802Y-54662455D01*
X123959001Y-54631465D01*
X123919646Y-54623100D01*
X123730354Y-54623100D01*
X123697897Y-54629998D01*
X123545197Y-54662455D01*
X123545192Y-54662457D01*
X123372270Y-54739448D01*
X123372265Y-54739451D01*
X123219129Y-54850711D01*
X123092466Y-54991385D01*
X122997821Y-55155315D01*
X122997818Y-55155322D01*
X122943750Y-55321727D01*
X122939326Y-55335344D01*
X122919540Y-55523600D01*
X122052698Y-55523600D01*
X122043674Y-55437744D01*
X121985179Y-55257716D01*
X121890533Y-55093784D01*
X121763871Y-54953112D01*
X121763870Y-54953111D01*
X121610734Y-54841851D01*
X121610729Y-54841848D01*
X121437807Y-54764857D01*
X121437802Y-54764855D01*
X121292000Y-54733865D01*
X121252646Y-54725500D01*
X121063354Y-54725500D01*
X121030897Y-54732398D01*
X120878197Y-54764855D01*
X120878192Y-54764857D01*
X120705271Y-54841848D01*
X120596825Y-54920638D01*
X120531018Y-54944117D01*
X120462964Y-54928291D01*
X120451055Y-54920637D01*
X120335737Y-54836854D01*
X120335732Y-54836851D01*
X120162810Y-54759860D01*
X120162805Y-54759858D01*
X120001158Y-54725500D01*
X119977649Y-54720503D01*
X119788357Y-54720503D01*
X119764848Y-54725500D01*
X119603200Y-54759858D01*
X119603195Y-54759860D01*
X119430266Y-54836854D01*
X119428780Y-54837713D01*
X119427812Y-54837947D01*
X119424337Y-54839495D01*
X119424053Y-54838858D01*
X119360878Y-54854177D01*
X119294854Y-54831316D01*
X119259407Y-54792317D01*
X119213780Y-54713288D01*
X119213778Y-54713285D01*
X119120779Y-54610000D01*
X119087115Y-54572612D01*
X119086427Y-54572112D01*
X118933978Y-54461351D01*
X118933973Y-54461348D01*
X118761051Y-54384357D01*
X118761046Y-54384355D01*
X118615244Y-54353365D01*
X118575890Y-54345000D01*
X118386598Y-54345000D01*
X118354141Y-54351898D01*
X118201441Y-54384355D01*
X118201436Y-54384357D01*
X118028514Y-54461348D01*
X118028510Y-54461350D01*
X117928801Y-54533793D01*
X117862995Y-54557272D01*
X117794941Y-54541446D01*
X117783032Y-54533792D01*
X117684001Y-54461842D01*
X117683996Y-54461839D01*
X117511074Y-54384848D01*
X117511069Y-54384846D01*
X117365268Y-54353856D01*
X117325913Y-54345491D01*
X117136621Y-54345491D01*
X117104164Y-54352389D01*
X116951464Y-54384846D01*
X116951459Y-54384848D01*
X116778537Y-54461839D01*
X116778532Y-54461842D01*
X116625402Y-54573097D01*
X116625394Y-54573104D01*
X116620228Y-54578842D01*
X116560741Y-54615489D01*
X116490884Y-54614158D01*
X116435931Y-54578841D01*
X116429877Y-54572117D01*
X116429869Y-54572110D01*
X116276734Y-54460851D01*
X116276729Y-54460848D01*
X116103807Y-54383857D01*
X116103802Y-54383855D01*
X115958001Y-54352865D01*
X115918646Y-54344500D01*
X115729354Y-54344500D01*
X115696897Y-54351398D01*
X115544197Y-54383855D01*
X115544192Y-54383857D01*
X115371270Y-54460848D01*
X115371265Y-54460851D01*
X115218129Y-54572111D01*
X115091466Y-54712785D01*
X114996821Y-54876715D01*
X114996818Y-54876722D01*
X114939259Y-55053872D01*
X114938326Y-55056744D01*
X114918540Y-55245000D01*
X86868500Y-55245000D01*
X86868500Y-53090001D01*
X107822645Y-53090001D01*
X107842039Y-53361160D01*
X107842040Y-53361167D01*
X107869667Y-53488167D01*
X107899825Y-53626801D01*
X107945350Y-53748857D01*
X107994830Y-53881519D01*
X108125109Y-54120107D01*
X108125110Y-54120108D01*
X108125113Y-54120113D01*
X108288029Y-54337742D01*
X108288033Y-54337746D01*
X108288038Y-54337752D01*
X108480247Y-54529961D01*
X108480253Y-54529966D01*
X108480258Y-54529971D01*
X108697887Y-54692887D01*
X108697891Y-54692889D01*
X108697892Y-54692890D01*
X108936481Y-54823169D01*
X108936480Y-54823169D01*
X108936484Y-54823170D01*
X108936487Y-54823172D01*
X109191199Y-54918175D01*
X109456840Y-54975961D01*
X109708604Y-54993967D01*
X109727999Y-54995355D01*
X109728000Y-54995355D01*
X109728001Y-54995355D01*
X109746100Y-54994060D01*
X109999160Y-54975961D01*
X110264801Y-54918175D01*
X110519513Y-54823172D01*
X110519517Y-54823169D01*
X110519519Y-54823169D01*
X110638812Y-54758029D01*
X110758113Y-54692887D01*
X110975742Y-54529971D01*
X111167971Y-54337742D01*
X111330887Y-54120113D01*
X111461172Y-53881513D01*
X111556175Y-53626801D01*
X111613961Y-53361160D01*
X111624272Y-53217001D01*
X165988645Y-53217001D01*
X166008039Y-53488160D01*
X166008040Y-53488167D01*
X166065823Y-53753793D01*
X166065825Y-53753801D01*
X166113462Y-53881519D01*
X166160830Y-54008519D01*
X166291109Y-54247107D01*
X166291110Y-54247108D01*
X166291113Y-54247113D01*
X166454029Y-54464742D01*
X166454033Y-54464746D01*
X166454038Y-54464752D01*
X166646247Y-54656961D01*
X166646253Y-54656966D01*
X166646258Y-54656971D01*
X166863887Y-54819887D01*
X166863891Y-54819889D01*
X166863892Y-54819890D01*
X167102481Y-54950169D01*
X167102480Y-54950169D01*
X167102484Y-54950170D01*
X167102487Y-54950172D01*
X167357199Y-55045175D01*
X167622840Y-55102961D01*
X167874605Y-55120967D01*
X167893999Y-55122355D01*
X167894000Y-55122355D01*
X167894001Y-55122355D01*
X167912100Y-55121060D01*
X168165160Y-55102961D01*
X168430801Y-55045175D01*
X168685513Y-54950172D01*
X168685517Y-54950169D01*
X168685519Y-54950169D01*
X168867663Y-54850711D01*
X168924113Y-54819887D01*
X169141742Y-54656971D01*
X169333971Y-54464742D01*
X169496887Y-54247113D01*
X169627172Y-54008513D01*
X169722175Y-53753801D01*
X169779961Y-53488160D01*
X169799355Y-53217000D01*
X169779961Y-52945840D01*
X169722175Y-52680199D01*
X169627172Y-52425487D01*
X169627170Y-52425484D01*
X169627169Y-52425480D01*
X169496890Y-52186892D01*
X169496889Y-52186891D01*
X169496887Y-52186887D01*
X169333971Y-51969258D01*
X169333966Y-51969253D01*
X169333961Y-51969247D01*
X169141752Y-51777038D01*
X169141746Y-51777033D01*
X169141742Y-51777029D01*
X168924113Y-51614113D01*
X168924108Y-51614110D01*
X168924107Y-51614109D01*
X168685518Y-51483830D01*
X168685519Y-51483830D01*
X168635920Y-51465330D01*
X168430801Y-51388825D01*
X168430794Y-51388823D01*
X168430793Y-51388823D01*
X168165167Y-51331040D01*
X168165160Y-51331039D01*
X167894001Y-51311645D01*
X167893999Y-51311645D01*
X167622839Y-51331039D01*
X167622832Y-51331040D01*
X167357206Y-51388823D01*
X167357202Y-51388824D01*
X167357199Y-51388825D01*
X167229842Y-51436326D01*
X167102480Y-51483830D01*
X166863892Y-51614109D01*
X166863891Y-51614110D01*
X166646259Y-51777028D01*
X166646247Y-51777038D01*
X166454038Y-51969247D01*
X166454028Y-51969259D01*
X166291110Y-52186891D01*
X166291109Y-52186892D01*
X166160830Y-52425480D01*
X166113326Y-52552842D01*
X166065825Y-52680199D01*
X166065824Y-52680202D01*
X166065823Y-52680206D01*
X166008040Y-52945832D01*
X166008039Y-52945839D01*
X165988645Y-53216998D01*
X165988645Y-53217001D01*
X111624272Y-53217001D01*
X111633355Y-53090000D01*
X111613961Y-52818840D01*
X111556175Y-52553199D01*
X111461172Y-52298487D01*
X111461170Y-52298484D01*
X111461169Y-52298480D01*
X111330890Y-52059892D01*
X111330889Y-52059891D01*
X111330887Y-52059887D01*
X111167971Y-51842258D01*
X111167966Y-51842253D01*
X111167961Y-51842247D01*
X110975752Y-51650038D01*
X110975746Y-51650033D01*
X110975742Y-51650029D01*
X110758113Y-51487113D01*
X110758108Y-51487110D01*
X110758107Y-51487109D01*
X110519518Y-51356830D01*
X110519519Y-51356830D01*
X110450370Y-51331039D01*
X110264801Y-51261825D01*
X110264794Y-51261823D01*
X110264793Y-51261823D01*
X109999167Y-51204040D01*
X109999160Y-51204039D01*
X109728001Y-51184645D01*
X109727999Y-51184645D01*
X109456839Y-51204039D01*
X109456832Y-51204040D01*
X109191206Y-51261823D01*
X109191202Y-51261824D01*
X109191199Y-51261825D01*
X109085095Y-51301400D01*
X108936480Y-51356830D01*
X108697892Y-51487109D01*
X108697891Y-51487110D01*
X108480259Y-51650028D01*
X108480247Y-51650038D01*
X108288038Y-51842247D01*
X108288028Y-51842259D01*
X108125110Y-52059891D01*
X108125109Y-52059892D01*
X107994830Y-52298480D01*
X107947462Y-52425480D01*
X107899825Y-52553199D01*
X107899824Y-52553202D01*
X107899823Y-52553206D01*
X107842040Y-52818832D01*
X107842039Y-52818839D01*
X107822645Y-53089998D01*
X107822645Y-53090001D01*
X86868500Y-53090001D01*
X86868500Y-51303436D01*
X86868633Y-51299381D01*
X86873982Y-51217760D01*
X86876350Y-51184645D01*
X86886986Y-51035936D01*
X86888014Y-51028303D01*
X86911153Y-50911979D01*
X86912118Y-50907541D01*
X86942533Y-50767723D01*
X86944392Y-50761025D01*
X86984815Y-50641943D01*
X87034159Y-50509651D01*
X87036633Y-50503920D01*
X87093583Y-50388436D01*
X87160179Y-50266476D01*
X87163019Y-50261784D01*
X87234563Y-50154711D01*
X87236428Y-50152076D01*
X87318291Y-50042721D01*
X87321244Y-50039078D01*
X87406503Y-49941859D01*
X87409198Y-49938981D01*
X87505581Y-49842598D01*
X87508459Y-49839903D01*
X87605678Y-49754644D01*
X87609321Y-49751691D01*
X87718676Y-49669828D01*
X87721311Y-49667963D01*
X87828384Y-49596419D01*
X87833076Y-49593579D01*
X87955036Y-49526983D01*
X88070520Y-49470033D01*
X88076251Y-49467559D01*
X88208543Y-49418215D01*
X88327625Y-49377792D01*
X88334323Y-49375933D01*
X88478548Y-49344558D01*
X88594903Y-49321414D01*
X88602536Y-49320386D01*
X88784244Y-49307389D01*
X88837211Y-49303917D01*
X88865981Y-49302033D01*
X88870036Y-49301900D01*
X168482764Y-49301900D01*
X168486819Y-49302033D01*
G37*
%TD.AperFunction*%
%TD*%
M02*
