M48
; DRILL file {KiCad 8.0.7} date 2025-03-12T19:14:53-0400
; FORMAT={-:-/ absolute / inch / decimal}
; #@! TF.CreationDate,2025-03-12T19:14:53-04:00
; #@! TF.GenerationSoftware,Kicad,Pcbnew,8.0.7
; #@! TF.FileFunction,Plated,1,2,PTH
FMAT,2
INCH
; #@! TA.AperFunction,Plated,PTH,ViaDrill
T1C0.0118
; #@! TA.AperFunction,Plated,PTH,ViaDrill
T2C0.0197
; #@! TA.AperFunction,Plated,PTH,ComponentDrill
T3C0.0394
; #@! TA.AperFunction,Plated,PTH,ComponentDrill
T4C0.0787
%
G90
G05
T1
X6.1405Y-3.5482
X6.2035Y-3.623
X6.2527Y-3.7687
X6.4141Y-3.3051
X6.4555Y-3.6663
X6.5921Y-3.6336
X6.6247Y-3.4537
X6.6351Y-3.2928
X6.8875Y-3.2864
T2
X6.547Y-3.2077
T3
X6.0443Y-3.0667
X6.0443Y-3.1667
X6.0443Y-3.2667
X6.0443Y-3.3667
X6.0443Y-3.4667
X6.0443Y-3.5667
X6.0443Y-3.6667
X6.0443Y-3.7667
X6.0443Y-3.8667
X6.0443Y-3.9667
T4
G00X7.6553Y-2.623
M15
G01X7.7144Y-2.623
M16
G05
G00X7.6602Y-3.5153
M15
G01X7.7192Y-3.5153
M16
G05
G00X8.1545Y-3.1348
M15
G01X8.2136Y-3.1348
M16
G05
G00X8.1594Y-4.0271
M15
G01X8.2184Y-4.0271
M16
G05
M30
