%TF.GenerationSoftware,KiCad,Pcbnew,7.0.6*%
%TF.CreationDate,2024-03-24T21:23:22-04:00*%
%TF.ProjectId,Radio Module,52616469-6f20-44d6-9f64-756c652e6b69,rev?*%
%TF.SameCoordinates,Original*%
%TF.FileFunction,Drillmap*%
%TF.FilePolarity,Positive*%
%FSLAX45Y45*%
G04 Gerber Fmt 4.5, Leading zero omitted, Abs format (unit mm)*
G04 Created by KiCad (PCBNEW 7.0.6) date 2024-03-24 21:23:22*
%MOMM*%
%LPD*%
G01*
G04 APERTURE LIST*
%ADD10C,0.100000*%
%ADD11C,0.200000*%
%ADD12C,0.012700*%
%ADD13C,0.040000*%
%ADD14C,0.050000*%
%ADD15C,0.060000*%
%ADD16C,0.065000*%
%ADD17C,0.115000*%
G04 APERTURE END LIST*
D10*
X14071600Y-6337300D02*
X15519400Y-6337300D01*
X15519400Y-7924800D01*
X14071600Y-7924800D01*
X14071600Y-6337300D01*
X13182600Y-5308600D02*
X20193000Y-5308600D01*
X20193000Y-11163300D01*
X13182600Y-11163300D01*
X13182600Y-5308600D01*
D11*
D12*
X15185650Y-8070850D02*
X15198350Y-8083550D01*
X15198350Y-8070850D02*
X15185650Y-8083550D01*
X15185650Y-8163850D02*
X15198350Y-8176550D01*
X15198350Y-8163850D02*
X15185650Y-8176550D01*
X15185650Y-8239850D02*
X15198350Y-8252550D01*
X15198350Y-8239850D02*
X15185650Y-8252550D01*
X15271650Y-8070850D02*
X15284350Y-8083550D01*
X15284350Y-8070850D02*
X15271650Y-8083550D01*
X15271650Y-8163850D02*
X15284350Y-8176550D01*
X15284350Y-8163850D02*
X15271650Y-8176550D01*
X15271650Y-8239850D02*
X15284350Y-8252550D01*
X15284350Y-8239850D02*
X15271650Y-8252550D01*
X15360650Y-8070850D02*
X15373350Y-8083550D01*
X15373350Y-8070850D02*
X15360650Y-8083550D01*
X15360650Y-8163850D02*
X15373350Y-8176550D01*
X15373350Y-8163850D02*
X15360650Y-8176550D01*
X15360650Y-8239850D02*
X15373350Y-8252550D01*
X15373350Y-8239850D02*
X15360650Y-8252550D01*
X18192650Y-8299450D02*
X18205350Y-8312150D01*
X18205350Y-8299450D02*
X18192650Y-8312150D01*
X18192650Y-8375450D02*
X18205350Y-8388150D01*
X18205350Y-8375450D02*
X18192650Y-8388150D01*
X18192650Y-8468450D02*
X18205350Y-8481150D01*
X18205350Y-8468450D02*
X18192650Y-8481150D01*
X18281650Y-8299450D02*
X18294350Y-8312150D01*
X18294350Y-8299450D02*
X18281650Y-8312150D01*
X18281650Y-8375450D02*
X18294350Y-8388150D01*
X18294350Y-8375450D02*
X18281650Y-8388150D01*
X18281650Y-8468450D02*
X18294350Y-8481150D01*
X18294350Y-8468450D02*
X18281650Y-8481150D01*
X18367650Y-8299450D02*
X18380350Y-8312150D01*
X18380350Y-8299450D02*
X18367650Y-8312150D01*
X18367650Y-8375450D02*
X18380350Y-8388150D01*
X18380350Y-8375450D02*
X18367650Y-8388150D01*
X18367650Y-8468450D02*
X18380350Y-8481150D01*
X18380350Y-8468450D02*
X18367650Y-8481150D01*
D13*
X13824900Y-9525000D02*
G75*
G03*
X13824900Y-9525000I-20000J0D01*
G01*
X15806100Y-9321800D02*
G75*
G03*
X15806100Y-9321800I-20000J0D01*
G01*
X16110900Y-8750300D02*
G75*
G03*
X16110900Y-8750300I-20000J0D01*
G01*
X16339500Y-8864600D02*
G75*
G03*
X16339500Y-8864600I-20000J0D01*
G01*
X17088800Y-8991600D02*
G75*
G03*
X17088800Y-8991600I-20000J0D01*
G01*
D14*
X15176500Y-9500000D02*
X15176500Y-9550000D01*
X15151500Y-9525000D02*
X15201500Y-9525000D01*
X16306800Y-8585600D02*
X16306800Y-8635600D01*
X16281800Y-8610600D02*
X16331800Y-8610600D01*
D15*
X13536713Y-6090913D02*
X13536713Y-6048487D01*
X13494287Y-6048487D01*
X13494287Y-6090913D01*
X13536713Y-6090913D01*
X13536713Y-6290913D02*
X13536713Y-6248487D01*
X13494287Y-6248487D01*
X13494287Y-6290913D01*
X13536713Y-6290913D01*
X13536713Y-6490913D02*
X13536713Y-6448487D01*
X13494287Y-6448487D01*
X13494287Y-6490913D01*
X13536713Y-6490913D01*
X13536713Y-6690913D02*
X13536713Y-6648487D01*
X13494287Y-6648487D01*
X13494287Y-6690913D01*
X13536713Y-6690913D01*
X13536713Y-6890913D02*
X13536713Y-6848487D01*
X13494287Y-6848487D01*
X13494287Y-6890913D01*
X13536713Y-6890913D01*
X13536713Y-7090913D02*
X13536713Y-7048487D01*
X13494287Y-7048487D01*
X13494287Y-7090913D01*
X13536713Y-7090913D01*
X13536713Y-7290913D02*
X13536713Y-7248487D01*
X13494287Y-7248487D01*
X13494287Y-7290913D01*
X13536713Y-7290913D01*
X13536713Y-7490913D02*
X13536713Y-7448487D01*
X13494287Y-7448487D01*
X13494287Y-7490913D01*
X13536713Y-7490913D01*
X13536713Y-7690913D02*
X13536713Y-7648487D01*
X13494287Y-7648487D01*
X13494287Y-7690913D01*
X13536713Y-7690913D01*
X13536713Y-7890913D02*
X13536713Y-7848487D01*
X13494287Y-7848487D01*
X13494287Y-7890913D01*
X13536713Y-7890913D01*
X13536713Y-8090913D02*
X13536713Y-8048487D01*
X13494287Y-8048487D01*
X13494287Y-8090913D01*
X13536713Y-8090913D01*
X13536713Y-8290913D02*
X13536713Y-8248487D01*
X13494287Y-8248487D01*
X13494287Y-8290913D01*
X13536713Y-8290913D01*
X13536713Y-8490913D02*
X13536713Y-8448487D01*
X13494287Y-8448487D01*
X13494287Y-8490913D01*
X13536713Y-8490913D01*
X13536713Y-8690913D02*
X13536713Y-8648487D01*
X13494287Y-8648487D01*
X13494287Y-8690913D01*
X13536713Y-8690913D01*
X13536713Y-8890913D02*
X13536713Y-8848487D01*
X13494287Y-8848487D01*
X13494287Y-8890913D01*
X13536713Y-8890913D01*
X13536713Y-9090913D02*
X13536713Y-9048487D01*
X13494287Y-9048487D01*
X13494287Y-9090913D01*
X13536713Y-9090913D01*
X14108713Y-5701913D02*
X14108713Y-5659487D01*
X14066287Y-5659487D01*
X14066287Y-5701913D01*
X14108713Y-5701913D01*
X14308713Y-5701913D02*
X14308713Y-5659487D01*
X14266287Y-5659487D01*
X14266287Y-5701913D01*
X14308713Y-5701913D01*
X14508713Y-5701913D02*
X14508713Y-5659487D01*
X14466287Y-5659487D01*
X14466287Y-5701913D01*
X14508713Y-5701913D01*
X14708713Y-5701913D02*
X14708713Y-5659487D01*
X14666287Y-5659487D01*
X14666287Y-5701913D01*
X14708713Y-5701913D01*
X14908713Y-5701913D02*
X14908713Y-5659487D01*
X14866287Y-5659487D01*
X14866287Y-5701913D01*
X14908713Y-5701913D01*
X15108713Y-5701913D02*
X15108713Y-5659487D01*
X15066287Y-5659487D01*
X15066287Y-5701913D01*
X15108713Y-5701913D01*
X15308713Y-5701913D02*
X15308713Y-5659487D01*
X15266287Y-5659487D01*
X15266287Y-5701913D01*
X15308713Y-5701913D01*
X15508713Y-5701913D02*
X15508713Y-5659487D01*
X15466287Y-5659487D01*
X15466287Y-5701913D01*
X15508713Y-5701913D01*
X16090713Y-6087913D02*
X16090713Y-6045487D01*
X16048287Y-6045487D01*
X16048287Y-6087913D01*
X16090713Y-6087913D01*
X16090713Y-6287913D02*
X16090713Y-6245487D01*
X16048287Y-6245487D01*
X16048287Y-6287913D01*
X16090713Y-6287913D01*
X16090713Y-6487913D02*
X16090713Y-6445487D01*
X16048287Y-6445487D01*
X16048287Y-6487913D01*
X16090713Y-6487913D01*
X16090713Y-6687913D02*
X16090713Y-6645487D01*
X16048287Y-6645487D01*
X16048287Y-6687913D01*
X16090713Y-6687913D01*
X16090713Y-6887913D02*
X16090713Y-6845487D01*
X16048287Y-6845487D01*
X16048287Y-6887913D01*
X16090713Y-6887913D01*
X16090713Y-7087913D02*
X16090713Y-7045487D01*
X16048287Y-7045487D01*
X16048287Y-7087913D01*
X16090713Y-7087913D01*
X16090713Y-7287913D02*
X16090713Y-7245487D01*
X16048287Y-7245487D01*
X16048287Y-7287913D01*
X16090713Y-7287913D01*
X16090713Y-7487913D02*
X16090713Y-7445487D01*
X16048287Y-7445487D01*
X16048287Y-7487913D01*
X16090713Y-7487913D01*
X16090713Y-7687913D02*
X16090713Y-7645487D01*
X16048287Y-7645487D01*
X16048287Y-7687913D01*
X16090713Y-7687913D01*
X16090713Y-7887913D02*
X16090713Y-7845487D01*
X16048287Y-7845487D01*
X16048287Y-7887913D01*
X16090713Y-7887913D01*
X16090713Y-8087913D02*
X16090713Y-8045487D01*
X16048287Y-8045487D01*
X16048287Y-8087913D01*
X16090713Y-8087913D01*
X16090713Y-8287913D02*
X16090713Y-8245487D01*
X16048287Y-8245487D01*
X16048287Y-8287913D01*
X16090713Y-8287913D01*
X16090713Y-8487913D02*
X16090713Y-8445487D01*
X16048287Y-8445487D01*
X16048287Y-8487913D01*
X16090713Y-8487913D01*
D16*
X13670500Y-6102200D02*
X13703000Y-6069700D01*
X13670500Y-6037200D01*
X13638000Y-6069700D01*
X13670500Y-6102200D01*
D11*
X13723000Y-6037200D02*
X13618000Y-6037200D01*
X13618000Y-6037200D02*
G75*
G03*
X13618000Y-6102200I0J-32500D01*
G01*
X13618000Y-6102200D02*
X13723000Y-6102200D01*
X13723000Y-6102200D02*
G75*
G03*
X13723000Y-6037200I0J32500D01*
G01*
D16*
X13670500Y-6302200D02*
X13703000Y-6269700D01*
X13670500Y-6237200D01*
X13638000Y-6269700D01*
X13670500Y-6302200D01*
D11*
X13723000Y-6237200D02*
X13618000Y-6237200D01*
X13618000Y-6237200D02*
G75*
G03*
X13618000Y-6302200I0J-32500D01*
G01*
X13618000Y-6302200D02*
X13723000Y-6302200D01*
X13723000Y-6302200D02*
G75*
G03*
X13723000Y-6237200I0J32500D01*
G01*
D16*
X13670500Y-6502200D02*
X13703000Y-6469700D01*
X13670500Y-6437200D01*
X13638000Y-6469700D01*
X13670500Y-6502200D01*
D11*
X13723000Y-6437200D02*
X13618000Y-6437200D01*
X13618000Y-6437200D02*
G75*
G03*
X13618000Y-6502200I0J-32500D01*
G01*
X13618000Y-6502200D02*
X13723000Y-6502200D01*
X13723000Y-6502200D02*
G75*
G03*
X13723000Y-6437200I0J32500D01*
G01*
D16*
X13670500Y-6702200D02*
X13703000Y-6669700D01*
X13670500Y-6637200D01*
X13638000Y-6669700D01*
X13670500Y-6702200D01*
D11*
X13723000Y-6637200D02*
X13618000Y-6637200D01*
X13618000Y-6637200D02*
G75*
G03*
X13618000Y-6702200I0J-32500D01*
G01*
X13618000Y-6702200D02*
X13723000Y-6702200D01*
X13723000Y-6702200D02*
G75*
G03*
X13723000Y-6637200I0J32500D01*
G01*
D16*
X13670500Y-6902200D02*
X13703000Y-6869700D01*
X13670500Y-6837200D01*
X13638000Y-6869700D01*
X13670500Y-6902200D01*
D11*
X13723000Y-6837200D02*
X13618000Y-6837200D01*
X13618000Y-6837200D02*
G75*
G03*
X13618000Y-6902200I0J-32500D01*
G01*
X13618000Y-6902200D02*
X13723000Y-6902200D01*
X13723000Y-6902200D02*
G75*
G03*
X13723000Y-6837200I0J32500D01*
G01*
D16*
X13670500Y-7102200D02*
X13703000Y-7069700D01*
X13670500Y-7037200D01*
X13638000Y-7069700D01*
X13670500Y-7102200D01*
D11*
X13723000Y-7037200D02*
X13618000Y-7037200D01*
X13618000Y-7037200D02*
G75*
G03*
X13618000Y-7102200I0J-32500D01*
G01*
X13618000Y-7102200D02*
X13723000Y-7102200D01*
X13723000Y-7102200D02*
G75*
G03*
X13723000Y-7037200I0J32500D01*
G01*
D16*
X13670500Y-7302200D02*
X13703000Y-7269700D01*
X13670500Y-7237200D01*
X13638000Y-7269700D01*
X13670500Y-7302200D01*
D11*
X13723000Y-7237200D02*
X13618000Y-7237200D01*
X13618000Y-7237200D02*
G75*
G03*
X13618000Y-7302200I0J-32500D01*
G01*
X13618000Y-7302200D02*
X13723000Y-7302200D01*
X13723000Y-7302200D02*
G75*
G03*
X13723000Y-7237200I0J32500D01*
G01*
D16*
X13670500Y-7502200D02*
X13703000Y-7469700D01*
X13670500Y-7437200D01*
X13638000Y-7469700D01*
X13670500Y-7502200D01*
D11*
X13723000Y-7437200D02*
X13618000Y-7437200D01*
X13618000Y-7437200D02*
G75*
G03*
X13618000Y-7502200I0J-32500D01*
G01*
X13618000Y-7502200D02*
X13723000Y-7502200D01*
X13723000Y-7502200D02*
G75*
G03*
X13723000Y-7437200I0J32500D01*
G01*
D16*
X13670500Y-7702200D02*
X13703000Y-7669700D01*
X13670500Y-7637200D01*
X13638000Y-7669700D01*
X13670500Y-7702200D01*
D11*
X13723000Y-7637200D02*
X13618000Y-7637200D01*
X13618000Y-7637200D02*
G75*
G03*
X13618000Y-7702200I0J-32500D01*
G01*
X13618000Y-7702200D02*
X13723000Y-7702200D01*
X13723000Y-7702200D02*
G75*
G03*
X13723000Y-7637200I0J32500D01*
G01*
D16*
X13670500Y-7902200D02*
X13703000Y-7869700D01*
X13670500Y-7837200D01*
X13638000Y-7869700D01*
X13670500Y-7902200D01*
D11*
X13723000Y-7837200D02*
X13618000Y-7837200D01*
X13618000Y-7837200D02*
G75*
G03*
X13618000Y-7902200I0J-32500D01*
G01*
X13618000Y-7902200D02*
X13723000Y-7902200D01*
X13723000Y-7902200D02*
G75*
G03*
X13723000Y-7837200I0J32500D01*
G01*
D16*
X13670500Y-8102200D02*
X13703000Y-8069700D01*
X13670500Y-8037200D01*
X13638000Y-8069700D01*
X13670500Y-8102200D01*
D11*
X13723000Y-8037200D02*
X13618000Y-8037200D01*
X13618000Y-8037200D02*
G75*
G03*
X13618000Y-8102200I0J-32500D01*
G01*
X13618000Y-8102200D02*
X13723000Y-8102200D01*
X13723000Y-8102200D02*
G75*
G03*
X13723000Y-8037200I0J32500D01*
G01*
D16*
X13670500Y-8302200D02*
X13703000Y-8269700D01*
X13670500Y-8237200D01*
X13638000Y-8269700D01*
X13670500Y-8302200D01*
D11*
X13723000Y-8237200D02*
X13618000Y-8237200D01*
X13618000Y-8237200D02*
G75*
G03*
X13618000Y-8302200I0J-32500D01*
G01*
X13618000Y-8302200D02*
X13723000Y-8302200D01*
X13723000Y-8302200D02*
G75*
G03*
X13723000Y-8237200I0J32500D01*
G01*
D16*
X13670500Y-8502200D02*
X13703000Y-8469700D01*
X13670500Y-8437200D01*
X13638000Y-8469700D01*
X13670500Y-8502200D01*
D11*
X13723000Y-8437200D02*
X13618000Y-8437200D01*
X13618000Y-8437200D02*
G75*
G03*
X13618000Y-8502200I0J-32500D01*
G01*
X13618000Y-8502200D02*
X13723000Y-8502200D01*
X13723000Y-8502200D02*
G75*
G03*
X13723000Y-8437200I0J32500D01*
G01*
D16*
X13670500Y-8702200D02*
X13703000Y-8669700D01*
X13670500Y-8637200D01*
X13638000Y-8669700D01*
X13670500Y-8702200D01*
D11*
X13723000Y-8637200D02*
X13618000Y-8637200D01*
X13618000Y-8637200D02*
G75*
G03*
X13618000Y-8702200I0J-32500D01*
G01*
X13618000Y-8702200D02*
X13723000Y-8702200D01*
X13723000Y-8702200D02*
G75*
G03*
X13723000Y-8637200I0J32500D01*
G01*
D16*
X13670500Y-8902200D02*
X13703000Y-8869700D01*
X13670500Y-8837200D01*
X13638000Y-8869700D01*
X13670500Y-8902200D01*
D11*
X13723000Y-8837200D02*
X13618000Y-8837200D01*
X13618000Y-8837200D02*
G75*
G03*
X13618000Y-8902200I0J-32500D01*
G01*
X13618000Y-8902200D02*
X13723000Y-8902200D01*
X13723000Y-8902200D02*
G75*
G03*
X13723000Y-8837200I0J32500D01*
G01*
D16*
X13670500Y-9102200D02*
X13703000Y-9069700D01*
X13670500Y-9037200D01*
X13638000Y-9069700D01*
X13670500Y-9102200D01*
D11*
X13723000Y-9037200D02*
X13618000Y-9037200D01*
X13618000Y-9037200D02*
G75*
G03*
X13618000Y-9102200I0J-32500D01*
G01*
X13618000Y-9102200D02*
X13723000Y-9102200D01*
X13723000Y-9102200D02*
G75*
G03*
X13723000Y-9037200I0J32500D01*
G01*
D16*
X14087500Y-5868200D02*
X14120000Y-5835700D01*
X14087500Y-5803200D01*
X14055000Y-5835700D01*
X14087500Y-5868200D01*
D11*
X14055000Y-5783200D02*
X14055000Y-5888200D01*
X14055000Y-5888200D02*
G75*
G03*
X14120000Y-5888200I32500J0D01*
G01*
X14120000Y-5888200D02*
X14120000Y-5783200D01*
X14120000Y-5783200D02*
G75*
G03*
X14055000Y-5783200I-32500J0D01*
G01*
D16*
X14287500Y-5868200D02*
X14320000Y-5835700D01*
X14287500Y-5803200D01*
X14255000Y-5835700D01*
X14287500Y-5868200D01*
D11*
X14255000Y-5783200D02*
X14255000Y-5888200D01*
X14255000Y-5888200D02*
G75*
G03*
X14320000Y-5888200I32500J0D01*
G01*
X14320000Y-5888200D02*
X14320000Y-5783200D01*
X14320000Y-5783200D02*
G75*
G03*
X14255000Y-5783200I-32500J0D01*
G01*
D16*
X14487500Y-5868200D02*
X14520000Y-5835700D01*
X14487500Y-5803200D01*
X14455000Y-5835700D01*
X14487500Y-5868200D01*
D11*
X14455000Y-5783200D02*
X14455000Y-5888200D01*
X14455000Y-5888200D02*
G75*
G03*
X14520000Y-5888200I32500J0D01*
G01*
X14520000Y-5888200D02*
X14520000Y-5783200D01*
X14520000Y-5783200D02*
G75*
G03*
X14455000Y-5783200I-32500J0D01*
G01*
D16*
X14687500Y-5868200D02*
X14720000Y-5835700D01*
X14687500Y-5803200D01*
X14655000Y-5835700D01*
X14687500Y-5868200D01*
D11*
X14655000Y-5783200D02*
X14655000Y-5888200D01*
X14655000Y-5888200D02*
G75*
G03*
X14720000Y-5888200I32500J0D01*
G01*
X14720000Y-5888200D02*
X14720000Y-5783200D01*
X14720000Y-5783200D02*
G75*
G03*
X14655000Y-5783200I-32500J0D01*
G01*
D16*
X14887500Y-5868200D02*
X14920000Y-5835700D01*
X14887500Y-5803200D01*
X14855000Y-5835700D01*
X14887500Y-5868200D01*
D11*
X14855000Y-5783200D02*
X14855000Y-5888200D01*
X14855000Y-5888200D02*
G75*
G03*
X14920000Y-5888200I32500J0D01*
G01*
X14920000Y-5888200D02*
X14920000Y-5783200D01*
X14920000Y-5783200D02*
G75*
G03*
X14855000Y-5783200I-32500J0D01*
G01*
D16*
X15087500Y-5868200D02*
X15120000Y-5835700D01*
X15087500Y-5803200D01*
X15055000Y-5835700D01*
X15087500Y-5868200D01*
D11*
X15055000Y-5783200D02*
X15055000Y-5888200D01*
X15055000Y-5888200D02*
G75*
G03*
X15120000Y-5888200I32500J0D01*
G01*
X15120000Y-5888200D02*
X15120000Y-5783200D01*
X15120000Y-5783200D02*
G75*
G03*
X15055000Y-5783200I-32500J0D01*
G01*
D16*
X15287500Y-5868200D02*
X15320000Y-5835700D01*
X15287500Y-5803200D01*
X15255000Y-5835700D01*
X15287500Y-5868200D01*
D11*
X15255000Y-5783200D02*
X15255000Y-5888200D01*
X15255000Y-5888200D02*
G75*
G03*
X15320000Y-5888200I32500J0D01*
G01*
X15320000Y-5888200D02*
X15320000Y-5783200D01*
X15320000Y-5783200D02*
G75*
G03*
X15255000Y-5783200I-32500J0D01*
G01*
D16*
X15487500Y-5868200D02*
X15520000Y-5835700D01*
X15487500Y-5803200D01*
X15455000Y-5835700D01*
X15487500Y-5868200D01*
D11*
X15455000Y-5783200D02*
X15455000Y-5888200D01*
X15455000Y-5888200D02*
G75*
G03*
X15520000Y-5888200I32500J0D01*
G01*
X15520000Y-5888200D02*
X15520000Y-5783200D01*
X15520000Y-5783200D02*
G75*
G03*
X15455000Y-5783200I-32500J0D01*
G01*
D16*
X15914500Y-6099200D02*
X15947000Y-6066700D01*
X15914500Y-6034200D01*
X15882000Y-6066700D01*
X15914500Y-6099200D01*
D11*
X15967000Y-6034200D02*
X15862000Y-6034200D01*
X15862000Y-6034200D02*
G75*
G03*
X15862000Y-6099200I0J-32500D01*
G01*
X15862000Y-6099200D02*
X15967000Y-6099200D01*
X15967000Y-6099200D02*
G75*
G03*
X15967000Y-6034200I0J32500D01*
G01*
D16*
X15914500Y-6299200D02*
X15947000Y-6266700D01*
X15914500Y-6234200D01*
X15882000Y-6266700D01*
X15914500Y-6299200D01*
D11*
X15967000Y-6234200D02*
X15862000Y-6234200D01*
X15862000Y-6234200D02*
G75*
G03*
X15862000Y-6299200I0J-32500D01*
G01*
X15862000Y-6299200D02*
X15967000Y-6299200D01*
X15967000Y-6299200D02*
G75*
G03*
X15967000Y-6234200I0J32500D01*
G01*
D16*
X15914500Y-6499200D02*
X15947000Y-6466700D01*
X15914500Y-6434200D01*
X15882000Y-6466700D01*
X15914500Y-6499200D01*
D11*
X15967000Y-6434200D02*
X15862000Y-6434200D01*
X15862000Y-6434200D02*
G75*
G03*
X15862000Y-6499200I0J-32500D01*
G01*
X15862000Y-6499200D02*
X15967000Y-6499200D01*
X15967000Y-6499200D02*
G75*
G03*
X15967000Y-6434200I0J32500D01*
G01*
D16*
X15914500Y-6699200D02*
X15947000Y-6666700D01*
X15914500Y-6634200D01*
X15882000Y-6666700D01*
X15914500Y-6699200D01*
D11*
X15967000Y-6634200D02*
X15862000Y-6634200D01*
X15862000Y-6634200D02*
G75*
G03*
X15862000Y-6699200I0J-32500D01*
G01*
X15862000Y-6699200D02*
X15967000Y-6699200D01*
X15967000Y-6699200D02*
G75*
G03*
X15967000Y-6634200I0J32500D01*
G01*
D16*
X15914500Y-6899200D02*
X15947000Y-6866700D01*
X15914500Y-6834200D01*
X15882000Y-6866700D01*
X15914500Y-6899200D01*
D11*
X15967000Y-6834200D02*
X15862000Y-6834200D01*
X15862000Y-6834200D02*
G75*
G03*
X15862000Y-6899200I0J-32500D01*
G01*
X15862000Y-6899200D02*
X15967000Y-6899200D01*
X15967000Y-6899200D02*
G75*
G03*
X15967000Y-6834200I0J32500D01*
G01*
D16*
X15914500Y-7099200D02*
X15947000Y-7066700D01*
X15914500Y-7034200D01*
X15882000Y-7066700D01*
X15914500Y-7099200D01*
D11*
X15967000Y-7034200D02*
X15862000Y-7034200D01*
X15862000Y-7034200D02*
G75*
G03*
X15862000Y-7099200I0J-32500D01*
G01*
X15862000Y-7099200D02*
X15967000Y-7099200D01*
X15967000Y-7099200D02*
G75*
G03*
X15967000Y-7034200I0J32500D01*
G01*
D16*
X15914500Y-7299200D02*
X15947000Y-7266700D01*
X15914500Y-7234200D01*
X15882000Y-7266700D01*
X15914500Y-7299200D01*
D11*
X15967000Y-7234200D02*
X15862000Y-7234200D01*
X15862000Y-7234200D02*
G75*
G03*
X15862000Y-7299200I0J-32500D01*
G01*
X15862000Y-7299200D02*
X15967000Y-7299200D01*
X15967000Y-7299200D02*
G75*
G03*
X15967000Y-7234200I0J32500D01*
G01*
D16*
X15914500Y-7499200D02*
X15947000Y-7466700D01*
X15914500Y-7434200D01*
X15882000Y-7466700D01*
X15914500Y-7499200D01*
D11*
X15967000Y-7434200D02*
X15862000Y-7434200D01*
X15862000Y-7434200D02*
G75*
G03*
X15862000Y-7499200I0J-32500D01*
G01*
X15862000Y-7499200D02*
X15967000Y-7499200D01*
X15967000Y-7499200D02*
G75*
G03*
X15967000Y-7434200I0J32500D01*
G01*
D16*
X15914500Y-7699200D02*
X15947000Y-7666700D01*
X15914500Y-7634200D01*
X15882000Y-7666700D01*
X15914500Y-7699200D01*
D11*
X15967000Y-7634200D02*
X15862000Y-7634200D01*
X15862000Y-7634200D02*
G75*
G03*
X15862000Y-7699200I0J-32500D01*
G01*
X15862000Y-7699200D02*
X15967000Y-7699200D01*
X15967000Y-7699200D02*
G75*
G03*
X15967000Y-7634200I0J32500D01*
G01*
D16*
X15914500Y-7899200D02*
X15947000Y-7866700D01*
X15914500Y-7834200D01*
X15882000Y-7866700D01*
X15914500Y-7899200D01*
D11*
X15967000Y-7834200D02*
X15862000Y-7834200D01*
X15862000Y-7834200D02*
G75*
G03*
X15862000Y-7899200I0J-32500D01*
G01*
X15862000Y-7899200D02*
X15967000Y-7899200D01*
X15967000Y-7899200D02*
G75*
G03*
X15967000Y-7834200I0J32500D01*
G01*
D16*
X15914500Y-8099200D02*
X15947000Y-8066700D01*
X15914500Y-8034200D01*
X15882000Y-8066700D01*
X15914500Y-8099200D01*
D11*
X15967000Y-8034200D02*
X15862000Y-8034200D01*
X15862000Y-8034200D02*
G75*
G03*
X15862000Y-8099200I0J-32500D01*
G01*
X15862000Y-8099200D02*
X15967000Y-8099200D01*
X15967000Y-8099200D02*
G75*
G03*
X15967000Y-8034200I0J32500D01*
G01*
D16*
X15914500Y-8299200D02*
X15947000Y-8266700D01*
X15914500Y-8234200D01*
X15882000Y-8266700D01*
X15914500Y-8299200D01*
D11*
X15967000Y-8234200D02*
X15862000Y-8234200D01*
X15862000Y-8234200D02*
G75*
G03*
X15862000Y-8299200I0J-32500D01*
G01*
X15862000Y-8299200D02*
X15967000Y-8299200D01*
X15967000Y-8299200D02*
G75*
G03*
X15967000Y-8234200I0J32500D01*
G01*
D16*
X15914500Y-8499200D02*
X15947000Y-8466700D01*
X15914500Y-8434200D01*
X15882000Y-8466700D01*
X15914500Y-8499200D01*
D11*
X15967000Y-8434200D02*
X15862000Y-8434200D01*
X15862000Y-8434200D02*
G75*
G03*
X15862000Y-8499200I0J-32500D01*
G01*
X15862000Y-8499200D02*
X15967000Y-8499200D01*
X15967000Y-8499200D02*
G75*
G03*
X15967000Y-8434200I0J32500D01*
G01*
D16*
X16611600Y-5798300D02*
X16644100Y-5765800D01*
X16611600Y-5733300D01*
X16579100Y-5765800D01*
X16611600Y-5798300D01*
X16738600Y-5798300D02*
X16771100Y-5765800D01*
X16738600Y-5733300D01*
X16706100Y-5765800D01*
X16738600Y-5798300D01*
X16738600Y-9608300D02*
X16771100Y-9575800D01*
X16738600Y-9543300D01*
X16706100Y-9575800D01*
X16738600Y-9608300D01*
X16865600Y-9608300D02*
X16898100Y-9575800D01*
X16865600Y-9543300D01*
X16833100Y-9575800D01*
X16865600Y-9608300D01*
D17*
X17684400Y-6279800D02*
X17799400Y-6394800D01*
X17799400Y-6279800D02*
X17684400Y-6394800D01*
X17799400Y-6337300D02*
G75*
G03*
X17799400Y-6337300I-57500J0D01*
G01*
X17684400Y-6533800D02*
X17799400Y-6648800D01*
X17799400Y-6533800D02*
X17684400Y-6648800D01*
X17799400Y-6591300D02*
G75*
G03*
X17799400Y-6591300I-57500J0D01*
G01*
X17684400Y-6787800D02*
X17799400Y-6902800D01*
X17799400Y-6787800D02*
X17684400Y-6902800D01*
X17799400Y-6845300D02*
G75*
G03*
X17799400Y-6845300I-57500J0D01*
G01*
D11*
X13438377Y-11479784D02*
X13438377Y-11279784D01*
X13438377Y-11279784D02*
X13485996Y-11279784D01*
X13485996Y-11279784D02*
X13514567Y-11289308D01*
X13514567Y-11289308D02*
X13533615Y-11308355D01*
X13533615Y-11308355D02*
X13543139Y-11327403D01*
X13543139Y-11327403D02*
X13552662Y-11365498D01*
X13552662Y-11365498D02*
X13552662Y-11394069D01*
X13552662Y-11394069D02*
X13543139Y-11432165D01*
X13543139Y-11432165D02*
X13533615Y-11451212D01*
X13533615Y-11451212D02*
X13514567Y-11470260D01*
X13514567Y-11470260D02*
X13485996Y-11479784D01*
X13485996Y-11479784D02*
X13438377Y-11479784D01*
X13638377Y-11479784D02*
X13638377Y-11346450D01*
X13638377Y-11384546D02*
X13647901Y-11365498D01*
X13647901Y-11365498D02*
X13657424Y-11355974D01*
X13657424Y-11355974D02*
X13676472Y-11346450D01*
X13676472Y-11346450D02*
X13695520Y-11346450D01*
X13762186Y-11479784D02*
X13762186Y-11346450D01*
X13762186Y-11279784D02*
X13752662Y-11289308D01*
X13752662Y-11289308D02*
X13762186Y-11298831D01*
X13762186Y-11298831D02*
X13771710Y-11289308D01*
X13771710Y-11289308D02*
X13762186Y-11279784D01*
X13762186Y-11279784D02*
X13762186Y-11298831D01*
X13885996Y-11479784D02*
X13866948Y-11470260D01*
X13866948Y-11470260D02*
X13857424Y-11451212D01*
X13857424Y-11451212D02*
X13857424Y-11279784D01*
X13990758Y-11479784D02*
X13971710Y-11470260D01*
X13971710Y-11470260D02*
X13962186Y-11451212D01*
X13962186Y-11451212D02*
X13962186Y-11279784D01*
X14219329Y-11479784D02*
X14219329Y-11279784D01*
X14219329Y-11279784D02*
X14285996Y-11422641D01*
X14285996Y-11422641D02*
X14352662Y-11279784D01*
X14352662Y-11279784D02*
X14352662Y-11479784D01*
X14533615Y-11479784D02*
X14533615Y-11375022D01*
X14533615Y-11375022D02*
X14524091Y-11355974D01*
X14524091Y-11355974D02*
X14505043Y-11346450D01*
X14505043Y-11346450D02*
X14466948Y-11346450D01*
X14466948Y-11346450D02*
X14447901Y-11355974D01*
X14533615Y-11470260D02*
X14514567Y-11479784D01*
X14514567Y-11479784D02*
X14466948Y-11479784D01*
X14466948Y-11479784D02*
X14447901Y-11470260D01*
X14447901Y-11470260D02*
X14438377Y-11451212D01*
X14438377Y-11451212D02*
X14438377Y-11432165D01*
X14438377Y-11432165D02*
X14447901Y-11413117D01*
X14447901Y-11413117D02*
X14466948Y-11403593D01*
X14466948Y-11403593D02*
X14514567Y-11403593D01*
X14514567Y-11403593D02*
X14533615Y-11394069D01*
X14628853Y-11346450D02*
X14628853Y-11546450D01*
X14628853Y-11355974D02*
X14647901Y-11346450D01*
X14647901Y-11346450D02*
X14685996Y-11346450D01*
X14685996Y-11346450D02*
X14705043Y-11355974D01*
X14705043Y-11355974D02*
X14714567Y-11365498D01*
X14714567Y-11365498D02*
X14724091Y-11384546D01*
X14724091Y-11384546D02*
X14724091Y-11441688D01*
X14724091Y-11441688D02*
X14714567Y-11460736D01*
X14714567Y-11460736D02*
X14705043Y-11470260D01*
X14705043Y-11470260D02*
X14685996Y-11479784D01*
X14685996Y-11479784D02*
X14647901Y-11479784D01*
X14647901Y-11479784D02*
X14628853Y-11470260D01*
X14809805Y-11460736D02*
X14819329Y-11470260D01*
X14819329Y-11470260D02*
X14809805Y-11479784D01*
X14809805Y-11479784D02*
X14800282Y-11470260D01*
X14800282Y-11470260D02*
X14809805Y-11460736D01*
X14809805Y-11460736D02*
X14809805Y-11479784D01*
X14809805Y-11355974D02*
X14819329Y-11365498D01*
X14819329Y-11365498D02*
X14809805Y-11375022D01*
X14809805Y-11375022D02*
X14800282Y-11365498D01*
X14800282Y-11365498D02*
X14809805Y-11355974D01*
X14809805Y-11355974D02*
X14809805Y-11375022D01*
D12*
X13164900Y-11801950D02*
X13177600Y-11814650D01*
X13177600Y-11801950D02*
X13164900Y-11814650D01*
D11*
X13476472Y-11699784D02*
X13495520Y-11699784D01*
X13495520Y-11699784D02*
X13514567Y-11709308D01*
X13514567Y-11709308D02*
X13524091Y-11718831D01*
X13524091Y-11718831D02*
X13533615Y-11737879D01*
X13533615Y-11737879D02*
X13543139Y-11775974D01*
X13543139Y-11775974D02*
X13543139Y-11823593D01*
X13543139Y-11823593D02*
X13533615Y-11861688D01*
X13533615Y-11861688D02*
X13524091Y-11880736D01*
X13524091Y-11880736D02*
X13514567Y-11890260D01*
X13514567Y-11890260D02*
X13495520Y-11899784D01*
X13495520Y-11899784D02*
X13476472Y-11899784D01*
X13476472Y-11899784D02*
X13457424Y-11890260D01*
X13457424Y-11890260D02*
X13447901Y-11880736D01*
X13447901Y-11880736D02*
X13438377Y-11861688D01*
X13438377Y-11861688D02*
X13428853Y-11823593D01*
X13428853Y-11823593D02*
X13428853Y-11775974D01*
X13428853Y-11775974D02*
X13438377Y-11737879D01*
X13438377Y-11737879D02*
X13447901Y-11718831D01*
X13447901Y-11718831D02*
X13457424Y-11709308D01*
X13457424Y-11709308D02*
X13476472Y-11699784D01*
X13628853Y-11880736D02*
X13638377Y-11890260D01*
X13638377Y-11890260D02*
X13628853Y-11899784D01*
X13628853Y-11899784D02*
X13619329Y-11890260D01*
X13619329Y-11890260D02*
X13628853Y-11880736D01*
X13628853Y-11880736D02*
X13628853Y-11899784D01*
X13828853Y-11899784D02*
X13714567Y-11899784D01*
X13771710Y-11899784D02*
X13771710Y-11699784D01*
X13771710Y-11699784D02*
X13752662Y-11728355D01*
X13752662Y-11728355D02*
X13733615Y-11747403D01*
X13733615Y-11747403D02*
X13714567Y-11756927D01*
X13905043Y-11718831D02*
X13914567Y-11709308D01*
X13914567Y-11709308D02*
X13933615Y-11699784D01*
X13933615Y-11699784D02*
X13981234Y-11699784D01*
X13981234Y-11699784D02*
X14000282Y-11709308D01*
X14000282Y-11709308D02*
X14009805Y-11718831D01*
X14009805Y-11718831D02*
X14019329Y-11737879D01*
X14019329Y-11737879D02*
X14019329Y-11756927D01*
X14019329Y-11756927D02*
X14009805Y-11785498D01*
X14009805Y-11785498D02*
X13895520Y-11899784D01*
X13895520Y-11899784D02*
X14019329Y-11899784D01*
X14085996Y-11699784D02*
X14219329Y-11699784D01*
X14219329Y-11699784D02*
X14133615Y-11899784D01*
X14295520Y-11899784D02*
X14295520Y-11766450D01*
X14295520Y-11785498D02*
X14305043Y-11775974D01*
X14305043Y-11775974D02*
X14324091Y-11766450D01*
X14324091Y-11766450D02*
X14352663Y-11766450D01*
X14352663Y-11766450D02*
X14371710Y-11775974D01*
X14371710Y-11775974D02*
X14381234Y-11795022D01*
X14381234Y-11795022D02*
X14381234Y-11899784D01*
X14381234Y-11795022D02*
X14390758Y-11775974D01*
X14390758Y-11775974D02*
X14409805Y-11766450D01*
X14409805Y-11766450D02*
X14438377Y-11766450D01*
X14438377Y-11766450D02*
X14457424Y-11775974D01*
X14457424Y-11775974D02*
X14466948Y-11795022D01*
X14466948Y-11795022D02*
X14466948Y-11899784D01*
X14562186Y-11899784D02*
X14562186Y-11766450D01*
X14562186Y-11785498D02*
X14571710Y-11775974D01*
X14571710Y-11775974D02*
X14590758Y-11766450D01*
X14590758Y-11766450D02*
X14619329Y-11766450D01*
X14619329Y-11766450D02*
X14638377Y-11775974D01*
X14638377Y-11775974D02*
X14647901Y-11795022D01*
X14647901Y-11795022D02*
X14647901Y-11899784D01*
X14647901Y-11795022D02*
X14657424Y-11775974D01*
X14657424Y-11775974D02*
X14676472Y-11766450D01*
X14676472Y-11766450D02*
X14705043Y-11766450D01*
X14705043Y-11766450D02*
X14724091Y-11775974D01*
X14724091Y-11775974D02*
X14733615Y-11795022D01*
X14733615Y-11795022D02*
X14733615Y-11899784D01*
X15124091Y-11690260D02*
X14952663Y-11947403D01*
X15381234Y-11699784D02*
X15400282Y-11699784D01*
X15400282Y-11699784D02*
X15419329Y-11709308D01*
X15419329Y-11709308D02*
X15428853Y-11718831D01*
X15428853Y-11718831D02*
X15438377Y-11737879D01*
X15438377Y-11737879D02*
X15447901Y-11775974D01*
X15447901Y-11775974D02*
X15447901Y-11823593D01*
X15447901Y-11823593D02*
X15438377Y-11861688D01*
X15438377Y-11861688D02*
X15428853Y-11880736D01*
X15428853Y-11880736D02*
X15419329Y-11890260D01*
X15419329Y-11890260D02*
X15400282Y-11899784D01*
X15400282Y-11899784D02*
X15381234Y-11899784D01*
X15381234Y-11899784D02*
X15362186Y-11890260D01*
X15362186Y-11890260D02*
X15352663Y-11880736D01*
X15352663Y-11880736D02*
X15343139Y-11861688D01*
X15343139Y-11861688D02*
X15333615Y-11823593D01*
X15333615Y-11823593D02*
X15333615Y-11775974D01*
X15333615Y-11775974D02*
X15343139Y-11737879D01*
X15343139Y-11737879D02*
X15352663Y-11718831D01*
X15352663Y-11718831D02*
X15362186Y-11709308D01*
X15362186Y-11709308D02*
X15381234Y-11699784D01*
X15533615Y-11880736D02*
X15543139Y-11890260D01*
X15543139Y-11890260D02*
X15533615Y-11899784D01*
X15533615Y-11899784D02*
X15524091Y-11890260D01*
X15524091Y-11890260D02*
X15533615Y-11880736D01*
X15533615Y-11880736D02*
X15533615Y-11899784D01*
X15666948Y-11699784D02*
X15685996Y-11699784D01*
X15685996Y-11699784D02*
X15705044Y-11709308D01*
X15705044Y-11709308D02*
X15714567Y-11718831D01*
X15714567Y-11718831D02*
X15724091Y-11737879D01*
X15724091Y-11737879D02*
X15733615Y-11775974D01*
X15733615Y-11775974D02*
X15733615Y-11823593D01*
X15733615Y-11823593D02*
X15724091Y-11861688D01*
X15724091Y-11861688D02*
X15714567Y-11880736D01*
X15714567Y-11880736D02*
X15705044Y-11890260D01*
X15705044Y-11890260D02*
X15685996Y-11899784D01*
X15685996Y-11899784D02*
X15666948Y-11899784D01*
X15666948Y-11899784D02*
X15647901Y-11890260D01*
X15647901Y-11890260D02*
X15638377Y-11880736D01*
X15638377Y-11880736D02*
X15628853Y-11861688D01*
X15628853Y-11861688D02*
X15619329Y-11823593D01*
X15619329Y-11823593D02*
X15619329Y-11775974D01*
X15619329Y-11775974D02*
X15628853Y-11737879D01*
X15628853Y-11737879D02*
X15638377Y-11718831D01*
X15638377Y-11718831D02*
X15647901Y-11709308D01*
X15647901Y-11709308D02*
X15666948Y-11699784D01*
X15857425Y-11699784D02*
X15876472Y-11699784D01*
X15876472Y-11699784D02*
X15895520Y-11709308D01*
X15895520Y-11709308D02*
X15905044Y-11718831D01*
X15905044Y-11718831D02*
X15914567Y-11737879D01*
X15914567Y-11737879D02*
X15924091Y-11775974D01*
X15924091Y-11775974D02*
X15924091Y-11823593D01*
X15924091Y-11823593D02*
X15914567Y-11861688D01*
X15914567Y-11861688D02*
X15905044Y-11880736D01*
X15905044Y-11880736D02*
X15895520Y-11890260D01*
X15895520Y-11890260D02*
X15876472Y-11899784D01*
X15876472Y-11899784D02*
X15857425Y-11899784D01*
X15857425Y-11899784D02*
X15838377Y-11890260D01*
X15838377Y-11890260D02*
X15828853Y-11880736D01*
X15828853Y-11880736D02*
X15819329Y-11861688D01*
X15819329Y-11861688D02*
X15809806Y-11823593D01*
X15809806Y-11823593D02*
X15809806Y-11775974D01*
X15809806Y-11775974D02*
X15819329Y-11737879D01*
X15819329Y-11737879D02*
X15828853Y-11718831D01*
X15828853Y-11718831D02*
X15838377Y-11709308D01*
X15838377Y-11709308D02*
X15857425Y-11699784D01*
X16105044Y-11699784D02*
X16009806Y-11699784D01*
X16009806Y-11699784D02*
X16000282Y-11795022D01*
X16000282Y-11795022D02*
X16009806Y-11785498D01*
X16009806Y-11785498D02*
X16028853Y-11775974D01*
X16028853Y-11775974D02*
X16076472Y-11775974D01*
X16076472Y-11775974D02*
X16095520Y-11785498D01*
X16095520Y-11785498D02*
X16105044Y-11795022D01*
X16105044Y-11795022D02*
X16114567Y-11814069D01*
X16114567Y-11814069D02*
X16114567Y-11861688D01*
X16114567Y-11861688D02*
X16105044Y-11880736D01*
X16105044Y-11880736D02*
X16095520Y-11890260D01*
X16095520Y-11890260D02*
X16076472Y-11899784D01*
X16076472Y-11899784D02*
X16028853Y-11899784D01*
X16028853Y-11899784D02*
X16009806Y-11890260D01*
X16009806Y-11890260D02*
X16000282Y-11880736D01*
X16238377Y-11699784D02*
X16257425Y-11699784D01*
X16257425Y-11699784D02*
X16276472Y-11709308D01*
X16276472Y-11709308D02*
X16285996Y-11718831D01*
X16285996Y-11718831D02*
X16295520Y-11737879D01*
X16295520Y-11737879D02*
X16305044Y-11775974D01*
X16305044Y-11775974D02*
X16305044Y-11823593D01*
X16305044Y-11823593D02*
X16295520Y-11861688D01*
X16295520Y-11861688D02*
X16285996Y-11880736D01*
X16285996Y-11880736D02*
X16276472Y-11890260D01*
X16276472Y-11890260D02*
X16257425Y-11899784D01*
X16257425Y-11899784D02*
X16238377Y-11899784D01*
X16238377Y-11899784D02*
X16219329Y-11890260D01*
X16219329Y-11890260D02*
X16209806Y-11880736D01*
X16209806Y-11880736D02*
X16200282Y-11861688D01*
X16200282Y-11861688D02*
X16190758Y-11823593D01*
X16190758Y-11823593D02*
X16190758Y-11775974D01*
X16190758Y-11775974D02*
X16200282Y-11737879D01*
X16200282Y-11737879D02*
X16209806Y-11718831D01*
X16209806Y-11718831D02*
X16219329Y-11709308D01*
X16219329Y-11709308D02*
X16238377Y-11699784D01*
X16381234Y-11699784D02*
X16381234Y-11737879D01*
X16457425Y-11699784D02*
X16457425Y-11737879D01*
X16752663Y-11975974D02*
X16743139Y-11966450D01*
X16743139Y-11966450D02*
X16724091Y-11937879D01*
X16724091Y-11937879D02*
X16714568Y-11918831D01*
X16714568Y-11918831D02*
X16705044Y-11890260D01*
X16705044Y-11890260D02*
X16695520Y-11842641D01*
X16695520Y-11842641D02*
X16695520Y-11804546D01*
X16695520Y-11804546D02*
X16705044Y-11756927D01*
X16705044Y-11756927D02*
X16714568Y-11728355D01*
X16714568Y-11728355D02*
X16724091Y-11709308D01*
X16724091Y-11709308D02*
X16743139Y-11680736D01*
X16743139Y-11680736D02*
X16752663Y-11671212D01*
X16933615Y-11899784D02*
X16819330Y-11899784D01*
X16876472Y-11899784D02*
X16876472Y-11699784D01*
X16876472Y-11699784D02*
X16857425Y-11728355D01*
X16857425Y-11728355D02*
X16838377Y-11747403D01*
X16838377Y-11747403D02*
X16819330Y-11756927D01*
X17047901Y-11785498D02*
X17028853Y-11775974D01*
X17028853Y-11775974D02*
X17019330Y-11766450D01*
X17019330Y-11766450D02*
X17009806Y-11747403D01*
X17009806Y-11747403D02*
X17009806Y-11737879D01*
X17009806Y-11737879D02*
X17019330Y-11718831D01*
X17019330Y-11718831D02*
X17028853Y-11709308D01*
X17028853Y-11709308D02*
X17047901Y-11699784D01*
X17047901Y-11699784D02*
X17085996Y-11699784D01*
X17085996Y-11699784D02*
X17105044Y-11709308D01*
X17105044Y-11709308D02*
X17114568Y-11718831D01*
X17114568Y-11718831D02*
X17124091Y-11737879D01*
X17124091Y-11737879D02*
X17124091Y-11747403D01*
X17124091Y-11747403D02*
X17114568Y-11766450D01*
X17114568Y-11766450D02*
X17105044Y-11775974D01*
X17105044Y-11775974D02*
X17085996Y-11785498D01*
X17085996Y-11785498D02*
X17047901Y-11785498D01*
X17047901Y-11785498D02*
X17028853Y-11795022D01*
X17028853Y-11795022D02*
X17019330Y-11804546D01*
X17019330Y-11804546D02*
X17009806Y-11823593D01*
X17009806Y-11823593D02*
X17009806Y-11861688D01*
X17009806Y-11861688D02*
X17019330Y-11880736D01*
X17019330Y-11880736D02*
X17028853Y-11890260D01*
X17028853Y-11890260D02*
X17047901Y-11899784D01*
X17047901Y-11899784D02*
X17085996Y-11899784D01*
X17085996Y-11899784D02*
X17105044Y-11890260D01*
X17105044Y-11890260D02*
X17114568Y-11880736D01*
X17114568Y-11880736D02*
X17124091Y-11861688D01*
X17124091Y-11861688D02*
X17124091Y-11823593D01*
X17124091Y-11823593D02*
X17114568Y-11804546D01*
X17114568Y-11804546D02*
X17105044Y-11795022D01*
X17105044Y-11795022D02*
X17085996Y-11785498D01*
X17362187Y-11899784D02*
X17362187Y-11699784D01*
X17447901Y-11899784D02*
X17447901Y-11795022D01*
X17447901Y-11795022D02*
X17438377Y-11775974D01*
X17438377Y-11775974D02*
X17419330Y-11766450D01*
X17419330Y-11766450D02*
X17390758Y-11766450D01*
X17390758Y-11766450D02*
X17371711Y-11775974D01*
X17371711Y-11775974D02*
X17362187Y-11785498D01*
X17571711Y-11899784D02*
X17552663Y-11890260D01*
X17552663Y-11890260D02*
X17543139Y-11880736D01*
X17543139Y-11880736D02*
X17533615Y-11861688D01*
X17533615Y-11861688D02*
X17533615Y-11804546D01*
X17533615Y-11804546D02*
X17543139Y-11785498D01*
X17543139Y-11785498D02*
X17552663Y-11775974D01*
X17552663Y-11775974D02*
X17571711Y-11766450D01*
X17571711Y-11766450D02*
X17600282Y-11766450D01*
X17600282Y-11766450D02*
X17619330Y-11775974D01*
X17619330Y-11775974D02*
X17628853Y-11785498D01*
X17628853Y-11785498D02*
X17638377Y-11804546D01*
X17638377Y-11804546D02*
X17638377Y-11861688D01*
X17638377Y-11861688D02*
X17628853Y-11880736D01*
X17628853Y-11880736D02*
X17619330Y-11890260D01*
X17619330Y-11890260D02*
X17600282Y-11899784D01*
X17600282Y-11899784D02*
X17571711Y-11899784D01*
X17752663Y-11899784D02*
X17733615Y-11890260D01*
X17733615Y-11890260D02*
X17724092Y-11871212D01*
X17724092Y-11871212D02*
X17724092Y-11699784D01*
X17905044Y-11890260D02*
X17885996Y-11899784D01*
X17885996Y-11899784D02*
X17847901Y-11899784D01*
X17847901Y-11899784D02*
X17828853Y-11890260D01*
X17828853Y-11890260D02*
X17819330Y-11871212D01*
X17819330Y-11871212D02*
X17819330Y-11795022D01*
X17819330Y-11795022D02*
X17828853Y-11775974D01*
X17828853Y-11775974D02*
X17847901Y-11766450D01*
X17847901Y-11766450D02*
X17885996Y-11766450D01*
X17885996Y-11766450D02*
X17905044Y-11775974D01*
X17905044Y-11775974D02*
X17914568Y-11795022D01*
X17914568Y-11795022D02*
X17914568Y-11814069D01*
X17914568Y-11814069D02*
X17819330Y-11833117D01*
X17990758Y-11890260D02*
X18009806Y-11899784D01*
X18009806Y-11899784D02*
X18047901Y-11899784D01*
X18047901Y-11899784D02*
X18066949Y-11890260D01*
X18066949Y-11890260D02*
X18076473Y-11871212D01*
X18076473Y-11871212D02*
X18076473Y-11861688D01*
X18076473Y-11861688D02*
X18066949Y-11842641D01*
X18066949Y-11842641D02*
X18047901Y-11833117D01*
X18047901Y-11833117D02*
X18019330Y-11833117D01*
X18019330Y-11833117D02*
X18000282Y-11823593D01*
X18000282Y-11823593D02*
X17990758Y-11804546D01*
X17990758Y-11804546D02*
X17990758Y-11795022D01*
X17990758Y-11795022D02*
X18000282Y-11775974D01*
X18000282Y-11775974D02*
X18019330Y-11766450D01*
X18019330Y-11766450D02*
X18047901Y-11766450D01*
X18047901Y-11766450D02*
X18066949Y-11775974D01*
X18143139Y-11975974D02*
X18152663Y-11966450D01*
X18152663Y-11966450D02*
X18171711Y-11937879D01*
X18171711Y-11937879D02*
X18181234Y-11918831D01*
X18181234Y-11918831D02*
X18190758Y-11890260D01*
X18190758Y-11890260D02*
X18200282Y-11842641D01*
X18200282Y-11842641D02*
X18200282Y-11804546D01*
X18200282Y-11804546D02*
X18190758Y-11756927D01*
X18190758Y-11756927D02*
X18181234Y-11728355D01*
X18181234Y-11728355D02*
X18171711Y-11709308D01*
X18171711Y-11709308D02*
X18152663Y-11680736D01*
X18152663Y-11680736D02*
X18143139Y-11671212D01*
D13*
X13177600Y-12072300D02*
G75*
G03*
X13177600Y-12072300I-20000J0D01*
G01*
D11*
X13476472Y-11963784D02*
X13495520Y-11963784D01*
X13495520Y-11963784D02*
X13514567Y-11973308D01*
X13514567Y-11973308D02*
X13524091Y-11982831D01*
X13524091Y-11982831D02*
X13533615Y-12001879D01*
X13533615Y-12001879D02*
X13543139Y-12039974D01*
X13543139Y-12039974D02*
X13543139Y-12087593D01*
X13543139Y-12087593D02*
X13533615Y-12125688D01*
X13533615Y-12125688D02*
X13524091Y-12144736D01*
X13524091Y-12144736D02*
X13514567Y-12154260D01*
X13514567Y-12154260D02*
X13495520Y-12163784D01*
X13495520Y-12163784D02*
X13476472Y-12163784D01*
X13476472Y-12163784D02*
X13457424Y-12154260D01*
X13457424Y-12154260D02*
X13447901Y-12144736D01*
X13447901Y-12144736D02*
X13438377Y-12125688D01*
X13438377Y-12125688D02*
X13428853Y-12087593D01*
X13428853Y-12087593D02*
X13428853Y-12039974D01*
X13428853Y-12039974D02*
X13438377Y-12001879D01*
X13438377Y-12001879D02*
X13447901Y-11982831D01*
X13447901Y-11982831D02*
X13457424Y-11973308D01*
X13457424Y-11973308D02*
X13476472Y-11963784D01*
X13628853Y-12144736D02*
X13638377Y-12154260D01*
X13638377Y-12154260D02*
X13628853Y-12163784D01*
X13628853Y-12163784D02*
X13619329Y-12154260D01*
X13619329Y-12154260D02*
X13628853Y-12144736D01*
X13628853Y-12144736D02*
X13628853Y-12163784D01*
X13809805Y-12030450D02*
X13809805Y-12163784D01*
X13762186Y-11954260D02*
X13714567Y-12097117D01*
X13714567Y-12097117D02*
X13838377Y-12097117D01*
X13952662Y-11963784D02*
X13971710Y-11963784D01*
X13971710Y-11963784D02*
X13990758Y-11973308D01*
X13990758Y-11973308D02*
X14000282Y-11982831D01*
X14000282Y-11982831D02*
X14009805Y-12001879D01*
X14009805Y-12001879D02*
X14019329Y-12039974D01*
X14019329Y-12039974D02*
X14019329Y-12087593D01*
X14019329Y-12087593D02*
X14009805Y-12125688D01*
X14009805Y-12125688D02*
X14000282Y-12144736D01*
X14000282Y-12144736D02*
X13990758Y-12154260D01*
X13990758Y-12154260D02*
X13971710Y-12163784D01*
X13971710Y-12163784D02*
X13952662Y-12163784D01*
X13952662Y-12163784D02*
X13933615Y-12154260D01*
X13933615Y-12154260D02*
X13924091Y-12144736D01*
X13924091Y-12144736D02*
X13914567Y-12125688D01*
X13914567Y-12125688D02*
X13905043Y-12087593D01*
X13905043Y-12087593D02*
X13905043Y-12039974D01*
X13905043Y-12039974D02*
X13914567Y-12001879D01*
X13914567Y-12001879D02*
X13924091Y-11982831D01*
X13924091Y-11982831D02*
X13933615Y-11973308D01*
X13933615Y-11973308D02*
X13952662Y-11963784D01*
X14143139Y-11963784D02*
X14162186Y-11963784D01*
X14162186Y-11963784D02*
X14181234Y-11973308D01*
X14181234Y-11973308D02*
X14190758Y-11982831D01*
X14190758Y-11982831D02*
X14200282Y-12001879D01*
X14200282Y-12001879D02*
X14209805Y-12039974D01*
X14209805Y-12039974D02*
X14209805Y-12087593D01*
X14209805Y-12087593D02*
X14200282Y-12125688D01*
X14200282Y-12125688D02*
X14190758Y-12144736D01*
X14190758Y-12144736D02*
X14181234Y-12154260D01*
X14181234Y-12154260D02*
X14162186Y-12163784D01*
X14162186Y-12163784D02*
X14143139Y-12163784D01*
X14143139Y-12163784D02*
X14124091Y-12154260D01*
X14124091Y-12154260D02*
X14114567Y-12144736D01*
X14114567Y-12144736D02*
X14105043Y-12125688D01*
X14105043Y-12125688D02*
X14095520Y-12087593D01*
X14095520Y-12087593D02*
X14095520Y-12039974D01*
X14095520Y-12039974D02*
X14105043Y-12001879D01*
X14105043Y-12001879D02*
X14114567Y-11982831D01*
X14114567Y-11982831D02*
X14124091Y-11973308D01*
X14124091Y-11973308D02*
X14143139Y-11963784D01*
X14295520Y-12163784D02*
X14295520Y-12030450D01*
X14295520Y-12049498D02*
X14305043Y-12039974D01*
X14305043Y-12039974D02*
X14324091Y-12030450D01*
X14324091Y-12030450D02*
X14352663Y-12030450D01*
X14352663Y-12030450D02*
X14371710Y-12039974D01*
X14371710Y-12039974D02*
X14381234Y-12059022D01*
X14381234Y-12059022D02*
X14381234Y-12163784D01*
X14381234Y-12059022D02*
X14390758Y-12039974D01*
X14390758Y-12039974D02*
X14409805Y-12030450D01*
X14409805Y-12030450D02*
X14438377Y-12030450D01*
X14438377Y-12030450D02*
X14457424Y-12039974D01*
X14457424Y-12039974D02*
X14466948Y-12059022D01*
X14466948Y-12059022D02*
X14466948Y-12163784D01*
X14562186Y-12163784D02*
X14562186Y-12030450D01*
X14562186Y-12049498D02*
X14571710Y-12039974D01*
X14571710Y-12039974D02*
X14590758Y-12030450D01*
X14590758Y-12030450D02*
X14619329Y-12030450D01*
X14619329Y-12030450D02*
X14638377Y-12039974D01*
X14638377Y-12039974D02*
X14647901Y-12059022D01*
X14647901Y-12059022D02*
X14647901Y-12163784D01*
X14647901Y-12059022D02*
X14657424Y-12039974D01*
X14657424Y-12039974D02*
X14676472Y-12030450D01*
X14676472Y-12030450D02*
X14705043Y-12030450D01*
X14705043Y-12030450D02*
X14724091Y-12039974D01*
X14724091Y-12039974D02*
X14733615Y-12059022D01*
X14733615Y-12059022D02*
X14733615Y-12163784D01*
X15124091Y-11954260D02*
X14952663Y-12211403D01*
X15381234Y-11963784D02*
X15400282Y-11963784D01*
X15400282Y-11963784D02*
X15419329Y-11973308D01*
X15419329Y-11973308D02*
X15428853Y-11982831D01*
X15428853Y-11982831D02*
X15438377Y-12001879D01*
X15438377Y-12001879D02*
X15447901Y-12039974D01*
X15447901Y-12039974D02*
X15447901Y-12087593D01*
X15447901Y-12087593D02*
X15438377Y-12125688D01*
X15438377Y-12125688D02*
X15428853Y-12144736D01*
X15428853Y-12144736D02*
X15419329Y-12154260D01*
X15419329Y-12154260D02*
X15400282Y-12163784D01*
X15400282Y-12163784D02*
X15381234Y-12163784D01*
X15381234Y-12163784D02*
X15362186Y-12154260D01*
X15362186Y-12154260D02*
X15352663Y-12144736D01*
X15352663Y-12144736D02*
X15343139Y-12125688D01*
X15343139Y-12125688D02*
X15333615Y-12087593D01*
X15333615Y-12087593D02*
X15333615Y-12039974D01*
X15333615Y-12039974D02*
X15343139Y-12001879D01*
X15343139Y-12001879D02*
X15352663Y-11982831D01*
X15352663Y-11982831D02*
X15362186Y-11973308D01*
X15362186Y-11973308D02*
X15381234Y-11963784D01*
X15533615Y-12144736D02*
X15543139Y-12154260D01*
X15543139Y-12154260D02*
X15533615Y-12163784D01*
X15533615Y-12163784D02*
X15524091Y-12154260D01*
X15524091Y-12154260D02*
X15533615Y-12144736D01*
X15533615Y-12144736D02*
X15533615Y-12163784D01*
X15666948Y-11963784D02*
X15685996Y-11963784D01*
X15685996Y-11963784D02*
X15705044Y-11973308D01*
X15705044Y-11973308D02*
X15714567Y-11982831D01*
X15714567Y-11982831D02*
X15724091Y-12001879D01*
X15724091Y-12001879D02*
X15733615Y-12039974D01*
X15733615Y-12039974D02*
X15733615Y-12087593D01*
X15733615Y-12087593D02*
X15724091Y-12125688D01*
X15724091Y-12125688D02*
X15714567Y-12144736D01*
X15714567Y-12144736D02*
X15705044Y-12154260D01*
X15705044Y-12154260D02*
X15685996Y-12163784D01*
X15685996Y-12163784D02*
X15666948Y-12163784D01*
X15666948Y-12163784D02*
X15647901Y-12154260D01*
X15647901Y-12154260D02*
X15638377Y-12144736D01*
X15638377Y-12144736D02*
X15628853Y-12125688D01*
X15628853Y-12125688D02*
X15619329Y-12087593D01*
X15619329Y-12087593D02*
X15619329Y-12039974D01*
X15619329Y-12039974D02*
X15628853Y-12001879D01*
X15628853Y-12001879D02*
X15638377Y-11982831D01*
X15638377Y-11982831D02*
X15647901Y-11973308D01*
X15647901Y-11973308D02*
X15666948Y-11963784D01*
X15924091Y-12163784D02*
X15809806Y-12163784D01*
X15866948Y-12163784D02*
X15866948Y-11963784D01*
X15866948Y-11963784D02*
X15847901Y-11992355D01*
X15847901Y-11992355D02*
X15828853Y-12011403D01*
X15828853Y-12011403D02*
X15809806Y-12020927D01*
X16105044Y-11963784D02*
X16009806Y-11963784D01*
X16009806Y-11963784D02*
X16000282Y-12059022D01*
X16000282Y-12059022D02*
X16009806Y-12049498D01*
X16009806Y-12049498D02*
X16028853Y-12039974D01*
X16028853Y-12039974D02*
X16076472Y-12039974D01*
X16076472Y-12039974D02*
X16095520Y-12049498D01*
X16095520Y-12049498D02*
X16105044Y-12059022D01*
X16105044Y-12059022D02*
X16114567Y-12078069D01*
X16114567Y-12078069D02*
X16114567Y-12125688D01*
X16114567Y-12125688D02*
X16105044Y-12144736D01*
X16105044Y-12144736D02*
X16095520Y-12154260D01*
X16095520Y-12154260D02*
X16076472Y-12163784D01*
X16076472Y-12163784D02*
X16028853Y-12163784D01*
X16028853Y-12163784D02*
X16009806Y-12154260D01*
X16009806Y-12154260D02*
X16000282Y-12144736D01*
X16181234Y-11963784D02*
X16314567Y-11963784D01*
X16314567Y-11963784D02*
X16228853Y-12163784D01*
X16381234Y-11963784D02*
X16381234Y-12001879D01*
X16457425Y-11963784D02*
X16457425Y-12001879D01*
X16752663Y-12239974D02*
X16743139Y-12230450D01*
X16743139Y-12230450D02*
X16724091Y-12201879D01*
X16724091Y-12201879D02*
X16714568Y-12182831D01*
X16714568Y-12182831D02*
X16705044Y-12154260D01*
X16705044Y-12154260D02*
X16695520Y-12106641D01*
X16695520Y-12106641D02*
X16695520Y-12068546D01*
X16695520Y-12068546D02*
X16705044Y-12020927D01*
X16705044Y-12020927D02*
X16714568Y-11992355D01*
X16714568Y-11992355D02*
X16724091Y-11973308D01*
X16724091Y-11973308D02*
X16743139Y-11944736D01*
X16743139Y-11944736D02*
X16752663Y-11935212D01*
X16924091Y-11963784D02*
X16828853Y-11963784D01*
X16828853Y-11963784D02*
X16819330Y-12059022D01*
X16819330Y-12059022D02*
X16828853Y-12049498D01*
X16828853Y-12049498D02*
X16847901Y-12039974D01*
X16847901Y-12039974D02*
X16895520Y-12039974D01*
X16895520Y-12039974D02*
X16914568Y-12049498D01*
X16914568Y-12049498D02*
X16924091Y-12059022D01*
X16924091Y-12059022D02*
X16933615Y-12078069D01*
X16933615Y-12078069D02*
X16933615Y-12125688D01*
X16933615Y-12125688D02*
X16924091Y-12144736D01*
X16924091Y-12144736D02*
X16914568Y-12154260D01*
X16914568Y-12154260D02*
X16895520Y-12163784D01*
X16895520Y-12163784D02*
X16847901Y-12163784D01*
X16847901Y-12163784D02*
X16828853Y-12154260D01*
X16828853Y-12154260D02*
X16819330Y-12144736D01*
X17171711Y-12163784D02*
X17171711Y-11963784D01*
X17257425Y-12163784D02*
X17257425Y-12059022D01*
X17257425Y-12059022D02*
X17247901Y-12039974D01*
X17247901Y-12039974D02*
X17228853Y-12030450D01*
X17228853Y-12030450D02*
X17200282Y-12030450D01*
X17200282Y-12030450D02*
X17181234Y-12039974D01*
X17181234Y-12039974D02*
X17171711Y-12049498D01*
X17381234Y-12163784D02*
X17362187Y-12154260D01*
X17362187Y-12154260D02*
X17352663Y-12144736D01*
X17352663Y-12144736D02*
X17343139Y-12125688D01*
X17343139Y-12125688D02*
X17343139Y-12068546D01*
X17343139Y-12068546D02*
X17352663Y-12049498D01*
X17352663Y-12049498D02*
X17362187Y-12039974D01*
X17362187Y-12039974D02*
X17381234Y-12030450D01*
X17381234Y-12030450D02*
X17409806Y-12030450D01*
X17409806Y-12030450D02*
X17428853Y-12039974D01*
X17428853Y-12039974D02*
X17438377Y-12049498D01*
X17438377Y-12049498D02*
X17447901Y-12068546D01*
X17447901Y-12068546D02*
X17447901Y-12125688D01*
X17447901Y-12125688D02*
X17438377Y-12144736D01*
X17438377Y-12144736D02*
X17428853Y-12154260D01*
X17428853Y-12154260D02*
X17409806Y-12163784D01*
X17409806Y-12163784D02*
X17381234Y-12163784D01*
X17562187Y-12163784D02*
X17543139Y-12154260D01*
X17543139Y-12154260D02*
X17533615Y-12135212D01*
X17533615Y-12135212D02*
X17533615Y-11963784D01*
X17714568Y-12154260D02*
X17695520Y-12163784D01*
X17695520Y-12163784D02*
X17657425Y-12163784D01*
X17657425Y-12163784D02*
X17638377Y-12154260D01*
X17638377Y-12154260D02*
X17628853Y-12135212D01*
X17628853Y-12135212D02*
X17628853Y-12059022D01*
X17628853Y-12059022D02*
X17638377Y-12039974D01*
X17638377Y-12039974D02*
X17657425Y-12030450D01*
X17657425Y-12030450D02*
X17695520Y-12030450D01*
X17695520Y-12030450D02*
X17714568Y-12039974D01*
X17714568Y-12039974D02*
X17724092Y-12059022D01*
X17724092Y-12059022D02*
X17724092Y-12078069D01*
X17724092Y-12078069D02*
X17628853Y-12097117D01*
X17800282Y-12154260D02*
X17819330Y-12163784D01*
X17819330Y-12163784D02*
X17857425Y-12163784D01*
X17857425Y-12163784D02*
X17876473Y-12154260D01*
X17876473Y-12154260D02*
X17885996Y-12135212D01*
X17885996Y-12135212D02*
X17885996Y-12125688D01*
X17885996Y-12125688D02*
X17876473Y-12106641D01*
X17876473Y-12106641D02*
X17857425Y-12097117D01*
X17857425Y-12097117D02*
X17828853Y-12097117D01*
X17828853Y-12097117D02*
X17809806Y-12087593D01*
X17809806Y-12087593D02*
X17800282Y-12068546D01*
X17800282Y-12068546D02*
X17800282Y-12059022D01*
X17800282Y-12059022D02*
X17809806Y-12039974D01*
X17809806Y-12039974D02*
X17828853Y-12030450D01*
X17828853Y-12030450D02*
X17857425Y-12030450D01*
X17857425Y-12030450D02*
X17876473Y-12039974D01*
X17952663Y-12239974D02*
X17962187Y-12230450D01*
X17962187Y-12230450D02*
X17981234Y-12201879D01*
X17981234Y-12201879D02*
X17990758Y-12182831D01*
X17990758Y-12182831D02*
X18000282Y-12154260D01*
X18000282Y-12154260D02*
X18009806Y-12106641D01*
X18009806Y-12106641D02*
X18009806Y-12068546D01*
X18009806Y-12068546D02*
X18000282Y-12020927D01*
X18000282Y-12020927D02*
X17990758Y-11992355D01*
X17990758Y-11992355D02*
X17981234Y-11973308D01*
X17981234Y-11973308D02*
X17962187Y-11944736D01*
X17962187Y-11944736D02*
X17952663Y-11935212D01*
D14*
X13152600Y-12311300D02*
X13152600Y-12361300D01*
X13127600Y-12336300D02*
X13177600Y-12336300D01*
D11*
X13476472Y-12227784D02*
X13495520Y-12227784D01*
X13495520Y-12227784D02*
X13514567Y-12237308D01*
X13514567Y-12237308D02*
X13524091Y-12246831D01*
X13524091Y-12246831D02*
X13533615Y-12265879D01*
X13533615Y-12265879D02*
X13543139Y-12303974D01*
X13543139Y-12303974D02*
X13543139Y-12351593D01*
X13543139Y-12351593D02*
X13533615Y-12389688D01*
X13533615Y-12389688D02*
X13524091Y-12408736D01*
X13524091Y-12408736D02*
X13514567Y-12418260D01*
X13514567Y-12418260D02*
X13495520Y-12427784D01*
X13495520Y-12427784D02*
X13476472Y-12427784D01*
X13476472Y-12427784D02*
X13457424Y-12418260D01*
X13457424Y-12418260D02*
X13447901Y-12408736D01*
X13447901Y-12408736D02*
X13438377Y-12389688D01*
X13438377Y-12389688D02*
X13428853Y-12351593D01*
X13428853Y-12351593D02*
X13428853Y-12303974D01*
X13428853Y-12303974D02*
X13438377Y-12265879D01*
X13438377Y-12265879D02*
X13447901Y-12246831D01*
X13447901Y-12246831D02*
X13457424Y-12237308D01*
X13457424Y-12237308D02*
X13476472Y-12227784D01*
X13628853Y-12408736D02*
X13638377Y-12418260D01*
X13638377Y-12418260D02*
X13628853Y-12427784D01*
X13628853Y-12427784D02*
X13619329Y-12418260D01*
X13619329Y-12418260D02*
X13628853Y-12408736D01*
X13628853Y-12408736D02*
X13628853Y-12427784D01*
X13819329Y-12227784D02*
X13724091Y-12227784D01*
X13724091Y-12227784D02*
X13714567Y-12323022D01*
X13714567Y-12323022D02*
X13724091Y-12313498D01*
X13724091Y-12313498D02*
X13743139Y-12303974D01*
X13743139Y-12303974D02*
X13790758Y-12303974D01*
X13790758Y-12303974D02*
X13809805Y-12313498D01*
X13809805Y-12313498D02*
X13819329Y-12323022D01*
X13819329Y-12323022D02*
X13828853Y-12342069D01*
X13828853Y-12342069D02*
X13828853Y-12389688D01*
X13828853Y-12389688D02*
X13819329Y-12408736D01*
X13819329Y-12408736D02*
X13809805Y-12418260D01*
X13809805Y-12418260D02*
X13790758Y-12427784D01*
X13790758Y-12427784D02*
X13743139Y-12427784D01*
X13743139Y-12427784D02*
X13724091Y-12418260D01*
X13724091Y-12418260D02*
X13714567Y-12408736D01*
X13952662Y-12227784D02*
X13971710Y-12227784D01*
X13971710Y-12227784D02*
X13990758Y-12237308D01*
X13990758Y-12237308D02*
X14000282Y-12246831D01*
X14000282Y-12246831D02*
X14009805Y-12265879D01*
X14009805Y-12265879D02*
X14019329Y-12303974D01*
X14019329Y-12303974D02*
X14019329Y-12351593D01*
X14019329Y-12351593D02*
X14009805Y-12389688D01*
X14009805Y-12389688D02*
X14000282Y-12408736D01*
X14000282Y-12408736D02*
X13990758Y-12418260D01*
X13990758Y-12418260D02*
X13971710Y-12427784D01*
X13971710Y-12427784D02*
X13952662Y-12427784D01*
X13952662Y-12427784D02*
X13933615Y-12418260D01*
X13933615Y-12418260D02*
X13924091Y-12408736D01*
X13924091Y-12408736D02*
X13914567Y-12389688D01*
X13914567Y-12389688D02*
X13905043Y-12351593D01*
X13905043Y-12351593D02*
X13905043Y-12303974D01*
X13905043Y-12303974D02*
X13914567Y-12265879D01*
X13914567Y-12265879D02*
X13924091Y-12246831D01*
X13924091Y-12246831D02*
X13933615Y-12237308D01*
X13933615Y-12237308D02*
X13952662Y-12227784D01*
X14143139Y-12227784D02*
X14162186Y-12227784D01*
X14162186Y-12227784D02*
X14181234Y-12237308D01*
X14181234Y-12237308D02*
X14190758Y-12246831D01*
X14190758Y-12246831D02*
X14200282Y-12265879D01*
X14200282Y-12265879D02*
X14209805Y-12303974D01*
X14209805Y-12303974D02*
X14209805Y-12351593D01*
X14209805Y-12351593D02*
X14200282Y-12389688D01*
X14200282Y-12389688D02*
X14190758Y-12408736D01*
X14190758Y-12408736D02*
X14181234Y-12418260D01*
X14181234Y-12418260D02*
X14162186Y-12427784D01*
X14162186Y-12427784D02*
X14143139Y-12427784D01*
X14143139Y-12427784D02*
X14124091Y-12418260D01*
X14124091Y-12418260D02*
X14114567Y-12408736D01*
X14114567Y-12408736D02*
X14105043Y-12389688D01*
X14105043Y-12389688D02*
X14095520Y-12351593D01*
X14095520Y-12351593D02*
X14095520Y-12303974D01*
X14095520Y-12303974D02*
X14105043Y-12265879D01*
X14105043Y-12265879D02*
X14114567Y-12246831D01*
X14114567Y-12246831D02*
X14124091Y-12237308D01*
X14124091Y-12237308D02*
X14143139Y-12227784D01*
X14295520Y-12427784D02*
X14295520Y-12294450D01*
X14295520Y-12313498D02*
X14305043Y-12303974D01*
X14305043Y-12303974D02*
X14324091Y-12294450D01*
X14324091Y-12294450D02*
X14352663Y-12294450D01*
X14352663Y-12294450D02*
X14371710Y-12303974D01*
X14371710Y-12303974D02*
X14381234Y-12323022D01*
X14381234Y-12323022D02*
X14381234Y-12427784D01*
X14381234Y-12323022D02*
X14390758Y-12303974D01*
X14390758Y-12303974D02*
X14409805Y-12294450D01*
X14409805Y-12294450D02*
X14438377Y-12294450D01*
X14438377Y-12294450D02*
X14457424Y-12303974D01*
X14457424Y-12303974D02*
X14466948Y-12323022D01*
X14466948Y-12323022D02*
X14466948Y-12427784D01*
X14562186Y-12427784D02*
X14562186Y-12294450D01*
X14562186Y-12313498D02*
X14571710Y-12303974D01*
X14571710Y-12303974D02*
X14590758Y-12294450D01*
X14590758Y-12294450D02*
X14619329Y-12294450D01*
X14619329Y-12294450D02*
X14638377Y-12303974D01*
X14638377Y-12303974D02*
X14647901Y-12323022D01*
X14647901Y-12323022D02*
X14647901Y-12427784D01*
X14647901Y-12323022D02*
X14657424Y-12303974D01*
X14657424Y-12303974D02*
X14676472Y-12294450D01*
X14676472Y-12294450D02*
X14705043Y-12294450D01*
X14705043Y-12294450D02*
X14724091Y-12303974D01*
X14724091Y-12303974D02*
X14733615Y-12323022D01*
X14733615Y-12323022D02*
X14733615Y-12427784D01*
X15124091Y-12218260D02*
X14952663Y-12475403D01*
X15381234Y-12227784D02*
X15400282Y-12227784D01*
X15400282Y-12227784D02*
X15419329Y-12237308D01*
X15419329Y-12237308D02*
X15428853Y-12246831D01*
X15428853Y-12246831D02*
X15438377Y-12265879D01*
X15438377Y-12265879D02*
X15447901Y-12303974D01*
X15447901Y-12303974D02*
X15447901Y-12351593D01*
X15447901Y-12351593D02*
X15438377Y-12389688D01*
X15438377Y-12389688D02*
X15428853Y-12408736D01*
X15428853Y-12408736D02*
X15419329Y-12418260D01*
X15419329Y-12418260D02*
X15400282Y-12427784D01*
X15400282Y-12427784D02*
X15381234Y-12427784D01*
X15381234Y-12427784D02*
X15362186Y-12418260D01*
X15362186Y-12418260D02*
X15352663Y-12408736D01*
X15352663Y-12408736D02*
X15343139Y-12389688D01*
X15343139Y-12389688D02*
X15333615Y-12351593D01*
X15333615Y-12351593D02*
X15333615Y-12303974D01*
X15333615Y-12303974D02*
X15343139Y-12265879D01*
X15343139Y-12265879D02*
X15352663Y-12246831D01*
X15352663Y-12246831D02*
X15362186Y-12237308D01*
X15362186Y-12237308D02*
X15381234Y-12227784D01*
X15533615Y-12408736D02*
X15543139Y-12418260D01*
X15543139Y-12418260D02*
X15533615Y-12427784D01*
X15533615Y-12427784D02*
X15524091Y-12418260D01*
X15524091Y-12418260D02*
X15533615Y-12408736D01*
X15533615Y-12408736D02*
X15533615Y-12427784D01*
X15666948Y-12227784D02*
X15685996Y-12227784D01*
X15685996Y-12227784D02*
X15705044Y-12237308D01*
X15705044Y-12237308D02*
X15714567Y-12246831D01*
X15714567Y-12246831D02*
X15724091Y-12265879D01*
X15724091Y-12265879D02*
X15733615Y-12303974D01*
X15733615Y-12303974D02*
X15733615Y-12351593D01*
X15733615Y-12351593D02*
X15724091Y-12389688D01*
X15724091Y-12389688D02*
X15714567Y-12408736D01*
X15714567Y-12408736D02*
X15705044Y-12418260D01*
X15705044Y-12418260D02*
X15685996Y-12427784D01*
X15685996Y-12427784D02*
X15666948Y-12427784D01*
X15666948Y-12427784D02*
X15647901Y-12418260D01*
X15647901Y-12418260D02*
X15638377Y-12408736D01*
X15638377Y-12408736D02*
X15628853Y-12389688D01*
X15628853Y-12389688D02*
X15619329Y-12351593D01*
X15619329Y-12351593D02*
X15619329Y-12303974D01*
X15619329Y-12303974D02*
X15628853Y-12265879D01*
X15628853Y-12265879D02*
X15638377Y-12246831D01*
X15638377Y-12246831D02*
X15647901Y-12237308D01*
X15647901Y-12237308D02*
X15666948Y-12227784D01*
X15924091Y-12427784D02*
X15809806Y-12427784D01*
X15866948Y-12427784D02*
X15866948Y-12227784D01*
X15866948Y-12227784D02*
X15847901Y-12256355D01*
X15847901Y-12256355D02*
X15828853Y-12275403D01*
X15828853Y-12275403D02*
X15809806Y-12284927D01*
X16019329Y-12427784D02*
X16057425Y-12427784D01*
X16057425Y-12427784D02*
X16076472Y-12418260D01*
X16076472Y-12418260D02*
X16085996Y-12408736D01*
X16085996Y-12408736D02*
X16105044Y-12380165D01*
X16105044Y-12380165D02*
X16114567Y-12342069D01*
X16114567Y-12342069D02*
X16114567Y-12265879D01*
X16114567Y-12265879D02*
X16105044Y-12246831D01*
X16105044Y-12246831D02*
X16095520Y-12237308D01*
X16095520Y-12237308D02*
X16076472Y-12227784D01*
X16076472Y-12227784D02*
X16038377Y-12227784D01*
X16038377Y-12227784D02*
X16019329Y-12237308D01*
X16019329Y-12237308D02*
X16009806Y-12246831D01*
X16009806Y-12246831D02*
X16000282Y-12265879D01*
X16000282Y-12265879D02*
X16000282Y-12313498D01*
X16000282Y-12313498D02*
X16009806Y-12332546D01*
X16009806Y-12332546D02*
X16019329Y-12342069D01*
X16019329Y-12342069D02*
X16038377Y-12351593D01*
X16038377Y-12351593D02*
X16076472Y-12351593D01*
X16076472Y-12351593D02*
X16095520Y-12342069D01*
X16095520Y-12342069D02*
X16105044Y-12332546D01*
X16105044Y-12332546D02*
X16114567Y-12313498D01*
X16181234Y-12227784D02*
X16314567Y-12227784D01*
X16314567Y-12227784D02*
X16228853Y-12427784D01*
X16381234Y-12227784D02*
X16381234Y-12265879D01*
X16457425Y-12227784D02*
X16457425Y-12265879D01*
X16752663Y-12503974D02*
X16743139Y-12494450D01*
X16743139Y-12494450D02*
X16724091Y-12465879D01*
X16724091Y-12465879D02*
X16714568Y-12446831D01*
X16714568Y-12446831D02*
X16705044Y-12418260D01*
X16705044Y-12418260D02*
X16695520Y-12370641D01*
X16695520Y-12370641D02*
X16695520Y-12332546D01*
X16695520Y-12332546D02*
X16705044Y-12284927D01*
X16705044Y-12284927D02*
X16714568Y-12256355D01*
X16714568Y-12256355D02*
X16724091Y-12237308D01*
X16724091Y-12237308D02*
X16743139Y-12208736D01*
X16743139Y-12208736D02*
X16752663Y-12199212D01*
X16819330Y-12246831D02*
X16828853Y-12237308D01*
X16828853Y-12237308D02*
X16847901Y-12227784D01*
X16847901Y-12227784D02*
X16895520Y-12227784D01*
X16895520Y-12227784D02*
X16914568Y-12237308D01*
X16914568Y-12237308D02*
X16924091Y-12246831D01*
X16924091Y-12246831D02*
X16933615Y-12265879D01*
X16933615Y-12265879D02*
X16933615Y-12284927D01*
X16933615Y-12284927D02*
X16924091Y-12313498D01*
X16924091Y-12313498D02*
X16809806Y-12427784D01*
X16809806Y-12427784D02*
X16933615Y-12427784D01*
X17171711Y-12427784D02*
X17171711Y-12227784D01*
X17257425Y-12427784D02*
X17257425Y-12323022D01*
X17257425Y-12323022D02*
X17247901Y-12303974D01*
X17247901Y-12303974D02*
X17228853Y-12294450D01*
X17228853Y-12294450D02*
X17200282Y-12294450D01*
X17200282Y-12294450D02*
X17181234Y-12303974D01*
X17181234Y-12303974D02*
X17171711Y-12313498D01*
X17381234Y-12427784D02*
X17362187Y-12418260D01*
X17362187Y-12418260D02*
X17352663Y-12408736D01*
X17352663Y-12408736D02*
X17343139Y-12389688D01*
X17343139Y-12389688D02*
X17343139Y-12332546D01*
X17343139Y-12332546D02*
X17352663Y-12313498D01*
X17352663Y-12313498D02*
X17362187Y-12303974D01*
X17362187Y-12303974D02*
X17381234Y-12294450D01*
X17381234Y-12294450D02*
X17409806Y-12294450D01*
X17409806Y-12294450D02*
X17428853Y-12303974D01*
X17428853Y-12303974D02*
X17438377Y-12313498D01*
X17438377Y-12313498D02*
X17447901Y-12332546D01*
X17447901Y-12332546D02*
X17447901Y-12389688D01*
X17447901Y-12389688D02*
X17438377Y-12408736D01*
X17438377Y-12408736D02*
X17428853Y-12418260D01*
X17428853Y-12418260D02*
X17409806Y-12427784D01*
X17409806Y-12427784D02*
X17381234Y-12427784D01*
X17562187Y-12427784D02*
X17543139Y-12418260D01*
X17543139Y-12418260D02*
X17533615Y-12399212D01*
X17533615Y-12399212D02*
X17533615Y-12227784D01*
X17714568Y-12418260D02*
X17695520Y-12427784D01*
X17695520Y-12427784D02*
X17657425Y-12427784D01*
X17657425Y-12427784D02*
X17638377Y-12418260D01*
X17638377Y-12418260D02*
X17628853Y-12399212D01*
X17628853Y-12399212D02*
X17628853Y-12323022D01*
X17628853Y-12323022D02*
X17638377Y-12303974D01*
X17638377Y-12303974D02*
X17657425Y-12294450D01*
X17657425Y-12294450D02*
X17695520Y-12294450D01*
X17695520Y-12294450D02*
X17714568Y-12303974D01*
X17714568Y-12303974D02*
X17724092Y-12323022D01*
X17724092Y-12323022D02*
X17724092Y-12342069D01*
X17724092Y-12342069D02*
X17628853Y-12361117D01*
X17800282Y-12418260D02*
X17819330Y-12427784D01*
X17819330Y-12427784D02*
X17857425Y-12427784D01*
X17857425Y-12427784D02*
X17876473Y-12418260D01*
X17876473Y-12418260D02*
X17885996Y-12399212D01*
X17885996Y-12399212D02*
X17885996Y-12389688D01*
X17885996Y-12389688D02*
X17876473Y-12370641D01*
X17876473Y-12370641D02*
X17857425Y-12361117D01*
X17857425Y-12361117D02*
X17828853Y-12361117D01*
X17828853Y-12361117D02*
X17809806Y-12351593D01*
X17809806Y-12351593D02*
X17800282Y-12332546D01*
X17800282Y-12332546D02*
X17800282Y-12323022D01*
X17800282Y-12323022D02*
X17809806Y-12303974D01*
X17809806Y-12303974D02*
X17828853Y-12294450D01*
X17828853Y-12294450D02*
X17857425Y-12294450D01*
X17857425Y-12294450D02*
X17876473Y-12303974D01*
X17952663Y-12503974D02*
X17962187Y-12494450D01*
X17962187Y-12494450D02*
X17981234Y-12465879D01*
X17981234Y-12465879D02*
X17990758Y-12446831D01*
X17990758Y-12446831D02*
X18000282Y-12418260D01*
X18000282Y-12418260D02*
X18009806Y-12370641D01*
X18009806Y-12370641D02*
X18009806Y-12332546D01*
X18009806Y-12332546D02*
X18000282Y-12284927D01*
X18000282Y-12284927D02*
X17990758Y-12256355D01*
X17990758Y-12256355D02*
X17981234Y-12237308D01*
X17981234Y-12237308D02*
X17962187Y-12208736D01*
X17962187Y-12208736D02*
X17952663Y-12199212D01*
D15*
X13168813Y-12621513D02*
X13168813Y-12579087D01*
X13126387Y-12579087D01*
X13126387Y-12621513D01*
X13168813Y-12621513D01*
D11*
X13476472Y-12491784D02*
X13495520Y-12491784D01*
X13495520Y-12491784D02*
X13514567Y-12501308D01*
X13514567Y-12501308D02*
X13524091Y-12510831D01*
X13524091Y-12510831D02*
X13533615Y-12529879D01*
X13533615Y-12529879D02*
X13543139Y-12567974D01*
X13543139Y-12567974D02*
X13543139Y-12615593D01*
X13543139Y-12615593D02*
X13533615Y-12653688D01*
X13533615Y-12653688D02*
X13524091Y-12672736D01*
X13524091Y-12672736D02*
X13514567Y-12682260D01*
X13514567Y-12682260D02*
X13495520Y-12691784D01*
X13495520Y-12691784D02*
X13476472Y-12691784D01*
X13476472Y-12691784D02*
X13457424Y-12682260D01*
X13457424Y-12682260D02*
X13447901Y-12672736D01*
X13447901Y-12672736D02*
X13438377Y-12653688D01*
X13438377Y-12653688D02*
X13428853Y-12615593D01*
X13428853Y-12615593D02*
X13428853Y-12567974D01*
X13428853Y-12567974D02*
X13438377Y-12529879D01*
X13438377Y-12529879D02*
X13447901Y-12510831D01*
X13447901Y-12510831D02*
X13457424Y-12501308D01*
X13457424Y-12501308D02*
X13476472Y-12491784D01*
X13628853Y-12672736D02*
X13638377Y-12682260D01*
X13638377Y-12682260D02*
X13628853Y-12691784D01*
X13628853Y-12691784D02*
X13619329Y-12682260D01*
X13619329Y-12682260D02*
X13628853Y-12672736D01*
X13628853Y-12672736D02*
X13628853Y-12691784D01*
X13809805Y-12491784D02*
X13771710Y-12491784D01*
X13771710Y-12491784D02*
X13752662Y-12501308D01*
X13752662Y-12501308D02*
X13743139Y-12510831D01*
X13743139Y-12510831D02*
X13724091Y-12539403D01*
X13724091Y-12539403D02*
X13714567Y-12577498D01*
X13714567Y-12577498D02*
X13714567Y-12653688D01*
X13714567Y-12653688D02*
X13724091Y-12672736D01*
X13724091Y-12672736D02*
X13733615Y-12682260D01*
X13733615Y-12682260D02*
X13752662Y-12691784D01*
X13752662Y-12691784D02*
X13790758Y-12691784D01*
X13790758Y-12691784D02*
X13809805Y-12682260D01*
X13809805Y-12682260D02*
X13819329Y-12672736D01*
X13819329Y-12672736D02*
X13828853Y-12653688D01*
X13828853Y-12653688D02*
X13828853Y-12606069D01*
X13828853Y-12606069D02*
X13819329Y-12587022D01*
X13819329Y-12587022D02*
X13809805Y-12577498D01*
X13809805Y-12577498D02*
X13790758Y-12567974D01*
X13790758Y-12567974D02*
X13752662Y-12567974D01*
X13752662Y-12567974D02*
X13733615Y-12577498D01*
X13733615Y-12577498D02*
X13724091Y-12587022D01*
X13724091Y-12587022D02*
X13714567Y-12606069D01*
X13952662Y-12491784D02*
X13971710Y-12491784D01*
X13971710Y-12491784D02*
X13990758Y-12501308D01*
X13990758Y-12501308D02*
X14000282Y-12510831D01*
X14000282Y-12510831D02*
X14009805Y-12529879D01*
X14009805Y-12529879D02*
X14019329Y-12567974D01*
X14019329Y-12567974D02*
X14019329Y-12615593D01*
X14019329Y-12615593D02*
X14009805Y-12653688D01*
X14009805Y-12653688D02*
X14000282Y-12672736D01*
X14000282Y-12672736D02*
X13990758Y-12682260D01*
X13990758Y-12682260D02*
X13971710Y-12691784D01*
X13971710Y-12691784D02*
X13952662Y-12691784D01*
X13952662Y-12691784D02*
X13933615Y-12682260D01*
X13933615Y-12682260D02*
X13924091Y-12672736D01*
X13924091Y-12672736D02*
X13914567Y-12653688D01*
X13914567Y-12653688D02*
X13905043Y-12615593D01*
X13905043Y-12615593D02*
X13905043Y-12567974D01*
X13905043Y-12567974D02*
X13914567Y-12529879D01*
X13914567Y-12529879D02*
X13924091Y-12510831D01*
X13924091Y-12510831D02*
X13933615Y-12501308D01*
X13933615Y-12501308D02*
X13952662Y-12491784D01*
X14143139Y-12491784D02*
X14162186Y-12491784D01*
X14162186Y-12491784D02*
X14181234Y-12501308D01*
X14181234Y-12501308D02*
X14190758Y-12510831D01*
X14190758Y-12510831D02*
X14200282Y-12529879D01*
X14200282Y-12529879D02*
X14209805Y-12567974D01*
X14209805Y-12567974D02*
X14209805Y-12615593D01*
X14209805Y-12615593D02*
X14200282Y-12653688D01*
X14200282Y-12653688D02*
X14190758Y-12672736D01*
X14190758Y-12672736D02*
X14181234Y-12682260D01*
X14181234Y-12682260D02*
X14162186Y-12691784D01*
X14162186Y-12691784D02*
X14143139Y-12691784D01*
X14143139Y-12691784D02*
X14124091Y-12682260D01*
X14124091Y-12682260D02*
X14114567Y-12672736D01*
X14114567Y-12672736D02*
X14105043Y-12653688D01*
X14105043Y-12653688D02*
X14095520Y-12615593D01*
X14095520Y-12615593D02*
X14095520Y-12567974D01*
X14095520Y-12567974D02*
X14105043Y-12529879D01*
X14105043Y-12529879D02*
X14114567Y-12510831D01*
X14114567Y-12510831D02*
X14124091Y-12501308D01*
X14124091Y-12501308D02*
X14143139Y-12491784D01*
X14295520Y-12691784D02*
X14295520Y-12558450D01*
X14295520Y-12577498D02*
X14305043Y-12567974D01*
X14305043Y-12567974D02*
X14324091Y-12558450D01*
X14324091Y-12558450D02*
X14352663Y-12558450D01*
X14352663Y-12558450D02*
X14371710Y-12567974D01*
X14371710Y-12567974D02*
X14381234Y-12587022D01*
X14381234Y-12587022D02*
X14381234Y-12691784D01*
X14381234Y-12587022D02*
X14390758Y-12567974D01*
X14390758Y-12567974D02*
X14409805Y-12558450D01*
X14409805Y-12558450D02*
X14438377Y-12558450D01*
X14438377Y-12558450D02*
X14457424Y-12567974D01*
X14457424Y-12567974D02*
X14466948Y-12587022D01*
X14466948Y-12587022D02*
X14466948Y-12691784D01*
X14562186Y-12691784D02*
X14562186Y-12558450D01*
X14562186Y-12577498D02*
X14571710Y-12567974D01*
X14571710Y-12567974D02*
X14590758Y-12558450D01*
X14590758Y-12558450D02*
X14619329Y-12558450D01*
X14619329Y-12558450D02*
X14638377Y-12567974D01*
X14638377Y-12567974D02*
X14647901Y-12587022D01*
X14647901Y-12587022D02*
X14647901Y-12691784D01*
X14647901Y-12587022D02*
X14657424Y-12567974D01*
X14657424Y-12567974D02*
X14676472Y-12558450D01*
X14676472Y-12558450D02*
X14705043Y-12558450D01*
X14705043Y-12558450D02*
X14724091Y-12567974D01*
X14724091Y-12567974D02*
X14733615Y-12587022D01*
X14733615Y-12587022D02*
X14733615Y-12691784D01*
X15124091Y-12482260D02*
X14952663Y-12739403D01*
X15381234Y-12491784D02*
X15400282Y-12491784D01*
X15400282Y-12491784D02*
X15419329Y-12501308D01*
X15419329Y-12501308D02*
X15428853Y-12510831D01*
X15428853Y-12510831D02*
X15438377Y-12529879D01*
X15438377Y-12529879D02*
X15447901Y-12567974D01*
X15447901Y-12567974D02*
X15447901Y-12615593D01*
X15447901Y-12615593D02*
X15438377Y-12653688D01*
X15438377Y-12653688D02*
X15428853Y-12672736D01*
X15428853Y-12672736D02*
X15419329Y-12682260D01*
X15419329Y-12682260D02*
X15400282Y-12691784D01*
X15400282Y-12691784D02*
X15381234Y-12691784D01*
X15381234Y-12691784D02*
X15362186Y-12682260D01*
X15362186Y-12682260D02*
X15352663Y-12672736D01*
X15352663Y-12672736D02*
X15343139Y-12653688D01*
X15343139Y-12653688D02*
X15333615Y-12615593D01*
X15333615Y-12615593D02*
X15333615Y-12567974D01*
X15333615Y-12567974D02*
X15343139Y-12529879D01*
X15343139Y-12529879D02*
X15352663Y-12510831D01*
X15352663Y-12510831D02*
X15362186Y-12501308D01*
X15362186Y-12501308D02*
X15381234Y-12491784D01*
X15533615Y-12672736D02*
X15543139Y-12682260D01*
X15543139Y-12682260D02*
X15533615Y-12691784D01*
X15533615Y-12691784D02*
X15524091Y-12682260D01*
X15524091Y-12682260D02*
X15533615Y-12672736D01*
X15533615Y-12672736D02*
X15533615Y-12691784D01*
X15666948Y-12491784D02*
X15685996Y-12491784D01*
X15685996Y-12491784D02*
X15705044Y-12501308D01*
X15705044Y-12501308D02*
X15714567Y-12510831D01*
X15714567Y-12510831D02*
X15724091Y-12529879D01*
X15724091Y-12529879D02*
X15733615Y-12567974D01*
X15733615Y-12567974D02*
X15733615Y-12615593D01*
X15733615Y-12615593D02*
X15724091Y-12653688D01*
X15724091Y-12653688D02*
X15714567Y-12672736D01*
X15714567Y-12672736D02*
X15705044Y-12682260D01*
X15705044Y-12682260D02*
X15685996Y-12691784D01*
X15685996Y-12691784D02*
X15666948Y-12691784D01*
X15666948Y-12691784D02*
X15647901Y-12682260D01*
X15647901Y-12682260D02*
X15638377Y-12672736D01*
X15638377Y-12672736D02*
X15628853Y-12653688D01*
X15628853Y-12653688D02*
X15619329Y-12615593D01*
X15619329Y-12615593D02*
X15619329Y-12567974D01*
X15619329Y-12567974D02*
X15628853Y-12529879D01*
X15628853Y-12529879D02*
X15638377Y-12510831D01*
X15638377Y-12510831D02*
X15647901Y-12501308D01*
X15647901Y-12501308D02*
X15666948Y-12491784D01*
X15809806Y-12510831D02*
X15819329Y-12501308D01*
X15819329Y-12501308D02*
X15838377Y-12491784D01*
X15838377Y-12491784D02*
X15885996Y-12491784D01*
X15885996Y-12491784D02*
X15905044Y-12501308D01*
X15905044Y-12501308D02*
X15914567Y-12510831D01*
X15914567Y-12510831D02*
X15924091Y-12529879D01*
X15924091Y-12529879D02*
X15924091Y-12548927D01*
X15924091Y-12548927D02*
X15914567Y-12577498D01*
X15914567Y-12577498D02*
X15800282Y-12691784D01*
X15800282Y-12691784D02*
X15924091Y-12691784D01*
X15990758Y-12491784D02*
X16114567Y-12491784D01*
X16114567Y-12491784D02*
X16047901Y-12567974D01*
X16047901Y-12567974D02*
X16076472Y-12567974D01*
X16076472Y-12567974D02*
X16095520Y-12577498D01*
X16095520Y-12577498D02*
X16105044Y-12587022D01*
X16105044Y-12587022D02*
X16114567Y-12606069D01*
X16114567Y-12606069D02*
X16114567Y-12653688D01*
X16114567Y-12653688D02*
X16105044Y-12672736D01*
X16105044Y-12672736D02*
X16095520Y-12682260D01*
X16095520Y-12682260D02*
X16076472Y-12691784D01*
X16076472Y-12691784D02*
X16019329Y-12691784D01*
X16019329Y-12691784D02*
X16000282Y-12682260D01*
X16000282Y-12682260D02*
X15990758Y-12672736D01*
X16285996Y-12491784D02*
X16247901Y-12491784D01*
X16247901Y-12491784D02*
X16228853Y-12501308D01*
X16228853Y-12501308D02*
X16219329Y-12510831D01*
X16219329Y-12510831D02*
X16200282Y-12539403D01*
X16200282Y-12539403D02*
X16190758Y-12577498D01*
X16190758Y-12577498D02*
X16190758Y-12653688D01*
X16190758Y-12653688D02*
X16200282Y-12672736D01*
X16200282Y-12672736D02*
X16209806Y-12682260D01*
X16209806Y-12682260D02*
X16228853Y-12691784D01*
X16228853Y-12691784D02*
X16266948Y-12691784D01*
X16266948Y-12691784D02*
X16285996Y-12682260D01*
X16285996Y-12682260D02*
X16295520Y-12672736D01*
X16295520Y-12672736D02*
X16305044Y-12653688D01*
X16305044Y-12653688D02*
X16305044Y-12606069D01*
X16305044Y-12606069D02*
X16295520Y-12587022D01*
X16295520Y-12587022D02*
X16285996Y-12577498D01*
X16285996Y-12577498D02*
X16266948Y-12567974D01*
X16266948Y-12567974D02*
X16228853Y-12567974D01*
X16228853Y-12567974D02*
X16209806Y-12577498D01*
X16209806Y-12577498D02*
X16200282Y-12587022D01*
X16200282Y-12587022D02*
X16190758Y-12606069D01*
X16381234Y-12491784D02*
X16381234Y-12529879D01*
X16457425Y-12491784D02*
X16457425Y-12529879D01*
X16752663Y-12767974D02*
X16743139Y-12758450D01*
X16743139Y-12758450D02*
X16724091Y-12729879D01*
X16724091Y-12729879D02*
X16714568Y-12710831D01*
X16714568Y-12710831D02*
X16705044Y-12682260D01*
X16705044Y-12682260D02*
X16695520Y-12634641D01*
X16695520Y-12634641D02*
X16695520Y-12596546D01*
X16695520Y-12596546D02*
X16705044Y-12548927D01*
X16705044Y-12548927D02*
X16714568Y-12520355D01*
X16714568Y-12520355D02*
X16724091Y-12501308D01*
X16724091Y-12501308D02*
X16743139Y-12472736D01*
X16743139Y-12472736D02*
X16752663Y-12463212D01*
X16809806Y-12491784D02*
X16933615Y-12491784D01*
X16933615Y-12491784D02*
X16866949Y-12567974D01*
X16866949Y-12567974D02*
X16895520Y-12567974D01*
X16895520Y-12567974D02*
X16914568Y-12577498D01*
X16914568Y-12577498D02*
X16924091Y-12587022D01*
X16924091Y-12587022D02*
X16933615Y-12606069D01*
X16933615Y-12606069D02*
X16933615Y-12653688D01*
X16933615Y-12653688D02*
X16924091Y-12672736D01*
X16924091Y-12672736D02*
X16914568Y-12682260D01*
X16914568Y-12682260D02*
X16895520Y-12691784D01*
X16895520Y-12691784D02*
X16838377Y-12691784D01*
X16838377Y-12691784D02*
X16819330Y-12682260D01*
X16819330Y-12682260D02*
X16809806Y-12672736D01*
X17000282Y-12491784D02*
X17133615Y-12491784D01*
X17133615Y-12491784D02*
X17047901Y-12691784D01*
X17362187Y-12691784D02*
X17362187Y-12491784D01*
X17447901Y-12691784D02*
X17447901Y-12587022D01*
X17447901Y-12587022D02*
X17438377Y-12567974D01*
X17438377Y-12567974D02*
X17419330Y-12558450D01*
X17419330Y-12558450D02*
X17390758Y-12558450D01*
X17390758Y-12558450D02*
X17371711Y-12567974D01*
X17371711Y-12567974D02*
X17362187Y-12577498D01*
X17571711Y-12691784D02*
X17552663Y-12682260D01*
X17552663Y-12682260D02*
X17543139Y-12672736D01*
X17543139Y-12672736D02*
X17533615Y-12653688D01*
X17533615Y-12653688D02*
X17533615Y-12596546D01*
X17533615Y-12596546D02*
X17543139Y-12577498D01*
X17543139Y-12577498D02*
X17552663Y-12567974D01*
X17552663Y-12567974D02*
X17571711Y-12558450D01*
X17571711Y-12558450D02*
X17600282Y-12558450D01*
X17600282Y-12558450D02*
X17619330Y-12567974D01*
X17619330Y-12567974D02*
X17628853Y-12577498D01*
X17628853Y-12577498D02*
X17638377Y-12596546D01*
X17638377Y-12596546D02*
X17638377Y-12653688D01*
X17638377Y-12653688D02*
X17628853Y-12672736D01*
X17628853Y-12672736D02*
X17619330Y-12682260D01*
X17619330Y-12682260D02*
X17600282Y-12691784D01*
X17600282Y-12691784D02*
X17571711Y-12691784D01*
X17752663Y-12691784D02*
X17733615Y-12682260D01*
X17733615Y-12682260D02*
X17724092Y-12663212D01*
X17724092Y-12663212D02*
X17724092Y-12491784D01*
X17905044Y-12682260D02*
X17885996Y-12691784D01*
X17885996Y-12691784D02*
X17847901Y-12691784D01*
X17847901Y-12691784D02*
X17828853Y-12682260D01*
X17828853Y-12682260D02*
X17819330Y-12663212D01*
X17819330Y-12663212D02*
X17819330Y-12587022D01*
X17819330Y-12587022D02*
X17828853Y-12567974D01*
X17828853Y-12567974D02*
X17847901Y-12558450D01*
X17847901Y-12558450D02*
X17885996Y-12558450D01*
X17885996Y-12558450D02*
X17905044Y-12567974D01*
X17905044Y-12567974D02*
X17914568Y-12587022D01*
X17914568Y-12587022D02*
X17914568Y-12606069D01*
X17914568Y-12606069D02*
X17819330Y-12625117D01*
X17990758Y-12682260D02*
X18009806Y-12691784D01*
X18009806Y-12691784D02*
X18047901Y-12691784D01*
X18047901Y-12691784D02*
X18066949Y-12682260D01*
X18066949Y-12682260D02*
X18076473Y-12663212D01*
X18076473Y-12663212D02*
X18076473Y-12653688D01*
X18076473Y-12653688D02*
X18066949Y-12634641D01*
X18066949Y-12634641D02*
X18047901Y-12625117D01*
X18047901Y-12625117D02*
X18019330Y-12625117D01*
X18019330Y-12625117D02*
X18000282Y-12615593D01*
X18000282Y-12615593D02*
X17990758Y-12596546D01*
X17990758Y-12596546D02*
X17990758Y-12587022D01*
X17990758Y-12587022D02*
X18000282Y-12567974D01*
X18000282Y-12567974D02*
X18019330Y-12558450D01*
X18019330Y-12558450D02*
X18047901Y-12558450D01*
X18047901Y-12558450D02*
X18066949Y-12567974D01*
X18143139Y-12767974D02*
X18152663Y-12758450D01*
X18152663Y-12758450D02*
X18171711Y-12729879D01*
X18171711Y-12729879D02*
X18181234Y-12710831D01*
X18181234Y-12710831D02*
X18190758Y-12682260D01*
X18190758Y-12682260D02*
X18200282Y-12634641D01*
X18200282Y-12634641D02*
X18200282Y-12596546D01*
X18200282Y-12596546D02*
X18190758Y-12548927D01*
X18190758Y-12548927D02*
X18181234Y-12520355D01*
X18181234Y-12520355D02*
X18171711Y-12501308D01*
X18171711Y-12501308D02*
X18152663Y-12472736D01*
X18152663Y-12472736D02*
X18143139Y-12463212D01*
D16*
X13145100Y-12896800D02*
X13177600Y-12864300D01*
X13145100Y-12831800D01*
X13112600Y-12864300D01*
X13145100Y-12896800D01*
D11*
X13476472Y-12755784D02*
X13495520Y-12755784D01*
X13495520Y-12755784D02*
X13514567Y-12765308D01*
X13514567Y-12765308D02*
X13524091Y-12774831D01*
X13524091Y-12774831D02*
X13533615Y-12793879D01*
X13533615Y-12793879D02*
X13543139Y-12831974D01*
X13543139Y-12831974D02*
X13543139Y-12879593D01*
X13543139Y-12879593D02*
X13533615Y-12917688D01*
X13533615Y-12917688D02*
X13524091Y-12936736D01*
X13524091Y-12936736D02*
X13514567Y-12946260D01*
X13514567Y-12946260D02*
X13495520Y-12955784D01*
X13495520Y-12955784D02*
X13476472Y-12955784D01*
X13476472Y-12955784D02*
X13457424Y-12946260D01*
X13457424Y-12946260D02*
X13447901Y-12936736D01*
X13447901Y-12936736D02*
X13438377Y-12917688D01*
X13438377Y-12917688D02*
X13428853Y-12879593D01*
X13428853Y-12879593D02*
X13428853Y-12831974D01*
X13428853Y-12831974D02*
X13438377Y-12793879D01*
X13438377Y-12793879D02*
X13447901Y-12774831D01*
X13447901Y-12774831D02*
X13457424Y-12765308D01*
X13457424Y-12765308D02*
X13476472Y-12755784D01*
X13628853Y-12936736D02*
X13638377Y-12946260D01*
X13638377Y-12946260D02*
X13628853Y-12955784D01*
X13628853Y-12955784D02*
X13619329Y-12946260D01*
X13619329Y-12946260D02*
X13628853Y-12936736D01*
X13628853Y-12936736D02*
X13628853Y-12955784D01*
X13809805Y-12755784D02*
X13771710Y-12755784D01*
X13771710Y-12755784D02*
X13752662Y-12765308D01*
X13752662Y-12765308D02*
X13743139Y-12774831D01*
X13743139Y-12774831D02*
X13724091Y-12803403D01*
X13724091Y-12803403D02*
X13714567Y-12841498D01*
X13714567Y-12841498D02*
X13714567Y-12917688D01*
X13714567Y-12917688D02*
X13724091Y-12936736D01*
X13724091Y-12936736D02*
X13733615Y-12946260D01*
X13733615Y-12946260D02*
X13752662Y-12955784D01*
X13752662Y-12955784D02*
X13790758Y-12955784D01*
X13790758Y-12955784D02*
X13809805Y-12946260D01*
X13809805Y-12946260D02*
X13819329Y-12936736D01*
X13819329Y-12936736D02*
X13828853Y-12917688D01*
X13828853Y-12917688D02*
X13828853Y-12870069D01*
X13828853Y-12870069D02*
X13819329Y-12851022D01*
X13819329Y-12851022D02*
X13809805Y-12841498D01*
X13809805Y-12841498D02*
X13790758Y-12831974D01*
X13790758Y-12831974D02*
X13752662Y-12831974D01*
X13752662Y-12831974D02*
X13733615Y-12841498D01*
X13733615Y-12841498D02*
X13724091Y-12851022D01*
X13724091Y-12851022D02*
X13714567Y-12870069D01*
X14009805Y-12755784D02*
X13914567Y-12755784D01*
X13914567Y-12755784D02*
X13905043Y-12851022D01*
X13905043Y-12851022D02*
X13914567Y-12841498D01*
X13914567Y-12841498D02*
X13933615Y-12831974D01*
X13933615Y-12831974D02*
X13981234Y-12831974D01*
X13981234Y-12831974D02*
X14000282Y-12841498D01*
X14000282Y-12841498D02*
X14009805Y-12851022D01*
X14009805Y-12851022D02*
X14019329Y-12870069D01*
X14019329Y-12870069D02*
X14019329Y-12917688D01*
X14019329Y-12917688D02*
X14009805Y-12936736D01*
X14009805Y-12936736D02*
X14000282Y-12946260D01*
X14000282Y-12946260D02*
X13981234Y-12955784D01*
X13981234Y-12955784D02*
X13933615Y-12955784D01*
X13933615Y-12955784D02*
X13914567Y-12946260D01*
X13914567Y-12946260D02*
X13905043Y-12936736D01*
X14143139Y-12755784D02*
X14162186Y-12755784D01*
X14162186Y-12755784D02*
X14181234Y-12765308D01*
X14181234Y-12765308D02*
X14190758Y-12774831D01*
X14190758Y-12774831D02*
X14200282Y-12793879D01*
X14200282Y-12793879D02*
X14209805Y-12831974D01*
X14209805Y-12831974D02*
X14209805Y-12879593D01*
X14209805Y-12879593D02*
X14200282Y-12917688D01*
X14200282Y-12917688D02*
X14190758Y-12936736D01*
X14190758Y-12936736D02*
X14181234Y-12946260D01*
X14181234Y-12946260D02*
X14162186Y-12955784D01*
X14162186Y-12955784D02*
X14143139Y-12955784D01*
X14143139Y-12955784D02*
X14124091Y-12946260D01*
X14124091Y-12946260D02*
X14114567Y-12936736D01*
X14114567Y-12936736D02*
X14105043Y-12917688D01*
X14105043Y-12917688D02*
X14095520Y-12879593D01*
X14095520Y-12879593D02*
X14095520Y-12831974D01*
X14095520Y-12831974D02*
X14105043Y-12793879D01*
X14105043Y-12793879D02*
X14114567Y-12774831D01*
X14114567Y-12774831D02*
X14124091Y-12765308D01*
X14124091Y-12765308D02*
X14143139Y-12755784D01*
X14295520Y-12955784D02*
X14295520Y-12822450D01*
X14295520Y-12841498D02*
X14305043Y-12831974D01*
X14305043Y-12831974D02*
X14324091Y-12822450D01*
X14324091Y-12822450D02*
X14352663Y-12822450D01*
X14352663Y-12822450D02*
X14371710Y-12831974D01*
X14371710Y-12831974D02*
X14381234Y-12851022D01*
X14381234Y-12851022D02*
X14381234Y-12955784D01*
X14381234Y-12851022D02*
X14390758Y-12831974D01*
X14390758Y-12831974D02*
X14409805Y-12822450D01*
X14409805Y-12822450D02*
X14438377Y-12822450D01*
X14438377Y-12822450D02*
X14457424Y-12831974D01*
X14457424Y-12831974D02*
X14466948Y-12851022D01*
X14466948Y-12851022D02*
X14466948Y-12955784D01*
X14562186Y-12955784D02*
X14562186Y-12822450D01*
X14562186Y-12841498D02*
X14571710Y-12831974D01*
X14571710Y-12831974D02*
X14590758Y-12822450D01*
X14590758Y-12822450D02*
X14619329Y-12822450D01*
X14619329Y-12822450D02*
X14638377Y-12831974D01*
X14638377Y-12831974D02*
X14647901Y-12851022D01*
X14647901Y-12851022D02*
X14647901Y-12955784D01*
X14647901Y-12851022D02*
X14657424Y-12831974D01*
X14657424Y-12831974D02*
X14676472Y-12822450D01*
X14676472Y-12822450D02*
X14705043Y-12822450D01*
X14705043Y-12822450D02*
X14724091Y-12831974D01*
X14724091Y-12831974D02*
X14733615Y-12851022D01*
X14733615Y-12851022D02*
X14733615Y-12955784D01*
X15124091Y-12746260D02*
X14952663Y-13003403D01*
X15381234Y-12755784D02*
X15400282Y-12755784D01*
X15400282Y-12755784D02*
X15419329Y-12765308D01*
X15419329Y-12765308D02*
X15428853Y-12774831D01*
X15428853Y-12774831D02*
X15438377Y-12793879D01*
X15438377Y-12793879D02*
X15447901Y-12831974D01*
X15447901Y-12831974D02*
X15447901Y-12879593D01*
X15447901Y-12879593D02*
X15438377Y-12917688D01*
X15438377Y-12917688D02*
X15428853Y-12936736D01*
X15428853Y-12936736D02*
X15419329Y-12946260D01*
X15419329Y-12946260D02*
X15400282Y-12955784D01*
X15400282Y-12955784D02*
X15381234Y-12955784D01*
X15381234Y-12955784D02*
X15362186Y-12946260D01*
X15362186Y-12946260D02*
X15352663Y-12936736D01*
X15352663Y-12936736D02*
X15343139Y-12917688D01*
X15343139Y-12917688D02*
X15333615Y-12879593D01*
X15333615Y-12879593D02*
X15333615Y-12831974D01*
X15333615Y-12831974D02*
X15343139Y-12793879D01*
X15343139Y-12793879D02*
X15352663Y-12774831D01*
X15352663Y-12774831D02*
X15362186Y-12765308D01*
X15362186Y-12765308D02*
X15381234Y-12755784D01*
X15533615Y-12936736D02*
X15543139Y-12946260D01*
X15543139Y-12946260D02*
X15533615Y-12955784D01*
X15533615Y-12955784D02*
X15524091Y-12946260D01*
X15524091Y-12946260D02*
X15533615Y-12936736D01*
X15533615Y-12936736D02*
X15533615Y-12955784D01*
X15666948Y-12755784D02*
X15685996Y-12755784D01*
X15685996Y-12755784D02*
X15705044Y-12765308D01*
X15705044Y-12765308D02*
X15714567Y-12774831D01*
X15714567Y-12774831D02*
X15724091Y-12793879D01*
X15724091Y-12793879D02*
X15733615Y-12831974D01*
X15733615Y-12831974D02*
X15733615Y-12879593D01*
X15733615Y-12879593D02*
X15724091Y-12917688D01*
X15724091Y-12917688D02*
X15714567Y-12936736D01*
X15714567Y-12936736D02*
X15705044Y-12946260D01*
X15705044Y-12946260D02*
X15685996Y-12955784D01*
X15685996Y-12955784D02*
X15666948Y-12955784D01*
X15666948Y-12955784D02*
X15647901Y-12946260D01*
X15647901Y-12946260D02*
X15638377Y-12936736D01*
X15638377Y-12936736D02*
X15628853Y-12917688D01*
X15628853Y-12917688D02*
X15619329Y-12879593D01*
X15619329Y-12879593D02*
X15619329Y-12831974D01*
X15619329Y-12831974D02*
X15628853Y-12793879D01*
X15628853Y-12793879D02*
X15638377Y-12774831D01*
X15638377Y-12774831D02*
X15647901Y-12765308D01*
X15647901Y-12765308D02*
X15666948Y-12755784D01*
X15809806Y-12774831D02*
X15819329Y-12765308D01*
X15819329Y-12765308D02*
X15838377Y-12755784D01*
X15838377Y-12755784D02*
X15885996Y-12755784D01*
X15885996Y-12755784D02*
X15905044Y-12765308D01*
X15905044Y-12765308D02*
X15914567Y-12774831D01*
X15914567Y-12774831D02*
X15924091Y-12793879D01*
X15924091Y-12793879D02*
X15924091Y-12812927D01*
X15924091Y-12812927D02*
X15914567Y-12841498D01*
X15914567Y-12841498D02*
X15800282Y-12955784D01*
X15800282Y-12955784D02*
X15924091Y-12955784D01*
X16105044Y-12755784D02*
X16009806Y-12755784D01*
X16009806Y-12755784D02*
X16000282Y-12851022D01*
X16000282Y-12851022D02*
X16009806Y-12841498D01*
X16009806Y-12841498D02*
X16028853Y-12831974D01*
X16028853Y-12831974D02*
X16076472Y-12831974D01*
X16076472Y-12831974D02*
X16095520Y-12841498D01*
X16095520Y-12841498D02*
X16105044Y-12851022D01*
X16105044Y-12851022D02*
X16114567Y-12870069D01*
X16114567Y-12870069D02*
X16114567Y-12917688D01*
X16114567Y-12917688D02*
X16105044Y-12936736D01*
X16105044Y-12936736D02*
X16095520Y-12946260D01*
X16095520Y-12946260D02*
X16076472Y-12955784D01*
X16076472Y-12955784D02*
X16028853Y-12955784D01*
X16028853Y-12955784D02*
X16009806Y-12946260D01*
X16009806Y-12946260D02*
X16000282Y-12936736D01*
X16285996Y-12755784D02*
X16247901Y-12755784D01*
X16247901Y-12755784D02*
X16228853Y-12765308D01*
X16228853Y-12765308D02*
X16219329Y-12774831D01*
X16219329Y-12774831D02*
X16200282Y-12803403D01*
X16200282Y-12803403D02*
X16190758Y-12841498D01*
X16190758Y-12841498D02*
X16190758Y-12917688D01*
X16190758Y-12917688D02*
X16200282Y-12936736D01*
X16200282Y-12936736D02*
X16209806Y-12946260D01*
X16209806Y-12946260D02*
X16228853Y-12955784D01*
X16228853Y-12955784D02*
X16266948Y-12955784D01*
X16266948Y-12955784D02*
X16285996Y-12946260D01*
X16285996Y-12946260D02*
X16295520Y-12936736D01*
X16295520Y-12936736D02*
X16305044Y-12917688D01*
X16305044Y-12917688D02*
X16305044Y-12870069D01*
X16305044Y-12870069D02*
X16295520Y-12851022D01*
X16295520Y-12851022D02*
X16285996Y-12841498D01*
X16285996Y-12841498D02*
X16266948Y-12831974D01*
X16266948Y-12831974D02*
X16228853Y-12831974D01*
X16228853Y-12831974D02*
X16209806Y-12841498D01*
X16209806Y-12841498D02*
X16200282Y-12851022D01*
X16200282Y-12851022D02*
X16190758Y-12870069D01*
X16381234Y-12755784D02*
X16381234Y-12793879D01*
X16457425Y-12755784D02*
X16457425Y-12793879D01*
X16752663Y-13031974D02*
X16743139Y-13022450D01*
X16743139Y-13022450D02*
X16724091Y-12993879D01*
X16724091Y-12993879D02*
X16714568Y-12974831D01*
X16714568Y-12974831D02*
X16705044Y-12946260D01*
X16705044Y-12946260D02*
X16695520Y-12898641D01*
X16695520Y-12898641D02*
X16695520Y-12860546D01*
X16695520Y-12860546D02*
X16705044Y-12812927D01*
X16705044Y-12812927D02*
X16714568Y-12784355D01*
X16714568Y-12784355D02*
X16724091Y-12765308D01*
X16724091Y-12765308D02*
X16743139Y-12736736D01*
X16743139Y-12736736D02*
X16752663Y-12727212D01*
X16914568Y-12822450D02*
X16914568Y-12955784D01*
X16866949Y-12746260D02*
X16819330Y-12889117D01*
X16819330Y-12889117D02*
X16943139Y-12889117D01*
X17171711Y-12955784D02*
X17171711Y-12755784D01*
X17257425Y-12955784D02*
X17257425Y-12851022D01*
X17257425Y-12851022D02*
X17247901Y-12831974D01*
X17247901Y-12831974D02*
X17228853Y-12822450D01*
X17228853Y-12822450D02*
X17200282Y-12822450D01*
X17200282Y-12822450D02*
X17181234Y-12831974D01*
X17181234Y-12831974D02*
X17171711Y-12841498D01*
X17381234Y-12955784D02*
X17362187Y-12946260D01*
X17362187Y-12946260D02*
X17352663Y-12936736D01*
X17352663Y-12936736D02*
X17343139Y-12917688D01*
X17343139Y-12917688D02*
X17343139Y-12860546D01*
X17343139Y-12860546D02*
X17352663Y-12841498D01*
X17352663Y-12841498D02*
X17362187Y-12831974D01*
X17362187Y-12831974D02*
X17381234Y-12822450D01*
X17381234Y-12822450D02*
X17409806Y-12822450D01*
X17409806Y-12822450D02*
X17428853Y-12831974D01*
X17428853Y-12831974D02*
X17438377Y-12841498D01*
X17438377Y-12841498D02*
X17447901Y-12860546D01*
X17447901Y-12860546D02*
X17447901Y-12917688D01*
X17447901Y-12917688D02*
X17438377Y-12936736D01*
X17438377Y-12936736D02*
X17428853Y-12946260D01*
X17428853Y-12946260D02*
X17409806Y-12955784D01*
X17409806Y-12955784D02*
X17381234Y-12955784D01*
X17562187Y-12955784D02*
X17543139Y-12946260D01*
X17543139Y-12946260D02*
X17533615Y-12927212D01*
X17533615Y-12927212D02*
X17533615Y-12755784D01*
X17714568Y-12946260D02*
X17695520Y-12955784D01*
X17695520Y-12955784D02*
X17657425Y-12955784D01*
X17657425Y-12955784D02*
X17638377Y-12946260D01*
X17638377Y-12946260D02*
X17628853Y-12927212D01*
X17628853Y-12927212D02*
X17628853Y-12851022D01*
X17628853Y-12851022D02*
X17638377Y-12831974D01*
X17638377Y-12831974D02*
X17657425Y-12822450D01*
X17657425Y-12822450D02*
X17695520Y-12822450D01*
X17695520Y-12822450D02*
X17714568Y-12831974D01*
X17714568Y-12831974D02*
X17724092Y-12851022D01*
X17724092Y-12851022D02*
X17724092Y-12870069D01*
X17724092Y-12870069D02*
X17628853Y-12889117D01*
X17800282Y-12946260D02*
X17819330Y-12955784D01*
X17819330Y-12955784D02*
X17857425Y-12955784D01*
X17857425Y-12955784D02*
X17876473Y-12946260D01*
X17876473Y-12946260D02*
X17885996Y-12927212D01*
X17885996Y-12927212D02*
X17885996Y-12917688D01*
X17885996Y-12917688D02*
X17876473Y-12898641D01*
X17876473Y-12898641D02*
X17857425Y-12889117D01*
X17857425Y-12889117D02*
X17828853Y-12889117D01*
X17828853Y-12889117D02*
X17809806Y-12879593D01*
X17809806Y-12879593D02*
X17800282Y-12860546D01*
X17800282Y-12860546D02*
X17800282Y-12851022D01*
X17800282Y-12851022D02*
X17809806Y-12831974D01*
X17809806Y-12831974D02*
X17828853Y-12822450D01*
X17828853Y-12822450D02*
X17857425Y-12822450D01*
X17857425Y-12822450D02*
X17876473Y-12831974D01*
X18124092Y-12879593D02*
X18276473Y-12879593D01*
X18200282Y-12955784D02*
X18200282Y-12803403D01*
X18505044Y-12755784D02*
X18628854Y-12755784D01*
X18628854Y-12755784D02*
X18562187Y-12831974D01*
X18562187Y-12831974D02*
X18590758Y-12831974D01*
X18590758Y-12831974D02*
X18609806Y-12841498D01*
X18609806Y-12841498D02*
X18619330Y-12851022D01*
X18619330Y-12851022D02*
X18628854Y-12870069D01*
X18628854Y-12870069D02*
X18628854Y-12917688D01*
X18628854Y-12917688D02*
X18619330Y-12936736D01*
X18619330Y-12936736D02*
X18609806Y-12946260D01*
X18609806Y-12946260D02*
X18590758Y-12955784D01*
X18590758Y-12955784D02*
X18533615Y-12955784D01*
X18533615Y-12955784D02*
X18514568Y-12946260D01*
X18514568Y-12946260D02*
X18505044Y-12936736D01*
X18695520Y-12755784D02*
X18828854Y-12755784D01*
X18828854Y-12755784D02*
X18743139Y-12955784D01*
X19047901Y-12946260D02*
X19066949Y-12955784D01*
X19066949Y-12955784D02*
X19105044Y-12955784D01*
X19105044Y-12955784D02*
X19124092Y-12946260D01*
X19124092Y-12946260D02*
X19133616Y-12927212D01*
X19133616Y-12927212D02*
X19133616Y-12917688D01*
X19133616Y-12917688D02*
X19124092Y-12898641D01*
X19124092Y-12898641D02*
X19105044Y-12889117D01*
X19105044Y-12889117D02*
X19076473Y-12889117D01*
X19076473Y-12889117D02*
X19057425Y-12879593D01*
X19057425Y-12879593D02*
X19047901Y-12860546D01*
X19047901Y-12860546D02*
X19047901Y-12851022D01*
X19047901Y-12851022D02*
X19057425Y-12831974D01*
X19057425Y-12831974D02*
X19076473Y-12822450D01*
X19076473Y-12822450D02*
X19105044Y-12822450D01*
X19105044Y-12822450D02*
X19124092Y-12831974D01*
X19247901Y-12955784D02*
X19228854Y-12946260D01*
X19228854Y-12946260D02*
X19219330Y-12927212D01*
X19219330Y-12927212D02*
X19219330Y-12755784D01*
X19352663Y-12955784D02*
X19333616Y-12946260D01*
X19333616Y-12946260D02*
X19324092Y-12936736D01*
X19324092Y-12936736D02*
X19314568Y-12917688D01*
X19314568Y-12917688D02*
X19314568Y-12860546D01*
X19314568Y-12860546D02*
X19324092Y-12841498D01*
X19324092Y-12841498D02*
X19333616Y-12831974D01*
X19333616Y-12831974D02*
X19352663Y-12822450D01*
X19352663Y-12822450D02*
X19381235Y-12822450D01*
X19381235Y-12822450D02*
X19400282Y-12831974D01*
X19400282Y-12831974D02*
X19409806Y-12841498D01*
X19409806Y-12841498D02*
X19419330Y-12860546D01*
X19419330Y-12860546D02*
X19419330Y-12917688D01*
X19419330Y-12917688D02*
X19409806Y-12936736D01*
X19409806Y-12936736D02*
X19400282Y-12946260D01*
X19400282Y-12946260D02*
X19381235Y-12955784D01*
X19381235Y-12955784D02*
X19352663Y-12955784D01*
X19476473Y-12822450D02*
X19552663Y-12822450D01*
X19505044Y-12755784D02*
X19505044Y-12927212D01*
X19505044Y-12927212D02*
X19514568Y-12946260D01*
X19514568Y-12946260D02*
X19533616Y-12955784D01*
X19533616Y-12955784D02*
X19552663Y-12955784D01*
X19609806Y-12946260D02*
X19628854Y-12955784D01*
X19628854Y-12955784D02*
X19666949Y-12955784D01*
X19666949Y-12955784D02*
X19685997Y-12946260D01*
X19685997Y-12946260D02*
X19695520Y-12927212D01*
X19695520Y-12927212D02*
X19695520Y-12917688D01*
X19695520Y-12917688D02*
X19685997Y-12898641D01*
X19685997Y-12898641D02*
X19666949Y-12889117D01*
X19666949Y-12889117D02*
X19638377Y-12889117D01*
X19638377Y-12889117D02*
X19619330Y-12879593D01*
X19619330Y-12879593D02*
X19609806Y-12860546D01*
X19609806Y-12860546D02*
X19609806Y-12851022D01*
X19609806Y-12851022D02*
X19619330Y-12831974D01*
X19619330Y-12831974D02*
X19638377Y-12822450D01*
X19638377Y-12822450D02*
X19666949Y-12822450D01*
X19666949Y-12822450D02*
X19685997Y-12831974D01*
X19762187Y-13031974D02*
X19771711Y-13022450D01*
X19771711Y-13022450D02*
X19790758Y-12993879D01*
X19790758Y-12993879D02*
X19800282Y-12974831D01*
X19800282Y-12974831D02*
X19809806Y-12946260D01*
X19809806Y-12946260D02*
X19819330Y-12898641D01*
X19819330Y-12898641D02*
X19819330Y-12860546D01*
X19819330Y-12860546D02*
X19809806Y-12812927D01*
X19809806Y-12812927D02*
X19800282Y-12784355D01*
X19800282Y-12784355D02*
X19790758Y-12765308D01*
X19790758Y-12765308D02*
X19771711Y-12736736D01*
X19771711Y-12736736D02*
X19762187Y-12727212D01*
D17*
X13062600Y-13070800D02*
X13177600Y-13185800D01*
X13177600Y-13070800D02*
X13062600Y-13185800D01*
X13177600Y-13128300D02*
G75*
G03*
X13177600Y-13128300I-57500J0D01*
G01*
D11*
X13543139Y-13219784D02*
X13428853Y-13219784D01*
X13485996Y-13219784D02*
X13485996Y-13019784D01*
X13485996Y-13019784D02*
X13466948Y-13048355D01*
X13466948Y-13048355D02*
X13447901Y-13067403D01*
X13447901Y-13067403D02*
X13428853Y-13076927D01*
X13628853Y-13200736D02*
X13638377Y-13210260D01*
X13638377Y-13210260D02*
X13628853Y-13219784D01*
X13628853Y-13219784D02*
X13619329Y-13210260D01*
X13619329Y-13210260D02*
X13628853Y-13200736D01*
X13628853Y-13200736D02*
X13628853Y-13219784D01*
X13828853Y-13219784D02*
X13714567Y-13219784D01*
X13771710Y-13219784D02*
X13771710Y-13019784D01*
X13771710Y-13019784D02*
X13752662Y-13048355D01*
X13752662Y-13048355D02*
X13733615Y-13067403D01*
X13733615Y-13067403D02*
X13714567Y-13076927D01*
X14009805Y-13019784D02*
X13914567Y-13019784D01*
X13914567Y-13019784D02*
X13905043Y-13115022D01*
X13905043Y-13115022D02*
X13914567Y-13105498D01*
X13914567Y-13105498D02*
X13933615Y-13095974D01*
X13933615Y-13095974D02*
X13981234Y-13095974D01*
X13981234Y-13095974D02*
X14000282Y-13105498D01*
X14000282Y-13105498D02*
X14009805Y-13115022D01*
X14009805Y-13115022D02*
X14019329Y-13134069D01*
X14019329Y-13134069D02*
X14019329Y-13181688D01*
X14019329Y-13181688D02*
X14009805Y-13200736D01*
X14009805Y-13200736D02*
X14000282Y-13210260D01*
X14000282Y-13210260D02*
X13981234Y-13219784D01*
X13981234Y-13219784D02*
X13933615Y-13219784D01*
X13933615Y-13219784D02*
X13914567Y-13210260D01*
X13914567Y-13210260D02*
X13905043Y-13200736D01*
X14143139Y-13019784D02*
X14162186Y-13019784D01*
X14162186Y-13019784D02*
X14181234Y-13029308D01*
X14181234Y-13029308D02*
X14190758Y-13038831D01*
X14190758Y-13038831D02*
X14200282Y-13057879D01*
X14200282Y-13057879D02*
X14209805Y-13095974D01*
X14209805Y-13095974D02*
X14209805Y-13143593D01*
X14209805Y-13143593D02*
X14200282Y-13181688D01*
X14200282Y-13181688D02*
X14190758Y-13200736D01*
X14190758Y-13200736D02*
X14181234Y-13210260D01*
X14181234Y-13210260D02*
X14162186Y-13219784D01*
X14162186Y-13219784D02*
X14143139Y-13219784D01*
X14143139Y-13219784D02*
X14124091Y-13210260D01*
X14124091Y-13210260D02*
X14114567Y-13200736D01*
X14114567Y-13200736D02*
X14105043Y-13181688D01*
X14105043Y-13181688D02*
X14095520Y-13143593D01*
X14095520Y-13143593D02*
X14095520Y-13095974D01*
X14095520Y-13095974D02*
X14105043Y-13057879D01*
X14105043Y-13057879D02*
X14114567Y-13038831D01*
X14114567Y-13038831D02*
X14124091Y-13029308D01*
X14124091Y-13029308D02*
X14143139Y-13019784D01*
X14295520Y-13219784D02*
X14295520Y-13086450D01*
X14295520Y-13105498D02*
X14305043Y-13095974D01*
X14305043Y-13095974D02*
X14324091Y-13086450D01*
X14324091Y-13086450D02*
X14352663Y-13086450D01*
X14352663Y-13086450D02*
X14371710Y-13095974D01*
X14371710Y-13095974D02*
X14381234Y-13115022D01*
X14381234Y-13115022D02*
X14381234Y-13219784D01*
X14381234Y-13115022D02*
X14390758Y-13095974D01*
X14390758Y-13095974D02*
X14409805Y-13086450D01*
X14409805Y-13086450D02*
X14438377Y-13086450D01*
X14438377Y-13086450D02*
X14457424Y-13095974D01*
X14457424Y-13095974D02*
X14466948Y-13115022D01*
X14466948Y-13115022D02*
X14466948Y-13219784D01*
X14562186Y-13219784D02*
X14562186Y-13086450D01*
X14562186Y-13105498D02*
X14571710Y-13095974D01*
X14571710Y-13095974D02*
X14590758Y-13086450D01*
X14590758Y-13086450D02*
X14619329Y-13086450D01*
X14619329Y-13086450D02*
X14638377Y-13095974D01*
X14638377Y-13095974D02*
X14647901Y-13115022D01*
X14647901Y-13115022D02*
X14647901Y-13219784D01*
X14647901Y-13115022D02*
X14657424Y-13095974D01*
X14657424Y-13095974D02*
X14676472Y-13086450D01*
X14676472Y-13086450D02*
X14705043Y-13086450D01*
X14705043Y-13086450D02*
X14724091Y-13095974D01*
X14724091Y-13095974D02*
X14733615Y-13115022D01*
X14733615Y-13115022D02*
X14733615Y-13219784D01*
X15124091Y-13010260D02*
X14952663Y-13267403D01*
X15381234Y-13019784D02*
X15400282Y-13019784D01*
X15400282Y-13019784D02*
X15419329Y-13029308D01*
X15419329Y-13029308D02*
X15428853Y-13038831D01*
X15428853Y-13038831D02*
X15438377Y-13057879D01*
X15438377Y-13057879D02*
X15447901Y-13095974D01*
X15447901Y-13095974D02*
X15447901Y-13143593D01*
X15447901Y-13143593D02*
X15438377Y-13181688D01*
X15438377Y-13181688D02*
X15428853Y-13200736D01*
X15428853Y-13200736D02*
X15419329Y-13210260D01*
X15419329Y-13210260D02*
X15400282Y-13219784D01*
X15400282Y-13219784D02*
X15381234Y-13219784D01*
X15381234Y-13219784D02*
X15362186Y-13210260D01*
X15362186Y-13210260D02*
X15352663Y-13200736D01*
X15352663Y-13200736D02*
X15343139Y-13181688D01*
X15343139Y-13181688D02*
X15333615Y-13143593D01*
X15333615Y-13143593D02*
X15333615Y-13095974D01*
X15333615Y-13095974D02*
X15343139Y-13057879D01*
X15343139Y-13057879D02*
X15352663Y-13038831D01*
X15352663Y-13038831D02*
X15362186Y-13029308D01*
X15362186Y-13029308D02*
X15381234Y-13019784D01*
X15533615Y-13200736D02*
X15543139Y-13210260D01*
X15543139Y-13210260D02*
X15533615Y-13219784D01*
X15533615Y-13219784D02*
X15524091Y-13210260D01*
X15524091Y-13210260D02*
X15533615Y-13200736D01*
X15533615Y-13200736D02*
X15533615Y-13219784D01*
X15666948Y-13019784D02*
X15685996Y-13019784D01*
X15685996Y-13019784D02*
X15705044Y-13029308D01*
X15705044Y-13029308D02*
X15714567Y-13038831D01*
X15714567Y-13038831D02*
X15724091Y-13057879D01*
X15724091Y-13057879D02*
X15733615Y-13095974D01*
X15733615Y-13095974D02*
X15733615Y-13143593D01*
X15733615Y-13143593D02*
X15724091Y-13181688D01*
X15724091Y-13181688D02*
X15714567Y-13200736D01*
X15714567Y-13200736D02*
X15705044Y-13210260D01*
X15705044Y-13210260D02*
X15685996Y-13219784D01*
X15685996Y-13219784D02*
X15666948Y-13219784D01*
X15666948Y-13219784D02*
X15647901Y-13210260D01*
X15647901Y-13210260D02*
X15638377Y-13200736D01*
X15638377Y-13200736D02*
X15628853Y-13181688D01*
X15628853Y-13181688D02*
X15619329Y-13143593D01*
X15619329Y-13143593D02*
X15619329Y-13095974D01*
X15619329Y-13095974D02*
X15628853Y-13057879D01*
X15628853Y-13057879D02*
X15638377Y-13038831D01*
X15638377Y-13038831D02*
X15647901Y-13029308D01*
X15647901Y-13029308D02*
X15666948Y-13019784D01*
X15905044Y-13086450D02*
X15905044Y-13219784D01*
X15857425Y-13010260D02*
X15809806Y-13153117D01*
X15809806Y-13153117D02*
X15933615Y-13153117D01*
X16105044Y-13019784D02*
X16009806Y-13019784D01*
X16009806Y-13019784D02*
X16000282Y-13115022D01*
X16000282Y-13115022D02*
X16009806Y-13105498D01*
X16009806Y-13105498D02*
X16028853Y-13095974D01*
X16028853Y-13095974D02*
X16076472Y-13095974D01*
X16076472Y-13095974D02*
X16095520Y-13105498D01*
X16095520Y-13105498D02*
X16105044Y-13115022D01*
X16105044Y-13115022D02*
X16114567Y-13134069D01*
X16114567Y-13134069D02*
X16114567Y-13181688D01*
X16114567Y-13181688D02*
X16105044Y-13200736D01*
X16105044Y-13200736D02*
X16095520Y-13210260D01*
X16095520Y-13210260D02*
X16076472Y-13219784D01*
X16076472Y-13219784D02*
X16028853Y-13219784D01*
X16028853Y-13219784D02*
X16009806Y-13210260D01*
X16009806Y-13210260D02*
X16000282Y-13200736D01*
X16181234Y-13019784D02*
X16305044Y-13019784D01*
X16305044Y-13019784D02*
X16238377Y-13095974D01*
X16238377Y-13095974D02*
X16266948Y-13095974D01*
X16266948Y-13095974D02*
X16285996Y-13105498D01*
X16285996Y-13105498D02*
X16295520Y-13115022D01*
X16295520Y-13115022D02*
X16305044Y-13134069D01*
X16305044Y-13134069D02*
X16305044Y-13181688D01*
X16305044Y-13181688D02*
X16295520Y-13200736D01*
X16295520Y-13200736D02*
X16285996Y-13210260D01*
X16285996Y-13210260D02*
X16266948Y-13219784D01*
X16266948Y-13219784D02*
X16209806Y-13219784D01*
X16209806Y-13219784D02*
X16190758Y-13210260D01*
X16190758Y-13210260D02*
X16181234Y-13200736D01*
X16381234Y-13019784D02*
X16381234Y-13057879D01*
X16457425Y-13019784D02*
X16457425Y-13057879D01*
X16752663Y-13295974D02*
X16743139Y-13286450D01*
X16743139Y-13286450D02*
X16724091Y-13257879D01*
X16724091Y-13257879D02*
X16714568Y-13238831D01*
X16714568Y-13238831D02*
X16705044Y-13210260D01*
X16705044Y-13210260D02*
X16695520Y-13162641D01*
X16695520Y-13162641D02*
X16695520Y-13124546D01*
X16695520Y-13124546D02*
X16705044Y-13076927D01*
X16705044Y-13076927D02*
X16714568Y-13048355D01*
X16714568Y-13048355D02*
X16724091Y-13029308D01*
X16724091Y-13029308D02*
X16743139Y-13000736D01*
X16743139Y-13000736D02*
X16752663Y-12991212D01*
X16809806Y-13019784D02*
X16933615Y-13019784D01*
X16933615Y-13019784D02*
X16866949Y-13095974D01*
X16866949Y-13095974D02*
X16895520Y-13095974D01*
X16895520Y-13095974D02*
X16914568Y-13105498D01*
X16914568Y-13105498D02*
X16924091Y-13115022D01*
X16924091Y-13115022D02*
X16933615Y-13134069D01*
X16933615Y-13134069D02*
X16933615Y-13181688D01*
X16933615Y-13181688D02*
X16924091Y-13200736D01*
X16924091Y-13200736D02*
X16914568Y-13210260D01*
X16914568Y-13210260D02*
X16895520Y-13219784D01*
X16895520Y-13219784D02*
X16838377Y-13219784D01*
X16838377Y-13219784D02*
X16819330Y-13210260D01*
X16819330Y-13210260D02*
X16809806Y-13200736D01*
X17171711Y-13219784D02*
X17171711Y-13019784D01*
X17257425Y-13219784D02*
X17257425Y-13115022D01*
X17257425Y-13115022D02*
X17247901Y-13095974D01*
X17247901Y-13095974D02*
X17228853Y-13086450D01*
X17228853Y-13086450D02*
X17200282Y-13086450D01*
X17200282Y-13086450D02*
X17181234Y-13095974D01*
X17181234Y-13095974D02*
X17171711Y-13105498D01*
X17381234Y-13219784D02*
X17362187Y-13210260D01*
X17362187Y-13210260D02*
X17352663Y-13200736D01*
X17352663Y-13200736D02*
X17343139Y-13181688D01*
X17343139Y-13181688D02*
X17343139Y-13124546D01*
X17343139Y-13124546D02*
X17352663Y-13105498D01*
X17352663Y-13105498D02*
X17362187Y-13095974D01*
X17362187Y-13095974D02*
X17381234Y-13086450D01*
X17381234Y-13086450D02*
X17409806Y-13086450D01*
X17409806Y-13086450D02*
X17428853Y-13095974D01*
X17428853Y-13095974D02*
X17438377Y-13105498D01*
X17438377Y-13105498D02*
X17447901Y-13124546D01*
X17447901Y-13124546D02*
X17447901Y-13181688D01*
X17447901Y-13181688D02*
X17438377Y-13200736D01*
X17438377Y-13200736D02*
X17428853Y-13210260D01*
X17428853Y-13210260D02*
X17409806Y-13219784D01*
X17409806Y-13219784D02*
X17381234Y-13219784D01*
X17562187Y-13219784D02*
X17543139Y-13210260D01*
X17543139Y-13210260D02*
X17533615Y-13191212D01*
X17533615Y-13191212D02*
X17533615Y-13019784D01*
X17714568Y-13210260D02*
X17695520Y-13219784D01*
X17695520Y-13219784D02*
X17657425Y-13219784D01*
X17657425Y-13219784D02*
X17638377Y-13210260D01*
X17638377Y-13210260D02*
X17628853Y-13191212D01*
X17628853Y-13191212D02*
X17628853Y-13115022D01*
X17628853Y-13115022D02*
X17638377Y-13095974D01*
X17638377Y-13095974D02*
X17657425Y-13086450D01*
X17657425Y-13086450D02*
X17695520Y-13086450D01*
X17695520Y-13086450D02*
X17714568Y-13095974D01*
X17714568Y-13095974D02*
X17724092Y-13115022D01*
X17724092Y-13115022D02*
X17724092Y-13134069D01*
X17724092Y-13134069D02*
X17628853Y-13153117D01*
X17800282Y-13210260D02*
X17819330Y-13219784D01*
X17819330Y-13219784D02*
X17857425Y-13219784D01*
X17857425Y-13219784D02*
X17876473Y-13210260D01*
X17876473Y-13210260D02*
X17885996Y-13191212D01*
X17885996Y-13191212D02*
X17885996Y-13181688D01*
X17885996Y-13181688D02*
X17876473Y-13162641D01*
X17876473Y-13162641D02*
X17857425Y-13153117D01*
X17857425Y-13153117D02*
X17828853Y-13153117D01*
X17828853Y-13153117D02*
X17809806Y-13143593D01*
X17809806Y-13143593D02*
X17800282Y-13124546D01*
X17800282Y-13124546D02*
X17800282Y-13115022D01*
X17800282Y-13115022D02*
X17809806Y-13095974D01*
X17809806Y-13095974D02*
X17828853Y-13086450D01*
X17828853Y-13086450D02*
X17857425Y-13086450D01*
X17857425Y-13086450D02*
X17876473Y-13095974D01*
X17952663Y-13295974D02*
X17962187Y-13286450D01*
X17962187Y-13286450D02*
X17981234Y-13257879D01*
X17981234Y-13257879D02*
X17990758Y-13238831D01*
X17990758Y-13238831D02*
X18000282Y-13210260D01*
X18000282Y-13210260D02*
X18009806Y-13162641D01*
X18009806Y-13162641D02*
X18009806Y-13124546D01*
X18009806Y-13124546D02*
X18000282Y-13076927D01*
X18000282Y-13076927D02*
X17990758Y-13048355D01*
X17990758Y-13048355D02*
X17981234Y-13029308D01*
X17981234Y-13029308D02*
X17962187Y-13000736D01*
X17962187Y-13000736D02*
X17952663Y-12991212D01*
M02*
