%TF.GenerationSoftware,KiCad,Pcbnew,7.0.6*%
%TF.CreationDate,2024-05-04T22:08:13-04:00*%
%TF.ProjectId,rearbox,72656172-626f-4782-9e6b-696361645f70,rev?*%
%TF.SameCoordinates,Original*%
%TF.FileFunction,Soldermask,Top*%
%TF.FilePolarity,Negative*%
%FSLAX46Y46*%
G04 Gerber Fmt 4.6, Leading zero omitted, Abs format (unit mm)*
G04 Created by KiCad (PCBNEW 7.0.6) date 2024-05-04 22:08:13*
%MOMM*%
%LPD*%
G01*
G04 APERTURE LIST*
G04 Aperture macros list*
%AMRoundRect*
0 Rectangle with rounded corners*
0 $1 Rounding radius*
0 $2 $3 $4 $5 $6 $7 $8 $9 X,Y pos of 4 corners*
0 Add a 4 corners polygon primitive as box body*
4,1,4,$2,$3,$4,$5,$6,$7,$8,$9,$2,$3,0*
0 Add four circle primitives for the rounded corners*
1,1,$1+$1,$2,$3*
1,1,$1+$1,$4,$5*
1,1,$1+$1,$6,$7*
1,1,$1+$1,$8,$9*
0 Add four rect primitives between the rounded corners*
20,1,$1+$1,$2,$3,$4,$5,0*
20,1,$1+$1,$4,$5,$6,$7,0*
20,1,$1+$1,$6,$7,$8,$9,0*
20,1,$1+$1,$8,$9,$2,$3,0*%
G04 Aperture macros list end*
%ADD10C,4.700000*%
%ADD11RoundRect,0.425000X0.425000X0.775000X-0.425000X0.775000X-0.425000X-0.775000X0.425000X-0.775000X0*%
%ADD12RoundRect,0.150000X0.150000X0.650000X-0.150000X0.650000X-0.150000X-0.650000X0.150000X-0.650000X0*%
%ADD13RoundRect,0.250000X1.075000X-0.375000X1.075000X0.375000X-1.075000X0.375000X-1.075000X-0.375000X0*%
%ADD14RoundRect,0.225000X0.225000X0.250000X-0.225000X0.250000X-0.225000X-0.250000X0.225000X-0.250000X0*%
%ADD15RoundRect,0.200000X0.200000X0.275000X-0.200000X0.275000X-0.200000X-0.275000X0.200000X-0.275000X0*%
%ADD16RoundRect,0.225000X-0.225000X-0.250000X0.225000X-0.250000X0.225000X0.250000X-0.225000X0.250000X0*%
%ADD17RoundRect,0.225000X0.250000X-0.225000X0.250000X0.225000X-0.250000X0.225000X-0.250000X-0.225000X0*%
%ADD18RoundRect,0.250000X-0.325000X-0.650000X0.325000X-0.650000X0.325000X0.650000X-0.325000X0.650000X0*%
%ADD19RoundRect,0.250000X-0.650000X0.325000X-0.650000X-0.325000X0.650000X-0.325000X0.650000X0.325000X0*%
%ADD20RoundRect,0.225000X-0.250000X0.225000X-0.250000X-0.225000X0.250000X-0.225000X0.250000X0.225000X0*%
%ADD21RoundRect,0.122500X-0.764500X-0.184500X0.764500X-0.184500X0.764500X0.184500X-0.764500X0.184500X0*%
%ADD22R,1.200000X0.600000*%
%ADD23RoundRect,0.425000X-0.425000X-0.775000X0.425000X-0.775000X0.425000X0.775000X-0.425000X0.775000X0*%
%ADD24RoundRect,0.150000X-0.150000X-0.650000X0.150000X-0.650000X0.150000X0.650000X-0.150000X0.650000X0*%
%ADD25R,1.397000X0.279400*%
%ADD26R,1.651000X2.844800*%
%ADD27RoundRect,0.200000X-0.200000X-0.275000X0.200000X-0.275000X0.200000X0.275000X-0.200000X0.275000X0*%
%ADD28RoundRect,0.250000X0.625000X-0.375000X0.625000X0.375000X-0.625000X0.375000X-0.625000X-0.375000X0*%
%ADD29R,0.450000X1.400000*%
%ADD30R,1.550000X1.550000*%
%ADD31C,1.550000*%
%ADD32R,0.760000X1.650000*%
%ADD33R,0.300000X0.800000*%
%ADD34R,1.300000X0.700000*%
%ADD35R,1.475000X0.450000*%
%ADD36C,1.512000*%
%ADD37C,1.462000*%
%ADD38C,1.412000*%
%ADD39RoundRect,0.200000X0.275000X-0.200000X0.275000X0.200000X-0.275000X0.200000X-0.275000X-0.200000X0*%
%ADD40R,1.500000X1.500000*%
%ADD41RoundRect,0.218750X-0.256250X0.218750X-0.256250X-0.218750X0.256250X-0.218750X0.256250X0.218750X0*%
G04 APERTURE END LIST*
D10*
%TO.C,H6*%
X227395400Y-102196000D03*
%TD*%
%TO.C,H5*%
X183895400Y-102196000D03*
%TD*%
%TO.C,H4*%
X227395500Y-44195900D03*
%TD*%
%TO.C,H2*%
X183895400Y-44196000D03*
%TD*%
D11*
%TO.C,J2*%
X188948700Y-94009500D03*
X180598700Y-94009500D03*
D12*
X182948700Y-91759500D03*
X184198700Y-91759500D03*
X185448700Y-91759500D03*
X186698700Y-91759500D03*
%TD*%
D13*
%TO.C,L1*%
X216966800Y-98506801D03*
X216966800Y-95706801D03*
%TD*%
D14*
%TO.C,C7*%
X204787800Y-59639200D03*
X203237800Y-59639200D03*
%TD*%
D15*
%TO.C,R14*%
X196443600Y-49936400D03*
X194793600Y-49936400D03*
%TD*%
D16*
%TO.C,C21*%
X207454200Y-56235600D03*
X209004200Y-56235600D03*
%TD*%
D17*
%TO.C,C3*%
X205740000Y-65240200D03*
X205740000Y-63690200D03*
%TD*%
D18*
%TO.C,C5*%
X203350600Y-61671200D03*
X206300600Y-61671200D03*
%TD*%
D19*
%TO.C,C1*%
X203657200Y-63804800D03*
X203657200Y-66754800D03*
%TD*%
D14*
%TO.C,C12*%
X205740000Y-94516001D03*
X204190000Y-94516001D03*
%TD*%
D20*
%TO.C,C10*%
X198424800Y-56070200D03*
X198424800Y-57620200D03*
%TD*%
D21*
%TO.C,U1*%
X195504000Y-60564600D03*
X195504000Y-61214600D03*
X195504000Y-61864600D03*
X195504000Y-62514600D03*
X195504000Y-63164600D03*
X195504000Y-63814600D03*
X195504000Y-64464600D03*
X195504000Y-65114600D03*
X201244000Y-65114600D03*
X201244000Y-64464600D03*
X201244000Y-63814600D03*
X201244000Y-63164600D03*
X201244000Y-62514600D03*
X201244000Y-61864600D03*
X201244000Y-61214600D03*
X201244000Y-60564600D03*
%TD*%
D20*
%TO.C,C20*%
X230022400Y-67754200D03*
X230022400Y-69304200D03*
%TD*%
D18*
%TO.C,C6*%
X186688200Y-60909200D03*
X189638200Y-60909200D03*
%TD*%
D22*
%TO.C,IC3*%
X202702800Y-56322000D03*
X202702800Y-55372000D03*
X202702800Y-54422000D03*
X200202800Y-54422000D03*
X200202800Y-55372000D03*
X200202800Y-56322000D03*
%TD*%
D23*
%TO.C,J1*%
X187686700Y-44318900D03*
X203536700Y-44318900D03*
D24*
X201186700Y-46568900D03*
X199936700Y-46568900D03*
X198686700Y-46568900D03*
X197436700Y-46568900D03*
X196186700Y-46568900D03*
X194936700Y-46568900D03*
X193686700Y-46568900D03*
X192436700Y-46568900D03*
X191186700Y-46568900D03*
X189936700Y-46568900D03*
%TD*%
D19*
%TO.C,C2*%
X187045600Y-63091800D03*
X187045600Y-66041800D03*
%TD*%
D25*
%TO.C,U5*%
X207772000Y-94133599D03*
X207772000Y-94633601D03*
X207772000Y-95133600D03*
X207772000Y-95633601D03*
X207772000Y-96133601D03*
X207772000Y-96633599D03*
X207772000Y-97133601D03*
X207772000Y-97633600D03*
X212140800Y-97633603D03*
X212140800Y-97133601D03*
X212140800Y-96633602D03*
X212140800Y-96133601D03*
X212140800Y-95633601D03*
X212140800Y-95133603D03*
X212140800Y-94633601D03*
X212140800Y-94133602D03*
D26*
X209956400Y-95883601D03*
%TD*%
D20*
%TO.C,C25*%
X214172800Y-96954401D03*
X214172800Y-98504401D03*
%TD*%
D21*
%TO.C,U2*%
X184581600Y-60564600D03*
X184581600Y-61214600D03*
X184581600Y-61864600D03*
X184581600Y-62514600D03*
X184581600Y-63164600D03*
X184581600Y-63814600D03*
X184581600Y-64464600D03*
X184581600Y-65114600D03*
X178841600Y-65114600D03*
X178841600Y-64464600D03*
X178841600Y-63814600D03*
X178841600Y-63164600D03*
X178841600Y-62514600D03*
X178841600Y-61864600D03*
X178841600Y-61214600D03*
X178841600Y-60564600D03*
%TD*%
D14*
%TO.C,C16*%
X208432400Y-47447200D03*
X206882400Y-47447200D03*
%TD*%
D27*
%TO.C,R15*%
X219951800Y-95176401D03*
X221601800Y-95176401D03*
%TD*%
D17*
%TO.C,C22*%
X231749600Y-69304200D03*
X231749600Y-67754200D03*
%TD*%
%TO.C,C4*%
X189128400Y-64516000D03*
X189128400Y-62966000D03*
%TD*%
D20*
%TO.C,C18*%
X211429600Y-67754200D03*
X211429600Y-69304200D03*
%TD*%
D16*
%TO.C,C9*%
X200050400Y-52679600D03*
X201600400Y-52679600D03*
%TD*%
D18*
%TO.C,C15*%
X228344200Y-91186000D03*
X231294200Y-91186000D03*
%TD*%
D28*
%TO.C,R11*%
X236982000Y-70183200D03*
X236982000Y-67383200D03*
%TD*%
D14*
%TO.C,C11*%
X218148200Y-94008001D03*
X216598200Y-94008001D03*
%TD*%
%TO.C,C13*%
X205753000Y-96141601D03*
X204203000Y-96141601D03*
%TD*%
D29*
%TO.C,IC2*%
X196717200Y-51765200D03*
X196067200Y-51765200D03*
X195417200Y-51765200D03*
X194767200Y-51765200D03*
X194767200Y-56165200D03*
X195417200Y-56165200D03*
X196067200Y-56165200D03*
X196717200Y-56165200D03*
%TD*%
D14*
%TO.C,C14*%
X231394000Y-93218000D03*
X229844000Y-93218000D03*
%TD*%
D30*
%TO.C,U3*%
X193802000Y-97739200D03*
D31*
X196342000Y-97739200D03*
X198882000Y-97739200D03*
%TD*%
D23*
%TO.C,J3*%
X210333500Y-44115700D03*
X223683500Y-44115700D03*
D24*
X221333500Y-46365700D03*
X220083500Y-46365700D03*
X218833500Y-46365700D03*
X217583500Y-46365700D03*
X216333500Y-46365700D03*
X215083500Y-46365700D03*
X213833500Y-46365700D03*
X212583500Y-46365700D03*
%TD*%
D32*
%TO.C,T1*%
X217195400Y-69279000D03*
X218465400Y-69279000D03*
X219735400Y-69279000D03*
X221005400Y-69279000D03*
X222275400Y-69279000D03*
X223545400Y-69279000D03*
X224815400Y-69279000D03*
X226085400Y-69279000D03*
X226085400Y-60769000D03*
X224815400Y-60769000D03*
X223545400Y-60769000D03*
X222275400Y-60769000D03*
X221005400Y-60769000D03*
X219735400Y-60769000D03*
X218465400Y-60769000D03*
X217195400Y-60769000D03*
%TD*%
D33*
%TO.C,IC4*%
X219886400Y-98580001D03*
X220386400Y-98580001D03*
X220886400Y-98580001D03*
X221386400Y-98580001D03*
X221386400Y-96680001D03*
X220886400Y-96680001D03*
X220386400Y-96680001D03*
X219886400Y-96680001D03*
D34*
X220636400Y-97630001D03*
%TD*%
D35*
%TO.C,IC1*%
X211065600Y-54690200D03*
X211065600Y-54040200D03*
X211065600Y-53390200D03*
X211065600Y-52740200D03*
X211065600Y-52090200D03*
X211065600Y-51440200D03*
X211065600Y-50790200D03*
X211065600Y-50140200D03*
X211065600Y-49490200D03*
X211065600Y-48840200D03*
X205189600Y-48840200D03*
X205189600Y-49490200D03*
X205189600Y-50140200D03*
X205189600Y-50790200D03*
X205189600Y-51440200D03*
X205189600Y-52090200D03*
X205189600Y-52740200D03*
X205189600Y-53390200D03*
X205189600Y-54040200D03*
X205189600Y-54690200D03*
%TD*%
D16*
%TO.C,C24*%
X207454200Y-99088001D03*
X209004200Y-99088001D03*
%TD*%
D36*
%TO.C,U4*%
X232364800Y-72962300D03*
X229824800Y-72962300D03*
X227284800Y-72962300D03*
X224744800Y-72962300D03*
X199344800Y-72962300D03*
X229824800Y-88202300D03*
X189184800Y-78042300D03*
X222204800Y-72962300D03*
X219664800Y-72962300D03*
D37*
X228554800Y-76012300D03*
D36*
X217124800Y-72962300D03*
X214584800Y-72962300D03*
X212044800Y-72962300D03*
X209504800Y-72962300D03*
X206964800Y-72962300D03*
X204424800Y-72962300D03*
X201884800Y-72962300D03*
X201884800Y-88202300D03*
X204424800Y-88202300D03*
X206964800Y-88202300D03*
X209504800Y-88202300D03*
X212044800Y-88202300D03*
X214584800Y-88202300D03*
X217124800Y-88202300D03*
X219664800Y-88202300D03*
X222204800Y-88202300D03*
X224744800Y-88202300D03*
X227284800Y-88202300D03*
X196804800Y-72962300D03*
X194264800Y-72962300D03*
X191724800Y-72962300D03*
X189184800Y-72962300D03*
X186644800Y-72962300D03*
X184104800Y-72962300D03*
X181564800Y-72962300D03*
X179024800Y-72962300D03*
X176484800Y-72962300D03*
X176484800Y-88202300D03*
X179024800Y-88202300D03*
X181564800Y-88202300D03*
X184104800Y-88202300D03*
X186644800Y-88202300D03*
X189184800Y-88202300D03*
X191724800Y-88202300D03*
X194264800Y-88202300D03*
X196804800Y-88202300D03*
D37*
X223474800Y-76012300D03*
X226014800Y-76012300D03*
D36*
X234904800Y-72962300D03*
X199344800Y-88202300D03*
X232364800Y-88202300D03*
X189184800Y-80582300D03*
D38*
X219934800Y-83752300D03*
X221934800Y-83752300D03*
D36*
X189184800Y-85662300D03*
X189184800Y-83122300D03*
D38*
X221934800Y-85752300D03*
X219934800Y-85752300D03*
X219934800Y-81752300D03*
X221934800Y-81752300D03*
D37*
X220934800Y-76012300D03*
X218394800Y-76012300D03*
D36*
X189184800Y-75502300D03*
X234904800Y-88202300D03*
X232364800Y-85662300D03*
%TD*%
D39*
%TO.C,R13*%
X224790000Y-57924200D03*
X224790000Y-56274200D03*
%TD*%
D17*
%TO.C,C19*%
X213258400Y-69304200D03*
X213258400Y-67754200D03*
%TD*%
D39*
%TO.C,R12*%
X218440000Y-57924200D03*
X218440000Y-56274200D03*
%TD*%
D14*
%TO.C,C8*%
X188125400Y-58877200D03*
X186575400Y-58877200D03*
%TD*%
D40*
%TO.C,TP1*%
X212293200Y-91264801D03*
%TD*%
D41*
%TO.C,D1*%
X237490000Y-73024900D03*
X237490000Y-74599900D03*
%TD*%
D15*
%TO.C,R1*%
X196443600Y-48361600D03*
X194793600Y-48361600D03*
%TD*%
M02*
