%TF.GenerationSoftware,KiCad,Pcbnew,7.0.6*%
%TF.CreationDate,2024-05-04T22:08:13-04:00*%
%TF.ProjectId,rearbox,72656172-626f-4782-9e6b-696361645f70,rev?*%
%TF.SameCoordinates,Original*%
%TF.FileFunction,Copper,L4,Bot*%
%TF.FilePolarity,Positive*%
%FSLAX46Y46*%
G04 Gerber Fmt 4.6, Leading zero omitted, Abs format (unit mm)*
G04 Created by KiCad (PCBNEW 7.0.6) date 2024-05-04 22:08:13*
%MOMM*%
%LPD*%
G01*
G04 APERTURE LIST*
%TA.AperFunction,ComponentPad*%
%ADD10C,4.700000*%
%TD*%
%TA.AperFunction,ComponentPad*%
%ADD11R,1.550000X1.550000*%
%TD*%
%TA.AperFunction,ComponentPad*%
%ADD12C,1.550000*%
%TD*%
%TA.AperFunction,ComponentPad*%
%ADD13C,1.308000*%
%TD*%
%TA.AperFunction,ComponentPad*%
%ADD14C,1.258000*%
%TD*%
%TA.AperFunction,ComponentPad*%
%ADD15C,1.208000*%
%TD*%
%TA.AperFunction,ViaPad*%
%ADD16C,0.800000*%
%TD*%
%TA.AperFunction,ViaPad*%
%ADD17C,1.000000*%
%TD*%
%TA.AperFunction,Conductor*%
%ADD18C,0.500000*%
%TD*%
%TA.AperFunction,Conductor*%
%ADD19C,0.127000*%
%TD*%
G04 APERTURE END LIST*
D10*
%TO.P,H6,1*%
%TO.N,N/C*%
X227395400Y-102196000D03*
%TD*%
%TO.P,H5,1*%
%TO.N,N/C*%
X183895400Y-102196000D03*
%TD*%
%TO.P,H4,1*%
%TO.N,N/C*%
X227395500Y-44195900D03*
%TD*%
%TO.P,H2,1*%
%TO.N,N/C*%
X183895400Y-44196000D03*
%TD*%
D11*
%TO.P,U3,1,VIN*%
%TO.N,Net-(J2-Pin_1)*%
X193802000Y-97739200D03*
D12*
%TO.P,U3,2,GND*%
%TO.N,GND*%
X196342000Y-97739200D03*
%TO.P,U3,3,VOUT*%
%TO.N,5v*%
X198882000Y-97739200D03*
%TD*%
D13*
%TO.P,U4,0,RX1*%
%TO.N,!CS2*%
X232364800Y-72962300D03*
%TO.P,U4,1,TX1*%
%TO.N,SDO2*%
X229824800Y-72962300D03*
%TO.P,U4,2,OUT2*%
%TO.N,unconnected-(U4-OUT2-Pad2)*%
X227284800Y-72962300D03*
%TO.P,U4,3,LRCLK2*%
%TO.N,unconnected-(U4-LRCLK2-Pad3)*%
X224744800Y-72962300D03*
%TO.P,U4,3.3V_1,3.3V*%
%TO.N,3v3*%
X199344800Y-72962300D03*
%TO.P,U4,3.3V_2,3.3V__1*%
%TO.N,unconnected-(U4-3.3V__1-Pad3.3V_2)*%
X229824800Y-88202300D03*
%TO.P,U4,3.3V_3,3.3V__2*%
%TO.N,unconnected-(U4-3.3V__2-Pad3.3V_3)*%
X189184800Y-78042300D03*
%TO.P,U4,4,BCLK2*%
%TO.N,unconnected-(U4-BCLK2-Pad4)*%
X222204800Y-72962300D03*
%TO.P,U4,5,IN2*%
%TO.N,unconnected-(U4-IN2-Pad5)*%
X219664800Y-72962300D03*
D14*
%TO.P,U4,5V,5V*%
%TO.N,unconnected-(U4-Pad5V)*%
X228554800Y-76012300D03*
D13*
%TO.P,U4,6,OUT1D*%
%TO.N,unconnected-(U4-OUT1D-Pad6)*%
X217124800Y-72962300D03*
%TO.P,U4,7,RX2*%
%TO.N,syncin1*%
X214584800Y-72962300D03*
%TO.P,U4,8,TX2*%
%TO.N,syncin2*%
X212044800Y-72962300D03*
%TO.P,U4,9,OUT1C*%
%TO.N,unconnected-(U4-OUT1C-Pad9)*%
X209504800Y-72962300D03*
%TO.P,U4,10,CS1*%
%TO.N,!CS1*%
X206964800Y-72962300D03*
%TO.P,U4,11,MOSI*%
%TO.N,SDI1*%
X204424800Y-72962300D03*
%TO.P,U4,12,MISO*%
%TO.N,SDO1*%
X201884800Y-72962300D03*
%TO.P,U4,13,SCK*%
%TO.N,SCLK1*%
X201884800Y-88202300D03*
%TO.P,U4,14,A0*%
%TO.N,rst2*%
X204424800Y-88202300D03*
%TO.P,U4,15,A1*%
%TO.N,dout1*%
X206964800Y-88202300D03*
%TO.P,U4,16,A2*%
%TO.N,dclk1*%
X209504800Y-88202300D03*
%TO.P,U4,17,A3*%
%TO.N,drdy1*%
X212044800Y-88202300D03*
%TO.P,U4,18,A4*%
%TO.N,dout2*%
X214584800Y-88202300D03*
%TO.P,U4,19,A5*%
%TO.N,dclk2*%
X217124800Y-88202300D03*
%TO.P,U4,20,A6*%
%TO.N,drdy2*%
X219664800Y-88202300D03*
%TO.P,U4,21,A7*%
%TO.N,unconnected-(U4-A7-Pad21)*%
X222204800Y-88202300D03*
%TO.P,U4,22,A8*%
%TO.N,unconnected-(U4-A8-Pad22)*%
X224744800Y-88202300D03*
%TO.P,U4,23,A9*%
%TO.N,unconnected-(U4-A9-Pad23)*%
X227284800Y-88202300D03*
%TO.P,U4,24,A10*%
%TO.N,unconnected-(U4-A10-Pad24)*%
X196804800Y-72962300D03*
%TO.P,U4,25,A11*%
%TO.N,unconnected-(U4-A11-Pad25)*%
X194264800Y-72962300D03*
%TO.P,U4,26,A12*%
%TO.N,SDI2*%
X191724800Y-72962300D03*
%TO.P,U4,27,A13*%
%TO.N,SCLK2*%
X189184800Y-72962300D03*
%TO.P,U4,28,RX7*%
%TO.N,unconnected-(U4-RX7-Pad28)*%
X186644800Y-72962300D03*
%TO.P,U4,29,TX7*%
%TO.N,unconnected-(U4-TX7-Pad29)*%
X184104800Y-72962300D03*
%TO.P,U4,30,CRX3*%
%TO.N,unconnected-(U4-CRX3-Pad30)*%
X181564800Y-72962300D03*
%TO.P,U4,31,CTX3*%
%TO.N,unconnected-(U4-CTX3-Pad31)*%
X179024800Y-72962300D03*
%TO.P,U4,32,OUT1B*%
%TO.N,unconnected-(U4-OUT1B-Pad32)*%
X176484800Y-72962300D03*
%TO.P,U4,33,MCLK2*%
%TO.N,unconnected-(U4-MCLK2-Pad33)*%
X176484800Y-88202300D03*
%TO.P,U4,34,RX8*%
%TO.N,unconnected-(U4-RX8-Pad34)*%
X179024800Y-88202300D03*
%TO.P,U4,35,TX8*%
%TO.N,unconnected-(U4-TX8-Pad35)*%
X181564800Y-88202300D03*
%TO.P,U4,36,CS2*%
%TO.N,unconnected-(U4-CS2-Pad36)*%
X184104800Y-88202300D03*
%TO.P,U4,37,CS3*%
%TO.N,unconnected-(U4-CS3-Pad37)*%
X186644800Y-88202300D03*
%TO.P,U4,38,A14*%
%TO.N,unconnected-(U4-A14-Pad38)*%
X189184800Y-88202300D03*
%TO.P,U4,39,A15*%
%TO.N,unconnected-(U4-A15-Pad39)*%
X191724800Y-88202300D03*
%TO.P,U4,40,A16*%
%TO.N,Net-(IC1-A1)*%
X194264800Y-88202300D03*
%TO.P,U4,41,A17*%
%TO.N,Net-(IC1-A2)*%
X196804800Y-88202300D03*
D14*
%TO.P,U4,D+,D+*%
%TO.N,unconnected-(U4-PadD+)*%
X223474800Y-76012300D03*
%TO.P,U4,D-,D-*%
%TO.N,unconnected-(U4-PadD-)*%
X226014800Y-76012300D03*
D13*
%TO.P,U4,GND1,GND*%
%TO.N,GND*%
X234904800Y-72962300D03*
%TO.P,U4,GND2,GND__1*%
X199344800Y-88202300D03*
%TO.P,U4,GND3,GND__2*%
X232364800Y-88202300D03*
%TO.P,U4,GND4,GND__3*%
X189184800Y-80582300D03*
D15*
%TO.P,U4,GND5,GND__4*%
X219934800Y-83752300D03*
%TO.P,U4,LED,LED*%
%TO.N,Net-(D1-A)*%
X221934800Y-83752300D03*
D13*
%TO.P,U4,ON/OFF,ON/OFF*%
%TO.N,unconnected-(U4-PadON{slash}OFF)*%
X189184800Y-85662300D03*
%TO.P,U4,PROGRAM,PROGRAM*%
%TO.N,unconnected-(U4-PadPROGRAM)*%
X189184800Y-83122300D03*
D15*
%TO.P,U4,R+,R+*%
%TO.N,Rd+*%
X221934800Y-85752300D03*
%TO.P,U4,R-,R-*%
%TO.N,Rd-*%
X219934800Y-85752300D03*
%TO.P,U4,T+,T+*%
%TO.N,Td+*%
X219934800Y-81752300D03*
%TO.P,U4,T-,T-*%
%TO.N,Td-*%
X221934800Y-81752300D03*
D14*
%TO.P,U4,USB_GND1,USB_GND*%
%TO.N,GND*%
X220934800Y-76012300D03*
%TO.P,U4,USB_GND2,USB_GND__1*%
X218394800Y-76012300D03*
D13*
%TO.P,U4,VBAT,VBAT*%
%TO.N,unconnected-(U4-PadVBAT)*%
X189184800Y-75502300D03*
%TO.P,U4,VIN,VIN*%
%TO.N,5v*%
X234904800Y-88202300D03*
%TO.P,U4,VUSB,VUSB*%
%TO.N,unconnected-(U4-PadVUSB)*%
X232364800Y-85662300D03*
%TD*%
D16*
%TO.N,GND*%
X186588400Y-93827600D03*
D17*
%TO.N,5vref*%
X196856123Y-58413877D03*
X183134000Y-68376800D03*
X190607723Y-68218277D03*
X206376565Y-64175397D03*
X189026800Y-48768000D03*
X207517000Y-58267600D03*
X197297743Y-68538657D03*
X184861200Y-66802000D03*
D16*
%TO.N,GND*%
X217504296Y-93181101D03*
X199898000Y-58216800D03*
X210464400Y-98986401D03*
X209397600Y-57607200D03*
X206654400Y-46177200D03*
X189534800Y-58978800D03*
X206248000Y-59842400D03*
X236626400Y-65176400D03*
X206197200Y-97513201D03*
X218744800Y-54914800D03*
X196037200Y-66497200D03*
X194970400Y-54102000D03*
X233121200Y-67614800D03*
X212852000Y-52425600D03*
X222504000Y-97767201D03*
X226568000Y-91338400D03*
X213918800Y-99646801D03*
X177292000Y-61620400D03*
X204165200Y-56438800D03*
X189077600Y-66243200D03*
X205232000Y-47599600D03*
X194211000Y-62636400D03*
X219760800Y-99697601D03*
X191211200Y-48768000D03*
X204012800Y-97614801D03*
X199644000Y-51308000D03*
X205740000Y-67106800D03*
X207518000Y-93246001D03*
X211683600Y-66090800D03*
X224891600Y-54965600D03*
X178714400Y-66243200D03*
D17*
%TO.N,5v*%
X223012000Y-99799201D03*
X220776800Y-94008001D03*
X214630000Y-95148400D03*
X201777600Y-66497200D03*
X216611200Y-97005201D03*
X202763503Y-53370097D03*
D16*
%TO.N,3v3*%
X204825600Y-61620400D03*
X212902800Y-53949600D03*
X213207600Y-49174400D03*
X188112400Y-60807600D03*
%TO.N,Net-(D1-A)*%
X223164400Y-83058000D03*
X237591600Y-76352400D03*
%TO.N,Net-(IC1-A1)*%
X203504800Y-85598000D03*
%TO.N,Net-(IC1-A2)*%
X201729400Y-86261000D03*
%TO.N,sg*%
X197764400Y-59690000D03*
X199237600Y-63957200D03*
%TO.N,!CS2*%
X180226100Y-63171610D03*
%TO.N,!CS1*%
X197205600Y-62128400D03*
%TO.N,SDO2*%
X182321200Y-60655200D03*
%TO.N,drdy2*%
X182842988Y-62470212D03*
X200202800Y-81788000D03*
X191414400Y-74371200D03*
%TO.N,drdy1*%
X198475600Y-61163200D03*
X198120000Y-63042800D03*
X203250800Y-70815200D03*
X209499200Y-80772000D03*
X205282800Y-77114400D03*
X197256400Y-64516000D03*
%TD*%
D18*
%TO.N,5vref*%
X197297743Y-68538657D02*
X196977363Y-68218277D01*
X207517000Y-63034962D02*
X207517000Y-58267600D01*
X196977363Y-68218277D02*
X190607723Y-68218277D01*
X190607723Y-62173077D02*
X190607723Y-68218277D01*
X190607723Y-68218277D02*
X190607723Y-50348923D01*
X194366923Y-58413877D02*
X190607723Y-62173077D01*
X196856123Y-58413877D02*
X194366923Y-58413877D01*
X206376565Y-64175397D02*
X207517000Y-63034962D01*
X183134000Y-68376800D02*
X183286400Y-68376800D01*
X183286400Y-68376800D02*
X184861200Y-66802000D01*
X190607723Y-50348923D02*
X189026800Y-48768000D01*
%TO.N,5v*%
X202763503Y-53370097D02*
X201777600Y-54356000D01*
X201777600Y-54356000D02*
X201777600Y-66497200D01*
D19*
%TO.N,Net-(D1-A)*%
X229870000Y-76352400D02*
X237591600Y-76352400D01*
X223164400Y-83058000D02*
X229870000Y-76352400D01*
%TO.N,Net-(IC1-A1)*%
X196869100Y-85598000D02*
X194264800Y-88202300D01*
X203504800Y-85598000D02*
X196869100Y-85598000D01*
%TO.N,Net-(IC1-A2)*%
X198746100Y-86261000D02*
X196804800Y-88202300D01*
X201729400Y-86261000D02*
X198746100Y-86261000D01*
%TO.N,sg*%
X199237600Y-60655200D02*
X199237600Y-63957200D01*
X198272400Y-59690000D02*
X199237600Y-60655200D01*
X197764400Y-59690000D02*
X198272400Y-59690000D01*
%TO.N,!CS2*%
X187024841Y-72044800D02*
X187562300Y-72582259D01*
X184499501Y-72044800D02*
X187024841Y-72044800D01*
X180226100Y-63171610D02*
X180226100Y-67771399D01*
X187562300Y-72948800D02*
X188493300Y-73879800D01*
X180226100Y-67771399D02*
X184499501Y-72044800D01*
X189297400Y-73879800D02*
X190537400Y-75119800D01*
X187562300Y-72582259D02*
X187562300Y-72948800D01*
X190537400Y-75119800D02*
X230207300Y-75119800D01*
X188493300Y-73879800D02*
X189297400Y-73879800D01*
X230207300Y-75119800D02*
X232364800Y-72962300D01*
%TO.N,!CS1*%
X197205600Y-63203100D02*
X206964800Y-72962300D01*
X197205600Y-62128400D02*
X197205600Y-63203100D01*
%TO.N,SDO2*%
X192104841Y-70794441D02*
X192104841Y-72044800D01*
X192104841Y-72044800D02*
X192642300Y-72582259D01*
X182321200Y-61010800D02*
X192104841Y-70794441D01*
X182321200Y-60655200D02*
X182321200Y-61010800D01*
X193884759Y-73879800D02*
X228907300Y-73879800D01*
X192642300Y-72637341D02*
X193884759Y-73879800D01*
X228907300Y-73879800D02*
X229824800Y-72962300D01*
X192642300Y-72582259D02*
X192642300Y-72637341D01*
%TO.N,drdy2*%
X200202800Y-81788000D02*
X213250500Y-81788000D01*
X190807300Y-73764100D02*
X191414400Y-74371200D01*
X182842988Y-62470212D02*
X190807300Y-70434524D01*
X190807300Y-70434524D02*
X190807300Y-73764100D01*
X213250500Y-81788000D02*
X219664800Y-88202300D01*
%TO.N,drdy1*%
X206146400Y-77114400D02*
X209499200Y-80467200D01*
X198475600Y-62687200D02*
X198475600Y-61163200D01*
X203250800Y-70815200D02*
X197256400Y-64820800D01*
X197256400Y-64820800D02*
X197256400Y-64516000D01*
X198120000Y-63042800D02*
X198475600Y-62687200D01*
X209499200Y-80467200D02*
X209499200Y-80772000D01*
X205282800Y-77114400D02*
X206146400Y-77114400D01*
%TD*%
M02*
