%TF.GenerationSoftware,KiCad,Pcbnew,8.0.4*%
%TF.CreationDate,2024-11-20T17:06:16-05:00*%
%TF.ProjectId,big_hbridge,6269675f-6862-4726-9964-67652e6b6963,rev?*%
%TF.SameCoordinates,Original*%
%TF.FileFunction,Drillmap*%
%TF.FilePolarity,Positive*%
%FSLAX45Y45*%
G04 Gerber Fmt 4.5, Leading zero omitted, Abs format (unit mm)*
G04 Created by KiCad (PCBNEW 8.0.4) date 2024-11-20 17:06:16*
%MOMM*%
%LPD*%
G01*
G04 APERTURE LIST*
%ADD10C,0.050000*%
%ADD11C,0.200000*%
%ADD12C,0.100000*%
%ADD13C,0.300000*%
G04 APERTURE END LIST*
D10*
X7955000Y0D02*
G75*
G02*
X8255000Y-300000I0J-300000D01*
G01*
X8255000Y-6050000D02*
G75*
G02*
X7955000Y-6350000I-300000J0D01*
G01*
X0Y-300000D02*
G75*
G02*
X300000Y0I300000J0D01*
G01*
X300000Y-6350000D02*
G75*
G02*
X0Y-6050000I0J300000D01*
G01*
X300000Y0D02*
X7955000Y0D01*
X7955000Y-6350000D02*
X300000Y-6350000D01*
X8255000Y-300000D02*
X8255000Y-6050000D01*
X0Y-6050000D02*
X0Y-300000D01*
D11*
D12*
X2235000Y-3055000D02*
X2265000Y-3085000D01*
X2265000Y-3055000D02*
X2235000Y-3085000D01*
X2235000Y-3155000D02*
X2265000Y-3185000D01*
X2265000Y-3155000D02*
X2235000Y-3185000D01*
X2235000Y-3255000D02*
X2265000Y-3285000D01*
X2265000Y-3255000D02*
X2235000Y-3285000D01*
X2235000Y-3355000D02*
X2265000Y-3385000D01*
X2265000Y-3355000D02*
X2235000Y-3385000D01*
X2235000Y-3455000D02*
X2265000Y-3485000D01*
X2265000Y-3455000D02*
X2235000Y-3485000D01*
X2235000Y-3555000D02*
X2265000Y-3585000D01*
X2265000Y-3555000D02*
X2235000Y-3585000D01*
X2335000Y-3055000D02*
X2365000Y-3085000D01*
X2365000Y-3055000D02*
X2335000Y-3085000D01*
X2335000Y-3155000D02*
X2365000Y-3185000D01*
X2365000Y-3155000D02*
X2335000Y-3185000D01*
X2335000Y-3255000D02*
X2365000Y-3285000D01*
X2365000Y-3255000D02*
X2335000Y-3285000D01*
X2335000Y-3455000D02*
X2365000Y-3485000D01*
X2365000Y-3455000D02*
X2335000Y-3485000D01*
X2335000Y-3555000D02*
X2365000Y-3585000D01*
X2365000Y-3555000D02*
X2335000Y-3585000D01*
X2385000Y-1255000D02*
X2415000Y-1285000D01*
X2415000Y-1255000D02*
X2385000Y-1285000D01*
X2385000Y-1355000D02*
X2415000Y-1385000D01*
X2415000Y-1355000D02*
X2385000Y-1385000D01*
X2385000Y-1455000D02*
X2415000Y-1485000D01*
X2415000Y-1455000D02*
X2385000Y-1485000D01*
X2385000Y-1665000D02*
X2415000Y-1695000D01*
X2415000Y-1665000D02*
X2385000Y-1695000D01*
X2385000Y-1765000D02*
X2415000Y-1795000D01*
X2415000Y-1765000D02*
X2385000Y-1795000D01*
X2435000Y-3055000D02*
X2465000Y-3085000D01*
X2465000Y-3055000D02*
X2435000Y-3085000D01*
X2435000Y-3155000D02*
X2465000Y-3185000D01*
X2465000Y-3155000D02*
X2435000Y-3185000D01*
X2435000Y-3255000D02*
X2465000Y-3285000D01*
X2465000Y-3255000D02*
X2435000Y-3285000D01*
X2435000Y-3455000D02*
X2465000Y-3485000D01*
X2465000Y-3455000D02*
X2435000Y-3485000D01*
X2435000Y-3555000D02*
X2465000Y-3585000D01*
X2465000Y-3555000D02*
X2435000Y-3585000D01*
X2485000Y-1255000D02*
X2515000Y-1285000D01*
X2515000Y-1255000D02*
X2485000Y-1285000D01*
X2485000Y-1355000D02*
X2515000Y-1385000D01*
X2515000Y-1355000D02*
X2485000Y-1385000D01*
X2485000Y-1455000D02*
X2515000Y-1485000D01*
X2515000Y-1455000D02*
X2485000Y-1485000D01*
X2485000Y-1665000D02*
X2515000Y-1695000D01*
X2515000Y-1665000D02*
X2485000Y-1695000D01*
X2485000Y-1765000D02*
X2515000Y-1795000D01*
X2515000Y-1765000D02*
X2485000Y-1795000D01*
X2535000Y-3055000D02*
X2565000Y-3085000D01*
X2565000Y-3055000D02*
X2535000Y-3085000D01*
X2535000Y-3155000D02*
X2565000Y-3185000D01*
X2565000Y-3155000D02*
X2535000Y-3185000D01*
X2535000Y-3255000D02*
X2565000Y-3285000D01*
X2565000Y-3255000D02*
X2535000Y-3285000D01*
X2535000Y-3455000D02*
X2565000Y-3485000D01*
X2565000Y-3455000D02*
X2535000Y-3485000D01*
X2535000Y-3555000D02*
X2565000Y-3585000D01*
X2565000Y-3555000D02*
X2535000Y-3585000D01*
X2585000Y-1255000D02*
X2615000Y-1285000D01*
X2615000Y-1255000D02*
X2585000Y-1285000D01*
X2585000Y-1355000D02*
X2615000Y-1385000D01*
X2615000Y-1355000D02*
X2585000Y-1385000D01*
X2585000Y-1455000D02*
X2615000Y-1485000D01*
X2615000Y-1455000D02*
X2585000Y-1485000D01*
X2585000Y-1665000D02*
X2615000Y-1695000D01*
X2615000Y-1665000D02*
X2585000Y-1695000D01*
X2585000Y-1765000D02*
X2615000Y-1795000D01*
X2615000Y-1765000D02*
X2585000Y-1795000D01*
X2635000Y-3055000D02*
X2665000Y-3085000D01*
X2665000Y-3055000D02*
X2635000Y-3085000D01*
X2635000Y-3155000D02*
X2665000Y-3185000D01*
X2665000Y-3155000D02*
X2635000Y-3185000D01*
X2635000Y-3255000D02*
X2665000Y-3285000D01*
X2665000Y-3255000D02*
X2635000Y-3285000D01*
X2635000Y-3455000D02*
X2665000Y-3485000D01*
X2665000Y-3455000D02*
X2635000Y-3485000D01*
X2635000Y-3555000D02*
X2665000Y-3585000D01*
X2665000Y-3555000D02*
X2635000Y-3585000D01*
X2685000Y-1255000D02*
X2715000Y-1285000D01*
X2715000Y-1255000D02*
X2685000Y-1285000D01*
X2685000Y-1355000D02*
X2715000Y-1385000D01*
X2715000Y-1355000D02*
X2685000Y-1385000D01*
X2685000Y-1455000D02*
X2715000Y-1485000D01*
X2715000Y-1455000D02*
X2685000Y-1485000D01*
X2685000Y-1665000D02*
X2715000Y-1695000D01*
X2715000Y-1665000D02*
X2685000Y-1695000D01*
X2685000Y-1765000D02*
X2715000Y-1795000D01*
X2715000Y-1765000D02*
X2685000Y-1795000D01*
X2735000Y-3055000D02*
X2765000Y-3085000D01*
X2765000Y-3055000D02*
X2735000Y-3085000D01*
X2735000Y-3155000D02*
X2765000Y-3185000D01*
X2765000Y-3155000D02*
X2735000Y-3185000D01*
X2735000Y-3255000D02*
X2765000Y-3285000D01*
X2765000Y-3255000D02*
X2735000Y-3285000D01*
X2735000Y-3455000D02*
X2765000Y-3485000D01*
X2765000Y-3455000D02*
X2735000Y-3485000D01*
X2735000Y-3555000D02*
X2765000Y-3585000D01*
X2765000Y-3555000D02*
X2735000Y-3585000D01*
X2785000Y-1255000D02*
X2815000Y-1285000D01*
X2815000Y-1255000D02*
X2785000Y-1285000D01*
X2785000Y-1355000D02*
X2815000Y-1385000D01*
X2815000Y-1355000D02*
X2785000Y-1385000D01*
X2785000Y-1455000D02*
X2815000Y-1485000D01*
X2815000Y-1455000D02*
X2785000Y-1485000D01*
X2785000Y-1665000D02*
X2815000Y-1695000D01*
X2815000Y-1665000D02*
X2785000Y-1695000D01*
X2785000Y-1765000D02*
X2815000Y-1795000D01*
X2815000Y-1765000D02*
X2785000Y-1795000D01*
X3205000Y-1015000D02*
X3235000Y-1045000D01*
X3235000Y-1015000D02*
X3205000Y-1045000D01*
X3205000Y-1095000D02*
X3235000Y-1125000D01*
X3235000Y-1095000D02*
X3205000Y-1125000D01*
X3205000Y-1175000D02*
X3235000Y-1205000D01*
X3235000Y-1175000D02*
X3205000Y-1205000D01*
X3205000Y-1255000D02*
X3235000Y-1285000D01*
X3235000Y-1255000D02*
X3205000Y-1285000D01*
X3205000Y-1335000D02*
X3235000Y-1365000D01*
X3235000Y-1335000D02*
X3205000Y-1365000D01*
X3205000Y-1415000D02*
X3235000Y-1445000D01*
X3235000Y-1415000D02*
X3205000Y-1445000D01*
X3205000Y-1505000D02*
X3235000Y-1535000D01*
X3235000Y-1505000D02*
X3205000Y-1535000D01*
X3205000Y-1585000D02*
X3235000Y-1615000D01*
X3235000Y-1585000D02*
X3205000Y-1615000D01*
X3205000Y-1665000D02*
X3235000Y-1695000D01*
X3235000Y-1665000D02*
X3205000Y-1695000D01*
X3205000Y-2815000D02*
X3235000Y-2845000D01*
X3235000Y-2815000D02*
X3205000Y-2845000D01*
X3205000Y-2895000D02*
X3235000Y-2925000D01*
X3235000Y-2895000D02*
X3205000Y-2925000D01*
X3205000Y-2965000D02*
X3235000Y-2995000D01*
X3235000Y-2965000D02*
X3205000Y-2995000D01*
X3205000Y-3035000D02*
X3235000Y-3065000D01*
X3235000Y-3035000D02*
X3205000Y-3065000D01*
X3205000Y-3105000D02*
X3235000Y-3135000D01*
X3235000Y-3105000D02*
X3205000Y-3135000D01*
X3205000Y-3175000D02*
X3235000Y-3205000D01*
X3235000Y-3175000D02*
X3205000Y-3205000D01*
X3205000Y-3245000D02*
X3235000Y-3275000D01*
X3235000Y-3245000D02*
X3205000Y-3275000D01*
X3205000Y-3325000D02*
X3235000Y-3355000D01*
X3235000Y-3325000D02*
X3205000Y-3355000D01*
X3205000Y-3405000D02*
X3235000Y-3435000D01*
X3235000Y-3405000D02*
X3205000Y-3435000D01*
X3205000Y-3475000D02*
X3235000Y-3505000D01*
X3235000Y-3475000D02*
X3205000Y-3505000D01*
X3215000Y-935000D02*
X3245000Y-965000D01*
X3245000Y-935000D02*
X3215000Y-965000D01*
X3225000Y-2745000D02*
X3255000Y-2775000D01*
X3255000Y-2745000D02*
X3225000Y-2775000D01*
X3285000Y-3475000D02*
X3315000Y-3505000D01*
X3315000Y-3475000D02*
X3285000Y-3505000D01*
X3295000Y-1665000D02*
X3325000Y-1695000D01*
X3325000Y-1665000D02*
X3295000Y-1695000D01*
X3305000Y-935000D02*
X3335000Y-965000D01*
X3335000Y-935000D02*
X3305000Y-965000D01*
X3305000Y-2745000D02*
X3335000Y-2775000D01*
X3335000Y-2745000D02*
X3305000Y-2775000D01*
X3335000Y-1095000D02*
X3365000Y-1125000D01*
X3365000Y-1095000D02*
X3335000Y-1125000D01*
X3335000Y-1185000D02*
X3365000Y-1215000D01*
X3365000Y-1185000D02*
X3335000Y-1215000D01*
X3335000Y-1285000D02*
X3365000Y-1315000D01*
X3365000Y-1285000D02*
X3335000Y-1315000D01*
X3335000Y-1375000D02*
X3365000Y-1405000D01*
X3365000Y-1375000D02*
X3335000Y-1405000D01*
X3335000Y-1475000D02*
X3365000Y-1505000D01*
X3365000Y-1475000D02*
X3335000Y-1505000D01*
X3335000Y-2915000D02*
X3365000Y-2945000D01*
X3365000Y-2915000D02*
X3335000Y-2945000D01*
X3335000Y-3005000D02*
X3365000Y-3035000D01*
X3365000Y-3005000D02*
X3335000Y-3035000D01*
X3335000Y-3105000D02*
X3365000Y-3135000D01*
X3365000Y-3105000D02*
X3335000Y-3135000D01*
X3335000Y-3195000D02*
X3365000Y-3225000D01*
X3365000Y-3195000D02*
X3335000Y-3225000D01*
X3335000Y-3295000D02*
X3365000Y-3325000D01*
X3365000Y-3295000D02*
X3335000Y-3325000D01*
X3365000Y-3475000D02*
X3395000Y-3505000D01*
X3395000Y-3475000D02*
X3365000Y-3505000D01*
X3385000Y-1665000D02*
X3415000Y-1695000D01*
X3415000Y-1665000D02*
X3385000Y-1695000D01*
X3385000Y-2735000D02*
X3415000Y-2765000D01*
X3415000Y-2735000D02*
X3385000Y-2765000D01*
X3395000Y-935000D02*
X3425000Y-965000D01*
X3425000Y-935000D02*
X3395000Y-965000D01*
X3445000Y-3475000D02*
X3475000Y-3505000D01*
X3475000Y-3475000D02*
X3445000Y-3505000D01*
X3455000Y-2735000D02*
X3485000Y-2765000D01*
X3485000Y-2735000D02*
X3455000Y-2765000D01*
X3465000Y-1095000D02*
X3495000Y-1125000D01*
X3495000Y-1095000D02*
X3465000Y-1125000D01*
X3465000Y-1185000D02*
X3495000Y-1215000D01*
X3495000Y-1185000D02*
X3465000Y-1215000D01*
X3465000Y-1285000D02*
X3495000Y-1315000D01*
X3495000Y-1285000D02*
X3465000Y-1315000D01*
X3465000Y-1375000D02*
X3495000Y-1405000D01*
X3495000Y-1375000D02*
X3465000Y-1405000D01*
X3465000Y-1475000D02*
X3495000Y-1505000D01*
X3495000Y-1475000D02*
X3465000Y-1505000D01*
X3465000Y-2915000D02*
X3495000Y-2945000D01*
X3495000Y-2915000D02*
X3465000Y-2945000D01*
X3465000Y-3005000D02*
X3495000Y-3035000D01*
X3495000Y-3005000D02*
X3465000Y-3035000D01*
X3465000Y-3105000D02*
X3495000Y-3135000D01*
X3495000Y-3105000D02*
X3465000Y-3135000D01*
X3465000Y-3195000D02*
X3495000Y-3225000D01*
X3495000Y-3195000D02*
X3465000Y-3225000D01*
X3465000Y-3295000D02*
X3495000Y-3325000D01*
X3495000Y-3295000D02*
X3465000Y-3325000D01*
X3475000Y-1665000D02*
X3505000Y-1695000D01*
X3505000Y-1665000D02*
X3475000Y-1695000D01*
X3485000Y-935000D02*
X3515000Y-965000D01*
X3515000Y-935000D02*
X3485000Y-965000D01*
X3525000Y-3475000D02*
X3555000Y-3505000D01*
X3555000Y-3475000D02*
X3525000Y-3505000D01*
X3535000Y-2735000D02*
X3565000Y-2765000D01*
X3565000Y-2735000D02*
X3535000Y-2765000D01*
X3565000Y-1665000D02*
X3595000Y-1695000D01*
X3595000Y-1665000D02*
X3565000Y-1695000D01*
X3575000Y-935000D02*
X3605000Y-965000D01*
X3605000Y-935000D02*
X3575000Y-965000D01*
X3585000Y-1095000D02*
X3615000Y-1125000D01*
X3615000Y-1095000D02*
X3585000Y-1125000D01*
X3585000Y-1185000D02*
X3615000Y-1215000D01*
X3615000Y-1185000D02*
X3585000Y-1215000D01*
X3585000Y-1285000D02*
X3615000Y-1315000D01*
X3615000Y-1285000D02*
X3585000Y-1315000D01*
X3585000Y-1375000D02*
X3615000Y-1405000D01*
X3615000Y-1375000D02*
X3585000Y-1405000D01*
X3585000Y-1475000D02*
X3615000Y-1505000D01*
X3615000Y-1475000D02*
X3585000Y-1505000D01*
X3585000Y-2915000D02*
X3615000Y-2945000D01*
X3615000Y-2915000D02*
X3585000Y-2945000D01*
X3585000Y-3005000D02*
X3615000Y-3035000D01*
X3615000Y-3005000D02*
X3585000Y-3035000D01*
X3585000Y-3105000D02*
X3615000Y-3135000D01*
X3615000Y-3105000D02*
X3585000Y-3135000D01*
X3585000Y-3195000D02*
X3615000Y-3225000D01*
X3615000Y-3195000D02*
X3585000Y-3225000D01*
X3585000Y-3295000D02*
X3615000Y-3325000D01*
X3615000Y-3295000D02*
X3585000Y-3325000D01*
X3595000Y-3475000D02*
X3625000Y-3505000D01*
X3625000Y-3475000D02*
X3595000Y-3505000D01*
X3615000Y-2735000D02*
X3645000Y-2765000D01*
X3645000Y-2735000D02*
X3615000Y-2765000D01*
X3655000Y-1665000D02*
X3685000Y-1695000D01*
X3685000Y-1665000D02*
X3655000Y-1695000D01*
X3655000Y-3475000D02*
X3685000Y-3505000D01*
X3685000Y-3475000D02*
X3655000Y-3505000D01*
X3665000Y-935000D02*
X3695000Y-965000D01*
X3695000Y-935000D02*
X3665000Y-965000D01*
X3695000Y-2735000D02*
X3725000Y-2765000D01*
X3725000Y-2735000D02*
X3695000Y-2765000D01*
X3705000Y-1095000D02*
X3735000Y-1125000D01*
X3735000Y-1095000D02*
X3705000Y-1125000D01*
X3705000Y-1185000D02*
X3735000Y-1215000D01*
X3735000Y-1185000D02*
X3705000Y-1215000D01*
X3705000Y-1285000D02*
X3735000Y-1315000D01*
X3735000Y-1285000D02*
X3705000Y-1315000D01*
X3705000Y-1375000D02*
X3735000Y-1405000D01*
X3735000Y-1375000D02*
X3705000Y-1405000D01*
X3705000Y-1475000D02*
X3735000Y-1505000D01*
X3735000Y-1475000D02*
X3705000Y-1505000D01*
X3705000Y-2915000D02*
X3735000Y-2945000D01*
X3735000Y-2915000D02*
X3705000Y-2945000D01*
X3705000Y-3005000D02*
X3735000Y-3035000D01*
X3735000Y-3005000D02*
X3705000Y-3035000D01*
X3705000Y-3105000D02*
X3735000Y-3135000D01*
X3735000Y-3105000D02*
X3705000Y-3135000D01*
X3705000Y-3195000D02*
X3735000Y-3225000D01*
X3735000Y-3195000D02*
X3705000Y-3225000D01*
X3705000Y-3295000D02*
X3735000Y-3325000D01*
X3735000Y-3295000D02*
X3705000Y-3325000D01*
X3735000Y-3475000D02*
X3765000Y-3505000D01*
X3765000Y-3475000D02*
X3735000Y-3505000D01*
X3745000Y-1665000D02*
X3775000Y-1695000D01*
X3775000Y-1665000D02*
X3745000Y-1695000D01*
X3755000Y-935000D02*
X3785000Y-965000D01*
X3785000Y-935000D02*
X3755000Y-965000D01*
X3755000Y-2735000D02*
X3785000Y-2765000D01*
X3785000Y-2735000D02*
X3755000Y-2765000D01*
X3815000Y-3475000D02*
X3845000Y-3505000D01*
X3845000Y-3475000D02*
X3815000Y-3505000D01*
X3825000Y-1095000D02*
X3855000Y-1125000D01*
X3855000Y-1095000D02*
X3825000Y-1125000D01*
X3825000Y-1185000D02*
X3855000Y-1215000D01*
X3855000Y-1185000D02*
X3825000Y-1215000D01*
X3825000Y-1285000D02*
X3855000Y-1315000D01*
X3855000Y-1285000D02*
X3825000Y-1315000D01*
X3825000Y-1375000D02*
X3855000Y-1405000D01*
X3855000Y-1375000D02*
X3825000Y-1405000D01*
X3825000Y-1475000D02*
X3855000Y-1505000D01*
X3855000Y-1475000D02*
X3825000Y-1505000D01*
X3825000Y-2735000D02*
X3855000Y-2765000D01*
X3855000Y-2735000D02*
X3825000Y-2765000D01*
X3825000Y-2915000D02*
X3855000Y-2945000D01*
X3855000Y-2915000D02*
X3825000Y-2945000D01*
X3825000Y-3005000D02*
X3855000Y-3035000D01*
X3855000Y-3005000D02*
X3825000Y-3035000D01*
X3825000Y-3105000D02*
X3855000Y-3135000D01*
X3855000Y-3105000D02*
X3825000Y-3135000D01*
X3825000Y-3195000D02*
X3855000Y-3225000D01*
X3855000Y-3195000D02*
X3825000Y-3225000D01*
X3825000Y-3295000D02*
X3855000Y-3325000D01*
X3855000Y-3295000D02*
X3825000Y-3325000D01*
X3835000Y-1665000D02*
X3865000Y-1695000D01*
X3865000Y-1665000D02*
X3835000Y-1695000D01*
X3845000Y-935000D02*
X3875000Y-965000D01*
X3875000Y-935000D02*
X3845000Y-965000D01*
X3905000Y-2735000D02*
X3935000Y-2765000D01*
X3935000Y-2735000D02*
X3905000Y-2765000D01*
X3905000Y-3475000D02*
X3935000Y-3505000D01*
X3935000Y-3475000D02*
X3905000Y-3505000D01*
X3915000Y-1665000D02*
X3945000Y-1695000D01*
X3945000Y-1665000D02*
X3915000Y-1695000D01*
X3935000Y-935000D02*
X3965000Y-965000D01*
X3965000Y-935000D02*
X3935000Y-965000D01*
X3935000Y-1095000D02*
X3965000Y-1125000D01*
X3965000Y-1095000D02*
X3935000Y-1125000D01*
X3935000Y-1185000D02*
X3965000Y-1215000D01*
X3965000Y-1185000D02*
X3935000Y-1215000D01*
X3935000Y-1285000D02*
X3965000Y-1315000D01*
X3965000Y-1285000D02*
X3935000Y-1315000D01*
X3935000Y-1375000D02*
X3965000Y-1405000D01*
X3965000Y-1375000D02*
X3935000Y-1405000D01*
X3935000Y-1475000D02*
X3965000Y-1505000D01*
X3965000Y-1475000D02*
X3935000Y-1505000D01*
X3935000Y-2915000D02*
X3965000Y-2945000D01*
X3965000Y-2915000D02*
X3935000Y-2945000D01*
X3935000Y-3005000D02*
X3965000Y-3035000D01*
X3965000Y-3005000D02*
X3935000Y-3035000D01*
X3935000Y-3105000D02*
X3965000Y-3135000D01*
X3965000Y-3105000D02*
X3935000Y-3135000D01*
X3935000Y-3195000D02*
X3965000Y-3225000D01*
X3965000Y-3195000D02*
X3935000Y-3225000D01*
X3935000Y-3295000D02*
X3965000Y-3325000D01*
X3965000Y-3295000D02*
X3935000Y-3325000D01*
X3975000Y-2735000D02*
X4005000Y-2765000D01*
X4005000Y-2735000D02*
X3975000Y-2765000D01*
X3985000Y-3475000D02*
X4015000Y-3505000D01*
X4015000Y-3475000D02*
X3985000Y-3505000D01*
X3995000Y-1665000D02*
X4025000Y-1695000D01*
X4025000Y-1665000D02*
X3995000Y-1695000D01*
X4015000Y-935000D02*
X4045000Y-965000D01*
X4045000Y-935000D02*
X4015000Y-965000D01*
X4045000Y-2735000D02*
X4075000Y-2765000D01*
X4075000Y-2735000D02*
X4045000Y-2765000D01*
X4065000Y-3385000D02*
X4095000Y-3415000D01*
X4095000Y-3385000D02*
X4065000Y-3415000D01*
X4075000Y-1005000D02*
X4105000Y-1035000D01*
X4105000Y-1005000D02*
X4075000Y-1035000D01*
X4075000Y-1085000D02*
X4105000Y-1115000D01*
X4105000Y-1085000D02*
X4075000Y-1115000D01*
X4075000Y-1165000D02*
X4105000Y-1195000D01*
X4105000Y-1165000D02*
X4075000Y-1195000D01*
X4075000Y-1245000D02*
X4105000Y-1275000D01*
X4105000Y-1245000D02*
X4075000Y-1275000D01*
X4075000Y-1335000D02*
X4105000Y-1365000D01*
X4105000Y-1335000D02*
X4075000Y-1365000D01*
X4075000Y-1415000D02*
X4105000Y-1445000D01*
X4105000Y-1415000D02*
X4075000Y-1445000D01*
X4075000Y-1495000D02*
X4105000Y-1525000D01*
X4105000Y-1495000D02*
X4075000Y-1525000D01*
X4075000Y-1585000D02*
X4105000Y-1615000D01*
X4105000Y-1585000D02*
X4075000Y-1615000D01*
X4075000Y-1665000D02*
X4105000Y-1695000D01*
X4105000Y-1665000D02*
X4075000Y-1695000D01*
X4075000Y-2805000D02*
X4105000Y-2835000D01*
X4105000Y-2805000D02*
X4075000Y-2835000D01*
X4075000Y-2885000D02*
X4105000Y-2915000D01*
X4105000Y-2885000D02*
X4075000Y-2915000D01*
X4075000Y-2955000D02*
X4105000Y-2985000D01*
X4105000Y-2955000D02*
X4075000Y-2985000D01*
X4075000Y-3025000D02*
X4105000Y-3055000D01*
X4105000Y-3025000D02*
X4075000Y-3055000D01*
X4075000Y-3165000D02*
X4105000Y-3195000D01*
X4105000Y-3165000D02*
X4075000Y-3195000D01*
X4075000Y-3315000D02*
X4105000Y-3345000D01*
X4105000Y-3315000D02*
X4075000Y-3345000D01*
X4085000Y-3095000D02*
X4115000Y-3125000D01*
X4115000Y-3095000D02*
X4085000Y-3125000D01*
X4085000Y-3235000D02*
X4115000Y-3265000D01*
X4115000Y-3235000D02*
X4085000Y-3265000D01*
X4955000Y-1655000D02*
X4985000Y-1685000D01*
X4985000Y-1655000D02*
X4955000Y-1685000D01*
X4965000Y-3465000D02*
X4995000Y-3495000D01*
X4995000Y-3465000D02*
X4965000Y-3495000D01*
X4975000Y-2815000D02*
X5005000Y-2845000D01*
X5005000Y-2815000D02*
X4975000Y-2845000D01*
X4975000Y-3095000D02*
X5005000Y-3125000D01*
X5005000Y-3095000D02*
X4975000Y-3125000D01*
X4975000Y-3245000D02*
X5005000Y-3275000D01*
X5005000Y-3245000D02*
X4975000Y-3275000D01*
X4975000Y-3385000D02*
X5005000Y-3415000D01*
X5005000Y-3385000D02*
X4975000Y-3415000D01*
X4985000Y-1005000D02*
X5015000Y-1035000D01*
X5015000Y-1005000D02*
X4985000Y-1035000D01*
X4985000Y-1375000D02*
X5015000Y-1405000D01*
X5015000Y-1375000D02*
X4985000Y-1405000D01*
X4985000Y-1455000D02*
X5015000Y-1485000D01*
X5015000Y-1455000D02*
X4985000Y-1485000D01*
X4985000Y-1525000D02*
X5015000Y-1555000D01*
X5015000Y-1525000D02*
X4985000Y-1555000D01*
X4985000Y-1595000D02*
X5015000Y-1625000D01*
X5015000Y-1595000D02*
X4985000Y-1625000D01*
X4985000Y-2745000D02*
X5015000Y-2775000D01*
X5015000Y-2745000D02*
X4985000Y-2775000D01*
X4985000Y-2875000D02*
X5015000Y-2905000D01*
X5015000Y-2875000D02*
X4985000Y-2905000D01*
X4985000Y-2945000D02*
X5015000Y-2975000D01*
X5015000Y-2945000D02*
X4985000Y-2975000D01*
X4985000Y-3025000D02*
X5015000Y-3055000D01*
X5015000Y-3025000D02*
X4985000Y-3055000D01*
X4985000Y-3175000D02*
X5015000Y-3205000D01*
X5015000Y-3175000D02*
X4985000Y-3205000D01*
X4985000Y-3315000D02*
X5015000Y-3345000D01*
X5015000Y-3315000D02*
X4985000Y-3345000D01*
X4995000Y-1085000D02*
X5025000Y-1115000D01*
X5025000Y-1085000D02*
X4995000Y-1115000D01*
X4995000Y-1155000D02*
X5025000Y-1185000D01*
X5025000Y-1155000D02*
X4995000Y-1185000D01*
X4995000Y-1235000D02*
X5025000Y-1265000D01*
X5025000Y-1235000D02*
X4995000Y-1265000D01*
X4995000Y-1315000D02*
X5025000Y-1345000D01*
X5025000Y-1315000D02*
X4995000Y-1345000D01*
X5015000Y-1675000D02*
X5045000Y-1705000D01*
X5045000Y-1675000D02*
X5015000Y-1705000D01*
X5045000Y-945000D02*
X5075000Y-975000D01*
X5075000Y-945000D02*
X5045000Y-975000D01*
X5045000Y-3465000D02*
X5075000Y-3495000D01*
X5075000Y-3465000D02*
X5045000Y-3495000D01*
X5075000Y-2735000D02*
X5105000Y-2765000D01*
X5105000Y-2735000D02*
X5075000Y-2765000D01*
X5085000Y-1675000D02*
X5115000Y-1705000D01*
X5115000Y-1675000D02*
X5085000Y-1705000D01*
X5115000Y-2895000D02*
X5145000Y-2925000D01*
X5145000Y-2895000D02*
X5115000Y-2925000D01*
X5115000Y-2985000D02*
X5145000Y-3015000D01*
X5145000Y-2985000D02*
X5115000Y-3015000D01*
X5115000Y-3085000D02*
X5145000Y-3115000D01*
X5145000Y-3085000D02*
X5115000Y-3115000D01*
X5115000Y-3175000D02*
X5145000Y-3205000D01*
X5145000Y-3175000D02*
X5115000Y-3205000D01*
X5115000Y-3275000D02*
X5145000Y-3305000D01*
X5145000Y-3275000D02*
X5115000Y-3305000D01*
X5125000Y-945000D02*
X5155000Y-975000D01*
X5155000Y-945000D02*
X5125000Y-975000D01*
X5125000Y-1105000D02*
X5155000Y-1135000D01*
X5155000Y-1105000D02*
X5125000Y-1135000D01*
X5125000Y-1195000D02*
X5155000Y-1225000D01*
X5155000Y-1195000D02*
X5125000Y-1225000D01*
X5125000Y-1295000D02*
X5155000Y-1325000D01*
X5155000Y-1295000D02*
X5125000Y-1325000D01*
X5125000Y-1385000D02*
X5155000Y-1415000D01*
X5155000Y-1385000D02*
X5125000Y-1415000D01*
X5125000Y-1485000D02*
X5155000Y-1515000D01*
X5155000Y-1485000D02*
X5125000Y-1515000D01*
X5125000Y-3465000D02*
X5155000Y-3495000D01*
X5155000Y-3465000D02*
X5125000Y-3495000D01*
X5155000Y-1675000D02*
X5185000Y-1705000D01*
X5185000Y-1675000D02*
X5155000Y-1705000D01*
X5165000Y-2745000D02*
X5195000Y-2775000D01*
X5195000Y-2745000D02*
X5165000Y-2775000D01*
X5205000Y-945000D02*
X5235000Y-975000D01*
X5235000Y-945000D02*
X5205000Y-975000D01*
X5205000Y-3465000D02*
X5235000Y-3495000D01*
X5235000Y-3465000D02*
X5205000Y-3495000D01*
X5225000Y-1675000D02*
X5255000Y-1705000D01*
X5255000Y-1675000D02*
X5225000Y-1705000D01*
X5245000Y-2895000D02*
X5275000Y-2925000D01*
X5275000Y-2895000D02*
X5245000Y-2925000D01*
X5245000Y-2985000D02*
X5275000Y-3015000D01*
X5275000Y-2985000D02*
X5245000Y-3015000D01*
X5245000Y-3085000D02*
X5275000Y-3115000D01*
X5275000Y-3085000D02*
X5245000Y-3115000D01*
X5245000Y-3175000D02*
X5275000Y-3205000D01*
X5275000Y-3175000D02*
X5245000Y-3205000D01*
X5245000Y-3275000D02*
X5275000Y-3305000D01*
X5275000Y-3275000D02*
X5245000Y-3305000D01*
X5255000Y-1105000D02*
X5285000Y-1135000D01*
X5285000Y-1105000D02*
X5255000Y-1135000D01*
X5255000Y-1195000D02*
X5285000Y-1225000D01*
X5285000Y-1195000D02*
X5255000Y-1225000D01*
X5255000Y-1295000D02*
X5285000Y-1325000D01*
X5285000Y-1295000D02*
X5255000Y-1325000D01*
X5255000Y-1385000D02*
X5285000Y-1415000D01*
X5285000Y-1385000D02*
X5255000Y-1415000D01*
X5255000Y-1485000D02*
X5285000Y-1515000D01*
X5285000Y-1485000D02*
X5255000Y-1515000D01*
X5255000Y-2755000D02*
X5285000Y-2785000D01*
X5285000Y-2755000D02*
X5255000Y-2785000D01*
X5275000Y-3465000D02*
X5305000Y-3495000D01*
X5305000Y-3465000D02*
X5275000Y-3495000D01*
X5285000Y-945000D02*
X5315000Y-975000D01*
X5315000Y-945000D02*
X5285000Y-975000D01*
X5305000Y-1675000D02*
X5335000Y-1705000D01*
X5335000Y-1675000D02*
X5305000Y-1705000D01*
X5345000Y-2745000D02*
X5375000Y-2775000D01*
X5375000Y-2745000D02*
X5345000Y-2775000D01*
X5345000Y-3465000D02*
X5375000Y-3495000D01*
X5375000Y-3465000D02*
X5345000Y-3495000D01*
X5365000Y-945000D02*
X5395000Y-975000D01*
X5395000Y-945000D02*
X5365000Y-975000D01*
X5365000Y-2895000D02*
X5395000Y-2925000D01*
X5395000Y-2895000D02*
X5365000Y-2925000D01*
X5365000Y-2985000D02*
X5395000Y-3015000D01*
X5395000Y-2985000D02*
X5365000Y-3015000D01*
X5365000Y-3085000D02*
X5395000Y-3115000D01*
X5395000Y-3085000D02*
X5365000Y-3115000D01*
X5365000Y-3175000D02*
X5395000Y-3205000D01*
X5395000Y-3175000D02*
X5365000Y-3205000D01*
X5365000Y-3275000D02*
X5395000Y-3305000D01*
X5395000Y-3275000D02*
X5365000Y-3305000D01*
X5375000Y-1105000D02*
X5405000Y-1135000D01*
X5405000Y-1105000D02*
X5375000Y-1135000D01*
X5375000Y-1195000D02*
X5405000Y-1225000D01*
X5405000Y-1195000D02*
X5375000Y-1225000D01*
X5375000Y-1295000D02*
X5405000Y-1325000D01*
X5405000Y-1295000D02*
X5375000Y-1325000D01*
X5375000Y-1385000D02*
X5405000Y-1415000D01*
X5405000Y-1385000D02*
X5375000Y-1415000D01*
X5375000Y-1485000D02*
X5405000Y-1515000D01*
X5405000Y-1485000D02*
X5375000Y-1515000D01*
X5385000Y-1675000D02*
X5415000Y-1705000D01*
X5415000Y-1675000D02*
X5385000Y-1705000D01*
X5435000Y-945000D02*
X5465000Y-975000D01*
X5465000Y-945000D02*
X5435000Y-975000D01*
X5435000Y-2755000D02*
X5465000Y-2785000D01*
X5465000Y-2755000D02*
X5435000Y-2785000D01*
X5435000Y-3465000D02*
X5465000Y-3495000D01*
X5465000Y-3465000D02*
X5435000Y-3495000D01*
X5455000Y-1675000D02*
X5485000Y-1705000D01*
X5485000Y-1675000D02*
X5455000Y-1705000D01*
X5485000Y-2895000D02*
X5515000Y-2925000D01*
X5515000Y-2895000D02*
X5485000Y-2925000D01*
X5485000Y-2985000D02*
X5515000Y-3015000D01*
X5515000Y-2985000D02*
X5485000Y-3015000D01*
X5485000Y-3085000D02*
X5515000Y-3115000D01*
X5515000Y-3085000D02*
X5485000Y-3115000D01*
X5485000Y-3175000D02*
X5515000Y-3205000D01*
X5515000Y-3175000D02*
X5485000Y-3205000D01*
X5485000Y-3275000D02*
X5515000Y-3305000D01*
X5515000Y-3275000D02*
X5485000Y-3305000D01*
X5495000Y-1105000D02*
X5525000Y-1135000D01*
X5525000Y-1105000D02*
X5495000Y-1135000D01*
X5495000Y-1195000D02*
X5525000Y-1225000D01*
X5525000Y-1195000D02*
X5495000Y-1225000D01*
X5495000Y-1295000D02*
X5525000Y-1325000D01*
X5525000Y-1295000D02*
X5495000Y-1325000D01*
X5495000Y-1385000D02*
X5525000Y-1415000D01*
X5525000Y-1385000D02*
X5495000Y-1415000D01*
X5495000Y-1485000D02*
X5525000Y-1515000D01*
X5525000Y-1485000D02*
X5495000Y-1515000D01*
X5515000Y-945000D02*
X5545000Y-975000D01*
X5545000Y-945000D02*
X5515000Y-975000D01*
X5515000Y-1675000D02*
X5545000Y-1705000D01*
X5545000Y-1675000D02*
X5515000Y-1705000D01*
X5515000Y-3465000D02*
X5545000Y-3495000D01*
X5545000Y-3465000D02*
X5515000Y-3495000D01*
X5525000Y-2755000D02*
X5555000Y-2785000D01*
X5555000Y-2755000D02*
X5525000Y-2785000D01*
X5585000Y-945000D02*
X5615000Y-975000D01*
X5615000Y-945000D02*
X5585000Y-975000D01*
X5585000Y-1675000D02*
X5615000Y-1705000D01*
X5615000Y-1675000D02*
X5585000Y-1705000D01*
X5595000Y-3465000D02*
X5625000Y-3495000D01*
X5625000Y-3465000D02*
X5595000Y-3495000D01*
X5605000Y-2755000D02*
X5635000Y-2785000D01*
X5635000Y-2755000D02*
X5605000Y-2785000D01*
X5605000Y-2895000D02*
X5635000Y-2925000D01*
X5635000Y-2895000D02*
X5605000Y-2925000D01*
X5605000Y-2985000D02*
X5635000Y-3015000D01*
X5635000Y-2985000D02*
X5605000Y-3015000D01*
X5605000Y-3085000D02*
X5635000Y-3115000D01*
X5635000Y-3085000D02*
X5605000Y-3115000D01*
X5605000Y-3175000D02*
X5635000Y-3205000D01*
X5635000Y-3175000D02*
X5605000Y-3205000D01*
X5605000Y-3275000D02*
X5635000Y-3305000D01*
X5635000Y-3275000D02*
X5605000Y-3305000D01*
X5615000Y-1105000D02*
X5645000Y-1135000D01*
X5645000Y-1105000D02*
X5615000Y-1135000D01*
X5615000Y-1195000D02*
X5645000Y-1225000D01*
X5645000Y-1195000D02*
X5615000Y-1225000D01*
X5615000Y-1295000D02*
X5645000Y-1325000D01*
X5645000Y-1295000D02*
X5615000Y-1325000D01*
X5615000Y-1385000D02*
X5645000Y-1415000D01*
X5645000Y-1385000D02*
X5615000Y-1415000D01*
X5615000Y-1485000D02*
X5645000Y-1515000D01*
X5645000Y-1485000D02*
X5615000Y-1515000D01*
X5655000Y-945000D02*
X5685000Y-975000D01*
X5685000Y-945000D02*
X5655000Y-975000D01*
X5655000Y-1675000D02*
X5685000Y-1705000D01*
X5685000Y-1675000D02*
X5655000Y-1705000D01*
X5665000Y-3465000D02*
X5695000Y-3495000D01*
X5695000Y-3465000D02*
X5665000Y-3495000D01*
X5685000Y-2755000D02*
X5715000Y-2785000D01*
X5715000Y-2755000D02*
X5685000Y-2785000D01*
X5715000Y-2895000D02*
X5745000Y-2925000D01*
X5745000Y-2895000D02*
X5715000Y-2925000D01*
X5715000Y-2985000D02*
X5745000Y-3015000D01*
X5745000Y-2985000D02*
X5715000Y-3015000D01*
X5715000Y-3085000D02*
X5745000Y-3115000D01*
X5745000Y-3085000D02*
X5715000Y-3115000D01*
X5715000Y-3175000D02*
X5745000Y-3205000D01*
X5745000Y-3175000D02*
X5715000Y-3205000D01*
X5715000Y-3275000D02*
X5745000Y-3305000D01*
X5745000Y-3275000D02*
X5715000Y-3305000D01*
X5725000Y-1105000D02*
X5755000Y-1135000D01*
X5755000Y-1105000D02*
X5725000Y-1135000D01*
X5725000Y-1195000D02*
X5755000Y-1225000D01*
X5755000Y-1195000D02*
X5725000Y-1225000D01*
X5725000Y-1295000D02*
X5755000Y-1325000D01*
X5755000Y-1295000D02*
X5725000Y-1325000D01*
X5725000Y-1385000D02*
X5755000Y-1415000D01*
X5755000Y-1385000D02*
X5725000Y-1415000D01*
X5725000Y-1485000D02*
X5755000Y-1515000D01*
X5755000Y-1485000D02*
X5725000Y-1515000D01*
X5725000Y-1675000D02*
X5755000Y-1705000D01*
X5755000Y-1675000D02*
X5725000Y-1705000D01*
X5735000Y-945000D02*
X5765000Y-975000D01*
X5765000Y-945000D02*
X5735000Y-975000D01*
X5735000Y-3465000D02*
X5765000Y-3495000D01*
X5765000Y-3465000D02*
X5735000Y-3495000D01*
X5765000Y-2755000D02*
X5795000Y-2785000D01*
X5795000Y-2755000D02*
X5765000Y-2785000D01*
X5795000Y-1675000D02*
X5825000Y-1705000D01*
X5825000Y-1675000D02*
X5795000Y-1705000D01*
X5805000Y-945000D02*
X5835000Y-975000D01*
X5835000Y-945000D02*
X5805000Y-975000D01*
X5805000Y-3465000D02*
X5835000Y-3495000D01*
X5835000Y-3465000D02*
X5805000Y-3495000D01*
X5845000Y-2755000D02*
X5875000Y-2785000D01*
X5875000Y-2755000D02*
X5845000Y-2785000D01*
X5855000Y-995000D02*
X5885000Y-1025000D01*
X5885000Y-995000D02*
X5855000Y-1025000D01*
X5855000Y-1065000D02*
X5885000Y-1095000D01*
X5885000Y-1065000D02*
X5855000Y-1095000D01*
X5855000Y-1125000D02*
X5885000Y-1155000D01*
X5885000Y-1125000D02*
X5855000Y-1155000D01*
X5855000Y-1195000D02*
X5885000Y-1225000D01*
X5885000Y-1195000D02*
X5855000Y-1225000D01*
X5855000Y-1275000D02*
X5885000Y-1305000D01*
X5885000Y-1275000D02*
X5855000Y-1305000D01*
X5855000Y-1345000D02*
X5885000Y-1375000D01*
X5885000Y-1345000D02*
X5855000Y-1375000D01*
X5855000Y-1415000D02*
X5885000Y-1445000D01*
X5885000Y-1415000D02*
X5855000Y-1445000D01*
X5855000Y-1485000D02*
X5885000Y-1515000D01*
X5885000Y-1485000D02*
X5855000Y-1515000D01*
X5855000Y-1555000D02*
X5885000Y-1585000D01*
X5885000Y-1555000D02*
X5855000Y-1585000D01*
X5855000Y-1625000D02*
X5885000Y-1655000D01*
X5885000Y-1625000D02*
X5855000Y-1655000D01*
X5855000Y-2845000D02*
X5885000Y-2875000D01*
X5885000Y-2845000D02*
X5855000Y-2875000D01*
X5855000Y-2925000D02*
X5885000Y-2955000D01*
X5885000Y-2925000D02*
X5855000Y-2955000D01*
X5855000Y-3005000D02*
X5885000Y-3035000D01*
X5885000Y-3005000D02*
X5855000Y-3035000D01*
X5855000Y-3085000D02*
X5885000Y-3115000D01*
X5885000Y-3085000D02*
X5855000Y-3115000D01*
X5855000Y-3165000D02*
X5885000Y-3195000D01*
X5885000Y-3165000D02*
X5855000Y-3195000D01*
X5855000Y-3255000D02*
X5885000Y-3285000D01*
X5885000Y-3255000D02*
X5855000Y-3285000D01*
X5855000Y-3335000D02*
X5885000Y-3365000D01*
X5885000Y-3335000D02*
X5855000Y-3365000D01*
X5855000Y-3415000D02*
X5885000Y-3445000D01*
X5885000Y-3415000D02*
X5855000Y-3445000D01*
X6275000Y-1155000D02*
X6305000Y-1185000D01*
X6305000Y-1155000D02*
X6275000Y-1185000D01*
X6275000Y-1255000D02*
X6305000Y-1285000D01*
X6305000Y-1255000D02*
X6275000Y-1285000D01*
X6275000Y-1355000D02*
X6305000Y-1385000D01*
X6305000Y-1355000D02*
X6275000Y-1385000D01*
X6275000Y-1455000D02*
X6305000Y-1485000D01*
X6305000Y-1455000D02*
X6275000Y-1485000D01*
X6275000Y-1555000D02*
X6305000Y-1585000D01*
X6305000Y-1555000D02*
X6275000Y-1585000D01*
X6275000Y-1655000D02*
X6305000Y-1685000D01*
X6305000Y-1655000D02*
X6275000Y-1685000D01*
X6275000Y-1755000D02*
X6305000Y-1785000D01*
X6305000Y-1755000D02*
X6275000Y-1785000D01*
X6275000Y-1855000D02*
X6305000Y-1885000D01*
X6305000Y-1855000D02*
X6275000Y-1885000D01*
X6385000Y-1155000D02*
X6415000Y-1185000D01*
X6415000Y-1155000D02*
X6385000Y-1185000D01*
X6385000Y-1255000D02*
X6415000Y-1285000D01*
X6415000Y-1255000D02*
X6385000Y-1285000D01*
X6385000Y-1355000D02*
X6415000Y-1385000D01*
X6415000Y-1355000D02*
X6385000Y-1385000D01*
X6385000Y-1455000D02*
X6415000Y-1485000D01*
X6415000Y-1455000D02*
X6385000Y-1485000D01*
X6385000Y-1555000D02*
X6415000Y-1585000D01*
X6415000Y-1555000D02*
X6385000Y-1585000D01*
X6385000Y-1655000D02*
X6415000Y-1685000D01*
X6415000Y-1655000D02*
X6385000Y-1685000D01*
X6385000Y-1755000D02*
X6415000Y-1785000D01*
X6415000Y-1755000D02*
X6385000Y-1785000D01*
X6385000Y-1855000D02*
X6415000Y-1885000D01*
X6415000Y-1855000D02*
X6385000Y-1885000D01*
X6485000Y-1155000D02*
X6515000Y-1185000D01*
X6515000Y-1155000D02*
X6485000Y-1185000D01*
X6485000Y-1255000D02*
X6515000Y-1285000D01*
X6515000Y-1255000D02*
X6485000Y-1285000D01*
X6485000Y-1355000D02*
X6515000Y-1385000D01*
X6515000Y-1355000D02*
X6485000Y-1385000D01*
X6485000Y-1455000D02*
X6515000Y-1485000D01*
X6515000Y-1455000D02*
X6485000Y-1485000D01*
X6485000Y-1555000D02*
X6515000Y-1585000D01*
X6515000Y-1555000D02*
X6485000Y-1585000D01*
X6485000Y-1655000D02*
X6515000Y-1685000D01*
X6515000Y-1655000D02*
X6485000Y-1685000D01*
X6485000Y-1755000D02*
X6515000Y-1785000D01*
X6515000Y-1755000D02*
X6485000Y-1785000D01*
X6485000Y-1855000D02*
X6515000Y-1885000D01*
X6515000Y-1855000D02*
X6485000Y-1885000D01*
X6585000Y-1155000D02*
X6615000Y-1185000D01*
X6615000Y-1155000D02*
X6585000Y-1185000D01*
X6585000Y-1255000D02*
X6615000Y-1285000D01*
X6615000Y-1255000D02*
X6585000Y-1285000D01*
X6585000Y-1355000D02*
X6615000Y-1385000D01*
X6615000Y-1355000D02*
X6585000Y-1385000D01*
X6585000Y-1455000D02*
X6615000Y-1485000D01*
X6615000Y-1455000D02*
X6585000Y-1485000D01*
X6585000Y-1555000D02*
X6615000Y-1585000D01*
X6615000Y-1555000D02*
X6585000Y-1585000D01*
X6585000Y-1655000D02*
X6615000Y-1685000D01*
X6615000Y-1655000D02*
X6585000Y-1685000D01*
X6585000Y-1755000D02*
X6615000Y-1785000D01*
X6615000Y-1755000D02*
X6585000Y-1785000D01*
X6585000Y-1855000D02*
X6615000Y-1885000D01*
X6615000Y-1855000D02*
X6585000Y-1885000D01*
X6685000Y-1155000D02*
X6715000Y-1185000D01*
X6715000Y-1155000D02*
X6685000Y-1185000D01*
X6685000Y-1255000D02*
X6715000Y-1285000D01*
X6715000Y-1255000D02*
X6685000Y-1285000D01*
X6685000Y-1355000D02*
X6715000Y-1385000D01*
X6715000Y-1355000D02*
X6685000Y-1385000D01*
X6685000Y-1455000D02*
X6715000Y-1485000D01*
X6715000Y-1455000D02*
X6685000Y-1485000D01*
X6685000Y-1555000D02*
X6715000Y-1585000D01*
X6715000Y-1555000D02*
X6685000Y-1585000D01*
X6685000Y-1655000D02*
X6715000Y-1685000D01*
X6715000Y-1655000D02*
X6685000Y-1685000D01*
X6685000Y-1755000D02*
X6715000Y-1785000D01*
X6715000Y-1755000D02*
X6685000Y-1785000D01*
X6685000Y-1855000D02*
X6715000Y-1885000D01*
X6715000Y-1855000D02*
X6685000Y-1885000D01*
X3020000Y-4360000D02*
G75*
G02*
X2980000Y-4360000I-20000J0D01*
G01*
X2980000Y-4360000D02*
G75*
G02*
X3020000Y-4360000I20000J0D01*
G01*
X3020000Y-4450000D02*
G75*
G02*
X2980000Y-4450000I-20000J0D01*
G01*
X2980000Y-4450000D02*
G75*
G02*
X3020000Y-4450000I20000J0D01*
G01*
X3070000Y-4080000D02*
G75*
G02*
X3030000Y-4080000I-20000J0D01*
G01*
X3030000Y-4080000D02*
G75*
G02*
X3070000Y-4080000I20000J0D01*
G01*
X3070000Y-4180000D02*
G75*
G02*
X3030000Y-4180000I-20000J0D01*
G01*
X3030000Y-4180000D02*
G75*
G02*
X3070000Y-4180000I20000J0D01*
G01*
X3100000Y-4360000D02*
G75*
G02*
X3060000Y-4360000I-20000J0D01*
G01*
X3060000Y-4360000D02*
G75*
G02*
X3100000Y-4360000I20000J0D01*
G01*
X3100000Y-4450000D02*
G75*
G02*
X3060000Y-4450000I-20000J0D01*
G01*
X3060000Y-4450000D02*
G75*
G02*
X3100000Y-4450000I20000J0D01*
G01*
X3130000Y-4640000D02*
G75*
G02*
X3090000Y-4640000I-20000J0D01*
G01*
X3090000Y-4640000D02*
G75*
G02*
X3130000Y-4640000I20000J0D01*
G01*
X3180000Y-4080000D02*
G75*
G02*
X3140000Y-4080000I-20000J0D01*
G01*
X3140000Y-4080000D02*
G75*
G02*
X3180000Y-4080000I20000J0D01*
G01*
X3180000Y-4180000D02*
G75*
G02*
X3140000Y-4180000I-20000J0D01*
G01*
X3140000Y-4180000D02*
G75*
G02*
X3180000Y-4180000I20000J0D01*
G01*
X3190000Y-4360000D02*
G75*
G02*
X3150000Y-4360000I-20000J0D01*
G01*
X3150000Y-4360000D02*
G75*
G02*
X3190000Y-4360000I20000J0D01*
G01*
X3190000Y-4460000D02*
G75*
G02*
X3150000Y-4460000I-20000J0D01*
G01*
X3150000Y-4460000D02*
G75*
G02*
X3190000Y-4460000I20000J0D01*
G01*
X3330000Y-4410000D02*
G75*
G02*
X3290000Y-4410000I-20000J0D01*
G01*
X3290000Y-4410000D02*
G75*
G02*
X3330000Y-4410000I20000J0D01*
G01*
X3430000Y-4410000D02*
G75*
G02*
X3390000Y-4410000I-20000J0D01*
G01*
X3390000Y-4410000D02*
G75*
G02*
X3430000Y-4410000I20000J0D01*
G01*
X3510000Y-4820000D02*
G75*
G02*
X3470000Y-4820000I-20000J0D01*
G01*
X3470000Y-4820000D02*
G75*
G02*
X3510000Y-4820000I20000J0D01*
G01*
X3530000Y-4410000D02*
G75*
G02*
X3490000Y-4410000I-20000J0D01*
G01*
X3490000Y-4410000D02*
G75*
G02*
X3530000Y-4410000I20000J0D01*
G01*
X3630000Y-4410000D02*
G75*
G02*
X3590000Y-4410000I-20000J0D01*
G01*
X3590000Y-4410000D02*
G75*
G02*
X3630000Y-4410000I20000J0D01*
G01*
X3780000Y-4470000D02*
G75*
G02*
X3740000Y-4470000I-20000J0D01*
G01*
X3740000Y-4470000D02*
G75*
G02*
X3780000Y-4470000I20000J0D01*
G01*
X3790000Y-4160000D02*
G75*
G02*
X3750000Y-4160000I-20000J0D01*
G01*
X3750000Y-4160000D02*
G75*
G02*
X3790000Y-4160000I20000J0D01*
G01*
X3890000Y-4210000D02*
G75*
G02*
X3850000Y-4210000I-20000J0D01*
G01*
X3850000Y-4210000D02*
G75*
G02*
X3890000Y-4210000I20000J0D01*
G01*
X3900000Y-3920000D02*
G75*
G02*
X3860000Y-3920000I-20000J0D01*
G01*
X3860000Y-3920000D02*
G75*
G02*
X3900000Y-3920000I20000J0D01*
G01*
X4130000Y-3480000D02*
G75*
G02*
X4090000Y-3480000I-20000J0D01*
G01*
X4090000Y-3480000D02*
G75*
G02*
X4130000Y-3480000I20000J0D01*
G01*
X4410000Y-1840000D02*
G75*
G02*
X4370000Y-1840000I-20000J0D01*
G01*
X4370000Y-1840000D02*
G75*
G02*
X4410000Y-1840000I20000J0D01*
G01*
X5270000Y-4330000D02*
G75*
G02*
X5230000Y-4330000I-20000J0D01*
G01*
X5230000Y-4330000D02*
G75*
G02*
X5270000Y-4330000I20000J0D01*
G01*
X5275000Y-4615000D02*
G75*
G02*
X5235000Y-4615000I-20000J0D01*
G01*
X5235000Y-4615000D02*
G75*
G02*
X5275000Y-4615000I20000J0D01*
G01*
X5470000Y-4290000D02*
G75*
G02*
X5430000Y-4290000I-20000J0D01*
G01*
X5430000Y-4290000D02*
G75*
G02*
X5470000Y-4290000I20000J0D01*
G01*
X5560000Y-4290000D02*
G75*
G02*
X5520000Y-4290000I-20000J0D01*
G01*
X5520000Y-4290000D02*
G75*
G02*
X5560000Y-4290000I20000J0D01*
G01*
X5590000Y-3920000D02*
G75*
G02*
X5550000Y-3920000I-20000J0D01*
G01*
X5550000Y-3920000D02*
G75*
G02*
X5590000Y-3920000I20000J0D01*
G01*
X5650000Y-4290000D02*
G75*
G02*
X5610000Y-4290000I-20000J0D01*
G01*
X5610000Y-4290000D02*
G75*
G02*
X5650000Y-4290000I20000J0D01*
G01*
X5750000Y-4290000D02*
G75*
G02*
X5710000Y-4290000I-20000J0D01*
G01*
X5710000Y-4290000D02*
G75*
G02*
X5750000Y-4290000I20000J0D01*
G01*
X5870000Y-4220000D02*
G75*
G02*
X5830000Y-4220000I-20000J0D01*
G01*
X5830000Y-4220000D02*
G75*
G02*
X5870000Y-4220000I20000J0D01*
G01*
X5870000Y-4350000D02*
G75*
G02*
X5830000Y-4350000I-20000J0D01*
G01*
X5830000Y-4350000D02*
G75*
G02*
X5870000Y-4350000I20000J0D01*
G01*
X5908469Y-4496156D02*
G75*
G02*
X5868469Y-4496156I-20000J0D01*
G01*
X5868469Y-4496156D02*
G75*
G02*
X5908469Y-4496156I20000J0D01*
G01*
X5920000Y-4600000D02*
G75*
G02*
X5880000Y-4600000I-20000J0D01*
G01*
X5880000Y-4600000D02*
G75*
G02*
X5920000Y-4600000I20000J0D01*
G01*
X5930000Y-4720000D02*
G75*
G02*
X5890000Y-4720000I-20000J0D01*
G01*
X5890000Y-4720000D02*
G75*
G02*
X5930000Y-4720000I20000J0D01*
G01*
X5960000Y-4280000D02*
G75*
G02*
X5920000Y-4280000I-20000J0D01*
G01*
X5920000Y-4280000D02*
G75*
G02*
X5960000Y-4280000I20000J0D01*
G01*
X6010000Y-4500000D02*
G75*
G02*
X5970000Y-4500000I-20000J0D01*
G01*
X5970000Y-4500000D02*
G75*
G02*
X6010000Y-4500000I20000J0D01*
G01*
X6010000Y-4610000D02*
G75*
G02*
X5970000Y-4610000I-20000J0D01*
G01*
X5970000Y-4610000D02*
G75*
G02*
X6010000Y-4610000I20000J0D01*
G01*
X6030000Y-4220000D02*
G75*
G02*
X5990000Y-4220000I-20000J0D01*
G01*
X5990000Y-4220000D02*
G75*
G02*
X6030000Y-4220000I20000J0D01*
G01*
X6030000Y-4350000D02*
G75*
G02*
X5990000Y-4350000I-20000J0D01*
G01*
X5990000Y-4350000D02*
G75*
G02*
X6030000Y-4350000I20000J0D01*
G01*
X2535000Y-4935000D02*
X2535000Y-4995000D01*
X2505000Y-4965000D02*
X2565000Y-4965000D01*
X2535000Y-5080000D02*
X2535000Y-5140000D01*
X2505000Y-5110000D02*
X2565000Y-5110000D01*
X2540000Y-5220000D02*
X2540000Y-5280000D01*
X2510000Y-5250000D02*
X2570000Y-5250000D01*
X3370000Y-5000000D02*
X3370000Y-5060000D01*
X3340000Y-5030000D02*
X3400000Y-5030000D01*
X3370000Y-5120000D02*
X3370000Y-5180000D01*
X3340000Y-5150000D02*
X3400000Y-5150000D01*
X3375000Y-4895000D02*
X3375000Y-4955000D01*
X3345000Y-4925000D02*
X3405000Y-4925000D01*
X3910000Y-1980000D02*
X3910000Y-2040000D01*
X3880000Y-2010000D02*
X3940000Y-2010000D01*
X3960000Y-4580000D02*
X3960000Y-4640000D01*
X3930000Y-4610000D02*
X3990000Y-4610000D01*
X5080000Y-4170000D02*
X5080000Y-4230000D01*
X5050000Y-4200000D02*
X5110000Y-4200000D01*
X5230000Y-5105000D02*
X5230000Y-5165000D01*
X5200000Y-5135000D02*
X5260000Y-5135000D01*
X5230000Y-5215000D02*
X5230000Y-5275000D01*
X5200000Y-5245000D02*
X5260000Y-5245000D01*
X5230000Y-5330000D02*
X5230000Y-5390000D01*
X5200000Y-5360000D02*
X5260000Y-5360000D01*
X5230000Y-5440000D02*
X5230000Y-5500000D01*
X5200000Y-5470000D02*
X5260000Y-5470000D01*
X6140000Y-5405000D02*
X6140000Y-5465000D01*
X6110000Y-5435000D02*
X6170000Y-5435000D01*
X6145000Y-5130000D02*
X6145000Y-5190000D01*
X6115000Y-5160000D02*
X6175000Y-5160000D01*
X6145000Y-5255000D02*
X6145000Y-5315000D01*
X6115000Y-5285000D02*
X6175000Y-5285000D01*
X2035356Y-3595356D02*
X2035356Y-3524644D01*
X1964644Y-3524644D01*
X1964644Y-3595356D01*
X2035356Y-3595356D01*
X2035356Y-3855356D02*
X2035356Y-3784644D01*
X1964644Y-3784644D01*
X1964644Y-3855356D01*
X2035356Y-3855356D01*
X3657356Y-5515356D02*
X3657356Y-5444644D01*
X3586644Y-5444644D01*
X3586644Y-5515356D01*
X3657356Y-5515356D01*
X3911356Y-5515356D02*
X3911356Y-5444644D01*
X3840644Y-5444644D01*
X3840644Y-5515356D01*
X3911356Y-5515356D01*
X4165356Y-5515356D02*
X4165356Y-5444644D01*
X4094644Y-5444644D01*
X4094644Y-5515356D01*
X4165356Y-5515356D01*
X4275356Y-4105356D02*
X4275356Y-4034644D01*
X4204644Y-4034644D01*
X4204644Y-4105356D01*
X4275356Y-4105356D01*
X4275356Y-5105356D02*
X4275356Y-5034644D01*
X4204644Y-5034644D01*
X4204644Y-5105356D01*
X4275356Y-5105356D01*
X4419356Y-5515356D02*
X4419356Y-5444644D01*
X4348644Y-5444644D01*
X4348644Y-5515356D01*
X4419356Y-5515356D01*
X4673356Y-5515356D02*
X4673356Y-5444644D01*
X4602644Y-5444644D01*
X4602644Y-5515356D01*
X4673356Y-5515356D01*
X4927356Y-5515356D02*
X4927356Y-5444644D01*
X4856644Y-5444644D01*
X4856644Y-5515356D01*
X4927356Y-5515356D01*
X4929106Y-4089106D02*
X4929106Y-4018394D01*
X4858394Y-4018394D01*
X4858394Y-4089106D01*
X4929106Y-4089106D01*
X4929106Y-5089106D02*
X4929106Y-5018394D01*
X4858394Y-5018394D01*
X4858394Y-5089106D01*
X4929106Y-5089106D01*
X6930356Y-3955356D02*
X6930356Y-3884644D01*
X6859644Y-3884644D01*
X6859644Y-3955356D01*
X6930356Y-3955356D01*
X6795000Y-3970000D02*
X6995000Y-3970000D01*
X6995000Y-3870000D02*
G75*
G02*
X6995000Y-3970000I0J-50000D01*
G01*
X6995000Y-3870000D02*
X6795000Y-3870000D01*
X6795000Y-3870000D02*
G75*
G03*
X6795000Y-3970000I0J-50000D01*
G01*
X6930356Y-4555356D02*
X6930356Y-4484644D01*
X6859644Y-4484644D01*
X6859644Y-4555356D01*
X6930356Y-4555356D01*
X6795000Y-4570000D02*
X6995000Y-4570000D01*
X6995000Y-4470000D02*
G75*
G02*
X6995000Y-4570000I0J-50000D01*
G01*
X6995000Y-4470000D02*
X6795000Y-4470000D01*
X6795000Y-4470000D02*
G75*
G03*
X6795000Y-4570000I0J-50000D01*
G01*
X7400356Y-4255356D02*
X7400356Y-4184644D01*
X7329644Y-4184644D01*
X7329644Y-4255356D01*
X7400356Y-4255356D01*
X7415000Y-4320000D02*
X7415000Y-4120000D01*
X7315000Y-4120000D02*
G75*
G02*
X7415000Y-4120000I50000J0D01*
G01*
X7315000Y-4120000D02*
X7315000Y-4320000D01*
X7315000Y-4320000D02*
G75*
G03*
X7415000Y-4320000I50000J0D01*
G01*
D11*
X640000Y-2900000D02*
X740000Y-2800000D01*
X640000Y-2700000D01*
X540000Y-2800000D01*
X640000Y-2900000D01*
D12*
X540000Y-2725000D02*
X540000Y-2875000D01*
X740000Y-2875000D02*
G75*
G02*
X540000Y-2875000I-100000J0D01*
G01*
X740000Y-2875000D02*
X740000Y-2725000D01*
X740000Y-2725000D02*
G75*
G03*
X540000Y-2725000I-100000J0D01*
G01*
D11*
X1940000Y-1632000D02*
X2040000Y-1532000D01*
X1940000Y-1432000D01*
X1840000Y-1532000D01*
X1940000Y-1632000D01*
D12*
X1840000Y-1457000D02*
X1840000Y-1607000D01*
X2040000Y-1607000D02*
G75*
G02*
X1840000Y-1607000I-100000J0D01*
G01*
X2040000Y-1607000D02*
X2040000Y-1457000D01*
X2040000Y-1457000D02*
G75*
G03*
X1840000Y-1457000I-100000J0D01*
G01*
D11*
X6315767Y-2940241D02*
X6415767Y-2840241D01*
X6315767Y-2740242D01*
X6215767Y-2840241D01*
X6315767Y-2940241D01*
D12*
X6415767Y-2915241D02*
X6415767Y-2765242D01*
X6215767Y-2765242D02*
G75*
G02*
X6415767Y-2765242I100000J0D01*
G01*
X6215767Y-2765242D02*
X6215767Y-2915241D01*
X6215767Y-2915241D02*
G75*
G03*
X6415767Y-2915241I100000J0D01*
G01*
D11*
X7615767Y-1672241D02*
X7715767Y-1572241D01*
X7615767Y-1472241D01*
X7515767Y-1572241D01*
X7615767Y-1672241D01*
D12*
X7715767Y-1647241D02*
X7715767Y-1497241D01*
X7515767Y-1497241D02*
G75*
G02*
X7715767Y-1497241I100000J0D01*
G01*
X7515767Y-1497241D02*
X7515767Y-1647241D01*
X7515767Y-1647241D02*
G75*
G03*
X7715767Y-1647241I100000J0D01*
G01*
D13*
X200000Y-200000D02*
X500000Y-500000D01*
X500000Y-200000D02*
X200000Y-500000D01*
X500000Y-350000D02*
G75*
G02*
X200000Y-350000I-150000J0D01*
G01*
X200000Y-350000D02*
G75*
G02*
X500000Y-350000I150000J0D01*
G01*
X200000Y-5850000D02*
X500000Y-6150000D01*
X500000Y-5850000D02*
X200000Y-6150000D01*
X500000Y-6000000D02*
G75*
G02*
X200000Y-6000000I-150000J0D01*
G01*
X200000Y-6000000D02*
G75*
G02*
X500000Y-6000000I150000J0D01*
G01*
X2390000Y-200000D02*
X2690000Y-500000D01*
X2690000Y-200000D02*
X2390000Y-500000D01*
X2690000Y-350000D02*
G75*
G02*
X2390000Y-350000I-150000J0D01*
G01*
X2390000Y-350000D02*
G75*
G02*
X2690000Y-350000I150000J0D01*
G01*
X4168000Y-2060000D02*
X4468000Y-2360000D01*
X4468000Y-2060000D02*
X4168000Y-2360000D01*
X4468000Y-2210000D02*
G75*
G02*
X4168000Y-2210000I-150000J0D01*
G01*
X4168000Y-2210000D02*
G75*
G02*
X4468000Y-2210000I150000J0D01*
G01*
X6200000Y-200000D02*
X6500000Y-500000D01*
X6500000Y-200000D02*
X6200000Y-500000D01*
X6500000Y-350000D02*
G75*
G02*
X6200000Y-350000I-150000J0D01*
G01*
X6200000Y-350000D02*
G75*
G02*
X6500000Y-350000I150000J0D01*
G01*
X7755000Y-200000D02*
X8055000Y-500000D01*
X8055000Y-200000D02*
X7755000Y-500000D01*
X8055000Y-350000D02*
G75*
G02*
X7755000Y-350000I-150000J0D01*
G01*
X7755000Y-350000D02*
G75*
G02*
X8055000Y-350000I150000J0D01*
G01*
X7755000Y-5850000D02*
X8055000Y-6150000D01*
X8055000Y-5850000D02*
X7755000Y-6150000D01*
X8055000Y-6000000D02*
G75*
G02*
X7755000Y-6000000I-150000J0D01*
G01*
X7755000Y-6000000D02*
G75*
G02*
X8055000Y-6000000I150000J0D01*
G01*
D11*
X258277Y-6663984D02*
X258277Y-6463984D01*
X258277Y-6463984D02*
X305896Y-6463984D01*
X305896Y-6463984D02*
X334467Y-6473508D01*
X334467Y-6473508D02*
X353515Y-6492555D01*
X353515Y-6492555D02*
X363039Y-6511603D01*
X363039Y-6511603D02*
X372562Y-6549698D01*
X372562Y-6549698D02*
X372562Y-6578269D01*
X372562Y-6578269D02*
X363039Y-6616365D01*
X363039Y-6616365D02*
X353515Y-6635412D01*
X353515Y-6635412D02*
X334467Y-6654460D01*
X334467Y-6654460D02*
X305896Y-6663984D01*
X305896Y-6663984D02*
X258277Y-6663984D01*
X458277Y-6663984D02*
X458277Y-6530650D01*
X458277Y-6568746D02*
X467801Y-6549698D01*
X467801Y-6549698D02*
X477324Y-6540174D01*
X477324Y-6540174D02*
X496372Y-6530650D01*
X496372Y-6530650D02*
X515420Y-6530650D01*
X582086Y-6663984D02*
X582086Y-6530650D01*
X582086Y-6463984D02*
X572563Y-6473508D01*
X572563Y-6473508D02*
X582086Y-6483031D01*
X582086Y-6483031D02*
X591610Y-6473508D01*
X591610Y-6473508D02*
X582086Y-6463984D01*
X582086Y-6463984D02*
X582086Y-6483031D01*
X705896Y-6663984D02*
X686848Y-6654460D01*
X686848Y-6654460D02*
X677324Y-6635412D01*
X677324Y-6635412D02*
X677324Y-6463984D01*
X810658Y-6663984D02*
X791610Y-6654460D01*
X791610Y-6654460D02*
X782086Y-6635412D01*
X782086Y-6635412D02*
X782086Y-6463984D01*
X1039229Y-6663984D02*
X1039229Y-6463984D01*
X1039229Y-6463984D02*
X1105896Y-6606841D01*
X1105896Y-6606841D02*
X1172563Y-6463984D01*
X1172563Y-6463984D02*
X1172563Y-6663984D01*
X1353515Y-6663984D02*
X1353515Y-6559222D01*
X1353515Y-6559222D02*
X1343991Y-6540174D01*
X1343991Y-6540174D02*
X1324944Y-6530650D01*
X1324944Y-6530650D02*
X1286848Y-6530650D01*
X1286848Y-6530650D02*
X1267801Y-6540174D01*
X1353515Y-6654460D02*
X1334467Y-6663984D01*
X1334467Y-6663984D02*
X1286848Y-6663984D01*
X1286848Y-6663984D02*
X1267801Y-6654460D01*
X1267801Y-6654460D02*
X1258277Y-6635412D01*
X1258277Y-6635412D02*
X1258277Y-6616365D01*
X1258277Y-6616365D02*
X1267801Y-6597317D01*
X1267801Y-6597317D02*
X1286848Y-6587793D01*
X1286848Y-6587793D02*
X1334467Y-6587793D01*
X1334467Y-6587793D02*
X1353515Y-6578269D01*
X1448753Y-6530650D02*
X1448753Y-6730650D01*
X1448753Y-6540174D02*
X1467801Y-6530650D01*
X1467801Y-6530650D02*
X1505896Y-6530650D01*
X1505896Y-6530650D02*
X1524943Y-6540174D01*
X1524943Y-6540174D02*
X1534467Y-6549698D01*
X1534467Y-6549698D02*
X1543991Y-6568746D01*
X1543991Y-6568746D02*
X1543991Y-6625888D01*
X1543991Y-6625888D02*
X1534467Y-6644936D01*
X1534467Y-6644936D02*
X1524943Y-6654460D01*
X1524943Y-6654460D02*
X1505896Y-6663984D01*
X1505896Y-6663984D02*
X1467801Y-6663984D01*
X1467801Y-6663984D02*
X1448753Y-6654460D01*
X1629705Y-6644936D02*
X1639229Y-6654460D01*
X1639229Y-6654460D02*
X1629705Y-6663984D01*
X1629705Y-6663984D02*
X1620182Y-6654460D01*
X1620182Y-6654460D02*
X1629705Y-6644936D01*
X1629705Y-6644936D02*
X1629705Y-6663984D01*
X1629705Y-6540174D02*
X1639229Y-6549698D01*
X1639229Y-6549698D02*
X1629705Y-6559222D01*
X1629705Y-6559222D02*
X1620182Y-6549698D01*
X1620182Y-6549698D02*
X1629705Y-6540174D01*
X1629705Y-6540174D02*
X1629705Y-6559222D01*
D12*
X-32500Y-6977500D02*
X-2500Y-7007500D01*
X-2500Y-6977500D02*
X-32500Y-7007500D01*
D11*
X296372Y-6883984D02*
X315420Y-6883984D01*
X315420Y-6883984D02*
X334467Y-6893508D01*
X334467Y-6893508D02*
X343991Y-6903031D01*
X343991Y-6903031D02*
X353515Y-6922079D01*
X353515Y-6922079D02*
X363039Y-6960174D01*
X363039Y-6960174D02*
X363039Y-7007793D01*
X363039Y-7007793D02*
X353515Y-7045888D01*
X353515Y-7045888D02*
X343991Y-7064936D01*
X343991Y-7064936D02*
X334467Y-7074460D01*
X334467Y-7074460D02*
X315420Y-7083984D01*
X315420Y-7083984D02*
X296372Y-7083984D01*
X296372Y-7083984D02*
X277324Y-7074460D01*
X277324Y-7074460D02*
X267801Y-7064936D01*
X267801Y-7064936D02*
X258277Y-7045888D01*
X258277Y-7045888D02*
X248753Y-7007793D01*
X248753Y-7007793D02*
X248753Y-6960174D01*
X248753Y-6960174D02*
X258277Y-6922079D01*
X258277Y-6922079D02*
X267801Y-6903031D01*
X267801Y-6903031D02*
X277324Y-6893508D01*
X277324Y-6893508D02*
X296372Y-6883984D01*
X448753Y-7064936D02*
X458277Y-7074460D01*
X458277Y-7074460D02*
X448753Y-7083984D01*
X448753Y-7083984D02*
X439229Y-7074460D01*
X439229Y-7074460D02*
X448753Y-7064936D01*
X448753Y-7064936D02*
X448753Y-7083984D01*
X524944Y-6883984D02*
X648753Y-6883984D01*
X648753Y-6883984D02*
X582086Y-6960174D01*
X582086Y-6960174D02*
X610658Y-6960174D01*
X610658Y-6960174D02*
X629705Y-6969698D01*
X629705Y-6969698D02*
X639229Y-6979222D01*
X639229Y-6979222D02*
X648753Y-6998269D01*
X648753Y-6998269D02*
X648753Y-7045888D01*
X648753Y-7045888D02*
X639229Y-7064936D01*
X639229Y-7064936D02*
X629705Y-7074460D01*
X629705Y-7074460D02*
X610658Y-7083984D01*
X610658Y-7083984D02*
X553515Y-7083984D01*
X553515Y-7083984D02*
X534467Y-7074460D01*
X534467Y-7074460D02*
X524944Y-7064936D01*
X772562Y-6883984D02*
X791610Y-6883984D01*
X791610Y-6883984D02*
X810658Y-6893508D01*
X810658Y-6893508D02*
X820182Y-6903031D01*
X820182Y-6903031D02*
X829705Y-6922079D01*
X829705Y-6922079D02*
X839229Y-6960174D01*
X839229Y-6960174D02*
X839229Y-7007793D01*
X839229Y-7007793D02*
X829705Y-7045888D01*
X829705Y-7045888D02*
X820182Y-7064936D01*
X820182Y-7064936D02*
X810658Y-7074460D01*
X810658Y-7074460D02*
X791610Y-7083984D01*
X791610Y-7083984D02*
X772562Y-7083984D01*
X772562Y-7083984D02*
X753515Y-7074460D01*
X753515Y-7074460D02*
X743991Y-7064936D01*
X743991Y-7064936D02*
X734467Y-7045888D01*
X734467Y-7045888D02*
X724943Y-7007793D01*
X724943Y-7007793D02*
X724943Y-6960174D01*
X724943Y-6960174D02*
X734467Y-6922079D01*
X734467Y-6922079D02*
X743991Y-6903031D01*
X743991Y-6903031D02*
X753515Y-6893508D01*
X753515Y-6893508D02*
X772562Y-6883984D01*
X963039Y-6883984D02*
X982086Y-6883984D01*
X982086Y-6883984D02*
X1001134Y-6893508D01*
X1001134Y-6893508D02*
X1010658Y-6903031D01*
X1010658Y-6903031D02*
X1020182Y-6922079D01*
X1020182Y-6922079D02*
X1029705Y-6960174D01*
X1029705Y-6960174D02*
X1029705Y-7007793D01*
X1029705Y-7007793D02*
X1020182Y-7045888D01*
X1020182Y-7045888D02*
X1010658Y-7064936D01*
X1010658Y-7064936D02*
X1001134Y-7074460D01*
X1001134Y-7074460D02*
X982086Y-7083984D01*
X982086Y-7083984D02*
X963039Y-7083984D01*
X963039Y-7083984D02*
X943991Y-7074460D01*
X943991Y-7074460D02*
X934467Y-7064936D01*
X934467Y-7064936D02*
X924943Y-7045888D01*
X924943Y-7045888D02*
X915420Y-7007793D01*
X915420Y-7007793D02*
X915420Y-6960174D01*
X915420Y-6960174D02*
X924943Y-6922079D01*
X924943Y-6922079D02*
X934467Y-6903031D01*
X934467Y-6903031D02*
X943991Y-6893508D01*
X943991Y-6893508D02*
X963039Y-6883984D01*
X1115420Y-7083984D02*
X1115420Y-6950650D01*
X1115420Y-6969698D02*
X1124944Y-6960174D01*
X1124944Y-6960174D02*
X1143991Y-6950650D01*
X1143991Y-6950650D02*
X1172563Y-6950650D01*
X1172563Y-6950650D02*
X1191610Y-6960174D01*
X1191610Y-6960174D02*
X1201134Y-6979222D01*
X1201134Y-6979222D02*
X1201134Y-7083984D01*
X1201134Y-6979222D02*
X1210658Y-6960174D01*
X1210658Y-6960174D02*
X1229705Y-6950650D01*
X1229705Y-6950650D02*
X1258277Y-6950650D01*
X1258277Y-6950650D02*
X1277325Y-6960174D01*
X1277325Y-6960174D02*
X1286848Y-6979222D01*
X1286848Y-6979222D02*
X1286848Y-7083984D01*
X1382086Y-7083984D02*
X1382086Y-6950650D01*
X1382086Y-6969698D02*
X1391610Y-6960174D01*
X1391610Y-6960174D02*
X1410658Y-6950650D01*
X1410658Y-6950650D02*
X1439229Y-6950650D01*
X1439229Y-6950650D02*
X1458277Y-6960174D01*
X1458277Y-6960174D02*
X1467801Y-6979222D01*
X1467801Y-6979222D02*
X1467801Y-7083984D01*
X1467801Y-6979222D02*
X1477324Y-6960174D01*
X1477324Y-6960174D02*
X1496372Y-6950650D01*
X1496372Y-6950650D02*
X1524943Y-6950650D01*
X1524943Y-6950650D02*
X1543991Y-6960174D01*
X1543991Y-6960174D02*
X1553515Y-6979222D01*
X1553515Y-6979222D02*
X1553515Y-7083984D01*
X1943991Y-6874460D02*
X1772563Y-7131603D01*
X2201134Y-6883984D02*
X2220182Y-6883984D01*
X2220182Y-6883984D02*
X2239229Y-6893508D01*
X2239229Y-6893508D02*
X2248753Y-6903031D01*
X2248753Y-6903031D02*
X2258277Y-6922079D01*
X2258277Y-6922079D02*
X2267801Y-6960174D01*
X2267801Y-6960174D02*
X2267801Y-7007793D01*
X2267801Y-7007793D02*
X2258277Y-7045888D01*
X2258277Y-7045888D02*
X2248753Y-7064936D01*
X2248753Y-7064936D02*
X2239229Y-7074460D01*
X2239229Y-7074460D02*
X2220182Y-7083984D01*
X2220182Y-7083984D02*
X2201134Y-7083984D01*
X2201134Y-7083984D02*
X2182087Y-7074460D01*
X2182087Y-7074460D02*
X2172563Y-7064936D01*
X2172563Y-7064936D02*
X2163039Y-7045888D01*
X2163039Y-7045888D02*
X2153515Y-7007793D01*
X2153515Y-7007793D02*
X2153515Y-6960174D01*
X2153515Y-6960174D02*
X2163039Y-6922079D01*
X2163039Y-6922079D02*
X2172563Y-6903031D01*
X2172563Y-6903031D02*
X2182087Y-6893508D01*
X2182087Y-6893508D02*
X2201134Y-6883984D01*
X2353515Y-7064936D02*
X2363039Y-7074460D01*
X2363039Y-7074460D02*
X2353515Y-7083984D01*
X2353515Y-7083984D02*
X2343991Y-7074460D01*
X2343991Y-7074460D02*
X2353515Y-7064936D01*
X2353515Y-7064936D02*
X2353515Y-7083984D01*
X2486848Y-6883984D02*
X2505896Y-6883984D01*
X2505896Y-6883984D02*
X2524944Y-6893508D01*
X2524944Y-6893508D02*
X2534468Y-6903031D01*
X2534468Y-6903031D02*
X2543991Y-6922079D01*
X2543991Y-6922079D02*
X2553515Y-6960174D01*
X2553515Y-6960174D02*
X2553515Y-7007793D01*
X2553515Y-7007793D02*
X2543991Y-7045888D01*
X2543991Y-7045888D02*
X2534468Y-7064936D01*
X2534468Y-7064936D02*
X2524944Y-7074460D01*
X2524944Y-7074460D02*
X2505896Y-7083984D01*
X2505896Y-7083984D02*
X2486848Y-7083984D01*
X2486848Y-7083984D02*
X2467801Y-7074460D01*
X2467801Y-7074460D02*
X2458277Y-7064936D01*
X2458277Y-7064936D02*
X2448753Y-7045888D01*
X2448753Y-7045888D02*
X2439229Y-7007793D01*
X2439229Y-7007793D02*
X2439229Y-6960174D01*
X2439229Y-6960174D02*
X2448753Y-6922079D01*
X2448753Y-6922079D02*
X2458277Y-6903031D01*
X2458277Y-6903031D02*
X2467801Y-6893508D01*
X2467801Y-6893508D02*
X2486848Y-6883984D01*
X2743991Y-7083984D02*
X2629706Y-7083984D01*
X2686848Y-7083984D02*
X2686848Y-6883984D01*
X2686848Y-6883984D02*
X2667801Y-6912555D01*
X2667801Y-6912555D02*
X2648753Y-6931603D01*
X2648753Y-6931603D02*
X2629706Y-6941127D01*
X2934467Y-7083984D02*
X2820182Y-7083984D01*
X2877325Y-7083984D02*
X2877325Y-6883984D01*
X2877325Y-6883984D02*
X2858277Y-6912555D01*
X2858277Y-6912555D02*
X2839229Y-6931603D01*
X2839229Y-6931603D02*
X2820182Y-6941127D01*
X3048753Y-6969698D02*
X3029706Y-6960174D01*
X3029706Y-6960174D02*
X3020182Y-6950650D01*
X3020182Y-6950650D02*
X3010658Y-6931603D01*
X3010658Y-6931603D02*
X3010658Y-6922079D01*
X3010658Y-6922079D02*
X3020182Y-6903031D01*
X3020182Y-6903031D02*
X3029706Y-6893508D01*
X3029706Y-6893508D02*
X3048753Y-6883984D01*
X3048753Y-6883984D02*
X3086848Y-6883984D01*
X3086848Y-6883984D02*
X3105896Y-6893508D01*
X3105896Y-6893508D02*
X3115420Y-6903031D01*
X3115420Y-6903031D02*
X3124944Y-6922079D01*
X3124944Y-6922079D02*
X3124944Y-6931603D01*
X3124944Y-6931603D02*
X3115420Y-6950650D01*
X3115420Y-6950650D02*
X3105896Y-6960174D01*
X3105896Y-6960174D02*
X3086848Y-6969698D01*
X3086848Y-6969698D02*
X3048753Y-6969698D01*
X3048753Y-6969698D02*
X3029706Y-6979222D01*
X3029706Y-6979222D02*
X3020182Y-6988746D01*
X3020182Y-6988746D02*
X3010658Y-7007793D01*
X3010658Y-7007793D02*
X3010658Y-7045888D01*
X3010658Y-7045888D02*
X3020182Y-7064936D01*
X3020182Y-7064936D02*
X3029706Y-7074460D01*
X3029706Y-7074460D02*
X3048753Y-7083984D01*
X3048753Y-7083984D02*
X3086848Y-7083984D01*
X3086848Y-7083984D02*
X3105896Y-7074460D01*
X3105896Y-7074460D02*
X3115420Y-7064936D01*
X3115420Y-7064936D02*
X3124944Y-7045888D01*
X3124944Y-7045888D02*
X3124944Y-7007793D01*
X3124944Y-7007793D02*
X3115420Y-6988746D01*
X3115420Y-6988746D02*
X3105896Y-6979222D01*
X3105896Y-6979222D02*
X3086848Y-6969698D01*
X3201134Y-6883984D02*
X3201134Y-6922079D01*
X3277325Y-6883984D02*
X3277325Y-6922079D01*
X3572563Y-7160174D02*
X3563039Y-7150650D01*
X3563039Y-7150650D02*
X3543991Y-7122079D01*
X3543991Y-7122079D02*
X3534468Y-7103031D01*
X3534468Y-7103031D02*
X3524944Y-7074460D01*
X3524944Y-7074460D02*
X3515420Y-7026841D01*
X3515420Y-7026841D02*
X3515420Y-6988746D01*
X3515420Y-6988746D02*
X3524944Y-6941127D01*
X3524944Y-6941127D02*
X3534468Y-6912555D01*
X3534468Y-6912555D02*
X3543991Y-6893508D01*
X3543991Y-6893508D02*
X3563039Y-6864936D01*
X3563039Y-6864936D02*
X3572563Y-6855412D01*
X3629706Y-6883984D02*
X3753515Y-6883984D01*
X3753515Y-6883984D02*
X3686848Y-6960174D01*
X3686848Y-6960174D02*
X3715420Y-6960174D01*
X3715420Y-6960174D02*
X3734468Y-6969698D01*
X3734468Y-6969698D02*
X3743991Y-6979222D01*
X3743991Y-6979222D02*
X3753515Y-6998269D01*
X3753515Y-6998269D02*
X3753515Y-7045888D01*
X3753515Y-7045888D02*
X3743991Y-7064936D01*
X3743991Y-7064936D02*
X3734468Y-7074460D01*
X3734468Y-7074460D02*
X3715420Y-7083984D01*
X3715420Y-7083984D02*
X3658277Y-7083984D01*
X3658277Y-7083984D02*
X3639229Y-7074460D01*
X3639229Y-7074460D02*
X3629706Y-7064936D01*
X3820182Y-6883984D02*
X3953515Y-6883984D01*
X3953515Y-6883984D02*
X3867801Y-7083984D01*
X4010658Y-6883984D02*
X4143991Y-6883984D01*
X4143991Y-6883984D02*
X4058277Y-7083984D01*
X4372563Y-7083984D02*
X4372563Y-6883984D01*
X4458277Y-7083984D02*
X4458277Y-6979222D01*
X4458277Y-6979222D02*
X4448753Y-6960174D01*
X4448753Y-6960174D02*
X4429706Y-6950650D01*
X4429706Y-6950650D02*
X4401134Y-6950650D01*
X4401134Y-6950650D02*
X4382087Y-6960174D01*
X4382087Y-6960174D02*
X4372563Y-6969698D01*
X4582087Y-7083984D02*
X4563039Y-7074460D01*
X4563039Y-7074460D02*
X4553515Y-7064936D01*
X4553515Y-7064936D02*
X4543992Y-7045888D01*
X4543992Y-7045888D02*
X4543992Y-6988746D01*
X4543992Y-6988746D02*
X4553515Y-6969698D01*
X4553515Y-6969698D02*
X4563039Y-6960174D01*
X4563039Y-6960174D02*
X4582087Y-6950650D01*
X4582087Y-6950650D02*
X4610658Y-6950650D01*
X4610658Y-6950650D02*
X4629706Y-6960174D01*
X4629706Y-6960174D02*
X4639230Y-6969698D01*
X4639230Y-6969698D02*
X4648753Y-6988746D01*
X4648753Y-6988746D02*
X4648753Y-7045888D01*
X4648753Y-7045888D02*
X4639230Y-7064936D01*
X4639230Y-7064936D02*
X4629706Y-7074460D01*
X4629706Y-7074460D02*
X4610658Y-7083984D01*
X4610658Y-7083984D02*
X4582087Y-7083984D01*
X4763039Y-7083984D02*
X4743992Y-7074460D01*
X4743992Y-7074460D02*
X4734468Y-7055412D01*
X4734468Y-7055412D02*
X4734468Y-6883984D01*
X4915420Y-7074460D02*
X4896373Y-7083984D01*
X4896373Y-7083984D02*
X4858277Y-7083984D01*
X4858277Y-7083984D02*
X4839230Y-7074460D01*
X4839230Y-7074460D02*
X4829706Y-7055412D01*
X4829706Y-7055412D02*
X4829706Y-6979222D01*
X4829706Y-6979222D02*
X4839230Y-6960174D01*
X4839230Y-6960174D02*
X4858277Y-6950650D01*
X4858277Y-6950650D02*
X4896373Y-6950650D01*
X4896373Y-6950650D02*
X4915420Y-6960174D01*
X4915420Y-6960174D02*
X4924944Y-6979222D01*
X4924944Y-6979222D02*
X4924944Y-6998269D01*
X4924944Y-6998269D02*
X4829706Y-7017317D01*
X5001134Y-7074460D02*
X5020182Y-7083984D01*
X5020182Y-7083984D02*
X5058277Y-7083984D01*
X5058277Y-7083984D02*
X5077325Y-7074460D01*
X5077325Y-7074460D02*
X5086849Y-7055412D01*
X5086849Y-7055412D02*
X5086849Y-7045888D01*
X5086849Y-7045888D02*
X5077325Y-7026841D01*
X5077325Y-7026841D02*
X5058277Y-7017317D01*
X5058277Y-7017317D02*
X5029706Y-7017317D01*
X5029706Y-7017317D02*
X5010658Y-7007793D01*
X5010658Y-7007793D02*
X5001134Y-6988746D01*
X5001134Y-6988746D02*
X5001134Y-6979222D01*
X5001134Y-6979222D02*
X5010658Y-6960174D01*
X5010658Y-6960174D02*
X5029706Y-6950650D01*
X5029706Y-6950650D02*
X5058277Y-6950650D01*
X5058277Y-6950650D02*
X5077325Y-6960174D01*
X5153515Y-7160174D02*
X5163039Y-7150650D01*
X5163039Y-7150650D02*
X5182087Y-7122079D01*
X5182087Y-7122079D02*
X5191611Y-7103031D01*
X5191611Y-7103031D02*
X5201134Y-7074460D01*
X5201134Y-7074460D02*
X5210658Y-7026841D01*
X5210658Y-7026841D02*
X5210658Y-6988746D01*
X5210658Y-6988746D02*
X5201134Y-6941127D01*
X5201134Y-6941127D02*
X5191611Y-6912555D01*
X5191611Y-6912555D02*
X5182087Y-6893508D01*
X5182087Y-6893508D02*
X5163039Y-6864936D01*
X5163039Y-6864936D02*
X5153515Y-6855412D01*
D12*
X-2500Y-7256500D02*
G75*
G02*
X-42500Y-7256500I-20000J0D01*
G01*
X-42500Y-7256500D02*
G75*
G02*
X-2500Y-7256500I20000J0D01*
G01*
D11*
X296372Y-7147984D02*
X315420Y-7147984D01*
X315420Y-7147984D02*
X334467Y-7157508D01*
X334467Y-7157508D02*
X343991Y-7167031D01*
X343991Y-7167031D02*
X353515Y-7186079D01*
X353515Y-7186079D02*
X363039Y-7224174D01*
X363039Y-7224174D02*
X363039Y-7271793D01*
X363039Y-7271793D02*
X353515Y-7309888D01*
X353515Y-7309888D02*
X343991Y-7328936D01*
X343991Y-7328936D02*
X334467Y-7338460D01*
X334467Y-7338460D02*
X315420Y-7347984D01*
X315420Y-7347984D02*
X296372Y-7347984D01*
X296372Y-7347984D02*
X277324Y-7338460D01*
X277324Y-7338460D02*
X267801Y-7328936D01*
X267801Y-7328936D02*
X258277Y-7309888D01*
X258277Y-7309888D02*
X248753Y-7271793D01*
X248753Y-7271793D02*
X248753Y-7224174D01*
X248753Y-7224174D02*
X258277Y-7186079D01*
X258277Y-7186079D02*
X267801Y-7167031D01*
X267801Y-7167031D02*
X277324Y-7157508D01*
X277324Y-7157508D02*
X296372Y-7147984D01*
X448753Y-7328936D02*
X458277Y-7338460D01*
X458277Y-7338460D02*
X448753Y-7347984D01*
X448753Y-7347984D02*
X439229Y-7338460D01*
X439229Y-7338460D02*
X448753Y-7328936D01*
X448753Y-7328936D02*
X448753Y-7347984D01*
X629705Y-7214650D02*
X629705Y-7347984D01*
X582086Y-7138460D02*
X534467Y-7281317D01*
X534467Y-7281317D02*
X658277Y-7281317D01*
X772562Y-7147984D02*
X791610Y-7147984D01*
X791610Y-7147984D02*
X810658Y-7157508D01*
X810658Y-7157508D02*
X820182Y-7167031D01*
X820182Y-7167031D02*
X829705Y-7186079D01*
X829705Y-7186079D02*
X839229Y-7224174D01*
X839229Y-7224174D02*
X839229Y-7271793D01*
X839229Y-7271793D02*
X829705Y-7309888D01*
X829705Y-7309888D02*
X820182Y-7328936D01*
X820182Y-7328936D02*
X810658Y-7338460D01*
X810658Y-7338460D02*
X791610Y-7347984D01*
X791610Y-7347984D02*
X772562Y-7347984D01*
X772562Y-7347984D02*
X753515Y-7338460D01*
X753515Y-7338460D02*
X743991Y-7328936D01*
X743991Y-7328936D02*
X734467Y-7309888D01*
X734467Y-7309888D02*
X724943Y-7271793D01*
X724943Y-7271793D02*
X724943Y-7224174D01*
X724943Y-7224174D02*
X734467Y-7186079D01*
X734467Y-7186079D02*
X743991Y-7167031D01*
X743991Y-7167031D02*
X753515Y-7157508D01*
X753515Y-7157508D02*
X772562Y-7147984D01*
X963039Y-7147984D02*
X982086Y-7147984D01*
X982086Y-7147984D02*
X1001134Y-7157508D01*
X1001134Y-7157508D02*
X1010658Y-7167031D01*
X1010658Y-7167031D02*
X1020182Y-7186079D01*
X1020182Y-7186079D02*
X1029705Y-7224174D01*
X1029705Y-7224174D02*
X1029705Y-7271793D01*
X1029705Y-7271793D02*
X1020182Y-7309888D01*
X1020182Y-7309888D02*
X1010658Y-7328936D01*
X1010658Y-7328936D02*
X1001134Y-7338460D01*
X1001134Y-7338460D02*
X982086Y-7347984D01*
X982086Y-7347984D02*
X963039Y-7347984D01*
X963039Y-7347984D02*
X943991Y-7338460D01*
X943991Y-7338460D02*
X934467Y-7328936D01*
X934467Y-7328936D02*
X924943Y-7309888D01*
X924943Y-7309888D02*
X915420Y-7271793D01*
X915420Y-7271793D02*
X915420Y-7224174D01*
X915420Y-7224174D02*
X924943Y-7186079D01*
X924943Y-7186079D02*
X934467Y-7167031D01*
X934467Y-7167031D02*
X943991Y-7157508D01*
X943991Y-7157508D02*
X963039Y-7147984D01*
X1115420Y-7347984D02*
X1115420Y-7214650D01*
X1115420Y-7233698D02*
X1124944Y-7224174D01*
X1124944Y-7224174D02*
X1143991Y-7214650D01*
X1143991Y-7214650D02*
X1172563Y-7214650D01*
X1172563Y-7214650D02*
X1191610Y-7224174D01*
X1191610Y-7224174D02*
X1201134Y-7243222D01*
X1201134Y-7243222D02*
X1201134Y-7347984D01*
X1201134Y-7243222D02*
X1210658Y-7224174D01*
X1210658Y-7224174D02*
X1229705Y-7214650D01*
X1229705Y-7214650D02*
X1258277Y-7214650D01*
X1258277Y-7214650D02*
X1277325Y-7224174D01*
X1277325Y-7224174D02*
X1286848Y-7243222D01*
X1286848Y-7243222D02*
X1286848Y-7347984D01*
X1382086Y-7347984D02*
X1382086Y-7214650D01*
X1382086Y-7233698D02*
X1391610Y-7224174D01*
X1391610Y-7224174D02*
X1410658Y-7214650D01*
X1410658Y-7214650D02*
X1439229Y-7214650D01*
X1439229Y-7214650D02*
X1458277Y-7224174D01*
X1458277Y-7224174D02*
X1467801Y-7243222D01*
X1467801Y-7243222D02*
X1467801Y-7347984D01*
X1467801Y-7243222D02*
X1477324Y-7224174D01*
X1477324Y-7224174D02*
X1496372Y-7214650D01*
X1496372Y-7214650D02*
X1524943Y-7214650D01*
X1524943Y-7214650D02*
X1543991Y-7224174D01*
X1543991Y-7224174D02*
X1553515Y-7243222D01*
X1553515Y-7243222D02*
X1553515Y-7347984D01*
X1943991Y-7138460D02*
X1772563Y-7395603D01*
X2201134Y-7147984D02*
X2220182Y-7147984D01*
X2220182Y-7147984D02*
X2239229Y-7157508D01*
X2239229Y-7157508D02*
X2248753Y-7167031D01*
X2248753Y-7167031D02*
X2258277Y-7186079D01*
X2258277Y-7186079D02*
X2267801Y-7224174D01*
X2267801Y-7224174D02*
X2267801Y-7271793D01*
X2267801Y-7271793D02*
X2258277Y-7309888D01*
X2258277Y-7309888D02*
X2248753Y-7328936D01*
X2248753Y-7328936D02*
X2239229Y-7338460D01*
X2239229Y-7338460D02*
X2220182Y-7347984D01*
X2220182Y-7347984D02*
X2201134Y-7347984D01*
X2201134Y-7347984D02*
X2182087Y-7338460D01*
X2182087Y-7338460D02*
X2172563Y-7328936D01*
X2172563Y-7328936D02*
X2163039Y-7309888D01*
X2163039Y-7309888D02*
X2153515Y-7271793D01*
X2153515Y-7271793D02*
X2153515Y-7224174D01*
X2153515Y-7224174D02*
X2163039Y-7186079D01*
X2163039Y-7186079D02*
X2172563Y-7167031D01*
X2172563Y-7167031D02*
X2182087Y-7157508D01*
X2182087Y-7157508D02*
X2201134Y-7147984D01*
X2353515Y-7328936D02*
X2363039Y-7338460D01*
X2363039Y-7338460D02*
X2353515Y-7347984D01*
X2353515Y-7347984D02*
X2343991Y-7338460D01*
X2343991Y-7338460D02*
X2353515Y-7328936D01*
X2353515Y-7328936D02*
X2353515Y-7347984D01*
X2486848Y-7147984D02*
X2505896Y-7147984D01*
X2505896Y-7147984D02*
X2524944Y-7157508D01*
X2524944Y-7157508D02*
X2534468Y-7167031D01*
X2534468Y-7167031D02*
X2543991Y-7186079D01*
X2543991Y-7186079D02*
X2553515Y-7224174D01*
X2553515Y-7224174D02*
X2553515Y-7271793D01*
X2553515Y-7271793D02*
X2543991Y-7309888D01*
X2543991Y-7309888D02*
X2534468Y-7328936D01*
X2534468Y-7328936D02*
X2524944Y-7338460D01*
X2524944Y-7338460D02*
X2505896Y-7347984D01*
X2505896Y-7347984D02*
X2486848Y-7347984D01*
X2486848Y-7347984D02*
X2467801Y-7338460D01*
X2467801Y-7338460D02*
X2458277Y-7328936D01*
X2458277Y-7328936D02*
X2448753Y-7309888D01*
X2448753Y-7309888D02*
X2439229Y-7271793D01*
X2439229Y-7271793D02*
X2439229Y-7224174D01*
X2439229Y-7224174D02*
X2448753Y-7186079D01*
X2448753Y-7186079D02*
X2458277Y-7167031D01*
X2458277Y-7167031D02*
X2467801Y-7157508D01*
X2467801Y-7157508D02*
X2486848Y-7147984D01*
X2743991Y-7347984D02*
X2629706Y-7347984D01*
X2686848Y-7347984D02*
X2686848Y-7147984D01*
X2686848Y-7147984D02*
X2667801Y-7176555D01*
X2667801Y-7176555D02*
X2648753Y-7195603D01*
X2648753Y-7195603D02*
X2629706Y-7205127D01*
X2924944Y-7147984D02*
X2829706Y-7147984D01*
X2829706Y-7147984D02*
X2820182Y-7243222D01*
X2820182Y-7243222D02*
X2829706Y-7233698D01*
X2829706Y-7233698D02*
X2848753Y-7224174D01*
X2848753Y-7224174D02*
X2896372Y-7224174D01*
X2896372Y-7224174D02*
X2915420Y-7233698D01*
X2915420Y-7233698D02*
X2924944Y-7243222D01*
X2924944Y-7243222D02*
X2934467Y-7262269D01*
X2934467Y-7262269D02*
X2934467Y-7309888D01*
X2934467Y-7309888D02*
X2924944Y-7328936D01*
X2924944Y-7328936D02*
X2915420Y-7338460D01*
X2915420Y-7338460D02*
X2896372Y-7347984D01*
X2896372Y-7347984D02*
X2848753Y-7347984D01*
X2848753Y-7347984D02*
X2829706Y-7338460D01*
X2829706Y-7338460D02*
X2820182Y-7328936D01*
X3001134Y-7147984D02*
X3134467Y-7147984D01*
X3134467Y-7147984D02*
X3048753Y-7347984D01*
X3201134Y-7147984D02*
X3201134Y-7186079D01*
X3277325Y-7147984D02*
X3277325Y-7186079D01*
X3572563Y-7424174D02*
X3563039Y-7414650D01*
X3563039Y-7414650D02*
X3543991Y-7386079D01*
X3543991Y-7386079D02*
X3534468Y-7367031D01*
X3534468Y-7367031D02*
X3524944Y-7338460D01*
X3524944Y-7338460D02*
X3515420Y-7290841D01*
X3515420Y-7290841D02*
X3515420Y-7252746D01*
X3515420Y-7252746D02*
X3524944Y-7205127D01*
X3524944Y-7205127D02*
X3534468Y-7176555D01*
X3534468Y-7176555D02*
X3543991Y-7157508D01*
X3543991Y-7157508D02*
X3563039Y-7128936D01*
X3563039Y-7128936D02*
X3572563Y-7119412D01*
X3629706Y-7147984D02*
X3753515Y-7147984D01*
X3753515Y-7147984D02*
X3686848Y-7224174D01*
X3686848Y-7224174D02*
X3715420Y-7224174D01*
X3715420Y-7224174D02*
X3734468Y-7233698D01*
X3734468Y-7233698D02*
X3743991Y-7243222D01*
X3743991Y-7243222D02*
X3753515Y-7262269D01*
X3753515Y-7262269D02*
X3753515Y-7309888D01*
X3753515Y-7309888D02*
X3743991Y-7328936D01*
X3743991Y-7328936D02*
X3734468Y-7338460D01*
X3734468Y-7338460D02*
X3715420Y-7347984D01*
X3715420Y-7347984D02*
X3658277Y-7347984D01*
X3658277Y-7347984D02*
X3639229Y-7338460D01*
X3639229Y-7338460D02*
X3629706Y-7328936D01*
X3848753Y-7347984D02*
X3886848Y-7347984D01*
X3886848Y-7347984D02*
X3905896Y-7338460D01*
X3905896Y-7338460D02*
X3915420Y-7328936D01*
X3915420Y-7328936D02*
X3934468Y-7300365D01*
X3934468Y-7300365D02*
X3943991Y-7262269D01*
X3943991Y-7262269D02*
X3943991Y-7186079D01*
X3943991Y-7186079D02*
X3934468Y-7167031D01*
X3934468Y-7167031D02*
X3924944Y-7157508D01*
X3924944Y-7157508D02*
X3905896Y-7147984D01*
X3905896Y-7147984D02*
X3867801Y-7147984D01*
X3867801Y-7147984D02*
X3848753Y-7157508D01*
X3848753Y-7157508D02*
X3839229Y-7167031D01*
X3839229Y-7167031D02*
X3829706Y-7186079D01*
X3829706Y-7186079D02*
X3829706Y-7233698D01*
X3829706Y-7233698D02*
X3839229Y-7252746D01*
X3839229Y-7252746D02*
X3848753Y-7262269D01*
X3848753Y-7262269D02*
X3867801Y-7271793D01*
X3867801Y-7271793D02*
X3905896Y-7271793D01*
X3905896Y-7271793D02*
X3924944Y-7262269D01*
X3924944Y-7262269D02*
X3934468Y-7252746D01*
X3934468Y-7252746D02*
X3943991Y-7233698D01*
X4182087Y-7347984D02*
X4182087Y-7147984D01*
X4267801Y-7347984D02*
X4267801Y-7243222D01*
X4267801Y-7243222D02*
X4258277Y-7224174D01*
X4258277Y-7224174D02*
X4239230Y-7214650D01*
X4239230Y-7214650D02*
X4210658Y-7214650D01*
X4210658Y-7214650D02*
X4191610Y-7224174D01*
X4191610Y-7224174D02*
X4182087Y-7233698D01*
X4391611Y-7347984D02*
X4372563Y-7338460D01*
X4372563Y-7338460D02*
X4363039Y-7328936D01*
X4363039Y-7328936D02*
X4353515Y-7309888D01*
X4353515Y-7309888D02*
X4353515Y-7252746D01*
X4353515Y-7252746D02*
X4363039Y-7233698D01*
X4363039Y-7233698D02*
X4372563Y-7224174D01*
X4372563Y-7224174D02*
X4391611Y-7214650D01*
X4391611Y-7214650D02*
X4420182Y-7214650D01*
X4420182Y-7214650D02*
X4439230Y-7224174D01*
X4439230Y-7224174D02*
X4448753Y-7233698D01*
X4448753Y-7233698D02*
X4458277Y-7252746D01*
X4458277Y-7252746D02*
X4458277Y-7309888D01*
X4458277Y-7309888D02*
X4448753Y-7328936D01*
X4448753Y-7328936D02*
X4439230Y-7338460D01*
X4439230Y-7338460D02*
X4420182Y-7347984D01*
X4420182Y-7347984D02*
X4391611Y-7347984D01*
X4572563Y-7347984D02*
X4553515Y-7338460D01*
X4553515Y-7338460D02*
X4543992Y-7319412D01*
X4543992Y-7319412D02*
X4543992Y-7147984D01*
X4724944Y-7338460D02*
X4705896Y-7347984D01*
X4705896Y-7347984D02*
X4667801Y-7347984D01*
X4667801Y-7347984D02*
X4648753Y-7338460D01*
X4648753Y-7338460D02*
X4639230Y-7319412D01*
X4639230Y-7319412D02*
X4639230Y-7243222D01*
X4639230Y-7243222D02*
X4648753Y-7224174D01*
X4648753Y-7224174D02*
X4667801Y-7214650D01*
X4667801Y-7214650D02*
X4705896Y-7214650D01*
X4705896Y-7214650D02*
X4724944Y-7224174D01*
X4724944Y-7224174D02*
X4734468Y-7243222D01*
X4734468Y-7243222D02*
X4734468Y-7262269D01*
X4734468Y-7262269D02*
X4639230Y-7281317D01*
X4810658Y-7338460D02*
X4829706Y-7347984D01*
X4829706Y-7347984D02*
X4867801Y-7347984D01*
X4867801Y-7347984D02*
X4886849Y-7338460D01*
X4886849Y-7338460D02*
X4896373Y-7319412D01*
X4896373Y-7319412D02*
X4896373Y-7309888D01*
X4896373Y-7309888D02*
X4886849Y-7290841D01*
X4886849Y-7290841D02*
X4867801Y-7281317D01*
X4867801Y-7281317D02*
X4839230Y-7281317D01*
X4839230Y-7281317D02*
X4820182Y-7271793D01*
X4820182Y-7271793D02*
X4810658Y-7252746D01*
X4810658Y-7252746D02*
X4810658Y-7243222D01*
X4810658Y-7243222D02*
X4820182Y-7224174D01*
X4820182Y-7224174D02*
X4839230Y-7214650D01*
X4839230Y-7214650D02*
X4867801Y-7214650D01*
X4867801Y-7214650D02*
X4886849Y-7224174D01*
X4963039Y-7424174D02*
X4972563Y-7414650D01*
X4972563Y-7414650D02*
X4991611Y-7386079D01*
X4991611Y-7386079D02*
X5001134Y-7367031D01*
X5001134Y-7367031D02*
X5010658Y-7338460D01*
X5010658Y-7338460D02*
X5020182Y-7290841D01*
X5020182Y-7290841D02*
X5020182Y-7252746D01*
X5020182Y-7252746D02*
X5010658Y-7205127D01*
X5010658Y-7205127D02*
X5001134Y-7176555D01*
X5001134Y-7176555D02*
X4991611Y-7157508D01*
X4991611Y-7157508D02*
X4972563Y-7128936D01*
X4972563Y-7128936D02*
X4963039Y-7119412D01*
D12*
X-32500Y-7490500D02*
X-32500Y-7550500D01*
X-62500Y-7520500D02*
X-2500Y-7520500D01*
D11*
X296372Y-7411984D02*
X315420Y-7411984D01*
X315420Y-7411984D02*
X334467Y-7421508D01*
X334467Y-7421508D02*
X343991Y-7431031D01*
X343991Y-7431031D02*
X353515Y-7450079D01*
X353515Y-7450079D02*
X363039Y-7488174D01*
X363039Y-7488174D02*
X363039Y-7535793D01*
X363039Y-7535793D02*
X353515Y-7573888D01*
X353515Y-7573888D02*
X343991Y-7592936D01*
X343991Y-7592936D02*
X334467Y-7602460D01*
X334467Y-7602460D02*
X315420Y-7611984D01*
X315420Y-7611984D02*
X296372Y-7611984D01*
X296372Y-7611984D02*
X277324Y-7602460D01*
X277324Y-7602460D02*
X267801Y-7592936D01*
X267801Y-7592936D02*
X258277Y-7573888D01*
X258277Y-7573888D02*
X248753Y-7535793D01*
X248753Y-7535793D02*
X248753Y-7488174D01*
X248753Y-7488174D02*
X258277Y-7450079D01*
X258277Y-7450079D02*
X267801Y-7431031D01*
X267801Y-7431031D02*
X277324Y-7421508D01*
X277324Y-7421508D02*
X296372Y-7411984D01*
X448753Y-7592936D02*
X458277Y-7602460D01*
X458277Y-7602460D02*
X448753Y-7611984D01*
X448753Y-7611984D02*
X439229Y-7602460D01*
X439229Y-7602460D02*
X448753Y-7592936D01*
X448753Y-7592936D02*
X448753Y-7611984D01*
X629705Y-7411984D02*
X591610Y-7411984D01*
X591610Y-7411984D02*
X572563Y-7421508D01*
X572563Y-7421508D02*
X563039Y-7431031D01*
X563039Y-7431031D02*
X543991Y-7459603D01*
X543991Y-7459603D02*
X534467Y-7497698D01*
X534467Y-7497698D02*
X534467Y-7573888D01*
X534467Y-7573888D02*
X543991Y-7592936D01*
X543991Y-7592936D02*
X553515Y-7602460D01*
X553515Y-7602460D02*
X572563Y-7611984D01*
X572563Y-7611984D02*
X610658Y-7611984D01*
X610658Y-7611984D02*
X629705Y-7602460D01*
X629705Y-7602460D02*
X639229Y-7592936D01*
X639229Y-7592936D02*
X648753Y-7573888D01*
X648753Y-7573888D02*
X648753Y-7526269D01*
X648753Y-7526269D02*
X639229Y-7507222D01*
X639229Y-7507222D02*
X629705Y-7497698D01*
X629705Y-7497698D02*
X610658Y-7488174D01*
X610658Y-7488174D02*
X572563Y-7488174D01*
X572563Y-7488174D02*
X553515Y-7497698D01*
X553515Y-7497698D02*
X543991Y-7507222D01*
X543991Y-7507222D02*
X534467Y-7526269D01*
X772562Y-7411984D02*
X791610Y-7411984D01*
X791610Y-7411984D02*
X810658Y-7421508D01*
X810658Y-7421508D02*
X820182Y-7431031D01*
X820182Y-7431031D02*
X829705Y-7450079D01*
X829705Y-7450079D02*
X839229Y-7488174D01*
X839229Y-7488174D02*
X839229Y-7535793D01*
X839229Y-7535793D02*
X829705Y-7573888D01*
X829705Y-7573888D02*
X820182Y-7592936D01*
X820182Y-7592936D02*
X810658Y-7602460D01*
X810658Y-7602460D02*
X791610Y-7611984D01*
X791610Y-7611984D02*
X772562Y-7611984D01*
X772562Y-7611984D02*
X753515Y-7602460D01*
X753515Y-7602460D02*
X743991Y-7592936D01*
X743991Y-7592936D02*
X734467Y-7573888D01*
X734467Y-7573888D02*
X724943Y-7535793D01*
X724943Y-7535793D02*
X724943Y-7488174D01*
X724943Y-7488174D02*
X734467Y-7450079D01*
X734467Y-7450079D02*
X743991Y-7431031D01*
X743991Y-7431031D02*
X753515Y-7421508D01*
X753515Y-7421508D02*
X772562Y-7411984D01*
X963039Y-7411984D02*
X982086Y-7411984D01*
X982086Y-7411984D02*
X1001134Y-7421508D01*
X1001134Y-7421508D02*
X1010658Y-7431031D01*
X1010658Y-7431031D02*
X1020182Y-7450079D01*
X1020182Y-7450079D02*
X1029705Y-7488174D01*
X1029705Y-7488174D02*
X1029705Y-7535793D01*
X1029705Y-7535793D02*
X1020182Y-7573888D01*
X1020182Y-7573888D02*
X1010658Y-7592936D01*
X1010658Y-7592936D02*
X1001134Y-7602460D01*
X1001134Y-7602460D02*
X982086Y-7611984D01*
X982086Y-7611984D02*
X963039Y-7611984D01*
X963039Y-7611984D02*
X943991Y-7602460D01*
X943991Y-7602460D02*
X934467Y-7592936D01*
X934467Y-7592936D02*
X924943Y-7573888D01*
X924943Y-7573888D02*
X915420Y-7535793D01*
X915420Y-7535793D02*
X915420Y-7488174D01*
X915420Y-7488174D02*
X924943Y-7450079D01*
X924943Y-7450079D02*
X934467Y-7431031D01*
X934467Y-7431031D02*
X943991Y-7421508D01*
X943991Y-7421508D02*
X963039Y-7411984D01*
X1115420Y-7611984D02*
X1115420Y-7478650D01*
X1115420Y-7497698D02*
X1124944Y-7488174D01*
X1124944Y-7488174D02*
X1143991Y-7478650D01*
X1143991Y-7478650D02*
X1172563Y-7478650D01*
X1172563Y-7478650D02*
X1191610Y-7488174D01*
X1191610Y-7488174D02*
X1201134Y-7507222D01*
X1201134Y-7507222D02*
X1201134Y-7611984D01*
X1201134Y-7507222D02*
X1210658Y-7488174D01*
X1210658Y-7488174D02*
X1229705Y-7478650D01*
X1229705Y-7478650D02*
X1258277Y-7478650D01*
X1258277Y-7478650D02*
X1277325Y-7488174D01*
X1277325Y-7488174D02*
X1286848Y-7507222D01*
X1286848Y-7507222D02*
X1286848Y-7611984D01*
X1382086Y-7611984D02*
X1382086Y-7478650D01*
X1382086Y-7497698D02*
X1391610Y-7488174D01*
X1391610Y-7488174D02*
X1410658Y-7478650D01*
X1410658Y-7478650D02*
X1439229Y-7478650D01*
X1439229Y-7478650D02*
X1458277Y-7488174D01*
X1458277Y-7488174D02*
X1467801Y-7507222D01*
X1467801Y-7507222D02*
X1467801Y-7611984D01*
X1467801Y-7507222D02*
X1477324Y-7488174D01*
X1477324Y-7488174D02*
X1496372Y-7478650D01*
X1496372Y-7478650D02*
X1524943Y-7478650D01*
X1524943Y-7478650D02*
X1543991Y-7488174D01*
X1543991Y-7488174D02*
X1553515Y-7507222D01*
X1553515Y-7507222D02*
X1553515Y-7611984D01*
X1943991Y-7402460D02*
X1772563Y-7659603D01*
X2201134Y-7411984D02*
X2220182Y-7411984D01*
X2220182Y-7411984D02*
X2239229Y-7421508D01*
X2239229Y-7421508D02*
X2248753Y-7431031D01*
X2248753Y-7431031D02*
X2258277Y-7450079D01*
X2258277Y-7450079D02*
X2267801Y-7488174D01*
X2267801Y-7488174D02*
X2267801Y-7535793D01*
X2267801Y-7535793D02*
X2258277Y-7573888D01*
X2258277Y-7573888D02*
X2248753Y-7592936D01*
X2248753Y-7592936D02*
X2239229Y-7602460D01*
X2239229Y-7602460D02*
X2220182Y-7611984D01*
X2220182Y-7611984D02*
X2201134Y-7611984D01*
X2201134Y-7611984D02*
X2182087Y-7602460D01*
X2182087Y-7602460D02*
X2172563Y-7592936D01*
X2172563Y-7592936D02*
X2163039Y-7573888D01*
X2163039Y-7573888D02*
X2153515Y-7535793D01*
X2153515Y-7535793D02*
X2153515Y-7488174D01*
X2153515Y-7488174D02*
X2163039Y-7450079D01*
X2163039Y-7450079D02*
X2172563Y-7431031D01*
X2172563Y-7431031D02*
X2182087Y-7421508D01*
X2182087Y-7421508D02*
X2201134Y-7411984D01*
X2353515Y-7592936D02*
X2363039Y-7602460D01*
X2363039Y-7602460D02*
X2353515Y-7611984D01*
X2353515Y-7611984D02*
X2343991Y-7602460D01*
X2343991Y-7602460D02*
X2353515Y-7592936D01*
X2353515Y-7592936D02*
X2353515Y-7611984D01*
X2486848Y-7411984D02*
X2505896Y-7411984D01*
X2505896Y-7411984D02*
X2524944Y-7421508D01*
X2524944Y-7421508D02*
X2534468Y-7431031D01*
X2534468Y-7431031D02*
X2543991Y-7450079D01*
X2543991Y-7450079D02*
X2553515Y-7488174D01*
X2553515Y-7488174D02*
X2553515Y-7535793D01*
X2553515Y-7535793D02*
X2543991Y-7573888D01*
X2543991Y-7573888D02*
X2534468Y-7592936D01*
X2534468Y-7592936D02*
X2524944Y-7602460D01*
X2524944Y-7602460D02*
X2505896Y-7611984D01*
X2505896Y-7611984D02*
X2486848Y-7611984D01*
X2486848Y-7611984D02*
X2467801Y-7602460D01*
X2467801Y-7602460D02*
X2458277Y-7592936D01*
X2458277Y-7592936D02*
X2448753Y-7573888D01*
X2448753Y-7573888D02*
X2439229Y-7535793D01*
X2439229Y-7535793D02*
X2439229Y-7488174D01*
X2439229Y-7488174D02*
X2448753Y-7450079D01*
X2448753Y-7450079D02*
X2458277Y-7431031D01*
X2458277Y-7431031D02*
X2467801Y-7421508D01*
X2467801Y-7421508D02*
X2486848Y-7411984D01*
X2629706Y-7431031D02*
X2639229Y-7421508D01*
X2639229Y-7421508D02*
X2658277Y-7411984D01*
X2658277Y-7411984D02*
X2705896Y-7411984D01*
X2705896Y-7411984D02*
X2724944Y-7421508D01*
X2724944Y-7421508D02*
X2734468Y-7431031D01*
X2734468Y-7431031D02*
X2743991Y-7450079D01*
X2743991Y-7450079D02*
X2743991Y-7469127D01*
X2743991Y-7469127D02*
X2734468Y-7497698D01*
X2734468Y-7497698D02*
X2620182Y-7611984D01*
X2620182Y-7611984D02*
X2743991Y-7611984D01*
X2810658Y-7411984D02*
X2934467Y-7411984D01*
X2934467Y-7411984D02*
X2867801Y-7488174D01*
X2867801Y-7488174D02*
X2896372Y-7488174D01*
X2896372Y-7488174D02*
X2915420Y-7497698D01*
X2915420Y-7497698D02*
X2924944Y-7507222D01*
X2924944Y-7507222D02*
X2934467Y-7526269D01*
X2934467Y-7526269D02*
X2934467Y-7573888D01*
X2934467Y-7573888D02*
X2924944Y-7592936D01*
X2924944Y-7592936D02*
X2915420Y-7602460D01*
X2915420Y-7602460D02*
X2896372Y-7611984D01*
X2896372Y-7611984D02*
X2839229Y-7611984D01*
X2839229Y-7611984D02*
X2820182Y-7602460D01*
X2820182Y-7602460D02*
X2810658Y-7592936D01*
X3105896Y-7411984D02*
X3067801Y-7411984D01*
X3067801Y-7411984D02*
X3048753Y-7421508D01*
X3048753Y-7421508D02*
X3039229Y-7431031D01*
X3039229Y-7431031D02*
X3020182Y-7459603D01*
X3020182Y-7459603D02*
X3010658Y-7497698D01*
X3010658Y-7497698D02*
X3010658Y-7573888D01*
X3010658Y-7573888D02*
X3020182Y-7592936D01*
X3020182Y-7592936D02*
X3029706Y-7602460D01*
X3029706Y-7602460D02*
X3048753Y-7611984D01*
X3048753Y-7611984D02*
X3086848Y-7611984D01*
X3086848Y-7611984D02*
X3105896Y-7602460D01*
X3105896Y-7602460D02*
X3115420Y-7592936D01*
X3115420Y-7592936D02*
X3124944Y-7573888D01*
X3124944Y-7573888D02*
X3124944Y-7526269D01*
X3124944Y-7526269D02*
X3115420Y-7507222D01*
X3115420Y-7507222D02*
X3105896Y-7497698D01*
X3105896Y-7497698D02*
X3086848Y-7488174D01*
X3086848Y-7488174D02*
X3048753Y-7488174D01*
X3048753Y-7488174D02*
X3029706Y-7497698D01*
X3029706Y-7497698D02*
X3020182Y-7507222D01*
X3020182Y-7507222D02*
X3010658Y-7526269D01*
X3201134Y-7411984D02*
X3201134Y-7450079D01*
X3277325Y-7411984D02*
X3277325Y-7450079D01*
X3572563Y-7688174D02*
X3563039Y-7678650D01*
X3563039Y-7678650D02*
X3543991Y-7650079D01*
X3543991Y-7650079D02*
X3534468Y-7631031D01*
X3534468Y-7631031D02*
X3524944Y-7602460D01*
X3524944Y-7602460D02*
X3515420Y-7554841D01*
X3515420Y-7554841D02*
X3515420Y-7516746D01*
X3515420Y-7516746D02*
X3524944Y-7469127D01*
X3524944Y-7469127D02*
X3534468Y-7440555D01*
X3534468Y-7440555D02*
X3543991Y-7421508D01*
X3543991Y-7421508D02*
X3563039Y-7392936D01*
X3563039Y-7392936D02*
X3572563Y-7383412D01*
X3753515Y-7611984D02*
X3639229Y-7611984D01*
X3696372Y-7611984D02*
X3696372Y-7411984D01*
X3696372Y-7411984D02*
X3677325Y-7440555D01*
X3677325Y-7440555D02*
X3658277Y-7459603D01*
X3658277Y-7459603D02*
X3639229Y-7469127D01*
X3924944Y-7411984D02*
X3886848Y-7411984D01*
X3886848Y-7411984D02*
X3867801Y-7421508D01*
X3867801Y-7421508D02*
X3858277Y-7431031D01*
X3858277Y-7431031D02*
X3839229Y-7459603D01*
X3839229Y-7459603D02*
X3829706Y-7497698D01*
X3829706Y-7497698D02*
X3829706Y-7573888D01*
X3829706Y-7573888D02*
X3839229Y-7592936D01*
X3839229Y-7592936D02*
X3848753Y-7602460D01*
X3848753Y-7602460D02*
X3867801Y-7611984D01*
X3867801Y-7611984D02*
X3905896Y-7611984D01*
X3905896Y-7611984D02*
X3924944Y-7602460D01*
X3924944Y-7602460D02*
X3934468Y-7592936D01*
X3934468Y-7592936D02*
X3943991Y-7573888D01*
X3943991Y-7573888D02*
X3943991Y-7526269D01*
X3943991Y-7526269D02*
X3934468Y-7507222D01*
X3934468Y-7507222D02*
X3924944Y-7497698D01*
X3924944Y-7497698D02*
X3905896Y-7488174D01*
X3905896Y-7488174D02*
X3867801Y-7488174D01*
X3867801Y-7488174D02*
X3848753Y-7497698D01*
X3848753Y-7497698D02*
X3839229Y-7507222D01*
X3839229Y-7507222D02*
X3829706Y-7526269D01*
X4182087Y-7611984D02*
X4182087Y-7411984D01*
X4267801Y-7611984D02*
X4267801Y-7507222D01*
X4267801Y-7507222D02*
X4258277Y-7488174D01*
X4258277Y-7488174D02*
X4239230Y-7478650D01*
X4239230Y-7478650D02*
X4210658Y-7478650D01*
X4210658Y-7478650D02*
X4191610Y-7488174D01*
X4191610Y-7488174D02*
X4182087Y-7497698D01*
X4391611Y-7611984D02*
X4372563Y-7602460D01*
X4372563Y-7602460D02*
X4363039Y-7592936D01*
X4363039Y-7592936D02*
X4353515Y-7573888D01*
X4353515Y-7573888D02*
X4353515Y-7516746D01*
X4353515Y-7516746D02*
X4363039Y-7497698D01*
X4363039Y-7497698D02*
X4372563Y-7488174D01*
X4372563Y-7488174D02*
X4391611Y-7478650D01*
X4391611Y-7478650D02*
X4420182Y-7478650D01*
X4420182Y-7478650D02*
X4439230Y-7488174D01*
X4439230Y-7488174D02*
X4448753Y-7497698D01*
X4448753Y-7497698D02*
X4458277Y-7516746D01*
X4458277Y-7516746D02*
X4458277Y-7573888D01*
X4458277Y-7573888D02*
X4448753Y-7592936D01*
X4448753Y-7592936D02*
X4439230Y-7602460D01*
X4439230Y-7602460D02*
X4420182Y-7611984D01*
X4420182Y-7611984D02*
X4391611Y-7611984D01*
X4572563Y-7611984D02*
X4553515Y-7602460D01*
X4553515Y-7602460D02*
X4543992Y-7583412D01*
X4543992Y-7583412D02*
X4543992Y-7411984D01*
X4724944Y-7602460D02*
X4705896Y-7611984D01*
X4705896Y-7611984D02*
X4667801Y-7611984D01*
X4667801Y-7611984D02*
X4648753Y-7602460D01*
X4648753Y-7602460D02*
X4639230Y-7583412D01*
X4639230Y-7583412D02*
X4639230Y-7507222D01*
X4639230Y-7507222D02*
X4648753Y-7488174D01*
X4648753Y-7488174D02*
X4667801Y-7478650D01*
X4667801Y-7478650D02*
X4705896Y-7478650D01*
X4705896Y-7478650D02*
X4724944Y-7488174D01*
X4724944Y-7488174D02*
X4734468Y-7507222D01*
X4734468Y-7507222D02*
X4734468Y-7526269D01*
X4734468Y-7526269D02*
X4639230Y-7545317D01*
X4810658Y-7602460D02*
X4829706Y-7611984D01*
X4829706Y-7611984D02*
X4867801Y-7611984D01*
X4867801Y-7611984D02*
X4886849Y-7602460D01*
X4886849Y-7602460D02*
X4896373Y-7583412D01*
X4896373Y-7583412D02*
X4896373Y-7573888D01*
X4896373Y-7573888D02*
X4886849Y-7554841D01*
X4886849Y-7554841D02*
X4867801Y-7545317D01*
X4867801Y-7545317D02*
X4839230Y-7545317D01*
X4839230Y-7545317D02*
X4820182Y-7535793D01*
X4820182Y-7535793D02*
X4810658Y-7516746D01*
X4810658Y-7516746D02*
X4810658Y-7507222D01*
X4810658Y-7507222D02*
X4820182Y-7488174D01*
X4820182Y-7488174D02*
X4839230Y-7478650D01*
X4839230Y-7478650D02*
X4867801Y-7478650D01*
X4867801Y-7478650D02*
X4886849Y-7488174D01*
X4963039Y-7688174D02*
X4972563Y-7678650D01*
X4972563Y-7678650D02*
X4991611Y-7650079D01*
X4991611Y-7650079D02*
X5001134Y-7631031D01*
X5001134Y-7631031D02*
X5010658Y-7602460D01*
X5010658Y-7602460D02*
X5020182Y-7554841D01*
X5020182Y-7554841D02*
X5020182Y-7516746D01*
X5020182Y-7516746D02*
X5010658Y-7469127D01*
X5010658Y-7469127D02*
X5001134Y-7440555D01*
X5001134Y-7440555D02*
X4991611Y-7421508D01*
X4991611Y-7421508D02*
X4972563Y-7392936D01*
X4972563Y-7392936D02*
X4963039Y-7383412D01*
D12*
X-17144Y-7819856D02*
X-17144Y-7749144D01*
X-87856Y-7749144D01*
X-87856Y-7819856D01*
X-17144Y-7819856D01*
D11*
X363039Y-7875984D02*
X248753Y-7875984D01*
X305896Y-7875984D02*
X305896Y-7675984D01*
X305896Y-7675984D02*
X286848Y-7704555D01*
X286848Y-7704555D02*
X267801Y-7723603D01*
X267801Y-7723603D02*
X248753Y-7733127D01*
X448753Y-7856936D02*
X458277Y-7866460D01*
X458277Y-7866460D02*
X448753Y-7875984D01*
X448753Y-7875984D02*
X439229Y-7866460D01*
X439229Y-7866460D02*
X448753Y-7856936D01*
X448753Y-7856936D02*
X448753Y-7875984D01*
X582086Y-7675984D02*
X601134Y-7675984D01*
X601134Y-7675984D02*
X620182Y-7685508D01*
X620182Y-7685508D02*
X629705Y-7695031D01*
X629705Y-7695031D02*
X639229Y-7714079D01*
X639229Y-7714079D02*
X648753Y-7752174D01*
X648753Y-7752174D02*
X648753Y-7799793D01*
X648753Y-7799793D02*
X639229Y-7837888D01*
X639229Y-7837888D02*
X629705Y-7856936D01*
X629705Y-7856936D02*
X620182Y-7866460D01*
X620182Y-7866460D02*
X601134Y-7875984D01*
X601134Y-7875984D02*
X582086Y-7875984D01*
X582086Y-7875984D02*
X563039Y-7866460D01*
X563039Y-7866460D02*
X553515Y-7856936D01*
X553515Y-7856936D02*
X543991Y-7837888D01*
X543991Y-7837888D02*
X534467Y-7799793D01*
X534467Y-7799793D02*
X534467Y-7752174D01*
X534467Y-7752174D02*
X543991Y-7714079D01*
X543991Y-7714079D02*
X553515Y-7695031D01*
X553515Y-7695031D02*
X563039Y-7685508D01*
X563039Y-7685508D02*
X582086Y-7675984D01*
X772562Y-7675984D02*
X791610Y-7675984D01*
X791610Y-7675984D02*
X810658Y-7685508D01*
X810658Y-7685508D02*
X820182Y-7695031D01*
X820182Y-7695031D02*
X829705Y-7714079D01*
X829705Y-7714079D02*
X839229Y-7752174D01*
X839229Y-7752174D02*
X839229Y-7799793D01*
X839229Y-7799793D02*
X829705Y-7837888D01*
X829705Y-7837888D02*
X820182Y-7856936D01*
X820182Y-7856936D02*
X810658Y-7866460D01*
X810658Y-7866460D02*
X791610Y-7875984D01*
X791610Y-7875984D02*
X772562Y-7875984D01*
X772562Y-7875984D02*
X753515Y-7866460D01*
X753515Y-7866460D02*
X743991Y-7856936D01*
X743991Y-7856936D02*
X734467Y-7837888D01*
X734467Y-7837888D02*
X724943Y-7799793D01*
X724943Y-7799793D02*
X724943Y-7752174D01*
X724943Y-7752174D02*
X734467Y-7714079D01*
X734467Y-7714079D02*
X743991Y-7695031D01*
X743991Y-7695031D02*
X753515Y-7685508D01*
X753515Y-7685508D02*
X772562Y-7675984D01*
X963039Y-7675984D02*
X982086Y-7675984D01*
X982086Y-7675984D02*
X1001134Y-7685508D01*
X1001134Y-7685508D02*
X1010658Y-7695031D01*
X1010658Y-7695031D02*
X1020182Y-7714079D01*
X1020182Y-7714079D02*
X1029705Y-7752174D01*
X1029705Y-7752174D02*
X1029705Y-7799793D01*
X1029705Y-7799793D02*
X1020182Y-7837888D01*
X1020182Y-7837888D02*
X1010658Y-7856936D01*
X1010658Y-7856936D02*
X1001134Y-7866460D01*
X1001134Y-7866460D02*
X982086Y-7875984D01*
X982086Y-7875984D02*
X963039Y-7875984D01*
X963039Y-7875984D02*
X943991Y-7866460D01*
X943991Y-7866460D02*
X934467Y-7856936D01*
X934467Y-7856936D02*
X924943Y-7837888D01*
X924943Y-7837888D02*
X915420Y-7799793D01*
X915420Y-7799793D02*
X915420Y-7752174D01*
X915420Y-7752174D02*
X924943Y-7714079D01*
X924943Y-7714079D02*
X934467Y-7695031D01*
X934467Y-7695031D02*
X943991Y-7685508D01*
X943991Y-7685508D02*
X963039Y-7675984D01*
X1115420Y-7875984D02*
X1115420Y-7742650D01*
X1115420Y-7761698D02*
X1124944Y-7752174D01*
X1124944Y-7752174D02*
X1143991Y-7742650D01*
X1143991Y-7742650D02*
X1172563Y-7742650D01*
X1172563Y-7742650D02*
X1191610Y-7752174D01*
X1191610Y-7752174D02*
X1201134Y-7771222D01*
X1201134Y-7771222D02*
X1201134Y-7875984D01*
X1201134Y-7771222D02*
X1210658Y-7752174D01*
X1210658Y-7752174D02*
X1229705Y-7742650D01*
X1229705Y-7742650D02*
X1258277Y-7742650D01*
X1258277Y-7742650D02*
X1277325Y-7752174D01*
X1277325Y-7752174D02*
X1286848Y-7771222D01*
X1286848Y-7771222D02*
X1286848Y-7875984D01*
X1382086Y-7875984D02*
X1382086Y-7742650D01*
X1382086Y-7761698D02*
X1391610Y-7752174D01*
X1391610Y-7752174D02*
X1410658Y-7742650D01*
X1410658Y-7742650D02*
X1439229Y-7742650D01*
X1439229Y-7742650D02*
X1458277Y-7752174D01*
X1458277Y-7752174D02*
X1467801Y-7771222D01*
X1467801Y-7771222D02*
X1467801Y-7875984D01*
X1467801Y-7771222D02*
X1477324Y-7752174D01*
X1477324Y-7752174D02*
X1496372Y-7742650D01*
X1496372Y-7742650D02*
X1524943Y-7742650D01*
X1524943Y-7742650D02*
X1543991Y-7752174D01*
X1543991Y-7752174D02*
X1553515Y-7771222D01*
X1553515Y-7771222D02*
X1553515Y-7875984D01*
X1943991Y-7666460D02*
X1772563Y-7923603D01*
X2201134Y-7675984D02*
X2220182Y-7675984D01*
X2220182Y-7675984D02*
X2239229Y-7685508D01*
X2239229Y-7685508D02*
X2248753Y-7695031D01*
X2248753Y-7695031D02*
X2258277Y-7714079D01*
X2258277Y-7714079D02*
X2267801Y-7752174D01*
X2267801Y-7752174D02*
X2267801Y-7799793D01*
X2267801Y-7799793D02*
X2258277Y-7837888D01*
X2258277Y-7837888D02*
X2248753Y-7856936D01*
X2248753Y-7856936D02*
X2239229Y-7866460D01*
X2239229Y-7866460D02*
X2220182Y-7875984D01*
X2220182Y-7875984D02*
X2201134Y-7875984D01*
X2201134Y-7875984D02*
X2182087Y-7866460D01*
X2182087Y-7866460D02*
X2172563Y-7856936D01*
X2172563Y-7856936D02*
X2163039Y-7837888D01*
X2163039Y-7837888D02*
X2153515Y-7799793D01*
X2153515Y-7799793D02*
X2153515Y-7752174D01*
X2153515Y-7752174D02*
X2163039Y-7714079D01*
X2163039Y-7714079D02*
X2172563Y-7695031D01*
X2172563Y-7695031D02*
X2182087Y-7685508D01*
X2182087Y-7685508D02*
X2201134Y-7675984D01*
X2353515Y-7856936D02*
X2363039Y-7866460D01*
X2363039Y-7866460D02*
X2353515Y-7875984D01*
X2353515Y-7875984D02*
X2343991Y-7866460D01*
X2343991Y-7866460D02*
X2353515Y-7856936D01*
X2353515Y-7856936D02*
X2353515Y-7875984D01*
X2486848Y-7675984D02*
X2505896Y-7675984D01*
X2505896Y-7675984D02*
X2524944Y-7685508D01*
X2524944Y-7685508D02*
X2534468Y-7695031D01*
X2534468Y-7695031D02*
X2543991Y-7714079D01*
X2543991Y-7714079D02*
X2553515Y-7752174D01*
X2553515Y-7752174D02*
X2553515Y-7799793D01*
X2553515Y-7799793D02*
X2543991Y-7837888D01*
X2543991Y-7837888D02*
X2534468Y-7856936D01*
X2534468Y-7856936D02*
X2524944Y-7866460D01*
X2524944Y-7866460D02*
X2505896Y-7875984D01*
X2505896Y-7875984D02*
X2486848Y-7875984D01*
X2486848Y-7875984D02*
X2467801Y-7866460D01*
X2467801Y-7866460D02*
X2458277Y-7856936D01*
X2458277Y-7856936D02*
X2448753Y-7837888D01*
X2448753Y-7837888D02*
X2439229Y-7799793D01*
X2439229Y-7799793D02*
X2439229Y-7752174D01*
X2439229Y-7752174D02*
X2448753Y-7714079D01*
X2448753Y-7714079D02*
X2458277Y-7695031D01*
X2458277Y-7695031D02*
X2467801Y-7685508D01*
X2467801Y-7685508D02*
X2486848Y-7675984D01*
X2620182Y-7675984D02*
X2743991Y-7675984D01*
X2743991Y-7675984D02*
X2677325Y-7752174D01*
X2677325Y-7752174D02*
X2705896Y-7752174D01*
X2705896Y-7752174D02*
X2724944Y-7761698D01*
X2724944Y-7761698D02*
X2734468Y-7771222D01*
X2734468Y-7771222D02*
X2743991Y-7790269D01*
X2743991Y-7790269D02*
X2743991Y-7837888D01*
X2743991Y-7837888D02*
X2734468Y-7856936D01*
X2734468Y-7856936D02*
X2724944Y-7866460D01*
X2724944Y-7866460D02*
X2705896Y-7875984D01*
X2705896Y-7875984D02*
X2648753Y-7875984D01*
X2648753Y-7875984D02*
X2629706Y-7866460D01*
X2629706Y-7866460D02*
X2620182Y-7856936D01*
X2839229Y-7875984D02*
X2877325Y-7875984D01*
X2877325Y-7875984D02*
X2896372Y-7866460D01*
X2896372Y-7866460D02*
X2905896Y-7856936D01*
X2905896Y-7856936D02*
X2924944Y-7828365D01*
X2924944Y-7828365D02*
X2934467Y-7790269D01*
X2934467Y-7790269D02*
X2934467Y-7714079D01*
X2934467Y-7714079D02*
X2924944Y-7695031D01*
X2924944Y-7695031D02*
X2915420Y-7685508D01*
X2915420Y-7685508D02*
X2896372Y-7675984D01*
X2896372Y-7675984D02*
X2858277Y-7675984D01*
X2858277Y-7675984D02*
X2839229Y-7685508D01*
X2839229Y-7685508D02*
X2829706Y-7695031D01*
X2829706Y-7695031D02*
X2820182Y-7714079D01*
X2820182Y-7714079D02*
X2820182Y-7761698D01*
X2820182Y-7761698D02*
X2829706Y-7780746D01*
X2829706Y-7780746D02*
X2839229Y-7790269D01*
X2839229Y-7790269D02*
X2858277Y-7799793D01*
X2858277Y-7799793D02*
X2896372Y-7799793D01*
X2896372Y-7799793D02*
X2915420Y-7790269D01*
X2915420Y-7790269D02*
X2924944Y-7780746D01*
X2924944Y-7780746D02*
X2934467Y-7761698D01*
X3105896Y-7742650D02*
X3105896Y-7875984D01*
X3058277Y-7666460D02*
X3010658Y-7809317D01*
X3010658Y-7809317D02*
X3134467Y-7809317D01*
X3201134Y-7675984D02*
X3201134Y-7714079D01*
X3277325Y-7675984D02*
X3277325Y-7714079D01*
X3572563Y-7952174D02*
X3563039Y-7942650D01*
X3563039Y-7942650D02*
X3543991Y-7914079D01*
X3543991Y-7914079D02*
X3534468Y-7895031D01*
X3534468Y-7895031D02*
X3524944Y-7866460D01*
X3524944Y-7866460D02*
X3515420Y-7818841D01*
X3515420Y-7818841D02*
X3515420Y-7780746D01*
X3515420Y-7780746D02*
X3524944Y-7733127D01*
X3524944Y-7733127D02*
X3534468Y-7704555D01*
X3534468Y-7704555D02*
X3543991Y-7685508D01*
X3543991Y-7685508D02*
X3563039Y-7656936D01*
X3563039Y-7656936D02*
X3572563Y-7647412D01*
X3753515Y-7875984D02*
X3639229Y-7875984D01*
X3696372Y-7875984D02*
X3696372Y-7675984D01*
X3696372Y-7675984D02*
X3677325Y-7704555D01*
X3677325Y-7704555D02*
X3658277Y-7723603D01*
X3658277Y-7723603D02*
X3639229Y-7733127D01*
X3829706Y-7695031D02*
X3839229Y-7685508D01*
X3839229Y-7685508D02*
X3858277Y-7675984D01*
X3858277Y-7675984D02*
X3905896Y-7675984D01*
X3905896Y-7675984D02*
X3924944Y-7685508D01*
X3924944Y-7685508D02*
X3934468Y-7695031D01*
X3934468Y-7695031D02*
X3943991Y-7714079D01*
X3943991Y-7714079D02*
X3943991Y-7733127D01*
X3943991Y-7733127D02*
X3934468Y-7761698D01*
X3934468Y-7761698D02*
X3820182Y-7875984D01*
X3820182Y-7875984D02*
X3943991Y-7875984D01*
X4182087Y-7875984D02*
X4182087Y-7675984D01*
X4267801Y-7875984D02*
X4267801Y-7771222D01*
X4267801Y-7771222D02*
X4258277Y-7752174D01*
X4258277Y-7752174D02*
X4239230Y-7742650D01*
X4239230Y-7742650D02*
X4210658Y-7742650D01*
X4210658Y-7742650D02*
X4191610Y-7752174D01*
X4191610Y-7752174D02*
X4182087Y-7761698D01*
X4391611Y-7875984D02*
X4372563Y-7866460D01*
X4372563Y-7866460D02*
X4363039Y-7856936D01*
X4363039Y-7856936D02*
X4353515Y-7837888D01*
X4353515Y-7837888D02*
X4353515Y-7780746D01*
X4353515Y-7780746D02*
X4363039Y-7761698D01*
X4363039Y-7761698D02*
X4372563Y-7752174D01*
X4372563Y-7752174D02*
X4391611Y-7742650D01*
X4391611Y-7742650D02*
X4420182Y-7742650D01*
X4420182Y-7742650D02*
X4439230Y-7752174D01*
X4439230Y-7752174D02*
X4448753Y-7761698D01*
X4448753Y-7761698D02*
X4458277Y-7780746D01*
X4458277Y-7780746D02*
X4458277Y-7837888D01*
X4458277Y-7837888D02*
X4448753Y-7856936D01*
X4448753Y-7856936D02*
X4439230Y-7866460D01*
X4439230Y-7866460D02*
X4420182Y-7875984D01*
X4420182Y-7875984D02*
X4391611Y-7875984D01*
X4572563Y-7875984D02*
X4553515Y-7866460D01*
X4553515Y-7866460D02*
X4543992Y-7847412D01*
X4543992Y-7847412D02*
X4543992Y-7675984D01*
X4724944Y-7866460D02*
X4705896Y-7875984D01*
X4705896Y-7875984D02*
X4667801Y-7875984D01*
X4667801Y-7875984D02*
X4648753Y-7866460D01*
X4648753Y-7866460D02*
X4639230Y-7847412D01*
X4639230Y-7847412D02*
X4639230Y-7771222D01*
X4639230Y-7771222D02*
X4648753Y-7752174D01*
X4648753Y-7752174D02*
X4667801Y-7742650D01*
X4667801Y-7742650D02*
X4705896Y-7742650D01*
X4705896Y-7742650D02*
X4724944Y-7752174D01*
X4724944Y-7752174D02*
X4734468Y-7771222D01*
X4734468Y-7771222D02*
X4734468Y-7790269D01*
X4734468Y-7790269D02*
X4639230Y-7809317D01*
X4810658Y-7866460D02*
X4829706Y-7875984D01*
X4829706Y-7875984D02*
X4867801Y-7875984D01*
X4867801Y-7875984D02*
X4886849Y-7866460D01*
X4886849Y-7866460D02*
X4896373Y-7847412D01*
X4896373Y-7847412D02*
X4896373Y-7837888D01*
X4896373Y-7837888D02*
X4886849Y-7818841D01*
X4886849Y-7818841D02*
X4867801Y-7809317D01*
X4867801Y-7809317D02*
X4839230Y-7809317D01*
X4839230Y-7809317D02*
X4820182Y-7799793D01*
X4820182Y-7799793D02*
X4810658Y-7780746D01*
X4810658Y-7780746D02*
X4810658Y-7771222D01*
X4810658Y-7771222D02*
X4820182Y-7752174D01*
X4820182Y-7752174D02*
X4839230Y-7742650D01*
X4839230Y-7742650D02*
X4867801Y-7742650D01*
X4867801Y-7742650D02*
X4886849Y-7752174D01*
X5134468Y-7799793D02*
X5286849Y-7799793D01*
X5210658Y-7875984D02*
X5210658Y-7723603D01*
X5515420Y-7675984D02*
X5639230Y-7675984D01*
X5639230Y-7675984D02*
X5572563Y-7752174D01*
X5572563Y-7752174D02*
X5601134Y-7752174D01*
X5601134Y-7752174D02*
X5620182Y-7761698D01*
X5620182Y-7761698D02*
X5629706Y-7771222D01*
X5629706Y-7771222D02*
X5639230Y-7790269D01*
X5639230Y-7790269D02*
X5639230Y-7837888D01*
X5639230Y-7837888D02*
X5629706Y-7856936D01*
X5629706Y-7856936D02*
X5620182Y-7866460D01*
X5620182Y-7866460D02*
X5601134Y-7875984D01*
X5601134Y-7875984D02*
X5543992Y-7875984D01*
X5543992Y-7875984D02*
X5524944Y-7866460D01*
X5524944Y-7866460D02*
X5515420Y-7856936D01*
X5867801Y-7866460D02*
X5886849Y-7875984D01*
X5886849Y-7875984D02*
X5924944Y-7875984D01*
X5924944Y-7875984D02*
X5943992Y-7866460D01*
X5943992Y-7866460D02*
X5953515Y-7847412D01*
X5953515Y-7847412D02*
X5953515Y-7837888D01*
X5953515Y-7837888D02*
X5943992Y-7818841D01*
X5943992Y-7818841D02*
X5924944Y-7809317D01*
X5924944Y-7809317D02*
X5896373Y-7809317D01*
X5896373Y-7809317D02*
X5877325Y-7799793D01*
X5877325Y-7799793D02*
X5867801Y-7780746D01*
X5867801Y-7780746D02*
X5867801Y-7771222D01*
X5867801Y-7771222D02*
X5877325Y-7752174D01*
X5877325Y-7752174D02*
X5896373Y-7742650D01*
X5896373Y-7742650D02*
X5924944Y-7742650D01*
X5924944Y-7742650D02*
X5943992Y-7752174D01*
X6067801Y-7875984D02*
X6048754Y-7866460D01*
X6048754Y-7866460D02*
X6039230Y-7847412D01*
X6039230Y-7847412D02*
X6039230Y-7675984D01*
X6172563Y-7875984D02*
X6153515Y-7866460D01*
X6153515Y-7866460D02*
X6143992Y-7856936D01*
X6143992Y-7856936D02*
X6134468Y-7837888D01*
X6134468Y-7837888D02*
X6134468Y-7780746D01*
X6134468Y-7780746D02*
X6143992Y-7761698D01*
X6143992Y-7761698D02*
X6153515Y-7752174D01*
X6153515Y-7752174D02*
X6172563Y-7742650D01*
X6172563Y-7742650D02*
X6201135Y-7742650D01*
X6201135Y-7742650D02*
X6220182Y-7752174D01*
X6220182Y-7752174D02*
X6229706Y-7761698D01*
X6229706Y-7761698D02*
X6239230Y-7780746D01*
X6239230Y-7780746D02*
X6239230Y-7837888D01*
X6239230Y-7837888D02*
X6229706Y-7856936D01*
X6229706Y-7856936D02*
X6220182Y-7866460D01*
X6220182Y-7866460D02*
X6201135Y-7875984D01*
X6201135Y-7875984D02*
X6172563Y-7875984D01*
X6296373Y-7742650D02*
X6372563Y-7742650D01*
X6324944Y-7675984D02*
X6324944Y-7847412D01*
X6324944Y-7847412D02*
X6334468Y-7866460D01*
X6334468Y-7866460D02*
X6353515Y-7875984D01*
X6353515Y-7875984D02*
X6372563Y-7875984D01*
X6429706Y-7866460D02*
X6448754Y-7875984D01*
X6448754Y-7875984D02*
X6486849Y-7875984D01*
X6486849Y-7875984D02*
X6505896Y-7866460D01*
X6505896Y-7866460D02*
X6515420Y-7847412D01*
X6515420Y-7847412D02*
X6515420Y-7837888D01*
X6515420Y-7837888D02*
X6505896Y-7818841D01*
X6505896Y-7818841D02*
X6486849Y-7809317D01*
X6486849Y-7809317D02*
X6458277Y-7809317D01*
X6458277Y-7809317D02*
X6439230Y-7799793D01*
X6439230Y-7799793D02*
X6429706Y-7780746D01*
X6429706Y-7780746D02*
X6429706Y-7771222D01*
X6429706Y-7771222D02*
X6439230Y-7752174D01*
X6439230Y-7752174D02*
X6458277Y-7742650D01*
X6458277Y-7742650D02*
X6486849Y-7742650D01*
X6486849Y-7742650D02*
X6505896Y-7752174D01*
X6582087Y-7952174D02*
X6591611Y-7942650D01*
X6591611Y-7942650D02*
X6610658Y-7914079D01*
X6610658Y-7914079D02*
X6620182Y-7895031D01*
X6620182Y-7895031D02*
X6629706Y-7866460D01*
X6629706Y-7866460D02*
X6639230Y-7818841D01*
X6639230Y-7818841D02*
X6639230Y-7780746D01*
X6639230Y-7780746D02*
X6629706Y-7733127D01*
X6629706Y-7733127D02*
X6620182Y-7704555D01*
X6620182Y-7704555D02*
X6610658Y-7685508D01*
X6610658Y-7685508D02*
X6591611Y-7656936D01*
X6591611Y-7656936D02*
X6582087Y-7647412D01*
X-102500Y-8148500D02*
X-2500Y-8048500D01*
X-102500Y-7948500D01*
X-202500Y-8048500D01*
X-102500Y-8148500D01*
X248753Y-7959031D02*
X258277Y-7949508D01*
X258277Y-7949508D02*
X277324Y-7939984D01*
X277324Y-7939984D02*
X324944Y-7939984D01*
X324944Y-7939984D02*
X343991Y-7949508D01*
X343991Y-7949508D02*
X353515Y-7959031D01*
X353515Y-7959031D02*
X363039Y-7978079D01*
X363039Y-7978079D02*
X363039Y-7997127D01*
X363039Y-7997127D02*
X353515Y-8025698D01*
X353515Y-8025698D02*
X239229Y-8139984D01*
X239229Y-8139984D02*
X363039Y-8139984D01*
X448753Y-8120936D02*
X458277Y-8130460D01*
X458277Y-8130460D02*
X448753Y-8139984D01*
X448753Y-8139984D02*
X439229Y-8130460D01*
X439229Y-8130460D02*
X448753Y-8120936D01*
X448753Y-8120936D02*
X448753Y-8139984D01*
X582086Y-7939984D02*
X601134Y-7939984D01*
X601134Y-7939984D02*
X620182Y-7949508D01*
X620182Y-7949508D02*
X629705Y-7959031D01*
X629705Y-7959031D02*
X639229Y-7978079D01*
X639229Y-7978079D02*
X648753Y-8016174D01*
X648753Y-8016174D02*
X648753Y-8063793D01*
X648753Y-8063793D02*
X639229Y-8101888D01*
X639229Y-8101888D02*
X629705Y-8120936D01*
X629705Y-8120936D02*
X620182Y-8130460D01*
X620182Y-8130460D02*
X601134Y-8139984D01*
X601134Y-8139984D02*
X582086Y-8139984D01*
X582086Y-8139984D02*
X563039Y-8130460D01*
X563039Y-8130460D02*
X553515Y-8120936D01*
X553515Y-8120936D02*
X543991Y-8101888D01*
X543991Y-8101888D02*
X534467Y-8063793D01*
X534467Y-8063793D02*
X534467Y-8016174D01*
X534467Y-8016174D02*
X543991Y-7978079D01*
X543991Y-7978079D02*
X553515Y-7959031D01*
X553515Y-7959031D02*
X563039Y-7949508D01*
X563039Y-7949508D02*
X582086Y-7939984D01*
X772562Y-7939984D02*
X791610Y-7939984D01*
X791610Y-7939984D02*
X810658Y-7949508D01*
X810658Y-7949508D02*
X820182Y-7959031D01*
X820182Y-7959031D02*
X829705Y-7978079D01*
X829705Y-7978079D02*
X839229Y-8016174D01*
X839229Y-8016174D02*
X839229Y-8063793D01*
X839229Y-8063793D02*
X829705Y-8101888D01*
X829705Y-8101888D02*
X820182Y-8120936D01*
X820182Y-8120936D02*
X810658Y-8130460D01*
X810658Y-8130460D02*
X791610Y-8139984D01*
X791610Y-8139984D02*
X772562Y-8139984D01*
X772562Y-8139984D02*
X753515Y-8130460D01*
X753515Y-8130460D02*
X743991Y-8120936D01*
X743991Y-8120936D02*
X734467Y-8101888D01*
X734467Y-8101888D02*
X724943Y-8063793D01*
X724943Y-8063793D02*
X724943Y-8016174D01*
X724943Y-8016174D02*
X734467Y-7978079D01*
X734467Y-7978079D02*
X743991Y-7959031D01*
X743991Y-7959031D02*
X753515Y-7949508D01*
X753515Y-7949508D02*
X772562Y-7939984D01*
X963039Y-7939984D02*
X982086Y-7939984D01*
X982086Y-7939984D02*
X1001134Y-7949508D01*
X1001134Y-7949508D02*
X1010658Y-7959031D01*
X1010658Y-7959031D02*
X1020182Y-7978079D01*
X1020182Y-7978079D02*
X1029705Y-8016174D01*
X1029705Y-8016174D02*
X1029705Y-8063793D01*
X1029705Y-8063793D02*
X1020182Y-8101888D01*
X1020182Y-8101888D02*
X1010658Y-8120936D01*
X1010658Y-8120936D02*
X1001134Y-8130460D01*
X1001134Y-8130460D02*
X982086Y-8139984D01*
X982086Y-8139984D02*
X963039Y-8139984D01*
X963039Y-8139984D02*
X943991Y-8130460D01*
X943991Y-8130460D02*
X934467Y-8120936D01*
X934467Y-8120936D02*
X924943Y-8101888D01*
X924943Y-8101888D02*
X915420Y-8063793D01*
X915420Y-8063793D02*
X915420Y-8016174D01*
X915420Y-8016174D02*
X924943Y-7978079D01*
X924943Y-7978079D02*
X934467Y-7959031D01*
X934467Y-7959031D02*
X943991Y-7949508D01*
X943991Y-7949508D02*
X963039Y-7939984D01*
X1115420Y-8139984D02*
X1115420Y-8006650D01*
X1115420Y-8025698D02*
X1124944Y-8016174D01*
X1124944Y-8016174D02*
X1143991Y-8006650D01*
X1143991Y-8006650D02*
X1172563Y-8006650D01*
X1172563Y-8006650D02*
X1191610Y-8016174D01*
X1191610Y-8016174D02*
X1201134Y-8035222D01*
X1201134Y-8035222D02*
X1201134Y-8139984D01*
X1201134Y-8035222D02*
X1210658Y-8016174D01*
X1210658Y-8016174D02*
X1229705Y-8006650D01*
X1229705Y-8006650D02*
X1258277Y-8006650D01*
X1258277Y-8006650D02*
X1277325Y-8016174D01*
X1277325Y-8016174D02*
X1286848Y-8035222D01*
X1286848Y-8035222D02*
X1286848Y-8139984D01*
X1382086Y-8139984D02*
X1382086Y-8006650D01*
X1382086Y-8025698D02*
X1391610Y-8016174D01*
X1391610Y-8016174D02*
X1410658Y-8006650D01*
X1410658Y-8006650D02*
X1439229Y-8006650D01*
X1439229Y-8006650D02*
X1458277Y-8016174D01*
X1458277Y-8016174D02*
X1467801Y-8035222D01*
X1467801Y-8035222D02*
X1467801Y-8139984D01*
X1467801Y-8035222D02*
X1477324Y-8016174D01*
X1477324Y-8016174D02*
X1496372Y-8006650D01*
X1496372Y-8006650D02*
X1524943Y-8006650D01*
X1524943Y-8006650D02*
X1543991Y-8016174D01*
X1543991Y-8016174D02*
X1553515Y-8035222D01*
X1553515Y-8035222D02*
X1553515Y-8139984D01*
X1943991Y-7930460D02*
X1772563Y-8187603D01*
X2201134Y-7939984D02*
X2220182Y-7939984D01*
X2220182Y-7939984D02*
X2239229Y-7949508D01*
X2239229Y-7949508D02*
X2248753Y-7959031D01*
X2248753Y-7959031D02*
X2258277Y-7978079D01*
X2258277Y-7978079D02*
X2267801Y-8016174D01*
X2267801Y-8016174D02*
X2267801Y-8063793D01*
X2267801Y-8063793D02*
X2258277Y-8101888D01*
X2258277Y-8101888D02*
X2248753Y-8120936D01*
X2248753Y-8120936D02*
X2239229Y-8130460D01*
X2239229Y-8130460D02*
X2220182Y-8139984D01*
X2220182Y-8139984D02*
X2201134Y-8139984D01*
X2201134Y-8139984D02*
X2182087Y-8130460D01*
X2182087Y-8130460D02*
X2172563Y-8120936D01*
X2172563Y-8120936D02*
X2163039Y-8101888D01*
X2163039Y-8101888D02*
X2153515Y-8063793D01*
X2153515Y-8063793D02*
X2153515Y-8016174D01*
X2153515Y-8016174D02*
X2163039Y-7978079D01*
X2163039Y-7978079D02*
X2172563Y-7959031D01*
X2172563Y-7959031D02*
X2182087Y-7949508D01*
X2182087Y-7949508D02*
X2201134Y-7939984D01*
X2353515Y-8120936D02*
X2363039Y-8130460D01*
X2363039Y-8130460D02*
X2353515Y-8139984D01*
X2353515Y-8139984D02*
X2343991Y-8130460D01*
X2343991Y-8130460D02*
X2353515Y-8120936D01*
X2353515Y-8120936D02*
X2353515Y-8139984D01*
X2486848Y-7939984D02*
X2505896Y-7939984D01*
X2505896Y-7939984D02*
X2524944Y-7949508D01*
X2524944Y-7949508D02*
X2534468Y-7959031D01*
X2534468Y-7959031D02*
X2543991Y-7978079D01*
X2543991Y-7978079D02*
X2553515Y-8016174D01*
X2553515Y-8016174D02*
X2553515Y-8063793D01*
X2553515Y-8063793D02*
X2543991Y-8101888D01*
X2543991Y-8101888D02*
X2534468Y-8120936D01*
X2534468Y-8120936D02*
X2524944Y-8130460D01*
X2524944Y-8130460D02*
X2505896Y-8139984D01*
X2505896Y-8139984D02*
X2486848Y-8139984D01*
X2486848Y-8139984D02*
X2467801Y-8130460D01*
X2467801Y-8130460D02*
X2458277Y-8120936D01*
X2458277Y-8120936D02*
X2448753Y-8101888D01*
X2448753Y-8101888D02*
X2439229Y-8063793D01*
X2439229Y-8063793D02*
X2439229Y-8016174D01*
X2439229Y-8016174D02*
X2448753Y-7978079D01*
X2448753Y-7978079D02*
X2458277Y-7959031D01*
X2458277Y-7959031D02*
X2467801Y-7949508D01*
X2467801Y-7949508D02*
X2486848Y-7939984D01*
X2620182Y-7939984D02*
X2753515Y-7939984D01*
X2753515Y-7939984D02*
X2667801Y-8139984D01*
X2858277Y-8025698D02*
X2839229Y-8016174D01*
X2839229Y-8016174D02*
X2829706Y-8006650D01*
X2829706Y-8006650D02*
X2820182Y-7987603D01*
X2820182Y-7987603D02*
X2820182Y-7978079D01*
X2820182Y-7978079D02*
X2829706Y-7959031D01*
X2829706Y-7959031D02*
X2839229Y-7949508D01*
X2839229Y-7949508D02*
X2858277Y-7939984D01*
X2858277Y-7939984D02*
X2896372Y-7939984D01*
X2896372Y-7939984D02*
X2915420Y-7949508D01*
X2915420Y-7949508D02*
X2924944Y-7959031D01*
X2924944Y-7959031D02*
X2934467Y-7978079D01*
X2934467Y-7978079D02*
X2934467Y-7987603D01*
X2934467Y-7987603D02*
X2924944Y-8006650D01*
X2924944Y-8006650D02*
X2915420Y-8016174D01*
X2915420Y-8016174D02*
X2896372Y-8025698D01*
X2896372Y-8025698D02*
X2858277Y-8025698D01*
X2858277Y-8025698D02*
X2839229Y-8035222D01*
X2839229Y-8035222D02*
X2829706Y-8044746D01*
X2829706Y-8044746D02*
X2820182Y-8063793D01*
X2820182Y-8063793D02*
X2820182Y-8101888D01*
X2820182Y-8101888D02*
X2829706Y-8120936D01*
X2829706Y-8120936D02*
X2839229Y-8130460D01*
X2839229Y-8130460D02*
X2858277Y-8139984D01*
X2858277Y-8139984D02*
X2896372Y-8139984D01*
X2896372Y-8139984D02*
X2915420Y-8130460D01*
X2915420Y-8130460D02*
X2924944Y-8120936D01*
X2924944Y-8120936D02*
X2934467Y-8101888D01*
X2934467Y-8101888D02*
X2934467Y-8063793D01*
X2934467Y-8063793D02*
X2924944Y-8044746D01*
X2924944Y-8044746D02*
X2915420Y-8035222D01*
X2915420Y-8035222D02*
X2896372Y-8025698D01*
X3001134Y-7939984D02*
X3134467Y-7939984D01*
X3134467Y-7939984D02*
X3048753Y-8139984D01*
X3201134Y-7939984D02*
X3201134Y-7978079D01*
X3277325Y-7939984D02*
X3277325Y-7978079D01*
X3572563Y-8216174D02*
X3563039Y-8206650D01*
X3563039Y-8206650D02*
X3543991Y-8178079D01*
X3543991Y-8178079D02*
X3534468Y-8159031D01*
X3534468Y-8159031D02*
X3524944Y-8130460D01*
X3524944Y-8130460D02*
X3515420Y-8082841D01*
X3515420Y-8082841D02*
X3515420Y-8044746D01*
X3515420Y-8044746D02*
X3524944Y-7997127D01*
X3524944Y-7997127D02*
X3534468Y-7968555D01*
X3534468Y-7968555D02*
X3543991Y-7949508D01*
X3543991Y-7949508D02*
X3563039Y-7920936D01*
X3563039Y-7920936D02*
X3572563Y-7911412D01*
X3686848Y-7939984D02*
X3705896Y-7939984D01*
X3705896Y-7939984D02*
X3724944Y-7949508D01*
X3724944Y-7949508D02*
X3734468Y-7959031D01*
X3734468Y-7959031D02*
X3743991Y-7978079D01*
X3743991Y-7978079D02*
X3753515Y-8016174D01*
X3753515Y-8016174D02*
X3753515Y-8063793D01*
X3753515Y-8063793D02*
X3743991Y-8101888D01*
X3743991Y-8101888D02*
X3734468Y-8120936D01*
X3734468Y-8120936D02*
X3724944Y-8130460D01*
X3724944Y-8130460D02*
X3705896Y-8139984D01*
X3705896Y-8139984D02*
X3686848Y-8139984D01*
X3686848Y-8139984D02*
X3667801Y-8130460D01*
X3667801Y-8130460D02*
X3658277Y-8120936D01*
X3658277Y-8120936D02*
X3648753Y-8101888D01*
X3648753Y-8101888D02*
X3639229Y-8063793D01*
X3639229Y-8063793D02*
X3639229Y-8016174D01*
X3639229Y-8016174D02*
X3648753Y-7978079D01*
X3648753Y-7978079D02*
X3658277Y-7959031D01*
X3658277Y-7959031D02*
X3667801Y-7949508D01*
X3667801Y-7949508D02*
X3686848Y-7939984D01*
X3991610Y-8139984D02*
X3991610Y-7939984D01*
X4077325Y-8139984D02*
X4077325Y-8035222D01*
X4077325Y-8035222D02*
X4067801Y-8016174D01*
X4067801Y-8016174D02*
X4048753Y-8006650D01*
X4048753Y-8006650D02*
X4020182Y-8006650D01*
X4020182Y-8006650D02*
X4001134Y-8016174D01*
X4001134Y-8016174D02*
X3991610Y-8025698D01*
X4201134Y-8139984D02*
X4182087Y-8130460D01*
X4182087Y-8130460D02*
X4172563Y-8120936D01*
X4172563Y-8120936D02*
X4163039Y-8101888D01*
X4163039Y-8101888D02*
X4163039Y-8044746D01*
X4163039Y-8044746D02*
X4172563Y-8025698D01*
X4172563Y-8025698D02*
X4182087Y-8016174D01*
X4182087Y-8016174D02*
X4201134Y-8006650D01*
X4201134Y-8006650D02*
X4229706Y-8006650D01*
X4229706Y-8006650D02*
X4248753Y-8016174D01*
X4248753Y-8016174D02*
X4258277Y-8025698D01*
X4258277Y-8025698D02*
X4267801Y-8044746D01*
X4267801Y-8044746D02*
X4267801Y-8101888D01*
X4267801Y-8101888D02*
X4258277Y-8120936D01*
X4258277Y-8120936D02*
X4248753Y-8130460D01*
X4248753Y-8130460D02*
X4229706Y-8139984D01*
X4229706Y-8139984D02*
X4201134Y-8139984D01*
X4382087Y-8139984D02*
X4363039Y-8130460D01*
X4363039Y-8130460D02*
X4353515Y-8111412D01*
X4353515Y-8111412D02*
X4353515Y-7939984D01*
X4534468Y-8130460D02*
X4515420Y-8139984D01*
X4515420Y-8139984D02*
X4477325Y-8139984D01*
X4477325Y-8139984D02*
X4458277Y-8130460D01*
X4458277Y-8130460D02*
X4448753Y-8111412D01*
X4448753Y-8111412D02*
X4448753Y-8035222D01*
X4448753Y-8035222D02*
X4458277Y-8016174D01*
X4458277Y-8016174D02*
X4477325Y-8006650D01*
X4477325Y-8006650D02*
X4515420Y-8006650D01*
X4515420Y-8006650D02*
X4534468Y-8016174D01*
X4534468Y-8016174D02*
X4543992Y-8035222D01*
X4543992Y-8035222D02*
X4543992Y-8054269D01*
X4543992Y-8054269D02*
X4448753Y-8073317D01*
X4620182Y-8130460D02*
X4639230Y-8139984D01*
X4639230Y-8139984D02*
X4677325Y-8139984D01*
X4677325Y-8139984D02*
X4696373Y-8130460D01*
X4696373Y-8130460D02*
X4705896Y-8111412D01*
X4705896Y-8111412D02*
X4705896Y-8101888D01*
X4705896Y-8101888D02*
X4696373Y-8082841D01*
X4696373Y-8082841D02*
X4677325Y-8073317D01*
X4677325Y-8073317D02*
X4648753Y-8073317D01*
X4648753Y-8073317D02*
X4629706Y-8063793D01*
X4629706Y-8063793D02*
X4620182Y-8044746D01*
X4620182Y-8044746D02*
X4620182Y-8035222D01*
X4620182Y-8035222D02*
X4629706Y-8016174D01*
X4629706Y-8016174D02*
X4648753Y-8006650D01*
X4648753Y-8006650D02*
X4677325Y-8006650D01*
X4677325Y-8006650D02*
X4696373Y-8016174D01*
X4943992Y-8063793D02*
X5096373Y-8063793D01*
X5020182Y-8139984D02*
X5020182Y-7987603D01*
X5429706Y-8006650D02*
X5429706Y-8139984D01*
X5382087Y-7930460D02*
X5334468Y-8073317D01*
X5334468Y-8073317D02*
X5458277Y-8073317D01*
X5677325Y-8130460D02*
X5696373Y-8139984D01*
X5696373Y-8139984D02*
X5734468Y-8139984D01*
X5734468Y-8139984D02*
X5753515Y-8130460D01*
X5753515Y-8130460D02*
X5763039Y-8111412D01*
X5763039Y-8111412D02*
X5763039Y-8101888D01*
X5763039Y-8101888D02*
X5753515Y-8082841D01*
X5753515Y-8082841D02*
X5734468Y-8073317D01*
X5734468Y-8073317D02*
X5705896Y-8073317D01*
X5705896Y-8073317D02*
X5686849Y-8063793D01*
X5686849Y-8063793D02*
X5677325Y-8044746D01*
X5677325Y-8044746D02*
X5677325Y-8035222D01*
X5677325Y-8035222D02*
X5686849Y-8016174D01*
X5686849Y-8016174D02*
X5705896Y-8006650D01*
X5705896Y-8006650D02*
X5734468Y-8006650D01*
X5734468Y-8006650D02*
X5753515Y-8016174D01*
X5877325Y-8139984D02*
X5858277Y-8130460D01*
X5858277Y-8130460D02*
X5848754Y-8111412D01*
X5848754Y-8111412D02*
X5848754Y-7939984D01*
X5982087Y-8139984D02*
X5963039Y-8130460D01*
X5963039Y-8130460D02*
X5953515Y-8120936D01*
X5953515Y-8120936D02*
X5943992Y-8101888D01*
X5943992Y-8101888D02*
X5943992Y-8044746D01*
X5943992Y-8044746D02*
X5953515Y-8025698D01*
X5953515Y-8025698D02*
X5963039Y-8016174D01*
X5963039Y-8016174D02*
X5982087Y-8006650D01*
X5982087Y-8006650D02*
X6010658Y-8006650D01*
X6010658Y-8006650D02*
X6029706Y-8016174D01*
X6029706Y-8016174D02*
X6039230Y-8025698D01*
X6039230Y-8025698D02*
X6048754Y-8044746D01*
X6048754Y-8044746D02*
X6048754Y-8101888D01*
X6048754Y-8101888D02*
X6039230Y-8120936D01*
X6039230Y-8120936D02*
X6029706Y-8130460D01*
X6029706Y-8130460D02*
X6010658Y-8139984D01*
X6010658Y-8139984D02*
X5982087Y-8139984D01*
X6105896Y-8006650D02*
X6182087Y-8006650D01*
X6134468Y-7939984D02*
X6134468Y-8111412D01*
X6134468Y-8111412D02*
X6143992Y-8130460D01*
X6143992Y-8130460D02*
X6163039Y-8139984D01*
X6163039Y-8139984D02*
X6182087Y-8139984D01*
X6239230Y-8130460D02*
X6258277Y-8139984D01*
X6258277Y-8139984D02*
X6296373Y-8139984D01*
X6296373Y-8139984D02*
X6315420Y-8130460D01*
X6315420Y-8130460D02*
X6324944Y-8111412D01*
X6324944Y-8111412D02*
X6324944Y-8101888D01*
X6324944Y-8101888D02*
X6315420Y-8082841D01*
X6315420Y-8082841D02*
X6296373Y-8073317D01*
X6296373Y-8073317D02*
X6267801Y-8073317D01*
X6267801Y-8073317D02*
X6248754Y-8063793D01*
X6248754Y-8063793D02*
X6239230Y-8044746D01*
X6239230Y-8044746D02*
X6239230Y-8035222D01*
X6239230Y-8035222D02*
X6248754Y-8016174D01*
X6248754Y-8016174D02*
X6267801Y-8006650D01*
X6267801Y-8006650D02*
X6296373Y-8006650D01*
X6296373Y-8006650D02*
X6315420Y-8016174D01*
X6391611Y-8216174D02*
X6401135Y-8206650D01*
X6401135Y-8206650D02*
X6420182Y-8178079D01*
X6420182Y-8178079D02*
X6429706Y-8159031D01*
X6429706Y-8159031D02*
X6439230Y-8130460D01*
X6439230Y-8130460D02*
X6448754Y-8082841D01*
X6448754Y-8082841D02*
X6448754Y-8044746D01*
X6448754Y-8044746D02*
X6439230Y-7997127D01*
X6439230Y-7997127D02*
X6429706Y-7968555D01*
X6429706Y-7968555D02*
X6420182Y-7949508D01*
X6420182Y-7949508D02*
X6401135Y-7920936D01*
X6401135Y-7920936D02*
X6391611Y-7911412D01*
X-202500Y-8268500D02*
X-2500Y-8468500D01*
X-2500Y-8268500D02*
X-202500Y-8468500D01*
X-2500Y-8368500D02*
G75*
G02*
X-202500Y-8368500I-100000J0D01*
G01*
X-202500Y-8368500D02*
G75*
G02*
X-2500Y-8368500I100000J0D01*
G01*
X239229Y-8259984D02*
X363039Y-8259984D01*
X363039Y-8259984D02*
X296372Y-8336174D01*
X296372Y-8336174D02*
X324944Y-8336174D01*
X324944Y-8336174D02*
X343991Y-8345698D01*
X343991Y-8345698D02*
X353515Y-8355222D01*
X353515Y-8355222D02*
X363039Y-8374269D01*
X363039Y-8374269D02*
X363039Y-8421889D01*
X363039Y-8421889D02*
X353515Y-8440936D01*
X353515Y-8440936D02*
X343991Y-8450460D01*
X343991Y-8450460D02*
X324944Y-8459984D01*
X324944Y-8459984D02*
X267801Y-8459984D01*
X267801Y-8459984D02*
X248753Y-8450460D01*
X248753Y-8450460D02*
X239229Y-8440936D01*
X448753Y-8440936D02*
X458277Y-8450460D01*
X458277Y-8450460D02*
X448753Y-8459984D01*
X448753Y-8459984D02*
X439229Y-8450460D01*
X439229Y-8450460D02*
X448753Y-8440936D01*
X448753Y-8440936D02*
X448753Y-8459984D01*
X582086Y-8259984D02*
X601134Y-8259984D01*
X601134Y-8259984D02*
X620182Y-8269508D01*
X620182Y-8269508D02*
X629705Y-8279031D01*
X629705Y-8279031D02*
X639229Y-8298079D01*
X639229Y-8298079D02*
X648753Y-8336174D01*
X648753Y-8336174D02*
X648753Y-8383793D01*
X648753Y-8383793D02*
X639229Y-8421889D01*
X639229Y-8421889D02*
X629705Y-8440936D01*
X629705Y-8440936D02*
X620182Y-8450460D01*
X620182Y-8450460D02*
X601134Y-8459984D01*
X601134Y-8459984D02*
X582086Y-8459984D01*
X582086Y-8459984D02*
X563039Y-8450460D01*
X563039Y-8450460D02*
X553515Y-8440936D01*
X553515Y-8440936D02*
X543991Y-8421889D01*
X543991Y-8421889D02*
X534467Y-8383793D01*
X534467Y-8383793D02*
X534467Y-8336174D01*
X534467Y-8336174D02*
X543991Y-8298079D01*
X543991Y-8298079D02*
X553515Y-8279031D01*
X553515Y-8279031D02*
X563039Y-8269508D01*
X563039Y-8269508D02*
X582086Y-8259984D01*
X772562Y-8259984D02*
X791610Y-8259984D01*
X791610Y-8259984D02*
X810658Y-8269508D01*
X810658Y-8269508D02*
X820182Y-8279031D01*
X820182Y-8279031D02*
X829705Y-8298079D01*
X829705Y-8298079D02*
X839229Y-8336174D01*
X839229Y-8336174D02*
X839229Y-8383793D01*
X839229Y-8383793D02*
X829705Y-8421889D01*
X829705Y-8421889D02*
X820182Y-8440936D01*
X820182Y-8440936D02*
X810658Y-8450460D01*
X810658Y-8450460D02*
X791610Y-8459984D01*
X791610Y-8459984D02*
X772562Y-8459984D01*
X772562Y-8459984D02*
X753515Y-8450460D01*
X753515Y-8450460D02*
X743991Y-8440936D01*
X743991Y-8440936D02*
X734467Y-8421889D01*
X734467Y-8421889D02*
X724943Y-8383793D01*
X724943Y-8383793D02*
X724943Y-8336174D01*
X724943Y-8336174D02*
X734467Y-8298079D01*
X734467Y-8298079D02*
X743991Y-8279031D01*
X743991Y-8279031D02*
X753515Y-8269508D01*
X753515Y-8269508D02*
X772562Y-8259984D01*
X963039Y-8259984D02*
X982086Y-8259984D01*
X982086Y-8259984D02*
X1001134Y-8269508D01*
X1001134Y-8269508D02*
X1010658Y-8279031D01*
X1010658Y-8279031D02*
X1020182Y-8298079D01*
X1020182Y-8298079D02*
X1029705Y-8336174D01*
X1029705Y-8336174D02*
X1029705Y-8383793D01*
X1029705Y-8383793D02*
X1020182Y-8421889D01*
X1020182Y-8421889D02*
X1010658Y-8440936D01*
X1010658Y-8440936D02*
X1001134Y-8450460D01*
X1001134Y-8450460D02*
X982086Y-8459984D01*
X982086Y-8459984D02*
X963039Y-8459984D01*
X963039Y-8459984D02*
X943991Y-8450460D01*
X943991Y-8450460D02*
X934467Y-8440936D01*
X934467Y-8440936D02*
X924943Y-8421889D01*
X924943Y-8421889D02*
X915420Y-8383793D01*
X915420Y-8383793D02*
X915420Y-8336174D01*
X915420Y-8336174D02*
X924943Y-8298079D01*
X924943Y-8298079D02*
X934467Y-8279031D01*
X934467Y-8279031D02*
X943991Y-8269508D01*
X943991Y-8269508D02*
X963039Y-8259984D01*
X1115420Y-8459984D02*
X1115420Y-8326650D01*
X1115420Y-8345698D02*
X1124944Y-8336174D01*
X1124944Y-8336174D02*
X1143991Y-8326650D01*
X1143991Y-8326650D02*
X1172563Y-8326650D01*
X1172563Y-8326650D02*
X1191610Y-8336174D01*
X1191610Y-8336174D02*
X1201134Y-8355222D01*
X1201134Y-8355222D02*
X1201134Y-8459984D01*
X1201134Y-8355222D02*
X1210658Y-8336174D01*
X1210658Y-8336174D02*
X1229705Y-8326650D01*
X1229705Y-8326650D02*
X1258277Y-8326650D01*
X1258277Y-8326650D02*
X1277325Y-8336174D01*
X1277325Y-8336174D02*
X1286848Y-8355222D01*
X1286848Y-8355222D02*
X1286848Y-8459984D01*
X1382086Y-8459984D02*
X1382086Y-8326650D01*
X1382086Y-8345698D02*
X1391610Y-8336174D01*
X1391610Y-8336174D02*
X1410658Y-8326650D01*
X1410658Y-8326650D02*
X1439229Y-8326650D01*
X1439229Y-8326650D02*
X1458277Y-8336174D01*
X1458277Y-8336174D02*
X1467801Y-8355222D01*
X1467801Y-8355222D02*
X1467801Y-8459984D01*
X1467801Y-8355222D02*
X1477324Y-8336174D01*
X1477324Y-8336174D02*
X1496372Y-8326650D01*
X1496372Y-8326650D02*
X1524943Y-8326650D01*
X1524943Y-8326650D02*
X1543991Y-8336174D01*
X1543991Y-8336174D02*
X1553515Y-8355222D01*
X1553515Y-8355222D02*
X1553515Y-8459984D01*
X1943991Y-8250460D02*
X1772563Y-8507603D01*
X2201134Y-8259984D02*
X2220182Y-8259984D01*
X2220182Y-8259984D02*
X2239229Y-8269508D01*
X2239229Y-8269508D02*
X2248753Y-8279031D01*
X2248753Y-8279031D02*
X2258277Y-8298079D01*
X2258277Y-8298079D02*
X2267801Y-8336174D01*
X2267801Y-8336174D02*
X2267801Y-8383793D01*
X2267801Y-8383793D02*
X2258277Y-8421889D01*
X2258277Y-8421889D02*
X2248753Y-8440936D01*
X2248753Y-8440936D02*
X2239229Y-8450460D01*
X2239229Y-8450460D02*
X2220182Y-8459984D01*
X2220182Y-8459984D02*
X2201134Y-8459984D01*
X2201134Y-8459984D02*
X2182087Y-8450460D01*
X2182087Y-8450460D02*
X2172563Y-8440936D01*
X2172563Y-8440936D02*
X2163039Y-8421889D01*
X2163039Y-8421889D02*
X2153515Y-8383793D01*
X2153515Y-8383793D02*
X2153515Y-8336174D01*
X2153515Y-8336174D02*
X2163039Y-8298079D01*
X2163039Y-8298079D02*
X2172563Y-8279031D01*
X2172563Y-8279031D02*
X2182087Y-8269508D01*
X2182087Y-8269508D02*
X2201134Y-8259984D01*
X2353515Y-8440936D02*
X2363039Y-8450460D01*
X2363039Y-8450460D02*
X2353515Y-8459984D01*
X2353515Y-8459984D02*
X2343991Y-8450460D01*
X2343991Y-8450460D02*
X2353515Y-8440936D01*
X2353515Y-8440936D02*
X2353515Y-8459984D01*
X2553515Y-8459984D02*
X2439229Y-8459984D01*
X2496372Y-8459984D02*
X2496372Y-8259984D01*
X2496372Y-8259984D02*
X2477325Y-8288555D01*
X2477325Y-8288555D02*
X2458277Y-8307603D01*
X2458277Y-8307603D02*
X2439229Y-8317127D01*
X2743991Y-8459984D02*
X2629706Y-8459984D01*
X2686848Y-8459984D02*
X2686848Y-8259984D01*
X2686848Y-8259984D02*
X2667801Y-8288555D01*
X2667801Y-8288555D02*
X2648753Y-8307603D01*
X2648753Y-8307603D02*
X2629706Y-8317127D01*
X2858277Y-8345698D02*
X2839229Y-8336174D01*
X2839229Y-8336174D02*
X2829706Y-8326650D01*
X2829706Y-8326650D02*
X2820182Y-8307603D01*
X2820182Y-8307603D02*
X2820182Y-8298079D01*
X2820182Y-8298079D02*
X2829706Y-8279031D01*
X2829706Y-8279031D02*
X2839229Y-8269508D01*
X2839229Y-8269508D02*
X2858277Y-8259984D01*
X2858277Y-8259984D02*
X2896372Y-8259984D01*
X2896372Y-8259984D02*
X2915420Y-8269508D01*
X2915420Y-8269508D02*
X2924944Y-8279031D01*
X2924944Y-8279031D02*
X2934467Y-8298079D01*
X2934467Y-8298079D02*
X2934467Y-8307603D01*
X2934467Y-8307603D02*
X2924944Y-8326650D01*
X2924944Y-8326650D02*
X2915420Y-8336174D01*
X2915420Y-8336174D02*
X2896372Y-8345698D01*
X2896372Y-8345698D02*
X2858277Y-8345698D01*
X2858277Y-8345698D02*
X2839229Y-8355222D01*
X2839229Y-8355222D02*
X2829706Y-8364746D01*
X2829706Y-8364746D02*
X2820182Y-8383793D01*
X2820182Y-8383793D02*
X2820182Y-8421889D01*
X2820182Y-8421889D02*
X2829706Y-8440936D01*
X2829706Y-8440936D02*
X2839229Y-8450460D01*
X2839229Y-8450460D02*
X2858277Y-8459984D01*
X2858277Y-8459984D02*
X2896372Y-8459984D01*
X2896372Y-8459984D02*
X2915420Y-8450460D01*
X2915420Y-8450460D02*
X2924944Y-8440936D01*
X2924944Y-8440936D02*
X2934467Y-8421889D01*
X2934467Y-8421889D02*
X2934467Y-8383793D01*
X2934467Y-8383793D02*
X2924944Y-8364746D01*
X2924944Y-8364746D02*
X2915420Y-8355222D01*
X2915420Y-8355222D02*
X2896372Y-8345698D01*
X3124944Y-8459984D02*
X3010658Y-8459984D01*
X3067801Y-8459984D02*
X3067801Y-8259984D01*
X3067801Y-8259984D02*
X3048753Y-8288555D01*
X3048753Y-8288555D02*
X3029706Y-8307603D01*
X3029706Y-8307603D02*
X3010658Y-8317127D01*
X3201134Y-8259984D02*
X3201134Y-8298079D01*
X3277325Y-8259984D02*
X3277325Y-8298079D01*
X3572563Y-8536174D02*
X3563039Y-8526650D01*
X3563039Y-8526650D02*
X3543991Y-8498079D01*
X3543991Y-8498079D02*
X3534468Y-8479031D01*
X3534468Y-8479031D02*
X3524944Y-8450460D01*
X3524944Y-8450460D02*
X3515420Y-8402841D01*
X3515420Y-8402841D02*
X3515420Y-8364746D01*
X3515420Y-8364746D02*
X3524944Y-8317127D01*
X3524944Y-8317127D02*
X3534468Y-8288555D01*
X3534468Y-8288555D02*
X3543991Y-8269508D01*
X3543991Y-8269508D02*
X3563039Y-8240936D01*
X3563039Y-8240936D02*
X3572563Y-8231412D01*
X3629706Y-8259984D02*
X3763039Y-8259984D01*
X3763039Y-8259984D02*
X3677325Y-8459984D01*
X3991610Y-8459984D02*
X3991610Y-8259984D01*
X4077325Y-8459984D02*
X4077325Y-8355222D01*
X4077325Y-8355222D02*
X4067801Y-8336174D01*
X4067801Y-8336174D02*
X4048753Y-8326650D01*
X4048753Y-8326650D02*
X4020182Y-8326650D01*
X4020182Y-8326650D02*
X4001134Y-8336174D01*
X4001134Y-8336174D02*
X3991610Y-8345698D01*
X4201134Y-8459984D02*
X4182087Y-8450460D01*
X4182087Y-8450460D02*
X4172563Y-8440936D01*
X4172563Y-8440936D02*
X4163039Y-8421889D01*
X4163039Y-8421889D02*
X4163039Y-8364746D01*
X4163039Y-8364746D02*
X4172563Y-8345698D01*
X4172563Y-8345698D02*
X4182087Y-8336174D01*
X4182087Y-8336174D02*
X4201134Y-8326650D01*
X4201134Y-8326650D02*
X4229706Y-8326650D01*
X4229706Y-8326650D02*
X4248753Y-8336174D01*
X4248753Y-8336174D02*
X4258277Y-8345698D01*
X4258277Y-8345698D02*
X4267801Y-8364746D01*
X4267801Y-8364746D02*
X4267801Y-8421889D01*
X4267801Y-8421889D02*
X4258277Y-8440936D01*
X4258277Y-8440936D02*
X4248753Y-8450460D01*
X4248753Y-8450460D02*
X4229706Y-8459984D01*
X4229706Y-8459984D02*
X4201134Y-8459984D01*
X4382087Y-8459984D02*
X4363039Y-8450460D01*
X4363039Y-8450460D02*
X4353515Y-8431412D01*
X4353515Y-8431412D02*
X4353515Y-8259984D01*
X4534468Y-8450460D02*
X4515420Y-8459984D01*
X4515420Y-8459984D02*
X4477325Y-8459984D01*
X4477325Y-8459984D02*
X4458277Y-8450460D01*
X4458277Y-8450460D02*
X4448753Y-8431412D01*
X4448753Y-8431412D02*
X4448753Y-8355222D01*
X4448753Y-8355222D02*
X4458277Y-8336174D01*
X4458277Y-8336174D02*
X4477325Y-8326650D01*
X4477325Y-8326650D02*
X4515420Y-8326650D01*
X4515420Y-8326650D02*
X4534468Y-8336174D01*
X4534468Y-8336174D02*
X4543992Y-8355222D01*
X4543992Y-8355222D02*
X4543992Y-8374269D01*
X4543992Y-8374269D02*
X4448753Y-8393317D01*
X4620182Y-8450460D02*
X4639230Y-8459984D01*
X4639230Y-8459984D02*
X4677325Y-8459984D01*
X4677325Y-8459984D02*
X4696373Y-8450460D01*
X4696373Y-8450460D02*
X4705896Y-8431412D01*
X4705896Y-8431412D02*
X4705896Y-8421889D01*
X4705896Y-8421889D02*
X4696373Y-8402841D01*
X4696373Y-8402841D02*
X4677325Y-8393317D01*
X4677325Y-8393317D02*
X4648753Y-8393317D01*
X4648753Y-8393317D02*
X4629706Y-8383793D01*
X4629706Y-8383793D02*
X4620182Y-8364746D01*
X4620182Y-8364746D02*
X4620182Y-8355222D01*
X4620182Y-8355222D02*
X4629706Y-8336174D01*
X4629706Y-8336174D02*
X4648753Y-8326650D01*
X4648753Y-8326650D02*
X4677325Y-8326650D01*
X4677325Y-8326650D02*
X4696373Y-8336174D01*
X4772563Y-8536174D02*
X4782087Y-8526650D01*
X4782087Y-8526650D02*
X4801134Y-8498079D01*
X4801134Y-8498079D02*
X4810658Y-8479031D01*
X4810658Y-8479031D02*
X4820182Y-8450460D01*
X4820182Y-8450460D02*
X4829706Y-8402841D01*
X4829706Y-8402841D02*
X4829706Y-8364746D01*
X4829706Y-8364746D02*
X4820182Y-8317127D01*
X4820182Y-8317127D02*
X4810658Y-8288555D01*
X4810658Y-8288555D02*
X4801134Y-8269508D01*
X4801134Y-8269508D02*
X4782087Y-8240936D01*
X4782087Y-8240936D02*
X4772563Y-8231412D01*
M02*
