%TF.GenerationSoftware,KiCad,Pcbnew,7.0.6*%
%TF.CreationDate,2024-03-24T21:23:19-04:00*%
%TF.ProjectId,Radio Module,52616469-6f20-44d6-9f64-756c652e6b69,rev?*%
%TF.SameCoordinates,Original*%
%TF.FileFunction,Copper,L2,Bot*%
%TF.FilePolarity,Positive*%
%FSLAX46Y46*%
G04 Gerber Fmt 4.6, Leading zero omitted, Abs format (unit mm)*
G04 Created by KiCad (PCBNEW 7.0.6) date 2024-03-24 21:23:19*
%MOMM*%
%LPD*%
G01*
G04 APERTURE LIST*
%TA.AperFunction,ComponentPad*%
%ADD10R,1.000000X1.000000*%
%TD*%
%TA.AperFunction,ComponentPad*%
%ADD11O,1.000000X1.000000*%
%TD*%
%TA.AperFunction,ComponentPad*%
%ADD12C,0.330000*%
%TD*%
%TA.AperFunction,ComponentPad*%
%ADD13O,2.000000X0.950000*%
%TD*%
%TA.AperFunction,ComponentPad*%
%ADD14O,0.950000X2.000000*%
%TD*%
%TA.AperFunction,ComponentPad*%
%ADD15R,1.300000X0.900000*%
%TD*%
%TA.AperFunction,ComponentPad*%
%ADD16R,0.900000X1.300000*%
%TD*%
%TA.AperFunction,ComponentPad*%
%ADD17C,1.725000*%
%TD*%
%TA.AperFunction,ViaPad*%
%ADD18C,1.000000*%
%TD*%
%TA.AperFunction,ViaPad*%
%ADD19C,0.800000*%
%TD*%
%TA.AperFunction,Conductor*%
%ADD20C,0.500000*%
%TD*%
%TA.AperFunction,Conductor*%
%ADD21C,0.250000*%
%TD*%
G04 APERTURE END LIST*
D10*
%TO.P,J3,1,Pin_1*%
%TO.N,Net-(J1-Pin_1)*%
X167386000Y-95758000D03*
D11*
%TO.P,J3,2,Pin_2*%
%TO.N,Net-(J1-Pin_2)*%
X168656000Y-95758000D03*
%TD*%
D10*
%TO.P,J4,1,Pin_1*%
%TO.N,Vin*%
X166116000Y-57658000D03*
D11*
%TO.P,J4,2,Pin_2*%
%TO.N,GND*%
X167386000Y-57658000D03*
%TD*%
D12*
%TO.P,IC1,38,GND_6*%
%TO.N,GND*%
X181990000Y-83058000D03*
X181990000Y-83818000D03*
X181990000Y-84748000D03*
X182880000Y-83058000D03*
X182880000Y-83818000D03*
X182880000Y-84748000D03*
X183740000Y-83058000D03*
X183740000Y-83818000D03*
X183740000Y-84748000D03*
%TD*%
D13*
%TO.P,IC3,*%
%TO.N,*%
X159145000Y-84667000D03*
X159145000Y-82667000D03*
X159145000Y-80667000D03*
X159145000Y-78667000D03*
X159145000Y-76667000D03*
X159145000Y-74667000D03*
X159145000Y-72667000D03*
X159145000Y-70667000D03*
X159145000Y-68667000D03*
X159145000Y-66667000D03*
X159145000Y-64667000D03*
X159145000Y-62667000D03*
X159145000Y-60667000D03*
D14*
X154875000Y-58357000D03*
X152875000Y-58357000D03*
X150875000Y-58357000D03*
X148875000Y-58357000D03*
X146875000Y-58357000D03*
X144875000Y-58357000D03*
X142875000Y-58357000D03*
X140875000Y-58357000D03*
D13*
X136705000Y-90697000D03*
X136705000Y-88697000D03*
X136705000Y-86697000D03*
X136705000Y-84697000D03*
X136705000Y-82697000D03*
X136705000Y-80697000D03*
X136705000Y-78697000D03*
X136705000Y-76697000D03*
X136705000Y-74697000D03*
X136705000Y-72697000D03*
X136705000Y-70697000D03*
X136705000Y-68697000D03*
X136705000Y-66697000D03*
X136705000Y-64697000D03*
X136705000Y-62697000D03*
X136705000Y-60697000D03*
D15*
%TO.P,IC3,1,GND_1*%
%TO.N,GND*%
X160995000Y-84667000D03*
%TO.P,IC3,2,VCC*%
%TO.N,Vcc*%
X160995000Y-82667000D03*
%TO.P,IC3,3,DIO13/DOUT*%
%TO.N,Dout*%
X160995000Y-80667000D03*
%TO.P,IC3,4,DIN/DIO14/~{CONFIG}*%
%TO.N,Din*%
X160995000Y-78667000D03*
%TO.P,IC3,5,DIO12*%
%TO.N,unconnected-(IC3-DIO12-Pad5)*%
X160995000Y-76667000D03*
%TO.P,IC3,6,~{RESET}*%
%TO.N,unconnected-(IC3-~{RESET}-Pad6)*%
X160995000Y-74667000D03*
%TO.P,IC3,7,DIO10/RSSI/PWM0*%
%TO.N,unconnected-(IC3-DIO10{slash}RSSI{slash}PWM0-Pad7)*%
X160995000Y-72667000D03*
%TO.P,IC3,8,DIO11/PWM1*%
%TO.N,unconnected-(IC3-DIO11{slash}PWM1-Pad8)*%
X160995000Y-70667000D03*
%TO.P,IC3,9,[RESERVED]_1*%
%TO.N,unconnected-(IC3-[RESERVED]_1-Pad9)*%
X160995000Y-68667000D03*
%TO.P,IC3,10,DIO8/~{DTR_}/SLEEP__RQ*%
%TO.N,unconnected-(IC3-DIO8{slash}~{DTR_}{slash}SLEEP__RQ-Pad10)*%
X160995000Y-66667000D03*
%TO.P,IC3,11,GND_2*%
%TO.N,unconnected-(IC3-GND_2-Pad11)*%
X160995000Y-64667000D03*
%TO.P,IC3,12,DO19/SPI_~{ATTN}*%
%TO.N,unconnected-(IC3-DO19{slash}SPI_~{ATTN}-Pad12)*%
X160995000Y-62667000D03*
%TO.P,IC3,13,GND_3*%
%TO.N,unconnected-(IC3-GND_3-Pad13)*%
X160995000Y-60667000D03*
D16*
%TO.P,IC3,14,DO18/SPI_CLK*%
%TO.N,unconnected-(IC3-DO18{slash}SPI_CLK-Pad14)*%
X154875000Y-56507000D03*
%TO.P,IC3,15,DO17/SPI_~{SSEL}*%
%TO.N,unconnected-(IC3-DO17{slash}SPI_~{SSEL}-Pad15)*%
X152875000Y-56507000D03*
%TO.P,IC3,16,DO16/SPI_MOSI*%
%TO.N,unconnected-(IC3-DO16{slash}SPI_MOSI-Pad16)*%
X150875000Y-56507000D03*
%TO.P,IC3,17,DO15/SPI_MISO*%
%TO.N,unconnected-(IC3-DO15{slash}SPI_MISO-Pad17)*%
X148875000Y-56507000D03*
%TO.P,IC3,18,[RESERVED]_2*%
%TO.N,unconnected-(IC3-[RESERVED]_2-Pad18)*%
X146875000Y-56507000D03*
%TO.P,IC3,19,[RESERVED]_3*%
%TO.N,unconnected-(IC3-[RESERVED]_3-Pad19)*%
X144875000Y-56507000D03*
%TO.P,IC3,20,[RESERVED]_4*%
%TO.N,unconnected-(IC3-[RESERVED]_4-Pad20)*%
X142875000Y-56507000D03*
%TO.P,IC3,21,[RESERVED]_5*%
%TO.N,unconnected-(IC3-[RESERVED]_5-Pad21)*%
X140875000Y-56507000D03*
D15*
%TO.P,IC3,22,GND_4*%
%TO.N,unconnected-(IC3-GND_4-Pad22)*%
X134855000Y-60697000D03*
%TO.P,IC3,23,[RESERVED]_6*%
%TO.N,unconnected-(IC3-[RESERVED]_6-Pad23)*%
X134855000Y-62697000D03*
%TO.P,IC3,24,DIO4*%
%TO.N,unconnected-(IC3-DIO4-Pad24)*%
X134855000Y-64697000D03*
%TO.P,IC3,25,DIO7/~{CTS}*%
%TO.N,unconnected-(IC3-DIO7{slash}~{CTS}-Pad25)*%
X134855000Y-66697000D03*
%TO.P,IC3,26,DIO9/ON/~{SLEEP}*%
%TO.N,unconnected-(IC3-DIO9{slash}ON{slash}~{SLEEP}-Pad26)*%
X134855000Y-68697000D03*
%TO.P,IC3,27,VREF*%
%TO.N,unconnected-(IC3-VREF-Pad27)*%
X134855000Y-70697000D03*
%TO.P,IC3,28,DIO5/ASSOC*%
%TO.N,unconnected-(IC3-DIO5{slash}ASSOC-Pad28)*%
X134855000Y-72697000D03*
%TO.P,IC3,29,DIO6/~{RTS}*%
%TO.N,unconnected-(IC3-DIO6{slash}~{RTS}-Pad29)*%
X134855000Y-74697000D03*
%TO.P,IC3,30,DIO3/AD3*%
%TO.N,unconnected-(IC3-DIO3{slash}AD3-Pad30)*%
X134855000Y-76697000D03*
%TO.P,IC3,31,DIO2/AD2*%
%TO.N,unconnected-(IC3-DIO2{slash}AD2-Pad31)*%
X134855000Y-78697000D03*
%TO.P,IC3,32,DIO1/AD1*%
%TO.N,unconnected-(IC3-DIO1{slash}AD1-Pad32)*%
X134855000Y-80697000D03*
%TO.P,IC3,33,DIO0/AD0*%
%TO.N,unconnected-(IC3-DIO0{slash}AD0-Pad33)*%
X134855000Y-82697000D03*
%TO.P,IC3,34,[RESERVED]_7*%
%TO.N,unconnected-(IC3-[RESERVED]_7-Pad34)*%
X134855000Y-84697000D03*
%TO.P,IC3,35,GND_5*%
%TO.N,unconnected-(IC3-GND_5-Pad35)*%
X134855000Y-86697000D03*
%TO.P,IC3,36,RF_PAD*%
%TO.N,unconnected-(IC3-RF_PAD-Pad36)*%
X134855000Y-88697000D03*
%TO.P,IC3,37,[RESERVED]_8*%
%TO.N,unconnected-(IC3-[RESERVED]_8-Pad37)*%
X134855000Y-90697000D03*
D12*
%TO.P,IC3,38,GND_6*%
%TO.N,GND*%
X153670000Y-82462000D03*
X153670000Y-81702000D03*
X153670000Y-80772000D03*
X152780000Y-82462000D03*
X152780000Y-81702000D03*
X152780000Y-80772000D03*
X151920000Y-82462000D03*
X151920000Y-81702000D03*
X151920000Y-80772000D03*
%TD*%
D17*
%TO.P,PS1,1,+VIN*%
%TO.N,Net-(PS1-+VIN)*%
X177419000Y-63373000D03*
%TO.P,PS1,2,GND*%
%TO.N,GND*%
X177419000Y-65913000D03*
%TO.P,PS1,3,+VOUT*%
%TO.N,Vcc*%
X177419000Y-68453000D03*
%TD*%
D18*
%TO.N,Vcc*%
X163068000Y-86106000D03*
X151765000Y-95250000D03*
D19*
X138049000Y-95250000D03*
%TO.N,Dout*%
X160909000Y-87503000D03*
X157861000Y-93218000D03*
%TO.N,Din*%
X163195000Y-88646000D03*
X170688000Y-89916000D03*
%TD*%
D20*
%TO.N,Vcc*%
X151765000Y-95250000D02*
X138049000Y-95250000D01*
X163068000Y-86106000D02*
X163068000Y-87570918D01*
X157031082Y-95250000D02*
X151765000Y-95250000D01*
X161484000Y-89154918D02*
X161484000Y-90797082D01*
X161484000Y-90797082D02*
X157031082Y-95250000D01*
X163068000Y-87570918D02*
X161484000Y-89154918D01*
D21*
%TO.N,Dout*%
X160909000Y-90170000D02*
X160909000Y-87503000D01*
X157861000Y-93218000D02*
X160909000Y-90170000D01*
%TO.N,Din*%
X164465000Y-89916000D02*
X163195000Y-88646000D01*
X170688000Y-89916000D02*
X164465000Y-89916000D01*
%TD*%
%TA.AperFunction,Conductor*%
%TO.N,GND*%
G36*
X201872539Y-53106185D02*
G01*
X201918294Y-53158989D01*
X201929500Y-53210500D01*
X201929500Y-111508500D01*
X201909815Y-111575539D01*
X201857011Y-111621294D01*
X201805500Y-111632500D01*
X131950500Y-111632500D01*
X131883461Y-111612815D01*
X131837706Y-111560011D01*
X131826500Y-111508500D01*
X131826500Y-96305870D01*
X166385500Y-96305870D01*
X166385501Y-96305876D01*
X166391908Y-96365483D01*
X166442202Y-96500328D01*
X166442206Y-96500335D01*
X166528452Y-96615544D01*
X166528455Y-96615547D01*
X166643664Y-96701793D01*
X166643671Y-96701797D01*
X166778517Y-96752091D01*
X166778516Y-96752091D01*
X166785444Y-96752835D01*
X166838127Y-96758500D01*
X167933872Y-96758499D01*
X167993483Y-96752091D01*
X168128331Y-96701796D01*
X168136379Y-96695770D01*
X168201842Y-96671351D01*
X168265474Y-96684895D01*
X168265645Y-96684483D01*
X168267875Y-96685406D01*
X168269146Y-96685677D01*
X168271273Y-96686814D01*
X168459868Y-96744024D01*
X168656000Y-96763341D01*
X168852132Y-96744024D01*
X169040727Y-96686814D01*
X169042853Y-96685678D01*
X169174060Y-96615546D01*
X169214538Y-96593910D01*
X169366883Y-96468883D01*
X169491910Y-96316538D01*
X169584814Y-96142727D01*
X169642024Y-95954132D01*
X169661341Y-95758000D01*
X169642024Y-95561868D01*
X169584814Y-95373273D01*
X169584811Y-95373269D01*
X169584811Y-95373266D01*
X169491913Y-95199467D01*
X169491909Y-95199460D01*
X169366883Y-95047116D01*
X169214539Y-94922090D01*
X169214532Y-94922086D01*
X169040733Y-94829188D01*
X169040727Y-94829186D01*
X168852132Y-94771976D01*
X168852129Y-94771975D01*
X168656000Y-94752659D01*
X168459870Y-94771975D01*
X168330462Y-94811231D01*
X168271273Y-94829186D01*
X168271272Y-94829186D01*
X168271267Y-94829188D01*
X168269143Y-94830324D01*
X168267898Y-94830583D01*
X168265641Y-94831518D01*
X168265463Y-94831089D01*
X168200740Y-94844564D01*
X168136382Y-94820231D01*
X168128331Y-94814204D01*
X168128328Y-94814202D01*
X167993482Y-94763908D01*
X167993483Y-94763908D01*
X167933883Y-94757501D01*
X167933881Y-94757500D01*
X167933873Y-94757500D01*
X167933864Y-94757500D01*
X166838129Y-94757500D01*
X166838123Y-94757501D01*
X166778516Y-94763908D01*
X166643671Y-94814202D01*
X166643664Y-94814206D01*
X166528455Y-94900452D01*
X166528452Y-94900455D01*
X166442206Y-95015664D01*
X166442202Y-95015671D01*
X166391908Y-95150517D01*
X166385501Y-95210116D01*
X166385500Y-95210135D01*
X166385500Y-96305870D01*
X131826500Y-96305870D01*
X131826500Y-95250000D01*
X137143540Y-95250000D01*
X137163326Y-95438256D01*
X137163327Y-95438259D01*
X137221818Y-95618277D01*
X137221821Y-95618284D01*
X137316467Y-95782216D01*
X137366945Y-95838277D01*
X137443129Y-95922888D01*
X137596265Y-96034148D01*
X137596270Y-96034151D01*
X137769192Y-96111142D01*
X137769197Y-96111144D01*
X137954354Y-96150500D01*
X137954355Y-96150500D01*
X138143644Y-96150500D01*
X138143646Y-96150500D01*
X138328803Y-96111144D01*
X138501730Y-96034151D01*
X138509306Y-96028647D01*
X138515452Y-96024182D01*
X138581258Y-96000702D01*
X138588337Y-96000500D01*
X151058022Y-96000500D01*
X151125061Y-96020185D01*
X151136687Y-96028647D01*
X151206460Y-96085909D01*
X151206467Y-96085913D01*
X151380266Y-96178811D01*
X151380269Y-96178811D01*
X151380273Y-96178814D01*
X151568868Y-96236024D01*
X151765000Y-96255341D01*
X151961132Y-96236024D01*
X152149727Y-96178814D01*
X152323538Y-96085910D01*
X152393312Y-96028647D01*
X152457623Y-96001334D01*
X152471978Y-96000500D01*
X156967377Y-96000500D01*
X156985347Y-96001809D01*
X157009105Y-96005289D01*
X157061150Y-96000735D01*
X157066552Y-96000500D01*
X157074786Y-96000500D01*
X157074791Y-96000500D01*
X157086409Y-95999141D01*
X157107358Y-95996693D01*
X157120110Y-95995577D01*
X157183879Y-95989999D01*
X157183887Y-95989996D01*
X157190948Y-95988539D01*
X157190960Y-95988598D01*
X157198325Y-95986965D01*
X157198311Y-95986906D01*
X157205328Y-95985241D01*
X157205337Y-95985241D01*
X157277505Y-95958974D01*
X157350416Y-95934814D01*
X157350425Y-95934807D01*
X157356964Y-95931760D01*
X157356990Y-95931816D01*
X157363772Y-95928532D01*
X157363745Y-95928478D01*
X157370188Y-95925240D01*
X157370199Y-95925237D01*
X157434365Y-95883034D01*
X157499738Y-95842712D01*
X157499744Y-95842705D01*
X157505407Y-95838229D01*
X157505445Y-95838277D01*
X157511282Y-95833522D01*
X157511243Y-95833475D01*
X157516778Y-95828830D01*
X157569467Y-95772983D01*
X160797338Y-92545111D01*
X161969642Y-91372806D01*
X161983271Y-91361029D01*
X162002530Y-91346692D01*
X162036101Y-91306683D01*
X162039761Y-91302688D01*
X162045590Y-91296860D01*
X162065941Y-91271121D01*
X162079902Y-91254483D01*
X162115302Y-91212296D01*
X162115306Y-91212287D01*
X162119274Y-91206257D01*
X162119325Y-91206290D01*
X162123372Y-91199938D01*
X162123320Y-91199906D01*
X162127112Y-91193757D01*
X162159575Y-91124140D01*
X162194036Y-91055522D01*
X162194040Y-91055515D01*
X162194042Y-91055503D01*
X162196509Y-91048728D01*
X162196567Y-91048749D01*
X162199043Y-91041628D01*
X162198986Y-91041610D01*
X162201257Y-91034755D01*
X162216792Y-90959516D01*
X162234498Y-90884810D01*
X162234500Y-90884803D01*
X162234500Y-90884792D01*
X162235338Y-90877630D01*
X162235398Y-90877637D01*
X162236164Y-90870137D01*
X162236105Y-90870132D01*
X162236734Y-90862942D01*
X162234500Y-90786165D01*
X162234500Y-89517146D01*
X162254185Y-89450107D01*
X162270814Y-89429470D01*
X162398311Y-89301973D01*
X162459632Y-89268490D01*
X162529324Y-89273474D01*
X162578139Y-89306682D01*
X162589132Y-89318891D01*
X162589135Y-89318893D01*
X162742265Y-89430148D01*
X162742270Y-89430151D01*
X162915192Y-89507142D01*
X162915197Y-89507144D01*
X163100354Y-89546500D01*
X163159548Y-89546500D01*
X163226587Y-89566185D01*
X163247229Y-89582819D01*
X163964197Y-90299788D01*
X163974022Y-90312051D01*
X163974243Y-90311869D01*
X163979214Y-90317878D01*
X164005217Y-90342295D01*
X164029635Y-90365226D01*
X164050529Y-90386120D01*
X164056011Y-90390373D01*
X164060443Y-90394157D01*
X164094418Y-90426062D01*
X164111976Y-90435714D01*
X164128235Y-90446395D01*
X164144064Y-90458673D01*
X164186838Y-90477182D01*
X164192056Y-90479738D01*
X164232908Y-90502197D01*
X164252316Y-90507180D01*
X164270717Y-90513480D01*
X164289104Y-90521437D01*
X164332488Y-90528308D01*
X164335119Y-90528725D01*
X164340839Y-90529909D01*
X164385981Y-90541500D01*
X164406016Y-90541500D01*
X164425414Y-90543026D01*
X164445194Y-90546159D01*
X164445195Y-90546160D01*
X164445195Y-90546159D01*
X164445196Y-90546160D01*
X164491583Y-90541775D01*
X164497422Y-90541500D01*
X169984252Y-90541500D01*
X170051291Y-90561185D01*
X170076400Y-90582526D01*
X170082126Y-90588885D01*
X170082130Y-90588889D01*
X170235265Y-90700148D01*
X170235270Y-90700151D01*
X170408192Y-90777142D01*
X170408197Y-90777144D01*
X170593354Y-90816500D01*
X170593355Y-90816500D01*
X170782644Y-90816500D01*
X170782646Y-90816500D01*
X170967803Y-90777144D01*
X171140730Y-90700151D01*
X171293871Y-90588888D01*
X171420533Y-90448216D01*
X171515179Y-90284284D01*
X171573674Y-90104256D01*
X171593460Y-89916000D01*
X171573674Y-89727744D01*
X171515179Y-89547716D01*
X171420533Y-89383784D01*
X171293871Y-89243112D01*
X171293870Y-89243111D01*
X171140734Y-89131851D01*
X171140729Y-89131848D01*
X170967807Y-89054857D01*
X170967802Y-89054855D01*
X170822000Y-89023865D01*
X170782646Y-89015500D01*
X170593354Y-89015500D01*
X170560897Y-89022398D01*
X170408197Y-89054855D01*
X170408192Y-89054857D01*
X170235270Y-89131848D01*
X170235265Y-89131851D01*
X170082130Y-89243110D01*
X170082126Y-89243114D01*
X170076400Y-89249474D01*
X170016913Y-89286121D01*
X169984252Y-89290500D01*
X164775453Y-89290500D01*
X164708414Y-89270815D01*
X164687772Y-89254181D01*
X164133960Y-88700369D01*
X164100475Y-88639046D01*
X164098323Y-88625668D01*
X164080674Y-88457744D01*
X164022179Y-88277716D01*
X163927533Y-88113784D01*
X163829281Y-88004664D01*
X163796537Y-87968298D01*
X163766307Y-87905307D01*
X163774932Y-87835971D01*
X163777880Y-87829669D01*
X163778040Y-87829351D01*
X163778042Y-87829338D01*
X163780510Y-87822562D01*
X163780568Y-87822583D01*
X163783043Y-87815464D01*
X163782985Y-87815445D01*
X163785256Y-87808590D01*
X163787870Y-87795933D01*
X163800784Y-87733385D01*
X163818500Y-87658639D01*
X163818500Y-87658638D01*
X163819339Y-87651466D01*
X163819397Y-87651472D01*
X163820164Y-87643974D01*
X163820104Y-87643969D01*
X163820733Y-87636778D01*
X163818500Y-87560021D01*
X163818500Y-86812976D01*
X163838185Y-86745937D01*
X163846632Y-86734329D01*
X163903910Y-86664538D01*
X163916034Y-86641856D01*
X163996811Y-86490733D01*
X163996811Y-86490732D01*
X163996814Y-86490727D01*
X164054024Y-86302132D01*
X164073341Y-86106000D01*
X164054024Y-85909868D01*
X163996814Y-85721273D01*
X163996811Y-85721269D01*
X163996811Y-85721266D01*
X163903913Y-85547467D01*
X163903909Y-85547460D01*
X163778883Y-85395116D01*
X163688379Y-85320841D01*
X181650501Y-85320841D01*
X181752453Y-85374351D01*
X181909255Y-85413000D01*
X182070745Y-85413000D01*
X182227544Y-85374351D01*
X182329497Y-85320841D01*
X182540501Y-85320841D01*
X182642453Y-85374351D01*
X182799255Y-85413000D01*
X182960745Y-85413000D01*
X183117544Y-85374351D01*
X183219497Y-85320841D01*
X183400501Y-85320841D01*
X183502453Y-85374351D01*
X183659255Y-85413000D01*
X183820745Y-85413000D01*
X183977544Y-85374351D01*
X184079497Y-85320841D01*
X183740001Y-84981345D01*
X183400501Y-85320841D01*
X183219497Y-85320841D01*
X182880001Y-84981345D01*
X182540501Y-85320841D01*
X182329497Y-85320841D01*
X181990001Y-84981345D01*
X181990000Y-84981345D01*
X181650501Y-85320841D01*
X163688379Y-85320841D01*
X163626539Y-85270090D01*
X163626532Y-85270086D01*
X163452733Y-85177188D01*
X163452727Y-85177186D01*
X163264132Y-85119976D01*
X163264129Y-85119975D01*
X163068000Y-85100659D01*
X162871870Y-85119975D01*
X162683266Y-85177188D01*
X162509467Y-85270086D01*
X162509460Y-85270090D01*
X162357115Y-85395117D01*
X162311905Y-85450205D01*
X162254159Y-85489539D01*
X162184314Y-85491408D01*
X162124546Y-85455220D01*
X162093831Y-85392464D01*
X162099871Y-85328205D01*
X162138597Y-85224376D01*
X162138598Y-85224372D01*
X162144999Y-85164844D01*
X162145000Y-85164827D01*
X162145000Y-84917000D01*
X161245000Y-84917000D01*
X161244999Y-85616999D01*
X161245000Y-85617000D01*
X161692828Y-85617000D01*
X161692844Y-85616999D01*
X161752372Y-85610598D01*
X161752379Y-85610596D01*
X161887086Y-85560354D01*
X161887089Y-85560352D01*
X162004011Y-85472824D01*
X162069475Y-85448406D01*
X162137748Y-85463257D01*
X162187154Y-85512662D01*
X162202007Y-85580934D01*
X162187682Y-85630543D01*
X162173295Y-85657459D01*
X162139186Y-85721273D01*
X162125040Y-85767907D01*
X162081975Y-85909870D01*
X162062659Y-86106000D01*
X162081975Y-86302129D01*
X162139188Y-86490733D01*
X162232084Y-86664529D01*
X162232087Y-86664533D01*
X162232090Y-86664538D01*
X162289354Y-86734314D01*
X162316666Y-86798620D01*
X162317500Y-86812976D01*
X162317500Y-87208687D01*
X162297815Y-87275726D01*
X162281181Y-87296368D01*
X162023023Y-87554525D01*
X161961700Y-87588010D01*
X161892008Y-87583026D01*
X161836075Y-87541154D01*
X161812022Y-87479809D01*
X161794674Y-87314744D01*
X161736179Y-87134716D01*
X161641533Y-86970784D01*
X161514871Y-86830112D01*
X161514870Y-86830111D01*
X161361734Y-86718851D01*
X161361729Y-86718848D01*
X161188807Y-86641857D01*
X161188802Y-86641855D01*
X161043000Y-86610865D01*
X161003646Y-86602500D01*
X160814354Y-86602500D01*
X160781897Y-86609398D01*
X160629197Y-86641855D01*
X160629192Y-86641857D01*
X160456270Y-86718848D01*
X160456265Y-86718851D01*
X160303129Y-86830111D01*
X160176466Y-86970785D01*
X160081821Y-87134715D01*
X160081818Y-87134722D01*
X160023327Y-87314740D01*
X160023326Y-87314744D01*
X160003540Y-87503000D01*
X160023326Y-87691256D01*
X160023327Y-87691259D01*
X160081818Y-87871277D01*
X160081821Y-87871284D01*
X160176467Y-88035216D01*
X160219772Y-88083310D01*
X160251650Y-88118715D01*
X160281880Y-88181706D01*
X160283500Y-88201687D01*
X160283500Y-89859547D01*
X160263815Y-89926586D01*
X160247181Y-89947228D01*
X157913228Y-92281181D01*
X157851905Y-92314666D01*
X157825547Y-92317500D01*
X157766354Y-92317500D01*
X157733897Y-92324398D01*
X157581197Y-92356855D01*
X157581192Y-92356857D01*
X157408270Y-92433848D01*
X157408265Y-92433851D01*
X157255129Y-92545111D01*
X157128466Y-92685785D01*
X157033821Y-92849715D01*
X157033818Y-92849722D01*
X156975327Y-93029740D01*
X156975326Y-93029744D01*
X156955540Y-93218000D01*
X156975326Y-93406256D01*
X156975327Y-93406259D01*
X157033818Y-93586277D01*
X157033821Y-93586284D01*
X157128467Y-93750216D01*
X157210222Y-93841014D01*
X157211308Y-93842220D01*
X157241538Y-93905211D01*
X157232913Y-93974547D01*
X157206839Y-94012873D01*
X156756533Y-94463181D01*
X156695210Y-94496666D01*
X156668852Y-94499500D01*
X152471978Y-94499500D01*
X152404939Y-94479815D01*
X152393313Y-94471353D01*
X152323539Y-94414090D01*
X152323532Y-94414086D01*
X152149733Y-94321188D01*
X152149727Y-94321186D01*
X151961132Y-94263976D01*
X151961129Y-94263975D01*
X151765000Y-94244659D01*
X151568870Y-94263975D01*
X151380266Y-94321188D01*
X151206467Y-94414086D01*
X151206460Y-94414090D01*
X151136687Y-94471353D01*
X151072377Y-94498666D01*
X151058022Y-94499500D01*
X138588337Y-94499500D01*
X138521298Y-94479815D01*
X138515452Y-94475818D01*
X138501734Y-94465851D01*
X138501729Y-94465848D01*
X138328807Y-94388857D01*
X138328802Y-94388855D01*
X138183001Y-94357865D01*
X138143646Y-94349500D01*
X137954354Y-94349500D01*
X137921897Y-94356398D01*
X137769197Y-94388855D01*
X137769192Y-94388857D01*
X137596270Y-94465848D01*
X137596265Y-94465851D01*
X137443129Y-94577111D01*
X137316466Y-94717785D01*
X137221821Y-94881715D01*
X137221818Y-94881722D01*
X137163327Y-95061740D01*
X137163326Y-95061744D01*
X137143540Y-95250000D01*
X131826500Y-95250000D01*
X131826500Y-91194870D01*
X133704500Y-91194870D01*
X133704501Y-91194876D01*
X133710908Y-91254483D01*
X133761202Y-91389328D01*
X133761206Y-91389335D01*
X133847452Y-91504544D01*
X133847455Y-91504547D01*
X133962664Y-91590793D01*
X133962671Y-91590797D01*
X134097517Y-91641091D01*
X134097516Y-91641091D01*
X134104444Y-91641835D01*
X134157127Y-91647500D01*
X135552872Y-91647499D01*
X135612483Y-91641091D01*
X135723134Y-91599820D01*
X135792823Y-91594836D01*
X135815367Y-91602052D01*
X135886462Y-91632562D01*
X135886463Y-91632562D01*
X135886465Y-91632563D01*
X136080801Y-91672500D01*
X137279474Y-91672500D01*
X137427380Y-91657459D01*
X137499478Y-91634838D01*
X137616678Y-91598067D01*
X137790146Y-91501784D01*
X137940682Y-91372553D01*
X138062122Y-91215666D01*
X138149495Y-91037544D01*
X138199224Y-90845480D01*
X138209272Y-90647337D01*
X138179230Y-90451227D01*
X138110325Y-90265180D01*
X138031999Y-90139517D01*
X138005383Y-90096815D01*
X138005378Y-90096808D01*
X137868693Y-89953016D01*
X137868692Y-89953015D01*
X137815511Y-89916000D01*
X137777369Y-89889452D01*
X137705853Y-89839675D01*
X137642373Y-89812434D01*
X137588529Y-89767907D01*
X137567306Y-89701338D01*
X137585441Y-89633863D01*
X137631095Y-89590064D01*
X137790146Y-89501784D01*
X137940682Y-89372553D01*
X138062122Y-89215666D01*
X138149495Y-89037544D01*
X138199224Y-88845480D01*
X138209272Y-88647337D01*
X138179230Y-88451227D01*
X138110325Y-88265180D01*
X138069147Y-88199116D01*
X138005383Y-88096815D01*
X138005378Y-88096808D01*
X137868693Y-87953016D01*
X137868692Y-87953015D01*
X137800148Y-87905307D01*
X137777369Y-87889452D01*
X137705853Y-87839675D01*
X137642373Y-87812434D01*
X137588529Y-87767907D01*
X137567306Y-87701338D01*
X137585441Y-87633863D01*
X137631095Y-87590064D01*
X137790146Y-87501784D01*
X137940682Y-87372553D01*
X138062122Y-87215666D01*
X138149495Y-87037544D01*
X138199224Y-86845480D01*
X138209272Y-86647337D01*
X138179230Y-86451227D01*
X138110325Y-86265180D01*
X138011108Y-86106000D01*
X138005383Y-86096815D01*
X138005378Y-86096808D01*
X137868693Y-85953016D01*
X137868692Y-85953015D01*
X137806701Y-85909868D01*
X137705854Y-85839676D01*
X137705855Y-85839676D01*
X137705853Y-85839675D01*
X137642373Y-85812434D01*
X137588529Y-85767907D01*
X137567306Y-85701338D01*
X137585441Y-85633863D01*
X137631095Y-85590064D01*
X137790146Y-85501784D01*
X137940682Y-85372553D01*
X138062122Y-85215666D01*
X138149495Y-85037544D01*
X138182956Y-84908312D01*
X138199222Y-84845488D01*
X138199223Y-84845482D01*
X138199224Y-84845480D01*
X138209272Y-84647337D01*
X138179230Y-84451227D01*
X138110325Y-84265180D01*
X138050483Y-84169172D01*
X138005383Y-84096815D01*
X138005378Y-84096808D01*
X137868693Y-83953016D01*
X137868692Y-83953015D01*
X137705853Y-83839675D01*
X137642373Y-83812434D01*
X137588529Y-83767907D01*
X137567306Y-83701338D01*
X137585441Y-83633863D01*
X137631095Y-83590064D01*
X137790146Y-83501784D01*
X137940682Y-83372553D01*
X138062122Y-83215666D01*
X138149495Y-83037544D01*
X138199224Y-82845480D01*
X138209272Y-82647337D01*
X138179230Y-82451227D01*
X138110325Y-82265180D01*
X138080294Y-82217000D01*
X138575000Y-82217000D01*
X138575000Y-85897000D01*
X144895000Y-85897000D01*
X144895000Y-84716663D01*
X157640728Y-84716663D01*
X157670768Y-84912764D01*
X157670771Y-84912777D01*
X157739673Y-85098815D01*
X157739677Y-85098824D01*
X157844616Y-85267184D01*
X157844621Y-85267191D01*
X157966223Y-85395116D01*
X157981309Y-85410986D01*
X158144146Y-85524324D01*
X158326465Y-85602563D01*
X158520801Y-85642500D01*
X159719474Y-85642500D01*
X159867380Y-85627459D01*
X160052429Y-85569400D01*
X160122287Y-85568112D01*
X160132884Y-85571532D01*
X160237616Y-85610595D01*
X160237627Y-85610598D01*
X160297155Y-85616999D01*
X160297172Y-85617000D01*
X160745000Y-85617000D01*
X160745000Y-84962850D01*
X160805250Y-84951588D01*
X160900610Y-84892543D01*
X160968201Y-84803038D01*
X160983861Y-84747999D01*
X181320116Y-84747999D01*
X181339581Y-84908312D01*
X181339582Y-84908317D01*
X181396846Y-85059310D01*
X181416650Y-85088003D01*
X181416651Y-85088003D01*
X181756655Y-84748000D01*
X181921268Y-84748000D01*
X181941399Y-84796601D01*
X181977369Y-84811500D01*
X182002631Y-84811500D01*
X182038601Y-84796601D01*
X182058732Y-84748000D01*
X182223345Y-84748000D01*
X182435000Y-84959655D01*
X182646655Y-84748000D01*
X182811268Y-84748000D01*
X182831399Y-84796601D01*
X182867369Y-84811500D01*
X182892631Y-84811500D01*
X182928601Y-84796601D01*
X182948732Y-84748000D01*
X183113345Y-84748000D01*
X183309999Y-84944655D01*
X183506655Y-84748000D01*
X183671268Y-84748000D01*
X183691399Y-84796601D01*
X183727369Y-84811500D01*
X183752631Y-84811500D01*
X183788601Y-84796601D01*
X183808732Y-84748000D01*
X183973345Y-84748000D01*
X184313347Y-85088003D01*
X184333151Y-85059312D01*
X184390417Y-84908317D01*
X184390418Y-84908312D01*
X184409883Y-84747999D01*
X184390418Y-84587687D01*
X184390417Y-84587682D01*
X184333153Y-84436690D01*
X184313347Y-84407996D01*
X183973345Y-84747999D01*
X183973345Y-84748000D01*
X183808732Y-84748000D01*
X183788601Y-84699399D01*
X183752631Y-84684500D01*
X183727369Y-84684500D01*
X183691399Y-84699399D01*
X183671268Y-84748000D01*
X183506655Y-84748000D01*
X183310000Y-84551344D01*
X183113345Y-84748000D01*
X182948732Y-84748000D01*
X182928601Y-84699399D01*
X182892631Y-84684500D01*
X182867369Y-84684500D01*
X182831399Y-84699399D01*
X182811268Y-84748000D01*
X182646655Y-84748000D01*
X182435000Y-84536344D01*
X182223345Y-84748000D01*
X182058732Y-84748000D01*
X182038601Y-84699399D01*
X182002631Y-84684500D01*
X181977369Y-84684500D01*
X181941399Y-84699399D01*
X181921268Y-84748000D01*
X181756655Y-84748000D01*
X181756655Y-84747999D01*
X181416651Y-84407995D01*
X181396848Y-84436687D01*
X181396843Y-84436697D01*
X181339582Y-84587682D01*
X181339581Y-84587687D01*
X181320116Y-84747999D01*
X160983861Y-84747999D01*
X160998895Y-84695160D01*
X160988546Y-84583479D01*
X160938552Y-84483078D01*
X160866633Y-84417514D01*
X160869000Y-84417000D01*
X162145000Y-84417000D01*
X162145000Y-84283000D01*
X181758345Y-84283000D01*
X181990000Y-84514654D01*
X182221655Y-84283000D01*
X182221654Y-84282999D01*
X182648345Y-84282999D01*
X182880000Y-84514653D01*
X183111653Y-84283000D01*
X183508345Y-84283000D01*
X183740000Y-84514655D01*
X183971655Y-84283000D01*
X183740000Y-84051344D01*
X183508345Y-84283000D01*
X183111653Y-84283000D01*
X183111654Y-84282999D01*
X182880000Y-84051345D01*
X182648345Y-84282999D01*
X182221654Y-84282999D01*
X181990000Y-84051345D01*
X181758345Y-84283000D01*
X162145000Y-84283000D01*
X162145000Y-84169172D01*
X162144999Y-84169155D01*
X162138598Y-84109627D01*
X162138596Y-84109620D01*
X162088354Y-83974913D01*
X162088350Y-83974906D01*
X162002190Y-83859812D01*
X162002187Y-83859809D01*
X161946336Y-83817999D01*
X181320116Y-83817999D01*
X181339581Y-83978312D01*
X181339582Y-83978317D01*
X181396846Y-84129310D01*
X181416650Y-84158002D01*
X181416651Y-84158002D01*
X181756654Y-83818000D01*
X181921268Y-83818000D01*
X181941399Y-83866601D01*
X181977369Y-83881500D01*
X182002631Y-83881500D01*
X182038601Y-83866601D01*
X182058732Y-83818000D01*
X182223345Y-83818000D01*
X182434999Y-84029655D01*
X182646655Y-83818000D01*
X182811268Y-83818000D01*
X182831399Y-83866601D01*
X182867369Y-83881500D01*
X182892631Y-83881500D01*
X182928601Y-83866601D01*
X182948732Y-83818000D01*
X183113345Y-83818000D01*
X183310000Y-84014654D01*
X183506655Y-83818000D01*
X183671268Y-83818000D01*
X183691399Y-83866601D01*
X183727369Y-83881500D01*
X183752631Y-83881500D01*
X183788601Y-83866601D01*
X183808732Y-83818000D01*
X183788601Y-83769399D01*
X183752631Y-83754500D01*
X183727369Y-83754500D01*
X183691399Y-83769399D01*
X183671268Y-83818000D01*
X183506655Y-83818000D01*
X183506655Y-83817999D01*
X183338910Y-83650255D01*
X183319989Y-83635010D01*
X183309999Y-83625020D01*
X183299995Y-83635025D01*
X183291899Y-83639445D01*
X183113345Y-83818000D01*
X182948732Y-83818000D01*
X182928601Y-83769399D01*
X182892631Y-83754500D01*
X182867369Y-83754500D01*
X182831399Y-83769399D01*
X182811268Y-83818000D01*
X182646655Y-83818000D01*
X182478933Y-83650278D01*
X182460005Y-83635026D01*
X182434999Y-83610020D01*
X182410001Y-83635018D01*
X182401905Y-83639438D01*
X182223345Y-83818000D01*
X182058732Y-83818000D01*
X182038601Y-83769399D01*
X182002631Y-83754500D01*
X181977369Y-83754500D01*
X181941399Y-83769399D01*
X181921268Y-83818000D01*
X181756654Y-83818000D01*
X181990000Y-83584655D01*
X182136652Y-83438000D01*
X182733345Y-83438000D01*
X182880000Y-83584655D01*
X183026655Y-83438000D01*
X183026655Y-83437999D01*
X183593345Y-83437999D01*
X183740000Y-83584655D01*
X184313347Y-84158003D01*
X184333151Y-84129312D01*
X184390417Y-83978317D01*
X184390418Y-83978312D01*
X184409883Y-83818000D01*
X184390418Y-83657687D01*
X184390417Y-83657682D01*
X184333151Y-83506686D01*
X184329667Y-83500047D01*
X184331308Y-83499185D01*
X184312478Y-83442079D01*
X184329946Y-83374428D01*
X184332785Y-83370011D01*
X184333151Y-83369313D01*
X184390417Y-83218317D01*
X184390418Y-83218312D01*
X184409883Y-83057999D01*
X184390418Y-82897687D01*
X184390417Y-82897682D01*
X184333153Y-82746690D01*
X184313347Y-82717996D01*
X183740000Y-83291345D01*
X183593345Y-83437999D01*
X183026655Y-83437999D01*
X182880000Y-83291345D01*
X182733345Y-83437999D01*
X182733345Y-83438000D01*
X182136652Y-83438000D01*
X182136654Y-83437998D01*
X181990000Y-83291345D01*
X181756655Y-83058000D01*
X181921268Y-83058000D01*
X181941399Y-83106601D01*
X181977369Y-83121500D01*
X182002631Y-83121500D01*
X182038601Y-83106601D01*
X182058732Y-83058000D01*
X182223345Y-83058000D01*
X182391062Y-83225717D01*
X182409995Y-83240974D01*
X182435000Y-83265978D01*
X182460005Y-83240974D01*
X182468102Y-83236552D01*
X182646655Y-83058000D01*
X182811268Y-83058000D01*
X182831399Y-83106601D01*
X182867369Y-83121500D01*
X182892631Y-83121500D01*
X182928601Y-83106601D01*
X182948732Y-83058000D01*
X183113345Y-83058000D01*
X183281062Y-83225717D01*
X183299995Y-83240974D01*
X183310000Y-83250979D01*
X183320005Y-83240974D01*
X183328102Y-83236552D01*
X183506655Y-83058000D01*
X183671268Y-83058000D01*
X183691399Y-83106601D01*
X183727369Y-83121500D01*
X183752631Y-83121500D01*
X183788601Y-83106601D01*
X183808732Y-83058000D01*
X183788601Y-83009399D01*
X183752631Y-82994500D01*
X183727369Y-82994500D01*
X183691399Y-83009399D01*
X183671268Y-83058000D01*
X183506655Y-83058000D01*
X183506655Y-83057999D01*
X183310000Y-82861345D01*
X183113345Y-83058000D01*
X182948732Y-83058000D01*
X182928601Y-83009399D01*
X182892631Y-82994500D01*
X182867369Y-82994500D01*
X182831399Y-83009399D01*
X182811268Y-83058000D01*
X182646655Y-83058000D01*
X182646655Y-83057999D01*
X182435000Y-82846345D01*
X182223345Y-83057999D01*
X182223345Y-83058000D01*
X182058732Y-83058000D01*
X182038601Y-83009399D01*
X182002631Y-82994500D01*
X181977369Y-82994500D01*
X181941399Y-83009399D01*
X181921268Y-83058000D01*
X181756655Y-83058000D01*
X181416651Y-82717995D01*
X181396848Y-82746687D01*
X181396843Y-82746697D01*
X181339582Y-82897682D01*
X181339581Y-82897687D01*
X181320116Y-83057999D01*
X181339581Y-83218312D01*
X181339582Y-83218317D01*
X181396847Y-83369311D01*
X181400334Y-83375955D01*
X181398691Y-83376816D01*
X181417521Y-83433920D01*
X181400053Y-83501571D01*
X181397218Y-83505981D01*
X181396847Y-83506688D01*
X181339582Y-83657682D01*
X181339581Y-83657687D01*
X181320116Y-83817999D01*
X161946336Y-83817999D01*
X161879989Y-83768331D01*
X161881632Y-83766135D01*
X161842211Y-83726712D01*
X161827360Y-83658438D01*
X161851778Y-83592974D01*
X161881236Y-83567455D01*
X161880231Y-83566112D01*
X161968481Y-83500047D01*
X162002546Y-83474546D01*
X162088796Y-83359331D01*
X162139091Y-83224483D01*
X162145500Y-83164873D01*
X162145499Y-82485157D01*
X181650502Y-82485157D01*
X181989999Y-82824654D01*
X182329494Y-82485157D01*
X182540502Y-82485157D01*
X182879999Y-82824654D01*
X183219495Y-82485156D01*
X183400501Y-82485156D01*
X183740000Y-82824655D01*
X183740001Y-82824655D01*
X184079497Y-82485157D01*
X183977542Y-82431647D01*
X183820745Y-82393000D01*
X183659255Y-82393000D01*
X183502456Y-82431647D01*
X183400501Y-82485156D01*
X183219495Y-82485156D01*
X183117542Y-82431647D01*
X182960745Y-82393000D01*
X182799255Y-82393000D01*
X182642457Y-82431647D01*
X182540502Y-82485157D01*
X182329494Y-82485157D01*
X182329495Y-82485156D01*
X182227542Y-82431647D01*
X182070745Y-82393000D01*
X181909255Y-82393000D01*
X181752457Y-82431647D01*
X181650502Y-82485157D01*
X162145499Y-82485157D01*
X162145499Y-82169128D01*
X162139091Y-82109517D01*
X162134353Y-82096815D01*
X162088797Y-81974671D01*
X162088793Y-81974664D01*
X162002547Y-81859455D01*
X162002544Y-81859452D01*
X161880231Y-81767888D01*
X161881930Y-81765617D01*
X161842743Y-81726435D01*
X161827886Y-81658163D01*
X161852298Y-81592697D01*
X161881311Y-81567556D01*
X161880231Y-81566112D01*
X161981441Y-81490345D01*
X162002546Y-81474546D01*
X162088796Y-81359331D01*
X162139091Y-81224483D01*
X162145500Y-81164873D01*
X162145499Y-80169128D01*
X162139091Y-80109517D01*
X162138152Y-80107000D01*
X162088797Y-79974671D01*
X162088793Y-79974664D01*
X162002547Y-79859455D01*
X162002544Y-79859452D01*
X161880231Y-79767888D01*
X161881930Y-79765617D01*
X161842743Y-79726435D01*
X161827886Y-79658163D01*
X161840998Y-79623000D01*
X190765000Y-79623000D01*
X190765000Y-83303000D01*
X197085000Y-83303000D01*
X197085000Y-79623000D01*
X190765000Y-79623000D01*
X161840998Y-79623000D01*
X161852298Y-79592697D01*
X161881311Y-79567556D01*
X161880231Y-79566112D01*
X161966163Y-79501782D01*
X162002546Y-79474546D01*
X162088796Y-79359331D01*
X162139091Y-79224483D01*
X162145500Y-79164873D01*
X162145499Y-78169128D01*
X162139091Y-78109517D01*
X162134353Y-78096815D01*
X162088797Y-77974671D01*
X162088793Y-77974664D01*
X162002547Y-77859455D01*
X162002544Y-77859452D01*
X161880231Y-77767888D01*
X161881930Y-77765617D01*
X161842743Y-77726435D01*
X161827886Y-77658163D01*
X161852298Y-77592697D01*
X161881311Y-77567556D01*
X161880231Y-77566112D01*
X161966163Y-77501782D01*
X162002546Y-77474546D01*
X162088796Y-77359331D01*
X162139091Y-77224483D01*
X162145500Y-77164873D01*
X162145499Y-76169128D01*
X162139091Y-76109517D01*
X162134353Y-76096815D01*
X162088797Y-75974671D01*
X162088793Y-75974664D01*
X162002547Y-75859455D01*
X162002544Y-75859452D01*
X161880231Y-75767888D01*
X161881930Y-75765617D01*
X161842743Y-75726435D01*
X161827886Y-75658163D01*
X161852298Y-75592697D01*
X161881311Y-75567556D01*
X161880231Y-75566112D01*
X161966163Y-75501782D01*
X162002546Y-75474546D01*
X162088796Y-75359331D01*
X162139091Y-75224483D01*
X162145500Y-75164873D01*
X162145499Y-74169128D01*
X162139091Y-74109517D01*
X162134353Y-74096815D01*
X162088797Y-73974671D01*
X162088793Y-73974664D01*
X162002547Y-73859455D01*
X162002544Y-73859452D01*
X161880231Y-73767888D01*
X161881930Y-73765617D01*
X161842743Y-73726435D01*
X161827886Y-73658163D01*
X161852298Y-73592697D01*
X161881311Y-73567556D01*
X161880231Y-73566112D01*
X161966163Y-73501782D01*
X162002546Y-73474546D01*
X162088796Y-73359331D01*
X162139091Y-73224483D01*
X162145500Y-73164873D01*
X162145499Y-72169128D01*
X162139091Y-72109517D01*
X162134353Y-72096815D01*
X162088797Y-71974671D01*
X162088793Y-71974664D01*
X162002547Y-71859455D01*
X162002544Y-71859452D01*
X161880231Y-71767888D01*
X161881930Y-71765617D01*
X161842743Y-71726435D01*
X161827886Y-71658163D01*
X161852298Y-71592697D01*
X161881311Y-71567556D01*
X161880231Y-71566112D01*
X161966163Y-71501782D01*
X162002546Y-71474546D01*
X162088796Y-71359331D01*
X162139091Y-71224483D01*
X162145500Y-71164873D01*
X162145499Y-70169128D01*
X162139091Y-70109517D01*
X162134353Y-70096815D01*
X162088797Y-69974671D01*
X162088793Y-69974664D01*
X162002547Y-69859455D01*
X162002544Y-69859452D01*
X161880231Y-69767888D01*
X161881930Y-69765617D01*
X161842743Y-69726435D01*
X161827886Y-69658163D01*
X161852298Y-69592697D01*
X161881311Y-69567556D01*
X161880231Y-69566112D01*
X161966163Y-69501782D01*
X162002546Y-69474546D01*
X162088796Y-69359331D01*
X162139091Y-69224483D01*
X162145500Y-69164873D01*
X162145499Y-68453005D01*
X176051329Y-68453005D01*
X176069981Y-68678107D01*
X176125433Y-68897082D01*
X176216168Y-69103938D01*
X176339715Y-69293042D01*
X176492698Y-69459224D01*
X176492702Y-69459228D01*
X176670955Y-69597968D01*
X176869613Y-69705477D01*
X176980550Y-69743561D01*
X177083253Y-69778820D01*
X177083255Y-69778820D01*
X177083257Y-69778821D01*
X177306059Y-69816000D01*
X177306060Y-69816000D01*
X177531940Y-69816000D01*
X177531941Y-69816000D01*
X177754743Y-69778821D01*
X177968387Y-69705477D01*
X178167045Y-69597968D01*
X178345298Y-69459228D01*
X178498285Y-69293041D01*
X178621831Y-69103939D01*
X178712567Y-68897082D01*
X178768018Y-68678111D01*
X178786671Y-68453000D01*
X178786524Y-68451227D01*
X178771108Y-68265180D01*
X178768018Y-68227889D01*
X178712567Y-68008918D01*
X178621831Y-67802061D01*
X178599505Y-67767888D01*
X178498284Y-67612957D01*
X178345301Y-67446775D01*
X178345298Y-67446772D01*
X178249943Y-67372554D01*
X178167045Y-67308032D01*
X178167043Y-67308031D01*
X178167042Y-67308030D01*
X178136997Y-67291771D01*
X178087407Y-67242551D01*
X178072299Y-67174334D01*
X178096470Y-67108779D01*
X178136998Y-67073661D01*
X178166768Y-67057550D01*
X178191076Y-67038629D01*
X177609086Y-66456639D01*
X177708981Y-66415262D01*
X177829095Y-66323095D01*
X177921262Y-66202981D01*
X177962639Y-66103087D01*
X178543093Y-66683541D01*
X178621389Y-66563702D01*
X178712092Y-66356920D01*
X178767523Y-66138029D01*
X178767525Y-66138021D01*
X178786170Y-65913006D01*
X178786170Y-65912993D01*
X178767525Y-65687978D01*
X178767523Y-65687970D01*
X178712092Y-65469079D01*
X178621391Y-65262302D01*
X178543093Y-65142457D01*
X177962638Y-65722912D01*
X177921262Y-65623019D01*
X177829095Y-65502905D01*
X177708981Y-65410738D01*
X177609086Y-65369360D01*
X178191076Y-64787369D01*
X178191076Y-64787367D01*
X178166779Y-64768456D01*
X178166768Y-64768449D01*
X178136996Y-64752337D01*
X178087406Y-64703117D01*
X178072299Y-64634901D01*
X178096470Y-64569345D01*
X178136998Y-64534228D01*
X178167045Y-64517968D01*
X178345298Y-64379228D01*
X178498285Y-64213041D01*
X178621831Y-64023939D01*
X178712567Y-63817082D01*
X178768018Y-63598111D01*
X178778257Y-63474544D01*
X178786671Y-63373005D01*
X178786671Y-63372994D01*
X178769425Y-63164873D01*
X178768018Y-63147889D01*
X178712567Y-62928918D01*
X178621831Y-62722061D01*
X178498285Y-62532959D01*
X178498284Y-62532957D01*
X178345301Y-62366775D01*
X178345298Y-62366772D01*
X178214778Y-62265184D01*
X178167045Y-62228032D01*
X178167043Y-62228031D01*
X178167042Y-62228030D01*
X177968387Y-62120523D01*
X177968379Y-62120520D01*
X177754746Y-62047179D01*
X177587641Y-62019294D01*
X177531941Y-62010000D01*
X177306059Y-62010000D01*
X177261498Y-62017435D01*
X177083253Y-62047179D01*
X176869620Y-62120520D01*
X176869612Y-62120523D01*
X176670957Y-62228030D01*
X176492701Y-62366772D01*
X176492698Y-62366775D01*
X176339715Y-62532957D01*
X176216168Y-62722061D01*
X176125433Y-62928917D01*
X176069981Y-63147892D01*
X176051329Y-63372994D01*
X176051329Y-63373005D01*
X176069981Y-63598107D01*
X176125433Y-63817082D01*
X176216168Y-64023938D01*
X176339715Y-64213042D01*
X176444124Y-64326459D01*
X176492702Y-64379228D01*
X176585206Y-64451227D01*
X176670958Y-64517970D01*
X176670960Y-64517971D01*
X176701001Y-64534228D01*
X176750592Y-64583447D01*
X176765700Y-64651663D01*
X176741530Y-64717219D01*
X176701005Y-64752336D01*
X176671226Y-64768452D01*
X176646922Y-64787368D01*
X176646922Y-64787370D01*
X177228913Y-65369360D01*
X177129019Y-65410738D01*
X177008905Y-65502905D01*
X176916738Y-65623019D01*
X176875360Y-65722913D01*
X176294905Y-65142458D01*
X176216609Y-65262299D01*
X176125907Y-65469079D01*
X176070476Y-65687970D01*
X176070474Y-65687978D01*
X176051830Y-65912993D01*
X176051830Y-65913006D01*
X176070474Y-66138021D01*
X176070476Y-66138029D01*
X176125907Y-66356920D01*
X176216609Y-66563700D01*
X176294904Y-66683540D01*
X176875360Y-66103085D01*
X176916738Y-66202981D01*
X177008905Y-66323095D01*
X177129019Y-66415262D01*
X177228913Y-66456639D01*
X176646922Y-67038629D01*
X176671231Y-67057550D01*
X176671234Y-67057552D01*
X176701001Y-67073661D01*
X176750592Y-67122880D01*
X176765700Y-67191097D01*
X176741530Y-67256653D01*
X176701003Y-67291770D01*
X176670960Y-67308028D01*
X176670958Y-67308029D01*
X176492701Y-67446772D01*
X176492698Y-67446775D01*
X176339715Y-67612957D01*
X176216168Y-67802061D01*
X176125433Y-68008917D01*
X176069981Y-68227892D01*
X176051329Y-68452994D01*
X176051329Y-68453005D01*
X162145499Y-68453005D01*
X162145499Y-68169128D01*
X162139091Y-68109517D01*
X162134353Y-68096815D01*
X162088797Y-67974671D01*
X162088793Y-67974664D01*
X162002547Y-67859455D01*
X162002544Y-67859452D01*
X161880231Y-67767888D01*
X161881930Y-67765617D01*
X161842743Y-67726435D01*
X161827886Y-67658163D01*
X161852298Y-67592697D01*
X161881311Y-67567556D01*
X161880231Y-67566112D01*
X161966163Y-67501782D01*
X162002546Y-67474546D01*
X162088796Y-67359331D01*
X162139091Y-67224483D01*
X162145500Y-67164873D01*
X162145499Y-66169128D01*
X162139091Y-66109517D01*
X162134353Y-66096815D01*
X162088797Y-65974671D01*
X162088793Y-65974664D01*
X162002547Y-65859455D01*
X162002544Y-65859452D01*
X161880231Y-65767888D01*
X161881930Y-65765617D01*
X161842743Y-65726435D01*
X161827886Y-65658163D01*
X161852298Y-65592697D01*
X161881311Y-65567556D01*
X161880231Y-65566112D01*
X161966163Y-65501782D01*
X162002546Y-65474546D01*
X162088796Y-65359331D01*
X162139091Y-65224483D01*
X162145500Y-65164873D01*
X162145499Y-64169128D01*
X162139091Y-64109517D01*
X162134353Y-64096815D01*
X162088797Y-63974671D01*
X162088793Y-63974664D01*
X162002547Y-63859455D01*
X162002544Y-63859452D01*
X161880231Y-63767888D01*
X161881930Y-63765617D01*
X161842743Y-63726435D01*
X161827886Y-63658163D01*
X161852298Y-63592697D01*
X161881311Y-63567556D01*
X161880231Y-63566112D01*
X161966163Y-63501782D01*
X162002546Y-63474546D01*
X162088796Y-63359331D01*
X162139091Y-63224483D01*
X162145500Y-63164873D01*
X162145499Y-62169128D01*
X162139091Y-62109517D01*
X162134353Y-62096815D01*
X162088797Y-61974671D01*
X162088793Y-61974664D01*
X162002547Y-61859455D01*
X162002544Y-61859452D01*
X161880231Y-61767888D01*
X161881930Y-61765617D01*
X161842743Y-61726435D01*
X161827886Y-61658163D01*
X161852298Y-61592697D01*
X161881311Y-61567556D01*
X161880231Y-61566112D01*
X161966163Y-61501782D01*
X162002546Y-61474546D01*
X162088796Y-61359331D01*
X162139091Y-61224483D01*
X162145500Y-61164873D01*
X162145499Y-60169128D01*
X162139091Y-60109517D01*
X162134353Y-60096815D01*
X162088797Y-59974671D01*
X162088793Y-59974664D01*
X162002547Y-59859455D01*
X162002544Y-59859452D01*
X161887335Y-59773206D01*
X161887328Y-59773202D01*
X161752482Y-59722908D01*
X161752483Y-59722908D01*
X161692883Y-59716501D01*
X161692881Y-59716500D01*
X161692873Y-59716500D01*
X161692864Y-59716500D01*
X160297129Y-59716500D01*
X160297123Y-59716501D01*
X160237515Y-59722909D01*
X160126865Y-59764178D01*
X160057174Y-59769162D01*
X160034634Y-59761947D01*
X159963537Y-59731437D01*
X159769199Y-59691500D01*
X158570527Y-59691500D01*
X158570526Y-59691500D01*
X158422619Y-59706540D01*
X158233329Y-59765930D01*
X158233320Y-59765934D01*
X158059852Y-59862217D01*
X158059851Y-59862217D01*
X157909319Y-59991445D01*
X157909317Y-59991446D01*
X157787879Y-60148331D01*
X157787877Y-60148335D01*
X157700503Y-60326459D01*
X157650777Y-60518511D01*
X157650776Y-60518517D01*
X157640728Y-60716662D01*
X157640728Y-60716663D01*
X157670768Y-60912764D01*
X157670771Y-60912777D01*
X157739673Y-61098815D01*
X157739677Y-61098824D01*
X157844616Y-61267184D01*
X157844621Y-61267191D01*
X157960724Y-61389331D01*
X157981309Y-61410986D01*
X158144146Y-61524324D01*
X158207626Y-61551565D01*
X158261470Y-61596091D01*
X158282693Y-61662660D01*
X158264558Y-61730135D01*
X158218904Y-61773935D01*
X158059852Y-61862216D01*
X158059851Y-61862217D01*
X157909319Y-61991445D01*
X157909317Y-61991446D01*
X157787879Y-62148331D01*
X157787877Y-62148335D01*
X157700503Y-62326459D01*
X157650777Y-62518511D01*
X157650776Y-62518517D01*
X157640728Y-62716662D01*
X157640728Y-62716663D01*
X157670768Y-62912764D01*
X157670771Y-62912777D01*
X157739673Y-63098815D01*
X157739677Y-63098824D01*
X157844616Y-63267184D01*
X157844621Y-63267191D01*
X157960724Y-63389331D01*
X157981309Y-63410986D01*
X158144146Y-63524324D01*
X158207626Y-63551565D01*
X158261470Y-63596091D01*
X158282693Y-63662660D01*
X158264558Y-63730135D01*
X158218904Y-63773935D01*
X158059852Y-63862216D01*
X158059851Y-63862217D01*
X157909319Y-63991445D01*
X157909317Y-63991446D01*
X157787879Y-64148331D01*
X157787877Y-64148335D01*
X157700503Y-64326459D01*
X157650777Y-64518511D01*
X157650776Y-64518517D01*
X157640728Y-64716662D01*
X157640728Y-64716663D01*
X157670768Y-64912764D01*
X157670771Y-64912777D01*
X157739673Y-65098815D01*
X157739677Y-65098824D01*
X157844616Y-65267184D01*
X157844621Y-65267191D01*
X157960724Y-65389331D01*
X157981309Y-65410986D01*
X158144146Y-65524324D01*
X158207626Y-65551565D01*
X158261470Y-65596091D01*
X158282693Y-65662660D01*
X158264558Y-65730135D01*
X158218904Y-65773935D01*
X158059852Y-65862216D01*
X158059851Y-65862217D01*
X157909319Y-65991445D01*
X157909317Y-65991446D01*
X157787879Y-66148331D01*
X157787877Y-66148335D01*
X157700503Y-66326459D01*
X157650777Y-66518511D01*
X157650776Y-66518517D01*
X157640728Y-66716662D01*
X157640728Y-66716663D01*
X157670768Y-66912764D01*
X157670771Y-66912777D01*
X157739673Y-67098815D01*
X157739677Y-67098824D01*
X157844616Y-67267184D01*
X157844621Y-67267191D01*
X157960724Y-67389331D01*
X157981309Y-67410986D01*
X158144146Y-67524324D01*
X158207626Y-67551565D01*
X158261470Y-67596091D01*
X158282693Y-67662660D01*
X158264558Y-67730135D01*
X158218904Y-67773935D01*
X158059852Y-67862216D01*
X158059851Y-67862217D01*
X157909319Y-67991445D01*
X157909317Y-67991446D01*
X157787879Y-68148331D01*
X157787877Y-68148335D01*
X157700503Y-68326459D01*
X157650777Y-68518511D01*
X157650776Y-68518517D01*
X157640728Y-68716662D01*
X157640728Y-68716663D01*
X157670768Y-68912764D01*
X157670771Y-68912777D01*
X157739673Y-69098815D01*
X157739677Y-69098824D01*
X157844616Y-69267184D01*
X157844621Y-69267191D01*
X157960724Y-69389331D01*
X157981309Y-69410986D01*
X158144146Y-69524324D01*
X158207626Y-69551565D01*
X158261470Y-69596091D01*
X158282693Y-69662660D01*
X158264558Y-69730135D01*
X158218904Y-69773935D01*
X158059852Y-69862216D01*
X158059851Y-69862217D01*
X157909319Y-69991445D01*
X157909317Y-69991446D01*
X157787879Y-70148331D01*
X157787877Y-70148335D01*
X157700503Y-70326459D01*
X157650777Y-70518511D01*
X157650776Y-70518517D01*
X157640728Y-70716662D01*
X157640728Y-70716663D01*
X157670768Y-70912764D01*
X157670771Y-70912777D01*
X157739673Y-71098815D01*
X157739677Y-71098824D01*
X157844616Y-71267184D01*
X157844621Y-71267191D01*
X157960724Y-71389331D01*
X157981309Y-71410986D01*
X158144146Y-71524324D01*
X158207626Y-71551565D01*
X158261470Y-71596091D01*
X158282693Y-71662660D01*
X158264558Y-71730135D01*
X158218904Y-71773935D01*
X158059852Y-71862216D01*
X158059851Y-71862217D01*
X157909319Y-71991445D01*
X157909317Y-71991446D01*
X157787879Y-72148331D01*
X157787877Y-72148335D01*
X157700503Y-72326459D01*
X157650777Y-72518511D01*
X157650776Y-72518517D01*
X157640728Y-72716662D01*
X157640728Y-72716663D01*
X157670768Y-72912764D01*
X157670771Y-72912777D01*
X157739673Y-73098815D01*
X157739677Y-73098824D01*
X157844616Y-73267184D01*
X157844621Y-73267191D01*
X157960724Y-73389331D01*
X157981309Y-73410986D01*
X158144146Y-73524324D01*
X158207626Y-73551565D01*
X158261470Y-73596091D01*
X158282693Y-73662660D01*
X158264558Y-73730135D01*
X158218904Y-73773935D01*
X158059852Y-73862216D01*
X158059851Y-73862217D01*
X157909319Y-73991445D01*
X157909317Y-73991446D01*
X157787879Y-74148331D01*
X157787877Y-74148335D01*
X157700503Y-74326459D01*
X157650777Y-74518511D01*
X157650776Y-74518517D01*
X157640728Y-74716662D01*
X157640728Y-74716663D01*
X157670768Y-74912764D01*
X157670771Y-74912777D01*
X157739673Y-75098815D01*
X157739677Y-75098824D01*
X157844616Y-75267184D01*
X157844621Y-75267191D01*
X157960724Y-75389331D01*
X157981309Y-75410986D01*
X158144146Y-75524324D01*
X158207626Y-75551565D01*
X158261470Y-75596091D01*
X158282693Y-75662660D01*
X158264558Y-75730135D01*
X158218904Y-75773935D01*
X158059852Y-75862216D01*
X158059851Y-75862217D01*
X157909319Y-75991445D01*
X157909317Y-75991446D01*
X157787879Y-76148331D01*
X157787877Y-76148335D01*
X157700503Y-76326459D01*
X157650777Y-76518511D01*
X157650776Y-76518517D01*
X157640728Y-76716662D01*
X157640728Y-76716663D01*
X157670768Y-76912764D01*
X157670771Y-76912777D01*
X157739673Y-77098815D01*
X157739677Y-77098824D01*
X157844616Y-77267184D01*
X157844621Y-77267191D01*
X157960724Y-77389331D01*
X157981309Y-77410986D01*
X158144146Y-77524324D01*
X158207626Y-77551565D01*
X158261470Y-77596091D01*
X158282693Y-77662660D01*
X158264558Y-77730135D01*
X158218904Y-77773935D01*
X158059852Y-77862216D01*
X158059851Y-77862217D01*
X157909319Y-77991445D01*
X157909317Y-77991446D01*
X157787879Y-78148331D01*
X157787877Y-78148335D01*
X157700503Y-78326459D01*
X157650777Y-78518511D01*
X157650776Y-78518517D01*
X157640728Y-78716662D01*
X157640728Y-78716663D01*
X157670768Y-78912764D01*
X157670771Y-78912777D01*
X157739673Y-79098815D01*
X157739677Y-79098824D01*
X157844616Y-79267184D01*
X157844621Y-79267191D01*
X157960724Y-79389331D01*
X157981309Y-79410986D01*
X158144146Y-79524324D01*
X158207626Y-79551565D01*
X158261470Y-79596091D01*
X158282693Y-79662660D01*
X158264558Y-79730135D01*
X158218904Y-79773935D01*
X158059852Y-79862216D01*
X158059851Y-79862217D01*
X157909319Y-79991445D01*
X157909317Y-79991446D01*
X157787879Y-80148331D01*
X157787877Y-80148335D01*
X157700503Y-80326459D01*
X157650777Y-80518511D01*
X157650776Y-80518517D01*
X157640728Y-80716662D01*
X157640728Y-80716663D01*
X157670768Y-80912764D01*
X157670771Y-80912777D01*
X157739673Y-81098815D01*
X157739677Y-81098824D01*
X157844616Y-81267184D01*
X157844621Y-81267191D01*
X157960724Y-81389331D01*
X157981309Y-81410986D01*
X158144146Y-81524324D01*
X158207626Y-81551565D01*
X158261470Y-81596091D01*
X158282693Y-81662660D01*
X158264558Y-81730135D01*
X158218904Y-81773935D01*
X158059852Y-81862216D01*
X158059851Y-81862217D01*
X157909319Y-81991445D01*
X157909317Y-81991446D01*
X157787879Y-82148331D01*
X157787877Y-82148335D01*
X157700503Y-82326459D01*
X157650777Y-82518511D01*
X157650776Y-82518517D01*
X157640728Y-82716662D01*
X157640728Y-82716663D01*
X157670768Y-82912764D01*
X157670771Y-82912777D01*
X157739673Y-83098815D01*
X157739677Y-83098824D01*
X157844616Y-83267184D01*
X157844621Y-83267191D01*
X157960724Y-83389331D01*
X157981309Y-83410986D01*
X158144146Y-83524324D01*
X158207626Y-83551565D01*
X158261470Y-83596091D01*
X158282693Y-83662660D01*
X158264558Y-83730135D01*
X158218904Y-83773935D01*
X158059852Y-83862216D01*
X158059851Y-83862217D01*
X157909319Y-83991445D01*
X157909317Y-83991446D01*
X157787879Y-84148331D01*
X157787877Y-84148335D01*
X157700503Y-84326459D01*
X157650777Y-84518511D01*
X157650776Y-84518517D01*
X157640728Y-84716662D01*
X157640728Y-84716663D01*
X144895000Y-84716663D01*
X144895000Y-83034841D01*
X151580501Y-83034841D01*
X151682453Y-83088351D01*
X151839255Y-83127000D01*
X152000745Y-83127000D01*
X152157544Y-83088351D01*
X152259497Y-83034841D01*
X152440501Y-83034841D01*
X152542453Y-83088351D01*
X152699255Y-83127000D01*
X152860745Y-83127000D01*
X153017544Y-83088351D01*
X153119497Y-83034841D01*
X153330501Y-83034841D01*
X153432453Y-83088351D01*
X153589255Y-83127000D01*
X153750745Y-83127000D01*
X153907544Y-83088351D01*
X154009497Y-83034841D01*
X153670001Y-82695345D01*
X153330501Y-83034841D01*
X153119497Y-83034841D01*
X152780001Y-82695345D01*
X152440501Y-83034841D01*
X152259497Y-83034841D01*
X151920001Y-82695345D01*
X151920000Y-82695345D01*
X151580501Y-83034841D01*
X144895000Y-83034841D01*
X144895000Y-82461999D01*
X151250116Y-82461999D01*
X151269581Y-82622312D01*
X151269582Y-82622317D01*
X151326846Y-82773310D01*
X151346650Y-82802003D01*
X151686654Y-82462000D01*
X151851268Y-82462000D01*
X151871399Y-82510601D01*
X151907369Y-82525500D01*
X151932631Y-82525500D01*
X151968601Y-82510601D01*
X151988732Y-82462000D01*
X151988731Y-82461998D01*
X152153345Y-82461998D01*
X152350000Y-82658654D01*
X152546654Y-82462000D01*
X152711268Y-82462000D01*
X152731399Y-82510601D01*
X152767369Y-82525500D01*
X152792631Y-82525500D01*
X152828601Y-82510601D01*
X152848732Y-82462000D01*
X153013345Y-82462000D01*
X153225000Y-82673655D01*
X153436655Y-82462000D01*
X153601268Y-82462000D01*
X153621399Y-82510601D01*
X153657369Y-82525500D01*
X153682631Y-82525500D01*
X153718601Y-82510601D01*
X153738732Y-82462000D01*
X153718601Y-82413399D01*
X153682631Y-82398500D01*
X153657369Y-82398500D01*
X153621399Y-82413399D01*
X153601268Y-82462000D01*
X153436655Y-82462000D01*
X153268933Y-82294278D01*
X153250005Y-82279026D01*
X153225000Y-82254020D01*
X153199995Y-82279026D01*
X153191897Y-82283447D01*
X153013345Y-82462000D01*
X152848732Y-82462000D01*
X152828601Y-82413399D01*
X152792631Y-82398500D01*
X152767369Y-82398500D01*
X152731399Y-82413399D01*
X152711268Y-82462000D01*
X152546654Y-82462000D01*
X152546655Y-82461999D01*
X152378932Y-82294277D01*
X152360005Y-82279025D01*
X152350000Y-82269020D01*
X152339995Y-82279025D01*
X152331901Y-82283444D01*
X152153345Y-82461998D01*
X151988731Y-82461998D01*
X151968601Y-82413399D01*
X151932631Y-82398500D01*
X151907369Y-82398500D01*
X151871399Y-82413399D01*
X151851268Y-82462000D01*
X151686654Y-82462000D01*
X151920000Y-82228655D01*
X152066655Y-82082000D01*
X152633345Y-82082000D01*
X152779999Y-82228655D01*
X152926655Y-82082000D01*
X152926654Y-82081999D01*
X153523345Y-82081999D01*
X153670000Y-82228655D01*
X154243347Y-82802003D01*
X154263151Y-82773312D01*
X154320417Y-82622317D01*
X154320418Y-82622312D01*
X154339883Y-82461999D01*
X154320418Y-82301687D01*
X154320417Y-82301682D01*
X154263151Y-82150686D01*
X154259667Y-82144047D01*
X154261310Y-82143184D01*
X154242479Y-82086093D01*
X154259939Y-82018440D01*
X154262784Y-82014012D01*
X154263151Y-82013313D01*
X154320417Y-81862317D01*
X154320418Y-81862312D01*
X154339883Y-81701999D01*
X154320418Y-81541687D01*
X154320417Y-81541682D01*
X154263153Y-81390690D01*
X154243347Y-81361996D01*
X153670000Y-81935345D01*
X153523345Y-82081999D01*
X152926654Y-82081999D01*
X152780000Y-81935345D01*
X152633345Y-82082000D01*
X152066655Y-82082000D01*
X151920000Y-81935345D01*
X151686655Y-81702000D01*
X151851268Y-81702000D01*
X151871399Y-81750601D01*
X151907369Y-81765500D01*
X151932631Y-81765500D01*
X151968601Y-81750601D01*
X151988732Y-81702000D01*
X151988732Y-81701999D01*
X152153345Y-81701999D01*
X152321063Y-81869718D01*
X152339995Y-81884974D01*
X152350000Y-81894979D01*
X152360005Y-81884974D01*
X152368102Y-81880552D01*
X152546655Y-81702000D01*
X152711268Y-81702000D01*
X152731399Y-81750601D01*
X152767369Y-81765500D01*
X152792631Y-81765500D01*
X152828601Y-81750601D01*
X152848732Y-81702000D01*
X153013345Y-81702000D01*
X153181062Y-81869717D01*
X153199995Y-81884974D01*
X153225000Y-81909978D01*
X153250005Y-81884974D01*
X153258102Y-81880552D01*
X153436655Y-81702000D01*
X153601268Y-81702000D01*
X153621399Y-81750601D01*
X153657369Y-81765500D01*
X153682631Y-81765500D01*
X153718601Y-81750601D01*
X153738732Y-81702000D01*
X153718601Y-81653399D01*
X153682631Y-81638500D01*
X153657369Y-81638500D01*
X153621399Y-81653399D01*
X153601268Y-81702000D01*
X153436655Y-81702000D01*
X153225000Y-81490345D01*
X153013345Y-81702000D01*
X152848732Y-81702000D01*
X152828601Y-81653399D01*
X152792631Y-81638500D01*
X152767369Y-81638500D01*
X152731399Y-81653399D01*
X152711268Y-81702000D01*
X152546655Y-81702000D01*
X152349999Y-81505344D01*
X152153345Y-81701999D01*
X151988732Y-81701999D01*
X151968601Y-81653399D01*
X151932631Y-81638500D01*
X151907369Y-81638500D01*
X151871399Y-81653399D01*
X151851268Y-81702000D01*
X151686655Y-81702000D01*
X151346651Y-81361995D01*
X151326848Y-81390687D01*
X151326843Y-81390697D01*
X151269582Y-81541682D01*
X151269581Y-81541687D01*
X151250116Y-81702000D01*
X151269581Y-81862312D01*
X151269582Y-81862317D01*
X151326847Y-82013311D01*
X151330334Y-82019955D01*
X151328691Y-82020816D01*
X151347521Y-82077920D01*
X151330053Y-82145571D01*
X151327218Y-82149981D01*
X151326847Y-82150688D01*
X151269582Y-82301682D01*
X151269581Y-82301687D01*
X151250116Y-82461999D01*
X144895000Y-82461999D01*
X144895000Y-82217000D01*
X138575000Y-82217000D01*
X138080294Y-82217000D01*
X138050456Y-82169129D01*
X138005383Y-82096815D01*
X138005378Y-82096808D01*
X137868693Y-81953016D01*
X137868692Y-81953015D01*
X137806859Y-81909978D01*
X137764582Y-81880552D01*
X137705853Y-81839675D01*
X137642373Y-81812434D01*
X137588529Y-81767907D01*
X137567306Y-81701338D01*
X137585441Y-81633863D01*
X137631095Y-81590064D01*
X137790146Y-81501784D01*
X137940682Y-81372553D01*
X138045610Y-81236998D01*
X151688345Y-81236998D01*
X151920000Y-81468654D01*
X152151655Y-81237000D01*
X152548345Y-81237000D01*
X152780000Y-81468654D01*
X153011655Y-81237000D01*
X153011653Y-81236998D01*
X153438345Y-81236998D01*
X153670000Y-81468654D01*
X153901655Y-81237000D01*
X153901654Y-81236999D01*
X153670001Y-81005345D01*
X153438345Y-81236998D01*
X153011653Y-81236998D01*
X152780000Y-81005345D01*
X152548345Y-81236999D01*
X152548345Y-81237000D01*
X152151655Y-81237000D01*
X152151655Y-81236999D01*
X151920001Y-81005345D01*
X151688345Y-81236998D01*
X138045610Y-81236998D01*
X138062122Y-81215666D01*
X138149495Y-81037544D01*
X138199224Y-80845480D01*
X138202950Y-80772000D01*
X151250116Y-80772000D01*
X151269581Y-80932312D01*
X151269582Y-80932317D01*
X151326846Y-81083310D01*
X151346650Y-81112002D01*
X151346651Y-81112002D01*
X151686655Y-80772000D01*
X151851268Y-80772000D01*
X151871399Y-80820601D01*
X151907369Y-80835500D01*
X151932631Y-80835500D01*
X151968601Y-80820601D01*
X151988732Y-80772000D01*
X152153345Y-80772000D01*
X152349999Y-80968655D01*
X152546654Y-80772000D01*
X152711268Y-80772000D01*
X152731399Y-80820601D01*
X152767369Y-80835500D01*
X152792631Y-80835500D01*
X152828601Y-80820601D01*
X152848732Y-80772000D01*
X153013345Y-80772000D01*
X153225000Y-80983655D01*
X153436655Y-80772000D01*
X153601268Y-80772000D01*
X153621399Y-80820601D01*
X153657369Y-80835500D01*
X153682631Y-80835500D01*
X153718601Y-80820601D01*
X153738732Y-80772001D01*
X153903345Y-80772001D01*
X154243347Y-81112003D01*
X154263151Y-81083312D01*
X154320417Y-80932317D01*
X154320418Y-80932312D01*
X154339883Y-80771999D01*
X154320418Y-80611687D01*
X154320417Y-80611682D01*
X154263153Y-80460690D01*
X154243347Y-80431996D01*
X153903345Y-80771999D01*
X153903345Y-80772001D01*
X153738732Y-80772001D01*
X153738732Y-80772000D01*
X153718601Y-80723399D01*
X153682631Y-80708500D01*
X153657369Y-80708500D01*
X153621399Y-80723399D01*
X153601268Y-80772000D01*
X153436655Y-80772000D01*
X153225000Y-80560345D01*
X153013345Y-80772000D01*
X152848732Y-80772000D01*
X152828601Y-80723399D01*
X152792631Y-80708500D01*
X152767369Y-80708500D01*
X152731399Y-80723399D01*
X152711268Y-80772000D01*
X152546654Y-80772000D01*
X152349998Y-80575345D01*
X152153345Y-80772000D01*
X151988732Y-80772000D01*
X151968601Y-80723399D01*
X151932631Y-80708500D01*
X151907369Y-80708500D01*
X151871399Y-80723399D01*
X151851268Y-80772000D01*
X151686655Y-80772000D01*
X151686655Y-80771999D01*
X151346651Y-80431995D01*
X151326848Y-80460687D01*
X151326843Y-80460697D01*
X151269582Y-80611682D01*
X151269581Y-80611687D01*
X151250116Y-80772000D01*
X138202950Y-80772000D01*
X138209272Y-80647337D01*
X138179230Y-80451227D01*
X138110325Y-80265180D01*
X138069173Y-80199157D01*
X151580501Y-80199157D01*
X151920000Y-80538654D01*
X151920001Y-80538654D01*
X152259497Y-80199156D01*
X152440502Y-80199156D01*
X152779999Y-80538654D01*
X153119494Y-80199157D01*
X153330502Y-80199157D01*
X153670000Y-80538655D01*
X153670001Y-80538655D01*
X154009497Y-80199157D01*
X153907542Y-80145647D01*
X153750745Y-80107000D01*
X153589255Y-80107000D01*
X153432457Y-80145647D01*
X153330502Y-80199157D01*
X153119494Y-80199157D01*
X153119495Y-80199156D01*
X153017542Y-80145647D01*
X152860745Y-80107000D01*
X152699255Y-80107000D01*
X152542457Y-80145647D01*
X152440502Y-80199156D01*
X152259497Y-80199156D01*
X152157542Y-80145647D01*
X152000745Y-80107000D01*
X151839255Y-80107000D01*
X151682457Y-80145647D01*
X151580501Y-80199157D01*
X138069173Y-80199157D01*
X138050456Y-80169129D01*
X138005383Y-80096815D01*
X138005378Y-80096808D01*
X137868693Y-79953016D01*
X137868692Y-79953015D01*
X137705853Y-79839675D01*
X137642373Y-79812434D01*
X137588529Y-79767907D01*
X137567306Y-79701338D01*
X137585441Y-79633863D01*
X137631095Y-79590064D01*
X137790146Y-79501784D01*
X137940682Y-79372553D01*
X138055757Y-79223889D01*
X140715416Y-79223889D01*
X140715459Y-79248001D01*
X140715500Y-79248099D01*
X140715616Y-79248382D01*
X140715618Y-79248384D01*
X140715808Y-79248462D01*
X140716000Y-79248541D01*
X140716002Y-79248539D01*
X140740616Y-79248524D01*
X140740616Y-79248528D01*
X140740760Y-79248500D01*
X155169240Y-79248500D01*
X155169383Y-79248528D01*
X155169384Y-79248524D01*
X155193997Y-79248539D01*
X155194000Y-79248541D01*
X155194383Y-79248383D01*
X155194500Y-79248099D01*
X155194541Y-79248000D01*
X155194540Y-79247997D01*
X155194583Y-79223889D01*
X155194500Y-79223467D01*
X155194500Y-63397759D01*
X155194528Y-63397616D01*
X155194524Y-63397616D01*
X155194539Y-63373002D01*
X155194541Y-63373000D01*
X155194462Y-63372808D01*
X155194384Y-63372618D01*
X155194382Y-63372616D01*
X155194099Y-63372500D01*
X155194000Y-63372459D01*
X155169446Y-63372459D01*
X155169240Y-63372500D01*
X140740760Y-63372500D01*
X140740554Y-63372459D01*
X140716000Y-63372459D01*
X140715901Y-63372500D01*
X140715617Y-63372616D01*
X140715615Y-63372618D01*
X140715459Y-63372999D01*
X140715476Y-63397616D01*
X140715471Y-63397616D01*
X140715500Y-63397759D01*
X140715500Y-79223467D01*
X140715416Y-79223889D01*
X138055757Y-79223889D01*
X138062122Y-79215666D01*
X138149495Y-79037544D01*
X138199224Y-78845480D01*
X138209272Y-78647337D01*
X138179230Y-78451227D01*
X138110325Y-78265180D01*
X138050456Y-78169129D01*
X138005383Y-78096815D01*
X138005378Y-78096808D01*
X137868693Y-77953016D01*
X137868692Y-77953015D01*
X137705853Y-77839675D01*
X137642373Y-77812434D01*
X137588529Y-77767907D01*
X137567306Y-77701338D01*
X137585441Y-77633863D01*
X137631095Y-77590064D01*
X137790146Y-77501784D01*
X137940682Y-77372553D01*
X138062122Y-77215666D01*
X138149495Y-77037544D01*
X138199224Y-76845480D01*
X138209272Y-76647337D01*
X138179230Y-76451227D01*
X138110325Y-76265180D01*
X138050456Y-76169129D01*
X138005383Y-76096815D01*
X138005378Y-76096808D01*
X137868693Y-75953016D01*
X137868692Y-75953015D01*
X137705853Y-75839675D01*
X137642373Y-75812434D01*
X137588529Y-75767907D01*
X137567306Y-75701338D01*
X137585441Y-75633863D01*
X137631095Y-75590064D01*
X137790146Y-75501784D01*
X137940682Y-75372553D01*
X138062122Y-75215666D01*
X138149495Y-75037544D01*
X138199224Y-74845480D01*
X138209272Y-74647337D01*
X138179230Y-74451227D01*
X138110325Y-74265180D01*
X138050456Y-74169129D01*
X138005383Y-74096815D01*
X138005378Y-74096808D01*
X137868693Y-73953016D01*
X137868692Y-73953015D01*
X137705853Y-73839675D01*
X137642373Y-73812434D01*
X137588529Y-73767907D01*
X137567306Y-73701338D01*
X137585441Y-73633863D01*
X137631095Y-73590064D01*
X137790146Y-73501784D01*
X137940682Y-73372553D01*
X138062122Y-73215666D01*
X138149495Y-73037544D01*
X138199224Y-72845480D01*
X138209272Y-72647337D01*
X138179230Y-72451227D01*
X138110325Y-72265180D01*
X138050456Y-72169129D01*
X138005383Y-72096815D01*
X138005378Y-72096808D01*
X137868693Y-71953016D01*
X137868692Y-71953015D01*
X137705853Y-71839675D01*
X137642373Y-71812434D01*
X137588529Y-71767907D01*
X137567306Y-71701338D01*
X137585441Y-71633863D01*
X137631095Y-71590064D01*
X137790146Y-71501784D01*
X137940682Y-71372553D01*
X138062122Y-71215666D01*
X138149495Y-71037544D01*
X138199224Y-70845480D01*
X138209272Y-70647337D01*
X138179230Y-70451227D01*
X138110325Y-70265180D01*
X138050456Y-70169129D01*
X138005383Y-70096815D01*
X138005378Y-70096808D01*
X137868693Y-69953016D01*
X137868692Y-69953015D01*
X137705853Y-69839675D01*
X137642373Y-69812434D01*
X137588529Y-69767907D01*
X137567306Y-69701338D01*
X137585441Y-69633863D01*
X137631095Y-69590064D01*
X137790146Y-69501784D01*
X137940682Y-69372553D01*
X138062122Y-69215666D01*
X138149495Y-69037544D01*
X138199224Y-68845480D01*
X138209272Y-68647337D01*
X138179230Y-68451227D01*
X138110325Y-68265180D01*
X138087083Y-68227892D01*
X138005383Y-68096815D01*
X138005378Y-68096808D01*
X137868693Y-67953016D01*
X137868692Y-67953015D01*
X137705853Y-67839675D01*
X137642373Y-67812434D01*
X137588529Y-67767907D01*
X137567306Y-67701338D01*
X137585441Y-67633863D01*
X137631095Y-67590064D01*
X137790146Y-67501784D01*
X137940682Y-67372553D01*
X138062122Y-67215666D01*
X138149495Y-67037544D01*
X138199224Y-66845480D01*
X138209272Y-66647337D01*
X138179230Y-66451227D01*
X138110325Y-66265180D01*
X138050456Y-66169129D01*
X138005383Y-66096815D01*
X138005378Y-66096808D01*
X137868693Y-65953016D01*
X137868692Y-65953015D01*
X137705853Y-65839675D01*
X137642373Y-65812434D01*
X137588529Y-65767907D01*
X137567306Y-65701338D01*
X137585441Y-65633863D01*
X137631095Y-65590064D01*
X137790146Y-65501784D01*
X137940682Y-65372553D01*
X138062122Y-65215666D01*
X138149495Y-65037544D01*
X138199224Y-64845480D01*
X138209272Y-64647337D01*
X138179230Y-64451227D01*
X138110325Y-64265180D01*
X138050456Y-64169129D01*
X138005383Y-64096815D01*
X138005378Y-64096808D01*
X137868693Y-63953016D01*
X137868692Y-63953015D01*
X137705853Y-63839675D01*
X137642373Y-63812434D01*
X137588529Y-63767907D01*
X137567306Y-63701338D01*
X137585441Y-63633863D01*
X137631095Y-63590064D01*
X137790146Y-63501784D01*
X137940682Y-63372553D01*
X138062122Y-63215666D01*
X138149495Y-63037544D01*
X138199224Y-62845480D01*
X138209272Y-62647337D01*
X138179230Y-62451227D01*
X138110325Y-62265180D01*
X138050456Y-62169129D01*
X138005383Y-62096815D01*
X138005378Y-62096808D01*
X137868693Y-61953016D01*
X137868692Y-61953015D01*
X137705853Y-61839675D01*
X137642373Y-61812434D01*
X137588529Y-61767907D01*
X137567306Y-61701338D01*
X137585441Y-61633863D01*
X137631095Y-61590064D01*
X137790146Y-61501784D01*
X137940682Y-61372553D01*
X138062122Y-61215666D01*
X138149495Y-61037544D01*
X138199224Y-60845480D01*
X138209272Y-60647337D01*
X138179230Y-60451227D01*
X138110325Y-60265180D01*
X138050456Y-60169129D01*
X138005383Y-60096815D01*
X138005378Y-60096808D01*
X137868693Y-59953016D01*
X137868692Y-59953015D01*
X137705853Y-59839675D01*
X137523535Y-59761437D01*
X137329199Y-59721500D01*
X136130527Y-59721500D01*
X136130526Y-59721500D01*
X135982619Y-59736540D01*
X135798347Y-59794356D01*
X135728489Y-59795643D01*
X135717912Y-59792231D01*
X135633406Y-59760713D01*
X135612481Y-59752908D01*
X135552883Y-59746501D01*
X135552881Y-59746500D01*
X135552873Y-59746500D01*
X135552864Y-59746500D01*
X134157129Y-59746500D01*
X134157123Y-59746501D01*
X134097516Y-59752908D01*
X133962671Y-59803202D01*
X133962664Y-59803206D01*
X133847455Y-59889452D01*
X133847452Y-59889455D01*
X133761206Y-60004664D01*
X133761202Y-60004671D01*
X133710908Y-60139517D01*
X133704501Y-60199116D01*
X133704500Y-60199135D01*
X133704500Y-61194870D01*
X133704501Y-61194876D01*
X133710908Y-61254483D01*
X133761202Y-61389328D01*
X133761206Y-61389335D01*
X133847452Y-61504544D01*
X133847455Y-61504547D01*
X133969769Y-61596112D01*
X133968070Y-61598381D01*
X134007264Y-61637580D01*
X134022111Y-61705854D01*
X133997690Y-61771317D01*
X133968689Y-61796445D01*
X133969769Y-61797888D01*
X133847455Y-61889452D01*
X133847452Y-61889455D01*
X133761206Y-62004664D01*
X133761202Y-62004671D01*
X133710908Y-62139517D01*
X133704501Y-62199116D01*
X133704500Y-62199135D01*
X133704500Y-63194870D01*
X133704501Y-63194876D01*
X133710908Y-63254483D01*
X133761202Y-63389328D01*
X133761206Y-63389335D01*
X133847452Y-63504544D01*
X133847455Y-63504547D01*
X133969769Y-63596112D01*
X133968067Y-63598384D01*
X134007249Y-63637551D01*
X134022114Y-63705821D01*
X133997709Y-63771290D01*
X133968690Y-63796447D01*
X133969769Y-63797888D01*
X133847455Y-63889452D01*
X133847452Y-63889455D01*
X133761206Y-64004664D01*
X133761202Y-64004671D01*
X133710908Y-64139517D01*
X133704501Y-64199116D01*
X133704500Y-64199135D01*
X133704500Y-65194870D01*
X133704501Y-65194876D01*
X133710908Y-65254483D01*
X133761202Y-65389328D01*
X133761206Y-65389335D01*
X133847452Y-65504544D01*
X133847455Y-65504547D01*
X133969769Y-65596112D01*
X133968067Y-65598384D01*
X134007249Y-65637551D01*
X134022114Y-65705821D01*
X133997709Y-65771290D01*
X133968690Y-65796447D01*
X133969769Y-65797888D01*
X133847455Y-65889452D01*
X133847452Y-65889455D01*
X133761206Y-66004664D01*
X133761202Y-66004671D01*
X133710908Y-66139517D01*
X133704501Y-66199116D01*
X133704500Y-66199135D01*
X133704500Y-67194870D01*
X133704501Y-67194876D01*
X133710908Y-67254483D01*
X133761202Y-67389328D01*
X133761206Y-67389335D01*
X133847452Y-67504544D01*
X133847455Y-67504547D01*
X133969769Y-67596112D01*
X133968067Y-67598384D01*
X134007249Y-67637551D01*
X134022114Y-67705821D01*
X133997709Y-67771290D01*
X133968690Y-67796447D01*
X133969769Y-67797888D01*
X133847455Y-67889452D01*
X133847452Y-67889455D01*
X133761206Y-68004664D01*
X133761202Y-68004671D01*
X133710908Y-68139517D01*
X133704501Y-68199116D01*
X133704500Y-68199135D01*
X133704500Y-69194870D01*
X133704501Y-69194876D01*
X133710908Y-69254483D01*
X133761202Y-69389328D01*
X133761206Y-69389335D01*
X133847452Y-69504544D01*
X133847455Y-69504547D01*
X133969769Y-69596112D01*
X133968070Y-69598381D01*
X134007264Y-69637580D01*
X134022111Y-69705854D01*
X133997690Y-69771317D01*
X133968689Y-69796445D01*
X133969769Y-69797888D01*
X133847455Y-69889452D01*
X133847452Y-69889455D01*
X133761206Y-70004664D01*
X133761202Y-70004671D01*
X133710908Y-70139517D01*
X133704501Y-70199116D01*
X133704500Y-70199135D01*
X133704500Y-71194870D01*
X133704501Y-71194876D01*
X133710908Y-71254483D01*
X133761202Y-71389328D01*
X133761206Y-71389335D01*
X133847452Y-71504544D01*
X133847455Y-71504547D01*
X133969769Y-71596112D01*
X133968070Y-71598381D01*
X134007264Y-71637580D01*
X134022111Y-71705854D01*
X133997690Y-71771317D01*
X133968689Y-71796445D01*
X133969769Y-71797888D01*
X133847455Y-71889452D01*
X133847452Y-71889455D01*
X133761206Y-72004664D01*
X133761202Y-72004671D01*
X133710908Y-72139517D01*
X133704501Y-72199116D01*
X133704500Y-72199135D01*
X133704500Y-73194870D01*
X133704501Y-73194876D01*
X133710908Y-73254483D01*
X133761202Y-73389328D01*
X133761206Y-73389335D01*
X133847452Y-73504544D01*
X133847455Y-73504547D01*
X133969769Y-73596112D01*
X133968070Y-73598381D01*
X134007264Y-73637580D01*
X134022111Y-73705854D01*
X133997690Y-73771317D01*
X133968689Y-73796445D01*
X133969769Y-73797888D01*
X133847455Y-73889452D01*
X133847452Y-73889455D01*
X133761206Y-74004664D01*
X133761202Y-74004671D01*
X133710908Y-74139517D01*
X133704501Y-74199116D01*
X133704500Y-74199135D01*
X133704500Y-75194870D01*
X133704501Y-75194876D01*
X133710908Y-75254483D01*
X133761202Y-75389328D01*
X133761206Y-75389335D01*
X133847452Y-75504544D01*
X133847455Y-75504547D01*
X133969769Y-75596112D01*
X133968070Y-75598381D01*
X134007264Y-75637580D01*
X134022111Y-75705854D01*
X133997690Y-75771317D01*
X133968689Y-75796445D01*
X133969769Y-75797888D01*
X133847455Y-75889452D01*
X133847452Y-75889455D01*
X133761206Y-76004664D01*
X133761202Y-76004671D01*
X133710908Y-76139517D01*
X133704501Y-76199116D01*
X133704500Y-76199135D01*
X133704500Y-77194870D01*
X133704501Y-77194876D01*
X133710908Y-77254483D01*
X133761202Y-77389328D01*
X133761206Y-77389335D01*
X133847452Y-77504544D01*
X133847455Y-77504547D01*
X133969769Y-77596112D01*
X133968070Y-77598381D01*
X134007264Y-77637580D01*
X134022111Y-77705854D01*
X133997690Y-77771317D01*
X133968689Y-77796445D01*
X133969769Y-77797888D01*
X133847455Y-77889452D01*
X133847452Y-77889455D01*
X133761206Y-78004664D01*
X133761202Y-78004671D01*
X133710908Y-78139517D01*
X133704501Y-78199116D01*
X133704500Y-78199135D01*
X133704500Y-79194870D01*
X133704501Y-79194876D01*
X133710908Y-79254483D01*
X133761202Y-79389328D01*
X133761206Y-79389335D01*
X133847452Y-79504544D01*
X133847455Y-79504547D01*
X133969769Y-79596112D01*
X133968070Y-79598381D01*
X134007264Y-79637580D01*
X134022111Y-79705854D01*
X133997690Y-79771317D01*
X133968689Y-79796445D01*
X133969769Y-79797888D01*
X133847455Y-79889452D01*
X133847452Y-79889455D01*
X133761206Y-80004664D01*
X133761202Y-80004671D01*
X133710908Y-80139517D01*
X133704501Y-80199116D01*
X133704500Y-80199135D01*
X133704500Y-81194870D01*
X133704501Y-81194876D01*
X133710908Y-81254483D01*
X133761202Y-81389328D01*
X133761206Y-81389335D01*
X133847452Y-81504544D01*
X133847455Y-81504547D01*
X133969769Y-81596112D01*
X133968070Y-81598381D01*
X134007264Y-81637580D01*
X134022111Y-81705854D01*
X133997690Y-81771317D01*
X133968689Y-81796445D01*
X133969769Y-81797888D01*
X133847455Y-81889452D01*
X133847452Y-81889455D01*
X133761206Y-82004664D01*
X133761202Y-82004671D01*
X133710908Y-82139517D01*
X133704501Y-82199116D01*
X133704500Y-82199135D01*
X133704500Y-83194870D01*
X133704501Y-83194876D01*
X133710908Y-83254483D01*
X133761202Y-83389328D01*
X133761206Y-83389335D01*
X133847452Y-83504544D01*
X133847455Y-83504547D01*
X133969769Y-83596112D01*
X133968070Y-83598381D01*
X134007264Y-83637580D01*
X134022111Y-83705854D01*
X133997690Y-83771317D01*
X133968689Y-83796445D01*
X133969769Y-83797888D01*
X133847455Y-83889452D01*
X133847452Y-83889455D01*
X133761206Y-84004664D01*
X133761202Y-84004671D01*
X133710908Y-84139517D01*
X133704501Y-84199116D01*
X133704500Y-84199135D01*
X133704500Y-85194870D01*
X133704501Y-85194876D01*
X133710908Y-85254483D01*
X133761202Y-85389328D01*
X133761206Y-85389335D01*
X133847452Y-85504544D01*
X133847455Y-85504547D01*
X133969769Y-85596112D01*
X133968070Y-85598381D01*
X134007264Y-85637580D01*
X134022111Y-85705854D01*
X133997690Y-85771317D01*
X133968689Y-85796445D01*
X133969769Y-85797888D01*
X133847455Y-85889452D01*
X133847452Y-85889455D01*
X133761206Y-86004664D01*
X133761202Y-86004671D01*
X133710908Y-86139517D01*
X133704501Y-86199116D01*
X133704500Y-86199135D01*
X133704500Y-87194870D01*
X133704501Y-87194876D01*
X133710908Y-87254483D01*
X133761202Y-87389328D01*
X133761206Y-87389335D01*
X133847452Y-87504544D01*
X133847455Y-87504547D01*
X133969769Y-87596112D01*
X133968070Y-87598381D01*
X134007264Y-87637580D01*
X134022111Y-87705854D01*
X133997690Y-87771317D01*
X133968689Y-87796445D01*
X133969769Y-87797888D01*
X133847455Y-87889452D01*
X133847452Y-87889455D01*
X133761206Y-88004664D01*
X133761202Y-88004671D01*
X133710908Y-88139517D01*
X133704501Y-88199116D01*
X133704500Y-88199135D01*
X133704500Y-89194870D01*
X133704501Y-89194876D01*
X133710908Y-89254483D01*
X133761202Y-89389328D01*
X133761206Y-89389335D01*
X133847452Y-89504544D01*
X133847455Y-89504547D01*
X133969769Y-89596112D01*
X133968070Y-89598381D01*
X134007264Y-89637580D01*
X134022111Y-89705854D01*
X133997690Y-89771317D01*
X133968689Y-89796445D01*
X133969769Y-89797888D01*
X133847455Y-89889452D01*
X133847452Y-89889455D01*
X133761206Y-90004664D01*
X133761202Y-90004671D01*
X133710908Y-90139517D01*
X133704501Y-90199116D01*
X133704500Y-90199135D01*
X133704500Y-91194870D01*
X131826500Y-91194870D01*
X131826500Y-58931474D01*
X139899500Y-58931474D01*
X139914540Y-59079380D01*
X139973930Y-59268670D01*
X139973933Y-59268678D01*
X140023430Y-59357853D01*
X140070217Y-59442147D01*
X140070217Y-59442148D01*
X140199445Y-59592680D01*
X140199446Y-59592682D01*
X140346540Y-59706541D01*
X140356334Y-59714122D01*
X140534456Y-59801495D01*
X140534460Y-59801496D01*
X140534458Y-59801496D01*
X140726511Y-59851222D01*
X140726514Y-59851222D01*
X140726520Y-59851224D01*
X140924663Y-59861272D01*
X141120773Y-59831230D01*
X141306820Y-59762325D01*
X141475189Y-59657380D01*
X141618986Y-59520691D01*
X141732324Y-59357854D01*
X141759565Y-59294373D01*
X141804091Y-59240530D01*
X141870659Y-59219306D01*
X141938134Y-59237441D01*
X141981935Y-59283095D01*
X142000869Y-59317208D01*
X142023429Y-59357853D01*
X142070217Y-59442147D01*
X142070217Y-59442148D01*
X142199445Y-59592680D01*
X142199446Y-59592682D01*
X142346540Y-59706541D01*
X142356334Y-59714122D01*
X142534456Y-59801495D01*
X142534460Y-59801496D01*
X142534458Y-59801496D01*
X142726511Y-59851222D01*
X142726514Y-59851222D01*
X142726520Y-59851224D01*
X142924663Y-59861272D01*
X143120773Y-59831230D01*
X143306820Y-59762325D01*
X143475189Y-59657380D01*
X143618986Y-59520691D01*
X143732324Y-59357854D01*
X143759565Y-59294373D01*
X143804091Y-59240530D01*
X143870659Y-59219306D01*
X143938134Y-59237441D01*
X143981935Y-59283095D01*
X144000869Y-59317208D01*
X144023429Y-59357853D01*
X144070217Y-59442147D01*
X144070217Y-59442148D01*
X144199445Y-59592680D01*
X144199446Y-59592682D01*
X144346540Y-59706541D01*
X144356334Y-59714122D01*
X144534456Y-59801495D01*
X144534460Y-59801496D01*
X144534458Y-59801496D01*
X144726511Y-59851222D01*
X144726514Y-59851222D01*
X144726520Y-59851224D01*
X144924663Y-59861272D01*
X145120773Y-59831230D01*
X145306820Y-59762325D01*
X145475189Y-59657380D01*
X145618986Y-59520691D01*
X145732324Y-59357854D01*
X145759565Y-59294373D01*
X145804091Y-59240530D01*
X145870659Y-59219306D01*
X145938134Y-59237441D01*
X145981935Y-59283095D01*
X146000869Y-59317208D01*
X146023429Y-59357853D01*
X146070217Y-59442147D01*
X146070217Y-59442148D01*
X146199445Y-59592680D01*
X146199446Y-59592682D01*
X146346540Y-59706541D01*
X146356334Y-59714122D01*
X146534456Y-59801495D01*
X146534460Y-59801496D01*
X146534458Y-59801496D01*
X146726511Y-59851222D01*
X146726514Y-59851222D01*
X146726520Y-59851224D01*
X146924663Y-59861272D01*
X147120773Y-59831230D01*
X147306820Y-59762325D01*
X147475189Y-59657380D01*
X147618986Y-59520691D01*
X147732324Y-59357854D01*
X147759565Y-59294373D01*
X147804091Y-59240530D01*
X147870659Y-59219306D01*
X147938134Y-59237441D01*
X147981935Y-59283095D01*
X148000869Y-59317208D01*
X148023429Y-59357853D01*
X148070217Y-59442147D01*
X148070217Y-59442148D01*
X148199445Y-59592680D01*
X148199446Y-59592682D01*
X148346540Y-59706541D01*
X148356334Y-59714122D01*
X148534456Y-59801495D01*
X148534460Y-59801496D01*
X148534458Y-59801496D01*
X148726511Y-59851222D01*
X148726514Y-59851222D01*
X148726520Y-59851224D01*
X148924663Y-59861272D01*
X149120773Y-59831230D01*
X149306820Y-59762325D01*
X149475189Y-59657380D01*
X149618986Y-59520691D01*
X149732324Y-59357854D01*
X149759565Y-59294373D01*
X149804091Y-59240530D01*
X149870659Y-59219306D01*
X149938134Y-59237441D01*
X149981935Y-59283095D01*
X150000869Y-59317208D01*
X150023429Y-59357853D01*
X150070217Y-59442147D01*
X150070217Y-59442148D01*
X150199445Y-59592680D01*
X150199446Y-59592682D01*
X150346540Y-59706541D01*
X150356334Y-59714122D01*
X150534456Y-59801495D01*
X150534460Y-59801496D01*
X150534458Y-59801496D01*
X150726511Y-59851222D01*
X150726514Y-59851222D01*
X150726520Y-59851224D01*
X150924663Y-59861272D01*
X151120773Y-59831230D01*
X151306820Y-59762325D01*
X151475189Y-59657380D01*
X151618986Y-59520691D01*
X151732324Y-59357854D01*
X151759565Y-59294373D01*
X151804091Y-59240530D01*
X151870659Y-59219306D01*
X151938134Y-59237441D01*
X151981935Y-59283095D01*
X152000869Y-59317208D01*
X152023429Y-59357853D01*
X152070217Y-59442147D01*
X152070217Y-59442148D01*
X152199445Y-59592680D01*
X152199446Y-59592682D01*
X152346540Y-59706541D01*
X152356334Y-59714122D01*
X152534456Y-59801495D01*
X152534460Y-59801496D01*
X152534458Y-59801496D01*
X152726511Y-59851222D01*
X152726514Y-59851222D01*
X152726520Y-59851224D01*
X152924663Y-59861272D01*
X153120773Y-59831230D01*
X153306820Y-59762325D01*
X153475189Y-59657380D01*
X153618986Y-59520691D01*
X153732324Y-59357854D01*
X153759565Y-59294373D01*
X153804091Y-59240530D01*
X153870659Y-59219306D01*
X153938134Y-59237441D01*
X153981935Y-59283095D01*
X154000869Y-59317208D01*
X154023429Y-59357853D01*
X154070217Y-59442147D01*
X154070217Y-59442148D01*
X154199445Y-59592680D01*
X154199446Y-59592682D01*
X154346540Y-59706541D01*
X154356334Y-59714122D01*
X154534456Y-59801495D01*
X154534460Y-59801496D01*
X154534458Y-59801496D01*
X154726511Y-59851222D01*
X154726514Y-59851222D01*
X154726520Y-59851224D01*
X154924663Y-59861272D01*
X155120773Y-59831230D01*
X155306820Y-59762325D01*
X155475189Y-59657380D01*
X155618986Y-59520691D01*
X155732324Y-59357854D01*
X155810563Y-59175535D01*
X155850500Y-58981199D01*
X155850500Y-58205870D01*
X165115500Y-58205870D01*
X165115501Y-58205876D01*
X165121908Y-58265483D01*
X165172202Y-58400328D01*
X165172206Y-58400335D01*
X165258452Y-58515544D01*
X165258455Y-58515547D01*
X165373664Y-58601793D01*
X165373671Y-58601797D01*
X165508517Y-58652091D01*
X165508516Y-58652091D01*
X165515444Y-58652835D01*
X165568127Y-58658500D01*
X166663872Y-58658499D01*
X166723483Y-58652091D01*
X166723482Y-58652091D01*
X166858329Y-58601797D01*
X166858329Y-58601796D01*
X166858331Y-58601796D01*
X166866822Y-58595439D01*
X166932284Y-58571021D01*
X166995628Y-58584502D01*
X166995830Y-58584016D01*
X166998461Y-58585105D01*
X166999585Y-58585345D01*
X167001462Y-58586348D01*
X167136000Y-58627159D01*
X167136000Y-57865672D01*
X167173871Y-57910805D01*
X167273129Y-57968112D01*
X167357564Y-57983000D01*
X167414436Y-57983000D01*
X167498871Y-57968112D01*
X167598129Y-57910805D01*
X167600483Y-57908000D01*
X167636000Y-57908000D01*
X167636000Y-58627159D01*
X167770534Y-58586349D01*
X167944260Y-58493491D01*
X168096528Y-58368528D01*
X168221492Y-58216260D01*
X168221496Y-58216253D01*
X168314347Y-58042541D01*
X168355160Y-57908000D01*
X167636000Y-57908000D01*
X167600483Y-57908000D01*
X167671801Y-57823007D01*
X167711000Y-57715306D01*
X167711000Y-57600694D01*
X167671801Y-57492993D01*
X167598129Y-57405195D01*
X167498871Y-57347888D01*
X167414436Y-57333000D01*
X167357564Y-57333000D01*
X167273129Y-57347888D01*
X167173871Y-57405195D01*
X167136000Y-57450327D01*
X167136000Y-56688839D01*
X167636000Y-56688839D01*
X167636000Y-57408000D01*
X168355160Y-57408000D01*
X168355160Y-57407999D01*
X168314347Y-57273458D01*
X168221496Y-57099746D01*
X168221492Y-57099739D01*
X168096528Y-56947471D01*
X167944260Y-56822507D01*
X167944253Y-56822503D01*
X167770541Y-56729652D01*
X167636000Y-56688839D01*
X167136000Y-56688839D01*
X167135999Y-56688839D01*
X167001464Y-56729650D01*
X166999586Y-56730655D01*
X166998486Y-56730883D01*
X166995838Y-56731981D01*
X166995629Y-56731478D01*
X166931183Y-56744895D01*
X166866824Y-56720561D01*
X166858335Y-56714206D01*
X166858328Y-56714202D01*
X166723482Y-56663908D01*
X166723483Y-56663908D01*
X166663883Y-56657501D01*
X166663881Y-56657500D01*
X166663873Y-56657500D01*
X166663864Y-56657500D01*
X165568129Y-56657500D01*
X165568123Y-56657501D01*
X165508516Y-56663908D01*
X165373671Y-56714202D01*
X165373664Y-56714206D01*
X165258455Y-56800452D01*
X165258452Y-56800455D01*
X165172206Y-56915664D01*
X165172202Y-56915671D01*
X165121908Y-57050517D01*
X165115501Y-57110116D01*
X165115500Y-57110135D01*
X165115500Y-58205870D01*
X155850500Y-58205870D01*
X155850500Y-57782527D01*
X155835459Y-57634621D01*
X155835459Y-57634619D01*
X155777644Y-57450348D01*
X155776356Y-57380490D01*
X155779775Y-57369894D01*
X155793536Y-57333000D01*
X155819091Y-57264483D01*
X155825500Y-57204873D01*
X155825499Y-55809128D01*
X155819091Y-55749517D01*
X155790966Y-55674111D01*
X155768797Y-55614671D01*
X155768793Y-55614664D01*
X155682547Y-55499455D01*
X155682544Y-55499452D01*
X155567335Y-55413206D01*
X155567328Y-55413202D01*
X155432482Y-55362908D01*
X155432483Y-55362908D01*
X155372883Y-55356501D01*
X155372881Y-55356500D01*
X155372873Y-55356500D01*
X155372864Y-55356500D01*
X154377129Y-55356500D01*
X154377123Y-55356501D01*
X154317516Y-55362908D01*
X154182671Y-55413202D01*
X154182664Y-55413206D01*
X154067455Y-55499452D01*
X154067452Y-55499455D01*
X153975888Y-55621769D01*
X153973618Y-55620070D01*
X153934420Y-55659264D01*
X153866146Y-55674111D01*
X153800683Y-55649690D01*
X153775554Y-55620689D01*
X153774112Y-55621769D01*
X153682547Y-55499455D01*
X153682544Y-55499452D01*
X153567335Y-55413206D01*
X153567328Y-55413202D01*
X153432482Y-55362908D01*
X153432483Y-55362908D01*
X153372883Y-55356501D01*
X153372881Y-55356500D01*
X153372873Y-55356500D01*
X153372864Y-55356500D01*
X152377129Y-55356500D01*
X152377123Y-55356501D01*
X152317516Y-55362908D01*
X152182671Y-55413202D01*
X152182664Y-55413206D01*
X152067455Y-55499452D01*
X152067452Y-55499455D01*
X151975888Y-55621769D01*
X151973618Y-55620070D01*
X151934420Y-55659264D01*
X151866146Y-55674111D01*
X151800683Y-55649690D01*
X151775554Y-55620689D01*
X151774112Y-55621769D01*
X151682547Y-55499455D01*
X151682544Y-55499452D01*
X151567335Y-55413206D01*
X151567328Y-55413202D01*
X151432482Y-55362908D01*
X151432483Y-55362908D01*
X151372883Y-55356501D01*
X151372881Y-55356500D01*
X151372873Y-55356500D01*
X151372864Y-55356500D01*
X150377129Y-55356500D01*
X150377123Y-55356501D01*
X150317516Y-55362908D01*
X150182671Y-55413202D01*
X150182664Y-55413206D01*
X150067455Y-55499452D01*
X150067452Y-55499455D01*
X149975888Y-55621769D01*
X149973618Y-55620070D01*
X149934420Y-55659264D01*
X149866146Y-55674111D01*
X149800683Y-55649690D01*
X149775554Y-55620689D01*
X149774112Y-55621769D01*
X149682547Y-55499455D01*
X149682544Y-55499452D01*
X149567335Y-55413206D01*
X149567328Y-55413202D01*
X149432482Y-55362908D01*
X149432483Y-55362908D01*
X149372883Y-55356501D01*
X149372881Y-55356500D01*
X149372873Y-55356500D01*
X149372864Y-55356500D01*
X148377129Y-55356500D01*
X148377123Y-55356501D01*
X148317516Y-55362908D01*
X148182671Y-55413202D01*
X148182664Y-55413206D01*
X148067455Y-55499452D01*
X148067452Y-55499455D01*
X147975888Y-55621769D01*
X147973618Y-55620070D01*
X147934420Y-55659264D01*
X147866146Y-55674111D01*
X147800683Y-55649690D01*
X147775554Y-55620689D01*
X147774112Y-55621769D01*
X147682547Y-55499455D01*
X147682544Y-55499452D01*
X147567335Y-55413206D01*
X147567328Y-55413202D01*
X147432482Y-55362908D01*
X147432483Y-55362908D01*
X147372883Y-55356501D01*
X147372881Y-55356500D01*
X147372873Y-55356500D01*
X147372864Y-55356500D01*
X146377129Y-55356500D01*
X146377123Y-55356501D01*
X146317516Y-55362908D01*
X146182671Y-55413202D01*
X146182664Y-55413206D01*
X146067455Y-55499452D01*
X146067452Y-55499455D01*
X145975888Y-55621769D01*
X145973618Y-55620070D01*
X145934420Y-55659264D01*
X145866146Y-55674111D01*
X145800683Y-55649690D01*
X145775554Y-55620689D01*
X145774112Y-55621769D01*
X145682547Y-55499455D01*
X145682544Y-55499452D01*
X145567335Y-55413206D01*
X145567328Y-55413202D01*
X145432482Y-55362908D01*
X145432483Y-55362908D01*
X145372883Y-55356501D01*
X145372881Y-55356500D01*
X145372873Y-55356500D01*
X145372864Y-55356500D01*
X144377129Y-55356500D01*
X144377123Y-55356501D01*
X144317516Y-55362908D01*
X144182671Y-55413202D01*
X144182664Y-55413206D01*
X144067455Y-55499452D01*
X144067452Y-55499455D01*
X143975888Y-55621769D01*
X143973618Y-55620070D01*
X143934420Y-55659264D01*
X143866146Y-55674111D01*
X143800683Y-55649690D01*
X143775554Y-55620689D01*
X143774112Y-55621769D01*
X143682547Y-55499455D01*
X143682544Y-55499452D01*
X143567335Y-55413206D01*
X143567328Y-55413202D01*
X143432482Y-55362908D01*
X143432483Y-55362908D01*
X143372883Y-55356501D01*
X143372881Y-55356500D01*
X143372873Y-55356500D01*
X143372864Y-55356500D01*
X142377129Y-55356500D01*
X142377123Y-55356501D01*
X142317516Y-55362908D01*
X142182671Y-55413202D01*
X142182664Y-55413206D01*
X142067455Y-55499452D01*
X142067452Y-55499455D01*
X141975888Y-55621769D01*
X141973618Y-55620070D01*
X141934420Y-55659264D01*
X141866146Y-55674111D01*
X141800683Y-55649690D01*
X141775554Y-55620689D01*
X141774112Y-55621769D01*
X141682547Y-55499455D01*
X141682544Y-55499452D01*
X141567335Y-55413206D01*
X141567328Y-55413202D01*
X141432482Y-55362908D01*
X141432483Y-55362908D01*
X141372883Y-55356501D01*
X141372881Y-55356500D01*
X141372873Y-55356500D01*
X141372864Y-55356500D01*
X140377129Y-55356500D01*
X140377123Y-55356501D01*
X140317516Y-55362908D01*
X140182671Y-55413202D01*
X140182664Y-55413206D01*
X140067455Y-55499452D01*
X140067452Y-55499455D01*
X139981206Y-55614664D01*
X139981202Y-55614671D01*
X139930908Y-55749517D01*
X139924501Y-55809116D01*
X139924501Y-55809123D01*
X139924500Y-55809135D01*
X139924500Y-57204870D01*
X139924501Y-57204876D01*
X139930908Y-57264483D01*
X139972178Y-57375132D01*
X139977162Y-57444824D01*
X139969948Y-57467363D01*
X139939437Y-57538464D01*
X139899500Y-57732800D01*
X139899500Y-58931474D01*
X131826500Y-58931474D01*
X131826500Y-53210500D01*
X131846185Y-53143461D01*
X131898989Y-53097706D01*
X131950500Y-53086500D01*
X201805500Y-53086500D01*
X201872539Y-53106185D01*
G37*
%TD.AperFunction*%
%TD*%
M02*
