%TF.GenerationSoftware,KiCad,Pcbnew,7.0.6*%
%TF.CreationDate,2024-03-24T21:23:19-04:00*%
%TF.ProjectId,Radio Module,52616469-6f20-44d6-9f64-756c652e6b69,rev?*%
%TF.SameCoordinates,Original*%
%TF.FileFunction,Copper,L1,Top*%
%TF.FilePolarity,Positive*%
%FSLAX46Y46*%
G04 Gerber Fmt 4.6, Leading zero omitted, Abs format (unit mm)*
G04 Created by KiCad (PCBNEW 7.0.6) date 2024-03-24 21:23:19*
%MOMM*%
%LPD*%
G01*
G04 APERTURE LIST*
G04 Aperture macros list*
%AMRoundRect*
0 Rectangle with rounded corners*
0 $1 Rounding radius*
0 $2 $3 $4 $5 $6 $7 $8 $9 X,Y pos of 4 corners*
0 Add a 4 corners polygon primitive as box body*
4,1,4,$2,$3,$4,$5,$6,$7,$8,$9,$2,$3,0*
0 Add four circle primitives for the rounded corners*
1,1,$1+$1,$2,$3*
1,1,$1+$1,$4,$5*
1,1,$1+$1,$6,$7*
1,1,$1+$1,$8,$9*
0 Add four rect primitives between the rounded corners*
20,1,$1+$1,$2,$3,$4,$5,0*
20,1,$1+$1,$4,$5,$6,$7,0*
20,1,$1+$1,$6,$7,$8,$9,0*
20,1,$1+$1,$8,$9,$2,$3,0*%
G04 Aperture macros list end*
%TA.AperFunction,SMDPad,CuDef*%
%ADD10R,0.600000X1.250000*%
%TD*%
%TA.AperFunction,SMDPad,CuDef*%
%ADD11RoundRect,0.218750X-0.256250X0.218750X-0.256250X-0.218750X0.256250X-0.218750X0.256250X0.218750X0*%
%TD*%
%TA.AperFunction,SMDPad,CuDef*%
%ADD12RoundRect,0.200000X0.275000X-0.200000X0.275000X0.200000X-0.275000X0.200000X-0.275000X-0.200000X0*%
%TD*%
%TA.AperFunction,ComponentPad*%
%ADD13R,1.000000X1.000000*%
%TD*%
%TA.AperFunction,ComponentPad*%
%ADD14O,1.000000X1.000000*%
%TD*%
%TA.AperFunction,SMDPad,CuDef*%
%ADD15RoundRect,0.200000X-0.200000X-0.275000X0.200000X-0.275000X0.200000X0.275000X-0.200000X0.275000X0*%
%TD*%
%TA.AperFunction,SMDPad,CuDef*%
%ADD16R,2.000000X3.500000*%
%TD*%
%TA.AperFunction,SMDPad,CuDef*%
%ADD17RoundRect,0.225000X0.225000X0.250000X-0.225000X0.250000X-0.225000X-0.250000X0.225000X-0.250000X0*%
%TD*%
%TA.AperFunction,SMDPad,CuDef*%
%ADD18RoundRect,0.218750X0.256250X-0.218750X0.256250X0.218750X-0.256250X0.218750X-0.256250X-0.218750X0*%
%TD*%
%TA.AperFunction,SMDPad,CuDef*%
%ADD19RoundRect,0.140000X0.170000X-0.140000X0.170000X0.140000X-0.170000X0.140000X-0.170000X-0.140000X0*%
%TD*%
%TA.AperFunction,SMDPad,CuDef*%
%ADD20RoundRect,0.200000X-0.275000X0.200000X-0.275000X-0.200000X0.275000X-0.200000X0.275000X0.200000X0*%
%TD*%
%TA.AperFunction,SMDPad,CuDef*%
%ADD21RoundRect,0.250000X0.625000X-0.312500X0.625000X0.312500X-0.625000X0.312500X-0.625000X-0.312500X0*%
%TD*%
%TA.AperFunction,SMDPad,CuDef*%
%ADD22RoundRect,0.200000X0.200000X0.275000X-0.200000X0.275000X-0.200000X-0.275000X0.200000X-0.275000X0*%
%TD*%
%TA.AperFunction,SMDPad,CuDef*%
%ADD23RoundRect,0.250000X-1.100000X0.325000X-1.100000X-0.325000X1.100000X-0.325000X1.100000X0.325000X0*%
%TD*%
%TA.AperFunction,SMDPad,CuDef*%
%ADD24R,3.000000X3.000000*%
%TD*%
%TA.AperFunction,SMDPad,CuDef*%
%ADD25RoundRect,0.380000X-1.120000X-0.380000X1.120000X-0.380000X1.120000X0.380000X-1.120000X0.380000X0*%
%TD*%
%TA.AperFunction,SMDPad,CuDef*%
%ADD26RoundRect,0.380000X0.380000X-1.120000X0.380000X1.120000X-0.380000X1.120000X-0.380000X-1.120000X0*%
%TD*%
%TA.AperFunction,ComponentPad*%
%ADD27C,0.330000*%
%TD*%
%TA.AperFunction,SMDPad,CuDef*%
%ADD28RoundRect,0.100000X-1.295000X-1.295000X1.295000X-1.295000X1.295000X1.295000X-1.295000X1.295000X0*%
%TD*%
%TA.AperFunction,ComponentPad*%
%ADD29O,2.000000X0.950000*%
%TD*%
%TA.AperFunction,ComponentPad*%
%ADD30O,0.950000X2.000000*%
%TD*%
%TA.AperFunction,ComponentPad*%
%ADD31R,1.300000X0.900000*%
%TD*%
%TA.AperFunction,ComponentPad*%
%ADD32R,0.900000X1.300000*%
%TD*%
%TA.AperFunction,SMDPad,CuDef*%
%ADD33RoundRect,0.100000X1.295000X1.295000X-1.295000X1.295000X-1.295000X-1.295000X1.295000X-1.295000X0*%
%TD*%
%TA.AperFunction,ComponentPad*%
%ADD34C,1.725000*%
%TD*%
%TA.AperFunction,ViaPad*%
%ADD35C,1.000000*%
%TD*%
%TA.AperFunction,ViaPad*%
%ADD36C,0.800000*%
%TD*%
%TA.AperFunction,Conductor*%
%ADD37C,0.500000*%
%TD*%
%TA.AperFunction,Conductor*%
%ADD38C,0.250000*%
%TD*%
G04 APERTURE END LIST*
D10*
%TO.P,IC7,1,B*%
%TO.N,Net-(IC7-B)*%
X138684000Y-99661000D03*
%TO.P,IC7,2,E*%
%TO.N,Vcc*%
X136774000Y-99661000D03*
%TO.P,IC7,3,C*%
%TO.N,Net-(IC7-C)*%
X137729000Y-101761000D03*
%TD*%
D11*
%TO.P,D1,1,K*%
%TO.N,GND*%
X164846000Y-72110500D03*
%TO.P,D1,2,A*%
%TO.N,Net-(D1-A)*%
X164846000Y-73685500D03*
%TD*%
D12*
%TO.P,R12,1*%
%TO.N,Net-(D3-A)*%
X137668000Y-105282000D03*
%TO.P,R12,2*%
%TO.N,Net-(IC7-C)*%
X137668000Y-103632000D03*
%TD*%
D10*
%TO.P,IC6,1,B*%
%TO.N,Net-(IC6-B)*%
X144526000Y-99568000D03*
%TO.P,IC6,2,E*%
%TO.N,Net-(IC6-E)*%
X142616000Y-99568000D03*
%TO.P,IC6,3,C*%
%TO.N,GND*%
X143571000Y-101668000D03*
%TD*%
D13*
%TO.P,J3,1,Pin_1*%
%TO.N,Net-(J1-Pin_1)*%
X167386000Y-95758000D03*
D14*
%TO.P,J3,2,Pin_2*%
%TO.N,Net-(J1-Pin_2)*%
X168656000Y-95758000D03*
%TD*%
D15*
%TO.P,R7,1*%
%TO.N,Vcc*%
X150369000Y-97790000D03*
%TO.P,R7,2*%
%TO.N,Net-(IC5-B)*%
X152019000Y-97790000D03*
%TD*%
D16*
%TO.P,L1,1,1*%
%TO.N,Vin*%
X169893000Y-65024000D03*
%TO.P,L1,2,2*%
%TO.N,Net-(PS1-+VIN)*%
X172593000Y-65024000D03*
%TD*%
D17*
%TO.P,C4,1*%
%TO.N,GND*%
X169177000Y-78740000D03*
%TO.P,C4,2*%
%TO.N,Vcc*%
X167627000Y-78740000D03*
%TD*%
D12*
%TO.P,R2,1*%
%TO.N,Net-(J1-Pin_1)*%
X167366000Y-93090000D03*
%TO.P,R2,2*%
%TO.N,Dout*%
X167366000Y-91440000D03*
%TD*%
D18*
%TO.P,D2,1,K*%
%TO.N,GND*%
X151257000Y-110160000D03*
%TO.P,D2,2,A*%
%TO.N,Net-(D2-A)*%
X151257000Y-108585000D03*
%TD*%
D19*
%TO.P,C6,1*%
%TO.N,Net-(IC4-E)*%
X155956000Y-96365000D03*
%TO.P,C6,2*%
%TO.N,GND*%
X155956000Y-95405000D03*
%TD*%
D17*
%TO.P,C5,1*%
%TO.N,GND*%
X169177000Y-76962000D03*
%TO.P,C5,2*%
%TO.N,Vcc*%
X167627000Y-76962000D03*
%TD*%
D10*
%TO.P,IC4,1,B*%
%TO.N,Net-(IC4-B)*%
X157861000Y-99695000D03*
%TO.P,IC4,2,E*%
%TO.N,Net-(IC4-E)*%
X155951000Y-99695000D03*
%TO.P,IC4,3,C*%
%TO.N,GND*%
X156906000Y-101795000D03*
%TD*%
D17*
%TO.P,C3,1*%
%TO.N,GND*%
X169177000Y-80518000D03*
%TO.P,C3,2*%
%TO.N,Vcc*%
X167627000Y-80518000D03*
%TD*%
D20*
%TO.P,R10,1*%
%TO.N,Din*%
X144526000Y-95060000D03*
%TO.P,R10,2*%
%TO.N,Net-(IC6-B)*%
X144526000Y-96710000D03*
%TD*%
D18*
%TO.P,D3,1,K*%
%TO.N,GND*%
X137668000Y-108509000D03*
%TO.P,D3,2,A*%
%TO.N,Net-(D3-A)*%
X137668000Y-106934000D03*
%TD*%
D13*
%TO.P,J4,1,Pin_1*%
%TO.N,Vin*%
X166116000Y-57658000D03*
D14*
%TO.P,J4,2,Pin_2*%
%TO.N,GND*%
X167386000Y-57658000D03*
%TD*%
D15*
%TO.P,R11,1*%
%TO.N,Vcc*%
X136970000Y-97790000D03*
%TO.P,R11,2*%
%TO.N,Net-(IC7-B)*%
X138620000Y-97790000D03*
%TD*%
D17*
%TO.P,C2,1*%
%TO.N,GND*%
X169177000Y-82296000D03*
%TO.P,C2,2*%
%TO.N,Vcc*%
X167627000Y-82296000D03*
%TD*%
D21*
%TO.P,R8,1*%
%TO.N,Net-(D2-A)*%
X151257000Y-106811000D03*
%TO.P,R8,2*%
%TO.N,Net-(IC5-C)*%
X151257000Y-103886000D03*
%TD*%
D22*
%TO.P,R9,1*%
%TO.N,Net-(IC6-E)*%
X142620000Y-97790000D03*
%TO.P,R9,2*%
%TO.N,Net-(IC7-B)*%
X140970000Y-97790000D03*
%TD*%
%TO.P,R6,1*%
%TO.N,Net-(IC4-E)*%
X155956000Y-97790000D03*
%TO.P,R6,2*%
%TO.N,Net-(IC5-B)*%
X154306000Y-97790000D03*
%TD*%
D20*
%TO.P,R3,1*%
%TO.N,Net-(D1-A)*%
X164846000Y-79121000D03*
%TO.P,R3,2*%
%TO.N,Vcc*%
X164846000Y-80771000D03*
%TD*%
D23*
%TO.P,C1,1*%
%TO.N,Vin*%
X164465000Y-63041000D03*
%TO.P,C1,2*%
%TO.N,GND*%
X164465000Y-65991000D03*
%TD*%
D20*
%TO.P,R4,1*%
%TO.N,Vcc*%
X165608000Y-86932000D03*
%TO.P,R4,2*%
%TO.N,Din*%
X165608000Y-88582000D03*
%TD*%
D24*
%TO.P,TP1,1,1*%
%TO.N,Vcc*%
X173482000Y-76200000D03*
%TD*%
D25*
%TO.P,IC1,1,GND_1*%
%TO.N,GND*%
X176825000Y-80853000D03*
%TO.P,IC1,2,VCC*%
%TO.N,Vcc*%
X176825000Y-82853000D03*
%TO.P,IC1,3,DIO13/DOUT*%
%TO.N,Dout*%
X176825000Y-84853000D03*
%TO.P,IC1,4,DIN/DIO14/~{CONFIG}*%
%TO.N,Din*%
X176825000Y-86853000D03*
%TO.P,IC1,5,DIO12*%
%TO.N,unconnected-(IC1-DIO12-Pad5)*%
X176825000Y-88853000D03*
%TO.P,IC1,6,~{RESET}*%
%TO.N,unconnected-(IC1-~{RESET}-Pad6)*%
X176825000Y-90853000D03*
%TO.P,IC1,7,DIO10/RSSI/PWM0*%
%TO.N,unconnected-(IC1-DIO10{slash}RSSI{slash}PWM0-Pad7)*%
X176825000Y-92853000D03*
%TO.P,IC1,8,DIO11/PWM1*%
%TO.N,unconnected-(IC1-DIO11{slash}PWM1-Pad8)*%
X176825000Y-94853000D03*
%TO.P,IC1,9,[RESERVED]_1*%
%TO.N,unconnected-(IC1-[RESERVED]_1-Pad9)*%
X176825000Y-96853000D03*
%TO.P,IC1,10,DIO8/~{DTR_}/SLEEP__RQ*%
%TO.N,unconnected-(IC1-DIO8{slash}~{DTR_}{slash}SLEEP__RQ-Pad10)*%
X176825000Y-98853000D03*
%TO.P,IC1,11,GND_2*%
%TO.N,unconnected-(IC1-GND_2-Pad11)*%
X176825000Y-100853000D03*
%TO.P,IC1,12,DO19/SPI_~{ATTN}*%
%TO.N,unconnected-(IC1-DO19{slash}SPI_~{ATTN}-Pad12)*%
X176825000Y-102853000D03*
%TO.P,IC1,13,GND_3*%
%TO.N,unconnected-(IC1-GND_3-Pad13)*%
X176825000Y-104853000D03*
D26*
%TO.P,IC1,14,DO18/SPI_CLK*%
%TO.N,unconnected-(IC1-DO18{slash}SPI_CLK-Pad14)*%
X180785000Y-106933000D03*
%TO.P,IC1,15,DO17/SPI_~{SSEL}*%
%TO.N,unconnected-(IC1-DO17{slash}SPI_~{SSEL}-Pad15)*%
X182785000Y-106933000D03*
%TO.P,IC1,16,DO16/SPI_MOSI*%
%TO.N,unconnected-(IC1-DO16{slash}SPI_MOSI-Pad16)*%
X184785000Y-106933000D03*
%TO.P,IC1,17,DO15/SPI_MISO*%
%TO.N,unconnected-(IC1-DO15{slash}SPI_MISO-Pad17)*%
X186785000Y-106933000D03*
%TO.P,IC1,18,[RESERVED]_2*%
%TO.N,unconnected-(IC1-[RESERVED]_2-Pad18)*%
X188785000Y-106933000D03*
%TO.P,IC1,19,[RESERVED]_3*%
%TO.N,unconnected-(IC1-[RESERVED]_3-Pad19)*%
X190785000Y-106933000D03*
%TO.P,IC1,20,[RESERVED]_4*%
%TO.N,unconnected-(IC1-[RESERVED]_4-Pad20)*%
X192785000Y-106933000D03*
%TO.P,IC1,21,[RESERVED]_5*%
%TO.N,unconnected-(IC1-[RESERVED]_5-Pad21)*%
X194785000Y-106933000D03*
D25*
%TO.P,IC1,22,GND_4*%
%TO.N,unconnected-(IC1-GND_4-Pad22)*%
X198685000Y-104823000D03*
%TO.P,IC1,23,[RESERVED]_6*%
%TO.N,unconnected-(IC1-[RESERVED]_6-Pad23)*%
X198685000Y-102823000D03*
%TO.P,IC1,24,DIO4*%
%TO.N,unconnected-(IC1-DIO4-Pad24)*%
X198685000Y-100823000D03*
%TO.P,IC1,25,DIO7/~{CTS}*%
%TO.N,unconnected-(IC1-DIO7{slash}~{CTS}-Pad25)*%
X198685000Y-98823000D03*
%TO.P,IC1,26,DIO9/ON/~{SLEEP}*%
%TO.N,unconnected-(IC1-DIO9{slash}ON{slash}~{SLEEP}-Pad26)*%
X198685000Y-96823000D03*
%TO.P,IC1,27,VREF*%
%TO.N,unconnected-(IC1-VREF-Pad27)*%
X198685000Y-94823000D03*
%TO.P,IC1,28,DIO5/ASSOC*%
%TO.N,unconnected-(IC1-DIO5{slash}ASSOC-Pad28)*%
X198685000Y-92823000D03*
%TO.P,IC1,29,DIO6/~{RTS}*%
%TO.N,unconnected-(IC1-DIO6{slash}~{RTS}-Pad29)*%
X198685000Y-90823000D03*
%TO.P,IC1,30,DIO3/AD3*%
%TO.N,unconnected-(IC1-DIO3{slash}AD3-Pad30)*%
X198685000Y-88823000D03*
%TO.P,IC1,31,DIO2/AD2*%
%TO.N,unconnected-(IC1-DIO2{slash}AD2-Pad31)*%
X198685000Y-86823000D03*
%TO.P,IC1,32,DIO1/AD1*%
%TO.N,unconnected-(IC1-DIO1{slash}AD1-Pad32)*%
X198685000Y-84823000D03*
%TO.P,IC1,33,DIO0/AD0*%
%TO.N,unconnected-(IC1-DIO0{slash}AD0-Pad33)*%
X198685000Y-82823000D03*
%TO.P,IC1,34,[RESERVED]_7*%
%TO.N,unconnected-(IC1-[RESERVED]_7-Pad34)*%
X198685000Y-80823000D03*
%TO.P,IC1,35,GND_5*%
%TO.N,unconnected-(IC1-GND_5-Pad35)*%
X198685000Y-78823000D03*
%TO.P,IC1,36,RF_PAD*%
%TO.N,unconnected-(IC1-RF_PAD-Pad36)*%
X198685000Y-76823000D03*
%TO.P,IC1,37,[RESERVED]_8*%
%TO.N,unconnected-(IC1-[RESERVED]_8-Pad37)*%
X198685000Y-74823000D03*
D27*
%TO.P,IC1,38,GND_6*%
%TO.N,GND*%
X181990000Y-83058000D03*
X181990000Y-83818000D03*
X181990000Y-84748000D03*
X182880000Y-83058000D03*
X182880000Y-83818000D03*
D28*
X182880000Y-83818000D03*
D27*
X182880000Y-84748000D03*
X183740000Y-83058000D03*
X183740000Y-83818000D03*
X183740000Y-84748000D03*
%TD*%
D10*
%TO.P,IC5,1,B*%
%TO.N,Net-(IC5-B)*%
X152146000Y-99695000D03*
%TO.P,IC5,2,E*%
%TO.N,Vcc*%
X150236000Y-99695000D03*
%TO.P,IC5,3,C*%
%TO.N,Net-(IC5-C)*%
X151191000Y-101795000D03*
%TD*%
D29*
%TO.P,IC3,*%
%TO.N,*%
X159145000Y-84667000D03*
X159145000Y-82667000D03*
X159145000Y-80667000D03*
X159145000Y-78667000D03*
X159145000Y-76667000D03*
X159145000Y-74667000D03*
X159145000Y-72667000D03*
X159145000Y-70667000D03*
X159145000Y-68667000D03*
X159145000Y-66667000D03*
X159145000Y-64667000D03*
X159145000Y-62667000D03*
X159145000Y-60667000D03*
D30*
X154875000Y-58357000D03*
X152875000Y-58357000D03*
X150875000Y-58357000D03*
X148875000Y-58357000D03*
X146875000Y-58357000D03*
X144875000Y-58357000D03*
X142875000Y-58357000D03*
X140875000Y-58357000D03*
D29*
X136705000Y-90697000D03*
X136705000Y-88697000D03*
X136705000Y-86697000D03*
X136705000Y-84697000D03*
X136705000Y-82697000D03*
X136705000Y-80697000D03*
X136705000Y-78697000D03*
X136705000Y-76697000D03*
X136705000Y-74697000D03*
X136705000Y-72697000D03*
X136705000Y-70697000D03*
X136705000Y-68697000D03*
X136705000Y-66697000D03*
X136705000Y-64697000D03*
X136705000Y-62697000D03*
X136705000Y-60697000D03*
D31*
%TO.P,IC3,1,GND_1*%
%TO.N,GND*%
X160995000Y-84667000D03*
%TO.P,IC3,2,VCC*%
%TO.N,Vcc*%
X160995000Y-82667000D03*
%TO.P,IC3,3,DIO13/DOUT*%
%TO.N,Dout*%
X160995000Y-80667000D03*
%TO.P,IC3,4,DIN/DIO14/~{CONFIG}*%
%TO.N,Din*%
X160995000Y-78667000D03*
%TO.P,IC3,5,DIO12*%
%TO.N,unconnected-(IC3-DIO12-Pad5)*%
X160995000Y-76667000D03*
%TO.P,IC3,6,~{RESET}*%
%TO.N,unconnected-(IC3-~{RESET}-Pad6)*%
X160995000Y-74667000D03*
%TO.P,IC3,7,DIO10/RSSI/PWM0*%
%TO.N,unconnected-(IC3-DIO10{slash}RSSI{slash}PWM0-Pad7)*%
X160995000Y-72667000D03*
%TO.P,IC3,8,DIO11/PWM1*%
%TO.N,unconnected-(IC3-DIO11{slash}PWM1-Pad8)*%
X160995000Y-70667000D03*
%TO.P,IC3,9,[RESERVED]_1*%
%TO.N,unconnected-(IC3-[RESERVED]_1-Pad9)*%
X160995000Y-68667000D03*
%TO.P,IC3,10,DIO8/~{DTR_}/SLEEP__RQ*%
%TO.N,unconnected-(IC3-DIO8{slash}~{DTR_}{slash}SLEEP__RQ-Pad10)*%
X160995000Y-66667000D03*
%TO.P,IC3,11,GND_2*%
%TO.N,unconnected-(IC3-GND_2-Pad11)*%
X160995000Y-64667000D03*
%TO.P,IC3,12,DO19/SPI_~{ATTN}*%
%TO.N,unconnected-(IC3-DO19{slash}SPI_~{ATTN}-Pad12)*%
X160995000Y-62667000D03*
%TO.P,IC3,13,GND_3*%
%TO.N,unconnected-(IC3-GND_3-Pad13)*%
X160995000Y-60667000D03*
D32*
%TO.P,IC3,14,DO18/SPI_CLK*%
%TO.N,unconnected-(IC3-DO18{slash}SPI_CLK-Pad14)*%
X154875000Y-56507000D03*
%TO.P,IC3,15,DO17/SPI_~{SSEL}*%
%TO.N,unconnected-(IC3-DO17{slash}SPI_~{SSEL}-Pad15)*%
X152875000Y-56507000D03*
%TO.P,IC3,16,DO16/SPI_MOSI*%
%TO.N,unconnected-(IC3-DO16{slash}SPI_MOSI-Pad16)*%
X150875000Y-56507000D03*
%TO.P,IC3,17,DO15/SPI_MISO*%
%TO.N,unconnected-(IC3-DO15{slash}SPI_MISO-Pad17)*%
X148875000Y-56507000D03*
%TO.P,IC3,18,[RESERVED]_2*%
%TO.N,unconnected-(IC3-[RESERVED]_2-Pad18)*%
X146875000Y-56507000D03*
%TO.P,IC3,19,[RESERVED]_3*%
%TO.N,unconnected-(IC3-[RESERVED]_3-Pad19)*%
X144875000Y-56507000D03*
%TO.P,IC3,20,[RESERVED]_4*%
%TO.N,unconnected-(IC3-[RESERVED]_4-Pad20)*%
X142875000Y-56507000D03*
%TO.P,IC3,21,[RESERVED]_5*%
%TO.N,unconnected-(IC3-[RESERVED]_5-Pad21)*%
X140875000Y-56507000D03*
D31*
%TO.P,IC3,22,GND_4*%
%TO.N,unconnected-(IC3-GND_4-Pad22)*%
X134855000Y-60697000D03*
%TO.P,IC3,23,[RESERVED]_6*%
%TO.N,unconnected-(IC3-[RESERVED]_6-Pad23)*%
X134855000Y-62697000D03*
%TO.P,IC3,24,DIO4*%
%TO.N,unconnected-(IC3-DIO4-Pad24)*%
X134855000Y-64697000D03*
%TO.P,IC3,25,DIO7/~{CTS}*%
%TO.N,unconnected-(IC3-DIO7{slash}~{CTS}-Pad25)*%
X134855000Y-66697000D03*
%TO.P,IC3,26,DIO9/ON/~{SLEEP}*%
%TO.N,unconnected-(IC3-DIO9{slash}ON{slash}~{SLEEP}-Pad26)*%
X134855000Y-68697000D03*
%TO.P,IC3,27,VREF*%
%TO.N,unconnected-(IC3-VREF-Pad27)*%
X134855000Y-70697000D03*
%TO.P,IC3,28,DIO5/ASSOC*%
%TO.N,unconnected-(IC3-DIO5{slash}ASSOC-Pad28)*%
X134855000Y-72697000D03*
%TO.P,IC3,29,DIO6/~{RTS}*%
%TO.N,unconnected-(IC3-DIO6{slash}~{RTS}-Pad29)*%
X134855000Y-74697000D03*
%TO.P,IC3,30,DIO3/AD3*%
%TO.N,unconnected-(IC3-DIO3{slash}AD3-Pad30)*%
X134855000Y-76697000D03*
%TO.P,IC3,31,DIO2/AD2*%
%TO.N,unconnected-(IC3-DIO2{slash}AD2-Pad31)*%
X134855000Y-78697000D03*
%TO.P,IC3,32,DIO1/AD1*%
%TO.N,unconnected-(IC3-DIO1{slash}AD1-Pad32)*%
X134855000Y-80697000D03*
%TO.P,IC3,33,DIO0/AD0*%
%TO.N,unconnected-(IC3-DIO0{slash}AD0-Pad33)*%
X134855000Y-82697000D03*
%TO.P,IC3,34,[RESERVED]_7*%
%TO.N,unconnected-(IC3-[RESERVED]_7-Pad34)*%
X134855000Y-84697000D03*
%TO.P,IC3,35,GND_5*%
%TO.N,unconnected-(IC3-GND_5-Pad35)*%
X134855000Y-86697000D03*
%TO.P,IC3,36,RF_PAD*%
%TO.N,unconnected-(IC3-RF_PAD-Pad36)*%
X134855000Y-88697000D03*
%TO.P,IC3,37,[RESERVED]_8*%
%TO.N,unconnected-(IC3-[RESERVED]_8-Pad37)*%
X134855000Y-90697000D03*
D27*
%TO.P,IC3,38,GND_6*%
%TO.N,GND*%
X153670000Y-82462000D03*
X153670000Y-81702000D03*
X153670000Y-80772000D03*
X152780000Y-82462000D03*
X152780000Y-81702000D03*
D33*
X152780000Y-81702000D03*
D27*
X152780000Y-80772000D03*
X151920000Y-82462000D03*
X151920000Y-81702000D03*
X151920000Y-80772000D03*
%TD*%
D34*
%TO.P,PS1,1,+VIN*%
%TO.N,Net-(PS1-+VIN)*%
X177419000Y-63373000D03*
%TO.P,PS1,2,GND*%
%TO.N,GND*%
X177419000Y-65913000D03*
%TO.P,PS1,3,+VOUT*%
%TO.N,Vcc*%
X177419000Y-68453000D03*
%TD*%
D12*
%TO.P,R1,1*%
%TO.N,Net-(J1-Pin_2)*%
X168910000Y-93090000D03*
%TO.P,R1,2*%
%TO.N,Din*%
X168910000Y-91440000D03*
%TD*%
D20*
%TO.P,R5,1*%
%TO.N,Dout*%
X157861000Y-95060000D03*
%TO.P,R5,2*%
%TO.N,Net-(IC4-B)*%
X157861000Y-96710000D03*
%TD*%
D19*
%TO.P,C7,1*%
%TO.N,Net-(IC6-E)*%
X142621000Y-96337000D03*
%TO.P,C7,2*%
%TO.N,GND*%
X142621000Y-95377000D03*
%TD*%
D35*
%TO.N,Vcc*%
X163068000Y-86106000D03*
X151765000Y-95250000D03*
D36*
X138049000Y-95250000D03*
%TO.N,Dout*%
X160909000Y-87503000D03*
X157861000Y-93218000D03*
%TO.N,Din*%
X163195000Y-88646000D03*
X170688000Y-89916000D03*
%TD*%
D37*
%TO.N,Vin*%
X166116000Y-61390000D02*
X166116000Y-57658000D01*
X165950000Y-61556000D02*
X164465000Y-63041000D01*
X166126000Y-61380000D02*
X165950000Y-61556000D01*
X165950000Y-61556000D02*
X166116000Y-61390000D01*
D38*
%TO.N,Net-(J1-Pin_2)*%
X168656000Y-93344000D02*
X168656000Y-95758000D01*
X168910000Y-93090000D02*
X168656000Y-93344000D01*
%TO.N,Net-(J1-Pin_1)*%
X167386000Y-93110000D02*
X167386000Y-95758000D01*
X167366000Y-93090000D02*
X167386000Y-93110000D01*
D37*
%TO.N,Vin*%
X164465000Y-63041000D02*
X166448000Y-65024000D01*
X166448000Y-65024000D02*
X169893000Y-65024000D01*
%TO.N,Vcc*%
X150369000Y-97790000D02*
X150369000Y-99562000D01*
X150876000Y-97283000D02*
X150369000Y-97790000D01*
X167627000Y-75184000D02*
X172466000Y-75184000D01*
X165862000Y-84963000D02*
X165862000Y-86678000D01*
X167627000Y-75184000D02*
X167627000Y-73038000D01*
X166116000Y-82667000D02*
X165862000Y-82667000D01*
X136970000Y-97790000D02*
X136970000Y-99465000D01*
X150876000Y-95758000D02*
X150876000Y-97283000D01*
X151765000Y-95250000D02*
X151384000Y-95250000D01*
X151384000Y-95250000D02*
X150876000Y-95758000D01*
X165862000Y-86678000D02*
X165608000Y-86932000D01*
X166116000Y-82041000D02*
X164846000Y-80771000D01*
X168552000Y-83221000D02*
X176457000Y-83221000D01*
X150369000Y-99562000D02*
X150236000Y-99695000D01*
X167627000Y-73038000D02*
X170307000Y-70358000D01*
X170307000Y-70358000D02*
X175514000Y-70358000D01*
X167256000Y-82667000D02*
X166116000Y-82667000D01*
X164211000Y-84963000D02*
X163068000Y-86106000D01*
X167627000Y-82296000D02*
X167256000Y-82667000D01*
X175514000Y-70358000D02*
X177419000Y-68453000D01*
X165862000Y-84963000D02*
X164211000Y-84963000D01*
X167627000Y-82296000D02*
X167627000Y-76962000D01*
X136970000Y-99465000D02*
X136774000Y-99661000D01*
X167627000Y-82296000D02*
X168552000Y-83221000D01*
X166116000Y-82667000D02*
X166116000Y-82041000D01*
X165862000Y-82667000D02*
X160695000Y-82667000D01*
X136970000Y-96329000D02*
X136970000Y-97790000D01*
X138049000Y-95250000D02*
X136970000Y-96329000D01*
X165862000Y-82667000D02*
X165862000Y-84963000D01*
X167627000Y-76962000D02*
X167627000Y-75184000D01*
%TO.N,Net-(D1-A)*%
X164846000Y-79121000D02*
X164846000Y-74298000D01*
D38*
%TO.N,Dout*%
X167366000Y-89288000D02*
X171801000Y-84853000D01*
X160001371Y-81467000D02*
X160695000Y-80773371D01*
X171801000Y-84853000D02*
X176825000Y-84853000D01*
X160274000Y-88646000D02*
X160909000Y-88011000D01*
X156718000Y-83058000D02*
X158309000Y-81467000D01*
X167366000Y-91440000D02*
X167366000Y-89288000D01*
X160274000Y-88646000D02*
X156718000Y-85090000D01*
X158309000Y-81467000D02*
X160001371Y-81467000D01*
X157861000Y-93218000D02*
X157861000Y-95060000D01*
X160909000Y-88011000D02*
X160909000Y-87503000D01*
X163068000Y-91440000D02*
X160274000Y-88646000D01*
X156718000Y-85090000D02*
X156718000Y-83058000D01*
X167366000Y-91440000D02*
X163068000Y-91440000D01*
%TO.N,Din*%
X171338000Y-86853000D02*
X168910000Y-89281000D01*
X168185000Y-92165000D02*
X163031000Y-92165000D01*
X145986000Y-95060000D02*
X155956000Y-85090000D01*
X163031000Y-92165000D02*
X155956000Y-85090000D01*
X163576000Y-88265000D02*
X165291000Y-88265000D01*
X169164000Y-91440000D02*
X170688000Y-89916000D01*
X155956000Y-85090000D02*
X155956000Y-80772000D01*
X168910000Y-91440000D02*
X168185000Y-92165000D01*
X156972000Y-79756000D02*
X159712371Y-79756000D01*
X155956000Y-80772000D02*
X156972000Y-79756000D01*
X159712371Y-79756000D02*
X160695000Y-78773371D01*
X165291000Y-88265000D02*
X165608000Y-88582000D01*
X176825000Y-86853000D02*
X171338000Y-86853000D01*
X163195000Y-88646000D02*
X163576000Y-88265000D01*
X168910000Y-89281000D02*
X168910000Y-91440000D01*
X144526000Y-95060000D02*
X145986000Y-95060000D01*
D37*
%TO.N,Net-(PS1-+VIN)*%
X172593000Y-65024000D02*
X175768000Y-65024000D01*
X175768000Y-65024000D02*
X177419000Y-63373000D01*
D38*
%TO.N,Net-(J1-Pin_2)*%
X168636000Y-93364000D02*
X168910000Y-93090000D01*
%TO.N,Net-(IC4-E)*%
X155951000Y-99695000D02*
X155951000Y-97795000D01*
X155956000Y-97790000D02*
X155956000Y-96365000D01*
%TO.N,Net-(IC6-E)*%
X142616000Y-99568000D02*
X142616000Y-96342000D01*
%TO.N,Net-(D2-A)*%
X151257000Y-106811000D02*
X151257000Y-108585000D01*
%TO.N,Net-(D3-A)*%
X137668000Y-105282000D02*
X137668000Y-106934000D01*
%TO.N,Net-(IC4-B)*%
X157861000Y-96710000D02*
X157861000Y-99695000D01*
%TO.N,Net-(IC5-B)*%
X152019000Y-97790000D02*
X152019000Y-99568000D01*
X154306000Y-97790000D02*
X152019000Y-97790000D01*
%TO.N,Net-(IC5-C)*%
X151191000Y-101795000D02*
X151191000Y-103820000D01*
%TO.N,Net-(IC6-B)*%
X144526000Y-96710000D02*
X144526000Y-99568000D01*
%TO.N,Net-(IC7-B)*%
X138620000Y-97790000D02*
X138620000Y-99597000D01*
X138620000Y-97790000D02*
X140970000Y-97790000D01*
%TO.N,Net-(IC7-C)*%
X137729000Y-101761000D02*
X137729000Y-103571000D01*
%TD*%
%TA.AperFunction,Conductor*%
%TO.N,GND*%
G36*
X167664051Y-83394419D02*
G01*
X167976269Y-83706637D01*
X167988049Y-83720268D01*
X168002389Y-83739530D01*
X168002391Y-83739532D01*
X168042409Y-83773110D01*
X168046399Y-83776766D01*
X168052227Y-83782594D01*
X168077947Y-83802931D01*
X168136788Y-83852304D01*
X168142818Y-83856270D01*
X168142785Y-83856319D01*
X168149143Y-83860369D01*
X168149175Y-83860319D01*
X168155320Y-83864109D01*
X168155323Y-83864111D01*
X168224936Y-83896572D01*
X168293567Y-83931040D01*
X168293572Y-83931041D01*
X168300361Y-83933513D01*
X168300340Y-83933570D01*
X168307455Y-83936043D01*
X168307475Y-83935986D01*
X168314330Y-83938258D01*
X168385800Y-83953014D01*
X168389558Y-83953790D01*
X168464279Y-83971500D01*
X168464289Y-83971500D01*
X168471452Y-83972338D01*
X168471444Y-83972397D01*
X168478945Y-83973164D01*
X168478951Y-83973105D01*
X168486140Y-83973734D01*
X168486144Y-83973733D01*
X168486145Y-83973734D01*
X168562918Y-83971500D01*
X174770969Y-83971500D01*
X174838008Y-83991185D01*
X174883763Y-84043989D01*
X174893707Y-84113147D01*
X174882055Y-84150599D01*
X174878087Y-84158599D01*
X174830664Y-84209910D01*
X174767001Y-84227500D01*
X171883738Y-84227500D01*
X171868121Y-84225776D01*
X171868094Y-84226062D01*
X171860332Y-84225327D01*
X171791204Y-84227500D01*
X171761650Y-84227500D01*
X171760929Y-84227590D01*
X171754757Y-84228369D01*
X171748945Y-84228826D01*
X171702373Y-84230290D01*
X171702372Y-84230290D01*
X171683129Y-84235881D01*
X171664079Y-84239825D01*
X171644211Y-84242334D01*
X171644209Y-84242335D01*
X171600884Y-84259488D01*
X171595357Y-84261380D01*
X171550610Y-84274381D01*
X171550609Y-84274382D01*
X171533367Y-84284579D01*
X171515899Y-84293137D01*
X171497269Y-84300513D01*
X171497267Y-84300514D01*
X171459576Y-84327898D01*
X171454694Y-84331105D01*
X171414579Y-84354830D01*
X171400408Y-84369000D01*
X171385623Y-84381628D01*
X171370633Y-84392520D01*
X171369412Y-84393407D01*
X171339709Y-84429310D01*
X171335777Y-84433631D01*
X166982208Y-88787199D01*
X166969951Y-88797020D01*
X166970134Y-88797241D01*
X166964123Y-88802213D01*
X166916772Y-88852636D01*
X166895889Y-88873519D01*
X166895877Y-88873532D01*
X166891621Y-88879017D01*
X166887837Y-88883447D01*
X166855937Y-88917418D01*
X166855936Y-88917420D01*
X166846284Y-88934976D01*
X166835610Y-88951226D01*
X166823329Y-88967061D01*
X166823324Y-88967068D01*
X166804812Y-89009845D01*
X166802235Y-89015103D01*
X166799928Y-89019297D01*
X166750372Y-89068551D01*
X166729023Y-89073126D01*
X166748278Y-89101352D01*
X166750410Y-89170374D01*
X166740501Y-89208971D01*
X166740499Y-89208984D01*
X166740499Y-89229020D01*
X166738973Y-89248411D01*
X166735840Y-89268194D01*
X166735840Y-89268195D01*
X166740225Y-89314583D01*
X166740500Y-89320421D01*
X166740500Y-90563397D01*
X166720815Y-90630436D01*
X166680652Y-90669513D01*
X166655813Y-90684529D01*
X166655811Y-90684530D01*
X166562161Y-90778181D01*
X166500838Y-90811666D01*
X166474480Y-90814500D01*
X163378452Y-90814500D01*
X163311413Y-90794815D01*
X163290771Y-90778181D01*
X162249131Y-89736541D01*
X161246268Y-88733677D01*
X161212785Y-88672357D01*
X161217769Y-88602665D01*
X161246268Y-88558320D01*
X161292786Y-88511802D01*
X161305048Y-88501980D01*
X161304865Y-88501759D01*
X161310867Y-88496792D01*
X161310877Y-88496786D01*
X161358241Y-88446348D01*
X161379120Y-88425470D01*
X161383373Y-88419986D01*
X161387150Y-88415563D01*
X161419062Y-88381582D01*
X161428714Y-88364023D01*
X161439389Y-88347772D01*
X161451674Y-88331936D01*
X161470186Y-88289152D01*
X161472742Y-88283935D01*
X161495197Y-88243092D01*
X161500179Y-88223689D01*
X161506477Y-88205290D01*
X161514438Y-88186895D01*
X161514438Y-88186891D01*
X161515144Y-88185261D01*
X161536793Y-88151540D01*
X161641533Y-88035216D01*
X161736179Y-87871284D01*
X161794674Y-87691256D01*
X161814460Y-87503000D01*
X161794674Y-87314744D01*
X161736179Y-87134716D01*
X161641533Y-86970784D01*
X161514871Y-86830112D01*
X161496663Y-86816883D01*
X161361734Y-86718851D01*
X161361729Y-86718848D01*
X161188807Y-86641857D01*
X161188802Y-86641855D01*
X161043000Y-86610865D01*
X161003646Y-86602500D01*
X160814354Y-86602500D01*
X160781897Y-86609398D01*
X160629197Y-86641855D01*
X160629192Y-86641857D01*
X160456270Y-86718848D01*
X160456265Y-86718851D01*
X160303129Y-86830111D01*
X160176466Y-86970785D01*
X160081821Y-87134715D01*
X160081818Y-87134722D01*
X160037791Y-87270225D01*
X159998353Y-87327901D01*
X159933995Y-87355099D01*
X159865148Y-87343184D01*
X159832179Y-87319588D01*
X158352872Y-85840281D01*
X158319387Y-85778958D01*
X158324371Y-85709266D01*
X158366243Y-85653333D01*
X158431707Y-85628916D01*
X158465511Y-85631137D01*
X158520801Y-85642500D01*
X158520802Y-85642500D01*
X159719474Y-85642500D01*
X159867380Y-85627459D01*
X160052429Y-85569400D01*
X160122287Y-85568112D01*
X160132884Y-85571532D01*
X160237616Y-85610595D01*
X160237627Y-85610598D01*
X160297155Y-85616999D01*
X160297172Y-85617000D01*
X160745000Y-85617000D01*
X160745000Y-84962850D01*
X160805250Y-84951588D01*
X160900610Y-84892543D01*
X160968201Y-84803038D01*
X160998895Y-84695160D01*
X160988546Y-84583479D01*
X160938552Y-84483078D01*
X160866633Y-84417514D01*
X160869000Y-84417000D01*
X162145000Y-84417000D01*
X162145000Y-84169172D01*
X162144999Y-84169155D01*
X162138598Y-84109627D01*
X162138596Y-84109620D01*
X162088354Y-83974913D01*
X162088350Y-83974906D01*
X162002190Y-83859812D01*
X162002187Y-83859809D01*
X161879989Y-83768331D01*
X161881632Y-83766135D01*
X161842211Y-83726712D01*
X161827360Y-83658438D01*
X161851778Y-83592974D01*
X161881236Y-83567455D01*
X161880231Y-83566112D01*
X161957284Y-83508429D01*
X162002546Y-83474546D01*
X162008051Y-83467191D01*
X162063985Y-83425319D01*
X162107320Y-83417500D01*
X164987500Y-83417500D01*
X165054539Y-83437185D01*
X165100294Y-83489989D01*
X165111500Y-83541500D01*
X165111500Y-84088500D01*
X165091815Y-84155539D01*
X165039011Y-84201294D01*
X164987500Y-84212500D01*
X164274705Y-84212500D01*
X164256735Y-84211191D01*
X164232972Y-84207710D01*
X164187890Y-84211655D01*
X164180933Y-84212264D01*
X164175532Y-84212500D01*
X164167287Y-84212500D01*
X164141222Y-84215546D01*
X164134705Y-84216308D01*
X164129403Y-84216771D01*
X164058201Y-84223001D01*
X164051134Y-84224461D01*
X164051122Y-84224404D01*
X164043753Y-84226038D01*
X164043767Y-84226095D01*
X164036739Y-84227760D01*
X163981536Y-84247852D01*
X163964563Y-84254030D01*
X163891666Y-84278186D01*
X163891664Y-84278186D01*
X163891661Y-84278188D01*
X163885122Y-84281237D01*
X163885097Y-84281185D01*
X163878308Y-84284471D01*
X163878334Y-84284522D01*
X163871884Y-84287761D01*
X163807716Y-84329964D01*
X163742347Y-84370285D01*
X163736677Y-84374769D01*
X163736641Y-84374723D01*
X163730798Y-84379484D01*
X163730835Y-84379528D01*
X163725310Y-84384164D01*
X163725304Y-84384169D01*
X163725304Y-84384170D01*
X163703278Y-84407516D01*
X163672614Y-84440017D01*
X163037225Y-85075405D01*
X162975902Y-85108890D01*
X162961700Y-85111127D01*
X162871870Y-85119975D01*
X162683266Y-85177188D01*
X162509467Y-85270086D01*
X162509460Y-85270090D01*
X162357115Y-85395117D01*
X162311905Y-85450205D01*
X162254159Y-85489539D01*
X162184314Y-85491408D01*
X162124546Y-85455220D01*
X162093831Y-85392464D01*
X162099871Y-85328205D01*
X162138597Y-85224376D01*
X162138598Y-85224372D01*
X162144999Y-85164844D01*
X162145000Y-85164827D01*
X162145000Y-84917000D01*
X161245000Y-84917000D01*
X161244999Y-85616999D01*
X161245000Y-85617000D01*
X161692828Y-85617000D01*
X161692844Y-85616999D01*
X161752372Y-85610598D01*
X161752379Y-85610596D01*
X161887086Y-85560354D01*
X161887089Y-85560352D01*
X162004011Y-85472824D01*
X162069475Y-85448406D01*
X162137748Y-85463257D01*
X162187154Y-85512662D01*
X162202007Y-85580934D01*
X162187682Y-85630543D01*
X162143341Y-85713500D01*
X162139186Y-85721273D01*
X162121687Y-85778958D01*
X162081975Y-85909870D01*
X162062659Y-86106000D01*
X162081975Y-86302129D01*
X162139188Y-86490733D01*
X162232086Y-86664532D01*
X162232090Y-86664539D01*
X162357116Y-86816883D01*
X162509460Y-86941909D01*
X162509467Y-86941913D01*
X162683266Y-87034811D01*
X162683269Y-87034811D01*
X162683273Y-87034814D01*
X162871868Y-87092024D01*
X163068000Y-87111341D01*
X163264132Y-87092024D01*
X163452727Y-87034814D01*
X163626538Y-86941910D01*
X163778883Y-86816883D01*
X163903910Y-86664538D01*
X163996814Y-86490727D01*
X164054024Y-86302132D01*
X164062871Y-86212299D01*
X164089031Y-86147513D01*
X164098584Y-86136782D01*
X164485547Y-85749819D01*
X164546871Y-85716334D01*
X164573229Y-85713500D01*
X164987500Y-85713500D01*
X165054539Y-85733185D01*
X165100294Y-85785989D01*
X165111500Y-85837500D01*
X165111500Y-85977698D01*
X165091815Y-86044737D01*
X165048420Y-86082338D01*
X165049813Y-86084642D01*
X165043395Y-86088521D01*
X165043394Y-86088522D01*
X165029676Y-86096815D01*
X164897811Y-86176530D01*
X164777530Y-86296811D01*
X164689522Y-86442393D01*
X164638913Y-86604807D01*
X164635547Y-86641855D01*
X164632500Y-86675384D01*
X164632500Y-87188616D01*
X164633069Y-87194872D01*
X164638913Y-87259192D01*
X164638913Y-87259194D01*
X164638914Y-87259196D01*
X164668010Y-87352571D01*
X164689523Y-87421608D01*
X164707503Y-87451351D01*
X164725339Y-87518906D01*
X164703821Y-87585379D01*
X164649780Y-87629667D01*
X164601386Y-87639500D01*
X163658737Y-87639500D01*
X163643120Y-87637776D01*
X163643093Y-87638062D01*
X163635331Y-87637327D01*
X163566203Y-87639500D01*
X163536650Y-87639500D01*
X163535929Y-87639590D01*
X163529757Y-87640369D01*
X163523945Y-87640826D01*
X163477372Y-87642290D01*
X163477369Y-87642291D01*
X163458126Y-87647881D01*
X163439083Y-87651825D01*
X163419204Y-87654336D01*
X163419203Y-87654337D01*
X163375878Y-87671490D01*
X163370352Y-87673382D01*
X163325608Y-87686383D01*
X163325604Y-87686385D01*
X163308365Y-87696580D01*
X163290898Y-87705137D01*
X163272270Y-87712512D01*
X163259459Y-87721820D01*
X163193652Y-87745298D01*
X163186576Y-87745500D01*
X163100354Y-87745500D01*
X163095645Y-87746501D01*
X162915197Y-87784855D01*
X162915192Y-87784857D01*
X162742270Y-87861848D01*
X162742265Y-87861851D01*
X162589129Y-87973111D01*
X162462466Y-88113785D01*
X162367821Y-88277715D01*
X162367818Y-88277722D01*
X162311441Y-88451235D01*
X162309326Y-88457744D01*
X162289540Y-88646000D01*
X162309326Y-88834256D01*
X162309327Y-88834259D01*
X162367818Y-89014277D01*
X162367821Y-89014284D01*
X162462467Y-89178216D01*
X162537183Y-89261196D01*
X162589129Y-89318888D01*
X162742265Y-89430148D01*
X162742270Y-89430151D01*
X162915192Y-89507142D01*
X162915197Y-89507144D01*
X163100354Y-89546500D01*
X163100355Y-89546500D01*
X163289644Y-89546500D01*
X163289646Y-89546500D01*
X163474803Y-89507144D01*
X163647730Y-89430151D01*
X163800871Y-89318888D01*
X163927533Y-89178216D01*
X164022179Y-89014284D01*
X164034558Y-88976183D01*
X164073996Y-88918507D01*
X164138354Y-88891308D01*
X164152490Y-88890500D01*
X164541847Y-88890500D01*
X164608886Y-88910185D01*
X164654641Y-88962989D01*
X164660228Y-88977599D01*
X164689522Y-89071606D01*
X164772568Y-89208981D01*
X164777530Y-89217188D01*
X164897811Y-89337469D01*
X164897813Y-89337470D01*
X164897815Y-89337472D01*
X165043394Y-89425478D01*
X165205804Y-89476086D01*
X165276384Y-89482500D01*
X165276387Y-89482500D01*
X165939613Y-89482500D01*
X165939616Y-89482500D01*
X166010196Y-89476086D01*
X166172606Y-89425478D01*
X166318185Y-89337472D01*
X166438472Y-89217185D01*
X166524190Y-89075389D01*
X166575715Y-89028204D01*
X166591991Y-89025405D01*
X166574965Y-89002514D01*
X166570194Y-88932807D01*
X166572892Y-88922655D01*
X166577086Y-88909196D01*
X166583500Y-88838616D01*
X166583500Y-88325384D01*
X166577086Y-88254804D01*
X166526478Y-88092394D01*
X166438472Y-87946815D01*
X166438470Y-87946813D01*
X166438469Y-87946811D01*
X166336339Y-87844681D01*
X166302854Y-87783358D01*
X166307838Y-87713666D01*
X166336339Y-87669319D01*
X166438468Y-87567189D01*
X166438469Y-87567188D01*
X166438472Y-87567185D01*
X166526478Y-87421606D01*
X166577086Y-87259196D01*
X166583500Y-87188616D01*
X166583500Y-86907787D01*
X166586061Y-86882714D01*
X166594784Y-86840467D01*
X166612500Y-86765720D01*
X166613339Y-86758548D01*
X166613397Y-86758554D01*
X166614164Y-86751056D01*
X166614104Y-86751051D01*
X166614733Y-86743860D01*
X166614005Y-86718851D01*
X166612500Y-86667102D01*
X166612500Y-84986639D01*
X166612605Y-84983034D01*
X166616331Y-84919065D01*
X166614384Y-84908021D01*
X166612500Y-84886490D01*
X166612500Y-83541500D01*
X166632185Y-83474461D01*
X166684989Y-83428706D01*
X166736500Y-83417500D01*
X167192295Y-83417500D01*
X167210265Y-83418809D01*
X167234023Y-83422289D01*
X167286068Y-83417735D01*
X167291470Y-83417500D01*
X167299704Y-83417500D01*
X167299709Y-83417500D01*
X167311327Y-83416141D01*
X167332276Y-83413693D01*
X167345028Y-83412577D01*
X167408797Y-83406999D01*
X167408805Y-83406996D01*
X167415866Y-83405539D01*
X167415878Y-83405598D01*
X167423243Y-83403965D01*
X167423229Y-83403906D01*
X167430248Y-83402241D01*
X167430255Y-83402241D01*
X167480800Y-83383843D01*
X167502421Y-83375975D01*
X167508794Y-83373862D01*
X167537367Y-83364394D01*
X167607190Y-83361991D01*
X167664051Y-83394419D01*
G37*
%TD.AperFunction*%
%TA.AperFunction,Conductor*%
G36*
X201872539Y-53106185D02*
G01*
X201918294Y-53158989D01*
X201929500Y-53210500D01*
X201929500Y-111508500D01*
X201909815Y-111575539D01*
X201857011Y-111621294D01*
X201805500Y-111632500D01*
X131950500Y-111632500D01*
X131883461Y-111612815D01*
X131837706Y-111560011D01*
X131826500Y-111508500D01*
X131826500Y-110410000D01*
X150282001Y-110410000D01*
X150282001Y-110426652D01*
X150292056Y-110525083D01*
X150344906Y-110684572D01*
X150344908Y-110684577D01*
X150433114Y-110827580D01*
X150551919Y-110946385D01*
X150694922Y-111034591D01*
X150694927Y-111034593D01*
X150854416Y-111087442D01*
X150952855Y-111097499D01*
X151006999Y-111097498D01*
X151007000Y-111097498D01*
X151007000Y-110410000D01*
X151507000Y-110410000D01*
X151507000Y-111097499D01*
X151561136Y-111097499D01*
X151561152Y-111097498D01*
X151659583Y-111087443D01*
X151819072Y-111034593D01*
X151819077Y-111034591D01*
X151962080Y-110946385D01*
X152080885Y-110827580D01*
X152169091Y-110684577D01*
X152169093Y-110684572D01*
X152221942Y-110525083D01*
X152231999Y-110426650D01*
X152232000Y-110426637D01*
X152232000Y-110410000D01*
X151507000Y-110410000D01*
X151007000Y-110410000D01*
X150282001Y-110410000D01*
X131826500Y-110410000D01*
X131826500Y-108759000D01*
X136693001Y-108759000D01*
X136693001Y-108775652D01*
X136703056Y-108874083D01*
X136755906Y-109033572D01*
X136755908Y-109033577D01*
X136844114Y-109176580D01*
X136962919Y-109295385D01*
X137105922Y-109383591D01*
X137105927Y-109383593D01*
X137265416Y-109436442D01*
X137363855Y-109446499D01*
X137417999Y-109446498D01*
X137418000Y-109446498D01*
X137418000Y-108759000D01*
X137918000Y-108759000D01*
X137918000Y-109446499D01*
X137972136Y-109446499D01*
X137972152Y-109446498D01*
X138070583Y-109436443D01*
X138230072Y-109383593D01*
X138230077Y-109383591D01*
X138373080Y-109295385D01*
X138491885Y-109176580D01*
X138580091Y-109033577D01*
X138580093Y-109033572D01*
X138632942Y-108874083D01*
X138642999Y-108775650D01*
X138643000Y-108775637D01*
X138643000Y-108759000D01*
X137918000Y-108759000D01*
X137418000Y-108759000D01*
X136693001Y-108759000D01*
X131826500Y-108759000D01*
X131826500Y-100333870D01*
X135973500Y-100333870D01*
X135973501Y-100333876D01*
X135979908Y-100393483D01*
X136030202Y-100528328D01*
X136030206Y-100528335D01*
X136116452Y-100643544D01*
X136116455Y-100643547D01*
X136231664Y-100729793D01*
X136231671Y-100729797D01*
X136276618Y-100746560D01*
X136366517Y-100780091D01*
X136426127Y-100786500D01*
X136846583Y-100786499D01*
X136913621Y-100806183D01*
X136959376Y-100858987D01*
X136969320Y-100928146D01*
X136962764Y-100953831D01*
X136934909Y-101028514D01*
X136934908Y-101028516D01*
X136928501Y-101088116D01*
X136928501Y-101088123D01*
X136928500Y-101088135D01*
X136928500Y-102433870D01*
X136928501Y-102433876D01*
X136934908Y-102493483D01*
X136985202Y-102628328D01*
X136985204Y-102628331D01*
X137016493Y-102670128D01*
X137022537Y-102678201D01*
X137046955Y-102743665D01*
X137032104Y-102811939D01*
X136987423Y-102858628D01*
X136957817Y-102876526D01*
X136957810Y-102876531D01*
X136837530Y-102996811D01*
X136749522Y-103142393D01*
X136698913Y-103304807D01*
X136692500Y-103375386D01*
X136692500Y-103888613D01*
X136698913Y-103959192D01*
X136749522Y-104121606D01*
X136837530Y-104267188D01*
X136939661Y-104369319D01*
X136973146Y-104430642D01*
X136968162Y-104500334D01*
X136939661Y-104544681D01*
X136837531Y-104646810D01*
X136837530Y-104646811D01*
X136749522Y-104792393D01*
X136698913Y-104954807D01*
X136692500Y-105025386D01*
X136692500Y-105538613D01*
X136698913Y-105609192D01*
X136698913Y-105609194D01*
X136698914Y-105609196D01*
X136749522Y-105771606D01*
X136837528Y-105917185D01*
X136927405Y-106007062D01*
X136960889Y-106068383D01*
X136955905Y-106138075D01*
X136927405Y-106182423D01*
X136843716Y-106266112D01*
X136755455Y-106409204D01*
X136755450Y-106409215D01*
X136742435Y-106448492D01*
X136702564Y-106568815D01*
X136702564Y-106568816D01*
X136702563Y-106568816D01*
X136692500Y-106667318D01*
X136692500Y-107200681D01*
X136702563Y-107299183D01*
X136755450Y-107458784D01*
X136755455Y-107458795D01*
X136843716Y-107601887D01*
X136843719Y-107601892D01*
X136876000Y-107634173D01*
X136909485Y-107695497D01*
X136904499Y-107765188D01*
X136876000Y-107809533D01*
X136844114Y-107841419D01*
X136755908Y-107984422D01*
X136755906Y-107984427D01*
X136703057Y-108143916D01*
X136693000Y-108242349D01*
X136693000Y-108259000D01*
X138642999Y-108259000D01*
X138642999Y-108242364D01*
X138642998Y-108242347D01*
X138632943Y-108143916D01*
X138580093Y-107984427D01*
X138580091Y-107984422D01*
X138491885Y-107841419D01*
X138460000Y-107809534D01*
X138426515Y-107748211D01*
X138431499Y-107678519D01*
X138460000Y-107634172D01*
X138492281Y-107601891D01*
X138580549Y-107458787D01*
X138633436Y-107299185D01*
X138643500Y-107200674D01*
X138643500Y-107173501D01*
X149881500Y-107173501D01*
X149881501Y-107173519D01*
X149892000Y-107276296D01*
X149892001Y-107276299D01*
X149899585Y-107299185D01*
X149947186Y-107442834D01*
X150039288Y-107592156D01*
X150163344Y-107716212D01*
X150312666Y-107808314D01*
X150319199Y-107810478D01*
X150376641Y-107850246D01*
X150403467Y-107914761D01*
X150391156Y-107983537D01*
X150385735Y-107993280D01*
X150344454Y-108060206D01*
X150344450Y-108060213D01*
X150344451Y-108060213D01*
X150291564Y-108219815D01*
X150291564Y-108219816D01*
X150291563Y-108219816D01*
X150281500Y-108318318D01*
X150281500Y-108851681D01*
X150291563Y-108950183D01*
X150344450Y-109109784D01*
X150344455Y-109109795D01*
X150432716Y-109252887D01*
X150432719Y-109252892D01*
X150465000Y-109285173D01*
X150498485Y-109346497D01*
X150493499Y-109416188D01*
X150465000Y-109460533D01*
X150433114Y-109492419D01*
X150344908Y-109635422D01*
X150344906Y-109635427D01*
X150292057Y-109794916D01*
X150282000Y-109893349D01*
X150282000Y-109910000D01*
X152231999Y-109910000D01*
X152231999Y-109893364D01*
X152231998Y-109893347D01*
X152221943Y-109794916D01*
X152169093Y-109635427D01*
X152169091Y-109635422D01*
X152080885Y-109492419D01*
X152049000Y-109460534D01*
X152015515Y-109399211D01*
X152020499Y-109329519D01*
X152049000Y-109285172D01*
X152049000Y-109285171D01*
X152081281Y-109252891D01*
X152169549Y-109109787D01*
X152222436Y-108950185D01*
X152232500Y-108851674D01*
X152232500Y-108318326D01*
X152222436Y-108219815D01*
X152192531Y-108129567D01*
X179524500Y-108129567D01*
X179527416Y-108172571D01*
X179563662Y-108318318D01*
X179573637Y-108358428D01*
X179658732Y-108530005D01*
X179778721Y-108679279D01*
X179927995Y-108799268D01*
X180099572Y-108884363D01*
X180285428Y-108930583D01*
X180285432Y-108930584D01*
X180324020Y-108933200D01*
X180328433Y-108933500D01*
X180328434Y-108933500D01*
X181241567Y-108933500D01*
X181244940Y-108933271D01*
X181284568Y-108930584D01*
X181470428Y-108884363D01*
X181642005Y-108799268D01*
X181707313Y-108746771D01*
X181771897Y-108720113D01*
X181840641Y-108732604D01*
X181862685Y-108746771D01*
X181927995Y-108799268D01*
X182099572Y-108884363D01*
X182285428Y-108930583D01*
X182285432Y-108930584D01*
X182324020Y-108933200D01*
X182328433Y-108933500D01*
X182328434Y-108933500D01*
X183241567Y-108933500D01*
X183244940Y-108933271D01*
X183284568Y-108930584D01*
X183470428Y-108884363D01*
X183642005Y-108799268D01*
X183707313Y-108746771D01*
X183771897Y-108720113D01*
X183840641Y-108732604D01*
X183862685Y-108746771D01*
X183927995Y-108799268D01*
X184099572Y-108884363D01*
X184285428Y-108930583D01*
X184285432Y-108930584D01*
X184324020Y-108933200D01*
X184328433Y-108933500D01*
X184328434Y-108933500D01*
X185241567Y-108933500D01*
X185244940Y-108933271D01*
X185284568Y-108930584D01*
X185470428Y-108884363D01*
X185642005Y-108799268D01*
X185707313Y-108746771D01*
X185771897Y-108720113D01*
X185840641Y-108732604D01*
X185862685Y-108746771D01*
X185927995Y-108799268D01*
X186099572Y-108884363D01*
X186285428Y-108930583D01*
X186285432Y-108930584D01*
X186324020Y-108933200D01*
X186328433Y-108933500D01*
X186328434Y-108933500D01*
X187241567Y-108933500D01*
X187244940Y-108933271D01*
X187284568Y-108930584D01*
X187470428Y-108884363D01*
X187642005Y-108799268D01*
X187707314Y-108746770D01*
X187771893Y-108720113D01*
X187840638Y-108732603D01*
X187862685Y-108746771D01*
X187927995Y-108799268D01*
X188099572Y-108884363D01*
X188285428Y-108930583D01*
X188285432Y-108930584D01*
X188324020Y-108933200D01*
X188328433Y-108933500D01*
X188328434Y-108933500D01*
X189241567Y-108933500D01*
X189244940Y-108933271D01*
X189284568Y-108930584D01*
X189470428Y-108884363D01*
X189642005Y-108799268D01*
X189707313Y-108746771D01*
X189771897Y-108720113D01*
X189840641Y-108732604D01*
X189862685Y-108746771D01*
X189927995Y-108799268D01*
X190099572Y-108884363D01*
X190285428Y-108930583D01*
X190285432Y-108930584D01*
X190324020Y-108933200D01*
X190328433Y-108933500D01*
X190328434Y-108933500D01*
X191241567Y-108933500D01*
X191244940Y-108933271D01*
X191284568Y-108930584D01*
X191470428Y-108884363D01*
X191642005Y-108799268D01*
X191707313Y-108746771D01*
X191771897Y-108720113D01*
X191840641Y-108732604D01*
X191862685Y-108746771D01*
X191927995Y-108799268D01*
X192099572Y-108884363D01*
X192285428Y-108930583D01*
X192285432Y-108930584D01*
X192324020Y-108933200D01*
X192328433Y-108933500D01*
X192328434Y-108933500D01*
X193241567Y-108933500D01*
X193244940Y-108933271D01*
X193284568Y-108930584D01*
X193470428Y-108884363D01*
X193642005Y-108799268D01*
X193707313Y-108746771D01*
X193771897Y-108720113D01*
X193840641Y-108732604D01*
X193862685Y-108746771D01*
X193927995Y-108799268D01*
X194099572Y-108884363D01*
X194285428Y-108930583D01*
X194285432Y-108930584D01*
X194324020Y-108933200D01*
X194328433Y-108933500D01*
X194328434Y-108933500D01*
X195241567Y-108933500D01*
X195244940Y-108933271D01*
X195284568Y-108930584D01*
X195470428Y-108884363D01*
X195642005Y-108799268D01*
X195791279Y-108679279D01*
X195911268Y-108530005D01*
X195996363Y-108358428D01*
X196042584Y-108172568D01*
X196045500Y-108129566D01*
X196045500Y-105736434D01*
X196042584Y-105693432D01*
X195996363Y-105507572D01*
X195911268Y-105335995D01*
X195791279Y-105186721D01*
X195642005Y-105066732D01*
X195642001Y-105066730D01*
X195470429Y-104981637D01*
X195284569Y-104935416D01*
X195284573Y-104935416D01*
X195241567Y-104932500D01*
X195241566Y-104932500D01*
X194328434Y-104932500D01*
X194328433Y-104932500D01*
X194285428Y-104935416D01*
X194099570Y-104981637D01*
X193927995Y-105066731D01*
X193927990Y-105066734D01*
X193862686Y-105119227D01*
X193798102Y-105145885D01*
X193729358Y-105133394D01*
X193707314Y-105119227D01*
X193642009Y-105066734D01*
X193642004Y-105066731D01*
X193470429Y-104981637D01*
X193284569Y-104935416D01*
X193284573Y-104935416D01*
X193241567Y-104932500D01*
X193241566Y-104932500D01*
X192328434Y-104932500D01*
X192328433Y-104932500D01*
X192285428Y-104935416D01*
X192099570Y-104981637D01*
X191927995Y-105066731D01*
X191862684Y-105119228D01*
X191798099Y-105145885D01*
X191729355Y-105133393D01*
X191707313Y-105119227D01*
X191642004Y-105066731D01*
X191470429Y-104981637D01*
X191284569Y-104935416D01*
X191284573Y-104935416D01*
X191241567Y-104932500D01*
X191241566Y-104932500D01*
X190328434Y-104932500D01*
X190328433Y-104932500D01*
X190285428Y-104935416D01*
X190099570Y-104981637D01*
X189927995Y-105066731D01*
X189927990Y-105066734D01*
X189862686Y-105119227D01*
X189798102Y-105145885D01*
X189729358Y-105133394D01*
X189707314Y-105119227D01*
X189642009Y-105066734D01*
X189642004Y-105066731D01*
X189470429Y-104981637D01*
X189284569Y-104935416D01*
X189284573Y-104935416D01*
X189241567Y-104932500D01*
X189241566Y-104932500D01*
X188328434Y-104932500D01*
X188328433Y-104932500D01*
X188285428Y-104935416D01*
X188099570Y-104981637D01*
X187927995Y-105066731D01*
X187927990Y-105066734D01*
X187862686Y-105119227D01*
X187798102Y-105145885D01*
X187729358Y-105133394D01*
X187707314Y-105119227D01*
X187642009Y-105066734D01*
X187642004Y-105066731D01*
X187470429Y-104981637D01*
X187284569Y-104935416D01*
X187284573Y-104935416D01*
X187241567Y-104932500D01*
X187241566Y-104932500D01*
X186328434Y-104932500D01*
X186328433Y-104932500D01*
X186285428Y-104935416D01*
X186099570Y-104981637D01*
X185927995Y-105066731D01*
X185927990Y-105066734D01*
X185862686Y-105119227D01*
X185798102Y-105145885D01*
X185729358Y-105133394D01*
X185707314Y-105119227D01*
X185642009Y-105066734D01*
X185642004Y-105066731D01*
X185470429Y-104981637D01*
X185284569Y-104935416D01*
X185284573Y-104935416D01*
X185241567Y-104932500D01*
X185241566Y-104932500D01*
X184328434Y-104932500D01*
X184328433Y-104932500D01*
X184285428Y-104935416D01*
X184099570Y-104981637D01*
X183927995Y-105066731D01*
X183862684Y-105119228D01*
X183798099Y-105145885D01*
X183729355Y-105133393D01*
X183707313Y-105119227D01*
X183642004Y-105066731D01*
X183470429Y-104981637D01*
X183284569Y-104935416D01*
X183284573Y-104935416D01*
X183241567Y-104932500D01*
X183241566Y-104932500D01*
X182328434Y-104932500D01*
X182328433Y-104932500D01*
X182285428Y-104935416D01*
X182099570Y-104981637D01*
X181927995Y-105066731D01*
X181927990Y-105066734D01*
X181862686Y-105119227D01*
X181798102Y-105145885D01*
X181729358Y-105133394D01*
X181707314Y-105119227D01*
X181642009Y-105066734D01*
X181642004Y-105066731D01*
X181470429Y-104981637D01*
X181284569Y-104935416D01*
X181284573Y-104935416D01*
X181241567Y-104932500D01*
X181241566Y-104932500D01*
X180328434Y-104932500D01*
X180328433Y-104932500D01*
X180285428Y-104935416D01*
X180099570Y-104981637D01*
X179927998Y-105066730D01*
X179927996Y-105066731D01*
X179927995Y-105066732D01*
X179778721Y-105186721D01*
X179669523Y-105322571D01*
X179658730Y-105335998D01*
X179573637Y-105507570D01*
X179527416Y-105693428D01*
X179524500Y-105736433D01*
X179524500Y-108129567D01*
X152192531Y-108129567D01*
X152169549Y-108060213D01*
X152169545Y-108060206D01*
X152169544Y-108060204D01*
X152128265Y-107993281D01*
X152109824Y-107925889D01*
X152130746Y-107859225D01*
X152184388Y-107814456D01*
X152194770Y-107810488D01*
X152201334Y-107808314D01*
X152350656Y-107716212D01*
X152474712Y-107592156D01*
X152566814Y-107442834D01*
X152621999Y-107276297D01*
X152632500Y-107173509D01*
X152632499Y-106448492D01*
X152621999Y-106345703D01*
X152566814Y-106179166D01*
X152474712Y-106029844D01*
X152350656Y-105905788D01*
X152257888Y-105848568D01*
X152201336Y-105813687D01*
X152201331Y-105813685D01*
X152199862Y-105813198D01*
X152034797Y-105758501D01*
X152034795Y-105758500D01*
X151932010Y-105748000D01*
X150581998Y-105748000D01*
X150581981Y-105748001D01*
X150479203Y-105758500D01*
X150479200Y-105758501D01*
X150312668Y-105813685D01*
X150312663Y-105813687D01*
X150163342Y-105905789D01*
X150039289Y-106029842D01*
X149947187Y-106179163D01*
X149947185Y-106179168D01*
X149919349Y-106263170D01*
X149892001Y-106345703D01*
X149892001Y-106345704D01*
X149892000Y-106345704D01*
X149881500Y-106448483D01*
X149881500Y-107173501D01*
X138643500Y-107173501D01*
X138643500Y-106667326D01*
X138633436Y-106568815D01*
X138580549Y-106409213D01*
X138580545Y-106409207D01*
X138580544Y-106409204D01*
X138492283Y-106266112D01*
X138492282Y-106266111D01*
X138492281Y-106266109D01*
X138408595Y-106182423D01*
X138375111Y-106121099D01*
X138380095Y-106051408D01*
X138408594Y-106007062D01*
X138498472Y-105917185D01*
X138586478Y-105771606D01*
X138637086Y-105609196D01*
X138643500Y-105538616D01*
X138643500Y-105025384D01*
X138637086Y-104954804D01*
X138586478Y-104792394D01*
X138498472Y-104646815D01*
X138498467Y-104646810D01*
X138396338Y-104544680D01*
X138362854Y-104483357D01*
X138367838Y-104413665D01*
X138396337Y-104369319D01*
X138498472Y-104267185D01*
X138586478Y-104121606D01*
X138637086Y-103959196D01*
X138643500Y-103888616D01*
X138643500Y-103375384D01*
X138637086Y-103304804D01*
X138586478Y-103142394D01*
X138498472Y-102996815D01*
X138498470Y-102996813D01*
X138498469Y-102996811D01*
X138402012Y-102900354D01*
X138368527Y-102839031D01*
X138373511Y-102769339D01*
X138390427Y-102738362D01*
X138472793Y-102628335D01*
X138472792Y-102628335D01*
X138472796Y-102628331D01*
X138523091Y-102493483D01*
X138529500Y-102433873D01*
X138529500Y-101918000D01*
X142771000Y-101918000D01*
X142771000Y-102340844D01*
X142777401Y-102400372D01*
X142777403Y-102400379D01*
X142827645Y-102535086D01*
X142827649Y-102535093D01*
X142913809Y-102650187D01*
X142913812Y-102650190D01*
X143028906Y-102736350D01*
X143028913Y-102736354D01*
X143163620Y-102786596D01*
X143163627Y-102786598D01*
X143223155Y-102792999D01*
X143223172Y-102793000D01*
X143321000Y-102793000D01*
X143321000Y-101918000D01*
X143821000Y-101918000D01*
X143821000Y-102793000D01*
X143918828Y-102793000D01*
X143918844Y-102792999D01*
X143978372Y-102786598D01*
X143978379Y-102786596D01*
X144113086Y-102736354D01*
X144113093Y-102736350D01*
X144228187Y-102650190D01*
X144228190Y-102650187D01*
X144314350Y-102535093D01*
X144314354Y-102535086D01*
X144364596Y-102400379D01*
X144364598Y-102400372D01*
X144370999Y-102340844D01*
X144371000Y-102340827D01*
X144371000Y-101918000D01*
X143821000Y-101918000D01*
X143321000Y-101918000D01*
X142771000Y-101918000D01*
X138529500Y-101918000D01*
X138529499Y-101088128D01*
X138523091Y-101028517D01*
X138507917Y-100987833D01*
X138495236Y-100953831D01*
X138490252Y-100884140D01*
X138523738Y-100822817D01*
X138585061Y-100789333D01*
X138611418Y-100786499D01*
X139031871Y-100786499D01*
X139031872Y-100786499D01*
X139091483Y-100780091D01*
X139226331Y-100729796D01*
X139341546Y-100643546D01*
X139427796Y-100528331D01*
X139478091Y-100393483D01*
X139484500Y-100333873D01*
X139484499Y-98988128D01*
X139478091Y-98928517D01*
X139466836Y-98898342D01*
X139427797Y-98793671D01*
X139427795Y-98793668D01*
X139427792Y-98793664D01*
X139344141Y-98681920D01*
X139319724Y-98616459D01*
X139334575Y-98548185D01*
X139355729Y-98519928D01*
X139375469Y-98500188D01*
X139375469Y-98500187D01*
X139375472Y-98500185D01*
X139390485Y-98475349D01*
X139442014Y-98428162D01*
X139496602Y-98415500D01*
X140093398Y-98415500D01*
X140160437Y-98435185D01*
X140199514Y-98475349D01*
X140214528Y-98500185D01*
X140214531Y-98500189D01*
X140334811Y-98620469D01*
X140334813Y-98620470D01*
X140334815Y-98620472D01*
X140480394Y-98708478D01*
X140642804Y-98759086D01*
X140713384Y-98765500D01*
X140713387Y-98765500D01*
X141226613Y-98765500D01*
X141226616Y-98765500D01*
X141297196Y-98759086D01*
X141459606Y-98708478D01*
X141605185Y-98620472D01*
X141680123Y-98545533D01*
X141741444Y-98512050D01*
X141811136Y-98517034D01*
X141867070Y-98558905D01*
X141891487Y-98624369D01*
X141876636Y-98692642D01*
X141876307Y-98693153D01*
X141872202Y-98700671D01*
X141821908Y-98835517D01*
X141817990Y-98871966D01*
X141815501Y-98895123D01*
X141815500Y-98895135D01*
X141815500Y-100240870D01*
X141815501Y-100240876D01*
X141821908Y-100300483D01*
X141872202Y-100435328D01*
X141872206Y-100435335D01*
X141958452Y-100550544D01*
X141958455Y-100550547D01*
X142073664Y-100636793D01*
X142073671Y-100636797D01*
X142108575Y-100649815D01*
X142208517Y-100687091D01*
X142268127Y-100693500D01*
X142689116Y-100693499D01*
X142756154Y-100713183D01*
X142801909Y-100765987D01*
X142811853Y-100835146D01*
X142805297Y-100860832D01*
X142777403Y-100935619D01*
X142777401Y-100935627D01*
X142771000Y-100995155D01*
X142771000Y-101418000D01*
X143321000Y-101418000D01*
X143321000Y-100528427D01*
X143340685Y-100461388D01*
X143345734Y-100454115D01*
X143359796Y-100435331D01*
X143410091Y-100300483D01*
X143416500Y-100240873D01*
X143416499Y-98895128D01*
X143410091Y-98835517D01*
X143407523Y-98828633D01*
X143359797Y-98700671D01*
X143359796Y-98700670D01*
X143359796Y-98700669D01*
X143345067Y-98680994D01*
X143320651Y-98615531D01*
X143335502Y-98547258D01*
X143356656Y-98519001D01*
X143375469Y-98500188D01*
X143375469Y-98500187D01*
X143375472Y-98500185D01*
X143463478Y-98354606D01*
X143514086Y-98192196D01*
X143520500Y-98121616D01*
X143520500Y-97469520D01*
X143540185Y-97402481D01*
X143592989Y-97356726D01*
X143662147Y-97346782D01*
X143725703Y-97375807D01*
X143732181Y-97381839D01*
X143815811Y-97465469D01*
X143815813Y-97465470D01*
X143815815Y-97465472D01*
X143840650Y-97480485D01*
X143887837Y-97532010D01*
X143900500Y-97586601D01*
X143900500Y-98502045D01*
X143880815Y-98569084D01*
X143873504Y-98578157D01*
X143873768Y-98578355D01*
X143782206Y-98700664D01*
X143782202Y-98700671D01*
X143731908Y-98835517D01*
X143727990Y-98871966D01*
X143725501Y-98895123D01*
X143725500Y-98895135D01*
X143725500Y-100240870D01*
X143725501Y-100240876D01*
X143731908Y-100300483D01*
X143782202Y-100435328D01*
X143782204Y-100435331D01*
X143796266Y-100454115D01*
X143820684Y-100519579D01*
X143821000Y-100528427D01*
X143821000Y-101418000D01*
X144371000Y-101418000D01*
X144371000Y-100995172D01*
X144370999Y-100995155D01*
X144364598Y-100935627D01*
X144364597Y-100935623D01*
X144336702Y-100860833D01*
X144331718Y-100791141D01*
X144365203Y-100729818D01*
X144426526Y-100696333D01*
X144452878Y-100693499D01*
X144873872Y-100693499D01*
X144933483Y-100687091D01*
X145068331Y-100636796D01*
X145183546Y-100550546D01*
X145269796Y-100435331D01*
X145294957Y-100367870D01*
X149435500Y-100367870D01*
X149435501Y-100367876D01*
X149441908Y-100427483D01*
X149492202Y-100562328D01*
X149492206Y-100562335D01*
X149578452Y-100677544D01*
X149578455Y-100677547D01*
X149693664Y-100763793D01*
X149693671Y-100763797D01*
X149699543Y-100765987D01*
X149828517Y-100814091D01*
X149888127Y-100820500D01*
X150308583Y-100820499D01*
X150375621Y-100840183D01*
X150421376Y-100892987D01*
X150431320Y-100962146D01*
X150424764Y-100987831D01*
X150396909Y-101062514D01*
X150396908Y-101062516D01*
X150390501Y-101122116D01*
X150390501Y-101122123D01*
X150390500Y-101122135D01*
X150390500Y-102467870D01*
X150390501Y-102467876D01*
X150396908Y-102527483D01*
X150447202Y-102662328D01*
X150447205Y-102662333D01*
X150453040Y-102670128D01*
X150477454Y-102735593D01*
X150462600Y-102803865D01*
X150413193Y-102853269D01*
X150392776Y-102862140D01*
X150389125Y-102863350D01*
X150312668Y-102888685D01*
X150312663Y-102888687D01*
X150163342Y-102980789D01*
X150039289Y-103104842D01*
X149947187Y-103254163D01*
X149947185Y-103254166D01*
X149947186Y-103254166D01*
X149892001Y-103420703D01*
X149892001Y-103420704D01*
X149892000Y-103420704D01*
X149881500Y-103523483D01*
X149881500Y-104248501D01*
X149881501Y-104248519D01*
X149892000Y-104351296D01*
X149892001Y-104351299D01*
X149935761Y-104483357D01*
X149947186Y-104517834D01*
X150039288Y-104667156D01*
X150163344Y-104791212D01*
X150312666Y-104883314D01*
X150479203Y-104938499D01*
X150581991Y-104949000D01*
X151932008Y-104948999D01*
X152034797Y-104938499D01*
X152201334Y-104883314D01*
X152350656Y-104791212D01*
X152474712Y-104667156D01*
X152566814Y-104517834D01*
X152621999Y-104351297D01*
X152632500Y-104248509D01*
X152632499Y-103523492D01*
X152621999Y-103420703D01*
X152566814Y-103254166D01*
X152474712Y-103104844D01*
X152350656Y-102980788D01*
X152201334Y-102888686D01*
X152034797Y-102833501D01*
X152034793Y-102833500D01*
X152028173Y-102832083D01*
X152028536Y-102830387D01*
X151971929Y-102807281D01*
X151931786Y-102750094D01*
X151928933Y-102680283D01*
X151933055Y-102666996D01*
X151934793Y-102662333D01*
X151934796Y-102662331D01*
X151985091Y-102527483D01*
X151991500Y-102467873D01*
X151991500Y-102045000D01*
X156106000Y-102045000D01*
X156106000Y-102467844D01*
X156112401Y-102527372D01*
X156112403Y-102527379D01*
X156162645Y-102662086D01*
X156162649Y-102662093D01*
X156248809Y-102777187D01*
X156248812Y-102777190D01*
X156363906Y-102863350D01*
X156363913Y-102863354D01*
X156498620Y-102913596D01*
X156498627Y-102913598D01*
X156558155Y-102919999D01*
X156558172Y-102920000D01*
X156656000Y-102920000D01*
X156656000Y-102045000D01*
X157156000Y-102045000D01*
X157156000Y-102920000D01*
X157253828Y-102920000D01*
X157253844Y-102919999D01*
X157313372Y-102913598D01*
X157313379Y-102913596D01*
X157448086Y-102863354D01*
X157448093Y-102863350D01*
X157563187Y-102777190D01*
X157563190Y-102777187D01*
X157649350Y-102662093D01*
X157649354Y-102662086D01*
X157699596Y-102527379D01*
X157699598Y-102527372D01*
X157705999Y-102467844D01*
X157706000Y-102467827D01*
X157706000Y-102045000D01*
X157156000Y-102045000D01*
X156656000Y-102045000D01*
X156106000Y-102045000D01*
X151991500Y-102045000D01*
X151991499Y-101122128D01*
X151985091Y-101062517D01*
X151972410Y-101028517D01*
X151957236Y-100987831D01*
X151952252Y-100918140D01*
X151985738Y-100856817D01*
X152047061Y-100823333D01*
X152073418Y-100820499D01*
X152493871Y-100820499D01*
X152493872Y-100820499D01*
X152553483Y-100814091D01*
X152688331Y-100763796D01*
X152803546Y-100677546D01*
X152889796Y-100562331D01*
X152940091Y-100427483D01*
X152946500Y-100367873D01*
X152946499Y-99022128D01*
X152940091Y-98962517D01*
X152932317Y-98941675D01*
X152889797Y-98827671D01*
X152889793Y-98827664D01*
X152816845Y-98730219D01*
X152803546Y-98712454D01*
X152780082Y-98694889D01*
X152738213Y-98638957D01*
X152733229Y-98569265D01*
X152766712Y-98507944D01*
X152774472Y-98500185D01*
X152789485Y-98475349D01*
X152841014Y-98428162D01*
X152895602Y-98415500D01*
X153429398Y-98415500D01*
X153496437Y-98435185D01*
X153535514Y-98475349D01*
X153550528Y-98500185D01*
X153550531Y-98500189D01*
X153670811Y-98620469D01*
X153670813Y-98620470D01*
X153670815Y-98620472D01*
X153816394Y-98708478D01*
X153978804Y-98759086D01*
X154049384Y-98765500D01*
X154049387Y-98765500D01*
X154562613Y-98765500D01*
X154562616Y-98765500D01*
X154633196Y-98759086D01*
X154795606Y-98708478D01*
X154941185Y-98620472D01*
X154987713Y-98573944D01*
X155043319Y-98518339D01*
X155104642Y-98484854D01*
X155174334Y-98489838D01*
X155218681Y-98518339D01*
X155268569Y-98568227D01*
X155302054Y-98629550D01*
X155297070Y-98699242D01*
X155280155Y-98730219D01*
X155207204Y-98827669D01*
X155207202Y-98827671D01*
X155156908Y-98962517D01*
X155150511Y-99022026D01*
X155150501Y-99022123D01*
X155150500Y-99022135D01*
X155150500Y-100367870D01*
X155150501Y-100367876D01*
X155156908Y-100427483D01*
X155207202Y-100562328D01*
X155207206Y-100562335D01*
X155293452Y-100677544D01*
X155293455Y-100677547D01*
X155408664Y-100763793D01*
X155408671Y-100763797D01*
X155414543Y-100765987D01*
X155543517Y-100814091D01*
X155603127Y-100820500D01*
X156024116Y-100820499D01*
X156091154Y-100840183D01*
X156136909Y-100892987D01*
X156146853Y-100962146D01*
X156140297Y-100987832D01*
X156112403Y-101062619D01*
X156112401Y-101062627D01*
X156106000Y-101122155D01*
X156106000Y-101545000D01*
X156656000Y-101545000D01*
X156656000Y-100655427D01*
X156675685Y-100588388D01*
X156680734Y-100581115D01*
X156687663Y-100571859D01*
X156694796Y-100562331D01*
X156745091Y-100427483D01*
X156751500Y-100367873D01*
X156751499Y-99022128D01*
X156745091Y-98962517D01*
X156737317Y-98941675D01*
X156694797Y-98827671D01*
X156694793Y-98827664D01*
X156626126Y-98735937D01*
X156601708Y-98670473D01*
X156616559Y-98602200D01*
X156637709Y-98573947D01*
X156711472Y-98500185D01*
X156799478Y-98354606D01*
X156850086Y-98192196D01*
X156856500Y-98121616D01*
X156856500Y-97470520D01*
X156876185Y-97403481D01*
X156928989Y-97357726D01*
X156998147Y-97347782D01*
X157061703Y-97376807D01*
X157068181Y-97382839D01*
X157150811Y-97465469D01*
X157150813Y-97465470D01*
X157150815Y-97465472D01*
X157175650Y-97480485D01*
X157222837Y-97532010D01*
X157235500Y-97586601D01*
X157235500Y-98629045D01*
X157215815Y-98696084D01*
X157208504Y-98705157D01*
X157208768Y-98705355D01*
X157117206Y-98827664D01*
X157117202Y-98827671D01*
X157066908Y-98962517D01*
X157060511Y-99022026D01*
X157060501Y-99022123D01*
X157060500Y-99022135D01*
X157060500Y-100367870D01*
X157060501Y-100367876D01*
X157066908Y-100427483D01*
X157117202Y-100562328D01*
X157117204Y-100562331D01*
X157131266Y-100581115D01*
X157155684Y-100646579D01*
X157156000Y-100655427D01*
X157156000Y-101545000D01*
X157706000Y-101545000D01*
X157706000Y-101122172D01*
X157705999Y-101122155D01*
X157699598Y-101062627D01*
X157699597Y-101062623D01*
X157671702Y-100987833D01*
X157666718Y-100918141D01*
X157700203Y-100856818D01*
X157761526Y-100823333D01*
X157787878Y-100820499D01*
X158208872Y-100820499D01*
X158268483Y-100814091D01*
X158403331Y-100763796D01*
X158518546Y-100677546D01*
X158604796Y-100562331D01*
X158655091Y-100427483D01*
X158661500Y-100367873D01*
X158661499Y-99022128D01*
X158655091Y-98962517D01*
X158647317Y-98941675D01*
X158604797Y-98827671D01*
X158604793Y-98827664D01*
X158513232Y-98705355D01*
X158515625Y-98703563D01*
X158489327Y-98655373D01*
X158486500Y-98629045D01*
X158486500Y-97586601D01*
X158506185Y-97519562D01*
X158546348Y-97480485D01*
X158571185Y-97465472D01*
X158691472Y-97345185D01*
X158779478Y-97199606D01*
X158830086Y-97037196D01*
X158836500Y-96966616D01*
X158836500Y-96453384D01*
X158830086Y-96382804D01*
X158779478Y-96220394D01*
X158691472Y-96074815D01*
X158691470Y-96074813D01*
X158691469Y-96074811D01*
X158589338Y-95972680D01*
X158555853Y-95911357D01*
X158560837Y-95841665D01*
X158589337Y-95797319D01*
X158691472Y-95695185D01*
X158779478Y-95549606D01*
X158830086Y-95387196D01*
X158836500Y-95316616D01*
X158836500Y-94803384D01*
X158830086Y-94732804D01*
X158779478Y-94570394D01*
X158691472Y-94424815D01*
X158691470Y-94424813D01*
X158691469Y-94424811D01*
X158571188Y-94304530D01*
X158571186Y-94304529D01*
X158571185Y-94304528D01*
X158546348Y-94289513D01*
X158499162Y-94237984D01*
X158486500Y-94183397D01*
X158486500Y-93916687D01*
X158506185Y-93849648D01*
X158518350Y-93833715D01*
X158536891Y-93813122D01*
X158593533Y-93750216D01*
X158688179Y-93586284D01*
X158746674Y-93406256D01*
X158766460Y-93218000D01*
X158746674Y-93029744D01*
X158688179Y-92849716D01*
X158593533Y-92685784D01*
X158466871Y-92545112D01*
X158466870Y-92545111D01*
X158313734Y-92433851D01*
X158313729Y-92433848D01*
X158140807Y-92356857D01*
X158140802Y-92356855D01*
X157983535Y-92323428D01*
X157955646Y-92317500D01*
X157766354Y-92317500D01*
X157738465Y-92323428D01*
X157581197Y-92356855D01*
X157581192Y-92356857D01*
X157408270Y-92433848D01*
X157408265Y-92433851D01*
X157255129Y-92545111D01*
X157128466Y-92685785D01*
X157033821Y-92849715D01*
X157033818Y-92849722D01*
X156975327Y-93029740D01*
X156975326Y-93029744D01*
X156955540Y-93218000D01*
X156975326Y-93406256D01*
X156975327Y-93406259D01*
X157033818Y-93586277D01*
X157033821Y-93586284D01*
X157128467Y-93750216D01*
X157151063Y-93775311D01*
X157203650Y-93833715D01*
X157233880Y-93896706D01*
X157235500Y-93916687D01*
X157235500Y-94183397D01*
X157215815Y-94250436D01*
X157175652Y-94289513D01*
X157150813Y-94304529D01*
X157150811Y-94304530D01*
X157030530Y-94424811D01*
X156942522Y-94570393D01*
X156891913Y-94732807D01*
X156887833Y-94777715D01*
X156886051Y-94797327D01*
X156885500Y-94803386D01*
X156885500Y-94838710D01*
X156865815Y-94905749D01*
X156813011Y-94951504D01*
X156743853Y-94961448D01*
X156680297Y-94932423D01*
X156654768Y-94901832D01*
X156635718Y-94869622D01*
X156635714Y-94869616D01*
X156521383Y-94755285D01*
X156521374Y-94755278D01*
X156382195Y-94672968D01*
X156382190Y-94672966D01*
X156226918Y-94627855D01*
X156226912Y-94627854D01*
X156206000Y-94626209D01*
X156206000Y-95460500D01*
X156186315Y-95527539D01*
X156133511Y-95573294D01*
X156082000Y-95584500D01*
X155721308Y-95584500D01*
X155685008Y-95587356D01*
X155685002Y-95587357D01*
X155529610Y-95632503D01*
X155529604Y-95632506D01*
X155529605Y-95632506D01*
X155520766Y-95637732D01*
X155457648Y-95655000D01*
X155151496Y-95655000D01*
X155193968Y-95801194D01*
X155205911Y-95821389D01*
X155223092Y-95889113D01*
X155205911Y-95947628D01*
X155193506Y-95968604D01*
X155193504Y-95968609D01*
X155148357Y-96124002D01*
X155148356Y-96124008D01*
X155145500Y-96160308D01*
X155145500Y-96569692D01*
X155148356Y-96605991D01*
X155148357Y-96605997D01*
X155193504Y-96761390D01*
X155193505Y-96761393D01*
X155193506Y-96761395D01*
X155224949Y-96814562D01*
X155265485Y-96883105D01*
X155282668Y-96950829D01*
X155260508Y-97017092D01*
X155246436Y-97033906D01*
X155218683Y-97061660D01*
X155157360Y-97095146D01*
X155087669Y-97090163D01*
X155043319Y-97061661D01*
X154941188Y-96959530D01*
X154935499Y-96956091D01*
X154795606Y-96871522D01*
X154633196Y-96820914D01*
X154633194Y-96820913D01*
X154633192Y-96820913D01*
X154583370Y-96816386D01*
X154562616Y-96814500D01*
X154049384Y-96814500D01*
X154030145Y-96816248D01*
X153978807Y-96820913D01*
X153816393Y-96871522D01*
X153670811Y-96959530D01*
X153550531Y-97079810D01*
X153550528Y-97079814D01*
X153535514Y-97104651D01*
X153483986Y-97151838D01*
X153429398Y-97164500D01*
X152895602Y-97164500D01*
X152828563Y-97144815D01*
X152789486Y-97104651D01*
X152783740Y-97095146D01*
X152774472Y-97079815D01*
X152774471Y-97079814D01*
X152774468Y-97079810D01*
X152654188Y-96959530D01*
X152648499Y-96956091D01*
X152508606Y-96871522D01*
X152346196Y-96820914D01*
X152346194Y-96820913D01*
X152346192Y-96820913D01*
X152296370Y-96816386D01*
X152275616Y-96814500D01*
X151762384Y-96814500D01*
X151761705Y-96814561D01*
X151761578Y-96814536D01*
X151759587Y-96814627D01*
X151759581Y-96814500D01*
X151759574Y-96814500D01*
X151759574Y-96814340D01*
X151759564Y-96814138D01*
X151693163Y-96801017D01*
X151642823Y-96752564D01*
X151626500Y-96691069D01*
X151626500Y-96378512D01*
X151646185Y-96311473D01*
X151698989Y-96265718D01*
X151758908Y-96255736D01*
X151758908Y-96255341D01*
X151761280Y-96255341D01*
X151762662Y-96255110D01*
X151765000Y-96255341D01*
X151961132Y-96236024D01*
X152149727Y-96178814D01*
X152165325Y-96170477D01*
X152252273Y-96124002D01*
X152323538Y-96085910D01*
X152475883Y-95960883D01*
X152600910Y-95808538D01*
X152661498Y-95695186D01*
X152693811Y-95634733D01*
X152693811Y-95634732D01*
X152693814Y-95634727D01*
X152751024Y-95446132D01*
X152770341Y-95250000D01*
X152760984Y-95155000D01*
X155151496Y-95155000D01*
X155706000Y-95155000D01*
X155706000Y-94626210D01*
X155705999Y-94626209D01*
X155685087Y-94627854D01*
X155685081Y-94627855D01*
X155529809Y-94672966D01*
X155529804Y-94672968D01*
X155390625Y-94755278D01*
X155390616Y-94755285D01*
X155276285Y-94869616D01*
X155276278Y-94869625D01*
X155193968Y-95008804D01*
X155151496Y-95155000D01*
X152760984Y-95155000D01*
X152751024Y-95053868D01*
X152693814Y-94865273D01*
X152693811Y-94865269D01*
X152693811Y-94865266D01*
X152600913Y-94691467D01*
X152600909Y-94691460D01*
X152475883Y-94539116D01*
X152323539Y-94414090D01*
X152323532Y-94414086D01*
X152149733Y-94321188D01*
X152149727Y-94321186D01*
X151961132Y-94263976D01*
X151961129Y-94263975D01*
X151765000Y-94244659D01*
X151568870Y-94263975D01*
X151380266Y-94321188D01*
X151206467Y-94414086D01*
X151206460Y-94414090D01*
X151054115Y-94539117D01*
X151013340Y-94588800D01*
X150985663Y-94613710D01*
X150982560Y-94615752D01*
X150980699Y-94616977D01*
X150965732Y-94626209D01*
X150915344Y-94657288D01*
X150909682Y-94661766D01*
X150909646Y-94661720D01*
X150903798Y-94666484D01*
X150903835Y-94666528D01*
X150898310Y-94671164D01*
X150898304Y-94671169D01*
X150898304Y-94671170D01*
X150854325Y-94717784D01*
X150845599Y-94727033D01*
X150390358Y-95182272D01*
X150376729Y-95194051D01*
X150357468Y-95208390D01*
X150323898Y-95248397D01*
X150320253Y-95252376D01*
X150314409Y-95258222D01*
X150294059Y-95283959D01*
X150244695Y-95342789D01*
X150240729Y-95348819D01*
X150240682Y-95348788D01*
X150236630Y-95355147D01*
X150236679Y-95355177D01*
X150232889Y-95361321D01*
X150200424Y-95430941D01*
X150165960Y-95499566D01*
X150163488Y-95506357D01*
X150163432Y-95506336D01*
X150160960Y-95513450D01*
X150161015Y-95513469D01*
X150158742Y-95520327D01*
X150152697Y-95549606D01*
X150143207Y-95595565D01*
X150133214Y-95637732D01*
X150125498Y-95670286D01*
X150124661Y-95677454D01*
X150124601Y-95677447D01*
X150123835Y-95684945D01*
X150123895Y-95684951D01*
X150123265Y-95692140D01*
X150125500Y-95768916D01*
X150125500Y-96703592D01*
X150105815Y-96770631D01*
X150053011Y-96816386D01*
X150038392Y-96821977D01*
X149981072Y-96839838D01*
X149879393Y-96871522D01*
X149733811Y-96959530D01*
X149613530Y-97079811D01*
X149525522Y-97225393D01*
X149474913Y-97387807D01*
X149468500Y-97458386D01*
X149468500Y-98121613D01*
X149474913Y-98192192D01*
X149474913Y-98192194D01*
X149474914Y-98192196D01*
X149525522Y-98354606D01*
X149600617Y-98478829D01*
X149618500Y-98542976D01*
X149618500Y-98621045D01*
X149598815Y-98688084D01*
X149582186Y-98708722D01*
X149578451Y-98712456D01*
X149492206Y-98827664D01*
X149492202Y-98827671D01*
X149441908Y-98962517D01*
X149435511Y-99022026D01*
X149435501Y-99022123D01*
X149435500Y-99022135D01*
X149435500Y-100367870D01*
X145294957Y-100367870D01*
X145320091Y-100300483D01*
X145326500Y-100240873D01*
X145326499Y-98895128D01*
X145320091Y-98835517D01*
X145317523Y-98828633D01*
X145269797Y-98700671D01*
X145269793Y-98700664D01*
X145178232Y-98578355D01*
X145180625Y-98576563D01*
X145154327Y-98528373D01*
X145151500Y-98502045D01*
X145151500Y-97586601D01*
X145171185Y-97519562D01*
X145211348Y-97480485D01*
X145236185Y-97465472D01*
X145356472Y-97345185D01*
X145444478Y-97199606D01*
X145495086Y-97037196D01*
X145501500Y-96966616D01*
X145501500Y-96453384D01*
X145495086Y-96382804D01*
X145444478Y-96220394D01*
X145356472Y-96074815D01*
X145356470Y-96074813D01*
X145356469Y-96074811D01*
X145254339Y-95972681D01*
X145220854Y-95911358D01*
X145225838Y-95841666D01*
X145254339Y-95797319D01*
X145329839Y-95721819D01*
X145391162Y-95688334D01*
X145417520Y-95685500D01*
X145903257Y-95685500D01*
X145918877Y-95687224D01*
X145918904Y-95686939D01*
X145926660Y-95687671D01*
X145926667Y-95687673D01*
X145995814Y-95685500D01*
X146025350Y-95685500D01*
X146032228Y-95684630D01*
X146038041Y-95684172D01*
X146084627Y-95682709D01*
X146103869Y-95677117D01*
X146122912Y-95673174D01*
X146142792Y-95670664D01*
X146186122Y-95653507D01*
X146191646Y-95651617D01*
X146195396Y-95650527D01*
X146236390Y-95638618D01*
X146253629Y-95628422D01*
X146271103Y-95619862D01*
X146289727Y-95612488D01*
X146289727Y-95612487D01*
X146289732Y-95612486D01*
X146327449Y-95585082D01*
X146332305Y-95581892D01*
X146372420Y-95558170D01*
X146386589Y-95543999D01*
X146401379Y-95531368D01*
X146417587Y-95519594D01*
X146447299Y-95483676D01*
X146451212Y-95479376D01*
X155868320Y-86062269D01*
X155929641Y-86028786D01*
X155999333Y-86033770D01*
X156043680Y-86062271D01*
X162530197Y-92548788D01*
X162540022Y-92561051D01*
X162540243Y-92560869D01*
X162545214Y-92566878D01*
X162571217Y-92591295D01*
X162595635Y-92614226D01*
X162616529Y-92635120D01*
X162622011Y-92639373D01*
X162626443Y-92643157D01*
X162660418Y-92675062D01*
X162677976Y-92684714D01*
X162694233Y-92695393D01*
X162710064Y-92707673D01*
X162729737Y-92716186D01*
X162752833Y-92726182D01*
X162758077Y-92728750D01*
X162798908Y-92751197D01*
X162811523Y-92754435D01*
X162818305Y-92756177D01*
X162836719Y-92762481D01*
X162855104Y-92770438D01*
X162901157Y-92777732D01*
X162906826Y-92778906D01*
X162951981Y-92790500D01*
X162972016Y-92790500D01*
X162991413Y-92792026D01*
X163011196Y-92795160D01*
X163057583Y-92790775D01*
X163063422Y-92790500D01*
X166266500Y-92790500D01*
X166333539Y-92810185D01*
X166379294Y-92862989D01*
X166390500Y-92914500D01*
X166390500Y-93346613D01*
X166396913Y-93417192D01*
X166396913Y-93417194D01*
X166396914Y-93417196D01*
X166447522Y-93579606D01*
X166535528Y-93725185D01*
X166655815Y-93845472D01*
X166700648Y-93872574D01*
X166747837Y-93924101D01*
X166760500Y-93978692D01*
X166760500Y-94684533D01*
X166740815Y-94751572D01*
X166688011Y-94797327D01*
X166679836Y-94800714D01*
X166643665Y-94814205D01*
X166528455Y-94900452D01*
X166528452Y-94900455D01*
X166442206Y-95015664D01*
X166442202Y-95015671D01*
X166391908Y-95150517D01*
X166385501Y-95210116D01*
X166385500Y-95210135D01*
X166385500Y-96305870D01*
X166385501Y-96305876D01*
X166391908Y-96365483D01*
X166442202Y-96500328D01*
X166442206Y-96500335D01*
X166528452Y-96615544D01*
X166528455Y-96615547D01*
X166643664Y-96701793D01*
X166643671Y-96701797D01*
X166778517Y-96752091D01*
X166778516Y-96752091D01*
X166782916Y-96752564D01*
X166838127Y-96758500D01*
X167933872Y-96758499D01*
X167993483Y-96752091D01*
X168128331Y-96701796D01*
X168136379Y-96695770D01*
X168201842Y-96671351D01*
X168265474Y-96684895D01*
X168265645Y-96684483D01*
X168267875Y-96685406D01*
X168269146Y-96685677D01*
X168271273Y-96686814D01*
X168459868Y-96744024D01*
X168656000Y-96763341D01*
X168852132Y-96744024D01*
X169040727Y-96686814D01*
X169042853Y-96685678D01*
X169174060Y-96615546D01*
X169214538Y-96593910D01*
X169366883Y-96468883D01*
X169491910Y-96316538D01*
X169543301Y-96220393D01*
X169584811Y-96142733D01*
X169584811Y-96142732D01*
X169584814Y-96142727D01*
X169642024Y-95954132D01*
X169661341Y-95758000D01*
X169642024Y-95561868D01*
X169584814Y-95373273D01*
X169584811Y-95373269D01*
X169584811Y-95373266D01*
X169491913Y-95199467D01*
X169491909Y-95199460D01*
X169366885Y-95047118D01*
X169326834Y-95014249D01*
X169287500Y-94956503D01*
X169281500Y-94918397D01*
X169281500Y-94084892D01*
X169301185Y-94017853D01*
X169353989Y-93972098D01*
X169368600Y-93966509D01*
X169474606Y-93933478D01*
X169620185Y-93845472D01*
X169740472Y-93725185D01*
X169828478Y-93579606D01*
X169879086Y-93417196D01*
X169885500Y-93346616D01*
X169885500Y-92833384D01*
X169879086Y-92762804D01*
X169828478Y-92600394D01*
X169740472Y-92454815D01*
X169719505Y-92433848D01*
X169638338Y-92352680D01*
X169604854Y-92291357D01*
X169609838Y-92221665D01*
X169638337Y-92177319D01*
X169740472Y-92075185D01*
X169828478Y-91929606D01*
X169879086Y-91767196D01*
X169885500Y-91696616D01*
X169885500Y-91654451D01*
X169905185Y-91587413D01*
X169921819Y-91566771D01*
X170635772Y-90852819D01*
X170697095Y-90819334D01*
X170723453Y-90816500D01*
X170782644Y-90816500D01*
X170782646Y-90816500D01*
X170967803Y-90777144D01*
X171140730Y-90700151D01*
X171293871Y-90588888D01*
X171420533Y-90448216D01*
X171515179Y-90284284D01*
X171573674Y-90104256D01*
X171593460Y-89916000D01*
X171573674Y-89727744D01*
X171515179Y-89547716D01*
X171420533Y-89383784D01*
X171293871Y-89243112D01*
X171258190Y-89217188D01*
X171140734Y-89131851D01*
X171140729Y-89131848D01*
X170967807Y-89054857D01*
X170967802Y-89054855D01*
X170822000Y-89023865D01*
X170782646Y-89015500D01*
X170593354Y-89015500D01*
X170560897Y-89022398D01*
X170408197Y-89054855D01*
X170320976Y-89093689D01*
X170251726Y-89102973D01*
X170188450Y-89073345D01*
X170151237Y-89014209D01*
X170151902Y-88944343D01*
X170182858Y-88892731D01*
X171560770Y-87514819D01*
X171622094Y-87481334D01*
X171648452Y-87478500D01*
X174767001Y-87478500D01*
X174834040Y-87498185D01*
X174878089Y-87547405D01*
X174958731Y-87710004D01*
X174958735Y-87710010D01*
X175011226Y-87775312D01*
X175037885Y-87839896D01*
X175025394Y-87908640D01*
X175011228Y-87930685D01*
X174958731Y-87995995D01*
X174873637Y-88167570D01*
X174827416Y-88353428D01*
X174824500Y-88396433D01*
X174824500Y-89309567D01*
X174827416Y-89352571D01*
X174873637Y-89538429D01*
X174958731Y-89710004D01*
X174958734Y-89710009D01*
X175011227Y-89775314D01*
X175037885Y-89839898D01*
X175025394Y-89908642D01*
X175011227Y-89930686D01*
X174958734Y-89995990D01*
X174958731Y-89995995D01*
X174873637Y-90167570D01*
X174827416Y-90353428D01*
X174824500Y-90396433D01*
X174824500Y-91309567D01*
X174827416Y-91352571D01*
X174873637Y-91538429D01*
X174958731Y-91710004D01*
X175011227Y-91775313D01*
X175037885Y-91839897D01*
X175025394Y-91908641D01*
X175011228Y-91930684D01*
X174958731Y-91995995D01*
X174873637Y-92167570D01*
X174827416Y-92353428D01*
X174824500Y-92396433D01*
X174824500Y-93309567D01*
X174827416Y-93352571D01*
X174873637Y-93538429D01*
X174958731Y-93710004D01*
X174958734Y-93710009D01*
X175011227Y-93775314D01*
X175037885Y-93839898D01*
X175025394Y-93908642D01*
X175011227Y-93930686D01*
X174958734Y-93995990D01*
X174958731Y-93995995D01*
X174873637Y-94167570D01*
X174827416Y-94353428D01*
X174824500Y-94396433D01*
X174824500Y-95309567D01*
X174827416Y-95352571D01*
X174873637Y-95538429D01*
X174958731Y-95710004D01*
X174958734Y-95710009D01*
X175011227Y-95775314D01*
X175037885Y-95839898D01*
X175025394Y-95908642D01*
X175011227Y-95930686D01*
X174958734Y-95995990D01*
X174958731Y-95995995D01*
X174873637Y-96167570D01*
X174827416Y-96353428D01*
X174824500Y-96396433D01*
X174824500Y-97309567D01*
X174827416Y-97352571D01*
X174873637Y-97538429D01*
X174958731Y-97710004D01*
X174958735Y-97710010D01*
X175011226Y-97775312D01*
X175037885Y-97839896D01*
X175025394Y-97908640D01*
X175011228Y-97930685D01*
X174958731Y-97995995D01*
X174873637Y-98167570D01*
X174827416Y-98353428D01*
X174824500Y-98396433D01*
X174824500Y-99309567D01*
X174827416Y-99352571D01*
X174873637Y-99538429D01*
X174958731Y-99710004D01*
X175011227Y-99775313D01*
X175037885Y-99839897D01*
X175025394Y-99908641D01*
X175011228Y-99930684D01*
X174958731Y-99995995D01*
X174873637Y-100167570D01*
X174827416Y-100353428D01*
X174824500Y-100396433D01*
X174824500Y-101309567D01*
X174827416Y-101352571D01*
X174873637Y-101538429D01*
X174958731Y-101710004D01*
X174958735Y-101710010D01*
X175011226Y-101775312D01*
X175037885Y-101839896D01*
X175025394Y-101908640D01*
X175011228Y-101930685D01*
X174958731Y-101995995D01*
X174873637Y-102167570D01*
X174827416Y-102353428D01*
X174824500Y-102396433D01*
X174824500Y-103309567D01*
X174827416Y-103352571D01*
X174873637Y-103538429D01*
X174958731Y-103710004D01*
X174958735Y-103710010D01*
X175011226Y-103775312D01*
X175037885Y-103839896D01*
X175025394Y-103908640D01*
X175011228Y-103930685D01*
X174958731Y-103995995D01*
X174873637Y-104167570D01*
X174827416Y-104353428D01*
X174824500Y-104396433D01*
X174824500Y-105309567D01*
X174827416Y-105352571D01*
X174873637Y-105538429D01*
X174950512Y-105693432D01*
X174958732Y-105710005D01*
X175078721Y-105859279D01*
X175227995Y-105979268D01*
X175399572Y-106064363D01*
X175585428Y-106110583D01*
X175585432Y-106110584D01*
X175624020Y-106113200D01*
X175628433Y-106113500D01*
X175628434Y-106113500D01*
X178021567Y-106113500D01*
X178024940Y-106113271D01*
X178064568Y-106110584D01*
X178250428Y-106064363D01*
X178422005Y-105979268D01*
X178571279Y-105859279D01*
X178691268Y-105710005D01*
X178776363Y-105538428D01*
X178822584Y-105352568D01*
X178825500Y-105309566D01*
X178825500Y-104396434D01*
X178822584Y-104353432D01*
X178776363Y-104167572D01*
X178691268Y-103995995D01*
X178667154Y-103965995D01*
X178638771Y-103930685D01*
X178612113Y-103866100D01*
X178624604Y-103797356D01*
X178638764Y-103775321D01*
X178691268Y-103710005D01*
X178776363Y-103538428D01*
X178822584Y-103352568D01*
X178825500Y-103309566D01*
X178825500Y-102396434D01*
X178822584Y-102353432D01*
X178776363Y-102167572D01*
X178691268Y-101995995D01*
X178638770Y-101930684D01*
X178612113Y-101866101D01*
X178624604Y-101797357D01*
X178638764Y-101775322D01*
X178691268Y-101710005D01*
X178776363Y-101538428D01*
X178822584Y-101352568D01*
X178825500Y-101309566D01*
X178825500Y-100396434D01*
X178822584Y-100353432D01*
X178776363Y-100167572D01*
X178691268Y-99995995D01*
X178638771Y-99930686D01*
X178612113Y-99866103D01*
X178624604Y-99797359D01*
X178638772Y-99775313D01*
X178645166Y-99767359D01*
X178691268Y-99710005D01*
X178776363Y-99538428D01*
X178822584Y-99352568D01*
X178825500Y-99309566D01*
X178825500Y-98396434D01*
X178822584Y-98353432D01*
X178776363Y-98167572D01*
X178691268Y-97995995D01*
X178638771Y-97930685D01*
X178612113Y-97866100D01*
X178624604Y-97797356D01*
X178638764Y-97775321D01*
X178691268Y-97710005D01*
X178776363Y-97538428D01*
X178822584Y-97352568D01*
X178825500Y-97309566D01*
X178825500Y-96396434D01*
X178822584Y-96353432D01*
X178776363Y-96167572D01*
X178691268Y-95995995D01*
X178638771Y-95930685D01*
X178612113Y-95866100D01*
X178624604Y-95797356D01*
X178638764Y-95775321D01*
X178691268Y-95710005D01*
X178776363Y-95538428D01*
X178822584Y-95352568D01*
X178825500Y-95309566D01*
X178825500Y-94396434D01*
X178822584Y-94353432D01*
X178776363Y-94167572D01*
X178691268Y-93995995D01*
X178638770Y-93930684D01*
X178612113Y-93866101D01*
X178624604Y-93797357D01*
X178638764Y-93775322D01*
X178691268Y-93710005D01*
X178776363Y-93538428D01*
X178822584Y-93352568D01*
X178825500Y-93309566D01*
X178825500Y-92396434D01*
X178822584Y-92353432D01*
X178776363Y-92167572D01*
X178691268Y-91995995D01*
X178638771Y-91930686D01*
X178612113Y-91866103D01*
X178624604Y-91797359D01*
X178638772Y-91775313D01*
X178645300Y-91767192D01*
X178691268Y-91710005D01*
X178776363Y-91538428D01*
X178822584Y-91352568D01*
X178825500Y-91309566D01*
X178825500Y-90396434D01*
X178822584Y-90353432D01*
X178776363Y-90167572D01*
X178691268Y-89995995D01*
X178638771Y-89930685D01*
X178612113Y-89866100D01*
X178624604Y-89797356D01*
X178638764Y-89775321D01*
X178691268Y-89710005D01*
X178776363Y-89538428D01*
X178822584Y-89352568D01*
X178825500Y-89309566D01*
X178825500Y-88396434D01*
X178822584Y-88353432D01*
X178776363Y-88167572D01*
X178691268Y-87995995D01*
X178638771Y-87930685D01*
X178612113Y-87866100D01*
X178624604Y-87797356D01*
X178638764Y-87775321D01*
X178691268Y-87710005D01*
X178776363Y-87538428D01*
X178822584Y-87352568D01*
X178825500Y-87309566D01*
X178825500Y-86396434D01*
X178822584Y-86353432D01*
X178776363Y-86167572D01*
X178691268Y-85995995D01*
X178638770Y-85930684D01*
X178612113Y-85866101D01*
X178624604Y-85797357D01*
X178638764Y-85775322D01*
X178691268Y-85710005D01*
X178708246Y-85675772D01*
X181375779Y-85675772D01*
X181428370Y-85697556D01*
X181545676Y-85712999D01*
X184214324Y-85712999D01*
X184331622Y-85697557D01*
X184331634Y-85697554D01*
X184384220Y-85675772D01*
X183714896Y-85006449D01*
X183442644Y-85278701D01*
X183381321Y-85312186D01*
X183354963Y-85315020D01*
X183265037Y-85315020D01*
X183197998Y-85295335D01*
X183177356Y-85278701D01*
X182880000Y-84981345D01*
X182585843Y-85275501D01*
X182524520Y-85308986D01*
X182454828Y-85304002D01*
X182448632Y-85300020D01*
X182414612Y-85300020D01*
X182398190Y-85308986D01*
X182328499Y-85303999D01*
X182284156Y-85275500D01*
X182030105Y-85021449D01*
X182030104Y-85021449D01*
X181375779Y-85675772D01*
X178708246Y-85675772D01*
X178776363Y-85538428D01*
X178822584Y-85352568D01*
X178825500Y-85309566D01*
X178825500Y-85152324D01*
X180985000Y-85152324D01*
X181000442Y-85269627D01*
X181022226Y-85322220D01*
X181596447Y-84748000D01*
X181921268Y-84748000D01*
X181941399Y-84796601D01*
X181977369Y-84811500D01*
X182002631Y-84811500D01*
X182038601Y-84796601D01*
X182042121Y-84788104D01*
X182263449Y-84788104D01*
X182435000Y-84959655D01*
X182646655Y-84748000D01*
X182811268Y-84748000D01*
X182831399Y-84796601D01*
X182867369Y-84811500D01*
X182892631Y-84811500D01*
X182928601Y-84796601D01*
X182948732Y-84748000D01*
X183113345Y-84748000D01*
X183310000Y-84944655D01*
X183481551Y-84773104D01*
X183456447Y-84748000D01*
X183671268Y-84748000D01*
X183691399Y-84796601D01*
X183727369Y-84811500D01*
X183752631Y-84811500D01*
X183788601Y-84796601D01*
X183808732Y-84748000D01*
X183788601Y-84699399D01*
X183752631Y-84684500D01*
X183727369Y-84684500D01*
X183691399Y-84699399D01*
X183671268Y-84748000D01*
X183456447Y-84748000D01*
X183284896Y-84576449D01*
X183113345Y-84748000D01*
X182948732Y-84748000D01*
X182928601Y-84699399D01*
X182892631Y-84684500D01*
X182867369Y-84684500D01*
X182831399Y-84699399D01*
X182811268Y-84748000D01*
X182646655Y-84748000D01*
X182475104Y-84576449D01*
X182263449Y-84788104D01*
X182042121Y-84788104D01*
X182058732Y-84748000D01*
X182038601Y-84699399D01*
X182002631Y-84684500D01*
X181977369Y-84684500D01*
X181941399Y-84699399D01*
X181921268Y-84748000D01*
X181596447Y-84748000D01*
X181676551Y-84667896D01*
X181462498Y-84453843D01*
X181429013Y-84392520D01*
X181433997Y-84322828D01*
X181457979Y-84285512D01*
X181457979Y-84283000D01*
X181758345Y-84283000D01*
X181909896Y-84434550D01*
X182001343Y-84343103D01*
X182708449Y-84343103D01*
X182880000Y-84514653D01*
X183051550Y-84343103D01*
X182896341Y-84187894D01*
X183603449Y-84187894D01*
X183835104Y-84419550D01*
X183971655Y-84283000D01*
X183740000Y-84051344D01*
X183603449Y-84187894D01*
X182896341Y-84187894D01*
X182880000Y-84171553D01*
X182708449Y-84343103D01*
X182001343Y-84343103D01*
X182141551Y-84202896D01*
X181990000Y-84051345D01*
X181758345Y-84283000D01*
X181457979Y-84283000D01*
X181457978Y-84279243D01*
X181429013Y-84226196D01*
X181433997Y-84156504D01*
X181462498Y-84112157D01*
X181756655Y-83818000D01*
X181921268Y-83818000D01*
X181941399Y-83866601D01*
X181977369Y-83881500D01*
X182002631Y-83881500D01*
X182038601Y-83866601D01*
X182058732Y-83818000D01*
X182223345Y-83818000D01*
X182374895Y-83969550D01*
X182526444Y-83818000D01*
X182811268Y-83818000D01*
X182831399Y-83866601D01*
X182867369Y-83881500D01*
X182892631Y-83881500D01*
X182928601Y-83866601D01*
X182948732Y-83818000D01*
X182948732Y-83817999D01*
X183233553Y-83817999D01*
X183370104Y-83954549D01*
X183506653Y-83818000D01*
X183671268Y-83818000D01*
X183691399Y-83866601D01*
X183727369Y-83881500D01*
X183752631Y-83881500D01*
X183788601Y-83866601D01*
X183808732Y-83818000D01*
X183788601Y-83769399D01*
X183752631Y-83754500D01*
X183727369Y-83754500D01*
X183691399Y-83769399D01*
X183671268Y-83818000D01*
X183506653Y-83818000D01*
X183506654Y-83817999D01*
X183370104Y-83681449D01*
X183233553Y-83817999D01*
X182948732Y-83817999D01*
X182928601Y-83769399D01*
X182892631Y-83754500D01*
X182867369Y-83754500D01*
X182831399Y-83769399D01*
X182811268Y-83818000D01*
X182526444Y-83818000D01*
X182526446Y-83817998D01*
X182376732Y-83668285D01*
X182373057Y-83668286D01*
X182223345Y-83818000D01*
X182058732Y-83818000D01*
X182038601Y-83769399D01*
X182002631Y-83754500D01*
X181977369Y-83754500D01*
X181941399Y-83769399D01*
X181921268Y-83818000D01*
X181756655Y-83818000D01*
X181990000Y-83584655D01*
X182136654Y-83437998D01*
X182076550Y-83377894D01*
X182793449Y-83377894D01*
X182879999Y-83464445D01*
X182896340Y-83448104D01*
X183603449Y-83448104D01*
X184267501Y-84112156D01*
X184300986Y-84173479D01*
X184296002Y-84243171D01*
X184272020Y-84280486D01*
X184272020Y-84286756D01*
X184300986Y-84339802D01*
X184296002Y-84409494D01*
X184267501Y-84453843D01*
X184068449Y-84652895D01*
X184068449Y-84652896D01*
X184737772Y-85322220D01*
X184759554Y-85269634D01*
X184759555Y-85269630D01*
X184774999Y-85152330D01*
X184774999Y-83303000D01*
X190765000Y-83303000D01*
X196585610Y-83303000D01*
X196652649Y-83322685D01*
X196698404Y-83375489D01*
X196705943Y-83397070D01*
X196712969Y-83425319D01*
X196733637Y-83508429D01*
X196818731Y-83680004D01*
X196818734Y-83680009D01*
X196871227Y-83745314D01*
X196897885Y-83809898D01*
X196885394Y-83878642D01*
X196871227Y-83900686D01*
X196818734Y-83965990D01*
X196818731Y-83965995D01*
X196733637Y-84137570D01*
X196687416Y-84323428D01*
X196684500Y-84366433D01*
X196684500Y-85279567D01*
X196687416Y-85322571D01*
X196733637Y-85508429D01*
X196818731Y-85680004D01*
X196818735Y-85680010D01*
X196871226Y-85745312D01*
X196897885Y-85809896D01*
X196885394Y-85878640D01*
X196871228Y-85900685D01*
X196818731Y-85965995D01*
X196733637Y-86137570D01*
X196687416Y-86323428D01*
X196684500Y-86366433D01*
X196684500Y-87279567D01*
X196687416Y-87322571D01*
X196733637Y-87508429D01*
X196818731Y-87680004D01*
X196871227Y-87745313D01*
X196897885Y-87809897D01*
X196885394Y-87878641D01*
X196871228Y-87900684D01*
X196818731Y-87965995D01*
X196733637Y-88137570D01*
X196687416Y-88323428D01*
X196684500Y-88366433D01*
X196684500Y-89279567D01*
X196687416Y-89322571D01*
X196733637Y-89508429D01*
X196818731Y-89680004D01*
X196818735Y-89680010D01*
X196871226Y-89745312D01*
X196897885Y-89809896D01*
X196885394Y-89878640D01*
X196871228Y-89900685D01*
X196818731Y-89965995D01*
X196733637Y-90137570D01*
X196687416Y-90323428D01*
X196684500Y-90366433D01*
X196684500Y-91279567D01*
X196687416Y-91322571D01*
X196733637Y-91508429D01*
X196818731Y-91680004D01*
X196818734Y-91680009D01*
X196871227Y-91745314D01*
X196897885Y-91809898D01*
X196885394Y-91878642D01*
X196871227Y-91900686D01*
X196818734Y-91965990D01*
X196818731Y-91965995D01*
X196733637Y-92137570D01*
X196687416Y-92323428D01*
X196684500Y-92366433D01*
X196684500Y-93279567D01*
X196687416Y-93322571D01*
X196733637Y-93508429D01*
X196818731Y-93680004D01*
X196818734Y-93680009D01*
X196871227Y-93745314D01*
X196897885Y-93809898D01*
X196885394Y-93878642D01*
X196871227Y-93900686D01*
X196818734Y-93965990D01*
X196818731Y-93965995D01*
X196733637Y-94137570D01*
X196687416Y-94323428D01*
X196684500Y-94366433D01*
X196684500Y-95279567D01*
X196687416Y-95322571D01*
X196733637Y-95508429D01*
X196818731Y-95680004D01*
X196871227Y-95745313D01*
X196897885Y-95809897D01*
X196885394Y-95878641D01*
X196871228Y-95900684D01*
X196818731Y-95965995D01*
X196733637Y-96137570D01*
X196687416Y-96323428D01*
X196684500Y-96366433D01*
X196684500Y-97279567D01*
X196687416Y-97322571D01*
X196733637Y-97508429D01*
X196818731Y-97680004D01*
X196818734Y-97680009D01*
X196871227Y-97745314D01*
X196897885Y-97809898D01*
X196885394Y-97878642D01*
X196871227Y-97900686D01*
X196818734Y-97965990D01*
X196818731Y-97965995D01*
X196733637Y-98137570D01*
X196687416Y-98323428D01*
X196684500Y-98366433D01*
X196684500Y-99279567D01*
X196687416Y-99322571D01*
X196733637Y-99508429D01*
X196818731Y-99680004D01*
X196818734Y-99680009D01*
X196871227Y-99745314D01*
X196897885Y-99809898D01*
X196885394Y-99878642D01*
X196871227Y-99900686D01*
X196818734Y-99965990D01*
X196818731Y-99965995D01*
X196733637Y-100137570D01*
X196687416Y-100323428D01*
X196684500Y-100366433D01*
X196684500Y-101279567D01*
X196687416Y-101322571D01*
X196733637Y-101508429D01*
X196818731Y-101680004D01*
X196818735Y-101680010D01*
X196871226Y-101745312D01*
X196897885Y-101809896D01*
X196885394Y-101878640D01*
X196871228Y-101900685D01*
X196818731Y-101965995D01*
X196733637Y-102137570D01*
X196687416Y-102323428D01*
X196684500Y-102366433D01*
X196684500Y-103279567D01*
X196687416Y-103322571D01*
X196733637Y-103508429D01*
X196818731Y-103680004D01*
X196871227Y-103745313D01*
X196897885Y-103809897D01*
X196885394Y-103878641D01*
X196871228Y-103900684D01*
X196818731Y-103965995D01*
X196733637Y-104137570D01*
X196687416Y-104323428D01*
X196684500Y-104366433D01*
X196684500Y-105279567D01*
X196687416Y-105322571D01*
X196733637Y-105508429D01*
X196818730Y-105680001D01*
X196818732Y-105680005D01*
X196938721Y-105829279D01*
X197087995Y-105949268D01*
X197259572Y-106034363D01*
X197445428Y-106080583D01*
X197445432Y-106080584D01*
X197484020Y-106083200D01*
X197488433Y-106083500D01*
X197488434Y-106083500D01*
X199881567Y-106083500D01*
X199884940Y-106083271D01*
X199924568Y-106080584D01*
X200110428Y-106034363D01*
X200282005Y-105949268D01*
X200431279Y-105829279D01*
X200551268Y-105680005D01*
X200636363Y-105508428D01*
X200682584Y-105322568D01*
X200685500Y-105279566D01*
X200685500Y-104366434D01*
X200682584Y-104323432D01*
X200636363Y-104137572D01*
X200551268Y-103965995D01*
X200498770Y-103900684D01*
X200472113Y-103836101D01*
X200484604Y-103767357D01*
X200498764Y-103745322D01*
X200551268Y-103680005D01*
X200636363Y-103508428D01*
X200682584Y-103322568D01*
X200685500Y-103279566D01*
X200685500Y-102366434D01*
X200682584Y-102323432D01*
X200636363Y-102137572D01*
X200551268Y-101965995D01*
X200498771Y-101900685D01*
X200472113Y-101836100D01*
X200484604Y-101767356D01*
X200498764Y-101745321D01*
X200551268Y-101680005D01*
X200636363Y-101508428D01*
X200682584Y-101322568D01*
X200685500Y-101279566D01*
X200685500Y-100366434D01*
X200682584Y-100323432D01*
X200636363Y-100137572D01*
X200551268Y-99965995D01*
X200498771Y-99900686D01*
X200472113Y-99836103D01*
X200484604Y-99767359D01*
X200498772Y-99745313D01*
X200508823Y-99732809D01*
X200551268Y-99680005D01*
X200636363Y-99508428D01*
X200682584Y-99322568D01*
X200685500Y-99279566D01*
X200685500Y-98366434D01*
X200682584Y-98323432D01*
X200636363Y-98137572D01*
X200551268Y-97965995D01*
X200498770Y-97900684D01*
X200472113Y-97836101D01*
X200484604Y-97767357D01*
X200498764Y-97745322D01*
X200551268Y-97680005D01*
X200636363Y-97508428D01*
X200682584Y-97322568D01*
X200685500Y-97279566D01*
X200685500Y-96366434D01*
X200682584Y-96323432D01*
X200636363Y-96137572D01*
X200551268Y-95965995D01*
X200498770Y-95900684D01*
X200472113Y-95836101D01*
X200484604Y-95767357D01*
X200498764Y-95745322D01*
X200551268Y-95680005D01*
X200636363Y-95508428D01*
X200682584Y-95322568D01*
X200685500Y-95279566D01*
X200685500Y-94366434D01*
X200682584Y-94323432D01*
X200636363Y-94137572D01*
X200551268Y-93965995D01*
X200498771Y-93900685D01*
X200472113Y-93836100D01*
X200484604Y-93767356D01*
X200498764Y-93745321D01*
X200551268Y-93680005D01*
X200636363Y-93508428D01*
X200682584Y-93322568D01*
X200685500Y-93279566D01*
X200685500Y-92366434D01*
X200682584Y-92323432D01*
X200636363Y-92137572D01*
X200551268Y-91965995D01*
X200498771Y-91900686D01*
X200472113Y-91836103D01*
X200484604Y-91767359D01*
X200498772Y-91745313D01*
X200527154Y-91710004D01*
X200551268Y-91680005D01*
X200636363Y-91508428D01*
X200682584Y-91322568D01*
X200685500Y-91279566D01*
X200685500Y-90366434D01*
X200682584Y-90323432D01*
X200636363Y-90137572D01*
X200551268Y-89965995D01*
X200498770Y-89900684D01*
X200472113Y-89836101D01*
X200484604Y-89767357D01*
X200498764Y-89745322D01*
X200551268Y-89680005D01*
X200636363Y-89508428D01*
X200682584Y-89322568D01*
X200685500Y-89279566D01*
X200685500Y-88366434D01*
X200682584Y-88323432D01*
X200636363Y-88137572D01*
X200551268Y-87965995D01*
X200498770Y-87900684D01*
X200472113Y-87836101D01*
X200484604Y-87767357D01*
X200498764Y-87745322D01*
X200551268Y-87680005D01*
X200636363Y-87508428D01*
X200682584Y-87322568D01*
X200685500Y-87279566D01*
X200685500Y-86366434D01*
X200682584Y-86323432D01*
X200636363Y-86137572D01*
X200551268Y-85965995D01*
X200498771Y-85900685D01*
X200472113Y-85836100D01*
X200484604Y-85767356D01*
X200498764Y-85745321D01*
X200551268Y-85680005D01*
X200636363Y-85508428D01*
X200682584Y-85322568D01*
X200685500Y-85279566D01*
X200685500Y-84366434D01*
X200682584Y-84323432D01*
X200636363Y-84137572D01*
X200551268Y-83965995D01*
X200498771Y-83900686D01*
X200472113Y-83836103D01*
X200484604Y-83767359D01*
X200498772Y-83745313D01*
X200503419Y-83739532D01*
X200551268Y-83680005D01*
X200636363Y-83508428D01*
X200682584Y-83322568D01*
X200685500Y-83279566D01*
X200685500Y-82366434D01*
X200682584Y-82323432D01*
X200636363Y-82137572D01*
X200551268Y-81965995D01*
X200498770Y-81900684D01*
X200472113Y-81836101D01*
X200484604Y-81767357D01*
X200498764Y-81745322D01*
X200551268Y-81680005D01*
X200636363Y-81508428D01*
X200682584Y-81322568D01*
X200685500Y-81279566D01*
X200685500Y-80366434D01*
X200682584Y-80323432D01*
X200636363Y-80137572D01*
X200551268Y-79965995D01*
X200498770Y-79900684D01*
X200472113Y-79836101D01*
X200484604Y-79767357D01*
X200498764Y-79745322D01*
X200551268Y-79680005D01*
X200636363Y-79508428D01*
X200682584Y-79322568D01*
X200685500Y-79279566D01*
X200685500Y-78366434D01*
X200682584Y-78323432D01*
X200636363Y-78137572D01*
X200551268Y-77965995D01*
X200498771Y-77900685D01*
X200472113Y-77836100D01*
X200484604Y-77767356D01*
X200498764Y-77745321D01*
X200551268Y-77680005D01*
X200636363Y-77508428D01*
X200682584Y-77322568D01*
X200685500Y-77279566D01*
X200685500Y-76366434D01*
X200682584Y-76323432D01*
X200636363Y-76137572D01*
X200551268Y-75965995D01*
X200498771Y-75900686D01*
X200472113Y-75836103D01*
X200484604Y-75767359D01*
X200498772Y-75745313D01*
X200509926Y-75731437D01*
X200551268Y-75680005D01*
X200636363Y-75508428D01*
X200682584Y-75322568D01*
X200685500Y-75279566D01*
X200685500Y-74366434D01*
X200682584Y-74323432D01*
X200636363Y-74137572D01*
X200551268Y-73965995D01*
X200431279Y-73816721D01*
X200282005Y-73696732D01*
X200213306Y-73662660D01*
X200110429Y-73611637D01*
X199924569Y-73565416D01*
X199924573Y-73565416D01*
X199881567Y-73562500D01*
X199881566Y-73562500D01*
X197488434Y-73562500D01*
X197488433Y-73562500D01*
X197445428Y-73565416D01*
X197259570Y-73611637D01*
X197087998Y-73696730D01*
X197087996Y-73696731D01*
X197087995Y-73696732D01*
X196938721Y-73816721D01*
X196829167Y-73953014D01*
X196818730Y-73965998D01*
X196733637Y-74137570D01*
X196687416Y-74323428D01*
X196684500Y-74366433D01*
X196684500Y-75279567D01*
X196687416Y-75322571D01*
X196733637Y-75508429D01*
X196818731Y-75680004D01*
X196818734Y-75680009D01*
X196871227Y-75745314D01*
X196897885Y-75809898D01*
X196885394Y-75878642D01*
X196871227Y-75900686D01*
X196818734Y-75965990D01*
X196818731Y-75965995D01*
X196733637Y-76137570D01*
X196687416Y-76323428D01*
X196684500Y-76366433D01*
X196684500Y-77279567D01*
X196687416Y-77322571D01*
X196733637Y-77508429D01*
X196818731Y-77680004D01*
X196818734Y-77680009D01*
X196871227Y-77745314D01*
X196897885Y-77809898D01*
X196885394Y-77878642D01*
X196871227Y-77900686D01*
X196818734Y-77965990D01*
X196818731Y-77965995D01*
X196733637Y-78137570D01*
X196687416Y-78323428D01*
X196684500Y-78366433D01*
X196684500Y-79279567D01*
X196687416Y-79322571D01*
X196699847Y-79372554D01*
X196723850Y-79469076D01*
X196720927Y-79538882D01*
X196680727Y-79596028D01*
X196616012Y-79622369D01*
X196603516Y-79623000D01*
X190765000Y-79623000D01*
X190765000Y-83303000D01*
X184774999Y-83303000D01*
X184774999Y-82483675D01*
X184759557Y-82366371D01*
X184759555Y-82366366D01*
X184737773Y-82313778D01*
X183603449Y-83448103D01*
X183603449Y-83448104D01*
X182896340Y-83448104D01*
X182966550Y-83377896D01*
X182880000Y-83291345D01*
X182793449Y-83377894D01*
X182076550Y-83377894D01*
X181797867Y-83099212D01*
X181786087Y-83077639D01*
X181766448Y-83058000D01*
X181921268Y-83058000D01*
X181941399Y-83106601D01*
X181977369Y-83121500D01*
X182002631Y-83121500D01*
X182038601Y-83106601D01*
X182058732Y-83058000D01*
X182038601Y-83009399D01*
X182002631Y-82994500D01*
X181977369Y-82994500D01*
X181941399Y-83009399D01*
X181921268Y-83058000D01*
X181766448Y-83058000D01*
X181641343Y-82932895D01*
X182348449Y-82932895D01*
X182560103Y-83144550D01*
X182646654Y-83058000D01*
X182811268Y-83058000D01*
X182831399Y-83106601D01*
X182867369Y-83121500D01*
X182892631Y-83121500D01*
X182928601Y-83106601D01*
X182948732Y-83058000D01*
X183113345Y-83058000D01*
X183199896Y-83144550D01*
X183286446Y-83058000D01*
X183671268Y-83058000D01*
X183691399Y-83106601D01*
X183727369Y-83121500D01*
X183752631Y-83121500D01*
X183788601Y-83106601D01*
X183808732Y-83058000D01*
X183788601Y-83009399D01*
X183752631Y-82994500D01*
X183727369Y-82994500D01*
X183691399Y-83009399D01*
X183671268Y-83058000D01*
X183286446Y-83058000D01*
X183396551Y-82947895D01*
X183310000Y-82861345D01*
X183113345Y-83058000D01*
X182948732Y-83058000D01*
X182928601Y-83009399D01*
X182892631Y-82994500D01*
X182867369Y-82994500D01*
X182831399Y-83009399D01*
X182811268Y-83058000D01*
X182646654Y-83058000D01*
X182646655Y-83057999D01*
X182435001Y-82846345D01*
X182348449Y-82932895D01*
X181641343Y-82932895D01*
X181022226Y-82313778D01*
X181022225Y-82313778D01*
X181000444Y-82366366D01*
X180985000Y-82483669D01*
X180985000Y-85152324D01*
X178825500Y-85152324D01*
X178825500Y-84396434D01*
X178822584Y-84353432D01*
X178776363Y-84167572D01*
X178691268Y-83995995D01*
X178638771Y-83930686D01*
X178612113Y-83866103D01*
X178624604Y-83797359D01*
X178638772Y-83775313D01*
X178645166Y-83767359D01*
X178691268Y-83710005D01*
X178776363Y-83538428D01*
X178822584Y-83352568D01*
X178825500Y-83309566D01*
X178825500Y-82396434D01*
X178822584Y-82353432D01*
X178776363Y-82167572D01*
X178691268Y-81995995D01*
X178662516Y-81960226D01*
X181375778Y-81960226D01*
X182115103Y-82699549D01*
X182284156Y-82530497D01*
X182345479Y-82497012D01*
X182415170Y-82501996D01*
X182421368Y-82505979D01*
X182455381Y-82505979D01*
X182471798Y-82497014D01*
X182541490Y-82501995D01*
X182585842Y-82530498D01*
X182879999Y-82824655D01*
X183177357Y-82527298D01*
X183238680Y-82493813D01*
X183265038Y-82490979D01*
X183354962Y-82490979D01*
X183422001Y-82510664D01*
X183442643Y-82527298D01*
X183629896Y-82714551D01*
X183629897Y-82714551D01*
X184384220Y-81960226D01*
X184331631Y-81938444D01*
X184214323Y-81923000D01*
X181545675Y-81923000D01*
X181428370Y-81938443D01*
X181375778Y-81960225D01*
X181375778Y-81960226D01*
X178662516Y-81960226D01*
X178645007Y-81938443D01*
X178638450Y-81930286D01*
X178611792Y-81865702D01*
X178624283Y-81796958D01*
X178638452Y-81774911D01*
X178690844Y-81709733D01*
X178775889Y-81538256D01*
X178822085Y-81352503D01*
X178825000Y-81309527D01*
X178825000Y-80396473D01*
X178822085Y-80353496D01*
X178775889Y-80167743D01*
X178690844Y-79996266D01*
X178570923Y-79847077D01*
X178570922Y-79847076D01*
X178421734Y-79727156D01*
X178343298Y-79688253D01*
X178343296Y-79688254D01*
X176912680Y-81118871D01*
X176851357Y-81152356D01*
X176781665Y-81147372D01*
X176737318Y-81118871D01*
X175306702Y-79688254D01*
X175306700Y-79688253D01*
X175228265Y-79727156D01*
X175079077Y-79847076D01*
X175079076Y-79847077D01*
X174959155Y-79996266D01*
X174874110Y-80167743D01*
X174827914Y-80353496D01*
X174825000Y-80396473D01*
X174825000Y-81309527D01*
X174827914Y-81352503D01*
X174874110Y-81538256D01*
X174959155Y-81709733D01*
X175011548Y-81774914D01*
X175038206Y-81839498D01*
X175025715Y-81908242D01*
X175011548Y-81930286D01*
X174958734Y-81995990D01*
X174958731Y-81995995D01*
X174873637Y-82167570D01*
X174827416Y-82353429D01*
X174827416Y-82353432D01*
X174827317Y-82354886D01*
X174827091Y-82355497D01*
X174826571Y-82358818D01*
X174825906Y-82358713D01*
X174803145Y-82420440D01*
X174747368Y-82462519D01*
X174703602Y-82470500D01*
X169051000Y-82470500D01*
X168983961Y-82450815D01*
X168938206Y-82398011D01*
X168927000Y-82346500D01*
X168927000Y-80768000D01*
X169427000Y-80768000D01*
X169427000Y-82046000D01*
X170126999Y-82046000D01*
X170126999Y-81997692D01*
X170126998Y-81997677D01*
X170116855Y-81898392D01*
X170063547Y-81737518D01*
X170063542Y-81737507D01*
X169974575Y-81593271D01*
X169875985Y-81494680D01*
X169842501Y-81433357D01*
X169847485Y-81363665D01*
X169875986Y-81319317D01*
X169974576Y-81220727D01*
X170063542Y-81076492D01*
X170063547Y-81076481D01*
X170116855Y-80915606D01*
X170126999Y-80816322D01*
X170127000Y-80816309D01*
X170127000Y-80768000D01*
X169427000Y-80768000D01*
X168927000Y-80768000D01*
X168927000Y-78990000D01*
X169427000Y-78990000D01*
X169427000Y-80268000D01*
X170126999Y-80268000D01*
X170126999Y-80219692D01*
X170126998Y-80219677D01*
X170116855Y-80120392D01*
X170063547Y-79959518D01*
X170063542Y-79959507D01*
X169974575Y-79815271D01*
X169875985Y-79716680D01*
X169842501Y-79655357D01*
X169846960Y-79593000D01*
X175918552Y-79593000D01*
X176825000Y-80499447D01*
X177731447Y-79593000D01*
X175918552Y-79593000D01*
X169846960Y-79593000D01*
X169847485Y-79585665D01*
X169875986Y-79541317D01*
X169974576Y-79442727D01*
X170063542Y-79298492D01*
X170063547Y-79298481D01*
X170116855Y-79137606D01*
X170126999Y-79038322D01*
X170127000Y-79038309D01*
X170127000Y-78990000D01*
X169427000Y-78990000D01*
X168927000Y-78990000D01*
X168927000Y-77212000D01*
X169427000Y-77212000D01*
X169427000Y-78490000D01*
X170126999Y-78490000D01*
X170126999Y-78441692D01*
X170126998Y-78441677D01*
X170116855Y-78342392D01*
X170063547Y-78181518D01*
X170063542Y-78181507D01*
X169974575Y-78037271D01*
X169974572Y-78037267D01*
X169875986Y-77938681D01*
X169842501Y-77877358D01*
X169847485Y-77807666D01*
X169875986Y-77763319D01*
X169974572Y-77664732D01*
X169974575Y-77664728D01*
X170063542Y-77520492D01*
X170063547Y-77520481D01*
X170116855Y-77359606D01*
X170126999Y-77260322D01*
X170127000Y-77260309D01*
X170127000Y-77212000D01*
X169427000Y-77212000D01*
X168927000Y-77212000D01*
X168927000Y-76836000D01*
X168946685Y-76768961D01*
X168999489Y-76723206D01*
X169051000Y-76712000D01*
X170126999Y-76712000D01*
X170126999Y-76663692D01*
X170126998Y-76663677D01*
X170116855Y-76564392D01*
X170063547Y-76403518D01*
X170063542Y-76403507D01*
X169974575Y-76259271D01*
X169974572Y-76259267D01*
X169861486Y-76146181D01*
X169828001Y-76084858D01*
X169832985Y-76015166D01*
X169874857Y-75959233D01*
X169940321Y-75934816D01*
X169949167Y-75934500D01*
X171357500Y-75934500D01*
X171424539Y-75954185D01*
X171470294Y-76006989D01*
X171481500Y-76058500D01*
X171481500Y-77747870D01*
X171481501Y-77747876D01*
X171487908Y-77807483D01*
X171538202Y-77942328D01*
X171538206Y-77942335D01*
X171624452Y-78057544D01*
X171624455Y-78057547D01*
X171739664Y-78143793D01*
X171739671Y-78143797D01*
X171874517Y-78194091D01*
X171874516Y-78194091D01*
X171881444Y-78194835D01*
X171934127Y-78200500D01*
X175029872Y-78200499D01*
X175089483Y-78194091D01*
X175224331Y-78143796D01*
X175339546Y-78057546D01*
X175425796Y-77942331D01*
X175476091Y-77807483D01*
X175482500Y-77747873D01*
X175482499Y-74652128D01*
X175476091Y-74592517D01*
X175425796Y-74457669D01*
X175425795Y-74457668D01*
X175425793Y-74457664D01*
X175339547Y-74342455D01*
X175339544Y-74342452D01*
X175224335Y-74256206D01*
X175224328Y-74256202D01*
X175089482Y-74205908D01*
X175089483Y-74205908D01*
X175029883Y-74199501D01*
X175029881Y-74199500D01*
X175029873Y-74199500D01*
X175029864Y-74199500D01*
X171934129Y-74199500D01*
X171934123Y-74199501D01*
X171874516Y-74205908D01*
X171739671Y-74256202D01*
X171739664Y-74256206D01*
X171624456Y-74342451D01*
X171624453Y-74342454D01*
X171624454Y-74342454D01*
X171593493Y-74383812D01*
X171537561Y-74425682D01*
X171494228Y-74433500D01*
X168501500Y-74433500D01*
X168434461Y-74413815D01*
X168388706Y-74361011D01*
X168377500Y-74309500D01*
X168377500Y-73400229D01*
X168397185Y-73333190D01*
X168413819Y-73312548D01*
X170581548Y-71144819D01*
X170642871Y-71111334D01*
X170669229Y-71108500D01*
X175450295Y-71108500D01*
X175468265Y-71109809D01*
X175492023Y-71113289D01*
X175544068Y-71108735D01*
X175549470Y-71108500D01*
X175557704Y-71108500D01*
X175557709Y-71108500D01*
X175569327Y-71107141D01*
X175590276Y-71104693D01*
X175603028Y-71103577D01*
X175666797Y-71097999D01*
X175666805Y-71097996D01*
X175673866Y-71096539D01*
X175673878Y-71096598D01*
X175681243Y-71094965D01*
X175681229Y-71094906D01*
X175688246Y-71093241D01*
X175688255Y-71093241D01*
X175760423Y-71066974D01*
X175833334Y-71042814D01*
X175833343Y-71042807D01*
X175839882Y-71039760D01*
X175839908Y-71039816D01*
X175846690Y-71036532D01*
X175846663Y-71036478D01*
X175853106Y-71033240D01*
X175853117Y-71033237D01*
X175917283Y-70991034D01*
X175982656Y-70950712D01*
X175982662Y-70950705D01*
X175988325Y-70946229D01*
X175988363Y-70946277D01*
X175994200Y-70941522D01*
X175994161Y-70941475D01*
X175999696Y-70936830D01*
X176052385Y-70880983D01*
X176836559Y-70096808D01*
X177099220Y-69834146D01*
X177160541Y-69800663D01*
X177207303Y-69799520D01*
X177306059Y-69816000D01*
X177306062Y-69816000D01*
X177531940Y-69816000D01*
X177531941Y-69816000D01*
X177754743Y-69778821D01*
X177968387Y-69705477D01*
X178167045Y-69597968D01*
X178345298Y-69459228D01*
X178498285Y-69293041D01*
X178621831Y-69103939D01*
X178712567Y-68897082D01*
X178768018Y-68678111D01*
X178786671Y-68453000D01*
X178786524Y-68451227D01*
X178771108Y-68265180D01*
X178768018Y-68227889D01*
X178712567Y-68008918D01*
X178621831Y-67802061D01*
X178599505Y-67767888D01*
X178498284Y-67612957D01*
X178345301Y-67446775D01*
X178345298Y-67446772D01*
X178249943Y-67372554D01*
X178167045Y-67308032D01*
X178167043Y-67308031D01*
X178167042Y-67308030D01*
X178136997Y-67291771D01*
X178087407Y-67242551D01*
X178072299Y-67174334D01*
X178096470Y-67108779D01*
X178136998Y-67073661D01*
X178166768Y-67057550D01*
X178191076Y-67038629D01*
X177609086Y-66456639D01*
X177708981Y-66415262D01*
X177829095Y-66323095D01*
X177921262Y-66202981D01*
X177962639Y-66103087D01*
X178543093Y-66683541D01*
X178621389Y-66563702D01*
X178712092Y-66356920D01*
X178767523Y-66138029D01*
X178767525Y-66138021D01*
X178786170Y-65913006D01*
X178786170Y-65912993D01*
X178767525Y-65687978D01*
X178767523Y-65687970D01*
X178712092Y-65469079D01*
X178621391Y-65262302D01*
X178543093Y-65142457D01*
X177962638Y-65722912D01*
X177921262Y-65623019D01*
X177829095Y-65502905D01*
X177708981Y-65410738D01*
X177609085Y-65369360D01*
X178191076Y-64787369D01*
X178191076Y-64787367D01*
X178166779Y-64768456D01*
X178166768Y-64768449D01*
X178136996Y-64752337D01*
X178087406Y-64703117D01*
X178072299Y-64634901D01*
X178096470Y-64569345D01*
X178136998Y-64534228D01*
X178167045Y-64517968D01*
X178345298Y-64379228D01*
X178498285Y-64213041D01*
X178621831Y-64023939D01*
X178712567Y-63817082D01*
X178768018Y-63598111D01*
X178778257Y-63474544D01*
X178786671Y-63373005D01*
X178786671Y-63372994D01*
X178771911Y-63194870D01*
X178768018Y-63147889D01*
X178712567Y-62928918D01*
X178621831Y-62722061D01*
X178585203Y-62665998D01*
X178498284Y-62532957D01*
X178345301Y-62366775D01*
X178345298Y-62366772D01*
X178214778Y-62265184D01*
X178167045Y-62228032D01*
X178167043Y-62228031D01*
X178167042Y-62228030D01*
X177968387Y-62120523D01*
X177968379Y-62120520D01*
X177754746Y-62047179D01*
X177587641Y-62019294D01*
X177531941Y-62010000D01*
X177306059Y-62010000D01*
X177261498Y-62017435D01*
X177083253Y-62047179D01*
X176869620Y-62120520D01*
X176869612Y-62120523D01*
X176670957Y-62228030D01*
X176492701Y-62366772D01*
X176492698Y-62366775D01*
X176339715Y-62532957D01*
X176216168Y-62722061D01*
X176125433Y-62928917D01*
X176069981Y-63147892D01*
X176051329Y-63372994D01*
X176051329Y-63373000D01*
X176054894Y-63416019D01*
X176070021Y-63598586D01*
X176055939Y-63667022D01*
X176034125Y-63696506D01*
X175493451Y-64237181D01*
X175432128Y-64270666D01*
X175405770Y-64273500D01*
X174217499Y-64273500D01*
X174150460Y-64253815D01*
X174104705Y-64201011D01*
X174093499Y-64149500D01*
X174093499Y-63226129D01*
X174093498Y-63226123D01*
X174093497Y-63226116D01*
X174087091Y-63166517D01*
X174086474Y-63164864D01*
X174036797Y-63031671D01*
X174036793Y-63031664D01*
X173950547Y-62916455D01*
X173950544Y-62916452D01*
X173835335Y-62830206D01*
X173835328Y-62830202D01*
X173700482Y-62779908D01*
X173700483Y-62779908D01*
X173640883Y-62773501D01*
X173640881Y-62773500D01*
X173640873Y-62773500D01*
X173640864Y-62773500D01*
X171545129Y-62773500D01*
X171545123Y-62773501D01*
X171485516Y-62779908D01*
X171350671Y-62830202D01*
X171350669Y-62830203D01*
X171317310Y-62855176D01*
X171251845Y-62879592D01*
X171183572Y-62864740D01*
X171168690Y-62855176D01*
X171135330Y-62830203D01*
X171135328Y-62830202D01*
X171000482Y-62779908D01*
X171000483Y-62779908D01*
X170940883Y-62773501D01*
X170940881Y-62773500D01*
X170940873Y-62773500D01*
X170940864Y-62773500D01*
X168845129Y-62773500D01*
X168845123Y-62773501D01*
X168785516Y-62779908D01*
X168650671Y-62830202D01*
X168650664Y-62830206D01*
X168535455Y-62916452D01*
X168535452Y-62916455D01*
X168449206Y-63031664D01*
X168449202Y-63031671D01*
X168398908Y-63166517D01*
X168392677Y-63224482D01*
X168392501Y-63226123D01*
X168392500Y-63226135D01*
X168392500Y-64149500D01*
X168372815Y-64216539D01*
X168320011Y-64262294D01*
X168268500Y-64273500D01*
X166810229Y-64273500D01*
X166743190Y-64253815D01*
X166722548Y-64237181D01*
X166284206Y-63798839D01*
X166250721Y-63737516D01*
X166254181Y-63672154D01*
X166257327Y-63662660D01*
X166304999Y-63518797D01*
X166315500Y-63416009D01*
X166315499Y-62665992D01*
X166313593Y-62647337D01*
X166304999Y-62563203D01*
X166304998Y-62563200D01*
X166254181Y-62409844D01*
X166251779Y-62340016D01*
X166284204Y-62283161D01*
X166408445Y-62158921D01*
X166408450Y-62158917D01*
X166418654Y-62148712D01*
X166418656Y-62148712D01*
X166601644Y-61965721D01*
X166615271Y-61953946D01*
X166634530Y-61939610D01*
X166668123Y-61899573D01*
X166671751Y-61895614D01*
X166677590Y-61889777D01*
X166677589Y-61889777D01*
X166687591Y-61879776D01*
X166687590Y-61879776D01*
X166715652Y-61851719D01*
X166723460Y-61834411D01*
X166734212Y-61820813D01*
X166747302Y-61805214D01*
X166747307Y-61805203D01*
X166749541Y-61801807D01*
X166752709Y-61797419D01*
X166769111Y-61776677D01*
X166843257Y-61617672D01*
X166878734Y-61445855D01*
X166873631Y-61270487D01*
X166870725Y-61259641D01*
X166866500Y-61227548D01*
X166866500Y-58712602D01*
X166886185Y-58645563D01*
X166938989Y-58599808D01*
X167008147Y-58589864D01*
X167026496Y-58593941D01*
X167136000Y-58627158D01*
X167136000Y-57865672D01*
X167173871Y-57910805D01*
X167273129Y-57968112D01*
X167357564Y-57983000D01*
X167414436Y-57983000D01*
X167498871Y-57968112D01*
X167598129Y-57910805D01*
X167600483Y-57908000D01*
X167636000Y-57908000D01*
X167636000Y-58627159D01*
X167770534Y-58586349D01*
X167944260Y-58493491D01*
X168096528Y-58368528D01*
X168221492Y-58216260D01*
X168221496Y-58216253D01*
X168314347Y-58042541D01*
X168355160Y-57908000D01*
X167636000Y-57908000D01*
X167600483Y-57908000D01*
X167671801Y-57823007D01*
X167711000Y-57715306D01*
X167711000Y-57600694D01*
X167671801Y-57492993D01*
X167598129Y-57405195D01*
X167498871Y-57347888D01*
X167414436Y-57333000D01*
X167357564Y-57333000D01*
X167273129Y-57347888D01*
X167173871Y-57405195D01*
X167136000Y-57450327D01*
X167136000Y-56688839D01*
X167636000Y-56688839D01*
X167636000Y-57408000D01*
X168355160Y-57408000D01*
X168355160Y-57407999D01*
X168314347Y-57273458D01*
X168221496Y-57099746D01*
X168221492Y-57099739D01*
X168096528Y-56947471D01*
X167944260Y-56822507D01*
X167944253Y-56822503D01*
X167770541Y-56729652D01*
X167636000Y-56688839D01*
X167136000Y-56688839D01*
X167135999Y-56688839D01*
X167001464Y-56729650D01*
X166999586Y-56730655D01*
X166998486Y-56730883D01*
X166995838Y-56731981D01*
X166995629Y-56731478D01*
X166931183Y-56744895D01*
X166866824Y-56720561D01*
X166858335Y-56714206D01*
X166858328Y-56714202D01*
X166723482Y-56663908D01*
X166723483Y-56663908D01*
X166663883Y-56657501D01*
X166663881Y-56657500D01*
X166663873Y-56657500D01*
X166663864Y-56657500D01*
X165568129Y-56657500D01*
X165568123Y-56657501D01*
X165508516Y-56663908D01*
X165373671Y-56714202D01*
X165373664Y-56714206D01*
X165258455Y-56800452D01*
X165258452Y-56800455D01*
X165172206Y-56915664D01*
X165172202Y-56915671D01*
X165121908Y-57050517D01*
X165115501Y-57110116D01*
X165115500Y-57110135D01*
X165115500Y-58205870D01*
X165115501Y-58205876D01*
X165121908Y-58265483D01*
X165172202Y-58400328D01*
X165172203Y-58400329D01*
X165172204Y-58400331D01*
X165241944Y-58493491D01*
X165258452Y-58515543D01*
X165258455Y-58515547D01*
X165315810Y-58558482D01*
X165357682Y-58614415D01*
X165365500Y-58657749D01*
X165365500Y-61027769D01*
X165345815Y-61094808D01*
X165329181Y-61115450D01*
X164515449Y-61929181D01*
X164454126Y-61962666D01*
X164427768Y-61965500D01*
X163314998Y-61965500D01*
X163314981Y-61965501D01*
X163212203Y-61976000D01*
X163212200Y-61976001D01*
X163045668Y-62031185D01*
X163045663Y-62031187D01*
X162896342Y-62123289D01*
X162772289Y-62247342D01*
X162680187Y-62396663D01*
X162680185Y-62396668D01*
X162652349Y-62480670D01*
X162625001Y-62563203D01*
X162625001Y-62563204D01*
X162625000Y-62563204D01*
X162614500Y-62665983D01*
X162614500Y-63416001D01*
X162614501Y-63416019D01*
X162625000Y-63518796D01*
X162625001Y-63518799D01*
X162680185Y-63685331D01*
X162680187Y-63685336D01*
X162699409Y-63716500D01*
X162772288Y-63834656D01*
X162896344Y-63958712D01*
X163045666Y-64050814D01*
X163212203Y-64105999D01*
X163314991Y-64116500D01*
X164427769Y-64116499D01*
X164494808Y-64136184D01*
X164515450Y-64152818D01*
X165066951Y-64704319D01*
X165100436Y-64765642D01*
X165095452Y-64835334D01*
X165053580Y-64891267D01*
X164988116Y-64915684D01*
X164979270Y-64916000D01*
X164715000Y-64916000D01*
X164715000Y-65741000D01*
X166196419Y-65741000D01*
X166221494Y-65743562D01*
X166285533Y-65756785D01*
X166346735Y-65771290D01*
X166360279Y-65774500D01*
X166360288Y-65774500D01*
X166367452Y-65775338D01*
X166367445Y-65775397D01*
X166374946Y-65776163D01*
X166374952Y-65776104D01*
X166382140Y-65776733D01*
X166382143Y-65776732D01*
X166382144Y-65776733D01*
X166458898Y-65774500D01*
X168268501Y-65774500D01*
X168335540Y-65794185D01*
X168381295Y-65846989D01*
X168392501Y-65898500D01*
X168392501Y-66821876D01*
X168398908Y-66881483D01*
X168449202Y-67016328D01*
X168449206Y-67016335D01*
X168535452Y-67131544D01*
X168535455Y-67131547D01*
X168650664Y-67217793D01*
X168650671Y-67217797D01*
X168785517Y-67268091D01*
X168785516Y-67268091D01*
X168792444Y-67268835D01*
X168845127Y-67274500D01*
X170940872Y-67274499D01*
X171000483Y-67268091D01*
X171036968Y-67254483D01*
X171135329Y-67217797D01*
X171135329Y-67217796D01*
X171135331Y-67217796D01*
X171168689Y-67192823D01*
X171234151Y-67168406D01*
X171302425Y-67183257D01*
X171317305Y-67192820D01*
X171350669Y-67217796D01*
X171350670Y-67217796D01*
X171350670Y-67217797D01*
X171485517Y-67268091D01*
X171485516Y-67268091D01*
X171492444Y-67268835D01*
X171545127Y-67274500D01*
X173640872Y-67274499D01*
X173700483Y-67268091D01*
X173835331Y-67217796D01*
X173950546Y-67131546D01*
X174036796Y-67016331D01*
X174087091Y-66881483D01*
X174093500Y-66821873D01*
X174093500Y-65898500D01*
X174113185Y-65831461D01*
X174165989Y-65785706D01*
X174217500Y-65774500D01*
X175704295Y-65774500D01*
X175722265Y-65775809D01*
X175746023Y-65779289D01*
X175798068Y-65774735D01*
X175803470Y-65774500D01*
X175811704Y-65774500D01*
X175811709Y-65774500D01*
X175823327Y-65773141D01*
X175844276Y-65770693D01*
X175890306Y-65766666D01*
X175918693Y-65764183D01*
X175987193Y-65777950D01*
X176037376Y-65826566D01*
X176053309Y-65894594D01*
X176053077Y-65897947D01*
X176051830Y-65913001D01*
X176051830Y-65913006D01*
X176070474Y-66138021D01*
X176070476Y-66138029D01*
X176125907Y-66356920D01*
X176216609Y-66563700D01*
X176294904Y-66683540D01*
X176875360Y-66103085D01*
X176916738Y-66202981D01*
X177008905Y-66323095D01*
X177129019Y-66415262D01*
X177228913Y-66456639D01*
X176646922Y-67038629D01*
X176671231Y-67057550D01*
X176671234Y-67057552D01*
X176701001Y-67073661D01*
X176750592Y-67122880D01*
X176765700Y-67191097D01*
X176741530Y-67256653D01*
X176701003Y-67291770D01*
X176670960Y-67308028D01*
X176670958Y-67308029D01*
X176492701Y-67446772D01*
X176492698Y-67446775D01*
X176339715Y-67612957D01*
X176216168Y-67802061D01*
X176125433Y-68008917D01*
X176069981Y-68227892D01*
X176051475Y-68451235D01*
X176051329Y-68453000D01*
X176056758Y-68518517D01*
X176070021Y-68678586D01*
X176055939Y-68747022D01*
X176034125Y-68776506D01*
X175239451Y-69571181D01*
X175178128Y-69604666D01*
X175151770Y-69607500D01*
X170370705Y-69607500D01*
X170352735Y-69606191D01*
X170328972Y-69602710D01*
X170283890Y-69606655D01*
X170276933Y-69607264D01*
X170271532Y-69607500D01*
X170263288Y-69607500D01*
X170230707Y-69611308D01*
X170154199Y-69618001D01*
X170147133Y-69619461D01*
X170147121Y-69619404D01*
X170139754Y-69621038D01*
X170139768Y-69621094D01*
X170132751Y-69622756D01*
X170060573Y-69649026D01*
X169987662Y-69673187D01*
X169981119Y-69676238D01*
X169981094Y-69676186D01*
X169974310Y-69679470D01*
X169974336Y-69679521D01*
X169967885Y-69682761D01*
X169903723Y-69724961D01*
X169838346Y-69765285D01*
X169832682Y-69769765D01*
X169832646Y-69769719D01*
X169826798Y-69774484D01*
X169826835Y-69774528D01*
X169821310Y-69779164D01*
X169821304Y-69779169D01*
X169821304Y-69779170D01*
X169788738Y-69813687D01*
X169768614Y-69835017D01*
X167141358Y-72462272D01*
X167127729Y-72474051D01*
X167108468Y-72488390D01*
X167074898Y-72528397D01*
X167071253Y-72532376D01*
X167065409Y-72538222D01*
X167045059Y-72563959D01*
X166995695Y-72622789D01*
X166991729Y-72628819D01*
X166991682Y-72628788D01*
X166987630Y-72635147D01*
X166987679Y-72635177D01*
X166983889Y-72641321D01*
X166951424Y-72710941D01*
X166916960Y-72779566D01*
X166914488Y-72786357D01*
X166914432Y-72786336D01*
X166911960Y-72793450D01*
X166912015Y-72793469D01*
X166909742Y-72800327D01*
X166907752Y-72809967D01*
X166894207Y-72875565D01*
X166888720Y-72898719D01*
X166876498Y-72950286D01*
X166875661Y-72957454D01*
X166875601Y-72957447D01*
X166874835Y-72964945D01*
X166874895Y-72964951D01*
X166874265Y-72972140D01*
X166876500Y-73048916D01*
X166876500Y-75160358D01*
X166876395Y-75163960D01*
X166876342Y-75164873D01*
X166872669Y-75227931D01*
X166872669Y-75227934D01*
X166874616Y-75238979D01*
X166876499Y-75260508D01*
X166876499Y-76160125D01*
X166856814Y-76227164D01*
X166840183Y-76247804D01*
X166829031Y-76258956D01*
X166829030Y-76258956D01*
X166740001Y-76403294D01*
X166739996Y-76403305D01*
X166686651Y-76564290D01*
X166676500Y-76663647D01*
X166676500Y-77260337D01*
X166676501Y-77260355D01*
X166686650Y-77359707D01*
X166686651Y-77359710D01*
X166739996Y-77520694D01*
X166740001Y-77520705D01*
X166829028Y-77665039D01*
X166829030Y-77665041D01*
X166829032Y-77665044D01*
X166840181Y-77676192D01*
X166873665Y-77737511D01*
X166876500Y-77763873D01*
X166876500Y-77938126D01*
X166856815Y-78005165D01*
X166840181Y-78025807D01*
X166829032Y-78036955D01*
X166829029Y-78036959D01*
X166740001Y-78181294D01*
X166739996Y-78181305D01*
X166686651Y-78342290D01*
X166676500Y-78441647D01*
X166676500Y-79038337D01*
X166676501Y-79038355D01*
X166686650Y-79137707D01*
X166686651Y-79137710D01*
X166739996Y-79298694D01*
X166740001Y-79298705D01*
X166829029Y-79443040D01*
X166829032Y-79443044D01*
X166840181Y-79454193D01*
X166873666Y-79515516D01*
X166876500Y-79541874D01*
X166876500Y-79716126D01*
X166856815Y-79783165D01*
X166840181Y-79803807D01*
X166829032Y-79814955D01*
X166829029Y-79814959D01*
X166740001Y-79959294D01*
X166739996Y-79959305D01*
X166686651Y-80120290D01*
X166676500Y-80219647D01*
X166676500Y-80816337D01*
X166676501Y-80816355D01*
X166686650Y-80915707D01*
X166686651Y-80915710D01*
X166739996Y-81076694D01*
X166740001Y-81076705D01*
X166829028Y-81221039D01*
X166829030Y-81221041D01*
X166829032Y-81221044D01*
X166840181Y-81232193D01*
X166873665Y-81293511D01*
X166876500Y-81319873D01*
X166876500Y-81439236D01*
X166856815Y-81506275D01*
X166804011Y-81552030D01*
X166734853Y-81561974D01*
X166671297Y-81532949D01*
X166667406Y-81529430D01*
X166638982Y-81502613D01*
X165857819Y-80721449D01*
X165824334Y-80660126D01*
X165821500Y-80633768D01*
X165821500Y-80575345D01*
X165821500Y-80514384D01*
X165815086Y-80443804D01*
X165764478Y-80281394D01*
X165676472Y-80135815D01*
X165676470Y-80135813D01*
X165676469Y-80135811D01*
X165574339Y-80033681D01*
X165540854Y-79972358D01*
X165545838Y-79902666D01*
X165574339Y-79858319D01*
X165676468Y-79756189D01*
X165676469Y-79756188D01*
X165676472Y-79756185D01*
X165764478Y-79610606D01*
X165815086Y-79448196D01*
X165821500Y-79377616D01*
X165821500Y-78864384D01*
X165815086Y-78793804D01*
X165764478Y-78631394D01*
X165676472Y-78485815D01*
X165676470Y-78485813D01*
X165676469Y-78485811D01*
X165632819Y-78442161D01*
X165599334Y-78380838D01*
X165596500Y-78354480D01*
X165596500Y-74478534D01*
X165616185Y-74411495D01*
X165632820Y-74390852D01*
X165645434Y-74378237D01*
X165670281Y-74353391D01*
X165758549Y-74210287D01*
X165811436Y-74050685D01*
X165821500Y-73952174D01*
X165821500Y-73418826D01*
X165811436Y-73320315D01*
X165758549Y-73160713D01*
X165758545Y-73160707D01*
X165758544Y-73160704D01*
X165670283Y-73017612D01*
X165670280Y-73017608D01*
X165638000Y-72985328D01*
X165604515Y-72924005D01*
X165609499Y-72854313D01*
X165638000Y-72809966D01*
X165669885Y-72778080D01*
X165758091Y-72635077D01*
X165758093Y-72635072D01*
X165810942Y-72475583D01*
X165820999Y-72377150D01*
X165821000Y-72377137D01*
X165821000Y-72360500D01*
X163871001Y-72360500D01*
X163871001Y-72377152D01*
X163881056Y-72475583D01*
X163933906Y-72635072D01*
X163933908Y-72635077D01*
X164022114Y-72778080D01*
X164054000Y-72809967D01*
X164087485Y-72871291D01*
X164082499Y-72940982D01*
X164054000Y-72985327D01*
X164021719Y-73017607D01*
X164021716Y-73017612D01*
X163933455Y-73160704D01*
X163933450Y-73160715D01*
X163932069Y-73164883D01*
X163880564Y-73320315D01*
X163880564Y-73320316D01*
X163880563Y-73320316D01*
X163870500Y-73418818D01*
X163870500Y-73952181D01*
X163880563Y-74050683D01*
X163933450Y-74210284D01*
X163933455Y-74210295D01*
X164021716Y-74353387D01*
X164021719Y-74353391D01*
X164059181Y-74390853D01*
X164092666Y-74452176D01*
X164095500Y-74478534D01*
X164095500Y-78354479D01*
X164075815Y-78421518D01*
X164059183Y-78442158D01*
X164015528Y-78485814D01*
X164015526Y-78485816D01*
X163927522Y-78631393D01*
X163876913Y-78793807D01*
X163870500Y-78864386D01*
X163870500Y-79377613D01*
X163876913Y-79448192D01*
X163876913Y-79448194D01*
X163876914Y-79448196D01*
X163927522Y-79610606D01*
X164008954Y-79745311D01*
X164015530Y-79756188D01*
X164117661Y-79858319D01*
X164151146Y-79919642D01*
X164146162Y-79989334D01*
X164117661Y-80033681D01*
X164015531Y-80135810D01*
X164015530Y-80135811D01*
X163927522Y-80281393D01*
X163876913Y-80443807D01*
X163870500Y-80514386D01*
X163870500Y-81027613D01*
X163876913Y-81098192D01*
X163876913Y-81098194D01*
X163876914Y-81098196D01*
X163927522Y-81260606D01*
X164005339Y-81389331D01*
X164015530Y-81406188D01*
X164135811Y-81526469D01*
X164135813Y-81526470D01*
X164135815Y-81526472D01*
X164281394Y-81614478D01*
X164443804Y-81665086D01*
X164486976Y-81669009D01*
X164551959Y-81694680D01*
X164592747Y-81751408D01*
X164596391Y-81821183D01*
X164561733Y-81881851D01*
X164499778Y-81914151D01*
X164475754Y-81916500D01*
X162107320Y-81916500D01*
X162040281Y-81896815D01*
X162008052Y-81866809D01*
X162002548Y-81859457D01*
X162002546Y-81859454D01*
X161976125Y-81839675D01*
X161880231Y-81767888D01*
X161881930Y-81765617D01*
X161842743Y-81726435D01*
X161827886Y-81658163D01*
X161852298Y-81592697D01*
X161881311Y-81567556D01*
X161880231Y-81566112D01*
X161975650Y-81494680D01*
X162002546Y-81474546D01*
X162088796Y-81359331D01*
X162139091Y-81224483D01*
X162145500Y-81164873D01*
X162145499Y-80169128D01*
X162139091Y-80109517D01*
X162134353Y-80096815D01*
X162088797Y-79974671D01*
X162088793Y-79974664D01*
X162002547Y-79859455D01*
X162002544Y-79859452D01*
X161880231Y-79767888D01*
X161881930Y-79765617D01*
X161842743Y-79726435D01*
X161827886Y-79658163D01*
X161852298Y-79592697D01*
X161881311Y-79567556D01*
X161880231Y-79566112D01*
X161981218Y-79490512D01*
X162002546Y-79474546D01*
X162088796Y-79359331D01*
X162139091Y-79224483D01*
X162145500Y-79164873D01*
X162145499Y-78169128D01*
X162139091Y-78109517D01*
X162134353Y-78096815D01*
X162088797Y-77974671D01*
X162088793Y-77974664D01*
X162002547Y-77859455D01*
X162002544Y-77859452D01*
X161880231Y-77767888D01*
X161881930Y-77765617D01*
X161842743Y-77726435D01*
X161827886Y-77658163D01*
X161852298Y-77592697D01*
X161881311Y-77567556D01*
X161880231Y-77566112D01*
X161966163Y-77501782D01*
X162002546Y-77474546D01*
X162088796Y-77359331D01*
X162139091Y-77224483D01*
X162145500Y-77164873D01*
X162145499Y-76169128D01*
X162139091Y-76109517D01*
X162134353Y-76096815D01*
X162088797Y-75974671D01*
X162088793Y-75974664D01*
X162002547Y-75859455D01*
X162002544Y-75859452D01*
X161880231Y-75767888D01*
X161881930Y-75765617D01*
X161842743Y-75726435D01*
X161827886Y-75658163D01*
X161852298Y-75592697D01*
X161881311Y-75567556D01*
X161880231Y-75566112D01*
X161966163Y-75501782D01*
X162002546Y-75474546D01*
X162088796Y-75359331D01*
X162139091Y-75224483D01*
X162145500Y-75164873D01*
X162145499Y-74169128D01*
X162139091Y-74109517D01*
X162134353Y-74096815D01*
X162088797Y-73974671D01*
X162088793Y-73974664D01*
X162002547Y-73859455D01*
X162002544Y-73859452D01*
X161880231Y-73767888D01*
X161881930Y-73765617D01*
X161842743Y-73726435D01*
X161827886Y-73658163D01*
X161852298Y-73592697D01*
X161881311Y-73567556D01*
X161880231Y-73566112D01*
X161966163Y-73501782D01*
X162002546Y-73474546D01*
X162088796Y-73359331D01*
X162139091Y-73224483D01*
X162145500Y-73164873D01*
X162145499Y-72169128D01*
X162139091Y-72109517D01*
X162134353Y-72096815D01*
X162088797Y-71974671D01*
X162088793Y-71974664D01*
X162003329Y-71860500D01*
X163871000Y-71860500D01*
X164596000Y-71860500D01*
X164596000Y-71173000D01*
X165096000Y-71173000D01*
X165096000Y-71860500D01*
X165820999Y-71860500D01*
X165820999Y-71843864D01*
X165820998Y-71843847D01*
X165810943Y-71745416D01*
X165758093Y-71585927D01*
X165758091Y-71585922D01*
X165669885Y-71442919D01*
X165551080Y-71324114D01*
X165408077Y-71235908D01*
X165408072Y-71235906D01*
X165248583Y-71183057D01*
X165150150Y-71173000D01*
X165096000Y-71173000D01*
X164596000Y-71173000D01*
X164595999Y-71172999D01*
X164541864Y-71173000D01*
X164541847Y-71173001D01*
X164443415Y-71183057D01*
X164283927Y-71235906D01*
X164283922Y-71235908D01*
X164140919Y-71324114D01*
X164022114Y-71442919D01*
X163933908Y-71585922D01*
X163933906Y-71585927D01*
X163881057Y-71745416D01*
X163871000Y-71843849D01*
X163871000Y-71860500D01*
X162003329Y-71860500D01*
X162002547Y-71859455D01*
X162002544Y-71859452D01*
X161880231Y-71767888D01*
X161881930Y-71765617D01*
X161842743Y-71726435D01*
X161827886Y-71658163D01*
X161852298Y-71592697D01*
X161881311Y-71567556D01*
X161880231Y-71566112D01*
X161966163Y-71501782D01*
X162002546Y-71474546D01*
X162088796Y-71359331D01*
X162139091Y-71224483D01*
X162145500Y-71164873D01*
X162145499Y-70169128D01*
X162139091Y-70109517D01*
X162134353Y-70096815D01*
X162088797Y-69974671D01*
X162088793Y-69974664D01*
X162002547Y-69859455D01*
X162002544Y-69859452D01*
X161880231Y-69767888D01*
X161881930Y-69765617D01*
X161842743Y-69726435D01*
X161827886Y-69658163D01*
X161852298Y-69592697D01*
X161881311Y-69567556D01*
X161880231Y-69566112D01*
X161966163Y-69501782D01*
X162002546Y-69474546D01*
X162088796Y-69359331D01*
X162139091Y-69224483D01*
X162145500Y-69164873D01*
X162145499Y-68169128D01*
X162139091Y-68109517D01*
X162134353Y-68096815D01*
X162088797Y-67974671D01*
X162088793Y-67974664D01*
X162002547Y-67859455D01*
X162002544Y-67859452D01*
X161880231Y-67767888D01*
X161881930Y-67765617D01*
X161842743Y-67726435D01*
X161827886Y-67658163D01*
X161852298Y-67592697D01*
X161881311Y-67567556D01*
X161880231Y-67566112D01*
X161966163Y-67501782D01*
X162002546Y-67474546D01*
X162088796Y-67359331D01*
X162139091Y-67224483D01*
X162145500Y-67164873D01*
X162145499Y-66241000D01*
X162615001Y-66241000D01*
X162615001Y-66365986D01*
X162625494Y-66468697D01*
X162680641Y-66635119D01*
X162680643Y-66635124D01*
X162772684Y-66784345D01*
X162896654Y-66908315D01*
X163045875Y-67000356D01*
X163045880Y-67000358D01*
X163212302Y-67055505D01*
X163212309Y-67055506D01*
X163315019Y-67065999D01*
X164214999Y-67065999D01*
X164215000Y-67065998D01*
X164215000Y-66241000D01*
X164715000Y-66241000D01*
X164715000Y-67065999D01*
X165614972Y-67065999D01*
X165614986Y-67065998D01*
X165717697Y-67055505D01*
X165884119Y-67000358D01*
X165884124Y-67000356D01*
X166033345Y-66908315D01*
X166157315Y-66784345D01*
X166249356Y-66635124D01*
X166249358Y-66635119D01*
X166304505Y-66468697D01*
X166304506Y-66468690D01*
X166314999Y-66365986D01*
X166315000Y-66365973D01*
X166315000Y-66241000D01*
X164715000Y-66241000D01*
X164215000Y-66241000D01*
X162615001Y-66241000D01*
X162145499Y-66241000D01*
X162145499Y-66169128D01*
X162139091Y-66109517D01*
X162134353Y-66096815D01*
X162088797Y-65974671D01*
X162088793Y-65974664D01*
X162002547Y-65859455D01*
X162002544Y-65859452D01*
X161880231Y-65767888D01*
X161881930Y-65765617D01*
X161857310Y-65741000D01*
X162615000Y-65741000D01*
X164215000Y-65741000D01*
X164215000Y-64916000D01*
X163315028Y-64916000D01*
X163315012Y-64916001D01*
X163212302Y-64926494D01*
X163045880Y-64981641D01*
X163045875Y-64981643D01*
X162896654Y-65073684D01*
X162772684Y-65197654D01*
X162680643Y-65346875D01*
X162680641Y-65346880D01*
X162625494Y-65513302D01*
X162625493Y-65513309D01*
X162615000Y-65616013D01*
X162615000Y-65741000D01*
X161857310Y-65741000D01*
X161842743Y-65726435D01*
X161827886Y-65658163D01*
X161852298Y-65592697D01*
X161881311Y-65567556D01*
X161880231Y-65566112D01*
X161966163Y-65501782D01*
X162002546Y-65474546D01*
X162088796Y-65359331D01*
X162139091Y-65224483D01*
X162145500Y-65164873D01*
X162145499Y-64169128D01*
X162139091Y-64109517D01*
X162137778Y-64105998D01*
X162088797Y-63974671D01*
X162088793Y-63974664D01*
X162002547Y-63859455D01*
X162002544Y-63859452D01*
X161880231Y-63767888D01*
X161881930Y-63765617D01*
X161842743Y-63726435D01*
X161827886Y-63658163D01*
X161852298Y-63592697D01*
X161881311Y-63567556D01*
X161880231Y-63566112D01*
X161966163Y-63501782D01*
X162002546Y-63474546D01*
X162088796Y-63359331D01*
X162139091Y-63224483D01*
X162145500Y-63164873D01*
X162145499Y-62169128D01*
X162139091Y-62109517D01*
X162134353Y-62096815D01*
X162088797Y-61974671D01*
X162088793Y-61974664D01*
X162002547Y-61859455D01*
X162002544Y-61859452D01*
X161880231Y-61767888D01*
X161881930Y-61765617D01*
X161842743Y-61726435D01*
X161827886Y-61658163D01*
X161852298Y-61592697D01*
X161881311Y-61567556D01*
X161880231Y-61566112D01*
X161966163Y-61501782D01*
X162002546Y-61474546D01*
X162088796Y-61359331D01*
X162139091Y-61224483D01*
X162145500Y-61164873D01*
X162145499Y-60169128D01*
X162139091Y-60109517D01*
X162134353Y-60096815D01*
X162088797Y-59974671D01*
X162088793Y-59974664D01*
X162002547Y-59859455D01*
X162002544Y-59859452D01*
X161887335Y-59773206D01*
X161887328Y-59773202D01*
X161752482Y-59722908D01*
X161752483Y-59722908D01*
X161692883Y-59716501D01*
X161692881Y-59716500D01*
X161692873Y-59716500D01*
X161692864Y-59716500D01*
X160297129Y-59716500D01*
X160297123Y-59716501D01*
X160237515Y-59722909D01*
X160126865Y-59764178D01*
X160057174Y-59769162D01*
X160034634Y-59761947D01*
X159963537Y-59731437D01*
X159769199Y-59691500D01*
X158570527Y-59691500D01*
X158570526Y-59691500D01*
X158422619Y-59706540D01*
X158233329Y-59765930D01*
X158233320Y-59765934D01*
X158059852Y-59862217D01*
X158059851Y-59862217D01*
X157909319Y-59991445D01*
X157909317Y-59991446D01*
X157787879Y-60148331D01*
X157787877Y-60148335D01*
X157700503Y-60326459D01*
X157650777Y-60518511D01*
X157650776Y-60518517D01*
X157640728Y-60716662D01*
X157640728Y-60716663D01*
X157670768Y-60912764D01*
X157670771Y-60912777D01*
X157739673Y-61098815D01*
X157739677Y-61098824D01*
X157844616Y-61267184D01*
X157844621Y-61267191D01*
X157960724Y-61389331D01*
X157981309Y-61410986D01*
X158144146Y-61524324D01*
X158207626Y-61551565D01*
X158261470Y-61596091D01*
X158282693Y-61662660D01*
X158264558Y-61730135D01*
X158218904Y-61773935D01*
X158059852Y-61862216D01*
X158059851Y-61862217D01*
X157909319Y-61991445D01*
X157909317Y-61991446D01*
X157787879Y-62148331D01*
X157787877Y-62148335D01*
X157700503Y-62326459D01*
X157650777Y-62518511D01*
X157650776Y-62518517D01*
X157640728Y-62716662D01*
X157640728Y-62716663D01*
X157670768Y-62912764D01*
X157670771Y-62912777D01*
X157739673Y-63098815D01*
X157739677Y-63098824D01*
X157844616Y-63267184D01*
X157844621Y-63267191D01*
X157960724Y-63389331D01*
X157981309Y-63410986D01*
X158144146Y-63524324D01*
X158207626Y-63551565D01*
X158261470Y-63596091D01*
X158282693Y-63662660D01*
X158264558Y-63730135D01*
X158218904Y-63773935D01*
X158059852Y-63862216D01*
X158059851Y-63862217D01*
X157909319Y-63991445D01*
X157909317Y-63991446D01*
X157787879Y-64148331D01*
X157787877Y-64148335D01*
X157700503Y-64326459D01*
X157650777Y-64518511D01*
X157650776Y-64518517D01*
X157640728Y-64716662D01*
X157640728Y-64716663D01*
X157670768Y-64912764D01*
X157670771Y-64912777D01*
X157739673Y-65098815D01*
X157739677Y-65098824D01*
X157844616Y-65267184D01*
X157844621Y-65267191D01*
X157960724Y-65389331D01*
X157981309Y-65410986D01*
X158144146Y-65524324D01*
X158207626Y-65551565D01*
X158261470Y-65596091D01*
X158282693Y-65662660D01*
X158264558Y-65730135D01*
X158218904Y-65773935D01*
X158059852Y-65862216D01*
X158059851Y-65862217D01*
X157909319Y-65991445D01*
X157909317Y-65991446D01*
X157787879Y-66148331D01*
X157787877Y-66148335D01*
X157700503Y-66326459D01*
X157650777Y-66518511D01*
X157650776Y-66518517D01*
X157640728Y-66716662D01*
X157640728Y-66716663D01*
X157670768Y-66912764D01*
X157670771Y-66912777D01*
X157739673Y-67098815D01*
X157739677Y-67098824D01*
X157844616Y-67267184D01*
X157844621Y-67267191D01*
X157960724Y-67389331D01*
X157981309Y-67410986D01*
X158144146Y-67524324D01*
X158207626Y-67551565D01*
X158261470Y-67596091D01*
X158282693Y-67662660D01*
X158264558Y-67730135D01*
X158218904Y-67773935D01*
X158059852Y-67862216D01*
X158059851Y-67862217D01*
X157909319Y-67991445D01*
X157909317Y-67991446D01*
X157787879Y-68148331D01*
X157787877Y-68148335D01*
X157700503Y-68326459D01*
X157650777Y-68518511D01*
X157650776Y-68518517D01*
X157640728Y-68716662D01*
X157640728Y-68716663D01*
X157670768Y-68912764D01*
X157670771Y-68912777D01*
X157739673Y-69098815D01*
X157739677Y-69098824D01*
X157844616Y-69267184D01*
X157844621Y-69267191D01*
X157960724Y-69389331D01*
X157981309Y-69410986D01*
X158144146Y-69524324D01*
X158207626Y-69551565D01*
X158261470Y-69596091D01*
X158282693Y-69662660D01*
X158264558Y-69730135D01*
X158218904Y-69773935D01*
X158059852Y-69862216D01*
X158059851Y-69862217D01*
X157909319Y-69991445D01*
X157909317Y-69991446D01*
X157787879Y-70148331D01*
X157787877Y-70148335D01*
X157700503Y-70326459D01*
X157650777Y-70518511D01*
X157650776Y-70518517D01*
X157640728Y-70716662D01*
X157640728Y-70716663D01*
X157670768Y-70912764D01*
X157670771Y-70912777D01*
X157739673Y-71098815D01*
X157739677Y-71098824D01*
X157844616Y-71267184D01*
X157844621Y-71267191D01*
X157960724Y-71389331D01*
X157981309Y-71410986D01*
X158144146Y-71524324D01*
X158207626Y-71551565D01*
X158261470Y-71596091D01*
X158282693Y-71662660D01*
X158264558Y-71730135D01*
X158218904Y-71773935D01*
X158059852Y-71862216D01*
X158059851Y-71862217D01*
X157909319Y-71991445D01*
X157909317Y-71991446D01*
X157787879Y-72148331D01*
X157787877Y-72148335D01*
X157700503Y-72326459D01*
X157650777Y-72518511D01*
X157650776Y-72518517D01*
X157640728Y-72716662D01*
X157640728Y-72716663D01*
X157670768Y-72912764D01*
X157670771Y-72912777D01*
X157739673Y-73098815D01*
X157739677Y-73098824D01*
X157844616Y-73267184D01*
X157844621Y-73267191D01*
X157960724Y-73389331D01*
X157981309Y-73410986D01*
X158144146Y-73524324D01*
X158207626Y-73551565D01*
X158261470Y-73596091D01*
X158282693Y-73662660D01*
X158264558Y-73730135D01*
X158218904Y-73773935D01*
X158059852Y-73862216D01*
X158059851Y-73862217D01*
X157909319Y-73991445D01*
X157909317Y-73991446D01*
X157787879Y-74148331D01*
X157787877Y-74148335D01*
X157700503Y-74326459D01*
X157650777Y-74518511D01*
X157650776Y-74518517D01*
X157640728Y-74716662D01*
X157640728Y-74716663D01*
X157670768Y-74912764D01*
X157670771Y-74912777D01*
X157739673Y-75098815D01*
X157739677Y-75098824D01*
X157844616Y-75267184D01*
X157844621Y-75267191D01*
X157960724Y-75389331D01*
X157981309Y-75410986D01*
X158144146Y-75524324D01*
X158207626Y-75551565D01*
X158261470Y-75596091D01*
X158282693Y-75662660D01*
X158264558Y-75730135D01*
X158218904Y-75773935D01*
X158059852Y-75862216D01*
X158059851Y-75862217D01*
X157909319Y-75991445D01*
X157909317Y-75991446D01*
X157787879Y-76148331D01*
X157787877Y-76148335D01*
X157700503Y-76326459D01*
X157650777Y-76518511D01*
X157650776Y-76518517D01*
X157640728Y-76716662D01*
X157640728Y-76716663D01*
X157670768Y-76912764D01*
X157670771Y-76912777D01*
X157739673Y-77098815D01*
X157739677Y-77098824D01*
X157844616Y-77267184D01*
X157844621Y-77267191D01*
X157960724Y-77389331D01*
X157981309Y-77410986D01*
X158144146Y-77524324D01*
X158207626Y-77551565D01*
X158261470Y-77596091D01*
X158282693Y-77662660D01*
X158264558Y-77730135D01*
X158218904Y-77773935D01*
X158059852Y-77862216D01*
X158059851Y-77862217D01*
X157909319Y-77991445D01*
X157909317Y-77991446D01*
X157787879Y-78148331D01*
X157787877Y-78148335D01*
X157700503Y-78326459D01*
X157650777Y-78518511D01*
X157650776Y-78518517D01*
X157640728Y-78716662D01*
X157640728Y-78716663D01*
X157670768Y-78912764D01*
X157670771Y-78912777D01*
X157689533Y-78963434D01*
X157694357Y-79033137D01*
X157660731Y-79094383D01*
X157599331Y-79127727D01*
X157573252Y-79130500D01*
X157054743Y-79130500D01*
X157039122Y-79128775D01*
X157039096Y-79129061D01*
X157031334Y-79128327D01*
X157031333Y-79128327D01*
X156962186Y-79130500D01*
X156932649Y-79130500D01*
X156925766Y-79131369D01*
X156919949Y-79131826D01*
X156873373Y-79133290D01*
X156854129Y-79138881D01*
X156835079Y-79142825D01*
X156815211Y-79145334D01*
X156771884Y-79162488D01*
X156766358Y-79164379D01*
X156721614Y-79177379D01*
X156721610Y-79177381D01*
X156704366Y-79187579D01*
X156686905Y-79196133D01*
X156668274Y-79203510D01*
X156668262Y-79203517D01*
X156630570Y-79230902D01*
X156625687Y-79234109D01*
X156585580Y-79257829D01*
X156571414Y-79271995D01*
X156556624Y-79284627D01*
X156540414Y-79296404D01*
X156540411Y-79296407D01*
X156510710Y-79332309D01*
X156506777Y-79336631D01*
X155572208Y-80271199D01*
X155559951Y-80281020D01*
X155560134Y-80281241D01*
X155554123Y-80286213D01*
X155506772Y-80336636D01*
X155485889Y-80357519D01*
X155485877Y-80357532D01*
X155481621Y-80363017D01*
X155477837Y-80367447D01*
X155445937Y-80401418D01*
X155445936Y-80401420D01*
X155436284Y-80418976D01*
X155425610Y-80435226D01*
X155413329Y-80451061D01*
X155413324Y-80451068D01*
X155394815Y-80493838D01*
X155392245Y-80499084D01*
X155369803Y-80539906D01*
X155364822Y-80559307D01*
X155358521Y-80577710D01*
X155350562Y-80596102D01*
X155350561Y-80596105D01*
X155343271Y-80642127D01*
X155342087Y-80647846D01*
X155330501Y-80692972D01*
X155330500Y-80692982D01*
X155330500Y-80713016D01*
X155328973Y-80732415D01*
X155325840Y-80752194D01*
X155325840Y-80752195D01*
X155330225Y-80798583D01*
X155330500Y-80804421D01*
X155330500Y-84779546D01*
X155310815Y-84846585D01*
X155294181Y-84867227D01*
X145763228Y-94398181D01*
X145701905Y-94431666D01*
X145675547Y-94434500D01*
X145417520Y-94434500D01*
X145350481Y-94414815D01*
X145329839Y-94398181D01*
X145236188Y-94304530D01*
X145151498Y-94253333D01*
X145090606Y-94216522D01*
X144928196Y-94165914D01*
X144928194Y-94165913D01*
X144928192Y-94165913D01*
X144878778Y-94161423D01*
X144857616Y-94159500D01*
X144194384Y-94159500D01*
X144175144Y-94161248D01*
X144123807Y-94165913D01*
X143961393Y-94216522D01*
X143815811Y-94304530D01*
X143695530Y-94424811D01*
X143607522Y-94570393D01*
X143556913Y-94732807D01*
X143552833Y-94777715D01*
X143551051Y-94797327D01*
X143550500Y-94803386D01*
X143550500Y-94810710D01*
X143530815Y-94877749D01*
X143478011Y-94923504D01*
X143408853Y-94933448D01*
X143345297Y-94904423D01*
X143319768Y-94873832D01*
X143300718Y-94841622D01*
X143300714Y-94841616D01*
X143186383Y-94727285D01*
X143186374Y-94727278D01*
X143047195Y-94644968D01*
X143047190Y-94644966D01*
X142891918Y-94599855D01*
X142891912Y-94599854D01*
X142871000Y-94598209D01*
X142871000Y-95432500D01*
X142851315Y-95499539D01*
X142798511Y-95545294D01*
X142747000Y-95556500D01*
X142386308Y-95556500D01*
X142350008Y-95559356D01*
X142350002Y-95559357D01*
X142194610Y-95604503D01*
X142194604Y-95604506D01*
X142194605Y-95604506D01*
X142185766Y-95609732D01*
X142122648Y-95627000D01*
X141816496Y-95627000D01*
X141858968Y-95773194D01*
X141870911Y-95793389D01*
X141888092Y-95861113D01*
X141870911Y-95919628D01*
X141858506Y-95940604D01*
X141858504Y-95940609D01*
X141813357Y-96096002D01*
X141813356Y-96096008D01*
X141810500Y-96132308D01*
X141810500Y-96541692D01*
X141813356Y-96577991D01*
X141813357Y-96577997D01*
X141858504Y-96733390D01*
X141858505Y-96733393D01*
X141858506Y-96733395D01*
X141873353Y-96758500D01*
X141940519Y-96872072D01*
X141957702Y-96939796D01*
X141935542Y-97006059D01*
X141921468Y-97022874D01*
X141882681Y-97061661D01*
X141821358Y-97095146D01*
X141751666Y-97090162D01*
X141707319Y-97061661D01*
X141605188Y-96959530D01*
X141599499Y-96956091D01*
X141459606Y-96871522D01*
X141297196Y-96820914D01*
X141297194Y-96820913D01*
X141297192Y-96820913D01*
X141247370Y-96816386D01*
X141226616Y-96814500D01*
X140713384Y-96814500D01*
X140694145Y-96816248D01*
X140642807Y-96820913D01*
X140480393Y-96871522D01*
X140334811Y-96959530D01*
X140214531Y-97079810D01*
X140214528Y-97079814D01*
X140199514Y-97104651D01*
X140147986Y-97151838D01*
X140093398Y-97164500D01*
X139496602Y-97164500D01*
X139429563Y-97144815D01*
X139390486Y-97104651D01*
X139384740Y-97095146D01*
X139375472Y-97079815D01*
X139375471Y-97079814D01*
X139375468Y-97079810D01*
X139255188Y-96959530D01*
X139249499Y-96956091D01*
X139109606Y-96871522D01*
X138947196Y-96820914D01*
X138947194Y-96820913D01*
X138947192Y-96820913D01*
X138897370Y-96816386D01*
X138876616Y-96814500D01*
X138363384Y-96814500D01*
X138344145Y-96816248D01*
X138292807Y-96820913D01*
X138130393Y-96871522D01*
X137984811Y-96959530D01*
X137932180Y-97012161D01*
X137870857Y-97045645D01*
X137801165Y-97040660D01*
X137745232Y-96998789D01*
X137720816Y-96933324D01*
X137720500Y-96924479D01*
X137720500Y-96691228D01*
X137740185Y-96624189D01*
X137756815Y-96603551D01*
X138201770Y-96158595D01*
X138263091Y-96125112D01*
X138263427Y-96125039D01*
X138328803Y-96111144D01*
X138501730Y-96034151D01*
X138654871Y-95922888D01*
X138781533Y-95782216D01*
X138876179Y-95618284D01*
X138934674Y-95438256D01*
X138954460Y-95250000D01*
X138941533Y-95127000D01*
X141816496Y-95127000D01*
X142371000Y-95127000D01*
X142371000Y-94598210D01*
X142370999Y-94598209D01*
X142350087Y-94599854D01*
X142350081Y-94599855D01*
X142194809Y-94644966D01*
X142194804Y-94644968D01*
X142055625Y-94727278D01*
X142055616Y-94727285D01*
X141941285Y-94841616D01*
X141941278Y-94841625D01*
X141858968Y-94980804D01*
X141816496Y-95127000D01*
X138941533Y-95127000D01*
X138934674Y-95061744D01*
X138876179Y-94881716D01*
X138781533Y-94717784D01*
X138654871Y-94577112D01*
X138654870Y-94577111D01*
X138501734Y-94465851D01*
X138501729Y-94465848D01*
X138328807Y-94388857D01*
X138328802Y-94388855D01*
X138183001Y-94357865D01*
X138143646Y-94349500D01*
X137954354Y-94349500D01*
X137921897Y-94356398D01*
X137769197Y-94388855D01*
X137769192Y-94388857D01*
X137596270Y-94465848D01*
X137596265Y-94465851D01*
X137443129Y-94577111D01*
X137316466Y-94717785D01*
X137221821Y-94881715D01*
X137221819Y-94881719D01*
X137166478Y-95052041D01*
X137136228Y-95101403D01*
X136484358Y-95753272D01*
X136470729Y-95765051D01*
X136451468Y-95779390D01*
X136417898Y-95819397D01*
X136414253Y-95823376D01*
X136408409Y-95829222D01*
X136388059Y-95854959D01*
X136338695Y-95913789D01*
X136334729Y-95919819D01*
X136334682Y-95919788D01*
X136330630Y-95926147D01*
X136330679Y-95926177D01*
X136326889Y-95932321D01*
X136294424Y-96001941D01*
X136259960Y-96070566D01*
X136257488Y-96077357D01*
X136257432Y-96077336D01*
X136254960Y-96084450D01*
X136255015Y-96084469D01*
X136252742Y-96091327D01*
X136247359Y-96117401D01*
X136237207Y-96166565D01*
X136224450Y-96220393D01*
X136219498Y-96241286D01*
X136218661Y-96248454D01*
X136218601Y-96248447D01*
X136217835Y-96255945D01*
X136217895Y-96255951D01*
X136217265Y-96263140D01*
X136219500Y-96339916D01*
X136219500Y-97037022D01*
X136201617Y-97101172D01*
X136126522Y-97225393D01*
X136075913Y-97387807D01*
X136069500Y-97458386D01*
X136069500Y-98121613D01*
X136075913Y-98192192D01*
X136126522Y-98354606D01*
X136200063Y-98476257D01*
X136217899Y-98543812D01*
X136196381Y-98610285D01*
X136168257Y-98639673D01*
X136116460Y-98678448D01*
X136116451Y-98678457D01*
X136030206Y-98793664D01*
X136030202Y-98793671D01*
X135979908Y-98928517D01*
X135976253Y-98962517D01*
X135973501Y-98988123D01*
X135973500Y-98988135D01*
X135973500Y-100333870D01*
X131826500Y-100333870D01*
X131826500Y-91194870D01*
X133704500Y-91194870D01*
X133704501Y-91194876D01*
X133710908Y-91254483D01*
X133761202Y-91389328D01*
X133761206Y-91389335D01*
X133847452Y-91504544D01*
X133847455Y-91504547D01*
X133962664Y-91590793D01*
X133962671Y-91590797D01*
X134097517Y-91641091D01*
X134097516Y-91641091D01*
X134104444Y-91641835D01*
X134157127Y-91647500D01*
X135552872Y-91647499D01*
X135612483Y-91641091D01*
X135723134Y-91599820D01*
X135792823Y-91594836D01*
X135815365Y-91602051D01*
X135842640Y-91613756D01*
X135886462Y-91632562D01*
X135886463Y-91632562D01*
X135886465Y-91632563D01*
X136080801Y-91672500D01*
X137279474Y-91672500D01*
X137427380Y-91657459D01*
X137499478Y-91634838D01*
X137616678Y-91598067D01*
X137790146Y-91501784D01*
X137940682Y-91372553D01*
X138062122Y-91215666D01*
X138149495Y-91037544D01*
X138199224Y-90845480D01*
X138209272Y-90647337D01*
X138179230Y-90451227D01*
X138110325Y-90265180D01*
X138049486Y-90167572D01*
X138005383Y-90096815D01*
X138005378Y-90096808D01*
X137868693Y-89953016D01*
X137868692Y-89953015D01*
X137836611Y-89930686D01*
X137777369Y-89889452D01*
X137705853Y-89839675D01*
X137642373Y-89812434D01*
X137588529Y-89767907D01*
X137567306Y-89701338D01*
X137585441Y-89633863D01*
X137631095Y-89590064D01*
X137790146Y-89501784D01*
X137940682Y-89372553D01*
X138062122Y-89215666D01*
X138149495Y-89037544D01*
X138187358Y-88891308D01*
X138199222Y-88845488D01*
X138199223Y-88845482D01*
X138199224Y-88845480D01*
X138209272Y-88647337D01*
X138179230Y-88451227D01*
X138110325Y-88265180D01*
X138110322Y-88265175D01*
X138005383Y-88096815D01*
X138005378Y-88096808D01*
X137868693Y-87953016D01*
X137868692Y-87953015D01*
X137859784Y-87946815D01*
X137777369Y-87889452D01*
X137705853Y-87839675D01*
X137642373Y-87812434D01*
X137588529Y-87767907D01*
X137567306Y-87701338D01*
X137585441Y-87633863D01*
X137631095Y-87590064D01*
X137790146Y-87501784D01*
X137940682Y-87372553D01*
X138062122Y-87215666D01*
X138149495Y-87037544D01*
X138199224Y-86845480D01*
X138209272Y-86647337D01*
X138179230Y-86451227D01*
X138110325Y-86265180D01*
X138086839Y-86227500D01*
X138005383Y-86096815D01*
X138005378Y-86096808D01*
X137868693Y-85953016D01*
X137868692Y-85953015D01*
X137836611Y-85930686D01*
X137724997Y-85853000D01*
X137705853Y-85839675D01*
X137642373Y-85812434D01*
X137588529Y-85767907D01*
X137567306Y-85701338D01*
X137585441Y-85633863D01*
X137631095Y-85590064D01*
X137790146Y-85501784D01*
X137940682Y-85372553D01*
X138062122Y-85215666D01*
X138149495Y-85037544D01*
X138169662Y-84959655D01*
X138199222Y-84845488D01*
X138199223Y-84845482D01*
X138199224Y-84845480D01*
X138209272Y-84647337D01*
X138179230Y-84451227D01*
X138110325Y-84265180D01*
X138110322Y-84265175D01*
X138005383Y-84096815D01*
X138005378Y-84096808D01*
X137868693Y-83953016D01*
X137868692Y-83953015D01*
X137837118Y-83931039D01*
X137738238Y-83862216D01*
X137705853Y-83839675D01*
X137642373Y-83812434D01*
X137588529Y-83767907D01*
X137567306Y-83701338D01*
X137585441Y-83633863D01*
X137631095Y-83590064D01*
X137790146Y-83501784D01*
X137940682Y-83372553D01*
X138062122Y-83215666D01*
X138149495Y-83037544D01*
X138199224Y-82845480D01*
X138209272Y-82647337D01*
X138179230Y-82451227D01*
X138110325Y-82265180D01*
X138080294Y-82217000D01*
X138575000Y-82217000D01*
X138575000Y-85897000D01*
X144895000Y-85897000D01*
X144895000Y-83559772D01*
X151275779Y-83559772D01*
X151328370Y-83581556D01*
X151445676Y-83596999D01*
X154114324Y-83596999D01*
X154231622Y-83581557D01*
X154231634Y-83581554D01*
X154284220Y-83559772D01*
X153544896Y-82820448D01*
X153544895Y-82820448D01*
X153375843Y-82989500D01*
X153314520Y-83022985D01*
X153244828Y-83018001D01*
X153238634Y-83014020D01*
X153204615Y-83014020D01*
X153188195Y-83022986D01*
X153118503Y-83018002D01*
X153074156Y-82989501D01*
X152780000Y-82695345D01*
X152482644Y-82992701D01*
X152421321Y-83026186D01*
X152394963Y-83029020D01*
X152305037Y-83029020D01*
X152237998Y-83009335D01*
X152217356Y-82992701D01*
X152030104Y-82805449D01*
X151275779Y-83559772D01*
X144895000Y-83559772D01*
X144895000Y-83036324D01*
X150885000Y-83036324D01*
X150900442Y-83153627D01*
X150922225Y-83206219D01*
X151556342Y-82572104D01*
X152263449Y-82572104D01*
X152350000Y-82658655D01*
X152546655Y-82462000D01*
X152711268Y-82462000D01*
X152731399Y-82510601D01*
X152767369Y-82525500D01*
X152792631Y-82525500D01*
X152828601Y-82510601D01*
X152848732Y-82462000D01*
X153013345Y-82462000D01*
X153224999Y-82673654D01*
X153311550Y-82587102D01*
X153186447Y-82462000D01*
X153601268Y-82462000D01*
X153621399Y-82510601D01*
X153657369Y-82525500D01*
X153682631Y-82525500D01*
X153718601Y-82510601D01*
X153738732Y-82462000D01*
X153718601Y-82413399D01*
X153682631Y-82398500D01*
X153657369Y-82398500D01*
X153621399Y-82413399D01*
X153601268Y-82462000D01*
X153186447Y-82462000D01*
X153099895Y-82375449D01*
X153013345Y-82462000D01*
X152848732Y-82462000D01*
X152828601Y-82413399D01*
X152792631Y-82398500D01*
X152767369Y-82398500D01*
X152731399Y-82413399D01*
X152711268Y-82462000D01*
X152546655Y-82462000D01*
X152460104Y-82375449D01*
X152263449Y-82572104D01*
X151556342Y-82572104D01*
X151666446Y-82462000D01*
X151851268Y-82462000D01*
X151871399Y-82510601D01*
X151907369Y-82525500D01*
X151932631Y-82525500D01*
X151968601Y-82510601D01*
X151988732Y-82462000D01*
X151968601Y-82413399D01*
X151932631Y-82398500D01*
X151907369Y-82398500D01*
X151871399Y-82413399D01*
X151851268Y-82462000D01*
X151666446Y-82462000D01*
X151986343Y-82142104D01*
X152693449Y-82142104D01*
X152780000Y-82228655D01*
X152866551Y-82142104D01*
X152806446Y-82081999D01*
X153523345Y-82081999D01*
X153670000Y-82228655D01*
X153862130Y-82420785D01*
X153873908Y-82442355D01*
X154637772Y-83206220D01*
X154659554Y-83153634D01*
X154659555Y-83153630D01*
X154674999Y-83036330D01*
X154674999Y-80367675D01*
X154659557Y-80250371D01*
X154659555Y-80250366D01*
X154637773Y-80197778D01*
X153983449Y-80852103D01*
X153983449Y-80852104D01*
X154197501Y-81066156D01*
X154230986Y-81127479D01*
X154226002Y-81197170D01*
X154202020Y-81234486D01*
X154202020Y-81240756D01*
X154230986Y-81293802D01*
X154226002Y-81363494D01*
X154197501Y-81407843D01*
X153670000Y-81935345D01*
X153523345Y-82081999D01*
X152806446Y-82081999D01*
X152780000Y-82055553D01*
X152693449Y-82142104D01*
X151986343Y-82142104D01*
X152056551Y-82071896D01*
X152056551Y-82071895D01*
X151920000Y-81935345D01*
X151686655Y-81702000D01*
X151851268Y-81702000D01*
X151871399Y-81750601D01*
X151907369Y-81765500D01*
X151932631Y-81765500D01*
X151968601Y-81750601D01*
X151988732Y-81702000D01*
X151988731Y-81701998D01*
X152153345Y-81701998D01*
X152289896Y-81838550D01*
X152426447Y-81702000D01*
X152711268Y-81702000D01*
X152731399Y-81750601D01*
X152767369Y-81765500D01*
X152792631Y-81765500D01*
X152828601Y-81750601D01*
X152848732Y-81702000D01*
X153133553Y-81702000D01*
X153283266Y-81851713D01*
X153286942Y-81851713D01*
X153436654Y-81702000D01*
X153601268Y-81702000D01*
X153621399Y-81750601D01*
X153657369Y-81765500D01*
X153682631Y-81765500D01*
X153718601Y-81750601D01*
X153738732Y-81702000D01*
X153718601Y-81653399D01*
X153682631Y-81638500D01*
X153657369Y-81638500D01*
X153621399Y-81653399D01*
X153601268Y-81702000D01*
X153436654Y-81702000D01*
X153436655Y-81701999D01*
X153285104Y-81550449D01*
X153133553Y-81702000D01*
X152848732Y-81702000D01*
X152828601Y-81653399D01*
X152792631Y-81638500D01*
X152767369Y-81638500D01*
X152731399Y-81653399D01*
X152711268Y-81702000D01*
X152426447Y-81702000D01*
X152426447Y-81701999D01*
X152289897Y-81565449D01*
X152153345Y-81701998D01*
X151988731Y-81701998D01*
X151968601Y-81653399D01*
X151932631Y-81638500D01*
X151907369Y-81638500D01*
X151871399Y-81653399D01*
X151851268Y-81702000D01*
X151686655Y-81702000D01*
X151392498Y-81407843D01*
X151359013Y-81346520D01*
X151363997Y-81276828D01*
X151387979Y-81239512D01*
X151387979Y-81236998D01*
X151688345Y-81236998D01*
X151919999Y-81468654D01*
X152056550Y-81332102D01*
X151901342Y-81176895D01*
X152608448Y-81176895D01*
X152780000Y-81348447D01*
X152811343Y-81317104D01*
X153518449Y-81317104D01*
X153670000Y-81468655D01*
X153901655Y-81237000D01*
X153750104Y-81085449D01*
X153518449Y-81317104D01*
X152811343Y-81317104D01*
X152951551Y-81176896D01*
X152951551Y-81176895D01*
X152780001Y-81005345D01*
X152608448Y-81176895D01*
X151901342Y-81176895D01*
X151824895Y-81100449D01*
X151688345Y-81236998D01*
X151387979Y-81236998D01*
X151387979Y-81233243D01*
X151359013Y-81180196D01*
X151363997Y-81110504D01*
X151392498Y-81066157D01*
X151591551Y-80867103D01*
X151496448Y-80772000D01*
X151851268Y-80772000D01*
X151871399Y-80820601D01*
X151907369Y-80835500D01*
X151932631Y-80835500D01*
X151968601Y-80820601D01*
X151988732Y-80772000D01*
X151978334Y-80746896D01*
X152178448Y-80746896D01*
X152375102Y-80943551D01*
X152546653Y-80772000D01*
X152711268Y-80772000D01*
X152731399Y-80820601D01*
X152767369Y-80835500D01*
X152792631Y-80835500D01*
X152828601Y-80820601D01*
X152848732Y-80772000D01*
X153013345Y-80772000D01*
X153184896Y-80943551D01*
X153356446Y-80772000D01*
X153601268Y-80772000D01*
X153621399Y-80820601D01*
X153657369Y-80835500D01*
X153682631Y-80835500D01*
X153718601Y-80820601D01*
X153738732Y-80772000D01*
X153718601Y-80723399D01*
X153682631Y-80708500D01*
X153657369Y-80708500D01*
X153621399Y-80723399D01*
X153601268Y-80772000D01*
X153356446Y-80772000D01*
X153396551Y-80731895D01*
X153225000Y-80560345D01*
X153013345Y-80772000D01*
X152848732Y-80772000D01*
X152828601Y-80723399D01*
X152792631Y-80708500D01*
X152767369Y-80708500D01*
X152731399Y-80723399D01*
X152711268Y-80772000D01*
X152546653Y-80772000D01*
X152546654Y-80771999D01*
X152349998Y-80575345D01*
X152178448Y-80746895D01*
X152178448Y-80746896D01*
X151978334Y-80746896D01*
X151968601Y-80723399D01*
X151932631Y-80708500D01*
X151907369Y-80708500D01*
X151871399Y-80723399D01*
X151851268Y-80772000D01*
X151496448Y-80772000D01*
X150922226Y-80197778D01*
X150922225Y-80197778D01*
X150900444Y-80250366D01*
X150885000Y-80367669D01*
X150885000Y-83036324D01*
X144895000Y-83036324D01*
X144895000Y-82217000D01*
X138575000Y-82217000D01*
X138080294Y-82217000D01*
X138049486Y-82167572D01*
X138005383Y-82096815D01*
X138005378Y-82096808D01*
X137868693Y-81953016D01*
X137868692Y-81953015D01*
X137847757Y-81938444D01*
X137777369Y-81889452D01*
X137705853Y-81839675D01*
X137642373Y-81812434D01*
X137588529Y-81767907D01*
X137567306Y-81701338D01*
X137585441Y-81633863D01*
X137631095Y-81590064D01*
X137790146Y-81501784D01*
X137940682Y-81372553D01*
X138062122Y-81215666D01*
X138149495Y-81037544D01*
X138199224Y-80845480D01*
X138209272Y-80647337D01*
X138179230Y-80451227D01*
X138110325Y-80265180D01*
X138110322Y-80265175D01*
X138005383Y-80096815D01*
X138005378Y-80096808D01*
X137868693Y-79953016D01*
X137868692Y-79953015D01*
X137858613Y-79946000D01*
X137758720Y-79876472D01*
X137712392Y-79844226D01*
X151275778Y-79844226D01*
X151945102Y-80513551D01*
X151945103Y-80513551D01*
X152217357Y-80241298D01*
X152278680Y-80207813D01*
X152305038Y-80204979D01*
X152394962Y-80204979D01*
X152462001Y-80224664D01*
X152482643Y-80241298D01*
X152780000Y-80538655D01*
X153074157Y-80244498D01*
X153135480Y-80211013D01*
X153205172Y-80215997D01*
X153211368Y-80219979D01*
X153245384Y-80219979D01*
X153261804Y-80211013D01*
X153331496Y-80215997D01*
X153375843Y-80244498D01*
X153629896Y-80498551D01*
X153629897Y-80498551D01*
X154284220Y-79844226D01*
X154231631Y-79822444D01*
X154114323Y-79807000D01*
X151445675Y-79807000D01*
X151328370Y-79822443D01*
X151275778Y-79844225D01*
X151275778Y-79844226D01*
X137712392Y-79844226D01*
X137705853Y-79839675D01*
X137642373Y-79812434D01*
X137588529Y-79767907D01*
X137567306Y-79701338D01*
X137585441Y-79633863D01*
X137631095Y-79590064D01*
X137790146Y-79501784D01*
X137940682Y-79372553D01*
X138055757Y-79223889D01*
X140715416Y-79223889D01*
X140715459Y-79248001D01*
X140715500Y-79248099D01*
X140715616Y-79248382D01*
X140715618Y-79248384D01*
X140715808Y-79248462D01*
X140716000Y-79248541D01*
X140716002Y-79248539D01*
X140740616Y-79248524D01*
X140740616Y-79248528D01*
X140740760Y-79248500D01*
X155169240Y-79248500D01*
X155169383Y-79248528D01*
X155169384Y-79248524D01*
X155193997Y-79248539D01*
X155194000Y-79248541D01*
X155194383Y-79248383D01*
X155194500Y-79248099D01*
X155194541Y-79248000D01*
X155194540Y-79247997D01*
X155194583Y-79223889D01*
X155194500Y-79223467D01*
X155194500Y-63397759D01*
X155194528Y-63397616D01*
X155194524Y-63397616D01*
X155194539Y-63373002D01*
X155194541Y-63373000D01*
X155194462Y-63372808D01*
X155194384Y-63372618D01*
X155194382Y-63372616D01*
X155194099Y-63372500D01*
X155194000Y-63372459D01*
X155169446Y-63372459D01*
X155169240Y-63372500D01*
X140740760Y-63372500D01*
X140740554Y-63372459D01*
X140716000Y-63372459D01*
X140715901Y-63372500D01*
X140715617Y-63372616D01*
X140715615Y-63372618D01*
X140715459Y-63372999D01*
X140715476Y-63397616D01*
X140715471Y-63397616D01*
X140715500Y-63397759D01*
X140715500Y-79223467D01*
X140715416Y-79223889D01*
X138055757Y-79223889D01*
X138062122Y-79215666D01*
X138149495Y-79037544D01*
X138199224Y-78845480D01*
X138209272Y-78647337D01*
X138179230Y-78451227D01*
X138110325Y-78265180D01*
X138070009Y-78200499D01*
X138005383Y-78096815D01*
X138005378Y-78096808D01*
X137868693Y-77953016D01*
X137868692Y-77953015D01*
X137705853Y-77839675D01*
X137642373Y-77812434D01*
X137588529Y-77767907D01*
X137567306Y-77701338D01*
X137585441Y-77633863D01*
X137631095Y-77590064D01*
X137790146Y-77501784D01*
X137940682Y-77372553D01*
X138062122Y-77215666D01*
X138149495Y-77037544D01*
X138199224Y-76845480D01*
X138209272Y-76647337D01*
X138179230Y-76451227D01*
X138110325Y-76265180D01*
X138106642Y-76259271D01*
X138005383Y-76096815D01*
X138005378Y-76096808D01*
X137868693Y-75953016D01*
X137868692Y-75953015D01*
X137705853Y-75839675D01*
X137642373Y-75812434D01*
X137588529Y-75767907D01*
X137567306Y-75701338D01*
X137585441Y-75633863D01*
X137631095Y-75590064D01*
X137790146Y-75501784D01*
X137940682Y-75372553D01*
X138062122Y-75215666D01*
X138149495Y-75037544D01*
X138199224Y-74845480D01*
X138209272Y-74647337D01*
X138179230Y-74451227D01*
X138110325Y-74265180D01*
X138110322Y-74265175D01*
X138005383Y-74096815D01*
X138005378Y-74096808D01*
X137868693Y-73953016D01*
X137868692Y-73953015D01*
X137867475Y-73952168D01*
X137738238Y-73862216D01*
X137705853Y-73839675D01*
X137642373Y-73812434D01*
X137588529Y-73767907D01*
X137567306Y-73701338D01*
X137585441Y-73633863D01*
X137631095Y-73590064D01*
X137790146Y-73501784D01*
X137940682Y-73372553D01*
X138062122Y-73215666D01*
X138149495Y-73037544D01*
X138199224Y-72845480D01*
X138209272Y-72647337D01*
X138179230Y-72451227D01*
X138110325Y-72265180D01*
X138050456Y-72169129D01*
X138005383Y-72096815D01*
X138005378Y-72096808D01*
X137868693Y-71953016D01*
X137868692Y-71953015D01*
X137705853Y-71839675D01*
X137642373Y-71812434D01*
X137588529Y-71767907D01*
X137567306Y-71701338D01*
X137585441Y-71633863D01*
X137631095Y-71590064D01*
X137790146Y-71501784D01*
X137940682Y-71372553D01*
X138062122Y-71215666D01*
X138149495Y-71037544D01*
X138199224Y-70845480D01*
X138209272Y-70647337D01*
X138179230Y-70451227D01*
X138110325Y-70265180D01*
X138050456Y-70169129D01*
X138005383Y-70096815D01*
X138005378Y-70096808D01*
X137868693Y-69953016D01*
X137868692Y-69953015D01*
X137705853Y-69839675D01*
X137642373Y-69812434D01*
X137588529Y-69767907D01*
X137567306Y-69701338D01*
X137585441Y-69633863D01*
X137631095Y-69590064D01*
X137790146Y-69501784D01*
X137940682Y-69372553D01*
X138062122Y-69215666D01*
X138149495Y-69037544D01*
X138199224Y-68845480D01*
X138209272Y-68647337D01*
X138179230Y-68451227D01*
X138110325Y-68265180D01*
X138087083Y-68227892D01*
X138005383Y-68096815D01*
X138005378Y-68096808D01*
X137868693Y-67953016D01*
X137868692Y-67953015D01*
X137705853Y-67839675D01*
X137642373Y-67812434D01*
X137588529Y-67767907D01*
X137567306Y-67701338D01*
X137585441Y-67633863D01*
X137631095Y-67590064D01*
X137790146Y-67501784D01*
X137940682Y-67372553D01*
X138062122Y-67215666D01*
X138149495Y-67037544D01*
X138199224Y-66845480D01*
X138209272Y-66647337D01*
X138179230Y-66451227D01*
X138110325Y-66265180D01*
X138050456Y-66169129D01*
X138005383Y-66096815D01*
X138005378Y-66096808D01*
X137868693Y-65953016D01*
X137868692Y-65953015D01*
X137705853Y-65839675D01*
X137642373Y-65812434D01*
X137588529Y-65767907D01*
X137567306Y-65701338D01*
X137585441Y-65633863D01*
X137631095Y-65590064D01*
X137790146Y-65501784D01*
X137940682Y-65372553D01*
X138062122Y-65215666D01*
X138149495Y-65037544D01*
X138199224Y-64845480D01*
X138209272Y-64647337D01*
X138179230Y-64451227D01*
X138110325Y-64265180D01*
X138050456Y-64169129D01*
X138005383Y-64096815D01*
X138005378Y-64096808D01*
X137868693Y-63953016D01*
X137868692Y-63953015D01*
X137705853Y-63839675D01*
X137642373Y-63812434D01*
X137588529Y-63767907D01*
X137567306Y-63701338D01*
X137585441Y-63633863D01*
X137631095Y-63590064D01*
X137790146Y-63501784D01*
X137940682Y-63372553D01*
X138062122Y-63215666D01*
X138149495Y-63037544D01*
X138180847Y-62916455D01*
X138199222Y-62845488D01*
X138199223Y-62845482D01*
X138199224Y-62845480D01*
X138209272Y-62647337D01*
X138179230Y-62451227D01*
X138110325Y-62265180D01*
X138050456Y-62169129D01*
X138005383Y-62096815D01*
X138005378Y-62096808D01*
X137868693Y-61953016D01*
X137868692Y-61953015D01*
X137849431Y-61939609D01*
X137738238Y-61862216D01*
X137705853Y-61839675D01*
X137642373Y-61812434D01*
X137588529Y-61767907D01*
X137567306Y-61701338D01*
X137585441Y-61633863D01*
X137631095Y-61590064D01*
X137790146Y-61501784D01*
X137940682Y-61372553D01*
X138062122Y-61215666D01*
X138149495Y-61037544D01*
X138199224Y-60845480D01*
X138209272Y-60647337D01*
X138179230Y-60451227D01*
X138110325Y-60265180D01*
X138050456Y-60169129D01*
X138005383Y-60096815D01*
X138005378Y-60096808D01*
X137868693Y-59953016D01*
X137868692Y-59953015D01*
X137705853Y-59839675D01*
X137523535Y-59761437D01*
X137329199Y-59721500D01*
X136130527Y-59721500D01*
X136130526Y-59721500D01*
X135982619Y-59736540D01*
X135798347Y-59794356D01*
X135728489Y-59795643D01*
X135717912Y-59792231D01*
X135633406Y-59760713D01*
X135612481Y-59752908D01*
X135552883Y-59746501D01*
X135552881Y-59746500D01*
X135552873Y-59746500D01*
X135552864Y-59746500D01*
X134157129Y-59746500D01*
X134157123Y-59746501D01*
X134097516Y-59752908D01*
X133962671Y-59803202D01*
X133962664Y-59803206D01*
X133847455Y-59889452D01*
X133847452Y-59889455D01*
X133761206Y-60004664D01*
X133761202Y-60004671D01*
X133710908Y-60139517D01*
X133704501Y-60199116D01*
X133704500Y-60199135D01*
X133704500Y-61194870D01*
X133704501Y-61194876D01*
X133710908Y-61254483D01*
X133761202Y-61389328D01*
X133761206Y-61389335D01*
X133847452Y-61504544D01*
X133847455Y-61504547D01*
X133969769Y-61596112D01*
X133968070Y-61598381D01*
X134007264Y-61637580D01*
X134022111Y-61705854D01*
X133997690Y-61771317D01*
X133968689Y-61796445D01*
X133969769Y-61797888D01*
X133847455Y-61889452D01*
X133847452Y-61889455D01*
X133761206Y-62004664D01*
X133761202Y-62004671D01*
X133710908Y-62139517D01*
X133704501Y-62199116D01*
X133704500Y-62199135D01*
X133704500Y-63194870D01*
X133704501Y-63194876D01*
X133710908Y-63254483D01*
X133761202Y-63389328D01*
X133761206Y-63389335D01*
X133847452Y-63504544D01*
X133847455Y-63504547D01*
X133969769Y-63596112D01*
X133968067Y-63598384D01*
X134007249Y-63637551D01*
X134022114Y-63705821D01*
X133997709Y-63771290D01*
X133968690Y-63796447D01*
X133969769Y-63797888D01*
X133847455Y-63889452D01*
X133847452Y-63889455D01*
X133761206Y-64004664D01*
X133761202Y-64004671D01*
X133710908Y-64139517D01*
X133704501Y-64199116D01*
X133704500Y-64199135D01*
X133704500Y-65194870D01*
X133704501Y-65194876D01*
X133710908Y-65254483D01*
X133761202Y-65389328D01*
X133761206Y-65389335D01*
X133847452Y-65504544D01*
X133847455Y-65504547D01*
X133969769Y-65596112D01*
X133968067Y-65598384D01*
X134007249Y-65637551D01*
X134022114Y-65705821D01*
X133997709Y-65771290D01*
X133968690Y-65796447D01*
X133969769Y-65797888D01*
X133847455Y-65889452D01*
X133847452Y-65889455D01*
X133761206Y-66004664D01*
X133761202Y-66004671D01*
X133710908Y-66139517D01*
X133704501Y-66199116D01*
X133704500Y-66199135D01*
X133704500Y-67194870D01*
X133704501Y-67194876D01*
X133710908Y-67254483D01*
X133761202Y-67389328D01*
X133761206Y-67389335D01*
X133847452Y-67504544D01*
X133847455Y-67504547D01*
X133969769Y-67596112D01*
X133968067Y-67598384D01*
X134007249Y-67637551D01*
X134022114Y-67705821D01*
X133997709Y-67771290D01*
X133968690Y-67796447D01*
X133969769Y-67797888D01*
X133847455Y-67889452D01*
X133847452Y-67889455D01*
X133761206Y-68004664D01*
X133761202Y-68004671D01*
X133710908Y-68139517D01*
X133704501Y-68199116D01*
X133704500Y-68199135D01*
X133704500Y-69194870D01*
X133704501Y-69194876D01*
X133710908Y-69254483D01*
X133761202Y-69389328D01*
X133761206Y-69389335D01*
X133847452Y-69504544D01*
X133847455Y-69504547D01*
X133969769Y-69596112D01*
X133968070Y-69598381D01*
X134007264Y-69637580D01*
X134022111Y-69705854D01*
X133997690Y-69771317D01*
X133968689Y-69796445D01*
X133969769Y-69797888D01*
X133847455Y-69889452D01*
X133847452Y-69889455D01*
X133761206Y-70004664D01*
X133761202Y-70004671D01*
X133710908Y-70139517D01*
X133704501Y-70199116D01*
X133704500Y-70199135D01*
X133704500Y-71194870D01*
X133704501Y-71194876D01*
X133710908Y-71254483D01*
X133761202Y-71389328D01*
X133761206Y-71389335D01*
X133847452Y-71504544D01*
X133847455Y-71504547D01*
X133969769Y-71596112D01*
X133968070Y-71598381D01*
X134007264Y-71637580D01*
X134022111Y-71705854D01*
X133997690Y-71771317D01*
X133968689Y-71796445D01*
X133969769Y-71797888D01*
X133847455Y-71889452D01*
X133847452Y-71889455D01*
X133761206Y-72004664D01*
X133761202Y-72004671D01*
X133710908Y-72139517D01*
X133704501Y-72199116D01*
X133704500Y-72199135D01*
X133704500Y-73194870D01*
X133704501Y-73194876D01*
X133710908Y-73254483D01*
X133761202Y-73389328D01*
X133761206Y-73389335D01*
X133847452Y-73504544D01*
X133847455Y-73504547D01*
X133969769Y-73596112D01*
X133968070Y-73598381D01*
X134007264Y-73637580D01*
X134022111Y-73705854D01*
X133997690Y-73771317D01*
X133968689Y-73796445D01*
X133969769Y-73797888D01*
X133847455Y-73889452D01*
X133847452Y-73889455D01*
X133761206Y-74004664D01*
X133761202Y-74004671D01*
X133710908Y-74139517D01*
X133704501Y-74199116D01*
X133704500Y-74199135D01*
X133704500Y-75194870D01*
X133704501Y-75194876D01*
X133710908Y-75254483D01*
X133761202Y-75389328D01*
X133761206Y-75389335D01*
X133847452Y-75504544D01*
X133847455Y-75504547D01*
X133969769Y-75596112D01*
X133968070Y-75598381D01*
X134007264Y-75637580D01*
X134022111Y-75705854D01*
X133997690Y-75771317D01*
X133968689Y-75796445D01*
X133969769Y-75797888D01*
X133847455Y-75889452D01*
X133847452Y-75889455D01*
X133761206Y-76004664D01*
X133761202Y-76004671D01*
X133710908Y-76139517D01*
X133704501Y-76199116D01*
X133704500Y-76199135D01*
X133704500Y-77194870D01*
X133704501Y-77194876D01*
X133710908Y-77254483D01*
X133761202Y-77389328D01*
X133761206Y-77389335D01*
X133847452Y-77504544D01*
X133847455Y-77504547D01*
X133969769Y-77596112D01*
X133968070Y-77598381D01*
X134007264Y-77637580D01*
X134022111Y-77705854D01*
X133997690Y-77771317D01*
X133968689Y-77796445D01*
X133969769Y-77797888D01*
X133847455Y-77889452D01*
X133847452Y-77889455D01*
X133761206Y-78004664D01*
X133761202Y-78004671D01*
X133710908Y-78139517D01*
X133704501Y-78199116D01*
X133704500Y-78199135D01*
X133704500Y-79194870D01*
X133704501Y-79194876D01*
X133710908Y-79254483D01*
X133761202Y-79389328D01*
X133761206Y-79389335D01*
X133847452Y-79504544D01*
X133847455Y-79504547D01*
X133969769Y-79596112D01*
X133968070Y-79598381D01*
X134007264Y-79637580D01*
X134022111Y-79705854D01*
X133997690Y-79771317D01*
X133968689Y-79796445D01*
X133969769Y-79797888D01*
X133847455Y-79889452D01*
X133847452Y-79889455D01*
X133761206Y-80004664D01*
X133761202Y-80004671D01*
X133710908Y-80139517D01*
X133704501Y-80199116D01*
X133704500Y-80199135D01*
X133704500Y-81194870D01*
X133704501Y-81194876D01*
X133710908Y-81254483D01*
X133761202Y-81389328D01*
X133761206Y-81389335D01*
X133847452Y-81504544D01*
X133847455Y-81504547D01*
X133969769Y-81596112D01*
X133968070Y-81598381D01*
X134007264Y-81637580D01*
X134022111Y-81705854D01*
X133997690Y-81771317D01*
X133968689Y-81796445D01*
X133969769Y-81797888D01*
X133847455Y-81889452D01*
X133847452Y-81889455D01*
X133761206Y-82004664D01*
X133761202Y-82004671D01*
X133710908Y-82139517D01*
X133704501Y-82199116D01*
X133704500Y-82199135D01*
X133704500Y-83194870D01*
X133704501Y-83194876D01*
X133710908Y-83254483D01*
X133761202Y-83389328D01*
X133761206Y-83389335D01*
X133847452Y-83504544D01*
X133847455Y-83504547D01*
X133969769Y-83596112D01*
X133968070Y-83598381D01*
X134007264Y-83637580D01*
X134022111Y-83705854D01*
X133997690Y-83771317D01*
X133968689Y-83796445D01*
X133969769Y-83797888D01*
X133847455Y-83889452D01*
X133847452Y-83889455D01*
X133761206Y-84004664D01*
X133761202Y-84004671D01*
X133710908Y-84139517D01*
X133704501Y-84199116D01*
X133704500Y-84199135D01*
X133704500Y-85194870D01*
X133704501Y-85194876D01*
X133710908Y-85254483D01*
X133761202Y-85389328D01*
X133761206Y-85389335D01*
X133847452Y-85504544D01*
X133847455Y-85504547D01*
X133969769Y-85596112D01*
X133968070Y-85598381D01*
X134007264Y-85637580D01*
X134022111Y-85705854D01*
X133997690Y-85771317D01*
X133968689Y-85796445D01*
X133969769Y-85797888D01*
X133847455Y-85889452D01*
X133847452Y-85889455D01*
X133761206Y-86004664D01*
X133761202Y-86004671D01*
X133710908Y-86139517D01*
X133704501Y-86199116D01*
X133704500Y-86199135D01*
X133704500Y-87194870D01*
X133704501Y-87194876D01*
X133710908Y-87254483D01*
X133761202Y-87389328D01*
X133761206Y-87389335D01*
X133847452Y-87504544D01*
X133847455Y-87504547D01*
X133969769Y-87596112D01*
X133968070Y-87598381D01*
X134007264Y-87637580D01*
X134022111Y-87705854D01*
X133997690Y-87771317D01*
X133968689Y-87796445D01*
X133969769Y-87797888D01*
X133847455Y-87889452D01*
X133847452Y-87889455D01*
X133761206Y-88004664D01*
X133761202Y-88004671D01*
X133710908Y-88139517D01*
X133704501Y-88199116D01*
X133704500Y-88199135D01*
X133704500Y-89194870D01*
X133704501Y-89194876D01*
X133710908Y-89254483D01*
X133761202Y-89389328D01*
X133761206Y-89389335D01*
X133847452Y-89504544D01*
X133847455Y-89504547D01*
X133969769Y-89596112D01*
X133968070Y-89598381D01*
X134007264Y-89637580D01*
X134022111Y-89705854D01*
X133997690Y-89771317D01*
X133968689Y-89796445D01*
X133969769Y-89797888D01*
X133847455Y-89889452D01*
X133847452Y-89889455D01*
X133761206Y-90004664D01*
X133761202Y-90004671D01*
X133710908Y-90139517D01*
X133704501Y-90199116D01*
X133704500Y-90199135D01*
X133704500Y-91194870D01*
X131826500Y-91194870D01*
X131826500Y-58931474D01*
X139899500Y-58931474D01*
X139914540Y-59079380D01*
X139973930Y-59268670D01*
X139973933Y-59268678D01*
X140023430Y-59357853D01*
X140070217Y-59442147D01*
X140070217Y-59442148D01*
X140199445Y-59592680D01*
X140199446Y-59592682D01*
X140346540Y-59706541D01*
X140356334Y-59714122D01*
X140534456Y-59801495D01*
X140534460Y-59801496D01*
X140534458Y-59801496D01*
X140726511Y-59851222D01*
X140726514Y-59851222D01*
X140726520Y-59851224D01*
X140924663Y-59861272D01*
X141120773Y-59831230D01*
X141306820Y-59762325D01*
X141475189Y-59657380D01*
X141618986Y-59520691D01*
X141732324Y-59357854D01*
X141759565Y-59294373D01*
X141804091Y-59240530D01*
X141870659Y-59219306D01*
X141938134Y-59237441D01*
X141981935Y-59283095D01*
X142000869Y-59317208D01*
X142023429Y-59357853D01*
X142070217Y-59442147D01*
X142070217Y-59442148D01*
X142199445Y-59592680D01*
X142199446Y-59592682D01*
X142346540Y-59706541D01*
X142356334Y-59714122D01*
X142534456Y-59801495D01*
X142534460Y-59801496D01*
X142534458Y-59801496D01*
X142726511Y-59851222D01*
X142726514Y-59851222D01*
X142726520Y-59851224D01*
X142924663Y-59861272D01*
X143120773Y-59831230D01*
X143306820Y-59762325D01*
X143475189Y-59657380D01*
X143618986Y-59520691D01*
X143732324Y-59357854D01*
X143759565Y-59294373D01*
X143804091Y-59240530D01*
X143870659Y-59219306D01*
X143938134Y-59237441D01*
X143981935Y-59283095D01*
X144000869Y-59317208D01*
X144023429Y-59357853D01*
X144070217Y-59442147D01*
X144070217Y-59442148D01*
X144199445Y-59592680D01*
X144199446Y-59592682D01*
X144346540Y-59706541D01*
X144356334Y-59714122D01*
X144534456Y-59801495D01*
X144534460Y-59801496D01*
X144534458Y-59801496D01*
X144726511Y-59851222D01*
X144726514Y-59851222D01*
X144726520Y-59851224D01*
X144924663Y-59861272D01*
X145120773Y-59831230D01*
X145306820Y-59762325D01*
X145475189Y-59657380D01*
X145618986Y-59520691D01*
X145732324Y-59357854D01*
X145759565Y-59294373D01*
X145804091Y-59240530D01*
X145870659Y-59219306D01*
X145938134Y-59237441D01*
X145981935Y-59283095D01*
X146000869Y-59317208D01*
X146023429Y-59357853D01*
X146070217Y-59442147D01*
X146070217Y-59442148D01*
X146199445Y-59592680D01*
X146199446Y-59592682D01*
X146346540Y-59706541D01*
X146356334Y-59714122D01*
X146534456Y-59801495D01*
X146534460Y-59801496D01*
X146534458Y-59801496D01*
X146726511Y-59851222D01*
X146726514Y-59851222D01*
X146726520Y-59851224D01*
X146924663Y-59861272D01*
X147120773Y-59831230D01*
X147306820Y-59762325D01*
X147475189Y-59657380D01*
X147618986Y-59520691D01*
X147732324Y-59357854D01*
X147759565Y-59294373D01*
X147804091Y-59240530D01*
X147870659Y-59219306D01*
X147938134Y-59237441D01*
X147981935Y-59283095D01*
X148000869Y-59317208D01*
X148023429Y-59357853D01*
X148070217Y-59442147D01*
X148070217Y-59442148D01*
X148199445Y-59592680D01*
X148199446Y-59592682D01*
X148346540Y-59706541D01*
X148356334Y-59714122D01*
X148534456Y-59801495D01*
X148534460Y-59801496D01*
X148534458Y-59801496D01*
X148726511Y-59851222D01*
X148726514Y-59851222D01*
X148726520Y-59851224D01*
X148924663Y-59861272D01*
X149120773Y-59831230D01*
X149306820Y-59762325D01*
X149475189Y-59657380D01*
X149618986Y-59520691D01*
X149732324Y-59357854D01*
X149759565Y-59294373D01*
X149804091Y-59240530D01*
X149870659Y-59219306D01*
X149938134Y-59237441D01*
X149981935Y-59283095D01*
X150000869Y-59317208D01*
X150023429Y-59357853D01*
X150070217Y-59442147D01*
X150070217Y-59442148D01*
X150199445Y-59592680D01*
X150199446Y-59592682D01*
X150346540Y-59706541D01*
X150356334Y-59714122D01*
X150534456Y-59801495D01*
X150534460Y-59801496D01*
X150534458Y-59801496D01*
X150726511Y-59851222D01*
X150726514Y-59851222D01*
X150726520Y-59851224D01*
X150924663Y-59861272D01*
X151120773Y-59831230D01*
X151306820Y-59762325D01*
X151475189Y-59657380D01*
X151618986Y-59520691D01*
X151732324Y-59357854D01*
X151759565Y-59294373D01*
X151804091Y-59240530D01*
X151870659Y-59219306D01*
X151938134Y-59237441D01*
X151981935Y-59283095D01*
X152000869Y-59317208D01*
X152023429Y-59357853D01*
X152070217Y-59442147D01*
X152070217Y-59442148D01*
X152199445Y-59592680D01*
X152199446Y-59592682D01*
X152346540Y-59706541D01*
X152356334Y-59714122D01*
X152534456Y-59801495D01*
X152534460Y-59801496D01*
X152534458Y-59801496D01*
X152726511Y-59851222D01*
X152726514Y-59851222D01*
X152726520Y-59851224D01*
X152924663Y-59861272D01*
X153120773Y-59831230D01*
X153306820Y-59762325D01*
X153475189Y-59657380D01*
X153618986Y-59520691D01*
X153732324Y-59357854D01*
X153759565Y-59294373D01*
X153804091Y-59240530D01*
X153870659Y-59219306D01*
X153938134Y-59237441D01*
X153981935Y-59283095D01*
X154000869Y-59317208D01*
X154023429Y-59357853D01*
X154070217Y-59442147D01*
X154070217Y-59442148D01*
X154199445Y-59592680D01*
X154199446Y-59592682D01*
X154346540Y-59706541D01*
X154356334Y-59714122D01*
X154534456Y-59801495D01*
X154534460Y-59801496D01*
X154534458Y-59801496D01*
X154726511Y-59851222D01*
X154726514Y-59851222D01*
X154726520Y-59851224D01*
X154924663Y-59861272D01*
X155120773Y-59831230D01*
X155306820Y-59762325D01*
X155475189Y-59657380D01*
X155618986Y-59520691D01*
X155732324Y-59357854D01*
X155810563Y-59175535D01*
X155850500Y-58981199D01*
X155850500Y-57782527D01*
X155835459Y-57634621D01*
X155835459Y-57634619D01*
X155777644Y-57450348D01*
X155776356Y-57380490D01*
X155779775Y-57369894D01*
X155793536Y-57333000D01*
X155819091Y-57264483D01*
X155825500Y-57204873D01*
X155825499Y-55809128D01*
X155819091Y-55749517D01*
X155790966Y-55674111D01*
X155768797Y-55614671D01*
X155768793Y-55614664D01*
X155682547Y-55499455D01*
X155682544Y-55499452D01*
X155567335Y-55413206D01*
X155567328Y-55413202D01*
X155432482Y-55362908D01*
X155432483Y-55362908D01*
X155372883Y-55356501D01*
X155372881Y-55356500D01*
X155372873Y-55356500D01*
X155372864Y-55356500D01*
X154377129Y-55356500D01*
X154377123Y-55356501D01*
X154317516Y-55362908D01*
X154182671Y-55413202D01*
X154182664Y-55413206D01*
X154067455Y-55499452D01*
X154067452Y-55499455D01*
X153975888Y-55621769D01*
X153973618Y-55620070D01*
X153934420Y-55659264D01*
X153866146Y-55674111D01*
X153800683Y-55649690D01*
X153775554Y-55620689D01*
X153774112Y-55621769D01*
X153682547Y-55499455D01*
X153682544Y-55499452D01*
X153567335Y-55413206D01*
X153567328Y-55413202D01*
X153432482Y-55362908D01*
X153432483Y-55362908D01*
X153372883Y-55356501D01*
X153372881Y-55356500D01*
X153372873Y-55356500D01*
X153372864Y-55356500D01*
X152377129Y-55356500D01*
X152377123Y-55356501D01*
X152317516Y-55362908D01*
X152182671Y-55413202D01*
X152182664Y-55413206D01*
X152067455Y-55499452D01*
X152067452Y-55499455D01*
X151975888Y-55621769D01*
X151973618Y-55620070D01*
X151934420Y-55659264D01*
X151866146Y-55674111D01*
X151800683Y-55649690D01*
X151775554Y-55620689D01*
X151774112Y-55621769D01*
X151682547Y-55499455D01*
X151682544Y-55499452D01*
X151567335Y-55413206D01*
X151567328Y-55413202D01*
X151432482Y-55362908D01*
X151432483Y-55362908D01*
X151372883Y-55356501D01*
X151372881Y-55356500D01*
X151372873Y-55356500D01*
X151372864Y-55356500D01*
X150377129Y-55356500D01*
X150377123Y-55356501D01*
X150317516Y-55362908D01*
X150182671Y-55413202D01*
X150182664Y-55413206D01*
X150067455Y-55499452D01*
X150067452Y-55499455D01*
X149975888Y-55621769D01*
X149973618Y-55620070D01*
X149934420Y-55659264D01*
X149866146Y-55674111D01*
X149800683Y-55649690D01*
X149775554Y-55620689D01*
X149774112Y-55621769D01*
X149682547Y-55499455D01*
X149682544Y-55499452D01*
X149567335Y-55413206D01*
X149567328Y-55413202D01*
X149432482Y-55362908D01*
X149432483Y-55362908D01*
X149372883Y-55356501D01*
X149372881Y-55356500D01*
X149372873Y-55356500D01*
X149372864Y-55356500D01*
X148377129Y-55356500D01*
X148377123Y-55356501D01*
X148317516Y-55362908D01*
X148182671Y-55413202D01*
X148182664Y-55413206D01*
X148067455Y-55499452D01*
X148067452Y-55499455D01*
X147975888Y-55621769D01*
X147973618Y-55620070D01*
X147934420Y-55659264D01*
X147866146Y-55674111D01*
X147800683Y-55649690D01*
X147775554Y-55620689D01*
X147774112Y-55621769D01*
X147682547Y-55499455D01*
X147682544Y-55499452D01*
X147567335Y-55413206D01*
X147567328Y-55413202D01*
X147432482Y-55362908D01*
X147432483Y-55362908D01*
X147372883Y-55356501D01*
X147372881Y-55356500D01*
X147372873Y-55356500D01*
X147372864Y-55356500D01*
X146377129Y-55356500D01*
X146377123Y-55356501D01*
X146317516Y-55362908D01*
X146182671Y-55413202D01*
X146182664Y-55413206D01*
X146067455Y-55499452D01*
X146067452Y-55499455D01*
X145975888Y-55621769D01*
X145973618Y-55620070D01*
X145934420Y-55659264D01*
X145866146Y-55674111D01*
X145800683Y-55649690D01*
X145775554Y-55620689D01*
X145774112Y-55621769D01*
X145682547Y-55499455D01*
X145682544Y-55499452D01*
X145567335Y-55413206D01*
X145567328Y-55413202D01*
X145432482Y-55362908D01*
X145432483Y-55362908D01*
X145372883Y-55356501D01*
X145372881Y-55356500D01*
X145372873Y-55356500D01*
X145372864Y-55356500D01*
X144377129Y-55356500D01*
X144377123Y-55356501D01*
X144317516Y-55362908D01*
X144182671Y-55413202D01*
X144182664Y-55413206D01*
X144067455Y-55499452D01*
X144067452Y-55499455D01*
X143975888Y-55621769D01*
X143973618Y-55620070D01*
X143934420Y-55659264D01*
X143866146Y-55674111D01*
X143800683Y-55649690D01*
X143775554Y-55620689D01*
X143774112Y-55621769D01*
X143682547Y-55499455D01*
X143682544Y-55499452D01*
X143567335Y-55413206D01*
X143567328Y-55413202D01*
X143432482Y-55362908D01*
X143432483Y-55362908D01*
X143372883Y-55356501D01*
X143372881Y-55356500D01*
X143372873Y-55356500D01*
X143372864Y-55356500D01*
X142377129Y-55356500D01*
X142377123Y-55356501D01*
X142317516Y-55362908D01*
X142182671Y-55413202D01*
X142182664Y-55413206D01*
X142067455Y-55499452D01*
X142067452Y-55499455D01*
X141975888Y-55621769D01*
X141973618Y-55620070D01*
X141934420Y-55659264D01*
X141866146Y-55674111D01*
X141800683Y-55649690D01*
X141775554Y-55620689D01*
X141774112Y-55621769D01*
X141682547Y-55499455D01*
X141682544Y-55499452D01*
X141567335Y-55413206D01*
X141567328Y-55413202D01*
X141432482Y-55362908D01*
X141432483Y-55362908D01*
X141372883Y-55356501D01*
X141372881Y-55356500D01*
X141372873Y-55356500D01*
X141372864Y-55356500D01*
X140377129Y-55356500D01*
X140377123Y-55356501D01*
X140317516Y-55362908D01*
X140182671Y-55413202D01*
X140182664Y-55413206D01*
X140067455Y-55499452D01*
X140067452Y-55499455D01*
X139981206Y-55614664D01*
X139981202Y-55614671D01*
X139930908Y-55749517D01*
X139924501Y-55809116D01*
X139924501Y-55809123D01*
X139924500Y-55809135D01*
X139924500Y-57204870D01*
X139924501Y-57204876D01*
X139930908Y-57264483D01*
X139972178Y-57375132D01*
X139977162Y-57444824D01*
X139969948Y-57467363D01*
X139939437Y-57538464D01*
X139899500Y-57732800D01*
X139899500Y-58931474D01*
X131826500Y-58931474D01*
X131826500Y-53210500D01*
X131846185Y-53143461D01*
X131898989Y-53097706D01*
X131950500Y-53086500D01*
X201805500Y-53086500D01*
X201872539Y-53106185D01*
G37*
%TD.AperFunction*%
%TD*%
M02*
