%TF.GenerationSoftware,KiCad,Pcbnew,8.0.6*%
%TF.CreationDate,2024-12-22T02:50:06-05:00*%
%TF.ProjectId,accessory_test,61636365-7373-46f7-9279-5f746573742e,rev?*%
%TF.SameCoordinates,Original*%
%TF.FileFunction,Copper,L2,Bot*%
%TF.FilePolarity,Positive*%
%FSLAX46Y46*%
G04 Gerber Fmt 4.6, Leading zero omitted, Abs format (unit mm)*
G04 Created by KiCad (PCBNEW 8.0.6) date 2024-12-22 02:50:06*
%MOMM*%
%LPD*%
G01*
G04 APERTURE LIST*
%TA.AperFunction,ComponentPad*%
%ADD10O,1.700000X1.700000*%
%TD*%
%TA.AperFunction,ComponentPad*%
%ADD11R,1.700000X1.700000*%
%TD*%
%TA.AperFunction,ComponentPad*%
%ADD12R,1.600000X1.600000*%
%TD*%
%TA.AperFunction,ComponentPad*%
%ADD13C,1.600000*%
%TD*%
%TA.AperFunction,ComponentPad*%
%ADD14R,1.300000X1.300000*%
%TD*%
%TA.AperFunction,ComponentPad*%
%ADD15C,1.300000*%
%TD*%
%TA.AperFunction,ViaPad*%
%ADD16C,0.600000*%
%TD*%
%TA.AperFunction,Conductor*%
%ADD17C,0.200000*%
%TD*%
%TA.AperFunction,Conductor*%
%ADD18C,0.500000*%
%TD*%
G04 APERTURE END LIST*
D10*
%TO.P,J3,2,Pin_2*%
%TO.N,12v*%
X96621600Y-63550800D03*
D11*
%TO.P,J3,1,Pin_1*%
%TO.N,GNDA*%
X94081600Y-63550800D03*
%TD*%
D12*
%TO.P,U3,1,GND*%
%TO.N,GNDA*%
X104648000Y-68211000D03*
D13*
%TO.P,U3,2,0_RX1_CRX2_CS1*%
%TO.N,unconnected-(U3-0_RX1_CRX2_CS1-Pad2)*%
X107188000Y-68211000D03*
%TO.P,U3,3,1_TX1_CTX2_MISO1*%
%TO.N,unconnected-(U3-1_TX1_CTX2_MISO1-Pad3)*%
X109728000Y-68211000D03*
%TO.P,U3,4,2_OUT2*%
%TO.N,unconnected-(U3-2_OUT2-Pad4)*%
X112268000Y-68211000D03*
%TO.P,U3,5,3_LRCLK2*%
%TO.N,unconnected-(U3-3_LRCLK2-Pad5)*%
X114808000Y-68211000D03*
%TO.P,U3,6,4_BCLK2*%
%TO.N,DIN5*%
X117348000Y-68211000D03*
%TO.P,U3,7,5_IN2*%
%TO.N,DIN2*%
X119888000Y-68211000D03*
%TO.P,U3,8,6_OUT1D*%
%TO.N,DIN4*%
X122428000Y-68211000D03*
%TO.P,U3,9,7_RX2_OUT1A*%
%TO.N,DIN1*%
X124968000Y-68211000D03*
%TO.P,U3,10,8_TX2_IN1*%
%TO.N,DIN3*%
X127508000Y-68211000D03*
%TO.P,U3,11,9_OUT1C*%
%TO.N,DIN0*%
X130048000Y-68211000D03*
%TO.P,U3,12,10_CS_MQSR*%
%TO.N,CS*%
X132588000Y-68211000D03*
%TO.P,U3,13,11_MOSI_CTX1*%
%TO.N,MOSI*%
X135128000Y-68211000D03*
%TO.P,U3,14,12_MISO_MQSL*%
%TO.N,MISO*%
X137668000Y-68211000D03*
%TO.P,U3,15,3V3*%
%TO.N,unconnected-(U3-3V3-Pad15)*%
X140208000Y-68211000D03*
%TO.P,U3,16,24_A10_TX6_SCL2*%
%TO.N,unconnected-(U3-24_A10_TX6_SCL2-Pad16)*%
X142748000Y-68211000D03*
%TO.P,U3,17,25_A11_RX6_SDA2*%
%TO.N,unconnected-(U3-25_A11_RX6_SDA2-Pad17)*%
X145288000Y-68211000D03*
%TO.P,U3,18,26_A12_MOSI1*%
%TO.N,MOSI1*%
X147828000Y-68211000D03*
%TO.P,U3,19,27_A13_SCK1*%
%TO.N,SCLK1*%
X150368000Y-68211000D03*
%TO.P,U3,20,28_RX7*%
%TO.N,LDAC*%
X152908000Y-68211000D03*
%TO.P,U3,21,29_TX7*%
%TO.N,LDAC1*%
X155448000Y-68211000D03*
%TO.P,U3,22,30_CRX3*%
%TO.N,LDAC2*%
X157988000Y-68211000D03*
%TO.P,U3,23,31_CTX3*%
%TO.N,RESET*%
X160528000Y-68211000D03*
%TO.P,U3,24,32_OUT1B*%
%TO.N,unconnected-(U3-32_OUT1B-Pad24)*%
X163068000Y-68211000D03*
%TO.P,U3,25,33_MCLK2*%
%TO.N,unconnected-(U3-33_MCLK2-Pad25)*%
X163068000Y-52971000D03*
%TO.P,U3,26,34_RX8*%
%TO.N,unconnected-(U3-34_RX8-Pad26)*%
X160528000Y-52971000D03*
%TO.P,U3,27,35_TX8*%
%TO.N,unconnected-(U3-35_TX8-Pad27)*%
X157988000Y-52971000D03*
%TO.P,U3,28,36_CS*%
%TO.N,CS1*%
X155448000Y-52971000D03*
%TO.P,U3,29,37_CS*%
%TO.N,CS2*%
X152908000Y-52971000D03*
%TO.P,U3,30,38_CS1_IN1*%
%TO.N,unconnected-(U3-38_CS1_IN1-Pad30)*%
X150368000Y-52971000D03*
%TO.P,U3,31,39_MISO1_OUT1A*%
%TO.N,unconnected-(U3-39_MISO1_OUT1A-Pad31)*%
X147828000Y-52971000D03*
%TO.P,U3,32,40_A16*%
%TO.N,unconnected-(U3-40_A16-Pad32)*%
X145288000Y-52971000D03*
%TO.P,U3,33,41_A17*%
%TO.N,unconnected-(U3-41_A17-Pad33)*%
X142748000Y-52971000D03*
%TO.P,U3,34,GND*%
%TO.N,GNDA*%
X140208000Y-52971000D03*
%TO.P,U3,35,13_SCK_LED*%
%TO.N,SCLK*%
X137668000Y-52971000D03*
%TO.P,U3,36,14_A0_TX3_SPDIF_OUT*%
%TO.N,unconnected-(U3-14_A0_TX3_SPDIF_OUT-Pad36)*%
X135128000Y-52971000D03*
%TO.P,U3,37,15_A1_RX3_SPDIF_IN*%
%TO.N,unconnected-(U3-15_A1_RX3_SPDIF_IN-Pad37)*%
X132588000Y-52971000D03*
%TO.P,U3,38,16_A2_RX4_SCL1*%
%TO.N,unconnected-(U3-16_A2_RX4_SCL1-Pad38)*%
X130048000Y-52971000D03*
%TO.P,U3,39,17_A3_TX4_SDA1*%
%TO.N,unconnected-(U3-17_A3_TX4_SDA1-Pad39)*%
X127508000Y-52971000D03*
%TO.P,U3,40,18_A4_SDA*%
%TO.N,S5*%
X124968000Y-52971000D03*
%TO.P,U3,41,19_A5_SCL*%
%TO.N,S6*%
X122428000Y-52971000D03*
%TO.P,U3,42,20_A6_TX5_LRCLK1*%
%TO.N,S4*%
X119888000Y-52971000D03*
%TO.P,U3,43,21_A7_RX5_BCLK1*%
%TO.N,S3*%
X117348000Y-52971000D03*
%TO.P,U3,44,22_A8_CTX1*%
%TO.N,S2*%
X114808000Y-52971000D03*
%TO.P,U3,45,23_A9_CRX1_MCLK1*%
%TO.N,S1*%
X112268000Y-52971000D03*
%TO.P,U3,46,3V3*%
%TO.N,unconnected-(U3-3V3-Pad46)*%
X109728000Y-52971000D03*
%TO.P,U3,47,GND*%
%TO.N,GNDA*%
X107188000Y-52971000D03*
%TO.P,U3,48,VIN*%
%TO.N,5BUCK*%
X104648000Y-52971000D03*
%TO.P,U3,49,VUSB*%
%TO.N,unconnected-(U3-VUSB-Pad49)*%
X107188000Y-55511000D03*
%TO.P,U3,50,VBAT*%
%TO.N,unconnected-(U3-VBAT-Pad50)*%
X150368000Y-65671000D03*
%TO.P,U3,51,3V3*%
%TO.N,unconnected-(U3-3V3-Pad51)*%
X150368000Y-63131000D03*
%TO.P,U3,52,GND*%
%TO.N,GNDA*%
X150368000Y-60591000D03*
%TO.P,U3,53,PROGRAM*%
%TO.N,unconnected-(U3-PROGRAM-Pad53)*%
X150368000Y-58051000D03*
%TO.P,U3,54,ON_OFF*%
%TO.N,unconnected-(U3-ON_OFF-Pad54)*%
X150368000Y-55511000D03*
D12*
%TO.P,U3,55,5V*%
%TO.N,unconnected-(U3-5V-Pad55)*%
X110947200Y-65160200D03*
D13*
%TO.P,U3,56,D-*%
%TO.N,unconnected-(U3-D--Pad56)*%
X113487200Y-65160200D03*
%TO.P,U3,57,D+*%
%TO.N,unconnected-(U3-D+-Pad57)*%
X116027200Y-65160200D03*
%TO.P,U3,58,GND*%
%TO.N,GNDA*%
X118567200Y-65160200D03*
%TO.P,U3,59,GND*%
X121107200Y-65160200D03*
D14*
%TO.P,U3,60,R+*%
%TO.N,unconnected-(U3-R+-Pad60)*%
X117618000Y-55409400D03*
D15*
%TO.P,U3,61,LED*%
%TO.N,unconnected-(U3-LED-Pad61)*%
X117618000Y-57409400D03*
%TO.P,U3,62,T-*%
%TO.N,unconnected-(U3-T--Pad62)*%
X117618000Y-59409400D03*
%TO.P,U3,63,T+*%
%TO.N,unconnected-(U3-T+-Pad63)*%
X119618000Y-59409400D03*
%TO.P,U3,64,GND*%
%TO.N,GNDA*%
X119618000Y-57409400D03*
%TO.P,U3,65,R-*%
%TO.N,unconnected-(U3-R--Pad65)*%
X119618000Y-55409400D03*
%TO.P,U3,66,D-*%
%TO.N,unconnected-(U3-D--Pad66)*%
X105378000Y-59321000D03*
%TO.P,U3,67,D+*%
%TO.N,unconnected-(U3-D+-Pad67)*%
X105378000Y-61861000D03*
%TD*%
D11*
%TO.P,J2,1,Pin_1*%
%TO.N,GNDA*%
X89001600Y-63550800D03*
%TD*%
D12*
%TO.P,J1,1,Pin_1*%
%TO.N,unconnected-(J1-Pin_1-Pad1)*%
X108865331Y-79725000D03*
D13*
%TO.P,J1,2,Pin_2*%
%TO.N,unconnected-(J1-Pin_2-Pad2)*%
X108865331Y-82015000D03*
%TO.P,J1,3,Pin_3*%
%TO.N,unconnected-(J1-Pin_3-Pad3)*%
X108865331Y-84305000D03*
%TO.P,J1,4,Pin_4*%
%TO.N,unconnected-(J1-Pin_4-Pad4)*%
X108865331Y-86595000D03*
%TO.P,J1,5,Pin_5*%
%TO.N,DOUT2*%
X108865331Y-88885000D03*
%TO.P,J1,6,Pin_6*%
%TO.N,DOUT1*%
X108865331Y-91175000D03*
%TO.P,J1,7,Pin_7*%
%TO.N,DOUT0*%
X108865331Y-93465000D03*
%TO.P,J1,8,Pin_8*%
%TO.N,12v*%
X108865331Y-95755000D03*
%TO.P,J1,9,Pin_9*%
%TO.N,AOUT1*%
X108865331Y-98045000D03*
%TO.P,J1,10,Pin_10*%
%TO.N,AOUT2*%
X108865331Y-100335000D03*
%TO.P,J1,11,Pin_11*%
%TO.N,AOUT3*%
X108865331Y-102625000D03*
%TO.P,J1,12,Pin_12*%
%TO.N,AOUT4*%
X108865331Y-104915000D03*
%TO.P,J1,13,Pin_13*%
%TO.N,AOUT5*%
X108865331Y-107205000D03*
%TO.P,J1,14,Pin_14*%
%TO.N,QS1+*%
X108865331Y-109495000D03*
%TO.P,J1,15,Pin_15*%
X108865331Y-111785000D03*
%TO.P,J1,16,Pin_16*%
%TO.N,unconnected-(J1-Pin_16-Pad16)*%
X106325331Y-78580000D03*
%TO.P,J1,17,Pin_17*%
%TO.N,unconnected-(J1-Pin_17-Pad17)*%
X106325331Y-80870000D03*
%TO.P,J1,18,Pin_18*%
%TO.N,unconnected-(J1-Pin_18-Pad18)*%
X106325331Y-83160000D03*
%TO.P,J1,19,Pin_19*%
%TO.N,unconnected-(J1-Pin_19-Pad19)*%
X106325331Y-85450000D03*
%TO.P,J1,20,Pin_20*%
%TO.N,DOUT5*%
X106325331Y-87740000D03*
%TO.P,J1,21,Pin_21*%
%TO.N,DOUT4*%
X106325331Y-90030000D03*
%TO.P,J1,22,Pin_22*%
%TO.N,DOUT3*%
X106325331Y-92320000D03*
%TO.P,J1,23,Pin_23*%
%TO.N,unconnected-(J1-Pin_23-Pad23)*%
X106325331Y-94610000D03*
%TO.P,J1,24,Pin_24*%
%TO.N,AOUT6*%
X106325331Y-96900000D03*
%TO.P,J1,25,Pin_25*%
%TO.N,AOUT7*%
X106325331Y-99190000D03*
%TO.P,J1,26,Pin_26*%
%TO.N,AOUT8*%
X106325331Y-101480000D03*
%TO.P,J1,27,Pin_27*%
%TO.N,AOUT9*%
X106325331Y-103770000D03*
%TO.P,J1,28,Pin_28*%
%TO.N,AOUT0*%
X106325331Y-106060000D03*
%TO.P,J1,29,Pin_29*%
%TO.N,QS1-*%
X106325331Y-108350000D03*
%TO.P,J1,30,Pin_30*%
X106325331Y-110640000D03*
%TO.P,J1,31,Pin_31*%
%TO.N,3v3*%
X103785331Y-79725000D03*
%TO.P,J1,32,Pin_32*%
%TO.N,unconnected-(J1-Pin_32-Pad32)*%
X103785331Y-82015000D03*
%TO.P,J1,33,Pin_33*%
%TO.N,GNDA*%
X103785331Y-84305000D03*
%TO.P,J1,34,Pin_34*%
X103785331Y-86595000D03*
%TO.P,J1,35,Pin_35*%
%TO.N,5BUCK*%
X103785331Y-88885000D03*
%TO.P,J1,36,Pin_36*%
%TO.N,unconnected-(J1-Pin_36-Pad36)*%
X103785331Y-91175000D03*
%TO.P,J1,37,Pin_37*%
%TO.N,GNDA*%
X103785331Y-93465000D03*
%TO.P,J1,38,Pin_38*%
X103785331Y-95755000D03*
%TO.P,J1,39,Pin_39*%
%TO.N,unconnected-(J1-Pin_39-Pad39)*%
X103785331Y-98045000D03*
%TO.P,J1,40,Pin_40*%
%TO.N,5VAR*%
X103785331Y-100335000D03*
%TO.P,J1,41,Pin_41*%
%TO.N,GNDA*%
X103785331Y-102625000D03*
%TO.P,J1,42,Pin_42*%
X103785331Y-104915000D03*
%TO.P,J1,43,Pin_43*%
%TO.N,unconnected-(J1-Pin_43-Pad43)*%
X103785331Y-107205000D03*
%TO.P,J1,44,Pin_44*%
%TO.N,unconnected-(J1-Pin_44-Pad44)*%
X103785331Y-109495000D03*
%TD*%
D16*
%TO.N,GNDA*%
X127965200Y-90322400D03*
X128219200Y-92557600D03*
X127863600Y-91490800D03*
X127050800Y-92557600D03*
X158292800Y-92557600D03*
X157886400Y-90576400D03*
X156210000Y-89204800D03*
X154178000Y-88392000D03*
X131673600Y-88138000D03*
X130098800Y-88646000D03*
X128778000Y-89408000D03*
X127000000Y-89509600D03*
X151587200Y-105003600D03*
X149352000Y-105206800D03*
X144170400Y-104597200D03*
X137312400Y-104343200D03*
X135585200Y-103428800D03*
%TO.N,12v*%
X106680000Y-74921000D03*
X104140000Y-73660000D03*
X100330000Y-69850000D03*
%TO.N,GNDA*%
X115519200Y-122275600D03*
X114655600Y-120345200D03*
%TO.N,LDAC1*%
X152308000Y-71424800D03*
X149479370Y-75311000D03*
%TO.N,GNDA*%
X131775200Y-93421200D03*
X142189200Y-93523000D03*
%TO.N,CS*%
X140309600Y-96164400D03*
X146671939Y-96207221D03*
%TO.N,AOUT9*%
X110286800Y-103632000D03*
%TO.N,3v3*%
X136956800Y-115062000D03*
X125171200Y-126034800D03*
%TO.N,5VAR*%
X101371001Y-107543600D03*
%TO.N,GNDA*%
X114300000Y-103759000D03*
X118999000Y-105918000D03*
%TO.N,S5*%
X125349000Y-106807000D03*
X125857000Y-121920000D03*
%TO.N,5VAR*%
X113284000Y-133096000D03*
X130302000Y-133350000D03*
%TO.N,AOUT7*%
X98907600Y-104546400D03*
%TO.N,5VAR*%
X101371001Y-113055001D03*
%TO.N,AOUT7*%
X156591000Y-95123000D03*
X128755669Y-126850669D03*
%TO.N,5BUCK*%
X134105500Y-86874500D03*
X133985000Y-75946000D03*
X127889000Y-74930000D03*
X126241000Y-76791735D03*
X119761000Y-75692000D03*
X117694000Y-75692000D03*
%TO.N,GNDA*%
X154178000Y-93091000D03*
X153289000Y-92745000D03*
%TO.N,CS1*%
X145034000Y-74422000D03*
%TO.N,CS2*%
X147701000Y-74422000D03*
%TO.N,GNDA*%
X131445000Y-95885000D03*
X132461000Y-96012000D03*
X135763000Y-105029000D03*
X136525000Y-109093000D03*
X138430000Y-106045000D03*
X131699000Y-100838000D03*
X133985000Y-101727000D03*
%TO.N,Net-(IC4-OUT)*%
X127127000Y-101092000D03*
X129702000Y-95723000D03*
%TO.N,5BUCK*%
X130302000Y-93091000D03*
X129413000Y-104902000D03*
%TO.N,GNDA*%
X154829379Y-94169207D03*
X147320000Y-101346000D03*
X143002000Y-100457000D03*
X143002000Y-98411000D03*
%TO.N,5VAR*%
X144399000Y-111887000D03*
X141986000Y-111633000D03*
X148127984Y-96195217D03*
X149479000Y-89662000D03*
%TO.N,Net-(IC3-OUT)*%
X140525002Y-97409000D03*
X135382000Y-101727000D03*
%TO.N,S2*%
X96926400Y-113030000D03*
X96570800Y-101955600D03*
%TO.N,5BUCK*%
X149225000Y-94996000D03*
X145669000Y-94123000D03*
%TO.N,5VAR*%
X133985000Y-96012000D03*
X138303000Y-99187000D03*
X140652500Y-100042365D03*
X140208000Y-104013000D03*
%TO.N,3v3*%
X94932500Y-109918500D03*
X151257000Y-98933000D03*
%TO.N,Net-(IC2-A4)*%
X147945000Y-84934500D03*
X148408108Y-94941108D03*
%TO.N,SCLK*%
X133858000Y-69596000D03*
X151046265Y-93564000D03*
%TO.N,LDAC*%
X152965000Y-89789000D03*
%TO.N,MISO*%
X151765000Y-89789000D03*
%TO.N,MOSI*%
X153035000Y-95758000D03*
%TO.N,CS*%
X150377623Y-95580907D03*
%TO.N,Net-(IC2-A6)*%
X137414000Y-95758000D03*
X146304000Y-82042000D03*
%TO.N,Net-(IC2-A5)*%
X133604000Y-93726000D03*
X145161000Y-81280000D03*
%TO.N,Net-(IC2-A3)*%
X137575722Y-90491502D03*
X143075515Y-81206485D03*
%TO.N,Net-(IC2-A2)*%
X141351000Y-81407000D03*
X134874000Y-90297000D03*
%TO.N,DIN0*%
X132461000Y-79502000D03*
%TO.N,DIN3*%
X129794000Y-79629000D03*
%TO.N,DIN1*%
X125349000Y-80899000D03*
%TO.N,DIN4*%
X121793000Y-79502000D03*
%TO.N,DIN2*%
X116848000Y-80518000D03*
%TO.N,DIN5*%
X116848000Y-78359000D03*
%TO.N,S3*%
X123063000Y-100711000D03*
%TO.N,S6*%
X117348000Y-100584000D03*
%TO.N,S2*%
X133477000Y-114808000D03*
%TO.N,S5*%
X102489000Y-114173000D03*
%TO.N,S4*%
X120988000Y-118745000D03*
%TO.N,S1*%
X114109500Y-123253499D03*
%TO.N,Net-(K8-+_CONTROL)*%
X105410000Y-115697000D03*
X108204000Y-115443000D03*
%TO.N,Net-(K4-LOAD_1)*%
X124460000Y-117221000D03*
X121666000Y-113665000D03*
%TD*%
D17*
%TO.N,12v*%
X107425331Y-94315000D02*
X108865331Y-95755000D01*
X107425331Y-75666331D02*
X107425331Y-94315000D01*
X100330000Y-69850000D02*
X104140000Y-73660000D01*
X106680000Y-74921000D02*
X107425331Y-75666331D01*
%TO.N,LDAC1*%
X152308000Y-71424800D02*
X152308000Y-72482370D01*
X152308000Y-72482370D02*
X149479370Y-75311000D01*
%TO.N,CS*%
X140309600Y-96164400D02*
X139446000Y-97028000D01*
X136057471Y-97028000D02*
X139446000Y-97028000D01*
X147492718Y-97028000D02*
X146671939Y-96207221D01*
X148930530Y-97028000D02*
X147492718Y-97028000D01*
%TO.N,S5*%
X125949000Y-122012000D02*
X125857000Y-121920000D01*
X125949000Y-123057529D02*
X125949000Y-122012000D01*
X120898529Y-128108000D02*
X125949000Y-123057529D01*
X112968000Y-122960529D02*
X118115471Y-128108000D01*
X112968000Y-100903000D02*
X112968000Y-122960529D01*
X111300000Y-99235000D02*
X112968000Y-100903000D01*
X106884000Y-100380000D02*
X108029000Y-99235000D01*
X108029000Y-99235000D02*
X111300000Y-99235000D01*
X105869696Y-100380000D02*
X106884000Y-100380000D01*
X105206800Y-109513138D02*
X105206800Y-101042896D01*
X105206800Y-101042896D02*
X105869696Y-100380000D01*
X105225331Y-109531669D02*
X105206800Y-109513138D01*
X118115471Y-128108000D02*
X120898529Y-128108000D01*
X102489000Y-114173000D02*
X105225331Y-111436669D01*
X105225331Y-111436669D02*
X105225331Y-109531669D01*
%TO.N,AOUT9*%
X110286800Y-103632000D02*
X110148800Y-103770000D01*
X110148800Y-103770000D02*
X106325331Y-103770000D01*
%TO.N,3v3*%
X151257000Y-100761800D02*
X151257000Y-98933000D01*
X122298000Y-128908000D02*
X125171200Y-126034800D01*
X111585200Y-128908000D02*
X122298000Y-128908000D01*
X136956800Y-115062000D02*
X151257000Y-100761800D01*
%TO.N,S2*%
X114944400Y-128508000D02*
X121064215Y-128508000D01*
X99466400Y-113030000D02*
X114944400Y-128508000D01*
X96926400Y-113030000D02*
X99466400Y-113030000D01*
X133477000Y-116095215D02*
X133477000Y-114808000D01*
X121064215Y-128508000D02*
X133477000Y-116095215D01*
%TO.N,3v3*%
X94869000Y-112191800D02*
X111585200Y-128908000D01*
X94869000Y-109855000D02*
X94869000Y-112191800D01*
%TO.N,AOUT7*%
X98907600Y-104546400D02*
X98907600Y-103657096D01*
X103374696Y-99190000D02*
X106325331Y-99190000D01*
X98907600Y-103657096D02*
X103374696Y-99190000D01*
%TO.N,S2*%
X111812365Y-51871000D02*
X113708000Y-51871000D01*
X111168000Y-53426635D02*
X111168000Y-52515365D01*
X113708000Y-51871000D02*
X114808000Y-52971000D01*
X109847200Y-54747435D02*
X111168000Y-53426635D01*
X109847200Y-66260200D02*
X109847200Y-54747435D01*
X111168000Y-67581000D02*
X109847200Y-66260200D01*
X111168000Y-68666635D02*
X111168000Y-67581000D01*
X98552000Y-81282635D02*
X111168000Y-68666635D01*
X98552000Y-100584000D02*
X98552000Y-81282635D01*
X97180400Y-101955600D02*
X98552000Y-100584000D01*
X111168000Y-52515365D02*
X111812365Y-51871000D01*
X96570800Y-101955600D02*
X97180400Y-101955600D01*
D18*
%TO.N,5VAR*%
X101371001Y-107543600D02*
X101371001Y-113055001D01*
D17*
%TO.N,S1*%
X112268000Y-66548000D02*
X112268000Y-52971000D01*
X113368000Y-122512000D02*
X113368000Y-67648000D01*
X114109500Y-123253499D02*
X114109499Y-123253499D01*
X113368000Y-67648000D02*
X112268000Y-66548000D01*
X114109499Y-123253499D02*
X113368000Y-122512000D01*
%TO.N,S4*%
X118668000Y-59802903D02*
X118668000Y-54191000D01*
X120007200Y-65615835D02*
X120007200Y-61142103D01*
X120007200Y-61142103D02*
X118668000Y-59802903D01*
X120988000Y-66596635D02*
X120007200Y-65615835D01*
X118668000Y-54191000D02*
X119888000Y-52971000D01*
X120988000Y-118745000D02*
X120988000Y-66596635D01*
%TO.N,S5*%
X125949000Y-106207000D02*
X125949000Y-80425314D01*
X125349000Y-106807000D02*
X125949000Y-106207000D01*
D18*
%TO.N,5VAR*%
X130302000Y-133350000D02*
X113538000Y-133350000D01*
X113538000Y-133350000D02*
X113284000Y-133096000D01*
D17*
%TO.N,AOUT7*%
X131086331Y-126850669D02*
X156591000Y-101346000D01*
X128755669Y-126850669D02*
X131086331Y-126850669D01*
X156591000Y-101346000D02*
X156591000Y-95123000D01*
%TO.N,5VAR*%
X144399000Y-111887000D02*
X144145000Y-111633000D01*
X144145000Y-111633000D02*
X141986000Y-111633000D01*
%TO.N,SCLK*%
X150110314Y-84999785D02*
X135341529Y-70231000D01*
X150110314Y-92628049D02*
X150110314Y-84999785D01*
X134493000Y-70231000D02*
X133858000Y-69596000D01*
X151046265Y-93564000D02*
X150110314Y-92628049D01*
X135341529Y-70231000D02*
X134493000Y-70231000D01*
%TO.N,5BUCK*%
X133985000Y-75946000D02*
X133985000Y-86754000D01*
X133985000Y-86754000D02*
X134105500Y-86874500D01*
X127889000Y-75143735D02*
X126241000Y-76791735D01*
X127889000Y-74930000D02*
X127889000Y-75143735D01*
%TO.N,DIN3*%
X125641000Y-70078000D02*
X127508000Y-68211000D01*
X125641000Y-77127000D02*
X125641000Y-70078000D01*
X128143000Y-79629000D02*
X125641000Y-77127000D01*
X129794000Y-79629000D02*
X128143000Y-79629000D01*
%TO.N,S5*%
X126068000Y-54071000D02*
X124968000Y-52971000D01*
X126068000Y-68666635D02*
X126068000Y-54071000D01*
X125241000Y-69493635D02*
X126068000Y-68666635D01*
X125949000Y-80425314D02*
X125241000Y-79717314D01*
X125241000Y-79717314D02*
X125241000Y-69493635D01*
%TO.N,DIN1*%
X124841000Y-68338000D02*
X124968000Y-68211000D01*
X124841000Y-79883000D02*
X124841000Y-68338000D01*
X125349000Y-80391000D02*
X124841000Y-79883000D01*
X125349000Y-80899000D02*
X125349000Y-80391000D01*
%TO.N,5BUCK*%
X117694000Y-75692000D02*
X119761000Y-75692000D01*
%TO.N,DIN2*%
X117094000Y-71005000D02*
X119888000Y-68211000D01*
X117094000Y-77756471D02*
X117094000Y-71005000D01*
X117448000Y-78110471D02*
X117094000Y-77756471D01*
X117448000Y-79918000D02*
X117448000Y-78110471D01*
X116848000Y-80518000D02*
X117448000Y-79918000D01*
%TO.N,DIN5*%
X116648000Y-70885315D02*
X118110000Y-69423315D01*
X116648000Y-78159000D02*
X116648000Y-70885315D01*
X116848000Y-78359000D02*
X116648000Y-78159000D01*
X118110000Y-69423315D02*
X118110000Y-68973000D01*
X118110000Y-68973000D02*
X117348000Y-68211000D01*
%TO.N,CS1*%
X154348000Y-51871000D02*
X155448000Y-52971000D01*
X149912365Y-51871000D02*
X154348000Y-51871000D01*
X149268000Y-70188000D02*
X149268000Y-52515365D01*
X149268000Y-52515365D02*
X149912365Y-51871000D01*
X145034000Y-74422000D02*
X149268000Y-70188000D01*
%TO.N,CS2*%
X151808000Y-70315000D02*
X151808000Y-54071000D01*
X151808000Y-54071000D02*
X152908000Y-52971000D01*
X147701000Y-74422000D02*
X151808000Y-70315000D01*
%TO.N,5BUCK*%
X130302000Y-104013000D02*
X130302000Y-93091000D01*
X129413000Y-104902000D02*
X130302000Y-104013000D01*
%TO.N,Net-(IC4-OUT)*%
X127127000Y-98298000D02*
X127127000Y-101092000D01*
X129702000Y-95723000D02*
X127127000Y-98298000D01*
%TO.N,5VAR*%
X149825000Y-94747471D02*
X149825000Y-95285000D01*
X149479000Y-94401471D02*
X149825000Y-94747471D01*
X148914783Y-96195217D02*
X148127984Y-96195217D01*
X149825000Y-95285000D02*
X148914783Y-96195217D01*
X149479000Y-89662000D02*
X149479000Y-94401471D01*
%TO.N,5BUCK*%
X147087108Y-95541108D02*
X145669000Y-94123000D01*
X148679892Y-95541108D02*
X147087108Y-95541108D01*
X149225000Y-94996000D02*
X148679892Y-95541108D01*
%TO.N,Net-(IC2-A4)*%
X148082000Y-85071500D02*
X147945000Y-84934500D01*
X148408108Y-94941108D02*
X148082000Y-94615000D01*
X148082000Y-94615000D02*
X148082000Y-85071500D01*
%TO.N,Net-(IC3-OUT)*%
X140525002Y-97813527D02*
X140525002Y-97409000D01*
X136611529Y-101727000D02*
X140525002Y-97813527D01*
X135382000Y-101727000D02*
X136611529Y-101727000D01*
D18*
%TO.N,5VAR*%
X138303000Y-99187000D02*
X137160000Y-99187000D01*
X137160000Y-99187000D02*
X133985000Y-96012000D01*
X140208000Y-100486865D02*
X140652500Y-100042365D01*
X140208000Y-104013000D02*
X140208000Y-100486865D01*
D17*
%TO.N,S3*%
X118848000Y-51471000D02*
X117348000Y-52971000D01*
X122483635Y-51471000D02*
X118848000Y-51471000D01*
X123528000Y-100246000D02*
X123528000Y-52515365D01*
X123528000Y-52515365D02*
X122483635Y-51471000D01*
X123063000Y-100711000D02*
X123528000Y-100246000D01*
%TO.N,Net-(IC2-A6)*%
X146304000Y-86868000D02*
X137414000Y-95758000D01*
X146304000Y-82042000D02*
X146304000Y-86868000D01*
%TO.N,LDAC*%
X152908000Y-89732000D02*
X152965000Y-89789000D01*
X152908000Y-68211000D02*
X152908000Y-89732000D01*
%TO.N,MISO*%
X136568000Y-67111000D02*
X137668000Y-68211000D01*
X134028000Y-67755365D02*
X134672365Y-67111000D01*
X134672365Y-69311000D02*
X134028000Y-68666635D01*
X134028000Y-68666635D02*
X134028000Y-67755365D01*
X134672365Y-67111000D02*
X136568000Y-67111000D01*
X151765000Y-89789000D02*
X151765000Y-85492365D01*
X151765000Y-85492365D02*
X135583635Y-69311000D01*
X135583635Y-69311000D02*
X134672365Y-69311000D01*
%TO.N,MOSI*%
X152365000Y-95088000D02*
X153035000Y-95758000D01*
X152365000Y-85448000D02*
X152365000Y-95088000D01*
X135128000Y-68211000D02*
X152365000Y-85448000D01*
%TO.N,Net-(IC2-A3)*%
X142875000Y-81407000D02*
X142875000Y-85192224D01*
X143075515Y-81206485D02*
X142875000Y-81407000D01*
X142875000Y-85192224D02*
X137575722Y-90491502D01*
%TO.N,Net-(IC2-A2)*%
X141351000Y-83820000D02*
X134874000Y-90297000D01*
X141351000Y-81407000D02*
X141351000Y-83820000D01*
%TO.N,DIN0*%
X132461000Y-79502000D02*
X132461000Y-78994000D01*
X132461000Y-78994000D02*
X130048000Y-76581000D01*
X130048000Y-76581000D02*
X130048000Y-68211000D01*
%TO.N,DIN4*%
X122428000Y-78867000D02*
X122428000Y-68211000D01*
X121793000Y-79502000D02*
X122428000Y-78867000D01*
%TO.N,S6*%
X121328000Y-51871000D02*
X122428000Y-52971000D01*
X119432365Y-51871000D02*
X121328000Y-51871000D01*
X118788000Y-52515365D02*
X119432365Y-51871000D01*
X117755235Y-54459400D02*
X118788000Y-53426635D01*
X116668000Y-54459400D02*
X117755235Y-54459400D01*
X116668000Y-60104503D02*
X116668000Y-54459400D01*
X117467200Y-60903703D02*
X116668000Y-60104503D01*
X117467200Y-65615835D02*
X117467200Y-60903703D01*
X116248000Y-66835035D02*
X117467200Y-65615835D01*
X116248000Y-99484000D02*
X116248000Y-66835035D01*
X117348000Y-100584000D02*
X116248000Y-99484000D01*
X118788000Y-53426635D02*
X118788000Y-52515365D01*
%TO.N,Net-(K8-+_CONTROL)*%
X105664000Y-115443000D02*
X105410000Y-115697000D01*
X108204000Y-115443000D02*
X105664000Y-115443000D01*
%TO.N,Net-(K4-LOAD_1)*%
X121666000Y-114109998D02*
X124333000Y-116776998D01*
X121666000Y-113665000D02*
X121666000Y-114109998D01*
X124333000Y-116776998D02*
X124333000Y-117094000D01*
X124333000Y-117094000D02*
X124460000Y-117221000D01*
%TO.N,Net-(IC2-A5)*%
X145161000Y-81280000D02*
X144487485Y-80606485D01*
X144487485Y-80606485D02*
X142826986Y-80606485D01*
X142826986Y-80606485D02*
X142367000Y-81066471D01*
X133604000Y-93599000D02*
X133604000Y-93726000D01*
X142367000Y-84836000D02*
X133604000Y-93599000D01*
X142367000Y-81066471D02*
X142367000Y-84836000D01*
%TO.N,CS*%
X132461000Y-78428314D02*
X132461000Y-68338000D01*
X133061000Y-79028314D02*
X132461000Y-78428314D01*
X133061000Y-79791000D02*
X133061000Y-79028314D01*
X133004000Y-79848000D02*
X133061000Y-79791000D01*
X133004000Y-93974529D02*
X133004000Y-79848000D01*
X132461000Y-68338000D02*
X132588000Y-68211000D01*
X150377623Y-95580907D02*
X148930530Y-97028000D01*
X136057471Y-97028000D02*
X133004000Y-93974529D01*
%TD*%
%TA.AperFunction,Conductor*%
%TO.N,GNDA*%
G36*
X167082510Y-94361695D02*
G01*
X167128280Y-94414486D01*
X167139500Y-94466029D01*
X167139500Y-134883038D01*
X167138720Y-134896923D01*
X167128540Y-134987264D01*
X167122362Y-135014333D01*
X167094648Y-135093537D01*
X167082600Y-135118555D01*
X167037957Y-135189604D01*
X167020644Y-135211313D01*
X166961313Y-135270644D01*
X166939604Y-135287957D01*
X166868555Y-135332600D01*
X166843537Y-135344648D01*
X166764333Y-135372362D01*
X166737264Y-135378540D01*
X166657075Y-135387576D01*
X166646921Y-135388720D01*
X166633038Y-135389500D01*
X86925598Y-135389500D01*
X86925553Y-135389497D01*
X86917314Y-135389497D01*
X86901746Y-135389497D01*
X86858377Y-135389499D01*
X86844504Y-135388721D01*
X86754184Y-135378552D01*
X86727126Y-135372379D01*
X86647942Y-135344684D01*
X86622932Y-135332646D01*
X86551898Y-135288035D01*
X86530191Y-135270734D01*
X86470857Y-135211436D01*
X86453544Y-135189741D01*
X86408887Y-135118728D01*
X86396836Y-135093728D01*
X86369096Y-135014565D01*
X86362906Y-134987506D01*
X86352727Y-134897588D01*
X86351940Y-134883709D01*
X86351524Y-134135368D01*
X86350946Y-133095996D01*
X112478435Y-133095996D01*
X112478435Y-133096003D01*
X112498630Y-133275249D01*
X112498631Y-133275254D01*
X112558211Y-133445523D01*
X112610820Y-133529249D01*
X112654184Y-133598262D01*
X112781738Y-133725816D01*
X112934478Y-133821789D01*
X112934485Y-133821791D01*
X112940752Y-133824810D01*
X112939867Y-133826646D01*
X112975938Y-133849305D01*
X113059584Y-133932951D01*
X113059585Y-133932952D01*
X113182498Y-134015080D01*
X113182511Y-134015087D01*
X113319082Y-134071656D01*
X113319087Y-134071658D01*
X113319091Y-134071658D01*
X113319092Y-134071659D01*
X113464079Y-134100500D01*
X113464082Y-134100500D01*
X113611917Y-134100500D01*
X130002028Y-134100500D01*
X130042983Y-134107458D01*
X130122745Y-134135368D01*
X130122750Y-134135369D01*
X130301996Y-134155565D01*
X130302000Y-134155565D01*
X130302004Y-134155565D01*
X130481249Y-134135369D01*
X130481252Y-134135368D01*
X130481255Y-134135368D01*
X130651522Y-134075789D01*
X130804262Y-133979816D01*
X130931816Y-133852262D01*
X131027789Y-133699522D01*
X131087368Y-133529255D01*
X131087369Y-133529249D01*
X131107565Y-133350003D01*
X131107565Y-133349996D01*
X131087369Y-133170750D01*
X131087368Y-133170745D01*
X131061215Y-133096003D01*
X131027789Y-133000478D01*
X130931816Y-132847738D01*
X130804262Y-132720184D01*
X130651523Y-132624211D01*
X130481254Y-132564631D01*
X130481249Y-132564630D01*
X130302004Y-132544435D01*
X130301996Y-132544435D01*
X130122750Y-132564630D01*
X130122745Y-132564631D01*
X130042983Y-132592542D01*
X130002028Y-132599500D01*
X113970941Y-132599500D01*
X113903902Y-132579815D01*
X113883260Y-132563182D01*
X113864513Y-132544435D01*
X113786262Y-132466184D01*
X113741961Y-132438348D01*
X113633523Y-132370211D01*
X113463254Y-132310631D01*
X113463249Y-132310630D01*
X113284004Y-132290435D01*
X113283996Y-132290435D01*
X113104750Y-132310630D01*
X113104745Y-132310631D01*
X112934476Y-132370211D01*
X112781737Y-132466184D01*
X112654184Y-132593737D01*
X112558211Y-132746476D01*
X112498631Y-132916745D01*
X112498630Y-132916750D01*
X112478435Y-133095996D01*
X86350946Y-133095996D01*
X86329486Y-94488666D01*
X86349132Y-94421621D01*
X86401911Y-94375836D01*
X86453445Y-94364603D01*
X97827469Y-94361416D01*
X97894510Y-94381081D01*
X97940280Y-94433872D01*
X97951500Y-94485415D01*
X97951500Y-100283902D01*
X97931815Y-100350941D01*
X97915181Y-100371583D01*
X97074153Y-101212610D01*
X97012830Y-101246095D01*
X96943138Y-101241111D01*
X96920494Y-101229919D01*
X96920322Y-101229811D01*
X96750054Y-101170231D01*
X96750049Y-101170230D01*
X96570804Y-101150035D01*
X96570796Y-101150035D01*
X96391550Y-101170230D01*
X96391545Y-101170231D01*
X96221276Y-101229811D01*
X96068537Y-101325784D01*
X95940984Y-101453337D01*
X95845011Y-101606076D01*
X95785431Y-101776345D01*
X95785430Y-101776350D01*
X95765235Y-101955596D01*
X95765235Y-101955603D01*
X95785430Y-102134849D01*
X95785431Y-102134854D01*
X95845011Y-102305123D01*
X95937796Y-102452788D01*
X95940984Y-102457862D01*
X96068538Y-102585416D01*
X96131534Y-102624999D01*
X96200499Y-102668333D01*
X96221278Y-102681389D01*
X96310703Y-102712680D01*
X96391545Y-102740968D01*
X96391550Y-102740969D01*
X96570796Y-102761165D01*
X96570800Y-102761165D01*
X96570804Y-102761165D01*
X96750049Y-102740969D01*
X96750052Y-102740968D01*
X96750055Y-102740968D01*
X96920322Y-102681389D01*
X97073062Y-102585416D01*
X97073066Y-102585411D01*
X97075897Y-102583155D01*
X97078075Y-102582265D01*
X97078958Y-102581711D01*
X97079055Y-102581865D01*
X97140584Y-102556746D01*
X97153211Y-102556101D01*
X97259454Y-102556101D01*
X97259457Y-102556101D01*
X97412185Y-102515177D01*
X97472247Y-102480500D01*
X97549116Y-102436120D01*
X97660920Y-102324316D01*
X97660920Y-102324314D01*
X97671124Y-102314111D01*
X97671128Y-102314106D01*
X98910506Y-101074728D01*
X98910511Y-101074724D01*
X98920714Y-101064520D01*
X98920716Y-101064520D01*
X99032520Y-100952716D01*
X99085749Y-100860520D01*
X99111577Y-100815785D01*
X99152500Y-100663058D01*
X99152500Y-100504943D01*
X99152500Y-94485009D01*
X99172185Y-94417970D01*
X99224989Y-94372215D01*
X99276459Y-94361010D01*
X103141654Y-94359927D01*
X103208695Y-94379592D01*
X103254465Y-94432383D01*
X103264428Y-94501539D01*
X103235421Y-94565102D01*
X103194091Y-94596308D01*
X103132844Y-94624868D01*
X103132843Y-94624868D01*
X103059857Y-94675973D01*
X103059857Y-94675974D01*
X103655921Y-95272037D01*
X103592338Y-95289075D01*
X103478324Y-95354901D01*
X103385232Y-95447993D01*
X103319406Y-95562007D01*
X103302368Y-95625589D01*
X102706305Y-95029526D01*
X102706304Y-95029526D01*
X102655199Y-95102512D01*
X102655197Y-95102516D01*
X102559065Y-95308673D01*
X102559061Y-95308682D01*
X102500191Y-95528389D01*
X102500189Y-95528400D01*
X102480365Y-95754997D01*
X102480365Y-95755002D01*
X102500189Y-95981599D01*
X102500191Y-95981610D01*
X102559061Y-96201317D01*
X102559066Y-96201331D01*
X102655194Y-96407478D01*
X102706305Y-96480472D01*
X103302368Y-95884409D01*
X103319406Y-95947993D01*
X103385232Y-96062007D01*
X103478324Y-96155099D01*
X103592338Y-96220925D01*
X103655921Y-96237962D01*
X103059857Y-96834025D01*
X103064445Y-96886464D01*
X103050678Y-96954964D01*
X103012041Y-96998845D01*
X102946187Y-97044956D01*
X102785285Y-97205858D01*
X102654763Y-97392265D01*
X102654762Y-97392267D01*
X102558592Y-97598502D01*
X102558589Y-97598511D01*
X102499697Y-97818302D01*
X102499695Y-97818313D01*
X102479863Y-98044998D01*
X102479863Y-98045001D01*
X102499695Y-98271686D01*
X102499697Y-98271697D01*
X102558589Y-98491488D01*
X102558592Y-98491497D01*
X102601483Y-98583476D01*
X102654763Y-98697734D01*
X102693985Y-98753750D01*
X102744564Y-98825984D01*
X102766891Y-98892190D01*
X102749881Y-98959958D01*
X102730670Y-98984788D01*
X98538886Y-103176574D01*
X98427081Y-103288378D01*
X98427077Y-103288383D01*
X98404509Y-103327475D01*
X98404508Y-103327477D01*
X98348023Y-103425311D01*
X98307099Y-103578039D01*
X98307099Y-103578041D01*
X98307099Y-103746142D01*
X98307100Y-103746155D01*
X98307100Y-103963987D01*
X98287415Y-104031026D01*
X98280050Y-104041296D01*
X98277786Y-104044134D01*
X98181811Y-104196876D01*
X98122231Y-104367145D01*
X98122230Y-104367150D01*
X98102035Y-104546396D01*
X98102035Y-104546403D01*
X98122230Y-104725649D01*
X98122231Y-104725654D01*
X98181811Y-104895923D01*
X98257623Y-105016576D01*
X98277784Y-105048662D01*
X98405338Y-105176216D01*
X98409785Y-105179010D01*
X98525186Y-105251522D01*
X98558078Y-105272189D01*
X98586754Y-105282223D01*
X98728345Y-105331768D01*
X98728350Y-105331769D01*
X98907596Y-105351965D01*
X98907600Y-105351965D01*
X98907604Y-105351965D01*
X99086849Y-105331769D01*
X99086852Y-105331768D01*
X99086855Y-105331768D01*
X99257122Y-105272189D01*
X99409862Y-105176216D01*
X99537416Y-105048662D01*
X99633389Y-104895922D01*
X99692968Y-104725655D01*
X99692969Y-104725649D01*
X99713165Y-104546403D01*
X99713165Y-104546396D01*
X99692969Y-104367150D01*
X99692968Y-104367145D01*
X99633388Y-104196876D01*
X99575522Y-104104783D01*
X99537416Y-104044138D01*
X99537414Y-104044136D01*
X99537413Y-104044134D01*
X99535150Y-104041296D01*
X99534259Y-104039115D01*
X99533711Y-104038242D01*
X99533864Y-104038145D01*
X99508744Y-103976609D01*
X99508100Y-103963987D01*
X99508100Y-103957193D01*
X99527785Y-103890154D01*
X99544419Y-103869512D01*
X100981924Y-102432007D01*
X102456855Y-100957075D01*
X102518176Y-100923592D01*
X102587868Y-100928576D01*
X102643801Y-100970448D01*
X102651535Y-100983337D01*
X102652052Y-100983039D01*
X102654761Y-100987731D01*
X102785285Y-101174141D01*
X102946189Y-101335045D01*
X103012040Y-101381154D01*
X103055665Y-101435730D01*
X103064445Y-101493536D01*
X103059857Y-101545974D01*
X103655921Y-102142037D01*
X103592338Y-102159075D01*
X103478324Y-102224901D01*
X103385232Y-102317993D01*
X103319406Y-102432007D01*
X103302368Y-102495589D01*
X102706305Y-101899526D01*
X102706304Y-101899526D01*
X102655199Y-101972512D01*
X102655197Y-101972516D01*
X102559065Y-102178673D01*
X102559061Y-102178682D01*
X102500191Y-102398389D01*
X102500189Y-102398400D01*
X102480365Y-102624997D01*
X102480365Y-102625002D01*
X102500189Y-102851599D01*
X102500191Y-102851610D01*
X102559061Y-103071317D01*
X102559066Y-103071331D01*
X102655194Y-103277478D01*
X102706305Y-103350472D01*
X103302368Y-102754409D01*
X103319406Y-102817993D01*
X103385232Y-102932007D01*
X103478324Y-103025099D01*
X103592338Y-103090925D01*
X103655919Y-103107962D01*
X103059857Y-103704025D01*
X103064683Y-103759193D01*
X103064683Y-103780804D01*
X103059856Y-103835973D01*
X103655921Y-104432037D01*
X103592338Y-104449075D01*
X103478324Y-104514901D01*
X103385232Y-104607993D01*
X103319406Y-104722007D01*
X103302368Y-104785589D01*
X102706305Y-104189526D01*
X102706304Y-104189526D01*
X102655199Y-104262512D01*
X102655197Y-104262516D01*
X102559065Y-104468673D01*
X102559061Y-104468682D01*
X102500191Y-104688389D01*
X102500189Y-104688400D01*
X102480365Y-104914997D01*
X102480365Y-104915002D01*
X102500189Y-105141599D01*
X102500191Y-105141610D01*
X102559061Y-105361317D01*
X102559066Y-105361331D01*
X102655194Y-105567478D01*
X102706305Y-105640472D01*
X103302368Y-105044409D01*
X103319406Y-105107993D01*
X103385232Y-105222007D01*
X103478324Y-105315099D01*
X103592338Y-105380925D01*
X103655919Y-105397962D01*
X103059857Y-105994025D01*
X103064445Y-106046464D01*
X103050678Y-106114964D01*
X103012041Y-106158845D01*
X102946187Y-106204956D01*
X102785285Y-106365858D01*
X102654763Y-106552265D01*
X102654762Y-106552267D01*
X102558592Y-106758502D01*
X102558589Y-106758511D01*
X102499697Y-106978302D01*
X102499695Y-106978313D01*
X102479863Y-107204998D01*
X102479863Y-107205001D01*
X102499695Y-107431686D01*
X102499697Y-107431697D01*
X102558589Y-107651488D01*
X102558592Y-107651497D01*
X102654762Y-107857732D01*
X102654763Y-107857734D01*
X102785285Y-108044141D01*
X102946190Y-108205046D01*
X103008142Y-108248425D01*
X103051767Y-108303002D01*
X103058961Y-108372500D01*
X103027438Y-108434855D01*
X103008142Y-108451575D01*
X102946190Y-108494953D01*
X102785285Y-108655858D01*
X102654763Y-108842265D01*
X102654762Y-108842267D01*
X102558592Y-109048502D01*
X102558589Y-109048511D01*
X102499697Y-109268302D01*
X102499695Y-109268313D01*
X102479863Y-109494998D01*
X102479863Y-109495001D01*
X102499695Y-109721686D01*
X102499697Y-109721697D01*
X102558589Y-109941488D01*
X102558592Y-109941497D01*
X102654762Y-110147732D01*
X102654763Y-110147734D01*
X102785285Y-110334141D01*
X102946189Y-110495045D01*
X102946192Y-110495047D01*
X103132597Y-110625568D01*
X103338835Y-110721739D01*
X103338840Y-110721740D01*
X103338842Y-110721741D01*
X103391746Y-110735916D01*
X103558639Y-110780635D01*
X103720561Y-110794801D01*
X103785329Y-110800468D01*
X103785331Y-110800468D01*
X103785333Y-110800468D01*
X103842004Y-110795509D01*
X104012023Y-110780635D01*
X104231827Y-110721739D01*
X104438065Y-110625568D01*
X104438077Y-110625559D01*
X104438823Y-110625130D01*
X104439199Y-110625038D01*
X104442971Y-110623280D01*
X104443324Y-110624037D01*
X104506722Y-110608652D01*
X104572750Y-110631499D01*
X104615945Y-110686417D01*
X104624831Y-110732512D01*
X104624831Y-111136571D01*
X104605146Y-111203610D01*
X104588512Y-111224252D01*
X102470465Y-113342298D01*
X102409142Y-113375783D01*
X102396668Y-113377837D01*
X102309751Y-113387630D01*
X102303411Y-113389078D01*
X102233672Y-113384808D01*
X102177312Y-113343511D01*
X102152226Y-113278301D01*
X102154923Y-113240592D01*
X102156370Y-113234253D01*
X102176566Y-113055004D01*
X102176566Y-113054997D01*
X102156807Y-112879631D01*
X102156369Y-112875746D01*
X102128459Y-112795983D01*
X102121501Y-112755029D01*
X102121501Y-107843572D01*
X102128459Y-107802617D01*
X102156369Y-107722854D01*
X102156370Y-107722849D01*
X102176566Y-107543603D01*
X102176566Y-107543596D01*
X102156370Y-107364350D01*
X102156369Y-107364345D01*
X102117057Y-107251999D01*
X102096790Y-107194078D01*
X102000817Y-107041338D01*
X101873263Y-106913784D01*
X101720524Y-106817811D01*
X101550255Y-106758231D01*
X101550250Y-106758230D01*
X101371005Y-106738035D01*
X101370997Y-106738035D01*
X101191751Y-106758230D01*
X101191746Y-106758231D01*
X101021477Y-106817811D01*
X100868738Y-106913784D01*
X100741185Y-107041337D01*
X100645212Y-107194076D01*
X100585632Y-107364345D01*
X100585631Y-107364350D01*
X100565436Y-107543596D01*
X100565436Y-107543603D01*
X100585631Y-107722849D01*
X100585632Y-107722854D01*
X100613543Y-107802617D01*
X100620501Y-107843572D01*
X100620501Y-112755029D01*
X100613543Y-112795983D01*
X100585632Y-112875748D01*
X100571501Y-113001167D01*
X100544435Y-113065581D01*
X100486840Y-113105137D01*
X100417003Y-113107274D01*
X100360600Y-113074965D01*
X99953990Y-112668355D01*
X99953988Y-112668352D01*
X99835117Y-112549481D01*
X99835112Y-112549477D01*
X99727763Y-112487500D01*
X99727761Y-112487499D01*
X99698187Y-112470424D01*
X99698186Y-112470423D01*
X99698185Y-112470423D01*
X99545457Y-112429499D01*
X99387343Y-112429499D01*
X99379747Y-112429499D01*
X99379731Y-112429500D01*
X97508812Y-112429500D01*
X97441773Y-112409815D01*
X97431497Y-112402445D01*
X97428663Y-112400185D01*
X97428662Y-112400184D01*
X97362781Y-112358788D01*
X97275923Y-112304211D01*
X97105654Y-112244631D01*
X97105649Y-112244630D01*
X96926404Y-112224435D01*
X96926396Y-112224435D01*
X96747150Y-112244630D01*
X96747145Y-112244631D01*
X96576876Y-112304211D01*
X96424137Y-112400184D01*
X96296582Y-112527739D01*
X96296579Y-112527743D01*
X96285765Y-112544953D01*
X96233429Y-112591242D01*
X96164375Y-112601888D01*
X96100528Y-112573510D01*
X96093093Y-112566658D01*
X95830646Y-112304211D01*
X95505819Y-111979383D01*
X95472334Y-111918060D01*
X95469500Y-111891702D01*
X95469500Y-110564940D01*
X95489185Y-110497901D01*
X95505819Y-110477259D01*
X95562316Y-110420762D01*
X95658289Y-110268022D01*
X95717868Y-110097755D01*
X95738065Y-109918500D01*
X95737583Y-109914224D01*
X95717869Y-109739250D01*
X95717868Y-109739245D01*
X95658288Y-109568976D01*
X95562315Y-109416237D01*
X95434762Y-109288684D01*
X95282023Y-109192711D01*
X95111754Y-109133131D01*
X95111749Y-109133130D01*
X94932504Y-109112935D01*
X94932496Y-109112935D01*
X94753250Y-109133130D01*
X94753245Y-109133131D01*
X94582976Y-109192711D01*
X94430237Y-109288684D01*
X94302684Y-109416237D01*
X94206711Y-109568976D01*
X94147131Y-109739245D01*
X94147130Y-109739250D01*
X94126935Y-109918496D01*
X94126935Y-109918503D01*
X94147130Y-110097749D01*
X94147131Y-110097754D01*
X94206711Y-110268024D01*
X94249493Y-110336109D01*
X94268500Y-110402082D01*
X94268500Y-112105130D01*
X94268499Y-112105148D01*
X94268499Y-112270854D01*
X94268498Y-112270854D01*
X94268499Y-112270857D01*
X94309423Y-112423585D01*
X94317592Y-112437734D01*
X94388477Y-112560512D01*
X94388481Y-112560517D01*
X94507349Y-112679385D01*
X94507354Y-112679389D01*
X111216484Y-129388520D01*
X111216486Y-129388521D01*
X111216490Y-129388524D01*
X111353409Y-129467573D01*
X111353416Y-129467577D01*
X111506143Y-129508501D01*
X111506145Y-129508501D01*
X111671854Y-129508501D01*
X111671870Y-129508500D01*
X122211331Y-129508500D01*
X122211347Y-129508501D01*
X122218943Y-129508501D01*
X122377054Y-129508501D01*
X122377057Y-129508501D01*
X122529785Y-129467577D01*
X122579904Y-129438639D01*
X122666716Y-129388520D01*
X122778520Y-129276716D01*
X122778520Y-129276714D01*
X122788728Y-129266507D01*
X122788730Y-129266504D01*
X125189735Y-126865498D01*
X125251056Y-126832015D01*
X125263511Y-126829963D01*
X125350455Y-126820168D01*
X125520722Y-126760589D01*
X125673462Y-126664616D01*
X125801016Y-126537062D01*
X125896989Y-126384322D01*
X125956568Y-126214055D01*
X125966616Y-126124880D01*
X125976765Y-126034803D01*
X125976765Y-126034796D01*
X125956569Y-125855550D01*
X125956568Y-125855545D01*
X125896988Y-125685276D01*
X125801015Y-125532537D01*
X125673462Y-125404984D01*
X125520719Y-125309009D01*
X125404540Y-125268356D01*
X125347764Y-125227635D01*
X125322017Y-125162682D01*
X125335473Y-125094120D01*
X125357811Y-125063637D01*
X133835506Y-116585943D01*
X133835511Y-116585939D01*
X133845714Y-116575735D01*
X133845716Y-116575735D01*
X133957520Y-116463931D01*
X134024741Y-116347500D01*
X134036577Y-116327000D01*
X134077501Y-116174272D01*
X134077501Y-116016158D01*
X134077501Y-116008563D01*
X134077500Y-116008545D01*
X134077500Y-115390412D01*
X134097185Y-115323373D01*
X134104555Y-115313097D01*
X134106810Y-115310267D01*
X134106816Y-115310262D01*
X134202789Y-115157522D01*
X134262368Y-114987255D01*
X134267609Y-114940738D01*
X134282565Y-114808003D01*
X134282565Y-114807996D01*
X134262369Y-114628750D01*
X134262368Y-114628745D01*
X134225199Y-114522522D01*
X134202789Y-114458478D01*
X134186267Y-114432184D01*
X134163582Y-114396080D01*
X134106816Y-114305738D01*
X133979262Y-114178184D01*
X133971012Y-114173000D01*
X133826523Y-114082211D01*
X133656254Y-114022631D01*
X133656249Y-114022630D01*
X133477004Y-114002435D01*
X133476996Y-114002435D01*
X133297750Y-114022630D01*
X133297745Y-114022631D01*
X133127476Y-114082211D01*
X132974737Y-114178184D01*
X132847184Y-114305737D01*
X132751211Y-114458476D01*
X132691631Y-114628745D01*
X132691630Y-114628750D01*
X132671435Y-114807996D01*
X132671435Y-114808003D01*
X132691630Y-114987249D01*
X132691631Y-114987254D01*
X132751211Y-115157523D01*
X132847185Y-115310263D01*
X132849445Y-115313097D01*
X132850334Y-115315275D01*
X132850889Y-115316158D01*
X132850734Y-115316255D01*
X132875855Y-115377783D01*
X132876500Y-115390412D01*
X132876500Y-115795117D01*
X132856815Y-115862156D01*
X132840181Y-115882798D01*
X126858855Y-121864123D01*
X126797532Y-121897608D01*
X126727840Y-121892624D01*
X126671907Y-121850752D01*
X126647954Y-121790326D01*
X126642368Y-121740745D01*
X126582789Y-121570478D01*
X126486816Y-121417738D01*
X126359262Y-121290184D01*
X126206523Y-121194211D01*
X126036254Y-121134631D01*
X126036249Y-121134630D01*
X125857004Y-121114435D01*
X125856996Y-121114435D01*
X125677750Y-121134630D01*
X125677745Y-121134631D01*
X125507476Y-121194211D01*
X125354737Y-121290184D01*
X125227184Y-121417737D01*
X125131211Y-121570476D01*
X125071631Y-121740745D01*
X125071630Y-121740750D01*
X125051435Y-121919996D01*
X125051435Y-121920003D01*
X125071630Y-122099249D01*
X125071631Y-122099254D01*
X125131211Y-122269523D01*
X125227184Y-122422262D01*
X125312181Y-122507259D01*
X125345666Y-122568582D01*
X125348500Y-122594940D01*
X125348500Y-122757431D01*
X125328815Y-122824470D01*
X125312181Y-122845112D01*
X120686113Y-127471181D01*
X120624790Y-127504666D01*
X120598432Y-127507500D01*
X118415568Y-127507500D01*
X118348529Y-127487815D01*
X118327887Y-127471181D01*
X114760291Y-123903585D01*
X114726806Y-123842262D01*
X114731790Y-123772570D01*
X114742979Y-123749932D01*
X114835287Y-123603025D01*
X114835287Y-123603023D01*
X114835289Y-123603021D01*
X114894868Y-123432754D01*
X114894869Y-123432748D01*
X114915065Y-123253502D01*
X114915065Y-123253495D01*
X114894869Y-123074249D01*
X114894868Y-123074244D01*
X114835288Y-122903975D01*
X114739315Y-122751236D01*
X114611762Y-122623683D01*
X114459023Y-122527710D01*
X114288754Y-122468130D01*
X114288750Y-122468129D01*
X114201829Y-122458336D01*
X114137415Y-122431269D01*
X114128032Y-122422797D01*
X114004819Y-122299584D01*
X113971334Y-122238261D01*
X113968500Y-122211903D01*
X113968500Y-94480858D01*
X113988185Y-94413819D01*
X114040989Y-94368064D01*
X114092460Y-94356859D01*
X115523468Y-94356458D01*
X115590510Y-94376123D01*
X115636280Y-94428914D01*
X115647500Y-94480457D01*
X115647500Y-99397330D01*
X115647499Y-99397348D01*
X115647499Y-99563054D01*
X115647498Y-99563054D01*
X115688423Y-99715787D01*
X115688424Y-99715788D01*
X115700303Y-99736362D01*
X115700305Y-99736365D01*
X115767477Y-99852712D01*
X115767481Y-99852717D01*
X115886349Y-99971585D01*
X115886355Y-99971590D01*
X116517298Y-100602533D01*
X116550783Y-100663856D01*
X116552837Y-100676330D01*
X116562630Y-100763249D01*
X116622210Y-100933521D01*
X116659951Y-100993585D01*
X116718184Y-101086262D01*
X116845738Y-101213816D01*
X116998478Y-101309789D01*
X117087148Y-101340816D01*
X117168745Y-101369368D01*
X117168750Y-101369369D01*
X117347996Y-101389565D01*
X117348000Y-101389565D01*
X117348004Y-101389565D01*
X117527249Y-101369369D01*
X117527252Y-101369368D01*
X117527255Y-101369368D01*
X117697522Y-101309789D01*
X117850262Y-101213816D01*
X117977816Y-101086262D01*
X118073789Y-100933522D01*
X118133368Y-100763255D01*
X118135709Y-100742478D01*
X118153565Y-100584003D01*
X118153565Y-100583996D01*
X118133369Y-100404750D01*
X118133368Y-100404745D01*
X118118228Y-100361478D01*
X118073789Y-100234478D01*
X118057615Y-100208738D01*
X117977815Y-100081737D01*
X117850262Y-99954184D01*
X117697521Y-99858210D01*
X117527249Y-99798630D01*
X117440330Y-99788837D01*
X117375916Y-99761770D01*
X117366533Y-99753298D01*
X116884819Y-99271584D01*
X116851334Y-99210261D01*
X116848500Y-99183903D01*
X116848500Y-94480051D01*
X116868185Y-94413012D01*
X116920989Y-94367257D01*
X116972459Y-94356052D01*
X120263468Y-94355130D01*
X120330510Y-94374795D01*
X120376280Y-94427586D01*
X120387500Y-94479129D01*
X120387500Y-118162587D01*
X120367815Y-118229626D01*
X120360450Y-118239896D01*
X120358186Y-118242734D01*
X120262211Y-118395476D01*
X120202631Y-118565745D01*
X120202630Y-118565750D01*
X120182435Y-118744996D01*
X120182435Y-118745003D01*
X120202630Y-118924249D01*
X120202631Y-118924254D01*
X120262211Y-119094523D01*
X120358184Y-119247262D01*
X120485738Y-119374816D01*
X120638478Y-119470789D01*
X120808745Y-119530368D01*
X120808750Y-119530369D01*
X120987996Y-119550565D01*
X120988000Y-119550565D01*
X120988004Y-119550565D01*
X121167249Y-119530369D01*
X121167252Y-119530368D01*
X121167255Y-119530368D01*
X121337522Y-119470789D01*
X121490262Y-119374816D01*
X121617816Y-119247262D01*
X121713789Y-119094522D01*
X121773368Y-118924255D01*
X121793565Y-118745000D01*
X121773368Y-118565745D01*
X121713789Y-118395478D01*
X121617816Y-118242738D01*
X121617814Y-118242736D01*
X121617813Y-118242734D01*
X121615550Y-118239896D01*
X121614659Y-118237715D01*
X121614111Y-118236842D01*
X121614264Y-118236745D01*
X121589144Y-118175209D01*
X121588500Y-118162587D01*
X121588500Y-115181095D01*
X121608185Y-115114056D01*
X121660989Y-115068301D01*
X121730147Y-115058357D01*
X121793703Y-115087382D01*
X121800179Y-115093412D01*
X122722920Y-116016154D01*
X123639900Y-116933134D01*
X123673385Y-116994457D01*
X123673329Y-117034590D01*
X123675411Y-117034825D01*
X123654435Y-117220996D01*
X123654435Y-117221003D01*
X123674630Y-117400249D01*
X123674631Y-117400254D01*
X123734211Y-117570523D01*
X123830184Y-117723262D01*
X123957738Y-117850816D01*
X124110478Y-117946789D01*
X124280745Y-118006368D01*
X124280750Y-118006369D01*
X124459996Y-118026565D01*
X124460000Y-118026565D01*
X124460004Y-118026565D01*
X124639249Y-118006369D01*
X124639252Y-118006368D01*
X124639255Y-118006368D01*
X124809522Y-117946789D01*
X124962262Y-117850816D01*
X125089816Y-117723262D01*
X125185789Y-117570522D01*
X125245368Y-117400255D01*
X125265565Y-117221000D01*
X125245368Y-117041745D01*
X125185789Y-116871478D01*
X125089816Y-116718738D01*
X124962262Y-116591184D01*
X124953915Y-116585939D01*
X124920595Y-116565003D01*
X124879180Y-116522009D01*
X124813522Y-116408285D01*
X124813518Y-116408280D01*
X122454132Y-114048895D01*
X122420647Y-113987572D01*
X122424771Y-113920262D01*
X122451368Y-113844255D01*
X122461610Y-113753357D01*
X122471565Y-113665003D01*
X122471565Y-113664996D01*
X122451369Y-113485750D01*
X122451368Y-113485745D01*
X122417036Y-113387630D01*
X122391789Y-113315478D01*
X122295816Y-113162738D01*
X122168262Y-113035184D01*
X122130948Y-113011738D01*
X122015523Y-112939211D01*
X121845254Y-112879631D01*
X121845250Y-112879630D01*
X121698616Y-112863109D01*
X121634202Y-112836042D01*
X121594647Y-112778447D01*
X121588500Y-112739889D01*
X121588500Y-94478723D01*
X121608185Y-94411684D01*
X121660989Y-94365929D01*
X121712460Y-94354724D01*
X122803469Y-94354418D01*
X122870510Y-94374083D01*
X122916280Y-94426874D01*
X122927500Y-94478417D01*
X122927500Y-99822338D01*
X122907815Y-99889377D01*
X122855011Y-99935132D01*
X122844455Y-99939379D01*
X122713480Y-99985209D01*
X122560737Y-100081184D01*
X122433184Y-100208737D01*
X122337211Y-100361476D01*
X122277631Y-100531745D01*
X122277630Y-100531750D01*
X122257435Y-100710996D01*
X122257435Y-100711003D01*
X122277630Y-100890249D01*
X122277631Y-100890254D01*
X122337211Y-101060523D01*
X122408603Y-101174142D01*
X122433184Y-101213262D01*
X122560738Y-101340816D01*
X122638322Y-101389565D01*
X122711792Y-101435730D01*
X122713478Y-101436789D01*
X122795724Y-101465568D01*
X122883745Y-101496368D01*
X122883750Y-101496369D01*
X123062996Y-101516565D01*
X123063000Y-101516565D01*
X123063004Y-101516565D01*
X123242249Y-101496369D01*
X123242252Y-101496368D01*
X123242255Y-101496368D01*
X123412522Y-101436789D01*
X123565262Y-101340816D01*
X123692816Y-101213262D01*
X123788789Y-101060522D01*
X123848368Y-100890255D01*
X123858161Y-100803330D01*
X123885226Y-100738920D01*
X123893700Y-100729534D01*
X123896713Y-100726521D01*
X123896716Y-100726520D01*
X124008520Y-100614716D01*
X124071897Y-100504943D01*
X124087577Y-100477785D01*
X124128500Y-100325058D01*
X124128500Y-100166943D01*
X124128500Y-94478012D01*
X124148185Y-94410973D01*
X124200989Y-94365218D01*
X124252463Y-94354012D01*
X125224468Y-94353740D01*
X125291510Y-94373405D01*
X125337280Y-94426196D01*
X125348500Y-94477739D01*
X125348500Y-105890677D01*
X125328815Y-105957716D01*
X125276011Y-106003471D01*
X125238384Y-106013897D01*
X125169750Y-106021630D01*
X124999478Y-106081210D01*
X124846737Y-106177184D01*
X124719184Y-106304737D01*
X124623211Y-106457476D01*
X124563631Y-106627745D01*
X124563630Y-106627750D01*
X124543435Y-106806996D01*
X124543435Y-106807003D01*
X124563630Y-106986249D01*
X124563631Y-106986254D01*
X124623211Y-107156523D01*
X124653672Y-107205001D01*
X124719184Y-107309262D01*
X124846738Y-107436816D01*
X124999478Y-107532789D01*
X125030383Y-107543603D01*
X125169745Y-107592368D01*
X125169750Y-107592369D01*
X125348996Y-107612565D01*
X125349000Y-107612565D01*
X125349004Y-107612565D01*
X125528249Y-107592369D01*
X125528252Y-107592368D01*
X125528255Y-107592368D01*
X125698522Y-107532789D01*
X125851262Y-107436816D01*
X125978816Y-107309262D01*
X126074789Y-107156522D01*
X126134368Y-106986255D01*
X126144161Y-106899329D01*
X126171226Y-106834918D01*
X126179690Y-106825543D01*
X126307506Y-106697728D01*
X126307511Y-106697724D01*
X126317714Y-106687520D01*
X126317716Y-106687520D01*
X126429520Y-106575716D01*
X126497784Y-106457478D01*
X126508577Y-106438785D01*
X126549500Y-106286057D01*
X126549500Y-106127943D01*
X126549500Y-101898902D01*
X126569185Y-101831863D01*
X126621989Y-101786108D01*
X126691147Y-101776164D01*
X126739473Y-101793909D01*
X126777475Y-101817788D01*
X126947745Y-101877368D01*
X126947750Y-101877369D01*
X127126996Y-101897565D01*
X127127000Y-101897565D01*
X127127004Y-101897565D01*
X127306249Y-101877369D01*
X127306252Y-101877368D01*
X127306255Y-101877368D01*
X127476522Y-101817789D01*
X127629262Y-101721816D01*
X127756816Y-101594262D01*
X127852789Y-101441522D01*
X127912368Y-101271255D01*
X127912854Y-101266942D01*
X127932565Y-101092003D01*
X127932565Y-101091996D01*
X127912369Y-100912750D01*
X127912368Y-100912745D01*
X127904496Y-100890249D01*
X127852789Y-100742478D01*
X127850553Y-100738920D01*
X127784134Y-100633215D01*
X127756816Y-100589738D01*
X127756814Y-100589736D01*
X127756813Y-100589734D01*
X127754550Y-100586896D01*
X127753659Y-100584715D01*
X127753111Y-100583842D01*
X127753264Y-100583745D01*
X127728144Y-100522209D01*
X127727500Y-100509587D01*
X127727500Y-98598097D01*
X127747185Y-98531058D01*
X127763819Y-98510416D01*
X128939202Y-97335032D01*
X128905000Y-99695000D01*
X129701500Y-99695000D01*
X129701500Y-103712902D01*
X129681815Y-103779941D01*
X129665181Y-103800583D01*
X129394465Y-104071298D01*
X129333142Y-104104783D01*
X129320668Y-104106837D01*
X129233750Y-104116630D01*
X129063478Y-104176210D01*
X128910737Y-104272184D01*
X128783184Y-104399737D01*
X128687211Y-104552476D01*
X128627631Y-104722745D01*
X128627630Y-104722750D01*
X128607435Y-104901996D01*
X128607435Y-104902003D01*
X128627630Y-105081249D01*
X128627631Y-105081254D01*
X128687211Y-105251523D01*
X128756307Y-105361488D01*
X128783184Y-105404262D01*
X128910738Y-105531816D01*
X128967494Y-105567478D01*
X129040743Y-105613504D01*
X129063478Y-105627789D01*
X129133704Y-105652362D01*
X129233745Y-105687368D01*
X129233750Y-105687369D01*
X129412996Y-105707565D01*
X129413000Y-105707565D01*
X129413004Y-105707565D01*
X129592249Y-105687369D01*
X129592252Y-105687368D01*
X129592255Y-105687368D01*
X129762522Y-105627789D01*
X129915262Y-105531816D01*
X130042816Y-105404262D01*
X130138789Y-105251522D01*
X130198368Y-105081255D01*
X130208161Y-104994329D01*
X130235226Y-104929918D01*
X130243690Y-104920543D01*
X130660506Y-104503728D01*
X130660511Y-104503724D01*
X130670714Y-104493520D01*
X130670716Y-104493520D01*
X130782520Y-104381716D01*
X130839802Y-104282500D01*
X130861577Y-104244785D01*
X130902501Y-104092057D01*
X130902501Y-103933943D01*
X130902501Y-103926348D01*
X130902500Y-103926330D01*
X130902500Y-99695000D01*
X136606632Y-99695000D01*
X136681586Y-99769954D01*
X136702579Y-99783980D01*
X136751723Y-99816816D01*
X136804505Y-99852084D01*
X136804507Y-99852085D01*
X136804511Y-99852087D01*
X136894538Y-99889377D01*
X136941087Y-99908658D01*
X136941091Y-99908658D01*
X136941092Y-99908659D01*
X137086079Y-99937500D01*
X137086082Y-99937500D01*
X137086083Y-99937500D01*
X137233917Y-99937500D01*
X137252432Y-99937500D01*
X137319471Y-99957185D01*
X137365226Y-100009989D01*
X137375170Y-100079147D01*
X137346145Y-100142703D01*
X137340113Y-100149181D01*
X136399113Y-101090181D01*
X136337790Y-101123666D01*
X136311432Y-101126500D01*
X135964412Y-101126500D01*
X135897373Y-101106815D01*
X135887097Y-101099445D01*
X135884263Y-101097185D01*
X135884262Y-101097184D01*
X135825913Y-101060521D01*
X135731523Y-101001211D01*
X135561254Y-100941631D01*
X135561249Y-100941630D01*
X135382004Y-100921435D01*
X135381996Y-100921435D01*
X135202750Y-100941630D01*
X135202745Y-100941631D01*
X135032476Y-101001211D01*
X134879737Y-101097184D01*
X134752184Y-101224737D01*
X134656211Y-101377476D01*
X134596631Y-101547745D01*
X134596630Y-101547750D01*
X134576435Y-101726996D01*
X134576435Y-101727003D01*
X134596630Y-101906249D01*
X134596631Y-101906254D01*
X134656211Y-102076523D01*
X134738525Y-102207524D01*
X134752184Y-102229262D01*
X134879738Y-102356816D01*
X134970080Y-102413582D01*
X134999403Y-102432007D01*
X135032478Y-102452789D01*
X135202745Y-102512368D01*
X135202750Y-102512369D01*
X135381996Y-102532565D01*
X135382000Y-102532565D01*
X135382004Y-102532565D01*
X135561249Y-102512369D01*
X135561252Y-102512368D01*
X135561255Y-102512368D01*
X135731522Y-102452789D01*
X135884262Y-102356816D01*
X135884267Y-102356810D01*
X135887097Y-102354555D01*
X135889275Y-102353665D01*
X135890158Y-102353111D01*
X135890255Y-102353265D01*
X135951783Y-102328145D01*
X135964412Y-102327500D01*
X136524860Y-102327500D01*
X136524876Y-102327501D01*
X136532472Y-102327501D01*
X136690583Y-102327501D01*
X136690586Y-102327501D01*
X136843314Y-102286577D01*
X136894302Y-102257139D01*
X136894303Y-102257139D01*
X136980238Y-102207524D01*
X136980237Y-102207524D01*
X136980245Y-102207520D01*
X137092049Y-102095716D01*
X137092049Y-102095714D01*
X137102253Y-102085511D01*
X137102256Y-102085506D01*
X139492764Y-99695000D01*
X139925672Y-99695000D01*
X139923688Y-99699121D01*
X139921862Y-99698241D01*
X139899194Y-99734302D01*
X139625046Y-100008451D01*
X139611224Y-100029139D01*
X139579491Y-100076632D01*
X139542914Y-100131372D01*
X139542913Y-100131374D01*
X139486343Y-100267947D01*
X139486340Y-100267957D01*
X139457500Y-100412944D01*
X139457500Y-103713028D01*
X139450542Y-103753982D01*
X139422631Y-103833747D01*
X139402435Y-104012996D01*
X139402435Y-104013003D01*
X139422630Y-104192249D01*
X139422631Y-104192254D01*
X139482211Y-104362523D01*
X139570934Y-104503724D01*
X139578184Y-104515262D01*
X139705738Y-104642816D01*
X139796080Y-104699582D01*
X139831769Y-104722007D01*
X139858478Y-104738789D01*
X140028745Y-104798368D01*
X140028750Y-104798369D01*
X140207996Y-104818565D01*
X140208000Y-104818565D01*
X140208004Y-104818565D01*
X140387249Y-104798369D01*
X140387252Y-104798368D01*
X140387255Y-104798368D01*
X140557522Y-104738789D01*
X140710262Y-104642816D01*
X140837816Y-104515262D01*
X140933789Y-104362522D01*
X140993368Y-104192255D01*
X140993369Y-104192249D01*
X141013565Y-104013003D01*
X141013565Y-104012996D01*
X140993368Y-103833747D01*
X140993368Y-103833745D01*
X140965458Y-103753982D01*
X140958500Y-103713028D01*
X140958500Y-100864032D01*
X140978185Y-100796993D01*
X141016524Y-100759041D01*
X141154762Y-100672181D01*
X141282316Y-100544627D01*
X141378289Y-100391887D01*
X141437868Y-100221620D01*
X141437869Y-100221614D01*
X141458065Y-100042368D01*
X141458065Y-100042361D01*
X141437869Y-99863115D01*
X141437868Y-99863110D01*
X141405271Y-99769954D01*
X141379044Y-99695000D01*
X150656500Y-99695000D01*
X150656500Y-100461702D01*
X150636815Y-100528741D01*
X150620181Y-100549383D01*
X136938265Y-114231298D01*
X136876942Y-114264783D01*
X136864468Y-114266837D01*
X136777550Y-114276630D01*
X136607278Y-114336210D01*
X136454537Y-114432184D01*
X136326984Y-114559737D01*
X136231011Y-114712476D01*
X136171431Y-114882745D01*
X136171430Y-114882750D01*
X136151235Y-115061996D01*
X136151235Y-115062003D01*
X136171430Y-115241249D01*
X136171431Y-115241254D01*
X136231011Y-115411523D01*
X136326984Y-115564262D01*
X136454538Y-115691816D01*
X136607278Y-115787789D01*
X136775007Y-115846480D01*
X136777545Y-115847368D01*
X136777550Y-115847369D01*
X136956796Y-115867565D01*
X136956800Y-115867565D01*
X136956804Y-115867565D01*
X137136049Y-115847369D01*
X137136052Y-115847368D01*
X137136055Y-115847368D01*
X137306322Y-115787789D01*
X137459062Y-115691816D01*
X137586616Y-115564262D01*
X137682589Y-115411522D01*
X137742168Y-115241255D01*
X137751961Y-115154329D01*
X137779026Y-115089918D01*
X137787490Y-115080543D01*
X141023542Y-111844491D01*
X141084863Y-111811008D01*
X141154555Y-111815992D01*
X141210488Y-111857864D01*
X141228263Y-111891220D01*
X141260210Y-111982521D01*
X141278543Y-112011697D01*
X141356184Y-112135262D01*
X141483738Y-112262816D01*
X141636478Y-112358789D01*
X141723565Y-112389262D01*
X141806745Y-112418368D01*
X141806750Y-112418369D01*
X141985996Y-112438565D01*
X141986000Y-112438565D01*
X141986004Y-112438565D01*
X142165249Y-112418369D01*
X142165252Y-112418368D01*
X142165255Y-112418368D01*
X142335522Y-112358789D01*
X142488262Y-112262816D01*
X142488267Y-112262810D01*
X142491097Y-112260555D01*
X142493275Y-112259665D01*
X142494158Y-112259111D01*
X142494255Y-112259265D01*
X142555783Y-112234145D01*
X142568412Y-112233500D01*
X143602780Y-112233500D01*
X143669819Y-112253185D01*
X143707772Y-112291526D01*
X143769184Y-112389262D01*
X143896738Y-112516816D01*
X143948724Y-112549481D01*
X144049478Y-112612789D01*
X144178409Y-112657904D01*
X144235186Y-112698626D01*
X144260933Y-112763579D01*
X144247477Y-112832140D01*
X144225136Y-112862627D01*
X130873915Y-126213850D01*
X130812592Y-126247335D01*
X130786234Y-126250169D01*
X129338081Y-126250169D01*
X129271042Y-126230484D01*
X129260766Y-126223114D01*
X129257932Y-126220854D01*
X129257931Y-126220853D01*
X129201165Y-126185184D01*
X129105192Y-126124880D01*
X128934923Y-126065300D01*
X128934918Y-126065299D01*
X128755673Y-126045104D01*
X128755665Y-126045104D01*
X128576419Y-126065299D01*
X128576414Y-126065300D01*
X128406145Y-126124880D01*
X128253406Y-126220853D01*
X128125853Y-126348406D01*
X128029880Y-126501145D01*
X127970300Y-126671414D01*
X127970299Y-126671419D01*
X127950104Y-126850665D01*
X127950104Y-126850672D01*
X127970299Y-127029918D01*
X127970300Y-127029923D01*
X128029880Y-127200192D01*
X128125853Y-127352931D01*
X128253407Y-127480485D01*
X128406147Y-127576458D01*
X128576414Y-127636037D01*
X128576419Y-127636038D01*
X128755665Y-127656234D01*
X128755669Y-127656234D01*
X128755673Y-127656234D01*
X128934918Y-127636038D01*
X128934921Y-127636037D01*
X128934924Y-127636037D01*
X129105191Y-127576458D01*
X129257931Y-127480485D01*
X129257936Y-127480479D01*
X129260766Y-127478224D01*
X129262944Y-127477334D01*
X129263827Y-127476780D01*
X129263924Y-127476934D01*
X129325452Y-127451814D01*
X129338081Y-127451169D01*
X130999662Y-127451169D01*
X130999678Y-127451170D01*
X131007274Y-127451170D01*
X131165385Y-127451170D01*
X131165388Y-127451170D01*
X131318116Y-127410246D01*
X131368235Y-127381308D01*
X131455047Y-127331189D01*
X131566851Y-127219385D01*
X131566851Y-127219383D01*
X131577059Y-127209176D01*
X131577060Y-127209173D01*
X157071520Y-101714716D01*
X157150577Y-101577785D01*
X157191501Y-101425057D01*
X157191501Y-101266942D01*
X157191501Y-101259347D01*
X157191500Y-101259329D01*
X157191500Y-95705412D01*
X157211185Y-95638373D01*
X157218555Y-95628097D01*
X157220810Y-95625267D01*
X157220816Y-95625262D01*
X157316789Y-95472522D01*
X157376368Y-95302255D01*
X157381609Y-95255738D01*
X157396565Y-95123003D01*
X157396565Y-95122996D01*
X157376369Y-94943750D01*
X157376368Y-94943745D01*
X157357987Y-94891216D01*
X157316789Y-94773478D01*
X157220816Y-94620738D01*
X157156527Y-94556449D01*
X157123042Y-94495126D01*
X157128026Y-94425434D01*
X157169898Y-94369501D01*
X157235362Y-94345084D01*
X157244152Y-94344768D01*
X167015471Y-94342030D01*
X167082510Y-94361695D01*
G37*
%TD.AperFunction*%
%TA.AperFunction,Conductor*%
G36*
X155961185Y-95625263D02*
G01*
X155963445Y-95628097D01*
X155964334Y-95630275D01*
X155964889Y-95631158D01*
X155964734Y-95631255D01*
X155989855Y-95692783D01*
X155990500Y-95705412D01*
X155990500Y-101045902D01*
X155970815Y-101112941D01*
X155954181Y-101133583D01*
X145374627Y-111713136D01*
X145313304Y-111746621D01*
X145243612Y-111741637D01*
X145187679Y-111699765D01*
X145169904Y-111666409D01*
X145124789Y-111537478D01*
X145049576Y-111417777D01*
X145028816Y-111384738D01*
X144901262Y-111257184D01*
X144816000Y-111203610D01*
X144748523Y-111161211D01*
X144578254Y-111101631D01*
X144578249Y-111101630D01*
X144412450Y-111082950D01*
X144378877Y-111074290D01*
X144376787Y-111073424D01*
X144376785Y-111073423D01*
X144224057Y-111032499D01*
X144065943Y-111032499D01*
X144058347Y-111032499D01*
X144058331Y-111032500D01*
X142568412Y-111032500D01*
X142501373Y-111012815D01*
X142491097Y-111005445D01*
X142488263Y-111003185D01*
X142488262Y-111003184D01*
X142397028Y-110945858D01*
X142335521Y-110907210D01*
X142244220Y-110875263D01*
X142187444Y-110834541D01*
X142161696Y-110769589D01*
X142175152Y-110701027D01*
X142197490Y-110670543D01*
X151737520Y-101130516D01*
X151816577Y-100993585D01*
X151857501Y-100840857D01*
X151857501Y-100682742D01*
X151857501Y-100675147D01*
X151857500Y-100675129D01*
X151857500Y-99695000D01*
X155829000Y-99695000D01*
X155889632Y-95511388D01*
X155961185Y-95625263D01*
G37*
%TD.AperFunction*%
%TA.AperFunction,Conductor*%
G36*
X128967260Y-95399055D02*
G01*
X128916630Y-95543750D01*
X128906837Y-95630668D01*
X128879770Y-95695082D01*
X128871298Y-95704465D01*
X126761181Y-97814583D01*
X126699858Y-97848068D01*
X126630166Y-97843084D01*
X126574233Y-97801212D01*
X126549816Y-97735748D01*
X126549500Y-97726902D01*
X126549500Y-94477333D01*
X126569185Y-94410294D01*
X126621989Y-94364539D01*
X126673459Y-94353334D01*
X128982424Y-94352686D01*
X128967260Y-95399055D01*
G37*
%TD.AperFunction*%
%TA.AperFunction,Conductor*%
G36*
X104864355Y-96480471D02*
G01*
X104920399Y-96475569D01*
X104988899Y-96489336D01*
X105039082Y-96537951D01*
X105055015Y-96605980D01*
X105050981Y-96631189D01*
X105039698Y-96673299D01*
X105039695Y-96673313D01*
X105019863Y-96899998D01*
X105019863Y-96900001D01*
X105039695Y-97126686D01*
X105039698Y-97126703D01*
X105049694Y-97164010D01*
X105048030Y-97233860D01*
X105008867Y-97291721D01*
X104944638Y-97319224D01*
X104875736Y-97307637D01*
X104828344Y-97267224D01*
X104785378Y-97205861D01*
X104785376Y-97205859D01*
X104785375Y-97205857D01*
X104624473Y-97044955D01*
X104602325Y-97029447D01*
X104558620Y-96998844D01*
X104514995Y-96944269D01*
X104506215Y-96886463D01*
X104510802Y-96834024D01*
X103914740Y-96237962D01*
X103978324Y-96220925D01*
X104092338Y-96155099D01*
X104185430Y-96062007D01*
X104251256Y-95947993D01*
X104268293Y-95884409D01*
X104864355Y-96480471D01*
G37*
%TD.AperFunction*%
%TA.AperFunction,Conductor*%
G36*
X104973472Y-94379098D02*
G01*
X105019242Y-94431889D01*
X105029990Y-94494239D01*
X105019863Y-94609997D01*
X105019863Y-94610001D01*
X105037733Y-94814261D01*
X105039696Y-94836692D01*
X105049616Y-94873716D01*
X105050981Y-94878808D01*
X105049318Y-94948657D01*
X105010155Y-95006520D01*
X104945927Y-95034024D01*
X104920400Y-95034429D01*
X104864356Y-95029526D01*
X104268293Y-95625589D01*
X104251256Y-95562007D01*
X104185430Y-95447993D01*
X104092338Y-95354901D01*
X103978324Y-95289075D01*
X103914741Y-95272037D01*
X104510803Y-94675974D01*
X104437809Y-94624863D01*
X104375800Y-94595948D01*
X104323360Y-94549776D01*
X104304208Y-94482583D01*
X104324423Y-94415701D01*
X104377589Y-94370367D01*
X104428165Y-94359566D01*
X104906429Y-94359432D01*
X104973472Y-94379098D01*
G37*
%TD.AperFunction*%
%TA.AperFunction,Conductor*%
G36*
X156004434Y-94364799D02*
G01*
X156050204Y-94417590D01*
X156060168Y-94486745D01*
X156031161Y-94550310D01*
X156025107Y-94556815D01*
X155961183Y-94620739D01*
X155901155Y-94716271D01*
X155906534Y-94345142D01*
X155937391Y-94345134D01*
X156004434Y-94364799D01*
G37*
%TD.AperFunction*%
%TD*%
%TA.AperFunction,Conductor*%
%TO.N,GNDA*%
G36*
X166646957Y-44951284D02*
G01*
X166666945Y-44953536D01*
X166737266Y-44961459D01*
X166764331Y-44967636D01*
X166843540Y-44995352D01*
X166868553Y-45007398D01*
X166939606Y-45052043D01*
X166961313Y-45069355D01*
X167020644Y-45128686D01*
X167037957Y-45150395D01*
X167082600Y-45221444D01*
X167094648Y-45246462D01*
X167122362Y-45325666D01*
X167128540Y-45352735D01*
X167138720Y-45443076D01*
X167139500Y-45456961D01*
X167139500Y-93931899D01*
X167119815Y-93998938D01*
X167067011Y-94044693D01*
X167015094Y-94055898D01*
X155911253Y-94019553D01*
X155956000Y-90932000D01*
X152965500Y-90932000D01*
X152965500Y-90705321D01*
X152985185Y-90638282D01*
X153037989Y-90592527D01*
X153075612Y-90582101D01*
X153144255Y-90574368D01*
X153314522Y-90514789D01*
X153467262Y-90418816D01*
X153594816Y-90291262D01*
X153690789Y-90138522D01*
X153750368Y-89968255D01*
X153752709Y-89947478D01*
X153770565Y-89789003D01*
X153770565Y-89788996D01*
X153750369Y-89609750D01*
X153750368Y-89609745D01*
X153725170Y-89537734D01*
X153690789Y-89439478D01*
X153594816Y-89286738D01*
X153544819Y-89236741D01*
X153511334Y-89175418D01*
X153508500Y-89149060D01*
X153508500Y-69442692D01*
X153528185Y-69375653D01*
X153561374Y-69341119D01*
X153747139Y-69211047D01*
X153908047Y-69050139D01*
X154038568Y-68863734D01*
X154065618Y-68805724D01*
X154111790Y-68753285D01*
X154178983Y-68734133D01*
X154245865Y-68754348D01*
X154290382Y-68805725D01*
X154317429Y-68863728D01*
X154317432Y-68863734D01*
X154447954Y-69050141D01*
X154608858Y-69211045D01*
X154608861Y-69211047D01*
X154795266Y-69341568D01*
X155001504Y-69437739D01*
X155001509Y-69437740D01*
X155001511Y-69437741D01*
X155054415Y-69451916D01*
X155221308Y-69496635D01*
X155363361Y-69509063D01*
X155447998Y-69516468D01*
X155448000Y-69516468D01*
X155448002Y-69516468D01*
X155510511Y-69510999D01*
X155674692Y-69496635D01*
X155894496Y-69437739D01*
X156100734Y-69341568D01*
X156287139Y-69211047D01*
X156448047Y-69050139D01*
X156578568Y-68863734D01*
X156605618Y-68805724D01*
X156651790Y-68753285D01*
X156718983Y-68734133D01*
X156785865Y-68754348D01*
X156830382Y-68805725D01*
X156857429Y-68863728D01*
X156857432Y-68863734D01*
X156987954Y-69050141D01*
X157148858Y-69211045D01*
X157148861Y-69211047D01*
X157335266Y-69341568D01*
X157541504Y-69437739D01*
X157541509Y-69437740D01*
X157541511Y-69437741D01*
X157594415Y-69451916D01*
X157761308Y-69496635D01*
X157903361Y-69509063D01*
X157987998Y-69516468D01*
X157988000Y-69516468D01*
X157988002Y-69516468D01*
X158050511Y-69510999D01*
X158214692Y-69496635D01*
X158434496Y-69437739D01*
X158640734Y-69341568D01*
X158827139Y-69211047D01*
X158988047Y-69050139D01*
X159118568Y-68863734D01*
X159145618Y-68805724D01*
X159191790Y-68753285D01*
X159258983Y-68734133D01*
X159325865Y-68754348D01*
X159370382Y-68805725D01*
X159397429Y-68863728D01*
X159397432Y-68863734D01*
X159527954Y-69050141D01*
X159688858Y-69211045D01*
X159688861Y-69211047D01*
X159875266Y-69341568D01*
X160081504Y-69437739D01*
X160081509Y-69437740D01*
X160081511Y-69437741D01*
X160134415Y-69451916D01*
X160301308Y-69496635D01*
X160443361Y-69509063D01*
X160527998Y-69516468D01*
X160528000Y-69516468D01*
X160528002Y-69516468D01*
X160590511Y-69510999D01*
X160754692Y-69496635D01*
X160974496Y-69437739D01*
X161180734Y-69341568D01*
X161367139Y-69211047D01*
X161528047Y-69050139D01*
X161658568Y-68863734D01*
X161685618Y-68805724D01*
X161731790Y-68753285D01*
X161798983Y-68734133D01*
X161865865Y-68754348D01*
X161910382Y-68805725D01*
X161937429Y-68863728D01*
X161937432Y-68863734D01*
X162067954Y-69050141D01*
X162228858Y-69211045D01*
X162228861Y-69211047D01*
X162415266Y-69341568D01*
X162621504Y-69437739D01*
X162621509Y-69437740D01*
X162621511Y-69437741D01*
X162674415Y-69451916D01*
X162841308Y-69496635D01*
X162983361Y-69509063D01*
X163067998Y-69516468D01*
X163068000Y-69516468D01*
X163068002Y-69516468D01*
X163130511Y-69510999D01*
X163294692Y-69496635D01*
X163514496Y-69437739D01*
X163720734Y-69341568D01*
X163907139Y-69211047D01*
X164068047Y-69050139D01*
X164198568Y-68863734D01*
X164294739Y-68657496D01*
X164353635Y-68437692D01*
X164373468Y-68211000D01*
X164353635Y-67984308D01*
X164294739Y-67764504D01*
X164198568Y-67558266D01*
X164068047Y-67371861D01*
X164068045Y-67371858D01*
X163907141Y-67210954D01*
X163720734Y-67080432D01*
X163720732Y-67080431D01*
X163514497Y-66984261D01*
X163514488Y-66984258D01*
X163294697Y-66925366D01*
X163294693Y-66925365D01*
X163294692Y-66925365D01*
X163294691Y-66925364D01*
X163294686Y-66925364D01*
X163068002Y-66905532D01*
X163067998Y-66905532D01*
X162841313Y-66925364D01*
X162841302Y-66925366D01*
X162621511Y-66984258D01*
X162621502Y-66984261D01*
X162415267Y-67080431D01*
X162415265Y-67080432D01*
X162228858Y-67210954D01*
X162067954Y-67371858D01*
X161937432Y-67558265D01*
X161937431Y-67558267D01*
X161910382Y-67616275D01*
X161864209Y-67668714D01*
X161797016Y-67687866D01*
X161730135Y-67667650D01*
X161685618Y-67616275D01*
X161658568Y-67558267D01*
X161658567Y-67558265D01*
X161528045Y-67371858D01*
X161367141Y-67210954D01*
X161180734Y-67080432D01*
X161180732Y-67080431D01*
X160974497Y-66984261D01*
X160974488Y-66984258D01*
X160754697Y-66925366D01*
X160754693Y-66925365D01*
X160754692Y-66925365D01*
X160754691Y-66925364D01*
X160754686Y-66925364D01*
X160528002Y-66905532D01*
X160527998Y-66905532D01*
X160301313Y-66925364D01*
X160301302Y-66925366D01*
X160081511Y-66984258D01*
X160081502Y-66984261D01*
X159875267Y-67080431D01*
X159875265Y-67080432D01*
X159688858Y-67210954D01*
X159527954Y-67371858D01*
X159397432Y-67558265D01*
X159397431Y-67558267D01*
X159370382Y-67616275D01*
X159324209Y-67668714D01*
X159257016Y-67687866D01*
X159190135Y-67667650D01*
X159145618Y-67616275D01*
X159118568Y-67558267D01*
X159118567Y-67558265D01*
X158988045Y-67371858D01*
X158827141Y-67210954D01*
X158640734Y-67080432D01*
X158640732Y-67080431D01*
X158434497Y-66984261D01*
X158434488Y-66984258D01*
X158214697Y-66925366D01*
X158214693Y-66925365D01*
X158214692Y-66925365D01*
X158214691Y-66925364D01*
X158214686Y-66925364D01*
X157988002Y-66905532D01*
X157987998Y-66905532D01*
X157761313Y-66925364D01*
X157761302Y-66925366D01*
X157541511Y-66984258D01*
X157541502Y-66984261D01*
X157335267Y-67080431D01*
X157335265Y-67080432D01*
X157148858Y-67210954D01*
X156987954Y-67371858D01*
X156857432Y-67558265D01*
X156857431Y-67558267D01*
X156830382Y-67616275D01*
X156784209Y-67668714D01*
X156717016Y-67687866D01*
X156650135Y-67667650D01*
X156605618Y-67616275D01*
X156578568Y-67558267D01*
X156578567Y-67558265D01*
X156448045Y-67371858D01*
X156287141Y-67210954D01*
X156100734Y-67080432D01*
X156100732Y-67080431D01*
X155894497Y-66984261D01*
X155894488Y-66984258D01*
X155674697Y-66925366D01*
X155674693Y-66925365D01*
X155674692Y-66925365D01*
X155674691Y-66925364D01*
X155674686Y-66925364D01*
X155448002Y-66905532D01*
X155447998Y-66905532D01*
X155221313Y-66925364D01*
X155221302Y-66925366D01*
X155001511Y-66984258D01*
X155001502Y-66984261D01*
X154795267Y-67080431D01*
X154795265Y-67080432D01*
X154608858Y-67210954D01*
X154447954Y-67371858D01*
X154317432Y-67558265D01*
X154317431Y-67558267D01*
X154290382Y-67616275D01*
X154244209Y-67668714D01*
X154177016Y-67687866D01*
X154110135Y-67667650D01*
X154065618Y-67616275D01*
X154038568Y-67558267D01*
X154038567Y-67558265D01*
X153908045Y-67371858D01*
X153747141Y-67210954D01*
X153560734Y-67080432D01*
X153560732Y-67080431D01*
X153354497Y-66984261D01*
X153354488Y-66984258D01*
X153134697Y-66925366D01*
X153134693Y-66925365D01*
X153134692Y-66925365D01*
X153134691Y-66925364D01*
X153134686Y-66925364D01*
X152908002Y-66905532D01*
X152907998Y-66905532D01*
X152681313Y-66925364D01*
X152681302Y-66925366D01*
X152564593Y-66956638D01*
X152494743Y-66954975D01*
X152436881Y-66915812D01*
X152409377Y-66851583D01*
X152408500Y-66836863D01*
X152408500Y-54371097D01*
X152428185Y-54304058D01*
X152444817Y-54283418D01*
X152453369Y-54274865D01*
X152465292Y-54262942D01*
X152526613Y-54229456D01*
X152585066Y-54230846D01*
X152681308Y-54256635D01*
X152843230Y-54270801D01*
X152907998Y-54276468D01*
X152908000Y-54276468D01*
X152908002Y-54276468D01*
X152964673Y-54271509D01*
X153134692Y-54256635D01*
X153354496Y-54197739D01*
X153560734Y-54101568D01*
X153747139Y-53971047D01*
X153908047Y-53810139D01*
X154038568Y-53623734D01*
X154065618Y-53565724D01*
X154111790Y-53513285D01*
X154178983Y-53494133D01*
X154245865Y-53514348D01*
X154290382Y-53565725D01*
X154317429Y-53623728D01*
X154317432Y-53623734D01*
X154447954Y-53810141D01*
X154608858Y-53971045D01*
X154620041Y-53978875D01*
X154795266Y-54101568D01*
X155001504Y-54197739D01*
X155001509Y-54197740D01*
X155001511Y-54197741D01*
X155054415Y-54211916D01*
X155221308Y-54256635D01*
X155383230Y-54270801D01*
X155447998Y-54276468D01*
X155448000Y-54276468D01*
X155448002Y-54276468D01*
X155504673Y-54271509D01*
X155674692Y-54256635D01*
X155894496Y-54197739D01*
X156100734Y-54101568D01*
X156287139Y-53971047D01*
X156448047Y-53810139D01*
X156578568Y-53623734D01*
X156605618Y-53565724D01*
X156651790Y-53513285D01*
X156718983Y-53494133D01*
X156785865Y-53514348D01*
X156830382Y-53565725D01*
X156857429Y-53623728D01*
X156857432Y-53623734D01*
X156987954Y-53810141D01*
X157148858Y-53971045D01*
X157160041Y-53978875D01*
X157335266Y-54101568D01*
X157541504Y-54197739D01*
X157541509Y-54197740D01*
X157541511Y-54197741D01*
X157594415Y-54211916D01*
X157761308Y-54256635D01*
X157923230Y-54270801D01*
X157987998Y-54276468D01*
X157988000Y-54276468D01*
X157988002Y-54276468D01*
X158044673Y-54271509D01*
X158214692Y-54256635D01*
X158434496Y-54197739D01*
X158640734Y-54101568D01*
X158827139Y-53971047D01*
X158988047Y-53810139D01*
X159118568Y-53623734D01*
X159145618Y-53565724D01*
X159191790Y-53513285D01*
X159258983Y-53494133D01*
X159325865Y-53514348D01*
X159370382Y-53565725D01*
X159397429Y-53623728D01*
X159397432Y-53623734D01*
X159527954Y-53810141D01*
X159688858Y-53971045D01*
X159700041Y-53978875D01*
X159875266Y-54101568D01*
X160081504Y-54197739D01*
X160081509Y-54197740D01*
X160081511Y-54197741D01*
X160134415Y-54211916D01*
X160301308Y-54256635D01*
X160463230Y-54270801D01*
X160527998Y-54276468D01*
X160528000Y-54276468D01*
X160528002Y-54276468D01*
X160584673Y-54271509D01*
X160754692Y-54256635D01*
X160974496Y-54197739D01*
X161180734Y-54101568D01*
X161367139Y-53971047D01*
X161528047Y-53810139D01*
X161658568Y-53623734D01*
X161685618Y-53565724D01*
X161731790Y-53513285D01*
X161798983Y-53494133D01*
X161865865Y-53514348D01*
X161910382Y-53565725D01*
X161937429Y-53623728D01*
X161937432Y-53623734D01*
X162067954Y-53810141D01*
X162228858Y-53971045D01*
X162240041Y-53978875D01*
X162415266Y-54101568D01*
X162621504Y-54197739D01*
X162621509Y-54197740D01*
X162621511Y-54197741D01*
X162674415Y-54211916D01*
X162841308Y-54256635D01*
X163003230Y-54270801D01*
X163067998Y-54276468D01*
X163068000Y-54276468D01*
X163068002Y-54276468D01*
X163124673Y-54271509D01*
X163294692Y-54256635D01*
X163514496Y-54197739D01*
X163720734Y-54101568D01*
X163907139Y-53971047D01*
X164068047Y-53810139D01*
X164198568Y-53623734D01*
X164294739Y-53417496D01*
X164353635Y-53197692D01*
X164373468Y-52971000D01*
X164353635Y-52744308D01*
X164294739Y-52524504D01*
X164198568Y-52318266D01*
X164068047Y-52131861D01*
X164068045Y-52131858D01*
X163907141Y-51970954D01*
X163720734Y-51840432D01*
X163720732Y-51840431D01*
X163514497Y-51744261D01*
X163514488Y-51744258D01*
X163294697Y-51685366D01*
X163294693Y-51685365D01*
X163294692Y-51685365D01*
X163294691Y-51685364D01*
X163294686Y-51685364D01*
X163068002Y-51665532D01*
X163067998Y-51665532D01*
X162841313Y-51685364D01*
X162841302Y-51685366D01*
X162621511Y-51744258D01*
X162621502Y-51744261D01*
X162415267Y-51840431D01*
X162415265Y-51840432D01*
X162228858Y-51970954D01*
X162067954Y-52131858D01*
X161937432Y-52318265D01*
X161937431Y-52318267D01*
X161910382Y-52376275D01*
X161864209Y-52428714D01*
X161797016Y-52447866D01*
X161730135Y-52427650D01*
X161685618Y-52376275D01*
X161658568Y-52318266D01*
X161528047Y-52131861D01*
X161528045Y-52131858D01*
X161367141Y-51970954D01*
X161180734Y-51840432D01*
X161180732Y-51840431D01*
X160974497Y-51744261D01*
X160974488Y-51744258D01*
X160754697Y-51685366D01*
X160754693Y-51685365D01*
X160754692Y-51685365D01*
X160754691Y-51685364D01*
X160754686Y-51685364D01*
X160528002Y-51665532D01*
X160527998Y-51665532D01*
X160301313Y-51685364D01*
X160301302Y-51685366D01*
X160081511Y-51744258D01*
X160081502Y-51744261D01*
X159875267Y-51840431D01*
X159875265Y-51840432D01*
X159688858Y-51970954D01*
X159527954Y-52131858D01*
X159397432Y-52318265D01*
X159397431Y-52318267D01*
X159370382Y-52376275D01*
X159324209Y-52428714D01*
X159257016Y-52447866D01*
X159190135Y-52427650D01*
X159145618Y-52376275D01*
X159118568Y-52318266D01*
X158988047Y-52131861D01*
X158988045Y-52131858D01*
X158827141Y-51970954D01*
X158640734Y-51840432D01*
X158640732Y-51840431D01*
X158434497Y-51744261D01*
X158434488Y-51744258D01*
X158214697Y-51685366D01*
X158214693Y-51685365D01*
X158214692Y-51685365D01*
X158214691Y-51685364D01*
X158214686Y-51685364D01*
X157988002Y-51665532D01*
X157987998Y-51665532D01*
X157761313Y-51685364D01*
X157761302Y-51685366D01*
X157541511Y-51744258D01*
X157541502Y-51744261D01*
X157335267Y-51840431D01*
X157335265Y-51840432D01*
X157148858Y-51970954D01*
X156987954Y-52131858D01*
X156857432Y-52318265D01*
X156857431Y-52318267D01*
X156830382Y-52376275D01*
X156784209Y-52428714D01*
X156717016Y-52447866D01*
X156650135Y-52427650D01*
X156605618Y-52376275D01*
X156578568Y-52318266D01*
X156448047Y-52131861D01*
X156448045Y-52131858D01*
X156287141Y-51970954D01*
X156100734Y-51840432D01*
X156100732Y-51840431D01*
X155894497Y-51744261D01*
X155894488Y-51744258D01*
X155674697Y-51685366D01*
X155674693Y-51685365D01*
X155674692Y-51685365D01*
X155674691Y-51685364D01*
X155674686Y-51685364D01*
X155448002Y-51665532D01*
X155447998Y-51665532D01*
X155221313Y-51685364D01*
X155221302Y-51685366D01*
X155125067Y-51711152D01*
X155055217Y-51709489D01*
X155005293Y-51679058D01*
X154835590Y-51509355D01*
X154835588Y-51509352D01*
X154716717Y-51390481D01*
X154716716Y-51390480D01*
X154629904Y-51340360D01*
X154629904Y-51340359D01*
X154629900Y-51340358D01*
X154579785Y-51311423D01*
X154427057Y-51270499D01*
X154268943Y-51270499D01*
X154261347Y-51270499D01*
X154261331Y-51270500D01*
X149999035Y-51270500D01*
X149999019Y-51270499D01*
X149991423Y-51270499D01*
X149833308Y-51270499D01*
X149756944Y-51290961D01*
X149680579Y-51311423D01*
X149680574Y-51311426D01*
X149543655Y-51390475D01*
X149543647Y-51390481D01*
X148902838Y-52031290D01*
X148841515Y-52064775D01*
X148771823Y-52059791D01*
X148727477Y-52031291D01*
X148667139Y-51970953D01*
X148667138Y-51970952D01*
X148667137Y-51970951D01*
X148480734Y-51840432D01*
X148480732Y-51840431D01*
X148274497Y-51744261D01*
X148274488Y-51744258D01*
X148054697Y-51685366D01*
X148054693Y-51685365D01*
X148054692Y-51685365D01*
X148054691Y-51685364D01*
X148054686Y-51685364D01*
X147828002Y-51665532D01*
X147827998Y-51665532D01*
X147601313Y-51685364D01*
X147601302Y-51685366D01*
X147381511Y-51744258D01*
X147381502Y-51744261D01*
X147175267Y-51840431D01*
X147175265Y-51840432D01*
X146988858Y-51970954D01*
X146827954Y-52131858D01*
X146697432Y-52318265D01*
X146697431Y-52318267D01*
X146670382Y-52376275D01*
X146624209Y-52428714D01*
X146557016Y-52447866D01*
X146490135Y-52427650D01*
X146445618Y-52376275D01*
X146418568Y-52318266D01*
X146288047Y-52131861D01*
X146288045Y-52131858D01*
X146127141Y-51970954D01*
X145940734Y-51840432D01*
X145940732Y-51840431D01*
X145734497Y-51744261D01*
X145734488Y-51744258D01*
X145514697Y-51685366D01*
X145514693Y-51685365D01*
X145514692Y-51685365D01*
X145514691Y-51685364D01*
X145514686Y-51685364D01*
X145288002Y-51665532D01*
X145287998Y-51665532D01*
X145061313Y-51685364D01*
X145061302Y-51685366D01*
X144841511Y-51744258D01*
X144841502Y-51744261D01*
X144635267Y-51840431D01*
X144635265Y-51840432D01*
X144448858Y-51970954D01*
X144287954Y-52131858D01*
X144157432Y-52318265D01*
X144157431Y-52318267D01*
X144130382Y-52376275D01*
X144084209Y-52428714D01*
X144017016Y-52447866D01*
X143950135Y-52427650D01*
X143905618Y-52376275D01*
X143878568Y-52318266D01*
X143748047Y-52131861D01*
X143748045Y-52131858D01*
X143587141Y-51970954D01*
X143400734Y-51840432D01*
X143400732Y-51840431D01*
X143194497Y-51744261D01*
X143194488Y-51744258D01*
X142974697Y-51685366D01*
X142974693Y-51685365D01*
X142974692Y-51685365D01*
X142974691Y-51685364D01*
X142974686Y-51685364D01*
X142748002Y-51665532D01*
X142747998Y-51665532D01*
X142521313Y-51685364D01*
X142521302Y-51685366D01*
X142301511Y-51744258D01*
X142301502Y-51744261D01*
X142095267Y-51840431D01*
X142095265Y-51840432D01*
X141908858Y-51970954D01*
X141747954Y-52131858D01*
X141617432Y-52318265D01*
X141617428Y-52318272D01*
X141590105Y-52376866D01*
X141543932Y-52429305D01*
X141476738Y-52448456D01*
X141409858Y-52428239D01*
X141365342Y-52376864D01*
X141338136Y-52318521D01*
X141338132Y-52318513D01*
X141287025Y-52245526D01*
X140731787Y-52800764D01*
X140720518Y-52758708D01*
X140648110Y-52633292D01*
X140545708Y-52530890D01*
X140420292Y-52458482D01*
X140378234Y-52447212D01*
X140933472Y-51891974D01*
X140860478Y-51840863D01*
X140654331Y-51744735D01*
X140654317Y-51744730D01*
X140434610Y-51685860D01*
X140434599Y-51685858D01*
X140208002Y-51666034D01*
X140207998Y-51666034D01*
X139981400Y-51685858D01*
X139981389Y-51685860D01*
X139761682Y-51744730D01*
X139761673Y-51744734D01*
X139555516Y-51840866D01*
X139555512Y-51840868D01*
X139482526Y-51891973D01*
X139482526Y-51891974D01*
X140037765Y-52447212D01*
X139995708Y-52458482D01*
X139870292Y-52530890D01*
X139767890Y-52633292D01*
X139695482Y-52758708D01*
X139684212Y-52800764D01*
X139128974Y-52245526D01*
X139128973Y-52245526D01*
X139077868Y-52318512D01*
X139077868Y-52318513D01*
X139050657Y-52376867D01*
X139004484Y-52429306D01*
X138937290Y-52448457D01*
X138870409Y-52428241D01*
X138825893Y-52376865D01*
X138798682Y-52318512D01*
X138798568Y-52318266D01*
X138668047Y-52131861D01*
X138668045Y-52131858D01*
X138507141Y-51970954D01*
X138320734Y-51840432D01*
X138320732Y-51840431D01*
X138114497Y-51744261D01*
X138114488Y-51744258D01*
X137894697Y-51685366D01*
X137894693Y-51685365D01*
X137894692Y-51685365D01*
X137894691Y-51685364D01*
X137894686Y-51685364D01*
X137668002Y-51665532D01*
X137667998Y-51665532D01*
X137441313Y-51685364D01*
X137441302Y-51685366D01*
X137221511Y-51744258D01*
X137221502Y-51744261D01*
X137015267Y-51840431D01*
X137015265Y-51840432D01*
X136828858Y-51970954D01*
X136667954Y-52131858D01*
X136537432Y-52318265D01*
X136537431Y-52318267D01*
X136510382Y-52376275D01*
X136464209Y-52428714D01*
X136397016Y-52447866D01*
X136330135Y-52427650D01*
X136285618Y-52376275D01*
X136258568Y-52318266D01*
X136128047Y-52131861D01*
X136128045Y-52131858D01*
X135967141Y-51970954D01*
X135780734Y-51840432D01*
X135780732Y-51840431D01*
X135574497Y-51744261D01*
X135574488Y-51744258D01*
X135354697Y-51685366D01*
X135354693Y-51685365D01*
X135354692Y-51685365D01*
X135354691Y-51685364D01*
X135354686Y-51685364D01*
X135128002Y-51665532D01*
X135127998Y-51665532D01*
X134901313Y-51685364D01*
X134901302Y-51685366D01*
X134681511Y-51744258D01*
X134681502Y-51744261D01*
X134475267Y-51840431D01*
X134475265Y-51840432D01*
X134288858Y-51970954D01*
X134127954Y-52131858D01*
X133997432Y-52318265D01*
X133997431Y-52318267D01*
X133970382Y-52376275D01*
X133924209Y-52428714D01*
X133857016Y-52447866D01*
X133790135Y-52427650D01*
X133745618Y-52376275D01*
X133718568Y-52318266D01*
X133588047Y-52131861D01*
X133588045Y-52131858D01*
X133427141Y-51970954D01*
X133240734Y-51840432D01*
X133240732Y-51840431D01*
X133034497Y-51744261D01*
X133034488Y-51744258D01*
X132814697Y-51685366D01*
X132814693Y-51685365D01*
X132814692Y-51685365D01*
X132814691Y-51685364D01*
X132814686Y-51685364D01*
X132588002Y-51665532D01*
X132587998Y-51665532D01*
X132361313Y-51685364D01*
X132361302Y-51685366D01*
X132141511Y-51744258D01*
X132141502Y-51744261D01*
X131935267Y-51840431D01*
X131935265Y-51840432D01*
X131748858Y-51970954D01*
X131587954Y-52131858D01*
X131457432Y-52318265D01*
X131457431Y-52318267D01*
X131430382Y-52376275D01*
X131384209Y-52428714D01*
X131317016Y-52447866D01*
X131250135Y-52427650D01*
X131205618Y-52376275D01*
X131178568Y-52318266D01*
X131048047Y-52131861D01*
X131048045Y-52131858D01*
X130887141Y-51970954D01*
X130700734Y-51840432D01*
X130700732Y-51840431D01*
X130494497Y-51744261D01*
X130494488Y-51744258D01*
X130274697Y-51685366D01*
X130274693Y-51685365D01*
X130274692Y-51685365D01*
X130274691Y-51685364D01*
X130274686Y-51685364D01*
X130048002Y-51665532D01*
X130047998Y-51665532D01*
X129821313Y-51685364D01*
X129821302Y-51685366D01*
X129601511Y-51744258D01*
X129601502Y-51744261D01*
X129395267Y-51840431D01*
X129395265Y-51840432D01*
X129208858Y-51970954D01*
X129047954Y-52131858D01*
X128917432Y-52318265D01*
X128917431Y-52318267D01*
X128890382Y-52376275D01*
X128844209Y-52428714D01*
X128777016Y-52447866D01*
X128710135Y-52427650D01*
X128665618Y-52376275D01*
X128638568Y-52318266D01*
X128508047Y-52131861D01*
X128508045Y-52131858D01*
X128347141Y-51970954D01*
X128160734Y-51840432D01*
X128160732Y-51840431D01*
X127954497Y-51744261D01*
X127954488Y-51744258D01*
X127734697Y-51685366D01*
X127734693Y-51685365D01*
X127734692Y-51685365D01*
X127734691Y-51685364D01*
X127734686Y-51685364D01*
X127508002Y-51665532D01*
X127507998Y-51665532D01*
X127281313Y-51685364D01*
X127281302Y-51685366D01*
X127061511Y-51744258D01*
X127061502Y-51744261D01*
X126855267Y-51840431D01*
X126855265Y-51840432D01*
X126668858Y-51970954D01*
X126507954Y-52131858D01*
X126377432Y-52318265D01*
X126377431Y-52318267D01*
X126350382Y-52376275D01*
X126304209Y-52428714D01*
X126237016Y-52447866D01*
X126170135Y-52427650D01*
X126125618Y-52376275D01*
X126098568Y-52318266D01*
X125968047Y-52131861D01*
X125968045Y-52131858D01*
X125807141Y-51970954D01*
X125620734Y-51840432D01*
X125620732Y-51840431D01*
X125414497Y-51744261D01*
X125414488Y-51744258D01*
X125194697Y-51685366D01*
X125194693Y-51685365D01*
X125194692Y-51685365D01*
X125194691Y-51685364D01*
X125194686Y-51685364D01*
X124968002Y-51665532D01*
X124967998Y-51665532D01*
X124741313Y-51685364D01*
X124741302Y-51685366D01*
X124521511Y-51744258D01*
X124521502Y-51744261D01*
X124315267Y-51840431D01*
X124315265Y-51840432D01*
X124128862Y-51970951D01*
X124068523Y-52031290D01*
X124007199Y-52064774D01*
X123937508Y-52059789D01*
X123901752Y-52036810D01*
X123900684Y-52038092D01*
X123900672Y-52038082D01*
X123893405Y-52031446D01*
X123893161Y-52031289D01*
X123892397Y-52030525D01*
X123892374Y-52030504D01*
X122971225Y-51109355D01*
X122971223Y-51109352D01*
X122852352Y-50990481D01*
X122852351Y-50990480D01*
X122765539Y-50940360D01*
X122765539Y-50940359D01*
X122765535Y-50940358D01*
X122715420Y-50911423D01*
X122562692Y-50870499D01*
X122404578Y-50870499D01*
X122396982Y-50870499D01*
X122396966Y-50870500D01*
X118768940Y-50870500D01*
X118728019Y-50881464D01*
X118728019Y-50881465D01*
X118690751Y-50891451D01*
X118616214Y-50911423D01*
X118616209Y-50911426D01*
X118479290Y-50990475D01*
X118479282Y-50990481D01*
X118367478Y-51102286D01*
X117790705Y-51679058D01*
X117729382Y-51712543D01*
X117670931Y-51711152D01*
X117574697Y-51685366D01*
X117574693Y-51685365D01*
X117574692Y-51685365D01*
X117574691Y-51685364D01*
X117574686Y-51685364D01*
X117348002Y-51665532D01*
X117347998Y-51665532D01*
X117121313Y-51685364D01*
X117121302Y-51685366D01*
X116901511Y-51744258D01*
X116901502Y-51744261D01*
X116695267Y-51840431D01*
X116695265Y-51840432D01*
X116508858Y-51970954D01*
X116347954Y-52131858D01*
X116217432Y-52318265D01*
X116217431Y-52318267D01*
X116190382Y-52376275D01*
X116144209Y-52428714D01*
X116077016Y-52447866D01*
X116010135Y-52427650D01*
X115965618Y-52376275D01*
X115938568Y-52318266D01*
X115808047Y-52131861D01*
X115808045Y-52131858D01*
X115647141Y-51970954D01*
X115460734Y-51840432D01*
X115460732Y-51840431D01*
X115254497Y-51744261D01*
X115254488Y-51744258D01*
X115034697Y-51685366D01*
X115034693Y-51685365D01*
X115034692Y-51685365D01*
X115034691Y-51685364D01*
X115034686Y-51685364D01*
X114808002Y-51665532D01*
X114807998Y-51665532D01*
X114581313Y-51685364D01*
X114581302Y-51685366D01*
X114485067Y-51711152D01*
X114415217Y-51709489D01*
X114365293Y-51679058D01*
X114195590Y-51509355D01*
X114195588Y-51509352D01*
X114076717Y-51390481D01*
X114076716Y-51390480D01*
X113989904Y-51340360D01*
X113989904Y-51340359D01*
X113989900Y-51340358D01*
X113939785Y-51311423D01*
X113787057Y-51270499D01*
X113628943Y-51270499D01*
X113621347Y-51270499D01*
X113621331Y-51270500D01*
X112058321Y-51270500D01*
X113405438Y-44983952D01*
X166632995Y-44950504D01*
X166646957Y-44951284D01*
G37*
%TD.AperFunction*%
%TA.AperFunction,Conductor*%
G36*
X128845865Y-68754348D02*
G01*
X128890382Y-68805725D01*
X128917429Y-68863728D01*
X128917432Y-68863734D01*
X129047954Y-69050141D01*
X129208858Y-69211045D01*
X129208861Y-69211047D01*
X129394624Y-69341118D01*
X129438248Y-69395693D01*
X129447500Y-69442692D01*
X129447500Y-76494330D01*
X129447499Y-76494348D01*
X129447499Y-76660054D01*
X129447498Y-76660054D01*
X129488423Y-76812785D01*
X129517358Y-76862900D01*
X129517359Y-76862904D01*
X129517360Y-76862904D01*
X129567479Y-76949714D01*
X129567481Y-76949717D01*
X129686349Y-77068585D01*
X129686355Y-77068590D01*
X131689197Y-79071432D01*
X131722682Y-79132755D01*
X131718558Y-79200067D01*
X131675632Y-79322742D01*
X131675630Y-79322750D01*
X131655435Y-79501996D01*
X131655435Y-79502003D01*
X131675630Y-79681249D01*
X131675631Y-79681254D01*
X131735211Y-79851523D01*
X131826656Y-79997055D01*
X131831184Y-80004262D01*
X131958738Y-80131816D01*
X132021888Y-80171496D01*
X132094730Y-80217266D01*
X132111478Y-80227789D01*
X132190095Y-80255298D01*
X132281744Y-80287368D01*
X132283679Y-80287585D01*
X132293378Y-80288678D01*
X132357793Y-80315741D01*
X132397351Y-80373334D01*
X132403500Y-80411899D01*
X132403500Y-90932000D01*
X129032000Y-90932000D01*
X128988530Y-93931427D01*
X128988528Y-93931426D01*
X128988529Y-93931426D01*
X126673094Y-93923847D01*
X126606119Y-93903943D01*
X126560538Y-93850990D01*
X126549500Y-93799848D01*
X126549500Y-80346258D01*
X126549499Y-80346251D01*
X126540306Y-80311942D01*
X126508577Y-80193529D01*
X126469569Y-80125966D01*
X126469569Y-80125965D01*
X126429522Y-80056601D01*
X126429521Y-80056600D01*
X126429520Y-80056598D01*
X126317716Y-79944794D01*
X126317715Y-79944793D01*
X126313385Y-79940463D01*
X126313374Y-79940453D01*
X125877819Y-79504898D01*
X125844334Y-79443575D01*
X125841500Y-79417217D01*
X125841500Y-78476097D01*
X125861185Y-78409058D01*
X125913989Y-78363303D01*
X125983147Y-78353359D01*
X126046703Y-78382384D01*
X126053181Y-78388416D01*
X127658139Y-79993374D01*
X127658149Y-79993385D01*
X127662479Y-79997715D01*
X127662480Y-79997716D01*
X127774284Y-80109520D01*
X127774286Y-80109521D01*
X127774290Y-80109524D01*
X127911209Y-80188573D01*
X127911216Y-80188577D01*
X128018285Y-80217266D01*
X128018284Y-80217266D01*
X128030518Y-80220543D01*
X128063942Y-80229500D01*
X128063943Y-80229500D01*
X129211588Y-80229500D01*
X129278627Y-80249185D01*
X129288903Y-80256555D01*
X129291736Y-80258814D01*
X129291738Y-80258816D01*
X129444478Y-80354789D01*
X129569454Y-80398520D01*
X129614745Y-80414368D01*
X129614750Y-80414369D01*
X129793996Y-80434565D01*
X129794000Y-80434565D01*
X129794004Y-80434565D01*
X129973249Y-80414369D01*
X129973252Y-80414368D01*
X129973255Y-80414368D01*
X130143522Y-80354789D01*
X130296262Y-80258816D01*
X130423816Y-80131262D01*
X130519789Y-79978522D01*
X130579368Y-79808255D01*
X130579854Y-79803943D01*
X130599565Y-79629003D01*
X130599565Y-79628996D01*
X130579369Y-79449750D01*
X130579368Y-79449745D01*
X130571904Y-79428415D01*
X130519789Y-79279478D01*
X130492291Y-79235716D01*
X130469892Y-79200067D01*
X130423816Y-79126738D01*
X130296262Y-78999184D01*
X130213567Y-78947223D01*
X130143523Y-78903211D01*
X129973254Y-78843631D01*
X129973249Y-78843630D01*
X129794004Y-78823435D01*
X129793996Y-78823435D01*
X129614750Y-78843630D01*
X129614745Y-78843631D01*
X129444476Y-78903211D01*
X129291736Y-78999185D01*
X129288903Y-79001445D01*
X129286724Y-79002334D01*
X129285842Y-79002889D01*
X129285744Y-79002734D01*
X129224217Y-79027855D01*
X129211588Y-79028500D01*
X128443097Y-79028500D01*
X128376058Y-79008815D01*
X128355416Y-78992181D01*
X126851705Y-77488470D01*
X126818220Y-77427147D01*
X126823204Y-77357455D01*
X126851705Y-77313108D01*
X126852871Y-77311942D01*
X126870816Y-77293997D01*
X126966789Y-77141257D01*
X127026368Y-76970990D01*
X127036161Y-76884064D01*
X127063226Y-76819653D01*
X127071690Y-76810278D01*
X128199820Y-75682148D01*
X128233705Y-75658108D01*
X128238510Y-75655792D01*
X128238522Y-75655789D01*
X128391262Y-75559816D01*
X128518816Y-75432262D01*
X128614789Y-75279522D01*
X128674368Y-75109255D01*
X128676276Y-75092324D01*
X128694565Y-74930003D01*
X128694565Y-74929996D01*
X128674369Y-74750750D01*
X128674368Y-74750745D01*
X128671218Y-74741743D01*
X128614789Y-74580478D01*
X128518816Y-74427738D01*
X128391262Y-74300184D01*
X128376939Y-74291184D01*
X128238523Y-74204211D01*
X128068254Y-74144631D01*
X128068249Y-74144630D01*
X127889004Y-74124435D01*
X127888996Y-74124435D01*
X127709750Y-74144630D01*
X127709745Y-74144631D01*
X127539476Y-74204211D01*
X127386737Y-74300184D01*
X127259184Y-74427737D01*
X127163211Y-74580476D01*
X127103631Y-74750745D01*
X127103630Y-74750750D01*
X127083435Y-74929996D01*
X127083435Y-74930001D01*
X127093970Y-75023502D01*
X127081916Y-75092324D01*
X127058431Y-75125067D01*
X126453181Y-75730318D01*
X126391858Y-75763803D01*
X126322167Y-75758819D01*
X126266233Y-75716948D01*
X126241816Y-75651483D01*
X126241500Y-75642637D01*
X126241500Y-70378096D01*
X126261185Y-70311057D01*
X126277815Y-70290419D01*
X127065294Y-69502939D01*
X127126615Y-69469456D01*
X127185066Y-69470847D01*
X127190646Y-69472342D01*
X127281308Y-69496635D01*
X127423361Y-69509063D01*
X127507998Y-69516468D01*
X127508000Y-69516468D01*
X127508002Y-69516468D01*
X127570511Y-69510999D01*
X127734692Y-69496635D01*
X127954496Y-69437739D01*
X128160734Y-69341568D01*
X128347139Y-69211047D01*
X128508047Y-69050139D01*
X128638568Y-68863734D01*
X128665618Y-68805724D01*
X128711790Y-68753285D01*
X128778983Y-68734133D01*
X128845865Y-68754348D01*
G37*
%TD.AperFunction*%
%TA.AperFunction,Conductor*%
G36*
X147109703Y-84963708D02*
G01*
X147147477Y-85022486D01*
X147151720Y-85043538D01*
X147159630Y-85113749D01*
X147159631Y-85113754D01*
X147219211Y-85284023D01*
X147315184Y-85436762D01*
X147445181Y-85566759D01*
X147478666Y-85628082D01*
X147481500Y-85654440D01*
X147481500Y-90932000D01*
X143089235Y-90932000D01*
X146784520Y-87236716D01*
X146863577Y-87099784D01*
X146904501Y-86947057D01*
X146904501Y-86788942D01*
X146904501Y-86781347D01*
X146904500Y-86781329D01*
X146904500Y-85057421D01*
X146924185Y-84990382D01*
X146976989Y-84944627D01*
X147046147Y-84934683D01*
X147109703Y-84963708D01*
G37*
%TD.AperFunction*%
%TA.AperFunction,Conductor*%
G36*
X119370380Y-65609827D02*
G01*
X119403865Y-65671150D01*
X119405552Y-65686843D01*
X119405638Y-65686832D01*
X119406698Y-65694889D01*
X119447624Y-65847624D01*
X119447625Y-65847625D01*
X119472947Y-65891483D01*
X119472948Y-65891485D01*
X119526675Y-65984544D01*
X119526681Y-65984552D01*
X119645549Y-66103420D01*
X119645555Y-66103425D01*
X120269399Y-66727269D01*
X120302884Y-66788592D01*
X120297900Y-66858284D01*
X120256028Y-66914217D01*
X120190564Y-66938634D01*
X120149625Y-66934725D01*
X120114697Y-66925366D01*
X120114693Y-66925365D01*
X120114692Y-66925365D01*
X120114691Y-66925364D01*
X120114686Y-66925364D01*
X119888002Y-66905532D01*
X119887998Y-66905532D01*
X119661313Y-66925364D01*
X119661302Y-66925366D01*
X119441511Y-66984258D01*
X119441502Y-66984261D01*
X119235267Y-67080431D01*
X119235265Y-67080432D01*
X119048858Y-67210954D01*
X118887954Y-67371858D01*
X118757432Y-67558265D01*
X118757431Y-67558267D01*
X118730382Y-67616275D01*
X118684209Y-67668714D01*
X118617016Y-67687866D01*
X118550135Y-67667650D01*
X118505618Y-67616275D01*
X118478568Y-67558267D01*
X118478567Y-67558265D01*
X118348045Y-67371858D01*
X118187141Y-67210954D01*
X118000734Y-67080432D01*
X118000732Y-67080431D01*
X117794497Y-66984261D01*
X117794488Y-66984258D01*
X117574697Y-66925366D01*
X117574693Y-66925365D01*
X117574692Y-66925365D01*
X117574691Y-66925364D01*
X117574686Y-66925364D01*
X117348002Y-66905532D01*
X117348000Y-66905532D01*
X117344421Y-66905845D01*
X117335319Y-66906641D01*
X117266819Y-66892871D01*
X117216639Y-66844253D01*
X117200708Y-66776224D01*
X117224087Y-66710381D01*
X117236824Y-66695444D01*
X117680706Y-66251562D01*
X117742025Y-66218080D01*
X117811717Y-66223064D01*
X117839506Y-66237671D01*
X117914712Y-66290331D01*
X117914716Y-66290333D01*
X118120873Y-66386465D01*
X118120882Y-66386469D01*
X118340589Y-66445339D01*
X118340600Y-66445341D01*
X118567198Y-66465166D01*
X118567202Y-66465166D01*
X118793799Y-66445341D01*
X118793810Y-66445339D01*
X119013517Y-66386469D01*
X119013531Y-66386464D01*
X119219678Y-66290336D01*
X119292671Y-66239224D01*
X118737434Y-65683987D01*
X118779492Y-65672718D01*
X118904908Y-65600310D01*
X119007310Y-65497908D01*
X119079718Y-65372492D01*
X119090987Y-65330434D01*
X119370380Y-65609827D01*
G37*
%TD.AperFunction*%
%TA.AperFunction,Conductor*%
G36*
X141287024Y-53696471D02*
G01*
X141338133Y-53623482D01*
X141365341Y-53565135D01*
X141411513Y-53512696D01*
X141478707Y-53493543D01*
X141545588Y-53513758D01*
X141590105Y-53565132D01*
X141617432Y-53623734D01*
X141617433Y-53623735D01*
X141747954Y-53810141D01*
X141908858Y-53971045D01*
X141920041Y-53978875D01*
X142095266Y-54101568D01*
X142301504Y-54197739D01*
X142301509Y-54197740D01*
X142301511Y-54197741D01*
X142354415Y-54211916D01*
X142521308Y-54256635D01*
X142683230Y-54270801D01*
X142747998Y-54276468D01*
X142748000Y-54276468D01*
X142748002Y-54276468D01*
X142804673Y-54271509D01*
X142974692Y-54256635D01*
X143194496Y-54197739D01*
X143400734Y-54101568D01*
X143587139Y-53971047D01*
X143748047Y-53810139D01*
X143878568Y-53623734D01*
X143905618Y-53565724D01*
X143951790Y-53513285D01*
X144018983Y-53494133D01*
X144085865Y-53514348D01*
X144130382Y-53565725D01*
X144157429Y-53623728D01*
X144157432Y-53623734D01*
X144287954Y-53810141D01*
X144448858Y-53971045D01*
X144460041Y-53978875D01*
X144635266Y-54101568D01*
X144841504Y-54197739D01*
X144841509Y-54197740D01*
X144841511Y-54197741D01*
X144894415Y-54211916D01*
X145061308Y-54256635D01*
X145223230Y-54270801D01*
X145287998Y-54276468D01*
X145288000Y-54276468D01*
X145288002Y-54276468D01*
X145344673Y-54271509D01*
X145514692Y-54256635D01*
X145734496Y-54197739D01*
X145940734Y-54101568D01*
X146127139Y-53971047D01*
X146288047Y-53810139D01*
X146418568Y-53623734D01*
X146445618Y-53565724D01*
X146491790Y-53513285D01*
X146558983Y-53494133D01*
X146625865Y-53514348D01*
X146670382Y-53565725D01*
X146697429Y-53623728D01*
X146697432Y-53623734D01*
X146827954Y-53810141D01*
X146988858Y-53971045D01*
X147000041Y-53978875D01*
X147175266Y-54101568D01*
X147381504Y-54197739D01*
X147381509Y-54197740D01*
X147381511Y-54197741D01*
X147434415Y-54211916D01*
X147601308Y-54256635D01*
X147763230Y-54270801D01*
X147827998Y-54276468D01*
X147828000Y-54276468D01*
X147828002Y-54276468D01*
X147884673Y-54271509D01*
X148054692Y-54256635D01*
X148274496Y-54197739D01*
X148480734Y-54101568D01*
X148480746Y-54101559D01*
X148481492Y-54101130D01*
X148481868Y-54101038D01*
X148485640Y-54099280D01*
X148485993Y-54100037D01*
X148549391Y-54084652D01*
X148615419Y-54107499D01*
X148658614Y-54162417D01*
X148667500Y-54208512D01*
X148667500Y-66973487D01*
X148647815Y-67040526D01*
X148595011Y-67086281D01*
X148525853Y-67096225D01*
X148485805Y-67082365D01*
X148485640Y-67082720D01*
X148482216Y-67081123D01*
X148481507Y-67080878D01*
X148480738Y-67080434D01*
X148469284Y-67075093D01*
X148423641Y-67053809D01*
X148274497Y-66984261D01*
X148274488Y-66984258D01*
X148054697Y-66925366D01*
X148054693Y-66925365D01*
X148054692Y-66925365D01*
X148054691Y-66925364D01*
X148054686Y-66925364D01*
X147828002Y-66905532D01*
X147827998Y-66905532D01*
X147601313Y-66925364D01*
X147601302Y-66925366D01*
X147381511Y-66984258D01*
X147381502Y-66984261D01*
X147175267Y-67080431D01*
X147175265Y-67080432D01*
X146988858Y-67210954D01*
X146827954Y-67371858D01*
X146697432Y-67558265D01*
X146697431Y-67558267D01*
X146670382Y-67616275D01*
X146624209Y-67668714D01*
X146557016Y-67687866D01*
X146490135Y-67667650D01*
X146445618Y-67616275D01*
X146418568Y-67558267D01*
X146418567Y-67558265D01*
X146288045Y-67371858D01*
X146127141Y-67210954D01*
X145940734Y-67080432D01*
X145940732Y-67080431D01*
X145734497Y-66984261D01*
X145734488Y-66984258D01*
X145514697Y-66925366D01*
X145514693Y-66925365D01*
X145514692Y-66925365D01*
X145514691Y-66925364D01*
X145514686Y-66925364D01*
X145288002Y-66905532D01*
X145287998Y-66905532D01*
X145061313Y-66925364D01*
X145061302Y-66925366D01*
X144841511Y-66984258D01*
X144841502Y-66984261D01*
X144635267Y-67080431D01*
X144635265Y-67080432D01*
X144448858Y-67210954D01*
X144287954Y-67371858D01*
X144157432Y-67558265D01*
X144157431Y-67558267D01*
X144130382Y-67616275D01*
X144084209Y-67668714D01*
X144017016Y-67687866D01*
X143950135Y-67667650D01*
X143905618Y-67616275D01*
X143878568Y-67558267D01*
X143878567Y-67558265D01*
X143748045Y-67371858D01*
X143587141Y-67210954D01*
X143400734Y-67080432D01*
X143400732Y-67080431D01*
X143194497Y-66984261D01*
X143194488Y-66984258D01*
X142974697Y-66925366D01*
X142974693Y-66925365D01*
X142974692Y-66925365D01*
X142974691Y-66925364D01*
X142974686Y-66925364D01*
X142748002Y-66905532D01*
X142747998Y-66905532D01*
X142521313Y-66925364D01*
X142521302Y-66925366D01*
X142301511Y-66984258D01*
X142301502Y-66984261D01*
X142095267Y-67080431D01*
X142095265Y-67080432D01*
X141908858Y-67210954D01*
X141747954Y-67371858D01*
X141617432Y-67558265D01*
X141617431Y-67558267D01*
X141590382Y-67616275D01*
X141544209Y-67668714D01*
X141477016Y-67687866D01*
X141410135Y-67667650D01*
X141365618Y-67616275D01*
X141338568Y-67558267D01*
X141338567Y-67558265D01*
X141208045Y-67371858D01*
X141047141Y-67210954D01*
X140860734Y-67080432D01*
X140860732Y-67080431D01*
X140654497Y-66984261D01*
X140654488Y-66984258D01*
X140434697Y-66925366D01*
X140434693Y-66925365D01*
X140434692Y-66925365D01*
X140434691Y-66925364D01*
X140434686Y-66925364D01*
X140208002Y-66905532D01*
X140207998Y-66905532D01*
X139981313Y-66925364D01*
X139981302Y-66925366D01*
X139761511Y-66984258D01*
X139761502Y-66984261D01*
X139555267Y-67080431D01*
X139555265Y-67080432D01*
X139368858Y-67210954D01*
X139207954Y-67371858D01*
X139077432Y-67558265D01*
X139077431Y-67558267D01*
X139050382Y-67616275D01*
X139004209Y-67668714D01*
X138937016Y-67687866D01*
X138870135Y-67667650D01*
X138825618Y-67616275D01*
X138798568Y-67558267D01*
X138798567Y-67558265D01*
X138668045Y-67371858D01*
X138507141Y-67210954D01*
X138320734Y-67080432D01*
X138320732Y-67080431D01*
X138114497Y-66984261D01*
X138114488Y-66984258D01*
X137894697Y-66925366D01*
X137894693Y-66925365D01*
X137894692Y-66925365D01*
X137894691Y-66925364D01*
X137894686Y-66925364D01*
X137668002Y-66905532D01*
X137667998Y-66905532D01*
X137441313Y-66925364D01*
X137441302Y-66925366D01*
X137345067Y-66951152D01*
X137275217Y-66949489D01*
X137225293Y-66919058D01*
X137055590Y-66749355D01*
X137055588Y-66749352D01*
X136936717Y-66630481D01*
X136936716Y-66630480D01*
X136849904Y-66580360D01*
X136849904Y-66580359D01*
X136849900Y-66580358D01*
X136799785Y-66551423D01*
X136647057Y-66510499D01*
X136488943Y-66510499D01*
X136481347Y-66510499D01*
X136481331Y-66510500D01*
X134759035Y-66510500D01*
X134759019Y-66510499D01*
X134751423Y-66510499D01*
X134593308Y-66510499D01*
X134516944Y-66530961D01*
X134440579Y-66551423D01*
X134440574Y-66551426D01*
X134303655Y-66630475D01*
X134303647Y-66630481D01*
X133662838Y-67271290D01*
X133601515Y-67304775D01*
X133531823Y-67299791D01*
X133487477Y-67271291D01*
X133427139Y-67210953D01*
X133427138Y-67210952D01*
X133427137Y-67210951D01*
X133240734Y-67080432D01*
X133240732Y-67080431D01*
X133034497Y-66984261D01*
X133034488Y-66984258D01*
X132814697Y-66925366D01*
X132814693Y-66925365D01*
X132814692Y-66925365D01*
X132814691Y-66925364D01*
X132814686Y-66925364D01*
X132588002Y-66905532D01*
X132587998Y-66905532D01*
X132361313Y-66925364D01*
X132361302Y-66925366D01*
X132141511Y-66984258D01*
X132141502Y-66984261D01*
X131935267Y-67080431D01*
X131935265Y-67080432D01*
X131748858Y-67210954D01*
X131587954Y-67371858D01*
X131457432Y-67558265D01*
X131457431Y-67558267D01*
X131430382Y-67616275D01*
X131384209Y-67668714D01*
X131317016Y-67687866D01*
X131250135Y-67667650D01*
X131205618Y-67616275D01*
X131178568Y-67558267D01*
X131178567Y-67558265D01*
X131048045Y-67371858D01*
X130887141Y-67210954D01*
X130700734Y-67080432D01*
X130700732Y-67080431D01*
X130494497Y-66984261D01*
X130494488Y-66984258D01*
X130274697Y-66925366D01*
X130274693Y-66925365D01*
X130274692Y-66925365D01*
X130274691Y-66925364D01*
X130274686Y-66925364D01*
X130048002Y-66905532D01*
X130047998Y-66905532D01*
X129821313Y-66925364D01*
X129821302Y-66925366D01*
X129601511Y-66984258D01*
X129601502Y-66984261D01*
X129395267Y-67080431D01*
X129395265Y-67080432D01*
X129208858Y-67210954D01*
X129047954Y-67371858D01*
X128917432Y-67558265D01*
X128917431Y-67558267D01*
X128890382Y-67616275D01*
X128844209Y-67668714D01*
X128777016Y-67687866D01*
X128710135Y-67667650D01*
X128665618Y-67616275D01*
X128638568Y-67558267D01*
X128638567Y-67558265D01*
X128508045Y-67371858D01*
X128347141Y-67210954D01*
X128160734Y-67080432D01*
X128160732Y-67080431D01*
X127954497Y-66984261D01*
X127954488Y-66984258D01*
X127734697Y-66925366D01*
X127734693Y-66925365D01*
X127734692Y-66925365D01*
X127734691Y-66925364D01*
X127734686Y-66925364D01*
X127508002Y-66905532D01*
X127507998Y-66905532D01*
X127281313Y-66925364D01*
X127281302Y-66925366D01*
X127061511Y-66984258D01*
X127061502Y-66984261D01*
X126855261Y-67080434D01*
X126854493Y-67080878D01*
X126854111Y-67080970D01*
X126850360Y-67082720D01*
X126850008Y-67081965D01*
X126786592Y-67097346D01*
X126720567Y-67074490D01*
X126677380Y-67019566D01*
X126668500Y-66973487D01*
X126668500Y-54208512D01*
X126688185Y-54141473D01*
X126740989Y-54095718D01*
X126810147Y-54085774D01*
X126850193Y-54099636D01*
X126850360Y-54099280D01*
X126853806Y-54100887D01*
X126854508Y-54101130D01*
X126855257Y-54101562D01*
X126855266Y-54101568D01*
X127061504Y-54197739D01*
X127061509Y-54197740D01*
X127061511Y-54197741D01*
X127114415Y-54211916D01*
X127281308Y-54256635D01*
X127443230Y-54270801D01*
X127507998Y-54276468D01*
X127508000Y-54276468D01*
X127508002Y-54276468D01*
X127564673Y-54271509D01*
X127734692Y-54256635D01*
X127954496Y-54197739D01*
X128160734Y-54101568D01*
X128347139Y-53971047D01*
X128508047Y-53810139D01*
X128638568Y-53623734D01*
X128665618Y-53565724D01*
X128711790Y-53513285D01*
X128778983Y-53494133D01*
X128845865Y-53514348D01*
X128890382Y-53565725D01*
X128917429Y-53623728D01*
X128917432Y-53623734D01*
X129047954Y-53810141D01*
X129208858Y-53971045D01*
X129220041Y-53978875D01*
X129395266Y-54101568D01*
X129601504Y-54197739D01*
X129601509Y-54197740D01*
X129601511Y-54197741D01*
X129654415Y-54211916D01*
X129821308Y-54256635D01*
X129983230Y-54270801D01*
X130047998Y-54276468D01*
X130048000Y-54276468D01*
X130048002Y-54276468D01*
X130104673Y-54271509D01*
X130274692Y-54256635D01*
X130494496Y-54197739D01*
X130700734Y-54101568D01*
X130887139Y-53971047D01*
X131048047Y-53810139D01*
X131178568Y-53623734D01*
X131205618Y-53565724D01*
X131251790Y-53513285D01*
X131318983Y-53494133D01*
X131385865Y-53514348D01*
X131430382Y-53565725D01*
X131457429Y-53623728D01*
X131457432Y-53623734D01*
X131587954Y-53810141D01*
X131748858Y-53971045D01*
X131760041Y-53978875D01*
X131935266Y-54101568D01*
X132141504Y-54197739D01*
X132141509Y-54197740D01*
X132141511Y-54197741D01*
X132194415Y-54211916D01*
X132361308Y-54256635D01*
X132523230Y-54270801D01*
X132587998Y-54276468D01*
X132588000Y-54276468D01*
X132588002Y-54276468D01*
X132644673Y-54271509D01*
X132814692Y-54256635D01*
X133034496Y-54197739D01*
X133240734Y-54101568D01*
X133427139Y-53971047D01*
X133588047Y-53810139D01*
X133718568Y-53623734D01*
X133745618Y-53565724D01*
X133791790Y-53513285D01*
X133858983Y-53494133D01*
X133925865Y-53514348D01*
X133970382Y-53565725D01*
X133997429Y-53623728D01*
X133997432Y-53623734D01*
X134127954Y-53810141D01*
X134288858Y-53971045D01*
X134300041Y-53978875D01*
X134475266Y-54101568D01*
X134681504Y-54197739D01*
X134681509Y-54197740D01*
X134681511Y-54197741D01*
X134734415Y-54211916D01*
X134901308Y-54256635D01*
X135063230Y-54270801D01*
X135127998Y-54276468D01*
X135128000Y-54276468D01*
X135128002Y-54276468D01*
X135184673Y-54271509D01*
X135354692Y-54256635D01*
X135574496Y-54197739D01*
X135780734Y-54101568D01*
X135967139Y-53971047D01*
X136128047Y-53810139D01*
X136258568Y-53623734D01*
X136285618Y-53565724D01*
X136331790Y-53513285D01*
X136398983Y-53494133D01*
X136465865Y-53514348D01*
X136510382Y-53565725D01*
X136537429Y-53623728D01*
X136537432Y-53623734D01*
X136667954Y-53810141D01*
X136828858Y-53971045D01*
X136840041Y-53978875D01*
X137015266Y-54101568D01*
X137221504Y-54197739D01*
X137221509Y-54197740D01*
X137221511Y-54197741D01*
X137274415Y-54211916D01*
X137441308Y-54256635D01*
X137603230Y-54270801D01*
X137667998Y-54276468D01*
X137668000Y-54276468D01*
X137668002Y-54276468D01*
X137724673Y-54271509D01*
X137894692Y-54256635D01*
X138114496Y-54197739D01*
X138320734Y-54101568D01*
X138507139Y-53971047D01*
X138668047Y-53810139D01*
X138798568Y-53623734D01*
X138825893Y-53565134D01*
X138872065Y-53512695D01*
X138939258Y-53493543D01*
X139006139Y-53513758D01*
X139050657Y-53565134D01*
X139077864Y-53623480D01*
X139128974Y-53696472D01*
X139684212Y-53141234D01*
X139695482Y-53183292D01*
X139767890Y-53308708D01*
X139870292Y-53411110D01*
X139995708Y-53483518D01*
X140037765Y-53494787D01*
X139482526Y-54050025D01*
X139555513Y-54101132D01*
X139555521Y-54101136D01*
X139761668Y-54197264D01*
X139761682Y-54197269D01*
X139981389Y-54256139D01*
X139981400Y-54256141D01*
X140207998Y-54275966D01*
X140208002Y-54275966D01*
X140434599Y-54256141D01*
X140434610Y-54256139D01*
X140654317Y-54197269D01*
X140654331Y-54197264D01*
X140860478Y-54101136D01*
X140933471Y-54050024D01*
X140378234Y-53494787D01*
X140420292Y-53483518D01*
X140545708Y-53411110D01*
X140648110Y-53308708D01*
X140720518Y-53183292D01*
X140731787Y-53141234D01*
X141287024Y-53696471D01*
G37*
%TD.AperFunction*%
%TA.AperFunction,Conductor*%
G36*
X109246700Y-66173530D02*
G01*
X109246699Y-66173548D01*
X109246699Y-66339254D01*
X109246698Y-66339254D01*
X109279240Y-66460699D01*
X109287623Y-66491985D01*
X109316133Y-66541365D01*
X109316558Y-66542100D01*
X109316559Y-66542104D01*
X109316560Y-66542104D01*
X109366679Y-66628914D01*
X109366681Y-66628917D01*
X109477063Y-66739299D01*
X109510548Y-66800622D01*
X109505564Y-66870314D01*
X109463692Y-66926247D01*
X109421476Y-66946755D01*
X109281509Y-66984259D01*
X109281502Y-66984261D01*
X109075267Y-67080431D01*
X109075265Y-67080432D01*
X108888858Y-67210954D01*
X108727954Y-67371858D01*
X108597432Y-67558265D01*
X108597431Y-67558267D01*
X108570382Y-67616275D01*
X108550918Y-67638379D01*
X109246700Y-64391400D01*
X109246700Y-66173530D01*
G37*
%TD.AperFunction*%
%TA.AperFunction,Conductor*%
G36*
X121225865Y-53514348D02*
G01*
X121270382Y-53565725D01*
X121297429Y-53623728D01*
X121297432Y-53623734D01*
X121427954Y-53810141D01*
X121588858Y-53971045D01*
X121600041Y-53978875D01*
X121775266Y-54101568D01*
X121981504Y-54197739D01*
X121981509Y-54197740D01*
X121981511Y-54197741D01*
X122034415Y-54211916D01*
X122201308Y-54256635D01*
X122363230Y-54270801D01*
X122427998Y-54276468D01*
X122428000Y-54276468D01*
X122428002Y-54276468D01*
X122484673Y-54271509D01*
X122654692Y-54256635D01*
X122771408Y-54225361D01*
X122841256Y-54227024D01*
X122899119Y-54266186D01*
X122926623Y-54330415D01*
X122927500Y-54345136D01*
X122927500Y-66836863D01*
X122907815Y-66903902D01*
X122855011Y-66949657D01*
X122785853Y-66959601D01*
X122771407Y-66956638D01*
X122654697Y-66925366D01*
X122654693Y-66925365D01*
X122654692Y-66925365D01*
X122654691Y-66925364D01*
X122654686Y-66925364D01*
X122428002Y-66905532D01*
X122427998Y-66905532D01*
X122201313Y-66925364D01*
X122201302Y-66925366D01*
X121981511Y-66984258D01*
X121981502Y-66984261D01*
X121775261Y-67080434D01*
X121774493Y-67080878D01*
X121774111Y-67080970D01*
X121770360Y-67082720D01*
X121770008Y-67081965D01*
X121706592Y-67097346D01*
X121640567Y-67074490D01*
X121597380Y-67019566D01*
X121588500Y-66973487D01*
X121588500Y-66685695D01*
X121588501Y-66685682D01*
X121588501Y-66517580D01*
X121588501Y-66517578D01*
X121580316Y-66487032D01*
X121581979Y-66417185D01*
X121621141Y-66359322D01*
X121647687Y-66342557D01*
X121759682Y-66290333D01*
X121832671Y-66239224D01*
X121277434Y-65683987D01*
X121319492Y-65672718D01*
X121444908Y-65600310D01*
X121547310Y-65497908D01*
X121619718Y-65372492D01*
X121630987Y-65330434D01*
X122186224Y-65885671D01*
X122237336Y-65812678D01*
X122333464Y-65606531D01*
X122333469Y-65606517D01*
X122392339Y-65386810D01*
X122392341Y-65386799D01*
X122412166Y-65160202D01*
X122412166Y-65160197D01*
X122392341Y-64933600D01*
X122392339Y-64933589D01*
X122333469Y-64713882D01*
X122333464Y-64713868D01*
X122237336Y-64507721D01*
X122237332Y-64507713D01*
X122186225Y-64434726D01*
X121630987Y-64989964D01*
X121619718Y-64947908D01*
X121547310Y-64822492D01*
X121444908Y-64720090D01*
X121319492Y-64647682D01*
X121277434Y-64636412D01*
X121832672Y-64081174D01*
X121759678Y-64030063D01*
X121553531Y-63933935D01*
X121553517Y-63933930D01*
X121333810Y-63875060D01*
X121333799Y-63875058D01*
X121107202Y-63855234D01*
X121107198Y-63855234D01*
X120880600Y-63875058D01*
X120880589Y-63875060D01*
X120763793Y-63906355D01*
X120693943Y-63904692D01*
X120636080Y-63865529D01*
X120608577Y-63801300D01*
X120607700Y-63786580D01*
X120607700Y-61231163D01*
X120607701Y-61231150D01*
X120607701Y-61063048D01*
X120607701Y-61063046D01*
X120566777Y-60910318D01*
X120487720Y-60773387D01*
X120259162Y-60544829D01*
X120225677Y-60483506D01*
X120230661Y-60413814D01*
X120272533Y-60357881D01*
X120281557Y-60351726D01*
X120314302Y-60331452D01*
X120471872Y-60187807D01*
X120600366Y-60017655D01*
X120695405Y-59826789D01*
X120753756Y-59621710D01*
X120773429Y-59409400D01*
X120753756Y-59197090D01*
X120695405Y-58992011D01*
X120695403Y-58992006D01*
X120695403Y-58992005D01*
X120600367Y-58801146D01*
X120471872Y-58630993D01*
X120314299Y-58487345D01*
X120295670Y-58475811D01*
X120249035Y-58423783D01*
X120243090Y-58388042D01*
X119664448Y-57809400D01*
X119670661Y-57809400D01*
X119772394Y-57782141D01*
X119863606Y-57729480D01*
X119938080Y-57655006D01*
X119990741Y-57563794D01*
X120018000Y-57462061D01*
X120018000Y-57455847D01*
X120591162Y-58029009D01*
X120591163Y-58029009D01*
X120599940Y-58017388D01*
X120599942Y-58017385D01*
X120694933Y-57826616D01*
X120694941Y-57826596D01*
X120753261Y-57621619D01*
X120753262Y-57621616D01*
X120772927Y-57409400D01*
X120772927Y-57409399D01*
X120753262Y-57197183D01*
X120753261Y-57197180D01*
X120694941Y-56992203D01*
X120694933Y-56992183D01*
X120599942Y-56801414D01*
X120599937Y-56801406D01*
X120591163Y-56789789D01*
X120018000Y-57362952D01*
X120018000Y-57356739D01*
X119990741Y-57255006D01*
X119938080Y-57163794D01*
X119863606Y-57089320D01*
X119772394Y-57036659D01*
X119670661Y-57009400D01*
X119664447Y-57009400D01*
X120243298Y-56430548D01*
X120249601Y-56393846D01*
X120295674Y-56342986D01*
X120314302Y-56331452D01*
X120471872Y-56187807D01*
X120600366Y-56017655D01*
X120695405Y-55826789D01*
X120753756Y-55621710D01*
X120773429Y-55409400D01*
X120753756Y-55197090D01*
X120695405Y-54992011D01*
X120695403Y-54992006D01*
X120695403Y-54992005D01*
X120600367Y-54801146D01*
X120471872Y-54630993D01*
X120314302Y-54487348D01*
X120237775Y-54439964D01*
X120191141Y-54387937D01*
X120180037Y-54318955D01*
X120207990Y-54254921D01*
X120266126Y-54216164D01*
X120270961Y-54214763D01*
X120326345Y-54199923D01*
X120334496Y-54197739D01*
X120540734Y-54101568D01*
X120727139Y-53971047D01*
X120888047Y-53810139D01*
X121018568Y-53623734D01*
X121045618Y-53565724D01*
X121091790Y-53513285D01*
X121158983Y-53494133D01*
X121225865Y-53514348D01*
G37*
%TD.AperFunction*%
%TD*%
%TA.AperFunction,Conductor*%
%TO.N,GNDA*%
G36*
X112058321Y-51270500D02*
G01*
X111899035Y-51270500D01*
X111899019Y-51270499D01*
X111891423Y-51270499D01*
X111733308Y-51270499D01*
X111656944Y-51290961D01*
X111580579Y-51311423D01*
X111580574Y-51311426D01*
X111443655Y-51390475D01*
X111443647Y-51390481D01*
X110802838Y-52031290D01*
X110741515Y-52064775D01*
X110671823Y-52059791D01*
X110627477Y-52031291D01*
X110567139Y-51970953D01*
X110567138Y-51970952D01*
X110567137Y-51970951D01*
X110380734Y-51840432D01*
X110380732Y-51840431D01*
X110174497Y-51744261D01*
X110174488Y-51744258D01*
X109954697Y-51685366D01*
X109954693Y-51685365D01*
X109954692Y-51685365D01*
X109954691Y-51685364D01*
X109954686Y-51685364D01*
X109728002Y-51665532D01*
X109727998Y-51665532D01*
X109501313Y-51685364D01*
X109501302Y-51685366D01*
X109281511Y-51744258D01*
X109281502Y-51744261D01*
X109075267Y-51840431D01*
X109075265Y-51840432D01*
X108888858Y-51970954D01*
X108727954Y-52131858D01*
X108597432Y-52318265D01*
X108597428Y-52318272D01*
X108570105Y-52376866D01*
X108523932Y-52429305D01*
X108456738Y-52448456D01*
X108389858Y-52428239D01*
X108345342Y-52376864D01*
X108318136Y-52318521D01*
X108318132Y-52318513D01*
X108267025Y-52245526D01*
X107711787Y-52800764D01*
X107700518Y-52758708D01*
X107628110Y-52633292D01*
X107525708Y-52530890D01*
X107400292Y-52458482D01*
X107358234Y-52447212D01*
X107913472Y-51891974D01*
X107840478Y-51840863D01*
X107634331Y-51744735D01*
X107634317Y-51744730D01*
X107414610Y-51685860D01*
X107414599Y-51685858D01*
X107188002Y-51666034D01*
X107187998Y-51666034D01*
X106961400Y-51685858D01*
X106961389Y-51685860D01*
X106741682Y-51744730D01*
X106741673Y-51744734D01*
X106535516Y-51840866D01*
X106535512Y-51840868D01*
X106462526Y-51891973D01*
X106462526Y-51891974D01*
X107017765Y-52447212D01*
X106975708Y-52458482D01*
X106850292Y-52530890D01*
X106747890Y-52633292D01*
X106675482Y-52758708D01*
X106664212Y-52800764D01*
X106108974Y-52245526D01*
X106108973Y-52245526D01*
X106057868Y-52318512D01*
X106057868Y-52318513D01*
X106030657Y-52376867D01*
X105984484Y-52429306D01*
X105917290Y-52448457D01*
X105850409Y-52428241D01*
X105805893Y-52376865D01*
X105778682Y-52318512D01*
X105778568Y-52318266D01*
X105648047Y-52131861D01*
X105648045Y-52131858D01*
X105487141Y-51970954D01*
X105300734Y-51840432D01*
X105300732Y-51840431D01*
X105094497Y-51744261D01*
X105094488Y-51744258D01*
X104874697Y-51685366D01*
X104874693Y-51685365D01*
X104874692Y-51685365D01*
X104874691Y-51685364D01*
X104874686Y-51685364D01*
X104648002Y-51665532D01*
X104647998Y-51665532D01*
X104421313Y-51685364D01*
X104421302Y-51685366D01*
X104201511Y-51744258D01*
X104201502Y-51744261D01*
X103995267Y-51840431D01*
X103995265Y-51840432D01*
X103808858Y-51970954D01*
X103647954Y-52131858D01*
X103517432Y-52318265D01*
X103517431Y-52318267D01*
X103421261Y-52524502D01*
X103421258Y-52524511D01*
X103362366Y-52744302D01*
X103362364Y-52744313D01*
X103342532Y-52970998D01*
X103342532Y-52971001D01*
X103362364Y-53197686D01*
X103362366Y-53197697D01*
X103421258Y-53417488D01*
X103421261Y-53417497D01*
X103517431Y-53623732D01*
X103517432Y-53623734D01*
X103647954Y-53810141D01*
X103808858Y-53971045D01*
X103808861Y-53971047D01*
X103995266Y-54101568D01*
X104201504Y-54197739D01*
X104201509Y-54197740D01*
X104201511Y-54197741D01*
X104230588Y-54205532D01*
X104421308Y-54256635D01*
X104583230Y-54270801D01*
X104647998Y-54276468D01*
X104648000Y-54276468D01*
X104648002Y-54276468D01*
X104704673Y-54271509D01*
X104874692Y-54256635D01*
X105094496Y-54197739D01*
X105300734Y-54101568D01*
X105487139Y-53971047D01*
X105648047Y-53810139D01*
X105778568Y-53623734D01*
X105805893Y-53565134D01*
X105852065Y-53512695D01*
X105919258Y-53493543D01*
X105986139Y-53513758D01*
X106030657Y-53565134D01*
X106057864Y-53623480D01*
X106108974Y-53696472D01*
X106664212Y-53141234D01*
X106675482Y-53183292D01*
X106747890Y-53308708D01*
X106850292Y-53411110D01*
X106975708Y-53483518D01*
X107017765Y-53494787D01*
X106462526Y-54050025D01*
X106535513Y-54101132D01*
X106535521Y-54101136D01*
X106593864Y-54128342D01*
X106646304Y-54174514D01*
X106665456Y-54241707D01*
X106645241Y-54308589D01*
X106593866Y-54353105D01*
X106535272Y-54380428D01*
X106535265Y-54380432D01*
X106348858Y-54510954D01*
X106187954Y-54671858D01*
X106057432Y-54858265D01*
X106057431Y-54858267D01*
X105961261Y-55064502D01*
X105961258Y-55064511D01*
X105902366Y-55284302D01*
X105902364Y-55284313D01*
X105882532Y-55510998D01*
X105882532Y-55511001D01*
X105902364Y-55737686D01*
X105902366Y-55737697D01*
X105961258Y-55957488D01*
X105961261Y-55957497D01*
X106057431Y-56163732D01*
X106057432Y-56163734D01*
X106187954Y-56350141D01*
X106348858Y-56511045D01*
X106348861Y-56511047D01*
X106535266Y-56641568D01*
X106741504Y-56737739D01*
X106961308Y-56796635D01*
X107123230Y-56810801D01*
X107187998Y-56816468D01*
X107188000Y-56816468D01*
X107188002Y-56816468D01*
X107244673Y-56811509D01*
X107414692Y-56796635D01*
X107634496Y-56737739D01*
X107840734Y-56641568D01*
X108027139Y-56511047D01*
X108188047Y-56350139D01*
X108318568Y-56163734D01*
X108414739Y-55957496D01*
X108473635Y-55737692D01*
X108493468Y-55511000D01*
X108473635Y-55284308D01*
X108414739Y-55064504D01*
X108318568Y-54858266D01*
X108188047Y-54671861D01*
X108188045Y-54671858D01*
X108027141Y-54510954D01*
X107840735Y-54380433D01*
X107840736Y-54380433D01*
X107840734Y-54380432D01*
X107782132Y-54353105D01*
X107729694Y-54306933D01*
X107710543Y-54239739D01*
X107730759Y-54172858D01*
X107782135Y-54128341D01*
X107840482Y-54101133D01*
X107913471Y-54050024D01*
X107358234Y-53494787D01*
X107400292Y-53483518D01*
X107525708Y-53411110D01*
X107628110Y-53308708D01*
X107700518Y-53183292D01*
X107711787Y-53141234D01*
X108267024Y-53696471D01*
X108318133Y-53623482D01*
X108345341Y-53565135D01*
X108391513Y-53512696D01*
X108458707Y-53493543D01*
X108525588Y-53513758D01*
X108570105Y-53565132D01*
X108597432Y-53623734D01*
X108597433Y-53623735D01*
X108727954Y-53810141D01*
X108888858Y-53971045D01*
X108888861Y-53971047D01*
X109075266Y-54101568D01*
X109281504Y-54197739D01*
X109289660Y-54199924D01*
X109349320Y-54236285D01*
X109379853Y-54299130D01*
X109371562Y-54368506D01*
X109364959Y-54381699D01*
X109340159Y-54424653D01*
X109319464Y-54460500D01*
X109287623Y-54515650D01*
X109246699Y-54668378D01*
X109246699Y-54668380D01*
X109246699Y-54836481D01*
X109246700Y-54836494D01*
X109246700Y-64391397D01*
X108550918Y-67638380D01*
X108524209Y-67668714D01*
X108457016Y-67687866D01*
X108390135Y-67667650D01*
X108345618Y-67616275D01*
X108318568Y-67558267D01*
X108318567Y-67558265D01*
X108188045Y-67371858D01*
X108027141Y-67210954D01*
X107840734Y-67080432D01*
X107840732Y-67080431D01*
X107634497Y-66984261D01*
X107634488Y-66984258D01*
X107414697Y-66925366D01*
X107414693Y-66925365D01*
X107414692Y-66925365D01*
X107414691Y-66925364D01*
X107414686Y-66925364D01*
X107188002Y-66905532D01*
X107187998Y-66905532D01*
X106961313Y-66925364D01*
X106961302Y-66925366D01*
X106741511Y-66984258D01*
X106741502Y-66984261D01*
X106535267Y-67080431D01*
X106535265Y-67080432D01*
X106348858Y-67210954D01*
X106187951Y-67371861D01*
X106170287Y-67397088D01*
X106115710Y-67440712D01*
X106046211Y-67447904D01*
X105983857Y-67416380D01*
X105948445Y-67356150D01*
X105945425Y-67339218D01*
X105941598Y-67303627D01*
X105941596Y-67303620D01*
X105891354Y-67168913D01*
X105891350Y-67168906D01*
X105805190Y-67053812D01*
X105805187Y-67053809D01*
X105690093Y-66967649D01*
X105690086Y-66967645D01*
X105555379Y-66917403D01*
X105555372Y-66917401D01*
X105495844Y-66911000D01*
X104898000Y-66911000D01*
X104898000Y-67720252D01*
X104860292Y-67698482D01*
X104720409Y-67661000D01*
X104575591Y-67661000D01*
X104435708Y-67698482D01*
X104398000Y-67720252D01*
X104398000Y-66911000D01*
X103800155Y-66911000D01*
X103740627Y-66917401D01*
X103740620Y-66917403D01*
X103605913Y-66967645D01*
X103605906Y-66967649D01*
X103490812Y-67053809D01*
X103490809Y-67053812D01*
X103404649Y-67168906D01*
X103404645Y-67168913D01*
X103354403Y-67303620D01*
X103354401Y-67303627D01*
X103348000Y-67363155D01*
X103348000Y-67961000D01*
X104157252Y-67961000D01*
X104135482Y-67998708D01*
X104098000Y-68138591D01*
X104098000Y-68283409D01*
X104135482Y-68423292D01*
X104157252Y-68461000D01*
X103348000Y-68461000D01*
X103348000Y-69058844D01*
X103354401Y-69118372D01*
X103354403Y-69118379D01*
X103404645Y-69253086D01*
X103404649Y-69253093D01*
X103490809Y-69368187D01*
X103490812Y-69368190D01*
X103605906Y-69454350D01*
X103605913Y-69454354D01*
X103740620Y-69504596D01*
X103740627Y-69504598D01*
X103800155Y-69510999D01*
X103800172Y-69511000D01*
X104398000Y-69511000D01*
X104398000Y-68701747D01*
X104435708Y-68723518D01*
X104575591Y-68761000D01*
X104720409Y-68761000D01*
X104860292Y-68723518D01*
X104898000Y-68701747D01*
X104898000Y-69511000D01*
X105495828Y-69511000D01*
X105495844Y-69510999D01*
X105555372Y-69504598D01*
X105555379Y-69504596D01*
X105690086Y-69454354D01*
X105690093Y-69454350D01*
X105805187Y-69368190D01*
X105805190Y-69368187D01*
X105891350Y-69253093D01*
X105891354Y-69253086D01*
X105941596Y-69118380D01*
X105945424Y-69082781D01*
X105972162Y-69018230D01*
X106029555Y-68978382D01*
X106099380Y-68975888D01*
X106159469Y-69011540D01*
X106170289Y-69024912D01*
X106187956Y-69050143D01*
X106348858Y-69211045D01*
X106348861Y-69211047D01*
X106535266Y-69341568D01*
X106741504Y-69437739D01*
X106961308Y-69496635D01*
X107123230Y-69510801D01*
X107187998Y-69516468D01*
X107188000Y-69516468D01*
X107188002Y-69516468D01*
X107250511Y-69510999D01*
X107414692Y-69496635D01*
X107634496Y-69437739D01*
X107840734Y-69341568D01*
X108027139Y-69211047D01*
X108188047Y-69050139D01*
X108275011Y-68925939D01*
X107788345Y-71197051D01*
X105147912Y-73837486D01*
X105086589Y-73870971D01*
X105016897Y-73865987D01*
X104960964Y-73824115D01*
X104936547Y-73758651D01*
X104937011Y-73735921D01*
X104945565Y-73660002D01*
X104945565Y-73659996D01*
X104925369Y-73480750D01*
X104925368Y-73480745D01*
X104865789Y-73310478D01*
X104769816Y-73157738D01*
X104642262Y-73030184D01*
X104489521Y-72934210D01*
X104319249Y-72874630D01*
X104232331Y-72864837D01*
X104167917Y-72837770D01*
X104158534Y-72829298D01*
X101160700Y-69831465D01*
X101127215Y-69770142D01*
X101125163Y-69757686D01*
X101115368Y-69670745D01*
X101055789Y-69500478D01*
X100959816Y-69347738D01*
X100832262Y-69220184D01*
X100817146Y-69210686D01*
X100679523Y-69124211D01*
X100509254Y-69064631D01*
X100509249Y-69064630D01*
X100330004Y-69044435D01*
X100329996Y-69044435D01*
X100150750Y-69064630D01*
X100150745Y-69064631D01*
X99980476Y-69124211D01*
X99827737Y-69220184D01*
X99700184Y-69347737D01*
X99604211Y-69500476D01*
X99544631Y-69670745D01*
X99544630Y-69670750D01*
X99524435Y-69849996D01*
X99524435Y-69850003D01*
X99544630Y-70029249D01*
X99544631Y-70029254D01*
X99604211Y-70199523D01*
X99700184Y-70352262D01*
X99827738Y-70479816D01*
X99980478Y-70575789D01*
X100150745Y-70635368D01*
X100237669Y-70645161D01*
X100302080Y-70672226D01*
X100311465Y-70680700D01*
X103309298Y-73678534D01*
X103342783Y-73739857D01*
X103344837Y-73752331D01*
X103354630Y-73839249D01*
X103414210Y-74009521D01*
X103414211Y-74009522D01*
X103510184Y-74162262D01*
X103637738Y-74289816D01*
X103790478Y-74385789D01*
X103884641Y-74418738D01*
X103960745Y-74445368D01*
X103960750Y-74445369D01*
X104139996Y-74465565D01*
X104140000Y-74465565D01*
X104140003Y-74465565D01*
X104215921Y-74457011D01*
X104284743Y-74469065D01*
X104336123Y-74516414D01*
X104353747Y-74584025D01*
X104332021Y-74650431D01*
X104317486Y-74667912D01*
X98183286Y-80802113D01*
X98071481Y-80913917D01*
X98071479Y-80913920D01*
X98055638Y-80941357D01*
X98039797Y-80968796D01*
X97992423Y-81050850D01*
X97951499Y-81203578D01*
X97951499Y-81203580D01*
X97951499Y-81371681D01*
X97951500Y-81371694D01*
X97951500Y-82313706D01*
X97931815Y-82380745D01*
X97879011Y-82426500D01*
X97829817Y-82437684D01*
X86449153Y-82650406D01*
X86381758Y-82631978D01*
X86335024Y-82580038D01*
X86322837Y-82526502D01*
X86311790Y-62652955D01*
X87651600Y-62652955D01*
X87651600Y-63300800D01*
X88568588Y-63300800D01*
X88535675Y-63357807D01*
X88501600Y-63484974D01*
X88501600Y-63616626D01*
X88535675Y-63743793D01*
X88568588Y-63800800D01*
X87651600Y-63800800D01*
X87651600Y-64448644D01*
X87658001Y-64508172D01*
X87658003Y-64508179D01*
X87708245Y-64642886D01*
X87708249Y-64642893D01*
X87794409Y-64757987D01*
X87794412Y-64757990D01*
X87909506Y-64844150D01*
X87909513Y-64844154D01*
X88044220Y-64894396D01*
X88044227Y-64894398D01*
X88103755Y-64900799D01*
X88103772Y-64900800D01*
X88751600Y-64900800D01*
X88751600Y-63983812D01*
X88808607Y-64016725D01*
X88935774Y-64050800D01*
X89067426Y-64050800D01*
X89194593Y-64016725D01*
X89251600Y-63983812D01*
X89251600Y-64900800D01*
X89899428Y-64900800D01*
X89899444Y-64900799D01*
X89958972Y-64894398D01*
X89958979Y-64894396D01*
X90093686Y-64844154D01*
X90093693Y-64844150D01*
X90208787Y-64757990D01*
X90208790Y-64757987D01*
X90294950Y-64642893D01*
X90294954Y-64642886D01*
X90345196Y-64508179D01*
X90345198Y-64508172D01*
X90351599Y-64448644D01*
X90351600Y-64448627D01*
X90351600Y-63800800D01*
X89434612Y-63800800D01*
X89467525Y-63743793D01*
X89501600Y-63616626D01*
X89501600Y-63484974D01*
X89467525Y-63357807D01*
X89434612Y-63300800D01*
X90351600Y-63300800D01*
X90351600Y-62652972D01*
X90351599Y-62652955D01*
X92731600Y-62652955D01*
X92731600Y-63300800D01*
X93648588Y-63300800D01*
X93615675Y-63357807D01*
X93581600Y-63484974D01*
X93581600Y-63616626D01*
X93615675Y-63743793D01*
X93648588Y-63800800D01*
X92731600Y-63800800D01*
X92731600Y-64448644D01*
X92738001Y-64508172D01*
X92738003Y-64508179D01*
X92788245Y-64642886D01*
X92788249Y-64642893D01*
X92874409Y-64757987D01*
X92874412Y-64757990D01*
X92989506Y-64844150D01*
X92989513Y-64844154D01*
X93124220Y-64894396D01*
X93124227Y-64894398D01*
X93183755Y-64900799D01*
X93183772Y-64900800D01*
X93831600Y-64900800D01*
X93831600Y-63983812D01*
X93888607Y-64016725D01*
X94015774Y-64050800D01*
X94147426Y-64050800D01*
X94274593Y-64016725D01*
X94331600Y-63983812D01*
X94331600Y-64900800D01*
X94979428Y-64900800D01*
X94979444Y-64900799D01*
X95038972Y-64894398D01*
X95038979Y-64894396D01*
X95173686Y-64844154D01*
X95173693Y-64844150D01*
X95288787Y-64757990D01*
X95288790Y-64757987D01*
X95374950Y-64642893D01*
X95374954Y-64642886D01*
X95424022Y-64511329D01*
X95465893Y-64455395D01*
X95531357Y-64430978D01*
X95599630Y-64445830D01*
X95627885Y-64466981D01*
X95750199Y-64589295D01*
X95826735Y-64642886D01*
X95943765Y-64724832D01*
X95943767Y-64724833D01*
X95943770Y-64724835D01*
X96157937Y-64824703D01*
X96386192Y-64885863D01*
X96556919Y-64900800D01*
X96621599Y-64906459D01*
X96621600Y-64906459D01*
X96621601Y-64906459D01*
X96686281Y-64900800D01*
X96857008Y-64885863D01*
X97085263Y-64824703D01*
X97299430Y-64724835D01*
X97493001Y-64589295D01*
X97660095Y-64422201D01*
X97795635Y-64228630D01*
X97895503Y-64014463D01*
X97956663Y-63786208D01*
X97977259Y-63550800D01*
X97956663Y-63315392D01*
X97895503Y-63087137D01*
X97795635Y-62872971D01*
X97732674Y-62783052D01*
X97660094Y-62679397D01*
X97493002Y-62512306D01*
X97492995Y-62512301D01*
X97299434Y-62376767D01*
X97299430Y-62376765D01*
X97228327Y-62343609D01*
X97085263Y-62276897D01*
X97085259Y-62276896D01*
X97085255Y-62276894D01*
X96857013Y-62215738D01*
X96857003Y-62215736D01*
X96621601Y-62195141D01*
X96621599Y-62195141D01*
X96386196Y-62215736D01*
X96386186Y-62215738D01*
X96157944Y-62276894D01*
X96157937Y-62276896D01*
X96157937Y-62276897D01*
X96154731Y-62278392D01*
X95943771Y-62376764D01*
X95943769Y-62376765D01*
X95750200Y-62512303D01*
X95627884Y-62634619D01*
X95566561Y-62668103D01*
X95496869Y-62663119D01*
X95440936Y-62621247D01*
X95424021Y-62590270D01*
X95374954Y-62458713D01*
X95374950Y-62458706D01*
X95288790Y-62343612D01*
X95288787Y-62343609D01*
X95173693Y-62257449D01*
X95173686Y-62257445D01*
X95038979Y-62207203D01*
X95038972Y-62207201D01*
X94979444Y-62200800D01*
X94331600Y-62200800D01*
X94331600Y-63117788D01*
X94274593Y-63084875D01*
X94147426Y-63050800D01*
X94015774Y-63050800D01*
X93888607Y-63084875D01*
X93831600Y-63117788D01*
X93831600Y-62200800D01*
X93183755Y-62200800D01*
X93124227Y-62207201D01*
X93124220Y-62207203D01*
X92989513Y-62257445D01*
X92989506Y-62257449D01*
X92874412Y-62343609D01*
X92874409Y-62343612D01*
X92788249Y-62458706D01*
X92788245Y-62458713D01*
X92738003Y-62593420D01*
X92738001Y-62593427D01*
X92731600Y-62652955D01*
X90351599Y-62652955D01*
X90345198Y-62593427D01*
X90345196Y-62593420D01*
X90294954Y-62458713D01*
X90294950Y-62458706D01*
X90208790Y-62343612D01*
X90208787Y-62343609D01*
X90093693Y-62257449D01*
X90093686Y-62257445D01*
X89958979Y-62207203D01*
X89958972Y-62207201D01*
X89899444Y-62200800D01*
X89251600Y-62200800D01*
X89251600Y-63117788D01*
X89194593Y-63084875D01*
X89067426Y-63050800D01*
X88935774Y-63050800D01*
X88808607Y-63084875D01*
X88751600Y-63117788D01*
X88751600Y-62200800D01*
X88103755Y-62200800D01*
X88044227Y-62207201D01*
X88044220Y-62207203D01*
X87909513Y-62257445D01*
X87909506Y-62257449D01*
X87794412Y-62343609D01*
X87794409Y-62343612D01*
X87708249Y-62458706D01*
X87708245Y-62458713D01*
X87658003Y-62593420D01*
X87658001Y-62593427D01*
X87651600Y-62652955D01*
X86311790Y-62652955D01*
X86309938Y-59320999D01*
X104222571Y-59320999D01*
X104222571Y-59321000D01*
X104242244Y-59533310D01*
X104300596Y-59738392D01*
X104300596Y-59738394D01*
X104395632Y-59929253D01*
X104395634Y-59929255D01*
X104524128Y-60099407D01*
X104681698Y-60243052D01*
X104862981Y-60355298D01*
X105061802Y-60432321D01*
X105258613Y-60469111D01*
X105320893Y-60500779D01*
X105356166Y-60561092D01*
X105353232Y-60630900D01*
X105313023Y-60688040D01*
X105258613Y-60712888D01*
X105061802Y-60749679D01*
X105061799Y-60749679D01*
X105061799Y-60749680D01*
X104862982Y-60826701D01*
X104862980Y-60826702D01*
X104681699Y-60938947D01*
X104524127Y-61082593D01*
X104395632Y-61252746D01*
X104300596Y-61443605D01*
X104300596Y-61443607D01*
X104300595Y-61443611D01*
X104242244Y-61648690D01*
X104222571Y-61861000D01*
X104242244Y-62073310D01*
X104300170Y-62276897D01*
X104300596Y-62278392D01*
X104300596Y-62278394D01*
X104395632Y-62469253D01*
X104487021Y-62590270D01*
X104524128Y-62639407D01*
X104681698Y-62783052D01*
X104862981Y-62895298D01*
X105061802Y-62972321D01*
X105271390Y-63011500D01*
X105271392Y-63011500D01*
X105484608Y-63011500D01*
X105484610Y-63011500D01*
X105694198Y-62972321D01*
X105893019Y-62895298D01*
X106074302Y-62783052D01*
X106231872Y-62639407D01*
X106360366Y-62469255D01*
X106455405Y-62278389D01*
X106513756Y-62073310D01*
X106533429Y-61861000D01*
X106513756Y-61648690D01*
X106455405Y-61443611D01*
X106455403Y-61443606D01*
X106455403Y-61443605D01*
X106360367Y-61252746D01*
X106231872Y-61082593D01*
X106074302Y-60938948D01*
X105893019Y-60826702D01*
X105893017Y-60826701D01*
X105793608Y-60788190D01*
X105694198Y-60749679D01*
X105497385Y-60712888D01*
X105435106Y-60681221D01*
X105399833Y-60620908D01*
X105402767Y-60551100D01*
X105442976Y-60493960D01*
X105497384Y-60469111D01*
X105694198Y-60432321D01*
X105893019Y-60355298D01*
X106074302Y-60243052D01*
X106231872Y-60099407D01*
X106360366Y-59929255D01*
X106455405Y-59738389D01*
X106513756Y-59533310D01*
X106533429Y-59321000D01*
X106513756Y-59108690D01*
X106455405Y-58903611D01*
X106455403Y-58903606D01*
X106455403Y-58903605D01*
X106360367Y-58712746D01*
X106231872Y-58542593D01*
X106074302Y-58398948D01*
X105893019Y-58286702D01*
X105893017Y-58286701D01*
X105793608Y-58248190D01*
X105694198Y-58209679D01*
X105484610Y-58170500D01*
X105271390Y-58170500D01*
X105061802Y-58209679D01*
X105061799Y-58209679D01*
X105061799Y-58209680D01*
X104862982Y-58286701D01*
X104862980Y-58286702D01*
X104681699Y-58398947D01*
X104524127Y-58542593D01*
X104395632Y-58712746D01*
X104300596Y-58903605D01*
X104300596Y-58903607D01*
X104242244Y-59108689D01*
X104222571Y-59320999D01*
X86309938Y-59320999D01*
X86302259Y-45507414D01*
X86303029Y-45493560D01*
X86313163Y-45403186D01*
X86319326Y-45376120D01*
X86346997Y-45296898D01*
X86359026Y-45271882D01*
X86403633Y-45200799D01*
X86420928Y-45179088D01*
X86480229Y-45119715D01*
X86501925Y-45102391D01*
X86572953Y-45057699D01*
X86597946Y-45045643D01*
X86677149Y-45017872D01*
X86704194Y-45011680D01*
X86794416Y-45001454D01*
X86808286Y-45000666D01*
X86812163Y-45000664D01*
X113405437Y-44983952D01*
X112058321Y-51270500D01*
G37*
%TD.AperFunction*%
%TD*%
%TA.AperFunction,Conductor*%
%TO.N,GNDA*%
G36*
X129620834Y-96755914D02*
G01*
X129676767Y-96797786D01*
X129701184Y-96863250D01*
X129701500Y-96872096D01*
X129701500Y-99695000D01*
X128905000Y-99695000D01*
X128939201Y-97335033D01*
X129489821Y-96784413D01*
X129551142Y-96750930D01*
X129620834Y-96755914D01*
G37*
%TD.AperFunction*%
%TA.AperFunction,Conductor*%
G36*
X132403500Y-93887859D02*
G01*
X132403499Y-93887877D01*
X132403499Y-94053583D01*
X132403498Y-94053583D01*
X132408911Y-94073784D01*
X132444423Y-94206314D01*
X132457094Y-94228260D01*
X132457095Y-94228263D01*
X132523475Y-94343238D01*
X132523481Y-94343246D01*
X132642349Y-94462114D01*
X132642355Y-94462119D01*
X133434898Y-95254662D01*
X133468383Y-95315985D01*
X133463399Y-95385677D01*
X133434898Y-95430024D01*
X133355184Y-95509737D01*
X133259211Y-95662476D01*
X133199631Y-95832745D01*
X133199630Y-95832750D01*
X133179435Y-96011996D01*
X133179435Y-96012003D01*
X133199630Y-96191249D01*
X133199631Y-96191254D01*
X133259211Y-96361523D01*
X133354970Y-96513922D01*
X133355184Y-96514262D01*
X133482738Y-96641816D01*
X133635478Y-96737789D01*
X133635480Y-96737789D01*
X133635484Y-96737792D01*
X133641756Y-96740813D01*
X133640869Y-96742653D01*
X133676939Y-96765307D01*
X136606632Y-99695000D01*
X130902500Y-99695000D01*
X130902500Y-93673412D01*
X130922185Y-93606373D01*
X130929555Y-93596097D01*
X130931810Y-93593267D01*
X130931816Y-93593262D01*
X131027789Y-93440522D01*
X131087368Y-93270255D01*
X131107565Y-93091000D01*
X131093209Y-92963589D01*
X131087369Y-92911750D01*
X131087368Y-92911745D01*
X131027788Y-92741476D01*
X130931815Y-92588737D01*
X130804262Y-92461184D01*
X130651523Y-92365211D01*
X130481254Y-92305631D01*
X130481249Y-92305630D01*
X130302004Y-92285435D01*
X130301996Y-92285435D01*
X130122750Y-92305630D01*
X130122745Y-92305631D01*
X129952476Y-92365211D01*
X129799737Y-92461184D01*
X129672184Y-92588737D01*
X129576211Y-92741476D01*
X129516631Y-92911745D01*
X129516630Y-92911750D01*
X129496435Y-93090996D01*
X129496435Y-93091003D01*
X129516630Y-93270249D01*
X129516631Y-93270254D01*
X129576211Y-93440523D01*
X129672185Y-93593263D01*
X129674445Y-93596097D01*
X129675334Y-93598275D01*
X129675889Y-93599158D01*
X129675734Y-93599255D01*
X129700855Y-93660783D01*
X129701500Y-93673412D01*
X129701500Y-94806677D01*
X129681815Y-94873716D01*
X129629011Y-94919471D01*
X129591384Y-94929897D01*
X129522750Y-94937630D01*
X129352478Y-94997210D01*
X129199737Y-95093184D01*
X129072184Y-95220737D01*
X128976209Y-95373480D01*
X128967260Y-95399054D01*
X129032000Y-90932000D01*
X132403500Y-90932000D01*
X132403500Y-93887859D01*
G37*
%TD.AperFunction*%
%TA.AperFunction,Conductor*%
G36*
X147481500Y-94528330D02*
G01*
X147481499Y-94528348D01*
X147481499Y-94694056D01*
X147505282Y-94782816D01*
X147503619Y-94852666D01*
X147464456Y-94910528D01*
X147400228Y-94938032D01*
X147331326Y-94926445D01*
X147297826Y-94902590D01*
X146499700Y-94104465D01*
X146466215Y-94043142D01*
X146464163Y-94030686D01*
X146454368Y-93943745D01*
X146394789Y-93773478D01*
X146298816Y-93620738D01*
X146171262Y-93493184D01*
X146018523Y-93397211D01*
X145848254Y-93337631D01*
X145848249Y-93337630D01*
X145669004Y-93317435D01*
X145668996Y-93317435D01*
X145489750Y-93337630D01*
X145489745Y-93337631D01*
X145319476Y-93397211D01*
X145166737Y-93493184D01*
X145039184Y-93620737D01*
X144943211Y-93773476D01*
X144883631Y-93943745D01*
X144883630Y-93943750D01*
X144863435Y-94122996D01*
X144863435Y-94123003D01*
X144883630Y-94302249D01*
X144883631Y-94302254D01*
X144943211Y-94472523D01*
X144983061Y-94535943D01*
X145039184Y-94625262D01*
X145166738Y-94752816D01*
X145319478Y-94848789D01*
X145489745Y-94908368D01*
X145576669Y-94918161D01*
X145641080Y-94945226D01*
X145650464Y-94953699D01*
X146134243Y-95437478D01*
X146167727Y-95498800D01*
X146162743Y-95568492D01*
X146134243Y-95612839D01*
X146042122Y-95704960D01*
X145946150Y-95857697D01*
X145886570Y-96027966D01*
X145886569Y-96027971D01*
X145866374Y-96207217D01*
X145866374Y-96207224D01*
X145886569Y-96386470D01*
X145886570Y-96386475D01*
X145946150Y-96556744D01*
X145999604Y-96641815D01*
X146042123Y-96709483D01*
X146169677Y-96837037D01*
X146322417Y-96933010D01*
X146492684Y-96992589D01*
X146579608Y-97002382D01*
X146644019Y-97029447D01*
X146653403Y-97037920D01*
X147124002Y-97508520D01*
X147260933Y-97587577D01*
X147413661Y-97628501D01*
X147413664Y-97628501D01*
X147579372Y-97628501D01*
X147579388Y-97628500D01*
X148843861Y-97628500D01*
X148843877Y-97628501D01*
X148851473Y-97628501D01*
X149009584Y-97628501D01*
X149009587Y-97628501D01*
X149162315Y-97587577D01*
X149212434Y-97558639D01*
X149299246Y-97508520D01*
X149411050Y-97396716D01*
X149411050Y-97396714D01*
X149421258Y-97386507D01*
X149421260Y-97386504D01*
X150396158Y-96411605D01*
X150457479Y-96378122D01*
X150469934Y-96376070D01*
X150556878Y-96366275D01*
X150727145Y-96306696D01*
X150879885Y-96210723D01*
X151007439Y-96083169D01*
X151103412Y-95930429D01*
X151162991Y-95760162D01*
X151162992Y-95760156D01*
X151183188Y-95580910D01*
X151183188Y-95580903D01*
X151162992Y-95401657D01*
X151162991Y-95401652D01*
X151103411Y-95231383D01*
X151035309Y-95123000D01*
X151007439Y-95078645D01*
X150879885Y-94951091D01*
X150826411Y-94917491D01*
X150727144Y-94855117D01*
X150556873Y-94795537D01*
X150535614Y-94793142D01*
X150471201Y-94766073D01*
X150431647Y-94708477D01*
X150425501Y-94669922D01*
X150425501Y-94668416D01*
X150425501Y-94668414D01*
X150384577Y-94515686D01*
X150316175Y-94397211D01*
X150305520Y-94378755D01*
X150305519Y-94378754D01*
X150305518Y-94378752D01*
X150189397Y-94262631D01*
X150189374Y-94262610D01*
X150115819Y-94189055D01*
X150082334Y-94127732D01*
X150079500Y-94101374D01*
X150079500Y-93954665D01*
X150099185Y-93887626D01*
X150151989Y-93841871D01*
X150221147Y-93831927D01*
X150284703Y-93860952D01*
X150316471Y-93907719D01*
X150317453Y-93907247D01*
X150320472Y-93913516D01*
X150401922Y-94043142D01*
X150416449Y-94066262D01*
X150544003Y-94193816D01*
X150598825Y-94228263D01*
X150676715Y-94277205D01*
X150696743Y-94289789D01*
X150849514Y-94343246D01*
X150867010Y-94349368D01*
X150867015Y-94349369D01*
X151046261Y-94369565D01*
X151046265Y-94369565D01*
X151046269Y-94369565D01*
X151225514Y-94349369D01*
X151225517Y-94349368D01*
X151225520Y-94349368D01*
X151395787Y-94289789D01*
X151548527Y-94193816D01*
X151552819Y-94189524D01*
X151614142Y-94156039D01*
X151683834Y-94161023D01*
X151739767Y-94202895D01*
X151764184Y-94268359D01*
X151764500Y-94277205D01*
X151764500Y-95001330D01*
X151764499Y-95001348D01*
X151764499Y-95167054D01*
X151764498Y-95167054D01*
X151805422Y-95319783D01*
X151830984Y-95364058D01*
X151884477Y-95456712D01*
X151884481Y-95456717D01*
X152003349Y-95575585D01*
X152003355Y-95575590D01*
X152204298Y-95776533D01*
X152237783Y-95837856D01*
X152239837Y-95850330D01*
X152249630Y-95937249D01*
X152309210Y-96107521D01*
X152390899Y-96237528D01*
X152405184Y-96260262D01*
X152532738Y-96387816D01*
X152685478Y-96483789D01*
X152771599Y-96513924D01*
X152855745Y-96543368D01*
X152855750Y-96543369D01*
X153034996Y-96563565D01*
X153035000Y-96563565D01*
X153035004Y-96563565D01*
X153214249Y-96543369D01*
X153214252Y-96543368D01*
X153214255Y-96543368D01*
X153384522Y-96483789D01*
X153537262Y-96387816D01*
X153664816Y-96260262D01*
X153760789Y-96107522D01*
X153820368Y-95937255D01*
X153830336Y-95848789D01*
X153840565Y-95758003D01*
X153840565Y-95757996D01*
X153820369Y-95578750D01*
X153820368Y-95578745D01*
X153783199Y-95472522D01*
X153760789Y-95408478D01*
X153744267Y-95382184D01*
X153702672Y-95315985D01*
X153664816Y-95255738D01*
X153537262Y-95128184D01*
X153384521Y-95032210D01*
X153214249Y-94972630D01*
X153127330Y-94962837D01*
X153062916Y-94935770D01*
X153053533Y-94927298D01*
X153001819Y-94875584D01*
X152968334Y-94814261D01*
X152965500Y-94787903D01*
X152965500Y-90932000D01*
X155956000Y-90932000D01*
X155911252Y-94019553D01*
X155911251Y-94019554D01*
X155906533Y-94345142D01*
X155906534Y-94345141D01*
X155906534Y-94345143D01*
X155901155Y-94716271D01*
X155865211Y-94773476D01*
X155805631Y-94943745D01*
X155805630Y-94943750D01*
X155785435Y-95122996D01*
X155785435Y-95123003D01*
X155805630Y-95302249D01*
X155805631Y-95302254D01*
X155865211Y-95472523D01*
X155889631Y-95511388D01*
X155829000Y-99695000D01*
X151857500Y-99695000D01*
X151857500Y-99515412D01*
X151877185Y-99448373D01*
X151884555Y-99438097D01*
X151886810Y-99435267D01*
X151886816Y-99435262D01*
X151982789Y-99282522D01*
X152042368Y-99112255D01*
X152062565Y-98933000D01*
X152045159Y-98778519D01*
X152042369Y-98753750D01*
X152042368Y-98753745D01*
X151982788Y-98583476D01*
X151905963Y-98461211D01*
X151886816Y-98430738D01*
X151759262Y-98303184D01*
X151606523Y-98207211D01*
X151436254Y-98147631D01*
X151436249Y-98147630D01*
X151257004Y-98127435D01*
X151256996Y-98127435D01*
X151077750Y-98147630D01*
X151077745Y-98147631D01*
X150907476Y-98207211D01*
X150754737Y-98303184D01*
X150627184Y-98430737D01*
X150531211Y-98583476D01*
X150471631Y-98753745D01*
X150471630Y-98753750D01*
X150451435Y-98932996D01*
X150451435Y-98933003D01*
X150471630Y-99112249D01*
X150471631Y-99112254D01*
X150531211Y-99282523D01*
X150591515Y-99378496D01*
X150612912Y-99412549D01*
X150627185Y-99435263D01*
X150629445Y-99438097D01*
X150630334Y-99440275D01*
X150630889Y-99441158D01*
X150630734Y-99441255D01*
X150655855Y-99502783D01*
X150656500Y-99515412D01*
X150656500Y-99695000D01*
X141379044Y-99695000D01*
X141378289Y-99692843D01*
X141282315Y-99540102D01*
X141154762Y-99412549D01*
X141002023Y-99316576D01*
X140831754Y-99256996D01*
X140831749Y-99256995D01*
X140652504Y-99236800D01*
X140652496Y-99236800D01*
X140473250Y-99256995D01*
X140473245Y-99256996D01*
X140302976Y-99316576D01*
X140150237Y-99412549D01*
X140022684Y-99540102D01*
X139926711Y-99692843D01*
X139925672Y-99695000D01*
X139492765Y-99695000D01*
X141005522Y-98182243D01*
X141084579Y-98045311D01*
X141099336Y-97990236D01*
X141131431Y-97934648D01*
X141154818Y-97911262D01*
X141250791Y-97758522D01*
X141310370Y-97588255D01*
X141310371Y-97588249D01*
X141330567Y-97409003D01*
X141330567Y-97408996D01*
X141310371Y-97229750D01*
X141310370Y-97229745D01*
X141250790Y-97059476D01*
X141154817Y-96906737D01*
X141027264Y-96779184D01*
X141018586Y-96773731D01*
X140972296Y-96721400D01*
X140961646Y-96652347D01*
X140979565Y-96602765D01*
X141035388Y-96513924D01*
X141066621Y-96424666D01*
X141094968Y-96343655D01*
X141094969Y-96343649D01*
X141115165Y-96164403D01*
X141115165Y-96164396D01*
X141094969Y-95985150D01*
X141094968Y-95985145D01*
X141035389Y-95814878D01*
X140939416Y-95662138D01*
X140811862Y-95534584D01*
X140772320Y-95509738D01*
X140659123Y-95438611D01*
X140488854Y-95379031D01*
X140488849Y-95379030D01*
X140309604Y-95358835D01*
X140309596Y-95358835D01*
X140130350Y-95379030D01*
X140130345Y-95379031D01*
X139960076Y-95438611D01*
X139807337Y-95534584D01*
X139679784Y-95662137D01*
X139583810Y-95814878D01*
X139524230Y-95985150D01*
X139514437Y-96072068D01*
X139487370Y-96136482D01*
X139478899Y-96145865D01*
X139233582Y-96391182D01*
X139172262Y-96424666D01*
X139145903Y-96427500D01*
X138163095Y-96427500D01*
X138096056Y-96407815D01*
X138050301Y-96355011D01*
X138040357Y-96285853D01*
X138058101Y-96237528D01*
X138104050Y-96164400D01*
X138139789Y-96107522D01*
X138199368Y-95937255D01*
X138209161Y-95850329D01*
X138236226Y-95785918D01*
X138244690Y-95776543D01*
X143089235Y-90932000D01*
X147481500Y-90932000D01*
X147481500Y-94528330D01*
G37*
%TD.AperFunction*%
%TD*%
M02*
