%TF.GenerationSoftware,KiCad,Pcbnew,7.0.10*%
%TF.CreationDate,2024-12-22T17:19:54-08:00*%
%TF.ProjectId,mainbox2.1,6d61696e-626f-4783-922e-312e6b696361,rev?*%
%TF.SameCoordinates,Original*%
%TF.FileFunction,Paste,Top*%
%TF.FilePolarity,Positive*%
%FSLAX46Y46*%
G04 Gerber Fmt 4.6, Leading zero omitted, Abs format (unit mm)*
G04 Created by KiCad (PCBNEW 7.0.10) date 2024-12-22 17:19:54*
%MOMM*%
%LPD*%
G01*
G04 APERTURE LIST*
G04 Aperture macros list*
%AMRoundRect*
0 Rectangle with rounded corners*
0 $1 Rounding radius*
0 $2 $3 $4 $5 $6 $7 $8 $9 X,Y pos of 4 corners*
0 Add a 4 corners polygon primitive as box body*
4,1,4,$2,$3,$4,$5,$6,$7,$8,$9,$2,$3,0*
0 Add four circle primitives for the rounded corners*
1,1,$1+$1,$2,$3*
1,1,$1+$1,$4,$5*
1,1,$1+$1,$6,$7*
1,1,$1+$1,$8,$9*
0 Add four rect primitives between the rounded corners*
20,1,$1+$1,$2,$3,$4,$5,0*
20,1,$1+$1,$4,$5,$6,$7,0*
20,1,$1+$1,$6,$7,$8,$9,0*
20,1,$1+$1,$8,$9,$2,$3,0*%
G04 Aperture macros list end*
%ADD10RoundRect,0.140000X0.140000X0.170000X-0.140000X0.170000X-0.140000X-0.170000X0.140000X-0.170000X0*%
%ADD11RoundRect,0.140000X-0.140000X-0.170000X0.140000X-0.170000X0.140000X0.170000X-0.140000X0.170000X0*%
%ADD12RoundRect,0.135000X-0.135000X-0.185000X0.135000X-0.185000X0.135000X0.185000X-0.135000X0.185000X0*%
%ADD13RoundRect,0.135000X0.135000X0.185000X-0.135000X0.185000X-0.135000X-0.185000X0.135000X-0.185000X0*%
%ADD14RoundRect,0.135000X0.185000X-0.135000X0.185000X0.135000X-0.185000X0.135000X-0.185000X-0.135000X0*%
%ADD15RoundRect,0.140000X-0.170000X0.140000X-0.170000X-0.140000X0.170000X-0.140000X0.170000X0.140000X0*%
%ADD16R,0.750000X0.250000*%
%ADD17R,2.000000X1.200000*%
%ADD18RoundRect,0.140000X0.170000X-0.140000X0.170000X0.140000X-0.170000X0.140000X-0.170000X-0.140000X0*%
%ADD19R,1.524000X2.844800*%
%ADD20RoundRect,0.135000X-0.185000X0.135000X-0.185000X-0.135000X0.185000X-0.135000X0.185000X0.135000X0*%
%ADD21RoundRect,0.250000X-0.375000X-0.850000X0.375000X-0.850000X0.375000X0.850000X-0.375000X0.850000X0*%
%ADD22R,1.600000X0.300000*%
%ADD23R,3.120000X2.240000*%
%ADD24R,0.400000X1.000000*%
%ADD25R,1.200000X1.800000*%
%ADD26R,1.200000X2.000000*%
%ADD27R,0.500000X0.350000*%
%ADD28R,1.000000X1.800000*%
%ADD29R,1.397000X0.279400*%
%ADD30RoundRect,0.250000X0.375000X1.075000X-0.375000X1.075000X-0.375000X-1.075000X0.375000X-1.075000X0*%
%ADD31R,1.550000X0.300000*%
%ADD32R,2.750000X1.200000*%
%ADD33R,0.450000X1.475000*%
G04 APERTURE END LIST*
%TO.C,U4*%
G36*
X140017100Y-79442399D02*
G01*
X138566100Y-79442399D01*
X138566100Y-78219999D01*
X140017100Y-78219999D01*
X140017100Y-79442399D01*
G37*
G36*
X140017100Y-78019999D02*
G01*
X138566100Y-78019999D01*
X138566100Y-76797599D01*
X140017100Y-76797599D01*
X140017100Y-78019999D01*
G37*
%TD*%
D10*
%TO.C,C23*%
X135456000Y-76720000D03*
X134496000Y-76720000D03*
%TD*%
D11*
%TO.C,C26*%
X127450000Y-68250000D03*
X128410000Y-68250000D03*
%TD*%
D12*
%TO.C,R7*%
X98463000Y-89218700D03*
X99483000Y-89218700D03*
%TD*%
D13*
%TO.C,R1*%
X80627800Y-82064000D03*
X81647800Y-82064000D03*
%TD*%
D14*
%TO.C,R8*%
X69392800Y-85396800D03*
X69392800Y-84376800D03*
%TD*%
D10*
%TO.C,C6*%
X134140000Y-95450000D03*
X133180000Y-95450000D03*
%TD*%
%TO.C,C46*%
X137150000Y-101260000D03*
X136190000Y-101260000D03*
%TD*%
D15*
%TO.C,C28*%
X89290000Y-88920000D03*
X89290000Y-89880000D03*
%TD*%
D16*
%TO.C,IC7*%
X131630000Y-97690000D03*
X131630000Y-98190000D03*
X131630000Y-98690000D03*
X131630000Y-99190000D03*
X134730000Y-99190000D03*
X134730000Y-98690000D03*
X134730000Y-98190000D03*
X134730000Y-97690000D03*
%TD*%
D14*
%TO.C,R10*%
X66441200Y-89886000D03*
X66441200Y-88866000D03*
%TD*%
D10*
%TO.C,C4*%
X136460000Y-94940000D03*
X135500000Y-94940000D03*
%TD*%
D17*
%TO.C,J8*%
X142876000Y-86510000D03*
X148876000Y-87780000D03*
X142876000Y-89050000D03*
X148876000Y-90320000D03*
X142876000Y-91590000D03*
X148876000Y-92860000D03*
X142876000Y-94130000D03*
X148876000Y-95400000D03*
X142876000Y-96670000D03*
X148876000Y-97940000D03*
X142876000Y-99210000D03*
X148876000Y-100480000D03*
%TD*%
D11*
%TO.C,C41*%
X82480000Y-89500000D03*
X83440000Y-89500000D03*
%TD*%
D10*
%TO.C,C1*%
X136670000Y-83900000D03*
X135710000Y-83900000D03*
%TD*%
D14*
%TO.C,R15*%
X63510000Y-90470000D03*
X63510000Y-89450000D03*
%TD*%
D15*
%TO.C,C27*%
X90490000Y-88920000D03*
X90490000Y-89880000D03*
%TD*%
D11*
%TO.C,C14*%
X129310000Y-106650000D03*
X130270000Y-106650000D03*
%TD*%
D18*
%TO.C,C43*%
X82090000Y-107780000D03*
X82090000Y-106820000D03*
%TD*%
D10*
%TO.C,C15*%
X137030000Y-106680000D03*
X136070000Y-106680000D03*
%TD*%
D19*
%TO.C,IC2*%
X91668600Y-85953600D03*
X93668600Y-85953600D03*
X95668600Y-85953600D03*
X97668600Y-85953600D03*
X111668600Y-85953600D03*
X115668600Y-85953600D03*
X115668600Y-64465200D03*
X107668600Y-64465200D03*
X101668600Y-64465200D03*
X89668600Y-64465200D03*
%TD*%
D16*
%TO.C,IC1*%
X134747500Y-106350000D03*
X134747500Y-105850000D03*
X134747500Y-105350000D03*
X134747500Y-104850000D03*
X131647500Y-104850000D03*
X131647500Y-105350000D03*
X131647500Y-105850000D03*
X131647500Y-106350000D03*
%TD*%
D10*
%TO.C,C39*%
X80655800Y-81000800D03*
X81615800Y-81000800D03*
%TD*%
%TO.C,C2*%
X136670000Y-82800000D03*
X135710000Y-82800000D03*
%TD*%
D11*
%TO.C,C24*%
X134496000Y-77920000D03*
X135456000Y-77920000D03*
%TD*%
D18*
%TO.C,C20*%
X144276000Y-79900000D03*
X144276000Y-78940000D03*
%TD*%
D11*
%TO.C,C42*%
X82060000Y-104870000D03*
X83020000Y-104870000D03*
%TD*%
D14*
%TO.C,R5*%
X96473000Y-90128700D03*
X96473000Y-89108700D03*
%TD*%
D20*
%TO.C,R4*%
X70713600Y-85346000D03*
X70713600Y-84326000D03*
%TD*%
D11*
%TO.C,C16*%
X129277500Y-97420000D03*
X130237500Y-97420000D03*
%TD*%
D10*
%TO.C,C5*%
X134130000Y-94210000D03*
X133170000Y-94210000D03*
%TD*%
D15*
%TO.C,C36*%
X71932800Y-84364000D03*
X71932800Y-85324000D03*
%TD*%
%TO.C,C37*%
X72932800Y-84364000D03*
X72932800Y-85324000D03*
%TD*%
D10*
%TO.C,C45*%
X137067500Y-97390000D03*
X136107500Y-97390000D03*
%TD*%
D21*
%TO.C,L2*%
X81786200Y-84124000D03*
X79636200Y-84124000D03*
%TD*%
D22*
%TO.C,J3*%
X67959200Y-95462400D03*
X67959200Y-95962400D03*
X67959200Y-96462400D03*
X67959200Y-96962400D03*
X67959200Y-97462400D03*
X67959200Y-97962400D03*
X67959200Y-98462400D03*
X67959200Y-98962400D03*
X67959200Y-99462400D03*
X67959200Y-99962400D03*
X67959200Y-100462400D03*
X67959200Y-100962400D03*
X67959200Y-101462400D03*
X67959200Y-101962400D03*
X67959200Y-102462400D03*
X67959200Y-102962400D03*
D23*
X65979200Y-93815400D03*
X65979200Y-104609400D03*
%TD*%
D24*
%TO.C,Q1*%
X67900000Y-90350000D03*
X68900000Y-90350000D03*
X68400000Y-88850000D03*
%TD*%
D15*
%TO.C,C21*%
X144276000Y-76990000D03*
X144276000Y-77950000D03*
%TD*%
D20*
%TO.C,R6*%
X98373000Y-90308700D03*
X98373000Y-91328700D03*
%TD*%
D15*
%TO.C,C29*%
X91690000Y-88920000D03*
X91690000Y-89880000D03*
%TD*%
D10*
%TO.C,C9*%
X138675000Y-83055000D03*
X137715000Y-83055000D03*
%TD*%
D11*
%TO.C,C44*%
X129330000Y-101260000D03*
X130290000Y-101260000D03*
%TD*%
D10*
%TO.C,C3*%
X136450000Y-93750000D03*
X135490000Y-93750000D03*
%TD*%
D11*
%TO.C,C40*%
X82500000Y-90610000D03*
X83460000Y-90610000D03*
%TD*%
D25*
%TO.C,PS2*%
X144656000Y-63470000D03*
X142116000Y-63470000D03*
X137036000Y-63470000D03*
X134496000Y-63470000D03*
X137036000Y-73670000D03*
X144656000Y-73670000D03*
%TD*%
D26*
%TO.C,J1*%
X133066000Y-115870000D03*
X134336000Y-109870000D03*
X135606000Y-115870000D03*
X136876000Y-109870000D03*
X138146000Y-115870000D03*
X139416000Y-109870000D03*
X140686000Y-115870000D03*
X141956000Y-109870000D03*
X143226000Y-115870000D03*
X144496000Y-109870000D03*
%TD*%
D27*
%TO.C,IC6*%
X75137800Y-82744000D03*
X75137800Y-83244000D03*
X75137800Y-83744000D03*
X75137800Y-84244000D03*
X76937800Y-84244000D03*
X76937800Y-83744000D03*
X76937800Y-83244000D03*
X76937800Y-82744000D03*
D28*
X76037800Y-83494000D03*
%TD*%
D12*
%TO.C,R17*%
X71922800Y-83239000D03*
X72942800Y-83239000D03*
%TD*%
D15*
%TO.C,C11*%
X148900000Y-66490000D03*
X148900000Y-67450000D03*
%TD*%
D29*
%TO.C,U4*%
X141476000Y-79870001D03*
X141476000Y-79369999D03*
X141476000Y-78870000D03*
X141476000Y-78369999D03*
X141476000Y-77869999D03*
X141476000Y-77370001D03*
X141476000Y-76869999D03*
X141476000Y-76370000D03*
X137107200Y-76369997D03*
X137107200Y-76869999D03*
X137107200Y-77369998D03*
X137107200Y-77869999D03*
X137107200Y-78369999D03*
X137107200Y-78869997D03*
X137107200Y-79369999D03*
X137107200Y-79869998D03*
%TD*%
D16*
%TO.C,IC8*%
X131700000Y-101530000D03*
X131700000Y-102030000D03*
X131700000Y-102530000D03*
X131700000Y-103030000D03*
X134800000Y-103030000D03*
X134800000Y-102530000D03*
X134800000Y-102030000D03*
X134800000Y-101530000D03*
%TD*%
D30*
%TO.C,L1*%
X126640000Y-70610000D03*
X123840000Y-70610000D03*
%TD*%
D11*
%TO.C,C7*%
X133721000Y-84558000D03*
X134681000Y-84558000D03*
%TD*%
%TO.C,C25*%
X127440000Y-67050000D03*
X128400000Y-67050000D03*
%TD*%
D10*
%TO.C,C10*%
X138675000Y-84055000D03*
X137715000Y-84055000D03*
%TD*%
D12*
%TO.C,R2*%
X68120000Y-87220000D03*
X69140000Y-87220000D03*
%TD*%
D31*
%TO.C,J5*%
X72144200Y-108462400D03*
X79694200Y-108212400D03*
X72144200Y-107962400D03*
X79694200Y-107712400D03*
X72144200Y-107462400D03*
X79694200Y-107212400D03*
X72144200Y-106962400D03*
X79694200Y-106712400D03*
X72144200Y-106462400D03*
X79694200Y-106212400D03*
X72144200Y-105962400D03*
X79694200Y-105712400D03*
X72144200Y-105462400D03*
X79694200Y-105212400D03*
X72144200Y-104962400D03*
X79694200Y-104712400D03*
X72144200Y-104462400D03*
X79694200Y-104212400D03*
X72144200Y-103962400D03*
X79694200Y-103712400D03*
X72144200Y-103462400D03*
X79694200Y-103212400D03*
X72144200Y-102962400D03*
X79694200Y-102712400D03*
X72144200Y-102462400D03*
X79694200Y-102212400D03*
X72144200Y-101962400D03*
X79694200Y-101712400D03*
X72144200Y-101462400D03*
X79694200Y-101212400D03*
X72144200Y-100962400D03*
X79694200Y-100712400D03*
X72144200Y-100462400D03*
X79694200Y-100212400D03*
X72144200Y-99962400D03*
X79694200Y-99712400D03*
X72144200Y-99462400D03*
X79694200Y-99212400D03*
X72144200Y-98962400D03*
X79694200Y-98712400D03*
X72144200Y-98462400D03*
X79694200Y-98212400D03*
X72144200Y-97962400D03*
X79694200Y-97712400D03*
X72144200Y-97462400D03*
X79694200Y-97212400D03*
X72144200Y-96962400D03*
X79694200Y-96712400D03*
X72144200Y-96462400D03*
X79694200Y-96212400D03*
X72144200Y-95962400D03*
X79694200Y-95712400D03*
X72144200Y-95462400D03*
X79694200Y-95212400D03*
X72144200Y-94962400D03*
X79694200Y-94712400D03*
X72144200Y-94462400D03*
X79694200Y-94212400D03*
X72144200Y-91962400D03*
X79694200Y-91712400D03*
X72144200Y-91462400D03*
X79694200Y-91212400D03*
X72144200Y-90962400D03*
X79694200Y-90712400D03*
X72144200Y-90462400D03*
X79694200Y-90212400D03*
X72144200Y-89962400D03*
D32*
X72919200Y-109562400D03*
X72919200Y-88862400D03*
%TD*%
D15*
%TO.C,C30*%
X92890000Y-88920000D03*
X92890000Y-89880000D03*
%TD*%
D20*
%TO.C,R12*%
X73406000Y-81125600D03*
X73406000Y-82145600D03*
%TD*%
D33*
%TO.C,U1*%
X139276000Y-86120000D03*
X138626000Y-86120000D03*
X137976000Y-86120000D03*
X137326000Y-86120000D03*
X136676000Y-86120000D03*
X136026000Y-86120000D03*
X135376000Y-86120000D03*
X134726000Y-86120000D03*
X134076000Y-86120000D03*
X133426000Y-86120000D03*
X132776000Y-86120000D03*
X132126000Y-86120000D03*
X132126000Y-91996000D03*
X132776000Y-91996000D03*
X133426000Y-91996000D03*
X134076000Y-91996000D03*
X134726000Y-91996000D03*
X135376000Y-91996000D03*
X136026000Y-91996000D03*
X136676000Y-91996000D03*
X137326000Y-91996000D03*
X137976000Y-91996000D03*
X138626000Y-91996000D03*
X139276000Y-91996000D03*
%TD*%
D11*
%TO.C,C8*%
X133721000Y-83458000D03*
X134681000Y-83458000D03*
%TD*%
M02*
