%TF.GenerationSoftware,KiCad,Pcbnew,7.0.10*%
%TF.CreationDate,2024-12-22T17:19:54-08:00*%
%TF.ProjectId,mainbox2.1,6d61696e-626f-4783-922e-312e6b696361,rev?*%
%TF.SameCoordinates,Original*%
%TF.FileFunction,Copper,L1,Top*%
%TF.FilePolarity,Positive*%
%FSLAX46Y46*%
G04 Gerber Fmt 4.6, Leading zero omitted, Abs format (unit mm)*
G04 Created by KiCad (PCBNEW 7.0.10) date 2024-12-22 17:19:54*
%MOMM*%
%LPD*%
G01*
G04 APERTURE LIST*
G04 Aperture macros list*
%AMRoundRect*
0 Rectangle with rounded corners*
0 $1 Rounding radius*
0 $2 $3 $4 $5 $6 $7 $8 $9 X,Y pos of 4 corners*
0 Add a 4 corners polygon primitive as box body*
4,1,4,$2,$3,$4,$5,$6,$7,$8,$9,$2,$3,0*
0 Add four circle primitives for the rounded corners*
1,1,$1+$1,$2,$3*
1,1,$1+$1,$4,$5*
1,1,$1+$1,$6,$7*
1,1,$1+$1,$8,$9*
0 Add four rect primitives between the rounded corners*
20,1,$1+$1,$2,$3,$4,$5,0*
20,1,$1+$1,$4,$5,$6,$7,0*
20,1,$1+$1,$6,$7,$8,$9,0*
20,1,$1+$1,$8,$9,$2,$3,0*%
G04 Aperture macros list end*
%TA.AperFunction,SMDPad,CuDef*%
%ADD10RoundRect,0.140000X0.140000X0.170000X-0.140000X0.170000X-0.140000X-0.170000X0.140000X-0.170000X0*%
%TD*%
%TA.AperFunction,ComponentPad*%
%ADD11C,5.500000*%
%TD*%
%TA.AperFunction,SMDPad,CuDef*%
%ADD12RoundRect,0.140000X-0.140000X-0.170000X0.140000X-0.170000X0.140000X0.170000X-0.140000X0.170000X0*%
%TD*%
%TA.AperFunction,SMDPad,CuDef*%
%ADD13RoundRect,0.135000X-0.135000X-0.185000X0.135000X-0.185000X0.135000X0.185000X-0.135000X0.185000X0*%
%TD*%
%TA.AperFunction,SMDPad,CuDef*%
%ADD14RoundRect,0.135000X0.135000X0.185000X-0.135000X0.185000X-0.135000X-0.185000X0.135000X-0.185000X0*%
%TD*%
%TA.AperFunction,ComponentPad*%
%ADD15R,1.700000X1.700000*%
%TD*%
%TA.AperFunction,ComponentPad*%
%ADD16O,1.700000X1.700000*%
%TD*%
%TA.AperFunction,SMDPad,CuDef*%
%ADD17RoundRect,0.135000X0.185000X-0.135000X0.185000X0.135000X-0.185000X0.135000X-0.185000X-0.135000X0*%
%TD*%
%TA.AperFunction,ComponentPad*%
%ADD18R,1.508000X1.508000*%
%TD*%
%TA.AperFunction,ComponentPad*%
%ADD19C,1.508000*%
%TD*%
%TA.AperFunction,SMDPad,CuDef*%
%ADD20RoundRect,0.140000X-0.170000X0.140000X-0.170000X-0.140000X0.170000X-0.140000X0.170000X0.140000X0*%
%TD*%
%TA.AperFunction,SMDPad,CuDef*%
%ADD21R,0.750000X0.250000*%
%TD*%
%TA.AperFunction,SMDPad,CuDef*%
%ADD22R,2.000000X1.200000*%
%TD*%
%TA.AperFunction,ComponentPad*%
%ADD23R,0.850000X0.850000*%
%TD*%
%TA.AperFunction,SMDPad,CuDef*%
%ADD24RoundRect,0.140000X0.170000X-0.140000X0.170000X0.140000X-0.170000X0.140000X-0.170000X-0.140000X0*%
%TD*%
%TA.AperFunction,SMDPad,CuDef*%
%ADD25R,1.524000X2.844800*%
%TD*%
%TA.AperFunction,SMDPad,CuDef*%
%ADD26RoundRect,0.135000X-0.185000X0.135000X-0.185000X-0.135000X0.185000X-0.135000X0.185000X0.135000X0*%
%TD*%
%TA.AperFunction,SMDPad,CuDef*%
%ADD27RoundRect,0.250000X-0.375000X-0.850000X0.375000X-0.850000X0.375000X0.850000X-0.375000X0.850000X0*%
%TD*%
%TA.AperFunction,SMDPad,CuDef*%
%ADD28R,1.600000X0.300000*%
%TD*%
%TA.AperFunction,SMDPad,CuDef*%
%ADD29R,3.120000X2.240000*%
%TD*%
%TA.AperFunction,SMDPad,CuDef*%
%ADD30R,0.400000X1.000000*%
%TD*%
%TA.AperFunction,ComponentPad*%
%ADD31RoundRect,0.250001X1.099999X1.099999X-1.099999X1.099999X-1.099999X-1.099999X1.099999X-1.099999X0*%
%TD*%
%TA.AperFunction,ComponentPad*%
%ADD32C,2.700000*%
%TD*%
%TA.AperFunction,SMDPad,CuDef*%
%ADD33R,1.200000X1.800000*%
%TD*%
%TA.AperFunction,SMDPad,CuDef*%
%ADD34R,1.200000X2.000000*%
%TD*%
%TA.AperFunction,SMDPad,CuDef*%
%ADD35R,0.500000X0.350000*%
%TD*%
%TA.AperFunction,SMDPad,CuDef*%
%ADD36R,1.000000X1.800000*%
%TD*%
%TA.AperFunction,SMDPad,CuDef*%
%ADD37R,1.397000X0.279400*%
%TD*%
%TA.AperFunction,SMDPad,CuDef*%
%ADD38R,1.651000X2.844800*%
%TD*%
%TA.AperFunction,SMDPad,CuDef*%
%ADD39RoundRect,0.250000X0.375000X1.075000X-0.375000X1.075000X-0.375000X-1.075000X0.375000X-1.075000X0*%
%TD*%
%TA.AperFunction,SMDPad,CuDef*%
%ADD40R,1.550000X0.300000*%
%TD*%
%TA.AperFunction,SMDPad,CuDef*%
%ADD41R,2.750000X1.200000*%
%TD*%
%TA.AperFunction,SMDPad,CuDef*%
%ADD42R,0.450000X1.475000*%
%TD*%
%TA.AperFunction,ComponentPad*%
%ADD43C,1.900000*%
%TD*%
%TA.AperFunction,ViaPad*%
%ADD44C,0.450000*%
%TD*%
%TA.AperFunction,ViaPad*%
%ADD45C,0.889000*%
%TD*%
%TA.AperFunction,ViaPad*%
%ADD46C,0.685800*%
%TD*%
%TA.AperFunction,Conductor*%
%ADD47C,0.200000*%
%TD*%
%TA.AperFunction,Conductor*%
%ADD48C,0.250000*%
%TD*%
%TA.AperFunction,Conductor*%
%ADD49C,0.254000*%
%TD*%
%TA.AperFunction,Conductor*%
%ADD50C,0.125000*%
%TD*%
%TA.AperFunction,Conductor*%
%ADD51C,0.508000*%
%TD*%
%TA.AperFunction,Conductor*%
%ADD52C,0.762000*%
%TD*%
%TA.AperFunction,Conductor*%
%ADD53C,0.400000*%
%TD*%
%TA.AperFunction,Conductor*%
%ADD54C,0.127000*%
%TD*%
%TA.AperFunction,Conductor*%
%ADD55C,0.152400*%
%TD*%
G04 APERTURE END LIST*
D10*
%TO.P,C23,1*%
%TO.N,9V*%
X135456000Y-76720000D03*
%TO.P,C23,2*%
%TO.N,GNDA*%
X134496000Y-76720000D03*
%TD*%
D11*
%TO.P,U$1,MOUNTING-HOLE*%
%TO.N,N/C*%
X107962500Y-99170000D03*
%TD*%
D12*
%TO.P,C26,1*%
%TO.N,5.2V*%
X127450000Y-68250000D03*
%TO.P,C26,2*%
%TO.N,GNDA*%
X128410000Y-68250000D03*
%TD*%
D13*
%TO.P,R7,1*%
%TO.N,DINXBee*%
X98463000Y-89218700D03*
%TO.P,R7,2*%
%TO.N,3V3*%
X99483000Y-89218700D03*
%TD*%
D14*
%TO.P,R1,2*%
%TO.N,Net-(IC6-FB)*%
X80627800Y-82064000D03*
%TO.P,R1,1*%
%TO.N,VCC3V3*%
X81647800Y-82064000D03*
%TD*%
D15*
%TO.P,J7,1,Pin_1*%
%TO.N,Net-(IC2-DIO6{slash}~{RTS})*%
X80264000Y-65074800D03*
D16*
%TO.P,J7,2,Pin_2*%
%TO.N,Net-(IC2-DIO9{slash}ON{slash}~{SLEEP})*%
X80264000Y-67614800D03*
%TD*%
D17*
%TO.P,R8,1*%
%TO.N,PCIE_DET_WAKE*%
X69392800Y-85396800D03*
%TO.P,R8,2*%
%TO.N,GNDA*%
X69392800Y-84376800D03*
%TD*%
D10*
%TO.P,C6,1*%
%TO.N,3V3*%
X134140000Y-95450000D03*
%TO.P,C6,2*%
%TO.N,GNDA*%
X133180000Y-95450000D03*
%TD*%
D18*
%TO.P,PS1,1,+VIN*%
%TO.N,Net-(PS1-+VIN)*%
X127240000Y-76280000D03*
D19*
%TO.P,PS1,2,GND*%
%TO.N,GNDA*%
X127240000Y-78820000D03*
%TO.P,PS1,3,+VOUT*%
%TO.N,3V3_XBEE*%
X127240000Y-81360000D03*
%TD*%
D10*
%TO.P,C46,1*%
%TO.N,GNDA*%
X137150000Y-101260000D03*
%TO.P,C46,2*%
%TO.N,5.2V*%
X136190000Y-101260000D03*
%TD*%
D20*
%TO.P,C28,1*%
%TO.N,GNDA*%
X89290000Y-88920000D03*
%TO.P,C28,2*%
%TO.N,3V3_XBEE*%
X89290000Y-89880000D03*
%TD*%
D21*
%TO.P,IC7,1,VCCA*%
%TO.N,3V3*%
X131630000Y-97690000D03*
%TO.P,IC7,2,A1*%
%TO.N,DIGITAL_OUTPUT_4*%
X131630000Y-98190000D03*
%TO.P,IC7,3,A2*%
%TO.N,DIGITAL_OUTPUT_3*%
X131630000Y-98690000D03*
%TO.P,IC7,4,GND*%
%TO.N,GNDA*%
X131630000Y-99190000D03*
%TO.P,IC7,5,DIR*%
X134730000Y-99190000D03*
%TO.P,IC7,6,B2*%
%TO.N,DIGITAL_INPUT_3*%
X134730000Y-98690000D03*
%TO.P,IC7,7,B1*%
%TO.N,DIGITAL_INPUT_4*%
X134730000Y-98190000D03*
%TO.P,IC7,8,VCCB*%
%TO.N,5.2V*%
X134730000Y-97690000D03*
%TD*%
D17*
%TO.P,R10,1*%
%TO.N,Net-(J3-Pin_1)*%
X66441200Y-89886000D03*
%TO.P,R10,2*%
%TO.N,PCIE_RST_B*%
X66441200Y-88866000D03*
%TD*%
D10*
%TO.P,C4,1*%
%TO.N,GNDA*%
X136460000Y-94940000D03*
%TO.P,C4,2*%
%TO.N,Net-(U1-REGCAPD)*%
X135500000Y-94940000D03*
%TD*%
D22*
%TO.P,J8,1,Pin_1*%
%TO.N,5VADC{slash}SENSOR*%
X142876000Y-86510000D03*
%TO.P,J8,2,Pin_2*%
%TO.N,GNDA*%
X148876000Y-87780000D03*
%TO.P,J8,3,Pin_3*%
%TO.N,AIN1*%
X142876000Y-89050000D03*
%TO.P,J8,4,Pin_4*%
%TO.N,AIN2*%
X148876000Y-90320000D03*
%TO.P,J8,5,Pin_5*%
%TO.N,AIN3*%
X142876000Y-91590000D03*
%TO.P,J8,6,Pin_6*%
%TO.N,AIN0*%
X148876000Y-92860000D03*
%TO.P,J8,7,Pin_7*%
%TO.N,DIGITAL_INPUT_4*%
X142876000Y-94130000D03*
%TO.P,J8,8,Pin_8*%
%TO.N,DIGITAL_INPUT_3*%
X148876000Y-95400000D03*
%TO.P,J8,9,Pin_9*%
%TO.N,DIGITAL_INPUT_2*%
X142876000Y-96670000D03*
%TO.P,J8,10,Pin_10*%
%TO.N,DIGITAL_INPUT_1*%
X148876000Y-97940000D03*
%TO.P,J8,11,Pin_11*%
%TO.N,5.2V*%
X142876000Y-99210000D03*
%TO.P,J8,12,Pin_12*%
%TO.N,GNDA*%
X148876000Y-100480000D03*
%TD*%
D12*
%TO.P,C41,1*%
%TO.N,VCC3V3*%
X82480000Y-89500000D03*
%TO.P,C41,2*%
%TO.N,GNDA*%
X83440000Y-89500000D03*
%TD*%
D10*
%TO.P,C1,1*%
%TO.N,Net-(U1-REGCAPA)*%
X136670000Y-83900000D03*
%TO.P,C1,2*%
%TO.N,GNDA*%
X135710000Y-83900000D03*
%TD*%
D17*
%TO.P,R15,1*%
%TO.N,PCIE_PWR_EN*%
X63510000Y-90470000D03*
%TO.P,R15,2*%
%TO.N,GNDA*%
X63510000Y-89450000D03*
%TD*%
D23*
%TO.P,J4,1,Pin_1*%
%TO.N,AIN4*%
X141276000Y-84120000D03*
%TD*%
D20*
%TO.P,C27,1*%
%TO.N,GNDA*%
X90490000Y-88920000D03*
%TO.P,C27,2*%
%TO.N,3V3_XBEE*%
X90490000Y-89880000D03*
%TD*%
D12*
%TO.P,C14,1*%
%TO.N,GNDA*%
X129310000Y-106650000D03*
%TO.P,C14,2*%
%TO.N,3V3*%
X130270000Y-106650000D03*
%TD*%
D24*
%TO.P,C43,1*%
%TO.N,VCC3V3*%
X82090000Y-107780000D03*
%TO.P,C43,2*%
%TO.N,GNDA*%
X82090000Y-106820000D03*
%TD*%
D10*
%TO.P,C15,1*%
%TO.N,GNDA*%
X137030000Y-106680000D03*
%TO.P,C15,2*%
%TO.N,5.2V*%
X136070000Y-106680000D03*
%TD*%
D25*
%TO.P,IC2,1,GND_1*%
%TO.N,GNDA*%
X91668600Y-85953600D03*
%TO.P,IC2,2,VCC*%
%TO.N,3V3_XBEE*%
X93668600Y-85953600D03*
%TO.P,IC2,3,DIO13/DOUT*%
%TO.N,DOUTXBee*%
X95668600Y-85953600D03*
%TO.P,IC2,4,DIN/DIO14/~{CONFIG}*%
%TO.N,DINXBee*%
X97668600Y-85953600D03*
%TO.P,IC2,11,GND_2*%
%TO.N,GNDA*%
X111668600Y-85953600D03*
%TO.P,IC2,13,GND_3*%
X115668600Y-85953600D03*
%TO.P,IC2,22,GND_4*%
X115668600Y-64465200D03*
%TO.P,IC2,26,DIO9/ON/~{SLEEP}*%
%TO.N,Net-(IC2-DIO9{slash}ON{slash}~{SLEEP})*%
X107668600Y-64465200D03*
%TO.P,IC2,29,DIO6/~{RTS}*%
%TO.N,Net-(IC2-DIO6{slash}~{RTS})*%
X101668600Y-64465200D03*
%TO.P,IC2,35,GND_5*%
%TO.N,GNDA*%
X89668600Y-64465200D03*
%TD*%
D21*
%TO.P,IC1,1,VCCA*%
%TO.N,5.2V*%
X134747500Y-106350000D03*
%TO.P,IC1,2,A1*%
%TO.N,IN1(5V)*%
X134747500Y-105850000D03*
%TO.P,IC1,3,A2*%
%TO.N,IN2(5V)*%
X134747500Y-105350000D03*
%TO.P,IC1,4,GND*%
%TO.N,GNDA*%
X134747500Y-104850000D03*
%TO.P,IC1,5,DIR*%
X131647500Y-104850000D03*
%TO.P,IC1,6,B2*%
%TO.N,IN2(3.3V)*%
X131647500Y-105350000D03*
%TO.P,IC1,7,B1*%
%TO.N,IN1(3.3V)*%
X131647500Y-105850000D03*
%TO.P,IC1,8,VCCB*%
%TO.N,3V3*%
X131647500Y-106350000D03*
%TD*%
D10*
%TO.P,C39,2*%
%TO.N,Net-(IC6-FB)*%
X80655800Y-81000800D03*
%TO.P,C39,1*%
%TO.N,VCC3V3*%
X81615800Y-81000800D03*
%TD*%
%TO.P,C2,1*%
%TO.N,Net-(U1-REGCAPA)*%
X136670000Y-82800000D03*
%TO.P,C2,2*%
%TO.N,GNDA*%
X135710000Y-82800000D03*
%TD*%
D12*
%TO.P,C24,1*%
%TO.N,GNDA*%
X134496000Y-77920000D03*
%TO.P,C24,2*%
%TO.N,5VRef*%
X135456000Y-77920000D03*
%TD*%
D24*
%TO.P,C20,1*%
%TO.N,GNDA*%
X144276000Y-79900000D03*
%TO.P,C20,2*%
%TO.N,Net-(U4-BYPASS)*%
X144276000Y-78940000D03*
%TD*%
D12*
%TO.P,C42,1*%
%TO.N,VCC3V3*%
X82060000Y-104870000D03*
%TO.P,C42,2*%
%TO.N,GNDA*%
X83020000Y-104870000D03*
%TD*%
D17*
%TO.P,R5,1*%
%TO.N,Net-(J10-Pin_8)*%
X96473000Y-90128700D03*
%TO.P,R5,2*%
%TO.N,DOUTXBee*%
X96473000Y-89108700D03*
%TD*%
D26*
%TO.P,R4,2*%
%TO.N,PCIE_DET_WAKE*%
X70713600Y-85346000D03*
%TO.P,R4,1*%
%TO.N,5V PCIE*%
X70713600Y-84326000D03*
%TD*%
D12*
%TO.P,C16,1*%
%TO.N,GNDA*%
X129277500Y-97420000D03*
%TO.P,C16,2*%
%TO.N,3V3*%
X130237500Y-97420000D03*
%TD*%
D10*
%TO.P,C5,1*%
%TO.N,3V3*%
X134130000Y-94210000D03*
%TO.P,C5,2*%
%TO.N,GNDA*%
X133170000Y-94210000D03*
%TD*%
D20*
%TO.P,C36,1*%
%TO.N,5.2V*%
X71932800Y-84364000D03*
%TO.P,C36,2*%
%TO.N,GNDA*%
X71932800Y-85324000D03*
%TD*%
%TO.P,C37,1*%
%TO.N,5.2V*%
X72932800Y-84364000D03*
%TO.P,C37,2*%
%TO.N,GNDA*%
X72932800Y-85324000D03*
%TD*%
D10*
%TO.P,C45,1*%
%TO.N,GNDA*%
X137067500Y-97390000D03*
%TO.P,C45,2*%
%TO.N,5.2V*%
X136107500Y-97390000D03*
%TD*%
D27*
%TO.P,L2,2,2*%
%TO.N,VCC3V3*%
X81786200Y-84124000D03*
%TO.P,L2,1,1*%
%TO.N,Net-(IC6-LX)*%
X79636200Y-84124000D03*
%TD*%
D28*
%TO.P,J3,1,Pin_1*%
%TO.N,Net-(J3-Pin_1)*%
X67959200Y-95462400D03*
%TO.P,J3,2,Pin_2*%
%TO.N,PCIE_CLKREQ_N*%
X67959200Y-95962400D03*
%TO.P,J3,3,Pin_3*%
%TO.N,PCIE_DET_WAKE*%
X67959200Y-96462400D03*
%TO.P,J3,4,Pin_4*%
%TO.N,PCIE_PWR_EN*%
X67959200Y-96962400D03*
%TO.P,J3,5,Pin_5*%
%TO.N,GNDA*%
X67959200Y-97462400D03*
%TO.P,J3,6,Pin_6*%
%TO.N,PCIE0 TX+*%
X67959200Y-97962400D03*
%TO.P,J3,7,Pin_7*%
%TO.N,PCIE0 TX-*%
X67959200Y-98462400D03*
%TO.P,J3,8,Pin_8*%
%TO.N,GNDA*%
X67959200Y-98962400D03*
%TO.P,J3,9,Pin_9*%
%TO.N,PCIE0 RX+*%
X67959200Y-99462400D03*
%TO.P,J3,10,Pin_10*%
%TO.N,PCIE0 RX-*%
X67959200Y-99962400D03*
%TO.P,J3,11,Pin_11*%
%TO.N,GNDA*%
X67959200Y-100462400D03*
%TO.P,J3,12,Pin_12*%
%TO.N,PCIE CLK+*%
X67959200Y-100962400D03*
%TO.P,J3,13,Pin_13*%
%TO.N,PCIE CLK-*%
X67959200Y-101462400D03*
%TO.P,J3,14,Pin_14*%
%TO.N,GNDA*%
X67959200Y-101962400D03*
%TO.P,J3,15,Pin_15*%
%TO.N,5V PCIE*%
X67959200Y-102462400D03*
%TO.P,J3,16,Pin_16*%
X67959200Y-102962400D03*
D29*
%TO.P,J3,MP1*%
%TO.N,N/C*%
X65979200Y-93815400D03*
%TO.P,J3,MP2*%
X65979200Y-104609400D03*
%TD*%
D30*
%TO.P,Q1,1,G*%
%TO.N,3V3_PG*%
X67900000Y-90350000D03*
%TO.P,Q1,2,S*%
%TO.N,PCIE_RST_B_SW*%
X68900000Y-90350000D03*
%TO.P,Q1,3,D*%
%TO.N,PCIE_RST_B*%
X68400000Y-88850000D03*
%TD*%
D31*
%TO.P,J6,1,Pin_1*%
%TO.N,GNDA*%
X75050000Y-78150000D03*
D32*
%TO.P,J6,2,Pin_2*%
%TO.N,5.2V*%
X71090000Y-78150000D03*
%TD*%
D20*
%TO.P,C21,1*%
%TO.N,GNDA*%
X144276000Y-76990000D03*
%TO.P,C21,2*%
%TO.N,Net-(U4-NR)*%
X144276000Y-77950000D03*
%TD*%
D26*
%TO.P,R6,1*%
%TO.N,DINXBee*%
X98373000Y-90308700D03*
%TO.P,R6,2*%
%TO.N,Net-(J10-Pin_10)*%
X98373000Y-91328700D03*
%TD*%
D20*
%TO.P,C29,1*%
%TO.N,GNDA*%
X91690000Y-88920000D03*
%TO.P,C29,2*%
%TO.N,3V3_XBEE*%
X91690000Y-89880000D03*
%TD*%
D10*
%TO.P,C9,1*%
%TO.N,GNDA*%
X138675000Y-83055000D03*
%TO.P,C9,2*%
%TO.N,5VRef*%
X137715000Y-83055000D03*
%TD*%
D12*
%TO.P,C44,1*%
%TO.N,GNDA*%
X129330000Y-101260000D03*
%TO.P,C44,2*%
%TO.N,3V3*%
X130290000Y-101260000D03*
%TD*%
D10*
%TO.P,C3,1*%
%TO.N,GNDA*%
X136450000Y-93750000D03*
%TO.P,C3,2*%
%TO.N,Net-(U1-REGCAPD)*%
X135490000Y-93750000D03*
%TD*%
D12*
%TO.P,C40,1*%
%TO.N,VCC3V3*%
X82500000Y-90610000D03*
%TO.P,C40,2*%
%TO.N,GNDA*%
X83460000Y-90610000D03*
%TD*%
D33*
%TO.P,PS2,1,-VIN*%
%TO.N,GNDA*%
X144656000Y-63470000D03*
%TO.P,PS2,2,+VIN*%
%TO.N,5.2V*%
X142116000Y-63470000D03*
%TO.P,PS2,4,COM*%
%TO.N,unconnected-(PS2-COM-Pad4)*%
X137036000Y-63470000D03*
%TO.P,PS2,5,-VOUT*%
%TO.N,GNDA*%
X134496000Y-63470000D03*
%TO.P,PS2,7,+VOUT*%
%TO.N,9V*%
X137036000Y-73670000D03*
%TO.P,PS2,10,NC*%
%TO.N,unconnected-(PS2-NC-Pad10)*%
X144656000Y-73670000D03*
%TD*%
D34*
%TO.P,J1,1,Pin_1*%
%TO.N,NAVOUT*%
X133066000Y-115870000D03*
%TO.P,J1,2,Pin_2*%
%TO.N,NAVIN*%
X134336000Y-109870000D03*
%TO.P,J1,3,Pin_3*%
%TO.N,POWER_BOARD_PORT_RXD*%
X135606000Y-115870000D03*
%TO.P,J1,4,Pin_4*%
%TO.N,POWER_BOARD_PORT_TXD*%
X136876000Y-109870000D03*
%TO.P,J1,5,Pin_5*%
%TO.N,STEERING_WHEEL_PORT_RXD*%
X138146000Y-115870000D03*
%TO.P,J1,6,Pin_6*%
%TO.N,STEERING_WHEEL_PORT_TXD*%
X139416000Y-109870000D03*
%TO.P,J1,7,Pin_7*%
%TO.N,5.2V*%
X140686000Y-115870000D03*
%TO.P,J1,8,Pin_8*%
%TO.N,GNDA*%
X141956000Y-109870000D03*
%TO.P,J1,9,Pin_9*%
%TO.N,IN1(5V)*%
X143226000Y-115870000D03*
%TO.P,J1,10,Pin_10*%
%TO.N,IN2(5V)*%
X144496000Y-109870000D03*
%TD*%
D35*
%TO.P,IC6,1,FB*%
%TO.N,Net-(IC6-FB)*%
X75137800Y-82744000D03*
%TO.P,IC6,2,PG*%
%TO.N,3V3_PG*%
X75137800Y-83244000D03*
%TO.P,IC6,3,VIN*%
%TO.N,5.2V*%
X75137800Y-83744000D03*
%TO.P,IC6,4,PGND*%
%TO.N,GNDA*%
X75137800Y-84244000D03*
%TO.P,IC6,5,NC*%
%TO.N,unconnected-(IC6-NC-Pad5)*%
X76937800Y-84244000D03*
%TO.P,IC6,6,LX*%
%TO.N,Net-(IC6-LX)*%
X76937800Y-83744000D03*
%TO.P,IC6,7,EN*%
%TO.N,PCIE_PWR_EN*%
X76937800Y-83244000D03*
%TO.P,IC6,8,SGND*%
%TO.N,GNDA*%
X76937800Y-82744000D03*
D36*
%TO.P,IC6,9,EP*%
X76037800Y-83494000D03*
%TD*%
D13*
%TO.P,R17,1*%
%TO.N,5.2V*%
X71922800Y-83239000D03*
%TO.P,R17,2*%
%TO.N,3V3_PG*%
X72942800Y-83239000D03*
%TD*%
D20*
%TO.P,C11,1*%
%TO.N,GNDA*%
X148900000Y-66490000D03*
%TO.P,C11,2*%
%TO.N,5.2V*%
X148900000Y-67450000D03*
%TD*%
D37*
%TO.P,U4,1,GND*%
%TO.N,GNDA*%
X141476000Y-79870001D03*
%TO.P,U4,2,GND*%
X141476000Y-79369999D03*
%TO.P,U4,3,BYPASS*%
%TO.N,Net-(U4-BYPASS)*%
X141476000Y-78870000D03*
%TO.P,U4,4,DNC*%
%TO.N,unconnected-(U4-DNC-Pad4)*%
X141476000Y-78369999D03*
%TO.P,U4,5,NR*%
%TO.N,Net-(U4-NR)*%
X141476000Y-77869999D03*
%TO.P,U4,6,GND*%
%TO.N,GNDA*%
X141476000Y-77370001D03*
%TO.P,U4,7,VOUT2_S*%
%TO.N,5VADC{slash}SENSOR*%
X141476000Y-76869999D03*
%TO.P,U4,8,VOUT2_F*%
X141476000Y-76370000D03*
%TO.P,U4,9,\u002AOD*%
%TO.N,9V*%
X137107200Y-76369997D03*
%TO.P,U4,10,VIN2*%
X137107200Y-76869999D03*
%TO.P,U4,11,VIN1*%
X137107200Y-77369998D03*
%TO.P,U4,12,VOUT1_F*%
%TO.N,5VRef*%
X137107200Y-77869999D03*
%TO.P,U4,13,VOUT1_S*%
X137107200Y-78369999D03*
%TO.P,U4,14,VIN*%
%TO.N,9V*%
X137107200Y-78869997D03*
%TO.P,U4,15,NC*%
%TO.N,unconnected-(U4-NC-Pad15)*%
X137107200Y-79369999D03*
%TO.P,U4,16,DNC*%
%TO.N,unconnected-(U4-DNC-Pad16)*%
X137107200Y-79869998D03*
D38*
%TO.P,U4,EPAD,EPAD*%
%TO.N,GNDA*%
X139291600Y-78119999D03*
%TD*%
D21*
%TO.P,IC8,1,VCCA*%
%TO.N,3V3*%
X131700000Y-101530000D03*
%TO.P,IC8,2,A1*%
%TO.N,DIGITAL_OUTPUT_2*%
X131700000Y-102030000D03*
%TO.P,IC8,3,A2*%
%TO.N,DIGITAL_OUTPUT_1*%
X131700000Y-102530000D03*
%TO.P,IC8,4,GND*%
%TO.N,GNDA*%
X131700000Y-103030000D03*
%TO.P,IC8,5,DIR*%
X134800000Y-103030000D03*
%TO.P,IC8,6,B2*%
%TO.N,DIGITAL_INPUT_1*%
X134800000Y-102530000D03*
%TO.P,IC8,7,B1*%
%TO.N,DIGITAL_INPUT_2*%
X134800000Y-102030000D03*
%TO.P,IC8,8,VCCB*%
%TO.N,5.2V*%
X134800000Y-101530000D03*
%TD*%
D39*
%TO.P,L1,1,1*%
%TO.N,5.2V*%
X126640000Y-70610000D03*
%TO.P,L1,2,2*%
%TO.N,Net-(PS1-+VIN)*%
X123840000Y-70610000D03*
%TD*%
D12*
%TO.P,C7,1*%
%TO.N,GNDA*%
X133721000Y-84558000D03*
%TO.P,C7,2*%
%TO.N,5VADC{slash}SENSOR*%
X134681000Y-84558000D03*
%TD*%
%TO.P,C25,1*%
%TO.N,5.2V*%
X127440000Y-67050000D03*
%TO.P,C25,2*%
%TO.N,GNDA*%
X128400000Y-67050000D03*
%TD*%
D10*
%TO.P,C10,1*%
%TO.N,GNDA*%
X138675000Y-84055000D03*
%TO.P,C10,2*%
%TO.N,5VRef*%
X137715000Y-84055000D03*
%TD*%
D13*
%TO.P,R2,1*%
%TO.N,GNDA*%
X68120000Y-87220000D03*
%TO.P,R2,2*%
%TO.N,PCIE_RST_B_SW*%
X69140000Y-87220000D03*
%TD*%
D40*
%TO.P,J5,1,1*%
%TO.N,GNDA*%
X72144200Y-108462400D03*
%TO.P,J5,2,2*%
%TO.N,VCC3V3*%
X79694200Y-108212400D03*
%TO.P,J5,3,3*%
%TO.N,GNDA*%
X72144200Y-107962400D03*
%TO.P,J5,4,4*%
%TO.N,VCC3V3*%
X79694200Y-107712400D03*
%TO.P,J5,5,5*%
%TO.N,unconnected-(J5-Pad5)*%
X72144200Y-107462400D03*
%TO.P,J5,6,6*%
%TO.N,unconnected-(J5-Pad6)*%
X79694200Y-107212400D03*
%TO.P,J5,7,7*%
%TO.N,unconnected-(J5-Pad7)*%
X72144200Y-106962400D03*
%TO.P,J5,8,8*%
%TO.N,unconnected-(J5-Pad8)*%
X79694200Y-106712400D03*
%TO.P,J5,9,9*%
%TO.N,GNDA*%
X72144200Y-106462400D03*
%TO.P,J5,10,10*%
%TO.N,unconnected-(J5-Pad10)*%
X79694200Y-106212400D03*
%TO.P,J5,11,11*%
%TO.N,unconnected-(J5-Pad11)*%
X72144200Y-105962400D03*
%TO.P,J5,12,12*%
%TO.N,VCC3V3*%
X79694200Y-105712400D03*
%TO.P,J5,13,13*%
%TO.N,unconnected-(J5-Pad13)*%
X72144200Y-105462400D03*
%TO.P,J5,14,14*%
%TO.N,VCC3V3*%
X79694200Y-105212400D03*
%TO.P,J5,15,15*%
%TO.N,GNDA*%
X72144200Y-104962400D03*
%TO.P,J5,16,16*%
%TO.N,VCC3V3*%
X79694200Y-104712400D03*
%TO.P,J5,17,17*%
%TO.N,unconnected-(J5-Pad17)*%
X72144200Y-104462400D03*
%TO.P,J5,18,18*%
%TO.N,VCC3V3*%
X79694200Y-104212400D03*
%TO.P,J5,19,19*%
%TO.N,unconnected-(J5-Pad19)*%
X72144200Y-103962400D03*
%TO.P,J5,20,20*%
%TO.N,unconnected-(J5-Pad20)*%
X79694200Y-103712400D03*
%TO.P,J5,21,21*%
%TO.N,GNDA*%
X72144200Y-103462400D03*
%TO.P,J5,22,22*%
%TO.N,unconnected-(J5-Pad22)*%
X79694200Y-103212400D03*
%TO.P,J5,23,23*%
%TO.N,unconnected-(J5-Pad23)*%
X72144200Y-102962400D03*
%TO.P,J5,24,24*%
%TO.N,unconnected-(J5-Pad24)*%
X79694200Y-102712400D03*
%TO.P,J5,25,25*%
%TO.N,unconnected-(J5-Pad25)*%
X72144200Y-102462400D03*
%TO.P,J5,26,26*%
%TO.N,unconnected-(J5-Pad26)*%
X79694200Y-102212400D03*
%TO.P,J5,27,27*%
%TO.N,GNDA*%
X72144200Y-101962400D03*
%TO.P,J5,28,28*%
%TO.N,unconnected-(J5-Pad28)*%
X79694200Y-101712400D03*
%TO.P,J5,29,29*%
%TO.N,unconnected-(J5-Pad29)*%
X72144200Y-101462400D03*
%TO.P,J5,30,30*%
%TO.N,unconnected-(J5-Pad30)*%
X79694200Y-101212400D03*
%TO.P,J5,31,31*%
%TO.N,unconnected-(J5-Pad31)*%
X72144200Y-100962400D03*
%TO.P,J5,32,32*%
%TO.N,unconnected-(J5-Pad32)*%
X79694200Y-100712400D03*
%TO.P,J5,33,33*%
%TO.N,GNDA*%
X72144200Y-100462400D03*
%TO.P,J5,34,34*%
%TO.N,unconnected-(J5-Pad34)*%
X79694200Y-100212400D03*
%TO.P,J5,35,35*%
%TO.N,unconnected-(J5-Pad35)*%
X72144200Y-99962400D03*
%TO.P,J5,36,36*%
%TO.N,unconnected-(J5-Pad36)*%
X79694200Y-99712400D03*
%TO.P,J5,37,37*%
%TO.N,unconnected-(J5-Pad37)*%
X72144200Y-99462400D03*
%TO.P,J5,38,38*%
%TO.N,unconnected-(J5-Pad38)*%
X79694200Y-99212400D03*
%TO.P,J5,39,39*%
%TO.N,GNDA*%
X72144200Y-98962400D03*
%TO.P,J5,40,40*%
%TO.N,unconnected-(J5-Pad40)*%
X79694200Y-98712400D03*
%TO.P,J5,41,41*%
%TO.N,PCIE0 RX-*%
X72144200Y-98462400D03*
%TO.P,J5,42,42*%
%TO.N,unconnected-(J5-Pad42)*%
X79694200Y-98212400D03*
%TO.P,J5,43,43*%
%TO.N,PCIE0 RX+*%
X72144200Y-97962400D03*
%TO.P,J5,44,44*%
%TO.N,unconnected-(J5-Pad44)*%
X79694200Y-97712400D03*
%TO.P,J5,45,45*%
%TO.N,GNDA*%
X72144200Y-97462400D03*
%TO.P,J5,46,46*%
%TO.N,unconnected-(J5-Pad46)*%
X79694200Y-97212400D03*
%TO.P,J5,47,47*%
%TO.N,PCIE0 TX-*%
X72144200Y-96962400D03*
%TO.P,J5,48,48*%
%TO.N,unconnected-(J5-Pad48)*%
X79694200Y-96712400D03*
%TO.P,J5,49,49*%
%TO.N,PCIE0 TX+*%
X72144200Y-96462400D03*
%TO.P,J5,50,50*%
%TO.N,PCIE_RST_B_SW*%
X79694200Y-96212400D03*
%TO.P,J5,51,51*%
%TO.N,GNDA*%
X72144200Y-95962400D03*
%TO.P,J5,52,52*%
%TO.N,PCIE_CLKREQ_N*%
X79694200Y-95712400D03*
%TO.P,J5,53,53*%
%TO.N,PCIE CLK-*%
X72144200Y-95462400D03*
%TO.P,J5,54,54*%
%TO.N,unconnected-(J5-Pad54)*%
X79694200Y-95212400D03*
%TO.P,J5,55,55*%
%TO.N,PCIE CLK+*%
X72144200Y-94962400D03*
%TO.P,J5,56,56*%
%TO.N,unconnected-(J5-Pad56)*%
X79694200Y-94712400D03*
%TO.P,J5,57,57*%
%TO.N,GNDA*%
X72144200Y-94462400D03*
%TO.P,J5,58,58*%
%TO.N,unconnected-(J5-Pad58)*%
X79694200Y-94212400D03*
%TO.P,J5,67,67*%
%TO.N,unconnected-(J5-Pad67)*%
X72144200Y-91962400D03*
%TO.P,J5,68,68*%
%TO.N,unconnected-(J5-Pad68)*%
X79694200Y-91712400D03*
%TO.P,J5,69,69*%
%TO.N,unconnected-(J5-Pad69)*%
X72144200Y-91462400D03*
%TO.P,J5,70,70*%
%TO.N,VCC3V3*%
X79694200Y-91212400D03*
%TO.P,J5,71,71*%
%TO.N,GNDA*%
X72144200Y-90962400D03*
%TO.P,J5,72,72*%
%TO.N,VCC3V3*%
X79694200Y-90712400D03*
%TO.P,J5,73,73*%
%TO.N,GNDA*%
X72144200Y-90462400D03*
%TO.P,J5,74,74*%
%TO.N,VCC3V3*%
X79694200Y-90212400D03*
%TO.P,J5,75,75*%
%TO.N,GNDA*%
X72144200Y-89962400D03*
D41*
%TO.P,J5,MP1,MP1*%
X72919200Y-109562400D03*
%TO.P,J5,MP2,MP2*%
X72919200Y-88862400D03*
%TD*%
D20*
%TO.P,C30,1*%
%TO.N,GNDA*%
X92890000Y-88920000D03*
%TO.P,C30,2*%
%TO.N,3V3_XBEE*%
X92890000Y-89880000D03*
%TD*%
D26*
%TO.P,R12,1*%
%TO.N,GNDA*%
X73406000Y-81125600D03*
%TO.P,R12,2*%
%TO.N,Net-(IC6-FB)*%
X73406000Y-82145600D03*
%TD*%
D42*
%TO.P,U1,1,AIN4*%
%TO.N,AIN4*%
X139276000Y-86120000D03*
%TO.P,U1,2,REF-*%
%TO.N,GNDA*%
X138626000Y-86120000D03*
%TO.P,U1,3,REF+*%
%TO.N,5VRef*%
X137976000Y-86120000D03*
%TO.P,U1,4,REFOUT*%
%TO.N,unconnected-(U1-REFOUT-Pad4)*%
X137326000Y-86120000D03*
%TO.P,U1,5,REGCAPA*%
%TO.N,Net-(U1-REGCAPA)*%
X136676000Y-86120000D03*
%TO.P,U1,6,AVSS*%
%TO.N,GNDA*%
X136026000Y-86120000D03*
%TO.P,U1,7,AVDD1*%
%TO.N,5VADC{slash}SENSOR*%
X135376000Y-86120000D03*
%TO.P,U1,8,AVDD2*%
X134726000Y-86120000D03*
%TO.P,U1,9,XTAL1*%
%TO.N,unconnected-(U1-XTAL1-Pad9)*%
X134076000Y-86120000D03*
%TO.P,U1,10,XTAL2/CLKIO*%
%TO.N,unconnected-(U1-XTAL2{slash}CLKIO-Pad10)*%
X133426000Y-86120000D03*
%TO.P,U1,11,DOUT/\u002ARDY*%
%TO.N,ADC_SPI_DOUT*%
X132776000Y-86120000D03*
%TO.P,U1,12,DIN*%
%TO.N,ADC_SPI_DIN*%
X132126000Y-86120000D03*
%TO.P,U1,13,SCLK*%
%TO.N,SCLK*%
X132126000Y-91996000D03*
%TO.P,U1,14,\u002ACS*%
%TO.N,RPi_SPI_CS*%
X132776000Y-91996000D03*
%TO.P,U1,15,\u002ASYNC/\u002AERROR*%
%TO.N,GNDA*%
X133426000Y-91996000D03*
%TO.P,U1,16,IOVDD*%
%TO.N,3V3*%
X134076000Y-91996000D03*
%TO.P,U1,17,DGND*%
%TO.N,GNDA*%
X134726000Y-91996000D03*
%TO.P,U1,18,REGCAPD*%
%TO.N,Net-(U1-REGCAPD)*%
X135376000Y-91996000D03*
%TO.P,U1,19,GPIO0*%
%TO.N,unconnected-(U1-GPIO0-Pad19)*%
X136026000Y-91996000D03*
%TO.P,U1,20,GPIO1*%
%TO.N,unconnected-(U1-GPIO1-Pad20)*%
X136676000Y-91996000D03*
%TO.P,U1,21,AIN0*%
%TO.N,AIN0*%
X137326000Y-91996000D03*
%TO.P,U1,22,AIN1*%
%TO.N,AIN1*%
X137976000Y-91996000D03*
%TO.P,U1,23,AIN2*%
%TO.N,AIN2*%
X138626000Y-91996000D03*
%TO.P,U1,24,AIN3*%
%TO.N,AIN3*%
X139276000Y-91996000D03*
%TD*%
D12*
%TO.P,C8,1*%
%TO.N,GNDA*%
X133721000Y-83458000D03*
%TO.P,C8,2*%
%TO.N,5VADC{slash}SENSOR*%
X134681000Y-83458000D03*
%TD*%
D43*
%TO.P,J10,2,Pin_2*%
%TO.N,5.2V*%
X70046000Y-115380000D03*
%TO.P,J10,4,Pin_4*%
X72586000Y-115380000D03*
%TO.P,J10,6,Pin_6*%
%TO.N,GNDA*%
X75126000Y-115380000D03*
%TO.P,J10,7,Pin_7*%
%TO.N,STEERING_WHEEL_PORT_TXD*%
X77666000Y-112840000D03*
%TO.P,J10,8,Pin_8*%
%TO.N,Net-(J10-Pin_8)*%
X77666000Y-115380000D03*
%TO.P,J10,9,Pin_9*%
%TO.N,GNDA*%
X80206000Y-112840000D03*
%TO.P,J10,10,Pin_10*%
%TO.N,Net-(J10-Pin_10)*%
X80206000Y-115380000D03*
%TO.P,J10,13,Pin_13*%
%TO.N,DIGITAL_OUTPUT_4*%
X85286000Y-112840000D03*
%TO.P,J10,14,Pin_14*%
%TO.N,GNDA*%
X85286000Y-115380000D03*
%TO.P,J10,15,Pin_15*%
%TO.N,DIGITAL_OUTPUT_3*%
X87826000Y-112840000D03*
%TO.P,J10,17,Pin_17*%
%TO.N,3V3*%
X90366000Y-112840000D03*
%TO.P,J10,19,Pin_19*%
%TO.N,ADC_SPI_DIN*%
X92906000Y-112840000D03*
%TO.P,J10,20,Pin_20*%
%TO.N,GNDA*%
X92906000Y-115380000D03*
%TO.P,J10,21,Pin_21*%
%TO.N,ADC_SPI_DOUT*%
X95446000Y-112840000D03*
%TO.P,J10,22,Pin_22*%
%TO.N,DIGITAL_OUTPUT_2*%
X95446000Y-115380000D03*
%TO.P,J10,23,Pin_23*%
%TO.N,SCLK*%
X97986000Y-112840000D03*
%TO.P,J10,24,Pin_24*%
%TO.N,RPi_SPI_CS*%
X97986000Y-115380000D03*
%TO.P,J10,25,Pin_25*%
%TO.N,GNDA*%
X100526000Y-112840000D03*
%TO.P,J10,26,Pin_26*%
%TO.N,DIGITAL_OUTPUT_1*%
X100526000Y-115380000D03*
%TO.P,J10,27,Pin_27*%
%TO.N,POWER_BOARD_PORT_TXD*%
X103066000Y-112840000D03*
%TO.P,J10,28,Pin_28*%
%TO.N,POWER_BOARD_PORT_RXD*%
X103066000Y-115380000D03*
%TO.P,J10,29,Pin_29*%
%TO.N,STEERING_WHEEL_PORT_RXD*%
X105606000Y-112840000D03*
%TO.P,J10,30,Pin_30*%
%TO.N,GNDA*%
X105606000Y-115380000D03*
%TO.P,J10,32,Pin_32*%
%TO.N,NAVOUT*%
X108146000Y-115380000D03*
%TO.P,J10,33,Pin_33*%
%TO.N,NAVIN*%
X110686000Y-112840000D03*
%TO.P,J10,34,Pin_34*%
%TO.N,GNDA*%
X110686000Y-115380000D03*
%TO.P,J10,35,Pin_35*%
%TO.N,IN2(3.3V)*%
X113226000Y-112840000D03*
%TO.P,J10,37,Pin_37*%
%TO.N,IN1(3.3V)*%
X115766000Y-112840000D03*
%TD*%
D44*
%TO.N,GNDA*%
X95770000Y-106480000D03*
X104020000Y-99010000D03*
X104190000Y-95610000D03*
X101030000Y-98680000D03*
X98140000Y-101400000D03*
X104070000Y-100610000D03*
X104820000Y-104710000D03*
X100620000Y-103740000D03*
X105190000Y-108710000D03*
X63280000Y-105730000D03*
X149250000Y-111370000D03*
X62720000Y-67020000D03*
X126760000Y-103870000D03*
X142150000Y-69980000D03*
X142770000Y-79440000D03*
X66030000Y-79220000D03*
X128740000Y-89010000D03*
X110520000Y-110040000D03*
X70930000Y-103490000D03*
X120070000Y-116030000D03*
X92690000Y-78640000D03*
X76900000Y-81110000D03*
X67420000Y-84410000D03*
X116690000Y-115040000D03*
X66360000Y-67790000D03*
X65740000Y-82700000D03*
X133440000Y-93310000D03*
X73350000Y-94470000D03*
X126580000Y-63270000D03*
X122170000Y-78740000D03*
X70160000Y-90470000D03*
X137860000Y-106660000D03*
X66680000Y-109340000D03*
X74980000Y-87300000D03*
X135700000Y-81980000D03*
X77600000Y-91400000D03*
X78930000Y-79160000D03*
X66250000Y-107510000D03*
X70410000Y-109530000D03*
X63040000Y-69720000D03*
X122720000Y-95880000D03*
X90480000Y-88120000D03*
X145530000Y-104870000D03*
X113300000Y-69360000D03*
X98820000Y-75510000D03*
X77590000Y-96520000D03*
X135420000Y-84710000D03*
X70350000Y-108490000D03*
X84190000Y-94490000D03*
X84360000Y-90590000D03*
X114350000Y-82330000D03*
X84460000Y-85110000D03*
X83870000Y-104810000D03*
D45*
X141980000Y-108000000D03*
D44*
X138040000Y-101270000D03*
X119110000Y-112130000D03*
X132310000Y-94190000D03*
X94770000Y-110540000D03*
X113540000Y-114750000D03*
X122240000Y-83290000D03*
X71030000Y-100450000D03*
X118210000Y-82630000D03*
X70900000Y-107960000D03*
D45*
X146376000Y-100520000D03*
D44*
X99120000Y-98650000D03*
X135810000Y-104660000D03*
X76190000Y-113050000D03*
X145130000Y-116490000D03*
X146630000Y-69140000D03*
X75150000Y-101950000D03*
D45*
X129480000Y-67050000D03*
D44*
X135800000Y-99230000D03*
X72920000Y-71860000D03*
D45*
X134476000Y-65620000D03*
D44*
X94820000Y-102920000D03*
X89530000Y-107970000D03*
X139140000Y-63580000D03*
X69220000Y-97440000D03*
X115650000Y-88480000D03*
X62850000Y-99840000D03*
X66420000Y-72230000D03*
X87530000Y-115660000D03*
X94530000Y-74250000D03*
X74750000Y-107320000D03*
X108680000Y-68270000D03*
X116580000Y-96380000D03*
X125350000Y-110570000D03*
X84380000Y-87200000D03*
X62990000Y-72380000D03*
X62610000Y-86150000D03*
X84110000Y-97520000D03*
X137850000Y-97390000D03*
X142660000Y-80400000D03*
X91180000Y-63040000D03*
X99320000Y-107360000D03*
X97440000Y-79360000D03*
X70370000Y-88840000D03*
X75290000Y-91440000D03*
X116830000Y-73860000D03*
X110050000Y-107260000D03*
X80890000Y-92650000D03*
X89310000Y-88060000D03*
X133750000Y-77970000D03*
X115630000Y-104040000D03*
X128530000Y-101260000D03*
X104300000Y-76170000D03*
D45*
X148876000Y-84920000D03*
X138860000Y-75770000D03*
D44*
X101880000Y-106380000D03*
X125300000Y-83590000D03*
X131260000Y-94260000D03*
X139480000Y-83060000D03*
X132250000Y-95490000D03*
X121240000Y-103760000D03*
X92100000Y-105680000D03*
D45*
X129390000Y-68250000D03*
D44*
X71010000Y-101940000D03*
X68570000Y-69000000D03*
X77790000Y-104900000D03*
X72920000Y-74910000D03*
X149280000Y-102870000D03*
X118860000Y-69940000D03*
X62990000Y-83150000D03*
X82330000Y-115510000D03*
X133630000Y-76710000D03*
X129560000Y-84180000D03*
X111660000Y-88340000D03*
X133048389Y-84088721D03*
X82910000Y-106690000D03*
X69140000Y-101960000D03*
X134540000Y-70790000D03*
X96280000Y-70290000D03*
X74220000Y-81050000D03*
X80980000Y-77970000D03*
X130560000Y-99300000D03*
X76980000Y-74990000D03*
X68330000Y-81240000D03*
X117220000Y-106660000D03*
X139430000Y-84040000D03*
X119550000Y-66840000D03*
X112550000Y-64660000D03*
X69370000Y-83500000D03*
X110500000Y-76170000D03*
X68540000Y-110120000D03*
X77590000Y-98970000D03*
X90180000Y-73690000D03*
D45*
X89310000Y-86770000D03*
D44*
X73390000Y-96270000D03*
X128580000Y-86430000D03*
X84020000Y-102650000D03*
X128470000Y-97450000D03*
X75380000Y-73620000D03*
X144260000Y-80710000D03*
X135880000Y-103110000D03*
X66530000Y-75890000D03*
X91690000Y-88140000D03*
X132120000Y-65080000D03*
X83340000Y-79800000D03*
X137190000Y-94970000D03*
X70990000Y-90960000D03*
X142990000Y-77270000D03*
X69190000Y-98960000D03*
X116070000Y-77720000D03*
X122710000Y-107360000D03*
X84420000Y-89460000D03*
X106110000Y-71320000D03*
X72920000Y-86030000D03*
X107420000Y-106800000D03*
X78410000Y-86420000D03*
X70950000Y-89940000D03*
D45*
X144676000Y-65620000D03*
D44*
X102480000Y-79920000D03*
X101610000Y-111240000D03*
X136020000Y-84740000D03*
X90970000Y-70200000D03*
X101230000Y-70820000D03*
X132960000Y-83470000D03*
X129180000Y-93380000D03*
X91530000Y-110950000D03*
X108190000Y-80160000D03*
X70980000Y-105000000D03*
X107290000Y-109810000D03*
X100690000Y-97040000D03*
X63010000Y-96910000D03*
X63040000Y-74910000D03*
X130010000Y-72090000D03*
X74480000Y-111770000D03*
X149350000Y-107350000D03*
X140900000Y-103500000D03*
X128460000Y-106660000D03*
X62830000Y-77920000D03*
X110960000Y-72370000D03*
X126760000Y-107740000D03*
X122100000Y-73190000D03*
X77730000Y-101830000D03*
X137200000Y-93740000D03*
X127330000Y-112900000D03*
X65500000Y-69850000D03*
X96960000Y-100580000D03*
D46*
X145176000Y-77720000D03*
D44*
X140870000Y-71140000D03*
X112730000Y-105260000D03*
X70990000Y-98960000D03*
X74900000Y-104710000D03*
X65130000Y-85220000D03*
X117950000Y-100400000D03*
X70220000Y-73710000D03*
X108470000Y-111950000D03*
X84090000Y-100440000D03*
X98880000Y-109450000D03*
X133520000Y-68630000D03*
X113680000Y-101040000D03*
X110660000Y-103550000D03*
X138220000Y-71040000D03*
X140160000Y-67790000D03*
X136760000Y-65930000D03*
X149250000Y-115100000D03*
X84210000Y-91690000D03*
X71950000Y-86060000D03*
X62990000Y-80580000D03*
X138630000Y-84870000D03*
X128910000Y-73920000D03*
X84650000Y-81500000D03*
X63470000Y-88540000D03*
X147100000Y-71440000D03*
X71010000Y-97450000D03*
X67000000Y-87290000D03*
X129590000Y-116200000D03*
X62730000Y-93450000D03*
X75610000Y-96120000D03*
X125500000Y-94310000D03*
X64840000Y-98040000D03*
X69200000Y-100460000D03*
X130580000Y-104720000D03*
X117270000Y-62960000D03*
X148860000Y-65560000D03*
X131290000Y-89410000D03*
X134700000Y-93340000D03*
X130520000Y-103190000D03*
X64870000Y-101770000D03*
X70720000Y-70330000D03*
X92850000Y-88140000D03*
X90000000Y-115460000D03*
X76040000Y-85920000D03*
X111630000Y-96870000D03*
X88430000Y-77550000D03*
X124470000Y-100850000D03*
X136670000Y-67460000D03*
X75320000Y-98980000D03*
X70950000Y-106480000D03*
X73750000Y-84720000D03*
X78950000Y-76560000D03*
X77980000Y-107240000D03*
%TO.N,3V3*%
X130220000Y-96480000D03*
X111480000Y-91730000D03*
X130250000Y-107540000D03*
X133910000Y-96520000D03*
X130320000Y-100340000D03*
D46*
%TO.N,5VADC{slash}SENSOR*%
X134776000Y-82520000D03*
X140476000Y-75020000D03*
D45*
%TO.N,5.2V*%
X142876000Y-65820000D03*
X140976000Y-65020000D03*
X145376000Y-99220000D03*
D44*
X136100000Y-107470000D03*
D45*
X140720000Y-113840000D03*
D44*
X136180000Y-100370000D03*
D45*
X141676000Y-65820000D03*
X128150000Y-65540000D03*
D44*
X136070000Y-96440000D03*
%TO.N,VCC3V3*%
X81540000Y-88360000D03*
%TO.N,IN2(3.3V)*%
X128160000Y-105120000D03*
%TO.N,IN1(3.3V)*%
X127320000Y-105910000D03*
%TO.N,DIGITAL_OUTPUT_3*%
X126860000Y-99410000D03*
%TO.N,DIGITAL_OUTPUT_4*%
X126830000Y-98390000D03*
%TO.N,POWER_BOARD_PORT_RXD*%
X132430000Y-112540000D03*
%TO.N,POWER_BOARD_PORT_TXD*%
X132880000Y-111780000D03*
%TO.N,STEERING_WHEEL_PORT_TXD*%
X139230000Y-111470000D03*
%TO.N,PCIE_PWR_EN*%
X78760000Y-82260000D03*
X63470000Y-91390000D03*
%TO.N,3V3_PG*%
X67450000Y-91700000D03*
X72630000Y-82150000D03*
%TO.N,PCIE CLK-*%
X70410000Y-101540000D03*
X74380000Y-96510000D03*
%TO.N,PCIE CLK+*%
X69896051Y-100921732D03*
X73900000Y-95300000D03*
%TO.N,5V PCIE*%
X70640000Y-83400000D03*
X66300000Y-102760000D03*
%TD*%
D47*
%TO.N,NAVOUT*%
X133066000Y-114670000D02*
X133066000Y-115870000D01*
X129576000Y-111180000D02*
X133066000Y-114670000D01*
X111890000Y-112400000D02*
X113110000Y-111180000D01*
X111400000Y-114120000D02*
X111890000Y-113630000D01*
X113110000Y-111180000D02*
X129576000Y-111180000D01*
X109406000Y-114120000D02*
X111400000Y-114120000D01*
X111890000Y-113630000D02*
X111890000Y-112400000D01*
X108146000Y-115380000D02*
X109406000Y-114120000D01*
D48*
%TO.N,RPi_SPI_CS*%
X132776000Y-92812500D02*
X132776000Y-91996000D01*
X132603000Y-92985500D02*
X132776000Y-92812500D01*
X125050000Y-98380000D02*
X130444500Y-92985500D01*
X102740000Y-110240000D02*
X114600000Y-98380000D01*
X101420000Y-110240000D02*
X102740000Y-110240000D01*
X99310000Y-112350000D02*
X101420000Y-110240000D01*
X114600000Y-98380000D02*
X125050000Y-98380000D01*
X99310000Y-114056000D02*
X99310000Y-112350000D01*
X97986000Y-115380000D02*
X99310000Y-114056000D01*
X130444500Y-92985500D02*
X132603000Y-92985500D01*
D47*
%TO.N,DIGITAL_OUTPUT_2*%
X96666000Y-116600000D02*
X95446000Y-115380000D01*
X99230000Y-115990000D02*
X98620000Y-116600000D01*
X99230000Y-114960000D02*
X99230000Y-115990000D01*
X101070000Y-114090000D02*
X100100000Y-114090000D01*
X100100000Y-114090000D02*
X99230000Y-114960000D01*
X101770000Y-111970000D02*
X101770000Y-113390000D01*
X103000000Y-110740000D02*
X101770000Y-111970000D01*
X101770000Y-113390000D02*
X101070000Y-114090000D01*
X104307552Y-110740000D02*
X103000000Y-110740000D01*
X98620000Y-116600000D02*
X96666000Y-116600000D01*
X113017552Y-102030000D02*
X104307552Y-110740000D01*
X131700000Y-102030000D02*
X113017552Y-102030000D01*
%TO.N,DIGITAL_OUTPUT_1*%
X101726000Y-114180000D02*
X100526000Y-115380000D01*
X103700000Y-114180000D02*
X101726000Y-114180000D01*
X104400000Y-113480000D02*
X103700000Y-114180000D01*
X104400000Y-111350000D02*
X104400000Y-113480000D01*
X113220000Y-102530000D02*
X104400000Y-111350000D01*
X131700000Y-102530000D02*
X113220000Y-102530000D01*
%TO.N,Net-(J10-Pin_8)*%
X78946000Y-114100000D02*
X77666000Y-115380000D01*
X80855109Y-114100000D02*
X78946000Y-114100000D01*
X96473000Y-98482109D02*
X80855109Y-114100000D01*
X96473000Y-90128700D02*
X96473000Y-98482109D01*
D48*
%TO.N,SCLK*%
X114770000Y-97260000D02*
X123980000Y-97260000D01*
X123980000Y-97260000D02*
X129244000Y-91996000D01*
X101356000Y-109470000D02*
X102560000Y-109470000D01*
X102560000Y-109470000D02*
X114770000Y-97260000D01*
X97986000Y-112840000D02*
X101356000Y-109470000D01*
X129244000Y-91996000D02*
X132126000Y-91996000D01*
%TO.N,ADC_SPI_DIN*%
X130606000Y-87640000D02*
X132126000Y-86120000D01*
X120430000Y-95160000D02*
X127950000Y-87640000D01*
X106000000Y-95160000D02*
X120430000Y-95160000D01*
X92906000Y-108254000D02*
X106000000Y-95160000D01*
X92906000Y-112840000D02*
X92906000Y-108254000D01*
X127950000Y-87640000D02*
X130606000Y-87640000D01*
%TO.N,ADC_SPI_DOUT*%
X96470000Y-105430000D02*
X96470000Y-111816000D01*
X128250000Y-88070000D02*
X120730000Y-95590000D01*
X120730000Y-95590000D02*
X106310000Y-95590000D01*
X96470000Y-111816000D02*
X95446000Y-112840000D01*
X131813500Y-88070000D02*
X128250000Y-88070000D01*
X106310000Y-95590000D02*
X96470000Y-105430000D01*
X132776000Y-87107500D02*
X131813500Y-88070000D01*
X132776000Y-86120000D02*
X132776000Y-87107500D01*
D47*
%TO.N,3V3*%
X102810000Y-91770000D02*
X102810000Y-95740000D01*
X100258700Y-89218700D02*
X102810000Y-91770000D01*
X99483000Y-89218700D02*
X100258700Y-89218700D01*
X106820000Y-91730000D02*
X111480000Y-91730000D01*
X90366000Y-108184000D02*
X106820000Y-91730000D01*
X90366000Y-112840000D02*
X90366000Y-108184000D01*
D48*
%TO.N,Net-(U1-REGCAPA)*%
X136676000Y-83906000D02*
X136670000Y-83900000D01*
D49*
X136665000Y-83905000D02*
X136670000Y-83900000D01*
D48*
X136670000Y-83900000D02*
X136670000Y-82800000D01*
X136676000Y-86120000D02*
X136676000Y-83906000D01*
%TO.N,GNDA*%
X141476000Y-79369999D02*
X142699999Y-79369999D01*
D47*
X129310000Y-106650000D02*
X128470000Y-106650000D01*
X68120000Y-87220000D02*
X67070000Y-87220000D01*
D48*
X136460000Y-94940000D02*
X137160000Y-94940000D01*
D47*
X72144200Y-90962400D02*
X70992400Y-90962400D01*
X82090000Y-106820000D02*
X82780000Y-106820000D01*
X70992400Y-98962400D02*
X70990000Y-98960000D01*
X67959200Y-98962400D02*
X69187600Y-98962400D01*
D49*
X144276000Y-76990000D02*
X144446000Y-76990000D01*
D47*
X72144200Y-101962400D02*
X71032400Y-101962400D01*
X130670000Y-99190000D02*
X131630000Y-99190000D01*
X71017600Y-104962400D02*
X70980000Y-105000000D01*
X67959200Y-100462400D02*
X69197600Y-100462400D01*
X70972400Y-89962400D02*
X70950000Y-89940000D01*
X69187600Y-98962400D02*
X69190000Y-98960000D01*
D50*
X72144200Y-95962400D02*
X73082400Y-95962400D01*
D47*
X134496000Y-77920000D02*
X133800000Y-77920000D01*
D48*
X138675000Y-83055000D02*
X139475000Y-83055000D01*
D51*
X128410000Y-68250000D02*
X129390000Y-68250000D01*
D48*
X132290000Y-95450000D02*
X132250000Y-95490000D01*
D50*
X73342400Y-94462400D02*
X73350000Y-94470000D01*
D48*
X136026000Y-84746000D02*
X136026000Y-86120000D01*
X135710000Y-81990000D02*
X135700000Y-81980000D01*
D49*
X138620000Y-84110000D02*
X138675000Y-84055000D01*
D47*
X67959200Y-101962400D02*
X69137600Y-101962400D01*
X69197600Y-97462400D02*
X69220000Y-97440000D01*
X148900000Y-65600000D02*
X148860000Y-65560000D01*
D48*
X90490000Y-88920000D02*
X90490000Y-88130000D01*
X111668600Y-88331400D02*
X111660000Y-88340000D01*
D47*
X130710000Y-104850000D02*
X130580000Y-104720000D01*
D48*
X111668600Y-85953600D02*
X111668600Y-88331400D01*
X115668600Y-64465200D02*
X115764800Y-64465200D01*
D52*
X134496000Y-63470000D02*
X134496000Y-65600000D01*
D48*
X133517668Y-84558000D02*
X133721000Y-84558000D01*
X135570000Y-84040000D02*
X135570000Y-84560000D01*
D47*
X70350000Y-108490000D02*
X70377600Y-108462400D01*
X135760000Y-99190000D02*
X135800000Y-99230000D01*
D51*
X148876000Y-100480000D02*
X146416000Y-100480000D01*
D47*
X148900000Y-66490000D02*
X148900000Y-65600000D01*
D48*
X139475000Y-83055000D02*
X139480000Y-83060000D01*
X142699999Y-79369999D02*
X142770000Y-79440000D01*
D47*
X72919200Y-88862400D02*
X70392400Y-88862400D01*
X72144200Y-106462400D02*
X70967600Y-106462400D01*
D48*
X91690000Y-88920000D02*
X91690000Y-88140000D01*
D47*
X133800000Y-77920000D02*
X133750000Y-77970000D01*
D48*
X92890000Y-88180000D02*
X92850000Y-88140000D01*
X134726000Y-93314000D02*
X134700000Y-93340000D01*
D47*
X70902400Y-107962400D02*
X70900000Y-107960000D01*
D48*
X142889999Y-77370001D02*
X142990000Y-77270000D01*
D47*
X128500000Y-97420000D02*
X128470000Y-97450000D01*
D48*
X136450000Y-93750000D02*
X137190000Y-93750000D01*
X142130001Y-79870001D02*
X142660000Y-80400000D01*
D52*
X134496000Y-65600000D02*
X134476000Y-65620000D01*
D48*
X90490000Y-88130000D02*
X90480000Y-88120000D01*
D47*
X83810000Y-104870000D02*
X83870000Y-104810000D01*
X69137600Y-101962400D02*
X69140000Y-101960000D01*
D48*
X138626000Y-84874000D02*
X138630000Y-84870000D01*
D49*
X144446000Y-76990000D02*
X145176000Y-77720000D01*
D47*
X130680000Y-103030000D02*
X130520000Y-103190000D01*
D48*
X89668600Y-64465200D02*
X89754800Y-64465200D01*
D51*
X129400000Y-68240000D02*
X129390000Y-68250000D01*
D48*
X139291600Y-78119999D02*
X139291600Y-76201600D01*
D51*
X128400000Y-67050000D02*
X129480000Y-67050000D01*
D47*
X69392800Y-84376800D02*
X69392800Y-83522800D01*
D48*
X133721000Y-83458000D02*
X132972000Y-83458000D01*
D47*
X70392400Y-88862400D02*
X70370000Y-88840000D01*
D49*
X75641800Y-84244000D02*
X76037800Y-83848000D01*
D48*
X132330000Y-94210000D02*
X132310000Y-94190000D01*
D47*
X84380000Y-89500000D02*
X84420000Y-89460000D01*
D48*
X141476000Y-77370001D02*
X142889999Y-77370001D01*
D47*
X75137800Y-84244000D02*
X74226000Y-84244000D01*
X74144400Y-81125600D02*
X73406000Y-81125600D01*
X72144200Y-107962400D02*
X70902400Y-107962400D01*
X134496000Y-76720000D02*
X133640000Y-76720000D01*
D49*
X144246001Y-79870001D02*
X144276000Y-79900000D01*
D47*
X137150000Y-101260000D02*
X138030000Y-101260000D01*
D52*
X144656000Y-65600000D02*
X144676000Y-65620000D01*
D51*
X90130000Y-86770000D02*
X90946400Y-85953600D01*
D47*
X130560000Y-99300000D02*
X130670000Y-99190000D01*
X72919200Y-109562400D02*
X70442400Y-109562400D01*
D48*
X115668600Y-85953600D02*
X115668600Y-88461400D01*
X132972000Y-83458000D02*
X132960000Y-83470000D01*
D47*
X70957600Y-103462400D02*
X70930000Y-103490000D01*
D48*
X89290000Y-88080000D02*
X89310000Y-88060000D01*
X141476000Y-79870001D02*
X142130001Y-79870001D01*
D47*
X70992400Y-90962400D02*
X70990000Y-90960000D01*
D48*
X115764800Y-64465200D02*
X117270000Y-62960000D01*
D47*
X137840000Y-106680000D02*
X137860000Y-106660000D01*
X71932800Y-86042800D02*
X71950000Y-86060000D01*
D50*
X73082400Y-95962400D02*
X73390000Y-96270000D01*
D47*
X84340000Y-90610000D02*
X84360000Y-90590000D01*
X63510000Y-89450000D02*
X63510000Y-88580000D01*
D48*
X138626000Y-86120000D02*
X138626000Y-84874000D01*
D51*
X141956000Y-109870000D02*
X141956000Y-108024000D01*
D48*
X133426000Y-91996000D02*
X133426000Y-93296000D01*
D47*
X71042400Y-100462400D02*
X71030000Y-100450000D01*
D48*
X135710000Y-83900000D02*
X135570000Y-84040000D01*
D47*
X72144200Y-98962400D02*
X70992400Y-98962400D01*
D51*
X141956000Y-108024000D02*
X141980000Y-108000000D01*
D47*
X63510000Y-88580000D02*
X63470000Y-88540000D01*
X128470000Y-106650000D02*
X128460000Y-106660000D01*
D51*
X146416000Y-100480000D02*
X146376000Y-100520000D01*
D48*
X115668600Y-88461400D02*
X115650000Y-88480000D01*
D47*
X134800000Y-103030000D02*
X135800000Y-103030000D01*
X129277500Y-97420000D02*
X128500000Y-97420000D01*
X72144200Y-89962400D02*
X70972400Y-89962400D01*
X72144200Y-90462400D02*
X70167600Y-90462400D01*
D48*
X135570000Y-84560000D02*
X135420000Y-84710000D01*
X134726000Y-91996000D02*
X134726000Y-93314000D01*
X133180000Y-95450000D02*
X132290000Y-95450000D01*
X133170000Y-94210000D02*
X132330000Y-94210000D01*
D47*
X137030000Y-106680000D02*
X137840000Y-106680000D01*
D51*
X90946400Y-85953600D02*
X91668600Y-85953600D01*
D49*
X144276000Y-79900000D02*
X144276000Y-80694000D01*
D47*
X83460000Y-90610000D02*
X84340000Y-90610000D01*
X135620000Y-104850000D02*
X135810000Y-104660000D01*
X67070000Y-87220000D02*
X67000000Y-87290000D01*
X129330000Y-101260000D02*
X128530000Y-101260000D01*
D49*
X76037800Y-83494000D02*
X76037800Y-85917800D01*
D48*
X136020000Y-84740000D02*
X136026000Y-84746000D01*
D47*
X70442400Y-109562400D02*
X70410000Y-109530000D01*
D48*
X137190000Y-93750000D02*
X137200000Y-93740000D01*
X133426000Y-93296000D02*
X133440000Y-93310000D01*
X137160000Y-94940000D02*
X137190000Y-94970000D01*
D52*
X148876000Y-84920000D02*
X148876000Y-87780000D01*
D47*
X133640000Y-76720000D02*
X133630000Y-76710000D01*
X71022400Y-97462400D02*
X71010000Y-97450000D01*
X83020000Y-104870000D02*
X83810000Y-104870000D01*
D49*
X144276000Y-80694000D02*
X144260000Y-80710000D01*
D47*
X72144200Y-97462400D02*
X71022400Y-97462400D01*
X131700000Y-103030000D02*
X130680000Y-103030000D01*
X72144200Y-103462400D02*
X70957600Y-103462400D01*
D51*
X89310000Y-86770000D02*
X90130000Y-86770000D01*
D48*
X133048389Y-84088721D02*
X133517668Y-84558000D01*
X89754800Y-64465200D02*
X91180000Y-63040000D01*
X139291600Y-76201600D02*
X138860000Y-75770000D01*
D47*
X134747500Y-104850000D02*
X135620000Y-104850000D01*
X70167600Y-90462400D02*
X70160000Y-90470000D01*
X74220000Y-81050000D02*
X74144400Y-81125600D01*
X138030000Y-101260000D02*
X138040000Y-101270000D01*
D48*
X92890000Y-88920000D02*
X92890000Y-88180000D01*
X135710000Y-82800000D02*
X135710000Y-81990000D01*
D47*
X76937800Y-82744000D02*
X76937800Y-81147800D01*
X134730000Y-99190000D02*
X135760000Y-99190000D01*
D52*
X144656000Y-63470000D02*
X144656000Y-65600000D01*
D47*
X71032400Y-101962400D02*
X71010000Y-101940000D01*
X131647500Y-104850000D02*
X130710000Y-104850000D01*
D49*
X76037800Y-85917800D02*
X76040000Y-85920000D01*
D47*
X76937800Y-81147800D02*
X76900000Y-81110000D01*
D50*
X72144200Y-94462400D02*
X73342400Y-94462400D01*
D47*
X74226000Y-84244000D02*
X73750000Y-84720000D01*
X83440000Y-89500000D02*
X84380000Y-89500000D01*
X135800000Y-103030000D02*
X135880000Y-103110000D01*
X72932800Y-85324000D02*
X72932800Y-86017200D01*
X70967600Y-106462400D02*
X70950000Y-106480000D01*
X71932800Y-85324000D02*
X71932800Y-86042800D01*
X137067500Y-97390000D02*
X137850000Y-97390000D01*
X69197600Y-100462400D02*
X69200000Y-100460000D01*
X70377600Y-108462400D02*
X72144200Y-108462400D01*
D49*
X139415000Y-84055000D02*
X139430000Y-84040000D01*
X76037800Y-83848000D02*
X76037800Y-83494000D01*
D48*
X89290000Y-88920000D02*
X89290000Y-88080000D01*
D47*
X72144200Y-100462400D02*
X71042400Y-100462400D01*
X69392800Y-83522800D02*
X69370000Y-83500000D01*
D49*
X138675000Y-84055000D02*
X139415000Y-84055000D01*
D47*
X72144200Y-104962400D02*
X71017600Y-104962400D01*
X72932800Y-86017200D02*
X72920000Y-86030000D01*
X67959200Y-97462400D02*
X69197600Y-97462400D01*
X82780000Y-106820000D02*
X82910000Y-106690000D01*
D48*
%TO.N,Net-(U1-REGCAPD)*%
X135376000Y-93636000D02*
X135490000Y-93750000D01*
X135490000Y-93750000D02*
X135490000Y-94930000D01*
X135490000Y-94930000D02*
X135500000Y-94940000D01*
X135376000Y-91996000D02*
X135376000Y-93636000D01*
D47*
%TO.N,3V3*%
X111476000Y-91730000D02*
X111480000Y-91730000D01*
X130570000Y-106350000D02*
X130270000Y-106650000D01*
D48*
X134140000Y-96290000D02*
X133910000Y-96520000D01*
X134140000Y-95450000D02*
X134140000Y-94220000D01*
D47*
X130237500Y-97420000D02*
X130237500Y-96497500D01*
X130560000Y-101530000D02*
X130290000Y-101260000D01*
X130290000Y-100370000D02*
X130320000Y-100340000D01*
D48*
X134140000Y-95450000D02*
X134140000Y-96290000D01*
D47*
X130270000Y-106650000D02*
X130270000Y-107520000D01*
X131647500Y-106350000D02*
X130570000Y-106350000D01*
X130507500Y-97690000D02*
X130237500Y-97420000D01*
X130237500Y-96497500D02*
X130220000Y-96480000D01*
X131700000Y-101530000D02*
X130560000Y-101530000D01*
D48*
X134130000Y-92050000D02*
X134076000Y-91996000D01*
D47*
X131630000Y-97690000D02*
X130507500Y-97690000D01*
D48*
X134130000Y-94210000D02*
X134130000Y-92050000D01*
X134140000Y-94220000D02*
X134130000Y-94210000D01*
D47*
X130290000Y-101260000D02*
X130290000Y-100370000D01*
X130270000Y-107520000D02*
X130250000Y-107540000D01*
D49*
%TO.N,5VADC{slash}SENSOR*%
X140525999Y-76869999D02*
X140476000Y-76820000D01*
X135376000Y-86120000D02*
X135376000Y-85536000D01*
X135384500Y-87120000D02*
X134726000Y-86461500D01*
X141476000Y-76370000D02*
X144826000Y-76370000D01*
X140476000Y-76820000D02*
X140476000Y-75020000D01*
X142876000Y-86510000D02*
X142266000Y-87120000D01*
X134681000Y-82615000D02*
X134776000Y-82520000D01*
X134681000Y-84841000D02*
X134681000Y-84558000D01*
X145772900Y-80167245D02*
X145650000Y-80290145D01*
X141476000Y-76869999D02*
X140525999Y-76869999D01*
X144240000Y-86510000D02*
X142876000Y-86510000D01*
X134681000Y-84558000D02*
X134681000Y-83458000D01*
X144826000Y-76370000D02*
X145772900Y-77316900D01*
X134681000Y-83458000D02*
X134681000Y-82615000D01*
X134726000Y-84603000D02*
X134681000Y-84558000D01*
X135376000Y-87111500D02*
X135376000Y-86120000D01*
X145772900Y-77316900D02*
X145772900Y-80167245D01*
X134726000Y-86120000D02*
X134726000Y-84603000D01*
X135384500Y-87120000D02*
X135376000Y-87111500D01*
X135376000Y-85536000D02*
X134681000Y-84841000D01*
X142266000Y-87120000D02*
X135384500Y-87120000D01*
X145650000Y-80290145D02*
X145650000Y-85100000D01*
X145650000Y-85100000D02*
X144240000Y-86510000D01*
X134726000Y-86461500D02*
X134726000Y-86120000D01*
%TO.N,5VRef*%
X135456000Y-80206000D02*
X135456000Y-77920000D01*
X137721000Y-81801000D02*
X137721000Y-82471000D01*
X137715000Y-82477000D02*
X137715000Y-83055000D01*
X137976000Y-84316000D02*
X137976000Y-86120000D01*
X137057199Y-77920000D02*
X137107200Y-77869999D01*
X137107200Y-78369999D02*
X136260998Y-78369999D01*
X137715000Y-84055000D02*
X137976000Y-84316000D01*
X135876000Y-79956000D02*
X137721000Y-81801000D01*
X136260998Y-78369999D02*
X135876000Y-78754997D01*
X137721000Y-82471000D02*
X137715000Y-82477000D01*
X135456000Y-77920000D02*
X137057199Y-77920000D01*
X135876000Y-78754997D02*
X135876000Y-79956000D01*
X137721000Y-82471000D02*
X135456000Y-80206000D01*
X137770000Y-83000000D02*
X137715000Y-83055000D01*
X137715000Y-83055000D02*
X137715000Y-84055000D01*
D52*
%TO.N,5.2V*%
X141076000Y-64920000D02*
X140976000Y-65020000D01*
D47*
X135807500Y-97690000D02*
X136107500Y-97390000D01*
X135740000Y-106350000D02*
X136070000Y-106680000D01*
D53*
X143764000Y-65118000D02*
X143764000Y-66395600D01*
D47*
X136070000Y-106680000D02*
X136070000Y-107440000D01*
D51*
X127450000Y-69800000D02*
X126640000Y-70610000D01*
D49*
X75137800Y-83744000D02*
X73552800Y-83744000D01*
D51*
X127440000Y-66250000D02*
X128150000Y-65540000D01*
X127450000Y-68250000D02*
X127450000Y-69800000D01*
D52*
X142116000Y-64920000D02*
X142116000Y-65060000D01*
D51*
X127440000Y-68240000D02*
X127450000Y-68250000D01*
X140686000Y-113874000D02*
X140720000Y-113840000D01*
X142876000Y-99210000D02*
X145366000Y-99210000D01*
D47*
X136190000Y-101260000D02*
X136190000Y-100380000D01*
D51*
X127440000Y-67050000D02*
X127440000Y-68240000D01*
D47*
X136070000Y-107440000D02*
X136100000Y-107470000D01*
D53*
X144757200Y-67388800D02*
X148996400Y-67388800D01*
D47*
X136107500Y-97390000D02*
X136107500Y-96477500D01*
D49*
X71932800Y-84364000D02*
X71932800Y-83249000D01*
D47*
X136107500Y-96477500D02*
X136070000Y-96440000D01*
D49*
X73552800Y-83744000D02*
X72932800Y-84364000D01*
D47*
X134730000Y-97690000D02*
X135807500Y-97690000D01*
D52*
X142116000Y-63470000D02*
X142116000Y-64920000D01*
D47*
X134747500Y-106350000D02*
X135740000Y-106350000D01*
D51*
X127440000Y-67050000D02*
X127440000Y-66250000D01*
D47*
X136190000Y-100380000D02*
X136180000Y-100370000D01*
D52*
X142116000Y-65380000D02*
X141676000Y-65820000D01*
D49*
X71932800Y-83249000D02*
X71922800Y-83239000D01*
D51*
X145366000Y-99210000D02*
X145376000Y-99220000D01*
D49*
X72932800Y-84364000D02*
X71932800Y-84364000D01*
D47*
X134800000Y-101530000D02*
X135920000Y-101530000D01*
D52*
X142116000Y-64920000D02*
X141076000Y-64920000D01*
D53*
X142116000Y-63470000D02*
X143764000Y-65118000D01*
D52*
X142116000Y-65060000D02*
X142876000Y-65820000D01*
D53*
X143764000Y-66395600D02*
X144757200Y-67388800D01*
D47*
X135920000Y-101530000D02*
X136190000Y-101260000D01*
D51*
X140686000Y-115870000D02*
X140686000Y-113874000D01*
D52*
X142116000Y-64920000D02*
X142116000Y-65380000D01*
D48*
%TO.N,Net-(U4-BYPASS)*%
X144206000Y-78870000D02*
X144276000Y-78940000D01*
X141476000Y-78870000D02*
X144206000Y-78870000D01*
D49*
%TO.N,Net-(U4-NR)*%
X141476000Y-77869999D02*
X144195999Y-77869999D01*
X144195999Y-77869999D02*
X144276000Y-77950000D01*
D54*
%TO.N,9V*%
X137996200Y-77433498D02*
X137932700Y-77369998D01*
X137953402Y-78869997D02*
X137996200Y-78827199D01*
X137107200Y-78869997D02*
X137953402Y-78869997D01*
D49*
X135456000Y-76720000D02*
X136957201Y-76720000D01*
X136957201Y-76720000D02*
X137107200Y-76869999D01*
D54*
X137996200Y-78827199D02*
X137996200Y-77433498D01*
X137932700Y-77369998D02*
X137107200Y-77369998D01*
D51*
%TO.N,3V3_XBEE*%
X91690000Y-89880000D02*
X90490000Y-89880000D01*
X92890000Y-89880000D02*
X93199999Y-89880000D01*
X92901400Y-89868600D02*
X92890000Y-89880000D01*
X88050000Y-88949999D02*
X88980001Y-89880000D01*
X92890000Y-89880000D02*
X91690000Y-89880000D01*
X92360000Y-81360000D02*
X88050000Y-85670000D01*
X90490000Y-89880000D02*
X89290000Y-89880000D01*
X88980001Y-89880000D02*
X89290000Y-89880000D01*
X93668600Y-89411399D02*
X93668600Y-85953600D01*
X127240000Y-81360000D02*
X92360000Y-81360000D01*
X88050000Y-85670000D02*
X88050000Y-88949999D01*
X93199999Y-89880000D02*
X93668600Y-89411399D01*
D47*
%TO.N,Net-(IC6-FB)*%
X73831507Y-82145600D02*
X73406000Y-82145600D01*
X80655800Y-81000800D02*
X80655800Y-82036000D01*
X75367107Y-80610000D02*
X73831507Y-82145600D01*
X80627800Y-82064000D02*
X79173800Y-80610000D01*
D49*
X74004400Y-82744000D02*
X73406000Y-82145600D01*
D47*
X79173800Y-80610000D02*
X75367107Y-80610000D01*
D49*
X75137800Y-82744000D02*
X74004400Y-82744000D01*
D47*
X80655800Y-82036000D02*
X80627800Y-82064000D01*
D49*
%TO.N,VCC3V3*%
X81647800Y-81032800D02*
X81615800Y-81000800D01*
D52*
X81786200Y-82202400D02*
X81647800Y-82064000D01*
D49*
X81647800Y-82064000D02*
X81761200Y-82064000D01*
X81647800Y-82064000D02*
X81647800Y-81032800D01*
D52*
X81786200Y-84124000D02*
X81786200Y-82202400D01*
D49*
X81761200Y-82064000D02*
X81781200Y-82044000D01*
D47*
%TO.N,IN1(5V)*%
X141680000Y-105850000D02*
X143226000Y-107396000D01*
X134747500Y-105850000D02*
X141680000Y-105850000D01*
X143226000Y-107396000D02*
X143226000Y-115870000D01*
%TO.N,IN2(5V)*%
X142330000Y-105350000D02*
X144496000Y-107516000D01*
X134747500Y-105350000D02*
X142330000Y-105350000D01*
X144496000Y-107516000D02*
X144496000Y-109870000D01*
%TO.N,IN2(3.3V)*%
X128390000Y-105350000D02*
X131647500Y-105350000D01*
X128160000Y-105120000D02*
X128390000Y-105350000D01*
%TO.N,IN1(3.3V)*%
X127380000Y-105850000D02*
X131647500Y-105850000D01*
X127320000Y-105910000D02*
X127380000Y-105850000D01*
D49*
%TO.N,DOUTXBee*%
X95668600Y-88304300D02*
X96473000Y-89108700D01*
X95668600Y-85953600D02*
X95668600Y-88304300D01*
%TO.N,DINXBee*%
X97668600Y-88424300D02*
X98463000Y-89218700D01*
X98463000Y-89218700D02*
X98463000Y-90218700D01*
X98463000Y-90218700D02*
X98373000Y-90308700D01*
X97668600Y-85953600D02*
X97668600Y-88424300D01*
D54*
%TO.N,Net-(IC2-DIO9{slash}ON{slash}~{SLEEP})*%
X104406970Y-68478400D02*
X81127600Y-68478400D01*
X107668600Y-64465200D02*
X107668600Y-65216770D01*
X107668600Y-65216770D02*
X104406970Y-68478400D01*
X81127600Y-68478400D02*
X80264000Y-67614800D01*
%TO.N,Net-(IC2-DIO6{slash}~{RTS})*%
X102273000Y-64909800D02*
X102113200Y-64909800D01*
X82346800Y-67157600D02*
X80264000Y-65074800D01*
X102113200Y-64909800D02*
X101668600Y-64465200D01*
X101668600Y-64465200D02*
X101668600Y-65216770D01*
X99727770Y-67157600D02*
X82346800Y-67157600D01*
X101668600Y-65216770D02*
X99727770Y-67157600D01*
D47*
%TO.N,DIGITAL_OUTPUT_3*%
X127580000Y-98690000D02*
X131630000Y-98690000D01*
X126860000Y-99410000D02*
X127580000Y-98690000D01*
%TO.N,DIGITAL_OUTPUT_4*%
X126830000Y-98390000D02*
X127030000Y-98190000D01*
X127030000Y-98190000D02*
X131630000Y-98190000D01*
%TO.N,DIGITAL_INPUT_4*%
X138816000Y-98190000D02*
X142876000Y-94130000D01*
X134730000Y-98190000D02*
X138816000Y-98190000D01*
%TO.N,DIGITAL_INPUT_3*%
X138802000Y-98690000D02*
X142092000Y-95400000D01*
X142092000Y-95400000D02*
X148876000Y-95400000D01*
X134730000Y-98690000D02*
X138802000Y-98690000D01*
%TO.N,DIGITAL_INPUT_2*%
X139670000Y-99490000D02*
X142490000Y-96670000D01*
X139670000Y-100560000D02*
X139670000Y-99490000D01*
X142490000Y-96670000D02*
X142876000Y-96670000D01*
X134800000Y-102030000D02*
X138200000Y-102030000D01*
X138200000Y-102030000D02*
X139670000Y-100560000D01*
%TO.N,DIGITAL_INPUT_1*%
X134800000Y-102530000D02*
X138510000Y-102530000D01*
X141860000Y-97940000D02*
X148876000Y-97940000D01*
X140190000Y-99610000D02*
X141860000Y-97940000D01*
X140190000Y-100850000D02*
X140190000Y-99610000D01*
X138510000Y-102530000D02*
X140190000Y-100850000D01*
D49*
%TO.N,AIN4*%
X139276000Y-86120000D02*
X141276000Y-84120000D01*
%TO.N,AIN3*%
X139682000Y-91590000D02*
X139276000Y-91996000D01*
X142876000Y-91590000D02*
X139682000Y-91590000D01*
%TO.N,AIN2*%
X139481500Y-90320000D02*
X148876000Y-90320000D01*
X138626000Y-91175500D02*
X139481500Y-90320000D01*
X138626000Y-91996000D02*
X138626000Y-91175500D01*
%TO.N,AIN1*%
X139930500Y-89050000D02*
X137976000Y-91004500D01*
X137976000Y-91004500D02*
X137976000Y-91996000D01*
X142876000Y-89050000D02*
X139930500Y-89050000D01*
%TO.N,AIN0*%
X148876000Y-92860000D02*
X148748500Y-92987500D01*
X137497000Y-92987500D02*
X137326000Y-92816500D01*
X137326000Y-92816500D02*
X137326000Y-91996000D01*
X148748500Y-92987500D02*
X137497000Y-92987500D01*
D47*
%TO.N,POWER_BOARD_PORT_RXD*%
X135606000Y-115870000D02*
X132430000Y-112694000D01*
X132430000Y-112694000D02*
X132430000Y-112540000D01*
%TO.N,Net-(J10-Pin_10)*%
X98373000Y-97897000D02*
X98373000Y-91328700D01*
X80890000Y-115380000D02*
X98373000Y-97897000D01*
X80206000Y-115380000D02*
X80890000Y-115380000D01*
%TO.N,POWER_BOARD_PORT_TXD*%
X134966000Y-111780000D02*
X132880000Y-111780000D01*
X136876000Y-109870000D02*
X134966000Y-111780000D01*
%TO.N,STEERING_WHEEL_PORT_RXD*%
X137650000Y-108590000D02*
X109856000Y-108590000D01*
X109856000Y-108590000D02*
X105606000Y-112840000D01*
X138146000Y-109086000D02*
X137650000Y-108590000D01*
X138146000Y-115870000D02*
X138146000Y-109086000D01*
%TO.N,STEERING_WHEEL_PORT_TXD*%
X139230000Y-110056000D02*
X139416000Y-109870000D01*
X139230000Y-111470000D02*
X139230000Y-110056000D01*
%TO.N,NAVIN*%
X110686000Y-112840000D02*
X113656000Y-109870000D01*
X113656000Y-109870000D02*
X134336000Y-109870000D01*
D51*
%TO.N,Net-(PS1-+VIN)*%
X123840000Y-70610000D02*
X123840000Y-72880000D01*
X123840000Y-72880000D02*
X127240000Y-76280000D01*
D49*
%TO.N,Net-(IC6-LX)*%
X79256200Y-83744000D02*
X76937800Y-83744000D01*
X79636200Y-84124000D02*
X79256200Y-83744000D01*
D47*
%TO.N,PCIE_DET_WAKE*%
X64192200Y-87967800D02*
X66255200Y-85904800D01*
X65492200Y-96462400D02*
X64192200Y-95162400D01*
X66255200Y-85904800D02*
X68884800Y-85904800D01*
X68884800Y-85904800D02*
X69392800Y-85396800D01*
X67959200Y-96462400D02*
X65492200Y-96462400D01*
X64192200Y-95162400D02*
X64192200Y-87967800D01*
D48*
X70662800Y-85396800D02*
X70713600Y-85346000D01*
D47*
X69392800Y-85396800D02*
X70662800Y-85396800D01*
D48*
%TO.N,PCIE_RST_B*%
X66457200Y-88850000D02*
X66441200Y-88866000D01*
X68400000Y-88850000D02*
X66457200Y-88850000D01*
D47*
%TO.N,PCIE_PWR_EN*%
X77776000Y-83244000D02*
X76937800Y-83244000D01*
X78760000Y-82260000D02*
X77776000Y-83244000D01*
X63510000Y-91350000D02*
X63470000Y-91390000D01*
X63470000Y-95720000D02*
X63470000Y-91390000D01*
X64712400Y-96962400D02*
X63470000Y-95720000D01*
X63510000Y-90470000D02*
X63510000Y-91350000D01*
X67959200Y-96962400D02*
X64712400Y-96962400D01*
%TO.N,3V3_PG*%
X67900000Y-90350000D02*
X67900000Y-91250000D01*
D49*
X72947800Y-83244000D02*
X72942800Y-83239000D01*
X72630000Y-82150000D02*
X72630000Y-82926200D01*
X75137800Y-83244000D02*
X72947800Y-83244000D01*
X72630000Y-82926200D02*
X72942800Y-83239000D01*
D47*
X67900000Y-91250000D02*
X67450000Y-91700000D01*
D50*
%TO.N,PCIE0 RX-*%
X70833526Y-98462400D02*
X72144200Y-98462400D01*
X69333526Y-99962400D02*
X70833526Y-98462400D01*
X67959200Y-99962400D02*
X69333526Y-99962400D01*
%TO.N,PCIE0 RX+*%
X69341674Y-99462400D02*
X70841674Y-97962400D01*
X70841674Y-97962400D02*
X72144200Y-97962400D01*
X67959200Y-99462400D02*
X69341674Y-99462400D01*
%TO.N,PCIE0 TX+*%
X67959200Y-97962400D02*
X69351674Y-97962400D01*
X70851674Y-96462400D02*
X72144200Y-96462400D01*
X69351674Y-97962400D02*
X70851674Y-96462400D01*
D47*
%TO.N,PCIE_RST_B_SW*%
X68900000Y-90350000D02*
X68900000Y-87460000D01*
X80669200Y-96212400D02*
X81026000Y-95855600D01*
X68900000Y-91440000D02*
X68900000Y-90350000D01*
X79694200Y-96212400D02*
X80669200Y-96212400D01*
X81026000Y-95855600D02*
X81026000Y-94165200D01*
X68900000Y-87460000D02*
X69140000Y-87220000D01*
X79710800Y-92850000D02*
X70310000Y-92850000D01*
X81026000Y-94165200D02*
X79710800Y-92850000D01*
X70310000Y-92850000D02*
X68900000Y-91440000D01*
%TO.N,PCIE_CLKREQ_N*%
X76900000Y-93970000D02*
X78642400Y-95712400D01*
X69265200Y-95962400D02*
X71257600Y-93970000D01*
X78642400Y-95712400D02*
X79694200Y-95712400D01*
X67959200Y-95962400D02*
X69265200Y-95962400D01*
X71257600Y-93970000D02*
X76900000Y-93970000D01*
D55*
%TO.N,PCIE CLK-*%
X74380000Y-96510000D02*
X73332400Y-95462400D01*
X70320000Y-101450000D02*
X67971600Y-101450000D01*
X73332400Y-95462400D02*
X72144200Y-95462400D01*
X70410000Y-101540000D02*
X70320000Y-101450000D01*
X67971600Y-101450000D02*
X67959200Y-101462400D01*
%TO.N,PCIE CLK+*%
X69857783Y-100960000D02*
X67961600Y-100960000D01*
X73900000Y-95300000D02*
X73562400Y-94962400D01*
X69896051Y-100921732D02*
X69857783Y-100960000D01*
X67961600Y-100960000D02*
X67959200Y-100962400D01*
X73562400Y-94962400D02*
X72144200Y-94962400D01*
D50*
%TO.N,PCIE0 TX-*%
X70843526Y-96962400D02*
X72144200Y-96962400D01*
X67959200Y-98462400D02*
X69343526Y-98462400D01*
X69343526Y-98462400D02*
X70843526Y-96962400D01*
D47*
%TO.N,Net-(J3-Pin_1)*%
X66441200Y-89886000D02*
X66441200Y-91398307D01*
X67242893Y-92200000D02*
X67650000Y-92200000D01*
X67650000Y-92200000D02*
X67959200Y-92509200D01*
X66441200Y-91398307D02*
X67242893Y-92200000D01*
X67959200Y-92509200D02*
X67959200Y-95462400D01*
%TO.N,5V PCIE*%
X67959200Y-102462400D02*
X66597600Y-102462400D01*
X70713600Y-83473600D02*
X70640000Y-83400000D01*
X67959200Y-102962400D02*
X66502400Y-102962400D01*
X66597600Y-102462400D02*
X66300000Y-102760000D01*
X66502400Y-102962400D02*
X66300000Y-102760000D01*
X70713600Y-84326000D02*
X70713600Y-83473600D01*
%TD*%
%TA.AperFunction,Conductor*%
%TO.N,9V*%
G36*
X137819039Y-72639685D02*
G01*
X137864794Y-72692489D01*
X137876000Y-72744000D01*
X137876000Y-77355799D01*
X137856315Y-77422838D01*
X137803511Y-77468593D01*
X137752000Y-77479799D01*
X136500000Y-77479799D01*
X136432961Y-77460114D01*
X136387206Y-77407310D01*
X136376000Y-77355799D01*
X136376000Y-72744000D01*
X136395685Y-72676961D01*
X136448489Y-72631206D01*
X136500000Y-72620000D01*
X137752000Y-72620000D01*
X137819039Y-72639685D01*
G37*
%TD.AperFunction*%
%TD*%
%TA.AperFunction,Conductor*%
%TO.N,VCC3V3*%
G36*
X82773413Y-82540260D02*
G01*
X82819702Y-82592597D01*
X82831428Y-82643821D01*
X82909492Y-89411980D01*
X82909500Y-89413410D01*
X82909500Y-89700736D01*
X82911669Y-89714428D01*
X82913187Y-89732391D01*
X82929973Y-91187664D01*
X82929938Y-91192351D01*
X82589999Y-104129997D01*
X82591995Y-104383412D01*
X82572839Y-104450604D01*
X82565675Y-104459567D01*
X82565877Y-104459714D01*
X82560142Y-104467606D01*
X82503981Y-104577827D01*
X82503981Y-104577828D01*
X82489500Y-104669264D01*
X82489500Y-105070739D01*
X82503981Y-105162170D01*
X82503981Y-105162171D01*
X82503982Y-105162174D01*
X82503983Y-105162175D01*
X82534988Y-105223026D01*
X82547884Y-105291693D01*
X82521608Y-105356434D01*
X82464501Y-105396691D01*
X82426865Y-105403297D01*
X81549999Y-105420000D01*
X81561905Y-106491486D01*
X81548399Y-106549157D01*
X81543982Y-106557826D01*
X81529500Y-106649264D01*
X81529500Y-106990739D01*
X81543981Y-107082170D01*
X81543982Y-107082172D01*
X81543982Y-107082173D01*
X81543983Y-107082175D01*
X81555439Y-107104658D01*
X81555830Y-107105426D01*
X81569336Y-107160341D01*
X81569999Y-107219999D01*
X81569999Y-107219998D01*
X81570000Y-107220000D01*
X81575323Y-107219956D01*
X81642521Y-107239090D01*
X81664020Y-107256271D01*
X81687603Y-107279854D01*
X81687605Y-107279855D01*
X81687609Y-107279859D01*
X81797825Y-107336017D01*
X81797826Y-107336017D01*
X81797828Y-107336018D01*
X81832947Y-107341579D01*
X81889265Y-107350500D01*
X82290734Y-107350499D01*
X82290739Y-107350499D01*
X82290739Y-107350498D01*
X82336454Y-107343258D01*
X82382170Y-107336018D01*
X82382171Y-107336018D01*
X82382172Y-107336017D01*
X82382175Y-107336017D01*
X82492391Y-107279859D01*
X82524470Y-107247779D01*
X82585790Y-107214295D01*
X82611124Y-107211466D01*
X82664987Y-107211024D01*
X82732183Y-107230159D01*
X82778369Y-107282587D01*
X82790000Y-107335020D01*
X82790000Y-108186134D01*
X82770315Y-108253173D01*
X82717511Y-108298928D01*
X82676547Y-108309685D01*
X78813406Y-108639465D01*
X78744935Y-108625554D01*
X78694855Y-108576833D01*
X78679321Y-108526607D01*
X78611274Y-107740283D01*
X78625105Y-107671799D01*
X78673768Y-107621662D01*
X78730696Y-107605664D01*
X78825655Y-107602513D01*
X78853941Y-107604827D01*
X78894526Y-107612900D01*
X78894527Y-107612900D01*
X80493876Y-107612900D01*
X80493877Y-107612899D01*
X80566940Y-107598366D01*
X80621965Y-107561599D01*
X80686741Y-107540771D01*
X80710000Y-107540000D01*
X80708989Y-107454634D01*
X80711361Y-107428991D01*
X80719700Y-107387074D01*
X80719700Y-107037726D01*
X80709528Y-106986588D01*
X80709528Y-106938211D01*
X80719700Y-106887074D01*
X80719700Y-106537726D01*
X80709528Y-106486588D01*
X80709528Y-106438211D01*
X80719700Y-106387074D01*
X80719700Y-106037726D01*
X80719700Y-106037723D01*
X80719699Y-106037721D01*
X80705167Y-105964661D01*
X80700492Y-105953375D01*
X80704519Y-105951706D01*
X80690684Y-105907666D01*
X80690676Y-105907179D01*
X80690000Y-105850000D01*
X80634815Y-105848647D01*
X80578366Y-105830763D01*
X80578224Y-105831107D01*
X80574239Y-105829456D01*
X80568963Y-105827785D01*
X80566939Y-105826433D01*
X80493877Y-105811900D01*
X80493874Y-105811900D01*
X79137048Y-105811900D01*
X79134011Y-105811863D01*
X79117718Y-105811463D01*
X78770961Y-105802964D01*
X78704424Y-105781642D01*
X78659977Y-105727733D01*
X78650000Y-105679001D01*
X78650000Y-104212924D01*
X78669685Y-104145885D01*
X78722489Y-104100130D01*
X78791647Y-104090186D01*
X78821457Y-104098365D01*
X78821462Y-104098367D01*
X78894521Y-104112899D01*
X78894524Y-104112900D01*
X78894526Y-104112900D01*
X80493876Y-104112900D01*
X80493877Y-104112899D01*
X80566940Y-104098366D01*
X80604093Y-104073541D01*
X80670768Y-104052664D01*
X80672483Y-104052645D01*
X81400000Y-104050000D01*
X81331048Y-96070455D01*
X81343649Y-96014917D01*
X81345232Y-96011675D01*
X81345239Y-96011667D01*
X81359127Y-95965017D01*
X81360686Y-95960150D01*
X81369479Y-95934538D01*
X81376500Y-95914088D01*
X81376500Y-95914083D01*
X81377706Y-95906852D01*
X81378617Y-95899552D01*
X81376606Y-95850932D01*
X81376500Y-95845807D01*
X81376500Y-94214411D01*
X81379139Y-94188964D01*
X81381043Y-94179885D01*
X81377452Y-94151077D01*
X81376602Y-94137392D01*
X81376501Y-94136170D01*
X81376500Y-94136164D01*
X81376500Y-94136160D01*
X81373330Y-94117166D01*
X81372595Y-94112118D01*
X81366573Y-94063807D01*
X81364475Y-94056761D01*
X81362092Y-94049819D01*
X81338925Y-94007010D01*
X81336581Y-94002456D01*
X81325110Y-93978993D01*
X81312515Y-93925605D01*
X81303796Y-92916601D01*
X81314995Y-92864029D01*
X81350931Y-92785342D01*
X81370390Y-92650000D01*
X81350931Y-92514658D01*
X81350588Y-92513908D01*
X81310319Y-92425731D01*
X81299118Y-92375293D01*
X81290000Y-91320000D01*
X80546807Y-91320000D01*
X80522615Y-91317617D01*
X80510130Y-91315133D01*
X80493875Y-91311900D01*
X80493874Y-91311900D01*
X78894526Y-91311900D01*
X78894525Y-91311900D01*
X78878269Y-91315133D01*
X78865784Y-91317617D01*
X78841593Y-91320000D01*
X78764926Y-91320000D01*
X78697887Y-91300315D01*
X78652132Y-91247511D01*
X78640929Y-91195078D01*
X78659089Y-88752517D01*
X78679272Y-88685626D01*
X78732415Y-88640265D01*
X78782517Y-88629440D01*
X80850000Y-88620000D01*
X80859723Y-82707913D01*
X80879518Y-82640909D01*
X80929260Y-82596721D01*
X80989902Y-82567076D01*
X80989904Y-82567074D01*
X80998267Y-82561104D01*
X81000674Y-82564476D01*
X81043716Y-82540790D01*
X81069202Y-82537876D01*
X82706177Y-82521257D01*
X82773413Y-82540260D01*
G37*
%TD.AperFunction*%
%TD*%
%TA.AperFunction,Conductor*%
%TO.N,5.2V*%
G36*
X72627630Y-76462456D02*
G01*
X72694478Y-76482775D01*
X72739731Y-76536010D01*
X72750427Y-76588974D01*
X72673168Y-80384349D01*
X72671406Y-80402806D01*
X72457702Y-81647623D01*
X72426958Y-81710365D01*
X72402529Y-81730958D01*
X72315411Y-81786945D01*
X72315409Y-81786946D01*
X72225872Y-81890278D01*
X72225867Y-81890285D01*
X72169070Y-82014654D01*
X72169068Y-82014662D01*
X72149610Y-82150000D01*
X72169068Y-82285337D01*
X72169070Y-82285345D01*
X72225867Y-82409714D01*
X72230665Y-82417179D01*
X72228253Y-82418728D01*
X72251236Y-82469044D01*
X72252500Y-82486700D01*
X72252500Y-82874187D01*
X72249861Y-82899635D01*
X72247606Y-82910384D01*
X72251548Y-82942000D01*
X72252500Y-82957338D01*
X72252500Y-82957480D01*
X72255938Y-82978090D01*
X72256675Y-82983152D01*
X72263188Y-83035398D01*
X72265446Y-83042981D01*
X72268017Y-83050470D01*
X72293066Y-83096757D01*
X72295412Y-83101313D01*
X72323037Y-83157821D01*
X72320857Y-83158886D01*
X72336603Y-83198713D01*
X72422978Y-83843644D01*
X72422979Y-83843645D01*
X73352484Y-83834876D01*
X73419706Y-83853927D01*
X73465957Y-83906297D01*
X73477546Y-83964033D01*
X73464279Y-84282417D01*
X73441821Y-84348578D01*
X73434101Y-84358456D01*
X73345870Y-84460282D01*
X73345867Y-84460285D01*
X73289070Y-84584654D01*
X73289068Y-84584662D01*
X73274148Y-84688433D01*
X73245123Y-84751989D01*
X73186345Y-84789763D01*
X73138467Y-84792843D01*
X73138386Y-84793882D01*
X73133535Y-84793500D01*
X72732061Y-84793500D01*
X72630991Y-84809509D01*
X72630924Y-84809087D01*
X72608712Y-84812866D01*
X72282025Y-84820394D01*
X72234705Y-84809609D01*
X72234254Y-84810998D01*
X72224970Y-84807981D01*
X72133535Y-84793500D01*
X71732060Y-84793500D01*
X71732060Y-84793501D01*
X71640627Y-84807982D01*
X71609913Y-84823631D01*
X71556476Y-84837112D01*
X71397675Y-84840771D01*
X71330200Y-84822636D01*
X71283241Y-84770900D01*
X71270838Y-84718937D01*
X71268920Y-84607211D01*
X71272487Y-84582150D01*
X71271793Y-84582049D01*
X71273182Y-84572518D01*
X71284100Y-84497582D01*
X71284100Y-84154418D01*
X71273182Y-84079482D01*
X71271485Y-84076012D01*
X71258902Y-84023679D01*
X71232979Y-82513645D01*
X71232979Y-82513644D01*
X68952801Y-80393645D01*
X68848672Y-80296831D01*
X68812979Y-80236768D01*
X68809435Y-80215044D01*
X68542770Y-76557930D01*
X68557527Y-76489639D01*
X68606864Y-76440165D01*
X68667616Y-76424921D01*
X72627630Y-76462456D01*
G37*
%TD.AperFunction*%
%TD*%
M02*
