%TF.GenerationSoftware,KiCad,Pcbnew,7.0.10*%
%TF.CreationDate,2024-12-22T17:19:54-08:00*%
%TF.ProjectId,mainbox2.1,6d61696e-626f-4783-922e-312e6b696361,rev?*%
%TF.SameCoordinates,Original*%
%TF.FileFunction,Soldermask,Top*%
%TF.FilePolarity,Negative*%
%FSLAX46Y46*%
G04 Gerber Fmt 4.6, Leading zero omitted, Abs format (unit mm)*
G04 Created by KiCad (PCBNEW 7.0.10) date 2024-12-22 17:19:54*
%MOMM*%
%LPD*%
G01*
G04 APERTURE LIST*
G04 APERTURE END LIST*
G36*
X133666000Y-116870000D02*
G01*
X132466000Y-116870000D01*
X132466000Y-114870000D01*
X133666000Y-114870000D01*
X133666000Y-116870000D01*
G37*
G36*
X136206000Y-116870000D02*
G01*
X135006000Y-116870000D01*
X135006000Y-114870000D01*
X136206000Y-114870000D01*
X136206000Y-116870000D01*
G37*
G36*
X138746000Y-116870000D02*
G01*
X137546000Y-116870000D01*
X137546000Y-114870000D01*
X138746000Y-114870000D01*
X138746000Y-116870000D01*
G37*
G36*
X141286000Y-116870000D02*
G01*
X140086000Y-116870000D01*
X140086000Y-114870000D01*
X141286000Y-114870000D01*
X141286000Y-116870000D01*
G37*
G36*
X143826000Y-116870000D02*
G01*
X142626000Y-116870000D01*
X142626000Y-114870000D01*
X143826000Y-114870000D01*
X143826000Y-116870000D01*
G37*
G36*
X65257665Y-111575032D02*
G01*
X65336116Y-111575032D01*
X65408192Y-111584137D01*
X65483353Y-111588684D01*
X65570285Y-111604614D01*
X65653822Y-111615168D01*
X65718518Y-111631779D01*
X65786232Y-111644188D01*
X65876957Y-111672459D01*
X65963993Y-111694806D01*
X66020620Y-111717226D01*
X66080206Y-111735794D01*
X66173009Y-111777561D01*
X66261737Y-111812691D01*
X66309916Y-111839178D01*
X66361005Y-111862171D01*
X66454004Y-111918390D01*
X66542358Y-111966964D01*
X66582013Y-111995775D01*
X66624511Y-112021466D01*
X66715627Y-112092851D01*
X66801431Y-112155191D01*
X66832811Y-112184658D01*
X66866904Y-112211369D01*
X66953966Y-112298431D01*
X67034870Y-112374405D01*
X67058481Y-112402946D01*
X67084630Y-112429095D01*
X67165384Y-112532169D01*
X67238993Y-112621148D01*
X67255618Y-112647345D01*
X67274533Y-112671488D01*
X67346696Y-112790860D01*
X67410582Y-112891528D01*
X67421226Y-112914148D01*
X67433828Y-112934994D01*
X67495126Y-113071193D01*
X67546930Y-113181282D01*
X67552790Y-113199318D01*
X67560205Y-113215793D01*
X67608486Y-113370735D01*
X67645887Y-113485841D01*
X67648304Y-113498514D01*
X67651811Y-113509767D01*
X67685019Y-113690979D01*
X67705892Y-113800400D01*
X67706321Y-113807223D01*
X67707315Y-113812646D01*
X67723587Y-114081659D01*
X67726000Y-114120000D01*
X67723587Y-114158343D01*
X67707315Y-114427353D01*
X67706321Y-114432774D01*
X67705892Y-114439600D01*
X67685014Y-114549044D01*
X67651811Y-114730232D01*
X67648305Y-114741482D01*
X67645887Y-114754159D01*
X67608479Y-114869288D01*
X67560205Y-115024206D01*
X67552791Y-115040678D01*
X67546930Y-115058718D01*
X67495115Y-115168828D01*
X67433828Y-115305005D01*
X67421228Y-115325847D01*
X67410582Y-115348472D01*
X67346683Y-115449159D01*
X67274533Y-115568511D01*
X67255621Y-115592649D01*
X67238993Y-115618852D01*
X67165369Y-115707847D01*
X67084630Y-115810904D01*
X67058486Y-115837047D01*
X67034870Y-115865595D01*
X66953949Y-115941584D01*
X66866904Y-116028630D01*
X66832817Y-116055335D01*
X66801431Y-116084809D01*
X66715609Y-116147161D01*
X66624511Y-116218533D01*
X66582021Y-116244218D01*
X66542358Y-116273036D01*
X66453985Y-116321619D01*
X66361005Y-116377828D01*
X66309926Y-116400816D01*
X66261737Y-116427309D01*
X66172991Y-116462445D01*
X66080206Y-116504205D01*
X66020632Y-116522768D01*
X65963993Y-116545194D01*
X65876938Y-116567545D01*
X65786232Y-116595811D01*
X65718532Y-116608217D01*
X65653822Y-116624832D01*
X65570267Y-116635387D01*
X65483353Y-116651315D01*
X65408207Y-116655860D01*
X65336116Y-116664968D01*
X65257649Y-116664968D01*
X65176000Y-116669907D01*
X65094351Y-116664968D01*
X65015884Y-116664968D01*
X64943792Y-116655860D01*
X64868646Y-116651315D01*
X64781728Y-116635387D01*
X64698178Y-116624832D01*
X64633470Y-116608217D01*
X64565767Y-116595811D01*
X64475055Y-116567544D01*
X64388007Y-116545194D01*
X64331370Y-116522770D01*
X64271793Y-116504205D01*
X64179000Y-116462442D01*
X64090263Y-116427309D01*
X64042077Y-116400818D01*
X63990994Y-116377828D01*
X63898003Y-116321613D01*
X63809642Y-116273036D01*
X63769982Y-116244222D01*
X63727488Y-116218533D01*
X63636376Y-116147151D01*
X63550569Y-116084809D01*
X63519187Y-116055339D01*
X63485095Y-116028630D01*
X63398033Y-115941568D01*
X63317130Y-115865595D01*
X63293518Y-115837053D01*
X63267369Y-115810904D01*
X63186611Y-115707825D01*
X63113007Y-115618852D01*
X63096382Y-115592656D01*
X63077466Y-115568511D01*
X63005295Y-115449126D01*
X62941418Y-115348472D01*
X62930775Y-115325854D01*
X62918171Y-115305005D01*
X62856861Y-115168779D01*
X62805070Y-115058718D01*
X62799211Y-115040686D01*
X62791794Y-115024206D01*
X62743496Y-114869213D01*
X62706113Y-114754159D01*
X62703696Y-114741491D01*
X62700188Y-114730232D01*
X62666960Y-114548911D01*
X62646108Y-114439600D01*
X62645679Y-114432783D01*
X62644684Y-114427353D01*
X62628386Y-114157931D01*
X62626000Y-114120000D01*
X62628386Y-114082071D01*
X62644684Y-113812646D01*
X62645679Y-113807215D01*
X62646108Y-113800400D01*
X62666955Y-113691112D01*
X62700188Y-113509767D01*
X62703696Y-113498506D01*
X62706113Y-113485841D01*
X62743488Y-113370810D01*
X62791794Y-113215793D01*
X62799212Y-113199310D01*
X62805070Y-113181282D01*
X62856850Y-113071242D01*
X62918171Y-112934994D01*
X62930777Y-112914140D01*
X62941418Y-112891528D01*
X63005282Y-112790893D01*
X63077466Y-112671488D01*
X63096385Y-112647338D01*
X63113007Y-112621148D01*
X63186596Y-112532192D01*
X63267369Y-112429095D01*
X63293523Y-112402940D01*
X63317130Y-112374405D01*
X63398017Y-112298446D01*
X63485095Y-112211369D01*
X63519194Y-112184654D01*
X63550569Y-112155191D01*
X63636358Y-112092861D01*
X63727488Y-112021466D01*
X63769991Y-111995771D01*
X63809642Y-111966964D01*
X63897984Y-111918396D01*
X63990994Y-111862171D01*
X64042087Y-111839175D01*
X64090263Y-111812691D01*
X64178981Y-111777564D01*
X64271793Y-111735794D01*
X64331382Y-111717225D01*
X64388007Y-111694806D01*
X64475037Y-111672460D01*
X64565767Y-111644188D01*
X64633483Y-111631778D01*
X64698178Y-111615168D01*
X64781711Y-111604615D01*
X64868646Y-111588684D01*
X64943807Y-111584137D01*
X65015884Y-111575032D01*
X65094334Y-111575032D01*
X65176000Y-111570092D01*
X65257665Y-111575032D01*
G37*
G36*
X123257665Y-111575032D02*
G01*
X123336116Y-111575032D01*
X123408192Y-111584137D01*
X123483353Y-111588684D01*
X123570285Y-111604614D01*
X123653822Y-111615168D01*
X123718518Y-111631779D01*
X123786232Y-111644188D01*
X123876957Y-111672459D01*
X123963993Y-111694806D01*
X124020620Y-111717226D01*
X124080206Y-111735794D01*
X124173009Y-111777561D01*
X124261737Y-111812691D01*
X124309916Y-111839178D01*
X124361005Y-111862171D01*
X124454004Y-111918390D01*
X124542358Y-111966964D01*
X124582013Y-111995775D01*
X124624511Y-112021466D01*
X124715627Y-112092851D01*
X124801431Y-112155191D01*
X124832811Y-112184658D01*
X124866904Y-112211369D01*
X124953966Y-112298431D01*
X125034870Y-112374405D01*
X125058481Y-112402946D01*
X125084630Y-112429095D01*
X125165384Y-112532169D01*
X125238993Y-112621148D01*
X125255618Y-112647345D01*
X125274533Y-112671488D01*
X125346696Y-112790860D01*
X125410582Y-112891528D01*
X125421226Y-112914148D01*
X125433828Y-112934994D01*
X125495126Y-113071193D01*
X125546930Y-113181282D01*
X125552790Y-113199318D01*
X125560205Y-113215793D01*
X125608486Y-113370735D01*
X125645887Y-113485841D01*
X125648304Y-113498514D01*
X125651811Y-113509767D01*
X125685019Y-113690979D01*
X125705892Y-113800400D01*
X125706321Y-113807223D01*
X125707315Y-113812646D01*
X125723587Y-114081659D01*
X125726000Y-114120000D01*
X125723587Y-114158343D01*
X125707315Y-114427353D01*
X125706321Y-114432774D01*
X125705892Y-114439600D01*
X125685014Y-114549044D01*
X125651811Y-114730232D01*
X125648305Y-114741482D01*
X125645887Y-114754159D01*
X125608479Y-114869288D01*
X125560205Y-115024206D01*
X125552791Y-115040678D01*
X125546930Y-115058718D01*
X125495115Y-115168828D01*
X125433828Y-115305005D01*
X125421228Y-115325847D01*
X125410582Y-115348472D01*
X125346683Y-115449159D01*
X125274533Y-115568511D01*
X125255621Y-115592649D01*
X125238993Y-115618852D01*
X125165369Y-115707847D01*
X125084630Y-115810904D01*
X125058486Y-115837047D01*
X125034870Y-115865595D01*
X124953949Y-115941584D01*
X124866904Y-116028630D01*
X124832817Y-116055335D01*
X124801431Y-116084809D01*
X124715609Y-116147161D01*
X124624511Y-116218533D01*
X124582021Y-116244218D01*
X124542358Y-116273036D01*
X124453985Y-116321619D01*
X124361005Y-116377828D01*
X124309926Y-116400816D01*
X124261737Y-116427309D01*
X124172991Y-116462445D01*
X124080206Y-116504205D01*
X124020632Y-116522768D01*
X123963993Y-116545194D01*
X123876938Y-116567545D01*
X123786232Y-116595811D01*
X123718532Y-116608217D01*
X123653822Y-116624832D01*
X123570267Y-116635387D01*
X123483353Y-116651315D01*
X123408207Y-116655860D01*
X123336116Y-116664968D01*
X123257649Y-116664968D01*
X123176000Y-116669907D01*
X123094351Y-116664968D01*
X123015884Y-116664968D01*
X122943792Y-116655860D01*
X122868646Y-116651315D01*
X122781728Y-116635387D01*
X122698178Y-116624832D01*
X122633470Y-116608217D01*
X122565767Y-116595811D01*
X122475055Y-116567544D01*
X122388007Y-116545194D01*
X122331370Y-116522770D01*
X122271793Y-116504205D01*
X122179000Y-116462442D01*
X122090263Y-116427309D01*
X122042077Y-116400818D01*
X121990994Y-116377828D01*
X121898003Y-116321613D01*
X121809642Y-116273036D01*
X121769982Y-116244222D01*
X121727488Y-116218533D01*
X121636376Y-116147151D01*
X121550569Y-116084809D01*
X121519187Y-116055339D01*
X121485095Y-116028630D01*
X121398033Y-115941568D01*
X121317130Y-115865595D01*
X121293518Y-115837053D01*
X121267369Y-115810904D01*
X121186611Y-115707825D01*
X121113007Y-115618852D01*
X121096382Y-115592656D01*
X121077466Y-115568511D01*
X121005295Y-115449126D01*
X120941418Y-115348472D01*
X120930775Y-115325854D01*
X120918171Y-115305005D01*
X120856861Y-115168779D01*
X120805070Y-115058718D01*
X120799211Y-115040686D01*
X120791794Y-115024206D01*
X120743496Y-114869213D01*
X120706113Y-114754159D01*
X120703696Y-114741491D01*
X120700188Y-114730232D01*
X120666960Y-114548911D01*
X120646108Y-114439600D01*
X120645679Y-114432783D01*
X120644684Y-114427353D01*
X120628386Y-114157931D01*
X120626000Y-114120000D01*
X120628386Y-114082071D01*
X120644684Y-113812646D01*
X120645679Y-113807215D01*
X120646108Y-113800400D01*
X120666955Y-113691112D01*
X120700188Y-113509767D01*
X120703696Y-113498506D01*
X120706113Y-113485841D01*
X120743488Y-113370810D01*
X120791794Y-113215793D01*
X120799212Y-113199310D01*
X120805070Y-113181282D01*
X120856850Y-113071242D01*
X120918171Y-112934994D01*
X120930777Y-112914140D01*
X120941418Y-112891528D01*
X121005282Y-112790893D01*
X121077466Y-112671488D01*
X121096385Y-112647338D01*
X121113007Y-112621148D01*
X121186596Y-112532192D01*
X121267369Y-112429095D01*
X121293523Y-112402940D01*
X121317130Y-112374405D01*
X121398017Y-112298446D01*
X121485095Y-112211369D01*
X121519194Y-112184654D01*
X121550569Y-112155191D01*
X121636358Y-112092861D01*
X121727488Y-112021466D01*
X121769991Y-111995771D01*
X121809642Y-111966964D01*
X121897984Y-111918396D01*
X121990994Y-111862171D01*
X122042087Y-111839175D01*
X122090263Y-111812691D01*
X122178981Y-111777564D01*
X122271793Y-111735794D01*
X122331382Y-111717225D01*
X122388007Y-111694806D01*
X122475037Y-111672460D01*
X122565767Y-111644188D01*
X122633483Y-111631778D01*
X122698178Y-111615168D01*
X122781711Y-111604615D01*
X122868646Y-111588684D01*
X122943807Y-111584137D01*
X123015884Y-111575032D01*
X123094334Y-111575032D01*
X123176000Y-111570092D01*
X123257665Y-111575032D01*
G37*
G36*
X70231336Y-114448254D02*
G01*
X70409549Y-114502314D01*
X70573792Y-114590104D01*
X70717751Y-114708249D01*
X70835896Y-114852208D01*
X70923686Y-115016451D01*
X70977746Y-115194664D01*
X70996000Y-115380000D01*
X70977746Y-115565336D01*
X70923686Y-115743549D01*
X70835896Y-115907792D01*
X70717751Y-116051751D01*
X70573792Y-116169896D01*
X70409549Y-116257686D01*
X70231336Y-116311746D01*
X70046000Y-116330000D01*
X69860664Y-116311746D01*
X69682451Y-116257686D01*
X69518208Y-116169896D01*
X69374249Y-116051751D01*
X69256104Y-115907792D01*
X69168314Y-115743549D01*
X69114254Y-115565336D01*
X69096000Y-115380000D01*
X69114254Y-115194664D01*
X69168314Y-115016451D01*
X69256104Y-114852208D01*
X69374249Y-114708249D01*
X69518208Y-114590104D01*
X69682451Y-114502314D01*
X69860664Y-114448254D01*
X70046000Y-114430000D01*
X70231336Y-114448254D01*
G37*
G36*
X72771336Y-114448254D02*
G01*
X72949549Y-114502314D01*
X73113792Y-114590104D01*
X73257751Y-114708249D01*
X73375896Y-114852208D01*
X73463686Y-115016451D01*
X73517746Y-115194664D01*
X73536000Y-115380000D01*
X73517746Y-115565336D01*
X73463686Y-115743549D01*
X73375896Y-115907792D01*
X73257751Y-116051751D01*
X73113792Y-116169896D01*
X72949549Y-116257686D01*
X72771336Y-116311746D01*
X72586000Y-116330000D01*
X72400664Y-116311746D01*
X72222451Y-116257686D01*
X72058208Y-116169896D01*
X71914249Y-116051751D01*
X71796104Y-115907792D01*
X71708314Y-115743549D01*
X71654254Y-115565336D01*
X71636000Y-115380000D01*
X71654254Y-115194664D01*
X71708314Y-115016451D01*
X71796104Y-114852208D01*
X71914249Y-114708249D01*
X72058208Y-114590104D01*
X72222451Y-114502314D01*
X72400664Y-114448254D01*
X72586000Y-114430000D01*
X72771336Y-114448254D01*
G37*
G36*
X75311336Y-114448254D02*
G01*
X75489549Y-114502314D01*
X75653792Y-114590104D01*
X75797751Y-114708249D01*
X75915896Y-114852208D01*
X76003686Y-115016451D01*
X76057746Y-115194664D01*
X76076000Y-115380000D01*
X76057746Y-115565336D01*
X76003686Y-115743549D01*
X75915896Y-115907792D01*
X75797751Y-116051751D01*
X75653792Y-116169896D01*
X75489549Y-116257686D01*
X75311336Y-116311746D01*
X75126000Y-116330000D01*
X74940664Y-116311746D01*
X74762451Y-116257686D01*
X74598208Y-116169896D01*
X74454249Y-116051751D01*
X74336104Y-115907792D01*
X74248314Y-115743549D01*
X74194254Y-115565336D01*
X74176000Y-115380000D01*
X74194254Y-115194664D01*
X74248314Y-115016451D01*
X74336104Y-114852208D01*
X74454249Y-114708249D01*
X74598208Y-114590104D01*
X74762451Y-114502314D01*
X74940664Y-114448254D01*
X75126000Y-114430000D01*
X75311336Y-114448254D01*
G37*
G36*
X77851336Y-114448254D02*
G01*
X78029549Y-114502314D01*
X78193792Y-114590104D01*
X78337751Y-114708249D01*
X78455896Y-114852208D01*
X78543686Y-115016451D01*
X78597746Y-115194664D01*
X78616000Y-115380000D01*
X78597746Y-115565336D01*
X78543686Y-115743549D01*
X78455896Y-115907792D01*
X78337751Y-116051751D01*
X78193792Y-116169896D01*
X78029549Y-116257686D01*
X77851336Y-116311746D01*
X77666000Y-116330000D01*
X77480664Y-116311746D01*
X77302451Y-116257686D01*
X77138208Y-116169896D01*
X76994249Y-116051751D01*
X76876104Y-115907792D01*
X76788314Y-115743549D01*
X76734254Y-115565336D01*
X76716000Y-115380000D01*
X76734254Y-115194664D01*
X76788314Y-115016451D01*
X76876104Y-114852208D01*
X76994249Y-114708249D01*
X77138208Y-114590104D01*
X77302451Y-114502314D01*
X77480664Y-114448254D01*
X77666000Y-114430000D01*
X77851336Y-114448254D01*
G37*
G36*
X80391336Y-114448254D02*
G01*
X80569549Y-114502314D01*
X80733792Y-114590104D01*
X80877751Y-114708249D01*
X80995896Y-114852208D01*
X81083686Y-115016451D01*
X81137746Y-115194664D01*
X81156000Y-115380000D01*
X81137746Y-115565336D01*
X81083686Y-115743549D01*
X80995896Y-115907792D01*
X80877751Y-116051751D01*
X80733792Y-116169896D01*
X80569549Y-116257686D01*
X80391336Y-116311746D01*
X80206000Y-116330000D01*
X80020664Y-116311746D01*
X79842451Y-116257686D01*
X79678208Y-116169896D01*
X79534249Y-116051751D01*
X79416104Y-115907792D01*
X79328314Y-115743549D01*
X79274254Y-115565336D01*
X79256000Y-115380000D01*
X79274254Y-115194664D01*
X79328314Y-115016451D01*
X79416104Y-114852208D01*
X79534249Y-114708249D01*
X79678208Y-114590104D01*
X79842451Y-114502314D01*
X80020664Y-114448254D01*
X80206000Y-114430000D01*
X80391336Y-114448254D01*
G37*
G36*
X85471336Y-114448254D02*
G01*
X85649549Y-114502314D01*
X85813792Y-114590104D01*
X85957751Y-114708249D01*
X86075896Y-114852208D01*
X86163686Y-115016451D01*
X86217746Y-115194664D01*
X86236000Y-115380000D01*
X86217746Y-115565336D01*
X86163686Y-115743549D01*
X86075896Y-115907792D01*
X85957751Y-116051751D01*
X85813792Y-116169896D01*
X85649549Y-116257686D01*
X85471336Y-116311746D01*
X85286000Y-116330000D01*
X85100664Y-116311746D01*
X84922451Y-116257686D01*
X84758208Y-116169896D01*
X84614249Y-116051751D01*
X84496104Y-115907792D01*
X84408314Y-115743549D01*
X84354254Y-115565336D01*
X84336000Y-115380000D01*
X84354254Y-115194664D01*
X84408314Y-115016451D01*
X84496104Y-114852208D01*
X84614249Y-114708249D01*
X84758208Y-114590104D01*
X84922451Y-114502314D01*
X85100664Y-114448254D01*
X85286000Y-114430000D01*
X85471336Y-114448254D01*
G37*
G36*
X93091336Y-114448254D02*
G01*
X93269549Y-114502314D01*
X93433792Y-114590104D01*
X93577751Y-114708249D01*
X93695896Y-114852208D01*
X93783686Y-115016451D01*
X93837746Y-115194664D01*
X93856000Y-115380000D01*
X93837746Y-115565336D01*
X93783686Y-115743549D01*
X93695896Y-115907792D01*
X93577751Y-116051751D01*
X93433792Y-116169896D01*
X93269549Y-116257686D01*
X93091336Y-116311746D01*
X92906000Y-116330000D01*
X92720664Y-116311746D01*
X92542451Y-116257686D01*
X92378208Y-116169896D01*
X92234249Y-116051751D01*
X92116104Y-115907792D01*
X92028314Y-115743549D01*
X91974254Y-115565336D01*
X91956000Y-115380000D01*
X91974254Y-115194664D01*
X92028314Y-115016451D01*
X92116104Y-114852208D01*
X92234249Y-114708249D01*
X92378208Y-114590104D01*
X92542451Y-114502314D01*
X92720664Y-114448254D01*
X92906000Y-114430000D01*
X93091336Y-114448254D01*
G37*
G36*
X95631336Y-114448254D02*
G01*
X95809549Y-114502314D01*
X95973792Y-114590104D01*
X96117751Y-114708249D01*
X96235896Y-114852208D01*
X96323686Y-115016451D01*
X96377746Y-115194664D01*
X96396000Y-115380000D01*
X96377746Y-115565336D01*
X96323686Y-115743549D01*
X96235896Y-115907792D01*
X96117751Y-116051751D01*
X95973792Y-116169896D01*
X95809549Y-116257686D01*
X95631336Y-116311746D01*
X95446000Y-116330000D01*
X95260664Y-116311746D01*
X95082451Y-116257686D01*
X94918208Y-116169896D01*
X94774249Y-116051751D01*
X94656104Y-115907792D01*
X94568314Y-115743549D01*
X94514254Y-115565336D01*
X94496000Y-115380000D01*
X94514254Y-115194664D01*
X94568314Y-115016451D01*
X94656104Y-114852208D01*
X94774249Y-114708249D01*
X94918208Y-114590104D01*
X95082451Y-114502314D01*
X95260664Y-114448254D01*
X95446000Y-114430000D01*
X95631336Y-114448254D01*
G37*
G36*
X98171336Y-114448254D02*
G01*
X98349549Y-114502314D01*
X98513792Y-114590104D01*
X98657751Y-114708249D01*
X98775896Y-114852208D01*
X98863686Y-115016451D01*
X98917746Y-115194664D01*
X98936000Y-115380000D01*
X98917746Y-115565336D01*
X98863686Y-115743549D01*
X98775896Y-115907792D01*
X98657751Y-116051751D01*
X98513792Y-116169896D01*
X98349549Y-116257686D01*
X98171336Y-116311746D01*
X97986000Y-116330000D01*
X97800664Y-116311746D01*
X97622451Y-116257686D01*
X97458208Y-116169896D01*
X97314249Y-116051751D01*
X97196104Y-115907792D01*
X97108314Y-115743549D01*
X97054254Y-115565336D01*
X97036000Y-115380000D01*
X97054254Y-115194664D01*
X97108314Y-115016451D01*
X97196104Y-114852208D01*
X97314249Y-114708249D01*
X97458208Y-114590104D01*
X97622451Y-114502314D01*
X97800664Y-114448254D01*
X97986000Y-114430000D01*
X98171336Y-114448254D01*
G37*
G36*
X100711336Y-114448254D02*
G01*
X100889549Y-114502314D01*
X101053792Y-114590104D01*
X101197751Y-114708249D01*
X101315896Y-114852208D01*
X101403686Y-115016451D01*
X101457746Y-115194664D01*
X101476000Y-115380000D01*
X101457746Y-115565336D01*
X101403686Y-115743549D01*
X101315896Y-115907792D01*
X101197751Y-116051751D01*
X101053792Y-116169896D01*
X100889549Y-116257686D01*
X100711336Y-116311746D01*
X100526000Y-116330000D01*
X100340664Y-116311746D01*
X100162451Y-116257686D01*
X99998208Y-116169896D01*
X99854249Y-116051751D01*
X99736104Y-115907792D01*
X99648314Y-115743549D01*
X99594254Y-115565336D01*
X99576000Y-115380000D01*
X99594254Y-115194664D01*
X99648314Y-115016451D01*
X99736104Y-114852208D01*
X99854249Y-114708249D01*
X99998208Y-114590104D01*
X100162451Y-114502314D01*
X100340664Y-114448254D01*
X100526000Y-114430000D01*
X100711336Y-114448254D01*
G37*
G36*
X103251336Y-114448254D02*
G01*
X103429549Y-114502314D01*
X103593792Y-114590104D01*
X103737751Y-114708249D01*
X103855896Y-114852208D01*
X103943686Y-115016451D01*
X103997746Y-115194664D01*
X104016000Y-115380000D01*
X103997746Y-115565336D01*
X103943686Y-115743549D01*
X103855896Y-115907792D01*
X103737751Y-116051751D01*
X103593792Y-116169896D01*
X103429549Y-116257686D01*
X103251336Y-116311746D01*
X103066000Y-116330000D01*
X102880664Y-116311746D01*
X102702451Y-116257686D01*
X102538208Y-116169896D01*
X102394249Y-116051751D01*
X102276104Y-115907792D01*
X102188314Y-115743549D01*
X102134254Y-115565336D01*
X102116000Y-115380000D01*
X102134254Y-115194664D01*
X102188314Y-115016451D01*
X102276104Y-114852208D01*
X102394249Y-114708249D01*
X102538208Y-114590104D01*
X102702451Y-114502314D01*
X102880664Y-114448254D01*
X103066000Y-114430000D01*
X103251336Y-114448254D01*
G37*
G36*
X105791336Y-114448254D02*
G01*
X105969549Y-114502314D01*
X106133792Y-114590104D01*
X106277751Y-114708249D01*
X106395896Y-114852208D01*
X106483686Y-115016451D01*
X106537746Y-115194664D01*
X106556000Y-115380000D01*
X106537746Y-115565336D01*
X106483686Y-115743549D01*
X106395896Y-115907792D01*
X106277751Y-116051751D01*
X106133792Y-116169896D01*
X105969549Y-116257686D01*
X105791336Y-116311746D01*
X105606000Y-116330000D01*
X105420664Y-116311746D01*
X105242451Y-116257686D01*
X105078208Y-116169896D01*
X104934249Y-116051751D01*
X104816104Y-115907792D01*
X104728314Y-115743549D01*
X104674254Y-115565336D01*
X104656000Y-115380000D01*
X104674254Y-115194664D01*
X104728314Y-115016451D01*
X104816104Y-114852208D01*
X104934249Y-114708249D01*
X105078208Y-114590104D01*
X105242451Y-114502314D01*
X105420664Y-114448254D01*
X105606000Y-114430000D01*
X105791336Y-114448254D01*
G37*
G36*
X108331336Y-114448254D02*
G01*
X108509549Y-114502314D01*
X108673792Y-114590104D01*
X108817751Y-114708249D01*
X108935896Y-114852208D01*
X109023686Y-115016451D01*
X109077746Y-115194664D01*
X109096000Y-115380000D01*
X109077746Y-115565336D01*
X109023686Y-115743549D01*
X108935896Y-115907792D01*
X108817751Y-116051751D01*
X108673792Y-116169896D01*
X108509549Y-116257686D01*
X108331336Y-116311746D01*
X108146000Y-116330000D01*
X107960664Y-116311746D01*
X107782451Y-116257686D01*
X107618208Y-116169896D01*
X107474249Y-116051751D01*
X107356104Y-115907792D01*
X107268314Y-115743549D01*
X107214254Y-115565336D01*
X107196000Y-115380000D01*
X107214254Y-115194664D01*
X107268314Y-115016451D01*
X107356104Y-114852208D01*
X107474249Y-114708249D01*
X107618208Y-114590104D01*
X107782451Y-114502314D01*
X107960664Y-114448254D01*
X108146000Y-114430000D01*
X108331336Y-114448254D01*
G37*
G36*
X110871336Y-114448254D02*
G01*
X111049549Y-114502314D01*
X111213792Y-114590104D01*
X111357751Y-114708249D01*
X111475896Y-114852208D01*
X111563686Y-115016451D01*
X111617746Y-115194664D01*
X111636000Y-115380000D01*
X111617746Y-115565336D01*
X111563686Y-115743549D01*
X111475896Y-115907792D01*
X111357751Y-116051751D01*
X111213792Y-116169896D01*
X111049549Y-116257686D01*
X110871336Y-116311746D01*
X110686000Y-116330000D01*
X110500664Y-116311746D01*
X110322451Y-116257686D01*
X110158208Y-116169896D01*
X110014249Y-116051751D01*
X109896104Y-115907792D01*
X109808314Y-115743549D01*
X109754254Y-115565336D01*
X109736000Y-115380000D01*
X109754254Y-115194664D01*
X109808314Y-115016451D01*
X109896104Y-114852208D01*
X110014249Y-114708249D01*
X110158208Y-114590104D01*
X110322451Y-114502314D01*
X110500664Y-114448254D01*
X110686000Y-114430000D01*
X110871336Y-114448254D01*
G37*
G36*
X131331090Y-113889215D02*
G01*
X131518683Y-113946120D01*
X131691570Y-114038530D01*
X131843107Y-114162893D01*
X131967470Y-114314430D01*
X132059880Y-114487317D01*
X132116785Y-114674910D01*
X132136000Y-114870000D01*
X132116785Y-115065090D01*
X132059880Y-115252683D01*
X131967470Y-115425570D01*
X131843107Y-115577107D01*
X131691570Y-115701470D01*
X131518683Y-115793880D01*
X131331090Y-115850785D01*
X131136000Y-115870000D01*
X130940910Y-115850785D01*
X130753317Y-115793880D01*
X130580430Y-115701470D01*
X130428893Y-115577107D01*
X130304530Y-115425570D01*
X130212120Y-115252683D01*
X130155215Y-115065090D01*
X130136000Y-114870000D01*
X130155215Y-114674910D01*
X130212120Y-114487317D01*
X130304530Y-114314430D01*
X130428893Y-114162893D01*
X130580430Y-114038530D01*
X130753317Y-113946120D01*
X130940910Y-113889215D01*
X131136000Y-113870000D01*
X131331090Y-113889215D01*
G37*
G36*
X146611090Y-113889215D02*
G01*
X146798683Y-113946120D01*
X146971570Y-114038530D01*
X147123107Y-114162893D01*
X147247470Y-114314430D01*
X147339880Y-114487317D01*
X147396785Y-114674910D01*
X147416000Y-114870000D01*
X147396785Y-115065090D01*
X147339880Y-115252683D01*
X147247470Y-115425570D01*
X147123107Y-115577107D01*
X146971570Y-115701470D01*
X146798683Y-115793880D01*
X146611090Y-115850785D01*
X146416000Y-115870000D01*
X146220910Y-115850785D01*
X146033317Y-115793880D01*
X145860430Y-115701470D01*
X145708893Y-115577107D01*
X145584530Y-115425570D01*
X145492120Y-115252683D01*
X145435215Y-115065090D01*
X145416000Y-114870000D01*
X145435215Y-114674910D01*
X145492120Y-114487317D01*
X145584530Y-114314430D01*
X145708893Y-114162893D01*
X145860430Y-114038530D01*
X146033317Y-113946120D01*
X146220910Y-113889215D01*
X146416000Y-113870000D01*
X146611090Y-113889215D01*
G37*
G36*
X77851336Y-111908254D02*
G01*
X78029549Y-111962314D01*
X78193792Y-112050104D01*
X78337751Y-112168249D01*
X78455896Y-112312208D01*
X78543686Y-112476451D01*
X78597746Y-112654664D01*
X78616000Y-112840000D01*
X78597746Y-113025336D01*
X78543686Y-113203549D01*
X78455896Y-113367792D01*
X78337751Y-113511751D01*
X78193792Y-113629896D01*
X78029549Y-113717686D01*
X77851336Y-113771746D01*
X77666000Y-113790000D01*
X77480664Y-113771746D01*
X77302451Y-113717686D01*
X77138208Y-113629896D01*
X76994249Y-113511751D01*
X76876104Y-113367792D01*
X76788314Y-113203549D01*
X76734254Y-113025336D01*
X76716000Y-112840000D01*
X76734254Y-112654664D01*
X76788314Y-112476451D01*
X76876104Y-112312208D01*
X76994249Y-112168249D01*
X77138208Y-112050104D01*
X77302451Y-111962314D01*
X77480664Y-111908254D01*
X77666000Y-111890000D01*
X77851336Y-111908254D01*
G37*
G36*
X80391336Y-111908254D02*
G01*
X80569549Y-111962314D01*
X80733792Y-112050104D01*
X80877751Y-112168249D01*
X80995896Y-112312208D01*
X81083686Y-112476451D01*
X81137746Y-112654664D01*
X81156000Y-112840000D01*
X81137746Y-113025336D01*
X81083686Y-113203549D01*
X80995896Y-113367792D01*
X80877751Y-113511751D01*
X80733792Y-113629896D01*
X80569549Y-113717686D01*
X80391336Y-113771746D01*
X80206000Y-113790000D01*
X80020664Y-113771746D01*
X79842451Y-113717686D01*
X79678208Y-113629896D01*
X79534249Y-113511751D01*
X79416104Y-113367792D01*
X79328314Y-113203549D01*
X79274254Y-113025336D01*
X79256000Y-112840000D01*
X79274254Y-112654664D01*
X79328314Y-112476451D01*
X79416104Y-112312208D01*
X79534249Y-112168249D01*
X79678208Y-112050104D01*
X79842451Y-111962314D01*
X80020664Y-111908254D01*
X80206000Y-111890000D01*
X80391336Y-111908254D01*
G37*
G36*
X85471336Y-111908254D02*
G01*
X85649549Y-111962314D01*
X85813792Y-112050104D01*
X85957751Y-112168249D01*
X86075896Y-112312208D01*
X86163686Y-112476451D01*
X86217746Y-112654664D01*
X86236000Y-112840000D01*
X86217746Y-113025336D01*
X86163686Y-113203549D01*
X86075896Y-113367792D01*
X85957751Y-113511751D01*
X85813792Y-113629896D01*
X85649549Y-113717686D01*
X85471336Y-113771746D01*
X85286000Y-113790000D01*
X85100664Y-113771746D01*
X84922451Y-113717686D01*
X84758208Y-113629896D01*
X84614249Y-113511751D01*
X84496104Y-113367792D01*
X84408314Y-113203549D01*
X84354254Y-113025336D01*
X84336000Y-112840000D01*
X84354254Y-112654664D01*
X84408314Y-112476451D01*
X84496104Y-112312208D01*
X84614249Y-112168249D01*
X84758208Y-112050104D01*
X84922451Y-111962314D01*
X85100664Y-111908254D01*
X85286000Y-111890000D01*
X85471336Y-111908254D01*
G37*
G36*
X88011336Y-111908254D02*
G01*
X88189549Y-111962314D01*
X88353792Y-112050104D01*
X88497751Y-112168249D01*
X88615896Y-112312208D01*
X88703686Y-112476451D01*
X88757746Y-112654664D01*
X88776000Y-112840000D01*
X88757746Y-113025336D01*
X88703686Y-113203549D01*
X88615896Y-113367792D01*
X88497751Y-113511751D01*
X88353792Y-113629896D01*
X88189549Y-113717686D01*
X88011336Y-113771746D01*
X87826000Y-113790000D01*
X87640664Y-113771746D01*
X87462451Y-113717686D01*
X87298208Y-113629896D01*
X87154249Y-113511751D01*
X87036104Y-113367792D01*
X86948314Y-113203549D01*
X86894254Y-113025336D01*
X86876000Y-112840000D01*
X86894254Y-112654664D01*
X86948314Y-112476451D01*
X87036104Y-112312208D01*
X87154249Y-112168249D01*
X87298208Y-112050104D01*
X87462451Y-111962314D01*
X87640664Y-111908254D01*
X87826000Y-111890000D01*
X88011336Y-111908254D01*
G37*
G36*
X90551336Y-111908254D02*
G01*
X90729549Y-111962314D01*
X90893792Y-112050104D01*
X91037751Y-112168249D01*
X91155896Y-112312208D01*
X91243686Y-112476451D01*
X91297746Y-112654664D01*
X91316000Y-112840000D01*
X91297746Y-113025336D01*
X91243686Y-113203549D01*
X91155896Y-113367792D01*
X91037751Y-113511751D01*
X90893792Y-113629896D01*
X90729549Y-113717686D01*
X90551336Y-113771746D01*
X90366000Y-113790000D01*
X90180664Y-113771746D01*
X90002451Y-113717686D01*
X89838208Y-113629896D01*
X89694249Y-113511751D01*
X89576104Y-113367792D01*
X89488314Y-113203549D01*
X89434254Y-113025336D01*
X89416000Y-112840000D01*
X89434254Y-112654664D01*
X89488314Y-112476451D01*
X89576104Y-112312208D01*
X89694249Y-112168249D01*
X89838208Y-112050104D01*
X90002451Y-111962314D01*
X90180664Y-111908254D01*
X90366000Y-111890000D01*
X90551336Y-111908254D01*
G37*
G36*
X93091336Y-111908254D02*
G01*
X93269549Y-111962314D01*
X93433792Y-112050104D01*
X93577751Y-112168249D01*
X93695896Y-112312208D01*
X93783686Y-112476451D01*
X93837746Y-112654664D01*
X93856000Y-112840000D01*
X93837746Y-113025336D01*
X93783686Y-113203549D01*
X93695896Y-113367792D01*
X93577751Y-113511751D01*
X93433792Y-113629896D01*
X93269549Y-113717686D01*
X93091336Y-113771746D01*
X92906000Y-113790000D01*
X92720664Y-113771746D01*
X92542451Y-113717686D01*
X92378208Y-113629896D01*
X92234249Y-113511751D01*
X92116104Y-113367792D01*
X92028314Y-113203549D01*
X91974254Y-113025336D01*
X91956000Y-112840000D01*
X91974254Y-112654664D01*
X92028314Y-112476451D01*
X92116104Y-112312208D01*
X92234249Y-112168249D01*
X92378208Y-112050104D01*
X92542451Y-111962314D01*
X92720664Y-111908254D01*
X92906000Y-111890000D01*
X93091336Y-111908254D01*
G37*
G36*
X95631336Y-111908254D02*
G01*
X95809549Y-111962314D01*
X95973792Y-112050104D01*
X96117751Y-112168249D01*
X96235896Y-112312208D01*
X96323686Y-112476451D01*
X96377746Y-112654664D01*
X96396000Y-112840000D01*
X96377746Y-113025336D01*
X96323686Y-113203549D01*
X96235896Y-113367792D01*
X96117751Y-113511751D01*
X95973792Y-113629896D01*
X95809549Y-113717686D01*
X95631336Y-113771746D01*
X95446000Y-113790000D01*
X95260664Y-113771746D01*
X95082451Y-113717686D01*
X94918208Y-113629896D01*
X94774249Y-113511751D01*
X94656104Y-113367792D01*
X94568314Y-113203549D01*
X94514254Y-113025336D01*
X94496000Y-112840000D01*
X94514254Y-112654664D01*
X94568314Y-112476451D01*
X94656104Y-112312208D01*
X94774249Y-112168249D01*
X94918208Y-112050104D01*
X95082451Y-111962314D01*
X95260664Y-111908254D01*
X95446000Y-111890000D01*
X95631336Y-111908254D01*
G37*
G36*
X98171336Y-111908254D02*
G01*
X98349549Y-111962314D01*
X98513792Y-112050104D01*
X98657751Y-112168249D01*
X98775896Y-112312208D01*
X98863686Y-112476451D01*
X98917746Y-112654664D01*
X98936000Y-112840000D01*
X98917746Y-113025336D01*
X98863686Y-113203549D01*
X98775896Y-113367792D01*
X98657751Y-113511751D01*
X98513792Y-113629896D01*
X98349549Y-113717686D01*
X98171336Y-113771746D01*
X97986000Y-113790000D01*
X97800664Y-113771746D01*
X97622451Y-113717686D01*
X97458208Y-113629896D01*
X97314249Y-113511751D01*
X97196104Y-113367792D01*
X97108314Y-113203549D01*
X97054254Y-113025336D01*
X97036000Y-112840000D01*
X97054254Y-112654664D01*
X97108314Y-112476451D01*
X97196104Y-112312208D01*
X97314249Y-112168249D01*
X97458208Y-112050104D01*
X97622451Y-111962314D01*
X97800664Y-111908254D01*
X97986000Y-111890000D01*
X98171336Y-111908254D01*
G37*
G36*
X100711336Y-111908254D02*
G01*
X100889549Y-111962314D01*
X101053792Y-112050104D01*
X101197751Y-112168249D01*
X101315896Y-112312208D01*
X101403686Y-112476451D01*
X101457746Y-112654664D01*
X101476000Y-112840000D01*
X101457746Y-113025336D01*
X101403686Y-113203549D01*
X101315896Y-113367792D01*
X101197751Y-113511751D01*
X101053792Y-113629896D01*
X100889549Y-113717686D01*
X100711336Y-113771746D01*
X100526000Y-113790000D01*
X100340664Y-113771746D01*
X100162451Y-113717686D01*
X99998208Y-113629896D01*
X99854249Y-113511751D01*
X99736104Y-113367792D01*
X99648314Y-113203549D01*
X99594254Y-113025336D01*
X99576000Y-112840000D01*
X99594254Y-112654664D01*
X99648314Y-112476451D01*
X99736104Y-112312208D01*
X99854249Y-112168249D01*
X99998208Y-112050104D01*
X100162451Y-111962314D01*
X100340664Y-111908254D01*
X100526000Y-111890000D01*
X100711336Y-111908254D01*
G37*
G36*
X103251336Y-111908254D02*
G01*
X103429549Y-111962314D01*
X103593792Y-112050104D01*
X103737751Y-112168249D01*
X103855896Y-112312208D01*
X103943686Y-112476451D01*
X103997746Y-112654664D01*
X104016000Y-112840000D01*
X103997746Y-113025336D01*
X103943686Y-113203549D01*
X103855896Y-113367792D01*
X103737751Y-113511751D01*
X103593792Y-113629896D01*
X103429549Y-113717686D01*
X103251336Y-113771746D01*
X103066000Y-113790000D01*
X102880664Y-113771746D01*
X102702451Y-113717686D01*
X102538208Y-113629896D01*
X102394249Y-113511751D01*
X102276104Y-113367792D01*
X102188314Y-113203549D01*
X102134254Y-113025336D01*
X102116000Y-112840000D01*
X102134254Y-112654664D01*
X102188314Y-112476451D01*
X102276104Y-112312208D01*
X102394249Y-112168249D01*
X102538208Y-112050104D01*
X102702451Y-111962314D01*
X102880664Y-111908254D01*
X103066000Y-111890000D01*
X103251336Y-111908254D01*
G37*
G36*
X105791336Y-111908254D02*
G01*
X105969549Y-111962314D01*
X106133792Y-112050104D01*
X106277751Y-112168249D01*
X106395896Y-112312208D01*
X106483686Y-112476451D01*
X106537746Y-112654664D01*
X106556000Y-112840000D01*
X106537746Y-113025336D01*
X106483686Y-113203549D01*
X106395896Y-113367792D01*
X106277751Y-113511751D01*
X106133792Y-113629896D01*
X105969549Y-113717686D01*
X105791336Y-113771746D01*
X105606000Y-113790000D01*
X105420664Y-113771746D01*
X105242451Y-113717686D01*
X105078208Y-113629896D01*
X104934249Y-113511751D01*
X104816104Y-113367792D01*
X104728314Y-113203549D01*
X104674254Y-113025336D01*
X104656000Y-112840000D01*
X104674254Y-112654664D01*
X104728314Y-112476451D01*
X104816104Y-112312208D01*
X104934249Y-112168249D01*
X105078208Y-112050104D01*
X105242451Y-111962314D01*
X105420664Y-111908254D01*
X105606000Y-111890000D01*
X105791336Y-111908254D01*
G37*
G36*
X110871336Y-111908254D02*
G01*
X111049549Y-111962314D01*
X111213792Y-112050104D01*
X111357751Y-112168249D01*
X111475896Y-112312208D01*
X111563686Y-112476451D01*
X111617746Y-112654664D01*
X111636000Y-112840000D01*
X111617746Y-113025336D01*
X111563686Y-113203549D01*
X111475896Y-113367792D01*
X111357751Y-113511751D01*
X111213792Y-113629896D01*
X111049549Y-113717686D01*
X110871336Y-113771746D01*
X110686000Y-113790000D01*
X110500664Y-113771746D01*
X110322451Y-113717686D01*
X110158208Y-113629896D01*
X110014249Y-113511751D01*
X109896104Y-113367792D01*
X109808314Y-113203549D01*
X109754254Y-113025336D01*
X109736000Y-112840000D01*
X109754254Y-112654664D01*
X109808314Y-112476451D01*
X109896104Y-112312208D01*
X110014249Y-112168249D01*
X110158208Y-112050104D01*
X110322451Y-111962314D01*
X110500664Y-111908254D01*
X110686000Y-111890000D01*
X110871336Y-111908254D01*
G37*
G36*
X113411336Y-111908254D02*
G01*
X113589549Y-111962314D01*
X113753792Y-112050104D01*
X113897751Y-112168249D01*
X114015896Y-112312208D01*
X114103686Y-112476451D01*
X114157746Y-112654664D01*
X114176000Y-112840000D01*
X114157746Y-113025336D01*
X114103686Y-113203549D01*
X114015896Y-113367792D01*
X113897751Y-113511751D01*
X113753792Y-113629896D01*
X113589549Y-113717686D01*
X113411336Y-113771746D01*
X113226000Y-113790000D01*
X113040664Y-113771746D01*
X112862451Y-113717686D01*
X112698208Y-113629896D01*
X112554249Y-113511751D01*
X112436104Y-113367792D01*
X112348314Y-113203549D01*
X112294254Y-113025336D01*
X112276000Y-112840000D01*
X112294254Y-112654664D01*
X112348314Y-112476451D01*
X112436104Y-112312208D01*
X112554249Y-112168249D01*
X112698208Y-112050104D01*
X112862451Y-111962314D01*
X113040664Y-111908254D01*
X113226000Y-111890000D01*
X113411336Y-111908254D01*
G37*
G36*
X115951336Y-111908254D02*
G01*
X116129549Y-111962314D01*
X116293792Y-112050104D01*
X116437751Y-112168249D01*
X116555896Y-112312208D01*
X116643686Y-112476451D01*
X116697746Y-112654664D01*
X116716000Y-112840000D01*
X116697746Y-113025336D01*
X116643686Y-113203549D01*
X116555896Y-113367792D01*
X116437751Y-113511751D01*
X116293792Y-113629896D01*
X116129549Y-113717686D01*
X115951336Y-113771746D01*
X115766000Y-113790000D01*
X115580664Y-113771746D01*
X115402451Y-113717686D01*
X115238208Y-113629896D01*
X115094249Y-113511751D01*
X114976104Y-113367792D01*
X114888314Y-113203549D01*
X114834254Y-113025336D01*
X114816000Y-112840000D01*
X114834254Y-112654664D01*
X114888314Y-112476451D01*
X114976104Y-112312208D01*
X115094249Y-112168249D01*
X115238208Y-112050104D01*
X115402451Y-111962314D01*
X115580664Y-111908254D01*
X115766000Y-111890000D01*
X115951336Y-111908254D01*
G37*
G36*
X134936000Y-110870000D02*
G01*
X133736000Y-110870000D01*
X133736000Y-108870000D01*
X134936000Y-108870000D01*
X134936000Y-110870000D01*
G37*
G36*
X137476000Y-110870000D02*
G01*
X136276000Y-110870000D01*
X136276000Y-108870000D01*
X137476000Y-108870000D01*
X137476000Y-110870000D01*
G37*
G36*
X140016000Y-110870000D02*
G01*
X138816000Y-110870000D01*
X138816000Y-108870000D01*
X140016000Y-108870000D01*
X140016000Y-110870000D01*
G37*
G36*
X142556000Y-110870000D02*
G01*
X141356000Y-110870000D01*
X141356000Y-108870000D01*
X142556000Y-108870000D01*
X142556000Y-110870000D01*
G37*
G36*
X145096000Y-110870000D02*
G01*
X143896000Y-110870000D01*
X143896000Y-108870000D01*
X145096000Y-108870000D01*
X145096000Y-110870000D01*
G37*
G36*
X74294200Y-110162400D02*
G01*
X71544200Y-110162400D01*
X71544200Y-108962400D01*
X74294200Y-108962400D01*
X74294200Y-110162400D01*
G37*
G36*
X77453859Y-108641963D02*
G01*
X77488463Y-108641963D01*
X77528141Y-108651742D01*
X77568021Y-108656993D01*
X77595318Y-108668299D01*
X77622965Y-108675114D01*
X77664877Y-108697111D01*
X77706700Y-108714435D01*
X77725782Y-108729077D01*
X77745623Y-108739491D01*
X77786193Y-108775433D01*
X77825786Y-108805814D01*
X77837037Y-108820476D01*
X77849314Y-108831353D01*
X77884512Y-108882346D01*
X77917165Y-108924900D01*
X77922087Y-108936783D01*
X77928005Y-108945357D01*
X77953682Y-109013062D01*
X77974607Y-109063579D01*
X77975545Y-109070710D01*
X77977128Y-109074882D01*
X77989387Y-109175843D01*
X77994200Y-109212400D01*
X77989386Y-109248959D01*
X77977128Y-109349917D01*
X77975546Y-109354088D01*
X77974607Y-109361221D01*
X77953678Y-109411748D01*
X77928005Y-109479442D01*
X77922088Y-109488013D01*
X77917165Y-109499900D01*
X77884505Y-109542462D01*
X77849314Y-109593446D01*
X77837039Y-109604320D01*
X77825786Y-109618986D01*
X77786185Y-109649373D01*
X77745623Y-109685308D01*
X77725786Y-109695719D01*
X77706700Y-109710365D01*
X77664868Y-109727691D01*
X77622965Y-109749685D01*
X77595323Y-109756498D01*
X77568021Y-109767807D01*
X77528139Y-109773057D01*
X77488463Y-109782837D01*
X77453859Y-109782837D01*
X77419200Y-109787400D01*
X77384541Y-109782837D01*
X77349937Y-109782837D01*
X77310260Y-109773057D01*
X77270379Y-109767807D01*
X77243077Y-109756498D01*
X77215434Y-109749685D01*
X77173526Y-109727689D01*
X77131700Y-109710365D01*
X77112615Y-109695720D01*
X77092776Y-109685308D01*
X77052207Y-109649367D01*
X77012614Y-109618986D01*
X77001362Y-109604322D01*
X76989085Y-109593446D01*
X76953884Y-109542449D01*
X76921235Y-109499900D01*
X76916313Y-109488017D01*
X76910394Y-109479442D01*
X76884709Y-109411719D01*
X76863793Y-109361221D01*
X76862854Y-109354092D01*
X76861271Y-109349917D01*
X76849000Y-109248862D01*
X76844200Y-109212400D01*
X76848999Y-109175941D01*
X76861271Y-109074882D01*
X76862854Y-109070706D01*
X76863793Y-109063579D01*
X76884705Y-109013091D01*
X76910394Y-108945357D01*
X76916314Y-108936780D01*
X76921235Y-108924900D01*
X76953878Y-108882359D01*
X76989085Y-108831353D01*
X77001364Y-108820474D01*
X77012614Y-108805814D01*
X77052199Y-108775438D01*
X77092776Y-108739491D01*
X77112619Y-108729076D01*
X77131700Y-108714435D01*
X77173517Y-108697113D01*
X77215434Y-108675114D01*
X77243082Y-108668299D01*
X77270379Y-108656993D01*
X77310257Y-108651742D01*
X77349937Y-108641963D01*
X77384541Y-108641963D01*
X77419200Y-108637400D01*
X77453859Y-108641963D01*
G37*
G36*
X72919200Y-108612400D02*
G01*
X71369200Y-108612400D01*
X71369200Y-108312400D01*
X72919200Y-108312400D01*
X72919200Y-108612400D01*
G37*
G36*
X80469200Y-108362400D02*
G01*
X78919200Y-108362400D01*
X78919200Y-108062400D01*
X80469200Y-108062400D01*
X80469200Y-108362400D01*
G37*
G36*
X72919200Y-108112400D02*
G01*
X71369200Y-108112400D01*
X71369200Y-107812400D01*
X72919200Y-107812400D01*
X72919200Y-108112400D01*
G37*
G36*
X82313576Y-107510657D02*
G01*
X82358995Y-107541005D01*
X82389343Y-107586424D01*
X82400000Y-107640000D01*
X82400000Y-107920000D01*
X82389343Y-107973576D01*
X82358995Y-108018995D01*
X82313576Y-108049343D01*
X82260000Y-108060000D01*
X81920000Y-108060000D01*
X81866424Y-108049343D01*
X81821005Y-108018995D01*
X81790657Y-107973576D01*
X81780000Y-107920000D01*
X81780000Y-107640000D01*
X81790657Y-107586424D01*
X81821005Y-107541005D01*
X81866424Y-107510657D01*
X81920000Y-107500000D01*
X82260000Y-107500000D01*
X82313576Y-107510657D01*
G37*
G36*
X80469200Y-107862400D02*
G01*
X78919200Y-107862400D01*
X78919200Y-107562400D01*
X80469200Y-107562400D01*
X80469200Y-107862400D01*
G37*
G36*
X72919200Y-107612400D02*
G01*
X71369200Y-107612400D01*
X71369200Y-107312400D01*
X72919200Y-107312400D01*
X72919200Y-107612400D01*
G37*
G36*
X80469200Y-107362400D02*
G01*
X78919200Y-107362400D01*
X78919200Y-107062400D01*
X80469200Y-107062400D01*
X80469200Y-107362400D01*
G37*
G36*
X72919200Y-107112400D02*
G01*
X71369200Y-107112400D01*
X71369200Y-106812400D01*
X72919200Y-106812400D01*
X72919200Y-107112400D01*
G37*
G36*
X82313576Y-106550657D02*
G01*
X82358995Y-106581005D01*
X82389343Y-106626424D01*
X82400000Y-106680000D01*
X82400000Y-106960000D01*
X82389343Y-107013576D01*
X82358995Y-107058995D01*
X82313576Y-107089343D01*
X82260000Y-107100000D01*
X81920000Y-107100000D01*
X81866424Y-107089343D01*
X81821005Y-107058995D01*
X81790657Y-107013576D01*
X81780000Y-106960000D01*
X81780000Y-106680000D01*
X81790657Y-106626424D01*
X81821005Y-106581005D01*
X81866424Y-106550657D01*
X81920000Y-106540000D01*
X82260000Y-106540000D01*
X82313576Y-106550657D01*
G37*
G36*
X136263576Y-106380657D02*
G01*
X136308995Y-106411005D01*
X136339343Y-106456424D01*
X136350000Y-106510000D01*
X136350000Y-106850000D01*
X136339343Y-106903576D01*
X136308995Y-106948995D01*
X136263576Y-106979343D01*
X136210000Y-106990000D01*
X135930000Y-106990000D01*
X135876424Y-106979343D01*
X135831005Y-106948995D01*
X135800657Y-106903576D01*
X135790000Y-106850000D01*
X135790000Y-106510000D01*
X135800657Y-106456424D01*
X135831005Y-106411005D01*
X135876424Y-106380657D01*
X135930000Y-106370000D01*
X136210000Y-106370000D01*
X136263576Y-106380657D01*
G37*
G36*
X137223576Y-106380657D02*
G01*
X137268995Y-106411005D01*
X137299343Y-106456424D01*
X137310000Y-106510000D01*
X137310000Y-106850000D01*
X137299343Y-106903576D01*
X137268995Y-106948995D01*
X137223576Y-106979343D01*
X137170000Y-106990000D01*
X136890000Y-106990000D01*
X136836424Y-106979343D01*
X136791005Y-106948995D01*
X136760657Y-106903576D01*
X136750000Y-106850000D01*
X136750000Y-106510000D01*
X136760657Y-106456424D01*
X136791005Y-106411005D01*
X136836424Y-106380657D01*
X136890000Y-106370000D01*
X137170000Y-106370000D01*
X137223576Y-106380657D01*
G37*
G36*
X129503576Y-106350657D02*
G01*
X129548995Y-106381005D01*
X129579343Y-106426424D01*
X129590000Y-106480000D01*
X129590000Y-106820000D01*
X129579343Y-106873576D01*
X129548995Y-106918995D01*
X129503576Y-106949343D01*
X129450000Y-106960000D01*
X129170000Y-106960000D01*
X129116424Y-106949343D01*
X129071005Y-106918995D01*
X129040657Y-106873576D01*
X129030000Y-106820000D01*
X129030000Y-106480000D01*
X129040657Y-106426424D01*
X129071005Y-106381005D01*
X129116424Y-106350657D01*
X129170000Y-106340000D01*
X129450000Y-106340000D01*
X129503576Y-106350657D01*
G37*
G36*
X130463576Y-106350657D02*
G01*
X130508995Y-106381005D01*
X130539343Y-106426424D01*
X130550000Y-106480000D01*
X130550000Y-106820000D01*
X130539343Y-106873576D01*
X130508995Y-106918995D01*
X130463576Y-106949343D01*
X130410000Y-106960000D01*
X130130000Y-106960000D01*
X130076424Y-106949343D01*
X130031005Y-106918995D01*
X130000657Y-106873576D01*
X129990000Y-106820000D01*
X129990000Y-106480000D01*
X130000657Y-106426424D01*
X130031005Y-106381005D01*
X130076424Y-106350657D01*
X130130000Y-106340000D01*
X130410000Y-106340000D01*
X130463576Y-106350657D01*
G37*
G36*
X80469200Y-106862400D02*
G01*
X78919200Y-106862400D01*
X78919200Y-106562400D01*
X80469200Y-106562400D01*
X80469200Y-106862400D01*
G37*
G36*
X72919200Y-106612400D02*
G01*
X71369200Y-106612400D01*
X71369200Y-106312400D01*
X72919200Y-106312400D01*
X72919200Y-106612400D01*
G37*
G36*
X132022500Y-106475000D02*
G01*
X131272500Y-106475000D01*
X131272500Y-106225000D01*
X132022500Y-106225000D01*
X132022500Y-106475000D01*
G37*
G36*
X135122500Y-106475000D02*
G01*
X134372500Y-106475000D01*
X134372500Y-106225000D01*
X135122500Y-106225000D01*
X135122500Y-106475000D01*
G37*
G36*
X80469200Y-106362400D02*
G01*
X78919200Y-106362400D01*
X78919200Y-106062400D01*
X80469200Y-106062400D01*
X80469200Y-106362400D01*
G37*
G36*
X72919200Y-106112400D02*
G01*
X71369200Y-106112400D01*
X71369200Y-105812400D01*
X72919200Y-105812400D01*
X72919200Y-106112400D01*
G37*
G36*
X132022500Y-105975000D02*
G01*
X131272500Y-105975000D01*
X131272500Y-105725000D01*
X132022500Y-105725000D01*
X132022500Y-105975000D01*
G37*
G36*
X135122500Y-105975000D02*
G01*
X134372500Y-105975000D01*
X134372500Y-105725000D01*
X135122500Y-105725000D01*
X135122500Y-105975000D01*
G37*
G36*
X80469200Y-105862400D02*
G01*
X78919200Y-105862400D01*
X78919200Y-105562400D01*
X80469200Y-105562400D01*
X80469200Y-105862400D01*
G37*
G36*
X67539200Y-105729400D02*
G01*
X64419200Y-105729400D01*
X64419200Y-103489400D01*
X67539200Y-103489400D01*
X67539200Y-105729400D01*
G37*
G36*
X72919200Y-105612400D02*
G01*
X71369200Y-105612400D01*
X71369200Y-105312400D01*
X72919200Y-105312400D01*
X72919200Y-105612400D01*
G37*
G36*
X132022500Y-105475000D02*
G01*
X131272500Y-105475000D01*
X131272500Y-105225000D01*
X132022500Y-105225000D01*
X132022500Y-105475000D01*
G37*
G36*
X135122500Y-105475000D02*
G01*
X134372500Y-105475000D01*
X134372500Y-105225000D01*
X135122500Y-105225000D01*
X135122500Y-105475000D01*
G37*
G36*
X80469200Y-105362400D02*
G01*
X78919200Y-105362400D01*
X78919200Y-105062400D01*
X80469200Y-105062400D01*
X80469200Y-105362400D01*
G37*
G36*
X82253576Y-104570657D02*
G01*
X82298995Y-104601005D01*
X82329343Y-104646424D01*
X82340000Y-104700000D01*
X82340000Y-105040000D01*
X82329343Y-105093576D01*
X82298995Y-105138995D01*
X82253576Y-105169343D01*
X82200000Y-105180000D01*
X81920000Y-105180000D01*
X81866424Y-105169343D01*
X81821005Y-105138995D01*
X81790657Y-105093576D01*
X81780000Y-105040000D01*
X81780000Y-104700000D01*
X81790657Y-104646424D01*
X81821005Y-104601005D01*
X81866424Y-104570657D01*
X81920000Y-104560000D01*
X82200000Y-104560000D01*
X82253576Y-104570657D01*
G37*
G36*
X83213576Y-104570657D02*
G01*
X83258995Y-104601005D01*
X83289343Y-104646424D01*
X83300000Y-104700000D01*
X83300000Y-105040000D01*
X83289343Y-105093576D01*
X83258995Y-105138995D01*
X83213576Y-105169343D01*
X83160000Y-105180000D01*
X82880000Y-105180000D01*
X82826424Y-105169343D01*
X82781005Y-105138995D01*
X82750657Y-105093576D01*
X82740000Y-105040000D01*
X82740000Y-104700000D01*
X82750657Y-104646424D01*
X82781005Y-104601005D01*
X82826424Y-104570657D01*
X82880000Y-104560000D01*
X83160000Y-104560000D01*
X83213576Y-104570657D01*
G37*
G36*
X72919200Y-105112400D02*
G01*
X71369200Y-105112400D01*
X71369200Y-104812400D01*
X72919200Y-104812400D01*
X72919200Y-105112400D01*
G37*
G36*
X132022500Y-104975000D02*
G01*
X131272500Y-104975000D01*
X131272500Y-104725000D01*
X132022500Y-104725000D01*
X132022500Y-104975000D01*
G37*
G36*
X135122500Y-104975000D02*
G01*
X134372500Y-104975000D01*
X134372500Y-104725000D01*
X135122500Y-104725000D01*
X135122500Y-104975000D01*
G37*
G36*
X80469200Y-104862400D02*
G01*
X78919200Y-104862400D01*
X78919200Y-104562400D01*
X80469200Y-104562400D01*
X80469200Y-104862400D01*
G37*
G36*
X72919200Y-104612400D02*
G01*
X71369200Y-104612400D01*
X71369200Y-104312400D01*
X72919200Y-104312400D01*
X72919200Y-104612400D01*
G37*
G36*
X80469200Y-104362400D02*
G01*
X78919200Y-104362400D01*
X78919200Y-104062400D01*
X80469200Y-104062400D01*
X80469200Y-104362400D01*
G37*
G36*
X72919200Y-104112400D02*
G01*
X71369200Y-104112400D01*
X71369200Y-103812400D01*
X72919200Y-103812400D01*
X72919200Y-104112400D01*
G37*
G36*
X80469200Y-103862400D02*
G01*
X78919200Y-103862400D01*
X78919200Y-103562400D01*
X80469200Y-103562400D01*
X80469200Y-103862400D01*
G37*
G36*
X72919200Y-103612400D02*
G01*
X71369200Y-103612400D01*
X71369200Y-103312400D01*
X72919200Y-103312400D01*
X72919200Y-103612400D01*
G37*
G36*
X80469200Y-103362400D02*
G01*
X78919200Y-103362400D01*
X78919200Y-103062400D01*
X80469200Y-103062400D01*
X80469200Y-103362400D01*
G37*
G36*
X144246390Y-101572826D02*
G01*
X144413500Y-101647228D01*
X144561489Y-101754748D01*
X144683890Y-101890688D01*
X144775352Y-102049105D01*
X144831879Y-102223077D01*
X144851000Y-102405000D01*
X144831879Y-102586923D01*
X144775352Y-102760895D01*
X144683890Y-102919312D01*
X144561489Y-103055252D01*
X144413500Y-103162772D01*
X144246390Y-103237174D01*
X144067462Y-103275207D01*
X143884538Y-103275207D01*
X143705610Y-103237174D01*
X143538500Y-103162772D01*
X143390511Y-103055252D01*
X143268110Y-102919312D01*
X143176648Y-102760895D01*
X143120121Y-102586923D01*
X143101000Y-102405000D01*
X143120121Y-102223077D01*
X143176648Y-102049105D01*
X143268110Y-101890688D01*
X143390511Y-101754748D01*
X143538500Y-101647228D01*
X143705610Y-101572826D01*
X143884538Y-101534793D01*
X144067462Y-101534793D01*
X144246390Y-101572826D01*
G37*
G36*
X132075000Y-103155000D02*
G01*
X131325000Y-103155000D01*
X131325000Y-102905000D01*
X132075000Y-102905000D01*
X132075000Y-103155000D01*
G37*
G36*
X135175000Y-103155000D02*
G01*
X134425000Y-103155000D01*
X134425000Y-102905000D01*
X135175000Y-102905000D01*
X135175000Y-103155000D01*
G37*
G36*
X68759200Y-103112400D02*
G01*
X67159200Y-103112400D01*
X67159200Y-102812400D01*
X68759200Y-102812400D01*
X68759200Y-103112400D01*
G37*
G36*
X72919200Y-103112400D02*
G01*
X71369200Y-103112400D01*
X71369200Y-102812400D01*
X72919200Y-102812400D01*
X72919200Y-103112400D01*
G37*
G36*
X80469200Y-102862400D02*
G01*
X78919200Y-102862400D01*
X78919200Y-102562400D01*
X80469200Y-102562400D01*
X80469200Y-102862400D01*
G37*
G36*
X132075000Y-102655000D02*
G01*
X131325000Y-102655000D01*
X131325000Y-102405000D01*
X132075000Y-102405000D01*
X132075000Y-102655000D01*
G37*
G36*
X135175000Y-102655000D02*
G01*
X134425000Y-102655000D01*
X134425000Y-102405000D01*
X135175000Y-102405000D01*
X135175000Y-102655000D01*
G37*
G36*
X68759200Y-102612400D02*
G01*
X67159200Y-102612400D01*
X67159200Y-102312400D01*
X68759200Y-102312400D01*
X68759200Y-102612400D01*
G37*
G36*
X72919200Y-102612400D02*
G01*
X71369200Y-102612400D01*
X71369200Y-102312400D01*
X72919200Y-102312400D01*
X72919200Y-102612400D01*
G37*
G36*
X80469200Y-102362400D02*
G01*
X78919200Y-102362400D01*
X78919200Y-102062400D01*
X80469200Y-102062400D01*
X80469200Y-102362400D01*
G37*
G36*
X132075000Y-102155000D02*
G01*
X131325000Y-102155000D01*
X131325000Y-101905000D01*
X132075000Y-101905000D01*
X132075000Y-102155000D01*
G37*
G36*
X135175000Y-102155000D02*
G01*
X134425000Y-102155000D01*
X134425000Y-101905000D01*
X135175000Y-101905000D01*
X135175000Y-102155000D01*
G37*
G36*
X68759200Y-102112400D02*
G01*
X67159200Y-102112400D01*
X67159200Y-101812400D01*
X68759200Y-101812400D01*
X68759200Y-102112400D01*
G37*
G36*
X72919200Y-102112400D02*
G01*
X71369200Y-102112400D01*
X71369200Y-101812400D01*
X72919200Y-101812400D01*
X72919200Y-102112400D01*
G37*
G36*
X108457675Y-96361722D02*
G01*
X108780348Y-96438197D01*
X109091961Y-96551615D01*
X109388300Y-96700442D01*
X109665357Y-96882666D01*
X109919387Y-97095821D01*
X110146952Y-97337027D01*
X110344977Y-97603020D01*
X110510783Y-97890204D01*
X110642127Y-98194695D01*
X110737235Y-98512376D01*
X110794819Y-98838949D01*
X110814100Y-99170000D01*
X110794819Y-99501051D01*
X110737235Y-99827624D01*
X110642127Y-100145305D01*
X110510783Y-100449796D01*
X110344977Y-100736980D01*
X110146952Y-101002973D01*
X109919387Y-101244179D01*
X109665357Y-101457334D01*
X109388300Y-101639558D01*
X109091961Y-101788385D01*
X108780348Y-101901803D01*
X108457675Y-101978278D01*
X108128306Y-102016776D01*
X107796694Y-102016776D01*
X107467325Y-101978278D01*
X107144652Y-101901803D01*
X106833039Y-101788385D01*
X106536700Y-101639558D01*
X106259643Y-101457334D01*
X106005613Y-101244179D01*
X105778048Y-101002973D01*
X105580023Y-100736980D01*
X105414217Y-100449796D01*
X105282873Y-100145305D01*
X105187765Y-99827624D01*
X105130181Y-99501051D01*
X105110900Y-99170000D01*
X105130181Y-98838949D01*
X105187765Y-98512376D01*
X105282873Y-98194695D01*
X105414217Y-97890204D01*
X105580023Y-97603020D01*
X105778048Y-97337027D01*
X106005613Y-97095821D01*
X106259643Y-96882666D01*
X106536700Y-96700442D01*
X106833039Y-96551615D01*
X107144652Y-96438197D01*
X107467325Y-96361722D01*
X107796694Y-96323224D01*
X108128306Y-96323224D01*
X108457675Y-96361722D01*
G37*
G36*
X80469200Y-101862400D02*
G01*
X78919200Y-101862400D01*
X78919200Y-101562400D01*
X80469200Y-101562400D01*
X80469200Y-101862400D01*
G37*
G36*
X132075000Y-101655000D02*
G01*
X131325000Y-101655000D01*
X131325000Y-101405000D01*
X132075000Y-101405000D01*
X132075000Y-101655000D01*
G37*
G36*
X135175000Y-101655000D02*
G01*
X134425000Y-101655000D01*
X134425000Y-101405000D01*
X135175000Y-101405000D01*
X135175000Y-101655000D01*
G37*
G36*
X68759200Y-101612400D02*
G01*
X67159200Y-101612400D01*
X67159200Y-101312400D01*
X68759200Y-101312400D01*
X68759200Y-101612400D01*
G37*
G36*
X72919200Y-101612400D02*
G01*
X71369200Y-101612400D01*
X71369200Y-101312400D01*
X72919200Y-101312400D01*
X72919200Y-101612400D01*
G37*
G36*
X129523576Y-100960657D02*
G01*
X129568995Y-100991005D01*
X129599343Y-101036424D01*
X129610000Y-101090000D01*
X129610000Y-101430000D01*
X129599343Y-101483576D01*
X129568995Y-101528995D01*
X129523576Y-101559343D01*
X129470000Y-101570000D01*
X129190000Y-101570000D01*
X129136424Y-101559343D01*
X129091005Y-101528995D01*
X129060657Y-101483576D01*
X129050000Y-101430000D01*
X129050000Y-101090000D01*
X129060657Y-101036424D01*
X129091005Y-100991005D01*
X129136424Y-100960657D01*
X129190000Y-100950000D01*
X129470000Y-100950000D01*
X129523576Y-100960657D01*
G37*
G36*
X130483576Y-100960657D02*
G01*
X130528995Y-100991005D01*
X130559343Y-101036424D01*
X130570000Y-101090000D01*
X130570000Y-101430000D01*
X130559343Y-101483576D01*
X130528995Y-101528995D01*
X130483576Y-101559343D01*
X130430000Y-101570000D01*
X130150000Y-101570000D01*
X130096424Y-101559343D01*
X130051005Y-101528995D01*
X130020657Y-101483576D01*
X130010000Y-101430000D01*
X130010000Y-101090000D01*
X130020657Y-101036424D01*
X130051005Y-100991005D01*
X130096424Y-100960657D01*
X130150000Y-100950000D01*
X130430000Y-100950000D01*
X130483576Y-100960657D01*
G37*
G36*
X136383576Y-100960657D02*
G01*
X136428995Y-100991005D01*
X136459343Y-101036424D01*
X136470000Y-101090000D01*
X136470000Y-101430000D01*
X136459343Y-101483576D01*
X136428995Y-101528995D01*
X136383576Y-101559343D01*
X136330000Y-101570000D01*
X136050000Y-101570000D01*
X135996424Y-101559343D01*
X135951005Y-101528995D01*
X135920657Y-101483576D01*
X135910000Y-101430000D01*
X135910000Y-101090000D01*
X135920657Y-101036424D01*
X135951005Y-100991005D01*
X135996424Y-100960657D01*
X136050000Y-100950000D01*
X136330000Y-100950000D01*
X136383576Y-100960657D01*
G37*
G36*
X137343576Y-100960657D02*
G01*
X137388995Y-100991005D01*
X137419343Y-101036424D01*
X137430000Y-101090000D01*
X137430000Y-101430000D01*
X137419343Y-101483576D01*
X137388995Y-101528995D01*
X137343576Y-101559343D01*
X137290000Y-101570000D01*
X137010000Y-101570000D01*
X136956424Y-101559343D01*
X136911005Y-101528995D01*
X136880657Y-101483576D01*
X136870000Y-101430000D01*
X136870000Y-101090000D01*
X136880657Y-101036424D01*
X136911005Y-100991005D01*
X136956424Y-100960657D01*
X137010000Y-100950000D01*
X137290000Y-100950000D01*
X137343576Y-100960657D01*
G37*
G36*
X80469200Y-101362400D02*
G01*
X78919200Y-101362400D01*
X78919200Y-101062400D01*
X80469200Y-101062400D01*
X80469200Y-101362400D01*
G37*
G36*
X68759200Y-101112400D02*
G01*
X67159200Y-101112400D01*
X67159200Y-100812400D01*
X68759200Y-100812400D01*
X68759200Y-101112400D01*
G37*
G36*
X72919200Y-101112400D02*
G01*
X71369200Y-101112400D01*
X71369200Y-100812400D01*
X72919200Y-100812400D01*
X72919200Y-101112400D01*
G37*
G36*
X149876000Y-101080000D02*
G01*
X147876000Y-101080000D01*
X147876000Y-99880000D01*
X149876000Y-99880000D01*
X149876000Y-101080000D01*
G37*
G36*
X80469200Y-100862400D02*
G01*
X78919200Y-100862400D01*
X78919200Y-100562400D01*
X80469200Y-100562400D01*
X80469200Y-100862400D01*
G37*
G36*
X68759200Y-100612400D02*
G01*
X67159200Y-100612400D01*
X67159200Y-100312400D01*
X68759200Y-100312400D01*
X68759200Y-100612400D01*
G37*
G36*
X72919200Y-100612400D02*
G01*
X71369200Y-100612400D01*
X71369200Y-100312400D01*
X72919200Y-100312400D01*
X72919200Y-100612400D01*
G37*
G36*
X80469200Y-100362400D02*
G01*
X78919200Y-100362400D01*
X78919200Y-100062400D01*
X80469200Y-100062400D01*
X80469200Y-100362400D01*
G37*
G36*
X68759200Y-100112400D02*
G01*
X67159200Y-100112400D01*
X67159200Y-99812400D01*
X68759200Y-99812400D01*
X68759200Y-100112400D01*
G37*
G36*
X72919200Y-100112400D02*
G01*
X71369200Y-100112400D01*
X71369200Y-99812400D01*
X72919200Y-99812400D01*
X72919200Y-100112400D01*
G37*
G36*
X80469200Y-99862400D02*
G01*
X78919200Y-99862400D01*
X78919200Y-99562400D01*
X80469200Y-99562400D01*
X80469200Y-99862400D01*
G37*
G36*
X143876000Y-99810000D02*
G01*
X141876000Y-99810000D01*
X141876000Y-98610000D01*
X143876000Y-98610000D01*
X143876000Y-99810000D01*
G37*
G36*
X68759200Y-99612400D02*
G01*
X67159200Y-99612400D01*
X67159200Y-99312400D01*
X68759200Y-99312400D01*
X68759200Y-99612400D01*
G37*
G36*
X72919200Y-99612400D02*
G01*
X71369200Y-99612400D01*
X71369200Y-99312400D01*
X72919200Y-99312400D01*
X72919200Y-99612400D01*
G37*
G36*
X80469200Y-99362400D02*
G01*
X78919200Y-99362400D01*
X78919200Y-99062400D01*
X80469200Y-99062400D01*
X80469200Y-99362400D01*
G37*
G36*
X132005000Y-99315000D02*
G01*
X131255000Y-99315000D01*
X131255000Y-99065000D01*
X132005000Y-99065000D01*
X132005000Y-99315000D01*
G37*
G36*
X135105000Y-99315000D02*
G01*
X134355000Y-99315000D01*
X134355000Y-99065000D01*
X135105000Y-99065000D01*
X135105000Y-99315000D01*
G37*
G36*
X68759200Y-99112400D02*
G01*
X67159200Y-99112400D01*
X67159200Y-98812400D01*
X68759200Y-98812400D01*
X68759200Y-99112400D01*
G37*
G36*
X72919200Y-99112400D02*
G01*
X71369200Y-99112400D01*
X71369200Y-98812400D01*
X72919200Y-98812400D01*
X72919200Y-99112400D01*
G37*
G36*
X80469200Y-98862400D02*
G01*
X78919200Y-98862400D01*
X78919200Y-98562400D01*
X80469200Y-98562400D01*
X80469200Y-98862400D01*
G37*
G36*
X132005000Y-98815000D02*
G01*
X131255000Y-98815000D01*
X131255000Y-98565000D01*
X132005000Y-98565000D01*
X132005000Y-98815000D01*
G37*
G36*
X135105000Y-98815000D02*
G01*
X134355000Y-98815000D01*
X134355000Y-98565000D01*
X135105000Y-98565000D01*
X135105000Y-98815000D01*
G37*
G36*
X68759200Y-98612400D02*
G01*
X67159200Y-98612400D01*
X67159200Y-98312400D01*
X68759200Y-98312400D01*
X68759200Y-98612400D01*
G37*
G36*
X72919200Y-98612400D02*
G01*
X71369200Y-98612400D01*
X71369200Y-98312400D01*
X72919200Y-98312400D01*
X72919200Y-98612400D01*
G37*
G36*
X149876000Y-98540000D02*
G01*
X147876000Y-98540000D01*
X147876000Y-97340000D01*
X149876000Y-97340000D01*
X149876000Y-98540000D01*
G37*
G36*
X80469200Y-98362400D02*
G01*
X78919200Y-98362400D01*
X78919200Y-98062400D01*
X80469200Y-98062400D01*
X80469200Y-98362400D01*
G37*
G36*
X132005000Y-98315000D02*
G01*
X131255000Y-98315000D01*
X131255000Y-98065000D01*
X132005000Y-98065000D01*
X132005000Y-98315000D01*
G37*
G36*
X135105000Y-98315000D02*
G01*
X134355000Y-98315000D01*
X134355000Y-98065000D01*
X135105000Y-98065000D01*
X135105000Y-98315000D01*
G37*
G36*
X68759200Y-98112400D02*
G01*
X67159200Y-98112400D01*
X67159200Y-97812400D01*
X68759200Y-97812400D01*
X68759200Y-98112400D01*
G37*
G36*
X72919200Y-98112400D02*
G01*
X71369200Y-98112400D01*
X71369200Y-97812400D01*
X72919200Y-97812400D01*
X72919200Y-98112400D01*
G37*
G36*
X80469200Y-97862400D02*
G01*
X78919200Y-97862400D01*
X78919200Y-97562400D01*
X80469200Y-97562400D01*
X80469200Y-97862400D01*
G37*
G36*
X132005000Y-97815000D02*
G01*
X131255000Y-97815000D01*
X131255000Y-97565000D01*
X132005000Y-97565000D01*
X132005000Y-97815000D01*
G37*
G36*
X135105000Y-97815000D02*
G01*
X134355000Y-97815000D01*
X134355000Y-97565000D01*
X135105000Y-97565000D01*
X135105000Y-97815000D01*
G37*
G36*
X129471076Y-97120657D02*
G01*
X129516495Y-97151005D01*
X129546843Y-97196424D01*
X129557500Y-97250000D01*
X129557500Y-97590000D01*
X129546843Y-97643576D01*
X129516495Y-97688995D01*
X129471076Y-97719343D01*
X129417500Y-97730000D01*
X129137500Y-97730000D01*
X129083924Y-97719343D01*
X129038505Y-97688995D01*
X129008157Y-97643576D01*
X128997500Y-97590000D01*
X128997500Y-97250000D01*
X129008157Y-97196424D01*
X129038505Y-97151005D01*
X129083924Y-97120657D01*
X129137500Y-97110000D01*
X129417500Y-97110000D01*
X129471076Y-97120657D01*
G37*
G36*
X130431076Y-97120657D02*
G01*
X130476495Y-97151005D01*
X130506843Y-97196424D01*
X130517500Y-97250000D01*
X130517500Y-97590000D01*
X130506843Y-97643576D01*
X130476495Y-97688995D01*
X130431076Y-97719343D01*
X130377500Y-97730000D01*
X130097500Y-97730000D01*
X130043924Y-97719343D01*
X129998505Y-97688995D01*
X129968157Y-97643576D01*
X129957500Y-97590000D01*
X129957500Y-97250000D01*
X129968157Y-97196424D01*
X129998505Y-97151005D01*
X130043924Y-97120657D01*
X130097500Y-97110000D01*
X130377500Y-97110000D01*
X130431076Y-97120657D01*
G37*
G36*
X136301076Y-97090657D02*
G01*
X136346495Y-97121005D01*
X136376843Y-97166424D01*
X136387500Y-97220000D01*
X136387500Y-97560000D01*
X136376843Y-97613576D01*
X136346495Y-97658995D01*
X136301076Y-97689343D01*
X136247500Y-97700000D01*
X135967500Y-97700000D01*
X135913924Y-97689343D01*
X135868505Y-97658995D01*
X135838157Y-97613576D01*
X135827500Y-97560000D01*
X135827500Y-97220000D01*
X135838157Y-97166424D01*
X135868505Y-97121005D01*
X135913924Y-97090657D01*
X135967500Y-97080000D01*
X136247500Y-97080000D01*
X136301076Y-97090657D01*
G37*
G36*
X137261076Y-97090657D02*
G01*
X137306495Y-97121005D01*
X137336843Y-97166424D01*
X137347500Y-97220000D01*
X137347500Y-97560000D01*
X137336843Y-97613576D01*
X137306495Y-97658995D01*
X137261076Y-97689343D01*
X137207500Y-97700000D01*
X136927500Y-97700000D01*
X136873924Y-97689343D01*
X136828505Y-97658995D01*
X136798157Y-97613576D01*
X136787500Y-97560000D01*
X136787500Y-97220000D01*
X136798157Y-97166424D01*
X136828505Y-97121005D01*
X136873924Y-97090657D01*
X136927500Y-97080000D01*
X137207500Y-97080000D01*
X137261076Y-97090657D01*
G37*
G36*
X68759200Y-97612400D02*
G01*
X67159200Y-97612400D01*
X67159200Y-97312400D01*
X68759200Y-97312400D01*
X68759200Y-97612400D01*
G37*
G36*
X72919200Y-97612400D02*
G01*
X71369200Y-97612400D01*
X71369200Y-97312400D01*
X72919200Y-97312400D01*
X72919200Y-97612400D01*
G37*
G36*
X80469200Y-97362400D02*
G01*
X78919200Y-97362400D01*
X78919200Y-97062400D01*
X80469200Y-97062400D01*
X80469200Y-97362400D01*
G37*
G36*
X143876000Y-97270000D02*
G01*
X141876000Y-97270000D01*
X141876000Y-96070000D01*
X143876000Y-96070000D01*
X143876000Y-97270000D01*
G37*
G36*
X68759200Y-97112400D02*
G01*
X67159200Y-97112400D01*
X67159200Y-96812400D01*
X68759200Y-96812400D01*
X68759200Y-97112400D01*
G37*
G36*
X72919200Y-97112400D02*
G01*
X71369200Y-97112400D01*
X71369200Y-96812400D01*
X72919200Y-96812400D01*
X72919200Y-97112400D01*
G37*
G36*
X80469200Y-96862400D02*
G01*
X78919200Y-96862400D01*
X78919200Y-96562400D01*
X80469200Y-96562400D01*
X80469200Y-96862400D01*
G37*
G36*
X68759200Y-96612400D02*
G01*
X67159200Y-96612400D01*
X67159200Y-96312400D01*
X68759200Y-96312400D01*
X68759200Y-96612400D01*
G37*
G36*
X72919200Y-96612400D02*
G01*
X71369200Y-96612400D01*
X71369200Y-96312400D01*
X72919200Y-96312400D01*
X72919200Y-96612400D01*
G37*
G36*
X80469200Y-96362400D02*
G01*
X78919200Y-96362400D01*
X78919200Y-96062400D01*
X80469200Y-96062400D01*
X80469200Y-96362400D01*
G37*
G36*
X68759200Y-96112400D02*
G01*
X67159200Y-96112400D01*
X67159200Y-95812400D01*
X68759200Y-95812400D01*
X68759200Y-96112400D01*
G37*
G36*
X72919200Y-96112400D02*
G01*
X71369200Y-96112400D01*
X71369200Y-95812400D01*
X72919200Y-95812400D01*
X72919200Y-96112400D01*
G37*
G36*
X149876000Y-96000000D02*
G01*
X147876000Y-96000000D01*
X147876000Y-94800000D01*
X149876000Y-94800000D01*
X149876000Y-96000000D01*
G37*
G36*
X80469200Y-95862400D02*
G01*
X78919200Y-95862400D01*
X78919200Y-95562400D01*
X80469200Y-95562400D01*
X80469200Y-95862400D01*
G37*
G36*
X133373576Y-95150657D02*
G01*
X133418995Y-95181005D01*
X133449343Y-95226424D01*
X133460000Y-95280000D01*
X133460000Y-95620000D01*
X133449343Y-95673576D01*
X133418995Y-95718995D01*
X133373576Y-95749343D01*
X133320000Y-95760000D01*
X133040000Y-95760000D01*
X132986424Y-95749343D01*
X132941005Y-95718995D01*
X132910657Y-95673576D01*
X132900000Y-95620000D01*
X132900000Y-95280000D01*
X132910657Y-95226424D01*
X132941005Y-95181005D01*
X132986424Y-95150657D01*
X133040000Y-95140000D01*
X133320000Y-95140000D01*
X133373576Y-95150657D01*
G37*
G36*
X134333576Y-95150657D02*
G01*
X134378995Y-95181005D01*
X134409343Y-95226424D01*
X134420000Y-95280000D01*
X134420000Y-95620000D01*
X134409343Y-95673576D01*
X134378995Y-95718995D01*
X134333576Y-95749343D01*
X134280000Y-95760000D01*
X134000000Y-95760000D01*
X133946424Y-95749343D01*
X133901005Y-95718995D01*
X133870657Y-95673576D01*
X133860000Y-95620000D01*
X133860000Y-95280000D01*
X133870657Y-95226424D01*
X133901005Y-95181005D01*
X133946424Y-95150657D01*
X134000000Y-95140000D01*
X134280000Y-95140000D01*
X134333576Y-95150657D01*
G37*
G36*
X68759200Y-95612400D02*
G01*
X67159200Y-95612400D01*
X67159200Y-95312400D01*
X68759200Y-95312400D01*
X68759200Y-95612400D01*
G37*
G36*
X72919200Y-95612400D02*
G01*
X71369200Y-95612400D01*
X71369200Y-95312400D01*
X72919200Y-95312400D01*
X72919200Y-95612400D01*
G37*
G36*
X80469200Y-95362400D02*
G01*
X78919200Y-95362400D01*
X78919200Y-95062400D01*
X80469200Y-95062400D01*
X80469200Y-95362400D01*
G37*
G36*
X135693576Y-94640657D02*
G01*
X135738995Y-94671005D01*
X135769343Y-94716424D01*
X135780000Y-94770000D01*
X135780000Y-95110000D01*
X135769343Y-95163576D01*
X135738995Y-95208995D01*
X135693576Y-95239343D01*
X135640000Y-95250000D01*
X135360000Y-95250000D01*
X135306424Y-95239343D01*
X135261005Y-95208995D01*
X135230657Y-95163576D01*
X135220000Y-95110000D01*
X135220000Y-94770000D01*
X135230657Y-94716424D01*
X135261005Y-94671005D01*
X135306424Y-94640657D01*
X135360000Y-94630000D01*
X135640000Y-94630000D01*
X135693576Y-94640657D01*
G37*
G36*
X136653576Y-94640657D02*
G01*
X136698995Y-94671005D01*
X136729343Y-94716424D01*
X136740000Y-94770000D01*
X136740000Y-95110000D01*
X136729343Y-95163576D01*
X136698995Y-95208995D01*
X136653576Y-95239343D01*
X136600000Y-95250000D01*
X136320000Y-95250000D01*
X136266424Y-95239343D01*
X136221005Y-95208995D01*
X136190657Y-95163576D01*
X136180000Y-95110000D01*
X136180000Y-94770000D01*
X136190657Y-94716424D01*
X136221005Y-94671005D01*
X136266424Y-94640657D01*
X136320000Y-94630000D01*
X136600000Y-94630000D01*
X136653576Y-94640657D01*
G37*
G36*
X72919200Y-95112400D02*
G01*
X71369200Y-95112400D01*
X71369200Y-94812400D01*
X72919200Y-94812400D01*
X72919200Y-95112400D01*
G37*
G36*
X67539200Y-94935400D02*
G01*
X64419200Y-94935400D01*
X64419200Y-92695400D01*
X67539200Y-92695400D01*
X67539200Y-94935400D01*
G37*
G36*
X80469200Y-94862400D02*
G01*
X78919200Y-94862400D01*
X78919200Y-94562400D01*
X80469200Y-94562400D01*
X80469200Y-94862400D01*
G37*
G36*
X143876000Y-94730000D02*
G01*
X141876000Y-94730000D01*
X141876000Y-93530000D01*
X143876000Y-93530000D01*
X143876000Y-94730000D01*
G37*
G36*
X72919200Y-94612400D02*
G01*
X71369200Y-94612400D01*
X71369200Y-94312400D01*
X72919200Y-94312400D01*
X72919200Y-94612400D01*
G37*
G36*
X133363576Y-93910657D02*
G01*
X133408995Y-93941005D01*
X133439343Y-93986424D01*
X133450000Y-94040000D01*
X133450000Y-94380000D01*
X133439343Y-94433576D01*
X133408995Y-94478995D01*
X133363576Y-94509343D01*
X133310000Y-94520000D01*
X133030000Y-94520000D01*
X132976424Y-94509343D01*
X132931005Y-94478995D01*
X132900657Y-94433576D01*
X132890000Y-94380000D01*
X132890000Y-94040000D01*
X132900657Y-93986424D01*
X132931005Y-93941005D01*
X132976424Y-93910657D01*
X133030000Y-93900000D01*
X133310000Y-93900000D01*
X133363576Y-93910657D01*
G37*
G36*
X134323576Y-93910657D02*
G01*
X134368995Y-93941005D01*
X134399343Y-93986424D01*
X134410000Y-94040000D01*
X134410000Y-94380000D01*
X134399343Y-94433576D01*
X134368995Y-94478995D01*
X134323576Y-94509343D01*
X134270000Y-94520000D01*
X133990000Y-94520000D01*
X133936424Y-94509343D01*
X133891005Y-94478995D01*
X133860657Y-94433576D01*
X133850000Y-94380000D01*
X133850000Y-94040000D01*
X133860657Y-93986424D01*
X133891005Y-93941005D01*
X133936424Y-93910657D01*
X133990000Y-93900000D01*
X134270000Y-93900000D01*
X134323576Y-93910657D01*
G37*
G36*
X80469200Y-94362400D02*
G01*
X78919200Y-94362400D01*
X78919200Y-94062400D01*
X80469200Y-94062400D01*
X80469200Y-94362400D01*
G37*
G36*
X135683576Y-93450657D02*
G01*
X135728995Y-93481005D01*
X135759343Y-93526424D01*
X135770000Y-93580000D01*
X135770000Y-93920000D01*
X135759343Y-93973576D01*
X135728995Y-94018995D01*
X135683576Y-94049343D01*
X135630000Y-94060000D01*
X135350000Y-94060000D01*
X135296424Y-94049343D01*
X135251005Y-94018995D01*
X135220657Y-93973576D01*
X135210000Y-93920000D01*
X135210000Y-93580000D01*
X135220657Y-93526424D01*
X135251005Y-93481005D01*
X135296424Y-93450657D01*
X135350000Y-93440000D01*
X135630000Y-93440000D01*
X135683576Y-93450657D01*
G37*
G36*
X136643576Y-93450657D02*
G01*
X136688995Y-93481005D01*
X136719343Y-93526424D01*
X136730000Y-93580000D01*
X136730000Y-93920000D01*
X136719343Y-93973576D01*
X136688995Y-94018995D01*
X136643576Y-94049343D01*
X136590000Y-94060000D01*
X136310000Y-94060000D01*
X136256424Y-94049343D01*
X136211005Y-94018995D01*
X136180657Y-93973576D01*
X136170000Y-93920000D01*
X136170000Y-93580000D01*
X136180657Y-93526424D01*
X136211005Y-93481005D01*
X136256424Y-93450657D01*
X136310000Y-93440000D01*
X136590000Y-93440000D01*
X136643576Y-93450657D01*
G37*
G36*
X149876000Y-93460000D02*
G01*
X147876000Y-93460000D01*
X147876000Y-92260000D01*
X149876000Y-92260000D01*
X149876000Y-93460000D01*
G37*
G36*
X132351000Y-92733500D02*
G01*
X131901000Y-92733500D01*
X131901000Y-91258500D01*
X132351000Y-91258500D01*
X132351000Y-92733500D01*
G37*
G36*
X133001000Y-92733500D02*
G01*
X132551000Y-92733500D01*
X132551000Y-91258500D01*
X133001000Y-91258500D01*
X133001000Y-92733500D01*
G37*
G36*
X133651000Y-92733500D02*
G01*
X133201000Y-92733500D01*
X133201000Y-91258500D01*
X133651000Y-91258500D01*
X133651000Y-92733500D01*
G37*
G36*
X134301000Y-92733500D02*
G01*
X133851000Y-92733500D01*
X133851000Y-91258500D01*
X134301000Y-91258500D01*
X134301000Y-92733500D01*
G37*
G36*
X134951000Y-92733500D02*
G01*
X134501000Y-92733500D01*
X134501000Y-91258500D01*
X134951000Y-91258500D01*
X134951000Y-92733500D01*
G37*
G36*
X135601000Y-92733500D02*
G01*
X135151000Y-92733500D01*
X135151000Y-91258500D01*
X135601000Y-91258500D01*
X135601000Y-92733500D01*
G37*
G36*
X136251000Y-92733500D02*
G01*
X135801000Y-92733500D01*
X135801000Y-91258500D01*
X136251000Y-91258500D01*
X136251000Y-92733500D01*
G37*
G36*
X136901000Y-92733500D02*
G01*
X136451000Y-92733500D01*
X136451000Y-91258500D01*
X136901000Y-91258500D01*
X136901000Y-92733500D01*
G37*
G36*
X137551000Y-92733500D02*
G01*
X137101000Y-92733500D01*
X137101000Y-91258500D01*
X137551000Y-91258500D01*
X137551000Y-92733500D01*
G37*
G36*
X138201000Y-92733500D02*
G01*
X137751000Y-92733500D01*
X137751000Y-91258500D01*
X138201000Y-91258500D01*
X138201000Y-92733500D01*
G37*
G36*
X138851000Y-92733500D02*
G01*
X138401000Y-92733500D01*
X138401000Y-91258500D01*
X138851000Y-91258500D01*
X138851000Y-92733500D01*
G37*
G36*
X139501000Y-92733500D02*
G01*
X139051000Y-92733500D01*
X139051000Y-91258500D01*
X139501000Y-91258500D01*
X139501000Y-92733500D01*
G37*
G36*
X143876000Y-92190000D02*
G01*
X141876000Y-92190000D01*
X141876000Y-90990000D01*
X143876000Y-90990000D01*
X143876000Y-92190000D01*
G37*
G36*
X72919200Y-92112400D02*
G01*
X71369200Y-92112400D01*
X71369200Y-91812400D01*
X72919200Y-91812400D01*
X72919200Y-92112400D01*
G37*
G36*
X80469200Y-91862400D02*
G01*
X78919200Y-91862400D01*
X78919200Y-91562400D01*
X80469200Y-91562400D01*
X80469200Y-91862400D01*
G37*
G36*
X72919200Y-91612400D02*
G01*
X71369200Y-91612400D01*
X71369200Y-91312400D01*
X72919200Y-91312400D01*
X72919200Y-91612400D01*
G37*
G36*
X98609662Y-91068976D02*
G01*
X98653459Y-91098241D01*
X98682724Y-91142038D01*
X98693000Y-91193700D01*
X98693000Y-91463700D01*
X98682724Y-91515362D01*
X98653459Y-91559159D01*
X98609662Y-91588424D01*
X98558000Y-91598700D01*
X98188000Y-91598700D01*
X98136338Y-91588424D01*
X98092541Y-91559159D01*
X98063276Y-91515362D01*
X98053000Y-91463700D01*
X98053000Y-91193700D01*
X98063276Y-91142038D01*
X98092541Y-91098241D01*
X98136338Y-91068976D01*
X98188000Y-91058700D01*
X98558000Y-91058700D01*
X98609662Y-91068976D01*
G37*
G36*
X80469200Y-91362400D02*
G01*
X78919200Y-91362400D01*
X78919200Y-91062400D01*
X80469200Y-91062400D01*
X80469200Y-91362400D01*
G37*
G36*
X72919200Y-91112400D02*
G01*
X71369200Y-91112400D01*
X71369200Y-90812400D01*
X72919200Y-90812400D01*
X72919200Y-91112400D01*
G37*
G36*
X82693576Y-90310657D02*
G01*
X82738995Y-90341005D01*
X82769343Y-90386424D01*
X82780000Y-90440000D01*
X82780000Y-90780000D01*
X82769343Y-90833576D01*
X82738995Y-90878995D01*
X82693576Y-90909343D01*
X82640000Y-90920000D01*
X82360000Y-90920000D01*
X82306424Y-90909343D01*
X82261005Y-90878995D01*
X82230657Y-90833576D01*
X82220000Y-90780000D01*
X82220000Y-90440000D01*
X82230657Y-90386424D01*
X82261005Y-90341005D01*
X82306424Y-90310657D01*
X82360000Y-90300000D01*
X82640000Y-90300000D01*
X82693576Y-90310657D01*
G37*
G36*
X83653576Y-90310657D02*
G01*
X83698995Y-90341005D01*
X83729343Y-90386424D01*
X83740000Y-90440000D01*
X83740000Y-90780000D01*
X83729343Y-90833576D01*
X83698995Y-90878995D01*
X83653576Y-90909343D01*
X83600000Y-90920000D01*
X83320000Y-90920000D01*
X83266424Y-90909343D01*
X83221005Y-90878995D01*
X83190657Y-90833576D01*
X83180000Y-90780000D01*
X83180000Y-90440000D01*
X83190657Y-90386424D01*
X83221005Y-90341005D01*
X83266424Y-90310657D01*
X83320000Y-90300000D01*
X83600000Y-90300000D01*
X83653576Y-90310657D01*
G37*
G36*
X149876000Y-90920000D02*
G01*
X147876000Y-90920000D01*
X147876000Y-89720000D01*
X149876000Y-89720000D01*
X149876000Y-90920000D01*
G37*
G36*
X80469200Y-90862400D02*
G01*
X78919200Y-90862400D01*
X78919200Y-90562400D01*
X80469200Y-90562400D01*
X80469200Y-90862400D01*
G37*
G36*
X68100000Y-90850000D02*
G01*
X67700000Y-90850000D01*
X67700000Y-89850000D01*
X68100000Y-89850000D01*
X68100000Y-90850000D01*
G37*
G36*
X69100000Y-90850000D02*
G01*
X68700000Y-90850000D01*
X68700000Y-89850000D01*
X69100000Y-89850000D01*
X69100000Y-90850000D01*
G37*
G36*
X63746662Y-90210276D02*
G01*
X63790459Y-90239541D01*
X63819724Y-90283338D01*
X63830000Y-90335000D01*
X63830000Y-90605000D01*
X63819724Y-90656662D01*
X63790459Y-90700459D01*
X63746662Y-90729724D01*
X63695000Y-90740000D01*
X63325000Y-90740000D01*
X63273338Y-90729724D01*
X63229541Y-90700459D01*
X63200276Y-90656662D01*
X63190000Y-90605000D01*
X63190000Y-90335000D01*
X63200276Y-90283338D01*
X63229541Y-90239541D01*
X63273338Y-90210276D01*
X63325000Y-90200000D01*
X63695000Y-90200000D01*
X63746662Y-90210276D01*
G37*
G36*
X72919200Y-90612400D02*
G01*
X71369200Y-90612400D01*
X71369200Y-90312400D01*
X72919200Y-90312400D01*
X72919200Y-90612400D01*
G37*
G36*
X98609662Y-90048976D02*
G01*
X98653459Y-90078241D01*
X98682724Y-90122038D01*
X98693000Y-90173700D01*
X98693000Y-90443700D01*
X98682724Y-90495362D01*
X98653459Y-90539159D01*
X98609662Y-90568424D01*
X98558000Y-90578700D01*
X98188000Y-90578700D01*
X98136338Y-90568424D01*
X98092541Y-90539159D01*
X98063276Y-90495362D01*
X98053000Y-90443700D01*
X98053000Y-90173700D01*
X98063276Y-90122038D01*
X98092541Y-90078241D01*
X98136338Y-90048976D01*
X98188000Y-90038700D01*
X98558000Y-90038700D01*
X98609662Y-90048976D01*
G37*
G36*
X96709662Y-89868976D02*
G01*
X96753459Y-89898241D01*
X96782724Y-89942038D01*
X96793000Y-89993700D01*
X96793000Y-90263700D01*
X96782724Y-90315362D01*
X96753459Y-90359159D01*
X96709662Y-90388424D01*
X96658000Y-90398700D01*
X96288000Y-90398700D01*
X96236338Y-90388424D01*
X96192541Y-90359159D01*
X96163276Y-90315362D01*
X96153000Y-90263700D01*
X96153000Y-89993700D01*
X96163276Y-89942038D01*
X96192541Y-89898241D01*
X96236338Y-89868976D01*
X96288000Y-89858700D01*
X96658000Y-89858700D01*
X96709662Y-89868976D01*
G37*
G36*
X80469200Y-90362400D02*
G01*
X78919200Y-90362400D01*
X78919200Y-90062400D01*
X80469200Y-90062400D01*
X80469200Y-90362400D01*
G37*
G36*
X89513576Y-89610657D02*
G01*
X89558995Y-89641005D01*
X89589343Y-89686424D01*
X89600000Y-89740000D01*
X89600000Y-90020000D01*
X89589343Y-90073576D01*
X89558995Y-90118995D01*
X89513576Y-90149343D01*
X89460000Y-90160000D01*
X89120000Y-90160000D01*
X89066424Y-90149343D01*
X89021005Y-90118995D01*
X88990657Y-90073576D01*
X88980000Y-90020000D01*
X88980000Y-89740000D01*
X88990657Y-89686424D01*
X89021005Y-89641005D01*
X89066424Y-89610657D01*
X89120000Y-89600000D01*
X89460000Y-89600000D01*
X89513576Y-89610657D01*
G37*
G36*
X90713576Y-89610657D02*
G01*
X90758995Y-89641005D01*
X90789343Y-89686424D01*
X90800000Y-89740000D01*
X90800000Y-90020000D01*
X90789343Y-90073576D01*
X90758995Y-90118995D01*
X90713576Y-90149343D01*
X90660000Y-90160000D01*
X90320000Y-90160000D01*
X90266424Y-90149343D01*
X90221005Y-90118995D01*
X90190657Y-90073576D01*
X90180000Y-90020000D01*
X90180000Y-89740000D01*
X90190657Y-89686424D01*
X90221005Y-89641005D01*
X90266424Y-89610657D01*
X90320000Y-89600000D01*
X90660000Y-89600000D01*
X90713576Y-89610657D01*
G37*
G36*
X91913576Y-89610657D02*
G01*
X91958995Y-89641005D01*
X91989343Y-89686424D01*
X92000000Y-89740000D01*
X92000000Y-90020000D01*
X91989343Y-90073576D01*
X91958995Y-90118995D01*
X91913576Y-90149343D01*
X91860000Y-90160000D01*
X91520000Y-90160000D01*
X91466424Y-90149343D01*
X91421005Y-90118995D01*
X91390657Y-90073576D01*
X91380000Y-90020000D01*
X91380000Y-89740000D01*
X91390657Y-89686424D01*
X91421005Y-89641005D01*
X91466424Y-89610657D01*
X91520000Y-89600000D01*
X91860000Y-89600000D01*
X91913576Y-89610657D01*
G37*
G36*
X93113576Y-89610657D02*
G01*
X93158995Y-89641005D01*
X93189343Y-89686424D01*
X93200000Y-89740000D01*
X93200000Y-90020000D01*
X93189343Y-90073576D01*
X93158995Y-90118995D01*
X93113576Y-90149343D01*
X93060000Y-90160000D01*
X92720000Y-90160000D01*
X92666424Y-90149343D01*
X92621005Y-90118995D01*
X92590657Y-90073576D01*
X92580000Y-90020000D01*
X92580000Y-89740000D01*
X92590657Y-89686424D01*
X92621005Y-89641005D01*
X92666424Y-89610657D01*
X92720000Y-89600000D01*
X93060000Y-89600000D01*
X93113576Y-89610657D01*
G37*
G36*
X66677862Y-89626276D02*
G01*
X66721659Y-89655541D01*
X66750924Y-89699338D01*
X66761200Y-89751000D01*
X66761200Y-90021000D01*
X66750924Y-90072662D01*
X66721659Y-90116459D01*
X66677862Y-90145724D01*
X66626200Y-90156000D01*
X66256200Y-90156000D01*
X66204538Y-90145724D01*
X66160741Y-90116459D01*
X66131476Y-90072662D01*
X66121200Y-90021000D01*
X66121200Y-89751000D01*
X66131476Y-89699338D01*
X66160741Y-89655541D01*
X66204538Y-89626276D01*
X66256200Y-89616000D01*
X66626200Y-89616000D01*
X66677862Y-89626276D01*
G37*
G36*
X72919200Y-90112400D02*
G01*
X71369200Y-90112400D01*
X71369200Y-89812400D01*
X72919200Y-89812400D01*
X72919200Y-90112400D01*
G37*
G36*
X77674139Y-88427778D02*
G01*
X77831700Y-88497929D01*
X77971233Y-88599306D01*
X78086639Y-88727477D01*
X78172875Y-88876842D01*
X78226172Y-89040873D01*
X78244200Y-89212400D01*
X78226172Y-89383927D01*
X78172875Y-89547958D01*
X78086639Y-89697323D01*
X77971233Y-89825494D01*
X77831700Y-89926871D01*
X77674139Y-89997022D01*
X77505436Y-90032881D01*
X77332964Y-90032881D01*
X77164261Y-89997022D01*
X77006700Y-89926871D01*
X76867167Y-89825494D01*
X76751761Y-89697323D01*
X76665525Y-89547958D01*
X76612228Y-89383927D01*
X76594200Y-89212400D01*
X76612228Y-89040873D01*
X76665525Y-88876842D01*
X76751761Y-88727477D01*
X76867167Y-88599306D01*
X77006700Y-88497929D01*
X77164261Y-88427778D01*
X77332964Y-88391919D01*
X77505436Y-88391919D01*
X77674139Y-88427778D01*
G37*
G36*
X82673576Y-89200657D02*
G01*
X82718995Y-89231005D01*
X82749343Y-89276424D01*
X82760000Y-89330000D01*
X82760000Y-89670000D01*
X82749343Y-89723576D01*
X82718995Y-89768995D01*
X82673576Y-89799343D01*
X82620000Y-89810000D01*
X82340000Y-89810000D01*
X82286424Y-89799343D01*
X82241005Y-89768995D01*
X82210657Y-89723576D01*
X82200000Y-89670000D01*
X82200000Y-89330000D01*
X82210657Y-89276424D01*
X82241005Y-89231005D01*
X82286424Y-89200657D01*
X82340000Y-89190000D01*
X82620000Y-89190000D01*
X82673576Y-89200657D01*
G37*
G36*
X83633576Y-89200657D02*
G01*
X83678995Y-89231005D01*
X83709343Y-89276424D01*
X83720000Y-89330000D01*
X83720000Y-89670000D01*
X83709343Y-89723576D01*
X83678995Y-89768995D01*
X83633576Y-89799343D01*
X83580000Y-89810000D01*
X83300000Y-89810000D01*
X83246424Y-89799343D01*
X83201005Y-89768995D01*
X83170657Y-89723576D01*
X83160000Y-89670000D01*
X83160000Y-89330000D01*
X83170657Y-89276424D01*
X83201005Y-89231005D01*
X83246424Y-89200657D01*
X83300000Y-89190000D01*
X83580000Y-89190000D01*
X83633576Y-89200657D01*
G37*
G36*
X63746662Y-89190276D02*
G01*
X63790459Y-89219541D01*
X63819724Y-89263338D01*
X63830000Y-89315000D01*
X63830000Y-89585000D01*
X63819724Y-89636662D01*
X63790459Y-89680459D01*
X63746662Y-89709724D01*
X63695000Y-89720000D01*
X63325000Y-89720000D01*
X63273338Y-89709724D01*
X63229541Y-89680459D01*
X63200276Y-89636662D01*
X63190000Y-89585000D01*
X63190000Y-89315000D01*
X63200276Y-89263338D01*
X63229541Y-89219541D01*
X63273338Y-89190276D01*
X63325000Y-89180000D01*
X63695000Y-89180000D01*
X63746662Y-89190276D01*
G37*
G36*
X143876000Y-89650000D02*
G01*
X141876000Y-89650000D01*
X141876000Y-88450000D01*
X143876000Y-88450000D01*
X143876000Y-89650000D01*
G37*
G36*
X98649662Y-88908976D02*
G01*
X98693459Y-88938241D01*
X98722724Y-88982038D01*
X98733000Y-89033700D01*
X98733000Y-89403700D01*
X98722724Y-89455362D01*
X98693459Y-89499159D01*
X98649662Y-89528424D01*
X98598000Y-89538700D01*
X98328000Y-89538700D01*
X98276338Y-89528424D01*
X98232541Y-89499159D01*
X98203276Y-89455362D01*
X98193000Y-89403700D01*
X98193000Y-89033700D01*
X98203276Y-88982038D01*
X98232541Y-88938241D01*
X98276338Y-88908976D01*
X98328000Y-88898700D01*
X98598000Y-88898700D01*
X98649662Y-88908976D01*
G37*
G36*
X99669662Y-88908976D02*
G01*
X99713459Y-88938241D01*
X99742724Y-88982038D01*
X99753000Y-89033700D01*
X99753000Y-89403700D01*
X99742724Y-89455362D01*
X99713459Y-89499159D01*
X99669662Y-89528424D01*
X99618000Y-89538700D01*
X99348000Y-89538700D01*
X99296338Y-89528424D01*
X99252541Y-89499159D01*
X99223276Y-89455362D01*
X99213000Y-89403700D01*
X99213000Y-89033700D01*
X99223276Y-88982038D01*
X99252541Y-88938241D01*
X99296338Y-88908976D01*
X99348000Y-88898700D01*
X99618000Y-88898700D01*
X99669662Y-88908976D01*
G37*
G36*
X74294200Y-89462400D02*
G01*
X71544200Y-89462400D01*
X71544200Y-88262400D01*
X74294200Y-88262400D01*
X74294200Y-89462400D01*
G37*
G36*
X96709662Y-88848976D02*
G01*
X96753459Y-88878241D01*
X96782724Y-88922038D01*
X96793000Y-88973700D01*
X96793000Y-89243700D01*
X96782724Y-89295362D01*
X96753459Y-89339159D01*
X96709662Y-89368424D01*
X96658000Y-89378700D01*
X96288000Y-89378700D01*
X96236338Y-89368424D01*
X96192541Y-89339159D01*
X96163276Y-89295362D01*
X96153000Y-89243700D01*
X96153000Y-88973700D01*
X96163276Y-88922038D01*
X96192541Y-88878241D01*
X96236338Y-88848976D01*
X96288000Y-88838700D01*
X96658000Y-88838700D01*
X96709662Y-88848976D01*
G37*
G36*
X68600000Y-89350000D02*
G01*
X68200000Y-89350000D01*
X68200000Y-88350000D01*
X68600000Y-88350000D01*
X68600000Y-89350000D01*
G37*
G36*
X89513576Y-88650657D02*
G01*
X89558995Y-88681005D01*
X89589343Y-88726424D01*
X89600000Y-88780000D01*
X89600000Y-89060000D01*
X89589343Y-89113576D01*
X89558995Y-89158995D01*
X89513576Y-89189343D01*
X89460000Y-89200000D01*
X89120000Y-89200000D01*
X89066424Y-89189343D01*
X89021005Y-89158995D01*
X88990657Y-89113576D01*
X88980000Y-89060000D01*
X88980000Y-88780000D01*
X88990657Y-88726424D01*
X89021005Y-88681005D01*
X89066424Y-88650657D01*
X89120000Y-88640000D01*
X89460000Y-88640000D01*
X89513576Y-88650657D01*
G37*
G36*
X90713576Y-88650657D02*
G01*
X90758995Y-88681005D01*
X90789343Y-88726424D01*
X90800000Y-88780000D01*
X90800000Y-89060000D01*
X90789343Y-89113576D01*
X90758995Y-89158995D01*
X90713576Y-89189343D01*
X90660000Y-89200000D01*
X90320000Y-89200000D01*
X90266424Y-89189343D01*
X90221005Y-89158995D01*
X90190657Y-89113576D01*
X90180000Y-89060000D01*
X90180000Y-88780000D01*
X90190657Y-88726424D01*
X90221005Y-88681005D01*
X90266424Y-88650657D01*
X90320000Y-88640000D01*
X90660000Y-88640000D01*
X90713576Y-88650657D01*
G37*
G36*
X91913576Y-88650657D02*
G01*
X91958995Y-88681005D01*
X91989343Y-88726424D01*
X92000000Y-88780000D01*
X92000000Y-89060000D01*
X91989343Y-89113576D01*
X91958995Y-89158995D01*
X91913576Y-89189343D01*
X91860000Y-89200000D01*
X91520000Y-89200000D01*
X91466424Y-89189343D01*
X91421005Y-89158995D01*
X91390657Y-89113576D01*
X91380000Y-89060000D01*
X91380000Y-88780000D01*
X91390657Y-88726424D01*
X91421005Y-88681005D01*
X91466424Y-88650657D01*
X91520000Y-88640000D01*
X91860000Y-88640000D01*
X91913576Y-88650657D01*
G37*
G36*
X93113576Y-88650657D02*
G01*
X93158995Y-88681005D01*
X93189343Y-88726424D01*
X93200000Y-88780000D01*
X93200000Y-89060000D01*
X93189343Y-89113576D01*
X93158995Y-89158995D01*
X93113576Y-89189343D01*
X93060000Y-89200000D01*
X92720000Y-89200000D01*
X92666424Y-89189343D01*
X92621005Y-89158995D01*
X92590657Y-89113576D01*
X92580000Y-89060000D01*
X92580000Y-88780000D01*
X92590657Y-88726424D01*
X92621005Y-88681005D01*
X92666424Y-88650657D01*
X92720000Y-88640000D01*
X93060000Y-88640000D01*
X93113576Y-88650657D01*
G37*
G36*
X66677862Y-88606276D02*
G01*
X66721659Y-88635541D01*
X66750924Y-88679338D01*
X66761200Y-88731000D01*
X66761200Y-89001000D01*
X66750924Y-89052662D01*
X66721659Y-89096459D01*
X66677862Y-89125724D01*
X66626200Y-89136000D01*
X66256200Y-89136000D01*
X66204538Y-89125724D01*
X66160741Y-89096459D01*
X66131476Y-89052662D01*
X66121200Y-89001000D01*
X66121200Y-88731000D01*
X66131476Y-88679338D01*
X66160741Y-88635541D01*
X66204538Y-88606276D01*
X66256200Y-88596000D01*
X66626200Y-88596000D01*
X66677862Y-88606276D01*
G37*
G36*
X149876000Y-88380000D02*
G01*
X147876000Y-88380000D01*
X147876000Y-87180000D01*
X149876000Y-87180000D01*
X149876000Y-88380000D01*
G37*
G36*
X68306662Y-86910276D02*
G01*
X68350459Y-86939541D01*
X68379724Y-86983338D01*
X68390000Y-87035000D01*
X68390000Y-87405000D01*
X68379724Y-87456662D01*
X68350459Y-87500459D01*
X68306662Y-87529724D01*
X68255000Y-87540000D01*
X67985000Y-87540000D01*
X67933338Y-87529724D01*
X67889541Y-87500459D01*
X67860276Y-87456662D01*
X67850000Y-87405000D01*
X67850000Y-87035000D01*
X67860276Y-86983338D01*
X67889541Y-86939541D01*
X67933338Y-86910276D01*
X67985000Y-86900000D01*
X68255000Y-86900000D01*
X68306662Y-86910276D01*
G37*
G36*
X69326662Y-86910276D02*
G01*
X69370459Y-86939541D01*
X69399724Y-86983338D01*
X69410000Y-87035000D01*
X69410000Y-87405000D01*
X69399724Y-87456662D01*
X69370459Y-87500459D01*
X69326662Y-87529724D01*
X69275000Y-87540000D01*
X69005000Y-87540000D01*
X68953338Y-87529724D01*
X68909541Y-87500459D01*
X68880276Y-87456662D01*
X68870000Y-87405000D01*
X68870000Y-87035000D01*
X68880276Y-86983338D01*
X68909541Y-86939541D01*
X68953338Y-86910276D01*
X69005000Y-86900000D01*
X69275000Y-86900000D01*
X69326662Y-86910276D01*
G37*
G36*
X92430600Y-87376000D02*
G01*
X90906600Y-87376000D01*
X90906600Y-84531200D01*
X92430600Y-84531200D01*
X92430600Y-87376000D01*
G37*
G36*
X94430600Y-87376000D02*
G01*
X92906600Y-87376000D01*
X92906600Y-84531200D01*
X94430600Y-84531200D01*
X94430600Y-87376000D01*
G37*
G36*
X96430600Y-87376000D02*
G01*
X94906600Y-87376000D01*
X94906600Y-84531200D01*
X96430600Y-84531200D01*
X96430600Y-87376000D01*
G37*
G36*
X98430600Y-87376000D02*
G01*
X96906600Y-87376000D01*
X96906600Y-84531200D01*
X98430600Y-84531200D01*
X98430600Y-87376000D01*
G37*
G36*
X112430600Y-87376000D02*
G01*
X110906600Y-87376000D01*
X110906600Y-84531200D01*
X112430600Y-84531200D01*
X112430600Y-87376000D01*
G37*
G36*
X116430600Y-87376000D02*
G01*
X114906600Y-87376000D01*
X114906600Y-84531200D01*
X116430600Y-84531200D01*
X116430600Y-87376000D01*
G37*
G36*
X143876000Y-87110000D02*
G01*
X141876000Y-87110000D01*
X141876000Y-85910000D01*
X143876000Y-85910000D01*
X143876000Y-87110000D01*
G37*
G36*
X132351000Y-86857500D02*
G01*
X131901000Y-86857500D01*
X131901000Y-85382500D01*
X132351000Y-85382500D01*
X132351000Y-86857500D01*
G37*
G36*
X133001000Y-86857500D02*
G01*
X132551000Y-86857500D01*
X132551000Y-85382500D01*
X133001000Y-85382500D01*
X133001000Y-86857500D01*
G37*
G36*
X133651000Y-86857500D02*
G01*
X133201000Y-86857500D01*
X133201000Y-85382500D01*
X133651000Y-85382500D01*
X133651000Y-86857500D01*
G37*
G36*
X134301000Y-86857500D02*
G01*
X133851000Y-86857500D01*
X133851000Y-85382500D01*
X134301000Y-85382500D01*
X134301000Y-86857500D01*
G37*
G36*
X134951000Y-86857500D02*
G01*
X134501000Y-86857500D01*
X134501000Y-85382500D01*
X134951000Y-85382500D01*
X134951000Y-86857500D01*
G37*
G36*
X135601000Y-86857500D02*
G01*
X135151000Y-86857500D01*
X135151000Y-85382500D01*
X135601000Y-85382500D01*
X135601000Y-86857500D01*
G37*
G36*
X136251000Y-86857500D02*
G01*
X135801000Y-86857500D01*
X135801000Y-85382500D01*
X136251000Y-85382500D01*
X136251000Y-86857500D01*
G37*
G36*
X136901000Y-86857500D02*
G01*
X136451000Y-86857500D01*
X136451000Y-85382500D01*
X136901000Y-85382500D01*
X136901000Y-86857500D01*
G37*
G36*
X137551000Y-86857500D02*
G01*
X137101000Y-86857500D01*
X137101000Y-85382500D01*
X137551000Y-85382500D01*
X137551000Y-86857500D01*
G37*
G36*
X138201000Y-86857500D02*
G01*
X137751000Y-86857500D01*
X137751000Y-85382500D01*
X138201000Y-85382500D01*
X138201000Y-86857500D01*
G37*
G36*
X138851000Y-86857500D02*
G01*
X138401000Y-86857500D01*
X138401000Y-85382500D01*
X138851000Y-85382500D01*
X138851000Y-86857500D01*
G37*
G36*
X139501000Y-86857500D02*
G01*
X139051000Y-86857500D01*
X139051000Y-85382500D01*
X139501000Y-85382500D01*
X139501000Y-86857500D01*
G37*
G36*
X69629462Y-85137076D02*
G01*
X69673259Y-85166341D01*
X69702524Y-85210138D01*
X69712800Y-85261800D01*
X69712800Y-85531800D01*
X69702524Y-85583462D01*
X69673259Y-85627259D01*
X69629462Y-85656524D01*
X69577800Y-85666800D01*
X69207800Y-85666800D01*
X69156138Y-85656524D01*
X69112341Y-85627259D01*
X69083076Y-85583462D01*
X69072800Y-85531800D01*
X69072800Y-85261800D01*
X69083076Y-85210138D01*
X69112341Y-85166341D01*
X69156138Y-85137076D01*
X69207800Y-85126800D01*
X69577800Y-85126800D01*
X69629462Y-85137076D01*
G37*
G36*
X70950262Y-85086276D02*
G01*
X70994059Y-85115541D01*
X71023324Y-85159338D01*
X71033600Y-85211000D01*
X71033600Y-85481000D01*
X71023324Y-85532662D01*
X70994059Y-85576459D01*
X70950262Y-85605724D01*
X70898600Y-85616000D01*
X70528600Y-85616000D01*
X70476938Y-85605724D01*
X70433141Y-85576459D01*
X70403876Y-85532662D01*
X70393600Y-85481000D01*
X70393600Y-85211000D01*
X70403876Y-85159338D01*
X70433141Y-85115541D01*
X70476938Y-85086276D01*
X70528600Y-85076000D01*
X70898600Y-85076000D01*
X70950262Y-85086276D01*
G37*
G36*
X72156376Y-85054657D02*
G01*
X72201795Y-85085005D01*
X72232143Y-85130424D01*
X72242800Y-85184000D01*
X72242800Y-85464000D01*
X72232143Y-85517576D01*
X72201795Y-85562995D01*
X72156376Y-85593343D01*
X72102800Y-85604000D01*
X71762800Y-85604000D01*
X71709224Y-85593343D01*
X71663805Y-85562995D01*
X71633457Y-85517576D01*
X71622800Y-85464000D01*
X71622800Y-85184000D01*
X71633457Y-85130424D01*
X71663805Y-85085005D01*
X71709224Y-85054657D01*
X71762800Y-85044000D01*
X72102800Y-85044000D01*
X72156376Y-85054657D01*
G37*
G36*
X73156376Y-85054657D02*
G01*
X73201795Y-85085005D01*
X73232143Y-85130424D01*
X73242800Y-85184000D01*
X73242800Y-85464000D01*
X73232143Y-85517576D01*
X73201795Y-85562995D01*
X73156376Y-85593343D01*
X73102800Y-85604000D01*
X72762800Y-85604000D01*
X72709224Y-85593343D01*
X72663805Y-85562995D01*
X72633457Y-85517576D01*
X72622800Y-85464000D01*
X72622800Y-85184000D01*
X72633457Y-85130424D01*
X72663805Y-85085005D01*
X72709224Y-85054657D01*
X72762800Y-85044000D01*
X73102800Y-85044000D01*
X73156376Y-85054657D01*
G37*
G36*
X144246390Y-83752826D02*
G01*
X144413500Y-83827228D01*
X144561489Y-83934748D01*
X144683890Y-84070688D01*
X144775352Y-84229105D01*
X144831879Y-84403077D01*
X144851000Y-84585000D01*
X144831879Y-84766923D01*
X144775352Y-84940895D01*
X144683890Y-85099312D01*
X144561489Y-85235252D01*
X144413500Y-85342772D01*
X144246390Y-85417174D01*
X144067462Y-85455207D01*
X143884538Y-85455207D01*
X143705610Y-85417174D01*
X143538500Y-85342772D01*
X143390511Y-85235252D01*
X143268110Y-85099312D01*
X143176648Y-84940895D01*
X143120121Y-84766923D01*
X143101000Y-84585000D01*
X143120121Y-84403077D01*
X143176648Y-84229105D01*
X143268110Y-84070688D01*
X143390511Y-83934748D01*
X143538500Y-83827228D01*
X143705610Y-83752826D01*
X143884538Y-83714793D01*
X144067462Y-83714793D01*
X144246390Y-83752826D01*
G37*
G36*
X80015316Y-83024818D02*
G01*
X80066579Y-83030766D01*
X80084092Y-83038499D01*
X80106871Y-83043030D01*
X80131257Y-83059324D01*
X80151988Y-83068478D01*
X80166146Y-83082636D01*
X80187977Y-83097223D01*
X80202563Y-83119053D01*
X80216721Y-83133211D01*
X80225873Y-83153939D01*
X80242170Y-83178329D01*
X80246701Y-83201109D01*
X80254433Y-83218620D01*
X80260378Y-83269872D01*
X80261200Y-83274000D01*
X80261200Y-84974000D01*
X80260378Y-84978128D01*
X80254433Y-85029379D01*
X80246701Y-85046888D01*
X80242170Y-85069671D01*
X80225872Y-85094062D01*
X80216721Y-85114788D01*
X80202565Y-85128943D01*
X80187977Y-85150777D01*
X80166143Y-85165365D01*
X80151988Y-85179521D01*
X80131262Y-85188672D01*
X80106871Y-85204970D01*
X80084088Y-85209501D01*
X80066579Y-85217233D01*
X80015329Y-85223178D01*
X80011200Y-85224000D01*
X79261200Y-85224000D01*
X79257073Y-85223179D01*
X79205820Y-85217233D01*
X79188309Y-85209501D01*
X79165529Y-85204970D01*
X79141139Y-85188673D01*
X79120411Y-85179521D01*
X79106253Y-85165363D01*
X79084423Y-85150777D01*
X79069836Y-85128946D01*
X79055678Y-85114788D01*
X79046524Y-85094057D01*
X79030230Y-85069671D01*
X79025699Y-85046892D01*
X79017966Y-85029379D01*
X79012018Y-84978117D01*
X79011200Y-84974000D01*
X79011200Y-83274000D01*
X79012018Y-83269885D01*
X79017966Y-83218620D01*
X79025699Y-83201105D01*
X79030230Y-83178329D01*
X79046523Y-83153944D01*
X79055678Y-83133211D01*
X79069838Y-83119050D01*
X79084423Y-83097223D01*
X79106250Y-83082638D01*
X79120411Y-83068478D01*
X79141144Y-83059323D01*
X79165529Y-83043030D01*
X79188305Y-83038499D01*
X79205820Y-83030766D01*
X79257084Y-83024818D01*
X79261200Y-83024000D01*
X80011200Y-83024000D01*
X80015316Y-83024818D01*
G37*
G36*
X82165316Y-83024818D02*
G01*
X82216579Y-83030766D01*
X82234092Y-83038499D01*
X82256871Y-83043030D01*
X82281257Y-83059324D01*
X82301988Y-83068478D01*
X82316146Y-83082636D01*
X82337977Y-83097223D01*
X82352563Y-83119053D01*
X82366721Y-83133211D01*
X82375873Y-83153939D01*
X82392170Y-83178329D01*
X82396701Y-83201109D01*
X82404433Y-83218620D01*
X82410378Y-83269872D01*
X82411200Y-83274000D01*
X82411200Y-84974000D01*
X82410378Y-84978128D01*
X82404433Y-85029379D01*
X82396701Y-85046888D01*
X82392170Y-85069671D01*
X82375872Y-85094062D01*
X82366721Y-85114788D01*
X82352565Y-85128943D01*
X82337977Y-85150777D01*
X82316143Y-85165365D01*
X82301988Y-85179521D01*
X82281262Y-85188672D01*
X82256871Y-85204970D01*
X82234088Y-85209501D01*
X82216579Y-85217233D01*
X82165329Y-85223178D01*
X82161200Y-85224000D01*
X81411200Y-85224000D01*
X81407073Y-85223179D01*
X81355820Y-85217233D01*
X81338309Y-85209501D01*
X81315529Y-85204970D01*
X81291139Y-85188673D01*
X81270411Y-85179521D01*
X81256253Y-85165363D01*
X81234423Y-85150777D01*
X81219836Y-85128946D01*
X81205678Y-85114788D01*
X81196524Y-85094057D01*
X81180230Y-85069671D01*
X81175699Y-85046892D01*
X81167966Y-85029379D01*
X81162018Y-84978117D01*
X81161200Y-84974000D01*
X81161200Y-83274000D01*
X81162018Y-83269885D01*
X81167966Y-83218620D01*
X81175699Y-83201105D01*
X81180230Y-83178329D01*
X81196523Y-83153944D01*
X81205678Y-83133211D01*
X81219838Y-83119050D01*
X81234423Y-83097223D01*
X81256250Y-83082638D01*
X81270411Y-83068478D01*
X81291144Y-83059323D01*
X81315529Y-83043030D01*
X81338305Y-83038499D01*
X81355820Y-83030766D01*
X81407084Y-83024818D01*
X81411200Y-83024000D01*
X82161200Y-83024000D01*
X82165316Y-83024818D01*
G37*
G36*
X133914576Y-84258657D02*
G01*
X133959995Y-84289005D01*
X133990343Y-84334424D01*
X134001000Y-84388000D01*
X134001000Y-84728000D01*
X133990343Y-84781576D01*
X133959995Y-84826995D01*
X133914576Y-84857343D01*
X133861000Y-84868000D01*
X133581000Y-84868000D01*
X133527424Y-84857343D01*
X133482005Y-84826995D01*
X133451657Y-84781576D01*
X133441000Y-84728000D01*
X133441000Y-84388000D01*
X133451657Y-84334424D01*
X133482005Y-84289005D01*
X133527424Y-84258657D01*
X133581000Y-84248000D01*
X133861000Y-84248000D01*
X133914576Y-84258657D01*
G37*
G36*
X134874576Y-84258657D02*
G01*
X134919995Y-84289005D01*
X134950343Y-84334424D01*
X134961000Y-84388000D01*
X134961000Y-84728000D01*
X134950343Y-84781576D01*
X134919995Y-84826995D01*
X134874576Y-84857343D01*
X134821000Y-84868000D01*
X134541000Y-84868000D01*
X134487424Y-84857343D01*
X134442005Y-84826995D01*
X134411657Y-84781576D01*
X134401000Y-84728000D01*
X134401000Y-84388000D01*
X134411657Y-84334424D01*
X134442005Y-84289005D01*
X134487424Y-84258657D01*
X134541000Y-84248000D01*
X134821000Y-84248000D01*
X134874576Y-84258657D01*
G37*
G36*
X69629462Y-84117076D02*
G01*
X69673259Y-84146341D01*
X69702524Y-84190138D01*
X69712800Y-84241800D01*
X69712800Y-84511800D01*
X69702524Y-84563462D01*
X69673259Y-84607259D01*
X69629462Y-84636524D01*
X69577800Y-84646800D01*
X69207800Y-84646800D01*
X69156138Y-84636524D01*
X69112341Y-84607259D01*
X69083076Y-84563462D01*
X69072800Y-84511800D01*
X69072800Y-84241800D01*
X69083076Y-84190138D01*
X69112341Y-84146341D01*
X69156138Y-84117076D01*
X69207800Y-84106800D01*
X69577800Y-84106800D01*
X69629462Y-84117076D01*
G37*
G36*
X72156376Y-84094657D02*
G01*
X72201795Y-84125005D01*
X72232143Y-84170424D01*
X72242800Y-84224000D01*
X72242800Y-84504000D01*
X72232143Y-84557576D01*
X72201795Y-84602995D01*
X72156376Y-84633343D01*
X72102800Y-84644000D01*
X71762800Y-84644000D01*
X71709224Y-84633343D01*
X71663805Y-84602995D01*
X71633457Y-84557576D01*
X71622800Y-84504000D01*
X71622800Y-84224000D01*
X71633457Y-84170424D01*
X71663805Y-84125005D01*
X71709224Y-84094657D01*
X71762800Y-84084000D01*
X72102800Y-84084000D01*
X72156376Y-84094657D01*
G37*
G36*
X73156376Y-84094657D02*
G01*
X73201795Y-84125005D01*
X73232143Y-84170424D01*
X73242800Y-84224000D01*
X73242800Y-84504000D01*
X73232143Y-84557576D01*
X73201795Y-84602995D01*
X73156376Y-84633343D01*
X73102800Y-84644000D01*
X72762800Y-84644000D01*
X72709224Y-84633343D01*
X72663805Y-84602995D01*
X72633457Y-84557576D01*
X72622800Y-84504000D01*
X72622800Y-84224000D01*
X72633457Y-84170424D01*
X72663805Y-84125005D01*
X72709224Y-84094657D01*
X72762800Y-84084000D01*
X73102800Y-84084000D01*
X73156376Y-84094657D01*
G37*
G36*
X70950262Y-84066276D02*
G01*
X70994059Y-84095541D01*
X71023324Y-84139338D01*
X71033600Y-84191000D01*
X71033600Y-84461000D01*
X71023324Y-84512662D01*
X70994059Y-84556459D01*
X70950262Y-84585724D01*
X70898600Y-84596000D01*
X70528600Y-84596000D01*
X70476938Y-84585724D01*
X70433141Y-84556459D01*
X70403876Y-84512662D01*
X70393600Y-84461000D01*
X70393600Y-84191000D01*
X70403876Y-84139338D01*
X70433141Y-84095541D01*
X70476938Y-84066276D01*
X70528600Y-84056000D01*
X70898600Y-84056000D01*
X70950262Y-84066276D01*
G37*
G36*
X141701000Y-84545000D02*
G01*
X140851000Y-84545000D01*
X140851000Y-83695000D01*
X141701000Y-83695000D01*
X141701000Y-84545000D01*
G37*
G36*
X75387800Y-84419000D02*
G01*
X74887800Y-84419000D01*
X74887800Y-84069000D01*
X75387800Y-84069000D01*
X75387800Y-84419000D01*
G37*
G36*
X77187800Y-84419000D02*
G01*
X76687800Y-84419000D01*
X76687800Y-84069000D01*
X77187800Y-84069000D01*
X77187800Y-84419000D01*
G37*
G36*
X76537800Y-84394000D02*
G01*
X75537800Y-84394000D01*
X75537800Y-82594000D01*
X76537800Y-82594000D01*
X76537800Y-84394000D01*
G37*
G36*
X137908576Y-83755657D02*
G01*
X137953995Y-83786005D01*
X137984343Y-83831424D01*
X137995000Y-83885000D01*
X137995000Y-84225000D01*
X137984343Y-84278576D01*
X137953995Y-84323995D01*
X137908576Y-84354343D01*
X137855000Y-84365000D01*
X137575000Y-84365000D01*
X137521424Y-84354343D01*
X137476005Y-84323995D01*
X137445657Y-84278576D01*
X137435000Y-84225000D01*
X137435000Y-83885000D01*
X137445657Y-83831424D01*
X137476005Y-83786005D01*
X137521424Y-83755657D01*
X137575000Y-83745000D01*
X137855000Y-83745000D01*
X137908576Y-83755657D01*
G37*
G36*
X138868576Y-83755657D02*
G01*
X138913995Y-83786005D01*
X138944343Y-83831424D01*
X138955000Y-83885000D01*
X138955000Y-84225000D01*
X138944343Y-84278576D01*
X138913995Y-84323995D01*
X138868576Y-84354343D01*
X138815000Y-84365000D01*
X138535000Y-84365000D01*
X138481424Y-84354343D01*
X138436005Y-84323995D01*
X138405657Y-84278576D01*
X138395000Y-84225000D01*
X138395000Y-83885000D01*
X138405657Y-83831424D01*
X138436005Y-83786005D01*
X138481424Y-83755657D01*
X138535000Y-83745000D01*
X138815000Y-83745000D01*
X138868576Y-83755657D01*
G37*
G36*
X135903576Y-83600657D02*
G01*
X135948995Y-83631005D01*
X135979343Y-83676424D01*
X135990000Y-83730000D01*
X135990000Y-84070000D01*
X135979343Y-84123576D01*
X135948995Y-84168995D01*
X135903576Y-84199343D01*
X135850000Y-84210000D01*
X135570000Y-84210000D01*
X135516424Y-84199343D01*
X135471005Y-84168995D01*
X135440657Y-84123576D01*
X135430000Y-84070000D01*
X135430000Y-83730000D01*
X135440657Y-83676424D01*
X135471005Y-83631005D01*
X135516424Y-83600657D01*
X135570000Y-83590000D01*
X135850000Y-83590000D01*
X135903576Y-83600657D01*
G37*
G36*
X136863576Y-83600657D02*
G01*
X136908995Y-83631005D01*
X136939343Y-83676424D01*
X136950000Y-83730000D01*
X136950000Y-84070000D01*
X136939343Y-84123576D01*
X136908995Y-84168995D01*
X136863576Y-84199343D01*
X136810000Y-84210000D01*
X136530000Y-84210000D01*
X136476424Y-84199343D01*
X136431005Y-84168995D01*
X136400657Y-84123576D01*
X136390000Y-84070000D01*
X136390000Y-83730000D01*
X136400657Y-83676424D01*
X136431005Y-83631005D01*
X136476424Y-83600657D01*
X136530000Y-83590000D01*
X136810000Y-83590000D01*
X136863576Y-83600657D01*
G37*
G36*
X75387800Y-83919000D02*
G01*
X74887800Y-83919000D01*
X74887800Y-83569000D01*
X75387800Y-83569000D01*
X75387800Y-83919000D01*
G37*
G36*
X77187800Y-83919000D02*
G01*
X76687800Y-83919000D01*
X76687800Y-83569000D01*
X77187800Y-83569000D01*
X77187800Y-83919000D01*
G37*
G36*
X133914576Y-83158657D02*
G01*
X133959995Y-83189005D01*
X133990343Y-83234424D01*
X134001000Y-83288000D01*
X134001000Y-83628000D01*
X133990343Y-83681576D01*
X133959995Y-83726995D01*
X133914576Y-83757343D01*
X133861000Y-83768000D01*
X133581000Y-83768000D01*
X133527424Y-83757343D01*
X133482005Y-83726995D01*
X133451657Y-83681576D01*
X133441000Y-83628000D01*
X133441000Y-83288000D01*
X133451657Y-83234424D01*
X133482005Y-83189005D01*
X133527424Y-83158657D01*
X133581000Y-83148000D01*
X133861000Y-83148000D01*
X133914576Y-83158657D01*
G37*
G36*
X134874576Y-83158657D02*
G01*
X134919995Y-83189005D01*
X134950343Y-83234424D01*
X134961000Y-83288000D01*
X134961000Y-83628000D01*
X134950343Y-83681576D01*
X134919995Y-83726995D01*
X134874576Y-83757343D01*
X134821000Y-83768000D01*
X134541000Y-83768000D01*
X134487424Y-83757343D01*
X134442005Y-83726995D01*
X134411657Y-83681576D01*
X134401000Y-83628000D01*
X134401000Y-83288000D01*
X134411657Y-83234424D01*
X134442005Y-83189005D01*
X134487424Y-83158657D01*
X134541000Y-83148000D01*
X134821000Y-83148000D01*
X134874576Y-83158657D01*
G37*
G36*
X72109462Y-82929276D02*
G01*
X72153259Y-82958541D01*
X72182524Y-83002338D01*
X72192800Y-83054000D01*
X72192800Y-83424000D01*
X72182524Y-83475662D01*
X72153259Y-83519459D01*
X72109462Y-83548724D01*
X72057800Y-83559000D01*
X71787800Y-83559000D01*
X71736138Y-83548724D01*
X71692341Y-83519459D01*
X71663076Y-83475662D01*
X71652800Y-83424000D01*
X71652800Y-83054000D01*
X71663076Y-83002338D01*
X71692341Y-82958541D01*
X71736138Y-82929276D01*
X71787800Y-82919000D01*
X72057800Y-82919000D01*
X72109462Y-82929276D01*
G37*
G36*
X73129462Y-82929276D02*
G01*
X73173259Y-82958541D01*
X73202524Y-83002338D01*
X73212800Y-83054000D01*
X73212800Y-83424000D01*
X73202524Y-83475662D01*
X73173259Y-83519459D01*
X73129462Y-83548724D01*
X73077800Y-83559000D01*
X72807800Y-83559000D01*
X72756138Y-83548724D01*
X72712341Y-83519459D01*
X72683076Y-83475662D01*
X72672800Y-83424000D01*
X72672800Y-83054000D01*
X72683076Y-83002338D01*
X72712341Y-82958541D01*
X72756138Y-82929276D01*
X72807800Y-82919000D01*
X73077800Y-82919000D01*
X73129462Y-82929276D01*
G37*
G36*
X75387800Y-83419000D02*
G01*
X74887800Y-83419000D01*
X74887800Y-83069000D01*
X75387800Y-83069000D01*
X75387800Y-83419000D01*
G37*
G36*
X77187800Y-83419000D02*
G01*
X76687800Y-83419000D01*
X76687800Y-83069000D01*
X77187800Y-83069000D01*
X77187800Y-83419000D01*
G37*
G36*
X137908576Y-82755657D02*
G01*
X137953995Y-82786005D01*
X137984343Y-82831424D01*
X137995000Y-82885000D01*
X137995000Y-83225000D01*
X137984343Y-83278576D01*
X137953995Y-83323995D01*
X137908576Y-83354343D01*
X137855000Y-83365000D01*
X137575000Y-83365000D01*
X137521424Y-83354343D01*
X137476005Y-83323995D01*
X137445657Y-83278576D01*
X137435000Y-83225000D01*
X137435000Y-82885000D01*
X137445657Y-82831424D01*
X137476005Y-82786005D01*
X137521424Y-82755657D01*
X137575000Y-82745000D01*
X137855000Y-82745000D01*
X137908576Y-82755657D01*
G37*
G36*
X138868576Y-82755657D02*
G01*
X138913995Y-82786005D01*
X138944343Y-82831424D01*
X138955000Y-82885000D01*
X138955000Y-83225000D01*
X138944343Y-83278576D01*
X138913995Y-83323995D01*
X138868576Y-83354343D01*
X138815000Y-83365000D01*
X138535000Y-83365000D01*
X138481424Y-83354343D01*
X138436005Y-83323995D01*
X138405657Y-83278576D01*
X138395000Y-83225000D01*
X138395000Y-82885000D01*
X138405657Y-82831424D01*
X138436005Y-82786005D01*
X138481424Y-82755657D01*
X138535000Y-82745000D01*
X138815000Y-82745000D01*
X138868576Y-82755657D01*
G37*
G36*
X135903576Y-82500657D02*
G01*
X135948995Y-82531005D01*
X135979343Y-82576424D01*
X135990000Y-82630000D01*
X135990000Y-82970000D01*
X135979343Y-83023576D01*
X135948995Y-83068995D01*
X135903576Y-83099343D01*
X135850000Y-83110000D01*
X135570000Y-83110000D01*
X135516424Y-83099343D01*
X135471005Y-83068995D01*
X135440657Y-83023576D01*
X135430000Y-82970000D01*
X135430000Y-82630000D01*
X135440657Y-82576424D01*
X135471005Y-82531005D01*
X135516424Y-82500657D01*
X135570000Y-82490000D01*
X135850000Y-82490000D01*
X135903576Y-82500657D01*
G37*
G36*
X136863576Y-82500657D02*
G01*
X136908995Y-82531005D01*
X136939343Y-82576424D01*
X136950000Y-82630000D01*
X136950000Y-82970000D01*
X136939343Y-83023576D01*
X136908995Y-83068995D01*
X136863576Y-83099343D01*
X136810000Y-83110000D01*
X136530000Y-83110000D01*
X136476424Y-83099343D01*
X136431005Y-83068995D01*
X136400657Y-83023576D01*
X136390000Y-82970000D01*
X136390000Y-82630000D01*
X136400657Y-82576424D01*
X136431005Y-82531005D01*
X136476424Y-82500657D01*
X136530000Y-82490000D01*
X136810000Y-82490000D01*
X136863576Y-82500657D01*
G37*
G36*
X75387800Y-82919000D02*
G01*
X74887800Y-82919000D01*
X74887800Y-82569000D01*
X75387800Y-82569000D01*
X75387800Y-82919000D01*
G37*
G36*
X77187800Y-82919000D02*
G01*
X76687800Y-82919000D01*
X76687800Y-82569000D01*
X77187800Y-82569000D01*
X77187800Y-82919000D01*
G37*
G36*
X73642662Y-81885876D02*
G01*
X73686459Y-81915141D01*
X73715724Y-81958938D01*
X73726000Y-82010600D01*
X73726000Y-82280600D01*
X73715724Y-82332262D01*
X73686459Y-82376059D01*
X73642662Y-82405324D01*
X73591000Y-82415600D01*
X73221000Y-82415600D01*
X73169338Y-82405324D01*
X73125541Y-82376059D01*
X73096276Y-82332262D01*
X73086000Y-82280600D01*
X73086000Y-82010600D01*
X73096276Y-81958938D01*
X73125541Y-81915141D01*
X73169338Y-81885876D01*
X73221000Y-81875600D01*
X73591000Y-81875600D01*
X73642662Y-81885876D01*
G37*
G36*
X80814462Y-81754276D02*
G01*
X80858259Y-81783541D01*
X80887524Y-81827338D01*
X80897800Y-81879000D01*
X80897800Y-82249000D01*
X80887524Y-82300662D01*
X80858259Y-82344459D01*
X80814462Y-82373724D01*
X80762800Y-82384000D01*
X80492800Y-82384000D01*
X80441138Y-82373724D01*
X80397341Y-82344459D01*
X80368076Y-82300662D01*
X80357800Y-82249000D01*
X80357800Y-81879000D01*
X80368076Y-81827338D01*
X80397341Y-81783541D01*
X80441138Y-81754276D01*
X80492800Y-81744000D01*
X80762800Y-81744000D01*
X80814462Y-81754276D01*
G37*
G36*
X81834462Y-81754276D02*
G01*
X81878259Y-81783541D01*
X81907524Y-81827338D01*
X81917800Y-81879000D01*
X81917800Y-82249000D01*
X81907524Y-82300662D01*
X81878259Y-82344459D01*
X81834462Y-82373724D01*
X81782800Y-82384000D01*
X81512800Y-82384000D01*
X81461138Y-82373724D01*
X81417341Y-82344459D01*
X81388076Y-82300662D01*
X81377800Y-82249000D01*
X81377800Y-81879000D01*
X81388076Y-81827338D01*
X81417341Y-81783541D01*
X81461138Y-81754276D01*
X81512800Y-81744000D01*
X81782800Y-81744000D01*
X81834462Y-81754276D01*
G37*
G36*
X127504519Y-80545896D02*
G01*
X127668000Y-80618682D01*
X127812776Y-80723868D01*
X127932519Y-80856856D01*
X128021995Y-81011833D01*
X128077294Y-81182028D01*
X128096000Y-81360000D01*
X128077294Y-81537972D01*
X128021995Y-81708167D01*
X127932519Y-81863144D01*
X127812776Y-81996132D01*
X127668000Y-82101318D01*
X127504519Y-82174104D01*
X127329476Y-82211311D01*
X127150524Y-82211311D01*
X126975481Y-82174104D01*
X126812000Y-82101318D01*
X126667224Y-81996132D01*
X126547481Y-81863144D01*
X126458005Y-81708167D01*
X126402706Y-81537972D01*
X126384000Y-81360000D01*
X126402706Y-81182028D01*
X126458005Y-81011833D01*
X126547481Y-80856856D01*
X126667224Y-80723868D01*
X126812000Y-80618682D01*
X126975481Y-80545896D01*
X127150524Y-80508689D01*
X127329476Y-80508689D01*
X127504519Y-80545896D01*
G37*
G36*
X73642662Y-80865876D02*
G01*
X73686459Y-80895141D01*
X73715724Y-80938938D01*
X73726000Y-80990600D01*
X73726000Y-81260600D01*
X73715724Y-81312262D01*
X73686459Y-81356059D01*
X73642662Y-81385324D01*
X73591000Y-81395600D01*
X73221000Y-81395600D01*
X73169338Y-81385324D01*
X73125541Y-81356059D01*
X73096276Y-81312262D01*
X73086000Y-81260600D01*
X73086000Y-80990600D01*
X73096276Y-80938938D01*
X73125541Y-80895141D01*
X73169338Y-80865876D01*
X73221000Y-80855600D01*
X73591000Y-80855600D01*
X73642662Y-80865876D01*
G37*
G36*
X80849376Y-80701457D02*
G01*
X80894795Y-80731805D01*
X80925143Y-80777224D01*
X80935800Y-80830800D01*
X80935800Y-81170800D01*
X80925143Y-81224376D01*
X80894795Y-81269795D01*
X80849376Y-81300143D01*
X80795800Y-81310800D01*
X80515800Y-81310800D01*
X80462224Y-81300143D01*
X80416805Y-81269795D01*
X80386457Y-81224376D01*
X80375800Y-81170800D01*
X80375800Y-80830800D01*
X80386457Y-80777224D01*
X80416805Y-80731805D01*
X80462224Y-80701457D01*
X80515800Y-80690800D01*
X80795800Y-80690800D01*
X80849376Y-80701457D01*
G37*
G36*
X81809376Y-80701457D02*
G01*
X81854795Y-80731805D01*
X81885143Y-80777224D01*
X81895800Y-80830800D01*
X81895800Y-81170800D01*
X81885143Y-81224376D01*
X81854795Y-81269795D01*
X81809376Y-81300143D01*
X81755800Y-81310800D01*
X81475800Y-81310800D01*
X81422224Y-81300143D01*
X81376805Y-81269795D01*
X81346457Y-81224376D01*
X81335800Y-81170800D01*
X81335800Y-80830800D01*
X81346457Y-80777224D01*
X81376805Y-80731805D01*
X81422224Y-80701457D01*
X81475800Y-80690800D01*
X81755800Y-80690800D01*
X81809376Y-80701457D01*
G37*
G36*
X144499576Y-79630657D02*
G01*
X144544995Y-79661005D01*
X144575343Y-79706424D01*
X144586000Y-79760000D01*
X144586000Y-80040000D01*
X144575343Y-80093576D01*
X144544995Y-80138995D01*
X144499576Y-80169343D01*
X144446000Y-80180000D01*
X144106000Y-80180000D01*
X144052424Y-80169343D01*
X144007005Y-80138995D01*
X143976657Y-80093576D01*
X143966000Y-80040000D01*
X143966000Y-79760000D01*
X143976657Y-79706424D01*
X144007005Y-79661005D01*
X144052424Y-79630657D01*
X144106000Y-79620000D01*
X144446000Y-79620000D01*
X144499576Y-79630657D01*
G37*
G36*
X142174500Y-80009701D02*
G01*
X140777500Y-80009701D01*
X140777500Y-79730301D01*
X142174500Y-79730301D01*
X142174500Y-80009701D01*
G37*
G36*
X137805700Y-80009698D02*
G01*
X136408700Y-80009698D01*
X136408700Y-79730298D01*
X137805700Y-79730298D01*
X137805700Y-80009698D01*
G37*
G36*
X127504519Y-78005896D02*
G01*
X127668000Y-78078682D01*
X127812776Y-78183868D01*
X127932519Y-78316856D01*
X128021995Y-78471833D01*
X128077294Y-78642028D01*
X128096000Y-78820000D01*
X128077294Y-78997972D01*
X128021995Y-79168167D01*
X127932519Y-79323144D01*
X127812776Y-79456132D01*
X127668000Y-79561318D01*
X127504519Y-79634104D01*
X127329476Y-79671311D01*
X127150524Y-79671311D01*
X126975481Y-79634104D01*
X126812000Y-79561318D01*
X126667224Y-79456132D01*
X126547481Y-79323144D01*
X126458005Y-79168167D01*
X126402706Y-78997972D01*
X126384000Y-78820000D01*
X126402706Y-78642028D01*
X126458005Y-78471833D01*
X126547481Y-78316856D01*
X126667224Y-78183868D01*
X126812000Y-78078682D01*
X126975481Y-78005896D01*
X127150524Y-77968689D01*
X127329476Y-77968689D01*
X127504519Y-78005896D01*
G37*
G36*
X140117100Y-79542399D02*
G01*
X138466100Y-79542399D01*
X138466100Y-76697599D01*
X140117100Y-76697599D01*
X140117100Y-79542399D01*
G37*
G36*
X137805700Y-79509699D02*
G01*
X136408700Y-79509699D01*
X136408700Y-79230299D01*
X137805700Y-79230299D01*
X137805700Y-79509699D01*
G37*
G36*
X142174500Y-79509699D02*
G01*
X140777500Y-79509699D01*
X140777500Y-79230299D01*
X142174500Y-79230299D01*
X142174500Y-79509699D01*
G37*
G36*
X71144680Y-76804784D02*
G01*
X71201469Y-76804784D01*
X71264060Y-76815228D01*
X71324425Y-76820510D01*
X71371830Y-76833212D01*
X71421359Y-76841477D01*
X71487796Y-76864284D01*
X71551727Y-76881415D01*
X71590890Y-76899677D01*
X71632221Y-76913866D01*
X71700130Y-76950616D01*
X71765000Y-76980866D01*
X71795537Y-77002248D01*
X71828282Y-77019969D01*
X71894936Y-77071848D01*
X71957763Y-77115840D01*
X71979906Y-77137983D01*
X72004213Y-77156902D01*
X72066658Y-77224735D01*
X72124160Y-77282237D01*
X72138672Y-77302963D01*
X72155203Y-77320920D01*
X72210355Y-77405337D01*
X72259134Y-77475000D01*
X72267275Y-77492459D01*
X72277136Y-77507552D01*
X72321886Y-77609571D01*
X72358585Y-77688273D01*
X72362003Y-77701030D01*
X72366687Y-77711708D01*
X72398052Y-77835567D01*
X72419490Y-77915575D01*
X72420111Y-77922678D01*
X72421416Y-77927830D01*
X72436709Y-78112388D01*
X72440000Y-78150000D01*
X72436709Y-78187614D01*
X72421416Y-78372169D01*
X72420111Y-78377319D01*
X72419490Y-78384425D01*
X72398047Y-78464450D01*
X72366687Y-78588291D01*
X72362003Y-78598967D01*
X72358585Y-78611727D01*
X72321878Y-78690443D01*
X72277136Y-78792447D01*
X72267277Y-78807537D01*
X72259134Y-78825000D01*
X72210345Y-78894676D01*
X72155203Y-78979079D01*
X72138675Y-78997032D01*
X72124160Y-79017763D01*
X72066646Y-79075276D01*
X72004213Y-79143097D01*
X71979910Y-79162012D01*
X71957763Y-79184160D01*
X71894923Y-79228160D01*
X71828282Y-79280030D01*
X71795543Y-79297747D01*
X71765000Y-79319134D01*
X71700116Y-79349389D01*
X71632221Y-79386133D01*
X71590898Y-79400319D01*
X71551727Y-79418585D01*
X71487782Y-79435718D01*
X71421359Y-79458522D01*
X71371838Y-79466785D01*
X71324425Y-79479490D01*
X71264057Y-79484771D01*
X71201469Y-79495216D01*
X71144680Y-79495216D01*
X71090000Y-79500000D01*
X71035320Y-79495216D01*
X70978531Y-79495216D01*
X70915942Y-79484771D01*
X70855575Y-79479490D01*
X70808163Y-79466786D01*
X70758640Y-79458522D01*
X70692212Y-79435717D01*
X70628273Y-79418585D01*
X70589104Y-79400320D01*
X70547778Y-79386133D01*
X70479875Y-79349386D01*
X70415000Y-79319134D01*
X70384459Y-79297749D01*
X70351717Y-79280030D01*
X70285066Y-79228153D01*
X70222237Y-79184160D01*
X70200092Y-79162015D01*
X70175786Y-79143097D01*
X70113340Y-79075263D01*
X70055840Y-79017763D01*
X70041327Y-78997036D01*
X70024796Y-78979079D01*
X69969639Y-78894655D01*
X69920866Y-78825000D01*
X69912725Y-78807542D01*
X69902863Y-78792447D01*
X69858104Y-78690407D01*
X69821415Y-78611727D01*
X69817997Y-78598973D01*
X69813312Y-78588291D01*
X69781934Y-78464382D01*
X69760510Y-78384425D01*
X69759888Y-78377325D01*
X69758583Y-78372169D01*
X69743272Y-78187398D01*
X69740000Y-78150000D01*
X69743271Y-78112604D01*
X69758583Y-77927830D01*
X69759889Y-77922672D01*
X69760510Y-77915575D01*
X69781929Y-77835635D01*
X69813312Y-77711708D01*
X69817998Y-77701024D01*
X69821415Y-77688273D01*
X69858097Y-77609608D01*
X69902863Y-77507552D01*
X69912727Y-77492453D01*
X69920866Y-77475000D01*
X69969629Y-77405358D01*
X70024796Y-77320920D01*
X70041330Y-77302959D01*
X70055840Y-77282237D01*
X70113329Y-77224747D01*
X70175786Y-77156902D01*
X70200097Y-77137979D01*
X70222237Y-77115840D01*
X70285053Y-77071855D01*
X70351717Y-77019969D01*
X70384466Y-77002246D01*
X70415000Y-76980866D01*
X70479862Y-76950620D01*
X70547778Y-76913866D01*
X70589112Y-76899675D01*
X70628273Y-76881415D01*
X70692199Y-76864286D01*
X70758640Y-76841477D01*
X70808170Y-76833211D01*
X70855575Y-76820510D01*
X70915938Y-76815228D01*
X70978531Y-76804784D01*
X71035320Y-76804784D01*
X71090000Y-76800000D01*
X71144680Y-76804784D01*
G37*
G36*
X76154115Y-76800818D02*
G01*
X76205378Y-76806766D01*
X76222892Y-76814499D01*
X76245670Y-76819030D01*
X76270054Y-76835323D01*
X76290788Y-76844478D01*
X76304950Y-76858640D01*
X76326776Y-76873224D01*
X76341359Y-76895049D01*
X76355521Y-76909211D01*
X76364675Y-76929943D01*
X76380970Y-76954330D01*
X76385500Y-76977108D01*
X76393233Y-76994621D01*
X76399182Y-77045898D01*
X76399999Y-77050002D01*
X76399999Y-77052932D01*
X76400000Y-77052941D01*
X76400000Y-78183868D01*
X76400000Y-79249999D01*
X76399180Y-79254116D01*
X76393233Y-79305378D01*
X76385501Y-79322888D01*
X76380970Y-79345670D01*
X76364673Y-79370058D01*
X76355521Y-79390788D01*
X76341361Y-79404947D01*
X76326776Y-79426776D01*
X76304947Y-79441361D01*
X76290788Y-79455521D01*
X76270058Y-79464673D01*
X76245670Y-79480970D01*
X76222889Y-79485501D01*
X76205378Y-79493233D01*
X76154102Y-79499182D01*
X76149998Y-79499999D01*
X76147066Y-79499999D01*
X76147058Y-79500000D01*
X73952942Y-79500000D01*
X73952941Y-79499999D01*
X73950001Y-79500000D01*
X73945883Y-79499181D01*
X73894621Y-79493233D01*
X73877110Y-79485501D01*
X73854330Y-79480970D01*
X73829943Y-79464675D01*
X73809211Y-79455521D01*
X73795049Y-79441359D01*
X73773224Y-79426776D01*
X73758640Y-79404950D01*
X73744478Y-79390788D01*
X73735323Y-79370054D01*
X73719030Y-79345670D01*
X73714499Y-79322893D01*
X73706766Y-79305378D01*
X73700817Y-79254101D01*
X73700001Y-79249998D01*
X73700000Y-79247066D01*
X73700000Y-79247058D01*
X73700000Y-77052941D01*
X73700000Y-77052940D01*
X73700000Y-77050001D01*
X73700818Y-77045886D01*
X73706766Y-76994621D01*
X73714499Y-76977105D01*
X73719030Y-76954330D01*
X73735321Y-76929947D01*
X73744478Y-76909211D01*
X73758642Y-76895046D01*
X73773224Y-76873224D01*
X73795046Y-76858642D01*
X73809211Y-76844478D01*
X73829947Y-76835321D01*
X73854330Y-76819030D01*
X73877104Y-76814500D01*
X73894621Y-76806766D01*
X73945898Y-76800817D01*
X73950002Y-76800001D01*
X73952933Y-76800000D01*
X73952942Y-76800000D01*
X76147058Y-76800000D01*
X76149999Y-76800000D01*
X76154115Y-76800818D01*
G37*
G36*
X144499576Y-78670657D02*
G01*
X144544995Y-78701005D01*
X144575343Y-78746424D01*
X144586000Y-78800000D01*
X144586000Y-79080000D01*
X144575343Y-79133576D01*
X144544995Y-79178995D01*
X144499576Y-79209343D01*
X144446000Y-79220000D01*
X144106000Y-79220000D01*
X144052424Y-79209343D01*
X144007005Y-79178995D01*
X143976657Y-79133576D01*
X143966000Y-79080000D01*
X143966000Y-78800000D01*
X143976657Y-78746424D01*
X144007005Y-78701005D01*
X144052424Y-78670657D01*
X144106000Y-78660000D01*
X144446000Y-78660000D01*
X144499576Y-78670657D01*
G37*
G36*
X142174500Y-79009700D02*
G01*
X140777500Y-79009700D01*
X140777500Y-78730300D01*
X142174500Y-78730300D01*
X142174500Y-79009700D01*
G37*
G36*
X137805700Y-79009697D02*
G01*
X136408700Y-79009697D01*
X136408700Y-78730297D01*
X137805700Y-78730297D01*
X137805700Y-79009697D01*
G37*
G36*
X137805700Y-78509699D02*
G01*
X136408700Y-78509699D01*
X136408700Y-78230299D01*
X137805700Y-78230299D01*
X137805700Y-78509699D01*
G37*
G36*
X142174500Y-78509699D02*
G01*
X140777500Y-78509699D01*
X140777500Y-78230299D01*
X142174500Y-78230299D01*
X142174500Y-78509699D01*
G37*
G36*
X134689576Y-77620657D02*
G01*
X134734995Y-77651005D01*
X134765343Y-77696424D01*
X134776000Y-77750000D01*
X134776000Y-78090000D01*
X134765343Y-78143576D01*
X134734995Y-78188995D01*
X134689576Y-78219343D01*
X134636000Y-78230000D01*
X134356000Y-78230000D01*
X134302424Y-78219343D01*
X134257005Y-78188995D01*
X134226657Y-78143576D01*
X134216000Y-78090000D01*
X134216000Y-77750000D01*
X134226657Y-77696424D01*
X134257005Y-77651005D01*
X134302424Y-77620657D01*
X134356000Y-77610000D01*
X134636000Y-77610000D01*
X134689576Y-77620657D01*
G37*
G36*
X135649576Y-77620657D02*
G01*
X135694995Y-77651005D01*
X135725343Y-77696424D01*
X135736000Y-77750000D01*
X135736000Y-78090000D01*
X135725343Y-78143576D01*
X135694995Y-78188995D01*
X135649576Y-78219343D01*
X135596000Y-78230000D01*
X135316000Y-78230000D01*
X135262424Y-78219343D01*
X135217005Y-78188995D01*
X135186657Y-78143576D01*
X135176000Y-78090000D01*
X135176000Y-77750000D01*
X135186657Y-77696424D01*
X135217005Y-77651005D01*
X135262424Y-77620657D01*
X135316000Y-77610000D01*
X135596000Y-77610000D01*
X135649576Y-77620657D01*
G37*
G36*
X144499576Y-77680657D02*
G01*
X144544995Y-77711005D01*
X144575343Y-77756424D01*
X144586000Y-77810000D01*
X144586000Y-78090000D01*
X144575343Y-78143576D01*
X144544995Y-78188995D01*
X144499576Y-78219343D01*
X144446000Y-78230000D01*
X144106000Y-78230000D01*
X144052424Y-78219343D01*
X144007005Y-78188995D01*
X143976657Y-78143576D01*
X143966000Y-78090000D01*
X143966000Y-77810000D01*
X143976657Y-77756424D01*
X144007005Y-77711005D01*
X144052424Y-77680657D01*
X144106000Y-77670000D01*
X144446000Y-77670000D01*
X144499576Y-77680657D01*
G37*
G36*
X137805700Y-78009699D02*
G01*
X136408700Y-78009699D01*
X136408700Y-77730299D01*
X137805700Y-77730299D01*
X137805700Y-78009699D01*
G37*
G36*
X142174500Y-78009699D02*
G01*
X140777500Y-78009699D01*
X140777500Y-77730299D01*
X142174500Y-77730299D01*
X142174500Y-78009699D01*
G37*
G36*
X142174500Y-77509701D02*
G01*
X140777500Y-77509701D01*
X140777500Y-77230301D01*
X142174500Y-77230301D01*
X142174500Y-77509701D01*
G37*
G36*
X137805700Y-77509698D02*
G01*
X136408700Y-77509698D01*
X136408700Y-77230298D01*
X137805700Y-77230298D01*
X137805700Y-77509698D01*
G37*
G36*
X144499576Y-76720657D02*
G01*
X144544995Y-76751005D01*
X144575343Y-76796424D01*
X144586000Y-76850000D01*
X144586000Y-77130000D01*
X144575343Y-77183576D01*
X144544995Y-77228995D01*
X144499576Y-77259343D01*
X144446000Y-77270000D01*
X144106000Y-77270000D01*
X144052424Y-77259343D01*
X144007005Y-77228995D01*
X143976657Y-77183576D01*
X143966000Y-77130000D01*
X143966000Y-76850000D01*
X143976657Y-76796424D01*
X144007005Y-76751005D01*
X144052424Y-76720657D01*
X144106000Y-76710000D01*
X144446000Y-76710000D01*
X144499576Y-76720657D01*
G37*
G36*
X128033034Y-75431764D02*
G01*
X128066125Y-75453875D01*
X128088236Y-75486966D01*
X128096000Y-75526000D01*
X128096000Y-77034000D01*
X128088236Y-77073034D01*
X128066125Y-77106125D01*
X128033034Y-77128236D01*
X127994000Y-77136000D01*
X126486000Y-77136000D01*
X126446966Y-77128236D01*
X126413875Y-77106125D01*
X126391764Y-77073034D01*
X126384000Y-77034000D01*
X126384000Y-75526000D01*
X126391764Y-75486966D01*
X126413875Y-75453875D01*
X126446966Y-75431764D01*
X126486000Y-75424000D01*
X127994000Y-75424000D01*
X128033034Y-75431764D01*
G37*
G36*
X134689576Y-76420657D02*
G01*
X134734995Y-76451005D01*
X134765343Y-76496424D01*
X134776000Y-76550000D01*
X134776000Y-76890000D01*
X134765343Y-76943576D01*
X134734995Y-76988995D01*
X134689576Y-77019343D01*
X134636000Y-77030000D01*
X134356000Y-77030000D01*
X134302424Y-77019343D01*
X134257005Y-76988995D01*
X134226657Y-76943576D01*
X134216000Y-76890000D01*
X134216000Y-76550000D01*
X134226657Y-76496424D01*
X134257005Y-76451005D01*
X134302424Y-76420657D01*
X134356000Y-76410000D01*
X134636000Y-76410000D01*
X134689576Y-76420657D01*
G37*
G36*
X135649576Y-76420657D02*
G01*
X135694995Y-76451005D01*
X135725343Y-76496424D01*
X135736000Y-76550000D01*
X135736000Y-76890000D01*
X135725343Y-76943576D01*
X135694995Y-76988995D01*
X135649576Y-77019343D01*
X135596000Y-77030000D01*
X135316000Y-77030000D01*
X135262424Y-77019343D01*
X135217005Y-76988995D01*
X135186657Y-76943576D01*
X135176000Y-76890000D01*
X135176000Y-76550000D01*
X135186657Y-76496424D01*
X135217005Y-76451005D01*
X135262424Y-76420657D01*
X135316000Y-76410000D01*
X135596000Y-76410000D01*
X135649576Y-76420657D01*
G37*
G36*
X137805700Y-77009699D02*
G01*
X136408700Y-77009699D01*
X136408700Y-76730299D01*
X137805700Y-76730299D01*
X137805700Y-77009699D01*
G37*
G36*
X142174500Y-77009699D02*
G01*
X140777500Y-77009699D01*
X140777500Y-76730299D01*
X142174500Y-76730299D01*
X142174500Y-77009699D01*
G37*
G36*
X142174500Y-76509700D02*
G01*
X140777500Y-76509700D01*
X140777500Y-76230300D01*
X142174500Y-76230300D01*
X142174500Y-76509700D01*
G37*
G36*
X137805700Y-76509697D02*
G01*
X136408700Y-76509697D01*
X136408700Y-76230297D01*
X137805700Y-76230297D01*
X137805700Y-76509697D01*
G37*
G36*
X137636000Y-74570000D02*
G01*
X136436000Y-74570000D01*
X136436000Y-72770000D01*
X137636000Y-72770000D01*
X137636000Y-74570000D01*
G37*
G36*
X145256000Y-74570000D02*
G01*
X144056000Y-74570000D01*
X144056000Y-72770000D01*
X145256000Y-72770000D01*
X145256000Y-74570000D01*
G37*
G36*
X124219116Y-69285818D02*
G01*
X124270379Y-69291766D01*
X124287892Y-69299499D01*
X124310671Y-69304030D01*
X124335057Y-69320324D01*
X124355788Y-69329478D01*
X124369946Y-69343636D01*
X124391777Y-69358223D01*
X124406363Y-69380053D01*
X124420521Y-69394211D01*
X124429673Y-69414939D01*
X124445970Y-69439329D01*
X124450501Y-69462109D01*
X124458233Y-69479620D01*
X124464178Y-69530872D01*
X124465000Y-69535000D01*
X124465000Y-71685000D01*
X124464178Y-71689128D01*
X124458233Y-71740379D01*
X124450501Y-71757888D01*
X124445970Y-71780671D01*
X124429672Y-71805062D01*
X124420521Y-71825788D01*
X124406365Y-71839943D01*
X124391777Y-71861777D01*
X124369943Y-71876365D01*
X124355788Y-71890521D01*
X124335062Y-71899672D01*
X124310671Y-71915970D01*
X124287888Y-71920501D01*
X124270379Y-71928233D01*
X124219129Y-71934178D01*
X124215000Y-71935000D01*
X123465000Y-71935000D01*
X123460873Y-71934179D01*
X123409620Y-71928233D01*
X123392109Y-71920501D01*
X123369329Y-71915970D01*
X123344939Y-71899673D01*
X123324211Y-71890521D01*
X123310053Y-71876363D01*
X123288223Y-71861777D01*
X123273636Y-71839946D01*
X123259478Y-71825788D01*
X123250324Y-71805057D01*
X123234030Y-71780671D01*
X123229499Y-71757892D01*
X123221766Y-71740379D01*
X123215818Y-71689117D01*
X123215000Y-71685000D01*
X123215000Y-69535000D01*
X123215818Y-69530885D01*
X123221766Y-69479620D01*
X123229499Y-69462105D01*
X123234030Y-69439329D01*
X123250323Y-69414944D01*
X123259478Y-69394211D01*
X123273638Y-69380050D01*
X123288223Y-69358223D01*
X123310050Y-69343638D01*
X123324211Y-69329478D01*
X123344944Y-69320323D01*
X123369329Y-69304030D01*
X123392105Y-69299499D01*
X123409620Y-69291766D01*
X123460884Y-69285818D01*
X123465000Y-69285000D01*
X124215000Y-69285000D01*
X124219116Y-69285818D01*
G37*
G36*
X127019116Y-69285818D02*
G01*
X127070379Y-69291766D01*
X127087892Y-69299499D01*
X127110671Y-69304030D01*
X127135057Y-69320324D01*
X127155788Y-69329478D01*
X127169946Y-69343636D01*
X127191777Y-69358223D01*
X127206363Y-69380053D01*
X127220521Y-69394211D01*
X127229673Y-69414939D01*
X127245970Y-69439329D01*
X127250501Y-69462109D01*
X127258233Y-69479620D01*
X127264178Y-69530872D01*
X127265000Y-69535000D01*
X127265000Y-71685000D01*
X127264178Y-71689128D01*
X127258233Y-71740379D01*
X127250501Y-71757888D01*
X127245970Y-71780671D01*
X127229672Y-71805062D01*
X127220521Y-71825788D01*
X127206365Y-71839943D01*
X127191777Y-71861777D01*
X127169943Y-71876365D01*
X127155788Y-71890521D01*
X127135062Y-71899672D01*
X127110671Y-71915970D01*
X127087888Y-71920501D01*
X127070379Y-71928233D01*
X127019129Y-71934178D01*
X127015000Y-71935000D01*
X126265000Y-71935000D01*
X126260873Y-71934179D01*
X126209620Y-71928233D01*
X126192109Y-71920501D01*
X126169329Y-71915970D01*
X126144939Y-71899673D01*
X126124211Y-71890521D01*
X126110053Y-71876363D01*
X126088223Y-71861777D01*
X126073636Y-71839946D01*
X126059478Y-71825788D01*
X126050324Y-71805057D01*
X126034030Y-71780671D01*
X126029499Y-71757892D01*
X126021766Y-71740379D01*
X126015818Y-71689117D01*
X126015000Y-71685000D01*
X126015000Y-69535000D01*
X126015818Y-69530885D01*
X126021766Y-69479620D01*
X126029499Y-69462105D01*
X126034030Y-69439329D01*
X126050323Y-69414944D01*
X126059478Y-69394211D01*
X126073638Y-69380050D01*
X126088223Y-69358223D01*
X126110050Y-69343638D01*
X126124211Y-69329478D01*
X126144944Y-69320323D01*
X126169329Y-69304030D01*
X126192105Y-69299499D01*
X126209620Y-69291766D01*
X126260884Y-69285818D01*
X126265000Y-69285000D01*
X127015000Y-69285000D01*
X127019116Y-69285818D01*
G37*
G36*
X127643576Y-67950657D02*
G01*
X127688995Y-67981005D01*
X127719343Y-68026424D01*
X127730000Y-68080000D01*
X127730000Y-68420000D01*
X127719343Y-68473576D01*
X127688995Y-68518995D01*
X127643576Y-68549343D01*
X127590000Y-68560000D01*
X127310000Y-68560000D01*
X127256424Y-68549343D01*
X127211005Y-68518995D01*
X127180657Y-68473576D01*
X127170000Y-68420000D01*
X127170000Y-68080000D01*
X127180657Y-68026424D01*
X127211005Y-67981005D01*
X127256424Y-67950657D01*
X127310000Y-67940000D01*
X127590000Y-67940000D01*
X127643576Y-67950657D01*
G37*
G36*
X128603576Y-67950657D02*
G01*
X128648995Y-67981005D01*
X128679343Y-68026424D01*
X128690000Y-68080000D01*
X128690000Y-68420000D01*
X128679343Y-68473576D01*
X128648995Y-68518995D01*
X128603576Y-68549343D01*
X128550000Y-68560000D01*
X128270000Y-68560000D01*
X128216424Y-68549343D01*
X128171005Y-68518995D01*
X128140657Y-68473576D01*
X128130000Y-68420000D01*
X128130000Y-68080000D01*
X128140657Y-68026424D01*
X128171005Y-67981005D01*
X128216424Y-67950657D01*
X128270000Y-67940000D01*
X128550000Y-67940000D01*
X128603576Y-67950657D01*
G37*
G36*
X80526664Y-66806402D02*
G01*
X80689000Y-66878678D01*
X80832761Y-66983127D01*
X80951664Y-67115183D01*
X81040514Y-67269074D01*
X81095425Y-67438075D01*
X81114000Y-67614800D01*
X81095425Y-67791525D01*
X81040514Y-67960526D01*
X80951664Y-68114417D01*
X80832761Y-68246473D01*
X80689000Y-68350922D01*
X80526664Y-68423198D01*
X80352849Y-68460144D01*
X80175151Y-68460144D01*
X80001336Y-68423198D01*
X79839000Y-68350922D01*
X79695239Y-68246473D01*
X79576336Y-68114417D01*
X79487486Y-67960526D01*
X79432575Y-67791525D01*
X79414000Y-67614800D01*
X79432575Y-67438075D01*
X79487486Y-67269074D01*
X79576336Y-67115183D01*
X79695239Y-66983127D01*
X79839000Y-66878678D01*
X80001336Y-66806402D01*
X80175151Y-66769456D01*
X80352849Y-66769456D01*
X80526664Y-66806402D01*
G37*
G36*
X149123576Y-67180657D02*
G01*
X149168995Y-67211005D01*
X149199343Y-67256424D01*
X149210000Y-67310000D01*
X149210000Y-67590000D01*
X149199343Y-67643576D01*
X149168995Y-67688995D01*
X149123576Y-67719343D01*
X149070000Y-67730000D01*
X148730000Y-67730000D01*
X148676424Y-67719343D01*
X148631005Y-67688995D01*
X148600657Y-67643576D01*
X148590000Y-67590000D01*
X148590000Y-67310000D01*
X148600657Y-67256424D01*
X148631005Y-67211005D01*
X148676424Y-67180657D01*
X148730000Y-67170000D01*
X149070000Y-67170000D01*
X149123576Y-67180657D01*
G37*
G36*
X65207265Y-62580632D02*
G01*
X65285716Y-62580632D01*
X65357792Y-62589737D01*
X65432953Y-62594284D01*
X65519885Y-62610214D01*
X65603422Y-62620768D01*
X65668118Y-62637379D01*
X65735832Y-62649788D01*
X65826557Y-62678059D01*
X65913593Y-62700406D01*
X65970220Y-62722826D01*
X66029806Y-62741394D01*
X66122609Y-62783161D01*
X66211337Y-62818291D01*
X66259516Y-62844778D01*
X66310605Y-62867771D01*
X66403604Y-62923990D01*
X66491958Y-62972564D01*
X66531613Y-63001375D01*
X66574111Y-63027066D01*
X66665227Y-63098451D01*
X66751031Y-63160791D01*
X66782411Y-63190258D01*
X66816504Y-63216969D01*
X66903566Y-63304031D01*
X66984470Y-63380005D01*
X67008081Y-63408546D01*
X67034230Y-63434695D01*
X67114984Y-63537769D01*
X67188593Y-63626748D01*
X67205218Y-63652945D01*
X67224133Y-63677088D01*
X67296296Y-63796460D01*
X67360182Y-63897128D01*
X67370826Y-63919748D01*
X67383428Y-63940594D01*
X67444726Y-64076793D01*
X67496530Y-64186882D01*
X67502390Y-64204918D01*
X67509805Y-64221393D01*
X67558086Y-64376335D01*
X67595487Y-64491441D01*
X67597904Y-64504114D01*
X67601411Y-64515367D01*
X67634619Y-64696579D01*
X67655492Y-64806000D01*
X67655921Y-64812823D01*
X67656915Y-64818246D01*
X67673187Y-65087259D01*
X67675600Y-65125600D01*
X67673187Y-65163943D01*
X67656915Y-65432953D01*
X67655921Y-65438374D01*
X67655492Y-65445200D01*
X67634614Y-65554644D01*
X67601411Y-65735832D01*
X67597905Y-65747082D01*
X67595487Y-65759759D01*
X67558079Y-65874888D01*
X67509805Y-66029806D01*
X67502391Y-66046278D01*
X67496530Y-66064318D01*
X67444715Y-66174428D01*
X67383428Y-66310605D01*
X67370828Y-66331447D01*
X67360182Y-66354072D01*
X67296283Y-66454759D01*
X67224133Y-66574111D01*
X67205221Y-66598249D01*
X67188593Y-66624452D01*
X67114969Y-66713447D01*
X67034230Y-66816504D01*
X67008086Y-66842647D01*
X66984470Y-66871195D01*
X66903549Y-66947184D01*
X66816504Y-67034230D01*
X66782417Y-67060935D01*
X66751031Y-67090409D01*
X66665209Y-67152761D01*
X66574111Y-67224133D01*
X66531621Y-67249818D01*
X66491958Y-67278636D01*
X66403585Y-67327219D01*
X66310605Y-67383428D01*
X66259526Y-67406416D01*
X66211337Y-67432909D01*
X66122591Y-67468045D01*
X66029806Y-67509805D01*
X65970232Y-67528368D01*
X65913593Y-67550794D01*
X65826538Y-67573145D01*
X65735832Y-67601411D01*
X65668132Y-67613817D01*
X65603422Y-67630432D01*
X65519867Y-67640987D01*
X65432953Y-67656915D01*
X65357807Y-67661460D01*
X65285716Y-67670568D01*
X65207249Y-67670568D01*
X65125600Y-67675507D01*
X65043951Y-67670568D01*
X64965484Y-67670568D01*
X64893392Y-67661460D01*
X64818246Y-67656915D01*
X64731328Y-67640987D01*
X64647778Y-67630432D01*
X64583070Y-67613817D01*
X64515367Y-67601411D01*
X64424655Y-67573144D01*
X64337607Y-67550794D01*
X64280970Y-67528370D01*
X64221393Y-67509805D01*
X64128600Y-67468042D01*
X64039863Y-67432909D01*
X63991677Y-67406418D01*
X63940594Y-67383428D01*
X63847603Y-67327213D01*
X63759242Y-67278636D01*
X63719582Y-67249822D01*
X63677088Y-67224133D01*
X63585976Y-67152751D01*
X63500169Y-67090409D01*
X63468787Y-67060939D01*
X63434695Y-67034230D01*
X63347633Y-66947168D01*
X63266730Y-66871195D01*
X63243118Y-66842653D01*
X63216969Y-66816504D01*
X63136211Y-66713425D01*
X63062607Y-66624452D01*
X63045982Y-66598256D01*
X63027066Y-66574111D01*
X62954895Y-66454726D01*
X62891018Y-66354072D01*
X62880375Y-66331454D01*
X62867771Y-66310605D01*
X62806461Y-66174379D01*
X62754670Y-66064318D01*
X62748811Y-66046286D01*
X62741394Y-66029806D01*
X62693096Y-65874813D01*
X62655713Y-65759759D01*
X62653296Y-65747091D01*
X62649788Y-65735832D01*
X62616560Y-65554511D01*
X62595708Y-65445200D01*
X62595279Y-65438383D01*
X62594284Y-65432953D01*
X62577986Y-65163531D01*
X62575600Y-65125600D01*
X62577986Y-65087671D01*
X62594284Y-64818246D01*
X62595279Y-64812815D01*
X62595708Y-64806000D01*
X62616555Y-64696712D01*
X62649788Y-64515367D01*
X62653296Y-64504106D01*
X62655713Y-64491441D01*
X62693088Y-64376410D01*
X62741394Y-64221393D01*
X62748812Y-64204910D01*
X62754670Y-64186882D01*
X62806450Y-64076842D01*
X62867771Y-63940594D01*
X62880377Y-63919740D01*
X62891018Y-63897128D01*
X62954882Y-63796493D01*
X63027066Y-63677088D01*
X63045985Y-63652938D01*
X63062607Y-63626748D01*
X63136196Y-63537792D01*
X63216969Y-63434695D01*
X63243123Y-63408540D01*
X63266730Y-63380005D01*
X63347617Y-63304046D01*
X63434695Y-63216969D01*
X63468794Y-63190254D01*
X63500169Y-63160791D01*
X63585958Y-63098461D01*
X63677088Y-63027066D01*
X63719591Y-63001371D01*
X63759242Y-62972564D01*
X63847584Y-62923996D01*
X63940594Y-62867771D01*
X63991687Y-62844775D01*
X64039863Y-62818291D01*
X64128581Y-62783164D01*
X64221393Y-62741394D01*
X64280982Y-62722825D01*
X64337607Y-62700406D01*
X64424637Y-62678060D01*
X64515367Y-62649788D01*
X64583083Y-62637378D01*
X64647778Y-62620768D01*
X64731311Y-62610215D01*
X64818246Y-62594284D01*
X64893407Y-62589737D01*
X64965484Y-62580632D01*
X65043934Y-62580632D01*
X65125600Y-62575692D01*
X65207265Y-62580632D01*
G37*
G36*
X123257665Y-62575032D02*
G01*
X123336116Y-62575032D01*
X123408192Y-62584137D01*
X123483353Y-62588684D01*
X123570285Y-62604614D01*
X123653822Y-62615168D01*
X123718518Y-62631779D01*
X123786232Y-62644188D01*
X123876957Y-62672459D01*
X123963993Y-62694806D01*
X124020620Y-62717226D01*
X124080206Y-62735794D01*
X124173009Y-62777561D01*
X124261737Y-62812691D01*
X124309916Y-62839178D01*
X124361005Y-62862171D01*
X124454004Y-62918390D01*
X124542358Y-62966964D01*
X124582013Y-62995775D01*
X124624511Y-63021466D01*
X124715627Y-63092851D01*
X124801431Y-63155191D01*
X124832811Y-63184658D01*
X124866904Y-63211369D01*
X124953966Y-63298431D01*
X125034870Y-63374405D01*
X125058481Y-63402946D01*
X125084630Y-63429095D01*
X125165384Y-63532169D01*
X125238993Y-63621148D01*
X125255618Y-63647345D01*
X125274533Y-63671488D01*
X125346696Y-63790860D01*
X125410582Y-63891528D01*
X125421226Y-63914148D01*
X125433828Y-63934994D01*
X125495126Y-64071193D01*
X125546930Y-64181282D01*
X125552790Y-64199318D01*
X125560205Y-64215793D01*
X125608486Y-64370735D01*
X125645887Y-64485841D01*
X125648304Y-64498514D01*
X125651811Y-64509767D01*
X125685019Y-64690979D01*
X125705892Y-64800400D01*
X125706321Y-64807223D01*
X125707315Y-64812646D01*
X125723587Y-65081659D01*
X125726000Y-65120000D01*
X125723587Y-65158343D01*
X125707315Y-65427353D01*
X125706321Y-65432774D01*
X125705892Y-65439600D01*
X125685014Y-65549044D01*
X125651811Y-65730232D01*
X125648305Y-65741482D01*
X125645887Y-65754159D01*
X125608479Y-65869288D01*
X125560205Y-66024206D01*
X125552791Y-66040678D01*
X125546930Y-66058718D01*
X125495115Y-66168828D01*
X125433828Y-66305005D01*
X125421228Y-66325847D01*
X125410582Y-66348472D01*
X125346683Y-66449159D01*
X125274533Y-66568511D01*
X125255621Y-66592649D01*
X125238993Y-66618852D01*
X125165369Y-66707847D01*
X125084630Y-66810904D01*
X125058486Y-66837047D01*
X125034870Y-66865595D01*
X124953949Y-66941584D01*
X124866904Y-67028630D01*
X124832817Y-67055335D01*
X124801431Y-67084809D01*
X124715609Y-67147161D01*
X124624511Y-67218533D01*
X124582021Y-67244218D01*
X124542358Y-67273036D01*
X124453985Y-67321619D01*
X124361005Y-67377828D01*
X124309926Y-67400816D01*
X124261737Y-67427309D01*
X124172991Y-67462445D01*
X124080206Y-67504205D01*
X124020632Y-67522768D01*
X123963993Y-67545194D01*
X123876938Y-67567545D01*
X123786232Y-67595811D01*
X123718532Y-67608217D01*
X123653822Y-67624832D01*
X123570267Y-67635387D01*
X123483353Y-67651315D01*
X123408207Y-67655860D01*
X123336116Y-67664968D01*
X123257649Y-67664968D01*
X123176000Y-67669907D01*
X123094351Y-67664968D01*
X123015884Y-67664968D01*
X122943792Y-67655860D01*
X122868646Y-67651315D01*
X122781728Y-67635387D01*
X122698178Y-67624832D01*
X122633470Y-67608217D01*
X122565767Y-67595811D01*
X122475055Y-67567544D01*
X122388007Y-67545194D01*
X122331370Y-67522770D01*
X122271793Y-67504205D01*
X122179000Y-67462442D01*
X122090263Y-67427309D01*
X122042077Y-67400818D01*
X121990994Y-67377828D01*
X121898003Y-67321613D01*
X121809642Y-67273036D01*
X121769982Y-67244222D01*
X121727488Y-67218533D01*
X121636376Y-67147151D01*
X121550569Y-67084809D01*
X121519187Y-67055339D01*
X121485095Y-67028630D01*
X121398033Y-66941568D01*
X121317130Y-66865595D01*
X121293518Y-66837053D01*
X121267369Y-66810904D01*
X121186611Y-66707825D01*
X121113007Y-66618852D01*
X121096382Y-66592656D01*
X121077466Y-66568511D01*
X121005295Y-66449126D01*
X120941418Y-66348472D01*
X120930775Y-66325854D01*
X120918171Y-66305005D01*
X120856861Y-66168779D01*
X120805070Y-66058718D01*
X120799211Y-66040686D01*
X120791794Y-66024206D01*
X120743496Y-65869213D01*
X120706113Y-65754159D01*
X120703696Y-65741491D01*
X120700188Y-65730232D01*
X120666960Y-65548911D01*
X120646108Y-65439600D01*
X120645679Y-65432783D01*
X120644684Y-65427353D01*
X120628386Y-65157931D01*
X120626000Y-65120000D01*
X120628386Y-65082071D01*
X120644684Y-64812646D01*
X120645679Y-64807215D01*
X120646108Y-64800400D01*
X120666955Y-64691112D01*
X120700188Y-64509767D01*
X120703696Y-64498506D01*
X120706113Y-64485841D01*
X120743488Y-64370810D01*
X120791794Y-64215793D01*
X120799212Y-64199310D01*
X120805070Y-64181282D01*
X120856850Y-64071242D01*
X120918171Y-63934994D01*
X120930777Y-63914140D01*
X120941418Y-63891528D01*
X121005282Y-63790893D01*
X121077466Y-63671488D01*
X121096385Y-63647338D01*
X121113007Y-63621148D01*
X121186596Y-63532192D01*
X121267369Y-63429095D01*
X121293523Y-63402940D01*
X121317130Y-63374405D01*
X121398017Y-63298446D01*
X121485095Y-63211369D01*
X121519194Y-63184654D01*
X121550569Y-63155191D01*
X121636358Y-63092861D01*
X121727488Y-63021466D01*
X121769991Y-62995771D01*
X121809642Y-62966964D01*
X121897984Y-62918396D01*
X121990994Y-62862171D01*
X122042087Y-62839175D01*
X122090263Y-62812691D01*
X122178981Y-62777564D01*
X122271793Y-62735794D01*
X122331382Y-62717225D01*
X122388007Y-62694806D01*
X122475037Y-62672460D01*
X122565767Y-62644188D01*
X122633483Y-62631778D01*
X122698178Y-62615168D01*
X122781711Y-62604615D01*
X122868646Y-62588684D01*
X122943807Y-62584137D01*
X123015884Y-62575032D01*
X123094334Y-62575032D01*
X123176000Y-62570092D01*
X123257665Y-62575032D01*
G37*
G36*
X127633576Y-66750657D02*
G01*
X127678995Y-66781005D01*
X127709343Y-66826424D01*
X127720000Y-66880000D01*
X127720000Y-67220000D01*
X127709343Y-67273576D01*
X127678995Y-67318995D01*
X127633576Y-67349343D01*
X127580000Y-67360000D01*
X127300000Y-67360000D01*
X127246424Y-67349343D01*
X127201005Y-67318995D01*
X127170657Y-67273576D01*
X127160000Y-67220000D01*
X127160000Y-66880000D01*
X127170657Y-66826424D01*
X127201005Y-66781005D01*
X127246424Y-66750657D01*
X127300000Y-66740000D01*
X127580000Y-66740000D01*
X127633576Y-66750657D01*
G37*
G36*
X128593576Y-66750657D02*
G01*
X128638995Y-66781005D01*
X128669343Y-66826424D01*
X128680000Y-66880000D01*
X128680000Y-67220000D01*
X128669343Y-67273576D01*
X128638995Y-67318995D01*
X128593576Y-67349343D01*
X128540000Y-67360000D01*
X128260000Y-67360000D01*
X128206424Y-67349343D01*
X128161005Y-67318995D01*
X128130657Y-67273576D01*
X128120000Y-67220000D01*
X128120000Y-66880000D01*
X128130657Y-66826424D01*
X128161005Y-66781005D01*
X128206424Y-66750657D01*
X128260000Y-66740000D01*
X128540000Y-66740000D01*
X128593576Y-66750657D01*
G37*
G36*
X149123576Y-66220657D02*
G01*
X149168995Y-66251005D01*
X149199343Y-66296424D01*
X149210000Y-66350000D01*
X149210000Y-66630000D01*
X149199343Y-66683576D01*
X149168995Y-66728995D01*
X149123576Y-66759343D01*
X149070000Y-66770000D01*
X148730000Y-66770000D01*
X148676424Y-66759343D01*
X148631005Y-66728995D01*
X148600657Y-66683576D01*
X148590000Y-66630000D01*
X148590000Y-66350000D01*
X148600657Y-66296424D01*
X148631005Y-66251005D01*
X148676424Y-66220657D01*
X148730000Y-66210000D01*
X149070000Y-66210000D01*
X149123576Y-66220657D01*
G37*
G36*
X81114000Y-65924800D02*
G01*
X79414000Y-65924800D01*
X79414000Y-64224800D01*
X81114000Y-64224800D01*
X81114000Y-65924800D01*
G37*
G36*
X90430600Y-65887600D02*
G01*
X88906600Y-65887600D01*
X88906600Y-63042800D01*
X90430600Y-63042800D01*
X90430600Y-65887600D01*
G37*
G36*
X102430600Y-65887600D02*
G01*
X100906600Y-65887600D01*
X100906600Y-63042800D01*
X102430600Y-63042800D01*
X102430600Y-65887600D01*
G37*
G36*
X108430600Y-65887600D02*
G01*
X106906600Y-65887600D01*
X106906600Y-63042800D01*
X108430600Y-63042800D01*
X108430600Y-65887600D01*
G37*
G36*
X116430600Y-65887600D02*
G01*
X114906600Y-65887600D01*
X114906600Y-63042800D01*
X116430600Y-63042800D01*
X116430600Y-65887600D01*
G37*
G36*
X135096000Y-64370000D02*
G01*
X133896000Y-64370000D01*
X133896000Y-62570000D01*
X135096000Y-62570000D01*
X135096000Y-64370000D01*
G37*
G36*
X137636000Y-64370000D02*
G01*
X136436000Y-64370000D01*
X136436000Y-62570000D01*
X137636000Y-62570000D01*
X137636000Y-64370000D01*
G37*
G36*
X142716000Y-64370000D02*
G01*
X141516000Y-64370000D01*
X141516000Y-62570000D01*
X142716000Y-62570000D01*
X142716000Y-64370000D01*
G37*
G36*
X145256000Y-64370000D02*
G01*
X144056000Y-64370000D01*
X144056000Y-62570000D01*
X145256000Y-62570000D01*
X145256000Y-64370000D01*
G37*
M02*
