%TF.GenerationSoftware,KiCad,Pcbnew,7.0.10*%
%TF.CreationDate,2024-04-07T04:02:17-04:00*%
%TF.ProjectId,mainbox_peripheral_steering_wheel,6d61696e-626f-4785-9f70-657269706865,rev?*%
%TF.SameCoordinates,Original*%
%TF.FileFunction,Legend,Top*%
%TF.FilePolarity,Positive*%
%FSLAX46Y46*%
G04 Gerber Fmt 4.6, Leading zero omitted, Abs format (unit mm)*
G04 Created by KiCad (PCBNEW 7.0.10) date 2024-04-07 04:02:17*
%MOMM*%
%LPD*%
G01*
G04 APERTURE LIST*
%ADD10C,0.150000*%
%ADD11C,0.100000*%
%ADD12C,0.152400*%
G04 APERTURE END LIST*
D10*
X124582628Y-106879816D02*
X124630247Y-106832197D01*
X124630247Y-106832197D02*
X124725485Y-106784578D01*
X124725485Y-106784578D02*
X124963580Y-106784578D01*
X124963580Y-106784578D02*
X125058818Y-106832197D01*
X125058818Y-106832197D02*
X125106437Y-106879816D01*
X125106437Y-106879816D02*
X125154056Y-106975054D01*
X125154056Y-106975054D02*
X125154056Y-107070292D01*
X125154056Y-107070292D02*
X125106437Y-107213149D01*
X125106437Y-107213149D02*
X124535009Y-107784578D01*
X124535009Y-107784578D02*
X125154056Y-107784578D01*
X125773104Y-106784578D02*
X125868342Y-106784578D01*
X125868342Y-106784578D02*
X125963580Y-106832197D01*
X125963580Y-106832197D02*
X126011199Y-106879816D01*
X126011199Y-106879816D02*
X126058818Y-106975054D01*
X126058818Y-106975054D02*
X126106437Y-107165530D01*
X126106437Y-107165530D02*
X126106437Y-107403625D01*
X126106437Y-107403625D02*
X126058818Y-107594101D01*
X126058818Y-107594101D02*
X126011199Y-107689339D01*
X126011199Y-107689339D02*
X125963580Y-107736959D01*
X125963580Y-107736959D02*
X125868342Y-107784578D01*
X125868342Y-107784578D02*
X125773104Y-107784578D01*
X125773104Y-107784578D02*
X125677866Y-107736959D01*
X125677866Y-107736959D02*
X125630247Y-107689339D01*
X125630247Y-107689339D02*
X125582628Y-107594101D01*
X125582628Y-107594101D02*
X125535009Y-107403625D01*
X125535009Y-107403625D02*
X125535009Y-107165530D01*
X125535009Y-107165530D02*
X125582628Y-106975054D01*
X125582628Y-106975054D02*
X125630247Y-106879816D01*
X125630247Y-106879816D02*
X125677866Y-106832197D01*
X125677866Y-106832197D02*
X125773104Y-106784578D01*
X126439771Y-107784578D02*
X126963580Y-107117911D01*
X126439771Y-107117911D02*
X126963580Y-107784578D01*
X127201676Y-107117911D02*
X127582628Y-107117911D01*
X127344533Y-106784578D02*
X127344533Y-107641720D01*
X127344533Y-107641720D02*
X127392152Y-107736959D01*
X127392152Y-107736959D02*
X127487390Y-107784578D01*
X127487390Y-107784578D02*
X127582628Y-107784578D01*
X124582628Y-109346959D02*
X124677866Y-109394578D01*
X124677866Y-109394578D02*
X124868342Y-109394578D01*
X124868342Y-109394578D02*
X124963580Y-109346959D01*
X124963580Y-109346959D02*
X125011199Y-109251720D01*
X125011199Y-109251720D02*
X125011199Y-109204101D01*
X125011199Y-109204101D02*
X124963580Y-109108863D01*
X124963580Y-109108863D02*
X124868342Y-109061244D01*
X124868342Y-109061244D02*
X124725485Y-109061244D01*
X124725485Y-109061244D02*
X124630247Y-109013625D01*
X124630247Y-109013625D02*
X124582628Y-108918387D01*
X124582628Y-108918387D02*
X124582628Y-108870768D01*
X124582628Y-108870768D02*
X124630247Y-108775530D01*
X124630247Y-108775530D02*
X124725485Y-108727911D01*
X124725485Y-108727911D02*
X124868342Y-108727911D01*
X124868342Y-108727911D02*
X124963580Y-108775530D01*
X125296914Y-108727911D02*
X125677866Y-108727911D01*
X125439771Y-108394578D02*
X125439771Y-109251720D01*
X125439771Y-109251720D02*
X125487390Y-109346959D01*
X125487390Y-109346959D02*
X125582628Y-109394578D01*
X125582628Y-109394578D02*
X125677866Y-109394578D01*
X126392152Y-109346959D02*
X126296914Y-109394578D01*
X126296914Y-109394578D02*
X126106438Y-109394578D01*
X126106438Y-109394578D02*
X126011200Y-109346959D01*
X126011200Y-109346959D02*
X125963581Y-109251720D01*
X125963581Y-109251720D02*
X125963581Y-108870768D01*
X125963581Y-108870768D02*
X126011200Y-108775530D01*
X126011200Y-108775530D02*
X126106438Y-108727911D01*
X126106438Y-108727911D02*
X126296914Y-108727911D01*
X126296914Y-108727911D02*
X126392152Y-108775530D01*
X126392152Y-108775530D02*
X126439771Y-108870768D01*
X126439771Y-108870768D02*
X126439771Y-108966006D01*
X126439771Y-108966006D02*
X125963581Y-109061244D01*
X127249295Y-109346959D02*
X127154057Y-109394578D01*
X127154057Y-109394578D02*
X126963581Y-109394578D01*
X126963581Y-109394578D02*
X126868343Y-109346959D01*
X126868343Y-109346959D02*
X126820724Y-109251720D01*
X126820724Y-109251720D02*
X126820724Y-108870768D01*
X126820724Y-108870768D02*
X126868343Y-108775530D01*
X126868343Y-108775530D02*
X126963581Y-108727911D01*
X126963581Y-108727911D02*
X127154057Y-108727911D01*
X127154057Y-108727911D02*
X127249295Y-108775530D01*
X127249295Y-108775530D02*
X127296914Y-108870768D01*
X127296914Y-108870768D02*
X127296914Y-108966006D01*
X127296914Y-108966006D02*
X126820724Y-109061244D01*
X127725486Y-109394578D02*
X127725486Y-108727911D01*
X127725486Y-108918387D02*
X127773105Y-108823149D01*
X127773105Y-108823149D02*
X127820724Y-108775530D01*
X127820724Y-108775530D02*
X127915962Y-108727911D01*
X127915962Y-108727911D02*
X128011200Y-108727911D01*
X128344534Y-109394578D02*
X128344534Y-108727911D01*
X128344534Y-108394578D02*
X128296915Y-108442197D01*
X128296915Y-108442197D02*
X128344534Y-108489816D01*
X128344534Y-108489816D02*
X128392153Y-108442197D01*
X128392153Y-108442197D02*
X128344534Y-108394578D01*
X128344534Y-108394578D02*
X128344534Y-108489816D01*
X128820724Y-108727911D02*
X128820724Y-109394578D01*
X128820724Y-108823149D02*
X128868343Y-108775530D01*
X128868343Y-108775530D02*
X128963581Y-108727911D01*
X128963581Y-108727911D02*
X129106438Y-108727911D01*
X129106438Y-108727911D02*
X129201676Y-108775530D01*
X129201676Y-108775530D02*
X129249295Y-108870768D01*
X129249295Y-108870768D02*
X129249295Y-109394578D01*
X130154057Y-108727911D02*
X130154057Y-109537435D01*
X130154057Y-109537435D02*
X130106438Y-109632673D01*
X130106438Y-109632673D02*
X130058819Y-109680292D01*
X130058819Y-109680292D02*
X129963581Y-109727911D01*
X129963581Y-109727911D02*
X129820724Y-109727911D01*
X129820724Y-109727911D02*
X129725486Y-109680292D01*
X130154057Y-109346959D02*
X130058819Y-109394578D01*
X130058819Y-109394578D02*
X129868343Y-109394578D01*
X129868343Y-109394578D02*
X129773105Y-109346959D01*
X129773105Y-109346959D02*
X129725486Y-109299339D01*
X129725486Y-109299339D02*
X129677867Y-109204101D01*
X129677867Y-109204101D02*
X129677867Y-108918387D01*
X129677867Y-108918387D02*
X129725486Y-108823149D01*
X129725486Y-108823149D02*
X129773105Y-108775530D01*
X129773105Y-108775530D02*
X129868343Y-108727911D01*
X129868343Y-108727911D02*
X130058819Y-108727911D01*
X130058819Y-108727911D02*
X130154057Y-108775530D01*
X131296915Y-108727911D02*
X131487391Y-109394578D01*
X131487391Y-109394578D02*
X131677867Y-108918387D01*
X131677867Y-108918387D02*
X131868343Y-109394578D01*
X131868343Y-109394578D02*
X132058819Y-108727911D01*
X132439772Y-109394578D02*
X132439772Y-108394578D01*
X132868343Y-109394578D02*
X132868343Y-108870768D01*
X132868343Y-108870768D02*
X132820724Y-108775530D01*
X132820724Y-108775530D02*
X132725486Y-108727911D01*
X132725486Y-108727911D02*
X132582629Y-108727911D01*
X132582629Y-108727911D02*
X132487391Y-108775530D01*
X132487391Y-108775530D02*
X132439772Y-108823149D01*
X133725486Y-109346959D02*
X133630248Y-109394578D01*
X133630248Y-109394578D02*
X133439772Y-109394578D01*
X133439772Y-109394578D02*
X133344534Y-109346959D01*
X133344534Y-109346959D02*
X133296915Y-109251720D01*
X133296915Y-109251720D02*
X133296915Y-108870768D01*
X133296915Y-108870768D02*
X133344534Y-108775530D01*
X133344534Y-108775530D02*
X133439772Y-108727911D01*
X133439772Y-108727911D02*
X133630248Y-108727911D01*
X133630248Y-108727911D02*
X133725486Y-108775530D01*
X133725486Y-108775530D02*
X133773105Y-108870768D01*
X133773105Y-108870768D02*
X133773105Y-108966006D01*
X133773105Y-108966006D02*
X133296915Y-109061244D01*
X134582629Y-109346959D02*
X134487391Y-109394578D01*
X134487391Y-109394578D02*
X134296915Y-109394578D01*
X134296915Y-109394578D02*
X134201677Y-109346959D01*
X134201677Y-109346959D02*
X134154058Y-109251720D01*
X134154058Y-109251720D02*
X134154058Y-108870768D01*
X134154058Y-108870768D02*
X134201677Y-108775530D01*
X134201677Y-108775530D02*
X134296915Y-108727911D01*
X134296915Y-108727911D02*
X134487391Y-108727911D01*
X134487391Y-108727911D02*
X134582629Y-108775530D01*
X134582629Y-108775530D02*
X134630248Y-108870768D01*
X134630248Y-108870768D02*
X134630248Y-108966006D01*
X134630248Y-108966006D02*
X134154058Y-109061244D01*
X135201677Y-109394578D02*
X135106439Y-109346959D01*
X135106439Y-109346959D02*
X135058820Y-109251720D01*
X135058820Y-109251720D02*
X135058820Y-108394578D01*
X136061836Y-98640192D02*
X136566912Y-99145268D01*
X136566912Y-99145268D02*
X136634256Y-99279955D01*
X136634256Y-99279955D02*
X136634256Y-99414642D01*
X136634256Y-99414642D02*
X136566912Y-99549329D01*
X136566912Y-99549329D02*
X136499569Y-99616673D01*
X136331210Y-98370818D02*
X136768943Y-97933085D01*
X136768943Y-97933085D02*
X136802615Y-98438161D01*
X136802615Y-98438161D02*
X136903630Y-98337146D01*
X136903630Y-98337146D02*
X137004645Y-98303474D01*
X137004645Y-98303474D02*
X137071989Y-98303474D01*
X137071989Y-98303474D02*
X137173004Y-98337146D01*
X137173004Y-98337146D02*
X137341363Y-98505505D01*
X137341363Y-98505505D02*
X137375034Y-98606520D01*
X137375034Y-98606520D02*
X137375034Y-98673863D01*
X137375034Y-98673863D02*
X137341363Y-98774879D01*
X137341363Y-98774879D02*
X137139332Y-98976909D01*
X137139332Y-98976909D02*
X137038317Y-99010581D01*
X137038317Y-99010581D02*
X136970973Y-99010581D01*
D11*
X125214166Y-92649919D02*
X125214166Y-93364204D01*
X125214166Y-93364204D02*
X125166547Y-93507061D01*
X125166547Y-93507061D02*
X125071309Y-93602300D01*
X125071309Y-93602300D02*
X124928452Y-93649919D01*
X124928452Y-93649919D02*
X124833214Y-93649919D01*
X126214166Y-93649919D02*
X125642738Y-93649919D01*
X125928452Y-93649919D02*
X125928452Y-92649919D01*
X125928452Y-92649919D02*
X125833214Y-92792776D01*
X125833214Y-92792776D02*
X125737976Y-92888014D01*
X125737976Y-92888014D02*
X125642738Y-92935633D01*
D12*
%TO.C,J3*%
X147109740Y-98789991D02*
G75*
G03*
X126256340Y-98789991I-10426700J0D01*
G01*
X126256340Y-98789991D02*
G75*
G03*
X147109740Y-98789991I10426700J0D01*
G01*
%TD*%
M02*
