%TF.GenerationSoftware,KiCad,Pcbnew,7.0.6*%
%TF.CreationDate,2024-04-06T15:36:31-04:00*%
%TF.ProjectId,peripheral_io_left_eth,70657269-7068-4657-9261-6c5f696f5f6c,rev?*%
%TF.SameCoordinates,Original*%
%TF.FileFunction,Legend,Top*%
%TF.FilePolarity,Positive*%
%FSLAX46Y46*%
G04 Gerber Fmt 4.6, Leading zero omitted, Abs format (unit mm)*
G04 Created by KiCad (PCBNEW 7.0.6) date 2024-04-06 15:36:31*
%MOMM*%
%LPD*%
G01*
G04 APERTURE LIST*
%ADD10C,0.150000*%
%ADD11C,0.152400*%
G04 APERTURE END LIST*
D10*
X169834160Y-83334057D02*
X169881779Y-83286438D01*
X169881779Y-83286438D02*
X169977017Y-83238819D01*
X169977017Y-83238819D02*
X170215112Y-83238819D01*
X170215112Y-83238819D02*
X170310350Y-83286438D01*
X170310350Y-83286438D02*
X170357969Y-83334057D01*
X170357969Y-83334057D02*
X170405588Y-83429295D01*
X170405588Y-83429295D02*
X170405588Y-83524533D01*
X170405588Y-83524533D02*
X170357969Y-83667390D01*
X170357969Y-83667390D02*
X169786541Y-84238819D01*
X169786541Y-84238819D02*
X170405588Y-84238819D01*
X171024636Y-83238819D02*
X171119874Y-83238819D01*
X171119874Y-83238819D02*
X171215112Y-83286438D01*
X171215112Y-83286438D02*
X171262731Y-83334057D01*
X171262731Y-83334057D02*
X171310350Y-83429295D01*
X171310350Y-83429295D02*
X171357969Y-83619771D01*
X171357969Y-83619771D02*
X171357969Y-83857866D01*
X171357969Y-83857866D02*
X171310350Y-84048342D01*
X171310350Y-84048342D02*
X171262731Y-84143580D01*
X171262731Y-84143580D02*
X171215112Y-84191200D01*
X171215112Y-84191200D02*
X171119874Y-84238819D01*
X171119874Y-84238819D02*
X171024636Y-84238819D01*
X171024636Y-84238819D02*
X170929398Y-84191200D01*
X170929398Y-84191200D02*
X170881779Y-84143580D01*
X170881779Y-84143580D02*
X170834160Y-84048342D01*
X170834160Y-84048342D02*
X170786541Y-83857866D01*
X170786541Y-83857866D02*
X170786541Y-83619771D01*
X170786541Y-83619771D02*
X170834160Y-83429295D01*
X170834160Y-83429295D02*
X170881779Y-83334057D01*
X170881779Y-83334057D02*
X170929398Y-83286438D01*
X170929398Y-83286438D02*
X171024636Y-83238819D01*
X171691303Y-84238819D02*
X172215112Y-83572152D01*
X171691303Y-83572152D02*
X172215112Y-84238819D01*
X172453208Y-83572152D02*
X172834160Y-83572152D01*
X172596065Y-83238819D02*
X172596065Y-84095961D01*
X172596065Y-84095961D02*
X172643684Y-84191200D01*
X172643684Y-84191200D02*
X172738922Y-84238819D01*
X172738922Y-84238819D02*
X172834160Y-84238819D01*
X170024636Y-85848819D02*
X169929398Y-85801200D01*
X169929398Y-85801200D02*
X169881779Y-85705961D01*
X169881779Y-85705961D02*
X169881779Y-84848819D01*
X170786541Y-85801200D02*
X170691303Y-85848819D01*
X170691303Y-85848819D02*
X170500827Y-85848819D01*
X170500827Y-85848819D02*
X170405589Y-85801200D01*
X170405589Y-85801200D02*
X170357970Y-85705961D01*
X170357970Y-85705961D02*
X170357970Y-85325009D01*
X170357970Y-85325009D02*
X170405589Y-85229771D01*
X170405589Y-85229771D02*
X170500827Y-85182152D01*
X170500827Y-85182152D02*
X170691303Y-85182152D01*
X170691303Y-85182152D02*
X170786541Y-85229771D01*
X170786541Y-85229771D02*
X170834160Y-85325009D01*
X170834160Y-85325009D02*
X170834160Y-85420247D01*
X170834160Y-85420247D02*
X170357970Y-85515485D01*
X171119875Y-85182152D02*
X171500827Y-85182152D01*
X171262732Y-85848819D02*
X171262732Y-84991676D01*
X171262732Y-84991676D02*
X171310351Y-84896438D01*
X171310351Y-84896438D02*
X171405589Y-84848819D01*
X171405589Y-84848819D02*
X171500827Y-84848819D01*
X171691304Y-85182152D02*
X172072256Y-85182152D01*
X171834161Y-84848819D02*
X171834161Y-85705961D01*
X171834161Y-85705961D02*
X171881780Y-85801200D01*
X171881780Y-85801200D02*
X171977018Y-85848819D01*
X171977018Y-85848819D02*
X172072256Y-85848819D01*
X173548447Y-85801200D02*
X173453209Y-85848819D01*
X173453209Y-85848819D02*
X173262733Y-85848819D01*
X173262733Y-85848819D02*
X173167495Y-85801200D01*
X173167495Y-85801200D02*
X173119876Y-85705961D01*
X173119876Y-85705961D02*
X173119876Y-85325009D01*
X173119876Y-85325009D02*
X173167495Y-85229771D01*
X173167495Y-85229771D02*
X173262733Y-85182152D01*
X173262733Y-85182152D02*
X173453209Y-85182152D01*
X173453209Y-85182152D02*
X173548447Y-85229771D01*
X173548447Y-85229771D02*
X173596066Y-85325009D01*
X173596066Y-85325009D02*
X173596066Y-85420247D01*
X173596066Y-85420247D02*
X173119876Y-85515485D01*
X173881781Y-85182152D02*
X174262733Y-85182152D01*
X174024638Y-84848819D02*
X174024638Y-85705961D01*
X174024638Y-85705961D02*
X174072257Y-85801200D01*
X174072257Y-85801200D02*
X174167495Y-85848819D01*
X174167495Y-85848819D02*
X174262733Y-85848819D01*
X174596067Y-85848819D02*
X174596067Y-84848819D01*
X175024638Y-85848819D02*
X175024638Y-85325009D01*
X175024638Y-85325009D02*
X174977019Y-85229771D01*
X174977019Y-85229771D02*
X174881781Y-85182152D01*
X174881781Y-85182152D02*
X174738924Y-85182152D01*
X174738924Y-85182152D02*
X174643686Y-85229771D01*
X174643686Y-85229771D02*
X174596067Y-85277390D01*
X183406161Y-75498639D02*
X183911237Y-74993563D01*
X183911237Y-74993563D02*
X184045924Y-74926219D01*
X184045924Y-74926219D02*
X184180611Y-74926219D01*
X184180611Y-74926219D02*
X184315298Y-74993563D01*
X184315298Y-74993563D02*
X184382642Y-75060906D01*
X183406161Y-74084425D02*
X183810222Y-74488486D01*
X183608191Y-74286456D02*
X182901084Y-74993563D01*
X182901084Y-74993563D02*
X183069443Y-74959891D01*
X183069443Y-74959891D02*
X183204130Y-74959891D01*
X183204130Y-74959891D02*
X183305145Y-74993563D01*
D11*
%TO.C,J1*%
X193982660Y-74877436D02*
G75*
G03*
X193982660Y-74877436I-10426700J0D01*
G01*
%TD*%
M02*
