%TF.GenerationSoftware,KiCad,Pcbnew,8.0.4*%
%TF.CreationDate,2025-03-23T22:29:44-04:00*%
%TF.ProjectId,wsg3.0,77736733-2e30-42e6-9b69-6361645f7063,rev?*%
%TF.SameCoordinates,Original*%
%TF.FileFunction,Drillmap*%
%TF.FilePolarity,Positive*%
%FSLAX45Y45*%
G04 Gerber Fmt 4.5, Leading zero omitted, Abs format (unit mm)*
G04 Created by KiCad (PCBNEW 8.0.4) date 2025-03-23 22:29:44*
%MOMM*%
%LPD*%
G01*
G04 APERTURE LIST*
%ADD10C,0.010000*%
%ADD11C,0.200000*%
%ADD12C,0.120000*%
%ADD13C,0.216000*%
G04 APERTURE END LIST*
D10*
X5283200Y0D02*
G75*
G02*
X5537200Y-254000I0J-254000D01*
G01*
X1964055Y-215913D02*
G75*
G02*
X1737995Y-215913I-113030J0D01*
G01*
X1737995Y-215913D02*
G75*
G02*
X1964055Y-215913I113030J0D01*
G01*
X254000Y-2860675D02*
X5283200Y-2860675D01*
X5537200Y-2606675D02*
G75*
G02*
X5283200Y-2860675I-254000J0D01*
G01*
X1036155Y-2644788D02*
G75*
G02*
X810095Y-2644788I-113030J0D01*
G01*
X810095Y-2644788D02*
G75*
G02*
X1036155Y-2644788I113030J0D01*
G01*
X5283200Y0D02*
X254000Y0D01*
X5537200Y-2606675D02*
X5537200Y-254000D01*
X0Y-254000D02*
G75*
G02*
X254000Y0I254000J0D01*
G01*
X254000Y-2860675D02*
G75*
G02*
X0Y-2606675I0J254000D01*
G01*
X0Y-254000D02*
X0Y-2606675D01*
D11*
D12*
X184000Y-387000D02*
X304000Y-507000D01*
X304000Y-387000D02*
X184000Y-507000D01*
X784000Y-387000D02*
X904000Y-507000D01*
X904000Y-387000D02*
X784000Y-507000D01*
D13*
X5215300Y-389400D02*
G75*
G02*
X4999300Y-389400I-108000J0D01*
G01*
X4999300Y-389400D02*
G75*
G02*
X5215300Y-389400I108000J0D01*
G01*
X5215300Y-2472400D02*
G75*
G02*
X4999300Y-2472400I-108000J0D01*
G01*
X4999300Y-2472400D02*
G75*
G02*
X5215300Y-2472400I108000J0D01*
G01*
D11*
X260277Y-3172659D02*
X260277Y-2972659D01*
X260277Y-2972659D02*
X307896Y-2972659D01*
X307896Y-2972659D02*
X336467Y-2982183D01*
X336467Y-2982183D02*
X355515Y-3001230D01*
X355515Y-3001230D02*
X365039Y-3020278D01*
X365039Y-3020278D02*
X374562Y-3058373D01*
X374562Y-3058373D02*
X374562Y-3086944D01*
X374562Y-3086944D02*
X365039Y-3125040D01*
X365039Y-3125040D02*
X355515Y-3144087D01*
X355515Y-3144087D02*
X336467Y-3163135D01*
X336467Y-3163135D02*
X307896Y-3172659D01*
X307896Y-3172659D02*
X260277Y-3172659D01*
X460277Y-3172659D02*
X460277Y-3039325D01*
X460277Y-3077421D02*
X469801Y-3058373D01*
X469801Y-3058373D02*
X479324Y-3048849D01*
X479324Y-3048849D02*
X498372Y-3039325D01*
X498372Y-3039325D02*
X517420Y-3039325D01*
X584086Y-3172659D02*
X584086Y-3039325D01*
X584086Y-2972659D02*
X574563Y-2982183D01*
X574563Y-2982183D02*
X584086Y-2991706D01*
X584086Y-2991706D02*
X593610Y-2982183D01*
X593610Y-2982183D02*
X584086Y-2972659D01*
X584086Y-2972659D02*
X584086Y-2991706D01*
X707896Y-3172659D02*
X688848Y-3163135D01*
X688848Y-3163135D02*
X679324Y-3144087D01*
X679324Y-3144087D02*
X679324Y-2972659D01*
X812658Y-3172659D02*
X793610Y-3163135D01*
X793610Y-3163135D02*
X784086Y-3144087D01*
X784086Y-3144087D02*
X784086Y-2972659D01*
X1041229Y-3172659D02*
X1041229Y-2972659D01*
X1041229Y-2972659D02*
X1107896Y-3115516D01*
X1107896Y-3115516D02*
X1174563Y-2972659D01*
X1174563Y-2972659D02*
X1174563Y-3172659D01*
X1355515Y-3172659D02*
X1355515Y-3067897D01*
X1355515Y-3067897D02*
X1345991Y-3048849D01*
X1345991Y-3048849D02*
X1326944Y-3039325D01*
X1326944Y-3039325D02*
X1288848Y-3039325D01*
X1288848Y-3039325D02*
X1269801Y-3048849D01*
X1355515Y-3163135D02*
X1336467Y-3172659D01*
X1336467Y-3172659D02*
X1288848Y-3172659D01*
X1288848Y-3172659D02*
X1269801Y-3163135D01*
X1269801Y-3163135D02*
X1260277Y-3144087D01*
X1260277Y-3144087D02*
X1260277Y-3125040D01*
X1260277Y-3125040D02*
X1269801Y-3105992D01*
X1269801Y-3105992D02*
X1288848Y-3096468D01*
X1288848Y-3096468D02*
X1336467Y-3096468D01*
X1336467Y-3096468D02*
X1355515Y-3086944D01*
X1450753Y-3039325D02*
X1450753Y-3239325D01*
X1450753Y-3048849D02*
X1469801Y-3039325D01*
X1469801Y-3039325D02*
X1507896Y-3039325D01*
X1507896Y-3039325D02*
X1526943Y-3048849D01*
X1526943Y-3048849D02*
X1536467Y-3058373D01*
X1536467Y-3058373D02*
X1545991Y-3077421D01*
X1545991Y-3077421D02*
X1545991Y-3134563D01*
X1545991Y-3134563D02*
X1536467Y-3153611D01*
X1536467Y-3153611D02*
X1526943Y-3163135D01*
X1526943Y-3163135D02*
X1507896Y-3172659D01*
X1507896Y-3172659D02*
X1469801Y-3172659D01*
X1469801Y-3172659D02*
X1450753Y-3163135D01*
X1631705Y-3153611D02*
X1641229Y-3163135D01*
X1641229Y-3163135D02*
X1631705Y-3172659D01*
X1631705Y-3172659D02*
X1622182Y-3163135D01*
X1622182Y-3163135D02*
X1631705Y-3153611D01*
X1631705Y-3153611D02*
X1631705Y-3172659D01*
X1631705Y-3048849D02*
X1641229Y-3058373D01*
X1641229Y-3058373D02*
X1631705Y-3067897D01*
X1631705Y-3067897D02*
X1622182Y-3058373D01*
X1622182Y-3058373D02*
X1631705Y-3048849D01*
X1631705Y-3048849D02*
X1631705Y-3067897D01*
D12*
X-120500Y-3441175D02*
X-500Y-3561175D01*
X-500Y-3441175D02*
X-120500Y-3561175D01*
D11*
X365039Y-3592659D02*
X250753Y-3592659D01*
X307896Y-3592659D02*
X307896Y-3392659D01*
X307896Y-3392659D02*
X288848Y-3421230D01*
X288848Y-3421230D02*
X269801Y-3440278D01*
X269801Y-3440278D02*
X250753Y-3449802D01*
X450753Y-3573611D02*
X460277Y-3583135D01*
X460277Y-3583135D02*
X450753Y-3592659D01*
X450753Y-3592659D02*
X441229Y-3583135D01*
X441229Y-3583135D02*
X450753Y-3573611D01*
X450753Y-3573611D02*
X450753Y-3592659D01*
X536467Y-3411706D02*
X545991Y-3402183D01*
X545991Y-3402183D02*
X565039Y-3392659D01*
X565039Y-3392659D02*
X612658Y-3392659D01*
X612658Y-3392659D02*
X631705Y-3402183D01*
X631705Y-3402183D02*
X641229Y-3411706D01*
X641229Y-3411706D02*
X650753Y-3430754D01*
X650753Y-3430754D02*
X650753Y-3449802D01*
X650753Y-3449802D02*
X641229Y-3478373D01*
X641229Y-3478373D02*
X526944Y-3592659D01*
X526944Y-3592659D02*
X650753Y-3592659D01*
X774562Y-3392659D02*
X793610Y-3392659D01*
X793610Y-3392659D02*
X812658Y-3402183D01*
X812658Y-3402183D02*
X822182Y-3411706D01*
X822182Y-3411706D02*
X831705Y-3430754D01*
X831705Y-3430754D02*
X841229Y-3468849D01*
X841229Y-3468849D02*
X841229Y-3516468D01*
X841229Y-3516468D02*
X831705Y-3554563D01*
X831705Y-3554563D02*
X822182Y-3573611D01*
X822182Y-3573611D02*
X812658Y-3583135D01*
X812658Y-3583135D02*
X793610Y-3592659D01*
X793610Y-3592659D02*
X774562Y-3592659D01*
X774562Y-3592659D02*
X755515Y-3583135D01*
X755515Y-3583135D02*
X745991Y-3573611D01*
X745991Y-3573611D02*
X736467Y-3554563D01*
X736467Y-3554563D02*
X726943Y-3516468D01*
X726943Y-3516468D02*
X726943Y-3468849D01*
X726943Y-3468849D02*
X736467Y-3430754D01*
X736467Y-3430754D02*
X745991Y-3411706D01*
X745991Y-3411706D02*
X755515Y-3402183D01*
X755515Y-3402183D02*
X774562Y-3392659D01*
X965039Y-3392659D02*
X984086Y-3392659D01*
X984086Y-3392659D02*
X1003134Y-3402183D01*
X1003134Y-3402183D02*
X1012658Y-3411706D01*
X1012658Y-3411706D02*
X1022182Y-3430754D01*
X1022182Y-3430754D02*
X1031705Y-3468849D01*
X1031705Y-3468849D02*
X1031705Y-3516468D01*
X1031705Y-3516468D02*
X1022182Y-3554563D01*
X1022182Y-3554563D02*
X1012658Y-3573611D01*
X1012658Y-3573611D02*
X1003134Y-3583135D01*
X1003134Y-3583135D02*
X984086Y-3592659D01*
X984086Y-3592659D02*
X965039Y-3592659D01*
X965039Y-3592659D02*
X945991Y-3583135D01*
X945991Y-3583135D02*
X936467Y-3573611D01*
X936467Y-3573611D02*
X926943Y-3554563D01*
X926943Y-3554563D02*
X917420Y-3516468D01*
X917420Y-3516468D02*
X917420Y-3468849D01*
X917420Y-3468849D02*
X926943Y-3430754D01*
X926943Y-3430754D02*
X936467Y-3411706D01*
X936467Y-3411706D02*
X945991Y-3402183D01*
X945991Y-3402183D02*
X965039Y-3392659D01*
X1117420Y-3592659D02*
X1117420Y-3459325D01*
X1117420Y-3478373D02*
X1126944Y-3468849D01*
X1126944Y-3468849D02*
X1145991Y-3459325D01*
X1145991Y-3459325D02*
X1174563Y-3459325D01*
X1174563Y-3459325D02*
X1193610Y-3468849D01*
X1193610Y-3468849D02*
X1203134Y-3487897D01*
X1203134Y-3487897D02*
X1203134Y-3592659D01*
X1203134Y-3487897D02*
X1212658Y-3468849D01*
X1212658Y-3468849D02*
X1231705Y-3459325D01*
X1231705Y-3459325D02*
X1260277Y-3459325D01*
X1260277Y-3459325D02*
X1279325Y-3468849D01*
X1279325Y-3468849D02*
X1288848Y-3487897D01*
X1288848Y-3487897D02*
X1288848Y-3592659D01*
X1384086Y-3592659D02*
X1384086Y-3459325D01*
X1384086Y-3478373D02*
X1393610Y-3468849D01*
X1393610Y-3468849D02*
X1412658Y-3459325D01*
X1412658Y-3459325D02*
X1441229Y-3459325D01*
X1441229Y-3459325D02*
X1460277Y-3468849D01*
X1460277Y-3468849D02*
X1469801Y-3487897D01*
X1469801Y-3487897D02*
X1469801Y-3592659D01*
X1469801Y-3487897D02*
X1479324Y-3468849D01*
X1479324Y-3468849D02*
X1498372Y-3459325D01*
X1498372Y-3459325D02*
X1526943Y-3459325D01*
X1526943Y-3459325D02*
X1545991Y-3468849D01*
X1545991Y-3468849D02*
X1555515Y-3487897D01*
X1555515Y-3487897D02*
X1555515Y-3592659D01*
X1945991Y-3383135D02*
X1774563Y-3640278D01*
X2203134Y-3392659D02*
X2222182Y-3392659D01*
X2222182Y-3392659D02*
X2241229Y-3402183D01*
X2241229Y-3402183D02*
X2250753Y-3411706D01*
X2250753Y-3411706D02*
X2260277Y-3430754D01*
X2260277Y-3430754D02*
X2269801Y-3468849D01*
X2269801Y-3468849D02*
X2269801Y-3516468D01*
X2269801Y-3516468D02*
X2260277Y-3554563D01*
X2260277Y-3554563D02*
X2250753Y-3573611D01*
X2250753Y-3573611D02*
X2241229Y-3583135D01*
X2241229Y-3583135D02*
X2222182Y-3592659D01*
X2222182Y-3592659D02*
X2203134Y-3592659D01*
X2203134Y-3592659D02*
X2184087Y-3583135D01*
X2184087Y-3583135D02*
X2174563Y-3573611D01*
X2174563Y-3573611D02*
X2165039Y-3554563D01*
X2165039Y-3554563D02*
X2155515Y-3516468D01*
X2155515Y-3516468D02*
X2155515Y-3468849D01*
X2155515Y-3468849D02*
X2165039Y-3430754D01*
X2165039Y-3430754D02*
X2174563Y-3411706D01*
X2174563Y-3411706D02*
X2184087Y-3402183D01*
X2184087Y-3402183D02*
X2203134Y-3392659D01*
X2355515Y-3573611D02*
X2365039Y-3583135D01*
X2365039Y-3583135D02*
X2355515Y-3592659D01*
X2355515Y-3592659D02*
X2345991Y-3583135D01*
X2345991Y-3583135D02*
X2355515Y-3573611D01*
X2355515Y-3573611D02*
X2355515Y-3592659D01*
X2488848Y-3392659D02*
X2507896Y-3392659D01*
X2507896Y-3392659D02*
X2526944Y-3402183D01*
X2526944Y-3402183D02*
X2536468Y-3411706D01*
X2536468Y-3411706D02*
X2545991Y-3430754D01*
X2545991Y-3430754D02*
X2555515Y-3468849D01*
X2555515Y-3468849D02*
X2555515Y-3516468D01*
X2555515Y-3516468D02*
X2545991Y-3554563D01*
X2545991Y-3554563D02*
X2536468Y-3573611D01*
X2536468Y-3573611D02*
X2526944Y-3583135D01*
X2526944Y-3583135D02*
X2507896Y-3592659D01*
X2507896Y-3592659D02*
X2488848Y-3592659D01*
X2488848Y-3592659D02*
X2469801Y-3583135D01*
X2469801Y-3583135D02*
X2460277Y-3573611D01*
X2460277Y-3573611D02*
X2450753Y-3554563D01*
X2450753Y-3554563D02*
X2441229Y-3516468D01*
X2441229Y-3516468D02*
X2441229Y-3468849D01*
X2441229Y-3468849D02*
X2450753Y-3430754D01*
X2450753Y-3430754D02*
X2460277Y-3411706D01*
X2460277Y-3411706D02*
X2469801Y-3402183D01*
X2469801Y-3402183D02*
X2488848Y-3392659D01*
X2726944Y-3459325D02*
X2726944Y-3592659D01*
X2679325Y-3383135D02*
X2631706Y-3525992D01*
X2631706Y-3525992D02*
X2755515Y-3525992D01*
X2812658Y-3392659D02*
X2945991Y-3392659D01*
X2945991Y-3392659D02*
X2860277Y-3592659D01*
X3012658Y-3411706D02*
X3022182Y-3402183D01*
X3022182Y-3402183D02*
X3041229Y-3392659D01*
X3041229Y-3392659D02*
X3088848Y-3392659D01*
X3088848Y-3392659D02*
X3107896Y-3402183D01*
X3107896Y-3402183D02*
X3117420Y-3411706D01*
X3117420Y-3411706D02*
X3126944Y-3430754D01*
X3126944Y-3430754D02*
X3126944Y-3449802D01*
X3126944Y-3449802D02*
X3117420Y-3478373D01*
X3117420Y-3478373D02*
X3003134Y-3592659D01*
X3003134Y-3592659D02*
X3126944Y-3592659D01*
X3203134Y-3392659D02*
X3203134Y-3430754D01*
X3279325Y-3392659D02*
X3279325Y-3430754D01*
X3574563Y-3668849D02*
X3565039Y-3659325D01*
X3565039Y-3659325D02*
X3545991Y-3630754D01*
X3545991Y-3630754D02*
X3536468Y-3611706D01*
X3536468Y-3611706D02*
X3526944Y-3583135D01*
X3526944Y-3583135D02*
X3517420Y-3535516D01*
X3517420Y-3535516D02*
X3517420Y-3497421D01*
X3517420Y-3497421D02*
X3526944Y-3449802D01*
X3526944Y-3449802D02*
X3536468Y-3421230D01*
X3536468Y-3421230D02*
X3545991Y-3402183D01*
X3545991Y-3402183D02*
X3565039Y-3373611D01*
X3565039Y-3373611D02*
X3574563Y-3364087D01*
X3641229Y-3411706D02*
X3650753Y-3402183D01*
X3650753Y-3402183D02*
X3669801Y-3392659D01*
X3669801Y-3392659D02*
X3717420Y-3392659D01*
X3717420Y-3392659D02*
X3736468Y-3402183D01*
X3736468Y-3402183D02*
X3745991Y-3411706D01*
X3745991Y-3411706D02*
X3755515Y-3430754D01*
X3755515Y-3430754D02*
X3755515Y-3449802D01*
X3755515Y-3449802D02*
X3745991Y-3478373D01*
X3745991Y-3478373D02*
X3631706Y-3592659D01*
X3631706Y-3592659D02*
X3755515Y-3592659D01*
X3993610Y-3592659D02*
X3993610Y-3392659D01*
X4079325Y-3592659D02*
X4079325Y-3487897D01*
X4079325Y-3487897D02*
X4069801Y-3468849D01*
X4069801Y-3468849D02*
X4050753Y-3459325D01*
X4050753Y-3459325D02*
X4022182Y-3459325D01*
X4022182Y-3459325D02*
X4003134Y-3468849D01*
X4003134Y-3468849D02*
X3993610Y-3478373D01*
X4203134Y-3592659D02*
X4184087Y-3583135D01*
X4184087Y-3583135D02*
X4174563Y-3573611D01*
X4174563Y-3573611D02*
X4165039Y-3554563D01*
X4165039Y-3554563D02*
X4165039Y-3497421D01*
X4165039Y-3497421D02*
X4174563Y-3478373D01*
X4174563Y-3478373D02*
X4184087Y-3468849D01*
X4184087Y-3468849D02*
X4203134Y-3459325D01*
X4203134Y-3459325D02*
X4231706Y-3459325D01*
X4231706Y-3459325D02*
X4250753Y-3468849D01*
X4250753Y-3468849D02*
X4260277Y-3478373D01*
X4260277Y-3478373D02*
X4269801Y-3497421D01*
X4269801Y-3497421D02*
X4269801Y-3554563D01*
X4269801Y-3554563D02*
X4260277Y-3573611D01*
X4260277Y-3573611D02*
X4250753Y-3583135D01*
X4250753Y-3583135D02*
X4231706Y-3592659D01*
X4231706Y-3592659D02*
X4203134Y-3592659D01*
X4384087Y-3592659D02*
X4365039Y-3583135D01*
X4365039Y-3583135D02*
X4355515Y-3564087D01*
X4355515Y-3564087D02*
X4355515Y-3392659D01*
X4536468Y-3583135D02*
X4517420Y-3592659D01*
X4517420Y-3592659D02*
X4479325Y-3592659D01*
X4479325Y-3592659D02*
X4460277Y-3583135D01*
X4460277Y-3583135D02*
X4450753Y-3564087D01*
X4450753Y-3564087D02*
X4450753Y-3487897D01*
X4450753Y-3487897D02*
X4460277Y-3468849D01*
X4460277Y-3468849D02*
X4479325Y-3459325D01*
X4479325Y-3459325D02*
X4517420Y-3459325D01*
X4517420Y-3459325D02*
X4536468Y-3468849D01*
X4536468Y-3468849D02*
X4545992Y-3487897D01*
X4545992Y-3487897D02*
X4545992Y-3506944D01*
X4545992Y-3506944D02*
X4450753Y-3525992D01*
X4622182Y-3583135D02*
X4641230Y-3592659D01*
X4641230Y-3592659D02*
X4679325Y-3592659D01*
X4679325Y-3592659D02*
X4698373Y-3583135D01*
X4698373Y-3583135D02*
X4707896Y-3564087D01*
X4707896Y-3564087D02*
X4707896Y-3554563D01*
X4707896Y-3554563D02*
X4698373Y-3535516D01*
X4698373Y-3535516D02*
X4679325Y-3525992D01*
X4679325Y-3525992D02*
X4650753Y-3525992D01*
X4650753Y-3525992D02*
X4631706Y-3516468D01*
X4631706Y-3516468D02*
X4622182Y-3497421D01*
X4622182Y-3497421D02*
X4622182Y-3487897D01*
X4622182Y-3487897D02*
X4631706Y-3468849D01*
X4631706Y-3468849D02*
X4650753Y-3459325D01*
X4650753Y-3459325D02*
X4679325Y-3459325D01*
X4679325Y-3459325D02*
X4698373Y-3468849D01*
X4774563Y-3668849D02*
X4784087Y-3659325D01*
X4784087Y-3659325D02*
X4803134Y-3630754D01*
X4803134Y-3630754D02*
X4812658Y-3611706D01*
X4812658Y-3611706D02*
X4822182Y-3583135D01*
X4822182Y-3583135D02*
X4831706Y-3535516D01*
X4831706Y-3535516D02*
X4831706Y-3497421D01*
X4831706Y-3497421D02*
X4822182Y-3449802D01*
X4822182Y-3449802D02*
X4812658Y-3421230D01*
X4812658Y-3421230D02*
X4803134Y-3402183D01*
X4803134Y-3402183D02*
X4784087Y-3373611D01*
X4784087Y-3373611D02*
X4774563Y-3364087D01*
X5136468Y-3668849D02*
X5126944Y-3659325D01*
X5126944Y-3659325D02*
X5107896Y-3630754D01*
X5107896Y-3630754D02*
X5098373Y-3611706D01*
X5098373Y-3611706D02*
X5088849Y-3583135D01*
X5088849Y-3583135D02*
X5079325Y-3535516D01*
X5079325Y-3535516D02*
X5079325Y-3497421D01*
X5079325Y-3497421D02*
X5088849Y-3449802D01*
X5088849Y-3449802D02*
X5098373Y-3421230D01*
X5098373Y-3421230D02*
X5107896Y-3402183D01*
X5107896Y-3402183D02*
X5126944Y-3373611D01*
X5126944Y-3373611D02*
X5136468Y-3364087D01*
X5212658Y-3459325D02*
X5212658Y-3592659D01*
X5212658Y-3478373D02*
X5222182Y-3468849D01*
X5222182Y-3468849D02*
X5241230Y-3459325D01*
X5241230Y-3459325D02*
X5269801Y-3459325D01*
X5269801Y-3459325D02*
X5288849Y-3468849D01*
X5288849Y-3468849D02*
X5298373Y-3487897D01*
X5298373Y-3487897D02*
X5298373Y-3592659D01*
X5422182Y-3592659D02*
X5403134Y-3583135D01*
X5403134Y-3583135D02*
X5393611Y-3573611D01*
X5393611Y-3573611D02*
X5384087Y-3554563D01*
X5384087Y-3554563D02*
X5384087Y-3497421D01*
X5384087Y-3497421D02*
X5393611Y-3478373D01*
X5393611Y-3478373D02*
X5403134Y-3468849D01*
X5403134Y-3468849D02*
X5422182Y-3459325D01*
X5422182Y-3459325D02*
X5450754Y-3459325D01*
X5450754Y-3459325D02*
X5469801Y-3468849D01*
X5469801Y-3468849D02*
X5479325Y-3478373D01*
X5479325Y-3478373D02*
X5488849Y-3497421D01*
X5488849Y-3497421D02*
X5488849Y-3554563D01*
X5488849Y-3554563D02*
X5479325Y-3573611D01*
X5479325Y-3573611D02*
X5469801Y-3583135D01*
X5469801Y-3583135D02*
X5450754Y-3592659D01*
X5450754Y-3592659D02*
X5422182Y-3592659D01*
X5545992Y-3459325D02*
X5622182Y-3459325D01*
X5574563Y-3392659D02*
X5574563Y-3564087D01*
X5574563Y-3564087D02*
X5584087Y-3583135D01*
X5584087Y-3583135D02*
X5603134Y-3592659D01*
X5603134Y-3592659D02*
X5622182Y-3592659D01*
X5841230Y-3459325D02*
X5841230Y-3659325D01*
X5841230Y-3468849D02*
X5860277Y-3459325D01*
X5860277Y-3459325D02*
X5898373Y-3459325D01*
X5898373Y-3459325D02*
X5917420Y-3468849D01*
X5917420Y-3468849D02*
X5926944Y-3478373D01*
X5926944Y-3478373D02*
X5936468Y-3497421D01*
X5936468Y-3497421D02*
X5936468Y-3554563D01*
X5936468Y-3554563D02*
X5926944Y-3573611D01*
X5926944Y-3573611D02*
X5917420Y-3583135D01*
X5917420Y-3583135D02*
X5898373Y-3592659D01*
X5898373Y-3592659D02*
X5860277Y-3592659D01*
X5860277Y-3592659D02*
X5841230Y-3583135D01*
X6050753Y-3592659D02*
X6031706Y-3583135D01*
X6031706Y-3583135D02*
X6022182Y-3564087D01*
X6022182Y-3564087D02*
X6022182Y-3392659D01*
X6212658Y-3592659D02*
X6212658Y-3487897D01*
X6212658Y-3487897D02*
X6203134Y-3468849D01*
X6203134Y-3468849D02*
X6184087Y-3459325D01*
X6184087Y-3459325D02*
X6145992Y-3459325D01*
X6145992Y-3459325D02*
X6126944Y-3468849D01*
X6212658Y-3583135D02*
X6193611Y-3592659D01*
X6193611Y-3592659D02*
X6145992Y-3592659D01*
X6145992Y-3592659D02*
X6126944Y-3583135D01*
X6126944Y-3583135D02*
X6117420Y-3564087D01*
X6117420Y-3564087D02*
X6117420Y-3545040D01*
X6117420Y-3545040D02*
X6126944Y-3525992D01*
X6126944Y-3525992D02*
X6145992Y-3516468D01*
X6145992Y-3516468D02*
X6193611Y-3516468D01*
X6193611Y-3516468D02*
X6212658Y-3506944D01*
X6279325Y-3459325D02*
X6355515Y-3459325D01*
X6307896Y-3392659D02*
X6307896Y-3564087D01*
X6307896Y-3564087D02*
X6317420Y-3583135D01*
X6317420Y-3583135D02*
X6336468Y-3592659D01*
X6336468Y-3592659D02*
X6355515Y-3592659D01*
X6498373Y-3583135D02*
X6479325Y-3592659D01*
X6479325Y-3592659D02*
X6441230Y-3592659D01*
X6441230Y-3592659D02*
X6422182Y-3583135D01*
X6422182Y-3583135D02*
X6412658Y-3564087D01*
X6412658Y-3564087D02*
X6412658Y-3487897D01*
X6412658Y-3487897D02*
X6422182Y-3468849D01*
X6422182Y-3468849D02*
X6441230Y-3459325D01*
X6441230Y-3459325D02*
X6479325Y-3459325D01*
X6479325Y-3459325D02*
X6498373Y-3468849D01*
X6498373Y-3468849D02*
X6507896Y-3487897D01*
X6507896Y-3487897D02*
X6507896Y-3506944D01*
X6507896Y-3506944D02*
X6412658Y-3525992D01*
X6679325Y-3592659D02*
X6679325Y-3392659D01*
X6679325Y-3583135D02*
X6660277Y-3592659D01*
X6660277Y-3592659D02*
X6622182Y-3592659D01*
X6622182Y-3592659D02*
X6603134Y-3583135D01*
X6603134Y-3583135D02*
X6593611Y-3573611D01*
X6593611Y-3573611D02*
X6584087Y-3554563D01*
X6584087Y-3554563D02*
X6584087Y-3497421D01*
X6584087Y-3497421D02*
X6593611Y-3478373D01*
X6593611Y-3478373D02*
X6603134Y-3468849D01*
X6603134Y-3468849D02*
X6622182Y-3459325D01*
X6622182Y-3459325D02*
X6660277Y-3459325D01*
X6660277Y-3459325D02*
X6679325Y-3468849D01*
X6755515Y-3668849D02*
X6765039Y-3659325D01*
X6765039Y-3659325D02*
X6784087Y-3630754D01*
X6784087Y-3630754D02*
X6793611Y-3611706D01*
X6793611Y-3611706D02*
X6803134Y-3583135D01*
X6803134Y-3583135D02*
X6812658Y-3535516D01*
X6812658Y-3535516D02*
X6812658Y-3497421D01*
X6812658Y-3497421D02*
X6803134Y-3449802D01*
X6803134Y-3449802D02*
X6793611Y-3421230D01*
X6793611Y-3421230D02*
X6784087Y-3402183D01*
X6784087Y-3402183D02*
X6765039Y-3373611D01*
X6765039Y-3373611D02*
X6755515Y-3364087D01*
X-500Y-3765175D02*
G75*
G02*
X-200500Y-3765175I-100000J0D01*
G01*
X-200500Y-3765175D02*
G75*
G02*
X-500Y-3765175I100000J0D01*
G01*
X250753Y-3675706D02*
X260277Y-3666183D01*
X260277Y-3666183D02*
X279324Y-3656659D01*
X279324Y-3656659D02*
X326944Y-3656659D01*
X326944Y-3656659D02*
X345991Y-3666183D01*
X345991Y-3666183D02*
X355515Y-3675706D01*
X355515Y-3675706D02*
X365039Y-3694754D01*
X365039Y-3694754D02*
X365039Y-3713802D01*
X365039Y-3713802D02*
X355515Y-3742373D01*
X355515Y-3742373D02*
X241229Y-3856659D01*
X241229Y-3856659D02*
X365039Y-3856659D01*
X450753Y-3837611D02*
X460277Y-3847135D01*
X460277Y-3847135D02*
X450753Y-3856659D01*
X450753Y-3856659D02*
X441229Y-3847135D01*
X441229Y-3847135D02*
X450753Y-3837611D01*
X450753Y-3837611D02*
X450753Y-3856659D01*
X650753Y-3856659D02*
X536467Y-3856659D01*
X593610Y-3856659D02*
X593610Y-3656659D01*
X593610Y-3656659D02*
X574563Y-3685230D01*
X574563Y-3685230D02*
X555515Y-3704278D01*
X555515Y-3704278D02*
X536467Y-3713802D01*
X822182Y-3656659D02*
X784086Y-3656659D01*
X784086Y-3656659D02*
X765039Y-3666183D01*
X765039Y-3666183D02*
X755515Y-3675706D01*
X755515Y-3675706D02*
X736467Y-3704278D01*
X736467Y-3704278D02*
X726943Y-3742373D01*
X726943Y-3742373D02*
X726943Y-3818563D01*
X726943Y-3818563D02*
X736467Y-3837611D01*
X736467Y-3837611D02*
X745991Y-3847135D01*
X745991Y-3847135D02*
X765039Y-3856659D01*
X765039Y-3856659D02*
X803134Y-3856659D01*
X803134Y-3856659D02*
X822182Y-3847135D01*
X822182Y-3847135D02*
X831705Y-3837611D01*
X831705Y-3837611D02*
X841229Y-3818563D01*
X841229Y-3818563D02*
X841229Y-3770944D01*
X841229Y-3770944D02*
X831705Y-3751897D01*
X831705Y-3751897D02*
X822182Y-3742373D01*
X822182Y-3742373D02*
X803134Y-3732849D01*
X803134Y-3732849D02*
X765039Y-3732849D01*
X765039Y-3732849D02*
X745991Y-3742373D01*
X745991Y-3742373D02*
X736467Y-3751897D01*
X736467Y-3751897D02*
X726943Y-3770944D01*
X965039Y-3656659D02*
X984086Y-3656659D01*
X984086Y-3656659D02*
X1003134Y-3666183D01*
X1003134Y-3666183D02*
X1012658Y-3675706D01*
X1012658Y-3675706D02*
X1022182Y-3694754D01*
X1022182Y-3694754D02*
X1031705Y-3732849D01*
X1031705Y-3732849D02*
X1031705Y-3780468D01*
X1031705Y-3780468D02*
X1022182Y-3818563D01*
X1022182Y-3818563D02*
X1012658Y-3837611D01*
X1012658Y-3837611D02*
X1003134Y-3847135D01*
X1003134Y-3847135D02*
X984086Y-3856659D01*
X984086Y-3856659D02*
X965039Y-3856659D01*
X965039Y-3856659D02*
X945991Y-3847135D01*
X945991Y-3847135D02*
X936467Y-3837611D01*
X936467Y-3837611D02*
X926943Y-3818563D01*
X926943Y-3818563D02*
X917420Y-3780468D01*
X917420Y-3780468D02*
X917420Y-3732849D01*
X917420Y-3732849D02*
X926943Y-3694754D01*
X926943Y-3694754D02*
X936467Y-3675706D01*
X936467Y-3675706D02*
X945991Y-3666183D01*
X945991Y-3666183D02*
X965039Y-3656659D01*
X1117420Y-3856659D02*
X1117420Y-3723325D01*
X1117420Y-3742373D02*
X1126944Y-3732849D01*
X1126944Y-3732849D02*
X1145991Y-3723325D01*
X1145991Y-3723325D02*
X1174563Y-3723325D01*
X1174563Y-3723325D02*
X1193610Y-3732849D01*
X1193610Y-3732849D02*
X1203134Y-3751897D01*
X1203134Y-3751897D02*
X1203134Y-3856659D01*
X1203134Y-3751897D02*
X1212658Y-3732849D01*
X1212658Y-3732849D02*
X1231705Y-3723325D01*
X1231705Y-3723325D02*
X1260277Y-3723325D01*
X1260277Y-3723325D02*
X1279325Y-3732849D01*
X1279325Y-3732849D02*
X1288848Y-3751897D01*
X1288848Y-3751897D02*
X1288848Y-3856659D01*
X1384086Y-3856659D02*
X1384086Y-3723325D01*
X1384086Y-3742373D02*
X1393610Y-3732849D01*
X1393610Y-3732849D02*
X1412658Y-3723325D01*
X1412658Y-3723325D02*
X1441229Y-3723325D01*
X1441229Y-3723325D02*
X1460277Y-3732849D01*
X1460277Y-3732849D02*
X1469801Y-3751897D01*
X1469801Y-3751897D02*
X1469801Y-3856659D01*
X1469801Y-3751897D02*
X1479324Y-3732849D01*
X1479324Y-3732849D02*
X1498372Y-3723325D01*
X1498372Y-3723325D02*
X1526943Y-3723325D01*
X1526943Y-3723325D02*
X1545991Y-3732849D01*
X1545991Y-3732849D02*
X1555515Y-3751897D01*
X1555515Y-3751897D02*
X1555515Y-3856659D01*
X1945991Y-3647135D02*
X1774563Y-3904278D01*
X2203134Y-3656659D02*
X2222182Y-3656659D01*
X2222182Y-3656659D02*
X2241229Y-3666183D01*
X2241229Y-3666183D02*
X2250753Y-3675706D01*
X2250753Y-3675706D02*
X2260277Y-3694754D01*
X2260277Y-3694754D02*
X2269801Y-3732849D01*
X2269801Y-3732849D02*
X2269801Y-3780468D01*
X2269801Y-3780468D02*
X2260277Y-3818563D01*
X2260277Y-3818563D02*
X2250753Y-3837611D01*
X2250753Y-3837611D02*
X2241229Y-3847135D01*
X2241229Y-3847135D02*
X2222182Y-3856659D01*
X2222182Y-3856659D02*
X2203134Y-3856659D01*
X2203134Y-3856659D02*
X2184087Y-3847135D01*
X2184087Y-3847135D02*
X2174563Y-3837611D01*
X2174563Y-3837611D02*
X2165039Y-3818563D01*
X2165039Y-3818563D02*
X2155515Y-3780468D01*
X2155515Y-3780468D02*
X2155515Y-3732849D01*
X2155515Y-3732849D02*
X2165039Y-3694754D01*
X2165039Y-3694754D02*
X2174563Y-3675706D01*
X2174563Y-3675706D02*
X2184087Y-3666183D01*
X2184087Y-3666183D02*
X2203134Y-3656659D01*
X2355515Y-3837611D02*
X2365039Y-3847135D01*
X2365039Y-3847135D02*
X2355515Y-3856659D01*
X2355515Y-3856659D02*
X2345991Y-3847135D01*
X2345991Y-3847135D02*
X2355515Y-3837611D01*
X2355515Y-3837611D02*
X2355515Y-3856659D01*
X2488848Y-3656659D02*
X2507896Y-3656659D01*
X2507896Y-3656659D02*
X2526944Y-3666183D01*
X2526944Y-3666183D02*
X2536468Y-3675706D01*
X2536468Y-3675706D02*
X2545991Y-3694754D01*
X2545991Y-3694754D02*
X2555515Y-3732849D01*
X2555515Y-3732849D02*
X2555515Y-3780468D01*
X2555515Y-3780468D02*
X2545991Y-3818563D01*
X2545991Y-3818563D02*
X2536468Y-3837611D01*
X2536468Y-3837611D02*
X2526944Y-3847135D01*
X2526944Y-3847135D02*
X2507896Y-3856659D01*
X2507896Y-3856659D02*
X2488848Y-3856659D01*
X2488848Y-3856659D02*
X2469801Y-3847135D01*
X2469801Y-3847135D02*
X2460277Y-3837611D01*
X2460277Y-3837611D02*
X2450753Y-3818563D01*
X2450753Y-3818563D02*
X2441229Y-3780468D01*
X2441229Y-3780468D02*
X2441229Y-3732849D01*
X2441229Y-3732849D02*
X2450753Y-3694754D01*
X2450753Y-3694754D02*
X2460277Y-3675706D01*
X2460277Y-3675706D02*
X2469801Y-3666183D01*
X2469801Y-3666183D02*
X2488848Y-3656659D01*
X2669801Y-3742373D02*
X2650753Y-3732849D01*
X2650753Y-3732849D02*
X2641229Y-3723325D01*
X2641229Y-3723325D02*
X2631706Y-3704278D01*
X2631706Y-3704278D02*
X2631706Y-3694754D01*
X2631706Y-3694754D02*
X2641229Y-3675706D01*
X2641229Y-3675706D02*
X2650753Y-3666183D01*
X2650753Y-3666183D02*
X2669801Y-3656659D01*
X2669801Y-3656659D02*
X2707896Y-3656659D01*
X2707896Y-3656659D02*
X2726944Y-3666183D01*
X2726944Y-3666183D02*
X2736468Y-3675706D01*
X2736468Y-3675706D02*
X2745991Y-3694754D01*
X2745991Y-3694754D02*
X2745991Y-3704278D01*
X2745991Y-3704278D02*
X2736468Y-3723325D01*
X2736468Y-3723325D02*
X2726944Y-3732849D01*
X2726944Y-3732849D02*
X2707896Y-3742373D01*
X2707896Y-3742373D02*
X2669801Y-3742373D01*
X2669801Y-3742373D02*
X2650753Y-3751897D01*
X2650753Y-3751897D02*
X2641229Y-3761421D01*
X2641229Y-3761421D02*
X2631706Y-3780468D01*
X2631706Y-3780468D02*
X2631706Y-3818563D01*
X2631706Y-3818563D02*
X2641229Y-3837611D01*
X2641229Y-3837611D02*
X2650753Y-3847135D01*
X2650753Y-3847135D02*
X2669801Y-3856659D01*
X2669801Y-3856659D02*
X2707896Y-3856659D01*
X2707896Y-3856659D02*
X2726944Y-3847135D01*
X2726944Y-3847135D02*
X2736468Y-3837611D01*
X2736468Y-3837611D02*
X2745991Y-3818563D01*
X2745991Y-3818563D02*
X2745991Y-3780468D01*
X2745991Y-3780468D02*
X2736468Y-3761421D01*
X2736468Y-3761421D02*
X2726944Y-3751897D01*
X2726944Y-3751897D02*
X2707896Y-3742373D01*
X2926944Y-3656659D02*
X2831706Y-3656659D01*
X2831706Y-3656659D02*
X2822182Y-3751897D01*
X2822182Y-3751897D02*
X2831706Y-3742373D01*
X2831706Y-3742373D02*
X2850753Y-3732849D01*
X2850753Y-3732849D02*
X2898372Y-3732849D01*
X2898372Y-3732849D02*
X2917420Y-3742373D01*
X2917420Y-3742373D02*
X2926944Y-3751897D01*
X2926944Y-3751897D02*
X2936467Y-3770944D01*
X2936467Y-3770944D02*
X2936467Y-3818563D01*
X2936467Y-3818563D02*
X2926944Y-3837611D01*
X2926944Y-3837611D02*
X2917420Y-3847135D01*
X2917420Y-3847135D02*
X2898372Y-3856659D01*
X2898372Y-3856659D02*
X2850753Y-3856659D01*
X2850753Y-3856659D02*
X2831706Y-3847135D01*
X2831706Y-3847135D02*
X2822182Y-3837611D01*
X3060277Y-3656659D02*
X3079325Y-3656659D01*
X3079325Y-3656659D02*
X3098372Y-3666183D01*
X3098372Y-3666183D02*
X3107896Y-3675706D01*
X3107896Y-3675706D02*
X3117420Y-3694754D01*
X3117420Y-3694754D02*
X3126944Y-3732849D01*
X3126944Y-3732849D02*
X3126944Y-3780468D01*
X3126944Y-3780468D02*
X3117420Y-3818563D01*
X3117420Y-3818563D02*
X3107896Y-3837611D01*
X3107896Y-3837611D02*
X3098372Y-3847135D01*
X3098372Y-3847135D02*
X3079325Y-3856659D01*
X3079325Y-3856659D02*
X3060277Y-3856659D01*
X3060277Y-3856659D02*
X3041229Y-3847135D01*
X3041229Y-3847135D02*
X3031706Y-3837611D01*
X3031706Y-3837611D02*
X3022182Y-3818563D01*
X3022182Y-3818563D02*
X3012658Y-3780468D01*
X3012658Y-3780468D02*
X3012658Y-3732849D01*
X3012658Y-3732849D02*
X3022182Y-3694754D01*
X3022182Y-3694754D02*
X3031706Y-3675706D01*
X3031706Y-3675706D02*
X3041229Y-3666183D01*
X3041229Y-3666183D02*
X3060277Y-3656659D01*
X3203134Y-3656659D02*
X3203134Y-3694754D01*
X3279325Y-3656659D02*
X3279325Y-3694754D01*
X3574563Y-3932849D02*
X3565039Y-3923325D01*
X3565039Y-3923325D02*
X3545991Y-3894754D01*
X3545991Y-3894754D02*
X3536468Y-3875706D01*
X3536468Y-3875706D02*
X3526944Y-3847135D01*
X3526944Y-3847135D02*
X3517420Y-3799516D01*
X3517420Y-3799516D02*
X3517420Y-3761421D01*
X3517420Y-3761421D02*
X3526944Y-3713802D01*
X3526944Y-3713802D02*
X3536468Y-3685230D01*
X3536468Y-3685230D02*
X3545991Y-3666183D01*
X3545991Y-3666183D02*
X3565039Y-3637611D01*
X3565039Y-3637611D02*
X3574563Y-3628087D01*
X3641229Y-3675706D02*
X3650753Y-3666183D01*
X3650753Y-3666183D02*
X3669801Y-3656659D01*
X3669801Y-3656659D02*
X3717420Y-3656659D01*
X3717420Y-3656659D02*
X3736468Y-3666183D01*
X3736468Y-3666183D02*
X3745991Y-3675706D01*
X3745991Y-3675706D02*
X3755515Y-3694754D01*
X3755515Y-3694754D02*
X3755515Y-3713802D01*
X3755515Y-3713802D02*
X3745991Y-3742373D01*
X3745991Y-3742373D02*
X3631706Y-3856659D01*
X3631706Y-3856659D02*
X3755515Y-3856659D01*
X3993610Y-3856659D02*
X3993610Y-3656659D01*
X4079325Y-3856659D02*
X4079325Y-3751897D01*
X4079325Y-3751897D02*
X4069801Y-3732849D01*
X4069801Y-3732849D02*
X4050753Y-3723325D01*
X4050753Y-3723325D02*
X4022182Y-3723325D01*
X4022182Y-3723325D02*
X4003134Y-3732849D01*
X4003134Y-3732849D02*
X3993610Y-3742373D01*
X4203134Y-3856659D02*
X4184087Y-3847135D01*
X4184087Y-3847135D02*
X4174563Y-3837611D01*
X4174563Y-3837611D02*
X4165039Y-3818563D01*
X4165039Y-3818563D02*
X4165039Y-3761421D01*
X4165039Y-3761421D02*
X4174563Y-3742373D01*
X4174563Y-3742373D02*
X4184087Y-3732849D01*
X4184087Y-3732849D02*
X4203134Y-3723325D01*
X4203134Y-3723325D02*
X4231706Y-3723325D01*
X4231706Y-3723325D02*
X4250753Y-3732849D01*
X4250753Y-3732849D02*
X4260277Y-3742373D01*
X4260277Y-3742373D02*
X4269801Y-3761421D01*
X4269801Y-3761421D02*
X4269801Y-3818563D01*
X4269801Y-3818563D02*
X4260277Y-3837611D01*
X4260277Y-3837611D02*
X4250753Y-3847135D01*
X4250753Y-3847135D02*
X4231706Y-3856659D01*
X4231706Y-3856659D02*
X4203134Y-3856659D01*
X4384087Y-3856659D02*
X4365039Y-3847135D01*
X4365039Y-3847135D02*
X4355515Y-3828087D01*
X4355515Y-3828087D02*
X4355515Y-3656659D01*
X4536468Y-3847135D02*
X4517420Y-3856659D01*
X4517420Y-3856659D02*
X4479325Y-3856659D01*
X4479325Y-3856659D02*
X4460277Y-3847135D01*
X4460277Y-3847135D02*
X4450753Y-3828087D01*
X4450753Y-3828087D02*
X4450753Y-3751897D01*
X4450753Y-3751897D02*
X4460277Y-3732849D01*
X4460277Y-3732849D02*
X4479325Y-3723325D01*
X4479325Y-3723325D02*
X4517420Y-3723325D01*
X4517420Y-3723325D02*
X4536468Y-3732849D01*
X4536468Y-3732849D02*
X4545992Y-3751897D01*
X4545992Y-3751897D02*
X4545992Y-3770944D01*
X4545992Y-3770944D02*
X4450753Y-3789992D01*
X4622182Y-3847135D02*
X4641230Y-3856659D01*
X4641230Y-3856659D02*
X4679325Y-3856659D01*
X4679325Y-3856659D02*
X4698373Y-3847135D01*
X4698373Y-3847135D02*
X4707896Y-3828087D01*
X4707896Y-3828087D02*
X4707896Y-3818563D01*
X4707896Y-3818563D02*
X4698373Y-3799516D01*
X4698373Y-3799516D02*
X4679325Y-3789992D01*
X4679325Y-3789992D02*
X4650753Y-3789992D01*
X4650753Y-3789992D02*
X4631706Y-3780468D01*
X4631706Y-3780468D02*
X4622182Y-3761421D01*
X4622182Y-3761421D02*
X4622182Y-3751897D01*
X4622182Y-3751897D02*
X4631706Y-3732849D01*
X4631706Y-3732849D02*
X4650753Y-3723325D01*
X4650753Y-3723325D02*
X4679325Y-3723325D01*
X4679325Y-3723325D02*
X4698373Y-3732849D01*
X4774563Y-3932849D02*
X4784087Y-3923325D01*
X4784087Y-3923325D02*
X4803134Y-3894754D01*
X4803134Y-3894754D02*
X4812658Y-3875706D01*
X4812658Y-3875706D02*
X4822182Y-3847135D01*
X4822182Y-3847135D02*
X4831706Y-3799516D01*
X4831706Y-3799516D02*
X4831706Y-3761421D01*
X4831706Y-3761421D02*
X4822182Y-3713802D01*
X4822182Y-3713802D02*
X4812658Y-3685230D01*
X4812658Y-3685230D02*
X4803134Y-3666183D01*
X4803134Y-3666183D02*
X4784087Y-3637611D01*
X4784087Y-3637611D02*
X4774563Y-3628087D01*
X5136468Y-3932849D02*
X5126944Y-3923325D01*
X5126944Y-3923325D02*
X5107896Y-3894754D01*
X5107896Y-3894754D02*
X5098373Y-3875706D01*
X5098373Y-3875706D02*
X5088849Y-3847135D01*
X5088849Y-3847135D02*
X5079325Y-3799516D01*
X5079325Y-3799516D02*
X5079325Y-3761421D01*
X5079325Y-3761421D02*
X5088849Y-3713802D01*
X5088849Y-3713802D02*
X5098373Y-3685230D01*
X5098373Y-3685230D02*
X5107896Y-3666183D01*
X5107896Y-3666183D02*
X5126944Y-3637611D01*
X5126944Y-3637611D02*
X5136468Y-3628087D01*
X5212658Y-3723325D02*
X5212658Y-3856659D01*
X5212658Y-3742373D02*
X5222182Y-3732849D01*
X5222182Y-3732849D02*
X5241230Y-3723325D01*
X5241230Y-3723325D02*
X5269801Y-3723325D01*
X5269801Y-3723325D02*
X5288849Y-3732849D01*
X5288849Y-3732849D02*
X5298373Y-3751897D01*
X5298373Y-3751897D02*
X5298373Y-3856659D01*
X5422182Y-3856659D02*
X5403134Y-3847135D01*
X5403134Y-3847135D02*
X5393611Y-3837611D01*
X5393611Y-3837611D02*
X5384087Y-3818563D01*
X5384087Y-3818563D02*
X5384087Y-3761421D01*
X5384087Y-3761421D02*
X5393611Y-3742373D01*
X5393611Y-3742373D02*
X5403134Y-3732849D01*
X5403134Y-3732849D02*
X5422182Y-3723325D01*
X5422182Y-3723325D02*
X5450754Y-3723325D01*
X5450754Y-3723325D02*
X5469801Y-3732849D01*
X5469801Y-3732849D02*
X5479325Y-3742373D01*
X5479325Y-3742373D02*
X5488849Y-3761421D01*
X5488849Y-3761421D02*
X5488849Y-3818563D01*
X5488849Y-3818563D02*
X5479325Y-3837611D01*
X5479325Y-3837611D02*
X5469801Y-3847135D01*
X5469801Y-3847135D02*
X5450754Y-3856659D01*
X5450754Y-3856659D02*
X5422182Y-3856659D01*
X5545992Y-3723325D02*
X5622182Y-3723325D01*
X5574563Y-3656659D02*
X5574563Y-3828087D01*
X5574563Y-3828087D02*
X5584087Y-3847135D01*
X5584087Y-3847135D02*
X5603134Y-3856659D01*
X5603134Y-3856659D02*
X5622182Y-3856659D01*
X5841230Y-3723325D02*
X5841230Y-3923325D01*
X5841230Y-3732849D02*
X5860277Y-3723325D01*
X5860277Y-3723325D02*
X5898373Y-3723325D01*
X5898373Y-3723325D02*
X5917420Y-3732849D01*
X5917420Y-3732849D02*
X5926944Y-3742373D01*
X5926944Y-3742373D02*
X5936468Y-3761421D01*
X5936468Y-3761421D02*
X5936468Y-3818563D01*
X5936468Y-3818563D02*
X5926944Y-3837611D01*
X5926944Y-3837611D02*
X5917420Y-3847135D01*
X5917420Y-3847135D02*
X5898373Y-3856659D01*
X5898373Y-3856659D02*
X5860277Y-3856659D01*
X5860277Y-3856659D02*
X5841230Y-3847135D01*
X6050753Y-3856659D02*
X6031706Y-3847135D01*
X6031706Y-3847135D02*
X6022182Y-3828087D01*
X6022182Y-3828087D02*
X6022182Y-3656659D01*
X6212658Y-3856659D02*
X6212658Y-3751897D01*
X6212658Y-3751897D02*
X6203134Y-3732849D01*
X6203134Y-3732849D02*
X6184087Y-3723325D01*
X6184087Y-3723325D02*
X6145992Y-3723325D01*
X6145992Y-3723325D02*
X6126944Y-3732849D01*
X6212658Y-3847135D02*
X6193611Y-3856659D01*
X6193611Y-3856659D02*
X6145992Y-3856659D01*
X6145992Y-3856659D02*
X6126944Y-3847135D01*
X6126944Y-3847135D02*
X6117420Y-3828087D01*
X6117420Y-3828087D02*
X6117420Y-3809040D01*
X6117420Y-3809040D02*
X6126944Y-3789992D01*
X6126944Y-3789992D02*
X6145992Y-3780468D01*
X6145992Y-3780468D02*
X6193611Y-3780468D01*
X6193611Y-3780468D02*
X6212658Y-3770944D01*
X6279325Y-3723325D02*
X6355515Y-3723325D01*
X6307896Y-3656659D02*
X6307896Y-3828087D01*
X6307896Y-3828087D02*
X6317420Y-3847135D01*
X6317420Y-3847135D02*
X6336468Y-3856659D01*
X6336468Y-3856659D02*
X6355515Y-3856659D01*
X6498373Y-3847135D02*
X6479325Y-3856659D01*
X6479325Y-3856659D02*
X6441230Y-3856659D01*
X6441230Y-3856659D02*
X6422182Y-3847135D01*
X6422182Y-3847135D02*
X6412658Y-3828087D01*
X6412658Y-3828087D02*
X6412658Y-3751897D01*
X6412658Y-3751897D02*
X6422182Y-3732849D01*
X6422182Y-3732849D02*
X6441230Y-3723325D01*
X6441230Y-3723325D02*
X6479325Y-3723325D01*
X6479325Y-3723325D02*
X6498373Y-3732849D01*
X6498373Y-3732849D02*
X6507896Y-3751897D01*
X6507896Y-3751897D02*
X6507896Y-3770944D01*
X6507896Y-3770944D02*
X6412658Y-3789992D01*
X6679325Y-3856659D02*
X6679325Y-3656659D01*
X6679325Y-3847135D02*
X6660277Y-3856659D01*
X6660277Y-3856659D02*
X6622182Y-3856659D01*
X6622182Y-3856659D02*
X6603134Y-3847135D01*
X6603134Y-3847135D02*
X6593611Y-3837611D01*
X6593611Y-3837611D02*
X6584087Y-3818563D01*
X6584087Y-3818563D02*
X6584087Y-3761421D01*
X6584087Y-3761421D02*
X6593611Y-3742373D01*
X6593611Y-3742373D02*
X6603134Y-3732849D01*
X6603134Y-3732849D02*
X6622182Y-3723325D01*
X6622182Y-3723325D02*
X6660277Y-3723325D01*
X6660277Y-3723325D02*
X6679325Y-3732849D01*
X6755515Y-3932849D02*
X6765039Y-3923325D01*
X6765039Y-3923325D02*
X6784087Y-3894754D01*
X6784087Y-3894754D02*
X6793611Y-3875706D01*
X6793611Y-3875706D02*
X6803134Y-3847135D01*
X6803134Y-3847135D02*
X6812658Y-3799516D01*
X6812658Y-3799516D02*
X6812658Y-3761421D01*
X6812658Y-3761421D02*
X6803134Y-3713802D01*
X6803134Y-3713802D02*
X6793611Y-3685230D01*
X6793611Y-3685230D02*
X6784087Y-3666183D01*
X6784087Y-3666183D02*
X6765039Y-3637611D01*
X6765039Y-3637611D02*
X6755515Y-3628087D01*
M02*
