%TF.GenerationSoftware,KiCad,Pcbnew,8.0.4*%
%TF.CreationDate,2025-03-23T22:29:41-04:00*%
%TF.ProjectId,wsg3.0,77736733-2e30-42e6-9b69-6361645f7063,rev?*%
%TF.SameCoordinates,Original*%
%TF.FileFunction,Copper,L2,Inr*%
%TF.FilePolarity,Positive*%
%FSLAX46Y46*%
G04 Gerber Fmt 4.6, Leading zero omitted, Abs format (unit mm)*
G04 Created by KiCad (PCBNEW 8.0.4) date 2025-03-23 22:29:41*
%MOMM*%
%LPD*%
G01*
G04 APERTURE LIST*
G04 Aperture macros list*
%AMRoundRect*
0 Rectangle with rounded corners*
0 $1 Rounding radius*
0 $2 $3 $4 $5 $6 $7 $8 $9 X,Y pos of 4 corners*
0 Add a 4 corners polygon primitive as box body*
4,1,4,$2,$3,$4,$5,$6,$7,$8,$9,$2,$3,0*
0 Add four circle primitives for the rounded corners*
1,1,$1+$1,$2,$3*
1,1,$1+$1,$4,$5*
1,1,$1+$1,$6,$7*
1,1,$1+$1,$8,$9*
0 Add four rect primitives between the rounded corners*
20,1,$1+$1,$2,$3,$4,$5,0*
20,1,$1+$1,$4,$5,$6,$7,0*
20,1,$1+$1,$6,$7,$8,$9,0*
20,1,$1+$1,$8,$9,$2,$3,0*%
G04 Aperture macros list end*
%TA.AperFunction,ComponentPad*%
%ADD10C,1.700000*%
%TD*%
%TA.AperFunction,ComponentPad*%
%ADD11R,2.640000X2.640000*%
%TD*%
%TA.AperFunction,ComponentPad*%
%ADD12C,2.640000*%
%TD*%
%TA.AperFunction,ComponentPad*%
%ADD13RoundRect,0.250000X0.350000X0.625000X-0.350000X0.625000X-0.350000X-0.625000X0.350000X-0.625000X0*%
%TD*%
%TA.AperFunction,ComponentPad*%
%ADD14O,1.200000X1.750000*%
%TD*%
%TA.AperFunction,ComponentPad*%
%ADD15RoundRect,0.425000X-1.075000X-0.425000X1.075000X-0.425000X1.075000X0.425000X-1.075000X0.425000X0*%
%TD*%
%TA.AperFunction,ComponentPad*%
%ADD16O,2.000000X0.822200*%
%TD*%
%TA.AperFunction,ComponentPad*%
%ADD17O,2.000000X0.898400*%
%TD*%
%TA.AperFunction,ViaPad*%
%ADD18C,0.685800*%
%TD*%
%TA.AperFunction,ViaPad*%
%ADD19C,0.889000*%
%TD*%
G04 APERTURE END LIST*
D10*
%TO.N,USB_D-*%
%TO.C,J3*%
X1480000Y-24490000D03*
%TO.N,GNDA*%
X4020000Y-24490000D03*
%TO.N,USB_D+*%
X6560000Y-24490000D03*
%TO.N,GNDA*%
X1480000Y-10490000D03*
%TO.N,5V USB*%
X4020000Y-10490000D03*
%TO.N,Net-(J3-CC)*%
X6560000Y-10490000D03*
%TD*%
D11*
%TO.N,S+*%
%TO.C,J1*%
X48850000Y-9750000D03*
D12*
%TO.N,S-*%
X53300000Y-9750000D03*
%TO.N,Gage Excitation*%
X53300000Y-18870000D03*
%TO.N,GNDA*%
X48850000Y-18870000D03*
%TD*%
D13*
%TO.N,BAT-*%
%TO.C,J4*%
X36740000Y-26670000D03*
D14*
%TO.N,BAT+*%
X34740000Y-26670000D03*
%TD*%
D15*
%TO.N,GNDA*%
%TO.C,U1*%
X27161700Y-16916400D03*
%TO.N,BAT+*%
X27161700Y-19456400D03*
D10*
%TO.N,unconnected-(U1-MTDO-Pad17)*%
X12988500Y-18948400D03*
%TO.N,unconnected-(U1-MTDI-Pad18)*%
X13016500Y-16408400D03*
%TO.N,unconnected-(U1-GND-Pad19)*%
X15528500Y-18948400D03*
%TO.N,unconnected-(U1-EN-Pad20)*%
X15528500Y-16408400D03*
%TO.N,unconnected-(U1-MTCK-Pad21)*%
X18068500Y-18948400D03*
%TO.N,unconnected-(U1-MTMS-Pad22)*%
X18068500Y-16408400D03*
%TO.N,unconnected-(U1-3v3-Pad23)*%
X20608500Y-18948400D03*
%TO.N,unconnected-(U1-BOOT-Pad24)*%
X20551700Y-16501000D03*
%TD*%
D16*
%TO.N,unconnected-(J2-PadMH1)*%
%TO.C,J2*%
X2440000Y-720000D03*
D17*
%TO.N,unconnected-(J2-PadMH2)*%
X2440000Y-8220000D03*
%TD*%
D18*
%TO.N,GNDA*%
X36530000Y-6640000D03*
X35310000Y-6710000D03*
X15860000Y-11530000D03*
X39740000Y-14450000D03*
X26200000Y-3585000D03*
X42550000Y-20590000D03*
X10750000Y-8300000D03*
X11590000Y-3730000D03*
X42100000Y-21720000D03*
X42030000Y-23110000D03*
X11670000Y-2480000D03*
X37280000Y-6290000D03*
X42920000Y-19310000D03*
X23596600Y-4760000D03*
X9540000Y-23580000D03*
X42780000Y-17760000D03*
X43810000Y-2290000D03*
X39660000Y-25370000D03*
X40540000Y-14260000D03*
X39810000Y-13470000D03*
X38490000Y-4136900D03*
X39640000Y-23030000D03*
X39906100Y-5930000D03*
X16590000Y-12600000D03*
X40050000Y-3610000D03*
X14090000Y-950000D03*
X36620000Y-10580000D03*
X17300000Y-11530000D03*
X47950000Y-27790000D03*
%TO.N,5V5*%
X9290000Y-12310000D03*
X16310000Y-4540000D03*
X39370000Y-19700000D03*
X39700000Y-24150000D03*
X39650000Y-26760000D03*
X35850000Y-890000D03*
X39180000Y-16200000D03*
%TO.N,DAC Bias*%
X38150000Y-5360000D03*
X42625000Y-2095000D03*
X38160000Y-12140000D03*
%TO.N,3V3*%
X31913400Y-2480000D03*
X32000000Y-16190000D03*
X19030000Y-11550000D03*
X29150000Y-3560000D03*
X19700000Y-12680000D03*
X29160000Y-2250000D03*
X23440000Y-3640000D03*
X21880000Y-27730000D03*
X18300000Y-12730000D03*
%TO.N,ADC DReady*%
X19540000Y-22590000D03*
X34160000Y-2240000D03*
%TO.N,MISO*%
X23540000Y-6066600D03*
X31884079Y-4925516D03*
%TO.N,CS-ADC*%
X34080000Y-5530000D03*
X24140000Y-21650000D03*
%TO.N,2V5 Lin*%
X45060000Y-2840000D03*
X48310000Y-25010000D03*
%TO.N,5V Lin*%
X41720000Y-5150000D03*
X39610000Y-9580000D03*
X39346900Y-7120000D03*
X45433900Y-18580000D03*
%TO.N,CS-MEM*%
X18870000Y-27700000D03*
X23390000Y-2150000D03*
%TO.N,Net-(PS2-FB)*%
X15560000Y-7140000D03*
X11250000Y-10200000D03*
%TO.N,CS-DAC*%
X36380000Y-9440000D03*
X17860000Y-23550000D03*
%TO.N,Net-(J3-CC)*%
X9730000Y-20530000D03*
D19*
%TO.N,BAT-*%
X11800000Y-7900000D03*
X11832994Y-6132994D03*
D18*
%TO.N,MOSI_ADC*%
X20953012Y-7214053D03*
X31548247Y-6252957D03*
%TO.N,SCLK_ADC*%
X32735000Y-6705000D03*
X27360000Y-6743400D03*
%TO.N,Gage Excitation*%
X37120000Y-910000D03*
%TD*%
%TA.AperFunction,Conductor*%
%TO.N,GNDA*%
G36*
X37980000Y-4919656D02*
G01*
X37952580Y-4927708D01*
X37838788Y-5000838D01*
X37838783Y-5000842D01*
X37750209Y-5103061D01*
X37750203Y-5103071D01*
X37694013Y-5226106D01*
X37694012Y-5226111D01*
X37674763Y-5360000D01*
X37694012Y-5493888D01*
X37694013Y-5493893D01*
X37740571Y-5595838D01*
X37750205Y-5616933D01*
X37750208Y-5616936D01*
X37750209Y-5616938D01*
X37790893Y-5663890D01*
X37838786Y-5719160D01*
X37952579Y-5792291D01*
X37980000Y-5800342D01*
X37980000Y-7290000D01*
X37420464Y-7280654D01*
X37420000Y-6990000D01*
X34720000Y-6940000D01*
X34712028Y-7235420D01*
X33190000Y-7210000D01*
X33191981Y-6831969D01*
X33210237Y-6705000D01*
X33193267Y-6586968D01*
X33198811Y-5530000D01*
X33604763Y-5530000D01*
X33624012Y-5663888D01*
X33624013Y-5663893D01*
X33649254Y-5719161D01*
X33680205Y-5786933D01*
X33680208Y-5786936D01*
X33680209Y-5786938D01*
X33717869Y-5830400D01*
X33768786Y-5889160D01*
X33882579Y-5962291D01*
X33947473Y-5981345D01*
X34012366Y-6000400D01*
X34012367Y-6000400D01*
X34147633Y-6000400D01*
X34277421Y-5962291D01*
X34391214Y-5889160D01*
X34479795Y-5786933D01*
X34535987Y-5663890D01*
X34555237Y-5530000D01*
X34535987Y-5396110D01*
X34535986Y-5396109D01*
X34535986Y-5396106D01*
X34507891Y-5334588D01*
X34479795Y-5273067D01*
X34391214Y-5170840D01*
X34277421Y-5097709D01*
X34277420Y-5097708D01*
X34277419Y-5097708D01*
X34147634Y-5059600D01*
X34147633Y-5059600D01*
X34012367Y-5059600D01*
X34012366Y-5059600D01*
X33882580Y-5097708D01*
X33768788Y-5170838D01*
X33768783Y-5170842D01*
X33680209Y-5273061D01*
X33680203Y-5273071D01*
X33624013Y-5396106D01*
X33624012Y-5396111D01*
X33604763Y-5530000D01*
X33198811Y-5530000D01*
X33216066Y-2240000D01*
X33684763Y-2240000D01*
X33704012Y-2373888D01*
X33704013Y-2373893D01*
X33750571Y-2475838D01*
X33760205Y-2496933D01*
X33848786Y-2599160D01*
X33962579Y-2672291D01*
X34027473Y-2691345D01*
X34092366Y-2710400D01*
X34092367Y-2710400D01*
X34227633Y-2710400D01*
X34357421Y-2672291D01*
X34471214Y-2599160D01*
X34559795Y-2496933D01*
X34615987Y-2373890D01*
X34635237Y-2240000D01*
X34615987Y-2106110D01*
X34615986Y-2106109D01*
X34615986Y-2106106D01*
X34587891Y-2044588D01*
X34559795Y-1983067D01*
X34471214Y-1880840D01*
X34357421Y-1807709D01*
X34357420Y-1807708D01*
X34357419Y-1807708D01*
X34227634Y-1769600D01*
X34227633Y-1769600D01*
X34092367Y-1769600D01*
X34092366Y-1769600D01*
X33962580Y-1807708D01*
X33848788Y-1880838D01*
X33848783Y-1880842D01*
X33760209Y-1983061D01*
X33760203Y-1983071D01*
X33704013Y-2106106D01*
X33704012Y-2106111D01*
X33684763Y-2240000D01*
X33216066Y-2240000D01*
X33220000Y-1490000D01*
X37980000Y-1400000D01*
X37980000Y-4919656D01*
G37*
%TD.AperFunction*%
%TD*%
%TA.AperFunction,Conductor*%
%TO.N,GNDA*%
G36*
X44580000Y-25110000D02*
G01*
X39630000Y-24990000D01*
X39626143Y-24622133D01*
X39662790Y-24622232D01*
X39679515Y-24620400D01*
X39767633Y-24620400D01*
X39897421Y-24582291D01*
X40011214Y-24509160D01*
X40099795Y-24406933D01*
X40155987Y-24283890D01*
X40175237Y-24150000D01*
X40155987Y-24016110D01*
X40155986Y-24016109D01*
X40155986Y-24016106D01*
X40127891Y-23954588D01*
X40099795Y-23893067D01*
X40011214Y-23790840D01*
X39897421Y-23717709D01*
X39897420Y-23717708D01*
X39897419Y-23717708D01*
X39767634Y-23679600D01*
X39767633Y-23679600D01*
X39632367Y-23679600D01*
X39632363Y-23679600D01*
X39616313Y-23684312D01*
X39580000Y-20220000D01*
X44590000Y-20160000D01*
X44580000Y-25110000D01*
G37*
%TD.AperFunction*%
%TD*%
%TA.AperFunction,Conductor*%
%TO.N,GNDA*%
G36*
X52835736Y-100726D02*
G01*
X53118567Y-117834D01*
X53133424Y-119638D01*
X53408436Y-170035D01*
X53422972Y-173618D01*
X53689898Y-256796D01*
X53703891Y-262103D01*
X53958859Y-376854D01*
X53972105Y-383807D01*
X54211381Y-528454D01*
X54223692Y-536952D01*
X54443786Y-709384D01*
X54454994Y-719314D01*
X54652685Y-917005D01*
X54662615Y-928213D01*
X54753244Y-1043893D01*
X54835043Y-1148301D01*
X54843549Y-1160624D01*
X54988189Y-1399888D01*
X54995148Y-1413147D01*
X55109895Y-1668105D01*
X55115204Y-1682105D01*
X55198380Y-1949025D01*
X55201964Y-1963565D01*
X55252360Y-2238571D01*
X55254165Y-2253435D01*
X55271274Y-2536263D01*
X55271500Y-2543750D01*
X55271500Y-26062999D01*
X55271274Y-26070486D01*
X55254165Y-26353314D01*
X55252360Y-26368178D01*
X55201964Y-26643184D01*
X55198380Y-26657724D01*
X55115204Y-26924644D01*
X55109895Y-26938644D01*
X54995148Y-27193602D01*
X54988189Y-27206861D01*
X54843549Y-27446125D01*
X54835043Y-27458448D01*
X54662615Y-27678536D01*
X54652685Y-27689744D01*
X54454994Y-27887435D01*
X54443786Y-27897365D01*
X54223698Y-28069793D01*
X54211375Y-28078299D01*
X53972111Y-28222939D01*
X53958852Y-28229898D01*
X53703894Y-28344645D01*
X53689894Y-28349954D01*
X53422974Y-28433130D01*
X53408434Y-28436714D01*
X53133428Y-28487110D01*
X53118564Y-28488915D01*
X52835736Y-28506024D01*
X52828249Y-28506250D01*
X39009240Y-28506250D01*
X38942201Y-28486565D01*
X38896446Y-28433761D01*
X38885253Y-28384070D01*
X38861413Y-26760000D01*
X39174763Y-26760000D01*
X39194012Y-26893888D01*
X39194013Y-26893893D01*
X39240571Y-26995838D01*
X39250205Y-27016933D01*
X39338786Y-27119160D01*
X39452579Y-27192291D01*
X39480339Y-27200442D01*
X39582366Y-27230400D01*
X39582367Y-27230400D01*
X39717633Y-27230400D01*
X39847421Y-27192291D01*
X39961214Y-27119160D01*
X40049795Y-27016933D01*
X40105987Y-26893890D01*
X40125237Y-26760000D01*
X40105987Y-26626110D01*
X40105986Y-26626109D01*
X40105986Y-26626106D01*
X40077891Y-26564588D01*
X40049795Y-26503067D01*
X39961214Y-26400840D01*
X39847421Y-26327709D01*
X39847420Y-26327708D01*
X39847419Y-26327708D01*
X39717634Y-26289600D01*
X39717633Y-26289600D01*
X39582367Y-26289600D01*
X39582366Y-26289600D01*
X39452580Y-26327708D01*
X39338788Y-26400838D01*
X39338783Y-26400842D01*
X39250209Y-26503061D01*
X39250203Y-26503071D01*
X39194013Y-26626106D01*
X39194012Y-26626111D01*
X39174763Y-26760000D01*
X38861413Y-26760000D01*
X38841762Y-25421334D01*
X38831851Y-24746155D01*
X38850550Y-24678837D01*
X38902677Y-24632312D01*
X38956168Y-24620338D01*
X39626143Y-24622134D01*
X39630000Y-24990000D01*
X44580000Y-25110000D01*
X44580202Y-25010000D01*
X47834763Y-25010000D01*
X47854012Y-25143888D01*
X47854013Y-25143893D01*
X47900571Y-25245838D01*
X47910205Y-25266933D01*
X47998786Y-25369160D01*
X48112579Y-25442291D01*
X48177473Y-25461345D01*
X48242366Y-25480400D01*
X48242367Y-25480400D01*
X48377633Y-25480400D01*
X48507421Y-25442291D01*
X48621214Y-25369160D01*
X48709795Y-25266933D01*
X48765987Y-25143890D01*
X48785237Y-25010000D01*
X48765987Y-24876110D01*
X48765986Y-24876109D01*
X48765986Y-24876106D01*
X48737891Y-24814588D01*
X48709795Y-24753067D01*
X48621214Y-24650840D01*
X48572108Y-24619281D01*
X49742500Y-24619281D01*
X49742500Y-24828718D01*
X49775261Y-25035560D01*
X49839975Y-25234732D01*
X49935054Y-25421334D01*
X50058152Y-25590762D01*
X50206238Y-25738848D01*
X50375666Y-25861946D01*
X50520605Y-25935796D01*
X50562267Y-25957024D01*
X50661853Y-25989381D01*
X50761441Y-26021739D01*
X50857240Y-26036912D01*
X50968282Y-26054500D01*
X50968287Y-26054500D01*
X51177718Y-26054500D01*
X51277992Y-26038617D01*
X51384559Y-26021739D01*
X51583735Y-25957023D01*
X51770334Y-25861946D01*
X51939762Y-25738848D01*
X52087848Y-25590762D01*
X52210946Y-25421334D01*
X52306023Y-25234735D01*
X52370739Y-25035559D01*
X52395993Y-24876111D01*
X52403500Y-24828718D01*
X52403500Y-24619281D01*
X52384440Y-24498951D01*
X52370739Y-24412441D01*
X52306023Y-24213265D01*
X52210946Y-24026666D01*
X52087848Y-23857238D01*
X51939762Y-23709152D01*
X51770334Y-23586054D01*
X51583732Y-23490975D01*
X51384560Y-23426261D01*
X51177718Y-23393500D01*
X51177713Y-23393500D01*
X50968287Y-23393500D01*
X50968282Y-23393500D01*
X50761439Y-23426261D01*
X50562267Y-23490975D01*
X50375665Y-23586054D01*
X50206236Y-23709153D01*
X50058153Y-23857236D01*
X49935054Y-24026665D01*
X49839975Y-24213267D01*
X49775261Y-24412439D01*
X49742500Y-24619281D01*
X48572108Y-24619281D01*
X48507421Y-24577709D01*
X48507420Y-24577708D01*
X48507419Y-24577708D01*
X48377634Y-24539600D01*
X48377633Y-24539600D01*
X48242367Y-24539600D01*
X48242366Y-24539600D01*
X48112580Y-24577708D01*
X47998788Y-24650838D01*
X47998783Y-24650842D01*
X47910209Y-24753061D01*
X47910203Y-24753071D01*
X47854013Y-24876106D01*
X47854012Y-24876111D01*
X47834763Y-25010000D01*
X44580202Y-25010000D01*
X44590000Y-20160000D01*
X39580000Y-20220000D01*
X39584985Y-20695647D01*
X39584984Y-20695646D01*
X36499886Y-20660611D01*
X36433074Y-20640166D01*
X36387922Y-20586846D01*
X36377309Y-20538544D01*
X36364308Y-19700000D01*
X38894763Y-19700000D01*
X38914012Y-19833888D01*
X38914013Y-19833893D01*
X38960571Y-19935838D01*
X38970205Y-19956933D01*
X39058786Y-20059160D01*
X39172579Y-20132291D01*
X39237473Y-20151345D01*
X39302366Y-20170400D01*
X39302367Y-20170400D01*
X39437633Y-20170400D01*
X39567421Y-20132291D01*
X39681214Y-20059160D01*
X39769795Y-19956933D01*
X39825987Y-19833890D01*
X39845237Y-19700000D01*
X39825987Y-19566110D01*
X39825986Y-19566109D01*
X39825986Y-19566106D01*
X39797891Y-19504588D01*
X39769795Y-19443067D01*
X39681214Y-19340840D01*
X39567421Y-19267709D01*
X39567420Y-19267708D01*
X39567419Y-19267708D01*
X39437634Y-19229600D01*
X39437633Y-19229600D01*
X39302367Y-19229600D01*
X39302366Y-19229600D01*
X39172580Y-19267708D01*
X39058788Y-19340838D01*
X39058783Y-19340842D01*
X38970209Y-19443061D01*
X38970203Y-19443071D01*
X38914013Y-19566106D01*
X38914012Y-19566111D01*
X38894763Y-19700000D01*
X36364308Y-19700000D01*
X36346944Y-18580000D01*
X44958663Y-18580000D01*
X44977912Y-18713888D01*
X44977913Y-18713893D01*
X45024471Y-18815838D01*
X45034105Y-18836933D01*
X45034108Y-18836936D01*
X45034109Y-18836938D01*
X45062752Y-18869994D01*
X45122686Y-18939160D01*
X45236479Y-19012291D01*
X45301373Y-19031345D01*
X45366266Y-19050400D01*
X45366267Y-19050400D01*
X45501533Y-19050400D01*
X45631321Y-19012291D01*
X45745114Y-18939160D01*
X45805047Y-18869994D01*
X51847539Y-18869994D01*
X51847539Y-18870005D01*
X51867348Y-19109063D01*
X51926237Y-19341613D01*
X52022598Y-19561294D01*
X52153801Y-19762117D01*
X52316277Y-19938612D01*
X52316281Y-19938615D01*
X52471153Y-20059157D01*
X52505579Y-20085952D01*
X52505581Y-20085953D01*
X52505584Y-20085955D01*
X52591206Y-20132291D01*
X52716553Y-20200125D01*
X52829997Y-20239070D01*
X52943438Y-20278015D01*
X52943440Y-20278015D01*
X52943442Y-20278016D01*
X53180057Y-20317500D01*
X53180058Y-20317500D01*
X53419942Y-20317500D01*
X53419943Y-20317500D01*
X53656558Y-20278016D01*
X53883447Y-20200125D01*
X54094421Y-20085952D01*
X54283725Y-19938610D01*
X54446196Y-19762120D01*
X54577401Y-19561295D01*
X54673763Y-19341613D01*
X54732651Y-19109067D01*
X54746730Y-18939160D01*
X54752461Y-18870005D01*
X54752461Y-18869994D01*
X54732651Y-18630936D01*
X54732651Y-18630933D01*
X54673763Y-18398387D01*
X54577401Y-18178705D01*
X54532253Y-18109600D01*
X54446198Y-17977882D01*
X54283722Y-17801387D01*
X54283718Y-17801384D01*
X54094424Y-17654050D01*
X54094415Y-17654044D01*
X53883453Y-17539878D01*
X53883450Y-17539876D01*
X53883447Y-17539875D01*
X53883444Y-17539874D01*
X53883442Y-17539873D01*
X53656561Y-17461984D01*
X53479096Y-17432371D01*
X53419943Y-17422500D01*
X53180057Y-17422500D01*
X53132734Y-17430396D01*
X52943438Y-17461984D01*
X52716557Y-17539873D01*
X52716546Y-17539878D01*
X52505584Y-17654044D01*
X52505575Y-17654050D01*
X52316281Y-17801384D01*
X52316277Y-17801387D01*
X52153801Y-17977882D01*
X52022598Y-18178705D01*
X51926237Y-18398386D01*
X51867348Y-18630936D01*
X51847539Y-18869994D01*
X45805047Y-18869994D01*
X45833695Y-18836933D01*
X45889887Y-18713890D01*
X45909137Y-18580000D01*
X45889887Y-18446110D01*
X45889886Y-18446109D01*
X45889886Y-18446106D01*
X45861791Y-18384588D01*
X45833695Y-18323067D01*
X45745114Y-18220840D01*
X45631321Y-18147709D01*
X45631320Y-18147708D01*
X45631319Y-18147708D01*
X45501534Y-18109600D01*
X45501533Y-18109600D01*
X45366267Y-18109600D01*
X45366266Y-18109600D01*
X45236480Y-18147708D01*
X45122688Y-18220838D01*
X45122683Y-18220842D01*
X45034109Y-18323061D01*
X45034103Y-18323071D01*
X44977913Y-18446106D01*
X44977912Y-18446111D01*
X44958663Y-18580000D01*
X36346944Y-18580000D01*
X36310045Y-16200000D01*
X38704763Y-16200000D01*
X38724012Y-16333888D01*
X38724013Y-16333893D01*
X38770571Y-16435838D01*
X38780205Y-16456933D01*
X38868786Y-16559160D01*
X38982579Y-16632291D01*
X39047473Y-16651345D01*
X39112366Y-16670400D01*
X39112367Y-16670400D01*
X39247633Y-16670400D01*
X39377421Y-16632291D01*
X39491214Y-16559160D01*
X39579795Y-16456933D01*
X39635987Y-16333890D01*
X39655237Y-16200000D01*
X39635987Y-16066110D01*
X39635986Y-16066109D01*
X39635986Y-16066106D01*
X39607891Y-16004588D01*
X39579795Y-15943067D01*
X39491214Y-15840840D01*
X39377421Y-15767709D01*
X39377420Y-15767708D01*
X39377419Y-15767708D01*
X39247634Y-15729600D01*
X39247633Y-15729600D01*
X39112367Y-15729600D01*
X39112366Y-15729600D01*
X38982580Y-15767708D01*
X38868788Y-15840838D01*
X38868783Y-15840842D01*
X38780209Y-15943061D01*
X38780203Y-15943071D01*
X38724013Y-16066106D01*
X38724012Y-16066111D01*
X38704763Y-16200000D01*
X36310045Y-16200000D01*
X36264246Y-13245952D01*
X37430000Y-13250000D01*
X37428227Y-12140000D01*
X37684763Y-12140000D01*
X37704012Y-12273888D01*
X37704013Y-12273893D01*
X37750571Y-12375838D01*
X37760205Y-12396933D01*
X37848786Y-12499160D01*
X37962579Y-12572291D01*
X38027473Y-12591345D01*
X38092366Y-12610400D01*
X38092367Y-12610400D01*
X38227633Y-12610400D01*
X38357421Y-12572291D01*
X38471214Y-12499160D01*
X38559795Y-12396933D01*
X38615987Y-12273890D01*
X38635237Y-12140000D01*
X38615987Y-12006110D01*
X38615986Y-12006109D01*
X38615986Y-12006106D01*
X38587891Y-11944588D01*
X38559795Y-11883067D01*
X38471214Y-11780840D01*
X38357421Y-11707709D01*
X38357420Y-11707708D01*
X38357419Y-11707708D01*
X38227634Y-11669600D01*
X38227633Y-11669600D01*
X38092367Y-11669600D01*
X38092366Y-11669600D01*
X37962580Y-11707708D01*
X37848788Y-11780838D01*
X37848783Y-11780842D01*
X37760209Y-11883061D01*
X37760203Y-11883071D01*
X37704013Y-12006106D01*
X37704012Y-12006111D01*
X37684763Y-12140000D01*
X37428227Y-12140000D01*
X37424137Y-9580000D01*
X39134763Y-9580000D01*
X39154012Y-9713888D01*
X39154013Y-9713893D01*
X39200571Y-9815838D01*
X39210205Y-9836933D01*
X39298786Y-9939160D01*
X39412579Y-10012291D01*
X39477473Y-10031345D01*
X39542366Y-10050400D01*
X39542367Y-10050400D01*
X39677633Y-10050400D01*
X39807421Y-10012291D01*
X39921214Y-9939160D01*
X40009795Y-9836933D01*
X40065987Y-9713890D01*
X40085237Y-9580000D01*
X40065987Y-9446110D01*
X40065986Y-9446109D01*
X40065986Y-9446106D01*
X40037891Y-9384588D01*
X40009795Y-9323067D01*
X40009790Y-9323061D01*
X39921216Y-9220842D01*
X39921211Y-9220838D01*
X39898283Y-9206103D01*
X39807421Y-9147709D01*
X39807420Y-9147708D01*
X39807419Y-9147708D01*
X39677634Y-9109600D01*
X39677633Y-9109600D01*
X39542367Y-9109600D01*
X39542366Y-9109600D01*
X39412580Y-9147708D01*
X39298788Y-9220838D01*
X39298783Y-9220842D01*
X39210209Y-9323061D01*
X39210203Y-9323071D01*
X39154013Y-9446106D01*
X39154012Y-9446111D01*
X39134763Y-9580000D01*
X37424137Y-9580000D01*
X37422280Y-8417441D01*
X47402500Y-8417441D01*
X47402500Y-11082558D01*
X47409898Y-11119749D01*
X47438077Y-11161922D01*
X47480250Y-11190101D01*
X47480252Y-11190102D01*
X47508205Y-11195662D01*
X47517441Y-11197500D01*
X47517442Y-11197500D01*
X50182559Y-11197500D01*
X50189957Y-11196028D01*
X50219748Y-11190102D01*
X50261922Y-11161922D01*
X50290102Y-11119748D01*
X50297500Y-11082558D01*
X50297500Y-9749994D01*
X51847539Y-9749994D01*
X51847539Y-9750005D01*
X51867348Y-9989063D01*
X51926237Y-10221613D01*
X52022598Y-10441294D01*
X52153801Y-10642117D01*
X52316277Y-10818612D01*
X52316281Y-10818615D01*
X52505579Y-10965952D01*
X52505581Y-10965953D01*
X52505584Y-10965955D01*
X52628231Y-11032328D01*
X52716553Y-11080125D01*
X52829997Y-11119070D01*
X52943438Y-11158015D01*
X52943440Y-11158015D01*
X52943442Y-11158016D01*
X53180057Y-11197500D01*
X53180058Y-11197500D01*
X53419942Y-11197500D01*
X53419943Y-11197500D01*
X53656558Y-11158016D01*
X53883447Y-11080125D01*
X54094421Y-10965952D01*
X54283725Y-10818610D01*
X54446196Y-10642120D01*
X54577401Y-10441295D01*
X54673763Y-10221613D01*
X54732651Y-9989067D01*
X54745257Y-9836938D01*
X54752461Y-9750005D01*
X54752461Y-9749994D01*
X54732651Y-9510936D01*
X54732651Y-9510933D01*
X54673763Y-9278387D01*
X54577401Y-9058705D01*
X54519186Y-8969600D01*
X54446198Y-8857882D01*
X54283722Y-8681387D01*
X54283718Y-8681384D01*
X54094424Y-8534050D01*
X54094415Y-8534044D01*
X53883453Y-8419878D01*
X53883450Y-8419876D01*
X53883447Y-8419875D01*
X53883444Y-8419874D01*
X53883442Y-8419873D01*
X53656561Y-8341984D01*
X53464277Y-8309898D01*
X53419943Y-8302500D01*
X53180057Y-8302500D01*
X53135723Y-8309898D01*
X52943438Y-8341984D01*
X52716557Y-8419873D01*
X52716546Y-8419878D01*
X52505584Y-8534044D01*
X52505575Y-8534050D01*
X52316281Y-8681384D01*
X52316277Y-8681387D01*
X52153801Y-8857882D01*
X52022598Y-9058705D01*
X51926237Y-9278386D01*
X51867348Y-9510936D01*
X51847539Y-9749994D01*
X50297500Y-9749994D01*
X50297500Y-8417442D01*
X50290102Y-8380252D01*
X50290101Y-8380250D01*
X50261922Y-8338077D01*
X50219749Y-8309898D01*
X50182559Y-8302500D01*
X50182558Y-8302500D01*
X47517442Y-8302500D01*
X47517441Y-8302500D01*
X47480250Y-8309898D01*
X47438077Y-8338077D01*
X47409898Y-8380250D01*
X47402500Y-8417441D01*
X37422280Y-8417441D01*
X37420464Y-7280654D01*
X37980000Y-7290000D01*
X37980000Y-7120000D01*
X38871663Y-7120000D01*
X38890912Y-7253888D01*
X38890913Y-7253893D01*
X38937471Y-7355838D01*
X38947105Y-7376933D01*
X39035686Y-7479160D01*
X39149479Y-7552291D01*
X39214373Y-7571345D01*
X39279266Y-7590400D01*
X39279267Y-7590400D01*
X39414533Y-7590400D01*
X39544321Y-7552291D01*
X39658114Y-7479160D01*
X39746695Y-7376933D01*
X39802887Y-7253890D01*
X39822137Y-7120000D01*
X39802887Y-6986110D01*
X39802886Y-6986109D01*
X39802886Y-6986106D01*
X39774791Y-6924588D01*
X39746695Y-6863067D01*
X39658114Y-6760840D01*
X39544321Y-6687709D01*
X39544320Y-6687708D01*
X39544319Y-6687708D01*
X39414534Y-6649600D01*
X39414533Y-6649600D01*
X39279267Y-6649600D01*
X39279266Y-6649600D01*
X39149480Y-6687708D01*
X39035688Y-6760838D01*
X39035683Y-6760842D01*
X38947109Y-6863061D01*
X38947103Y-6863071D01*
X38890913Y-6986106D01*
X38890912Y-6986111D01*
X38871663Y-7120000D01*
X37980000Y-7120000D01*
X37980000Y-5800342D01*
X38017473Y-5811345D01*
X38082366Y-5830400D01*
X38082367Y-5830400D01*
X38217633Y-5830400D01*
X38347421Y-5792291D01*
X38461214Y-5719160D01*
X38549795Y-5616933D01*
X38599013Y-5509161D01*
X38605986Y-5493893D01*
X38605987Y-5493888D01*
X38625237Y-5360000D01*
X38605987Y-5226110D01*
X38605986Y-5226109D01*
X38605986Y-5226106D01*
X38577891Y-5164588D01*
X38571229Y-5150000D01*
X41244763Y-5150000D01*
X41264012Y-5283888D01*
X41264013Y-5283893D01*
X41298771Y-5360000D01*
X41320205Y-5406933D01*
X41320208Y-5406936D01*
X41320209Y-5406938D01*
X41395552Y-5493888D01*
X41408786Y-5509160D01*
X41522579Y-5582291D01*
X41587473Y-5601345D01*
X41652366Y-5620400D01*
X41652367Y-5620400D01*
X41787633Y-5620400D01*
X41917421Y-5582291D01*
X42031214Y-5509160D01*
X42119795Y-5406933D01*
X42175987Y-5283890D01*
X42195237Y-5150000D01*
X42175987Y-5016110D01*
X42175986Y-5016109D01*
X42175986Y-5016106D01*
X42147891Y-4954588D01*
X42119795Y-4893067D01*
X42031214Y-4790840D01*
X41917421Y-4717709D01*
X41917420Y-4717708D01*
X41917419Y-4717708D01*
X41787634Y-4679600D01*
X41787633Y-4679600D01*
X41652367Y-4679600D01*
X41652366Y-4679600D01*
X41522580Y-4717708D01*
X41408788Y-4790838D01*
X41408783Y-4790842D01*
X41320209Y-4893061D01*
X41320203Y-4893071D01*
X41264013Y-5016106D01*
X41264012Y-5016111D01*
X41244763Y-5150000D01*
X38571229Y-5150000D01*
X38549795Y-5103067D01*
X38461214Y-5000840D01*
X38347421Y-4927709D01*
X38347420Y-4927708D01*
X38347419Y-4927708D01*
X38217634Y-4889600D01*
X38217633Y-4889600D01*
X38082367Y-4889600D01*
X38082366Y-4889600D01*
X37980000Y-4919656D01*
X37980000Y-3789281D01*
X49742500Y-3789281D01*
X49742500Y-3998718D01*
X49775261Y-4205560D01*
X49839975Y-4404732D01*
X49839977Y-4404735D01*
X49935054Y-4591334D01*
X50058152Y-4760762D01*
X50206238Y-4908848D01*
X50375666Y-5031946D01*
X50515237Y-5103061D01*
X50562267Y-5127024D01*
X50632981Y-5150000D01*
X50761441Y-5191739D01*
X50857240Y-5206912D01*
X50968282Y-5224500D01*
X50968287Y-5224500D01*
X51177718Y-5224500D01*
X51277992Y-5208617D01*
X51384559Y-5191739D01*
X51583735Y-5127023D01*
X51770334Y-5031946D01*
X51939762Y-4908848D01*
X52087848Y-4760762D01*
X52210946Y-4591334D01*
X52306023Y-4404735D01*
X52370739Y-4205559D01*
X52387617Y-4098992D01*
X52403500Y-3998718D01*
X52403500Y-3789281D01*
X52384440Y-3668951D01*
X52370739Y-3582441D01*
X52306023Y-3383265D01*
X52210946Y-3196666D01*
X52087848Y-3027238D01*
X51939762Y-2879152D01*
X51770334Y-2756054D01*
X51583732Y-2660975D01*
X51384560Y-2596261D01*
X51177718Y-2563500D01*
X51177713Y-2563500D01*
X50968287Y-2563500D01*
X50968282Y-2563500D01*
X50761439Y-2596261D01*
X50562267Y-2660975D01*
X50375665Y-2756054D01*
X50206236Y-2879153D01*
X50058153Y-3027236D01*
X49935054Y-3196665D01*
X49839975Y-3383267D01*
X49775261Y-3582439D01*
X49742500Y-3789281D01*
X37980000Y-3789281D01*
X37980000Y-2840000D01*
X44584763Y-2840000D01*
X44604012Y-2973888D01*
X44604013Y-2973893D01*
X44628375Y-3027236D01*
X44660205Y-3096933D01*
X44748786Y-3199160D01*
X44862579Y-3272291D01*
X44927473Y-3291345D01*
X44992366Y-3310400D01*
X44992367Y-3310400D01*
X45127633Y-3310400D01*
X45257421Y-3272291D01*
X45371214Y-3199160D01*
X45459795Y-3096933D01*
X45515987Y-2973890D01*
X45535237Y-2840000D01*
X45515987Y-2706110D01*
X45515986Y-2706109D01*
X45515986Y-2706106D01*
X45487891Y-2644588D01*
X45459795Y-2583067D01*
X45459790Y-2583061D01*
X45371216Y-2480842D01*
X45371211Y-2480838D01*
X45257419Y-2407708D01*
X45127634Y-2369600D01*
X45127633Y-2369600D01*
X44992367Y-2369600D01*
X44992366Y-2369600D01*
X44862580Y-2407708D01*
X44748788Y-2480838D01*
X44748783Y-2480842D01*
X44660209Y-2583061D01*
X44660203Y-2583071D01*
X44604013Y-2706106D01*
X44604012Y-2706111D01*
X44584763Y-2840000D01*
X37980000Y-2840000D01*
X37980000Y-2095000D01*
X42149763Y-2095000D01*
X42169012Y-2228888D01*
X42169013Y-2228893D01*
X42215571Y-2330838D01*
X42225205Y-2351933D01*
X42225208Y-2351936D01*
X42225209Y-2351938D01*
X42273535Y-2407709D01*
X42313786Y-2454160D01*
X42427579Y-2527291D01*
X42492473Y-2546345D01*
X42557366Y-2565400D01*
X42557367Y-2565400D01*
X42692633Y-2565400D01*
X42822421Y-2527291D01*
X42936214Y-2454160D01*
X43024795Y-2351933D01*
X43069778Y-2253435D01*
X43080986Y-2228893D01*
X43080987Y-2228888D01*
X43100237Y-2095000D01*
X43080987Y-1961110D01*
X43080986Y-1961109D01*
X43080986Y-1961106D01*
X43052891Y-1899588D01*
X43024795Y-1838067D01*
X42936214Y-1735840D01*
X42822421Y-1662709D01*
X42822420Y-1662708D01*
X42822419Y-1662708D01*
X42692634Y-1624600D01*
X42692633Y-1624600D01*
X42557367Y-1624600D01*
X42557366Y-1624600D01*
X42427580Y-1662708D01*
X42313788Y-1735838D01*
X42313783Y-1735842D01*
X42225209Y-1838061D01*
X42225203Y-1838071D01*
X42169013Y-1961106D01*
X42169012Y-1961111D01*
X42149763Y-2095000D01*
X37980000Y-2095000D01*
X37980000Y-1400000D01*
X36268961Y-1432351D01*
X36275590Y-1114891D01*
X36286768Y-1065972D01*
X36305987Y-1023890D01*
X36322362Y-910000D01*
X36644763Y-910000D01*
X36664012Y-1043888D01*
X36664013Y-1043893D01*
X36696438Y-1114891D01*
X36720205Y-1166933D01*
X36720208Y-1166936D01*
X36720209Y-1166938D01*
X36801479Y-1260728D01*
X36808786Y-1269160D01*
X36922579Y-1342291D01*
X36984253Y-1360400D01*
X37052366Y-1380400D01*
X37052367Y-1380400D01*
X37187633Y-1380400D01*
X37317421Y-1342291D01*
X37431214Y-1269160D01*
X37519795Y-1166933D01*
X37575987Y-1043890D01*
X37595237Y-910000D01*
X37575987Y-776110D01*
X37575986Y-776109D01*
X37575986Y-776106D01*
X37532013Y-679821D01*
X37519795Y-653067D01*
X37502465Y-633067D01*
X37431216Y-550842D01*
X37431211Y-550838D01*
X37317419Y-477708D01*
X37187634Y-439600D01*
X37187633Y-439600D01*
X37052367Y-439600D01*
X37052366Y-439600D01*
X36922580Y-477708D01*
X36808788Y-550838D01*
X36808783Y-550842D01*
X36720209Y-653061D01*
X36720203Y-653071D01*
X36664013Y-776106D01*
X36664012Y-776111D01*
X36644763Y-910000D01*
X36322362Y-910000D01*
X36325237Y-890000D01*
X36305987Y-756110D01*
X36295851Y-733917D01*
X36284673Y-679821D01*
X36293396Y-262104D01*
X36294235Y-221911D01*
X36315315Y-155297D01*
X36369063Y-110655D01*
X36418208Y-100500D01*
X52805071Y-100500D01*
X52828249Y-100500D01*
X52835736Y-100726D01*
G37*
%TD.AperFunction*%
%TD*%
%TA.AperFunction,Conductor*%
%TO.N,GNDA*%
G36*
X35628237Y-120185D02*
G01*
X35673992Y-172989D01*
X35685196Y-223717D01*
X35686105Y-367668D01*
X35666844Y-434830D01*
X35629148Y-472765D01*
X35538790Y-530836D01*
X35538783Y-530842D01*
X35450209Y-633061D01*
X35450203Y-633071D01*
X35394013Y-756106D01*
X35394012Y-756111D01*
X35374763Y-890000D01*
X35394012Y-1023888D01*
X35394013Y-1023893D01*
X35423817Y-1089152D01*
X35450205Y-1146933D01*
X35450208Y-1146936D01*
X35450209Y-1146938D01*
X35515160Y-1221895D01*
X35538786Y-1249160D01*
X35538788Y-1249161D01*
X35635770Y-1311489D01*
X35681525Y-1364293D01*
X35692728Y-1415017D01*
X35692906Y-1443242D01*
X35692906Y-1443241D01*
X35692907Y-1443243D01*
X33220000Y-1490000D01*
X33193267Y-6586972D01*
X33190987Y-6571110D01*
X33190986Y-6571109D01*
X33190986Y-6571106D01*
X33162891Y-6509588D01*
X33134795Y-6448067D01*
X33115463Y-6425757D01*
X33046216Y-6345842D01*
X33046211Y-6345838D01*
X32947374Y-6282319D01*
X32932421Y-6272709D01*
X32932420Y-6272708D01*
X32932419Y-6272708D01*
X32802634Y-6234600D01*
X32802633Y-6234600D01*
X32667367Y-6234600D01*
X32667366Y-6234600D01*
X32537580Y-6272708D01*
X32423788Y-6345838D01*
X32423783Y-6345842D01*
X32335209Y-6448061D01*
X32335203Y-6448071D01*
X32279013Y-6571106D01*
X32279012Y-6571111D01*
X32259763Y-6705000D01*
X32279012Y-6838888D01*
X32279013Y-6838893D01*
X32325571Y-6940838D01*
X32335205Y-6961933D01*
X32335208Y-6961936D01*
X32335209Y-6961938D01*
X32373485Y-7006111D01*
X32423786Y-7064160D01*
X32537579Y-7137291D01*
X32602473Y-7156345D01*
X32667366Y-7175400D01*
X32667367Y-7175400D01*
X32802633Y-7175400D01*
X32932421Y-7137291D01*
X33046214Y-7064160D01*
X33134795Y-6961933D01*
X33190987Y-6838890D01*
X33191982Y-6831964D01*
X33190000Y-7210000D01*
X34712028Y-7235419D01*
X34550000Y-13240000D01*
X36139729Y-13245519D01*
X36139729Y-13245520D01*
X36179999Y-21089998D01*
X36180000Y-21090000D01*
X39589576Y-21133572D01*
X39616313Y-23684313D01*
X39502580Y-23717708D01*
X39388788Y-23790838D01*
X39388783Y-23790842D01*
X39300209Y-23893061D01*
X39300203Y-23893071D01*
X39244013Y-24016106D01*
X39244012Y-24016111D01*
X39231792Y-24101106D01*
X39202767Y-24164662D01*
X39143988Y-24202436D01*
X39112123Y-24207421D01*
X38200000Y-24229999D01*
X38199999Y-24230000D01*
X38233613Y-28381246D01*
X38214472Y-28448443D01*
X38162040Y-28494624D01*
X38109617Y-28506250D01*
X2543751Y-28506250D01*
X2536264Y-28506024D01*
X2253435Y-28488915D01*
X2238571Y-28487110D01*
X1963565Y-28436714D01*
X1949025Y-28433130D01*
X1682105Y-28349954D01*
X1668105Y-28344645D01*
X1413147Y-28229898D01*
X1399888Y-28222939D01*
X1178592Y-28089161D01*
X1160621Y-28078297D01*
X1148301Y-28069793D01*
X1134730Y-28059161D01*
X928213Y-27897365D01*
X917005Y-27887435D01*
X729570Y-27700000D01*
X18394763Y-27700000D01*
X18414012Y-27833888D01*
X18414013Y-27833893D01*
X18443001Y-27897365D01*
X18470205Y-27956933D01*
X18470208Y-27956936D01*
X18470209Y-27956938D01*
X18496204Y-27986938D01*
X18558786Y-28059160D01*
X18672579Y-28132291D01*
X18737473Y-28151345D01*
X18802366Y-28170400D01*
X18802367Y-28170400D01*
X18937633Y-28170400D01*
X19067421Y-28132291D01*
X19181214Y-28059160D01*
X19269795Y-27956933D01*
X19325987Y-27833890D01*
X19340924Y-27730000D01*
X21404763Y-27730000D01*
X21424012Y-27863888D01*
X21424013Y-27863893D01*
X21466502Y-27956928D01*
X21480205Y-27986933D01*
X21480208Y-27986936D01*
X21480209Y-27986938D01*
X21559374Y-28078299D01*
X21568786Y-28089160D01*
X21682579Y-28162291D01*
X21710196Y-28170400D01*
X21812366Y-28200400D01*
X21812367Y-28200400D01*
X21947633Y-28200400D01*
X22077421Y-28162291D01*
X22191214Y-28089160D01*
X22279795Y-27986933D01*
X22335987Y-27863890D01*
X22355237Y-27730000D01*
X22335987Y-27596110D01*
X22335986Y-27596109D01*
X22335986Y-27596106D01*
X22307891Y-27534588D01*
X22279795Y-27473067D01*
X22279790Y-27473061D01*
X22191216Y-27370842D01*
X22191211Y-27370838D01*
X22144537Y-27340842D01*
X22077421Y-27297709D01*
X22077420Y-27297708D01*
X22077419Y-27297708D01*
X21947634Y-27259600D01*
X21947633Y-27259600D01*
X21812367Y-27259600D01*
X21812366Y-27259600D01*
X21682580Y-27297708D01*
X21568788Y-27370838D01*
X21568783Y-27370842D01*
X21480209Y-27473061D01*
X21480203Y-27473071D01*
X21424013Y-27596106D01*
X21424012Y-27596111D01*
X21404763Y-27730000D01*
X19340924Y-27730000D01*
X19345237Y-27700000D01*
X19325987Y-27566110D01*
X19325986Y-27566109D01*
X19325986Y-27566106D01*
X19283497Y-27473071D01*
X19269795Y-27443067D01*
X19240065Y-27408757D01*
X19181216Y-27340842D01*
X19181211Y-27340838D01*
X19101493Y-27289606D01*
X19067421Y-27267709D01*
X19067420Y-27267708D01*
X19067419Y-27267708D01*
X18937634Y-27229600D01*
X18937633Y-27229600D01*
X18802367Y-27229600D01*
X18802366Y-27229600D01*
X18672580Y-27267708D01*
X18558788Y-27340838D01*
X18558783Y-27340842D01*
X18470209Y-27443061D01*
X18470203Y-27443071D01*
X18414013Y-27566106D01*
X18414012Y-27566111D01*
X18394763Y-27700000D01*
X729570Y-27700000D01*
X719314Y-27689744D01*
X709384Y-27678536D01*
X696279Y-27661809D01*
X536952Y-27458442D01*
X528454Y-27446131D01*
X383807Y-27206855D01*
X376854Y-27193609D01*
X262103Y-26938641D01*
X256795Y-26924644D01*
X173619Y-26657724D01*
X170035Y-26643184D01*
X144358Y-26503067D01*
X134244Y-26447875D01*
X7995749Y-26447875D01*
X7995749Y-26447878D01*
X8014518Y-26662413D01*
X8014520Y-26662424D01*
X8070256Y-26870435D01*
X8070258Y-26870439D01*
X8070259Y-26870443D01*
X8102062Y-26938644D01*
X8161274Y-27065626D01*
X8161275Y-27065628D01*
X8284802Y-27242044D01*
X8437082Y-27394324D01*
X8437085Y-27394326D01*
X8613499Y-27517852D01*
X8808684Y-27608868D01*
X9016708Y-27664608D01*
X9169952Y-27678015D01*
X9231248Y-27683378D01*
X9231250Y-27683378D01*
X9231252Y-27683378D01*
X9286594Y-27678536D01*
X9445792Y-27664608D01*
X9653816Y-27608868D01*
X9849001Y-27517852D01*
X10025415Y-27394326D01*
X10177699Y-27242042D01*
X10301225Y-27065628D01*
X10392241Y-26870443D01*
X10447981Y-26662419D01*
X10466751Y-26447877D01*
X10455856Y-26323343D01*
X34012500Y-26323343D01*
X34012500Y-27016656D01*
X34040455Y-27157196D01*
X34040457Y-27157204D01*
X34095296Y-27289596D01*
X34095301Y-27289606D01*
X34174913Y-27408753D01*
X34174916Y-27408757D01*
X34276242Y-27510083D01*
X34276246Y-27510086D01*
X34395393Y-27589698D01*
X34395397Y-27589700D01*
X34395400Y-27589702D01*
X34527796Y-27644543D01*
X34668343Y-27672499D01*
X34668347Y-27672500D01*
X34668348Y-27672500D01*
X34811653Y-27672500D01*
X34811654Y-27672499D01*
X34952204Y-27644543D01*
X35084600Y-27589702D01*
X35203754Y-27510086D01*
X35305086Y-27408754D01*
X35384702Y-27289600D01*
X35439543Y-27157204D01*
X35467500Y-27016652D01*
X35467500Y-26323348D01*
X35439543Y-26182796D01*
X35384702Y-26050400D01*
X35384700Y-26050397D01*
X35384698Y-26050393D01*
X35357155Y-26009172D01*
X36012500Y-26009172D01*
X36012500Y-27330825D01*
X36023191Y-27404204D01*
X36078525Y-27517392D01*
X36167607Y-27606474D01*
X36167608Y-27606474D01*
X36167610Y-27606476D01*
X36280796Y-27661809D01*
X36354173Y-27672500D01*
X37125826Y-27672499D01*
X37199204Y-27661809D01*
X37312390Y-27606476D01*
X37401476Y-27517390D01*
X37456809Y-27404204D01*
X37467500Y-27330827D01*
X37467499Y-26009174D01*
X37456809Y-25935796D01*
X37401476Y-25822610D01*
X37401474Y-25822608D01*
X37401474Y-25822607D01*
X37312392Y-25733525D01*
X37199202Y-25678190D01*
X37125827Y-25667500D01*
X36354179Y-25667500D01*
X36280796Y-25678191D01*
X36167607Y-25733525D01*
X36078525Y-25822607D01*
X36023190Y-25935797D01*
X36012500Y-26009172D01*
X35357155Y-26009172D01*
X35305086Y-25931246D01*
X35305083Y-25931242D01*
X35203757Y-25829916D01*
X35203753Y-25829913D01*
X35084606Y-25750301D01*
X35084596Y-25750296D01*
X34952204Y-25695457D01*
X34952196Y-25695455D01*
X34811656Y-25667500D01*
X34811652Y-25667500D01*
X34668348Y-25667500D01*
X34668343Y-25667500D01*
X34527803Y-25695455D01*
X34527795Y-25695457D01*
X34395403Y-25750296D01*
X34395393Y-25750301D01*
X34276246Y-25829913D01*
X34276242Y-25829916D01*
X34174916Y-25931242D01*
X34174913Y-25931246D01*
X34095301Y-26050393D01*
X34095296Y-26050403D01*
X34040457Y-26182795D01*
X34040455Y-26182803D01*
X34012500Y-26323343D01*
X10455856Y-26323343D01*
X10447981Y-26233335D01*
X10403345Y-26066750D01*
X10392243Y-26025318D01*
X10392242Y-26025317D01*
X10392241Y-26025311D01*
X10301225Y-25830127D01*
X10206929Y-25695457D01*
X10177697Y-25653709D01*
X10025417Y-25501429D01*
X9849001Y-25377902D01*
X9848999Y-25377901D01*
X9827117Y-25367697D01*
X9653816Y-25286886D01*
X9653812Y-25286885D01*
X9653808Y-25286883D01*
X9445797Y-25231147D01*
X9445793Y-25231146D01*
X9445792Y-25231146D01*
X9445791Y-25231145D01*
X9445786Y-25231145D01*
X9231252Y-25212376D01*
X9231248Y-25212376D01*
X9016713Y-25231145D01*
X9016702Y-25231147D01*
X8808691Y-25286883D01*
X8808682Y-25286887D01*
X8613501Y-25377901D01*
X8613499Y-25377902D01*
X8437082Y-25501429D01*
X8284802Y-25653709D01*
X8161275Y-25830126D01*
X8161274Y-25830128D01*
X8070260Y-26025309D01*
X8070256Y-26025318D01*
X8014520Y-26233329D01*
X8014518Y-26233340D01*
X7995749Y-26447875D01*
X134244Y-26447875D01*
X119638Y-26368174D01*
X117834Y-26353314D01*
X116021Y-26323348D01*
X100726Y-26070486D01*
X100500Y-26062999D01*
X100500Y-24490000D01*
X497770Y-24490000D01*
X516643Y-24681626D01*
X572538Y-24865884D01*
X663302Y-25035692D01*
X663306Y-25035699D01*
X785458Y-25184541D01*
X934300Y-25306693D01*
X934307Y-25306697D01*
X1067521Y-25377901D01*
X1104117Y-25397462D01*
X1288376Y-25453357D01*
X1480000Y-25472230D01*
X1671624Y-25453357D01*
X1855883Y-25397462D01*
X2025698Y-25306694D01*
X2174541Y-25184541D01*
X2296694Y-25035698D01*
X2387462Y-24865883D01*
X2443357Y-24681624D01*
X2462230Y-24490000D01*
X5577770Y-24490000D01*
X5596643Y-24681626D01*
X5652538Y-24865884D01*
X5743302Y-25035692D01*
X5743306Y-25035699D01*
X5865458Y-25184541D01*
X6014300Y-25306693D01*
X6014307Y-25306697D01*
X6147521Y-25377901D01*
X6184117Y-25397462D01*
X6368376Y-25453357D01*
X6560000Y-25472230D01*
X6751624Y-25453357D01*
X6935883Y-25397462D01*
X7105698Y-25306694D01*
X7254541Y-25184541D01*
X7376694Y-25035698D01*
X7467462Y-24865883D01*
X7523357Y-24681624D01*
X7542230Y-24490000D01*
X7523357Y-24298376D01*
X7467462Y-24114117D01*
X7467461Y-24114115D01*
X7376697Y-23944307D01*
X7376693Y-23944300D01*
X7254541Y-23795458D01*
X7105699Y-23673306D01*
X7105692Y-23673302D01*
X6935884Y-23582538D01*
X6828622Y-23550000D01*
X17384763Y-23550000D01*
X17404012Y-23683888D01*
X17404013Y-23683893D01*
X17450571Y-23785838D01*
X17460205Y-23806933D01*
X17460208Y-23806936D01*
X17460209Y-23806938D01*
X17534844Y-23893071D01*
X17548786Y-23909160D01*
X17662579Y-23982291D01*
X17727473Y-24001345D01*
X17792366Y-24020400D01*
X17792367Y-24020400D01*
X17927633Y-24020400D01*
X18057421Y-23982291D01*
X18171214Y-23909160D01*
X18259795Y-23806933D01*
X18315987Y-23683890D01*
X18335237Y-23550000D01*
X18315987Y-23416110D01*
X18315986Y-23416109D01*
X18315986Y-23416106D01*
X18287891Y-23354588D01*
X18259795Y-23293067D01*
X18171214Y-23190840D01*
X18057421Y-23117709D01*
X18057420Y-23117708D01*
X18057419Y-23117708D01*
X17927634Y-23079600D01*
X17927633Y-23079600D01*
X17792367Y-23079600D01*
X17792366Y-23079600D01*
X17662580Y-23117708D01*
X17548788Y-23190838D01*
X17548783Y-23190842D01*
X17460209Y-23293061D01*
X17460203Y-23293071D01*
X17404013Y-23416106D01*
X17404012Y-23416111D01*
X17384763Y-23550000D01*
X6828622Y-23550000D01*
X6751626Y-23526643D01*
X6560000Y-23507770D01*
X6368373Y-23526643D01*
X6184115Y-23582538D01*
X6014307Y-23673302D01*
X6014300Y-23673306D01*
X5865458Y-23795458D01*
X5743306Y-23944300D01*
X5743302Y-23944307D01*
X5652538Y-24114115D01*
X5596643Y-24298373D01*
X5577770Y-24490000D01*
X2462230Y-24490000D01*
X2443357Y-24298376D01*
X2387462Y-24114117D01*
X2387461Y-24114115D01*
X2296697Y-23944307D01*
X2296693Y-23944300D01*
X2174541Y-23795458D01*
X2025699Y-23673306D01*
X2025692Y-23673302D01*
X1855884Y-23582538D01*
X1671626Y-23526643D01*
X1480000Y-23507770D01*
X1288373Y-23526643D01*
X1104115Y-23582538D01*
X934307Y-23673302D01*
X934300Y-23673306D01*
X785458Y-23795458D01*
X663306Y-23944300D01*
X663302Y-23944307D01*
X572538Y-24114115D01*
X516643Y-24298373D01*
X497770Y-24490000D01*
X100500Y-24490000D01*
X100500Y-22590000D01*
X19064763Y-22590000D01*
X19084012Y-22723888D01*
X19084013Y-22723893D01*
X19130571Y-22825838D01*
X19140205Y-22846933D01*
X19228786Y-22949160D01*
X19342579Y-23022291D01*
X19407473Y-23041345D01*
X19472366Y-23060400D01*
X19472367Y-23060400D01*
X19607633Y-23060400D01*
X19737421Y-23022291D01*
X19851214Y-22949160D01*
X19939795Y-22846933D01*
X19995987Y-22723890D01*
X20015237Y-22590000D01*
X19995987Y-22456110D01*
X19995986Y-22456109D01*
X19995986Y-22456106D01*
X19967891Y-22394588D01*
X19939795Y-22333067D01*
X19851214Y-22230840D01*
X19737421Y-22157709D01*
X19737420Y-22157708D01*
X19737419Y-22157708D01*
X19607634Y-22119600D01*
X19607633Y-22119600D01*
X19472367Y-22119600D01*
X19472366Y-22119600D01*
X19342580Y-22157708D01*
X19228788Y-22230838D01*
X19228783Y-22230842D01*
X19140209Y-22333061D01*
X19140203Y-22333071D01*
X19084013Y-22456106D01*
X19084012Y-22456111D01*
X19064763Y-22590000D01*
X100500Y-22590000D01*
X100500Y-21650000D01*
X23664763Y-21650000D01*
X23684012Y-21783888D01*
X23684013Y-21783893D01*
X23730571Y-21885838D01*
X23740205Y-21906933D01*
X23828786Y-22009160D01*
X23942579Y-22082291D01*
X24007473Y-22101345D01*
X24072366Y-22120400D01*
X24072367Y-22120400D01*
X24207633Y-22120400D01*
X24337421Y-22082291D01*
X24451214Y-22009160D01*
X24539795Y-21906933D01*
X24595987Y-21783890D01*
X24615237Y-21650000D01*
X24595987Y-21516110D01*
X24595986Y-21516109D01*
X24595986Y-21516106D01*
X24567891Y-21454588D01*
X24539795Y-21393067D01*
X24451214Y-21290840D01*
X24337421Y-21217709D01*
X24337420Y-21217708D01*
X24337419Y-21217708D01*
X24207634Y-21179600D01*
X24207633Y-21179600D01*
X24072367Y-21179600D01*
X24072366Y-21179600D01*
X23942580Y-21217708D01*
X23828788Y-21290838D01*
X23828783Y-21290842D01*
X23740209Y-21393061D01*
X23740203Y-21393071D01*
X23684013Y-21516106D01*
X23684012Y-21516111D01*
X23664763Y-21650000D01*
X100500Y-21650000D01*
X100500Y-20530000D01*
X9254763Y-20530000D01*
X9274012Y-20663888D01*
X9274013Y-20663893D01*
X9320571Y-20765838D01*
X9330205Y-20786933D01*
X9418786Y-20889160D01*
X9532579Y-20962291D01*
X9597473Y-20981345D01*
X9662366Y-21000400D01*
X9662367Y-21000400D01*
X9797633Y-21000400D01*
X9927421Y-20962291D01*
X10041214Y-20889160D01*
X10129795Y-20786933D01*
X10185987Y-20663890D01*
X10205237Y-20530000D01*
X10185987Y-20396110D01*
X10185986Y-20396109D01*
X10185986Y-20396106D01*
X10157891Y-20334588D01*
X10129795Y-20273067D01*
X10041214Y-20170840D01*
X9927421Y-20097709D01*
X9927420Y-20097708D01*
X9927419Y-20097708D01*
X9797634Y-20059600D01*
X9797633Y-20059600D01*
X9662367Y-20059600D01*
X9662366Y-20059600D01*
X9532580Y-20097708D01*
X9418788Y-20170838D01*
X9418783Y-20170842D01*
X9330209Y-20273061D01*
X9330203Y-20273071D01*
X9274013Y-20396106D01*
X9274012Y-20396111D01*
X9254763Y-20530000D01*
X100500Y-20530000D01*
X100500Y-18948400D01*
X12006270Y-18948400D01*
X12025143Y-19140026D01*
X12081038Y-19324284D01*
X12171802Y-19494092D01*
X12171806Y-19494099D01*
X12293958Y-19642941D01*
X12442800Y-19765093D01*
X12442807Y-19765097D01*
X12571510Y-19833890D01*
X12612617Y-19855862D01*
X12796876Y-19911757D01*
X12988500Y-19930630D01*
X13180124Y-19911757D01*
X13364383Y-19855862D01*
X13534198Y-19765094D01*
X13683041Y-19642941D01*
X13805194Y-19494098D01*
X13895962Y-19324283D01*
X13951857Y-19140024D01*
X13970730Y-18948400D01*
X14546270Y-18948400D01*
X14565143Y-19140026D01*
X14621038Y-19324284D01*
X14711802Y-19494092D01*
X14711806Y-19494099D01*
X14833958Y-19642941D01*
X14982800Y-19765093D01*
X14982807Y-19765097D01*
X15111510Y-19833890D01*
X15152617Y-19855862D01*
X15336876Y-19911757D01*
X15528500Y-19930630D01*
X15720124Y-19911757D01*
X15904383Y-19855862D01*
X16074198Y-19765094D01*
X16223041Y-19642941D01*
X16345194Y-19494098D01*
X16435962Y-19324283D01*
X16491857Y-19140024D01*
X16510730Y-18948400D01*
X17086270Y-18948400D01*
X17105143Y-19140026D01*
X17161038Y-19324284D01*
X17251802Y-19494092D01*
X17251806Y-19494099D01*
X17373958Y-19642941D01*
X17522800Y-19765093D01*
X17522807Y-19765097D01*
X17651510Y-19833890D01*
X17692617Y-19855862D01*
X17876876Y-19911757D01*
X18068500Y-19930630D01*
X18260124Y-19911757D01*
X18444383Y-19855862D01*
X18614198Y-19765094D01*
X18763041Y-19642941D01*
X18885194Y-19494098D01*
X18975962Y-19324283D01*
X19031857Y-19140024D01*
X19050730Y-18948400D01*
X19626270Y-18948400D01*
X19645143Y-19140026D01*
X19701038Y-19324284D01*
X19791802Y-19494092D01*
X19791806Y-19494099D01*
X19913958Y-19642941D01*
X20062800Y-19765093D01*
X20062807Y-19765097D01*
X20191510Y-19833890D01*
X20232617Y-19855862D01*
X20416876Y-19911757D01*
X20608500Y-19930630D01*
X20800124Y-19911757D01*
X20984383Y-19855862D01*
X21154198Y-19765094D01*
X21303041Y-19642941D01*
X21425194Y-19494098D01*
X21515962Y-19324283D01*
X21571857Y-19140024D01*
X21586815Y-18988148D01*
X25534200Y-18988148D01*
X25534200Y-19924643D01*
X25544862Y-20013440D01*
X25600579Y-20154731D01*
X25612794Y-20170838D01*
X25692351Y-20275749D01*
X25813368Y-20367520D01*
X25954658Y-20423237D01*
X26043449Y-20433900D01*
X28279950Y-20433899D01*
X28368742Y-20423237D01*
X28510032Y-20367520D01*
X28631049Y-20275749D01*
X28722820Y-20154732D01*
X28778537Y-20013442D01*
X28789200Y-19924651D01*
X28789199Y-18988150D01*
X28778537Y-18899358D01*
X28722820Y-18758068D01*
X28631049Y-18637051D01*
X28510032Y-18545280D01*
X28368742Y-18489563D01*
X28368741Y-18489562D01*
X28368740Y-18489562D01*
X28279951Y-18478900D01*
X26043456Y-18478900D01*
X25954659Y-18489562D01*
X25813368Y-18545279D01*
X25692351Y-18637051D01*
X25600580Y-18758067D01*
X25544862Y-18899359D01*
X25534200Y-18988148D01*
X21586815Y-18988148D01*
X21590730Y-18948400D01*
X21571857Y-18756776D01*
X21515962Y-18572517D01*
X21425194Y-18402702D01*
X21425193Y-18402700D01*
X21303041Y-18253858D01*
X21154199Y-18131706D01*
X21154192Y-18131702D01*
X20984384Y-18040938D01*
X20800126Y-17985043D01*
X20608500Y-17966170D01*
X20416873Y-17985043D01*
X20232615Y-18040938D01*
X20062807Y-18131702D01*
X20062800Y-18131706D01*
X19913958Y-18253858D01*
X19791806Y-18402700D01*
X19791802Y-18402707D01*
X19701038Y-18572515D01*
X19645143Y-18756773D01*
X19626270Y-18948400D01*
X19050730Y-18948400D01*
X19031857Y-18756776D01*
X18975962Y-18572517D01*
X18885194Y-18402702D01*
X18885193Y-18402700D01*
X18763041Y-18253858D01*
X18614199Y-18131706D01*
X18614192Y-18131702D01*
X18444384Y-18040938D01*
X18260126Y-17985043D01*
X18068500Y-17966170D01*
X17876873Y-17985043D01*
X17692615Y-18040938D01*
X17522807Y-18131702D01*
X17522800Y-18131706D01*
X17373958Y-18253858D01*
X17251806Y-18402700D01*
X17251802Y-18402707D01*
X17161038Y-18572515D01*
X17105143Y-18756773D01*
X17086270Y-18948400D01*
X16510730Y-18948400D01*
X16491857Y-18756776D01*
X16435962Y-18572517D01*
X16345194Y-18402702D01*
X16345193Y-18402700D01*
X16223041Y-18253858D01*
X16074199Y-18131706D01*
X16074192Y-18131702D01*
X15904384Y-18040938D01*
X15720126Y-17985043D01*
X15528500Y-17966170D01*
X15336873Y-17985043D01*
X15152615Y-18040938D01*
X14982807Y-18131702D01*
X14982800Y-18131706D01*
X14833958Y-18253858D01*
X14711806Y-18402700D01*
X14711802Y-18402707D01*
X14621038Y-18572515D01*
X14565143Y-18756773D01*
X14546270Y-18948400D01*
X13970730Y-18948400D01*
X13951857Y-18756776D01*
X13895962Y-18572517D01*
X13805194Y-18402702D01*
X13805193Y-18402700D01*
X13683041Y-18253858D01*
X13534199Y-18131706D01*
X13534192Y-18131702D01*
X13364384Y-18040938D01*
X13180126Y-17985043D01*
X12988500Y-17966170D01*
X12796873Y-17985043D01*
X12612615Y-18040938D01*
X12442807Y-18131702D01*
X12442800Y-18131706D01*
X12293958Y-18253858D01*
X12171806Y-18402700D01*
X12171802Y-18402707D01*
X12081038Y-18572515D01*
X12025143Y-18756773D01*
X12006270Y-18948400D01*
X100500Y-18948400D01*
X100500Y-16408400D01*
X12034270Y-16408400D01*
X12053143Y-16600026D01*
X12109038Y-16784284D01*
X12199802Y-16954092D01*
X12199806Y-16954099D01*
X12321958Y-17102941D01*
X12470800Y-17225093D01*
X12470807Y-17225097D01*
X12640615Y-17315861D01*
X12640617Y-17315862D01*
X12824876Y-17371757D01*
X13016500Y-17390630D01*
X13208124Y-17371757D01*
X13392383Y-17315862D01*
X13562198Y-17225094D01*
X13711041Y-17102941D01*
X13833194Y-16954098D01*
X13923962Y-16784283D01*
X13979857Y-16600024D01*
X13998730Y-16408400D01*
X14546270Y-16408400D01*
X14565143Y-16600026D01*
X14621038Y-16784284D01*
X14711802Y-16954092D01*
X14711806Y-16954099D01*
X14833958Y-17102941D01*
X14982800Y-17225093D01*
X14982807Y-17225097D01*
X15152615Y-17315861D01*
X15152617Y-17315862D01*
X15336876Y-17371757D01*
X15528500Y-17390630D01*
X15720124Y-17371757D01*
X15904383Y-17315862D01*
X16074198Y-17225094D01*
X16223041Y-17102941D01*
X16345194Y-16954098D01*
X16435962Y-16784283D01*
X16491857Y-16600024D01*
X16510730Y-16408400D01*
X17086270Y-16408400D01*
X17105143Y-16600026D01*
X17161038Y-16784284D01*
X17251802Y-16954092D01*
X17251806Y-16954099D01*
X17373958Y-17102941D01*
X17522800Y-17225093D01*
X17522807Y-17225097D01*
X17692615Y-17315861D01*
X17692617Y-17315862D01*
X17876876Y-17371757D01*
X18068500Y-17390630D01*
X18260124Y-17371757D01*
X18444383Y-17315862D01*
X18614198Y-17225094D01*
X18763041Y-17102941D01*
X18885194Y-16954098D01*
X18975962Y-16784283D01*
X19031857Y-16600024D01*
X19041610Y-16501000D01*
X19569470Y-16501000D01*
X19588343Y-16692626D01*
X19644238Y-16876884D01*
X19735002Y-17046692D01*
X19735006Y-17046699D01*
X19857158Y-17195541D01*
X20006000Y-17317693D01*
X20006007Y-17317697D01*
X20175815Y-17408461D01*
X20175817Y-17408462D01*
X20360076Y-17464357D01*
X20551700Y-17483230D01*
X20743324Y-17464357D01*
X20927583Y-17408462D01*
X21097398Y-17317694D01*
X21246241Y-17195541D01*
X21368394Y-17046698D01*
X21459162Y-16876883D01*
X21515057Y-16692624D01*
X21533930Y-16501000D01*
X21515057Y-16309376D01*
X21478844Y-16190000D01*
X31524763Y-16190000D01*
X31544012Y-16323888D01*
X31544013Y-16323893D01*
X31590571Y-16425838D01*
X31600205Y-16446933D01*
X31600208Y-16446936D01*
X31600209Y-16446938D01*
X31647054Y-16501000D01*
X31688786Y-16549160D01*
X31802579Y-16622291D01*
X31867473Y-16641345D01*
X31932366Y-16660400D01*
X31932367Y-16660400D01*
X32067633Y-16660400D01*
X32197421Y-16622291D01*
X32311214Y-16549160D01*
X32399795Y-16446933D01*
X32455987Y-16323890D01*
X32475237Y-16190000D01*
X32455987Y-16056110D01*
X32455986Y-16056109D01*
X32455986Y-16056106D01*
X32427891Y-15994588D01*
X32399795Y-15933067D01*
X32311214Y-15830840D01*
X32197421Y-15757709D01*
X32197420Y-15757708D01*
X32197419Y-15757708D01*
X32067634Y-15719600D01*
X32067633Y-15719600D01*
X31932367Y-15719600D01*
X31932366Y-15719600D01*
X31802580Y-15757708D01*
X31688788Y-15830838D01*
X31688783Y-15830842D01*
X31600209Y-15933061D01*
X31600203Y-15933071D01*
X31544013Y-16056106D01*
X31544012Y-16056111D01*
X31524763Y-16190000D01*
X21478844Y-16190000D01*
X21459162Y-16125117D01*
X21368394Y-15955302D01*
X21368393Y-15955300D01*
X21246241Y-15806458D01*
X21097399Y-15684306D01*
X21097392Y-15684302D01*
X20927584Y-15593538D01*
X20743326Y-15537643D01*
X20551700Y-15518770D01*
X20360073Y-15537643D01*
X20175815Y-15593538D01*
X20006007Y-15684302D01*
X20006000Y-15684306D01*
X19857158Y-15806458D01*
X19735006Y-15955300D01*
X19735002Y-15955307D01*
X19644238Y-16125115D01*
X19588343Y-16309373D01*
X19569470Y-16501000D01*
X19041610Y-16501000D01*
X19050730Y-16408400D01*
X19031857Y-16216776D01*
X18975962Y-16032517D01*
X18975961Y-16032515D01*
X18885197Y-15862707D01*
X18885193Y-15862700D01*
X18763041Y-15713858D01*
X18614199Y-15591706D01*
X18614192Y-15591702D01*
X18444384Y-15500938D01*
X18260126Y-15445043D01*
X18068500Y-15426170D01*
X17876873Y-15445043D01*
X17692615Y-15500938D01*
X17522807Y-15591702D01*
X17522800Y-15591706D01*
X17373958Y-15713858D01*
X17251806Y-15862700D01*
X17251802Y-15862707D01*
X17161038Y-16032515D01*
X17105143Y-16216773D01*
X17086270Y-16408400D01*
X16510730Y-16408400D01*
X16491857Y-16216776D01*
X16435962Y-16032517D01*
X16435961Y-16032515D01*
X16345197Y-15862707D01*
X16345193Y-15862700D01*
X16223041Y-15713858D01*
X16074199Y-15591706D01*
X16074192Y-15591702D01*
X15904384Y-15500938D01*
X15720126Y-15445043D01*
X15528500Y-15426170D01*
X15336873Y-15445043D01*
X15152615Y-15500938D01*
X14982807Y-15591702D01*
X14982800Y-15591706D01*
X14833958Y-15713858D01*
X14711806Y-15862700D01*
X14711802Y-15862707D01*
X14621038Y-16032515D01*
X14565143Y-16216773D01*
X14546270Y-16408400D01*
X13998730Y-16408400D01*
X13979857Y-16216776D01*
X13923962Y-16032517D01*
X13923961Y-16032515D01*
X13833197Y-15862707D01*
X13833193Y-15862700D01*
X13711041Y-15713858D01*
X13562199Y-15591706D01*
X13562192Y-15591702D01*
X13392384Y-15500938D01*
X13208126Y-15445043D01*
X13016500Y-15426170D01*
X12824873Y-15445043D01*
X12640615Y-15500938D01*
X12470807Y-15591702D01*
X12470800Y-15591706D01*
X12321958Y-15713858D01*
X12199806Y-15862700D01*
X12199802Y-15862707D01*
X12109038Y-16032515D01*
X12053143Y-16216773D01*
X12034270Y-16408400D01*
X100500Y-16408400D01*
X100500Y-12310000D01*
X8814763Y-12310000D01*
X8834012Y-12443888D01*
X8834013Y-12443893D01*
X8880571Y-12545838D01*
X8890205Y-12566933D01*
X8890208Y-12566936D01*
X8890209Y-12566938D01*
X8927869Y-12610400D01*
X8978786Y-12669160D01*
X9092579Y-12742291D01*
X9157473Y-12761345D01*
X9222366Y-12780400D01*
X9222367Y-12780400D01*
X9357633Y-12780400D01*
X9487421Y-12742291D01*
X9506546Y-12730000D01*
X17824763Y-12730000D01*
X17844012Y-12863888D01*
X17844013Y-12863893D01*
X17877373Y-12936938D01*
X17900205Y-12986933D01*
X17900208Y-12986936D01*
X17900209Y-12986938D01*
X17945457Y-13039157D01*
X17988786Y-13089160D01*
X18102579Y-13162291D01*
X18167473Y-13181345D01*
X18232366Y-13200400D01*
X18232367Y-13200400D01*
X18367633Y-13200400D01*
X18497421Y-13162291D01*
X18611214Y-13089160D01*
X18699795Y-12986933D01*
X18755987Y-12863890D01*
X18775237Y-12730000D01*
X18768048Y-12680000D01*
X19224763Y-12680000D01*
X19244012Y-12813888D01*
X19244013Y-12813893D01*
X19290571Y-12915838D01*
X19300205Y-12936933D01*
X19300208Y-12936936D01*
X19300209Y-12936938D01*
X19343530Y-12986933D01*
X19388786Y-13039160D01*
X19502579Y-13112291D01*
X19567473Y-13131345D01*
X19632366Y-13150400D01*
X19632367Y-13150400D01*
X19767633Y-13150400D01*
X19897421Y-13112291D01*
X20011214Y-13039160D01*
X20099795Y-12936933D01*
X20155987Y-12813890D01*
X20175237Y-12680000D01*
X20155987Y-12546110D01*
X20155986Y-12546109D01*
X20155986Y-12546106D01*
X20122629Y-12473067D01*
X20099795Y-12423067D01*
X20077150Y-12396933D01*
X20011216Y-12320842D01*
X20011211Y-12320838D01*
X19938159Y-12273890D01*
X19897421Y-12247709D01*
X19897420Y-12247708D01*
X19897419Y-12247708D01*
X19767634Y-12209600D01*
X19767633Y-12209600D01*
X19632367Y-12209600D01*
X19632366Y-12209600D01*
X19502580Y-12247708D01*
X19388788Y-12320838D01*
X19388783Y-12320842D01*
X19300209Y-12423061D01*
X19300203Y-12423071D01*
X19244013Y-12546106D01*
X19244012Y-12546111D01*
X19224763Y-12680000D01*
X18768048Y-12680000D01*
X18755987Y-12596110D01*
X18755986Y-12596109D01*
X18755986Y-12596106D01*
X18711711Y-12499160D01*
X18699795Y-12473067D01*
X18699790Y-12473061D01*
X18611216Y-12370842D01*
X18611211Y-12370838D01*
X18497419Y-12297708D01*
X18367634Y-12259600D01*
X18367633Y-12259600D01*
X18232367Y-12259600D01*
X18232366Y-12259600D01*
X18102580Y-12297708D01*
X17988788Y-12370838D01*
X17988783Y-12370842D01*
X17900209Y-12473061D01*
X17900203Y-12473071D01*
X17844013Y-12596106D01*
X17844012Y-12596111D01*
X17824763Y-12730000D01*
X9506546Y-12730000D01*
X9601214Y-12669160D01*
X9689795Y-12566933D01*
X9745987Y-12443890D01*
X9765237Y-12310000D01*
X9745987Y-12176110D01*
X9745986Y-12176109D01*
X9745986Y-12176106D01*
X9717891Y-12114588D01*
X9689795Y-12053067D01*
X9601214Y-11950840D01*
X9487421Y-11877709D01*
X9487420Y-11877708D01*
X9487419Y-11877708D01*
X9357634Y-11839600D01*
X9357633Y-11839600D01*
X9222367Y-11839600D01*
X9222366Y-11839600D01*
X9092580Y-11877708D01*
X8978788Y-11950838D01*
X8978783Y-11950842D01*
X8890209Y-12053061D01*
X8890203Y-12053071D01*
X8834013Y-12176106D01*
X8834012Y-12176111D01*
X8814763Y-12310000D01*
X100500Y-12310000D01*
X100500Y-11550000D01*
X18554763Y-11550000D01*
X18574012Y-11683888D01*
X18574013Y-11683893D01*
X18618289Y-11780840D01*
X18630205Y-11806933D01*
X18718786Y-11909160D01*
X18832579Y-11982291D01*
X18897473Y-12001345D01*
X18962366Y-12020400D01*
X18962367Y-12020400D01*
X19097633Y-12020400D01*
X19227421Y-11982291D01*
X19341214Y-11909160D01*
X19429795Y-11806933D01*
X19485987Y-11683890D01*
X19505237Y-11550000D01*
X19485987Y-11416110D01*
X19485986Y-11416109D01*
X19485986Y-11416106D01*
X19455795Y-11350000D01*
X19429795Y-11293067D01*
X19341214Y-11190840D01*
X19227421Y-11117709D01*
X19227420Y-11117708D01*
X19227419Y-11117708D01*
X19097634Y-11079600D01*
X19097633Y-11079600D01*
X18962367Y-11079600D01*
X18962366Y-11079600D01*
X18832580Y-11117708D01*
X18718788Y-11190838D01*
X18718783Y-11190842D01*
X18630209Y-11293061D01*
X18630203Y-11293071D01*
X18574013Y-11416106D01*
X18574012Y-11416111D01*
X18554763Y-11550000D01*
X100500Y-11550000D01*
X100500Y-10490000D01*
X3037770Y-10490000D01*
X3056643Y-10681626D01*
X3112538Y-10865884D01*
X3203302Y-11035692D01*
X3203306Y-11035699D01*
X3325458Y-11184541D01*
X3474300Y-11306693D01*
X3474307Y-11306697D01*
X3644115Y-11397461D01*
X3644117Y-11397462D01*
X3828376Y-11453357D01*
X4020000Y-11472230D01*
X4211624Y-11453357D01*
X4395883Y-11397462D01*
X4565698Y-11306694D01*
X4714541Y-11184541D01*
X4836694Y-11035698D01*
X4927462Y-10865883D01*
X4983357Y-10681624D01*
X5002230Y-10490000D01*
X5577770Y-10490000D01*
X5596643Y-10681626D01*
X5652538Y-10865884D01*
X5743302Y-11035692D01*
X5743306Y-11035699D01*
X5865458Y-11184541D01*
X6014300Y-11306693D01*
X6014307Y-11306697D01*
X6184115Y-11397461D01*
X6184117Y-11397462D01*
X6368376Y-11453357D01*
X6560000Y-11472230D01*
X6751624Y-11453357D01*
X6935883Y-11397462D01*
X7105698Y-11306694D01*
X7254541Y-11184541D01*
X7376694Y-11035698D01*
X7467462Y-10865883D01*
X7523357Y-10681624D01*
X7542230Y-10490000D01*
X7523357Y-10298376D01*
X7493515Y-10200000D01*
X10774763Y-10200000D01*
X10794012Y-10333888D01*
X10794013Y-10333893D01*
X10840571Y-10435838D01*
X10850205Y-10456933D01*
X10938786Y-10559160D01*
X11052579Y-10632291D01*
X11117473Y-10651345D01*
X11182366Y-10670400D01*
X11182367Y-10670400D01*
X11317633Y-10670400D01*
X11447421Y-10632291D01*
X11561214Y-10559160D01*
X11649795Y-10456933D01*
X11705987Y-10333890D01*
X11725237Y-10200000D01*
X11705987Y-10066110D01*
X11705986Y-10066109D01*
X11705986Y-10066106D01*
X11677891Y-10004588D01*
X11649795Y-9943067D01*
X11561214Y-9840840D01*
X11447421Y-9767709D01*
X11447420Y-9767708D01*
X11447419Y-9767708D01*
X11317634Y-9729600D01*
X11317633Y-9729600D01*
X11182367Y-9729600D01*
X11182366Y-9729600D01*
X11052580Y-9767708D01*
X10938788Y-9840838D01*
X10938783Y-9840842D01*
X10850209Y-9943061D01*
X10850203Y-9943071D01*
X10794013Y-10066106D01*
X10794012Y-10066111D01*
X10774763Y-10200000D01*
X7493515Y-10200000D01*
X7467462Y-10114117D01*
X7376694Y-9944302D01*
X7376693Y-9944300D01*
X7254541Y-9795458D01*
X7105699Y-9673306D01*
X7105692Y-9673302D01*
X6935884Y-9582538D01*
X6751626Y-9526643D01*
X6560000Y-9507770D01*
X6368373Y-9526643D01*
X6184115Y-9582538D01*
X6014307Y-9673302D01*
X6014300Y-9673306D01*
X5865458Y-9795458D01*
X5743306Y-9944300D01*
X5743302Y-9944307D01*
X5652538Y-10114115D01*
X5596643Y-10298373D01*
X5577770Y-10490000D01*
X5002230Y-10490000D01*
X4983357Y-10298376D01*
X4927462Y-10114117D01*
X4836694Y-9944302D01*
X4836693Y-9944300D01*
X4714541Y-9795458D01*
X4565699Y-9673306D01*
X4565692Y-9673302D01*
X4395884Y-9582538D01*
X4211626Y-9526643D01*
X4020000Y-9507770D01*
X3828373Y-9526643D01*
X3644115Y-9582538D01*
X3474307Y-9673302D01*
X3474300Y-9673306D01*
X3325458Y-9795458D01*
X3203306Y-9944300D01*
X3203302Y-9944307D01*
X3112538Y-10114115D01*
X3056643Y-10298373D01*
X3037770Y-10490000D01*
X100500Y-10490000D01*
X100500Y-8144076D01*
X1312500Y-8144076D01*
X1312500Y-8295924D01*
X1315723Y-8307954D01*
X1351802Y-8442600D01*
X1351802Y-8442601D01*
X1427722Y-8574098D01*
X1427724Y-8574100D01*
X1427725Y-8574102D01*
X1535098Y-8681475D01*
X1666602Y-8757399D01*
X1813276Y-8796700D01*
X1813278Y-8796700D01*
X3066722Y-8796700D01*
X3066724Y-8796700D01*
X3213398Y-8757399D01*
X3344902Y-8681475D01*
X3452275Y-8574102D01*
X3528199Y-8442598D01*
X3567500Y-8295924D01*
X3567500Y-8144076D01*
X3528199Y-7997402D01*
X3471964Y-7900000D01*
X11223064Y-7900000D01*
X11242723Y-8049322D01*
X11300359Y-8188468D01*
X11392045Y-8307955D01*
X11511532Y-8399641D01*
X11650678Y-8457277D01*
X11782627Y-8474648D01*
X11799999Y-8476936D01*
X11800000Y-8476936D01*
X11800001Y-8476936D01*
X11815562Y-8474887D01*
X11949322Y-8457277D01*
X12088468Y-8399641D01*
X12207955Y-8307955D01*
X12299641Y-8188468D01*
X12357277Y-8049322D01*
X12376936Y-7900000D01*
X12357277Y-7750678D01*
X12299641Y-7611532D01*
X12207955Y-7492045D01*
X12088468Y-7400359D01*
X12088464Y-7400357D01*
X11949325Y-7342724D01*
X11949323Y-7342723D01*
X11949322Y-7342723D01*
X11874661Y-7332893D01*
X11800001Y-7323064D01*
X11799999Y-7323064D01*
X11650678Y-7342723D01*
X11650674Y-7342724D01*
X11511535Y-7400357D01*
X11511532Y-7400358D01*
X11511532Y-7400359D01*
X11392045Y-7492045D01*
X11329763Y-7573213D01*
X11300357Y-7611535D01*
X11242724Y-7750674D01*
X11242723Y-7750678D01*
X11223064Y-7900000D01*
X3471964Y-7900000D01*
X3471963Y-7899999D01*
X3452277Y-7865901D01*
X3452272Y-7865895D01*
X3344904Y-7758527D01*
X3344898Y-7758522D01*
X3213400Y-7682602D01*
X3213399Y-7682601D01*
X3213398Y-7682601D01*
X3066724Y-7643300D01*
X1813276Y-7643300D01*
X1666602Y-7682601D01*
X1666601Y-7682601D01*
X1666599Y-7682602D01*
X1666598Y-7682602D01*
X1535101Y-7758522D01*
X1535095Y-7758527D01*
X1427727Y-7865895D01*
X1427722Y-7865901D01*
X1351802Y-7997398D01*
X1351802Y-7997399D01*
X1351801Y-7997401D01*
X1351801Y-7997402D01*
X1312500Y-8144076D01*
X100500Y-8144076D01*
X100500Y-7140000D01*
X15084763Y-7140000D01*
X15104012Y-7273888D01*
X15104013Y-7273893D01*
X15137831Y-7347941D01*
X15160205Y-7396933D01*
X15160208Y-7396936D01*
X15160209Y-7396938D01*
X15242620Y-7492045D01*
X15248786Y-7499160D01*
X15362579Y-7572291D01*
X15424253Y-7590400D01*
X15492366Y-7610400D01*
X15492367Y-7610400D01*
X15627633Y-7610400D01*
X15757421Y-7572291D01*
X15871214Y-7499160D01*
X15959795Y-7396933D01*
X16015987Y-7273890D01*
X16024590Y-7214053D01*
X20477775Y-7214053D01*
X20497024Y-7347941D01*
X20497025Y-7347946D01*
X20543583Y-7449891D01*
X20553217Y-7470986D01*
X20553220Y-7470989D01*
X20553221Y-7470991D01*
X20623668Y-7552291D01*
X20641798Y-7573213D01*
X20755591Y-7646344D01*
X20820485Y-7665398D01*
X20885378Y-7684453D01*
X20885379Y-7684453D01*
X21020645Y-7684453D01*
X21150433Y-7646344D01*
X21264226Y-7573213D01*
X21352807Y-7470986D01*
X21408999Y-7347943D01*
X21428249Y-7214053D01*
X21408999Y-7080163D01*
X21408998Y-7080162D01*
X21408998Y-7080159D01*
X21355007Y-6961938D01*
X21352807Y-6957120D01*
X21283636Y-6877293D01*
X21264228Y-6854895D01*
X21264223Y-6854891D01*
X21150431Y-6781761D01*
X21020646Y-6743653D01*
X21020645Y-6743653D01*
X20885379Y-6743653D01*
X20885378Y-6743653D01*
X20755592Y-6781761D01*
X20641800Y-6854891D01*
X20641795Y-6854895D01*
X20553221Y-6957114D01*
X20553215Y-6957124D01*
X20497025Y-7080159D01*
X20497024Y-7080164D01*
X20477775Y-7214053D01*
X16024590Y-7214053D01*
X16035237Y-7140000D01*
X16015987Y-7006110D01*
X16015986Y-7006109D01*
X16015986Y-7006106D01*
X15987891Y-6944588D01*
X15959795Y-6883067D01*
X15954789Y-6877290D01*
X15871216Y-6780842D01*
X15871211Y-6780838D01*
X15812957Y-6743400D01*
X26884763Y-6743400D01*
X26904012Y-6877288D01*
X26904013Y-6877293D01*
X26950571Y-6979238D01*
X26960205Y-7000333D01*
X26960208Y-7000336D01*
X26960209Y-7000338D01*
X27029379Y-7080164D01*
X27048786Y-7102560D01*
X27162579Y-7175691D01*
X27227473Y-7194745D01*
X27292366Y-7213800D01*
X27292367Y-7213800D01*
X27427633Y-7213800D01*
X27557421Y-7175691D01*
X27671214Y-7102560D01*
X27759795Y-7000333D01*
X27813349Y-6883067D01*
X27815986Y-6877293D01*
X27815987Y-6877288D01*
X27818032Y-6863067D01*
X27835237Y-6743400D01*
X27815987Y-6609510D01*
X27815986Y-6609509D01*
X27815986Y-6609506D01*
X27770494Y-6509895D01*
X27759795Y-6486467D01*
X27759790Y-6486461D01*
X27671216Y-6384242D01*
X27671211Y-6384238D01*
X27611460Y-6345838D01*
X27557421Y-6311109D01*
X27557420Y-6311108D01*
X27557419Y-6311108D01*
X27427634Y-6273000D01*
X27427633Y-6273000D01*
X27292367Y-6273000D01*
X27292366Y-6273000D01*
X27162580Y-6311108D01*
X27048788Y-6384238D01*
X27048783Y-6384242D01*
X26960209Y-6486461D01*
X26960203Y-6486471D01*
X26904013Y-6609506D01*
X26904012Y-6609511D01*
X26884763Y-6743400D01*
X15812957Y-6743400D01*
X15757421Y-6707709D01*
X15757420Y-6707708D01*
X15757419Y-6707708D01*
X15627634Y-6669600D01*
X15627633Y-6669600D01*
X15492367Y-6669600D01*
X15492366Y-6669600D01*
X15362580Y-6707708D01*
X15248788Y-6780838D01*
X15248783Y-6780842D01*
X15160209Y-6883061D01*
X15160203Y-6883071D01*
X15104013Y-7006106D01*
X15104012Y-7006111D01*
X15084763Y-7140000D01*
X100500Y-7140000D01*
X100500Y-6132993D01*
X11256058Y-6132993D01*
X11256058Y-6132994D01*
X11275717Y-6282315D01*
X11275718Y-6282319D01*
X11302028Y-6345838D01*
X11333353Y-6421462D01*
X11425039Y-6540949D01*
X11544526Y-6632635D01*
X11683672Y-6690271D01*
X11815621Y-6707642D01*
X11832993Y-6709930D01*
X11832994Y-6709930D01*
X11832995Y-6709930D01*
X11849871Y-6707708D01*
X11982316Y-6690271D01*
X12121462Y-6632635D01*
X12240949Y-6540949D01*
X12332635Y-6421462D01*
X12390271Y-6282316D01*
X12409930Y-6132994D01*
X12401189Y-6066600D01*
X23064763Y-6066600D01*
X23084012Y-6200488D01*
X23084013Y-6200493D01*
X23116994Y-6272708D01*
X23140205Y-6323533D01*
X23140208Y-6323536D01*
X23140209Y-6323538D01*
X23225061Y-6421462D01*
X23228786Y-6425760D01*
X23342579Y-6498891D01*
X23407473Y-6517945D01*
X23472366Y-6537000D01*
X23472367Y-6537000D01*
X23607633Y-6537000D01*
X23737421Y-6498891D01*
X23851214Y-6425760D01*
X23939795Y-6323533D01*
X23972026Y-6252957D01*
X31073010Y-6252957D01*
X31092259Y-6386845D01*
X31092260Y-6386850D01*
X31120218Y-6448067D01*
X31148452Y-6509890D01*
X31148455Y-6509893D01*
X31148456Y-6509895D01*
X31234774Y-6609511D01*
X31237033Y-6612117D01*
X31350826Y-6685248D01*
X31415720Y-6704302D01*
X31480613Y-6723357D01*
X31480614Y-6723357D01*
X31615880Y-6723357D01*
X31745668Y-6685248D01*
X31859461Y-6612117D01*
X31948042Y-6509890D01*
X32004234Y-6386847D01*
X32023484Y-6252957D01*
X32004234Y-6119067D01*
X32004233Y-6119066D01*
X32004233Y-6119063D01*
X31950040Y-6000400D01*
X31948042Y-5996024D01*
X31937339Y-5983672D01*
X31859463Y-5893799D01*
X31859458Y-5893795D01*
X31782799Y-5844529D01*
X31745668Y-5820666D01*
X31745667Y-5820665D01*
X31745666Y-5820665D01*
X31615881Y-5782557D01*
X31615880Y-5782557D01*
X31480614Y-5782557D01*
X31480613Y-5782557D01*
X31350827Y-5820665D01*
X31237035Y-5893795D01*
X31237030Y-5893799D01*
X31148456Y-5996018D01*
X31148450Y-5996028D01*
X31092260Y-6119063D01*
X31092259Y-6119068D01*
X31073010Y-6252957D01*
X23972026Y-6252957D01*
X23995987Y-6200490D01*
X24015237Y-6066600D01*
X23995987Y-5932710D01*
X23995986Y-5932709D01*
X23995986Y-5932706D01*
X23955716Y-5844529D01*
X23939795Y-5809667D01*
X23939790Y-5809661D01*
X23851216Y-5707442D01*
X23851211Y-5707438D01*
X23783454Y-5663893D01*
X23737421Y-5634309D01*
X23737420Y-5634308D01*
X23737419Y-5634308D01*
X23607634Y-5596200D01*
X23607633Y-5596200D01*
X23472367Y-5596200D01*
X23472366Y-5596200D01*
X23342580Y-5634308D01*
X23228788Y-5707438D01*
X23228783Y-5707442D01*
X23140209Y-5809661D01*
X23140203Y-5809671D01*
X23084013Y-5932706D01*
X23084012Y-5932711D01*
X23064763Y-6066600D01*
X12401189Y-6066600D01*
X12390271Y-5983672D01*
X12332635Y-5844526D01*
X12240949Y-5725039D01*
X12121462Y-5633353D01*
X12121458Y-5633351D01*
X11982319Y-5575718D01*
X11982317Y-5575717D01*
X11982316Y-5575717D01*
X11907655Y-5565887D01*
X11832995Y-5556058D01*
X11832993Y-5556058D01*
X11683672Y-5575717D01*
X11683668Y-5575718D01*
X11544529Y-5633351D01*
X11544526Y-5633352D01*
X11544526Y-5633353D01*
X11425039Y-5725039D01*
X11344193Y-5830400D01*
X11333351Y-5844529D01*
X11275718Y-5983668D01*
X11275717Y-5983672D01*
X11256058Y-6132993D01*
X100500Y-6132993D01*
X100500Y-4386228D01*
X1589500Y-4386228D01*
X1589500Y-4553771D01*
X1622182Y-4718074D01*
X1622184Y-4718082D01*
X1686295Y-4872860D01*
X1779373Y-5012162D01*
X1897837Y-5130626D01*
X1958019Y-5170838D01*
X2037137Y-5223703D01*
X2191918Y-5287816D01*
X2356228Y-5320499D01*
X2356232Y-5320500D01*
X2356233Y-5320500D01*
X2523768Y-5320500D01*
X2523769Y-5320499D01*
X2688082Y-5287816D01*
X2842863Y-5223703D01*
X2982162Y-5130626D01*
X3100626Y-5012162D01*
X3193703Y-4872863D01*
X3257816Y-4718082D01*
X3290500Y-4553767D01*
X3290500Y-4386233D01*
X3290499Y-4386228D01*
X7589500Y-4386228D01*
X7589500Y-4553771D01*
X7622182Y-4718074D01*
X7622184Y-4718082D01*
X7686295Y-4872860D01*
X7779373Y-5012162D01*
X7897837Y-5130626D01*
X7958019Y-5170838D01*
X8037137Y-5223703D01*
X8191918Y-5287816D01*
X8356228Y-5320499D01*
X8356232Y-5320500D01*
X8356233Y-5320500D01*
X8523768Y-5320500D01*
X8523769Y-5320499D01*
X8688082Y-5287816D01*
X8842863Y-5223703D01*
X8982162Y-5130626D01*
X9100626Y-5012162D01*
X9193703Y-4872863D01*
X9257816Y-4718082D01*
X9290500Y-4553767D01*
X9290500Y-4540000D01*
X15834763Y-4540000D01*
X15854012Y-4673888D01*
X15854013Y-4673893D01*
X15900571Y-4775838D01*
X15910205Y-4796933D01*
X15910208Y-4796936D01*
X15910209Y-4796938D01*
X15975996Y-4872860D01*
X15998786Y-4899160D01*
X16112579Y-4972291D01*
X16177473Y-4991345D01*
X16242366Y-5010400D01*
X16242367Y-5010400D01*
X16377633Y-5010400D01*
X16507421Y-4972291D01*
X16580204Y-4925516D01*
X31408842Y-4925516D01*
X31428091Y-5059404D01*
X31428092Y-5059409D01*
X31445584Y-5097709D01*
X31484284Y-5182449D01*
X31484287Y-5182452D01*
X31484288Y-5182454D01*
X31562805Y-5273067D01*
X31572865Y-5284676D01*
X31686658Y-5357807D01*
X31751552Y-5376861D01*
X31816445Y-5395916D01*
X31816446Y-5395916D01*
X31951712Y-5395916D01*
X32081500Y-5357807D01*
X32195293Y-5284676D01*
X32283874Y-5182449D01*
X32327489Y-5086944D01*
X32340065Y-5059409D01*
X32340066Y-5059404D01*
X32359316Y-4925516D01*
X32340066Y-4791626D01*
X32340065Y-4791625D01*
X32340065Y-4791622D01*
X32288905Y-4679600D01*
X32283874Y-4668583D01*
X32195293Y-4566356D01*
X32081500Y-4493225D01*
X32081499Y-4493224D01*
X32081498Y-4493224D01*
X31951713Y-4455116D01*
X31951712Y-4455116D01*
X31816446Y-4455116D01*
X31816445Y-4455116D01*
X31686659Y-4493224D01*
X31572867Y-4566354D01*
X31572862Y-4566358D01*
X31484288Y-4668577D01*
X31484282Y-4668587D01*
X31428092Y-4791622D01*
X31428091Y-4791627D01*
X31408842Y-4925516D01*
X16580204Y-4925516D01*
X16621214Y-4899160D01*
X16709795Y-4796933D01*
X16753410Y-4701428D01*
X16765986Y-4673893D01*
X16765987Y-4673888D01*
X16781447Y-4566358D01*
X16785237Y-4540000D01*
X16765987Y-4406110D01*
X16765986Y-4406109D01*
X16765986Y-4406106D01*
X16737891Y-4344588D01*
X16709795Y-4283067D01*
X16621214Y-4180840D01*
X16507421Y-4107709D01*
X16507420Y-4107708D01*
X16507419Y-4107708D01*
X16377634Y-4069600D01*
X16377633Y-4069600D01*
X16242367Y-4069600D01*
X16242366Y-4069600D01*
X16112580Y-4107708D01*
X15998788Y-4180838D01*
X15998783Y-4180842D01*
X15910209Y-4283061D01*
X15910203Y-4283071D01*
X15854013Y-4406106D01*
X15854012Y-4406111D01*
X15834763Y-4540000D01*
X9290500Y-4540000D01*
X9290500Y-4386233D01*
X9257816Y-4221918D01*
X9193703Y-4067137D01*
X9143692Y-3992291D01*
X9100626Y-3927837D01*
X8982162Y-3809373D01*
X8842860Y-3716295D01*
X8688082Y-3652184D01*
X8688074Y-3652182D01*
X8626831Y-3640000D01*
X22964763Y-3640000D01*
X22984012Y-3773888D01*
X22984013Y-3773893D01*
X23003672Y-3816938D01*
X23040205Y-3896933D01*
X23040208Y-3896936D01*
X23040209Y-3896938D01*
X23066984Y-3927838D01*
X23128786Y-3999160D01*
X23242579Y-4072291D01*
X23307473Y-4091345D01*
X23372366Y-4110400D01*
X23372367Y-4110400D01*
X23507633Y-4110400D01*
X23637421Y-4072291D01*
X23751214Y-3999160D01*
X23839795Y-3896933D01*
X23895987Y-3773890D01*
X23915237Y-3640000D01*
X23903735Y-3560000D01*
X28674763Y-3560000D01*
X28694012Y-3693888D01*
X28694013Y-3693893D01*
X28730547Y-3773888D01*
X28750205Y-3816933D01*
X28750208Y-3816936D01*
X28750209Y-3816938D01*
X28819521Y-3896928D01*
X28838786Y-3919160D01*
X28952579Y-3992291D01*
X29017473Y-4011345D01*
X29082366Y-4030400D01*
X29082367Y-4030400D01*
X29217633Y-4030400D01*
X29347421Y-3992291D01*
X29461214Y-3919160D01*
X29549795Y-3816933D01*
X29605987Y-3693890D01*
X29625237Y-3560000D01*
X29605987Y-3426110D01*
X29605986Y-3426109D01*
X29605986Y-3426106D01*
X29577891Y-3364588D01*
X29549795Y-3303067D01*
X29530535Y-3280840D01*
X29461216Y-3200842D01*
X29461211Y-3200838D01*
X29347419Y-3127708D01*
X29217634Y-3089600D01*
X29217633Y-3089600D01*
X29082367Y-3089600D01*
X29082366Y-3089600D01*
X28952580Y-3127708D01*
X28838788Y-3200838D01*
X28838783Y-3200842D01*
X28750209Y-3303061D01*
X28750203Y-3303071D01*
X28694013Y-3426106D01*
X28694012Y-3426111D01*
X28674763Y-3560000D01*
X23903735Y-3560000D01*
X23895987Y-3506110D01*
X23895986Y-3506109D01*
X23895986Y-3506106D01*
X23867891Y-3444588D01*
X23839795Y-3383067D01*
X23839790Y-3383061D01*
X23751216Y-3280842D01*
X23751211Y-3280838D01*
X23637419Y-3207708D01*
X23507634Y-3169600D01*
X23507633Y-3169600D01*
X23372367Y-3169600D01*
X23372366Y-3169600D01*
X23242580Y-3207708D01*
X23128788Y-3280838D01*
X23128783Y-3280842D01*
X23040209Y-3383061D01*
X23040203Y-3383071D01*
X22984013Y-3506106D01*
X22984012Y-3506111D01*
X22964763Y-3640000D01*
X8626831Y-3640000D01*
X8523771Y-3619500D01*
X8523767Y-3619500D01*
X8356233Y-3619500D01*
X8356228Y-3619500D01*
X8191925Y-3652182D01*
X8191917Y-3652184D01*
X8037139Y-3716295D01*
X7897837Y-3809373D01*
X7779373Y-3927837D01*
X7686295Y-4067139D01*
X7622184Y-4221917D01*
X7622182Y-4221925D01*
X7589500Y-4386228D01*
X3290499Y-4386228D01*
X3257816Y-4221918D01*
X3193703Y-4067137D01*
X3143692Y-3992291D01*
X3100626Y-3927837D01*
X2982162Y-3809373D01*
X2842860Y-3716295D01*
X2688082Y-3652184D01*
X2688074Y-3652182D01*
X2523771Y-3619500D01*
X2523767Y-3619500D01*
X2356233Y-3619500D01*
X2356228Y-3619500D01*
X2191925Y-3652182D01*
X2191917Y-3652184D01*
X2037139Y-3716295D01*
X1897837Y-3809373D01*
X1779373Y-3927837D01*
X1686295Y-4067139D01*
X1622184Y-4221917D01*
X1622182Y-4221925D01*
X1589500Y-4386228D01*
X100500Y-4386228D01*
X100500Y-2543750D01*
X100726Y-2536263D01*
X102365Y-2509161D01*
X117834Y-2253430D01*
X119639Y-2238571D01*
X122480Y-2223071D01*
X134198Y-2159125D01*
X17274749Y-2159125D01*
X17274749Y-2159128D01*
X17293518Y-2373663D01*
X17293520Y-2373674D01*
X17349256Y-2581685D01*
X17349258Y-2581689D01*
X17349259Y-2581693D01*
X17409276Y-2710400D01*
X17440274Y-2776876D01*
X17440275Y-2776878D01*
X17563802Y-2953294D01*
X17716082Y-3105574D01*
X17716085Y-3105576D01*
X17892499Y-3229102D01*
X18087684Y-3320118D01*
X18295708Y-3375858D01*
X18448952Y-3389265D01*
X18510248Y-3394628D01*
X18510250Y-3394628D01*
X18510252Y-3394628D01*
X18563885Y-3389935D01*
X18724792Y-3375858D01*
X18932816Y-3320118D01*
X19128001Y-3229102D01*
X19304415Y-3105576D01*
X19456699Y-2953292D01*
X19580225Y-2776878D01*
X19671241Y-2581693D01*
X19726981Y-2373669D01*
X19745751Y-2159127D01*
X19744952Y-2150000D01*
X22914763Y-2150000D01*
X22934012Y-2283888D01*
X22934013Y-2283893D01*
X22975011Y-2373663D01*
X22990205Y-2406933D01*
X22990208Y-2406936D01*
X22990209Y-2406938D01*
X23076860Y-2506938D01*
X23078786Y-2509160D01*
X23192579Y-2582291D01*
X23250020Y-2599157D01*
X23322366Y-2620400D01*
X23322367Y-2620400D01*
X23457633Y-2620400D01*
X23587421Y-2582291D01*
X23701214Y-2509160D01*
X23789795Y-2406933D01*
X23845987Y-2283890D01*
X23850860Y-2250000D01*
X28684763Y-2250000D01*
X28704012Y-2383888D01*
X28704013Y-2383893D01*
X28736104Y-2454160D01*
X28760205Y-2506933D01*
X28760208Y-2506936D01*
X28760209Y-2506938D01*
X28840121Y-2599161D01*
X28848786Y-2609160D01*
X28962579Y-2682291D01*
X29027473Y-2701345D01*
X29092366Y-2720400D01*
X29092367Y-2720400D01*
X29227633Y-2720400D01*
X29357421Y-2682291D01*
X29471214Y-2609160D01*
X29559795Y-2506933D01*
X29572095Y-2480000D01*
X31438163Y-2480000D01*
X31457412Y-2613888D01*
X31457413Y-2613893D01*
X31501488Y-2710400D01*
X31513605Y-2736933D01*
X31513608Y-2736936D01*
X31513609Y-2736938D01*
X31548217Y-2776878D01*
X31602186Y-2839160D01*
X31715979Y-2912291D01*
X31780873Y-2931345D01*
X31845766Y-2950400D01*
X31845767Y-2950400D01*
X31981033Y-2950400D01*
X32110821Y-2912291D01*
X32224614Y-2839160D01*
X32313195Y-2736933D01*
X32369387Y-2613890D01*
X32388637Y-2480000D01*
X32369387Y-2346110D01*
X32369386Y-2346109D01*
X32369386Y-2346106D01*
X32340971Y-2283888D01*
X32313195Y-2223067D01*
X32257790Y-2159127D01*
X32224616Y-2120842D01*
X32224611Y-2120838D01*
X32187523Y-2097003D01*
X32110821Y-2047709D01*
X32110820Y-2047708D01*
X32110819Y-2047708D01*
X31981034Y-2009600D01*
X31981033Y-2009600D01*
X31845767Y-2009600D01*
X31845766Y-2009600D01*
X31715980Y-2047708D01*
X31602188Y-2120838D01*
X31602183Y-2120842D01*
X31513609Y-2223061D01*
X31513603Y-2223071D01*
X31457413Y-2346106D01*
X31457412Y-2346111D01*
X31438163Y-2480000D01*
X29572095Y-2480000D01*
X29605466Y-2406928D01*
X29615986Y-2383893D01*
X29615987Y-2383888D01*
X29617424Y-2373893D01*
X29635237Y-2250000D01*
X29615987Y-2116110D01*
X29615986Y-2116109D01*
X29615986Y-2116106D01*
X29584749Y-2047708D01*
X29559795Y-1993067D01*
X29559790Y-1993061D01*
X29471216Y-1890842D01*
X29471211Y-1890838D01*
X29357419Y-1817708D01*
X29227634Y-1779600D01*
X29227633Y-1779600D01*
X29092367Y-1779600D01*
X29092366Y-1779600D01*
X28962580Y-1817708D01*
X28848788Y-1890838D01*
X28848783Y-1890842D01*
X28760209Y-1993061D01*
X28760203Y-1993071D01*
X28704013Y-2116106D01*
X28704012Y-2116111D01*
X28684763Y-2250000D01*
X23850860Y-2250000D01*
X23865237Y-2150000D01*
X23845987Y-2016110D01*
X23845986Y-2016109D01*
X23845986Y-2016106D01*
X23813325Y-1944590D01*
X23789795Y-1893067D01*
X23779200Y-1880840D01*
X23701216Y-1790842D01*
X23701211Y-1790838D01*
X23587419Y-1717708D01*
X23457634Y-1679600D01*
X23457633Y-1679600D01*
X23322367Y-1679600D01*
X23322366Y-1679600D01*
X23192580Y-1717708D01*
X23078788Y-1790838D01*
X23078783Y-1790842D01*
X22990209Y-1893061D01*
X22990203Y-1893071D01*
X22934013Y-2016106D01*
X22934012Y-2016111D01*
X22914763Y-2150000D01*
X19744952Y-2150000D01*
X19736003Y-2047708D01*
X19726981Y-1944585D01*
X19671241Y-1736561D01*
X19580225Y-1541377D01*
X19456699Y-1364962D01*
X19456697Y-1364959D01*
X19304417Y-1212679D01*
X19128001Y-1089152D01*
X19127999Y-1089151D01*
X19106117Y-1078947D01*
X18932816Y-998136D01*
X18932812Y-998135D01*
X18932808Y-998133D01*
X18724797Y-942397D01*
X18724793Y-942396D01*
X18724792Y-942396D01*
X18724791Y-942395D01*
X18724786Y-942395D01*
X18510252Y-923626D01*
X18510248Y-923626D01*
X18295713Y-942395D01*
X18295702Y-942397D01*
X18087691Y-998133D01*
X18087682Y-998137D01*
X17892501Y-1089151D01*
X17892499Y-1089152D01*
X17716082Y-1212679D01*
X17563802Y-1364959D01*
X17440275Y-1541376D01*
X17440274Y-1541378D01*
X17349260Y-1736559D01*
X17349256Y-1736568D01*
X17293520Y-1944579D01*
X17293518Y-1944590D01*
X17274749Y-2159125D01*
X134198Y-2159125D01*
X170036Y-1963559D01*
X173619Y-1949025D01*
X175003Y-1944585D01*
X256798Y-1682096D01*
X262100Y-1668113D01*
X376858Y-1413133D01*
X383803Y-1399900D01*
X528459Y-1160610D01*
X536946Y-1148314D01*
X709391Y-928204D01*
X719306Y-917013D01*
X917013Y-719306D01*
X928204Y-709391D01*
X1112027Y-565375D01*
X1176940Y-539527D01*
X1245522Y-552876D01*
X1296001Y-601184D01*
X1312500Y-662987D01*
X1312500Y-790908D01*
X1349204Y-927892D01*
X1420112Y-1050708D01*
X1520392Y-1150988D01*
X1643208Y-1221896D01*
X1780192Y-1258600D01*
X1780194Y-1258600D01*
X3099806Y-1258600D01*
X3099808Y-1258600D01*
X3236792Y-1221896D01*
X3359608Y-1150988D01*
X3459888Y-1050708D01*
X3530796Y-927892D01*
X3567500Y-790908D01*
X3567500Y-649092D01*
X3530796Y-512108D01*
X3459888Y-389292D01*
X3382777Y-312181D01*
X3349292Y-250858D01*
X3354276Y-181166D01*
X3396148Y-125233D01*
X3461612Y-100816D01*
X3470458Y-100500D01*
X35561198Y-100500D01*
X35628237Y-120185D01*
G37*
%TD.AperFunction*%
%TD*%
%TA.AperFunction,Conductor*%
%TO.N,GNDA*%
G36*
X37420000Y-6990000D02*
G01*
X37430000Y-13250000D01*
X36264246Y-13245952D01*
X36264245Y-13245951D01*
X36139730Y-13245518D01*
X36139729Y-13245518D01*
X34550000Y-13240000D01*
X34652540Y-9440000D01*
X35904763Y-9440000D01*
X35924012Y-9573888D01*
X35924013Y-9573893D01*
X35970571Y-9675838D01*
X35980205Y-9696933D01*
X36068786Y-9799160D01*
X36182579Y-9872291D01*
X36247473Y-9891345D01*
X36312366Y-9910400D01*
X36312367Y-9910400D01*
X36447633Y-9910400D01*
X36577421Y-9872291D01*
X36691214Y-9799160D01*
X36779795Y-9696933D01*
X36835987Y-9573890D01*
X36855237Y-9440000D01*
X36835987Y-9306110D01*
X36835986Y-9306109D01*
X36835986Y-9306106D01*
X36807891Y-9244588D01*
X36779795Y-9183067D01*
X36691214Y-9080840D01*
X36577421Y-9007709D01*
X36577420Y-9007708D01*
X36577419Y-9007708D01*
X36447634Y-8969600D01*
X36447633Y-8969600D01*
X36312367Y-8969600D01*
X36312366Y-8969600D01*
X36182580Y-9007708D01*
X36068788Y-9080838D01*
X36068783Y-9080842D01*
X35980209Y-9183061D01*
X35980203Y-9183071D01*
X35924013Y-9306106D01*
X35924012Y-9306111D01*
X35904763Y-9440000D01*
X34652540Y-9440000D01*
X34720000Y-6940000D01*
X37420000Y-6990000D01*
G37*
%TD.AperFunction*%
%TD*%
M02*
