M48
; DRILL file {KiCad 8.0.4} date 2025-03-23T22:29:43-0400
; FORMAT={-:-/ absolute / metric / decimal}
; #@! TF.CreationDate,2025-03-23T22:29:43-04:00
; #@! TF.GenerationSoftware,Kicad,Pcbnew,8.0.4
; #@! TF.FileFunction,Plated,1,4,PTH
FMAT,2
METRIC
; #@! TA.AperFunction,Plated,PTH,ViaDrill
T1C0.330
; #@! TA.AperFunction,Plated,PTH,ViaDrill
T2C0.381
; #@! TA.AperFunction,Plated,PTH,ComponentDrill
T3C0.500
; #@! TA.AperFunction,Plated,PTH,ComponentDrill
T4C0.750
; #@! TA.AperFunction,Plated,PTH,ComponentDrill
T5C1.000
; #@! TA.AperFunction,Plated,PTH,ComponentDrill
T6C1.100
; #@! TA.AperFunction,Plated,PTH,ComponentDrill
T7C1.760
%
G90
G05
T1
X9.29Y-12.31
X9.54Y-23.58
X9.73Y-20.53
X10.75Y-8.3
X11.25Y-10.2
X11.59Y-3.73
X11.67Y-2.48
X14.09Y-0.95
X15.56Y-7.14
X15.86Y-11.53
X16.31Y-4.54
X16.59Y-12.6
X17.3Y-11.53
X17.86Y-23.55
X18.3Y-12.73
X18.87Y-27.7
X19.03Y-11.55
X19.54Y-22.59
X19.7Y-12.68
X20.953Y-7.214
X21.88Y-27.73
X23.39Y-2.15
X23.44Y-3.64
X23.54Y-6.067
X23.597Y-4.76
X24.14Y-21.65
X26.2Y-3.585
X27.36Y-6.743
X29.15Y-3.56
X29.16Y-2.25
X31.548Y-6.253
X31.884Y-4.926
X31.913Y-2.48
X32.0Y-16.19
X32.735Y-6.705
X34.08Y-5.53
X34.16Y-2.24
X35.31Y-6.71
X35.85Y-0.89
X36.38Y-9.44
X36.53Y-6.64
X36.62Y-10.58
X37.12Y-0.91
X37.28Y-6.29
X38.15Y-5.36
X38.16Y-12.14
X38.49Y-4.137
X39.18Y-16.2
X39.347Y-7.12
X39.37Y-19.7
X39.61Y-9.58
X39.64Y-23.03
X39.65Y-26.76
X39.66Y-25.37
X39.7Y-24.15
X39.74Y-14.45
X39.81Y-13.47
X39.906Y-5.93
X40.05Y-3.61
X40.54Y-14.26
X41.72Y-5.15
X42.03Y-23.11
X42.1Y-21.72
X42.55Y-20.59
X42.625Y-2.095
X42.78Y-17.76
X42.92Y-19.31
X43.81Y-2.29
X45.06Y-2.84
X45.434Y-18.58
X47.95Y-27.79
X48.31Y-25.01
T2
X11.8Y-7.9
X11.833Y-6.133
T4
X34.74Y-26.67
X36.74Y-26.67
T5
X1.48Y-10.49
X1.48Y-24.49
X4.02Y-10.49
X4.02Y-24.49
X6.56Y-10.49
X6.56Y-24.49
X12.989Y-18.948
X13.016Y-16.408
X15.528Y-16.408
X15.528Y-18.948
X18.069Y-16.408
X18.069Y-18.948
X20.552Y-16.501
X20.608Y-18.948
T7
X48.85Y-9.75
X48.85Y-18.87
X53.3Y-9.75
X53.3Y-18.87
T3
X2.09Y-0.72G85X2.79Y-0.72
G05
X2.09Y-8.22G85X2.79Y-8.22
G05
T6
X26.837Y-16.916G85X27.487Y-16.916
G05
X26.837Y-19.456G85X27.487Y-19.456
G05
M30
