%TF.GenerationSoftware,KiCad,Pcbnew,7.0.6*%
%TF.CreationDate,2024-05-03T22:58:32-04:00*%
%TF.ProjectId,mainbox_baclup,6d61696e-626f-4785-9f62-61636c75702e,rev?*%
%TF.SameCoordinates,Original*%
%TF.FileFunction,Soldermask,Bot*%
%TF.FilePolarity,Negative*%
%FSLAX46Y46*%
G04 Gerber Fmt 4.6, Leading zero omitted, Abs format (unit mm)*
G04 Created by KiCad (PCBNEW 7.0.6) date 2024-05-03 22:58:32*
%MOMM*%
%LPD*%
G01*
G04 APERTURE LIST*
%ADD10C,2.004000*%
%ADD11C,6.400000*%
%ADD12R,1.700000X1.700000*%
%ADD13O,1.700000X1.700000*%
%ADD14C,1.725000*%
G04 APERTURE END LIST*
D10*
%TO.C,U5*%
X167132000Y-92202000D03*
X169672000Y-92202000D03*
X172212000Y-92202000D03*
X174752000Y-92202000D03*
X200152000Y-92202000D03*
X169672000Y-76962000D03*
X210312000Y-87122000D03*
X177292000Y-92202000D03*
X179832000Y-92202000D03*
X170942000Y-89152000D03*
X182372000Y-92202000D03*
X184912000Y-92202000D03*
X187452000Y-92202000D03*
X189992000Y-92202000D03*
X192532000Y-92202000D03*
X195072000Y-92202000D03*
X197612000Y-92202000D03*
X197612000Y-76962000D03*
X195072000Y-76962000D03*
X192532000Y-76962000D03*
X189992000Y-76962000D03*
X187452000Y-76962000D03*
X184912000Y-76962000D03*
X182372000Y-76962000D03*
X179832000Y-76962000D03*
X177292000Y-76962000D03*
X174752000Y-76962000D03*
X172212000Y-76962000D03*
X202692000Y-92202000D03*
X205232000Y-92202000D03*
X207772000Y-92202000D03*
X210312000Y-92202000D03*
X212852000Y-92202000D03*
X215392000Y-92202000D03*
X217932000Y-92202000D03*
X220472000Y-92202000D03*
X223012000Y-92202000D03*
X223012000Y-76962000D03*
X220472000Y-76962000D03*
X217932000Y-76962000D03*
X215392000Y-76962000D03*
X212852000Y-76962000D03*
X210312000Y-76962000D03*
X207772000Y-76962000D03*
X205232000Y-76962000D03*
X202692000Y-76962000D03*
X176022000Y-89152000D03*
X173482000Y-89152000D03*
X164592000Y-92202000D03*
X200152000Y-76962000D03*
X167132000Y-76962000D03*
X210312000Y-84582000D03*
X179562000Y-81412000D03*
X177562000Y-81412000D03*
X210312000Y-79502000D03*
X210312000Y-82042000D03*
X177562000Y-79412000D03*
X179562000Y-79412000D03*
X179562000Y-83412000D03*
X177562000Y-83412000D03*
X178562000Y-89152000D03*
X181102000Y-89152000D03*
X210312000Y-89662000D03*
X164592000Y-76962000D03*
X167132000Y-79502000D03*
%TD*%
D11*
%TO.C,H1*%
X208788000Y-71755000D03*
%TD*%
%TO.C,H3*%
X159788000Y-129755000D03*
%TD*%
D12*
%TO.C,J9*%
X182499000Y-100711000D03*
D13*
X185039000Y-100711000D03*
%TD*%
D12*
%TO.C,J8*%
X161671000Y-108458000D03*
D13*
X161671000Y-110998000D03*
%TD*%
D12*
%TO.C,J11*%
X158491000Y-91821000D03*
D13*
X161031000Y-91821000D03*
%TD*%
D14*
%TO.C,PS1*%
X203962000Y-122465000D03*
X206502000Y-122465000D03*
X209042000Y-122465000D03*
%TD*%
D12*
%TO.C,J6*%
X208229200Y-95961200D03*
%TD*%
%TO.C,J2*%
X158491000Y-89281000D03*
D13*
X161031000Y-89281000D03*
%TD*%
D12*
%TO.C,J4*%
X161036000Y-114676000D03*
D13*
X161036000Y-117216000D03*
%TD*%
D11*
%TO.C,H2*%
X159788000Y-71755000D03*
%TD*%
D12*
%TO.C,J5*%
X158498000Y-114709000D03*
D13*
X158498000Y-117249000D03*
%TD*%
D11*
%TO.C,H4*%
X208788000Y-129755000D03*
%TD*%
M02*
