%TF.GenerationSoftware,KiCad,Pcbnew,7.0.10*%
%TF.CreationDate,2024-08-04T13:32:34-04:00*%
%TF.ProjectId,accessoryidk,61636365-7373-46f7-9279-69646b2e6b69,rev?*%
%TF.SameCoordinates,Original*%
%TF.FileFunction,Drillmap*%
%TF.FilePolarity,Positive*%
%FSLAX45Y45*%
G04 Gerber Fmt 4.5, Leading zero omitted, Abs format (unit mm)*
G04 Created by KiCad (PCBNEW 7.0.10) date 2024-08-04 13:32:34*
%MOMM*%
%LPD*%
G01*
G04 APERTURE LIST*
%ADD10C,0.100000*%
%ADD11C,0.200000*%
%ADD12C,0.104140*%
%ADD13C,0.317500*%
G04 APERTURE END LIST*
D10*
X3500000Y-1371600D02*
X13150000Y-1371600D01*
X13150000Y-9271600D01*
X3500000Y-9271600D01*
X3500000Y-1371600D01*
D11*
D10*
X5009200Y-7371400D02*
X5049200Y-7411400D01*
X5049200Y-7371400D02*
X5009200Y-7411400D01*
X5136200Y-5593400D02*
X5176200Y-5633400D01*
X5176200Y-5593400D02*
X5136200Y-5633400D01*
X5263200Y-4526600D02*
X5303200Y-4566600D01*
X5303200Y-4526600D02*
X5263200Y-4566600D01*
X5771200Y-6101400D02*
X5811200Y-6141400D01*
X5811200Y-6101400D02*
X5771200Y-6141400D01*
X5771200Y-6279200D02*
X5811200Y-6319200D01*
X5811200Y-6279200D02*
X5771200Y-6319200D01*
X5872800Y-3790000D02*
X5912800Y-3830000D01*
X5912800Y-3790000D02*
X5872800Y-3830000D01*
X6114100Y-2824800D02*
X6154100Y-2864800D01*
X6154100Y-2824800D02*
X6114100Y-2864800D01*
X6381122Y-2920523D02*
X6421122Y-2960523D01*
X6421122Y-2920523D02*
X6381122Y-2960523D01*
X6507800Y-3129600D02*
X6547800Y-3169600D01*
X6547800Y-3129600D02*
X6507800Y-3169600D01*
X6551600Y-4247200D02*
X6591600Y-4287200D01*
X6591600Y-4247200D02*
X6551600Y-4287200D01*
X6584000Y-8031800D02*
X6624000Y-8071800D01*
X6624000Y-8031800D02*
X6584000Y-8071800D01*
X6635600Y-6110107D02*
X6675600Y-6150107D01*
X6675600Y-6110107D02*
X6635600Y-6150107D01*
X6672900Y-7053900D02*
X6712900Y-7093900D01*
X6712900Y-7053900D02*
X6672900Y-7093900D01*
X6863400Y-3028000D02*
X6903400Y-3068000D01*
X6903400Y-3028000D02*
X6863400Y-3068000D01*
X6990400Y-3282000D02*
X7030400Y-3322000D01*
X7030400Y-3282000D02*
X6990400Y-3322000D01*
X7088552Y-2668953D02*
X7128552Y-2708953D01*
X7128552Y-2668953D02*
X7088552Y-2708953D01*
X7307050Y-7280050D02*
X7347050Y-7320050D01*
X7347050Y-7280050D02*
X7307050Y-7320050D01*
X7447600Y-6380800D02*
X7487600Y-6420800D01*
X7487600Y-6380800D02*
X7447600Y-6420800D01*
X7625400Y-5593400D02*
X7665400Y-5633400D01*
X7665400Y-5593400D02*
X7625400Y-5633400D01*
X7676200Y-4285300D02*
X7716200Y-4325300D01*
X7716200Y-4285300D02*
X7676200Y-4325300D01*
X7701600Y-6380800D02*
X7741600Y-6420800D01*
X7741600Y-6380800D02*
X7701600Y-6420800D01*
X7739700Y-3878900D02*
X7779700Y-3918900D01*
X7779700Y-3878900D02*
X7739700Y-3918900D01*
X7790500Y-2761300D02*
X7830500Y-2801300D01*
X7830500Y-2761300D02*
X7790500Y-2801300D01*
X7803200Y-5441000D02*
X7843200Y-5481000D01*
X7843200Y-5441000D02*
X7803200Y-5481000D01*
X7803200Y-5822000D02*
X7843200Y-5862000D01*
X7843200Y-5822000D02*
X7803200Y-5862000D01*
X7904800Y-4555700D02*
X7944800Y-4595700D01*
X7944800Y-4555700D02*
X7904800Y-4595700D01*
X7981000Y-5987100D02*
X8021000Y-6027100D01*
X8021000Y-5987100D02*
X7981000Y-6027100D01*
X8057200Y-2850200D02*
X8097200Y-2890200D01*
X8097200Y-2850200D02*
X8057200Y-2890200D01*
X8090300Y-5898200D02*
X8130300Y-5938200D01*
X8130300Y-5898200D02*
X8090300Y-5938200D01*
X8133400Y-3586800D02*
X8173400Y-3626800D01*
X8173400Y-3586800D02*
X8133400Y-3626800D01*
X8145250Y-7394350D02*
X8185250Y-7434350D01*
X8185250Y-7394350D02*
X8145250Y-7434350D01*
X8158800Y-3231200D02*
X8198800Y-3271200D01*
X8198800Y-3231200D02*
X8158800Y-3271200D01*
X8184200Y-6126800D02*
X8224200Y-6166800D01*
X8224200Y-6126800D02*
X8184200Y-6166800D01*
X8215700Y-4700700D02*
X8255700Y-4740700D01*
X8255700Y-4700700D02*
X8215700Y-4740700D01*
X8235000Y-6711000D02*
X8275000Y-6751000D01*
X8275000Y-6711000D02*
X8235000Y-6751000D01*
X8260400Y-4472100D02*
X8300400Y-4512100D01*
X8300400Y-4472100D02*
X8260400Y-4512100D01*
X8260400Y-5593400D02*
X8300400Y-5633400D01*
X8300400Y-5593400D02*
X8260400Y-5633400D01*
X8331061Y-2974565D02*
X8371061Y-3014565D01*
X8371061Y-2974565D02*
X8331061Y-3014565D01*
X8375333Y-3227500D02*
X8415333Y-3267500D01*
X8415333Y-3227500D02*
X8375333Y-3267500D01*
X8412800Y-4612800D02*
X8452800Y-4652800D01*
X8452800Y-4612800D02*
X8412800Y-4652800D01*
X8464010Y-3599268D02*
X8504010Y-3639268D01*
X8504010Y-3599268D02*
X8464010Y-3639268D01*
X8540809Y-4451409D02*
X8580809Y-4491409D01*
X8580809Y-4451409D02*
X8540809Y-4491409D01*
X8590600Y-4831400D02*
X8630600Y-4871400D01*
X8630600Y-4831400D02*
X8590600Y-4871400D01*
X8663353Y-2668953D02*
X8703353Y-2708953D01*
X8703353Y-2668953D02*
X8663353Y-2708953D01*
X9009700Y-8069900D02*
X9049700Y-8109900D01*
X9049700Y-8069900D02*
X9009700Y-8109900D01*
X9073200Y-2374100D02*
X9113200Y-2414100D01*
X9113200Y-2374100D02*
X9073200Y-2414100D01*
X9124000Y-3840700D02*
X9164000Y-3880700D01*
X9164000Y-3840700D02*
X9124000Y-3880700D01*
X9263700Y-2723200D02*
X9303700Y-2763200D01*
X9303700Y-2723200D02*
X9263700Y-2763200D01*
X9285725Y-8023252D02*
X9325725Y-8063252D01*
X9325725Y-8023252D02*
X9285725Y-8063252D01*
X9301800Y-2393000D02*
X9341800Y-2433000D01*
X9341800Y-2393000D02*
X9301800Y-2433000D01*
X9301800Y-7625400D02*
X9341800Y-7665400D01*
X9341800Y-7625400D02*
X9301800Y-7665400D01*
X9342432Y-3647526D02*
X9382432Y-3687526D01*
X9382432Y-3647526D02*
X9342432Y-3687526D01*
X9454200Y-4145600D02*
X9494200Y-4185600D01*
X9494200Y-4145600D02*
X9454200Y-4185600D01*
X9479600Y-3184100D02*
X9519600Y-3224100D01*
X9519600Y-3184100D02*
X9479600Y-3224100D01*
X9529935Y-4044465D02*
X9569935Y-4084465D01*
X9569935Y-4044465D02*
X9529935Y-4084465D01*
X9530400Y-2824800D02*
X9570400Y-2864800D01*
X9570400Y-2824800D02*
X9530400Y-2864800D01*
X9568500Y-8019100D02*
X9608500Y-8059100D01*
X9608500Y-8019100D02*
X9568500Y-8059100D01*
X9581200Y-8730300D02*
X9621200Y-8770300D01*
X9621200Y-8730300D02*
X9581200Y-8770300D01*
X9606600Y-2164400D02*
X9646600Y-2204400D01*
X9646600Y-2164400D02*
X9606600Y-2204400D01*
X9606600Y-6076000D02*
X9646600Y-6116000D01*
X9646600Y-6076000D02*
X9606600Y-6116000D01*
X9632000Y-7777800D02*
X9672000Y-7817800D01*
X9672000Y-7777800D02*
X9632000Y-7817800D01*
X9682800Y-6203000D02*
X9722800Y-6243000D01*
X9722800Y-6203000D02*
X9682800Y-6243000D01*
X9708200Y-3155000D02*
X9748200Y-3195000D01*
X9748200Y-3155000D02*
X9708200Y-3195000D01*
X9708200Y-5644200D02*
X9748200Y-5684200D01*
X9748200Y-5644200D02*
X9708200Y-5684200D01*
X9784400Y-6914200D02*
X9824400Y-6954200D01*
X9824400Y-6914200D02*
X9784400Y-6954200D01*
X9886000Y-3002600D02*
X9926000Y-3042600D01*
X9926000Y-3002600D02*
X9886000Y-3042600D01*
X9886000Y-3282000D02*
X9926000Y-3322000D01*
X9926000Y-3282000D02*
X9886000Y-3322000D01*
X10036455Y-3439649D02*
X10076455Y-3479649D01*
X10076455Y-3439649D02*
X10036455Y-3479649D01*
X10038400Y-2443800D02*
X10078400Y-2483800D01*
X10078400Y-2443800D02*
X10038400Y-2483800D01*
X10038400Y-5745800D02*
X10078400Y-5785800D01*
X10078400Y-5745800D02*
X10038400Y-5785800D01*
X10063800Y-6685600D02*
X10103800Y-6725600D01*
X10103800Y-6685600D02*
X10063800Y-6725600D01*
X10114600Y-7219000D02*
X10154600Y-7259000D01*
X10154600Y-7219000D02*
X10114600Y-7259000D01*
X10140000Y-3078800D02*
X10180000Y-3118800D01*
X10180000Y-3078800D02*
X10140000Y-3118800D01*
X10190800Y-3982000D02*
X10230800Y-4022000D01*
X10230800Y-3982000D02*
X10190800Y-4022000D01*
X10193073Y-5973964D02*
X10233073Y-6013964D01*
X10233073Y-5973964D02*
X10193073Y-6013964D01*
X10259215Y-3532204D02*
X10299215Y-3572204D01*
X10299215Y-3532204D02*
X10259215Y-3572204D01*
X10292400Y-6787200D02*
X10332400Y-6827200D01*
X10332400Y-6787200D02*
X10292400Y-6827200D01*
X10317800Y-6495100D02*
X10357800Y-6535100D01*
X10357800Y-6495100D02*
X10317800Y-6535100D01*
X10330500Y-4107500D02*
X10370500Y-4147500D01*
X10370500Y-4107500D02*
X10330500Y-4147500D01*
X10368600Y-3176700D02*
X10408600Y-3216700D01*
X10408600Y-3176700D02*
X10368600Y-3216700D01*
X10444800Y-3637600D02*
X10484800Y-3677600D01*
X10484800Y-3637600D02*
X10444800Y-3677600D01*
X10444800Y-3765065D02*
X10484800Y-3805065D01*
X10484800Y-3765065D02*
X10444800Y-3805065D01*
X10444800Y-4526600D02*
X10484800Y-4566600D01*
X10484800Y-4526600D02*
X10444800Y-4566600D01*
X10482900Y-3891600D02*
X10522900Y-3931600D01*
X10522900Y-3891600D02*
X10482900Y-3931600D01*
X10603085Y-3782254D02*
X10643085Y-3822254D01*
X10643085Y-3782254D02*
X10603085Y-3822254D01*
X10609900Y-4733500D02*
X10649900Y-4773500D01*
X10649900Y-4733500D02*
X10609900Y-4773500D01*
X10774535Y-4095265D02*
X10814535Y-4135265D01*
X10814535Y-4095265D02*
X10774535Y-4135265D01*
X10781535Y-5980565D02*
X10821535Y-6020565D01*
X10821535Y-5980565D02*
X10781535Y-6020565D01*
X10800400Y-2590000D02*
X10840400Y-2630000D01*
X10840400Y-2590000D02*
X10800400Y-2630000D01*
X10800400Y-3536000D02*
X10840400Y-3576000D01*
X10840400Y-3536000D02*
X10800400Y-3576000D01*
X10800400Y-3866200D02*
X10840400Y-3906200D01*
X10840400Y-3866200D02*
X10800400Y-3906200D01*
X10800400Y-6939600D02*
X10840400Y-6979600D01*
X10840400Y-6939600D02*
X10800400Y-6979600D01*
X10876600Y-4552000D02*
X10916600Y-4592000D01*
X10916600Y-4552000D02*
X10876600Y-4592000D01*
X10882950Y-5777550D02*
X10922950Y-5817550D01*
X10922950Y-5777550D02*
X10882950Y-5817550D01*
X11030303Y-2594898D02*
X11070303Y-2634898D01*
X11070303Y-2594898D02*
X11030303Y-2634898D01*
X11765600Y-6761800D02*
X11805600Y-6801800D01*
X11805600Y-6761800D02*
X11765600Y-6801800D01*
X12121200Y-6812600D02*
X12161200Y-6852600D01*
X12161200Y-6812600D02*
X12121200Y-6852600D01*
X4078600Y-2705100D02*
G75*
G03*
X3998600Y-2705100I-40000J0D01*
G01*
X3998600Y-2705100D02*
G75*
G03*
X4078600Y-2705100I40000J0D01*
G01*
X4078600Y-2959100D02*
G75*
G03*
X3998600Y-2959100I-40000J0D01*
G01*
X3998600Y-2959100D02*
G75*
G03*
X4078600Y-2959100I40000J0D01*
G01*
X4078600Y-3213100D02*
G75*
G03*
X3998600Y-3213100I-40000J0D01*
G01*
X3998600Y-3213100D02*
G75*
G03*
X4078600Y-3213100I40000J0D01*
G01*
X4078600Y-3467100D02*
G75*
G03*
X3998600Y-3467100I-40000J0D01*
G01*
X3998600Y-3467100D02*
G75*
G03*
X4078600Y-3467100I40000J0D01*
G01*
X4078600Y-3721100D02*
G75*
G03*
X3998600Y-3721100I-40000J0D01*
G01*
X3998600Y-3721100D02*
G75*
G03*
X4078600Y-3721100I40000J0D01*
G01*
X4078600Y-3975100D02*
G75*
G03*
X3998600Y-3975100I-40000J0D01*
G01*
X3998600Y-3975100D02*
G75*
G03*
X4078600Y-3975100I40000J0D01*
G01*
X4078600Y-4229100D02*
G75*
G03*
X3998600Y-4229100I-40000J0D01*
G01*
X3998600Y-4229100D02*
G75*
G03*
X4078600Y-4229100I40000J0D01*
G01*
X4078600Y-4483100D02*
G75*
G03*
X3998600Y-4483100I-40000J0D01*
G01*
X3998600Y-4483100D02*
G75*
G03*
X4078600Y-4483100I40000J0D01*
G01*
X4078600Y-4737100D02*
G75*
G03*
X3998600Y-4737100I-40000J0D01*
G01*
X3998600Y-4737100D02*
G75*
G03*
X4078600Y-4737100I40000J0D01*
G01*
X4078600Y-4991100D02*
G75*
G03*
X3998600Y-4991100I-40000J0D01*
G01*
X3998600Y-4991100D02*
G75*
G03*
X4078600Y-4991100I40000J0D01*
G01*
X4078600Y-5245100D02*
G75*
G03*
X3998600Y-5245100I-40000J0D01*
G01*
X3998600Y-5245100D02*
G75*
G03*
X4078600Y-5245100I40000J0D01*
G01*
X4078600Y-5499100D02*
G75*
G03*
X3998600Y-5499100I-40000J0D01*
G01*
X3998600Y-5499100D02*
G75*
G03*
X4078600Y-5499100I40000J0D01*
G01*
X4078600Y-5753100D02*
G75*
G03*
X3998600Y-5753100I-40000J0D01*
G01*
X3998600Y-5753100D02*
G75*
G03*
X4078600Y-5753100I40000J0D01*
G01*
X4078600Y-6007100D02*
G75*
G03*
X3998600Y-6007100I-40000J0D01*
G01*
X3998600Y-6007100D02*
G75*
G03*
X4078600Y-6007100I40000J0D01*
G01*
X4078600Y-6261100D02*
G75*
G03*
X3998600Y-6261100I-40000J0D01*
G01*
X3998600Y-6261100D02*
G75*
G03*
X4078600Y-6261100I40000J0D01*
G01*
X4078600Y-6515100D02*
G75*
G03*
X3998600Y-6515100I-40000J0D01*
G01*
X3998600Y-6515100D02*
G75*
G03*
X4078600Y-6515100I40000J0D01*
G01*
X4078600Y-6769100D02*
G75*
G03*
X3998600Y-6769100I-40000J0D01*
G01*
X3998600Y-6769100D02*
G75*
G03*
X4078600Y-6769100I40000J0D01*
G01*
X4078600Y-7023100D02*
G75*
G03*
X3998600Y-7023100I-40000J0D01*
G01*
X3998600Y-7023100D02*
G75*
G03*
X4078600Y-7023100I40000J0D01*
G01*
X4078600Y-7277100D02*
G75*
G03*
X3998600Y-7277100I-40000J0D01*
G01*
X3998600Y-7277100D02*
G75*
G03*
X4078600Y-7277100I40000J0D01*
G01*
X4078600Y-7531100D02*
G75*
G03*
X3998600Y-7531100I-40000J0D01*
G01*
X3998600Y-7531100D02*
G75*
G03*
X4078600Y-7531100I40000J0D01*
G01*
X4078600Y-7785100D02*
G75*
G03*
X3998600Y-7785100I-40000J0D01*
G01*
X3998600Y-7785100D02*
G75*
G03*
X4078600Y-7785100I40000J0D01*
G01*
X4078600Y-8039100D02*
G75*
G03*
X3998600Y-8039100I-40000J0D01*
G01*
X3998600Y-8039100D02*
G75*
G03*
X4078600Y-8039100I40000J0D01*
G01*
X4078600Y-8293100D02*
G75*
G03*
X3998600Y-8293100I-40000J0D01*
G01*
X3998600Y-8293100D02*
G75*
G03*
X4078600Y-8293100I40000J0D01*
G01*
X4078600Y-8547100D02*
G75*
G03*
X3998600Y-8547100I-40000J0D01*
G01*
X3998600Y-8547100D02*
G75*
G03*
X4078600Y-8547100I40000J0D01*
G01*
X4323600Y-7050100D02*
G75*
G03*
X4243600Y-7050100I-40000J0D01*
G01*
X4243600Y-7050100D02*
G75*
G03*
X4323600Y-7050100I40000J0D01*
G01*
X4323600Y-7250100D02*
G75*
G03*
X4243600Y-7250100I-40000J0D01*
G01*
X4243600Y-7250100D02*
G75*
G03*
X4323600Y-7250100I40000J0D01*
G01*
X4332600Y-3975100D02*
G75*
G03*
X4252600Y-3975100I-40000J0D01*
G01*
X4252600Y-3975100D02*
G75*
G03*
X4332600Y-3975100I40000J0D01*
G01*
X4332600Y-8293100D02*
G75*
G03*
X4252600Y-8293100I-40000J0D01*
G01*
X4252600Y-8293100D02*
G75*
G03*
X4332600Y-8293100I40000J0D01*
G01*
X4523600Y-7050100D02*
G75*
G03*
X4443600Y-7050100I-40000J0D01*
G01*
X4443600Y-7050100D02*
G75*
G03*
X4523600Y-7050100I40000J0D01*
G01*
X4523600Y-7250100D02*
G75*
G03*
X4443600Y-7250100I-40000J0D01*
G01*
X4443600Y-7250100D02*
G75*
G03*
X4523600Y-7250100I40000J0D01*
G01*
X4586600Y-3975100D02*
G75*
G03*
X4506600Y-3975100I-40000J0D01*
G01*
X4506600Y-3975100D02*
G75*
G03*
X4586600Y-3975100I40000J0D01*
G01*
X4723600Y-7050100D02*
G75*
G03*
X4643600Y-7050100I-40000J0D01*
G01*
X4643600Y-7050100D02*
G75*
G03*
X4723600Y-7050100I40000J0D01*
G01*
X4723600Y-7250100D02*
G75*
G03*
X4643600Y-7250100I-40000J0D01*
G01*
X4643600Y-7250100D02*
G75*
G03*
X4723600Y-7250100I40000J0D01*
G01*
X4840600Y-3975100D02*
G75*
G03*
X4760600Y-3975100I-40000J0D01*
G01*
X4760600Y-3975100D02*
G75*
G03*
X4840600Y-3975100I40000J0D01*
G01*
X5094600Y-3975100D02*
G75*
G03*
X5014600Y-3975100I-40000J0D01*
G01*
X5014600Y-3975100D02*
G75*
G03*
X5094600Y-3975100I40000J0D01*
G01*
X5297600Y-6896100D02*
G75*
G03*
X5217600Y-6896100I-40000J0D01*
G01*
X5217600Y-6896100D02*
G75*
G03*
X5297600Y-6896100I40000J0D01*
G01*
X5297600Y-7150100D02*
G75*
G03*
X5217600Y-7150100I-40000J0D01*
G01*
X5217600Y-7150100D02*
G75*
G03*
X5297600Y-7150100I40000J0D01*
G01*
X5297600Y-7404100D02*
G75*
G03*
X5217600Y-7404100I-40000J0D01*
G01*
X5217600Y-7404100D02*
G75*
G03*
X5297600Y-7404100I40000J0D01*
G01*
X5297600Y-7658100D02*
G75*
G03*
X5217600Y-7658100I-40000J0D01*
G01*
X5217600Y-7658100D02*
G75*
G03*
X5297600Y-7658100I40000J0D01*
G01*
X5297600Y-7912100D02*
G75*
G03*
X5217600Y-7912100I-40000J0D01*
G01*
X5217600Y-7912100D02*
G75*
G03*
X5297600Y-7912100I40000J0D01*
G01*
X5348600Y-3975100D02*
G75*
G03*
X5268600Y-3975100I-40000J0D01*
G01*
X5268600Y-3975100D02*
G75*
G03*
X5348600Y-3975100I40000J0D01*
G01*
X5602600Y-2705100D02*
G75*
G03*
X5522600Y-2705100I-40000J0D01*
G01*
X5522600Y-2705100D02*
G75*
G03*
X5602600Y-2705100I40000J0D01*
G01*
X5602600Y-2959100D02*
G75*
G03*
X5522600Y-2959100I-40000J0D01*
G01*
X5522600Y-2959100D02*
G75*
G03*
X5602600Y-2959100I40000J0D01*
G01*
X5602600Y-3213100D02*
G75*
G03*
X5522600Y-3213100I-40000J0D01*
G01*
X5522600Y-3213100D02*
G75*
G03*
X5602600Y-3213100I40000J0D01*
G01*
X5602600Y-3467100D02*
G75*
G03*
X5522600Y-3467100I-40000J0D01*
G01*
X5522600Y-3467100D02*
G75*
G03*
X5602600Y-3467100I40000J0D01*
G01*
X5602600Y-3721100D02*
G75*
G03*
X5522600Y-3721100I-40000J0D01*
G01*
X5522600Y-3721100D02*
G75*
G03*
X5602600Y-3721100I40000J0D01*
G01*
X5602600Y-3975100D02*
G75*
G03*
X5522600Y-3975100I-40000J0D01*
G01*
X5522600Y-3975100D02*
G75*
G03*
X5602600Y-3975100I40000J0D01*
G01*
X5602600Y-4229100D02*
G75*
G03*
X5522600Y-4229100I-40000J0D01*
G01*
X5522600Y-4229100D02*
G75*
G03*
X5602600Y-4229100I40000J0D01*
G01*
X5602600Y-4483100D02*
G75*
G03*
X5522600Y-4483100I-40000J0D01*
G01*
X5522600Y-4483100D02*
G75*
G03*
X5602600Y-4483100I40000J0D01*
G01*
X5602600Y-4737100D02*
G75*
G03*
X5522600Y-4737100I-40000J0D01*
G01*
X5522600Y-4737100D02*
G75*
G03*
X5602600Y-4737100I40000J0D01*
G01*
X5602600Y-4991100D02*
G75*
G03*
X5522600Y-4991100I-40000J0D01*
G01*
X5522600Y-4991100D02*
G75*
G03*
X5602600Y-4991100I40000J0D01*
G01*
X5602600Y-5245100D02*
G75*
G03*
X5522600Y-5245100I-40000J0D01*
G01*
X5522600Y-5245100D02*
G75*
G03*
X5602600Y-5245100I40000J0D01*
G01*
X5602600Y-5499100D02*
G75*
G03*
X5522600Y-5499100I-40000J0D01*
G01*
X5522600Y-5499100D02*
G75*
G03*
X5602600Y-5499100I40000J0D01*
G01*
X5602600Y-5753100D02*
G75*
G03*
X5522600Y-5753100I-40000J0D01*
G01*
X5522600Y-5753100D02*
G75*
G03*
X5602600Y-5753100I40000J0D01*
G01*
X5602600Y-6007100D02*
G75*
G03*
X5522600Y-6007100I-40000J0D01*
G01*
X5522600Y-6007100D02*
G75*
G03*
X5602600Y-6007100I40000J0D01*
G01*
X5602600Y-6261100D02*
G75*
G03*
X5522600Y-6261100I-40000J0D01*
G01*
X5522600Y-6261100D02*
G75*
G03*
X5602600Y-6261100I40000J0D01*
G01*
X5602600Y-6515100D02*
G75*
G03*
X5522600Y-6515100I-40000J0D01*
G01*
X5522600Y-6515100D02*
G75*
G03*
X5602600Y-6515100I40000J0D01*
G01*
X5602600Y-6769100D02*
G75*
G03*
X5522600Y-6769100I-40000J0D01*
G01*
X5522600Y-6769100D02*
G75*
G03*
X5602600Y-6769100I40000J0D01*
G01*
X5602600Y-7023100D02*
G75*
G03*
X5522600Y-7023100I-40000J0D01*
G01*
X5522600Y-7023100D02*
G75*
G03*
X5602600Y-7023100I40000J0D01*
G01*
X5602600Y-7277100D02*
G75*
G03*
X5522600Y-7277100I-40000J0D01*
G01*
X5522600Y-7277100D02*
G75*
G03*
X5602600Y-7277100I40000J0D01*
G01*
X5602600Y-7531100D02*
G75*
G03*
X5522600Y-7531100I-40000J0D01*
G01*
X5522600Y-7531100D02*
G75*
G03*
X5602600Y-7531100I40000J0D01*
G01*
X5602600Y-7785100D02*
G75*
G03*
X5522600Y-7785100I-40000J0D01*
G01*
X5522600Y-7785100D02*
G75*
G03*
X5602600Y-7785100I40000J0D01*
G01*
X5602600Y-8039100D02*
G75*
G03*
X5522600Y-8039100I-40000J0D01*
G01*
X5522600Y-8039100D02*
G75*
G03*
X5602600Y-8039100I40000J0D01*
G01*
X5602600Y-8293100D02*
G75*
G03*
X5522600Y-8293100I-40000J0D01*
G01*
X5522600Y-8293100D02*
G75*
G03*
X5602600Y-8293100I40000J0D01*
G01*
X5602600Y-8547100D02*
G75*
G03*
X5522600Y-8547100I-40000J0D01*
G01*
X5522600Y-8547100D02*
G75*
G03*
X5602600Y-8547100I40000J0D01*
G01*
X10070400Y-2213100D02*
X10070400Y-2308100D01*
X10022900Y-2260600D02*
X10117900Y-2260600D01*
X10172000Y-7928100D02*
X10172000Y-8023100D01*
X10124500Y-7975600D02*
X10219500Y-7975600D01*
X10193400Y-8558500D02*
X10193400Y-8653500D01*
X10145900Y-8606000D02*
X10240900Y-8606000D01*
X10210800Y-5083300D02*
X10210800Y-5178300D01*
X10163300Y-5130800D02*
X10258300Y-5130800D01*
X10320400Y-2213100D02*
X10320400Y-2308100D01*
X10272900Y-2260600D02*
X10367900Y-2260600D01*
X10349800Y-7369300D02*
X10349800Y-7464300D01*
X10302300Y-7416800D02*
X10397300Y-7416800D01*
X10422000Y-7928100D02*
X10422000Y-8023100D01*
X10374500Y-7975600D02*
X10469500Y-7975600D01*
X10443400Y-8558500D02*
X10443400Y-8653500D01*
X10395900Y-8606000D02*
X10490900Y-8606000D01*
X10460800Y-5083300D02*
X10460800Y-5178300D01*
X10413300Y-5130800D02*
X10508300Y-5130800D01*
X10570400Y-2213100D02*
X10570400Y-2308100D01*
X10522900Y-2260600D02*
X10617900Y-2260600D01*
X10599800Y-7369300D02*
X10599800Y-7464300D01*
X10552300Y-7416800D02*
X10647300Y-7416800D01*
X10672000Y-7928100D02*
X10672000Y-8023100D01*
X10624500Y-7975600D02*
X10719500Y-7975600D01*
X10693400Y-8558500D02*
X10693400Y-8653500D01*
X10645900Y-8606000D02*
X10740900Y-8606000D01*
X10710800Y-5083300D02*
X10710800Y-5178300D01*
X10663300Y-5130800D02*
X10758300Y-5130800D01*
X10820400Y-2213100D02*
X10820400Y-2308100D01*
X10772900Y-2260600D02*
X10867900Y-2260600D01*
X10849800Y-7369300D02*
X10849800Y-7464300D01*
X10802300Y-7416800D02*
X10897300Y-7416800D01*
X10922000Y-7928100D02*
X10922000Y-8023100D01*
X10874500Y-7975600D02*
X10969500Y-7975600D01*
X10943400Y-8558500D02*
X10943400Y-8653500D01*
X10895900Y-8606000D02*
X10990900Y-8606000D01*
X10960800Y-5083300D02*
X10960800Y-5178300D01*
X10913300Y-5130800D02*
X11008300Y-5130800D01*
X11070400Y-2213100D02*
X11070400Y-2308100D01*
X11022900Y-2260600D02*
X11117900Y-2260600D01*
X11099800Y-7369300D02*
X11099800Y-7464300D01*
X11052300Y-7416800D02*
X11147300Y-7416800D01*
X11172000Y-7928100D02*
X11172000Y-8023100D01*
X11124500Y-7975600D02*
X11219500Y-7975600D01*
X11193400Y-8558500D02*
X11193400Y-8653500D01*
X11145900Y-8606000D02*
X11240900Y-8606000D01*
X11210800Y-5083300D02*
X11210800Y-5178300D01*
X11163300Y-5130800D02*
X11258300Y-5130800D01*
X11298400Y-5726300D02*
X11298400Y-5821300D01*
X11250900Y-5773800D02*
X11345900Y-5773800D01*
X11298400Y-5976300D02*
X11298400Y-6071300D01*
X11250900Y-6023800D02*
X11345900Y-6023800D01*
X11298400Y-6226300D02*
X11298400Y-6321300D01*
X11250900Y-6273800D02*
X11345900Y-6273800D01*
X11298400Y-6476300D02*
X11298400Y-6571300D01*
X11250900Y-6523800D02*
X11345900Y-6523800D01*
X11298400Y-6726300D02*
X11298400Y-6821300D01*
X11250900Y-6773800D02*
X11345900Y-6773800D01*
X11303000Y-3152900D02*
X11303000Y-3247900D01*
X11255500Y-3200400D02*
X11350500Y-3200400D01*
X11303000Y-3402900D02*
X11303000Y-3497900D01*
X11255500Y-3450400D02*
X11350500Y-3450400D01*
X11303000Y-3652900D02*
X11303000Y-3747900D01*
X11255500Y-3700400D02*
X11350500Y-3700400D01*
X11303000Y-3902900D02*
X11303000Y-3997900D01*
X11255500Y-3950400D02*
X11350500Y-3950400D01*
X11303000Y-4152900D02*
X11303000Y-4247900D01*
X11255500Y-4200400D02*
X11350500Y-4200400D01*
X11303000Y-4402900D02*
X11303000Y-4497900D01*
X11255500Y-4450400D02*
X11350500Y-4450400D01*
X11320400Y-2213100D02*
X11320400Y-2308100D01*
X11272900Y-2260600D02*
X11367900Y-2260600D01*
D12*
X12043419Y-2838419D02*
X12043419Y-2764781D01*
X11969781Y-2764781D01*
X11969781Y-2838419D01*
X12043419Y-2838419D01*
X12043419Y-3114319D02*
X12043419Y-3040681D01*
X11969781Y-3040681D01*
X11969781Y-3114319D01*
X12043419Y-3114319D01*
X12043419Y-3390119D02*
X12043419Y-3316481D01*
X11969781Y-3316481D01*
X11969781Y-3390119D01*
X12043419Y-3390119D01*
X12043419Y-3666019D02*
X12043419Y-3592381D01*
X11969781Y-3592381D01*
X11969781Y-3666019D01*
X12043419Y-3666019D01*
X12043419Y-3941819D02*
X12043419Y-3868181D01*
X11969781Y-3868181D01*
X11969781Y-3941819D01*
X12043419Y-3941819D01*
X12043419Y-4217719D02*
X12043419Y-4144081D01*
X11969781Y-4144081D01*
X11969781Y-4217719D01*
X12043419Y-4217719D01*
X12043419Y-4493519D02*
X12043419Y-4419881D01*
X11969781Y-4419881D01*
X11969781Y-4493519D01*
X12043419Y-4493519D01*
X12043419Y-4769319D02*
X12043419Y-4695681D01*
X11969781Y-4695681D01*
X11969781Y-4769319D01*
X12043419Y-4769319D01*
X12043419Y-5045219D02*
X12043419Y-4971581D01*
X11969781Y-4971581D01*
X11969781Y-5045219D01*
X12043419Y-5045219D01*
X12043419Y-5321019D02*
X12043419Y-5247381D01*
X11969781Y-5247381D01*
X11969781Y-5321019D01*
X12043419Y-5321019D01*
X12043419Y-5596919D02*
X12043419Y-5523281D01*
X11969781Y-5523281D01*
X11969781Y-5596919D01*
X12043419Y-5596919D01*
X12043419Y-5872719D02*
X12043419Y-5799081D01*
X11969781Y-5799081D01*
X11969781Y-5872719D01*
X12043419Y-5872719D01*
X12043419Y-6148619D02*
X12043419Y-6074981D01*
X11969781Y-6074981D01*
X11969781Y-6148619D01*
X12043419Y-6148619D01*
X12043419Y-6424419D02*
X12043419Y-6350781D01*
X11969781Y-6350781D01*
X11969781Y-6424419D01*
X12043419Y-6424419D01*
X12043419Y-6700219D02*
X12043419Y-6626581D01*
X11969781Y-6626581D01*
X11969781Y-6700219D01*
X12043419Y-6700219D01*
X12043419Y-6976119D02*
X12043419Y-6902481D01*
X11969781Y-6902481D01*
X11969781Y-6976119D01*
X12043419Y-6976119D01*
X12043419Y-7251919D02*
X12043419Y-7178281D01*
X11969781Y-7178281D01*
X11969781Y-7251919D01*
X12043419Y-7251919D01*
X12043419Y-7527819D02*
X12043419Y-7454181D01*
X11969781Y-7454181D01*
X11969781Y-7527819D01*
X12043419Y-7527819D01*
X12043419Y-7803619D02*
X12043419Y-7729981D01*
X11969781Y-7729981D01*
X11969781Y-7803619D01*
X12043419Y-7803619D01*
X12327919Y-2974319D02*
X12327919Y-2900681D01*
X12254281Y-2900681D01*
X12254281Y-2974319D01*
X12327919Y-2974319D01*
X12327919Y-3252219D02*
X12327919Y-3178581D01*
X12254281Y-3178581D01*
X12254281Y-3252219D01*
X12327919Y-3252219D01*
X12327919Y-3528019D02*
X12327919Y-3454381D01*
X12254281Y-3454381D01*
X12254281Y-3528019D01*
X12327919Y-3528019D01*
X12327919Y-3803919D02*
X12327919Y-3730281D01*
X12254281Y-3730281D01*
X12254281Y-3803919D01*
X12327919Y-3803919D01*
X12327919Y-4079719D02*
X12327919Y-4006081D01*
X12254281Y-4006081D01*
X12254281Y-4079719D01*
X12327919Y-4079719D01*
X12327919Y-4355619D02*
X12327919Y-4281981D01*
X12254281Y-4281981D01*
X12254281Y-4355619D01*
X12327919Y-4355619D01*
X12327919Y-4631419D02*
X12327919Y-4557781D01*
X12254281Y-4557781D01*
X12254281Y-4631419D01*
X12327919Y-4631419D01*
X12327919Y-4907319D02*
X12327919Y-4833681D01*
X12254281Y-4833681D01*
X12254281Y-4907319D01*
X12327919Y-4907319D01*
X12327919Y-5183119D02*
X12327919Y-5109481D01*
X12254281Y-5109481D01*
X12254281Y-5183119D01*
X12327919Y-5183119D01*
X12327919Y-5458919D02*
X12327919Y-5385281D01*
X12254281Y-5385281D01*
X12254281Y-5458919D01*
X12327919Y-5458919D01*
X12327919Y-5734819D02*
X12327919Y-5661181D01*
X12254281Y-5661181D01*
X12254281Y-5734819D01*
X12327919Y-5734819D01*
X12327919Y-6010619D02*
X12327919Y-5936981D01*
X12254281Y-5936981D01*
X12254281Y-6010619D01*
X12327919Y-6010619D01*
X12327919Y-6286519D02*
X12327919Y-6212881D01*
X12254281Y-6212881D01*
X12254281Y-6286519D01*
X12327919Y-6286519D01*
X12327919Y-6562319D02*
X12327919Y-6488681D01*
X12254281Y-6488681D01*
X12254281Y-6562319D01*
X12327919Y-6562319D01*
X12327919Y-6838219D02*
X12327919Y-6764581D01*
X12254281Y-6764581D01*
X12254281Y-6838219D01*
X12327919Y-6838219D01*
X12327919Y-7114019D02*
X12327919Y-7040381D01*
X12254281Y-7040381D01*
X12254281Y-7114019D01*
X12327919Y-7114019D01*
X12327919Y-7389919D02*
X12327919Y-7316281D01*
X12254281Y-7316281D01*
X12254281Y-7389919D01*
X12327919Y-7389919D01*
X12327919Y-7665719D02*
X12327919Y-7592081D01*
X12254281Y-7592081D01*
X12254281Y-7665719D01*
X12327919Y-7665719D01*
D13*
X12148800Y-2266950D02*
X12307550Y-2108200D01*
X12148800Y-1949450D01*
X11990050Y-2108200D01*
X12148800Y-2266950D01*
X12148800Y-8616950D02*
X12307550Y-8458200D01*
X12148800Y-8299450D01*
X11990050Y-8458200D01*
X12148800Y-8616950D01*
D11*
X3755777Y-9588084D02*
X3755777Y-9388084D01*
X3755777Y-9388084D02*
X3803396Y-9388084D01*
X3803396Y-9388084D02*
X3831967Y-9397608D01*
X3831967Y-9397608D02*
X3851015Y-9416655D01*
X3851015Y-9416655D02*
X3860539Y-9435703D01*
X3860539Y-9435703D02*
X3870062Y-9473798D01*
X3870062Y-9473798D02*
X3870062Y-9502370D01*
X3870062Y-9502370D02*
X3860539Y-9540465D01*
X3860539Y-9540465D02*
X3851015Y-9559512D01*
X3851015Y-9559512D02*
X3831967Y-9578560D01*
X3831967Y-9578560D02*
X3803396Y-9588084D01*
X3803396Y-9588084D02*
X3755777Y-9588084D01*
X3955777Y-9588084D02*
X3955777Y-9454750D01*
X3955777Y-9492846D02*
X3965301Y-9473798D01*
X3965301Y-9473798D02*
X3974824Y-9464274D01*
X3974824Y-9464274D02*
X3993872Y-9454750D01*
X3993872Y-9454750D02*
X4012920Y-9454750D01*
X4079586Y-9588084D02*
X4079586Y-9454750D01*
X4079586Y-9388084D02*
X4070062Y-9397608D01*
X4070062Y-9397608D02*
X4079586Y-9407131D01*
X4079586Y-9407131D02*
X4089110Y-9397608D01*
X4089110Y-9397608D02*
X4079586Y-9388084D01*
X4079586Y-9388084D02*
X4079586Y-9407131D01*
X4203396Y-9588084D02*
X4184348Y-9578560D01*
X4184348Y-9578560D02*
X4174824Y-9559512D01*
X4174824Y-9559512D02*
X4174824Y-9388084D01*
X4308158Y-9588084D02*
X4289110Y-9578560D01*
X4289110Y-9578560D02*
X4279586Y-9559512D01*
X4279586Y-9559512D02*
X4279586Y-9388084D01*
X4536729Y-9588084D02*
X4536729Y-9388084D01*
X4536729Y-9388084D02*
X4603396Y-9530941D01*
X4603396Y-9530941D02*
X4670063Y-9388084D01*
X4670063Y-9388084D02*
X4670063Y-9588084D01*
X4851015Y-9588084D02*
X4851015Y-9483322D01*
X4851015Y-9483322D02*
X4841491Y-9464274D01*
X4841491Y-9464274D02*
X4822444Y-9454750D01*
X4822444Y-9454750D02*
X4784348Y-9454750D01*
X4784348Y-9454750D02*
X4765301Y-9464274D01*
X4851015Y-9578560D02*
X4831967Y-9588084D01*
X4831967Y-9588084D02*
X4784348Y-9588084D01*
X4784348Y-9588084D02*
X4765301Y-9578560D01*
X4765301Y-9578560D02*
X4755777Y-9559512D01*
X4755777Y-9559512D02*
X4755777Y-9540465D01*
X4755777Y-9540465D02*
X4765301Y-9521417D01*
X4765301Y-9521417D02*
X4784348Y-9511893D01*
X4784348Y-9511893D02*
X4831967Y-9511893D01*
X4831967Y-9511893D02*
X4851015Y-9502370D01*
X4946253Y-9454750D02*
X4946253Y-9654750D01*
X4946253Y-9464274D02*
X4965301Y-9454750D01*
X4965301Y-9454750D02*
X5003396Y-9454750D01*
X5003396Y-9454750D02*
X5022444Y-9464274D01*
X5022444Y-9464274D02*
X5031967Y-9473798D01*
X5031967Y-9473798D02*
X5041491Y-9492846D01*
X5041491Y-9492846D02*
X5041491Y-9549989D01*
X5041491Y-9549989D02*
X5031967Y-9569036D01*
X5031967Y-9569036D02*
X5022444Y-9578560D01*
X5022444Y-9578560D02*
X5003396Y-9588084D01*
X5003396Y-9588084D02*
X4965301Y-9588084D01*
X4965301Y-9588084D02*
X4946253Y-9578560D01*
X5127205Y-9569036D02*
X5136729Y-9578560D01*
X5136729Y-9578560D02*
X5127205Y-9588084D01*
X5127205Y-9588084D02*
X5117682Y-9578560D01*
X5117682Y-9578560D02*
X5127205Y-9569036D01*
X5127205Y-9569036D02*
X5127205Y-9588084D01*
X5127205Y-9464274D02*
X5136729Y-9473798D01*
X5136729Y-9473798D02*
X5127205Y-9483322D01*
X5127205Y-9483322D02*
X5117682Y-9473798D01*
X5117682Y-9473798D02*
X5127205Y-9464274D01*
X5127205Y-9464274D02*
X5127205Y-9483322D01*
D10*
X3455000Y-9896600D02*
X3495000Y-9936600D01*
X3495000Y-9896600D02*
X3455000Y-9936600D01*
D11*
X3793872Y-9808084D02*
X3812920Y-9808084D01*
X3812920Y-9808084D02*
X3831967Y-9817608D01*
X3831967Y-9817608D02*
X3841491Y-9827131D01*
X3841491Y-9827131D02*
X3851015Y-9846179D01*
X3851015Y-9846179D02*
X3860539Y-9884274D01*
X3860539Y-9884274D02*
X3860539Y-9931893D01*
X3860539Y-9931893D02*
X3851015Y-9969989D01*
X3851015Y-9969989D02*
X3841491Y-9989036D01*
X3841491Y-9989036D02*
X3831967Y-9998560D01*
X3831967Y-9998560D02*
X3812920Y-10008084D01*
X3812920Y-10008084D02*
X3793872Y-10008084D01*
X3793872Y-10008084D02*
X3774824Y-9998560D01*
X3774824Y-9998560D02*
X3765301Y-9989036D01*
X3765301Y-9989036D02*
X3755777Y-9969989D01*
X3755777Y-9969989D02*
X3746253Y-9931893D01*
X3746253Y-9931893D02*
X3746253Y-9884274D01*
X3746253Y-9884274D02*
X3755777Y-9846179D01*
X3755777Y-9846179D02*
X3765301Y-9827131D01*
X3765301Y-9827131D02*
X3774824Y-9817608D01*
X3774824Y-9817608D02*
X3793872Y-9808084D01*
X3946253Y-9989036D02*
X3955777Y-9998560D01*
X3955777Y-9998560D02*
X3946253Y-10008084D01*
X3946253Y-10008084D02*
X3936729Y-9998560D01*
X3936729Y-9998560D02*
X3946253Y-9989036D01*
X3946253Y-9989036D02*
X3946253Y-10008084D01*
X4127205Y-9874750D02*
X4127205Y-10008084D01*
X4079586Y-9798560D02*
X4031967Y-9941417D01*
X4031967Y-9941417D02*
X4155777Y-9941417D01*
X4270063Y-9808084D02*
X4289110Y-9808084D01*
X4289110Y-9808084D02*
X4308158Y-9817608D01*
X4308158Y-9817608D02*
X4317682Y-9827131D01*
X4317682Y-9827131D02*
X4327205Y-9846179D01*
X4327205Y-9846179D02*
X4336729Y-9884274D01*
X4336729Y-9884274D02*
X4336729Y-9931893D01*
X4336729Y-9931893D02*
X4327205Y-9969989D01*
X4327205Y-9969989D02*
X4317682Y-9989036D01*
X4317682Y-9989036D02*
X4308158Y-9998560D01*
X4308158Y-9998560D02*
X4289110Y-10008084D01*
X4289110Y-10008084D02*
X4270063Y-10008084D01*
X4270063Y-10008084D02*
X4251015Y-9998560D01*
X4251015Y-9998560D02*
X4241491Y-9989036D01*
X4241491Y-9989036D02*
X4231967Y-9969989D01*
X4231967Y-9969989D02*
X4222444Y-9931893D01*
X4222444Y-9931893D02*
X4222444Y-9884274D01*
X4222444Y-9884274D02*
X4231967Y-9846179D01*
X4231967Y-9846179D02*
X4241491Y-9827131D01*
X4241491Y-9827131D02*
X4251015Y-9817608D01*
X4251015Y-9817608D02*
X4270063Y-9808084D01*
X4460539Y-9808084D02*
X4479586Y-9808084D01*
X4479586Y-9808084D02*
X4498634Y-9817608D01*
X4498634Y-9817608D02*
X4508158Y-9827131D01*
X4508158Y-9827131D02*
X4517682Y-9846179D01*
X4517682Y-9846179D02*
X4527205Y-9884274D01*
X4527205Y-9884274D02*
X4527205Y-9931893D01*
X4527205Y-9931893D02*
X4517682Y-9969989D01*
X4517682Y-9969989D02*
X4508158Y-9989036D01*
X4508158Y-9989036D02*
X4498634Y-9998560D01*
X4498634Y-9998560D02*
X4479586Y-10008084D01*
X4479586Y-10008084D02*
X4460539Y-10008084D01*
X4460539Y-10008084D02*
X4441491Y-9998560D01*
X4441491Y-9998560D02*
X4431967Y-9989036D01*
X4431967Y-9989036D02*
X4422444Y-9969989D01*
X4422444Y-9969989D02*
X4412920Y-9931893D01*
X4412920Y-9931893D02*
X4412920Y-9884274D01*
X4412920Y-9884274D02*
X4422444Y-9846179D01*
X4422444Y-9846179D02*
X4431967Y-9827131D01*
X4431967Y-9827131D02*
X4441491Y-9817608D01*
X4441491Y-9817608D02*
X4460539Y-9808084D01*
X4612920Y-10008084D02*
X4612920Y-9874750D01*
X4612920Y-9893798D02*
X4622444Y-9884274D01*
X4622444Y-9884274D02*
X4641491Y-9874750D01*
X4641491Y-9874750D02*
X4670063Y-9874750D01*
X4670063Y-9874750D02*
X4689110Y-9884274D01*
X4689110Y-9884274D02*
X4698634Y-9903322D01*
X4698634Y-9903322D02*
X4698634Y-10008084D01*
X4698634Y-9903322D02*
X4708158Y-9884274D01*
X4708158Y-9884274D02*
X4727205Y-9874750D01*
X4727205Y-9874750D02*
X4755777Y-9874750D01*
X4755777Y-9874750D02*
X4774825Y-9884274D01*
X4774825Y-9884274D02*
X4784348Y-9903322D01*
X4784348Y-9903322D02*
X4784348Y-10008084D01*
X4879586Y-10008084D02*
X4879586Y-9874750D01*
X4879586Y-9893798D02*
X4889110Y-9884274D01*
X4889110Y-9884274D02*
X4908158Y-9874750D01*
X4908158Y-9874750D02*
X4936729Y-9874750D01*
X4936729Y-9874750D02*
X4955777Y-9884274D01*
X4955777Y-9884274D02*
X4965301Y-9903322D01*
X4965301Y-9903322D02*
X4965301Y-10008084D01*
X4965301Y-9903322D02*
X4974825Y-9884274D01*
X4974825Y-9884274D02*
X4993872Y-9874750D01*
X4993872Y-9874750D02*
X5022444Y-9874750D01*
X5022444Y-9874750D02*
X5041491Y-9884274D01*
X5041491Y-9884274D02*
X5051015Y-9903322D01*
X5051015Y-9903322D02*
X5051015Y-10008084D01*
X5441491Y-9798560D02*
X5270063Y-10055703D01*
X5698634Y-9808084D02*
X5717682Y-9808084D01*
X5717682Y-9808084D02*
X5736729Y-9817608D01*
X5736729Y-9817608D02*
X5746253Y-9827131D01*
X5746253Y-9827131D02*
X5755777Y-9846179D01*
X5755777Y-9846179D02*
X5765301Y-9884274D01*
X5765301Y-9884274D02*
X5765301Y-9931893D01*
X5765301Y-9931893D02*
X5755777Y-9969989D01*
X5755777Y-9969989D02*
X5746253Y-9989036D01*
X5746253Y-9989036D02*
X5736729Y-9998560D01*
X5736729Y-9998560D02*
X5717682Y-10008084D01*
X5717682Y-10008084D02*
X5698634Y-10008084D01*
X5698634Y-10008084D02*
X5679586Y-9998560D01*
X5679586Y-9998560D02*
X5670063Y-9989036D01*
X5670063Y-9989036D02*
X5660539Y-9969989D01*
X5660539Y-9969989D02*
X5651015Y-9931893D01*
X5651015Y-9931893D02*
X5651015Y-9884274D01*
X5651015Y-9884274D02*
X5660539Y-9846179D01*
X5660539Y-9846179D02*
X5670063Y-9827131D01*
X5670063Y-9827131D02*
X5679586Y-9817608D01*
X5679586Y-9817608D02*
X5698634Y-9808084D01*
X5851015Y-9989036D02*
X5860539Y-9998560D01*
X5860539Y-9998560D02*
X5851015Y-10008084D01*
X5851015Y-10008084D02*
X5841491Y-9998560D01*
X5841491Y-9998560D02*
X5851015Y-9989036D01*
X5851015Y-9989036D02*
X5851015Y-10008084D01*
X5984348Y-9808084D02*
X6003396Y-9808084D01*
X6003396Y-9808084D02*
X6022444Y-9817608D01*
X6022444Y-9817608D02*
X6031967Y-9827131D01*
X6031967Y-9827131D02*
X6041491Y-9846179D01*
X6041491Y-9846179D02*
X6051015Y-9884274D01*
X6051015Y-9884274D02*
X6051015Y-9931893D01*
X6051015Y-9931893D02*
X6041491Y-9969989D01*
X6041491Y-9969989D02*
X6031967Y-9989036D01*
X6031967Y-9989036D02*
X6022444Y-9998560D01*
X6022444Y-9998560D02*
X6003396Y-10008084D01*
X6003396Y-10008084D02*
X5984348Y-10008084D01*
X5984348Y-10008084D02*
X5965301Y-9998560D01*
X5965301Y-9998560D02*
X5955777Y-9989036D01*
X5955777Y-9989036D02*
X5946253Y-9969989D01*
X5946253Y-9969989D02*
X5936729Y-9931893D01*
X5936729Y-9931893D02*
X5936729Y-9884274D01*
X5936729Y-9884274D02*
X5946253Y-9846179D01*
X5946253Y-9846179D02*
X5955777Y-9827131D01*
X5955777Y-9827131D02*
X5965301Y-9817608D01*
X5965301Y-9817608D02*
X5984348Y-9808084D01*
X6241491Y-10008084D02*
X6127206Y-10008084D01*
X6184348Y-10008084D02*
X6184348Y-9808084D01*
X6184348Y-9808084D02*
X6165301Y-9836655D01*
X6165301Y-9836655D02*
X6146253Y-9855703D01*
X6146253Y-9855703D02*
X6127206Y-9865227D01*
X6422444Y-9808084D02*
X6327206Y-9808084D01*
X6327206Y-9808084D02*
X6317682Y-9903322D01*
X6317682Y-9903322D02*
X6327206Y-9893798D01*
X6327206Y-9893798D02*
X6346253Y-9884274D01*
X6346253Y-9884274D02*
X6393872Y-9884274D01*
X6393872Y-9884274D02*
X6412920Y-9893798D01*
X6412920Y-9893798D02*
X6422444Y-9903322D01*
X6422444Y-9903322D02*
X6431967Y-9922370D01*
X6431967Y-9922370D02*
X6431967Y-9969989D01*
X6431967Y-9969989D02*
X6422444Y-9989036D01*
X6422444Y-9989036D02*
X6412920Y-9998560D01*
X6412920Y-9998560D02*
X6393872Y-10008084D01*
X6393872Y-10008084D02*
X6346253Y-10008084D01*
X6346253Y-10008084D02*
X6327206Y-9998560D01*
X6327206Y-9998560D02*
X6317682Y-9989036D01*
X6498634Y-9808084D02*
X6631967Y-9808084D01*
X6631967Y-9808084D02*
X6546253Y-10008084D01*
X6698634Y-9808084D02*
X6698634Y-9846179D01*
X6774825Y-9808084D02*
X6774825Y-9846179D01*
X7070063Y-10084274D02*
X7060539Y-10074750D01*
X7060539Y-10074750D02*
X7041491Y-10046179D01*
X7041491Y-10046179D02*
X7031968Y-10027131D01*
X7031968Y-10027131D02*
X7022444Y-9998560D01*
X7022444Y-9998560D02*
X7012920Y-9950941D01*
X7012920Y-9950941D02*
X7012920Y-9912846D01*
X7012920Y-9912846D02*
X7022444Y-9865227D01*
X7022444Y-9865227D02*
X7031968Y-9836655D01*
X7031968Y-9836655D02*
X7041491Y-9817608D01*
X7041491Y-9817608D02*
X7060539Y-9789036D01*
X7060539Y-9789036D02*
X7070063Y-9779512D01*
X7155777Y-10008084D02*
X7193872Y-10008084D01*
X7193872Y-10008084D02*
X7212920Y-9998560D01*
X7212920Y-9998560D02*
X7222444Y-9989036D01*
X7222444Y-9989036D02*
X7241491Y-9960465D01*
X7241491Y-9960465D02*
X7251015Y-9922370D01*
X7251015Y-9922370D02*
X7251015Y-9846179D01*
X7251015Y-9846179D02*
X7241491Y-9827131D01*
X7241491Y-9827131D02*
X7231968Y-9817608D01*
X7231968Y-9817608D02*
X7212920Y-9808084D01*
X7212920Y-9808084D02*
X7174825Y-9808084D01*
X7174825Y-9808084D02*
X7155777Y-9817608D01*
X7155777Y-9817608D02*
X7146253Y-9827131D01*
X7146253Y-9827131D02*
X7136729Y-9846179D01*
X7136729Y-9846179D02*
X7136729Y-9893798D01*
X7136729Y-9893798D02*
X7146253Y-9912846D01*
X7146253Y-9912846D02*
X7155777Y-9922370D01*
X7155777Y-9922370D02*
X7174825Y-9931893D01*
X7174825Y-9931893D02*
X7212920Y-9931893D01*
X7212920Y-9931893D02*
X7231968Y-9922370D01*
X7231968Y-9922370D02*
X7241491Y-9912846D01*
X7241491Y-9912846D02*
X7251015Y-9893798D01*
X7317682Y-9808084D02*
X7451015Y-9808084D01*
X7451015Y-9808084D02*
X7365301Y-10008084D01*
X7679587Y-10008084D02*
X7679587Y-9808084D01*
X7765301Y-10008084D02*
X7765301Y-9903322D01*
X7765301Y-9903322D02*
X7755777Y-9884274D01*
X7755777Y-9884274D02*
X7736730Y-9874750D01*
X7736730Y-9874750D02*
X7708158Y-9874750D01*
X7708158Y-9874750D02*
X7689110Y-9884274D01*
X7689110Y-9884274D02*
X7679587Y-9893798D01*
X7889110Y-10008084D02*
X7870063Y-9998560D01*
X7870063Y-9998560D02*
X7860539Y-9989036D01*
X7860539Y-9989036D02*
X7851015Y-9969989D01*
X7851015Y-9969989D02*
X7851015Y-9912846D01*
X7851015Y-9912846D02*
X7860539Y-9893798D01*
X7860539Y-9893798D02*
X7870063Y-9884274D01*
X7870063Y-9884274D02*
X7889110Y-9874750D01*
X7889110Y-9874750D02*
X7917682Y-9874750D01*
X7917682Y-9874750D02*
X7936730Y-9884274D01*
X7936730Y-9884274D02*
X7946253Y-9893798D01*
X7946253Y-9893798D02*
X7955777Y-9912846D01*
X7955777Y-9912846D02*
X7955777Y-9969989D01*
X7955777Y-9969989D02*
X7946253Y-9989036D01*
X7946253Y-9989036D02*
X7936730Y-9998560D01*
X7936730Y-9998560D02*
X7917682Y-10008084D01*
X7917682Y-10008084D02*
X7889110Y-10008084D01*
X8070063Y-10008084D02*
X8051015Y-9998560D01*
X8051015Y-9998560D02*
X8041491Y-9979512D01*
X8041491Y-9979512D02*
X8041491Y-9808084D01*
X8222444Y-9998560D02*
X8203396Y-10008084D01*
X8203396Y-10008084D02*
X8165301Y-10008084D01*
X8165301Y-10008084D02*
X8146253Y-9998560D01*
X8146253Y-9998560D02*
X8136730Y-9979512D01*
X8136730Y-9979512D02*
X8136730Y-9903322D01*
X8136730Y-9903322D02*
X8146253Y-9884274D01*
X8146253Y-9884274D02*
X8165301Y-9874750D01*
X8165301Y-9874750D02*
X8203396Y-9874750D01*
X8203396Y-9874750D02*
X8222444Y-9884274D01*
X8222444Y-9884274D02*
X8231968Y-9903322D01*
X8231968Y-9903322D02*
X8231968Y-9922370D01*
X8231968Y-9922370D02*
X8136730Y-9941417D01*
X8308158Y-9998560D02*
X8327206Y-10008084D01*
X8327206Y-10008084D02*
X8365301Y-10008084D01*
X8365301Y-10008084D02*
X8384349Y-9998560D01*
X8384349Y-9998560D02*
X8393873Y-9979512D01*
X8393873Y-9979512D02*
X8393873Y-9969989D01*
X8393873Y-9969989D02*
X8384349Y-9950941D01*
X8384349Y-9950941D02*
X8365301Y-9941417D01*
X8365301Y-9941417D02*
X8336730Y-9941417D01*
X8336730Y-9941417D02*
X8317682Y-9931893D01*
X8317682Y-9931893D02*
X8308158Y-9912846D01*
X8308158Y-9912846D02*
X8308158Y-9903322D01*
X8308158Y-9903322D02*
X8317682Y-9884274D01*
X8317682Y-9884274D02*
X8336730Y-9874750D01*
X8336730Y-9874750D02*
X8365301Y-9874750D01*
X8365301Y-9874750D02*
X8384349Y-9884274D01*
X8460539Y-10084274D02*
X8470063Y-10074750D01*
X8470063Y-10074750D02*
X8489111Y-10046179D01*
X8489111Y-10046179D02*
X8498634Y-10027131D01*
X8498634Y-10027131D02*
X8508158Y-9998560D01*
X8508158Y-9998560D02*
X8517682Y-9950941D01*
X8517682Y-9950941D02*
X8517682Y-9912846D01*
X8517682Y-9912846D02*
X8508158Y-9865227D01*
X8508158Y-9865227D02*
X8498634Y-9836655D01*
X8498634Y-9836655D02*
X8489111Y-9817608D01*
X8489111Y-9817608D02*
X8470063Y-9789036D01*
X8470063Y-9789036D02*
X8460539Y-9779512D01*
D10*
X3495000Y-10180600D02*
G75*
G03*
X3415000Y-10180600I-40000J0D01*
G01*
X3415000Y-10180600D02*
G75*
G03*
X3495000Y-10180600I40000J0D01*
G01*
D11*
X3793872Y-10072084D02*
X3812920Y-10072084D01*
X3812920Y-10072084D02*
X3831967Y-10081608D01*
X3831967Y-10081608D02*
X3841491Y-10091131D01*
X3841491Y-10091131D02*
X3851015Y-10110179D01*
X3851015Y-10110179D02*
X3860539Y-10148274D01*
X3860539Y-10148274D02*
X3860539Y-10195893D01*
X3860539Y-10195893D02*
X3851015Y-10233989D01*
X3851015Y-10233989D02*
X3841491Y-10253036D01*
X3841491Y-10253036D02*
X3831967Y-10262560D01*
X3831967Y-10262560D02*
X3812920Y-10272084D01*
X3812920Y-10272084D02*
X3793872Y-10272084D01*
X3793872Y-10272084D02*
X3774824Y-10262560D01*
X3774824Y-10262560D02*
X3765301Y-10253036D01*
X3765301Y-10253036D02*
X3755777Y-10233989D01*
X3755777Y-10233989D02*
X3746253Y-10195893D01*
X3746253Y-10195893D02*
X3746253Y-10148274D01*
X3746253Y-10148274D02*
X3755777Y-10110179D01*
X3755777Y-10110179D02*
X3765301Y-10091131D01*
X3765301Y-10091131D02*
X3774824Y-10081608D01*
X3774824Y-10081608D02*
X3793872Y-10072084D01*
X3946253Y-10253036D02*
X3955777Y-10262560D01*
X3955777Y-10262560D02*
X3946253Y-10272084D01*
X3946253Y-10272084D02*
X3936729Y-10262560D01*
X3936729Y-10262560D02*
X3946253Y-10253036D01*
X3946253Y-10253036D02*
X3946253Y-10272084D01*
X4070062Y-10157798D02*
X4051015Y-10148274D01*
X4051015Y-10148274D02*
X4041491Y-10138750D01*
X4041491Y-10138750D02*
X4031967Y-10119703D01*
X4031967Y-10119703D02*
X4031967Y-10110179D01*
X4031967Y-10110179D02*
X4041491Y-10091131D01*
X4041491Y-10091131D02*
X4051015Y-10081608D01*
X4051015Y-10081608D02*
X4070062Y-10072084D01*
X4070062Y-10072084D02*
X4108158Y-10072084D01*
X4108158Y-10072084D02*
X4127205Y-10081608D01*
X4127205Y-10081608D02*
X4136729Y-10091131D01*
X4136729Y-10091131D02*
X4146253Y-10110179D01*
X4146253Y-10110179D02*
X4146253Y-10119703D01*
X4146253Y-10119703D02*
X4136729Y-10138750D01*
X4136729Y-10138750D02*
X4127205Y-10148274D01*
X4127205Y-10148274D02*
X4108158Y-10157798D01*
X4108158Y-10157798D02*
X4070062Y-10157798D01*
X4070062Y-10157798D02*
X4051015Y-10167322D01*
X4051015Y-10167322D02*
X4041491Y-10176846D01*
X4041491Y-10176846D02*
X4031967Y-10195893D01*
X4031967Y-10195893D02*
X4031967Y-10233989D01*
X4031967Y-10233989D02*
X4041491Y-10253036D01*
X4041491Y-10253036D02*
X4051015Y-10262560D01*
X4051015Y-10262560D02*
X4070062Y-10272084D01*
X4070062Y-10272084D02*
X4108158Y-10272084D01*
X4108158Y-10272084D02*
X4127205Y-10262560D01*
X4127205Y-10262560D02*
X4136729Y-10253036D01*
X4136729Y-10253036D02*
X4146253Y-10233989D01*
X4146253Y-10233989D02*
X4146253Y-10195893D01*
X4146253Y-10195893D02*
X4136729Y-10176846D01*
X4136729Y-10176846D02*
X4127205Y-10167322D01*
X4127205Y-10167322D02*
X4108158Y-10157798D01*
X4270063Y-10072084D02*
X4289110Y-10072084D01*
X4289110Y-10072084D02*
X4308158Y-10081608D01*
X4308158Y-10081608D02*
X4317682Y-10091131D01*
X4317682Y-10091131D02*
X4327205Y-10110179D01*
X4327205Y-10110179D02*
X4336729Y-10148274D01*
X4336729Y-10148274D02*
X4336729Y-10195893D01*
X4336729Y-10195893D02*
X4327205Y-10233989D01*
X4327205Y-10233989D02*
X4317682Y-10253036D01*
X4317682Y-10253036D02*
X4308158Y-10262560D01*
X4308158Y-10262560D02*
X4289110Y-10272084D01*
X4289110Y-10272084D02*
X4270063Y-10272084D01*
X4270063Y-10272084D02*
X4251015Y-10262560D01*
X4251015Y-10262560D02*
X4241491Y-10253036D01*
X4241491Y-10253036D02*
X4231967Y-10233989D01*
X4231967Y-10233989D02*
X4222444Y-10195893D01*
X4222444Y-10195893D02*
X4222444Y-10148274D01*
X4222444Y-10148274D02*
X4231967Y-10110179D01*
X4231967Y-10110179D02*
X4241491Y-10091131D01*
X4241491Y-10091131D02*
X4251015Y-10081608D01*
X4251015Y-10081608D02*
X4270063Y-10072084D01*
X4460539Y-10072084D02*
X4479586Y-10072084D01*
X4479586Y-10072084D02*
X4498634Y-10081608D01*
X4498634Y-10081608D02*
X4508158Y-10091131D01*
X4508158Y-10091131D02*
X4517682Y-10110179D01*
X4517682Y-10110179D02*
X4527205Y-10148274D01*
X4527205Y-10148274D02*
X4527205Y-10195893D01*
X4527205Y-10195893D02*
X4517682Y-10233989D01*
X4517682Y-10233989D02*
X4508158Y-10253036D01*
X4508158Y-10253036D02*
X4498634Y-10262560D01*
X4498634Y-10262560D02*
X4479586Y-10272084D01*
X4479586Y-10272084D02*
X4460539Y-10272084D01*
X4460539Y-10272084D02*
X4441491Y-10262560D01*
X4441491Y-10262560D02*
X4431967Y-10253036D01*
X4431967Y-10253036D02*
X4422444Y-10233989D01*
X4422444Y-10233989D02*
X4412920Y-10195893D01*
X4412920Y-10195893D02*
X4412920Y-10148274D01*
X4412920Y-10148274D02*
X4422444Y-10110179D01*
X4422444Y-10110179D02*
X4431967Y-10091131D01*
X4431967Y-10091131D02*
X4441491Y-10081608D01*
X4441491Y-10081608D02*
X4460539Y-10072084D01*
X4612920Y-10272084D02*
X4612920Y-10138750D01*
X4612920Y-10157798D02*
X4622444Y-10148274D01*
X4622444Y-10148274D02*
X4641491Y-10138750D01*
X4641491Y-10138750D02*
X4670063Y-10138750D01*
X4670063Y-10138750D02*
X4689110Y-10148274D01*
X4689110Y-10148274D02*
X4698634Y-10167322D01*
X4698634Y-10167322D02*
X4698634Y-10272084D01*
X4698634Y-10167322D02*
X4708158Y-10148274D01*
X4708158Y-10148274D02*
X4727205Y-10138750D01*
X4727205Y-10138750D02*
X4755777Y-10138750D01*
X4755777Y-10138750D02*
X4774825Y-10148274D01*
X4774825Y-10148274D02*
X4784348Y-10167322D01*
X4784348Y-10167322D02*
X4784348Y-10272084D01*
X4879586Y-10272084D02*
X4879586Y-10138750D01*
X4879586Y-10157798D02*
X4889110Y-10148274D01*
X4889110Y-10148274D02*
X4908158Y-10138750D01*
X4908158Y-10138750D02*
X4936729Y-10138750D01*
X4936729Y-10138750D02*
X4955777Y-10148274D01*
X4955777Y-10148274D02*
X4965301Y-10167322D01*
X4965301Y-10167322D02*
X4965301Y-10272084D01*
X4965301Y-10167322D02*
X4974825Y-10148274D01*
X4974825Y-10148274D02*
X4993872Y-10138750D01*
X4993872Y-10138750D02*
X5022444Y-10138750D01*
X5022444Y-10138750D02*
X5041491Y-10148274D01*
X5041491Y-10148274D02*
X5051015Y-10167322D01*
X5051015Y-10167322D02*
X5051015Y-10272084D01*
X5441491Y-10062560D02*
X5270063Y-10319703D01*
X5698634Y-10072084D02*
X5717682Y-10072084D01*
X5717682Y-10072084D02*
X5736729Y-10081608D01*
X5736729Y-10081608D02*
X5746253Y-10091131D01*
X5746253Y-10091131D02*
X5755777Y-10110179D01*
X5755777Y-10110179D02*
X5765301Y-10148274D01*
X5765301Y-10148274D02*
X5765301Y-10195893D01*
X5765301Y-10195893D02*
X5755777Y-10233989D01*
X5755777Y-10233989D02*
X5746253Y-10253036D01*
X5746253Y-10253036D02*
X5736729Y-10262560D01*
X5736729Y-10262560D02*
X5717682Y-10272084D01*
X5717682Y-10272084D02*
X5698634Y-10272084D01*
X5698634Y-10272084D02*
X5679586Y-10262560D01*
X5679586Y-10262560D02*
X5670063Y-10253036D01*
X5670063Y-10253036D02*
X5660539Y-10233989D01*
X5660539Y-10233989D02*
X5651015Y-10195893D01*
X5651015Y-10195893D02*
X5651015Y-10148274D01*
X5651015Y-10148274D02*
X5660539Y-10110179D01*
X5660539Y-10110179D02*
X5670063Y-10091131D01*
X5670063Y-10091131D02*
X5679586Y-10081608D01*
X5679586Y-10081608D02*
X5698634Y-10072084D01*
X5851015Y-10253036D02*
X5860539Y-10262560D01*
X5860539Y-10262560D02*
X5851015Y-10272084D01*
X5851015Y-10272084D02*
X5841491Y-10262560D01*
X5841491Y-10262560D02*
X5851015Y-10253036D01*
X5851015Y-10253036D02*
X5851015Y-10272084D01*
X5984348Y-10072084D02*
X6003396Y-10072084D01*
X6003396Y-10072084D02*
X6022444Y-10081608D01*
X6022444Y-10081608D02*
X6031967Y-10091131D01*
X6031967Y-10091131D02*
X6041491Y-10110179D01*
X6041491Y-10110179D02*
X6051015Y-10148274D01*
X6051015Y-10148274D02*
X6051015Y-10195893D01*
X6051015Y-10195893D02*
X6041491Y-10233989D01*
X6041491Y-10233989D02*
X6031967Y-10253036D01*
X6031967Y-10253036D02*
X6022444Y-10262560D01*
X6022444Y-10262560D02*
X6003396Y-10272084D01*
X6003396Y-10272084D02*
X5984348Y-10272084D01*
X5984348Y-10272084D02*
X5965301Y-10262560D01*
X5965301Y-10262560D02*
X5955777Y-10253036D01*
X5955777Y-10253036D02*
X5946253Y-10233989D01*
X5946253Y-10233989D02*
X5936729Y-10195893D01*
X5936729Y-10195893D02*
X5936729Y-10148274D01*
X5936729Y-10148274D02*
X5946253Y-10110179D01*
X5946253Y-10110179D02*
X5955777Y-10091131D01*
X5955777Y-10091131D02*
X5965301Y-10081608D01*
X5965301Y-10081608D02*
X5984348Y-10072084D01*
X6117682Y-10072084D02*
X6241491Y-10072084D01*
X6241491Y-10072084D02*
X6174825Y-10148274D01*
X6174825Y-10148274D02*
X6203396Y-10148274D01*
X6203396Y-10148274D02*
X6222444Y-10157798D01*
X6222444Y-10157798D02*
X6231967Y-10167322D01*
X6231967Y-10167322D02*
X6241491Y-10186370D01*
X6241491Y-10186370D02*
X6241491Y-10233989D01*
X6241491Y-10233989D02*
X6231967Y-10253036D01*
X6231967Y-10253036D02*
X6222444Y-10262560D01*
X6222444Y-10262560D02*
X6203396Y-10272084D01*
X6203396Y-10272084D02*
X6146253Y-10272084D01*
X6146253Y-10272084D02*
X6127206Y-10262560D01*
X6127206Y-10262560D02*
X6117682Y-10253036D01*
X6431967Y-10272084D02*
X6317682Y-10272084D01*
X6374825Y-10272084D02*
X6374825Y-10072084D01*
X6374825Y-10072084D02*
X6355777Y-10100655D01*
X6355777Y-10100655D02*
X6336729Y-10119703D01*
X6336729Y-10119703D02*
X6317682Y-10129227D01*
X6612920Y-10072084D02*
X6517682Y-10072084D01*
X6517682Y-10072084D02*
X6508158Y-10167322D01*
X6508158Y-10167322D02*
X6517682Y-10157798D01*
X6517682Y-10157798D02*
X6536729Y-10148274D01*
X6536729Y-10148274D02*
X6584348Y-10148274D01*
X6584348Y-10148274D02*
X6603396Y-10157798D01*
X6603396Y-10157798D02*
X6612920Y-10167322D01*
X6612920Y-10167322D02*
X6622444Y-10186370D01*
X6622444Y-10186370D02*
X6622444Y-10233989D01*
X6622444Y-10233989D02*
X6612920Y-10253036D01*
X6612920Y-10253036D02*
X6603396Y-10262560D01*
X6603396Y-10262560D02*
X6584348Y-10272084D01*
X6584348Y-10272084D02*
X6536729Y-10272084D01*
X6536729Y-10272084D02*
X6517682Y-10262560D01*
X6517682Y-10262560D02*
X6508158Y-10253036D01*
X6698634Y-10072084D02*
X6698634Y-10110179D01*
X6774825Y-10072084D02*
X6774825Y-10110179D01*
X7070063Y-10348274D02*
X7060539Y-10338750D01*
X7060539Y-10338750D02*
X7041491Y-10310179D01*
X7041491Y-10310179D02*
X7031968Y-10291131D01*
X7031968Y-10291131D02*
X7022444Y-10262560D01*
X7022444Y-10262560D02*
X7012920Y-10214941D01*
X7012920Y-10214941D02*
X7012920Y-10176846D01*
X7012920Y-10176846D02*
X7022444Y-10129227D01*
X7022444Y-10129227D02*
X7031968Y-10100655D01*
X7031968Y-10100655D02*
X7041491Y-10081608D01*
X7041491Y-10081608D02*
X7060539Y-10053036D01*
X7060539Y-10053036D02*
X7070063Y-10043512D01*
X7231968Y-10072084D02*
X7193872Y-10072084D01*
X7193872Y-10072084D02*
X7174825Y-10081608D01*
X7174825Y-10081608D02*
X7165301Y-10091131D01*
X7165301Y-10091131D02*
X7146253Y-10119703D01*
X7146253Y-10119703D02*
X7136729Y-10157798D01*
X7136729Y-10157798D02*
X7136729Y-10233989D01*
X7136729Y-10233989D02*
X7146253Y-10253036D01*
X7146253Y-10253036D02*
X7155777Y-10262560D01*
X7155777Y-10262560D02*
X7174825Y-10272084D01*
X7174825Y-10272084D02*
X7212920Y-10272084D01*
X7212920Y-10272084D02*
X7231968Y-10262560D01*
X7231968Y-10262560D02*
X7241491Y-10253036D01*
X7241491Y-10253036D02*
X7251015Y-10233989D01*
X7251015Y-10233989D02*
X7251015Y-10186370D01*
X7251015Y-10186370D02*
X7241491Y-10167322D01*
X7241491Y-10167322D02*
X7231968Y-10157798D01*
X7231968Y-10157798D02*
X7212920Y-10148274D01*
X7212920Y-10148274D02*
X7174825Y-10148274D01*
X7174825Y-10148274D02*
X7155777Y-10157798D01*
X7155777Y-10157798D02*
X7146253Y-10167322D01*
X7146253Y-10167322D02*
X7136729Y-10186370D01*
X7431968Y-10072084D02*
X7336729Y-10072084D01*
X7336729Y-10072084D02*
X7327206Y-10167322D01*
X7327206Y-10167322D02*
X7336729Y-10157798D01*
X7336729Y-10157798D02*
X7355777Y-10148274D01*
X7355777Y-10148274D02*
X7403396Y-10148274D01*
X7403396Y-10148274D02*
X7422444Y-10157798D01*
X7422444Y-10157798D02*
X7431968Y-10167322D01*
X7431968Y-10167322D02*
X7441491Y-10186370D01*
X7441491Y-10186370D02*
X7441491Y-10233989D01*
X7441491Y-10233989D02*
X7431968Y-10253036D01*
X7431968Y-10253036D02*
X7422444Y-10262560D01*
X7422444Y-10262560D02*
X7403396Y-10272084D01*
X7403396Y-10272084D02*
X7355777Y-10272084D01*
X7355777Y-10272084D02*
X7336729Y-10262560D01*
X7336729Y-10262560D02*
X7327206Y-10253036D01*
X7679587Y-10272084D02*
X7679587Y-10072084D01*
X7765301Y-10272084D02*
X7765301Y-10167322D01*
X7765301Y-10167322D02*
X7755777Y-10148274D01*
X7755777Y-10148274D02*
X7736730Y-10138750D01*
X7736730Y-10138750D02*
X7708158Y-10138750D01*
X7708158Y-10138750D02*
X7689110Y-10148274D01*
X7689110Y-10148274D02*
X7679587Y-10157798D01*
X7889110Y-10272084D02*
X7870063Y-10262560D01*
X7870063Y-10262560D02*
X7860539Y-10253036D01*
X7860539Y-10253036D02*
X7851015Y-10233989D01*
X7851015Y-10233989D02*
X7851015Y-10176846D01*
X7851015Y-10176846D02*
X7860539Y-10157798D01*
X7860539Y-10157798D02*
X7870063Y-10148274D01*
X7870063Y-10148274D02*
X7889110Y-10138750D01*
X7889110Y-10138750D02*
X7917682Y-10138750D01*
X7917682Y-10138750D02*
X7936730Y-10148274D01*
X7936730Y-10148274D02*
X7946253Y-10157798D01*
X7946253Y-10157798D02*
X7955777Y-10176846D01*
X7955777Y-10176846D02*
X7955777Y-10233989D01*
X7955777Y-10233989D02*
X7946253Y-10253036D01*
X7946253Y-10253036D02*
X7936730Y-10262560D01*
X7936730Y-10262560D02*
X7917682Y-10272084D01*
X7917682Y-10272084D02*
X7889110Y-10272084D01*
X8070063Y-10272084D02*
X8051015Y-10262560D01*
X8051015Y-10262560D02*
X8041491Y-10243512D01*
X8041491Y-10243512D02*
X8041491Y-10072084D01*
X8222444Y-10262560D02*
X8203396Y-10272084D01*
X8203396Y-10272084D02*
X8165301Y-10272084D01*
X8165301Y-10272084D02*
X8146253Y-10262560D01*
X8146253Y-10262560D02*
X8136730Y-10243512D01*
X8136730Y-10243512D02*
X8136730Y-10167322D01*
X8136730Y-10167322D02*
X8146253Y-10148274D01*
X8146253Y-10148274D02*
X8165301Y-10138750D01*
X8165301Y-10138750D02*
X8203396Y-10138750D01*
X8203396Y-10138750D02*
X8222444Y-10148274D01*
X8222444Y-10148274D02*
X8231968Y-10167322D01*
X8231968Y-10167322D02*
X8231968Y-10186370D01*
X8231968Y-10186370D02*
X8136730Y-10205417D01*
X8308158Y-10262560D02*
X8327206Y-10272084D01*
X8327206Y-10272084D02*
X8365301Y-10272084D01*
X8365301Y-10272084D02*
X8384349Y-10262560D01*
X8384349Y-10262560D02*
X8393873Y-10243512D01*
X8393873Y-10243512D02*
X8393873Y-10233989D01*
X8393873Y-10233989D02*
X8384349Y-10214941D01*
X8384349Y-10214941D02*
X8365301Y-10205417D01*
X8365301Y-10205417D02*
X8336730Y-10205417D01*
X8336730Y-10205417D02*
X8317682Y-10195893D01*
X8317682Y-10195893D02*
X8308158Y-10176846D01*
X8308158Y-10176846D02*
X8308158Y-10167322D01*
X8308158Y-10167322D02*
X8317682Y-10148274D01*
X8317682Y-10148274D02*
X8336730Y-10138750D01*
X8336730Y-10138750D02*
X8365301Y-10138750D01*
X8365301Y-10138750D02*
X8384349Y-10148274D01*
X8460539Y-10348274D02*
X8470063Y-10338750D01*
X8470063Y-10338750D02*
X8489111Y-10310179D01*
X8489111Y-10310179D02*
X8498634Y-10291131D01*
X8498634Y-10291131D02*
X8508158Y-10262560D01*
X8508158Y-10262560D02*
X8517682Y-10214941D01*
X8517682Y-10214941D02*
X8517682Y-10176846D01*
X8517682Y-10176846D02*
X8508158Y-10129227D01*
X8508158Y-10129227D02*
X8498634Y-10100655D01*
X8498634Y-10100655D02*
X8489111Y-10081608D01*
X8489111Y-10081608D02*
X8470063Y-10053036D01*
X8470063Y-10053036D02*
X8460539Y-10043512D01*
D10*
X3447500Y-10397100D02*
X3447500Y-10492100D01*
X3400000Y-10444600D02*
X3495000Y-10444600D01*
D11*
X3793872Y-10336084D02*
X3812920Y-10336084D01*
X3812920Y-10336084D02*
X3831967Y-10345608D01*
X3831967Y-10345608D02*
X3841491Y-10355131D01*
X3841491Y-10355131D02*
X3851015Y-10374179D01*
X3851015Y-10374179D02*
X3860539Y-10412274D01*
X3860539Y-10412274D02*
X3860539Y-10459893D01*
X3860539Y-10459893D02*
X3851015Y-10497989D01*
X3851015Y-10497989D02*
X3841491Y-10517036D01*
X3841491Y-10517036D02*
X3831967Y-10526560D01*
X3831967Y-10526560D02*
X3812920Y-10536084D01*
X3812920Y-10536084D02*
X3793872Y-10536084D01*
X3793872Y-10536084D02*
X3774824Y-10526560D01*
X3774824Y-10526560D02*
X3765301Y-10517036D01*
X3765301Y-10517036D02*
X3755777Y-10497989D01*
X3755777Y-10497989D02*
X3746253Y-10459893D01*
X3746253Y-10459893D02*
X3746253Y-10412274D01*
X3746253Y-10412274D02*
X3755777Y-10374179D01*
X3755777Y-10374179D02*
X3765301Y-10355131D01*
X3765301Y-10355131D02*
X3774824Y-10345608D01*
X3774824Y-10345608D02*
X3793872Y-10336084D01*
X3946253Y-10517036D02*
X3955777Y-10526560D01*
X3955777Y-10526560D02*
X3946253Y-10536084D01*
X3946253Y-10536084D02*
X3936729Y-10526560D01*
X3936729Y-10526560D02*
X3946253Y-10517036D01*
X3946253Y-10517036D02*
X3946253Y-10536084D01*
X4051015Y-10536084D02*
X4089110Y-10536084D01*
X4089110Y-10536084D02*
X4108158Y-10526560D01*
X4108158Y-10526560D02*
X4117682Y-10517036D01*
X4117682Y-10517036D02*
X4136729Y-10488465D01*
X4136729Y-10488465D02*
X4146253Y-10450370D01*
X4146253Y-10450370D02*
X4146253Y-10374179D01*
X4146253Y-10374179D02*
X4136729Y-10355131D01*
X4136729Y-10355131D02*
X4127205Y-10345608D01*
X4127205Y-10345608D02*
X4108158Y-10336084D01*
X4108158Y-10336084D02*
X4070062Y-10336084D01*
X4070062Y-10336084D02*
X4051015Y-10345608D01*
X4051015Y-10345608D02*
X4041491Y-10355131D01*
X4041491Y-10355131D02*
X4031967Y-10374179D01*
X4031967Y-10374179D02*
X4031967Y-10421798D01*
X4031967Y-10421798D02*
X4041491Y-10440846D01*
X4041491Y-10440846D02*
X4051015Y-10450370D01*
X4051015Y-10450370D02*
X4070062Y-10459893D01*
X4070062Y-10459893D02*
X4108158Y-10459893D01*
X4108158Y-10459893D02*
X4127205Y-10450370D01*
X4127205Y-10450370D02*
X4136729Y-10440846D01*
X4136729Y-10440846D02*
X4146253Y-10421798D01*
X4327205Y-10336084D02*
X4231967Y-10336084D01*
X4231967Y-10336084D02*
X4222444Y-10431322D01*
X4222444Y-10431322D02*
X4231967Y-10421798D01*
X4231967Y-10421798D02*
X4251015Y-10412274D01*
X4251015Y-10412274D02*
X4298634Y-10412274D01*
X4298634Y-10412274D02*
X4317682Y-10421798D01*
X4317682Y-10421798D02*
X4327205Y-10431322D01*
X4327205Y-10431322D02*
X4336729Y-10450370D01*
X4336729Y-10450370D02*
X4336729Y-10497989D01*
X4336729Y-10497989D02*
X4327205Y-10517036D01*
X4327205Y-10517036D02*
X4317682Y-10526560D01*
X4317682Y-10526560D02*
X4298634Y-10536084D01*
X4298634Y-10536084D02*
X4251015Y-10536084D01*
X4251015Y-10536084D02*
X4231967Y-10526560D01*
X4231967Y-10526560D02*
X4222444Y-10517036D01*
X4460539Y-10336084D02*
X4479586Y-10336084D01*
X4479586Y-10336084D02*
X4498634Y-10345608D01*
X4498634Y-10345608D02*
X4508158Y-10355131D01*
X4508158Y-10355131D02*
X4517682Y-10374179D01*
X4517682Y-10374179D02*
X4527205Y-10412274D01*
X4527205Y-10412274D02*
X4527205Y-10459893D01*
X4527205Y-10459893D02*
X4517682Y-10497989D01*
X4517682Y-10497989D02*
X4508158Y-10517036D01*
X4508158Y-10517036D02*
X4498634Y-10526560D01*
X4498634Y-10526560D02*
X4479586Y-10536084D01*
X4479586Y-10536084D02*
X4460539Y-10536084D01*
X4460539Y-10536084D02*
X4441491Y-10526560D01*
X4441491Y-10526560D02*
X4431967Y-10517036D01*
X4431967Y-10517036D02*
X4422444Y-10497989D01*
X4422444Y-10497989D02*
X4412920Y-10459893D01*
X4412920Y-10459893D02*
X4412920Y-10412274D01*
X4412920Y-10412274D02*
X4422444Y-10374179D01*
X4422444Y-10374179D02*
X4431967Y-10355131D01*
X4431967Y-10355131D02*
X4441491Y-10345608D01*
X4441491Y-10345608D02*
X4460539Y-10336084D01*
X4612920Y-10536084D02*
X4612920Y-10402750D01*
X4612920Y-10421798D02*
X4622444Y-10412274D01*
X4622444Y-10412274D02*
X4641491Y-10402750D01*
X4641491Y-10402750D02*
X4670063Y-10402750D01*
X4670063Y-10402750D02*
X4689110Y-10412274D01*
X4689110Y-10412274D02*
X4698634Y-10431322D01*
X4698634Y-10431322D02*
X4698634Y-10536084D01*
X4698634Y-10431322D02*
X4708158Y-10412274D01*
X4708158Y-10412274D02*
X4727205Y-10402750D01*
X4727205Y-10402750D02*
X4755777Y-10402750D01*
X4755777Y-10402750D02*
X4774825Y-10412274D01*
X4774825Y-10412274D02*
X4784348Y-10431322D01*
X4784348Y-10431322D02*
X4784348Y-10536084D01*
X4879586Y-10536084D02*
X4879586Y-10402750D01*
X4879586Y-10421798D02*
X4889110Y-10412274D01*
X4889110Y-10412274D02*
X4908158Y-10402750D01*
X4908158Y-10402750D02*
X4936729Y-10402750D01*
X4936729Y-10402750D02*
X4955777Y-10412274D01*
X4955777Y-10412274D02*
X4965301Y-10431322D01*
X4965301Y-10431322D02*
X4965301Y-10536084D01*
X4965301Y-10431322D02*
X4974825Y-10412274D01*
X4974825Y-10412274D02*
X4993872Y-10402750D01*
X4993872Y-10402750D02*
X5022444Y-10402750D01*
X5022444Y-10402750D02*
X5041491Y-10412274D01*
X5041491Y-10412274D02*
X5051015Y-10431322D01*
X5051015Y-10431322D02*
X5051015Y-10536084D01*
X5441491Y-10326560D02*
X5270063Y-10583703D01*
X5698634Y-10336084D02*
X5717682Y-10336084D01*
X5717682Y-10336084D02*
X5736729Y-10345608D01*
X5736729Y-10345608D02*
X5746253Y-10355131D01*
X5746253Y-10355131D02*
X5755777Y-10374179D01*
X5755777Y-10374179D02*
X5765301Y-10412274D01*
X5765301Y-10412274D02*
X5765301Y-10459893D01*
X5765301Y-10459893D02*
X5755777Y-10497989D01*
X5755777Y-10497989D02*
X5746253Y-10517036D01*
X5746253Y-10517036D02*
X5736729Y-10526560D01*
X5736729Y-10526560D02*
X5717682Y-10536084D01*
X5717682Y-10536084D02*
X5698634Y-10536084D01*
X5698634Y-10536084D02*
X5679586Y-10526560D01*
X5679586Y-10526560D02*
X5670063Y-10517036D01*
X5670063Y-10517036D02*
X5660539Y-10497989D01*
X5660539Y-10497989D02*
X5651015Y-10459893D01*
X5651015Y-10459893D02*
X5651015Y-10412274D01*
X5651015Y-10412274D02*
X5660539Y-10374179D01*
X5660539Y-10374179D02*
X5670063Y-10355131D01*
X5670063Y-10355131D02*
X5679586Y-10345608D01*
X5679586Y-10345608D02*
X5698634Y-10336084D01*
X5851015Y-10517036D02*
X5860539Y-10526560D01*
X5860539Y-10526560D02*
X5851015Y-10536084D01*
X5851015Y-10536084D02*
X5841491Y-10526560D01*
X5841491Y-10526560D02*
X5851015Y-10517036D01*
X5851015Y-10517036D02*
X5851015Y-10536084D01*
X5984348Y-10336084D02*
X6003396Y-10336084D01*
X6003396Y-10336084D02*
X6022444Y-10345608D01*
X6022444Y-10345608D02*
X6031967Y-10355131D01*
X6031967Y-10355131D02*
X6041491Y-10374179D01*
X6041491Y-10374179D02*
X6051015Y-10412274D01*
X6051015Y-10412274D02*
X6051015Y-10459893D01*
X6051015Y-10459893D02*
X6041491Y-10497989D01*
X6041491Y-10497989D02*
X6031967Y-10517036D01*
X6031967Y-10517036D02*
X6022444Y-10526560D01*
X6022444Y-10526560D02*
X6003396Y-10536084D01*
X6003396Y-10536084D02*
X5984348Y-10536084D01*
X5984348Y-10536084D02*
X5965301Y-10526560D01*
X5965301Y-10526560D02*
X5955777Y-10517036D01*
X5955777Y-10517036D02*
X5946253Y-10497989D01*
X5946253Y-10497989D02*
X5936729Y-10459893D01*
X5936729Y-10459893D02*
X5936729Y-10412274D01*
X5936729Y-10412274D02*
X5946253Y-10374179D01*
X5946253Y-10374179D02*
X5955777Y-10355131D01*
X5955777Y-10355131D02*
X5965301Y-10345608D01*
X5965301Y-10345608D02*
X5984348Y-10336084D01*
X6117682Y-10336084D02*
X6241491Y-10336084D01*
X6241491Y-10336084D02*
X6174825Y-10412274D01*
X6174825Y-10412274D02*
X6203396Y-10412274D01*
X6203396Y-10412274D02*
X6222444Y-10421798D01*
X6222444Y-10421798D02*
X6231967Y-10431322D01*
X6231967Y-10431322D02*
X6241491Y-10450370D01*
X6241491Y-10450370D02*
X6241491Y-10497989D01*
X6241491Y-10497989D02*
X6231967Y-10517036D01*
X6231967Y-10517036D02*
X6222444Y-10526560D01*
X6222444Y-10526560D02*
X6203396Y-10536084D01*
X6203396Y-10536084D02*
X6146253Y-10536084D01*
X6146253Y-10536084D02*
X6127206Y-10526560D01*
X6127206Y-10526560D02*
X6117682Y-10517036D01*
X6308158Y-10336084D02*
X6441491Y-10336084D01*
X6441491Y-10336084D02*
X6355777Y-10536084D01*
X6603396Y-10402750D02*
X6603396Y-10536084D01*
X6555777Y-10326560D02*
X6508158Y-10469417D01*
X6508158Y-10469417D02*
X6631967Y-10469417D01*
X6698634Y-10336084D02*
X6698634Y-10374179D01*
X6774825Y-10336084D02*
X6774825Y-10374179D01*
X7070063Y-10612274D02*
X7060539Y-10602750D01*
X7060539Y-10602750D02*
X7041491Y-10574179D01*
X7041491Y-10574179D02*
X7031968Y-10555131D01*
X7031968Y-10555131D02*
X7022444Y-10526560D01*
X7022444Y-10526560D02*
X7012920Y-10478941D01*
X7012920Y-10478941D02*
X7012920Y-10440846D01*
X7012920Y-10440846D02*
X7022444Y-10393227D01*
X7022444Y-10393227D02*
X7031968Y-10364655D01*
X7031968Y-10364655D02*
X7041491Y-10345608D01*
X7041491Y-10345608D02*
X7060539Y-10317036D01*
X7060539Y-10317036D02*
X7070063Y-10307512D01*
X7127206Y-10336084D02*
X7251015Y-10336084D01*
X7251015Y-10336084D02*
X7184348Y-10412274D01*
X7184348Y-10412274D02*
X7212920Y-10412274D01*
X7212920Y-10412274D02*
X7231968Y-10421798D01*
X7231968Y-10421798D02*
X7241491Y-10431322D01*
X7241491Y-10431322D02*
X7251015Y-10450370D01*
X7251015Y-10450370D02*
X7251015Y-10497989D01*
X7251015Y-10497989D02*
X7241491Y-10517036D01*
X7241491Y-10517036D02*
X7231968Y-10526560D01*
X7231968Y-10526560D02*
X7212920Y-10536084D01*
X7212920Y-10536084D02*
X7155777Y-10536084D01*
X7155777Y-10536084D02*
X7136729Y-10526560D01*
X7136729Y-10526560D02*
X7127206Y-10517036D01*
X7422444Y-10336084D02*
X7384348Y-10336084D01*
X7384348Y-10336084D02*
X7365301Y-10345608D01*
X7365301Y-10345608D02*
X7355777Y-10355131D01*
X7355777Y-10355131D02*
X7336729Y-10383703D01*
X7336729Y-10383703D02*
X7327206Y-10421798D01*
X7327206Y-10421798D02*
X7327206Y-10497989D01*
X7327206Y-10497989D02*
X7336729Y-10517036D01*
X7336729Y-10517036D02*
X7346253Y-10526560D01*
X7346253Y-10526560D02*
X7365301Y-10536084D01*
X7365301Y-10536084D02*
X7403396Y-10536084D01*
X7403396Y-10536084D02*
X7422444Y-10526560D01*
X7422444Y-10526560D02*
X7431968Y-10517036D01*
X7431968Y-10517036D02*
X7441491Y-10497989D01*
X7441491Y-10497989D02*
X7441491Y-10450370D01*
X7441491Y-10450370D02*
X7431968Y-10431322D01*
X7431968Y-10431322D02*
X7422444Y-10421798D01*
X7422444Y-10421798D02*
X7403396Y-10412274D01*
X7403396Y-10412274D02*
X7365301Y-10412274D01*
X7365301Y-10412274D02*
X7346253Y-10421798D01*
X7346253Y-10421798D02*
X7336729Y-10431322D01*
X7336729Y-10431322D02*
X7327206Y-10450370D01*
X7679587Y-10536084D02*
X7679587Y-10336084D01*
X7765301Y-10536084D02*
X7765301Y-10431322D01*
X7765301Y-10431322D02*
X7755777Y-10412274D01*
X7755777Y-10412274D02*
X7736730Y-10402750D01*
X7736730Y-10402750D02*
X7708158Y-10402750D01*
X7708158Y-10402750D02*
X7689110Y-10412274D01*
X7689110Y-10412274D02*
X7679587Y-10421798D01*
X7889110Y-10536084D02*
X7870063Y-10526560D01*
X7870063Y-10526560D02*
X7860539Y-10517036D01*
X7860539Y-10517036D02*
X7851015Y-10497989D01*
X7851015Y-10497989D02*
X7851015Y-10440846D01*
X7851015Y-10440846D02*
X7860539Y-10421798D01*
X7860539Y-10421798D02*
X7870063Y-10412274D01*
X7870063Y-10412274D02*
X7889110Y-10402750D01*
X7889110Y-10402750D02*
X7917682Y-10402750D01*
X7917682Y-10402750D02*
X7936730Y-10412274D01*
X7936730Y-10412274D02*
X7946253Y-10421798D01*
X7946253Y-10421798D02*
X7955777Y-10440846D01*
X7955777Y-10440846D02*
X7955777Y-10497989D01*
X7955777Y-10497989D02*
X7946253Y-10517036D01*
X7946253Y-10517036D02*
X7936730Y-10526560D01*
X7936730Y-10526560D02*
X7917682Y-10536084D01*
X7917682Y-10536084D02*
X7889110Y-10536084D01*
X8070063Y-10536084D02*
X8051015Y-10526560D01*
X8051015Y-10526560D02*
X8041491Y-10507512D01*
X8041491Y-10507512D02*
X8041491Y-10336084D01*
X8222444Y-10526560D02*
X8203396Y-10536084D01*
X8203396Y-10536084D02*
X8165301Y-10536084D01*
X8165301Y-10536084D02*
X8146253Y-10526560D01*
X8146253Y-10526560D02*
X8136730Y-10507512D01*
X8136730Y-10507512D02*
X8136730Y-10431322D01*
X8136730Y-10431322D02*
X8146253Y-10412274D01*
X8146253Y-10412274D02*
X8165301Y-10402750D01*
X8165301Y-10402750D02*
X8203396Y-10402750D01*
X8203396Y-10402750D02*
X8222444Y-10412274D01*
X8222444Y-10412274D02*
X8231968Y-10431322D01*
X8231968Y-10431322D02*
X8231968Y-10450370D01*
X8231968Y-10450370D02*
X8136730Y-10469417D01*
X8308158Y-10526560D02*
X8327206Y-10536084D01*
X8327206Y-10536084D02*
X8365301Y-10536084D01*
X8365301Y-10536084D02*
X8384349Y-10526560D01*
X8384349Y-10526560D02*
X8393873Y-10507512D01*
X8393873Y-10507512D02*
X8393873Y-10497989D01*
X8393873Y-10497989D02*
X8384349Y-10478941D01*
X8384349Y-10478941D02*
X8365301Y-10469417D01*
X8365301Y-10469417D02*
X8336730Y-10469417D01*
X8336730Y-10469417D02*
X8317682Y-10459893D01*
X8317682Y-10459893D02*
X8308158Y-10440846D01*
X8308158Y-10440846D02*
X8308158Y-10431322D01*
X8308158Y-10431322D02*
X8317682Y-10412274D01*
X8317682Y-10412274D02*
X8336730Y-10402750D01*
X8336730Y-10402750D02*
X8365301Y-10402750D01*
X8365301Y-10402750D02*
X8384349Y-10412274D01*
X8460539Y-10612274D02*
X8470063Y-10602750D01*
X8470063Y-10602750D02*
X8489111Y-10574179D01*
X8489111Y-10574179D02*
X8498634Y-10555131D01*
X8498634Y-10555131D02*
X8508158Y-10526560D01*
X8508158Y-10526560D02*
X8517682Y-10478941D01*
X8517682Y-10478941D02*
X8517682Y-10440846D01*
X8517682Y-10440846D02*
X8508158Y-10393227D01*
X8508158Y-10393227D02*
X8498634Y-10364655D01*
X8498634Y-10364655D02*
X8489111Y-10345608D01*
X8489111Y-10345608D02*
X8470063Y-10317036D01*
X8470063Y-10317036D02*
X8460539Y-10307512D01*
D12*
X3479749Y-10745419D02*
X3479749Y-10671781D01*
X3406111Y-10671781D01*
X3406111Y-10745419D01*
X3479749Y-10745419D01*
D11*
X3860539Y-10800084D02*
X3746253Y-10800084D01*
X3803396Y-10800084D02*
X3803396Y-10600084D01*
X3803396Y-10600084D02*
X3784348Y-10628655D01*
X3784348Y-10628655D02*
X3765301Y-10647703D01*
X3765301Y-10647703D02*
X3746253Y-10657227D01*
X3946253Y-10781036D02*
X3955777Y-10790560D01*
X3955777Y-10790560D02*
X3946253Y-10800084D01*
X3946253Y-10800084D02*
X3936729Y-10790560D01*
X3936729Y-10790560D02*
X3946253Y-10781036D01*
X3946253Y-10781036D02*
X3946253Y-10800084D01*
X4079586Y-10600084D02*
X4098634Y-10600084D01*
X4098634Y-10600084D02*
X4117682Y-10609608D01*
X4117682Y-10609608D02*
X4127205Y-10619131D01*
X4127205Y-10619131D02*
X4136729Y-10638179D01*
X4136729Y-10638179D02*
X4146253Y-10676274D01*
X4146253Y-10676274D02*
X4146253Y-10723893D01*
X4146253Y-10723893D02*
X4136729Y-10761989D01*
X4136729Y-10761989D02*
X4127205Y-10781036D01*
X4127205Y-10781036D02*
X4117682Y-10790560D01*
X4117682Y-10790560D02*
X4098634Y-10800084D01*
X4098634Y-10800084D02*
X4079586Y-10800084D01*
X4079586Y-10800084D02*
X4060539Y-10790560D01*
X4060539Y-10790560D02*
X4051015Y-10781036D01*
X4051015Y-10781036D02*
X4041491Y-10761989D01*
X4041491Y-10761989D02*
X4031967Y-10723893D01*
X4031967Y-10723893D02*
X4031967Y-10676274D01*
X4031967Y-10676274D02*
X4041491Y-10638179D01*
X4041491Y-10638179D02*
X4051015Y-10619131D01*
X4051015Y-10619131D02*
X4060539Y-10609608D01*
X4060539Y-10609608D02*
X4079586Y-10600084D01*
X4317682Y-10666750D02*
X4317682Y-10800084D01*
X4270063Y-10590560D02*
X4222444Y-10733417D01*
X4222444Y-10733417D02*
X4346253Y-10733417D01*
X4527205Y-10800084D02*
X4412920Y-10800084D01*
X4470063Y-10800084D02*
X4470063Y-10600084D01*
X4470063Y-10600084D02*
X4451015Y-10628655D01*
X4451015Y-10628655D02*
X4431967Y-10647703D01*
X4431967Y-10647703D02*
X4412920Y-10657227D01*
X4612920Y-10800084D02*
X4612920Y-10666750D01*
X4612920Y-10685798D02*
X4622444Y-10676274D01*
X4622444Y-10676274D02*
X4641491Y-10666750D01*
X4641491Y-10666750D02*
X4670063Y-10666750D01*
X4670063Y-10666750D02*
X4689110Y-10676274D01*
X4689110Y-10676274D02*
X4698634Y-10695322D01*
X4698634Y-10695322D02*
X4698634Y-10800084D01*
X4698634Y-10695322D02*
X4708158Y-10676274D01*
X4708158Y-10676274D02*
X4727205Y-10666750D01*
X4727205Y-10666750D02*
X4755777Y-10666750D01*
X4755777Y-10666750D02*
X4774825Y-10676274D01*
X4774825Y-10676274D02*
X4784348Y-10695322D01*
X4784348Y-10695322D02*
X4784348Y-10800084D01*
X4879586Y-10800084D02*
X4879586Y-10666750D01*
X4879586Y-10685798D02*
X4889110Y-10676274D01*
X4889110Y-10676274D02*
X4908158Y-10666750D01*
X4908158Y-10666750D02*
X4936729Y-10666750D01*
X4936729Y-10666750D02*
X4955777Y-10676274D01*
X4955777Y-10676274D02*
X4965301Y-10695322D01*
X4965301Y-10695322D02*
X4965301Y-10800084D01*
X4965301Y-10695322D02*
X4974825Y-10676274D01*
X4974825Y-10676274D02*
X4993872Y-10666750D01*
X4993872Y-10666750D02*
X5022444Y-10666750D01*
X5022444Y-10666750D02*
X5041491Y-10676274D01*
X5041491Y-10676274D02*
X5051015Y-10695322D01*
X5051015Y-10695322D02*
X5051015Y-10800084D01*
X5441491Y-10590560D02*
X5270063Y-10847703D01*
X5698634Y-10600084D02*
X5717682Y-10600084D01*
X5717682Y-10600084D02*
X5736729Y-10609608D01*
X5736729Y-10609608D02*
X5746253Y-10619131D01*
X5746253Y-10619131D02*
X5755777Y-10638179D01*
X5755777Y-10638179D02*
X5765301Y-10676274D01*
X5765301Y-10676274D02*
X5765301Y-10723893D01*
X5765301Y-10723893D02*
X5755777Y-10761989D01*
X5755777Y-10761989D02*
X5746253Y-10781036D01*
X5746253Y-10781036D02*
X5736729Y-10790560D01*
X5736729Y-10790560D02*
X5717682Y-10800084D01*
X5717682Y-10800084D02*
X5698634Y-10800084D01*
X5698634Y-10800084D02*
X5679586Y-10790560D01*
X5679586Y-10790560D02*
X5670063Y-10781036D01*
X5670063Y-10781036D02*
X5660539Y-10761989D01*
X5660539Y-10761989D02*
X5651015Y-10723893D01*
X5651015Y-10723893D02*
X5651015Y-10676274D01*
X5651015Y-10676274D02*
X5660539Y-10638179D01*
X5660539Y-10638179D02*
X5670063Y-10619131D01*
X5670063Y-10619131D02*
X5679586Y-10609608D01*
X5679586Y-10609608D02*
X5698634Y-10600084D01*
X5851015Y-10781036D02*
X5860539Y-10790560D01*
X5860539Y-10790560D02*
X5851015Y-10800084D01*
X5851015Y-10800084D02*
X5841491Y-10790560D01*
X5841491Y-10790560D02*
X5851015Y-10781036D01*
X5851015Y-10781036D02*
X5851015Y-10800084D01*
X5984348Y-10600084D02*
X6003396Y-10600084D01*
X6003396Y-10600084D02*
X6022444Y-10609608D01*
X6022444Y-10609608D02*
X6031967Y-10619131D01*
X6031967Y-10619131D02*
X6041491Y-10638179D01*
X6041491Y-10638179D02*
X6051015Y-10676274D01*
X6051015Y-10676274D02*
X6051015Y-10723893D01*
X6051015Y-10723893D02*
X6041491Y-10761989D01*
X6041491Y-10761989D02*
X6031967Y-10781036D01*
X6031967Y-10781036D02*
X6022444Y-10790560D01*
X6022444Y-10790560D02*
X6003396Y-10800084D01*
X6003396Y-10800084D02*
X5984348Y-10800084D01*
X5984348Y-10800084D02*
X5965301Y-10790560D01*
X5965301Y-10790560D02*
X5955777Y-10781036D01*
X5955777Y-10781036D02*
X5946253Y-10761989D01*
X5946253Y-10761989D02*
X5936729Y-10723893D01*
X5936729Y-10723893D02*
X5936729Y-10676274D01*
X5936729Y-10676274D02*
X5946253Y-10638179D01*
X5946253Y-10638179D02*
X5955777Y-10619131D01*
X5955777Y-10619131D02*
X5965301Y-10609608D01*
X5965301Y-10609608D02*
X5984348Y-10600084D01*
X6222444Y-10666750D02*
X6222444Y-10800084D01*
X6174825Y-10590560D02*
X6127206Y-10733417D01*
X6127206Y-10733417D02*
X6251015Y-10733417D01*
X6431967Y-10800084D02*
X6317682Y-10800084D01*
X6374825Y-10800084D02*
X6374825Y-10600084D01*
X6374825Y-10600084D02*
X6355777Y-10628655D01*
X6355777Y-10628655D02*
X6336729Y-10647703D01*
X6336729Y-10647703D02*
X6317682Y-10657227D01*
X6555777Y-10600084D02*
X6574825Y-10600084D01*
X6574825Y-10600084D02*
X6593872Y-10609608D01*
X6593872Y-10609608D02*
X6603396Y-10619131D01*
X6603396Y-10619131D02*
X6612920Y-10638179D01*
X6612920Y-10638179D02*
X6622444Y-10676274D01*
X6622444Y-10676274D02*
X6622444Y-10723893D01*
X6622444Y-10723893D02*
X6612920Y-10761989D01*
X6612920Y-10761989D02*
X6603396Y-10781036D01*
X6603396Y-10781036D02*
X6593872Y-10790560D01*
X6593872Y-10790560D02*
X6574825Y-10800084D01*
X6574825Y-10800084D02*
X6555777Y-10800084D01*
X6555777Y-10800084D02*
X6536729Y-10790560D01*
X6536729Y-10790560D02*
X6527206Y-10781036D01*
X6527206Y-10781036D02*
X6517682Y-10761989D01*
X6517682Y-10761989D02*
X6508158Y-10723893D01*
X6508158Y-10723893D02*
X6508158Y-10676274D01*
X6508158Y-10676274D02*
X6517682Y-10638179D01*
X6517682Y-10638179D02*
X6527206Y-10619131D01*
X6527206Y-10619131D02*
X6536729Y-10609608D01*
X6536729Y-10609608D02*
X6555777Y-10600084D01*
X6698634Y-10600084D02*
X6698634Y-10638179D01*
X6774825Y-10600084D02*
X6774825Y-10638179D01*
X7070063Y-10876274D02*
X7060539Y-10866750D01*
X7060539Y-10866750D02*
X7041491Y-10838179D01*
X7041491Y-10838179D02*
X7031968Y-10819131D01*
X7031968Y-10819131D02*
X7022444Y-10790560D01*
X7022444Y-10790560D02*
X7012920Y-10742941D01*
X7012920Y-10742941D02*
X7012920Y-10704846D01*
X7012920Y-10704846D02*
X7022444Y-10657227D01*
X7022444Y-10657227D02*
X7031968Y-10628655D01*
X7031968Y-10628655D02*
X7041491Y-10609608D01*
X7041491Y-10609608D02*
X7060539Y-10581036D01*
X7060539Y-10581036D02*
X7070063Y-10571512D01*
X7127206Y-10600084D02*
X7251015Y-10600084D01*
X7251015Y-10600084D02*
X7184348Y-10676274D01*
X7184348Y-10676274D02*
X7212920Y-10676274D01*
X7212920Y-10676274D02*
X7231968Y-10685798D01*
X7231968Y-10685798D02*
X7241491Y-10695322D01*
X7241491Y-10695322D02*
X7251015Y-10714370D01*
X7251015Y-10714370D02*
X7251015Y-10761989D01*
X7251015Y-10761989D02*
X7241491Y-10781036D01*
X7241491Y-10781036D02*
X7231968Y-10790560D01*
X7231968Y-10790560D02*
X7212920Y-10800084D01*
X7212920Y-10800084D02*
X7155777Y-10800084D01*
X7155777Y-10800084D02*
X7136729Y-10790560D01*
X7136729Y-10790560D02*
X7127206Y-10781036D01*
X7317682Y-10600084D02*
X7451015Y-10600084D01*
X7451015Y-10600084D02*
X7365301Y-10800084D01*
X7679587Y-10800084D02*
X7679587Y-10600084D01*
X7765301Y-10800084D02*
X7765301Y-10695322D01*
X7765301Y-10695322D02*
X7755777Y-10676274D01*
X7755777Y-10676274D02*
X7736730Y-10666750D01*
X7736730Y-10666750D02*
X7708158Y-10666750D01*
X7708158Y-10666750D02*
X7689110Y-10676274D01*
X7689110Y-10676274D02*
X7679587Y-10685798D01*
X7889110Y-10800084D02*
X7870063Y-10790560D01*
X7870063Y-10790560D02*
X7860539Y-10781036D01*
X7860539Y-10781036D02*
X7851015Y-10761989D01*
X7851015Y-10761989D02*
X7851015Y-10704846D01*
X7851015Y-10704846D02*
X7860539Y-10685798D01*
X7860539Y-10685798D02*
X7870063Y-10676274D01*
X7870063Y-10676274D02*
X7889110Y-10666750D01*
X7889110Y-10666750D02*
X7917682Y-10666750D01*
X7917682Y-10666750D02*
X7936730Y-10676274D01*
X7936730Y-10676274D02*
X7946253Y-10685798D01*
X7946253Y-10685798D02*
X7955777Y-10704846D01*
X7955777Y-10704846D02*
X7955777Y-10761989D01*
X7955777Y-10761989D02*
X7946253Y-10781036D01*
X7946253Y-10781036D02*
X7936730Y-10790560D01*
X7936730Y-10790560D02*
X7917682Y-10800084D01*
X7917682Y-10800084D02*
X7889110Y-10800084D01*
X8070063Y-10800084D02*
X8051015Y-10790560D01*
X8051015Y-10790560D02*
X8041491Y-10771512D01*
X8041491Y-10771512D02*
X8041491Y-10600084D01*
X8222444Y-10790560D02*
X8203396Y-10800084D01*
X8203396Y-10800084D02*
X8165301Y-10800084D01*
X8165301Y-10800084D02*
X8146253Y-10790560D01*
X8146253Y-10790560D02*
X8136730Y-10771512D01*
X8136730Y-10771512D02*
X8136730Y-10695322D01*
X8136730Y-10695322D02*
X8146253Y-10676274D01*
X8146253Y-10676274D02*
X8165301Y-10666750D01*
X8165301Y-10666750D02*
X8203396Y-10666750D01*
X8203396Y-10666750D02*
X8222444Y-10676274D01*
X8222444Y-10676274D02*
X8231968Y-10695322D01*
X8231968Y-10695322D02*
X8231968Y-10714370D01*
X8231968Y-10714370D02*
X8136730Y-10733417D01*
X8308158Y-10790560D02*
X8327206Y-10800084D01*
X8327206Y-10800084D02*
X8365301Y-10800084D01*
X8365301Y-10800084D02*
X8384349Y-10790560D01*
X8384349Y-10790560D02*
X8393873Y-10771512D01*
X8393873Y-10771512D02*
X8393873Y-10761989D01*
X8393873Y-10761989D02*
X8384349Y-10742941D01*
X8384349Y-10742941D02*
X8365301Y-10733417D01*
X8365301Y-10733417D02*
X8336730Y-10733417D01*
X8336730Y-10733417D02*
X8317682Y-10723893D01*
X8317682Y-10723893D02*
X8308158Y-10704846D01*
X8308158Y-10704846D02*
X8308158Y-10695322D01*
X8308158Y-10695322D02*
X8317682Y-10676274D01*
X8317682Y-10676274D02*
X8336730Y-10666750D01*
X8336730Y-10666750D02*
X8365301Y-10666750D01*
X8365301Y-10666750D02*
X8384349Y-10676274D01*
X8460539Y-10876274D02*
X8470063Y-10866750D01*
X8470063Y-10866750D02*
X8489111Y-10838179D01*
X8489111Y-10838179D02*
X8498634Y-10819131D01*
X8498634Y-10819131D02*
X8508158Y-10790560D01*
X8508158Y-10790560D02*
X8517682Y-10742941D01*
X8517682Y-10742941D02*
X8517682Y-10704846D01*
X8517682Y-10704846D02*
X8508158Y-10657227D01*
X8508158Y-10657227D02*
X8498634Y-10628655D01*
X8498634Y-10628655D02*
X8489111Y-10609608D01*
X8489111Y-10609608D02*
X8470063Y-10581036D01*
X8470063Y-10581036D02*
X8460539Y-10571512D01*
X3395000Y-11072600D02*
X3495000Y-10972600D01*
X3395000Y-10872600D01*
X3295000Y-10972600D01*
X3395000Y-11072600D01*
X3736729Y-10864084D02*
X3860539Y-10864084D01*
X3860539Y-10864084D02*
X3793872Y-10940274D01*
X3793872Y-10940274D02*
X3822443Y-10940274D01*
X3822443Y-10940274D02*
X3841491Y-10949798D01*
X3841491Y-10949798D02*
X3851015Y-10959322D01*
X3851015Y-10959322D02*
X3860539Y-10978370D01*
X3860539Y-10978370D02*
X3860539Y-11025989D01*
X3860539Y-11025989D02*
X3851015Y-11045036D01*
X3851015Y-11045036D02*
X3841491Y-11054560D01*
X3841491Y-11054560D02*
X3822443Y-11064084D01*
X3822443Y-11064084D02*
X3765301Y-11064084D01*
X3765301Y-11064084D02*
X3746253Y-11054560D01*
X3746253Y-11054560D02*
X3736729Y-11045036D01*
X3946253Y-11045036D02*
X3955777Y-11054560D01*
X3955777Y-11054560D02*
X3946253Y-11064084D01*
X3946253Y-11064084D02*
X3936729Y-11054560D01*
X3936729Y-11054560D02*
X3946253Y-11045036D01*
X3946253Y-11045036D02*
X3946253Y-11064084D01*
X4146253Y-11064084D02*
X4031967Y-11064084D01*
X4089110Y-11064084D02*
X4089110Y-10864084D01*
X4089110Y-10864084D02*
X4070062Y-10892655D01*
X4070062Y-10892655D02*
X4051015Y-10911703D01*
X4051015Y-10911703D02*
X4031967Y-10921227D01*
X4212920Y-10864084D02*
X4346253Y-10864084D01*
X4346253Y-10864084D02*
X4260539Y-11064084D01*
X4517682Y-10864084D02*
X4422444Y-10864084D01*
X4422444Y-10864084D02*
X4412920Y-10959322D01*
X4412920Y-10959322D02*
X4422444Y-10949798D01*
X4422444Y-10949798D02*
X4441491Y-10940274D01*
X4441491Y-10940274D02*
X4489110Y-10940274D01*
X4489110Y-10940274D02*
X4508158Y-10949798D01*
X4508158Y-10949798D02*
X4517682Y-10959322D01*
X4517682Y-10959322D02*
X4527205Y-10978370D01*
X4527205Y-10978370D02*
X4527205Y-11025989D01*
X4527205Y-11025989D02*
X4517682Y-11045036D01*
X4517682Y-11045036D02*
X4508158Y-11054560D01*
X4508158Y-11054560D02*
X4489110Y-11064084D01*
X4489110Y-11064084D02*
X4441491Y-11064084D01*
X4441491Y-11064084D02*
X4422444Y-11054560D01*
X4422444Y-11054560D02*
X4412920Y-11045036D01*
X4612920Y-11064084D02*
X4612920Y-10930750D01*
X4612920Y-10949798D02*
X4622444Y-10940274D01*
X4622444Y-10940274D02*
X4641491Y-10930750D01*
X4641491Y-10930750D02*
X4670063Y-10930750D01*
X4670063Y-10930750D02*
X4689110Y-10940274D01*
X4689110Y-10940274D02*
X4698634Y-10959322D01*
X4698634Y-10959322D02*
X4698634Y-11064084D01*
X4698634Y-10959322D02*
X4708158Y-10940274D01*
X4708158Y-10940274D02*
X4727205Y-10930750D01*
X4727205Y-10930750D02*
X4755777Y-10930750D01*
X4755777Y-10930750D02*
X4774825Y-10940274D01*
X4774825Y-10940274D02*
X4784348Y-10959322D01*
X4784348Y-10959322D02*
X4784348Y-11064084D01*
X4879586Y-11064084D02*
X4879586Y-10930750D01*
X4879586Y-10949798D02*
X4889110Y-10940274D01*
X4889110Y-10940274D02*
X4908158Y-10930750D01*
X4908158Y-10930750D02*
X4936729Y-10930750D01*
X4936729Y-10930750D02*
X4955777Y-10940274D01*
X4955777Y-10940274D02*
X4965301Y-10959322D01*
X4965301Y-10959322D02*
X4965301Y-11064084D01*
X4965301Y-10959322D02*
X4974825Y-10940274D01*
X4974825Y-10940274D02*
X4993872Y-10930750D01*
X4993872Y-10930750D02*
X5022444Y-10930750D01*
X5022444Y-10930750D02*
X5041491Y-10940274D01*
X5041491Y-10940274D02*
X5051015Y-10959322D01*
X5051015Y-10959322D02*
X5051015Y-11064084D01*
X5441491Y-10854560D02*
X5270063Y-11111703D01*
X5698634Y-10864084D02*
X5717682Y-10864084D01*
X5717682Y-10864084D02*
X5736729Y-10873608D01*
X5736729Y-10873608D02*
X5746253Y-10883131D01*
X5746253Y-10883131D02*
X5755777Y-10902179D01*
X5755777Y-10902179D02*
X5765301Y-10940274D01*
X5765301Y-10940274D02*
X5765301Y-10987893D01*
X5765301Y-10987893D02*
X5755777Y-11025989D01*
X5755777Y-11025989D02*
X5746253Y-11045036D01*
X5746253Y-11045036D02*
X5736729Y-11054560D01*
X5736729Y-11054560D02*
X5717682Y-11064084D01*
X5717682Y-11064084D02*
X5698634Y-11064084D01*
X5698634Y-11064084D02*
X5679586Y-11054560D01*
X5679586Y-11054560D02*
X5670063Y-11045036D01*
X5670063Y-11045036D02*
X5660539Y-11025989D01*
X5660539Y-11025989D02*
X5651015Y-10987893D01*
X5651015Y-10987893D02*
X5651015Y-10940274D01*
X5651015Y-10940274D02*
X5660539Y-10902179D01*
X5660539Y-10902179D02*
X5670063Y-10883131D01*
X5670063Y-10883131D02*
X5679586Y-10873608D01*
X5679586Y-10873608D02*
X5698634Y-10864084D01*
X5851015Y-11045036D02*
X5860539Y-11054560D01*
X5860539Y-11054560D02*
X5851015Y-11064084D01*
X5851015Y-11064084D02*
X5841491Y-11054560D01*
X5841491Y-11054560D02*
X5851015Y-11045036D01*
X5851015Y-11045036D02*
X5851015Y-11064084D01*
X6051015Y-11064084D02*
X5936729Y-11064084D01*
X5993872Y-11064084D02*
X5993872Y-10864084D01*
X5993872Y-10864084D02*
X5974825Y-10892655D01*
X5974825Y-10892655D02*
X5955777Y-10911703D01*
X5955777Y-10911703D02*
X5936729Y-10921227D01*
X6127206Y-10883131D02*
X6136729Y-10873608D01*
X6136729Y-10873608D02*
X6155777Y-10864084D01*
X6155777Y-10864084D02*
X6203396Y-10864084D01*
X6203396Y-10864084D02*
X6222444Y-10873608D01*
X6222444Y-10873608D02*
X6231967Y-10883131D01*
X6231967Y-10883131D02*
X6241491Y-10902179D01*
X6241491Y-10902179D02*
X6241491Y-10921227D01*
X6241491Y-10921227D02*
X6231967Y-10949798D01*
X6231967Y-10949798D02*
X6117682Y-11064084D01*
X6117682Y-11064084D02*
X6241491Y-11064084D01*
X6422444Y-10864084D02*
X6327206Y-10864084D01*
X6327206Y-10864084D02*
X6317682Y-10959322D01*
X6317682Y-10959322D02*
X6327206Y-10949798D01*
X6327206Y-10949798D02*
X6346253Y-10940274D01*
X6346253Y-10940274D02*
X6393872Y-10940274D01*
X6393872Y-10940274D02*
X6412920Y-10949798D01*
X6412920Y-10949798D02*
X6422444Y-10959322D01*
X6422444Y-10959322D02*
X6431967Y-10978370D01*
X6431967Y-10978370D02*
X6431967Y-11025989D01*
X6431967Y-11025989D02*
X6422444Y-11045036D01*
X6422444Y-11045036D02*
X6412920Y-11054560D01*
X6412920Y-11054560D02*
X6393872Y-11064084D01*
X6393872Y-11064084D02*
X6346253Y-11064084D01*
X6346253Y-11064084D02*
X6327206Y-11054560D01*
X6327206Y-11054560D02*
X6317682Y-11045036D01*
X6555777Y-10864084D02*
X6574825Y-10864084D01*
X6574825Y-10864084D02*
X6593872Y-10873608D01*
X6593872Y-10873608D02*
X6603396Y-10883131D01*
X6603396Y-10883131D02*
X6612920Y-10902179D01*
X6612920Y-10902179D02*
X6622444Y-10940274D01*
X6622444Y-10940274D02*
X6622444Y-10987893D01*
X6622444Y-10987893D02*
X6612920Y-11025989D01*
X6612920Y-11025989D02*
X6603396Y-11045036D01*
X6603396Y-11045036D02*
X6593872Y-11054560D01*
X6593872Y-11054560D02*
X6574825Y-11064084D01*
X6574825Y-11064084D02*
X6555777Y-11064084D01*
X6555777Y-11064084D02*
X6536729Y-11054560D01*
X6536729Y-11054560D02*
X6527206Y-11045036D01*
X6527206Y-11045036D02*
X6517682Y-11025989D01*
X6517682Y-11025989D02*
X6508158Y-10987893D01*
X6508158Y-10987893D02*
X6508158Y-10940274D01*
X6508158Y-10940274D02*
X6517682Y-10902179D01*
X6517682Y-10902179D02*
X6527206Y-10883131D01*
X6527206Y-10883131D02*
X6536729Y-10873608D01*
X6536729Y-10873608D02*
X6555777Y-10864084D01*
X6698634Y-10864084D02*
X6698634Y-10902179D01*
X6774825Y-10864084D02*
X6774825Y-10902179D01*
X7070063Y-11140274D02*
X7060539Y-11130750D01*
X7060539Y-11130750D02*
X7041491Y-11102179D01*
X7041491Y-11102179D02*
X7031968Y-11083131D01*
X7031968Y-11083131D02*
X7022444Y-11054560D01*
X7022444Y-11054560D02*
X7012920Y-11006941D01*
X7012920Y-11006941D02*
X7012920Y-10968846D01*
X7012920Y-10968846D02*
X7022444Y-10921227D01*
X7022444Y-10921227D02*
X7031968Y-10892655D01*
X7031968Y-10892655D02*
X7041491Y-10873608D01*
X7041491Y-10873608D02*
X7060539Y-10845036D01*
X7060539Y-10845036D02*
X7070063Y-10835512D01*
X7136729Y-10883131D02*
X7146253Y-10873608D01*
X7146253Y-10873608D02*
X7165301Y-10864084D01*
X7165301Y-10864084D02*
X7212920Y-10864084D01*
X7212920Y-10864084D02*
X7231968Y-10873608D01*
X7231968Y-10873608D02*
X7241491Y-10883131D01*
X7241491Y-10883131D02*
X7251015Y-10902179D01*
X7251015Y-10902179D02*
X7251015Y-10921227D01*
X7251015Y-10921227D02*
X7241491Y-10949798D01*
X7241491Y-10949798D02*
X7127206Y-11064084D01*
X7127206Y-11064084D02*
X7251015Y-11064084D01*
X7489110Y-11064084D02*
X7489110Y-10864084D01*
X7574825Y-11064084D02*
X7574825Y-10959322D01*
X7574825Y-10959322D02*
X7565301Y-10940274D01*
X7565301Y-10940274D02*
X7546253Y-10930750D01*
X7546253Y-10930750D02*
X7517682Y-10930750D01*
X7517682Y-10930750D02*
X7498634Y-10940274D01*
X7498634Y-10940274D02*
X7489110Y-10949798D01*
X7698634Y-11064084D02*
X7679587Y-11054560D01*
X7679587Y-11054560D02*
X7670063Y-11045036D01*
X7670063Y-11045036D02*
X7660539Y-11025989D01*
X7660539Y-11025989D02*
X7660539Y-10968846D01*
X7660539Y-10968846D02*
X7670063Y-10949798D01*
X7670063Y-10949798D02*
X7679587Y-10940274D01*
X7679587Y-10940274D02*
X7698634Y-10930750D01*
X7698634Y-10930750D02*
X7727206Y-10930750D01*
X7727206Y-10930750D02*
X7746253Y-10940274D01*
X7746253Y-10940274D02*
X7755777Y-10949798D01*
X7755777Y-10949798D02*
X7765301Y-10968846D01*
X7765301Y-10968846D02*
X7765301Y-11025989D01*
X7765301Y-11025989D02*
X7755777Y-11045036D01*
X7755777Y-11045036D02*
X7746253Y-11054560D01*
X7746253Y-11054560D02*
X7727206Y-11064084D01*
X7727206Y-11064084D02*
X7698634Y-11064084D01*
X7879587Y-11064084D02*
X7860539Y-11054560D01*
X7860539Y-11054560D02*
X7851015Y-11035512D01*
X7851015Y-11035512D02*
X7851015Y-10864084D01*
X8031968Y-11054560D02*
X8012920Y-11064084D01*
X8012920Y-11064084D02*
X7974825Y-11064084D01*
X7974825Y-11064084D02*
X7955777Y-11054560D01*
X7955777Y-11054560D02*
X7946253Y-11035512D01*
X7946253Y-11035512D02*
X7946253Y-10959322D01*
X7946253Y-10959322D02*
X7955777Y-10940274D01*
X7955777Y-10940274D02*
X7974825Y-10930750D01*
X7974825Y-10930750D02*
X8012920Y-10930750D01*
X8012920Y-10930750D02*
X8031968Y-10940274D01*
X8031968Y-10940274D02*
X8041491Y-10959322D01*
X8041491Y-10959322D02*
X8041491Y-10978370D01*
X8041491Y-10978370D02*
X7946253Y-10997417D01*
X8117682Y-11054560D02*
X8136730Y-11064084D01*
X8136730Y-11064084D02*
X8174825Y-11064084D01*
X8174825Y-11064084D02*
X8193872Y-11054560D01*
X8193872Y-11054560D02*
X8203396Y-11035512D01*
X8203396Y-11035512D02*
X8203396Y-11025989D01*
X8203396Y-11025989D02*
X8193872Y-11006941D01*
X8193872Y-11006941D02*
X8174825Y-10997417D01*
X8174825Y-10997417D02*
X8146253Y-10997417D01*
X8146253Y-10997417D02*
X8127206Y-10987893D01*
X8127206Y-10987893D02*
X8117682Y-10968846D01*
X8117682Y-10968846D02*
X8117682Y-10959322D01*
X8117682Y-10959322D02*
X8127206Y-10940274D01*
X8127206Y-10940274D02*
X8146253Y-10930750D01*
X8146253Y-10930750D02*
X8174825Y-10930750D01*
X8174825Y-10930750D02*
X8193872Y-10940274D01*
X8270063Y-11140274D02*
X8279587Y-11130750D01*
X8279587Y-11130750D02*
X8298634Y-11102179D01*
X8298634Y-11102179D02*
X8308158Y-11083131D01*
X8308158Y-11083131D02*
X8317682Y-11054560D01*
X8317682Y-11054560D02*
X8327206Y-11006941D01*
X8327206Y-11006941D02*
X8327206Y-10968846D01*
X8327206Y-10968846D02*
X8317682Y-10921227D01*
X8317682Y-10921227D02*
X8308158Y-10892655D01*
X8308158Y-10892655D02*
X8298634Y-10873608D01*
X8298634Y-10873608D02*
X8279587Y-10845036D01*
X8279587Y-10845036D02*
X8270063Y-10835512D01*
M02*
