G04 #@! TF.GenerationSoftware,KiCad,Pcbnew,7.0.10*
G04 #@! TF.CreationDate,2024-08-08T18:22:37-04:00*
G04 #@! TF.ProjectId,accessoryidk,61636365-7373-46f7-9279-69646b2e6b69,rev?*
G04 #@! TF.SameCoordinates,Original*
G04 #@! TF.FileFunction,Copper,L1,Top*
G04 #@! TF.FilePolarity,Positive*
%FSLAX46Y46*%
G04 Gerber Fmt 4.6, Leading zero omitted, Abs format (unit mm)*
G04 Created by KiCad (PCBNEW 7.0.10) date 2024-08-08 18:22:37*
%MOMM*%
%LPD*%
G01*
G04 APERTURE LIST*
G04 Aperture macros list*
%AMRoundRect*
0 Rectangle with rounded corners*
0 $1 Rounding radius*
0 $2 $3 $4 $5 $6 $7 $8 $9 X,Y pos of 4 corners*
0 Add a 4 corners polygon primitive as box body*
4,1,4,$2,$3,$4,$5,$6,$7,$8,$9,$2,$3,0*
0 Add four circle primitives for the rounded corners*
1,1,$1+$1,$2,$3*
1,1,$1+$1,$4,$5*
1,1,$1+$1,$6,$7*
1,1,$1+$1,$8,$9*
0 Add four rect primitives between the rounded corners*
20,1,$1+$1,$2,$3,$4,$5,0*
20,1,$1+$1,$4,$5,$6,$7,0*
20,1,$1+$1,$6,$7,$8,$9,0*
20,1,$1+$1,$8,$9,$2,$3,0*%
G04 Aperture macros list end*
G04 #@! TA.AperFunction,NonConductor*
%ADD10C,0.200000*%
G04 #@! TD*
G04 #@! TA.AperFunction,ComponentPad*
%ADD11RoundRect,0.250000X-0.600000X-0.725000X0.600000X-0.725000X0.600000X0.725000X-0.600000X0.725000X0*%
G04 #@! TD*
G04 #@! TA.AperFunction,ComponentPad*
%ADD12O,1.700000X1.950000*%
G04 #@! TD*
G04 #@! TA.AperFunction,SMDPad,CuDef*
%ADD13R,2.000000X2.000000*%
G04 #@! TD*
G04 #@! TA.AperFunction,SMDPad,CuDef*
%ADD14RoundRect,0.218750X-0.256250X0.218750X-0.256250X-0.218750X0.256250X-0.218750X0.256250X0.218750X0*%
G04 #@! TD*
G04 #@! TA.AperFunction,SMDPad,CuDef*
%ADD15RoundRect,0.225000X0.225000X0.250000X-0.225000X0.250000X-0.225000X-0.250000X0.225000X-0.250000X0*%
G04 #@! TD*
G04 #@! TA.AperFunction,SMDPad,CuDef*
%ADD16RoundRect,0.225000X-0.250000X0.225000X-0.250000X-0.225000X0.250000X-0.225000X0.250000X0.225000X0*%
G04 #@! TD*
G04 #@! TA.AperFunction,SMDPad,CuDef*
%ADD17RoundRect,0.225000X0.250000X-0.225000X0.250000X0.225000X-0.250000X0.225000X-0.250000X-0.225000X0*%
G04 #@! TD*
G04 #@! TA.AperFunction,SMDPad,CuDef*
%ADD18RoundRect,0.200000X0.275000X-0.200000X0.275000X0.200000X-0.275000X0.200000X-0.275000X-0.200000X0*%
G04 #@! TD*
G04 #@! TA.AperFunction,SMDPad,CuDef*
%ADD19RoundRect,0.075000X0.910000X0.225000X-0.910000X0.225000X-0.910000X-0.225000X0.910000X-0.225000X0*%
G04 #@! TD*
G04 #@! TA.AperFunction,SMDPad,CuDef*
%ADD20RoundRect,0.225000X-0.225000X-0.250000X0.225000X-0.250000X0.225000X0.250000X-0.225000X0.250000X0*%
G04 #@! TD*
G04 #@! TA.AperFunction,ComponentPad*
%ADD21RoundRect,0.250000X-0.725000X0.600000X-0.725000X-0.600000X0.725000X-0.600000X0.725000X0.600000X0*%
G04 #@! TD*
G04 #@! TA.AperFunction,ComponentPad*
%ADD22O,1.950000X1.700000*%
G04 #@! TD*
G04 #@! TA.AperFunction,SMDPad,CuDef*
%ADD23RoundRect,0.032500X-0.372500X-0.097500X0.372500X-0.097500X0.372500X0.097500X-0.372500X0.097500X0*%
G04 #@! TD*
G04 #@! TA.AperFunction,SMDPad,CuDef*
%ADD24RoundRect,0.032500X-0.097500X-0.372500X0.097500X-0.372500X0.097500X0.372500X-0.097500X0.372500X0*%
G04 #@! TD*
G04 #@! TA.AperFunction,SMDPad,CuDef*
%ADD25R,3.900000X3.900000*%
G04 #@! TD*
G04 #@! TA.AperFunction,SMDPad,CuDef*
%ADD26RoundRect,0.060000X0.675000X0.180000X-0.675000X0.180000X-0.675000X-0.180000X0.675000X-0.180000X0*%
G04 #@! TD*
G04 #@! TA.AperFunction,SMDPad,CuDef*
%ADD27R,1.910000X0.640000*%
G04 #@! TD*
G04 #@! TA.AperFunction,SMDPad,CuDef*
%ADD28RoundRect,0.218750X0.218750X0.256250X-0.218750X0.256250X-0.218750X-0.256250X0.218750X-0.256250X0*%
G04 #@! TD*
G04 #@! TA.AperFunction,SMDPad,CuDef*
%ADD29RoundRect,0.250000X-0.325000X-0.650000X0.325000X-0.650000X0.325000X0.650000X-0.325000X0.650000X0*%
G04 #@! TD*
G04 #@! TA.AperFunction,ComponentPad*
%ADD30C,1.800000*%
G04 #@! TD*
G04 #@! TA.AperFunction,ComponentPad*
%ADD31RoundRect,0.250000X0.600000X0.725000X-0.600000X0.725000X-0.600000X-0.725000X0.600000X-0.725000X0*%
G04 #@! TD*
G04 #@! TA.AperFunction,SMDPad,CuDef*
%ADD32RoundRect,0.218750X0.256250X-0.218750X0.256250X0.218750X-0.256250X0.218750X-0.256250X-0.218750X0*%
G04 #@! TD*
G04 #@! TA.AperFunction,ComponentPad*
%ADD33R,1.562000X1.562000*%
G04 #@! TD*
G04 #@! TA.AperFunction,ComponentPad*
%ADD34C,1.562000*%
G04 #@! TD*
G04 #@! TA.AperFunction,ComponentPad*
%ADD35C,4.762000*%
G04 #@! TD*
G04 #@! TA.AperFunction,SMDPad,CuDef*
%ADD36RoundRect,0.035000X0.105000X-0.690000X0.105000X0.690000X-0.105000X0.690000X-0.105000X-0.690000X0*%
G04 #@! TD*
G04 #@! TA.AperFunction,SMDPad,CuDef*
%ADD37R,2.845000X1.651000*%
G04 #@! TD*
G04 #@! TA.AperFunction,SMDPad,CuDef*
%ADD38R,1.200000X2.440000*%
G04 #@! TD*
G04 #@! TA.AperFunction,SMDPad,CuDef*
%ADD39RoundRect,0.035000X-0.690000X-0.105000X0.690000X-0.105000X0.690000X0.105000X-0.690000X0.105000X0*%
G04 #@! TD*
G04 #@! TA.AperFunction,SMDPad,CuDef*
%ADD40R,1.651000X2.845000*%
G04 #@! TD*
G04 #@! TA.AperFunction,SMDPad,CuDef*
%ADD41RoundRect,0.200000X-0.200000X-0.275000X0.200000X-0.275000X0.200000X0.275000X-0.200000X0.275000X0*%
G04 #@! TD*
G04 #@! TA.AperFunction,SMDPad,CuDef*
%ADD42RoundRect,0.250000X-0.375000X-0.625000X0.375000X-0.625000X0.375000X0.625000X-0.375000X0.625000X0*%
G04 #@! TD*
G04 #@! TA.AperFunction,ComponentPad*
%ADD43RoundRect,0.250000X0.725000X-0.600000X0.725000X0.600000X-0.725000X0.600000X-0.725000X-0.600000X0*%
G04 #@! TD*
G04 #@! TA.AperFunction,SMDPad,CuDef*
%ADD44RoundRect,0.051250X-0.733750X-0.153750X0.733750X-0.153750X0.733750X0.153750X-0.733750X0.153750X0*%
G04 #@! TD*
G04 #@! TA.AperFunction,SMDPad,CuDef*
%ADD45RoundRect,0.218750X-0.218750X-0.256250X0.218750X-0.256250X0.218750X0.256250X-0.218750X0.256250X0*%
G04 #@! TD*
G04 #@! TA.AperFunction,SMDPad,CuDef*
%ADD46RoundRect,0.200000X0.200000X0.275000X-0.200000X0.275000X-0.200000X-0.275000X0.200000X-0.275000X0*%
G04 #@! TD*
G04 #@! TA.AperFunction,SMDPad,CuDef*
%ADD47RoundRect,0.075000X-0.910000X-0.225000X0.910000X-0.225000X0.910000X0.225000X-0.910000X0.225000X0*%
G04 #@! TD*
G04 #@! TA.AperFunction,ViaPad*
%ADD48C,0.800000*%
G04 #@! TD*
G04 #@! TA.AperFunction,ViaPad*
%ADD49C,1.200000*%
G04 #@! TD*
G04 #@! TA.AperFunction,Conductor*
%ADD50C,0.250000*%
G04 #@! TD*
G04 #@! TA.AperFunction,Conductor*
%ADD51C,0.500000*%
G04 #@! TD*
G04 #@! TA.AperFunction,Conductor*
%ADD52C,0.200000*%
G04 #@! TD*
G04 APERTURE END LIST*
D10*
X143256001Y-53340000D02*
G75*
G03*
X143255999Y-53340000I-1J0D01*
G01*
X143255999Y-53340000D02*
G75*
G03*
X143256001Y-53340000I1J0D01*
G01*
D11*
X101934000Y-86060000D03*
D12*
X104434000Y-86060000D03*
X106934000Y-86060000D03*
X109434000Y-86060000D03*
X111934000Y-86060000D03*
D13*
X89154000Y-76454000D03*
D14*
X103886000Y-34260500D03*
X103886000Y-35835500D03*
D15*
X94881000Y-38096000D03*
X93331000Y-38096000D03*
D16*
X81153000Y-37833000D03*
X81153000Y-39383000D03*
D17*
X103504000Y-39125000D03*
X103504000Y-37575000D03*
D16*
X93188000Y-41516000D03*
X93188000Y-43066000D03*
D18*
X90424000Y-30289000D03*
X90424000Y-28639000D03*
X88646000Y-30289000D03*
X88646000Y-28639000D03*
D11*
X102108000Y-51308000D03*
D12*
X104608000Y-51308000D03*
X107108000Y-51308000D03*
X109608000Y-51308000D03*
X112108000Y-51308000D03*
D16*
X98806000Y-60693000D03*
X98806000Y-62243000D03*
D19*
X106483000Y-46228000D03*
X106483000Y-44958000D03*
X106483000Y-43688000D03*
X106483000Y-42418000D03*
X101543000Y-42418000D03*
X101543000Y-43688000D03*
X101543000Y-44958000D03*
X101543000Y-46228000D03*
D20*
X97396000Y-42291000D03*
X98946000Y-42291000D03*
D17*
X78486000Y-42685000D03*
X78486000Y-41135000D03*
D21*
X113030000Y-32004000D03*
D22*
X113030000Y-34504000D03*
X113030000Y-37004000D03*
X113030000Y-39504000D03*
X113030000Y-42004000D03*
X113030000Y-44504000D03*
D23*
X82902000Y-37882000D03*
X82902000Y-38382000D03*
X82902000Y-38882000D03*
X82902000Y-39382000D03*
X82902000Y-39882000D03*
X82902000Y-40382000D03*
X82902000Y-40882000D03*
X82902000Y-41382000D03*
X82902000Y-41882000D03*
X82902000Y-42382000D03*
D24*
X83602000Y-43082000D03*
X84102000Y-43082000D03*
X84602000Y-43082000D03*
X85102000Y-43082000D03*
X85602000Y-43082000D03*
X86102000Y-43082000D03*
X86602000Y-43082000D03*
X87102000Y-43082000D03*
X87602000Y-43082000D03*
X88102000Y-43082000D03*
D23*
X88802000Y-42382000D03*
X88802000Y-41882000D03*
X88802000Y-41382000D03*
X88802000Y-40882000D03*
X88802000Y-40382000D03*
X88802000Y-39882000D03*
X88802000Y-39382000D03*
X88802000Y-38882000D03*
X88802000Y-38382000D03*
X88802000Y-37882000D03*
D24*
X88102000Y-37182000D03*
X87602000Y-37182000D03*
X87102000Y-37182000D03*
X86602000Y-37182000D03*
X86102000Y-37182000D03*
X85602000Y-37182000D03*
X85102000Y-37182000D03*
X84602000Y-37182000D03*
X84102000Y-37182000D03*
X83602000Y-37182000D03*
D25*
X85852000Y-40132000D03*
D15*
X95517000Y-30480000D03*
X93967000Y-30480000D03*
D26*
X101718000Y-29931000D03*
X101718000Y-29281000D03*
X101718000Y-28631000D03*
X101718000Y-27981000D03*
X97418000Y-27981000D03*
X97418000Y-28631000D03*
X97418000Y-29281000D03*
X97418000Y-29931000D03*
D15*
X81801000Y-62865000D03*
X80251000Y-62865000D03*
X90437000Y-44704000D03*
X88887000Y-44704000D03*
D26*
X86478000Y-30185000D03*
X86478000Y-29535000D03*
X86478000Y-28885000D03*
X86478000Y-28235000D03*
X82178000Y-28235000D03*
X82178000Y-28885000D03*
X82178000Y-29535000D03*
X82178000Y-30185000D03*
D27*
X85023000Y-56769000D03*
X85023000Y-58039000D03*
X85023000Y-59309000D03*
X85023000Y-60579000D03*
X85023000Y-61849000D03*
X85023000Y-63119000D03*
X85023000Y-64389000D03*
X85023000Y-65659000D03*
X93793000Y-65659000D03*
X93793000Y-64389000D03*
X93793000Y-63119000D03*
X93793000Y-61849000D03*
X93793000Y-60579000D03*
X93793000Y-59309000D03*
X93793000Y-58039000D03*
X93793000Y-56769000D03*
D26*
X70730000Y-30185000D03*
X70730000Y-29535000D03*
X70730000Y-28885000D03*
X70730000Y-28235000D03*
X66430000Y-28235000D03*
X66430000Y-28885000D03*
X66430000Y-29535000D03*
X66430000Y-30185000D03*
D28*
X60464750Y-45466000D03*
X58889750Y-45466000D03*
D16*
X60382000Y-39103000D03*
X60382000Y-40653000D03*
D29*
X75583000Y-69215000D03*
X78533000Y-69215000D03*
D30*
X55626000Y-82931000D03*
X55626000Y-80391000D03*
X55626000Y-77851000D03*
X55626000Y-75311000D03*
X55626000Y-49911000D03*
X40386000Y-80391000D03*
X50546000Y-39751000D03*
X55626000Y-72771000D03*
X55626000Y-70231000D03*
X52576000Y-79121000D03*
X55626000Y-67691000D03*
X55626000Y-65151000D03*
X55626000Y-62611000D03*
X55626000Y-60071000D03*
X55626000Y-57531000D03*
X55626000Y-54991000D03*
X55626000Y-52451000D03*
X40386000Y-52451000D03*
X40386000Y-54991000D03*
X40386000Y-57531000D03*
X40386000Y-60071000D03*
X40386000Y-62611000D03*
X40386000Y-65151000D03*
X40386000Y-67691000D03*
X40386000Y-70231000D03*
X40386000Y-72771000D03*
X40386000Y-75311000D03*
X40386000Y-77851000D03*
X55626000Y-47371000D03*
X55626000Y-44831000D03*
X55626000Y-42291000D03*
X55626000Y-39751000D03*
X55626000Y-37211000D03*
X55626000Y-34671000D03*
X55626000Y-32131000D03*
X55626000Y-29591000D03*
X55626000Y-27051000D03*
X40386000Y-27051000D03*
X40386000Y-29591000D03*
X40386000Y-32131000D03*
X40386000Y-34671000D03*
X40386000Y-37211000D03*
X40386000Y-39751000D03*
X40386000Y-42291000D03*
X40386000Y-44831000D03*
X40386000Y-47371000D03*
X52576000Y-74041000D03*
X52576000Y-76581000D03*
X55626000Y-85471000D03*
X40386000Y-49911000D03*
X40386000Y-82931000D03*
X48006000Y-39751000D03*
X44836000Y-70501000D03*
X44836000Y-72501000D03*
X42926000Y-39751000D03*
X45466000Y-39751000D03*
X42836000Y-72501000D03*
X42836000Y-70501000D03*
X46836000Y-70501000D03*
X46836000Y-72501000D03*
X52576000Y-71501000D03*
X52576000Y-68961000D03*
X53086000Y-39751000D03*
X40386000Y-85471000D03*
X42926000Y-82931000D03*
D18*
X72898000Y-30289000D03*
X72898000Y-28639000D03*
D16*
X109347000Y-60312000D03*
X109347000Y-61862000D03*
X91694000Y-75679000D03*
X91694000Y-77229000D03*
D15*
X95517000Y-26162000D03*
X93967000Y-26162000D03*
D20*
X76283000Y-66675000D03*
X77833000Y-66675000D03*
D13*
X72828000Y-37846000D03*
D31*
X110998000Y-74168000D03*
D12*
X108498000Y-74168000D03*
X105998000Y-74168000D03*
X103498000Y-74168000D03*
D15*
X90450000Y-46863000D03*
X88900000Y-46863000D03*
X80531000Y-26416000D03*
X78981000Y-26416000D03*
D18*
X74930000Y-30289000D03*
X74930000Y-28639000D03*
D15*
X71571000Y-40386000D03*
X70021000Y-40386000D03*
D20*
X82537000Y-35306000D03*
X84087000Y-35306000D03*
D16*
X78994000Y-37833000D03*
X78994000Y-39383000D03*
D32*
X70034000Y-38633500D03*
X70034000Y-37058500D03*
D18*
X105918000Y-29781000D03*
X105918000Y-28131000D03*
D31*
X111720000Y-79756000D03*
D12*
X109220000Y-79756000D03*
X106720000Y-79756000D03*
X104220000Y-79756000D03*
X101720000Y-79756000D03*
D20*
X82537000Y-33655000D03*
X84087000Y-33655000D03*
X93459000Y-79248000D03*
X95009000Y-79248000D03*
D33*
X120066000Y-28016000D03*
D34*
X120066000Y-30775000D03*
X120066000Y-33533000D03*
X120066000Y-36292000D03*
X120066000Y-39050000D03*
X120066000Y-41809000D03*
X120066000Y-44567000D03*
X120066000Y-47325000D03*
X120066000Y-50084000D03*
X120066000Y-52842000D03*
X120066000Y-55601000D03*
X120066000Y-58359000D03*
X120066000Y-61118000D03*
X120066000Y-63876000D03*
X120066000Y-66634000D03*
X120066000Y-69393000D03*
X120066000Y-72151000D03*
X120066000Y-74910000D03*
X120066000Y-77668000D03*
X122911000Y-29375000D03*
X122911000Y-32154000D03*
X122911000Y-34912000D03*
X122911000Y-37671000D03*
X122911000Y-40429000D03*
X122911000Y-43188000D03*
X122911000Y-45946000D03*
X122911000Y-48705000D03*
X122911000Y-51463000D03*
X122911000Y-54221000D03*
X122911000Y-56980000D03*
X122911000Y-59738000D03*
X122911000Y-62497000D03*
X122911000Y-65255000D03*
X122911000Y-68014000D03*
X122911000Y-70772000D03*
X122911000Y-73531000D03*
X122911000Y-76289000D03*
D35*
X121488000Y-21082000D03*
X121488000Y-84582000D03*
D36*
X91468000Y-85980000D03*
X91968000Y-85980000D03*
X92468000Y-85980000D03*
X92968000Y-85980000D03*
X93468000Y-85980000D03*
X93968000Y-85980000D03*
X94468000Y-85980000D03*
X94968000Y-85980000D03*
X94968000Y-81660000D03*
X94468000Y-81660000D03*
X93968000Y-81660000D03*
X93468000Y-81660000D03*
X92968000Y-81660000D03*
X92468000Y-81660000D03*
X91968000Y-81660000D03*
X91468000Y-81660000D03*
D37*
X93218000Y-83820000D03*
D13*
X96393000Y-45085000D03*
D16*
X90678000Y-41516000D03*
X90678000Y-43066000D03*
D38*
X73188500Y-76951500D03*
X75188500Y-76951500D03*
X77988500Y-76951500D03*
X81988500Y-76951500D03*
X74188500Y-87591500D03*
X80988500Y-87591500D03*
D39*
X97026000Y-35330000D03*
X97026000Y-35830000D03*
X97026000Y-36330000D03*
X97026000Y-36830000D03*
X97026000Y-37330000D03*
X97026000Y-37830000D03*
X97026000Y-38330000D03*
X97026000Y-38830000D03*
X101346000Y-38830000D03*
X101346000Y-38330000D03*
X101346000Y-37830000D03*
X101346000Y-37330000D03*
X101346000Y-36830000D03*
X101346000Y-36330000D03*
X101346000Y-35830000D03*
X101346000Y-35330000D03*
D40*
X99186000Y-37080000D03*
D13*
X69079500Y-81636500D03*
D15*
X81928000Y-57277000D03*
X80378000Y-57277000D03*
D13*
X62992000Y-45212000D03*
D41*
X96584000Y-64262000D03*
X98234000Y-64262000D03*
D17*
X81153000Y-42685000D03*
X81153000Y-41135000D03*
D42*
X102740000Y-69850000D03*
X105540000Y-69850000D03*
D43*
X112984000Y-67738000D03*
D22*
X112984000Y-65238000D03*
X112984000Y-62738000D03*
X112984000Y-60238000D03*
X112984000Y-57738000D03*
D44*
X100762000Y-58289000D03*
X100762000Y-58939000D03*
X100762000Y-59589000D03*
X100762000Y-60239000D03*
X100762000Y-60889000D03*
X100762000Y-61539000D03*
X100762000Y-62189000D03*
X100762000Y-62839000D03*
X100762000Y-63489000D03*
X100762000Y-64139000D03*
X106502000Y-64139000D03*
X106502000Y-63489000D03*
X106502000Y-62839000D03*
X106502000Y-62189000D03*
X106502000Y-61539000D03*
X106502000Y-60889000D03*
X106502000Y-60239000D03*
X106502000Y-59589000D03*
X106502000Y-58939000D03*
X106502000Y-58289000D03*
D15*
X81801000Y-65375000D03*
X80251000Y-65375000D03*
D16*
X94614000Y-34527000D03*
X94614000Y-36077000D03*
D14*
X98933000Y-44297500D03*
X98933000Y-45872500D03*
D20*
X91173000Y-88138000D03*
X92723000Y-88138000D03*
D15*
X64275000Y-27178000D03*
X62725000Y-27178000D03*
D18*
X103886000Y-29781000D03*
X103886000Y-28131000D03*
D29*
X77129500Y-73635500D03*
X80079500Y-73635500D03*
D15*
X80277000Y-30480000D03*
X78727000Y-30480000D03*
X81928000Y-54864000D03*
X80378000Y-54864000D03*
X64275000Y-30480000D03*
X62725000Y-30480000D03*
D16*
X94488000Y-88125000D03*
X94488000Y-89675000D03*
D45*
X68419000Y-77953500D03*
X69994000Y-77953500D03*
D17*
X108839000Y-44336000D03*
X108839000Y-42786000D03*
D41*
X97092000Y-58166000D03*
X98742000Y-58166000D03*
D11*
X100704000Y-22606000D03*
D12*
X103204000Y-22606000D03*
X105704000Y-22606000D03*
X108204000Y-22606000D03*
X110704000Y-22606000D03*
X113204000Y-22606000D03*
D18*
X87135000Y-47053000D03*
X87135000Y-45403000D03*
D45*
X90144500Y-79248000D03*
X91719500Y-79248000D03*
D46*
X69755000Y-69469000D03*
X68105000Y-69469000D03*
D47*
X62738000Y-37211000D03*
X62738000Y-38481000D03*
X62738000Y-39751000D03*
X62738000Y-41021000D03*
X67678000Y-41021000D03*
X67678000Y-39751000D03*
X67678000Y-38481000D03*
X67678000Y-37211000D03*
D13*
X106552000Y-34032000D03*
D28*
X68955500Y-67183000D03*
X67380500Y-67183000D03*
D15*
X107327000Y-36572000D03*
X105777000Y-36572000D03*
D48*
X90297000Y-80899000D03*
X76962000Y-43053000D03*
D49*
X66040000Y-80518000D03*
D48*
X77216000Y-64008000D03*
X58928000Y-38100000D03*
X96520000Y-77978000D03*
X104648000Y-45466000D03*
X108966000Y-45720000D03*
X102792151Y-35522044D03*
X104648000Y-37850653D03*
X86106000Y-48514000D03*
X82357000Y-47207000D03*
X81652500Y-74143500D03*
X80010000Y-60071000D03*
X73270500Y-73000500D03*
X105029000Y-39116000D03*
X61341000Y-28448000D03*
X65716000Y-42672000D03*
X74676000Y-64008000D03*
X103505000Y-41275000D03*
X78105000Y-27813000D03*
X103378000Y-65151000D03*
X77597000Y-38989000D03*
X92837000Y-27432000D03*
X93218000Y-76454000D03*
X66929000Y-70739000D03*
X97028000Y-62230000D03*
X96012000Y-87503000D03*
X108204000Y-38862000D03*
X106230847Y-38022542D03*
X106299000Y-47535000D03*
X81788000Y-32512000D03*
X94742000Y-41656000D03*
X50292000Y-73914000D03*
X95885000Y-80391000D03*
X93057249Y-80432524D03*
X104648000Y-36576000D03*
X102108000Y-40020000D03*
X110503025Y-26148975D03*
X108204000Y-26100000D03*
X86833525Y-26889525D03*
X80772000Y-28702000D03*
X71085525Y-26889525D03*
X65278000Y-31496000D03*
X95504000Y-28448000D03*
X64011217Y-29405230D03*
X99060000Y-30226000D03*
X94996000Y-32041000D03*
X100584000Y-57658000D03*
X102130731Y-59939639D03*
X108015347Y-60005653D03*
X109029500Y-57975500D03*
X96266000Y-21844000D03*
X93218000Y-24130000D03*
X90932000Y-23941000D03*
X83953331Y-32475000D03*
X83510615Y-29945652D03*
X100584000Y-24638000D03*
X84840101Y-36192679D03*
X81534000Y-36068000D03*
X70104000Y-33020000D03*
X68834000Y-30480000D03*
X52832000Y-45466000D03*
X82804000Y-44921000D03*
X51562000Y-56134000D03*
X79248000Y-45757000D03*
X85608092Y-44714092D03*
X84328000Y-46328000D03*
X78232000Y-54610000D03*
X97282000Y-31750000D03*
X101600000Y-30988000D03*
X99060000Y-33020000D03*
X103886000Y-31967000D03*
X100564554Y-34596488D03*
X108204000Y-35560000D03*
X93624317Y-36675261D03*
X107945347Y-41152653D03*
X91440000Y-38607000D03*
X95499347Y-40644653D03*
X98044000Y-69342000D03*
X96266000Y-60960000D03*
X117856000Y-67818000D03*
X121412000Y-68326000D03*
X97282000Y-56642000D03*
X103124000Y-68072000D03*
X100838000Y-67056000D03*
X101346000Y-72390000D03*
X108204000Y-69596000D03*
X57912000Y-62992000D03*
X66556000Y-61301070D03*
X82804000Y-56134000D03*
X76454000Y-56134000D03*
X78232000Y-58420000D03*
X81103000Y-59182000D03*
X82042000Y-61468000D03*
X57912000Y-61214000D03*
X82550000Y-67310000D03*
D50*
X92723000Y-88138000D02*
X92468000Y-87883000D01*
X92468000Y-87883000D02*
X92468000Y-85980000D01*
X94468000Y-81660000D02*
X94468000Y-79789000D01*
X77833000Y-66675000D02*
X77833000Y-68515000D01*
X81153000Y-42685000D02*
X82599000Y-42685000D01*
X112461000Y-79756000D02*
X111720000Y-79756000D01*
X77330000Y-42685000D02*
X76962000Y-43053000D01*
X92468000Y-81660000D02*
X92468000Y-80854912D01*
X94468000Y-79789000D02*
X95009000Y-79248000D01*
X77833000Y-68515000D02*
X78533000Y-69215000D01*
X59931000Y-39103000D02*
X58928000Y-38100000D01*
D51*
X67158500Y-81636500D02*
X69079500Y-81636500D01*
D50*
X95250000Y-79248000D02*
X95009000Y-79248000D01*
X78486000Y-42685000D02*
X77330000Y-42685000D01*
X92468000Y-80854912D02*
X92004088Y-80391000D01*
X94968000Y-81660000D02*
X93968000Y-81660000D01*
D51*
X69079500Y-78614000D02*
X68419000Y-77953500D01*
D50*
X90297000Y-80772000D02*
X90297000Y-80899000D01*
X62738000Y-38481000D02*
X61004000Y-38481000D01*
X82902000Y-42382000D02*
X82902000Y-41882000D01*
X78486000Y-42685000D02*
X81153000Y-42685000D01*
D51*
X66040000Y-80518000D02*
X67158500Y-81636500D01*
X69079500Y-81636500D02*
X69079500Y-78614000D01*
D50*
X77216000Y-66058000D02*
X77833000Y-66675000D01*
X77216000Y-63881000D02*
X77216000Y-66058000D01*
X82599000Y-42685000D02*
X82902000Y-42382000D01*
X77216000Y-63881000D02*
X77216000Y-64008000D01*
X90678000Y-80391000D02*
X90297000Y-80772000D01*
X120066000Y-72151000D02*
X112461000Y-79756000D01*
X61004000Y-38481000D02*
X60382000Y-39103000D01*
X96520000Y-77978000D02*
X95250000Y-79248000D01*
X60382000Y-39103000D02*
X59931000Y-39103000D01*
X92004088Y-80391000D02*
X90678000Y-80391000D01*
X94488000Y-89675000D02*
X93503000Y-88690000D01*
X93503000Y-86015000D02*
X93468000Y-85980000D01*
X93503000Y-88690000D02*
X93503000Y-86015000D01*
X94867000Y-36330000D02*
X97026000Y-36330000D01*
X94614000Y-36077000D02*
X94867000Y-36330000D01*
X96992000Y-37296000D02*
X97026000Y-37330000D01*
X93331000Y-38096000D02*
X94131000Y-37296000D01*
X94131000Y-37296000D02*
X96992000Y-37296000D01*
X108839000Y-45593000D02*
X108966000Y-45720000D01*
X112984000Y-60238000D02*
X112984000Y-57738000D01*
X105156000Y-44958000D02*
X104648000Y-45466000D01*
X106483000Y-44958000D02*
X105156000Y-44958000D01*
X103504000Y-37575000D02*
X103249000Y-37830000D01*
X102792151Y-35522044D02*
X102792151Y-35688937D01*
D51*
X79555000Y-71210000D02*
X101380000Y-71210000D01*
X102740000Y-69850000D02*
X109852000Y-62738000D01*
X77129500Y-73635500D02*
X79555000Y-71210000D01*
X75188500Y-76951500D02*
X77129500Y-75010500D01*
D50*
X102151088Y-36330000D02*
X101346000Y-36330000D01*
X104648000Y-37850653D02*
X104372347Y-37575000D01*
D51*
X109852000Y-62738000D02*
X112984000Y-62738000D01*
D50*
X108839000Y-44336000D02*
X108839000Y-45593000D01*
X104372347Y-37575000D02*
X103504000Y-37575000D01*
X103249000Y-37830000D02*
X101346000Y-37830000D01*
D51*
X77129500Y-75010500D02*
X77129500Y-73635500D01*
X101380000Y-71210000D02*
X102740000Y-69850000D01*
D50*
X102792151Y-35688937D02*
X102151088Y-36330000D01*
X101346000Y-38830000D02*
X101346000Y-37830000D01*
D51*
X90450000Y-47726000D02*
X90450000Y-46863000D01*
X60464750Y-45466000D02*
X62738000Y-45466000D01*
D50*
X99568000Y-56642000D02*
X97790000Y-54864000D01*
D51*
X86106000Y-48514000D02*
X86106000Y-48082000D01*
X90297000Y-47879000D02*
X90450000Y-47726000D01*
X88000000Y-47360000D02*
X88000000Y-47398828D01*
X87693000Y-47053000D02*
X88000000Y-47360000D01*
X63172000Y-45032000D02*
X63433000Y-44771000D01*
D50*
X62992000Y-45212000D02*
X63172000Y-45032000D01*
X99557000Y-58939000D02*
X99977001Y-58939000D01*
D51*
X88000000Y-47398828D02*
X88861172Y-48260000D01*
X86106000Y-48082000D02*
X87135000Y-47053000D01*
D50*
X88102000Y-43082000D02*
X88815000Y-43082000D01*
X88815000Y-43082000D02*
X90437000Y-44704000D01*
X99606000Y-63767999D02*
X99606000Y-61493000D01*
X62738000Y-45466000D02*
X62992000Y-45212000D01*
D51*
X88861172Y-48260000D02*
X89916000Y-48260000D01*
X82357000Y-47178000D02*
X82357000Y-47207000D01*
X63433000Y-44771000D02*
X79950000Y-44771000D01*
D50*
X98806000Y-59690000D02*
X99557000Y-58939000D01*
X99568000Y-58529999D02*
X99568000Y-56642000D01*
D51*
X97790000Y-54864000D02*
X97282000Y-54864000D01*
X79950000Y-44771000D02*
X82357000Y-47178000D01*
X97282000Y-54864000D02*
X90297000Y-47879000D01*
D50*
X99606000Y-61493000D02*
X98806000Y-60693000D01*
D51*
X87135000Y-47053000D02*
X87693000Y-47053000D01*
D50*
X99977001Y-64139000D02*
X99606000Y-63767999D01*
D51*
X90450000Y-44717000D02*
X90437000Y-44704000D01*
X90450000Y-46863000D02*
X90450000Y-44717000D01*
D50*
X100762000Y-64139000D02*
X99977001Y-64139000D01*
X99977001Y-58939000D02*
X100762000Y-58939000D01*
D51*
X89916000Y-48260000D02*
X90297000Y-47879000D01*
D50*
X99977001Y-58939000D02*
X99568000Y-58529999D01*
X98806000Y-60693000D02*
X98806000Y-59690000D01*
X95599000Y-26162000D02*
X95517000Y-26162000D01*
X97418000Y-27981000D02*
X95599000Y-26162000D01*
X78688000Y-41337000D02*
X84647000Y-41337000D01*
X96223000Y-34527000D02*
X97026000Y-35330000D01*
X77597000Y-38989000D02*
X77597000Y-40246000D01*
X99444000Y-41653000D02*
X99695000Y-41402000D01*
X106851000Y-42786000D02*
X106483000Y-42418000D01*
X76283000Y-68515000D02*
X75583000Y-69215000D01*
X78994000Y-37833000D02*
X81153000Y-37833000D01*
X80079500Y-75042500D02*
X80079500Y-73635500D01*
X68105000Y-69563000D02*
X66929000Y-70739000D01*
X65716000Y-42672000D02*
X68383000Y-42672000D01*
X65716000Y-42672000D02*
X64389000Y-42672000D01*
X88757000Y-42337000D02*
X88057000Y-42337000D01*
X64389000Y-42672000D02*
X62738000Y-41021000D01*
X73188500Y-76951500D02*
X73188500Y-73082500D01*
X79834000Y-57277000D02*
X80378000Y-57277000D01*
X91468000Y-85980000D02*
X91968000Y-85980000D01*
X88618000Y-44704000D02*
X88887000Y-44704000D01*
X77597000Y-40246000D02*
X78486000Y-41135000D01*
X80251000Y-60312000D02*
X80010000Y-60071000D01*
X80378000Y-54864000D02*
X79883000Y-54864000D01*
X106502000Y-64139000D02*
X107286999Y-64139000D01*
X114088000Y-66634000D02*
X112984000Y-67738000D01*
X104390000Y-64139000D02*
X103378000Y-65151000D01*
X81988500Y-76951500D02*
X80079500Y-75042500D01*
X104648000Y-42418000D02*
X103505000Y-41275000D01*
X87602000Y-41882000D02*
X85852000Y-40132000D01*
X97026000Y-35330000D02*
X97026000Y-35830000D01*
X88057000Y-42337000D02*
X85852000Y-40132000D01*
X100352982Y-65151000D02*
X103378000Y-65151000D01*
X87602000Y-43688000D02*
X87602000Y-43082000D01*
X97026000Y-37830000D02*
X98436000Y-37830000D01*
X93968000Y-85980000D02*
X93968000Y-84570000D01*
X87602000Y-43688000D02*
X88618000Y-44704000D01*
X93967000Y-26162000D02*
X93345000Y-26162000D01*
X78981000Y-26937000D02*
X78105000Y-27813000D01*
X93967000Y-30480000D02*
X93967000Y-28562000D01*
X77597000Y-38989000D02*
X78753000Y-37833000D01*
X61341000Y-29096000D02*
X62725000Y-30480000D01*
X94488000Y-88125000D02*
X93968000Y-87605000D01*
X83602000Y-43082000D02*
X83647000Y-43037000D01*
X93459000Y-76695000D02*
X93218000Y-76454000D01*
X80079500Y-73635500D02*
X81144500Y-73635500D01*
X98436000Y-37830000D02*
X99186000Y-37080000D01*
X81144500Y-73635500D02*
X81652500Y-74143500D01*
X97028000Y-59880000D02*
X98742000Y-58166000D01*
X107327000Y-37951695D02*
X107327000Y-36572000D01*
X78486000Y-41135000D02*
X78688000Y-41337000D01*
X99186000Y-37080000D02*
X99186000Y-38752500D01*
X84102000Y-37182000D02*
X84102000Y-33670000D01*
X98234000Y-63436000D02*
X98234000Y-64262000D01*
X84087000Y-38367000D02*
X85852000Y-40132000D01*
X83647000Y-43037000D02*
X83647000Y-42337000D01*
X98806000Y-62243000D02*
X98806000Y-63604018D01*
X84647000Y-41337000D02*
X85852000Y-40132000D01*
X80378000Y-57277000D02*
X80378000Y-59703000D01*
X103378000Y-41402000D02*
X103505000Y-41275000D01*
X95390000Y-88125000D02*
X96012000Y-87503000D01*
X103334000Y-39295000D02*
X103504000Y-39125000D01*
X95147000Y-37830000D02*
X97026000Y-37830000D01*
X87602000Y-43082000D02*
X87602000Y-41882000D01*
X106502000Y-64139000D02*
X104390000Y-64139000D01*
X62370000Y-40653000D02*
X62738000Y-41021000D01*
X99444000Y-41793000D02*
X99444000Y-41653000D01*
X94614000Y-34527000D02*
X96223000Y-34527000D01*
X74676000Y-63881000D02*
X74676000Y-64008000D01*
X91694000Y-75679000D02*
X92443000Y-75679000D01*
X93345000Y-26162000D02*
X92837000Y-26670000D01*
X105020000Y-39125000D02*
X103504000Y-39125000D01*
X90678000Y-43066000D02*
X89486000Y-43066000D01*
X109347000Y-62078999D02*
X109347000Y-61862000D01*
X78981000Y-26416000D02*
X78981000Y-26937000D01*
X93968000Y-87605000D02*
X93968000Y-85980000D01*
X107286999Y-64139000D02*
X109347000Y-62078999D01*
X76283000Y-66675000D02*
X76283000Y-68515000D01*
X80378000Y-57277000D02*
X80378000Y-54864000D01*
X97028000Y-62230000D02*
X98234000Y-63436000D01*
X98946000Y-42291000D02*
X99444000Y-41793000D01*
X105029000Y-39116000D02*
X105020000Y-39125000D01*
X88802000Y-42382000D02*
X88757000Y-42337000D01*
X80378000Y-59703000D02*
X80010000Y-60071000D01*
X61455000Y-28448000D02*
X62725000Y-27178000D01*
X93188000Y-43066000D02*
X90678000Y-43066000D01*
X76283000Y-65488000D02*
X74676000Y-63881000D01*
X99728500Y-39295000D02*
X103334000Y-39295000D01*
X99695000Y-41402000D02*
X103378000Y-41402000D01*
X70021000Y-41034000D02*
X70021000Y-40386000D01*
X61341000Y-28448000D02*
X61341000Y-29096000D01*
X97028000Y-62230000D02*
X97028000Y-59880000D01*
X98806000Y-63604018D02*
X100352982Y-65151000D01*
X89486000Y-43066000D02*
X88802000Y-42382000D01*
X120066000Y-66634000D02*
X114088000Y-66634000D01*
X83647000Y-42337000D02*
X85852000Y-40132000D01*
X84087000Y-33655000D02*
X84087000Y-38367000D01*
X76283000Y-66675000D02*
X76283000Y-65488000D01*
X91173000Y-88138000D02*
X91173000Y-86275000D01*
X88900000Y-46863000D02*
X88900000Y-45085000D01*
X92443000Y-75679000D02*
X93218000Y-76454000D01*
X94488000Y-88125000D02*
X95390000Y-88125000D01*
X108839000Y-42786000D02*
X106851000Y-42786000D01*
X78727000Y-28435000D02*
X78105000Y-27813000D01*
X68105000Y-69469000D02*
X68105000Y-69563000D01*
X105029000Y-39116000D02*
X106162695Y-39116000D01*
X106483000Y-42418000D02*
X104648000Y-42418000D01*
X73188500Y-73082500D02*
X73270500Y-73000500D01*
X84102000Y-33670000D02*
X84087000Y-33655000D01*
X61341000Y-28448000D02*
X61455000Y-28448000D01*
X99186000Y-37080000D02*
X97936000Y-35830000D01*
X60382000Y-40653000D02*
X62370000Y-40653000D01*
X99186000Y-38752500D02*
X99728500Y-39295000D01*
X68383000Y-42672000D02*
X70021000Y-41034000D01*
X93459000Y-79248000D02*
X93459000Y-76695000D01*
X84341000Y-33655000D02*
X84147000Y-33849000D01*
X92837000Y-26670000D02*
X92837000Y-27432000D01*
X106162695Y-39116000D02*
X107327000Y-37951695D01*
X97936000Y-35830000D02*
X97026000Y-35830000D01*
X93967000Y-28562000D02*
X92837000Y-27432000D01*
X80251000Y-65375000D02*
X80251000Y-62865000D01*
X78753000Y-37833000D02*
X78994000Y-37833000D01*
X91173000Y-86275000D02*
X91468000Y-85980000D01*
X93968000Y-84570000D02*
X93218000Y-83820000D01*
X80251000Y-62865000D02*
X80251000Y-60312000D01*
X91968000Y-85980000D02*
X91968000Y-85070000D01*
X94881000Y-38096000D02*
X95147000Y-37830000D01*
X78727000Y-30480000D02*
X78727000Y-28435000D01*
X91968000Y-85070000D02*
X93218000Y-83820000D01*
X107793000Y-44122948D02*
X107793000Y-46620764D01*
X66135000Y-30480000D02*
X66430000Y-30185000D01*
D51*
X107108000Y-51308000D02*
X109267000Y-49149000D01*
D50*
X108204000Y-39116000D02*
X109639000Y-40551000D01*
X95517000Y-30480000D02*
X95517000Y-30594000D01*
X107793000Y-46620764D02*
X107560764Y-46853000D01*
D51*
X103504000Y-34260500D02*
X106323500Y-34260500D01*
X67995000Y-31750000D02*
X66430000Y-30185000D01*
X95517000Y-30480000D02*
X96869000Y-30480000D01*
D50*
X108354948Y-43561000D02*
X107793000Y-44122948D01*
D51*
X118242000Y-49149000D02*
X120066000Y-47325000D01*
D50*
X109639000Y-43245052D02*
X109323052Y-43561000D01*
X86971959Y-31280000D02*
X83273000Y-31280000D01*
D51*
X106172000Y-36177000D02*
X105777000Y-36572000D01*
D50*
X87105959Y-31414000D02*
X86971959Y-31280000D01*
X106323500Y-34260500D02*
X106552000Y-34032000D01*
D51*
X82473000Y-30480000D02*
X82511500Y-30518500D01*
D50*
X108204000Y-38862000D02*
X108204000Y-39116000D01*
D51*
X106552000Y-34032000D02*
X106172000Y-34412000D01*
D50*
X107560764Y-46853000D02*
X106299000Y-46853000D01*
X94717000Y-31280000D02*
X91221689Y-31280000D01*
D51*
X79007000Y-31750000D02*
X67995000Y-31750000D01*
D50*
X109639000Y-40551000D02*
X109639000Y-43245052D01*
X109323052Y-43561000D02*
X108354948Y-43561000D01*
D51*
X106230847Y-38022542D02*
X105777000Y-37568695D01*
D50*
X95517000Y-30480000D02*
X94717000Y-31280000D01*
X106299000Y-46853000D02*
X106299000Y-47535000D01*
D51*
X106172000Y-34412000D02*
X106172000Y-36177000D01*
D50*
X91221689Y-31280000D02*
X91087689Y-31414000D01*
X83273000Y-31280000D02*
X82178000Y-30185000D01*
D51*
X80277000Y-30480000D02*
X79007000Y-31750000D01*
X80277000Y-30480000D02*
X82473000Y-30480000D01*
D50*
X91087689Y-31414000D02*
X87105959Y-31414000D01*
D51*
X96869000Y-30480000D02*
X97418000Y-29931000D01*
X105777000Y-37568695D02*
X105777000Y-36572000D01*
X109267000Y-49149000D02*
X118242000Y-49149000D01*
X103504000Y-34260500D02*
X101747500Y-34260500D01*
X101747500Y-34260500D02*
X97418000Y-29931000D01*
D50*
X64275000Y-30480000D02*
X66135000Y-30480000D01*
X82537000Y-36117000D02*
X82537000Y-33655000D01*
X96393000Y-49614999D02*
X105717001Y-58939000D01*
X83602000Y-37182000D02*
X82537000Y-36117000D01*
X82537000Y-33655000D02*
X82537000Y-33261000D01*
X82537000Y-33261000D02*
X81788000Y-32512000D01*
X109347000Y-60312000D02*
X107974000Y-58939000D01*
X97396000Y-42291000D02*
X95377000Y-42291000D01*
X97396000Y-42291000D02*
X98933000Y-43828000D01*
X98933000Y-43828000D02*
X98933000Y-44297500D01*
X105717001Y-58939000D02*
X106502000Y-58939000D01*
X107974000Y-58939000D02*
X106502000Y-58939000D01*
X96393000Y-45085000D02*
X98145500Y-45085000D01*
X98145500Y-45085000D02*
X98933000Y-44297500D01*
X95377000Y-42291000D02*
X94742000Y-41656000D01*
X96393000Y-45085000D02*
X96393000Y-49614999D01*
X80531000Y-26588000D02*
X80531000Y-26416000D01*
X82178000Y-28235000D02*
X80531000Y-26588000D01*
X65373000Y-27178000D02*
X66430000Y-28235000D01*
X64275000Y-27178000D02*
X65373000Y-27178000D01*
X81801000Y-65375000D02*
X81801000Y-62865000D01*
X82787000Y-64389000D02*
X81801000Y-65375000D01*
X85023000Y-64389000D02*
X82787000Y-64389000D01*
X81928000Y-57277000D02*
X81928000Y-54864000D01*
X85023000Y-58039000D02*
X82690000Y-58039000D01*
X82690000Y-58039000D02*
X81928000Y-57277000D01*
X82902000Y-40882000D02*
X82425518Y-40882000D01*
X78994000Y-39383000D02*
X81153000Y-39383000D01*
X81153000Y-39609482D02*
X81153000Y-39383000D01*
X82425518Y-40882000D02*
X81153000Y-39609482D01*
X88802000Y-41882000D02*
X90312000Y-41882000D01*
X90312000Y-41882000D02*
X90678000Y-41516000D01*
X90678000Y-41516000D02*
X93188000Y-41516000D01*
X69755000Y-69469000D02*
X69755000Y-67295000D01*
X68955500Y-67183000D02*
X69643000Y-67183000D01*
X69755000Y-67295000D02*
X69643000Y-67183000D01*
X54692000Y-71546000D02*
X53422000Y-72816000D01*
X51390000Y-72816000D02*
X50292000Y-73914000D01*
X62330000Y-71546000D02*
X54692000Y-71546000D01*
X67380500Y-67183000D02*
X66693000Y-67183000D01*
X66693000Y-67183000D02*
X62330000Y-71546000D01*
X53422000Y-72816000D02*
X51390000Y-72816000D01*
X105998000Y-74168000D02*
X105998000Y-70308000D01*
X103498000Y-74168000D02*
X105998000Y-74168000D01*
X105998000Y-70308000D02*
X105540000Y-69850000D01*
D51*
X77988500Y-76951500D02*
X75946000Y-78994000D01*
X75946000Y-78994000D02*
X71034500Y-78994000D01*
X71034500Y-78994000D02*
X69994000Y-77953500D01*
D50*
X69234000Y-39179999D02*
X69234000Y-37858500D01*
X67678000Y-39751000D02*
X68662999Y-39751000D01*
X69234000Y-37858500D02*
X70034000Y-37058500D01*
X68662999Y-39751000D02*
X69234000Y-39179999D01*
X99733000Y-44513001D02*
X99733000Y-45072500D01*
X99733000Y-45072500D02*
X98933000Y-45872500D01*
X101543000Y-43688000D02*
X100558001Y-43688000D01*
X100558001Y-43688000D02*
X99733000Y-44513001D01*
X94968000Y-85980000D02*
X94468000Y-85980000D01*
X91719500Y-79248000D02*
X92968000Y-80496500D01*
X96012000Y-80518000D02*
X95885000Y-80391000D01*
X92968000Y-80496500D02*
X92968000Y-81660000D01*
X93468000Y-81660000D02*
X92968000Y-81660000D01*
X96012000Y-84936000D02*
X96012000Y-81026000D01*
X94968000Y-85980000D02*
X96012000Y-84936000D01*
X96012000Y-81026000D02*
X96012000Y-80518000D01*
X101346000Y-37330000D02*
X101346000Y-36830000D01*
X103907500Y-35835500D02*
X104648000Y-36576000D01*
X97026000Y-38830000D02*
X98216000Y-40020000D01*
X98216000Y-40020000D02*
X102108000Y-40020000D01*
X102509500Y-36830000D02*
X101346000Y-36830000D01*
X97026000Y-38330000D02*
X97026000Y-38830000D01*
X103504000Y-35835500D02*
X102509500Y-36830000D01*
X103504000Y-35835500D02*
X103907500Y-35835500D01*
D51*
X58889750Y-46647250D02*
X58889750Y-45466000D01*
X55626000Y-49911000D02*
X58889750Y-46647250D01*
D52*
X106426000Y-30734000D02*
X110503025Y-26656975D01*
X110503025Y-26656975D02*
X110503025Y-26148975D01*
X117246500Y-22606000D02*
X113204000Y-22606000D01*
X122911000Y-29375000D02*
X122911000Y-28270500D01*
X122911000Y-28270500D02*
X117246500Y-22606000D01*
X101718000Y-29931000D02*
X102575000Y-29931000D01*
X103378000Y-30734000D02*
X106426000Y-30734000D01*
X102575000Y-29931000D02*
X103378000Y-30734000D01*
D50*
X105918000Y-29781000D02*
X103886000Y-29781000D01*
X103386000Y-29281000D02*
X103886000Y-29781000D01*
X101718000Y-29281000D02*
X103386000Y-29281000D01*
X103386000Y-28631000D02*
X103886000Y-28131000D01*
X103886000Y-28131000D02*
X105918000Y-28131000D01*
X101718000Y-28631000D02*
X103386000Y-28631000D01*
D52*
X120066000Y-28016000D02*
X116114000Y-28016000D01*
X116114000Y-28016000D02*
X110704000Y-22606000D01*
X103599000Y-26100000D02*
X108204000Y-26100000D01*
X101718000Y-27981000D02*
X103599000Y-26100000D01*
D50*
X80772000Y-28702000D02*
X80955000Y-28885000D01*
X95687000Y-28631000D02*
X97418000Y-28631000D01*
X68678866Y-28885000D02*
X70674341Y-26889525D01*
X70674341Y-26889525D02*
X71085525Y-26889525D01*
X66478000Y-31496000D02*
X65278000Y-31496000D01*
X82178000Y-28885000D02*
X84426866Y-28885000D01*
X70034000Y-38849000D02*
X71571000Y-40386000D01*
X64011217Y-29405230D02*
X64531447Y-28885000D01*
X95504000Y-28448000D02*
X95687000Y-28631000D01*
X72828000Y-37846000D02*
X66478000Y-31496000D01*
X70034000Y-38633500D02*
X70034000Y-38849000D01*
X84426866Y-28885000D02*
X86422341Y-26889525D01*
X66430000Y-28885000D02*
X68678866Y-28885000D01*
X72828000Y-37846000D02*
X70821500Y-37846000D01*
X86422341Y-26889525D02*
X86833525Y-26889525D01*
X64531447Y-28885000D02*
X66430000Y-28885000D01*
X70821500Y-37846000D02*
X70034000Y-38633500D01*
X80955000Y-28885000D02*
X82178000Y-28885000D01*
X87630000Y-32258000D02*
X86102000Y-33786000D01*
X86102000Y-33786000D02*
X86102000Y-37182000D01*
X94592396Y-32041000D02*
X94375396Y-32258000D01*
X94996000Y-32041000D02*
X94592396Y-32041000D01*
X98478000Y-29589866D02*
X98169134Y-29281000D01*
X98169134Y-29281000D02*
X97418000Y-29281000D01*
X98478000Y-29644000D02*
X98478000Y-29589866D01*
X94375396Y-32258000D02*
X87630000Y-32258000D01*
X99060000Y-30226000D02*
X98478000Y-29644000D01*
X100762000Y-58289000D02*
X100762000Y-57836000D01*
X100762000Y-57836000D02*
X100584000Y-57658000D01*
X101780092Y-59589000D02*
X102130731Y-59939639D01*
X100762000Y-59589000D02*
X101780092Y-59589000D01*
X119313000Y-59738000D02*
X122911000Y-59738000D01*
X108015347Y-60005653D02*
X107598694Y-59589000D01*
X112108000Y-54897000D02*
X112108000Y-51308000D01*
X109029500Y-57975500D02*
X112108000Y-54897000D01*
X112108000Y-52533000D02*
X119313000Y-59738000D01*
X107598694Y-59589000D02*
X106502000Y-59589000D01*
X112108000Y-51308000D02*
X112108000Y-52533000D01*
X110908000Y-50008000D02*
X109608000Y-51308000D01*
X106502000Y-58289000D02*
X109608000Y-55183000D01*
X109608000Y-55183000D02*
X109608000Y-51308000D01*
X120066000Y-58359000D02*
X120066000Y-57254500D01*
X120066000Y-57254500D02*
X112819500Y-50008000D01*
X112819500Y-50008000D02*
X110908000Y-50008000D01*
D52*
X90911648Y-30989000D02*
X91694000Y-30206648D01*
X118110000Y-28575000D02*
X115951000Y-28575000D01*
X115951000Y-28575000D02*
X111379000Y-24003000D01*
X97790000Y-20320000D02*
X105918000Y-20320000D01*
X87282000Y-30989000D02*
X90911648Y-30989000D01*
X91694000Y-30206648D02*
X91694000Y-25654000D01*
X109601000Y-24003000D02*
X108204000Y-22606000D01*
X120997118Y-29337000D02*
X118872000Y-29337000D01*
X118872000Y-29337000D02*
X118110000Y-28575000D01*
X122911000Y-32154000D02*
X122911000Y-31250882D01*
X105918000Y-20320000D02*
X108204000Y-22606000D01*
X96266000Y-21844000D02*
X97790000Y-20320000D01*
X111379000Y-24003000D02*
X109601000Y-24003000D01*
X122911000Y-31250882D02*
X120997118Y-29337000D01*
X86478000Y-30185000D02*
X87282000Y-30989000D01*
X91694000Y-25654000D02*
X93218000Y-24130000D01*
D50*
X88646000Y-30289000D02*
X90424000Y-30289000D01*
X87892000Y-29535000D02*
X88646000Y-30289000D01*
X86478000Y-29535000D02*
X87892000Y-29535000D01*
X86478000Y-28885000D02*
X88400000Y-28885000D01*
X88400000Y-28885000D02*
X88646000Y-28639000D01*
X88646000Y-28639000D02*
X90424000Y-28639000D01*
D52*
X86478000Y-28235000D02*
X90772000Y-23941000D01*
X90772000Y-23941000D02*
X90932000Y-23941000D01*
X111125000Y-24511000D02*
X107609000Y-24511000D01*
X119656000Y-30775000D02*
X117856000Y-28975000D01*
X115589000Y-28975000D02*
X111125000Y-24511000D01*
X117856000Y-28975000D02*
X115589000Y-28975000D01*
X107609000Y-24511000D02*
X105704000Y-22606000D01*
X120066000Y-30775000D02*
X119656000Y-30775000D01*
D50*
X85344000Y-33274000D02*
X84545000Y-32475000D01*
X83510615Y-29945652D02*
X83099963Y-29535000D01*
X85602000Y-35827199D02*
X85344000Y-35569199D01*
X85344000Y-35569199D02*
X85344000Y-33274000D01*
X84545000Y-32475000D02*
X83953331Y-32475000D01*
X85602000Y-37182000D02*
X85602000Y-35827199D01*
X83099963Y-29535000D02*
X82178000Y-29535000D01*
D52*
X99187000Y-23241000D02*
X100584000Y-24638000D01*
X121010000Y-31856000D02*
X119618235Y-31856000D01*
X75946000Y-26035000D02*
X78740000Y-23241000D01*
X71534000Y-30989000D02*
X75818000Y-30989000D01*
X75946000Y-30861000D02*
X75946000Y-26035000D01*
X117137235Y-29375000D02*
X115423314Y-29375000D01*
X105509000Y-24911000D02*
X103204000Y-22606000D01*
X75818000Y-30989000D02*
X75946000Y-30861000D01*
X119618235Y-31856000D02*
X117137235Y-29375000D01*
X122911000Y-34912000D02*
X122911000Y-33757000D01*
X110959314Y-24911000D02*
X105509000Y-24911000D01*
X70730000Y-30185000D02*
X71534000Y-30989000D01*
X122911000Y-33757000D02*
X121010000Y-31856000D01*
X115423314Y-29375000D02*
X110959314Y-24911000D01*
X78740000Y-23241000D02*
X99187000Y-23241000D01*
D50*
X70730000Y-29535000D02*
X72144000Y-29535000D01*
X72898000Y-30289000D02*
X74930000Y-30289000D01*
X72144000Y-29535000D02*
X72898000Y-30289000D01*
X72898000Y-28639000D02*
X74930000Y-28639000D01*
X72652000Y-28885000D02*
X72898000Y-28639000D01*
X70730000Y-28885000D02*
X72652000Y-28885000D01*
D52*
X100704000Y-22606000D02*
X76359000Y-22606000D01*
X76359000Y-22606000D02*
X70730000Y-28235000D01*
X116378000Y-29845000D02*
X115189000Y-29845000D01*
X115189000Y-29845000D02*
X110744000Y-25400000D01*
X120066000Y-33533000D02*
X116378000Y-29845000D01*
X110744000Y-25400000D02*
X102616000Y-25400000D01*
X100704000Y-23488000D02*
X100704000Y-22606000D01*
X102616000Y-25400000D02*
X100704000Y-23488000D01*
D50*
X80772000Y-33020000D02*
X81534000Y-33782000D01*
X68126134Y-30480000D02*
X67181134Y-29535000D01*
X84840101Y-36192679D02*
X85102000Y-36454578D01*
X85102000Y-36454578D02*
X85102000Y-37182000D01*
X70104000Y-33020000D02*
X80772000Y-33020000D01*
X68834000Y-30480000D02*
X68126134Y-30480000D01*
X81534000Y-33782000D02*
X81534000Y-36068000D01*
X67181134Y-29535000D02*
X66430000Y-29535000D01*
X52832000Y-45466000D02*
X52832000Y-49657000D01*
X64036000Y-43606000D02*
X64626000Y-44196000D01*
X54692000Y-43606000D02*
X64036000Y-43606000D01*
X64626000Y-44196000D02*
X84464482Y-44196000D01*
X52832000Y-45466000D02*
X54692000Y-43606000D01*
X84464482Y-44196000D02*
X85102000Y-43558482D01*
X85102000Y-43558482D02*
X85102000Y-43082000D01*
X52832000Y-49657000D02*
X55626000Y-52451000D01*
X84375878Y-44921000D02*
X85602000Y-43694878D01*
X55626000Y-54991000D02*
X52705000Y-54991000D01*
X85602000Y-43694878D02*
X85602000Y-43082000D01*
X52705000Y-54991000D02*
X51562000Y-56134000D01*
X82804000Y-44921000D02*
X84375878Y-44921000D01*
X77978000Y-47027000D02*
X77978000Y-49611412D01*
X56133412Y-53676000D02*
X41611000Y-53676000D01*
X86102000Y-43082000D02*
X86102000Y-44220184D01*
X56215412Y-53594000D02*
X56133412Y-53676000D01*
X79248000Y-45757000D02*
X77978000Y-47027000D01*
X73995412Y-53594000D02*
X56215412Y-53594000D01*
X77978000Y-49611412D02*
X73995412Y-53594000D01*
X41611000Y-53676000D02*
X40386000Y-52451000D01*
X86102000Y-44220184D02*
X85608092Y-44714092D01*
X85553498Y-46328000D02*
X86335000Y-45546498D01*
X84328000Y-46328000D02*
X85553498Y-46328000D01*
X86335000Y-45546498D02*
X86335000Y-44979996D01*
X86335000Y-44979996D02*
X86602000Y-44712996D01*
X86602000Y-44712996D02*
X86602000Y-43082000D01*
X87102000Y-43899000D02*
X87102000Y-43082000D01*
X86788052Y-46053948D02*
X78232000Y-54610000D01*
X87135000Y-45771751D02*
X87135000Y-45403000D01*
X87102000Y-43899000D02*
X87122000Y-43919000D01*
X87122000Y-43919000D02*
X87122000Y-45022000D01*
X86852803Y-46053948D02*
X86788052Y-46053948D01*
X86852803Y-46053948D02*
X87135000Y-45771751D01*
X101600000Y-30988000D02*
X101854000Y-31242000D01*
X120066000Y-36292000D02*
X115778000Y-32004000D01*
X86602000Y-34048000D02*
X86602000Y-37182000D01*
X101854000Y-31242000D02*
X110998000Y-31242000D01*
X111760000Y-32004000D02*
X113030000Y-32004000D01*
X110998000Y-31242000D02*
X111760000Y-32004000D01*
X97282000Y-31750000D02*
X96266000Y-32766000D01*
X87884000Y-32766000D02*
X86602000Y-34048000D01*
X115778000Y-32004000D02*
X113030000Y-32004000D01*
X96266000Y-32766000D02*
X87884000Y-32766000D01*
X99060000Y-33020000D02*
X98806000Y-33274000D01*
X104103000Y-31750000D02*
X110490000Y-31750000D01*
X113030000Y-34290000D02*
X113030000Y-34504000D01*
X116038000Y-34504000D02*
X113030000Y-34504000D01*
X119205000Y-37671000D02*
X116038000Y-34504000D01*
X88138000Y-33274000D02*
X87102000Y-34310000D01*
X110490000Y-31750000D02*
X113030000Y-34290000D01*
X98806000Y-33274000D02*
X88138000Y-33274000D01*
X122911000Y-37671000D02*
X119205000Y-37671000D01*
X87102000Y-34310000D02*
X87102000Y-37182000D01*
X103886000Y-31967000D02*
X104103000Y-31750000D01*
X111586000Y-35560000D02*
X113030000Y-37004000D01*
X115617000Y-37004000D02*
X113030000Y-37004000D01*
X120066000Y-39050000D02*
X117663000Y-39050000D01*
X88422000Y-33752000D02*
X87602000Y-34572000D01*
X87602000Y-34572000D02*
X87602000Y-37182000D01*
X100564554Y-34596488D02*
X98858488Y-34596488D01*
X117663000Y-39050000D02*
X115617000Y-37004000D01*
X98014000Y-33752000D02*
X88422000Y-33752000D01*
X108204000Y-35560000D02*
X111586000Y-35560000D01*
X98858488Y-34596488D02*
X98014000Y-33752000D01*
X88608739Y-36675261D02*
X93624317Y-36675261D01*
X113955000Y-40429000D02*
X113030000Y-39504000D01*
X88102000Y-37182000D02*
X88608739Y-36675261D01*
X122911000Y-40429000D02*
X113955000Y-40429000D01*
X91857948Y-37882000D02*
X93345948Y-39370000D01*
X88802000Y-37882000D02*
X91857948Y-37882000D01*
X102408305Y-40745000D02*
X102703107Y-40450198D01*
X97895000Y-40745000D02*
X102408305Y-40745000D01*
X97282000Y-40132000D02*
X97895000Y-40745000D01*
X96520000Y-39370000D02*
X97282000Y-40132000D01*
X93345948Y-39370000D02*
X94742000Y-39370000D01*
X113225000Y-41809000D02*
X113030000Y-42004000D01*
X102703107Y-40450198D02*
X107242892Y-40450198D01*
X107242892Y-40450198D02*
X107945347Y-41152653D01*
X94742000Y-39370000D02*
X96520000Y-39370000D01*
X120066000Y-41809000D02*
X113225000Y-41809000D01*
X122911000Y-43188000D02*
X114346000Y-43188000D01*
X91215000Y-38382000D02*
X91440000Y-38607000D01*
X88802000Y-38382000D02*
X91215000Y-38382000D01*
X114346000Y-43188000D02*
X113030000Y-44504000D01*
X120066000Y-44567000D02*
X116373000Y-48260000D01*
X88802000Y-38882000D02*
X90689695Y-38882000D01*
X104330500Y-48260000D02*
X102108000Y-50482500D01*
X92452348Y-40644653D02*
X95499347Y-40644653D01*
X102108000Y-50482500D02*
X102108000Y-51308000D01*
X116373000Y-48260000D02*
X104330500Y-48260000D01*
X90689695Y-38882000D02*
X92452348Y-40644653D01*
D52*
X96971000Y-70415000D02*
X98044000Y-69342000D01*
X109220000Y-78994000D02*
X109220000Y-79756000D01*
X122911000Y-68224000D02*
X122911000Y-68014000D01*
X119889000Y-70612000D02*
X120523000Y-70612000D01*
X113031000Y-77470000D02*
X110744000Y-77470000D01*
X52576000Y-74041000D02*
X71240050Y-74041000D01*
X110744000Y-77470000D02*
X109220000Y-78994000D01*
X71240050Y-74041000D02*
X74866050Y-70415000D01*
X120523000Y-70612000D02*
X122911000Y-68224000D01*
X119889000Y-70612000D02*
X113031000Y-77470000D01*
X74866050Y-70415000D02*
X96971000Y-70415000D01*
X111033000Y-75443000D02*
X106720000Y-79756000D01*
X114016000Y-75443000D02*
X111033000Y-75443000D01*
X120066000Y-69393000D02*
X119583000Y-69393000D01*
X120066000Y-69393000D02*
X114016000Y-75443000D01*
X120904000Y-67818000D02*
X121412000Y-68326000D01*
X117856000Y-67818000D02*
X120904000Y-67818000D01*
X96266000Y-60960000D02*
X94615000Y-59309000D01*
X104434000Y-82891000D02*
X105283000Y-82042000D01*
X114046000Y-82042000D02*
X120097000Y-75991000D01*
X94615000Y-59309000D02*
X93793000Y-59309000D01*
X122911000Y-73685000D02*
X122911000Y-73531000D01*
X104434000Y-86060000D02*
X104434000Y-82891000D01*
X105283000Y-82042000D02*
X114046000Y-82042000D01*
X120605000Y-75991000D02*
X122911000Y-73685000D01*
X120097000Y-75991000D02*
X120605000Y-75991000D01*
X120066000Y-74910000D02*
X113442000Y-81534000D01*
X113442000Y-81534000D02*
X104013000Y-81534000D01*
X104013000Y-81534000D02*
X101934000Y-83613000D01*
X97155000Y-56769000D02*
X97282000Y-56642000D01*
X101934000Y-83613000D02*
X101934000Y-86060000D01*
X93793000Y-56769000D02*
X97155000Y-56769000D01*
X116738500Y-83566000D02*
X122911000Y-77393500D01*
X111928000Y-83566000D02*
X116738500Y-83566000D01*
X96206000Y-68072000D02*
X103124000Y-68072000D01*
X122911000Y-77393500D02*
X122911000Y-76289000D01*
X93793000Y-65659000D02*
X96206000Y-68072000D01*
X109434000Y-86060000D02*
X111928000Y-83566000D01*
X120066000Y-77668000D02*
X115057000Y-82677000D01*
X97284000Y-63774352D02*
X96628648Y-63119000D01*
X115057000Y-82677000D02*
X107823000Y-82677000D01*
X100838000Y-67056000D02*
X100653653Y-67240347D01*
X100653653Y-67240347D02*
X100024699Y-67240347D01*
X106934000Y-83566000D02*
X106934000Y-86060000D01*
X96628648Y-63119000D02*
X93793000Y-63119000D01*
X100024699Y-67240347D02*
X97284000Y-64499648D01*
X97284000Y-64499648D02*
X97284000Y-63774352D01*
X107823000Y-82677000D02*
X106934000Y-83566000D01*
D51*
X112562000Y-65238000D02*
X112984000Y-65238000D01*
D50*
X91694000Y-77698500D02*
X91694000Y-77229000D01*
D51*
X93472000Y-72136000D02*
X101092000Y-72136000D01*
D50*
X113001000Y-65255000D02*
X112984000Y-65238000D01*
D51*
X122911000Y-65255000D02*
X113001000Y-65255000D01*
D50*
X89929000Y-77229000D02*
X89154000Y-76454000D01*
D51*
X89154000Y-76454000D02*
X93472000Y-72136000D01*
X101092000Y-72136000D02*
X101346000Y-72390000D01*
X90144500Y-79248000D02*
X91694000Y-77698500D01*
X108204000Y-69596000D02*
X112562000Y-65238000D01*
X91694000Y-77229000D02*
X89929000Y-77229000D01*
D50*
X93793000Y-64389000D02*
X96457000Y-64389000D01*
X96457000Y-64389000D02*
X96584000Y-64262000D01*
X93920000Y-58166000D02*
X93793000Y-58039000D01*
X97092000Y-58166000D02*
X93920000Y-58166000D01*
D52*
X44036000Y-73701000D02*
X42836000Y-72501000D01*
X57093000Y-63811000D02*
X55268943Y-63811000D01*
X47457000Y-73701000D02*
X44036000Y-73701000D01*
X55268943Y-63811000D02*
X48036000Y-71043943D01*
X82804000Y-56134000D02*
X84388000Y-56134000D01*
X84388000Y-56134000D02*
X85023000Y-56769000D01*
X57912000Y-62992000D02*
X57093000Y-63811000D01*
X48036000Y-71043943D02*
X48036000Y-73122000D01*
X76454000Y-56134000D02*
X71723070Y-56134000D01*
X48036000Y-73122000D02*
X47457000Y-73701000D01*
X71723070Y-56134000D02*
X66556000Y-61301070D01*
X58363000Y-58731000D02*
X54606000Y-58731000D01*
X81230000Y-59309000D02*
X81103000Y-59182000D01*
X54606000Y-58731000D02*
X42836000Y-70501000D01*
X85023000Y-59309000D02*
X81230000Y-59309000D01*
X78232000Y-56922050D02*
X76681950Y-55372000D01*
X78232000Y-58420000D02*
X78232000Y-56922050D01*
X76681950Y-55372000D02*
X61722000Y-55372000D01*
X61722000Y-55372000D02*
X58363000Y-58731000D01*
X85023000Y-63119000D02*
X83693000Y-63119000D01*
X54413000Y-61411000D02*
X46836000Y-68988000D01*
X83693000Y-63119000D02*
X82042000Y-61468000D01*
X46836000Y-68988000D02*
X46836000Y-70501000D01*
X57715000Y-61411000D02*
X54413000Y-61411000D01*
X57912000Y-61214000D02*
X57715000Y-61411000D01*
X82804000Y-67056000D02*
X83626000Y-67056000D01*
X82550000Y-67310000D02*
X82804000Y-67056000D01*
X83626000Y-67056000D02*
X85023000Y-65659000D01*
M02*
