G04 #@! TF.GenerationSoftware,KiCad,Pcbnew,7.0.10*
G04 #@! TF.CreationDate,2024-12-23T10:16:03-08:00*
G04 #@! TF.ProjectId,usb_c_daughter,7573625f-635f-4646-9175-67687465722e,1*
G04 #@! TF.SameCoordinates,Original*
G04 #@! TF.FileFunction,Copper,L2,Bot*
G04 #@! TF.FilePolarity,Positive*
%FSLAX46Y46*%
G04 Gerber Fmt 4.6, Leading zero omitted, Abs format (unit mm)*
G04 Created by KiCad (PCBNEW 7.0.10) date 2024-12-23 10:16:03*
%MOMM*%
%LPD*%
G01*
G04 APERTURE LIST*
G04 #@! TA.AperFunction,ComponentPad*
%ADD10R,1.700000X1.700000*%
G04 #@! TD*
G04 #@! TA.AperFunction,ComponentPad*
%ADD11O,1.700000X1.700000*%
G04 #@! TD*
G04 #@! TA.AperFunction,ViaPad*
%ADD12C,0.600000*%
G04 #@! TD*
G04 APERTURE END LIST*
D10*
X1500000Y-1500000D03*
D11*
X4040000Y-1500000D03*
X6580000Y-1500000D03*
D10*
X1500000Y-15500000D03*
D11*
X4040000Y-15500000D03*
X6580000Y-15500000D03*
D12*
X6000000Y-6760000D03*
X6010000Y-10260000D03*
X2180000Y-13050000D03*
X5870000Y-11750000D03*
X4250000Y-9770000D03*
X1340000Y-12700000D03*
X4240000Y-7230000D03*
X5920000Y-5140000D03*
X2320000Y-3940000D03*
X1260000Y-4260000D03*
G04 #@! TA.AperFunction,Conductor*
G36*
X7957405Y-2134485D02*
G01*
X7994736Y-2193546D01*
X7999500Y-2227585D01*
X7999500Y-14772414D01*
X7979815Y-14839453D01*
X7927011Y-14885208D01*
X7857853Y-14895152D01*
X7794297Y-14866127D01*
X7771692Y-14840236D01*
X7655723Y-14662734D01*
X7655715Y-14662723D01*
X7503243Y-14497097D01*
X7503238Y-14497092D01*
X7325577Y-14358812D01*
X7325572Y-14358808D01*
X7127580Y-14251661D01*
X7127577Y-14251659D01*
X7127574Y-14251658D01*
X7127571Y-14251657D01*
X7127569Y-14251656D01*
X6914637Y-14178556D01*
X6692569Y-14141500D01*
X6467431Y-14141500D01*
X6245362Y-14178556D01*
X6032430Y-14251656D01*
X6032419Y-14251661D01*
X5834427Y-14358808D01*
X5834422Y-14358812D01*
X5656761Y-14497092D01*
X5656756Y-14497097D01*
X5504284Y-14662723D01*
X5504276Y-14662734D01*
X5381140Y-14851207D01*
X5290703Y-15057385D01*
X5235436Y-15275628D01*
X5235434Y-15275640D01*
X5216844Y-15499994D01*
X5216844Y-15500005D01*
X5235434Y-15724359D01*
X5235436Y-15724371D01*
X5290703Y-15942614D01*
X5381140Y-16148792D01*
X5504276Y-16337265D01*
X5504284Y-16337276D01*
X5656756Y-16502902D01*
X5656760Y-16502906D01*
X5834424Y-16641189D01*
X5834425Y-16641189D01*
X5834427Y-16641191D01*
X5961135Y-16709761D01*
X6032426Y-16748342D01*
X6057190Y-16756843D01*
X6114204Y-16797227D01*
X6140335Y-16862026D01*
X6127285Y-16930666D01*
X6079197Y-16981355D01*
X6025042Y-16997858D01*
X6009617Y-16998869D01*
X6004054Y-16999234D01*
X5995947Y-16999500D01*
X2703451Y-16999500D01*
X2636412Y-16979815D01*
X2590657Y-16927011D01*
X2580713Y-16857853D01*
X2609738Y-16794297D01*
X2629140Y-16776233D01*
X2713261Y-16713261D01*
X2800889Y-16596204D01*
X2851989Y-16459201D01*
X2855591Y-16425692D01*
X2858499Y-16398654D01*
X2858500Y-16398637D01*
X2858500Y-14601362D01*
X2858499Y-14601345D01*
X2855157Y-14570270D01*
X2851989Y-14540799D01*
X2800889Y-14403796D01*
X2713261Y-14286739D01*
X2596204Y-14199111D01*
X2459203Y-14148011D01*
X2398654Y-14141500D01*
X2398638Y-14141500D01*
X601362Y-14141500D01*
X601345Y-14141500D01*
X540797Y-14148011D01*
X540795Y-14148011D01*
X403795Y-14199111D01*
X333770Y-14251531D01*
X286739Y-14286739D01*
X286738Y-14286740D01*
X286737Y-14286741D01*
X223766Y-14370859D01*
X167832Y-14412730D01*
X98141Y-14417714D01*
X36818Y-14384228D01*
X3334Y-14322905D01*
X500Y-14296548D01*
X500Y-2703451D01*
X20185Y-2636412D01*
X72989Y-2590657D01*
X142147Y-2580713D01*
X205703Y-2609738D01*
X223765Y-2629138D01*
X286739Y-2713261D01*
X403796Y-2800889D01*
X540799Y-2851989D01*
X568050Y-2854918D01*
X601345Y-2858499D01*
X601362Y-2858500D01*
X2398638Y-2858500D01*
X2398654Y-2858499D01*
X2425692Y-2855591D01*
X2459201Y-2851989D01*
X2596204Y-2800889D01*
X2713261Y-2713261D01*
X2800889Y-2596204D01*
X2846138Y-2474887D01*
X2888009Y-2418956D01*
X2953474Y-2394539D01*
X3021746Y-2409391D01*
X3053545Y-2434236D01*
X3116760Y-2502906D01*
X3294424Y-2641189D01*
X3294425Y-2641189D01*
X3294427Y-2641191D01*
X3409474Y-2703451D01*
X3492426Y-2748342D01*
X3705365Y-2821444D01*
X3927431Y-2858500D01*
X4152569Y-2858500D01*
X4374635Y-2821444D01*
X4587574Y-2748342D01*
X4785576Y-2641189D01*
X4963240Y-2502906D01*
X5115722Y-2337268D01*
X5206193Y-2198790D01*
X5259338Y-2153437D01*
X5328569Y-2144013D01*
X5391905Y-2173515D01*
X5413804Y-2198787D01*
X5504278Y-2337268D01*
X5504283Y-2337273D01*
X5504284Y-2337276D01*
X5616526Y-2459201D01*
X5656760Y-2502906D01*
X5834424Y-2641189D01*
X5834425Y-2641189D01*
X5834427Y-2641191D01*
X5949474Y-2703451D01*
X6032426Y-2748342D01*
X6245365Y-2821444D01*
X6467431Y-2858500D01*
X6692569Y-2858500D01*
X6914635Y-2821444D01*
X7127574Y-2748342D01*
X7325576Y-2641189D01*
X7503240Y-2502906D01*
X7655722Y-2337268D01*
X7771692Y-2159761D01*
X7824838Y-2114407D01*
X7894069Y-2104983D01*
X7957405Y-2134485D01*
G37*
G04 #@! TD.AperFunction*
M02*
