%TF.GenerationSoftware,KiCad,Pcbnew,8.0.4*%
%TF.CreationDate,2025-05-14T20:25:45-04:00*%
%TF.ProjectId,usb_c_daughter,7573625f-635f-4646-9175-67687465722e,1*%
%TF.SameCoordinates,Original*%
%TF.FileFunction,Drillmap*%
%TF.FilePolarity,Positive*%
%FSLAX45Y45*%
G04 Gerber Fmt 4.5, Leading zero omitted, Abs format (unit mm)*
G04 Created by KiCad (PCBNEW 8.0.4) date 2025-05-14 20:25:45*
%MOMM*%
%LPD*%
G01*
G04 APERTURE LIST*
%ADD10C,0.010000*%
%ADD11C,0.200000*%
%ADD12C,0.100000*%
G04 APERTURE END LIST*
D10*
X800000Y-1000000D02*
X1000000Y-1000000D01*
X800000Y-650000D02*
X1000000Y-650000D01*
X800000Y-1475000D02*
X800000Y-1000000D01*
X800000Y-225000D02*
X800000Y-650000D01*
X724732Y-150000D02*
G75*
G02*
X800000Y-225000I267J-75001D01*
G01*
X75000Y-1550000D02*
G75*
G02*
X0Y-1475000I0J75000D01*
G01*
X354000Y-1550000D02*
G75*
G02*
X454000Y-1550000I50000J0D01*
G01*
X100000Y-1550000D02*
X75000Y-1550000D01*
X1000000Y-650000D02*
X1000000Y-1000000D01*
X708000Y-1550000D02*
X720267Y-1550000D01*
X100000Y-150000D02*
X75000Y-150000D01*
X454000Y-150000D02*
X608000Y-150000D01*
X708000Y-150000D02*
G75*
G02*
X608000Y-150000I-50000J0D01*
G01*
X454000Y-1550000D02*
X608000Y-1550000D01*
X0Y-1475000D02*
X0Y-225000D01*
X200000Y-150000D02*
X354000Y-150000D01*
X800000Y-1475000D02*
G75*
G02*
X720267Y-1550000I-77499J2508D01*
G01*
X708000Y-150000D02*
X724732Y-150000D01*
X454000Y-150000D02*
G75*
G02*
X354000Y-150000I-50000J0D01*
G01*
X0Y-225000D02*
G75*
G02*
X75000Y-150000I75000J0D01*
G01*
X608000Y-1550000D02*
G75*
G02*
X708000Y-1550000I50000J0D01*
G01*
X200000Y-150000D02*
G75*
G02*
X100000Y-150000I-50000J0D01*
G01*
X354000Y-1550000D02*
X200000Y-1550000D01*
X100000Y-1550000D02*
G75*
G02*
X200000Y-1550000I50000J0D01*
G01*
D11*
D12*
X111000Y-411000D02*
X141000Y-441000D01*
X141000Y-411000D02*
X111000Y-441000D01*
X119000Y-1255000D02*
X149000Y-1285000D01*
X149000Y-1255000D02*
X119000Y-1285000D01*
X203000Y-1290000D02*
X233000Y-1320000D01*
X233000Y-1290000D02*
X203000Y-1320000D01*
X217000Y-379000D02*
X247000Y-409000D01*
X247000Y-379000D02*
X217000Y-409000D01*
X325000Y-555000D02*
X355000Y-585000D01*
X355000Y-555000D02*
X325000Y-585000D01*
X409000Y-708000D02*
X439000Y-738000D01*
X439000Y-708000D02*
X409000Y-738000D01*
X410000Y-962000D02*
X440000Y-992000D01*
X440000Y-962000D02*
X410000Y-992000D01*
X450000Y-1425000D02*
X480000Y-1455000D01*
X480000Y-1425000D02*
X450000Y-1455000D01*
X572000Y-1160000D02*
X602000Y-1190000D01*
X602000Y-1160000D02*
X572000Y-1190000D01*
X577000Y-499000D02*
X607000Y-529000D01*
X607000Y-499000D02*
X577000Y-529000D01*
X585000Y-661000D02*
X615000Y-691000D01*
X615000Y-661000D02*
X585000Y-691000D01*
X586000Y-1011000D02*
X616000Y-1041000D01*
X616000Y-1011000D02*
X586000Y-1041000D01*
D11*
X260277Y-1862016D02*
X260277Y-1662016D01*
X260277Y-1662016D02*
X307896Y-1662016D01*
X307896Y-1662016D02*
X336467Y-1671540D01*
X336467Y-1671540D02*
X355515Y-1690587D01*
X355515Y-1690587D02*
X365039Y-1709635D01*
X365039Y-1709635D02*
X374562Y-1747730D01*
X374562Y-1747730D02*
X374562Y-1776302D01*
X374562Y-1776302D02*
X365039Y-1814397D01*
X365039Y-1814397D02*
X355515Y-1833444D01*
X355515Y-1833444D02*
X336467Y-1852492D01*
X336467Y-1852492D02*
X307896Y-1862016D01*
X307896Y-1862016D02*
X260277Y-1862016D01*
X460277Y-1862016D02*
X460277Y-1728683D01*
X460277Y-1766778D02*
X469801Y-1747730D01*
X469801Y-1747730D02*
X479324Y-1738206D01*
X479324Y-1738206D02*
X498372Y-1728683D01*
X498372Y-1728683D02*
X517420Y-1728683D01*
X584086Y-1862016D02*
X584086Y-1728683D01*
X584086Y-1662016D02*
X574563Y-1671540D01*
X574563Y-1671540D02*
X584086Y-1681064D01*
X584086Y-1681064D02*
X593610Y-1671540D01*
X593610Y-1671540D02*
X584086Y-1662016D01*
X584086Y-1662016D02*
X584086Y-1681064D01*
X707896Y-1862016D02*
X688848Y-1852492D01*
X688848Y-1852492D02*
X679324Y-1833444D01*
X679324Y-1833444D02*
X679324Y-1662016D01*
X812658Y-1862016D02*
X793610Y-1852492D01*
X793610Y-1852492D02*
X784086Y-1833444D01*
X784086Y-1833444D02*
X784086Y-1662016D01*
X1041229Y-1862016D02*
X1041229Y-1662016D01*
X1041229Y-1662016D02*
X1107896Y-1804873D01*
X1107896Y-1804873D02*
X1174563Y-1662016D01*
X1174563Y-1662016D02*
X1174563Y-1862016D01*
X1355515Y-1862016D02*
X1355515Y-1757254D01*
X1355515Y-1757254D02*
X1345991Y-1738206D01*
X1345991Y-1738206D02*
X1326944Y-1728683D01*
X1326944Y-1728683D02*
X1288848Y-1728683D01*
X1288848Y-1728683D02*
X1269801Y-1738206D01*
X1355515Y-1852492D02*
X1336467Y-1862016D01*
X1336467Y-1862016D02*
X1288848Y-1862016D01*
X1288848Y-1862016D02*
X1269801Y-1852492D01*
X1269801Y-1852492D02*
X1260277Y-1833444D01*
X1260277Y-1833444D02*
X1260277Y-1814397D01*
X1260277Y-1814397D02*
X1269801Y-1795349D01*
X1269801Y-1795349D02*
X1288848Y-1785825D01*
X1288848Y-1785825D02*
X1336467Y-1785825D01*
X1336467Y-1785825D02*
X1355515Y-1776302D01*
X1450753Y-1728683D02*
X1450753Y-1928683D01*
X1450753Y-1738206D02*
X1469801Y-1728683D01*
X1469801Y-1728683D02*
X1507896Y-1728683D01*
X1507896Y-1728683D02*
X1526943Y-1738206D01*
X1526943Y-1738206D02*
X1536467Y-1747730D01*
X1536467Y-1747730D02*
X1545991Y-1766778D01*
X1545991Y-1766778D02*
X1545991Y-1823921D01*
X1545991Y-1823921D02*
X1536467Y-1842968D01*
X1536467Y-1842968D02*
X1526943Y-1852492D01*
X1526943Y-1852492D02*
X1507896Y-1862016D01*
X1507896Y-1862016D02*
X1469801Y-1862016D01*
X1469801Y-1862016D02*
X1450753Y-1852492D01*
X1631705Y-1842968D02*
X1641229Y-1852492D01*
X1641229Y-1852492D02*
X1631705Y-1862016D01*
X1631705Y-1862016D02*
X1622182Y-1852492D01*
X1622182Y-1852492D02*
X1631705Y-1842968D01*
X1631705Y-1842968D02*
X1631705Y-1862016D01*
X1631705Y-1738206D02*
X1641229Y-1747730D01*
X1641229Y-1747730D02*
X1631705Y-1757254D01*
X1631705Y-1757254D02*
X1622182Y-1747730D01*
X1622182Y-1747730D02*
X1631705Y-1738206D01*
X1631705Y-1738206D02*
X1631705Y-1757254D01*
D12*
X-30500Y-2175532D02*
X-500Y-2205532D01*
X-500Y-2175532D02*
X-30500Y-2205532D01*
D11*
X298372Y-2082016D02*
X317420Y-2082016D01*
X317420Y-2082016D02*
X336467Y-2091540D01*
X336467Y-2091540D02*
X345991Y-2101064D01*
X345991Y-2101064D02*
X355515Y-2120111D01*
X355515Y-2120111D02*
X365039Y-2158206D01*
X365039Y-2158206D02*
X365039Y-2205826D01*
X365039Y-2205826D02*
X355515Y-2243921D01*
X355515Y-2243921D02*
X345991Y-2262968D01*
X345991Y-2262968D02*
X336467Y-2272492D01*
X336467Y-2272492D02*
X317420Y-2282016D01*
X317420Y-2282016D02*
X298372Y-2282016D01*
X298372Y-2282016D02*
X279324Y-2272492D01*
X279324Y-2272492D02*
X269801Y-2262968D01*
X269801Y-2262968D02*
X260277Y-2243921D01*
X260277Y-2243921D02*
X250753Y-2205826D01*
X250753Y-2205826D02*
X250753Y-2158206D01*
X250753Y-2158206D02*
X260277Y-2120111D01*
X260277Y-2120111D02*
X269801Y-2101064D01*
X269801Y-2101064D02*
X279324Y-2091540D01*
X279324Y-2091540D02*
X298372Y-2082016D01*
X450753Y-2262968D02*
X460277Y-2272492D01*
X460277Y-2272492D02*
X450753Y-2282016D01*
X450753Y-2282016D02*
X441229Y-2272492D01*
X441229Y-2272492D02*
X450753Y-2262968D01*
X450753Y-2262968D02*
X450753Y-2282016D01*
X526944Y-2082016D02*
X650753Y-2082016D01*
X650753Y-2082016D02*
X584086Y-2158206D01*
X584086Y-2158206D02*
X612658Y-2158206D01*
X612658Y-2158206D02*
X631705Y-2167730D01*
X631705Y-2167730D02*
X641229Y-2177254D01*
X641229Y-2177254D02*
X650753Y-2196302D01*
X650753Y-2196302D02*
X650753Y-2243921D01*
X650753Y-2243921D02*
X641229Y-2262968D01*
X641229Y-2262968D02*
X631705Y-2272492D01*
X631705Y-2272492D02*
X612658Y-2282016D01*
X612658Y-2282016D02*
X555515Y-2282016D01*
X555515Y-2282016D02*
X536467Y-2272492D01*
X536467Y-2272492D02*
X526944Y-2262968D01*
X774562Y-2082016D02*
X793610Y-2082016D01*
X793610Y-2082016D02*
X812658Y-2091540D01*
X812658Y-2091540D02*
X822182Y-2101064D01*
X822182Y-2101064D02*
X831705Y-2120111D01*
X831705Y-2120111D02*
X841229Y-2158206D01*
X841229Y-2158206D02*
X841229Y-2205826D01*
X841229Y-2205826D02*
X831705Y-2243921D01*
X831705Y-2243921D02*
X822182Y-2262968D01*
X822182Y-2262968D02*
X812658Y-2272492D01*
X812658Y-2272492D02*
X793610Y-2282016D01*
X793610Y-2282016D02*
X774562Y-2282016D01*
X774562Y-2282016D02*
X755515Y-2272492D01*
X755515Y-2272492D02*
X745991Y-2262968D01*
X745991Y-2262968D02*
X736467Y-2243921D01*
X736467Y-2243921D02*
X726943Y-2205826D01*
X726943Y-2205826D02*
X726943Y-2158206D01*
X726943Y-2158206D02*
X736467Y-2120111D01*
X736467Y-2120111D02*
X745991Y-2101064D01*
X745991Y-2101064D02*
X755515Y-2091540D01*
X755515Y-2091540D02*
X774562Y-2082016D01*
X965039Y-2082016D02*
X984086Y-2082016D01*
X984086Y-2082016D02*
X1003134Y-2091540D01*
X1003134Y-2091540D02*
X1012658Y-2101064D01*
X1012658Y-2101064D02*
X1022182Y-2120111D01*
X1022182Y-2120111D02*
X1031705Y-2158206D01*
X1031705Y-2158206D02*
X1031705Y-2205826D01*
X1031705Y-2205826D02*
X1022182Y-2243921D01*
X1022182Y-2243921D02*
X1012658Y-2262968D01*
X1012658Y-2262968D02*
X1003134Y-2272492D01*
X1003134Y-2272492D02*
X984086Y-2282016D01*
X984086Y-2282016D02*
X965039Y-2282016D01*
X965039Y-2282016D02*
X945991Y-2272492D01*
X945991Y-2272492D02*
X936467Y-2262968D01*
X936467Y-2262968D02*
X926943Y-2243921D01*
X926943Y-2243921D02*
X917420Y-2205826D01*
X917420Y-2205826D02*
X917420Y-2158206D01*
X917420Y-2158206D02*
X926943Y-2120111D01*
X926943Y-2120111D02*
X936467Y-2101064D01*
X936467Y-2101064D02*
X945991Y-2091540D01*
X945991Y-2091540D02*
X965039Y-2082016D01*
X1117420Y-2282016D02*
X1117420Y-2148683D01*
X1117420Y-2167730D02*
X1126944Y-2158206D01*
X1126944Y-2158206D02*
X1145991Y-2148683D01*
X1145991Y-2148683D02*
X1174563Y-2148683D01*
X1174563Y-2148683D02*
X1193610Y-2158206D01*
X1193610Y-2158206D02*
X1203134Y-2177254D01*
X1203134Y-2177254D02*
X1203134Y-2282016D01*
X1203134Y-2177254D02*
X1212658Y-2158206D01*
X1212658Y-2158206D02*
X1231705Y-2148683D01*
X1231705Y-2148683D02*
X1260277Y-2148683D01*
X1260277Y-2148683D02*
X1279325Y-2158206D01*
X1279325Y-2158206D02*
X1288848Y-2177254D01*
X1288848Y-2177254D02*
X1288848Y-2282016D01*
X1384086Y-2282016D02*
X1384086Y-2148683D01*
X1384086Y-2167730D02*
X1393610Y-2158206D01*
X1393610Y-2158206D02*
X1412658Y-2148683D01*
X1412658Y-2148683D02*
X1441229Y-2148683D01*
X1441229Y-2148683D02*
X1460277Y-2158206D01*
X1460277Y-2158206D02*
X1469801Y-2177254D01*
X1469801Y-2177254D02*
X1469801Y-2282016D01*
X1469801Y-2177254D02*
X1479324Y-2158206D01*
X1479324Y-2158206D02*
X1498372Y-2148683D01*
X1498372Y-2148683D02*
X1526943Y-2148683D01*
X1526943Y-2148683D02*
X1545991Y-2158206D01*
X1545991Y-2158206D02*
X1555515Y-2177254D01*
X1555515Y-2177254D02*
X1555515Y-2282016D01*
X1945991Y-2072492D02*
X1774563Y-2329635D01*
X2203134Y-2082016D02*
X2222182Y-2082016D01*
X2222182Y-2082016D02*
X2241229Y-2091540D01*
X2241229Y-2091540D02*
X2250753Y-2101064D01*
X2250753Y-2101064D02*
X2260277Y-2120111D01*
X2260277Y-2120111D02*
X2269801Y-2158206D01*
X2269801Y-2158206D02*
X2269801Y-2205826D01*
X2269801Y-2205826D02*
X2260277Y-2243921D01*
X2260277Y-2243921D02*
X2250753Y-2262968D01*
X2250753Y-2262968D02*
X2241229Y-2272492D01*
X2241229Y-2272492D02*
X2222182Y-2282016D01*
X2222182Y-2282016D02*
X2203134Y-2282016D01*
X2203134Y-2282016D02*
X2184087Y-2272492D01*
X2184087Y-2272492D02*
X2174563Y-2262968D01*
X2174563Y-2262968D02*
X2165039Y-2243921D01*
X2165039Y-2243921D02*
X2155515Y-2205826D01*
X2155515Y-2205826D02*
X2155515Y-2158206D01*
X2155515Y-2158206D02*
X2165039Y-2120111D01*
X2165039Y-2120111D02*
X2174563Y-2101064D01*
X2174563Y-2101064D02*
X2184087Y-2091540D01*
X2184087Y-2091540D02*
X2203134Y-2082016D01*
X2355515Y-2262968D02*
X2365039Y-2272492D01*
X2365039Y-2272492D02*
X2355515Y-2282016D01*
X2355515Y-2282016D02*
X2345991Y-2272492D01*
X2345991Y-2272492D02*
X2355515Y-2262968D01*
X2355515Y-2262968D02*
X2355515Y-2282016D01*
X2488848Y-2082016D02*
X2507896Y-2082016D01*
X2507896Y-2082016D02*
X2526944Y-2091540D01*
X2526944Y-2091540D02*
X2536468Y-2101064D01*
X2536468Y-2101064D02*
X2545991Y-2120111D01*
X2545991Y-2120111D02*
X2555515Y-2158206D01*
X2555515Y-2158206D02*
X2555515Y-2205826D01*
X2555515Y-2205826D02*
X2545991Y-2243921D01*
X2545991Y-2243921D02*
X2536468Y-2262968D01*
X2536468Y-2262968D02*
X2526944Y-2272492D01*
X2526944Y-2272492D02*
X2507896Y-2282016D01*
X2507896Y-2282016D02*
X2488848Y-2282016D01*
X2488848Y-2282016D02*
X2469801Y-2272492D01*
X2469801Y-2272492D02*
X2460277Y-2262968D01*
X2460277Y-2262968D02*
X2450753Y-2243921D01*
X2450753Y-2243921D02*
X2441229Y-2205826D01*
X2441229Y-2205826D02*
X2441229Y-2158206D01*
X2441229Y-2158206D02*
X2450753Y-2120111D01*
X2450753Y-2120111D02*
X2460277Y-2101064D01*
X2460277Y-2101064D02*
X2469801Y-2091540D01*
X2469801Y-2091540D02*
X2488848Y-2082016D01*
X2745991Y-2282016D02*
X2631706Y-2282016D01*
X2688848Y-2282016D02*
X2688848Y-2082016D01*
X2688848Y-2082016D02*
X2669801Y-2110587D01*
X2669801Y-2110587D02*
X2650753Y-2129635D01*
X2650753Y-2129635D02*
X2631706Y-2139159D01*
X2936467Y-2282016D02*
X2822182Y-2282016D01*
X2879325Y-2282016D02*
X2879325Y-2082016D01*
X2879325Y-2082016D02*
X2860277Y-2110587D01*
X2860277Y-2110587D02*
X2841229Y-2129635D01*
X2841229Y-2129635D02*
X2822182Y-2139159D01*
X3050753Y-2167730D02*
X3031706Y-2158206D01*
X3031706Y-2158206D02*
X3022182Y-2148683D01*
X3022182Y-2148683D02*
X3012658Y-2129635D01*
X3012658Y-2129635D02*
X3012658Y-2120111D01*
X3012658Y-2120111D02*
X3022182Y-2101064D01*
X3022182Y-2101064D02*
X3031706Y-2091540D01*
X3031706Y-2091540D02*
X3050753Y-2082016D01*
X3050753Y-2082016D02*
X3088848Y-2082016D01*
X3088848Y-2082016D02*
X3107896Y-2091540D01*
X3107896Y-2091540D02*
X3117420Y-2101064D01*
X3117420Y-2101064D02*
X3126944Y-2120111D01*
X3126944Y-2120111D02*
X3126944Y-2129635D01*
X3126944Y-2129635D02*
X3117420Y-2148683D01*
X3117420Y-2148683D02*
X3107896Y-2158206D01*
X3107896Y-2158206D02*
X3088848Y-2167730D01*
X3088848Y-2167730D02*
X3050753Y-2167730D01*
X3050753Y-2167730D02*
X3031706Y-2177254D01*
X3031706Y-2177254D02*
X3022182Y-2186778D01*
X3022182Y-2186778D02*
X3012658Y-2205826D01*
X3012658Y-2205826D02*
X3012658Y-2243921D01*
X3012658Y-2243921D02*
X3022182Y-2262968D01*
X3022182Y-2262968D02*
X3031706Y-2272492D01*
X3031706Y-2272492D02*
X3050753Y-2282016D01*
X3050753Y-2282016D02*
X3088848Y-2282016D01*
X3088848Y-2282016D02*
X3107896Y-2272492D01*
X3107896Y-2272492D02*
X3117420Y-2262968D01*
X3117420Y-2262968D02*
X3126944Y-2243921D01*
X3126944Y-2243921D02*
X3126944Y-2205826D01*
X3126944Y-2205826D02*
X3117420Y-2186778D01*
X3117420Y-2186778D02*
X3107896Y-2177254D01*
X3107896Y-2177254D02*
X3088848Y-2167730D01*
X3203134Y-2082016D02*
X3203134Y-2120111D01*
X3279325Y-2082016D02*
X3279325Y-2120111D01*
X3574563Y-2358206D02*
X3565039Y-2348683D01*
X3565039Y-2348683D02*
X3545991Y-2320111D01*
X3545991Y-2320111D02*
X3536468Y-2301064D01*
X3536468Y-2301064D02*
X3526944Y-2272492D01*
X3526944Y-2272492D02*
X3517420Y-2224873D01*
X3517420Y-2224873D02*
X3517420Y-2186778D01*
X3517420Y-2186778D02*
X3526944Y-2139159D01*
X3526944Y-2139159D02*
X3536468Y-2110587D01*
X3536468Y-2110587D02*
X3545991Y-2091540D01*
X3545991Y-2091540D02*
X3565039Y-2062968D01*
X3565039Y-2062968D02*
X3574563Y-2053444D01*
X3755515Y-2282016D02*
X3641229Y-2282016D01*
X3698372Y-2282016D02*
X3698372Y-2082016D01*
X3698372Y-2082016D02*
X3679325Y-2110587D01*
X3679325Y-2110587D02*
X3660277Y-2129635D01*
X3660277Y-2129635D02*
X3641229Y-2139159D01*
X3831706Y-2101064D02*
X3841229Y-2091540D01*
X3841229Y-2091540D02*
X3860277Y-2082016D01*
X3860277Y-2082016D02*
X3907896Y-2082016D01*
X3907896Y-2082016D02*
X3926944Y-2091540D01*
X3926944Y-2091540D02*
X3936468Y-2101064D01*
X3936468Y-2101064D02*
X3945991Y-2120111D01*
X3945991Y-2120111D02*
X3945991Y-2139159D01*
X3945991Y-2139159D02*
X3936468Y-2167730D01*
X3936468Y-2167730D02*
X3822182Y-2282016D01*
X3822182Y-2282016D02*
X3945991Y-2282016D01*
X4184087Y-2282016D02*
X4184087Y-2082016D01*
X4269801Y-2282016D02*
X4269801Y-2177254D01*
X4269801Y-2177254D02*
X4260277Y-2158206D01*
X4260277Y-2158206D02*
X4241230Y-2148683D01*
X4241230Y-2148683D02*
X4212658Y-2148683D01*
X4212658Y-2148683D02*
X4193610Y-2158206D01*
X4193610Y-2158206D02*
X4184087Y-2167730D01*
X4393611Y-2282016D02*
X4374563Y-2272492D01*
X4374563Y-2272492D02*
X4365039Y-2262968D01*
X4365039Y-2262968D02*
X4355515Y-2243921D01*
X4355515Y-2243921D02*
X4355515Y-2186778D01*
X4355515Y-2186778D02*
X4365039Y-2167730D01*
X4365039Y-2167730D02*
X4374563Y-2158206D01*
X4374563Y-2158206D02*
X4393611Y-2148683D01*
X4393611Y-2148683D02*
X4422182Y-2148683D01*
X4422182Y-2148683D02*
X4441230Y-2158206D01*
X4441230Y-2158206D02*
X4450753Y-2167730D01*
X4450753Y-2167730D02*
X4460277Y-2186778D01*
X4460277Y-2186778D02*
X4460277Y-2243921D01*
X4460277Y-2243921D02*
X4450753Y-2262968D01*
X4450753Y-2262968D02*
X4441230Y-2272492D01*
X4441230Y-2272492D02*
X4422182Y-2282016D01*
X4422182Y-2282016D02*
X4393611Y-2282016D01*
X4574563Y-2282016D02*
X4555515Y-2272492D01*
X4555515Y-2272492D02*
X4545992Y-2253445D01*
X4545992Y-2253445D02*
X4545992Y-2082016D01*
X4726944Y-2272492D02*
X4707896Y-2282016D01*
X4707896Y-2282016D02*
X4669801Y-2282016D01*
X4669801Y-2282016D02*
X4650753Y-2272492D01*
X4650753Y-2272492D02*
X4641230Y-2253445D01*
X4641230Y-2253445D02*
X4641230Y-2177254D01*
X4641230Y-2177254D02*
X4650753Y-2158206D01*
X4650753Y-2158206D02*
X4669801Y-2148683D01*
X4669801Y-2148683D02*
X4707896Y-2148683D01*
X4707896Y-2148683D02*
X4726944Y-2158206D01*
X4726944Y-2158206D02*
X4736468Y-2177254D01*
X4736468Y-2177254D02*
X4736468Y-2196302D01*
X4736468Y-2196302D02*
X4641230Y-2215349D01*
X4812658Y-2272492D02*
X4831706Y-2282016D01*
X4831706Y-2282016D02*
X4869801Y-2282016D01*
X4869801Y-2282016D02*
X4888849Y-2272492D01*
X4888849Y-2272492D02*
X4898373Y-2253445D01*
X4898373Y-2253445D02*
X4898373Y-2243921D01*
X4898373Y-2243921D02*
X4888849Y-2224873D01*
X4888849Y-2224873D02*
X4869801Y-2215349D01*
X4869801Y-2215349D02*
X4841230Y-2215349D01*
X4841230Y-2215349D02*
X4822182Y-2205826D01*
X4822182Y-2205826D02*
X4812658Y-2186778D01*
X4812658Y-2186778D02*
X4812658Y-2177254D01*
X4812658Y-2177254D02*
X4822182Y-2158206D01*
X4822182Y-2158206D02*
X4841230Y-2148683D01*
X4841230Y-2148683D02*
X4869801Y-2148683D01*
X4869801Y-2148683D02*
X4888849Y-2158206D01*
X4965039Y-2358206D02*
X4974563Y-2348683D01*
X4974563Y-2348683D02*
X4993611Y-2320111D01*
X4993611Y-2320111D02*
X5003134Y-2301064D01*
X5003134Y-2301064D02*
X5012658Y-2272492D01*
X5012658Y-2272492D02*
X5022182Y-2224873D01*
X5022182Y-2224873D02*
X5022182Y-2186778D01*
X5022182Y-2186778D02*
X5012658Y-2139159D01*
X5012658Y-2139159D02*
X5003134Y-2110587D01*
X5003134Y-2110587D02*
X4993611Y-2091540D01*
X4993611Y-2091540D02*
X4974563Y-2062968D01*
X4974563Y-2062968D02*
X4965039Y-2053444D01*
M02*
