G04 #@! TF.GenerationSoftware,KiCad,Pcbnew,8.0.7*
G04 #@! TF.CreationDate,2025-02-06T22:36:38-05:00*
G04 #@! TF.ProjectId,accessory_v3,61636365-7373-46f7-9279-5f76332e6b69,rev?*
G04 #@! TF.SameCoordinates,Original*
G04 #@! TF.FileFunction,Copper,L4,Bot*
G04 #@! TF.FilePolarity,Positive*
%FSLAX46Y46*%
G04 Gerber Fmt 4.6, Leading zero omitted, Abs format (unit mm)*
G04 Created by KiCad (PCBNEW 8.0.7) date 2025-02-06 22:36:38*
%MOMM*%
%LPD*%
G01*
G04 APERTURE LIST*
G04 Aperture macros list*
%AMRoundRect*
0 Rectangle with rounded corners*
0 $1 Rounding radius*
0 $2 $3 $4 $5 $6 $7 $8 $9 X,Y pos of 4 corners*
0 Add a 4 corners polygon primitive as box body*
4,1,4,$2,$3,$4,$5,$6,$7,$8,$9,$2,$3,0*
0 Add four circle primitives for the rounded corners*
1,1,$1+$1,$2,$3*
1,1,$1+$1,$4,$5*
1,1,$1+$1,$6,$7*
1,1,$1+$1,$8,$9*
0 Add four rect primitives between the rounded corners*
20,1,$1+$1,$2,$3,$4,$5,0*
20,1,$1+$1,$4,$5,$6,$7,0*
20,1,$1+$1,$6,$7,$8,$9,0*
20,1,$1+$1,$8,$9,$2,$3,0*%
G04 Aperture macros list end*
G04 #@! TA.AperFunction,EtchedComponent*
%ADD10C,0.010000*%
G04 #@! TD*
G04 #@! TA.AperFunction,ComponentPad*
%ADD11C,1.638000*%
G04 #@! TD*
G04 #@! TA.AperFunction,ComponentPad*
%ADD12C,4.801000*%
G04 #@! TD*
G04 #@! TA.AperFunction,SMDPad,CuDef*
%ADD13R,5.200000X1.250000*%
G04 #@! TD*
G04 #@! TA.AperFunction,ComponentPad*
%ADD14C,1.800000*%
G04 #@! TD*
G04 #@! TA.AperFunction,ComponentPad*
%ADD15C,1.000000*%
G04 #@! TD*
G04 #@! TA.AperFunction,ComponentPad*
%ADD16C,1.350000*%
G04 #@! TD*
G04 #@! TA.AperFunction,SMDPad,CuDef*
%ADD17RoundRect,0.135000X0.185000X-0.135000X0.185000X0.135000X-0.185000X0.135000X-0.185000X-0.135000X0*%
G04 #@! TD*
G04 #@! TA.AperFunction,SMDPad,CuDef*
%ADD18RoundRect,0.140000X0.170000X-0.140000X0.170000X0.140000X-0.170000X0.140000X-0.170000X-0.140000X0*%
G04 #@! TD*
G04 #@! TA.AperFunction,SMDPad,CuDef*
%ADD19RoundRect,0.135000X-0.135000X-0.185000X0.135000X-0.185000X0.135000X0.185000X-0.135000X0.185000X0*%
G04 #@! TD*
G04 #@! TA.AperFunction,SMDPad,CuDef*
%ADD20R,0.254000X0.152400*%
G04 #@! TD*
G04 #@! TA.AperFunction,SMDPad,CuDef*
%ADD21RoundRect,0.140000X-0.140000X-0.170000X0.140000X-0.170000X0.140000X0.170000X-0.140000X0.170000X0*%
G04 #@! TD*
G04 #@! TA.AperFunction,SMDPad,CuDef*
%ADD22RoundRect,0.035000X0.690000X0.105000X-0.690000X0.105000X-0.690000X-0.105000X0.690000X-0.105000X0*%
G04 #@! TD*
G04 #@! TA.AperFunction,SMDPad,CuDef*
%ADD23R,1.651000X2.845000*%
G04 #@! TD*
G04 #@! TA.AperFunction,SMDPad,CuDef*
%ADD24R,1.250000X0.600000*%
G04 #@! TD*
G04 #@! TA.AperFunction,SMDPad,CuDef*
%ADD25RoundRect,0.225000X-0.250000X0.225000X-0.250000X-0.225000X0.250000X-0.225000X0.250000X0.225000X0*%
G04 #@! TD*
G04 #@! TA.AperFunction,SMDPad,CuDef*
%ADD26RoundRect,0.225000X0.225000X0.250000X-0.225000X0.250000X-0.225000X-0.250000X0.225000X-0.250000X0*%
G04 #@! TD*
G04 #@! TA.AperFunction,SMDPad,CuDef*
%ADD27R,0.850000X0.350000*%
G04 #@! TD*
G04 #@! TA.AperFunction,SMDPad,CuDef*
%ADD28R,1.700000X2.450000*%
G04 #@! TD*
G04 #@! TA.AperFunction,SMDPad,CuDef*
%ADD29RoundRect,0.140000X0.140000X0.170000X-0.140000X0.170000X-0.140000X-0.170000X0.140000X-0.170000X0*%
G04 #@! TD*
G04 #@! TA.AperFunction,SMDPad,CuDef*
%ADD30R,0.600000X1.250000*%
G04 #@! TD*
G04 #@! TA.AperFunction,SMDPad,CuDef*
%ADD31RoundRect,0.135000X0.135000X0.185000X-0.135000X0.185000X-0.135000X-0.185000X0.135000X-0.185000X0*%
G04 #@! TD*
G04 #@! TA.AperFunction,SMDPad,CuDef*
%ADD32RoundRect,0.225000X-0.225000X-0.250000X0.225000X-0.250000X0.225000X0.250000X-0.225000X0.250000X0*%
G04 #@! TD*
G04 #@! TA.AperFunction,SMDPad,CuDef*
%ADD33RoundRect,0.140000X-0.170000X0.140000X-0.170000X-0.140000X0.170000X-0.140000X0.170000X0.140000X0*%
G04 #@! TD*
G04 #@! TA.AperFunction,SMDPad,CuDef*
%ADD34R,0.450000X1.400000*%
G04 #@! TD*
G04 #@! TA.AperFunction,SMDPad,CuDef*
%ADD35R,1.475000X0.450000*%
G04 #@! TD*
G04 #@! TA.AperFunction,SMDPad,CuDef*
%ADD36RoundRect,0.035000X-0.105000X0.690000X-0.105000X-0.690000X0.105000X-0.690000X0.105000X0.690000X0*%
G04 #@! TD*
G04 #@! TA.AperFunction,SMDPad,CuDef*
%ADD37R,2.845000X1.651000*%
G04 #@! TD*
G04 #@! TA.AperFunction,SMDPad,CuDef*
%ADD38RoundRect,0.150000X0.150000X-0.587500X0.150000X0.587500X-0.150000X0.587500X-0.150000X-0.587500X0*%
G04 #@! TD*
G04 #@! TA.AperFunction,SMDPad,CuDef*
%ADD39RoundRect,0.135000X-0.185000X0.135000X-0.185000X-0.135000X0.185000X-0.135000X0.185000X0.135000X0*%
G04 #@! TD*
G04 #@! TA.AperFunction,SMDPad,CuDef*
%ADD40R,0.300000X0.850000*%
G04 #@! TD*
G04 #@! TA.AperFunction,SMDPad,CuDef*
%ADD41R,0.850000X0.300000*%
G04 #@! TD*
G04 #@! TA.AperFunction,SMDPad,CuDef*
%ADD42R,4.050000X4.050000*%
G04 #@! TD*
G04 #@! TA.AperFunction,ViaPad*
%ADD43C,0.800000*%
G04 #@! TD*
G04 #@! TA.AperFunction,ViaPad*
%ADD44C,0.400000*%
G04 #@! TD*
G04 #@! TA.AperFunction,ViaPad*
%ADD45C,0.450000*%
G04 #@! TD*
G04 #@! TA.AperFunction,ViaPad*
%ADD46C,0.700000*%
G04 #@! TD*
G04 #@! TA.AperFunction,ViaPad*
%ADD47C,0.600000*%
G04 #@! TD*
G04 #@! TA.AperFunction,ViaPad*
%ADD48C,0.650000*%
G04 #@! TD*
G04 #@! TA.AperFunction,Conductor*
%ADD49C,0.200000*%
G04 #@! TD*
G04 #@! TA.AperFunction,Conductor*
%ADD50C,0.500000*%
G04 #@! TD*
G04 #@! TA.AperFunction,Conductor*
%ADD51C,0.250000*%
G04 #@! TD*
G04 #@! TA.AperFunction,Conductor*
%ADD52C,0.300000*%
G04 #@! TD*
G04 #@! TA.AperFunction,Conductor*
%ADD53C,0.220000*%
G04 #@! TD*
G04 #@! TA.AperFunction,Conductor*
%ADD54C,0.400000*%
G04 #@! TD*
G04 #@! TA.AperFunction,Conductor*
%ADD55C,0.600000*%
G04 #@! TD*
G04 APERTURE END LIST*
D10*
X5179800Y-34879400D02*
X5179800Y-33729400D01*
D11*
X50460000Y-55869000D03*
X50460000Y-53583000D03*
X50460000Y-51297000D03*
X50460000Y-49011000D03*
X50460000Y-46725000D03*
X50460000Y-44439000D03*
X50460000Y-42153000D03*
X50460000Y-39867000D03*
X50460000Y-37581000D03*
X50460000Y-35295000D03*
X50460000Y-33009000D03*
X50460000Y-30723000D03*
X50460000Y-28437000D03*
X50460000Y-26151000D03*
X50460000Y-23865000D03*
X53000000Y-57012000D03*
X53000000Y-54726000D03*
X53000000Y-52440000D03*
X53000000Y-50154000D03*
X53000000Y-47868000D03*
X53000000Y-45582000D03*
X53000000Y-43296000D03*
X53000000Y-41010000D03*
X53000000Y-38724000D03*
X53000000Y-36438000D03*
X53000000Y-34152000D03*
X53000000Y-31866000D03*
X53000000Y-29580000D03*
X53000000Y-27294000D03*
X53000000Y-25008000D03*
X55540000Y-55869000D03*
X55540000Y-53583000D03*
X55540000Y-51297000D03*
X55540000Y-49011000D03*
X55540000Y-46725000D03*
X55540000Y-44439000D03*
X55540000Y-42153000D03*
X55540000Y-39867000D03*
X55540000Y-37581000D03*
X55540000Y-35295000D03*
X55540000Y-33009000D03*
X55540000Y-30723000D03*
X55540000Y-28437000D03*
X55540000Y-26151000D03*
D12*
X53000000Y-63895000D03*
X53000000Y-16855000D03*
D13*
X3479800Y-36829400D03*
X3479800Y-38829400D03*
X3479800Y-40829400D03*
X3479800Y-42829400D03*
X3479800Y-44729400D03*
D14*
X8980000Y-63720000D03*
X19140000Y-23080000D03*
X24220000Y-48480000D03*
X24220000Y-45936000D03*
X24220000Y-40860000D03*
X24220000Y-38320000D03*
X24220000Y-35780000D03*
X8980000Y-35780000D03*
X8980000Y-48480000D03*
X8980000Y-51020000D03*
X24220000Y-25620000D03*
X24220000Y-23080000D03*
X24220000Y-15460000D03*
X24220000Y-12920000D03*
X24220000Y-10380000D03*
X8980000Y-23080000D03*
X8980000Y-25620000D03*
X8980000Y-28160000D03*
X8980000Y-30700000D03*
D15*
X18632000Y-68288000D03*
X15330000Y-68288000D03*
D14*
X24220000Y-68800000D03*
X8980000Y-33240000D03*
X8980000Y-66260000D03*
X16600000Y-23080000D03*
D16*
X13430000Y-53830000D03*
X13430000Y-55830000D03*
X11430000Y-55830000D03*
X11430000Y-53830000D03*
X15430000Y-53830000D03*
X15430000Y-55830000D03*
D14*
X21170000Y-54830000D03*
X21170000Y-52290000D03*
X21680000Y-23080000D03*
X8980000Y-68800000D03*
D17*
X56743600Y-20496800D03*
X56743600Y-19476800D03*
D18*
X40792400Y-31696600D03*
X40792400Y-30736600D03*
D19*
X44321000Y-22479000D03*
X45341000Y-22479000D03*
D17*
X57565548Y-52427900D03*
X57565548Y-51407900D03*
D20*
X45694600Y-20421600D03*
X45694600Y-20802600D03*
X46431200Y-23977600D03*
X46431200Y-23596600D03*
X48615600Y-19697700D03*
X48615600Y-20078700D03*
D21*
X58940000Y-36880000D03*
X59900000Y-36880000D03*
D22*
X39160000Y-9260000D03*
X39160000Y-9760000D03*
X39160000Y-10260000D03*
X39160000Y-10760000D03*
X39160000Y-11260000D03*
X39160000Y-11760000D03*
X39160000Y-12260000D03*
X39160000Y-12760000D03*
X34840000Y-12760000D03*
X34840000Y-12260000D03*
X34840000Y-11760000D03*
X34840000Y-11260000D03*
X34840000Y-10760000D03*
X34840000Y-10260000D03*
X34840000Y-9760000D03*
X34840000Y-9260000D03*
D23*
X37000000Y-11010000D03*
D24*
X38921000Y-38902600D03*
X38921000Y-36992600D03*
X41021000Y-37947600D03*
D19*
X44295600Y-4546600D03*
X45315600Y-4546600D03*
D25*
X63220000Y-27605000D03*
X63220000Y-29155000D03*
D26*
X36495000Y-14160000D03*
X34945000Y-14160000D03*
D20*
X46558200Y-28854400D03*
X46558200Y-29235400D03*
D27*
X17160000Y-70832500D03*
X17160000Y-71482500D03*
X17160000Y-72132500D03*
X17160000Y-72782500D03*
X14260000Y-72782500D03*
X14260000Y-72132500D03*
X14260000Y-71482500D03*
X14260000Y-70832500D03*
D28*
X15710000Y-71807500D03*
D17*
X60820000Y-22800000D03*
X60820000Y-21780000D03*
D21*
X44503400Y-27990800D03*
X45463400Y-27990800D03*
D17*
X22020000Y-21000000D03*
X22020000Y-19980000D03*
D29*
X41830000Y-10250000D03*
X40870000Y-10250000D03*
D30*
X33746400Y-36237600D03*
X31836400Y-36237600D03*
X32791400Y-34137600D03*
D31*
X19560000Y-70480000D03*
X18540000Y-70480000D03*
D21*
X61160000Y-36970000D03*
X62120000Y-36970000D03*
X29850000Y-30230000D03*
X30810000Y-30230000D03*
D31*
X11695000Y-35740000D03*
X10675000Y-35740000D03*
D30*
X43078400Y-29133800D03*
X41168400Y-29133800D03*
X42123400Y-27033800D03*
D19*
X41984200Y-30632400D03*
X43004200Y-30632400D03*
D32*
X41025000Y-13730000D03*
X42575000Y-13730000D03*
D19*
X35168400Y-34823400D03*
X36188400Y-34823400D03*
D18*
X44323000Y-21381600D03*
X44323000Y-20421600D03*
D17*
X62110000Y-24090000D03*
X62110000Y-23070000D03*
D30*
X39309000Y-27373000D03*
X37399000Y-27373000D03*
X38354000Y-25273000D03*
D20*
X45796200Y-32969200D03*
X45796200Y-33350200D03*
D29*
X12010000Y-72410000D03*
X11050000Y-72410000D03*
D33*
X60310000Y-28020000D03*
X60310000Y-28980000D03*
D31*
X58397200Y-14126400D03*
X57377200Y-14126400D03*
D17*
X26210000Y-38880000D03*
X26210000Y-37860000D03*
D34*
X63080000Y-13655000D03*
X62430000Y-13655000D03*
X61780000Y-13655000D03*
X61130000Y-13655000D03*
X61130000Y-9255000D03*
X61780000Y-9255000D03*
X62430000Y-9255000D03*
X63080000Y-9255000D03*
D26*
X48781000Y-12192000D03*
X47231000Y-12192000D03*
D17*
X58166000Y-22934200D03*
X58166000Y-21914200D03*
X63230800Y-18391000D03*
X63230800Y-17371000D03*
D24*
X36821400Y-23068200D03*
X36821400Y-21158200D03*
X38921400Y-22113200D03*
D33*
X43281600Y-23827800D03*
X43281600Y-24787800D03*
X12530000Y-69310000D03*
X12530000Y-70270000D03*
D19*
X44371800Y-23825200D03*
X45391800Y-23825200D03*
D29*
X41830000Y-11400000D03*
X40870000Y-11400000D03*
D19*
X44473400Y-29235400D03*
X45493400Y-29235400D03*
D20*
X46456600Y-22110700D03*
X46456600Y-22491700D03*
D35*
X53458000Y-5105000D03*
X53458000Y-5755000D03*
X53458000Y-6405000D03*
X53458000Y-7055000D03*
X53458000Y-7705000D03*
X53458000Y-8355000D03*
X53458000Y-9005000D03*
X53458000Y-9655000D03*
X47582000Y-9655000D03*
X47582000Y-9005000D03*
X47582000Y-8355000D03*
X47582000Y-7705000D03*
X47582000Y-7055000D03*
X47582000Y-6405000D03*
X47582000Y-5755000D03*
X47582000Y-5105000D03*
D20*
X44094400Y-30924500D03*
X44094400Y-30543500D03*
D32*
X50375000Y-11220000D03*
X51925000Y-11220000D03*
D26*
X28605000Y-29810000D03*
X27055000Y-29810000D03*
D24*
X38870200Y-35168800D03*
X38870200Y-33258800D03*
X40970200Y-34213800D03*
D17*
X56718200Y-22609000D03*
X56718200Y-21589000D03*
D29*
X29620000Y-20060000D03*
X28660000Y-20060000D03*
D30*
X42225000Y-16628400D03*
X44135000Y-16628400D03*
X43180000Y-18728400D03*
D20*
X46431200Y-25819100D03*
X46431200Y-25438100D03*
D25*
X57920000Y-33175000D03*
X57920000Y-34725000D03*
D17*
X26746200Y-26900600D03*
X26746200Y-25880600D03*
D30*
X38069800Y-19098000D03*
X36159800Y-19098000D03*
X37114800Y-16998000D03*
D29*
X62633200Y-7619600D03*
X61673200Y-7619600D03*
D36*
X59360000Y-31040000D03*
X59860000Y-31040000D03*
X60360000Y-31040000D03*
X60860000Y-31040000D03*
X61360000Y-31040000D03*
X61860000Y-31040000D03*
X62360000Y-31040000D03*
X62860000Y-31040000D03*
X62860000Y-35360000D03*
X62360000Y-35360000D03*
X61860000Y-35360000D03*
X61360000Y-35360000D03*
X60860000Y-35360000D03*
X60360000Y-35360000D03*
X59860000Y-35360000D03*
X59360000Y-35360000D03*
D37*
X61110000Y-33200000D03*
D31*
X60111348Y-50472100D03*
X59091348Y-50472100D03*
D38*
X60955748Y-48768000D03*
X59055748Y-48768000D03*
X60005748Y-46893000D03*
D17*
X63230800Y-22607400D03*
X63230800Y-21587400D03*
D34*
X58861600Y-11267800D03*
X58211600Y-11267800D03*
X57561600Y-11267800D03*
X56911600Y-11267800D03*
X56911600Y-6867800D03*
X57561600Y-6867800D03*
X58211600Y-6867800D03*
X58861600Y-6867800D03*
D17*
X58166000Y-20802600D03*
X58166000Y-19782600D03*
D39*
X18420000Y-72970000D03*
X18420000Y-73990000D03*
D31*
X25730000Y-21200000D03*
X24710000Y-21200000D03*
X26890000Y-8850000D03*
X25870000Y-8850000D03*
D18*
X27640000Y-20080000D03*
X27640000Y-19120000D03*
D17*
X56718200Y-16434800D03*
X56718200Y-15414800D03*
D32*
X32455000Y-30030000D03*
X34005000Y-30030000D03*
D33*
X53365400Y-10774800D03*
X53365400Y-11734800D03*
X45135800Y-37010400D03*
X45135800Y-37970400D03*
D31*
X58422600Y-13059600D03*
X57402600Y-13059600D03*
X62564200Y-15315800D03*
X61544200Y-15315800D03*
D20*
X37354800Y-34518600D03*
X37354800Y-34899600D03*
D25*
X31970000Y-9425000D03*
X31970000Y-10975000D03*
D19*
X44344400Y-25501600D03*
X45364400Y-25501600D03*
D21*
X39519600Y-17952400D03*
X40479600Y-17952400D03*
D17*
X57655548Y-47557900D03*
X57655548Y-46537900D03*
X63230800Y-20473800D03*
X63230800Y-19453800D03*
D29*
X48994000Y-10668000D03*
X48034000Y-10668000D03*
D31*
X22887400Y-37185600D03*
X21867400Y-37185600D03*
D18*
X42545000Y-33350200D03*
X42545000Y-32390200D03*
D21*
X29850000Y-29190000D03*
X30810000Y-29190000D03*
D29*
X29740000Y-19010000D03*
X28780000Y-19010000D03*
D19*
X19570000Y-72240000D03*
X20590000Y-72240000D03*
D29*
X58321000Y-5216800D03*
X57361000Y-5216800D03*
D21*
X35198400Y-33705800D03*
X36158400Y-33705800D03*
D30*
X39293800Y-31419800D03*
X37383800Y-31419800D03*
X38338800Y-29319800D03*
D32*
X60505000Y-38360000D03*
X62055000Y-38360000D03*
D33*
X33370000Y-9500000D03*
X33370000Y-10460000D03*
D31*
X60566548Y-57304700D03*
X59546548Y-57304700D03*
D17*
X60845400Y-20641000D03*
X60845400Y-19621000D03*
D31*
X62589600Y-16408000D03*
X61569600Y-16408000D03*
D17*
X56718200Y-18568400D03*
X56718200Y-17548400D03*
D33*
X61380000Y-28030000D03*
X61380000Y-28990000D03*
D18*
X42189400Y-25626000D03*
X42189400Y-24666000D03*
D17*
X23430000Y-20790000D03*
X23430000Y-19770000D03*
D21*
X45496600Y-18161000D03*
X46456600Y-18161000D03*
D29*
X28840000Y-28450000D03*
X27880000Y-28450000D03*
D38*
X60777948Y-55422800D03*
X58877948Y-55422800D03*
X59827948Y-53547800D03*
D40*
X33110000Y-27240000D03*
X32610000Y-27240000D03*
X32110000Y-27240000D03*
X31610000Y-27240000D03*
X31110000Y-27240000D03*
X30610000Y-27240000D03*
X30110000Y-27240000D03*
X29610000Y-27240000D03*
X29110000Y-27240000D03*
X28610000Y-27240000D03*
D41*
X27910000Y-26540000D03*
X27910000Y-26040000D03*
X27910000Y-25540000D03*
X27910000Y-25040000D03*
X27910000Y-24540000D03*
X27910000Y-24040000D03*
X27910000Y-23540000D03*
X27910000Y-23040000D03*
X27910000Y-22540000D03*
X27910000Y-22040000D03*
D40*
X28610000Y-21340000D03*
X29110000Y-21340000D03*
X29610000Y-21340000D03*
X30110000Y-21340000D03*
X30610000Y-21340000D03*
X31110000Y-21340000D03*
X31610000Y-21340000D03*
X32110000Y-21340000D03*
X32610000Y-21340000D03*
X33110000Y-21340000D03*
D41*
X33810000Y-22040000D03*
X33810000Y-22540000D03*
X33810000Y-23040000D03*
X33810000Y-23540000D03*
X33810000Y-24040000D03*
X33810000Y-24540000D03*
X33810000Y-25040000D03*
X33810000Y-25540000D03*
X33810000Y-26040000D03*
X33810000Y-26540000D03*
D42*
X30860000Y-24290000D03*
D19*
X46149800Y-37084000D03*
X47169800Y-37084000D03*
D24*
X40673600Y-22418000D03*
X40673600Y-20508000D03*
X42773600Y-21463000D03*
D18*
X33310000Y-13070000D03*
X33310000Y-12110000D03*
D19*
X43635200Y-33299400D03*
X44655200Y-33299400D03*
X45512800Y-19278600D03*
X46532800Y-19278600D03*
X39525800Y-19021800D03*
X40545800Y-19021800D03*
D20*
X48437800Y-37719000D03*
X48437800Y-37338000D03*
D21*
X33280000Y-28750000D03*
X34240000Y-28750000D03*
D43*
X29630000Y-71990000D03*
D44*
X32110000Y-28702000D03*
X33560000Y-28000000D03*
D45*
X13190000Y-69910000D03*
D46*
X30840000Y-10940000D03*
D43*
X3860800Y-63220600D03*
D45*
X57023000Y-9169400D03*
X40868600Y-40020000D03*
D47*
X29924000Y-32330000D03*
D43*
X50215800Y-12446000D03*
D45*
X59697600Y-11051752D03*
D44*
X57895000Y-48844200D03*
D43*
X59480000Y-43860000D03*
D45*
X34721800Y-37363400D03*
X57880548Y-53077900D03*
D47*
X55050000Y-8405000D03*
D45*
X63920000Y-39320000D03*
D48*
X61840000Y-25270000D03*
D44*
X31385589Y-29828411D03*
D45*
X55570000Y-4800000D03*
D43*
X5892800Y-61518800D03*
D45*
X48958768Y-7841232D03*
D43*
X11658600Y-64490600D03*
D45*
X48006000Y-12954000D03*
X49022000Y-6350000D03*
X30988000Y-15494000D03*
D47*
X25250000Y-20090000D03*
D43*
X5710000Y-47840000D03*
D45*
X25230000Y-73160000D03*
X60985400Y-10855000D03*
X53340000Y-12935000D03*
X49855213Y-15568383D03*
X62320000Y-27320000D03*
X37719000Y-20980400D03*
X59131200Y-8229600D03*
X39979600Y-33502600D03*
X41656000Y-20294600D03*
X46609000Y-17043400D03*
X63601600Y-7670800D03*
X54864000Y-13055600D03*
X41859200Y-28752800D03*
X62220000Y-28860000D03*
X37617258Y-28321142D03*
X37795200Y-32969200D03*
X39979600Y-37007800D03*
X37287200Y-30327600D03*
X37292600Y-18209000D03*
X46431200Y-20921200D03*
X32512000Y-36703000D03*
X55397400Y-9804400D03*
X57577316Y-8314540D03*
D47*
X12700000Y-31115000D03*
X25679400Y-30124400D03*
X25940000Y-24000000D03*
D48*
X33618768Y-14708768D03*
D43*
X58819293Y-18239293D03*
D44*
X31079500Y-28321000D03*
D43*
X63520000Y-24410000D03*
X54412152Y-22641252D03*
D45*
X19610000Y-71420000D03*
D43*
X6781800Y-43611800D03*
D47*
X24280000Y-33350000D03*
X24540000Y-30670000D03*
D45*
X50175194Y-8551318D03*
D44*
X58150000Y-36910000D03*
D45*
X53111400Y-73101200D03*
D44*
X32340000Y-22690000D03*
D45*
X47777400Y-78511400D03*
D43*
X8409999Y-45700001D03*
D44*
X34425000Y-27100000D03*
D47*
X29890000Y-55170000D03*
D45*
X42590000Y-11620000D03*
X52019200Y-7061200D03*
X40220000Y-23820000D03*
X36652200Y-38277800D03*
D43*
X49098200Y-18770600D03*
D45*
X60833000Y-72796400D03*
D43*
X57810400Y-18818400D03*
D45*
X12550000Y-68520000D03*
X43357800Y-20320000D03*
D43*
X61442600Y-19024600D03*
D45*
X9070000Y-20170000D03*
D44*
X29340000Y-23320000D03*
D45*
X33300000Y-13840000D03*
X60500000Y-37430000D03*
X27711400Y-78562200D03*
X58166000Y-73152000D03*
X1651000Y-70231000D03*
X38395042Y-34508842D03*
X57637800Y-4200800D03*
X61070000Y-6760000D03*
X38658800Y-78613000D03*
X8610600Y-10261600D03*
X41706800Y-32512000D03*
X63220000Y-26416000D03*
X59860000Y-29850000D03*
X6756400Y-74650600D03*
X35483800Y-20751800D03*
X62001400Y-46202600D03*
X42550000Y-10870000D03*
X59030000Y-29670000D03*
X33934400Y-35229800D03*
X45999400Y-21971000D03*
X36931600Y-24942800D03*
X64109600Y-59283600D03*
X5359400Y-70129400D03*
X17856200Y-79095600D03*
X64033400Y-46278800D03*
D47*
X27890000Y-31640000D03*
D45*
X41605200Y-2108200D03*
X14859000Y-19761200D03*
X5511800Y-66421000D03*
D44*
X32330000Y-24160000D03*
X30040000Y-25790000D03*
D45*
X41158404Y-9533598D03*
X46024800Y-17424400D03*
X44324302Y-29946600D03*
X61569600Y-42646600D03*
X15671800Y-15011400D03*
D47*
X29890000Y-54090000D03*
D45*
X45923200Y-28321000D03*
D47*
X29950000Y-60410000D03*
D45*
X32816800Y-78638400D03*
X61835000Y-29840000D03*
X31970000Y-7930000D03*
X35077400Y-38430200D03*
D43*
X4267200Y-66954400D03*
D45*
X42976800Y-78587600D03*
X45796200Y-21285200D03*
D43*
X58180000Y-15930000D03*
D45*
X40202800Y-17241200D03*
X46177200Y-38303200D03*
D47*
X29930000Y-61560000D03*
D45*
X15519400Y-6273800D03*
X41480000Y-22840000D03*
X52070000Y-12293600D03*
X15710000Y-71807500D03*
D47*
X34250000Y-27880000D03*
D45*
X32590000Y-26480000D03*
X43916600Y-24511000D03*
D44*
X29300000Y-25830000D03*
D45*
X38506400Y-30683200D03*
D44*
X29320000Y-24180000D03*
D43*
X32090000Y-71200000D03*
D45*
X1193800Y-66675000D03*
X38765800Y-19682200D03*
X41220000Y-12230000D03*
X56515000Y-78689200D03*
X40470000Y-9085000D03*
D44*
X26890000Y-22280000D03*
D45*
X23418800Y-78841600D03*
X15544800Y-10617200D03*
X44404054Y-38388129D03*
D47*
X26670000Y-28510000D03*
D45*
X43916600Y-23231000D03*
X63150000Y-33200000D03*
X61480000Y-26500000D03*
X30911800Y-2032000D03*
D44*
X29350000Y-22620000D03*
D45*
X44348400Y-31445200D03*
X21513800Y-9474200D03*
D47*
X18740000Y-71480000D03*
D43*
X6959600Y-34899600D03*
D45*
X37800000Y-8035000D03*
D43*
X61859200Y-17371000D03*
X27370000Y-17420000D03*
D45*
X41427400Y-24511000D03*
X15824200Y-2336800D03*
D47*
X10200000Y-72430000D03*
D45*
X42976800Y-17272000D03*
X33390000Y-7940000D03*
X35763200Y-32918400D03*
X45720000Y-10668000D03*
D44*
X29300000Y-25090000D03*
D45*
X26416000Y-2260600D03*
X52044600Y-2006600D03*
X21158200Y-14351000D03*
X38252400Y-35991800D03*
X46228000Y-2108200D03*
X64109600Y-52578000D03*
X8915400Y-6273800D03*
X39900000Y-13870000D03*
D43*
X28810000Y-18020000D03*
D45*
X6858000Y-79019400D03*
X46278800Y-26466800D03*
D44*
X57920000Y-31940000D03*
D45*
X52806600Y-78536800D03*
X55702200Y-70002400D03*
X59390000Y-27940000D03*
X11709400Y-79019400D03*
X8610600Y-14986000D03*
D47*
X47480000Y-61000000D03*
D45*
X46050200Y-54127400D03*
X35890200Y-2057400D03*
X44729400Y-27196026D03*
D44*
X32320000Y-23440000D03*
D45*
X46532800Y-24587200D03*
X1955800Y-79095600D03*
X58267600Y-67106800D03*
D44*
X32320000Y-24930000D03*
D47*
X30099000Y-31242000D03*
D45*
X44348400Y-32435800D03*
X44958000Y-10922000D03*
X1930400Y-74777600D03*
D44*
X32290000Y-25760000D03*
D45*
X61036200Y-68275200D03*
X38303200Y-26873200D03*
D43*
X10541000Y-49784000D03*
X6858000Y-53492400D03*
X6131401Y-55337517D03*
X13639800Y-34950400D03*
D49*
X40860000Y-10260000D02*
X40870000Y-10250000D01*
X39160000Y-10260000D02*
X40860000Y-10260000D01*
D50*
X29630000Y-71990000D02*
X26820000Y-74800000D01*
X12507500Y-72182500D02*
X14260000Y-72182500D01*
X26820000Y-74800000D02*
X12950000Y-74800000D01*
X12950000Y-74800000D02*
X11420000Y-73270000D01*
X11420000Y-73270000D02*
X12507500Y-72182500D01*
D49*
X40870000Y-11400000D02*
X40730000Y-11260000D01*
X40730000Y-11260000D02*
X39160000Y-11260000D01*
X60385000Y-31015000D02*
X60385000Y-29055000D01*
X60385000Y-29055000D02*
X60310000Y-28980000D01*
X60360000Y-31040000D02*
X60385000Y-31015000D01*
X61310000Y-29060000D02*
X61380000Y-28990000D01*
X61310000Y-30990000D02*
X61310000Y-29060000D01*
X61360000Y-31040000D02*
X61310000Y-30990000D01*
D51*
X63232800Y-22609400D02*
X63230800Y-22607400D01*
D49*
X62110000Y-23070000D02*
X62768200Y-23070000D01*
X62768200Y-23070000D02*
X63230800Y-22607400D01*
X61135000Y-34335000D02*
X60604732Y-34335000D01*
X55540000Y-35295000D02*
X55932000Y-35687000D01*
X60860000Y-35360000D02*
X60860000Y-34590268D01*
X32110000Y-28702000D02*
X32110000Y-27240000D01*
X55540000Y-37105000D02*
X55540000Y-37581000D01*
X55932000Y-35687000D02*
X56958000Y-35687000D01*
X60860000Y-34590268D02*
X60604732Y-34335000D01*
X56958000Y-35687000D02*
X57340000Y-35305000D01*
X61360000Y-35360000D02*
X61360000Y-34560000D01*
X60604732Y-34335000D02*
X58310000Y-34335000D01*
X57340000Y-35305000D02*
X55540000Y-37105000D01*
X58310000Y-34335000D02*
X57340000Y-35305000D01*
X61360000Y-34560000D02*
X61135000Y-34335000D01*
X33280000Y-28280000D02*
X33280000Y-28750000D01*
X33560000Y-26790000D02*
X33560000Y-28000000D01*
X33560000Y-28000000D02*
X33280000Y-28280000D01*
X33280000Y-29205000D02*
X33280000Y-28750000D01*
X33810000Y-26540000D02*
X33560000Y-26790000D01*
X32455000Y-30030000D02*
X33280000Y-29205000D01*
X30110000Y-28210000D02*
X30110000Y-27240000D01*
X30820000Y-29960000D02*
X30820000Y-28920000D01*
X30110000Y-28210000D02*
X30820000Y-28920000D01*
X29620000Y-19130000D02*
X29740000Y-19010000D01*
X29110000Y-20570000D02*
X29620000Y-20060000D01*
X29110000Y-21340000D02*
X29110000Y-20570000D01*
X29620000Y-20060000D02*
X29620000Y-19130000D01*
X28605000Y-31011000D02*
X28605000Y-29810000D01*
X33970000Y-11760000D02*
X34840000Y-11760000D01*
X28600000Y-28210000D02*
X28600000Y-27250000D01*
X29924000Y-32330000D02*
X28605000Y-31011000D01*
X34060000Y-12760000D02*
X34840000Y-12760000D01*
X28600000Y-27250000D02*
X28610000Y-27240000D01*
X31970000Y-10975000D02*
X32855000Y-10975000D01*
X28840000Y-28450000D02*
X29110000Y-28180000D01*
X28605000Y-29810000D02*
X28830000Y-29585000D01*
X56258600Y-8405000D02*
X55050000Y-8405000D01*
D51*
X50375000Y-12286800D02*
X50375000Y-11220000D01*
D50*
X14260000Y-71532500D02*
X11712500Y-71532500D01*
D49*
X57565548Y-52427900D02*
X57565548Y-52762900D01*
X54350000Y-7705000D02*
X53458000Y-7705000D01*
X33410000Y-12110000D02*
X34060000Y-12760000D01*
X34721800Y-37363400D02*
X35066048Y-37363400D01*
D51*
X53060600Y-10470000D02*
X53365400Y-10774800D01*
D49*
X28830000Y-29585000D02*
X28830000Y-28460000D01*
X13190000Y-69910000D02*
X18990000Y-69910000D01*
X8980000Y-68800000D02*
X3860800Y-63680800D01*
X28840000Y-28450000D02*
X28600000Y-28210000D01*
D51*
X51125000Y-10470000D02*
X53060600Y-10470000D01*
D49*
X33570000Y-10260000D02*
X34840000Y-10260000D01*
X32175000Y-10975000D02*
X33310000Y-12110000D01*
X33310000Y-12110000D02*
X33410000Y-12110000D01*
D50*
X11712500Y-71532500D02*
X8980000Y-68800000D01*
D51*
X50375000Y-11220000D02*
X51125000Y-10470000D01*
D49*
X57023000Y-9169400D02*
X56258600Y-8405000D01*
X57895000Y-48844200D02*
X57655548Y-48604748D01*
X54350000Y-7705000D02*
X55050000Y-8405000D01*
X33460000Y-12260000D02*
X34840000Y-12260000D01*
X37722648Y-40020000D02*
X40868600Y-40020000D01*
X35066048Y-37363400D02*
X37722648Y-40020000D01*
X57565548Y-52762900D02*
X57880548Y-53077900D01*
X28830000Y-28460000D02*
X28840000Y-28450000D01*
X3860800Y-63680800D02*
X3860800Y-63220600D01*
X33310000Y-12110000D02*
X33620000Y-12110000D01*
X18990000Y-69910000D02*
X19560000Y-70480000D01*
X57655548Y-48604748D02*
X57655548Y-47557900D01*
X32855000Y-10975000D02*
X33370000Y-10460000D01*
X33370000Y-10460000D02*
X33570000Y-10260000D01*
X33310000Y-12110000D02*
X33460000Y-12260000D01*
D51*
X50215800Y-12446000D02*
X50375000Y-12286800D01*
D49*
X30840000Y-10940000D02*
X31935000Y-10940000D01*
X29110000Y-28180000D02*
X29110000Y-27240000D01*
X31935000Y-10940000D02*
X31970000Y-10975000D01*
X33620000Y-12110000D02*
X33970000Y-11760000D01*
X31970000Y-10975000D02*
X32175000Y-10975000D01*
D50*
X63690000Y-33719000D02*
X64095000Y-33314000D01*
X64095000Y-26202537D02*
X63142463Y-25250000D01*
D49*
X59755000Y-37025000D02*
X59755000Y-38833696D01*
X62860000Y-36190000D02*
X62860000Y-35360000D01*
X60056304Y-39135000D02*
X61280000Y-39135000D01*
X62235000Y-37045000D02*
X62130000Y-36940000D01*
X62235000Y-38240000D02*
X62235000Y-37045000D01*
X61860000Y-36670000D02*
X61860000Y-35360000D01*
D50*
X62055000Y-38360000D02*
X63350000Y-38360000D01*
D49*
X59755000Y-38833696D02*
X60056304Y-39135000D01*
X62370000Y-36170000D02*
X62370000Y-35370000D01*
X62180000Y-36890000D02*
X62180000Y-36360000D01*
X61830000Y-25260000D02*
X61840000Y-25270000D01*
X59900000Y-36880000D02*
X59755000Y-37025000D01*
X62130000Y-36920000D02*
X62860000Y-36190000D01*
X62130000Y-36940000D02*
X62180000Y-36890000D01*
X60360000Y-36420000D02*
X60360000Y-35360000D01*
D50*
X63690000Y-38020000D02*
X63690000Y-33719000D01*
D49*
X59900000Y-36880000D02*
X60360000Y-36420000D01*
D50*
X64095000Y-33314000D02*
X64095000Y-26202537D01*
X63350000Y-38360000D02*
X63690000Y-38020000D01*
D49*
X62130000Y-36940000D02*
X62130000Y-36920000D01*
X62180000Y-36360000D02*
X62370000Y-36170000D01*
X62370000Y-35370000D02*
X62360000Y-35360000D01*
D50*
X63142463Y-25250000D02*
X61830000Y-25250000D01*
D49*
X61280000Y-39135000D02*
X62055000Y-38360000D01*
X62130000Y-36940000D02*
X61860000Y-36670000D01*
X61830000Y-25250000D02*
X61830000Y-25260000D01*
X31470000Y-29840000D02*
X31470000Y-28902053D01*
X31630000Y-27260000D02*
X31610000Y-27240000D01*
X31470000Y-28902053D02*
X31630000Y-28742053D01*
X55265000Y-5105000D02*
X53458000Y-5105000D01*
X55570000Y-4800000D02*
X55265000Y-5105000D01*
X31630000Y-28742053D02*
X31630000Y-27260000D01*
D51*
X63825800Y-14400800D02*
X63825800Y-19878800D01*
X63825800Y-19878800D02*
X63230800Y-20473800D01*
X63080000Y-13655000D02*
X63825800Y-14400800D01*
X63230800Y-21587400D02*
X63230800Y-20473800D01*
X58422600Y-12439400D02*
X58422600Y-13059600D01*
X58357000Y-11691400D02*
X58357000Y-12373800D01*
X58397200Y-14126400D02*
X58397200Y-13085000D01*
X58397200Y-13085000D02*
X58422600Y-13059600D01*
X58357000Y-12373800D02*
X58422600Y-12439400D01*
X57402600Y-13059600D02*
X57379200Y-13036200D01*
X57379200Y-12424600D02*
X57561600Y-12242200D01*
X57561600Y-12242200D02*
X57561600Y-11267800D01*
X57377200Y-14126400D02*
X57377200Y-13085000D01*
X57377200Y-13085000D02*
X57402600Y-13059600D01*
X57379200Y-13036200D02*
X57379200Y-12424600D01*
D49*
X48994000Y-9479500D02*
X48519500Y-9005000D01*
X48768000Y-12192000D02*
X48006000Y-12954000D01*
D51*
X60515748Y-57406300D02*
X60767748Y-57154300D01*
D49*
X48559250Y-8355000D02*
X47582000Y-8355000D01*
D51*
X60220644Y-55422800D02*
X58375744Y-53577900D01*
D49*
X25250000Y-20090000D02*
X26035000Y-20090000D01*
X27365000Y-19805000D02*
X27640000Y-20080000D01*
X48781000Y-10881000D02*
X48994000Y-10668000D01*
X48781000Y-12192000D02*
X48768000Y-12192000D01*
X26035000Y-20090000D02*
X26320000Y-19805000D01*
X48994000Y-9479500D02*
X48994000Y-8789750D01*
X27640000Y-21770000D02*
X27910000Y-22040000D01*
X49022000Y-5607500D02*
X49022000Y-6350000D01*
X48519500Y-5105000D02*
X49022000Y-5607500D01*
X25730000Y-21200000D02*
X25730000Y-20395000D01*
X48958768Y-7955482D02*
X48958768Y-7841232D01*
D51*
X60777948Y-55422800D02*
X60220644Y-55422800D01*
D49*
X48781000Y-12192000D02*
X48781000Y-10881000D01*
X48559250Y-8355000D02*
X48958768Y-7955482D01*
D51*
X55545100Y-53577900D02*
X55540000Y-53583000D01*
X60955748Y-49627700D02*
X60111348Y-50472100D01*
D49*
X48994000Y-8789750D02*
X48559250Y-8355000D01*
D51*
X58375744Y-53577900D02*
X55545100Y-53577900D01*
D49*
X27640000Y-20080000D02*
X27640000Y-21770000D01*
D51*
X60955748Y-55245000D02*
X60777948Y-55422800D01*
X60955748Y-48768000D02*
X60955748Y-49627700D01*
X60955748Y-48768000D02*
X60955748Y-55245000D01*
D49*
X48519500Y-9005000D02*
X47582000Y-9005000D01*
X26320000Y-19805000D02*
X27365000Y-19805000D01*
D51*
X60566548Y-57304700D02*
X60617348Y-57304700D01*
D49*
X48994000Y-10668000D02*
X48994000Y-9479500D01*
D51*
X60767748Y-57154300D02*
X60767748Y-55433000D01*
D49*
X25730000Y-20395000D02*
X26320000Y-19805000D01*
D51*
X60617348Y-57304700D02*
X60767748Y-57154300D01*
D49*
X47582000Y-5105000D02*
X48519500Y-5105000D01*
D51*
X60767748Y-55433000D02*
X60777948Y-55422800D01*
D49*
X53340000Y-13310974D02*
X52401574Y-14249400D01*
D51*
X62430000Y-10205000D02*
X62430000Y-9255000D01*
D49*
X31610000Y-20320000D02*
X36390000Y-15540000D01*
X51174196Y-14249400D02*
X49855213Y-15568383D01*
X36390000Y-15540000D02*
X49826830Y-15540000D01*
X31610000Y-21340000D02*
X31610000Y-20320000D01*
D51*
X60985400Y-10855000D02*
X61780000Y-10855000D01*
D49*
X52401574Y-14249400D02*
X51174196Y-14249400D01*
X49826830Y-15540000D02*
X49855213Y-15568383D01*
X53340000Y-12935000D02*
X53340000Y-13310974D01*
D51*
X61780000Y-10855000D02*
X62430000Y-10205000D01*
D49*
X40565000Y-12755000D02*
X41600000Y-12755000D01*
X40070000Y-12260000D02*
X40440000Y-12630000D01*
X40440000Y-12630000D02*
X40565000Y-12755000D01*
X40310000Y-12760000D02*
X40440000Y-12630000D01*
X41600000Y-12755000D02*
X42575000Y-13730000D01*
X39160000Y-12760000D02*
X40310000Y-12760000D01*
X39160000Y-12260000D02*
X40070000Y-12260000D01*
X38430200Y-36880800D02*
X39852600Y-36880800D01*
X36711200Y-21158200D02*
X37541200Y-21158200D01*
D51*
X63550400Y-7619600D02*
X62633200Y-7619600D01*
D49*
X38870200Y-33258800D02*
X39735800Y-33258800D01*
X37287200Y-31323200D02*
X37383800Y-31419800D01*
D51*
X58861600Y-5757400D02*
X58861600Y-6867800D01*
D49*
X62860000Y-31040000D02*
X62860000Y-29550000D01*
D51*
X58831600Y-6990686D02*
X58836200Y-6986086D01*
X46490000Y-16924400D02*
X46609000Y-17043400D01*
D49*
X31836400Y-36237600D02*
X32046600Y-36237600D01*
D51*
X44289600Y-16924400D02*
X46490000Y-16924400D01*
D49*
X38084800Y-33258800D02*
X37795200Y-32969200D01*
D51*
X59131200Y-8229600D02*
X58831600Y-7930000D01*
X63080000Y-8140000D02*
X62585000Y-7645000D01*
X58321000Y-5216800D02*
X58861600Y-5757400D01*
X40673600Y-20508000D02*
X41442600Y-20508000D01*
X41442600Y-20508000D02*
X41656000Y-20294600D01*
X58831600Y-7930000D02*
X58831600Y-6990686D01*
X63080000Y-9255000D02*
X63080000Y-8140000D01*
D49*
X39735800Y-33258800D02*
X39979600Y-33502600D01*
X62220000Y-28860000D02*
X62360000Y-29000000D01*
X62360000Y-29000000D02*
X62360000Y-31040000D01*
X62320000Y-28255000D02*
X63220000Y-29155000D01*
X41478200Y-29133800D02*
X41859200Y-28752800D01*
D51*
X63601600Y-7670800D02*
X63550400Y-7619600D01*
D49*
X37541200Y-21158200D02*
X37719000Y-20980400D01*
X41168400Y-29133800D02*
X41478200Y-29133800D01*
X37287200Y-30327600D02*
X37287200Y-31323200D01*
X37399000Y-27373000D02*
X37399000Y-28102884D01*
X38870200Y-33258800D02*
X38084800Y-33258800D01*
D51*
X36403600Y-19098000D02*
X37292600Y-18209000D01*
X36159800Y-19098000D02*
X36403600Y-19098000D01*
D49*
X32046600Y-36237600D02*
X32512000Y-36703000D01*
X62320000Y-27320000D02*
X62320000Y-28255000D01*
X37399000Y-28102884D02*
X37617258Y-28321142D01*
X39852600Y-36880800D02*
X39979600Y-37007800D01*
X23020000Y-9882943D02*
X27292943Y-5610000D01*
X42545000Y-7705000D02*
X47582000Y-7705000D01*
X23430000Y-19770000D02*
X23020000Y-19360000D01*
X27292943Y-5610000D02*
X40450000Y-5610000D01*
X40450000Y-5610000D02*
X42545000Y-7705000D01*
X23020000Y-19360000D02*
X23020000Y-9882943D01*
D51*
X63230800Y-19453800D02*
X63230800Y-18391000D01*
X60820000Y-21780000D02*
X60820000Y-20666400D01*
X60820000Y-20666400D02*
X60845400Y-20641000D01*
X56743600Y-20496800D02*
X56743600Y-21563600D01*
X56718200Y-21589000D02*
X56718200Y-20522200D01*
X56718200Y-20522200D02*
X56743600Y-20496800D01*
D49*
X35671800Y-22540000D02*
X35693600Y-22518200D01*
X38354000Y-25273000D02*
X38455600Y-25273000D01*
X44220000Y-25626000D02*
X44344400Y-25501600D01*
X42189400Y-25626000D02*
X44220000Y-25626000D01*
X37696400Y-22518200D02*
X38354000Y-23175800D01*
X38455600Y-25273000D02*
X38808600Y-25626000D01*
X35693600Y-22518200D02*
X37696400Y-22518200D01*
X33810000Y-22540000D02*
X35671800Y-22540000D01*
X38808600Y-25626000D02*
X42189400Y-25626000D01*
X38354000Y-23175800D02*
X38354000Y-25273000D01*
D51*
X59136400Y-11542600D02*
X58861600Y-11267800D01*
X56718200Y-18525400D02*
X56692800Y-18500000D01*
X59139600Y-14900470D02*
X59136400Y-14897270D01*
X59139600Y-16147000D02*
X59139600Y-14900470D01*
X59136400Y-14897270D02*
X59136400Y-11542600D01*
X56718200Y-18568400D02*
X56718200Y-19451400D01*
X59139600Y-16147000D02*
X56718200Y-18568400D01*
D49*
X49650000Y-15140000D02*
X51140000Y-13650000D01*
D51*
X57577316Y-8314540D02*
X57625553Y-8314540D01*
D49*
X53216400Y-12264800D02*
X53700824Y-12264800D01*
X36224315Y-15140000D02*
X49650000Y-15140000D01*
X51831200Y-13650000D02*
X53216400Y-12264800D01*
X31110000Y-20254314D02*
X36224315Y-15140000D01*
X53925400Y-11276400D02*
X55372000Y-9829800D01*
X51140000Y-13650000D02*
X51831200Y-13650000D01*
X53700824Y-12264800D02*
X53925400Y-12040224D01*
X53925400Y-12040224D02*
X53925400Y-11276400D01*
X31110000Y-21340000D02*
X31110000Y-20254314D01*
D51*
X58211600Y-7728493D02*
X58211600Y-6867800D01*
D49*
X55372000Y-9829800D02*
X55397400Y-9804400D01*
D51*
X57625553Y-8314540D02*
X58211600Y-7728493D01*
D49*
X9395000Y-31115000D02*
X8980000Y-30700000D01*
X12700000Y-31115000D02*
X9395000Y-31115000D01*
D51*
X56692800Y-16413200D02*
X56718200Y-16387800D01*
X56718200Y-16434800D02*
X56718200Y-17548400D01*
X58166000Y-20802600D02*
X58166000Y-21914200D01*
D49*
X26820000Y-24040000D02*
X25530000Y-25330000D01*
X16760000Y-35740000D02*
X11695000Y-35740000D01*
X27910000Y-24040000D02*
X26820000Y-24040000D01*
X25530000Y-26970000D02*
X16760000Y-35740000D01*
X25530000Y-25330000D02*
X25530000Y-26970000D01*
X25679400Y-30124400D02*
X25430000Y-30373800D01*
X25430000Y-34180000D02*
X26210000Y-34960000D01*
X25430000Y-30373800D02*
X25430000Y-34180000D01*
X26400000Y-23540000D02*
X27910000Y-23540000D01*
X26210000Y-34960000D02*
X26210000Y-37860000D01*
X25940000Y-24000000D02*
X26400000Y-23540000D01*
X26140000Y-23040000D02*
X24490000Y-21390000D01*
X24490000Y-21390000D02*
X24490000Y-15730000D01*
X27910000Y-23040000D02*
X26140000Y-23040000D01*
X24490000Y-15730000D02*
X24220000Y-15460000D01*
D51*
X43789600Y-22479000D02*
X42773600Y-21463000D01*
X42773600Y-21463000D02*
X40259000Y-21463000D01*
X33110000Y-21093600D02*
X33959800Y-20243800D01*
X33959800Y-20243800D02*
X39065200Y-20243800D01*
X44321000Y-21383600D02*
X44323000Y-21381600D01*
X39090600Y-20294600D02*
X40259000Y-21463000D01*
X44321000Y-22479000D02*
X43789600Y-22479000D01*
X33110000Y-21340000D02*
X33110000Y-21093600D01*
X44321000Y-22479000D02*
X44321000Y-21383600D01*
D49*
X39929000Y-16027400D02*
X42630000Y-18728400D01*
X42630000Y-18728400D02*
X43180000Y-18728400D01*
X32110000Y-20385686D02*
X36468286Y-16027400D01*
D51*
X45512800Y-19278600D02*
X43730200Y-19278600D01*
X45512800Y-19278600D02*
X45512800Y-18177200D01*
X45512800Y-18177200D02*
X45496600Y-18161000D01*
X43730200Y-19278600D02*
X43180000Y-18728400D01*
D49*
X32110000Y-21340000D02*
X32110000Y-20385686D01*
X36468286Y-16027400D02*
X39929000Y-16027400D01*
X10379222Y-42750215D02*
X10299430Y-42698684D01*
X8243611Y-42216938D02*
X8227067Y-42212979D01*
X7499862Y-42055538D02*
X7569200Y-42055538D01*
X8227067Y-42212979D02*
X8223872Y-42212214D01*
X51841400Y-57175400D02*
X51866800Y-57150000D01*
X7866514Y-42126690D02*
X7866514Y-42126691D01*
X8223872Y-42212214D02*
X8211093Y-42209156D01*
X8413389Y-42257569D02*
X8326903Y-42236871D01*
X7986659Y-42155444D02*
X7946611Y-42145860D01*
X6392914Y-42829400D02*
X3479800Y-42829400D01*
X8068810Y-42175104D02*
X8065616Y-42174340D01*
X10299430Y-42698684D02*
X8631641Y-42309801D01*
X52968000Y-56980000D02*
X53000000Y-57012000D01*
X6527800Y-42829400D02*
X6726000Y-42829400D01*
X7828115Y-42117502D02*
X7822364Y-42116125D01*
X8198313Y-42206097D02*
X8188729Y-42203803D01*
X21107509Y-49678714D02*
X44480800Y-55126400D01*
X46558200Y-56845200D02*
X46888400Y-57175400D01*
X8000009Y-42158639D02*
X7986659Y-42155444D01*
X8052266Y-42171145D02*
X8049071Y-42170380D01*
X52131800Y-57012000D02*
X53000000Y-57012000D01*
X51993800Y-57150000D02*
X52131800Y-57012000D01*
X7919912Y-42139470D02*
X7906563Y-42136275D01*
X7834889Y-42119123D02*
X7829140Y-42117747D01*
X6726000Y-42829400D02*
X7499862Y-42055538D01*
X8045877Y-42169616D02*
X8039487Y-42168087D01*
X8065616Y-42174340D02*
X8052266Y-42171145D01*
X7906563Y-42136275D02*
X7879863Y-42129885D01*
X7853164Y-42123496D02*
X7834889Y-42119123D01*
X7879863Y-42129885D02*
X7866514Y-42126690D01*
X8613366Y-42305428D02*
X8612335Y-42305181D01*
X8588311Y-42299432D02*
X8413389Y-42257569D01*
X6527800Y-42829400D02*
X6392914Y-42829400D01*
X10393355Y-42759342D02*
X10379222Y-42750215D01*
X46888400Y-57175400D02*
X51841400Y-57175400D01*
X10299430Y-42698684D02*
X10272491Y-42681286D01*
X8091744Y-42180593D02*
X8072005Y-42175869D01*
X8606587Y-42303806D02*
X8588311Y-42299432D01*
X7829140Y-42117747D02*
X7828115Y-42117502D01*
X8619115Y-42306804D02*
X8613366Y-42305428D01*
X8631641Y-42309801D02*
X9956800Y-42621200D01*
X44480800Y-55126400D02*
X46558200Y-56845200D01*
X8188729Y-42203803D02*
X8137042Y-42191433D01*
X51866800Y-57150000D02*
X51993800Y-57150000D01*
X7946611Y-42145860D02*
X7919912Y-42139470D01*
X8016553Y-42162598D02*
X8000009Y-42158639D01*
X7791567Y-42108755D02*
X7569200Y-42055538D01*
X7809841Y-42113128D02*
X7791567Y-42108755D01*
X8137042Y-42191433D02*
X8137042Y-42191434D01*
X7822364Y-42116125D02*
X7816614Y-42114749D01*
X8072005Y-42175869D02*
X8068810Y-42175104D01*
X8036292Y-42167322D02*
X8019748Y-42163363D01*
X8137042Y-42191434D02*
X8091744Y-42180593D01*
X7816614Y-42114749D02*
X7815591Y-42114504D01*
X7815591Y-42114504D02*
X7809841Y-42113128D01*
X8211093Y-42209156D02*
X8198313Y-42206097D01*
X8624862Y-42308179D02*
X8619115Y-42306804D01*
X8039487Y-42168087D02*
X8036292Y-42167322D01*
X8625891Y-42308425D02*
X8624862Y-42308179D01*
X8326903Y-42236871D02*
X8243611Y-42216938D01*
X8049071Y-42170380D02*
X8045877Y-42169616D01*
X8019748Y-42163363D02*
X8016553Y-42162598D01*
X8612335Y-42305181D02*
X8606587Y-42303806D01*
X8631641Y-42309801D02*
X8625891Y-42308425D01*
X10393355Y-42759342D02*
X21107509Y-49678714D01*
X7866514Y-42126691D02*
X7853164Y-42123496D01*
X44932600Y-54787800D02*
X45085000Y-54940200D01*
X3479800Y-40829400D02*
X6619400Y-40829400D01*
X48452980Y-55780400D02*
X48452980Y-56300400D01*
X7260000Y-41470000D02*
X7484800Y-41470000D01*
X49250600Y-56540400D02*
X49788600Y-56540400D01*
X48692980Y-56540400D02*
X48812980Y-56540400D01*
X45085000Y-54940200D02*
X46964600Y-56540400D01*
X50460000Y-55869000D02*
X49961000Y-55869000D01*
X6619400Y-40829400D02*
X7260000Y-41470000D01*
X21224154Y-49220157D02*
X44932600Y-54787800D01*
X47852980Y-56300400D02*
X47852980Y-55780400D01*
X10384982Y-42212572D02*
X21220000Y-49210000D01*
X7484800Y-41470000D02*
X10384982Y-42212572D01*
X48092980Y-55540400D02*
X48212980Y-55540400D01*
X46964600Y-56540400D02*
X47612980Y-56540400D01*
X48812980Y-56540400D02*
X49250600Y-56540400D01*
X49788600Y-56540400D02*
X50460000Y-55869000D01*
X47852980Y-55780400D02*
G75*
G02*
X48092980Y-55540380I240020J0D01*
G01*
X47612980Y-56540400D02*
G75*
G03*
X47853000Y-56300400I20J240000D01*
G01*
X48212980Y-55540400D02*
G75*
G02*
X48453000Y-55780400I20J-240000D01*
G01*
X48452980Y-56300400D02*
G75*
G03*
X48692980Y-56540420I240020J0D01*
G01*
X47540000Y-53930000D02*
X49130000Y-54550000D01*
X7076444Y-38829400D02*
X7315844Y-38590000D01*
X49130000Y-54550000D02*
X49306000Y-54726000D01*
X49306000Y-54726000D02*
X53000000Y-54726000D01*
X3479800Y-38829400D02*
X7076444Y-38829400D01*
X7315844Y-38590000D02*
X24470000Y-44340000D01*
X36740000Y-51270000D02*
X36980000Y-51400000D01*
X24470000Y-44340000D02*
X36740000Y-51270000D01*
X36980000Y-51400000D02*
X47540000Y-53930000D01*
X24700000Y-43870000D02*
X37220000Y-50860000D01*
X8094216Y-38094777D02*
X8169039Y-37848344D01*
X48290000Y-53530000D02*
X50460000Y-53583000D01*
X8743159Y-38022659D02*
X8668335Y-38269093D01*
X8868239Y-38643311D02*
X8868239Y-38643310D01*
X8094218Y-38094776D02*
X8094216Y-38094777D01*
X8868239Y-38643310D02*
X10016479Y-38991940D01*
X11091268Y-38611383D02*
X10965160Y-38990984D01*
X5739400Y-36829400D02*
X3479800Y-36829400D01*
X6980000Y-38070000D02*
X7720000Y-38294680D01*
X10395759Y-38801820D02*
X10395760Y-38801821D01*
X11155279Y-39370265D02*
X11155278Y-39370266D01*
X8743158Y-38022660D02*
X8743159Y-38022659D01*
X37220000Y-50860000D02*
X48290000Y-53530000D01*
X11155278Y-39370266D02*
X11322355Y-39425769D01*
X11322355Y-39425769D02*
X24700000Y-43870000D01*
X6980000Y-38070000D02*
X5739400Y-36829400D01*
X8543255Y-37648440D02*
X8543256Y-37648442D01*
X11091269Y-38611383D02*
X11091268Y-38611383D01*
X10395760Y-38801821D02*
X10521867Y-38422221D01*
X8543256Y-37648442D02*
G75*
G02*
X8743157Y-38022660I-87156J-287058D01*
G01*
X10965160Y-38990984D02*
G75*
G03*
X11155257Y-39370331I284740J-94616D01*
G01*
X10901149Y-38232101D02*
G75*
G02*
X11091286Y-38611389I-94549J-284699D01*
G01*
X10521867Y-38422221D02*
G75*
G02*
X10901162Y-38232061I284733J-94579D01*
G01*
X8169039Y-37848344D02*
G75*
G02*
X8543255Y-37648439I287061J-87156D01*
G01*
X10016479Y-38991940D02*
G75*
G03*
X10395832Y-38801844I94621J284740D01*
G01*
X7720000Y-38294680D02*
G75*
G03*
X8094281Y-38094795I87200J287080D01*
G01*
X8668335Y-38269093D02*
G75*
G03*
X8868238Y-38643314I287065J-87157D01*
G01*
X33810000Y-23540000D02*
X35224000Y-23540000D01*
X37944164Y-29319800D02*
X38338800Y-29319800D01*
X41558400Y-30206600D02*
X41984200Y-30632400D01*
X35990000Y-27365636D02*
X37944164Y-29319800D01*
X35990000Y-24306000D02*
X35990000Y-27365636D01*
X35224000Y-23540000D02*
X35990000Y-24306000D01*
X38338800Y-29319800D02*
X39225600Y-30206600D01*
X41856600Y-30632400D02*
X40792400Y-31696600D01*
X39225600Y-30206600D02*
X41558400Y-30206600D01*
X41984200Y-30632400D02*
X41856600Y-30632400D01*
D51*
X62589600Y-15341200D02*
X62564200Y-15315800D01*
X62589600Y-16408000D02*
X62589600Y-15341200D01*
X62564200Y-15315800D02*
X62564200Y-13789200D01*
X62564200Y-13789200D02*
X62430000Y-13655000D01*
X61569600Y-15341200D02*
X61544200Y-15315800D01*
X61544200Y-15315800D02*
X61780000Y-15080000D01*
X61780000Y-15080000D02*
X61780000Y-13655000D01*
X61569600Y-16408000D02*
X61569600Y-15341200D01*
D49*
X61130000Y-14741400D02*
X60504800Y-15366600D01*
X61130000Y-13655000D02*
X61130000Y-14741400D01*
X59512200Y-22504400D02*
X56984600Y-25032000D01*
X60147200Y-16841800D02*
X60147200Y-21082000D01*
X59512200Y-21717000D02*
X59512200Y-22504400D01*
X60504800Y-15366600D02*
X60504800Y-16484200D01*
X60147200Y-21082000D02*
X59512200Y-21717000D01*
X60504800Y-16484200D02*
X60147200Y-16841800D01*
X54673200Y-25032000D02*
X53554200Y-26151000D01*
X56984600Y-25032000D02*
X54673200Y-25032000D01*
X53554200Y-26151000D02*
X50460000Y-26151000D01*
D51*
X57561600Y-6867800D02*
X57561600Y-7692800D01*
X56229800Y-7842800D02*
X55803800Y-7416800D01*
X55803800Y-6968000D02*
X55240800Y-6405000D01*
X57561600Y-7692800D02*
X57411600Y-7842800D01*
X55803800Y-7416800D02*
X55803800Y-6968000D01*
D49*
X53458000Y-6405000D02*
X55240800Y-6405000D01*
D51*
X55240800Y-6405000D02*
X55245000Y-6400800D01*
X57411600Y-7842800D02*
X56229800Y-7842800D01*
D49*
X55945000Y-17054600D02*
X55600600Y-17399000D01*
X50684000Y-23865000D02*
X50460000Y-23865000D01*
X55600600Y-17399000D02*
X55600600Y-18948400D01*
X55600600Y-18948400D02*
X50684000Y-23865000D01*
X55945000Y-13648986D02*
X55945000Y-17054600D01*
X56911600Y-10907600D02*
X56911600Y-12682386D01*
X56911600Y-12682386D02*
X55945000Y-13648986D01*
X61655000Y-10205000D02*
X61780000Y-10080000D01*
X55880000Y-9005000D02*
X53458000Y-9005000D01*
X55880000Y-9005000D02*
X57080000Y-10205000D01*
X57080000Y-10205000D02*
X61655000Y-10205000D01*
D51*
X61780000Y-9255000D02*
X61780000Y-10080000D01*
D49*
X24220000Y-23080000D02*
X23430000Y-22290000D01*
X23430000Y-22290000D02*
X23430000Y-20790000D01*
X23020000Y-24420000D02*
X23020000Y-22000000D01*
X24220000Y-25620000D02*
X23020000Y-24420000D01*
X23020000Y-22000000D02*
X22020000Y-21000000D01*
D51*
X11150600Y-24587200D02*
X10117800Y-25620000D01*
X44295600Y-4546600D02*
X43944000Y-4195000D01*
X43944000Y-4195000D02*
X24710200Y-4195000D01*
D49*
X8980000Y-25620000D02*
X9540000Y-25060000D01*
D51*
X10117800Y-25620000D02*
X8980000Y-25620000D01*
X11150600Y-17754600D02*
X11150600Y-24587200D01*
X24710200Y-4195000D02*
X11150600Y-17754600D01*
D49*
X50460000Y-51297000D02*
X53957495Y-51297000D01*
X57565548Y-50444900D02*
X57565548Y-51407900D01*
X57565548Y-51407900D02*
X59098048Y-51407900D01*
D51*
X59827948Y-53547800D02*
X59827948Y-52137800D01*
D49*
X53957495Y-51297000D02*
X55026495Y-50228000D01*
D51*
X59827948Y-52137800D02*
X59188048Y-51497900D01*
D49*
X55026495Y-50228000D02*
X57348648Y-50228000D01*
X57348648Y-50228000D02*
X57565548Y-50444900D01*
X59098048Y-51407900D02*
X59188048Y-51497900D01*
X59650648Y-46537900D02*
X60005748Y-46893000D01*
X57655548Y-46537900D02*
X59650648Y-46537900D01*
X53439505Y-49011000D02*
X54656505Y-47794000D01*
X56399448Y-47794000D02*
X57655548Y-46537900D01*
X54656505Y-47794000D02*
X56399448Y-47794000D01*
X50460000Y-49011000D02*
X53439505Y-49011000D01*
X45209400Y-37084000D02*
X45135800Y-37010400D01*
X46124400Y-37109400D02*
X46149800Y-37084000D01*
X39265800Y-33934400D02*
X37846000Y-33934400D01*
X46149800Y-37084000D02*
X45209400Y-37084000D01*
X45135800Y-37010400D02*
X44173200Y-37973000D01*
X37846000Y-33934400D02*
X35636200Y-31724600D01*
X34484975Y-24540000D02*
X33810000Y-24540000D01*
X44173200Y-37973000D02*
X40944800Y-37973000D01*
X40944800Y-35613400D02*
X39265800Y-33934400D01*
X35290000Y-25345025D02*
X34484975Y-24540000D01*
X35610800Y-31724600D02*
X35290000Y-31403800D01*
X40944800Y-37973000D02*
X40944800Y-35613400D01*
X35636200Y-31724600D02*
X35610800Y-31724600D01*
X35290000Y-31403800D02*
X35290000Y-25345025D01*
X34940000Y-31125400D02*
X34940000Y-25490000D01*
X34735100Y-25285100D02*
X34885000Y-25435000D01*
X34874200Y-31140400D02*
X34925000Y-31140400D01*
X32791400Y-34137600D02*
X32791400Y-33223200D01*
X34766600Y-34137600D02*
X35198400Y-33705800D01*
X34490000Y-25040000D02*
X34735100Y-25285100D01*
X34925000Y-31140400D02*
X34940000Y-31125400D01*
X32791400Y-34137600D02*
X34766600Y-34137600D01*
X33810000Y-25040000D02*
X34490000Y-25040000D01*
X32791400Y-33223200D02*
X34874200Y-31140400D01*
X34940000Y-25490000D02*
X34735100Y-25285100D01*
X35168400Y-34823400D02*
X35168400Y-33735800D01*
X35168400Y-33735800D02*
X35198400Y-33705800D01*
X35640000Y-24616400D02*
X35063600Y-24040000D01*
X42595800Y-33299400D02*
X42545000Y-33350200D01*
X39641400Y-32385000D02*
X36924000Y-32385000D01*
X40970200Y-34213800D02*
X40970200Y-33713800D01*
X43635200Y-33299400D02*
X42595800Y-33299400D01*
X36924000Y-32385000D02*
X35640000Y-31101000D01*
X35640000Y-31101000D02*
X35640000Y-24616400D01*
X42545000Y-33350200D02*
X41833800Y-33350200D01*
X35063600Y-24040000D02*
X33810000Y-24040000D01*
X40970200Y-33713800D02*
X39641400Y-32385000D01*
X41833800Y-33350200D02*
X40970200Y-34213800D01*
X44473400Y-29235400D02*
X44473400Y-28020800D01*
X41353200Y-26263600D02*
X42123400Y-27033800D01*
X36703000Y-26263600D02*
X41353200Y-26263600D01*
X36340000Y-25900600D02*
X36703000Y-26263600D01*
X33810000Y-23040000D02*
X35368200Y-23040000D01*
X44473400Y-28020800D02*
X44503400Y-27990800D01*
X44503400Y-27990800D02*
X43080400Y-27990800D01*
X43080400Y-27990800D02*
X42123400Y-27033800D01*
X36340000Y-24011800D02*
X36340000Y-25900600D01*
X35368200Y-23040000D02*
X36340000Y-24011800D01*
X33810000Y-22040000D02*
X35255686Y-22040000D01*
D51*
X41607800Y-23827800D02*
X43281600Y-23827800D01*
X38811200Y-22113200D02*
X39938000Y-23240000D01*
X43281600Y-23827800D02*
X44369200Y-23827800D01*
X39938000Y-23240000D02*
X41020000Y-23240000D01*
D49*
X35255686Y-22040000D02*
X35328886Y-22113200D01*
D51*
X41020000Y-23240000D02*
X41607800Y-23827800D01*
D49*
X35328886Y-22113200D02*
X38811200Y-22113200D01*
D51*
X44369200Y-23827800D02*
X44371800Y-23825200D01*
X33335200Y-19974800D02*
X36312000Y-16998000D01*
X39525800Y-17975800D02*
X39502400Y-17952400D01*
D49*
X32610000Y-20700000D02*
X33335200Y-19974800D01*
X32610000Y-21340000D02*
X32610000Y-20700000D01*
D51*
X38069200Y-17952400D02*
X37114800Y-16998000D01*
D49*
X33335200Y-19974800D02*
X33405600Y-19904400D01*
D51*
X39525800Y-19021800D02*
X39525800Y-17975800D01*
X36312000Y-16998000D02*
X37114800Y-16998000D01*
X39502400Y-17952400D02*
X38069200Y-17952400D01*
X54444404Y-22609000D02*
X54412152Y-22641252D01*
D49*
X35609732Y-11260000D02*
X34840000Y-11260000D01*
D51*
X31079500Y-28321000D02*
X31110000Y-28290500D01*
D50*
X34210000Y-14160000D02*
X33640000Y-14730000D01*
D49*
X35865000Y-11155000D02*
X35865000Y-11515268D01*
D50*
X34945000Y-14160000D02*
X34210000Y-14160000D01*
D51*
X56718200Y-22609000D02*
X54444404Y-22609000D01*
D49*
X62110000Y-24090000D02*
X63200000Y-24090000D01*
X63200000Y-24090000D02*
X63520000Y-24410000D01*
X35470000Y-10760000D02*
X35865000Y-11155000D01*
D52*
X34945000Y-14160000D02*
X35865000Y-13240000D01*
D50*
X33640000Y-14730000D02*
X33618768Y-14708768D01*
D49*
X35865000Y-11515268D02*
X35609732Y-11260000D01*
D52*
X35865000Y-13240000D02*
X35865000Y-11515268D01*
D49*
X34840000Y-10760000D02*
X35470000Y-10760000D01*
D51*
X31110000Y-28290500D02*
X31110000Y-27240000D01*
D49*
X26890000Y-8300000D02*
X28890000Y-6300000D01*
X47507000Y-9730000D02*
X47582000Y-9655000D01*
X43590000Y-9730000D02*
X47507000Y-9730000D01*
X40160000Y-6300000D02*
X43590000Y-9730000D01*
X26890000Y-8850000D02*
X26890000Y-8300000D01*
X28890000Y-6300000D02*
X40160000Y-6300000D01*
X22020000Y-8270000D02*
X25320000Y-4970000D01*
X25320000Y-4970000D02*
X41270000Y-4970000D01*
X42705000Y-6405000D02*
X47582000Y-6405000D01*
X41270000Y-4970000D02*
X42705000Y-6405000D01*
X22020000Y-19980000D02*
X22020000Y-8270000D01*
X48841686Y-37338000D02*
X49084686Y-37581000D01*
X48183800Y-37084000D02*
X48437800Y-37338000D01*
X50460000Y-37581000D02*
X49084686Y-37581000D01*
X48437800Y-37338000D02*
X48841686Y-37338000D01*
X47169800Y-37084000D02*
X48183800Y-37084000D01*
X43093100Y-30543500D02*
X43004200Y-30632400D01*
X44094400Y-30543500D02*
X45708500Y-30543500D01*
X44094400Y-30543500D02*
X43093100Y-30543500D01*
X45708500Y-30543500D02*
X50460000Y-35295000D01*
X45364400Y-25501600D02*
X45427900Y-25438100D01*
X47300000Y-29849000D02*
X50460000Y-33009000D01*
X46431200Y-25438100D02*
X46758200Y-25438100D01*
X47300000Y-25979900D02*
X47300000Y-29849000D01*
X46758200Y-25438100D02*
X47300000Y-25979900D01*
X45427900Y-25438100D02*
X46431200Y-25438100D01*
X48120900Y-24092500D02*
X46520100Y-22491700D01*
X46520100Y-22491700D02*
X46456600Y-22491700D01*
X48120900Y-28383900D02*
X48120900Y-24092500D01*
X50460000Y-30723000D02*
X48120900Y-28383900D01*
X45353700Y-22491700D02*
X45341000Y-22479000D01*
X46456600Y-22491700D02*
X45353700Y-22491700D01*
X49280000Y-27257000D02*
X49301400Y-27235600D01*
X48615600Y-20078700D02*
X48018700Y-20078700D01*
X47218600Y-19278600D02*
X46532800Y-19278600D01*
X49301400Y-27235600D02*
X49301400Y-20775400D01*
X49301400Y-20775400D02*
X48615600Y-20089600D01*
X50460000Y-28437000D02*
X49280000Y-27257000D01*
X48615600Y-20089600D02*
X48615600Y-20078700D01*
X48018700Y-20078700D02*
X47218600Y-19278600D01*
X60820000Y-24574800D02*
X58100800Y-27294000D01*
D52*
X58100800Y-27294000D02*
X53000000Y-27294000D01*
D49*
X60820000Y-22800000D02*
X60820000Y-24574800D01*
D51*
X56870600Y-23593600D02*
X54414400Y-23593600D01*
X56870600Y-23593600D02*
X57530000Y-22934200D01*
X57530000Y-22934200D02*
X58166000Y-22934200D01*
X54414400Y-23593600D02*
X53000000Y-25008000D01*
D49*
X40653829Y-38863129D02*
X39890700Y-38100000D01*
X36264600Y-34899600D02*
X36188400Y-34823400D01*
X53000000Y-38724000D02*
X48946000Y-38724000D01*
X38501800Y-38100000D02*
X37354800Y-36953000D01*
X48806871Y-38863129D02*
X40653829Y-38863129D01*
X37354800Y-36953000D02*
X37354800Y-34899600D01*
X39890700Y-38100000D02*
X38501800Y-38100000D01*
X37354800Y-34899600D02*
X36264600Y-34899600D01*
X48946000Y-38724000D02*
X48806871Y-38863129D01*
X53000000Y-36438000D02*
X49362000Y-36438000D01*
X49362000Y-36438000D02*
X46274200Y-33350200D01*
X46274200Y-33350200D02*
X45796200Y-33350200D01*
X44706000Y-33350200D02*
X44655200Y-33299400D01*
X45796200Y-33350200D02*
X44706000Y-33350200D01*
X53000000Y-34152000D02*
X49925400Y-34152000D01*
X46558200Y-29235400D02*
X45493400Y-29235400D01*
X46558200Y-30784800D02*
X47269400Y-31496000D01*
X47269400Y-31496000D02*
X49925400Y-34152000D01*
X46558200Y-29235400D02*
X46558200Y-30784800D01*
X45493400Y-29235400D02*
X45544200Y-29286200D01*
X46808200Y-23651400D02*
X47650000Y-24493200D01*
X50020495Y-31866000D02*
X53000000Y-31866000D01*
X45391800Y-23825200D02*
X45565600Y-23651400D01*
X45531500Y-23964900D02*
X45391800Y-23825200D01*
X47650000Y-24493200D02*
X47650000Y-28640000D01*
X47650000Y-28640000D02*
X49020000Y-30010000D01*
X49020000Y-30010000D02*
X49020000Y-30865505D01*
X49020000Y-30865505D02*
X50020495Y-31866000D01*
D51*
X46753400Y-23596600D02*
X46808200Y-23651400D01*
D53*
X46431200Y-23596600D02*
X46753400Y-23596600D01*
X46431200Y-23596600D02*
X45620400Y-23596600D01*
D51*
X45620400Y-23596600D02*
X45391800Y-23825200D01*
D49*
X50020495Y-29580000D02*
X48690000Y-28249505D01*
X48690000Y-21639000D02*
X47472600Y-20421600D01*
X47472600Y-20421600D02*
X45415200Y-20421600D01*
X45415200Y-20421600D02*
X44653200Y-19659600D01*
X48690000Y-28249505D02*
X48690000Y-21639000D01*
X41605200Y-19659600D02*
X40967400Y-19021800D01*
X40967400Y-19021800D02*
X40545800Y-19021800D01*
X53000000Y-29580000D02*
X50020495Y-29580000D01*
X44653200Y-19659600D02*
X41605200Y-19659600D01*
X17160000Y-72132500D02*
X19462500Y-72132500D01*
X19610000Y-71420000D02*
X19610000Y-72200000D01*
X19610000Y-72200000D02*
X19570000Y-72240000D01*
X19462500Y-72132500D02*
X19570000Y-72240000D01*
X20820000Y-66980000D02*
X8980000Y-55140000D01*
D51*
X59546548Y-63763452D02*
X59496000Y-63814000D01*
D49*
X59496000Y-63814000D02*
X56330000Y-66980000D01*
X56330000Y-66980000D02*
X20820000Y-66980000D01*
D51*
X59546548Y-57304700D02*
X59546548Y-63763452D01*
X58877948Y-55422800D02*
X58877948Y-56788500D01*
D49*
X8980000Y-55140000D02*
X8980000Y-51020000D01*
D51*
X58877948Y-56788500D02*
X59495748Y-57406300D01*
X59091348Y-50472100D02*
X59091348Y-48803600D01*
D49*
X62425548Y-48033700D02*
X62425548Y-58507900D01*
X62440000Y-61960000D02*
X56770000Y-67630000D01*
X7830000Y-51496346D02*
X7830000Y-50543654D01*
X56770000Y-67630000D02*
X20760000Y-67630000D01*
D51*
X59091348Y-48803600D02*
X59055748Y-48768000D01*
D49*
X62440000Y-58522352D02*
X62425548Y-58507900D01*
D51*
X60702952Y-47678100D02*
X62069948Y-47678100D01*
D49*
X8980000Y-49465400D02*
X8980000Y-48480000D01*
D51*
X59055748Y-48768000D02*
X59613052Y-48768000D01*
D49*
X8575400Y-49870000D02*
X8980000Y-49465400D01*
D51*
X59613052Y-48768000D02*
X60702952Y-47678100D01*
D49*
X7830000Y-50543654D02*
X8503654Y-49870000D01*
X8600000Y-52266346D02*
X7830000Y-51496346D01*
X8600000Y-55470000D02*
X8600000Y-52266346D01*
X62440000Y-61960000D02*
X62440000Y-58522352D01*
X20760000Y-67630000D02*
X8600000Y-55470000D01*
X8503654Y-49870000D02*
X8575400Y-49870000D01*
D51*
X62069948Y-47678100D02*
X62425548Y-48033700D01*
D49*
X18187500Y-70832500D02*
X18540000Y-70480000D01*
X17160000Y-70832500D02*
X18187500Y-70832500D01*
X27910000Y-25040000D02*
X27235000Y-25040000D01*
X27235000Y-25040000D02*
X26746200Y-25528800D01*
X26746200Y-25528800D02*
X26746200Y-25880600D01*
D51*
X26746200Y-27620627D02*
X21836827Y-32530000D01*
X21836827Y-34841627D02*
X22775200Y-35780000D01*
D49*
X24110000Y-35670000D02*
X24220000Y-35780000D01*
D51*
X22775200Y-35780000D02*
X24220000Y-35780000D01*
X21836827Y-32530000D02*
X21836827Y-34841627D01*
X26746200Y-26900600D02*
X26746200Y-27620627D01*
X23085600Y-37185600D02*
X24220000Y-38320000D01*
X22887400Y-37185600D02*
X23085600Y-37185600D01*
D49*
X27910000Y-24540000D02*
X27030000Y-24540000D01*
X21165300Y-36788300D02*
X21562600Y-37185600D01*
D51*
X21867400Y-37185600D02*
X21562600Y-37185600D01*
D49*
X21165300Y-32239700D02*
X21165300Y-36788300D01*
X26160000Y-27245000D02*
X21165300Y-32239700D01*
X26160000Y-25410000D02*
X26160000Y-27245000D01*
X27030000Y-24540000D02*
X26160000Y-25410000D01*
X9020000Y-35740000D02*
X8980000Y-35780000D01*
X10935000Y-35740000D02*
X9020000Y-35740000D01*
X26200000Y-38880000D02*
X26210000Y-38880000D01*
X24220000Y-40860000D02*
X26200000Y-38880000D01*
D54*
X8750000Y-44310000D02*
X8051800Y-43611800D01*
D55*
X12622500Y-70832500D02*
X14260000Y-70832500D01*
D54*
X8051800Y-43611800D02*
X6781800Y-43611800D01*
D55*
X7213600Y-51657764D02*
X7950000Y-52394164D01*
X11640000Y-69850000D02*
X12622500Y-70832500D01*
D49*
X12011752Y-67310000D02*
X11640000Y-67310000D01*
D55*
X14390000Y-63180000D02*
X11640000Y-65930000D01*
X14390000Y-62360000D02*
X14390000Y-63180000D01*
D49*
X20590000Y-72240000D02*
X20590000Y-70641786D01*
D55*
X8750000Y-44310000D02*
X9260000Y-44820000D01*
X7213600Y-48098482D02*
X7213600Y-51657764D01*
D49*
X19508214Y-69560000D02*
X14261752Y-69560000D01*
X14261752Y-69560000D02*
X12011752Y-67310000D01*
D55*
X7950000Y-52394164D02*
X7950000Y-55920000D01*
D49*
X20590000Y-70641786D02*
X19508214Y-69560000D01*
D55*
X11640000Y-65930000D02*
X11640000Y-67310000D01*
X11640000Y-67310000D02*
X11640000Y-69850000D01*
X7950000Y-55920000D02*
X14390000Y-62360000D01*
X9260000Y-46052082D02*
X7213600Y-48098482D01*
X9260000Y-44820000D02*
X9260000Y-46052082D01*
D49*
X24540000Y-30670000D02*
X24280000Y-30930000D01*
X24280000Y-30930000D02*
X24280000Y-33350000D01*
X25750000Y-8850000D02*
X25870000Y-8850000D01*
X24220000Y-10380000D02*
X25750000Y-8850000D01*
X50180000Y-8556124D02*
X50175194Y-8551318D01*
X47582000Y-7055000D02*
X48915000Y-7055000D01*
X50180000Y-8320000D02*
X50180000Y-8556124D01*
X48915000Y-7055000D02*
X50180000Y-8320000D01*
X17160000Y-72782500D02*
X18232500Y-72782500D01*
X18232500Y-72782500D02*
X18420000Y-72970000D01*
D51*
X38181600Y-19098000D02*
X38069800Y-19098000D01*
D49*
X46456600Y-28854400D02*
X46558200Y-28854400D01*
X37354800Y-34518600D02*
X38385284Y-34518600D01*
X60505000Y-38360000D02*
X60505000Y-37435000D01*
X36495000Y-14160000D02*
X39610000Y-14160000D01*
X53458000Y-7055000D02*
X52325000Y-7055000D01*
X58140000Y-36900000D02*
X58150000Y-36910000D01*
X34250000Y-28740000D02*
X34240000Y-28750000D01*
D51*
X56911600Y-5666200D02*
X57361000Y-5216800D01*
D50*
X32080000Y-71190000D02*
X29298629Y-71190000D01*
D49*
X33810000Y-26040000D02*
X34485000Y-26040000D01*
X43639800Y-24787800D02*
X43281600Y-24787800D01*
X32590000Y-26480000D02*
X33030000Y-26040000D01*
X28610000Y-21340000D02*
X28610000Y-20110000D01*
X45463400Y-27930026D02*
X45463400Y-27990800D01*
X60310000Y-28020000D02*
X59470000Y-28020000D01*
X29860000Y-31003000D02*
X29860000Y-28920000D01*
D51*
X43459400Y-20421600D02*
X43357800Y-20320000D01*
D49*
X41828600Y-32390200D02*
X41706800Y-32512000D01*
X59470000Y-28020000D02*
X59390000Y-27940000D01*
X33746400Y-36237600D02*
X33746400Y-35417800D01*
X28660000Y-19130000D02*
X28780000Y-19010000D01*
X32290000Y-25760000D02*
X30660000Y-24250000D01*
X37302400Y-38928000D02*
X36652200Y-38277800D01*
X26910000Y-22290000D02*
X26900000Y-22290000D01*
D50*
X18737500Y-71482500D02*
X18740000Y-71480000D01*
D49*
X28780000Y-19010000D02*
X28780000Y-18050000D01*
X27910000Y-27270000D02*
X26670000Y-28510000D01*
X60500000Y-37430000D02*
X60700000Y-37430000D01*
X32590000Y-26600000D02*
X32620000Y-26630000D01*
X36158400Y-33705800D02*
X36158400Y-33313600D01*
X37000000Y-11010000D02*
X37000000Y-8835000D01*
X45923200Y-28321000D02*
X46456600Y-28854400D01*
X47231000Y-12192000D02*
X46228000Y-12192000D01*
X39293800Y-31419800D02*
X40109200Y-31419800D01*
X58940000Y-36880000D02*
X58140000Y-36880000D01*
D51*
X57361000Y-5216800D02*
X57361000Y-4477600D01*
X42875200Y-17170400D02*
X42976800Y-17272000D01*
D49*
X48615600Y-19253200D02*
X49047400Y-18821400D01*
X38803000Y-27373000D02*
X39309000Y-27373000D01*
X32610000Y-26640000D02*
X32610000Y-27240000D01*
X44729400Y-27196026D02*
X45463400Y-27930026D01*
X10220000Y-72410000D02*
X10200000Y-72430000D01*
X52025400Y-7055000D02*
X52019200Y-7061200D01*
X27880000Y-28985000D02*
X27055000Y-29810000D01*
D50*
X14260000Y-73170000D02*
X14260000Y-72832500D01*
D49*
X41830000Y-11400000D02*
X42370000Y-11400000D01*
X27640000Y-17690000D02*
X27370000Y-17420000D01*
X59360000Y-30000000D02*
X59030000Y-29670000D01*
X48615600Y-19697700D02*
X48615600Y-19253200D01*
X45796200Y-32969200D02*
X45262800Y-32435800D01*
X40250000Y-9760000D02*
X40476402Y-9533598D01*
X36821400Y-24832600D02*
X36931600Y-24942800D01*
X61860000Y-29865000D02*
X61860000Y-31040000D01*
X36821400Y-23068200D02*
X36821400Y-24832600D01*
D51*
X57664800Y-15414800D02*
X56718200Y-15414800D01*
D49*
X59860000Y-29850000D02*
X59860000Y-31040000D01*
D51*
X38765800Y-19682200D02*
X38181600Y-19098000D01*
D49*
X33370000Y-7960000D02*
X33390000Y-7940000D01*
X27880000Y-28450000D02*
X27880000Y-28985000D01*
D51*
X61070000Y-6760000D02*
X61673200Y-7363200D01*
D49*
X40040000Y-13730000D02*
X39900000Y-13870000D01*
X29860000Y-28920000D02*
X29610000Y-28670000D01*
D51*
X51925000Y-11220000D02*
X51925000Y-12148600D01*
D49*
X38385284Y-34518600D02*
X38395042Y-34508842D01*
D51*
X42868600Y-17272000D02*
X42225000Y-16628400D01*
X46456600Y-22110700D02*
X46139100Y-22110700D01*
D49*
X48437800Y-37719000D02*
X46761400Y-37719000D01*
X37000000Y-8835000D02*
X37800000Y-8035000D01*
D51*
X45694600Y-20802600D02*
X45694600Y-21183600D01*
D49*
X36158400Y-33313600D02*
X35763200Y-32918400D01*
X34535000Y-26090000D02*
X34535000Y-26990000D01*
X40476402Y-9533598D02*
X41158404Y-9533598D01*
X33370000Y-9500000D02*
X33370000Y-7960000D01*
D51*
X40479600Y-17952400D02*
X40479600Y-17518000D01*
D50*
X32090000Y-71200000D02*
X32080000Y-71190000D01*
D49*
X58140000Y-36880000D02*
X58140000Y-36900000D01*
X27910000Y-22540000D02*
X27150000Y-22540000D01*
X42545000Y-32390200D02*
X41828600Y-32390200D01*
X42189400Y-24666000D02*
X41582400Y-24666000D01*
D50*
X26338629Y-74150000D02*
X15240000Y-74150000D01*
D49*
X33746400Y-35417800D02*
X33934400Y-35229800D01*
X60845400Y-19621000D02*
X60846200Y-19621000D01*
X43078400Y-29133800D02*
X43891200Y-29946600D01*
D51*
X58166000Y-19174000D02*
X57810400Y-18818400D01*
D49*
X27890000Y-31640000D02*
X27055000Y-30805000D01*
X60505000Y-37435000D02*
X60500000Y-37430000D01*
X60700000Y-37430000D02*
X61160000Y-36970000D01*
D51*
X7439398Y-44729400D02*
X3479800Y-44729400D01*
D49*
X27150000Y-22540000D02*
X26890000Y-22280000D01*
X46431200Y-25819100D02*
X46431200Y-26314400D01*
D51*
X58180000Y-15930000D02*
X57664800Y-15414800D01*
X51925000Y-12148600D02*
X52070000Y-12293600D01*
D49*
X27055000Y-30805000D02*
X27055000Y-29810000D01*
X27910000Y-26540000D02*
X27910000Y-27270000D01*
X12530000Y-68540000D02*
X12550000Y-68520000D01*
X26910000Y-22290000D02*
X26890000Y-22270000D01*
X39160000Y-9260000D02*
X40295000Y-9260000D01*
X46431200Y-24485600D02*
X46532800Y-24587200D01*
X30660000Y-24250000D02*
X30620000Y-24240000D01*
X41582400Y-24666000D02*
X41427400Y-24511000D01*
X60846200Y-19621000D02*
X61442600Y-19024600D01*
X57920000Y-33175000D02*
X57920000Y-31960000D01*
X45262800Y-32435800D02*
X44348400Y-32435800D01*
X42370000Y-11400000D02*
X42590000Y-11620000D01*
X40763866Y-12230000D02*
X41220000Y-12230000D01*
X48034000Y-10668000D02*
X45720000Y-10668000D01*
D50*
X17160000Y-71482500D02*
X18737500Y-71482500D01*
D49*
X41930000Y-10250000D02*
X42550000Y-10870000D01*
X34250000Y-27880000D02*
X34250000Y-28740000D01*
D51*
X61859200Y-17371000D02*
X63230800Y-17371000D01*
D49*
X49047400Y-18821400D02*
X49098200Y-18770600D01*
D51*
X57361000Y-4477600D02*
X57637800Y-4200800D01*
D49*
X28610000Y-20110000D02*
X28660000Y-20060000D01*
D51*
X51925000Y-11220000D02*
X52850600Y-11220000D01*
D49*
X43891200Y-29946600D02*
X44324302Y-29946600D01*
D50*
X29298629Y-71190000D02*
X26338629Y-74150000D01*
D51*
X61673200Y-7363200D02*
X61673200Y-7619600D01*
X40479600Y-17518000D02*
X40202800Y-17241200D01*
D49*
X11050000Y-72410000D02*
X10220000Y-72410000D01*
X46431200Y-23977600D02*
X46431200Y-24485600D01*
X40293866Y-11760000D02*
X40763866Y-12230000D01*
X57920000Y-31960000D02*
X57920000Y-31940000D01*
X29610000Y-28670000D02*
X29610000Y-27240000D01*
X46431200Y-26314400D02*
X46278800Y-26466800D01*
X39293800Y-31419800D02*
X39243000Y-31419800D01*
X31970000Y-9425000D02*
X31970000Y-7930000D01*
X61110000Y-33200000D02*
X63150000Y-33200000D01*
X46761400Y-37719000D02*
X46177200Y-38303200D01*
X44821783Y-37970400D02*
X44404054Y-38388129D01*
X43916600Y-24511000D02*
X43639800Y-24787800D01*
X40295000Y-9260000D02*
X40470000Y-9085000D01*
D51*
X41095600Y-22840000D02*
X40673600Y-22418000D01*
D49*
X61835000Y-29840000D02*
X61860000Y-29865000D01*
X33310000Y-13070000D02*
X33310000Y-13830000D01*
D51*
X42976800Y-17272000D02*
X42868600Y-17272000D01*
D49*
X41025000Y-13730000D02*
X40040000Y-13730000D01*
X40109200Y-31419800D02*
X40792400Y-30736600D01*
X39610000Y-14160000D02*
X39900000Y-13870000D01*
X46228000Y-12192000D02*
X44958000Y-10922000D01*
X53458000Y-7055000D02*
X52025400Y-7055000D01*
D51*
X52850600Y-11220000D02*
X53365400Y-11734800D01*
D49*
X38844800Y-38928000D02*
X37302400Y-38928000D01*
X61380000Y-26600000D02*
X61480000Y-26500000D01*
D51*
X61130000Y-8140000D02*
X61130000Y-9255000D01*
D49*
X30099000Y-31242000D02*
X29860000Y-31003000D01*
X61380000Y-28030000D02*
X61380000Y-26600000D01*
X30620000Y-24240000D02*
X30860000Y-24290000D01*
X38870200Y-35374000D02*
X38252400Y-35991800D01*
D51*
X58166000Y-19782600D02*
X58166000Y-19174000D01*
X46456600Y-17856200D02*
X46024800Y-17424400D01*
D49*
X63220000Y-26416000D02*
X63220000Y-27605000D01*
X34535000Y-26990000D02*
X34425000Y-27100000D01*
X39243000Y-31419800D02*
X38506400Y-30683200D01*
D51*
X46139100Y-22110700D02*
X45999400Y-21971000D01*
D49*
X59360000Y-31040000D02*
X59360000Y-30000000D01*
D51*
X61625000Y-7645000D02*
X61130000Y-8140000D01*
D49*
X45135800Y-37970400D02*
X44821783Y-37970400D01*
X38303200Y-26873200D02*
X38803000Y-27373000D01*
X34240000Y-28750000D02*
X34240000Y-29795000D01*
X38870200Y-35168800D02*
X38870200Y-34942200D01*
D51*
X8409999Y-45700001D02*
X7439398Y-44729400D01*
D49*
X33030000Y-26040000D02*
X33810000Y-26040000D01*
D50*
X15240000Y-74150000D02*
X14260000Y-73170000D01*
D51*
X56911600Y-6867800D02*
X56911600Y-5666200D01*
D49*
X34485000Y-26040000D02*
X34535000Y-26090000D01*
D51*
X46456600Y-18161000D02*
X46456600Y-17856200D01*
D49*
X27640000Y-19120000D02*
X27640000Y-17690000D01*
X28780000Y-18050000D02*
X28810000Y-18020000D01*
X12530000Y-69310000D02*
X12530000Y-68540000D01*
D51*
X45796200Y-21285200D02*
X45796200Y-21183600D01*
D49*
X44094400Y-31191200D02*
X44348400Y-31445200D01*
D51*
X41480000Y-22840000D02*
X41095600Y-22840000D01*
D49*
X28660000Y-20060000D02*
X28660000Y-19130000D01*
X39160000Y-11760000D02*
X40293866Y-11760000D01*
X33310000Y-13830000D02*
X33300000Y-13840000D01*
X32590000Y-26480000D02*
X32590000Y-26600000D01*
X44094400Y-30924500D02*
X44094400Y-31191200D01*
X26900000Y-22290000D02*
X26890000Y-22280000D01*
X39160000Y-9760000D02*
X40250000Y-9760000D01*
X38870200Y-35168800D02*
X38870200Y-35374000D01*
D51*
X44323000Y-20421600D02*
X43459400Y-20421600D01*
D49*
X41830000Y-10250000D02*
X41930000Y-10250000D01*
D51*
X45694600Y-21183600D02*
X45796200Y-21285200D01*
D49*
X32620000Y-26630000D02*
X32610000Y-26640000D01*
X50430000Y-6390500D02*
X48677050Y-4637550D01*
X48677050Y-4637550D02*
X48609500Y-4570000D01*
D51*
X45315600Y-4546600D02*
X48586100Y-4546600D01*
D49*
X52545500Y-9655000D02*
X50430000Y-7539500D01*
X53458000Y-9655000D02*
X52545500Y-9655000D01*
X50430000Y-7539500D02*
X50430000Y-6390500D01*
D51*
X48586100Y-4546600D02*
X48677050Y-4637550D01*
X6858000Y-61598000D02*
X8980000Y-63720000D01*
X13878600Y-34711600D02*
X13639800Y-34950400D01*
X13878600Y-28341400D02*
X13878600Y-34711600D01*
X6248400Y-60477400D02*
X6858000Y-61087000D01*
X6248400Y-55454516D02*
X6248400Y-60477400D01*
X6131401Y-55337517D02*
X6248400Y-55454516D01*
X6131401Y-54218999D02*
X6858000Y-53492400D01*
X19140000Y-23080000D02*
X13878600Y-28341400D01*
X6131401Y-55337517D02*
X6131401Y-54218999D01*
X6858000Y-61087000D02*
X6858000Y-61598000D01*
G04 #@! TA.AperFunction,Conductor*
G36*
X32209244Y-28305427D02*
G01*
X32212289Y-28310734D01*
X32292201Y-28615638D01*
X32290983Y-28624509D01*
X32285410Y-28629393D01*
X32114527Y-28701100D01*
X32105572Y-28701141D01*
X32105473Y-28701100D01*
X31934589Y-28629393D01*
X31928286Y-28623032D01*
X31927798Y-28615641D01*
X32007711Y-28310734D01*
X32013124Y-28303600D01*
X32019029Y-28302000D01*
X32200971Y-28302000D01*
X32209244Y-28305427D01*
G37*
G04 #@! TD.AperFunction*
G04 #@! TA.AperFunction,Conductor*
G36*
X24380090Y-32753427D02*
G01*
X24382807Y-32757687D01*
X24553330Y-33224694D01*
X24552949Y-33233641D01*
X24546851Y-33239503D01*
X24284511Y-33349115D01*
X24275556Y-33349142D01*
X24275489Y-33349115D01*
X24013148Y-33239503D01*
X24006836Y-33233151D01*
X24006669Y-33224697D01*
X24177193Y-32757686D01*
X24183249Y-32751091D01*
X24188183Y-32750000D01*
X24371817Y-32750000D01*
X24380090Y-32753427D01*
G37*
G04 #@! TD.AperFunction*
G04 #@! TA.AperFunction,Conductor*
G36*
X19808194Y-71502048D02*
G01*
X19814500Y-71508406D01*
X19814890Y-71516164D01*
X19712483Y-71861625D01*
X19706846Y-71868583D01*
X19701265Y-71870000D01*
X19518735Y-71870000D01*
X19510462Y-71866573D01*
X19507517Y-71861625D01*
X19405109Y-71516164D01*
X19406044Y-71507258D01*
X19411803Y-71502049D01*
X19605480Y-71420893D01*
X19614431Y-71420857D01*
X19808194Y-71502048D01*
G37*
G04 #@! TD.AperFunction*
G04 #@! TA.AperFunction,Conductor*
G36*
X48259663Y-12571268D02*
G01*
X48388731Y-12700336D01*
X48392158Y-12708609D01*
X48390741Y-12714190D01*
X48218878Y-13030881D01*
X48211920Y-13036517D01*
X48204162Y-13036128D01*
X48009830Y-12956564D01*
X48003472Y-12950258D01*
X48003435Y-12950169D01*
X47923871Y-12755837D01*
X47923908Y-12746882D01*
X47929115Y-12741123D01*
X48245810Y-12569257D01*
X48254715Y-12568324D01*
X48259663Y-12571268D01*
G37*
G04 #@! TD.AperFunction*
G04 #@! TA.AperFunction,Conductor*
G36*
X11860158Y-67103507D02*
G01*
X12006777Y-67206505D01*
X12011577Y-67214065D01*
X12011752Y-67216079D01*
X12011752Y-67403920D01*
X12008325Y-67412193D01*
X12006777Y-67413494D01*
X11860158Y-67516492D01*
X11851419Y-67518443D01*
X11845179Y-67515211D01*
X11647332Y-67318293D01*
X11643886Y-67310028D01*
X11647293Y-67301746D01*
X11647332Y-67301707D01*
X11845179Y-67104788D01*
X11853461Y-67101381D01*
X11860158Y-67103507D01*
G37*
G04 #@! TD.AperFunction*
G04 #@! TA.AperFunction,Conductor*
G36*
X33925653Y-14104860D02*
G01*
X34264457Y-14443664D01*
X34267884Y-14451937D01*
X34265013Y-14459614D01*
X33856784Y-14929139D01*
X33848770Y-14933134D01*
X33840278Y-14930291D01*
X33839707Y-14929761D01*
X33618061Y-14709475D01*
X33618010Y-14709424D01*
X33398629Y-14488689D01*
X33395228Y-14480405D01*
X33398680Y-14472142D01*
X33400087Y-14470949D01*
X33910547Y-14103635D01*
X33919263Y-14101586D01*
X33925653Y-14104860D01*
G37*
G04 #@! TD.AperFunction*
G04 #@! TA.AperFunction,Conductor*
G36*
X29355479Y-71715713D02*
G01*
X29357124Y-71717075D01*
X29630707Y-71989293D01*
X29630749Y-71989335D01*
X29902924Y-72262875D01*
X29906330Y-72271156D01*
X29902882Y-72279421D01*
X29901237Y-72280783D01*
X29249104Y-72726978D01*
X29240341Y-72728822D01*
X29234224Y-72725595D01*
X28894404Y-72385775D01*
X28890977Y-72377502D01*
X28893021Y-72370895D01*
X29339217Y-71718761D01*
X29346716Y-71713869D01*
X29355479Y-71715713D01*
G37*
G04 #@! TD.AperFunction*
G04 #@! TA.AperFunction,Conductor*
G36*
X31232820Y-27930494D02*
G01*
X31236173Y-27937454D01*
X31278037Y-28308052D01*
X31275561Y-28316657D01*
X31267724Y-28320991D01*
X31266470Y-28321065D01*
X31081886Y-28321988D01*
X31077300Y-28321077D01*
X31077271Y-28321065D01*
X31014223Y-28294608D01*
X30904288Y-28248476D01*
X30897985Y-28242114D01*
X30897561Y-28234488D01*
X30982583Y-27935566D01*
X30988143Y-27928546D01*
X30993837Y-27927067D01*
X31224547Y-27927067D01*
X31232820Y-27930494D01*
G37*
G04 #@! TD.AperFunction*
G04 #@! TA.AperFunction,Conductor*
G36*
X33659244Y-27603427D02*
G01*
X33662289Y-27608734D01*
X33742201Y-27913638D01*
X33740983Y-27922509D01*
X33735410Y-27927393D01*
X33564527Y-27999100D01*
X33555572Y-27999141D01*
X33555473Y-27999100D01*
X33384589Y-27927393D01*
X33378286Y-27921032D01*
X33377798Y-27913641D01*
X33457711Y-27608734D01*
X33463124Y-27601600D01*
X33469029Y-27600000D01*
X33650971Y-27600000D01*
X33659244Y-27603427D01*
G37*
G04 #@! TD.AperFunction*
G04 #@! TA.AperFunction,Conductor*
G36*
X35731643Y-11238186D02*
G01*
X35959902Y-11401228D01*
X35964643Y-11408824D01*
X35962623Y-11417548D01*
X35961430Y-11418966D01*
X35865761Y-11515919D01*
X35865651Y-11516029D01*
X35768698Y-11611698D01*
X35760402Y-11615070D01*
X35752152Y-11611588D01*
X35750963Y-11610175D01*
X35587918Y-11381911D01*
X35585898Y-11373187D01*
X35589164Y-11366840D01*
X35716571Y-11239433D01*
X35724843Y-11236007D01*
X35731643Y-11238186D01*
G37*
G04 #@! TD.AperFunction*
G04 #@! TA.AperFunction,Conductor*
G36*
X13631625Y-69807517D02*
G01*
X13638583Y-69813154D01*
X13640000Y-69818735D01*
X13640000Y-70001264D01*
X13636573Y-70009537D01*
X13631625Y-70012482D01*
X13286164Y-70114890D01*
X13277258Y-70113955D01*
X13272048Y-70108194D01*
X13190893Y-69914519D01*
X13190857Y-69905568D01*
X13272049Y-69711803D01*
X13278406Y-69705499D01*
X13286163Y-69705109D01*
X13631625Y-69807517D01*
G37*
G04 #@! TD.AperFunction*
G04 #@! TA.AperFunction,Conductor*
G36*
X35963362Y-11218695D02*
G01*
X35966630Y-11225045D01*
X36012744Y-11501736D01*
X36010724Y-11510460D01*
X36003126Y-11515200D01*
X36001281Y-11515359D01*
X35865078Y-11516267D01*
X35864922Y-11516267D01*
X35728718Y-11515359D01*
X35720468Y-11511877D01*
X35717096Y-11503581D01*
X35717255Y-11501736D01*
X35763370Y-11225045D01*
X35768111Y-11217447D01*
X35774911Y-11215268D01*
X35955089Y-11215268D01*
X35963362Y-11218695D01*
G37*
G04 #@! TD.AperFunction*
G04 #@! TA.AperFunction,Conductor*
G36*
X49121538Y-5903427D02*
G01*
X49124483Y-5908375D01*
X49226890Y-6253835D01*
X49225955Y-6262741D01*
X49220194Y-6267951D01*
X49026522Y-6349105D01*
X49017567Y-6349142D01*
X49017478Y-6349105D01*
X48823805Y-6267951D01*
X48817499Y-6261593D01*
X48817109Y-6253835D01*
X48919517Y-5908375D01*
X48925154Y-5901417D01*
X48930735Y-5900000D01*
X49113265Y-5900000D01*
X49121538Y-5903427D01*
G37*
G04 #@! TD.AperFunction*
G04 #@! TA.AperFunction,Conductor*
G36*
X33384940Y-27927434D02*
G01*
X33555471Y-27997148D01*
X33561833Y-28003451D01*
X33561862Y-28003521D01*
X33631982Y-28173721D01*
X33631965Y-28182676D01*
X33625621Y-28188996D01*
X33625385Y-28189090D01*
X33424644Y-28266749D01*
X33388859Y-28280593D01*
X33382037Y-28283232D01*
X33377816Y-28284020D01*
X33199640Y-28284020D01*
X33191367Y-28280593D01*
X33187940Y-28272320D01*
X33189351Y-28266749D01*
X33370226Y-27932692D01*
X33377178Y-27927051D01*
X33384940Y-27927434D01*
G37*
G04 #@! TD.AperFunction*
G04 #@! TA.AperFunction,Conductor*
G36*
X12583641Y-30842050D02*
G01*
X12589503Y-30848148D01*
X12699115Y-31110489D01*
X12699142Y-31119444D01*
X12699115Y-31119511D01*
X12589503Y-31381851D01*
X12583151Y-31388163D01*
X12574694Y-31388329D01*
X12440947Y-31339493D01*
X12107687Y-31217806D01*
X12101091Y-31211750D01*
X12100000Y-31206816D01*
X12100000Y-31023183D01*
X12103427Y-31014910D01*
X12107687Y-31012193D01*
X12574697Y-30841669D01*
X12583641Y-30842050D01*
G37*
G04 #@! TD.AperFunction*
G04 #@! TA.AperFunction,Conductor*
G36*
X48762865Y-7760029D02*
G01*
X48781184Y-7767529D01*
X48957274Y-7839624D01*
X48961150Y-7842215D01*
X49108789Y-7991172D01*
X49112179Y-7999460D01*
X49108715Y-8007718D01*
X49107871Y-8008477D01*
X48787961Y-8269225D01*
X48779383Y-8271796D01*
X48772296Y-8268429D01*
X48643272Y-8139405D01*
X48639845Y-8131132D01*
X48640327Y-8127810D01*
X48747216Y-7767527D01*
X48752854Y-7760572D01*
X48761760Y-7759640D01*
X48762865Y-7760029D01*
G37*
G04 #@! TD.AperFunction*
G04 #@! TA.AperFunction,Conductor*
G36*
X8104603Y-56712152D02*
G01*
X8111081Y-56718184D01*
X13882881Y-62489984D01*
X13916366Y-62551307D01*
X13919200Y-62577665D01*
X13919200Y-62962334D01*
X13899515Y-63029373D01*
X13882881Y-63050015D01*
X12418226Y-64514669D01*
X12356903Y-64548154D01*
X12287211Y-64543170D01*
X12231278Y-64501298D01*
X12207606Y-64443174D01*
X12194930Y-64346891D01*
X12139461Y-64212975D01*
X12051221Y-64097979D01*
X11936225Y-64009739D01*
X11936224Y-64009738D01*
X11936222Y-64009737D01*
X11802312Y-63954271D01*
X11802310Y-63954270D01*
X11802309Y-63954270D01*
X11730454Y-63944810D01*
X11658601Y-63935350D01*
X11658599Y-63935350D01*
X11514891Y-63954270D01*
X11514887Y-63954271D01*
X11380977Y-64009737D01*
X11265979Y-64097979D01*
X11177737Y-64212977D01*
X11122271Y-64346887D01*
X11122270Y-64346891D01*
X11103350Y-64490599D01*
X11103350Y-64490600D01*
X11122270Y-64634308D01*
X11122271Y-64634312D01*
X11177737Y-64768222D01*
X11177738Y-64768224D01*
X11177739Y-64768225D01*
X11265979Y-64883221D01*
X11380975Y-64971461D01*
X11514891Y-65026930D01*
X11611175Y-65039606D01*
X11675071Y-65067873D01*
X11713542Y-65126197D01*
X11714373Y-65196062D01*
X11682673Y-65250222D01*
X11665815Y-65267080D01*
X11604497Y-65300565D01*
X11578135Y-65303400D01*
X9449873Y-65303400D01*
X9391420Y-65288758D01*
X9383961Y-65284771D01*
X9383958Y-65284770D01*
X9383957Y-65284769D01*
X9383954Y-65284768D01*
X9185934Y-65224700D01*
X9185932Y-65224699D01*
X9185934Y-65224699D01*
X8980000Y-65204417D01*
X8774067Y-65224699D01*
X8657149Y-65260165D01*
X8576046Y-65284768D01*
X8576043Y-65284769D01*
X8576041Y-65284770D01*
X8576038Y-65284771D01*
X8568580Y-65288758D01*
X8510127Y-65303400D01*
X7899962Y-65303400D01*
X7832923Y-65283715D01*
X7812281Y-65267081D01*
X7682281Y-65137081D01*
X7648796Y-65075758D01*
X7653780Y-65006066D01*
X7682281Y-64961719D01*
X7888597Y-64755403D01*
X7888365Y-64753244D01*
X7895835Y-64727805D01*
X7899398Y-64719201D01*
X7899400Y-64719200D01*
X7899400Y-56805865D01*
X7919085Y-56738826D01*
X7971889Y-56693071D01*
X8041047Y-56683127D01*
X8104603Y-56712152D01*
G37*
G04 #@! TD.AperFunction*
G04 #@! TA.AperFunction,Conductor*
G36*
X13223677Y-46654085D02*
G01*
X13244319Y-46670719D01*
X13882881Y-47309281D01*
X13916366Y-47370604D01*
X13919200Y-47396962D01*
X13919200Y-52953239D01*
X13899515Y-53020278D01*
X13846711Y-53066033D01*
X13777553Y-53075977D01*
X13744765Y-53066519D01*
X13686500Y-53040578D01*
X13686498Y-53040577D01*
X13552841Y-53012168D01*
X13516764Y-53004500D01*
X13343236Y-53004500D01*
X13313483Y-53010824D01*
X13173501Y-53040577D01*
X13173496Y-53040579D01*
X13014977Y-53111157D01*
X13014972Y-53111160D01*
X12874591Y-53213153D01*
X12874589Y-53213155D01*
X12758477Y-53342112D01*
X12671712Y-53492391D01*
X12618093Y-53657420D01*
X12618092Y-53657424D01*
X12599953Y-53830000D01*
X12618092Y-54002576D01*
X12618093Y-54002579D01*
X12671712Y-54167608D01*
X12758477Y-54317887D01*
X12758476Y-54317887D01*
X12758478Y-54317889D01*
X12874590Y-54446845D01*
X13014976Y-54548842D01*
X13173495Y-54619420D01*
X13173501Y-54619422D01*
X13343236Y-54655500D01*
X13343237Y-54655500D01*
X13516762Y-54655500D01*
X13516764Y-54655500D01*
X13686499Y-54619422D01*
X13686501Y-54619420D01*
X13686504Y-54619420D01*
X13744764Y-54593481D01*
X13814014Y-54584196D01*
X13877291Y-54613824D01*
X13914504Y-54672959D01*
X13919200Y-54706760D01*
X13919200Y-54953239D01*
X13899515Y-55020278D01*
X13846711Y-55066033D01*
X13777553Y-55075977D01*
X13744765Y-55066519D01*
X13686500Y-55040578D01*
X13686498Y-55040577D01*
X13548450Y-55011235D01*
X13516764Y-55004500D01*
X13343236Y-55004500D01*
X13313483Y-55010824D01*
X13173501Y-55040577D01*
X13173496Y-55040579D01*
X13014977Y-55111157D01*
X13014972Y-55111160D01*
X12874591Y-55213153D01*
X12874589Y-55213155D01*
X12758477Y-55342112D01*
X12671712Y-55492391D01*
X12618093Y-55657420D01*
X12618092Y-55657424D01*
X12599953Y-55830000D01*
X12618092Y-56002576D01*
X12618093Y-56002579D01*
X12671712Y-56167608D01*
X12758477Y-56317887D01*
X12758476Y-56317887D01*
X12758478Y-56317889D01*
X12874590Y-56446845D01*
X13014976Y-56548842D01*
X13173495Y-56619420D01*
X13173501Y-56619422D01*
X13343236Y-56655500D01*
X13343237Y-56655500D01*
X13516762Y-56655500D01*
X13516764Y-56655500D01*
X13686499Y-56619422D01*
X13686501Y-56619420D01*
X13686504Y-56619420D01*
X13744764Y-56593481D01*
X13814014Y-56584196D01*
X13877291Y-56613824D01*
X13914504Y-56672959D01*
X13919200Y-56706760D01*
X13919200Y-59425577D01*
X13899515Y-59492616D01*
X13846711Y-59538371D01*
X13777553Y-59548315D01*
X13713997Y-59519290D01*
X13707519Y-59513258D01*
X10997998Y-56803737D01*
X10964513Y-56742414D01*
X10969497Y-56672722D01*
X11011369Y-56616789D01*
X11076833Y-56592372D01*
X11136115Y-56602777D01*
X11173495Y-56619420D01*
X11173501Y-56619422D01*
X11343236Y-56655500D01*
X11343237Y-56655500D01*
X11516762Y-56655500D01*
X11516764Y-56655500D01*
X11686499Y-56619422D01*
X11686501Y-56619420D01*
X11686504Y-56619420D01*
X11765618Y-56584196D01*
X11845024Y-56548842D01*
X11985410Y-56446845D01*
X12101522Y-56317889D01*
X12188286Y-56167611D01*
X12241908Y-56002576D01*
X12260047Y-55830000D01*
X12241908Y-55657424D01*
X12188286Y-55492389D01*
X12101522Y-55342111D01*
X11985410Y-55213155D01*
X11845024Y-55111158D01*
X11845023Y-55111157D01*
X11686504Y-55040579D01*
X11686498Y-55040577D01*
X11548450Y-55011235D01*
X11516764Y-55004500D01*
X11343236Y-55004500D01*
X11313483Y-55010824D01*
X11173501Y-55040577D01*
X11173496Y-55040579D01*
X11014977Y-55111157D01*
X11014972Y-55111160D01*
X10874591Y-55213153D01*
X10874589Y-55213155D01*
X10758477Y-55342112D01*
X10671712Y-55492391D01*
X10618093Y-55657420D01*
X10618092Y-55657424D01*
X10599953Y-55830000D01*
X10618092Y-56002576D01*
X10618093Y-56002579D01*
X10661236Y-56135365D01*
X10663231Y-56205206D01*
X10627150Y-56265039D01*
X10564448Y-56295866D01*
X10495034Y-56287901D01*
X10455624Y-56261363D01*
X9266819Y-55072558D01*
X9233334Y-55011235D01*
X9230500Y-54984877D01*
X9230500Y-53830000D01*
X10599953Y-53830000D01*
X10618092Y-54002576D01*
X10618093Y-54002579D01*
X10671712Y-54167608D01*
X10758477Y-54317887D01*
X10758476Y-54317887D01*
X10758478Y-54317889D01*
X10874590Y-54446845D01*
X11014976Y-54548842D01*
X11173495Y-54619420D01*
X11173501Y-54619422D01*
X11343236Y-54655500D01*
X11343237Y-54655500D01*
X11516762Y-54655500D01*
X11516764Y-54655500D01*
X11686499Y-54619422D01*
X11686501Y-54619420D01*
X11686504Y-54619420D01*
X11765618Y-54584196D01*
X11845024Y-54548842D01*
X11985410Y-54446845D01*
X12101522Y-54317889D01*
X12188286Y-54167611D01*
X12241908Y-54002576D01*
X12260047Y-53830000D01*
X12241908Y-53657424D01*
X12188286Y-53492389D01*
X12101522Y-53342111D01*
X11985410Y-53213155D01*
X11845024Y-53111158D01*
X11845023Y-53111157D01*
X11686504Y-53040579D01*
X11686498Y-53040577D01*
X11552841Y-53012168D01*
X11516764Y-53004500D01*
X11343236Y-53004500D01*
X11313483Y-53010824D01*
X11173501Y-53040577D01*
X11173496Y-53040579D01*
X11014977Y-53111157D01*
X11014972Y-53111160D01*
X10874591Y-53213153D01*
X10874589Y-53213155D01*
X10758477Y-53342112D01*
X10671712Y-53492391D01*
X10618093Y-53657420D01*
X10618092Y-53657424D01*
X10599953Y-53830000D01*
X9230500Y-53830000D01*
X9230500Y-52133745D01*
X9250185Y-52066706D01*
X9302989Y-52020951D01*
X9318491Y-52015089D01*
X9383954Y-51995232D01*
X9566450Y-51897685D01*
X9726410Y-51766410D01*
X9857685Y-51606450D01*
X9955232Y-51423954D01*
X10015300Y-51225934D01*
X10035583Y-51020000D01*
X10015300Y-50814066D01*
X9955232Y-50616046D01*
X9857685Y-50433550D01*
X9773762Y-50331289D01*
X9726410Y-50273589D01*
X9566452Y-50142317D01*
X9566453Y-50142317D01*
X9566450Y-50142315D01*
X9383954Y-50044768D01*
X9185934Y-49984700D01*
X9185932Y-49984699D01*
X9185934Y-49984699D01*
X9109133Y-49977135D01*
X9044346Y-49950973D01*
X9003987Y-49893939D01*
X9000871Y-49824139D01*
X9033605Y-49766053D01*
X9104455Y-49695203D01*
X9104458Y-49695202D01*
X9121896Y-49677764D01*
X9121897Y-49677764D01*
X9192364Y-49607297D01*
X9214427Y-49554031D01*
X9258266Y-49499629D01*
X9292988Y-49482825D01*
X9383954Y-49455232D01*
X9566450Y-49357685D01*
X9726410Y-49226410D01*
X9857685Y-49066450D01*
X9955232Y-48883954D01*
X10015300Y-48685934D01*
X10035583Y-48480000D01*
X10015300Y-48274066D01*
X9955232Y-48076046D01*
X9857685Y-47893550D01*
X9805702Y-47830209D01*
X9726410Y-47733589D01*
X9566452Y-47602317D01*
X9566453Y-47602317D01*
X9566450Y-47602315D01*
X9383954Y-47504768D01*
X9185934Y-47444700D01*
X9185932Y-47444699D01*
X9185934Y-47444699D01*
X8998463Y-47426235D01*
X8980000Y-47424417D01*
X8979999Y-47424417D01*
X8819921Y-47440183D01*
X8751275Y-47427164D01*
X8700565Y-47379099D01*
X8683890Y-47311248D01*
X8706546Y-47245153D01*
X8720083Y-47229102D01*
X9278467Y-46670719D01*
X9339790Y-46637234D01*
X9366148Y-46634400D01*
X13156638Y-46634400D01*
X13223677Y-46654085D01*
G37*
G04 #@! TD.AperFunction*
G04 #@! TA.AperFunction,Conductor*
G36*
X50104059Y-8104576D02*
G01*
X50104922Y-8105540D01*
X50327779Y-8384078D01*
X50330272Y-8392678D01*
X50326953Y-8399623D01*
X50179349Y-8548545D01*
X50171091Y-8552009D01*
X50171002Y-8552009D01*
X49962048Y-8551355D01*
X49953786Y-8547902D01*
X49950385Y-8539618D01*
X49955256Y-8241488D01*
X49958680Y-8233409D01*
X50087514Y-8104575D01*
X50095786Y-8101149D01*
X50104059Y-8104576D01*
G37*
G04 #@! TD.AperFunction*
G04 #@! TA.AperFunction,Conductor*
G36*
X11860158Y-67103507D02*
G01*
X12006777Y-67206505D01*
X12011577Y-67214065D01*
X12011752Y-67216079D01*
X12011752Y-67403920D01*
X12008325Y-67412193D01*
X12006777Y-67413494D01*
X11860158Y-67516492D01*
X11851419Y-67518443D01*
X11845179Y-67515211D01*
X11647332Y-67318293D01*
X11643886Y-67310028D01*
X11647293Y-67301746D01*
X11647332Y-67301707D01*
X11845179Y-67104788D01*
X11853461Y-67101381D01*
X11860158Y-67103507D01*
G37*
G04 #@! TD.AperFunction*
G04 #@! TA.AperFunction,Conductor*
G36*
X28575946Y-29060621D02*
G01*
X28579499Y-29068841D01*
X28579500Y-29069019D01*
X28579500Y-29172800D01*
X28576073Y-29181073D01*
X28567800Y-29184500D01*
X28467134Y-29184500D01*
X28458861Y-29181073D01*
X28455434Y-29172800D01*
X28458736Y-29164654D01*
X28551501Y-29069019D01*
X28559403Y-29060872D01*
X28567622Y-29057320D01*
X28575946Y-29060621D01*
G37*
G04 #@! TD.AperFunction*
G04 #@! TA.AperFunction,Conductor*
G36*
X31567044Y-29452323D02*
G01*
X31570461Y-29460116D01*
X31585091Y-29816291D01*
X31582007Y-29824698D01*
X31573881Y-29828461D01*
X31573460Y-29828471D01*
X31387975Y-29829399D01*
X31383389Y-29828488D01*
X31383348Y-29828471D01*
X31336880Y-29808971D01*
X31212882Y-29756938D01*
X31206579Y-29750576D01*
X31206620Y-29741622D01*
X31207186Y-29740460D01*
X31366652Y-29454892D01*
X31373677Y-29449339D01*
X31376867Y-29448896D01*
X31558771Y-29448896D01*
X31567044Y-29452323D01*
G37*
G04 #@! TD.AperFunction*
G04 #@! TA.AperFunction,Conductor*
G36*
X24543399Y-30672415D02*
G01*
X24543446Y-30672462D01*
X24742655Y-30872611D01*
X24746062Y-30880893D01*
X24742616Y-30889158D01*
X24741399Y-30890212D01*
X24383125Y-31159952D01*
X24376088Y-31162305D01*
X24193212Y-31162305D01*
X24184939Y-31158878D01*
X24181512Y-31150605D01*
X24181598Y-31149190D01*
X24238750Y-30680248D01*
X24243153Y-30672452D01*
X24250323Y-30669965D01*
X24535114Y-30669016D01*
X24543399Y-30672415D01*
G37*
G04 #@! TD.AperFunction*
M02*
