G04 #@! TF.GenerationSoftware,KiCad,Pcbnew,8.0.7*
G04 #@! TF.CreationDate,2025-02-07T02:11:16-05:00*
G04 #@! TF.ProjectId,accessory_v3,61636365-7373-46f7-9279-5f76332e6b69,rev?*
G04 #@! TF.SameCoordinates,Original*
G04 #@! TF.FileFunction,Copper,L3,Inr*
G04 #@! TF.FilePolarity,Positive*
%FSLAX46Y46*%
G04 Gerber Fmt 4.6, Leading zero omitted, Abs format (unit mm)*
G04 Created by KiCad (PCBNEW 8.0.7) date 2025-02-07 02:11:16*
%MOMM*%
%LPD*%
G01*
G04 APERTURE LIST*
G04 #@! TA.AperFunction,ComponentPad*
%ADD10C,1.638000*%
G04 #@! TD*
G04 #@! TA.AperFunction,ComponentPad*
%ADD11C,4.801000*%
G04 #@! TD*
G04 #@! TA.AperFunction,ComponentPad*
%ADD12C,1.800000*%
G04 #@! TD*
G04 #@! TA.AperFunction,ComponentPad*
%ADD13C,1.000000*%
G04 #@! TD*
G04 #@! TA.AperFunction,ComponentPad*
%ADD14C,1.350000*%
G04 #@! TD*
G04 #@! TA.AperFunction,ViaPad*
%ADD15C,0.800000*%
G04 #@! TD*
G04 #@! TA.AperFunction,ViaPad*
%ADD16C,0.400000*%
G04 #@! TD*
G04 #@! TA.AperFunction,ViaPad*
%ADD17C,0.450000*%
G04 #@! TD*
G04 #@! TA.AperFunction,ViaPad*
%ADD18C,0.700000*%
G04 #@! TD*
G04 #@! TA.AperFunction,ViaPad*
%ADD19C,0.600000*%
G04 #@! TD*
G04 #@! TA.AperFunction,ViaPad*
%ADD20C,0.650000*%
G04 #@! TD*
G04 APERTURE END LIST*
D10*
X50460000Y-55869000D03*
X50460000Y-53583000D03*
X50460000Y-51297000D03*
X50460000Y-49011000D03*
X50460000Y-46725000D03*
X50460000Y-44439000D03*
X50460000Y-42153000D03*
X50460000Y-39867000D03*
X50460000Y-37581000D03*
X50460000Y-35295000D03*
X50460000Y-33009000D03*
X50460000Y-30723000D03*
X50460000Y-28437000D03*
X50460000Y-26151000D03*
X50460000Y-23865000D03*
X53000000Y-57012000D03*
X53000000Y-54726000D03*
X53000000Y-52440000D03*
X53000000Y-50154000D03*
X53000000Y-47868000D03*
X53000000Y-45582000D03*
X53000000Y-43296000D03*
X53000000Y-41010000D03*
X53000000Y-38724000D03*
X53000000Y-36438000D03*
X53000000Y-34152000D03*
X53000000Y-31866000D03*
X53000000Y-29580000D03*
X53000000Y-27294000D03*
X53000000Y-25008000D03*
X55540000Y-55869000D03*
X55540000Y-53583000D03*
X55540000Y-51297000D03*
X55540000Y-49011000D03*
X55540000Y-46725000D03*
X55540000Y-44439000D03*
X55540000Y-42153000D03*
X55540000Y-39867000D03*
X55540000Y-37581000D03*
X55540000Y-35295000D03*
X55540000Y-33009000D03*
X55540000Y-30723000D03*
X55540000Y-28437000D03*
X55540000Y-26151000D03*
D11*
X53000000Y-63895000D03*
X53000000Y-16855000D03*
D12*
X8980000Y-63720000D03*
X19140000Y-23080000D03*
X24220000Y-48480000D03*
X24220000Y-45936000D03*
X24220000Y-40860000D03*
X24220000Y-38320000D03*
X24220000Y-35780000D03*
X8980000Y-35780000D03*
X8980000Y-48480000D03*
X8980000Y-51020000D03*
X24220000Y-30696000D03*
X24220000Y-25620000D03*
X24220000Y-23080000D03*
X24220000Y-15460000D03*
X24220000Y-12920000D03*
X24220000Y-10380000D03*
X8980000Y-23080000D03*
X8980000Y-25620000D03*
X8980000Y-28160000D03*
X8980000Y-30700000D03*
D13*
X18632000Y-68288000D03*
X15330000Y-68288000D03*
D12*
X24220000Y-68800000D03*
X8980000Y-33240000D03*
X8980000Y-66260000D03*
X16600000Y-23080000D03*
D14*
X13430000Y-53830000D03*
X13430000Y-55830000D03*
X11430000Y-55830000D03*
X11430000Y-53830000D03*
X15430000Y-53830000D03*
X15430000Y-55830000D03*
D12*
X21170000Y-54830000D03*
X21170000Y-52290000D03*
X21680000Y-23080000D03*
X8980000Y-68800000D03*
D15*
X29630000Y-71990000D03*
D16*
X32110000Y-28702000D03*
X33282902Y-28014251D03*
D17*
X13190000Y-69910000D03*
D18*
X30840000Y-10940000D03*
D17*
X56940000Y-9290000D03*
X40868600Y-40020000D03*
D19*
X30784800Y-32334200D03*
D15*
X50215800Y-12446000D03*
D17*
X59697600Y-11051752D03*
D16*
X57895000Y-48844200D03*
D15*
X3950000Y-67120000D03*
X59480000Y-43860000D03*
D17*
X31889700Y-37782500D03*
X57880548Y-53077900D03*
D19*
X55050000Y-8405000D03*
D17*
X63920000Y-39320000D03*
X31634624Y-34851380D03*
X57302400Y-37363400D03*
X48691800Y-32105600D03*
X42138600Y-35179000D03*
D16*
X31385589Y-29828411D03*
D17*
X55570000Y-4800000D03*
X48958768Y-7841232D03*
D15*
X11658600Y-64490600D03*
D17*
X48006000Y-12954000D03*
D15*
X58242200Y-54229000D03*
D17*
X49022000Y-6350000D03*
X30988000Y-15494000D03*
D19*
X25250000Y-20090000D03*
D17*
X27507800Y-70916800D03*
X60985400Y-10855000D03*
X54508400Y-13679500D03*
X49855213Y-15568383D03*
X62320000Y-27320000D03*
X37719000Y-20980400D03*
X59131200Y-8229600D03*
X39979600Y-33502600D03*
X41656000Y-20294600D03*
X46609000Y-17043400D03*
X63601600Y-7670800D03*
X55493098Y-13487400D03*
X41859200Y-28752800D03*
X62220000Y-28860000D03*
X37617258Y-28321142D03*
X37795200Y-32969200D03*
X39979600Y-37007800D03*
X37287200Y-30327600D03*
X37292600Y-18209000D03*
X46431200Y-20921200D03*
X33943000Y-34493200D03*
X55397400Y-9804400D03*
X57577316Y-8314540D03*
D19*
X12700000Y-31115000D03*
X25960000Y-29843800D03*
X25940000Y-24000000D03*
D20*
X33618768Y-14708768D03*
D16*
X31079500Y-28321000D03*
D15*
X63520000Y-24410000D03*
X54412152Y-22641252D03*
D17*
X19610000Y-71420000D03*
D15*
X6781800Y-43611800D03*
D17*
X25476200Y-32258000D03*
D19*
X23537891Y-33637509D03*
D17*
X50175194Y-8551318D03*
D16*
X58150000Y-36910000D03*
D17*
X53111400Y-73101200D03*
D16*
X32340000Y-22690000D03*
D17*
X47777400Y-78511400D03*
D15*
X8409999Y-45700001D03*
D16*
X34425000Y-27100000D03*
D19*
X29890000Y-55170000D03*
D17*
X42590000Y-11620000D03*
X52019200Y-7061200D03*
X36652200Y-38277800D03*
D15*
X49098200Y-18770600D03*
D17*
X59400000Y-74950000D03*
D15*
X58750200Y-19380200D03*
D17*
X12550000Y-68520000D03*
X43357800Y-20320000D03*
X61442600Y-19024600D03*
X9070000Y-20170000D03*
D16*
X29340000Y-23320000D03*
D17*
X33300000Y-13840000D03*
X60500000Y-37430000D03*
X27711400Y-78562200D03*
X58150000Y-72520000D03*
X1651000Y-70231000D03*
X57637800Y-4200800D03*
X61070000Y-6760000D03*
X38658800Y-78613000D03*
X8610600Y-10261600D03*
X41706800Y-32512000D03*
X63220000Y-26416000D03*
X59860000Y-29850000D03*
X31648400Y-33274000D03*
X6756400Y-74650600D03*
X62001400Y-46202600D03*
X42550000Y-10870000D03*
X59030000Y-29670000D03*
X35365400Y-33020000D03*
X46150000Y-21940000D03*
X36931600Y-24942800D03*
X64109600Y-59283600D03*
X5359400Y-70129400D03*
X17856200Y-79095600D03*
X64033400Y-46278800D03*
D19*
X27890000Y-31640000D03*
D17*
X41605200Y-2108200D03*
X14859000Y-19761200D03*
D16*
X32330000Y-24160000D03*
X30040000Y-25790000D03*
D17*
X41158404Y-9533598D03*
X47330000Y-18130000D03*
X44324302Y-29946600D03*
X61569600Y-42646600D03*
X15671800Y-15011400D03*
D19*
X29890000Y-54090000D03*
D17*
X45923200Y-28321000D03*
D19*
X29950000Y-60410000D03*
D17*
X32816800Y-78638400D03*
X61835000Y-29840000D03*
X31970000Y-7930000D03*
X42976800Y-78587600D03*
X45160000Y-20980000D03*
D15*
X56666292Y-14682462D03*
D17*
X40202800Y-17241200D03*
X46177200Y-38303200D03*
D19*
X29930000Y-61560000D03*
D17*
X15519400Y-6273800D03*
X29133800Y-37566600D03*
X41480000Y-22840000D03*
X52070000Y-12293600D03*
X15710000Y-71807500D03*
D19*
X34360000Y-27930000D03*
D17*
X43916600Y-24511000D03*
X33807400Y-37490400D03*
D16*
X29300000Y-25830000D03*
D17*
X38506400Y-30683200D03*
D16*
X29320000Y-24180000D03*
D15*
X32090000Y-71200000D03*
D17*
X1193800Y-66675000D03*
X38765800Y-19682200D03*
X41220000Y-12230000D03*
X56515000Y-78689200D03*
X40470000Y-9085000D03*
D16*
X26890000Y-22280000D03*
D17*
X23418800Y-78841600D03*
X15544800Y-10617200D03*
X44404054Y-38388129D03*
D19*
X26670000Y-28510000D03*
D17*
X63150000Y-33200000D03*
X61480000Y-26500000D03*
X30911800Y-2032000D03*
D16*
X29350000Y-22620000D03*
D17*
X44348400Y-31445200D03*
X21513800Y-9474200D03*
D19*
X18740000Y-71480000D03*
D15*
X6959600Y-34899600D03*
D17*
X37800000Y-8035000D03*
D15*
X61417200Y-17424400D03*
X27370000Y-17420000D03*
D17*
X41427400Y-24511000D03*
X15824200Y-2336800D03*
D19*
X10200000Y-72430000D03*
D17*
X42976800Y-17272000D03*
X33390000Y-7940000D03*
X37039200Y-33883600D03*
X45720000Y-10668000D03*
X36474400Y-37109400D03*
D16*
X29300000Y-25090000D03*
D17*
X26416000Y-2260600D03*
X52044600Y-2006600D03*
X4080000Y-61650000D03*
X21158200Y-14351000D03*
X38252400Y-35991800D03*
X46228000Y-2108200D03*
X64109600Y-52578000D03*
X8915400Y-6273800D03*
X39900000Y-13870000D03*
D15*
X28810000Y-18020000D03*
D17*
X6858000Y-79019400D03*
X46278800Y-26466800D03*
D16*
X57920000Y-31940000D03*
D17*
X36525200Y-41198800D03*
X52806600Y-78536800D03*
X55702200Y-70002400D03*
X59390000Y-27940000D03*
X11709400Y-79019400D03*
X8610600Y-14986000D03*
D19*
X47480000Y-61000000D03*
D17*
X46050200Y-54127400D03*
X35890200Y-2057400D03*
X44729400Y-27196026D03*
D16*
X32320000Y-23440000D03*
D17*
X46532800Y-24587200D03*
X1955800Y-79095600D03*
X58267600Y-67106800D03*
D16*
X32320000Y-24930000D03*
D19*
X30378400Y-31130000D03*
D17*
X46960000Y-32800000D03*
X44958000Y-10922000D03*
X1930400Y-74777600D03*
D16*
X32290000Y-25760000D03*
D17*
X61036200Y-68275200D03*
X38303200Y-26873200D03*
D15*
X10820400Y-49936400D03*
X6858000Y-53492400D03*
X6131401Y-55337517D03*
X5562600Y-47777400D03*
X13639800Y-34950400D03*
G04 #@! TA.AperFunction,Conductor*
G36*
X6630074Y-45551207D02*
G01*
X6677151Y-45602837D01*
X6689696Y-45657481D01*
X6672484Y-52890826D01*
X6652640Y-52957818D01*
X6599727Y-53003448D01*
X6595940Y-53005091D01*
X6580378Y-53011537D01*
X6465379Y-53099779D01*
X6377137Y-53214777D01*
X6321671Y-53348687D01*
X6321670Y-53348691D01*
X6302750Y-53492399D01*
X6302750Y-53492400D01*
X6321670Y-53636108D01*
X6321671Y-53636112D01*
X6377137Y-53770022D01*
X6377138Y-53770024D01*
X6377139Y-53770025D01*
X6465379Y-53885021D01*
X6580375Y-53973261D01*
X6593074Y-53978521D01*
X6647477Y-54022360D01*
X6669543Y-54088654D01*
X6669622Y-54093377D01*
X6667931Y-54804169D01*
X6648087Y-54871161D01*
X6595174Y-54916791D01*
X6525992Y-54926570D01*
X6468446Y-54902250D01*
X6409026Y-54856656D01*
X6409025Y-54856655D01*
X6409023Y-54856654D01*
X6275113Y-54801188D01*
X6275111Y-54801187D01*
X6275110Y-54801187D01*
X6203255Y-54791727D01*
X6131402Y-54782267D01*
X6131400Y-54782267D01*
X5987692Y-54801187D01*
X5987688Y-54801188D01*
X5853778Y-54856654D01*
X5738780Y-54944896D01*
X5650538Y-55059894D01*
X5595072Y-55193804D01*
X5595071Y-55193808D01*
X5576151Y-55337516D01*
X5576151Y-55337517D01*
X5595071Y-55481225D01*
X5595072Y-55481229D01*
X5650538Y-55615139D01*
X5650539Y-55615141D01*
X5650540Y-55615142D01*
X5738780Y-55730138D01*
X5853776Y-55818378D01*
X5987692Y-55873847D01*
X6114681Y-55890565D01*
X6131400Y-55892767D01*
X6131401Y-55892767D01*
X6131402Y-55892767D01*
X6146378Y-55890795D01*
X6275110Y-55873847D01*
X6409026Y-55818378D01*
X6465903Y-55774734D01*
X6531068Y-55749541D01*
X6599513Y-55763579D01*
X6649504Y-55812392D01*
X6665387Y-55873406D01*
X6650000Y-62340000D01*
X10293486Y-62291677D01*
X10360777Y-62310471D01*
X10407228Y-62362663D01*
X10419124Y-62416524D01*
X10400855Y-65056396D01*
X10380707Y-65123298D01*
X10327588Y-65168686D01*
X10276394Y-65179537D01*
X5183536Y-65160462D01*
X5116570Y-65140527D01*
X5071013Y-65087552D01*
X5060000Y-65036463D01*
X5060000Y-63720000D01*
X7924417Y-63720000D01*
X7944699Y-63925932D01*
X7944700Y-63925934D01*
X8004768Y-64123954D01*
X8102315Y-64306450D01*
X8102317Y-64306452D01*
X8233589Y-64466410D01*
X8330209Y-64545702D01*
X8393550Y-64597685D01*
X8576046Y-64695232D01*
X8774066Y-64755300D01*
X8774065Y-64755300D01*
X8792529Y-64757118D01*
X8980000Y-64775583D01*
X9185934Y-64755300D01*
X9383954Y-64695232D01*
X9566450Y-64597685D01*
X9726410Y-64466410D01*
X9857685Y-64306450D01*
X9955232Y-64123954D01*
X10015300Y-63925934D01*
X10035583Y-63720000D01*
X10015300Y-63514066D01*
X9955232Y-63316046D01*
X9857685Y-63133550D01*
X9805702Y-63070209D01*
X9726410Y-62973589D01*
X9566452Y-62842317D01*
X9566453Y-62842317D01*
X9566450Y-62842315D01*
X9383954Y-62744768D01*
X9185934Y-62684700D01*
X9185932Y-62684699D01*
X9185934Y-62684699D01*
X8980000Y-62664417D01*
X8774067Y-62684699D01*
X8576043Y-62744769D01*
X8465898Y-62803643D01*
X8393550Y-62842315D01*
X8393548Y-62842316D01*
X8393547Y-62842317D01*
X8233589Y-62973589D01*
X8102317Y-63133547D01*
X8004769Y-63316043D01*
X7944699Y-63514067D01*
X7924417Y-63720000D01*
X5060000Y-63720000D01*
X5060000Y-59740954D01*
X5060001Y-59740516D01*
X5100165Y-48365893D01*
X5120086Y-48298927D01*
X5173051Y-48253358D01*
X5242244Y-48243659D01*
X5277187Y-48255823D01*
X5277466Y-48255151D01*
X5284977Y-48258262D01*
X5418891Y-48313730D01*
X5545880Y-48330448D01*
X5562599Y-48332650D01*
X5562600Y-48332650D01*
X5562601Y-48332650D01*
X5577577Y-48330678D01*
X5706309Y-48313730D01*
X5840225Y-48258261D01*
X5955221Y-48170021D01*
X6043461Y-48055025D01*
X6098930Y-47921109D01*
X6117850Y-47777400D01*
X6098930Y-47633691D01*
X6043461Y-47499775D01*
X5955221Y-47384779D01*
X5840225Y-47296539D01*
X5840224Y-47296538D01*
X5840222Y-47296537D01*
X5706312Y-47241071D01*
X5706310Y-47241070D01*
X5706309Y-47241070D01*
X5658106Y-47234723D01*
X5594211Y-47206457D01*
X5555740Y-47148132D01*
X5554518Y-47079694D01*
X5580500Y-46982727D01*
X5580500Y-45727273D01*
X5576219Y-45711296D01*
X5577880Y-45641449D01*
X5617041Y-45583586D01*
X5681269Y-45556080D01*
X5692830Y-45555244D01*
X6562559Y-45533226D01*
X6630074Y-45551207D01*
G37*
G04 #@! TD.AperFunction*
G04 #@! TA.AperFunction,Conductor*
G36*
X64599500Y-73875500D02*
G01*
X64579815Y-73942539D01*
X64527011Y-73988294D01*
X64475500Y-73999500D01*
X62340460Y-73999500D01*
X62335506Y-73999401D01*
X62257347Y-73996275D01*
X62257346Y-73996275D01*
X62257343Y-73996275D01*
X62082050Y-74023911D01*
X62082043Y-74023913D01*
X61915516Y-74085214D01*
X61764140Y-74177830D01*
X61633738Y-74298200D01*
X61529327Y-74441694D01*
X61529326Y-74441696D01*
X61454916Y-74602805D01*
X61413368Y-74775322D01*
X61413367Y-74775331D01*
X61412155Y-74805629D01*
X61410099Y-74819153D01*
X61410560Y-74819214D01*
X61409500Y-74827269D01*
X61409500Y-74869514D01*
X61409401Y-74874468D01*
X61407519Y-74921529D01*
X61408430Y-74930358D01*
X61407733Y-74930429D01*
X61409500Y-74944740D01*
X61409500Y-80184135D01*
X61408572Y-80199273D01*
X61408408Y-80200600D01*
X61408865Y-80222972D01*
X61390552Y-80290399D01*
X61338692Y-80337221D01*
X61284891Y-80349500D01*
X1024500Y-80349500D01*
X957461Y-80329815D01*
X911706Y-80277011D01*
X900500Y-80225500D01*
X900500Y-67119999D01*
X3394750Y-67119999D01*
X3394750Y-67120000D01*
X3413670Y-67263708D01*
X3413671Y-67263712D01*
X3469137Y-67397622D01*
X3469138Y-67397624D01*
X3469139Y-67397625D01*
X3557379Y-67512621D01*
X3672375Y-67600861D01*
X3806291Y-67656330D01*
X3933280Y-67673048D01*
X3949999Y-67675250D01*
X3950000Y-67675250D01*
X3950001Y-67675250D01*
X3964977Y-67673278D01*
X4093709Y-67656330D01*
X4227625Y-67600861D01*
X4342621Y-67512621D01*
X4430861Y-67397625D01*
X4486330Y-67263709D01*
X4505250Y-67120000D01*
X4486330Y-66976291D01*
X4430861Y-66842375D01*
X4342621Y-66727379D01*
X4227625Y-66639139D01*
X4227624Y-66639138D01*
X4227622Y-66639137D01*
X4093712Y-66583671D01*
X4093710Y-66583670D01*
X4093709Y-66583670D01*
X4021854Y-66574210D01*
X3950001Y-66564750D01*
X3949999Y-66564750D01*
X3806291Y-66583670D01*
X3806287Y-66583671D01*
X3672377Y-66639137D01*
X3557379Y-66727379D01*
X3469137Y-66842377D01*
X3413671Y-66976287D01*
X3413670Y-66976291D01*
X3394750Y-67119999D01*
X900500Y-67119999D01*
X900500Y-66177713D01*
X920185Y-66110674D01*
X972989Y-66064919D01*
X1017553Y-66053908D01*
X7330000Y-65700000D01*
X7490000Y-71210000D01*
X12770000Y-75840000D01*
X26510000Y-76190000D01*
X33320000Y-70130000D01*
X25940000Y-70030000D01*
X27150000Y-67630000D01*
X56820000Y-67090000D01*
X64599500Y-62898305D01*
X64599500Y-73875500D01*
G37*
G04 #@! TD.AperFunction*
G04 #@! TA.AperFunction,Conductor*
G36*
X54475401Y-9330867D02*
G01*
X54475400Y-9330868D01*
X54475679Y-9417231D01*
X54475679Y-9417235D01*
X54477342Y-9933531D01*
X54477342Y-9933527D01*
X54477343Y-9933533D01*
X54478202Y-10200101D01*
X54401279Y-10199415D01*
X54401280Y-10199414D01*
X54270052Y-10198246D01*
X54270051Y-10198246D01*
X46610000Y-10130000D01*
X46592994Y-8551315D01*
X49744390Y-8551315D01*
X49744390Y-8551320D01*
X49765473Y-8684439D01*
X49765474Y-8684442D01*
X49765475Y-8684444D01*
X49817803Y-8787143D01*
X49826667Y-8804539D01*
X49826670Y-8804543D01*
X49921968Y-8899841D01*
X49921972Y-8899844D01*
X49921974Y-8899846D01*
X50042068Y-8961037D01*
X50042070Y-8961037D01*
X50042072Y-8961038D01*
X50175192Y-8982122D01*
X50175194Y-8982122D01*
X50175196Y-8982122D01*
X50308315Y-8961038D01*
X50308315Y-8961037D01*
X50308320Y-8961037D01*
X50428414Y-8899846D01*
X50523722Y-8804538D01*
X50584913Y-8684444D01*
X50605998Y-8551318D01*
X50605386Y-8547457D01*
X50584914Y-8418196D01*
X50584913Y-8418194D01*
X50584913Y-8418192D01*
X50523722Y-8298098D01*
X50523720Y-8298096D01*
X50523717Y-8298092D01*
X50428419Y-8202794D01*
X50428415Y-8202791D01*
X50428414Y-8202790D01*
X50308320Y-8141599D01*
X50308318Y-8141598D01*
X50308315Y-8141597D01*
X50175196Y-8120514D01*
X50175192Y-8120514D01*
X50042072Y-8141597D01*
X49921972Y-8202791D01*
X49921968Y-8202794D01*
X49826670Y-8298092D01*
X49826667Y-8298096D01*
X49765473Y-8418196D01*
X49744390Y-8551315D01*
X46592994Y-8551315D01*
X46585345Y-7841229D01*
X48527964Y-7841229D01*
X48527964Y-7841234D01*
X48549047Y-7974353D01*
X48549048Y-7974356D01*
X48549049Y-7974358D01*
X48610240Y-8094452D01*
X48610241Y-8094453D01*
X48610244Y-8094457D01*
X48705542Y-8189755D01*
X48705546Y-8189758D01*
X48705548Y-8189760D01*
X48825642Y-8250951D01*
X48825644Y-8250951D01*
X48825646Y-8250952D01*
X48958766Y-8272036D01*
X48958768Y-8272036D01*
X48958770Y-8272036D01*
X49091889Y-8250952D01*
X49091889Y-8250951D01*
X49091894Y-8250951D01*
X49211988Y-8189760D01*
X49307296Y-8094452D01*
X49368487Y-7974358D01*
X49368488Y-7974353D01*
X49389572Y-7841234D01*
X49389572Y-7841229D01*
X49368488Y-7708110D01*
X49368487Y-7708108D01*
X49368487Y-7708106D01*
X49307296Y-7588012D01*
X49307294Y-7588010D01*
X49307291Y-7588006D01*
X49211993Y-7492708D01*
X49211989Y-7492705D01*
X49211988Y-7492704D01*
X49091894Y-7431513D01*
X49091892Y-7431512D01*
X49091889Y-7431511D01*
X48958770Y-7410428D01*
X48958766Y-7410428D01*
X48825646Y-7431511D01*
X48705546Y-7492705D01*
X48705542Y-7492708D01*
X48610244Y-7588006D01*
X48610241Y-7588010D01*
X48549047Y-7708110D01*
X48527964Y-7841229D01*
X46585345Y-7841229D01*
X46569282Y-6349997D01*
X48591196Y-6349997D01*
X48591196Y-6350002D01*
X48612279Y-6483121D01*
X48612280Y-6483124D01*
X48612281Y-6483126D01*
X48673472Y-6603220D01*
X48673473Y-6603221D01*
X48673476Y-6603225D01*
X48768774Y-6698523D01*
X48768778Y-6698526D01*
X48768780Y-6698528D01*
X48888874Y-6759719D01*
X48888876Y-6759719D01*
X48888878Y-6759720D01*
X49021998Y-6780804D01*
X49022000Y-6780804D01*
X49022002Y-6780804D01*
X49155121Y-6759720D01*
X49155121Y-6759719D01*
X49155126Y-6759719D01*
X49275220Y-6698528D01*
X49370528Y-6603220D01*
X49431719Y-6483126D01*
X49452804Y-6350000D01*
X49431719Y-6216874D01*
X49370528Y-6096780D01*
X49370526Y-6096778D01*
X49370523Y-6096774D01*
X49275225Y-6001476D01*
X49275221Y-6001473D01*
X49275220Y-6001472D01*
X49155126Y-5940281D01*
X49155124Y-5940280D01*
X49155121Y-5940279D01*
X49022002Y-5919196D01*
X49021998Y-5919196D01*
X48888878Y-5940279D01*
X48768778Y-6001473D01*
X48768774Y-6001476D01*
X48673476Y-6096774D01*
X48673473Y-6096778D01*
X48612279Y-6216878D01*
X48591196Y-6349997D01*
X46569282Y-6349997D01*
X46550000Y-4560000D01*
X54460000Y-4550000D01*
X54475401Y-9330867D01*
G37*
G04 #@! TD.AperFunction*
G04 #@! TA.AperFunction,Conductor*
G36*
X49917010Y-420185D02*
G01*
X49962765Y-472989D01*
X49973314Y-511763D01*
X50024965Y-1012026D01*
X50390785Y-4555142D01*
X50390786Y-4555141D01*
X50390786Y-4555144D01*
X46550000Y-4560000D01*
X46610000Y-10130000D01*
X54270051Y-10198246D01*
X53700486Y-12338646D01*
X53664224Y-12398369D01*
X53613849Y-12426234D01*
X50811037Y-13204933D01*
X50788581Y-13208992D01*
X50519496Y-13232379D01*
X50451004Y-13218573D01*
X50400848Y-13169929D01*
X50384954Y-13101892D01*
X50408367Y-13036062D01*
X50461304Y-12994285D01*
X50518641Y-12970536D01*
X50644082Y-12874282D01*
X50740336Y-12748841D01*
X50800844Y-12602762D01*
X50821482Y-12446000D01*
X50800844Y-12289238D01*
X50740336Y-12143159D01*
X50644082Y-12017718D01*
X50518641Y-11921464D01*
X50372562Y-11860956D01*
X50372560Y-11860955D01*
X50215801Y-11840318D01*
X50215799Y-11840318D01*
X50059039Y-11860955D01*
X50059037Y-11860956D01*
X49912960Y-11921463D01*
X49787518Y-12017718D01*
X49691263Y-12143160D01*
X49630756Y-12289237D01*
X49630755Y-12289239D01*
X49610118Y-12445998D01*
X49610118Y-12446001D01*
X49630755Y-12602760D01*
X49630756Y-12602762D01*
X49678040Y-12716917D01*
X49691264Y-12748841D01*
X49787518Y-12874282D01*
X49912959Y-12970536D01*
X50059038Y-13031044D01*
X50059039Y-13031044D01*
X50066547Y-13034154D01*
X50066030Y-13035399D01*
X50118422Y-13067332D01*
X50148954Y-13130178D01*
X50140661Y-13199554D01*
X50096177Y-13253433D01*
X50037408Y-13274279D01*
X48469866Y-13410519D01*
X48456333Y-13410953D01*
X48447201Y-13410747D01*
X48380622Y-13389556D01*
X48336070Y-13335734D01*
X48327688Y-13266368D01*
X48349679Y-13213894D01*
X48354522Y-13207225D01*
X48354528Y-13207220D01*
X48415719Y-13087126D01*
X48424109Y-13034154D01*
X48436804Y-12954002D01*
X48436804Y-12953997D01*
X48415720Y-12820878D01*
X48415719Y-12820876D01*
X48415719Y-12820874D01*
X48354528Y-12700780D01*
X48354526Y-12700778D01*
X48354523Y-12700774D01*
X48259225Y-12605476D01*
X48259221Y-12605473D01*
X48259220Y-12605472D01*
X48139126Y-12544281D01*
X48139124Y-12544280D01*
X48139121Y-12544279D01*
X48006002Y-12523196D01*
X48005998Y-12523196D01*
X47872878Y-12544279D01*
X47752778Y-12605473D01*
X47752774Y-12605476D01*
X47657476Y-12700774D01*
X47657473Y-12700778D01*
X47596279Y-12820878D01*
X47575196Y-12953997D01*
X47575196Y-12954002D01*
X47596279Y-13087123D01*
X47658977Y-13210175D01*
X47671873Y-13278844D01*
X47645596Y-13343584D01*
X47588490Y-13383841D01*
X47545699Y-13390438D01*
X45144977Y-13336351D01*
X45078398Y-13315161D01*
X45048834Y-13287133D01*
X43971277Y-11860955D01*
X40767000Y-7620000D01*
X40766999Y-7620000D01*
X36576000Y-7620000D01*
X36589880Y-13608394D01*
X36570351Y-13675479D01*
X36553471Y-13696453D01*
X31750000Y-18489999D01*
X31677717Y-19243130D01*
X31677717Y-19243133D01*
X31543825Y-20638200D01*
X27290000Y-20650000D01*
X27290000Y-27910000D01*
X30849241Y-27875299D01*
X30841866Y-27952158D01*
X30815866Y-28017010D01*
X30806116Y-28027991D01*
X30751449Y-28082659D01*
X30711308Y-28161439D01*
X30663333Y-28212235D01*
X30629800Y-28225710D01*
X25993945Y-29339867D01*
X25964969Y-29343300D01*
X25888036Y-29343300D01*
X25749949Y-29383845D01*
X25628873Y-29461656D01*
X25534623Y-29570426D01*
X25534622Y-29570428D01*
X25474834Y-29701343D01*
X25454353Y-29843800D01*
X25474834Y-29986256D01*
X25515080Y-30074380D01*
X25534623Y-30117173D01*
X25628872Y-30225943D01*
X25749947Y-30303753D01*
X25749950Y-30303754D01*
X25749949Y-30303754D01*
X25888036Y-30344299D01*
X25888038Y-30344300D01*
X26017595Y-30344300D01*
X26084634Y-30363985D01*
X26130389Y-30416789D01*
X26141049Y-30456680D01*
X26739870Y-36818621D01*
X26740098Y-36821369D01*
X27164712Y-42740763D01*
X27149875Y-42809039D01*
X27100480Y-42858455D01*
X27032210Y-42873321D01*
X27001818Y-42867272D01*
X24894273Y-42164757D01*
X24867277Y-42151965D01*
X24716419Y-42056701D01*
X24670246Y-42004263D01*
X24659753Y-41935186D01*
X24688271Y-41871401D01*
X24717346Y-41846432D01*
X24886041Y-41741981D01*
X25036764Y-41604579D01*
X25159673Y-41441821D01*
X25250582Y-41259250D01*
X25306397Y-41063083D01*
X25325215Y-40860000D01*
X25306397Y-40656917D01*
X25250582Y-40460750D01*
X25235130Y-40429719D01*
X25163376Y-40285616D01*
X25159673Y-40278179D01*
X25100704Y-40200091D01*
X25036762Y-40115418D01*
X24886041Y-39978019D01*
X24886039Y-39978017D01*
X24712642Y-39870655D01*
X24712635Y-39870651D01*
X24617546Y-39833814D01*
X24522456Y-39796976D01*
X24321976Y-39759500D01*
X24118024Y-39759500D01*
X23917544Y-39796976D01*
X23917541Y-39796976D01*
X23917541Y-39796977D01*
X23727364Y-39870651D01*
X23727357Y-39870655D01*
X23553960Y-39978017D01*
X23553958Y-39978019D01*
X23403237Y-40115418D01*
X23280327Y-40278178D01*
X23189422Y-40460739D01*
X23189417Y-40460752D01*
X23133602Y-40656918D01*
X23117226Y-40833653D01*
X23091440Y-40898590D01*
X23034639Y-40939278D01*
X22964858Y-40942798D01*
X22927547Y-40927057D01*
X18941606Y-38410000D01*
X18524328Y-38319999D01*
X23114785Y-38319999D01*
X23114785Y-38320000D01*
X23133602Y-38523082D01*
X23189417Y-38719247D01*
X23189422Y-38719260D01*
X23280327Y-38901821D01*
X23403237Y-39064581D01*
X23553958Y-39201980D01*
X23553960Y-39201982D01*
X23653141Y-39263392D01*
X23727363Y-39309348D01*
X23917544Y-39383024D01*
X24118024Y-39420500D01*
X24118026Y-39420500D01*
X24321974Y-39420500D01*
X24321976Y-39420500D01*
X24522456Y-39383024D01*
X24712637Y-39309348D01*
X24886041Y-39201981D01*
X25036764Y-39064579D01*
X25159673Y-38901821D01*
X25250582Y-38719250D01*
X25306397Y-38523083D01*
X25325215Y-38320000D01*
X25309912Y-38154856D01*
X25306397Y-38116917D01*
X25283294Y-38035720D01*
X25250582Y-37920750D01*
X25159673Y-37738179D01*
X25036764Y-37575421D01*
X25036762Y-37575418D01*
X24886041Y-37438019D01*
X24886039Y-37438017D01*
X24712642Y-37330655D01*
X24712635Y-37330651D01*
X24607146Y-37289785D01*
X24522456Y-37256976D01*
X24321976Y-37219500D01*
X24118024Y-37219500D01*
X23917544Y-37256976D01*
X23917541Y-37256976D01*
X23917541Y-37256977D01*
X23727364Y-37330651D01*
X23727357Y-37330655D01*
X23553960Y-37438017D01*
X23553958Y-37438019D01*
X23403237Y-37575418D01*
X23280327Y-37738178D01*
X23189422Y-37920739D01*
X23189417Y-37920752D01*
X23133602Y-38116917D01*
X23114785Y-38319999D01*
X18524328Y-38319999D01*
X10029667Y-36487821D01*
X9968285Y-36454444D01*
X9934692Y-36393180D01*
X9939553Y-36323480D01*
X9944811Y-36311336D01*
X10010577Y-36179260D01*
X10010576Y-36179260D01*
X10010582Y-36179250D01*
X10066397Y-35983083D01*
X10085215Y-35780000D01*
X10085215Y-35779999D01*
X23114785Y-35779999D01*
X23114785Y-35780000D01*
X23133602Y-35983082D01*
X23189417Y-36179247D01*
X23189422Y-36179260D01*
X23280327Y-36361821D01*
X23403237Y-36524581D01*
X23553958Y-36661980D01*
X23553960Y-36661982D01*
X23653141Y-36723392D01*
X23727363Y-36769348D01*
X23917544Y-36843024D01*
X24118024Y-36880500D01*
X24118026Y-36880500D01*
X24321974Y-36880500D01*
X24321976Y-36880500D01*
X24522456Y-36843024D01*
X24712637Y-36769348D01*
X24886041Y-36661981D01*
X25036764Y-36524579D01*
X25159673Y-36361821D01*
X25250582Y-36179250D01*
X25306397Y-35983083D01*
X25325215Y-35780000D01*
X25306397Y-35576917D01*
X25250582Y-35380750D01*
X25249552Y-35378682D01*
X25187089Y-35253239D01*
X25159673Y-35198179D01*
X25090939Y-35107160D01*
X25036762Y-35035418D01*
X24886041Y-34898019D01*
X24886039Y-34898017D01*
X24712642Y-34790655D01*
X24712635Y-34790651D01*
X24545378Y-34725856D01*
X24522456Y-34716976D01*
X24321976Y-34679500D01*
X24118024Y-34679500D01*
X23917544Y-34716976D01*
X23917541Y-34716976D01*
X23917541Y-34716977D01*
X23727364Y-34790651D01*
X23727357Y-34790655D01*
X23553960Y-34898017D01*
X23553958Y-34898019D01*
X23403237Y-35035418D01*
X23280327Y-35198178D01*
X23189422Y-35380739D01*
X23189417Y-35380752D01*
X23133602Y-35576917D01*
X23114785Y-35779999D01*
X10085215Y-35779999D01*
X10066397Y-35576917D01*
X10010582Y-35380750D01*
X10009552Y-35378682D01*
X9947089Y-35253239D01*
X9919673Y-35198179D01*
X9850939Y-35107160D01*
X9796762Y-35035418D01*
X9703499Y-34950398D01*
X13034118Y-34950398D01*
X13034118Y-34950401D01*
X13054755Y-35107160D01*
X13054756Y-35107162D01*
X13092456Y-35198179D01*
X13115264Y-35253241D01*
X13211518Y-35378682D01*
X13336959Y-35474936D01*
X13483038Y-35535444D01*
X13561419Y-35545763D01*
X13639799Y-35556082D01*
X13639800Y-35556082D01*
X13639801Y-35556082D01*
X13692054Y-35549202D01*
X13796562Y-35535444D01*
X13942641Y-35474936D01*
X14068082Y-35378682D01*
X14164336Y-35253241D01*
X14224844Y-35107162D01*
X14245482Y-34950400D01*
X14224844Y-34793638D01*
X14164336Y-34647559D01*
X14068082Y-34522118D01*
X13942641Y-34425864D01*
X13796562Y-34365356D01*
X13796560Y-34365355D01*
X13639801Y-34344718D01*
X13639799Y-34344718D01*
X13483039Y-34365355D01*
X13483037Y-34365356D01*
X13336960Y-34425863D01*
X13211518Y-34522118D01*
X13115263Y-34647560D01*
X13054756Y-34793637D01*
X13054755Y-34793639D01*
X13034118Y-34950398D01*
X9703499Y-34950398D01*
X9646041Y-34898019D01*
X9646039Y-34898017D01*
X9472642Y-34790655D01*
X9472635Y-34790651D01*
X9305378Y-34725856D01*
X9282456Y-34716976D01*
X9081976Y-34679500D01*
X8878024Y-34679500D01*
X8677544Y-34716976D01*
X8677541Y-34716976D01*
X8677541Y-34716977D01*
X8487364Y-34790651D01*
X8487357Y-34790655D01*
X8313960Y-34898017D01*
X8313958Y-34898019D01*
X8163237Y-35035418D01*
X8040327Y-35198178D01*
X7949422Y-35380739D01*
X7949417Y-35380752D01*
X7893602Y-35576917D01*
X7874785Y-35779999D01*
X7874785Y-35780001D01*
X7882171Y-35859713D01*
X7868756Y-35928283D01*
X7820399Y-35978715D01*
X7752452Y-35994997D01*
X7732556Y-35992367D01*
X6068389Y-35633430D01*
X6007007Y-35600053D01*
X5973414Y-35538789D01*
X5970536Y-35513024D01*
X5958423Y-33637509D01*
X23032244Y-33637509D01*
X23052725Y-33779965D01*
X23085225Y-33851128D01*
X23112514Y-33910882D01*
X23206763Y-34019652D01*
X23327838Y-34097462D01*
X23327841Y-34097463D01*
X23327840Y-34097463D01*
X23465927Y-34138008D01*
X23465929Y-34138009D01*
X23465930Y-34138009D01*
X23609853Y-34138009D01*
X23609853Y-34138008D01*
X23747944Y-34097462D01*
X23869019Y-34019652D01*
X23963268Y-33910882D01*
X24023056Y-33779966D01*
X24043538Y-33637509D01*
X24023056Y-33495052D01*
X23963268Y-33364136D01*
X23869019Y-33255366D01*
X23747944Y-33177556D01*
X23747942Y-33177555D01*
X23747940Y-33177554D01*
X23747941Y-33177554D01*
X23609854Y-33137009D01*
X23609852Y-33137009D01*
X23465930Y-33137009D01*
X23465927Y-33137009D01*
X23327840Y-33177554D01*
X23206764Y-33255365D01*
X23112514Y-33364135D01*
X23112513Y-33364137D01*
X23052725Y-33495052D01*
X23032244Y-33637509D01*
X5958423Y-33637509D01*
X5949513Y-32257997D01*
X25045396Y-32257997D01*
X25045396Y-32258002D01*
X25066479Y-32391121D01*
X25066480Y-32391124D01*
X25066481Y-32391126D01*
X25127672Y-32511220D01*
X25127673Y-32511221D01*
X25127676Y-32511225D01*
X25222974Y-32606523D01*
X25222978Y-32606526D01*
X25222980Y-32606528D01*
X25343074Y-32667719D01*
X25343076Y-32667719D01*
X25343078Y-32667720D01*
X25476198Y-32688804D01*
X25476200Y-32688804D01*
X25476202Y-32688804D01*
X25609321Y-32667720D01*
X25609321Y-32667719D01*
X25609326Y-32667719D01*
X25729420Y-32606528D01*
X25824728Y-32511220D01*
X25885919Y-32391126D01*
X25894935Y-32334200D01*
X25907004Y-32258002D01*
X25907004Y-32257997D01*
X25885920Y-32124878D01*
X25885919Y-32124876D01*
X25885919Y-32124874D01*
X25824728Y-32004780D01*
X25824726Y-32004778D01*
X25824723Y-32004774D01*
X25729425Y-31909476D01*
X25729421Y-31909473D01*
X25729420Y-31909472D01*
X25609326Y-31848281D01*
X25609324Y-31848280D01*
X25609321Y-31848279D01*
X25476202Y-31827196D01*
X25476198Y-31827196D01*
X25343078Y-31848279D01*
X25222978Y-31909473D01*
X25222974Y-31909476D01*
X25127676Y-32004774D01*
X25127673Y-32004778D01*
X25066479Y-32124878D01*
X25045396Y-32257997D01*
X5949513Y-32257997D01*
X5939451Y-30699999D01*
X7874785Y-30699999D01*
X7874785Y-30700000D01*
X7893602Y-30903082D01*
X7949417Y-31099247D01*
X7949422Y-31099260D01*
X8040327Y-31281821D01*
X8163237Y-31444581D01*
X8313958Y-31581980D01*
X8313960Y-31581982D01*
X8368094Y-31615500D01*
X8487363Y-31689348D01*
X8677544Y-31763024D01*
X8878024Y-31800500D01*
X8878026Y-31800500D01*
X9081974Y-31800500D01*
X9081976Y-31800500D01*
X9282456Y-31763024D01*
X9472637Y-31689348D01*
X9646041Y-31581981D01*
X9796764Y-31444579D01*
X9919673Y-31281821D01*
X10002739Y-31115000D01*
X12194353Y-31115000D01*
X12214834Y-31257456D01*
X12230676Y-31292144D01*
X12274623Y-31388373D01*
X12368872Y-31497143D01*
X12489947Y-31574953D01*
X12489950Y-31574954D01*
X12489949Y-31574954D01*
X12628036Y-31615499D01*
X12628038Y-31615500D01*
X12628039Y-31615500D01*
X12771962Y-31615500D01*
X12771962Y-31615499D01*
X12899737Y-31577982D01*
X12910050Y-31574954D01*
X12910050Y-31574953D01*
X12910053Y-31574953D01*
X13031128Y-31497143D01*
X13125377Y-31388373D01*
X13185165Y-31257457D01*
X13205647Y-31115000D01*
X13185165Y-30972543D01*
X13125377Y-30841627D01*
X13031128Y-30732857D01*
X12973776Y-30695999D01*
X23114785Y-30695999D01*
X23114785Y-30696000D01*
X23133602Y-30899082D01*
X23189417Y-31095247D01*
X23189422Y-31095260D01*
X23280327Y-31277821D01*
X23403237Y-31440581D01*
X23542638Y-31567660D01*
X23550637Y-31574953D01*
X23553958Y-31577980D01*
X23553960Y-31577982D01*
X23614553Y-31615499D01*
X23727363Y-31685348D01*
X23917544Y-31759024D01*
X24118024Y-31796500D01*
X24118026Y-31796500D01*
X24321974Y-31796500D01*
X24321976Y-31796500D01*
X24522456Y-31759024D01*
X24712637Y-31685348D01*
X24886041Y-31577981D01*
X25036764Y-31440579D01*
X25159673Y-31277821D01*
X25250582Y-31095250D01*
X25306397Y-30899083D01*
X25325215Y-30696000D01*
X25306397Y-30492917D01*
X25250582Y-30296750D01*
X25159673Y-30114179D01*
X25039785Y-29955421D01*
X25036762Y-29951418D01*
X24886041Y-29814019D01*
X24886039Y-29814017D01*
X24712642Y-29706655D01*
X24712635Y-29706651D01*
X24617546Y-29669814D01*
X24522456Y-29632976D01*
X24321976Y-29595500D01*
X24118024Y-29595500D01*
X23917544Y-29632976D01*
X23917541Y-29632976D01*
X23917541Y-29632977D01*
X23727364Y-29706651D01*
X23727357Y-29706655D01*
X23553960Y-29814017D01*
X23553958Y-29814019D01*
X23403237Y-29951418D01*
X23280327Y-30114178D01*
X23189422Y-30296739D01*
X23189417Y-30296752D01*
X23133602Y-30492917D01*
X23114785Y-30695999D01*
X12973776Y-30695999D01*
X12910053Y-30655047D01*
X12910051Y-30655046D01*
X12910049Y-30655045D01*
X12910050Y-30655045D01*
X12771963Y-30614500D01*
X12771961Y-30614500D01*
X12628039Y-30614500D01*
X12628036Y-30614500D01*
X12489949Y-30655045D01*
X12368873Y-30732856D01*
X12274623Y-30841626D01*
X12274622Y-30841628D01*
X12214834Y-30972543D01*
X12194353Y-31115000D01*
X10002739Y-31115000D01*
X10010582Y-31099250D01*
X10066397Y-30903083D01*
X10085215Y-30700000D01*
X10066397Y-30496917D01*
X10010582Y-30300750D01*
X10008591Y-30296752D01*
X9937438Y-30153856D01*
X9919673Y-30118179D01*
X9820050Y-29986257D01*
X9796762Y-29955418D01*
X9646041Y-29818019D01*
X9646039Y-29818017D01*
X9472642Y-29710655D01*
X9472635Y-29710651D01*
X9377546Y-29673814D01*
X9282456Y-29636976D01*
X9081976Y-29599500D01*
X8878024Y-29599500D01*
X8677544Y-29636976D01*
X8677541Y-29636976D01*
X8677541Y-29636977D01*
X8487364Y-29710651D01*
X8487357Y-29710655D01*
X8313960Y-29818017D01*
X8313958Y-29818019D01*
X8163237Y-29955418D01*
X8040327Y-30118178D01*
X7949422Y-30300739D01*
X7949417Y-30300752D01*
X7893602Y-30496917D01*
X7874785Y-30699999D01*
X5939451Y-30699999D01*
X5923047Y-28159999D01*
X7874785Y-28159999D01*
X7874785Y-28160000D01*
X7893602Y-28363082D01*
X7949417Y-28559247D01*
X7949422Y-28559260D01*
X8040327Y-28741821D01*
X8163237Y-28904581D01*
X8313958Y-29041980D01*
X8313960Y-29041982D01*
X8409808Y-29101328D01*
X8487363Y-29149348D01*
X8677544Y-29223024D01*
X8878024Y-29260500D01*
X8878026Y-29260500D01*
X9081974Y-29260500D01*
X9081976Y-29260500D01*
X9282456Y-29223024D01*
X9472637Y-29149348D01*
X9646041Y-29041981D01*
X9796764Y-28904579D01*
X9919673Y-28741821D01*
X10010582Y-28559250D01*
X10066397Y-28363083D01*
X10085215Y-28160000D01*
X10078048Y-28082659D01*
X10066397Y-27956917D01*
X10047453Y-27890338D01*
X10010582Y-27760750D01*
X9919673Y-27578179D01*
X9853496Y-27490547D01*
X9796762Y-27415418D01*
X9646041Y-27278019D01*
X9646039Y-27278017D01*
X9472642Y-27170655D01*
X9472635Y-27170651D01*
X9283687Y-27097453D01*
X9282456Y-27096976D01*
X9081976Y-27059500D01*
X8878024Y-27059500D01*
X8677544Y-27096976D01*
X8677541Y-27096976D01*
X8677541Y-27096977D01*
X8487364Y-27170651D01*
X8487357Y-27170655D01*
X8313960Y-27278017D01*
X8313958Y-27278019D01*
X8163237Y-27415418D01*
X8040327Y-27578178D01*
X7949422Y-27760739D01*
X7949417Y-27760752D01*
X7893602Y-27956917D01*
X7874785Y-28159999D01*
X5923047Y-28159999D01*
X5906642Y-25619999D01*
X7874785Y-25619999D01*
X7874785Y-25620000D01*
X7893602Y-25823082D01*
X7949417Y-26019247D01*
X7949422Y-26019260D01*
X8040327Y-26201821D01*
X8163237Y-26364581D01*
X8313958Y-26501980D01*
X8313960Y-26501982D01*
X8380262Y-26543034D01*
X8487363Y-26609348D01*
X8677544Y-26683024D01*
X8878024Y-26720500D01*
X8878026Y-26720500D01*
X9081974Y-26720500D01*
X9081976Y-26720500D01*
X9282456Y-26683024D01*
X9472637Y-26609348D01*
X9646041Y-26501981D01*
X9796764Y-26364579D01*
X9919673Y-26201821D01*
X10010582Y-26019250D01*
X10066397Y-25823083D01*
X10085215Y-25620000D01*
X10085215Y-25619999D01*
X23114785Y-25619999D01*
X23114785Y-25620000D01*
X23133602Y-25823082D01*
X23189417Y-26019247D01*
X23189422Y-26019260D01*
X23280327Y-26201821D01*
X23403237Y-26364581D01*
X23553958Y-26501980D01*
X23553960Y-26501982D01*
X23620262Y-26543034D01*
X23727363Y-26609348D01*
X23917544Y-26683024D01*
X24118024Y-26720500D01*
X24118026Y-26720500D01*
X24321974Y-26720500D01*
X24321976Y-26720500D01*
X24522456Y-26683024D01*
X24712637Y-26609348D01*
X24886041Y-26501981D01*
X25036764Y-26364579D01*
X25159673Y-26201821D01*
X25250582Y-26019250D01*
X25306397Y-25823083D01*
X25325215Y-25620000D01*
X25306397Y-25416917D01*
X25250582Y-25220750D01*
X25159673Y-25038179D01*
X25100704Y-24960091D01*
X25036762Y-24875418D01*
X24886041Y-24738019D01*
X24886039Y-24738017D01*
X24712642Y-24630655D01*
X24712635Y-24630651D01*
X24606111Y-24589384D01*
X24522456Y-24556976D01*
X24321976Y-24519500D01*
X24118024Y-24519500D01*
X23917544Y-24556976D01*
X23917541Y-24556976D01*
X23917541Y-24556977D01*
X23727364Y-24630651D01*
X23727357Y-24630655D01*
X23553960Y-24738017D01*
X23553958Y-24738019D01*
X23403237Y-24875418D01*
X23280327Y-25038178D01*
X23189422Y-25220739D01*
X23189417Y-25220752D01*
X23133602Y-25416917D01*
X23114785Y-25619999D01*
X10085215Y-25619999D01*
X10066397Y-25416917D01*
X10010582Y-25220750D01*
X9919673Y-25038179D01*
X9860704Y-24960091D01*
X9796762Y-24875418D01*
X9646041Y-24738019D01*
X9646039Y-24738017D01*
X9472642Y-24630655D01*
X9472635Y-24630651D01*
X9366111Y-24589384D01*
X9282456Y-24556976D01*
X9081976Y-24519500D01*
X8878024Y-24519500D01*
X8677544Y-24556976D01*
X8677541Y-24556976D01*
X8677541Y-24556977D01*
X8487364Y-24630651D01*
X8487357Y-24630655D01*
X8313960Y-24738017D01*
X8313958Y-24738019D01*
X8163237Y-24875418D01*
X8040327Y-25038178D01*
X7949422Y-25220739D01*
X7949417Y-25220752D01*
X7893602Y-25416917D01*
X7874785Y-25619999D01*
X5906642Y-25619999D01*
X5890237Y-23079999D01*
X7874785Y-23079999D01*
X7874785Y-23080000D01*
X7893602Y-23283082D01*
X7949417Y-23479247D01*
X7949422Y-23479260D01*
X8040327Y-23661821D01*
X8163237Y-23824581D01*
X8313958Y-23961980D01*
X8313960Y-23961982D01*
X8375362Y-24000000D01*
X8487363Y-24069348D01*
X8677544Y-24143024D01*
X8878024Y-24180500D01*
X8878026Y-24180500D01*
X9081974Y-24180500D01*
X9081976Y-24180500D01*
X9282456Y-24143024D01*
X9472637Y-24069348D01*
X9646041Y-23961981D01*
X9796764Y-23824579D01*
X9919673Y-23661821D01*
X10010582Y-23479250D01*
X10066397Y-23283083D01*
X10085215Y-23080000D01*
X10085215Y-23079999D01*
X18034785Y-23079999D01*
X18034785Y-23080000D01*
X18053602Y-23283082D01*
X18109417Y-23479247D01*
X18109422Y-23479260D01*
X18200327Y-23661821D01*
X18323237Y-23824581D01*
X18473958Y-23961980D01*
X18473960Y-23961982D01*
X18535362Y-24000000D01*
X18647363Y-24069348D01*
X18837544Y-24143024D01*
X19038024Y-24180500D01*
X19038026Y-24180500D01*
X19241974Y-24180500D01*
X19241976Y-24180500D01*
X19442456Y-24143024D01*
X19632637Y-24069348D01*
X19806041Y-23961981D01*
X19956764Y-23824579D01*
X20079673Y-23661821D01*
X20170582Y-23479250D01*
X20226397Y-23283083D01*
X20245215Y-23080000D01*
X20245215Y-23079999D01*
X20574785Y-23079999D01*
X20574785Y-23080000D01*
X20593602Y-23283082D01*
X20649417Y-23479247D01*
X20649422Y-23479260D01*
X20740327Y-23661821D01*
X20863237Y-23824581D01*
X21013958Y-23961980D01*
X21013960Y-23961982D01*
X21075362Y-24000000D01*
X21187363Y-24069348D01*
X21377544Y-24143024D01*
X21578024Y-24180500D01*
X21578026Y-24180500D01*
X21781974Y-24180500D01*
X21781976Y-24180500D01*
X21982456Y-24143024D01*
X22172637Y-24069348D01*
X22346041Y-23961981D01*
X22496764Y-23824579D01*
X22619673Y-23661821D01*
X22710582Y-23479250D01*
X22766397Y-23283083D01*
X22785215Y-23080000D01*
X22785215Y-23079999D01*
X23114785Y-23079999D01*
X23114785Y-23080000D01*
X23133602Y-23283082D01*
X23189417Y-23479247D01*
X23189422Y-23479260D01*
X23280327Y-23661821D01*
X23403237Y-23824581D01*
X23553958Y-23961980D01*
X23553960Y-23961982D01*
X23615362Y-24000000D01*
X23727363Y-24069348D01*
X23917544Y-24143024D01*
X24118024Y-24180500D01*
X24118026Y-24180500D01*
X24321974Y-24180500D01*
X24321976Y-24180500D01*
X24522456Y-24143024D01*
X24712637Y-24069348D01*
X24824638Y-24000000D01*
X25434353Y-24000000D01*
X25454834Y-24142456D01*
X25507161Y-24257034D01*
X25514623Y-24273373D01*
X25608872Y-24382143D01*
X25729947Y-24459953D01*
X25729950Y-24459954D01*
X25729949Y-24459954D01*
X25868036Y-24500499D01*
X25868038Y-24500500D01*
X25868039Y-24500500D01*
X26011962Y-24500500D01*
X26011962Y-24500499D01*
X26150053Y-24459953D01*
X26271128Y-24382143D01*
X26365377Y-24273373D01*
X26425165Y-24142457D01*
X26445647Y-24000000D01*
X26425165Y-23857543D01*
X26365377Y-23726627D01*
X26271128Y-23617857D01*
X26150053Y-23540047D01*
X26150051Y-23540046D01*
X26150049Y-23540045D01*
X26150050Y-23540045D01*
X26011963Y-23499500D01*
X26011961Y-23499500D01*
X25868039Y-23499500D01*
X25868036Y-23499500D01*
X25729949Y-23540045D01*
X25608873Y-23617856D01*
X25514623Y-23726626D01*
X25514622Y-23726628D01*
X25454834Y-23857543D01*
X25434353Y-24000000D01*
X24824638Y-24000000D01*
X24886041Y-23961981D01*
X25036764Y-23824579D01*
X25159673Y-23661821D01*
X25250582Y-23479250D01*
X25306397Y-23283083D01*
X25325215Y-23080000D01*
X25306397Y-22876917D01*
X25250582Y-22680750D01*
X25230914Y-22641252D01*
X25206272Y-22591764D01*
X25159673Y-22498179D01*
X25036764Y-22335421D01*
X25036762Y-22335418D01*
X24886041Y-22198019D01*
X24886039Y-22198017D01*
X24712642Y-22090655D01*
X24712635Y-22090651D01*
X24570453Y-22035570D01*
X24522456Y-22016976D01*
X24321976Y-21979500D01*
X24118024Y-21979500D01*
X23917544Y-22016976D01*
X23917541Y-22016976D01*
X23917541Y-22016977D01*
X23727364Y-22090651D01*
X23727357Y-22090655D01*
X23553960Y-22198017D01*
X23553958Y-22198019D01*
X23403237Y-22335418D01*
X23280327Y-22498178D01*
X23189422Y-22680739D01*
X23189417Y-22680752D01*
X23133602Y-22876917D01*
X23114785Y-23079999D01*
X22785215Y-23079999D01*
X22766397Y-22876917D01*
X22710582Y-22680750D01*
X22690914Y-22641252D01*
X22666272Y-22591764D01*
X22619673Y-22498179D01*
X22496764Y-22335421D01*
X22496762Y-22335418D01*
X22346041Y-22198019D01*
X22346039Y-22198017D01*
X22172642Y-22090655D01*
X22172635Y-22090651D01*
X22030453Y-22035570D01*
X21982456Y-22016976D01*
X21781976Y-21979500D01*
X21578024Y-21979500D01*
X21377544Y-22016976D01*
X21377541Y-22016976D01*
X21377541Y-22016977D01*
X21187364Y-22090651D01*
X21187357Y-22090655D01*
X21013960Y-22198017D01*
X21013958Y-22198019D01*
X20863237Y-22335418D01*
X20740327Y-22498178D01*
X20649422Y-22680739D01*
X20649417Y-22680752D01*
X20593602Y-22876917D01*
X20574785Y-23079999D01*
X20245215Y-23079999D01*
X20226397Y-22876917D01*
X20170582Y-22680750D01*
X20150914Y-22641252D01*
X20126272Y-22591764D01*
X20079673Y-22498179D01*
X19956764Y-22335421D01*
X19956762Y-22335418D01*
X19806041Y-22198019D01*
X19806039Y-22198017D01*
X19632642Y-22090655D01*
X19632635Y-22090651D01*
X19490453Y-22035570D01*
X19442456Y-22016976D01*
X19241976Y-21979500D01*
X19038024Y-21979500D01*
X18837544Y-22016976D01*
X18837541Y-22016976D01*
X18837541Y-22016977D01*
X18647364Y-22090651D01*
X18647357Y-22090655D01*
X18473960Y-22198017D01*
X18473958Y-22198019D01*
X18323237Y-22335418D01*
X18200327Y-22498178D01*
X18109422Y-22680739D01*
X18109417Y-22680752D01*
X18053602Y-22876917D01*
X18034785Y-23079999D01*
X10085215Y-23079999D01*
X10066397Y-22876917D01*
X10010582Y-22680750D01*
X9990914Y-22641252D01*
X9966272Y-22591764D01*
X9919673Y-22498179D01*
X9796764Y-22335421D01*
X9796762Y-22335418D01*
X9646041Y-22198019D01*
X9646039Y-22198017D01*
X9472642Y-22090655D01*
X9472635Y-22090651D01*
X9330453Y-22035570D01*
X9282456Y-22016976D01*
X9081976Y-21979500D01*
X8878024Y-21979500D01*
X8677544Y-22016976D01*
X8677541Y-22016976D01*
X8677541Y-22016977D01*
X8487364Y-22090651D01*
X8487357Y-22090655D01*
X8313960Y-22198017D01*
X8313958Y-22198019D01*
X8163237Y-22335418D01*
X8040327Y-22498178D01*
X7949422Y-22680739D01*
X7949417Y-22680752D01*
X7893602Y-22876917D01*
X7874785Y-23079999D01*
X5890237Y-23079999D01*
X5870926Y-20090000D01*
X24744353Y-20090000D01*
X24764834Y-20232456D01*
X24793215Y-20294600D01*
X24824623Y-20363373D01*
X24918872Y-20472143D01*
X25039947Y-20549953D01*
X25039950Y-20549954D01*
X25039949Y-20549954D01*
X25178036Y-20590499D01*
X25178038Y-20590500D01*
X25178039Y-20590500D01*
X25321962Y-20590500D01*
X25321962Y-20590499D01*
X25460053Y-20549953D01*
X25581128Y-20472143D01*
X25675377Y-20363373D01*
X25735165Y-20232457D01*
X25755647Y-20090000D01*
X25735165Y-19947543D01*
X25675377Y-19816627D01*
X25581128Y-19707857D01*
X25460053Y-19630047D01*
X25460051Y-19630046D01*
X25460049Y-19630045D01*
X25460050Y-19630045D01*
X25321963Y-19589500D01*
X25321961Y-19589500D01*
X25178039Y-19589500D01*
X25178036Y-19589500D01*
X25039949Y-19630045D01*
X24918873Y-19707856D01*
X24824623Y-19816626D01*
X24824622Y-19816628D01*
X24764834Y-19947543D01*
X24744353Y-20090000D01*
X5870926Y-20090000D01*
X5860592Y-18490000D01*
X5841023Y-15459999D01*
X23114785Y-15459999D01*
X23114785Y-15460000D01*
X23133602Y-15663082D01*
X23189417Y-15859247D01*
X23189422Y-15859260D01*
X23280327Y-16041821D01*
X23403237Y-16204581D01*
X23553958Y-16341980D01*
X23553960Y-16341982D01*
X23653141Y-16403392D01*
X23727363Y-16449348D01*
X23917544Y-16523024D01*
X24118024Y-16560500D01*
X24118026Y-16560500D01*
X24321974Y-16560500D01*
X24321976Y-16560500D01*
X24522456Y-16523024D01*
X24712637Y-16449348D01*
X24886041Y-16341981D01*
X25036764Y-16204579D01*
X25159673Y-16041821D01*
X25250582Y-15859250D01*
X25306397Y-15663083D01*
X25322065Y-15493997D01*
X30557196Y-15493997D01*
X30557196Y-15494002D01*
X30578279Y-15627121D01*
X30578280Y-15627124D01*
X30578281Y-15627126D01*
X30639472Y-15747220D01*
X30639473Y-15747221D01*
X30639476Y-15747225D01*
X30734774Y-15842523D01*
X30734778Y-15842526D01*
X30734780Y-15842528D01*
X30854874Y-15903719D01*
X30854876Y-15903719D01*
X30854878Y-15903720D01*
X30987998Y-15924804D01*
X30988000Y-15924804D01*
X30988002Y-15924804D01*
X31121121Y-15903720D01*
X31121121Y-15903719D01*
X31121126Y-15903719D01*
X31241220Y-15842528D01*
X31336528Y-15747220D01*
X31397719Y-15627126D01*
X31418804Y-15494000D01*
X31397719Y-15360874D01*
X31336528Y-15240780D01*
X31336526Y-15240778D01*
X31336523Y-15240774D01*
X31241225Y-15145476D01*
X31241221Y-15145473D01*
X31241220Y-15145472D01*
X31121126Y-15084281D01*
X31121124Y-15084280D01*
X31121121Y-15084279D01*
X30988002Y-15063196D01*
X30987998Y-15063196D01*
X30854878Y-15084279D01*
X30734778Y-15145473D01*
X30734774Y-15145476D01*
X30639476Y-15240774D01*
X30639473Y-15240778D01*
X30578279Y-15360878D01*
X30557196Y-15493997D01*
X25322065Y-15493997D01*
X25325215Y-15460000D01*
X25306397Y-15256917D01*
X25250582Y-15060750D01*
X25159673Y-14878179D01*
X25036764Y-14715421D01*
X25036762Y-14715418D01*
X25029466Y-14708767D01*
X33088733Y-14708767D01*
X33088733Y-14708768D01*
X33106794Y-14845949D01*
X33106795Y-14845954D01*
X33159742Y-14973783D01*
X33159743Y-14973785D01*
X33159744Y-14973786D01*
X33243977Y-15083559D01*
X33353750Y-15167792D01*
X33481585Y-15220742D01*
X33604470Y-15236920D01*
X33618767Y-15238803D01*
X33618768Y-15238803D01*
X33618769Y-15238803D01*
X33631715Y-15237098D01*
X33755951Y-15220742D01*
X33883786Y-15167792D01*
X33993559Y-15083559D01*
X34077792Y-14973786D01*
X34130742Y-14845951D01*
X34148803Y-14708768D01*
X34130742Y-14571585D01*
X34077792Y-14443751D01*
X33993559Y-14333977D01*
X33993557Y-14333976D01*
X33993557Y-14333975D01*
X33926988Y-14282895D01*
X33883786Y-14249744D01*
X33883785Y-14249743D01*
X33883783Y-14249742D01*
X33755954Y-14196795D01*
X33755952Y-14196794D01*
X33755951Y-14196794D01*
X33664495Y-14184753D01*
X33618769Y-14178733D01*
X33618767Y-14178733D01*
X33550176Y-14187763D01*
X33481585Y-14196794D01*
X33481584Y-14196794D01*
X33481581Y-14196795D01*
X33353753Y-14249742D01*
X33243977Y-14333977D01*
X33159742Y-14443753D01*
X33106795Y-14571581D01*
X33106794Y-14571586D01*
X33088733Y-14708767D01*
X25029466Y-14708767D01*
X24886041Y-14578019D01*
X24886039Y-14578017D01*
X24712642Y-14470655D01*
X24712635Y-14470651D01*
X24617546Y-14433814D01*
X24522456Y-14396976D01*
X24321976Y-14359500D01*
X24118024Y-14359500D01*
X23917544Y-14396976D01*
X23917541Y-14396976D01*
X23917541Y-14396977D01*
X23727364Y-14470651D01*
X23727357Y-14470655D01*
X23553960Y-14578017D01*
X23553958Y-14578019D01*
X23403237Y-14715418D01*
X23280327Y-14878178D01*
X23189422Y-15060739D01*
X23189417Y-15060752D01*
X23133602Y-15256917D01*
X23114785Y-15459999D01*
X5841023Y-15459999D01*
X5829064Y-13608394D01*
X5824618Y-12919999D01*
X23114785Y-12919999D01*
X23114785Y-12920000D01*
X23133602Y-13123082D01*
X23189417Y-13319247D01*
X23189422Y-13319260D01*
X23280327Y-13501821D01*
X23403237Y-13664581D01*
X23553958Y-13801980D01*
X23553960Y-13801982D01*
X23571151Y-13812626D01*
X23727363Y-13909348D01*
X23917544Y-13983024D01*
X24118024Y-14020500D01*
X24118026Y-14020500D01*
X24321974Y-14020500D01*
X24321976Y-14020500D01*
X24522456Y-13983024D01*
X24712637Y-13909348D01*
X24886041Y-13801981D01*
X25036764Y-13664579D01*
X25159673Y-13501821D01*
X25250582Y-13319250D01*
X25306397Y-13123083D01*
X25325215Y-12920000D01*
X25306397Y-12716917D01*
X25250582Y-12520750D01*
X25159673Y-12338179D01*
X25036764Y-12175421D01*
X25036762Y-12175418D01*
X24886041Y-12038019D01*
X24886039Y-12038017D01*
X24712642Y-11930655D01*
X24712635Y-11930651D01*
X24617546Y-11893814D01*
X24522456Y-11856976D01*
X24321976Y-11819500D01*
X24118024Y-11819500D01*
X23917544Y-11856976D01*
X23917541Y-11856976D01*
X23917541Y-11856977D01*
X23727364Y-11930651D01*
X23727357Y-11930655D01*
X23553960Y-12038017D01*
X23553958Y-12038019D01*
X23403237Y-12175418D01*
X23280327Y-12338178D01*
X23189422Y-12520739D01*
X23189417Y-12520752D01*
X23133602Y-12716917D01*
X23114785Y-12919999D01*
X5824618Y-12919999D01*
X5808213Y-10379999D01*
X23114785Y-10379999D01*
X23114785Y-10380000D01*
X23133602Y-10583082D01*
X23189417Y-10779247D01*
X23189422Y-10779260D01*
X23280327Y-10961821D01*
X23403237Y-11124581D01*
X23553958Y-11261980D01*
X23553960Y-11261982D01*
X23653141Y-11323392D01*
X23727363Y-11369348D01*
X23917544Y-11443024D01*
X24118024Y-11480500D01*
X24118026Y-11480500D01*
X24321974Y-11480500D01*
X24321976Y-11480500D01*
X24522456Y-11443024D01*
X24712637Y-11369348D01*
X24886041Y-11261981D01*
X25036764Y-11124579D01*
X25159673Y-10961821D01*
X25170539Y-10939999D01*
X30284750Y-10939999D01*
X30284750Y-10940000D01*
X30303670Y-11083708D01*
X30303671Y-11083712D01*
X30359137Y-11217622D01*
X30359138Y-11217624D01*
X30359139Y-11217625D01*
X30447379Y-11332621D01*
X30562375Y-11420861D01*
X30696291Y-11476330D01*
X30823280Y-11493048D01*
X30839999Y-11495250D01*
X30840000Y-11495250D01*
X30840001Y-11495250D01*
X30854977Y-11493278D01*
X30983709Y-11476330D01*
X31117625Y-11420861D01*
X31232621Y-11332621D01*
X31320861Y-11217625D01*
X31376330Y-11083709D01*
X31395250Y-10940000D01*
X31376330Y-10796291D01*
X31320861Y-10662375D01*
X31232621Y-10547379D01*
X31117625Y-10459139D01*
X31117624Y-10459138D01*
X31117622Y-10459137D01*
X30983712Y-10403671D01*
X30983710Y-10403670D01*
X30983709Y-10403670D01*
X30911854Y-10394210D01*
X30840001Y-10384750D01*
X30839999Y-10384750D01*
X30696291Y-10403670D01*
X30696287Y-10403671D01*
X30562377Y-10459137D01*
X30447379Y-10547379D01*
X30359137Y-10662377D01*
X30303671Y-10796287D01*
X30303670Y-10796291D01*
X30284750Y-10939999D01*
X25170539Y-10939999D01*
X25250582Y-10779250D01*
X25306397Y-10583083D01*
X25325215Y-10380000D01*
X25306397Y-10176917D01*
X25250582Y-9980750D01*
X25159673Y-9798179D01*
X25036764Y-9635421D01*
X25036762Y-9635418D01*
X24886041Y-9498019D01*
X24886039Y-9498017D01*
X24712642Y-9390655D01*
X24712635Y-9390651D01*
X24617546Y-9353814D01*
X24522456Y-9316976D01*
X24321976Y-9279500D01*
X24118024Y-9279500D01*
X23917544Y-9316976D01*
X23917541Y-9316976D01*
X23917541Y-9316977D01*
X23727364Y-9390651D01*
X23727357Y-9390655D01*
X23553960Y-9498017D01*
X23553958Y-9498019D01*
X23403237Y-9635418D01*
X23280327Y-9798178D01*
X23189422Y-9980739D01*
X23189417Y-9980752D01*
X23133602Y-10176917D01*
X23114785Y-10379999D01*
X5808213Y-10379999D01*
X5744566Y-525301D01*
X5763817Y-458136D01*
X5816324Y-412041D01*
X5868563Y-400500D01*
X49849971Y-400500D01*
X49917010Y-420185D01*
G37*
G04 #@! TD.AperFunction*
G04 #@! TA.AperFunction,Conductor*
G36*
X61351930Y-420185D02*
G01*
X61397685Y-472989D01*
X61408865Y-527028D01*
X61408408Y-549393D01*
X61408572Y-550719D01*
X61409500Y-565863D01*
X61409500Y-5805262D01*
X61407734Y-5819575D01*
X61408429Y-5819647D01*
X61407519Y-5828466D01*
X61409401Y-5875530D01*
X61409500Y-5880484D01*
X61409500Y-5922730D01*
X61410560Y-5930783D01*
X61410097Y-5930843D01*
X61412155Y-5944370D01*
X61413367Y-5974668D01*
X61413368Y-5974677D01*
X61454916Y-6147194D01*
X61529326Y-6308303D01*
X61529327Y-6308305D01*
X61559666Y-6350000D01*
X61633738Y-6451799D01*
X61764138Y-6572168D01*
X61764140Y-6572169D01*
X61915516Y-6664785D01*
X62053280Y-6715498D01*
X62082051Y-6726089D01*
X62257347Y-6753725D01*
X62335506Y-6750598D01*
X62340460Y-6750500D01*
X64475331Y-6750500D01*
X64542370Y-6770185D01*
X64588125Y-6822989D01*
X64599325Y-6875728D01*
X64598914Y-6917185D01*
X64599500Y-6925982D01*
X64599500Y-39724235D01*
X64579815Y-39791274D01*
X64527011Y-39837029D01*
X64475359Y-39848235D01*
X64292942Y-39848027D01*
X64225925Y-39828266D01*
X64180230Y-39775410D01*
X64170365Y-39706240D01*
X64199463Y-39642717D01*
X64205388Y-39636359D01*
X64268528Y-39573220D01*
X64329719Y-39453126D01*
X64339632Y-39390538D01*
X64350804Y-39320002D01*
X64350804Y-39319997D01*
X64329720Y-39186878D01*
X64329719Y-39186876D01*
X64329719Y-39186874D01*
X64268528Y-39066780D01*
X64268526Y-39066778D01*
X64268523Y-39066774D01*
X64173225Y-38971476D01*
X64173221Y-38971473D01*
X64173220Y-38971472D01*
X64053126Y-38910281D01*
X64053124Y-38910280D01*
X64053121Y-38910279D01*
X63920002Y-38889196D01*
X63919998Y-38889196D01*
X63786878Y-38910279D01*
X63666778Y-38971473D01*
X63666774Y-38971476D01*
X63571476Y-39066774D01*
X63571473Y-39066778D01*
X63510279Y-39186878D01*
X63489196Y-39319997D01*
X63489196Y-39320002D01*
X63510279Y-39453121D01*
X63510280Y-39453124D01*
X63510281Y-39453126D01*
X63523975Y-39480001D01*
X63571473Y-39573221D01*
X63571476Y-39573225D01*
X63633744Y-39635493D01*
X63667229Y-39696816D01*
X63662245Y-39766508D01*
X63620373Y-39822441D01*
X63554909Y-39846858D01*
X63545921Y-39847174D01*
X57313427Y-39840060D01*
X57246411Y-39820299D01*
X57223348Y-39801126D01*
X56530958Y-39066774D01*
X56270000Y-38790000D01*
X55972737Y-38763825D01*
X55907683Y-38738337D01*
X55866736Y-38681724D01*
X55862897Y-38611959D01*
X55897385Y-38551195D01*
X55927319Y-38531555D01*
X55926662Y-38530325D01*
X56109138Y-38432789D01*
X56109140Y-38432786D01*
X56109144Y-38432785D01*
X56264384Y-38305384D01*
X56391785Y-38150144D01*
X56391786Y-38150140D01*
X56391789Y-38150138D01*
X56486451Y-37973038D01*
X56486451Y-37973037D01*
X56486453Y-37973034D01*
X56544749Y-37780857D01*
X56564433Y-37581000D01*
X56544749Y-37381143D01*
X56539366Y-37363397D01*
X56871596Y-37363397D01*
X56871596Y-37363402D01*
X56892679Y-37496521D01*
X56892680Y-37496524D01*
X56892681Y-37496526D01*
X56935723Y-37581000D01*
X56953873Y-37616621D01*
X56953876Y-37616625D01*
X57049174Y-37711923D01*
X57049178Y-37711926D01*
X57049180Y-37711928D01*
X57169274Y-37773119D01*
X57169276Y-37773119D01*
X57169278Y-37773120D01*
X57302398Y-37794204D01*
X57302400Y-37794204D01*
X57302402Y-37794204D01*
X57435521Y-37773120D01*
X57435521Y-37773119D01*
X57435526Y-37773119D01*
X57555620Y-37711928D01*
X57650928Y-37616620D01*
X57712119Y-37496526D01*
X57717519Y-37462433D01*
X57733204Y-37363402D01*
X57733204Y-37363397D01*
X57712120Y-37230278D01*
X57712119Y-37230276D01*
X57712119Y-37230274D01*
X57650928Y-37110180D01*
X57650926Y-37110178D01*
X57650923Y-37110174D01*
X57555625Y-37014876D01*
X57555621Y-37014873D01*
X57555620Y-37014872D01*
X57435526Y-36953681D01*
X57435524Y-36953680D01*
X57435521Y-36953679D01*
X57302402Y-36932596D01*
X57302398Y-36932596D01*
X57169278Y-36953679D01*
X57049178Y-37014873D01*
X57049174Y-37014876D01*
X56953876Y-37110174D01*
X56953873Y-37110178D01*
X56953872Y-37110180D01*
X56913729Y-37188966D01*
X56892679Y-37230278D01*
X56871596Y-37363397D01*
X56539366Y-37363397D01*
X56486453Y-37188966D01*
X56486451Y-37188963D01*
X56486451Y-37188961D01*
X56391789Y-37011861D01*
X56391784Y-37011855D01*
X56264384Y-36856615D01*
X56109144Y-36729215D01*
X56109138Y-36729210D01*
X55932038Y-36634548D01*
X55739855Y-36576250D01*
X55608748Y-36563338D01*
X55589099Y-36561402D01*
X55538610Y-36541015D01*
X55501850Y-36559828D01*
X55490899Y-36561403D01*
X55340144Y-36576250D01*
X55147961Y-36634548D01*
X54970861Y-36729210D01*
X54970855Y-36729215D01*
X54815615Y-36856615D01*
X54688215Y-37011855D01*
X54688210Y-37011861D01*
X54593548Y-37188961D01*
X54535250Y-37381144D01*
X54515567Y-37581000D01*
X54535250Y-37780855D01*
X54593548Y-37973038D01*
X54688210Y-38150138D01*
X54688215Y-38150144D01*
X54815615Y-38305384D01*
X54923642Y-38394038D01*
X54970856Y-38432785D01*
X54979453Y-38437380D01*
X55029298Y-38486340D01*
X55044761Y-38554477D01*
X55020932Y-38620157D01*
X54965376Y-38662529D01*
X54910127Y-38670262D01*
X54680000Y-38650000D01*
X54679999Y-38650000D01*
X54045725Y-39814414D01*
X53996370Y-39863869D01*
X53935320Y-39879089D01*
X53505027Y-39873841D01*
X53438232Y-39853340D01*
X53393125Y-39799982D01*
X53384025Y-39730707D01*
X53413823Y-39667510D01*
X53448080Y-39640495D01*
X53569144Y-39575785D01*
X53724384Y-39448384D01*
X53851785Y-39293144D01*
X53851786Y-39293140D01*
X53851789Y-39293138D01*
X53946451Y-39116038D01*
X53946451Y-39116037D01*
X53946453Y-39116034D01*
X54004749Y-38923857D01*
X54024433Y-38724000D01*
X54004749Y-38524143D01*
X53946453Y-38331966D01*
X53946451Y-38331963D01*
X53946451Y-38331961D01*
X53851789Y-38154861D01*
X53851784Y-38154855D01*
X53724384Y-37999615D01*
X53569144Y-37872215D01*
X53569138Y-37872210D01*
X53392038Y-37777548D01*
X53199855Y-37719250D01*
X53068748Y-37706338D01*
X53049099Y-37704402D01*
X52998610Y-37684015D01*
X52961850Y-37702828D01*
X52950899Y-37704403D01*
X52800144Y-37719250D01*
X52607961Y-37777548D01*
X52430861Y-37872210D01*
X52430855Y-37872215D01*
X52275615Y-37999615D01*
X52148215Y-38154855D01*
X52148210Y-38154861D01*
X52053548Y-38331961D01*
X51995250Y-38524144D01*
X51975567Y-38724000D01*
X51995250Y-38923855D01*
X52053548Y-39116038D01*
X52122582Y-39245190D01*
X52136824Y-39313592D01*
X52111824Y-39378836D01*
X52055519Y-39420207D01*
X51985786Y-39424569D01*
X51924764Y-39390538D01*
X51923255Y-39388975D01*
X51449999Y-38889999D01*
X50677426Y-38864074D01*
X50665925Y-38862746D01*
X50665916Y-38862848D01*
X50659858Y-38862251D01*
X50659857Y-38862251D01*
X50509099Y-38847402D01*
X50458607Y-38827014D01*
X50421848Y-38845827D01*
X50410895Y-38847402D01*
X50360511Y-38852364D01*
X50344200Y-38852891D01*
X49960000Y-38840000D01*
X49310001Y-39479998D01*
X49309999Y-39480001D01*
X49029003Y-42842264D01*
X49003804Y-42907431D01*
X48947373Y-42948630D01*
X48912042Y-42955761D01*
X37597434Y-43559603D01*
X37582562Y-43559503D01*
X27665823Y-42897135D01*
X27600245Y-42873027D01*
X27558110Y-42817291D01*
X27550480Y-42783279D01*
X27329880Y-40019997D01*
X40437796Y-40019997D01*
X40437796Y-40020002D01*
X40458879Y-40153121D01*
X40458880Y-40153124D01*
X40458881Y-40153126D01*
X40512844Y-40259034D01*
X40520073Y-40273221D01*
X40520076Y-40273225D01*
X40615374Y-40368523D01*
X40615378Y-40368526D01*
X40615380Y-40368528D01*
X40735474Y-40429719D01*
X40735476Y-40429719D01*
X40735478Y-40429720D01*
X40868598Y-40450804D01*
X40868600Y-40450804D01*
X40868602Y-40450804D01*
X41001721Y-40429720D01*
X41001721Y-40429719D01*
X41001726Y-40429719D01*
X41121820Y-40368528D01*
X41217128Y-40273220D01*
X41278319Y-40153126D01*
X41299404Y-40020000D01*
X41293950Y-39985567D01*
X41278320Y-39886878D01*
X41278319Y-39886876D01*
X41278319Y-39886874D01*
X41217128Y-39766780D01*
X41217126Y-39766778D01*
X41217123Y-39766774D01*
X41121825Y-39671476D01*
X41121821Y-39671473D01*
X41121820Y-39671472D01*
X41001726Y-39610281D01*
X41001724Y-39610280D01*
X41001721Y-39610279D01*
X40868602Y-39589196D01*
X40868598Y-39589196D01*
X40735478Y-39610279D01*
X40615378Y-39671473D01*
X40615374Y-39671476D01*
X40520076Y-39766774D01*
X40520073Y-39766778D01*
X40458879Y-39886878D01*
X40437796Y-40019997D01*
X27329880Y-40019997D01*
X27151255Y-37782497D01*
X31458896Y-37782497D01*
X31458896Y-37782502D01*
X31479979Y-37915621D01*
X31479980Y-37915624D01*
X31479981Y-37915626D01*
X31541172Y-38035720D01*
X31541173Y-38035721D01*
X31541176Y-38035725D01*
X31636474Y-38131023D01*
X31636478Y-38131026D01*
X31636480Y-38131028D01*
X31756574Y-38192219D01*
X31756576Y-38192219D01*
X31756578Y-38192220D01*
X31889698Y-38213304D01*
X31889700Y-38213304D01*
X31889702Y-38213304D01*
X32022821Y-38192220D01*
X32022821Y-38192219D01*
X32022826Y-38192219D01*
X32142920Y-38131028D01*
X32238228Y-38035720D01*
X32299419Y-37915626D01*
X32306295Y-37872215D01*
X32320504Y-37782502D01*
X32320504Y-37782497D01*
X32299420Y-37649378D01*
X32299419Y-37649376D01*
X32299419Y-37649374D01*
X32264581Y-37581000D01*
X49435567Y-37581000D01*
X49455250Y-37780855D01*
X49513548Y-37973038D01*
X49608210Y-38150138D01*
X49608215Y-38150144D01*
X49735615Y-38305384D01*
X49890855Y-38432784D01*
X49890861Y-38432789D01*
X50067961Y-38527451D01*
X50067963Y-38527451D01*
X50067966Y-38527453D01*
X50260143Y-38585749D01*
X50410897Y-38600596D01*
X50461389Y-38620984D01*
X50498149Y-38602172D01*
X50509097Y-38600597D01*
X50659857Y-38585749D01*
X50852034Y-38527453D01*
X50858227Y-38524143D01*
X51029138Y-38432789D01*
X51029140Y-38432786D01*
X51029144Y-38432785D01*
X51184384Y-38305384D01*
X51311785Y-38150144D01*
X51311786Y-38150140D01*
X51311789Y-38150138D01*
X51406451Y-37973038D01*
X51406451Y-37973037D01*
X51406453Y-37973034D01*
X51464749Y-37780857D01*
X51484433Y-37581000D01*
X51464749Y-37381143D01*
X51406453Y-37188966D01*
X51406451Y-37188963D01*
X51406451Y-37188961D01*
X51311789Y-37011861D01*
X51311784Y-37011855D01*
X51184384Y-36856615D01*
X51029144Y-36729215D01*
X51029138Y-36729210D01*
X50852038Y-36634548D01*
X50659855Y-36576250D01*
X50528748Y-36563338D01*
X50509099Y-36561402D01*
X50458610Y-36541015D01*
X50421850Y-36559828D01*
X50410899Y-36561403D01*
X50260144Y-36576250D01*
X50067961Y-36634548D01*
X49890861Y-36729210D01*
X49890855Y-36729215D01*
X49735615Y-36856615D01*
X49608215Y-37011855D01*
X49608210Y-37011861D01*
X49513548Y-37188961D01*
X49455250Y-37381144D01*
X49435567Y-37581000D01*
X32264581Y-37581000D01*
X32238228Y-37529280D01*
X32238226Y-37529278D01*
X32238223Y-37529274D01*
X32142925Y-37433976D01*
X32142921Y-37433973D01*
X32142920Y-37433972D01*
X32022826Y-37372781D01*
X32022824Y-37372780D01*
X32022821Y-37372779D01*
X31889702Y-37351696D01*
X31889698Y-37351696D01*
X31756578Y-37372779D01*
X31636478Y-37433973D01*
X31636474Y-37433976D01*
X31541176Y-37529274D01*
X31541173Y-37529278D01*
X31479979Y-37649378D01*
X31458896Y-37782497D01*
X27151255Y-37782497D01*
X27089409Y-37007797D01*
X39548796Y-37007797D01*
X39548796Y-37007802D01*
X39569879Y-37140921D01*
X39569880Y-37140924D01*
X39569881Y-37140926D01*
X39631072Y-37261020D01*
X39631073Y-37261021D01*
X39631076Y-37261025D01*
X39726374Y-37356323D01*
X39726378Y-37356326D01*
X39726380Y-37356328D01*
X39846474Y-37417519D01*
X39846476Y-37417519D01*
X39846478Y-37417520D01*
X39979598Y-37438604D01*
X39979600Y-37438604D01*
X39979602Y-37438604D01*
X40112721Y-37417520D01*
X40112721Y-37417519D01*
X40112726Y-37417519D01*
X40232820Y-37356328D01*
X40328128Y-37261020D01*
X40389319Y-37140926D01*
X40394190Y-37110174D01*
X40410404Y-37007802D01*
X40410404Y-37007797D01*
X40389320Y-36874678D01*
X40389319Y-36874676D01*
X40389319Y-36874674D01*
X40328128Y-36754580D01*
X40328126Y-36754578D01*
X40328123Y-36754574D01*
X40232825Y-36659276D01*
X40232821Y-36659273D01*
X40232820Y-36659272D01*
X40112726Y-36598081D01*
X40112724Y-36598080D01*
X40112721Y-36598079D01*
X39979602Y-36576996D01*
X39979598Y-36576996D01*
X39846478Y-36598079D01*
X39726378Y-36659273D01*
X39726374Y-36659276D01*
X39631076Y-36754574D01*
X39631073Y-36754578D01*
X39569879Y-36874678D01*
X39548796Y-37007797D01*
X27089409Y-37007797D01*
X27043921Y-36438000D01*
X51975567Y-36438000D01*
X51995250Y-36637855D01*
X52053548Y-36830038D01*
X52148210Y-37007138D01*
X52148215Y-37007144D01*
X52275615Y-37162384D01*
X52430855Y-37289784D01*
X52430861Y-37289789D01*
X52607961Y-37384451D01*
X52607963Y-37384451D01*
X52607966Y-37384453D01*
X52800143Y-37442749D01*
X52950899Y-37457597D01*
X53001388Y-37477984D01*
X53038149Y-37459172D01*
X53049097Y-37457597D01*
X53199857Y-37442749D01*
X53392034Y-37384453D01*
X53413871Y-37372781D01*
X53569138Y-37289789D01*
X53569140Y-37289786D01*
X53569144Y-37289785D01*
X53724384Y-37162384D01*
X53851785Y-37007144D01*
X53851786Y-37007140D01*
X53851789Y-37007138D01*
X53946451Y-36830038D01*
X53946451Y-36830037D01*
X53946453Y-36830034D01*
X54004749Y-36637857D01*
X54024433Y-36438000D01*
X54004749Y-36238143D01*
X53946453Y-36045966D01*
X53946451Y-36045963D01*
X53946451Y-36045961D01*
X53851789Y-35868861D01*
X53851784Y-35868855D01*
X53724384Y-35713615D01*
X53569144Y-35586215D01*
X53569138Y-35586210D01*
X53392038Y-35491548D01*
X53199855Y-35433250D01*
X53068748Y-35420338D01*
X53049099Y-35418402D01*
X52998610Y-35398015D01*
X52961850Y-35416828D01*
X52950899Y-35418403D01*
X52800144Y-35433250D01*
X52607961Y-35491548D01*
X52430861Y-35586210D01*
X52430855Y-35586215D01*
X52275615Y-35713615D01*
X52148215Y-35868855D01*
X52148210Y-35868861D01*
X52053548Y-36045961D01*
X51995250Y-36238144D01*
X51975567Y-36438000D01*
X27043921Y-36438000D01*
X26917256Y-34851377D01*
X31203820Y-34851377D01*
X31203820Y-34851382D01*
X31224903Y-34984501D01*
X31224904Y-34984504D01*
X31224905Y-34984506D01*
X31281278Y-35095144D01*
X31286097Y-35104601D01*
X31286100Y-35104605D01*
X31381398Y-35199903D01*
X31381402Y-35199906D01*
X31381404Y-35199908D01*
X31501498Y-35261099D01*
X31501500Y-35261099D01*
X31501502Y-35261100D01*
X31634622Y-35282184D01*
X31634624Y-35282184D01*
X31634626Y-35282184D01*
X31767745Y-35261100D01*
X31767745Y-35261099D01*
X31767750Y-35261099D01*
X31887844Y-35199908D01*
X31908755Y-35178997D01*
X41707796Y-35178997D01*
X41707796Y-35179002D01*
X41728879Y-35312121D01*
X41728880Y-35312124D01*
X41728881Y-35312126D01*
X41783032Y-35418403D01*
X41790073Y-35432221D01*
X41790076Y-35432225D01*
X41885374Y-35527523D01*
X41885378Y-35527526D01*
X41885380Y-35527528D01*
X42005474Y-35588719D01*
X42005476Y-35588719D01*
X42005478Y-35588720D01*
X42138598Y-35609804D01*
X42138600Y-35609804D01*
X42138602Y-35609804D01*
X42271721Y-35588720D01*
X42271721Y-35588719D01*
X42271726Y-35588719D01*
X42391820Y-35527528D01*
X42487128Y-35432220D01*
X42548319Y-35312126D01*
X42548320Y-35312121D01*
X42551032Y-35295000D01*
X49435567Y-35295000D01*
X49455250Y-35494855D01*
X49513548Y-35687038D01*
X49608210Y-35864138D01*
X49608215Y-35864144D01*
X49735615Y-36019384D01*
X49890855Y-36146784D01*
X49890861Y-36146789D01*
X50067961Y-36241451D01*
X50067963Y-36241451D01*
X50067966Y-36241453D01*
X50260143Y-36299749D01*
X50410899Y-36314597D01*
X50461388Y-36334984D01*
X50498149Y-36316172D01*
X50509097Y-36314597D01*
X50659857Y-36299749D01*
X50852034Y-36241453D01*
X50858227Y-36238143D01*
X51029138Y-36146789D01*
X51029140Y-36146786D01*
X51029144Y-36146785D01*
X51184384Y-36019384D01*
X51311785Y-35864144D01*
X51311786Y-35864140D01*
X51311789Y-35864138D01*
X51406451Y-35687038D01*
X51406451Y-35687037D01*
X51406453Y-35687034D01*
X51464749Y-35494857D01*
X51484433Y-35295000D01*
X54515567Y-35295000D01*
X54535250Y-35494855D01*
X54593548Y-35687038D01*
X54688210Y-35864138D01*
X54688215Y-35864144D01*
X54815615Y-36019384D01*
X54970855Y-36146784D01*
X54970861Y-36146789D01*
X55147961Y-36241451D01*
X55147963Y-36241451D01*
X55147966Y-36241453D01*
X55340143Y-36299749D01*
X55490899Y-36314597D01*
X55541388Y-36334984D01*
X55578149Y-36316172D01*
X55589097Y-36314597D01*
X55739857Y-36299749D01*
X55932034Y-36241453D01*
X55938227Y-36238143D01*
X56109138Y-36146789D01*
X56109140Y-36146786D01*
X56109144Y-36146785D01*
X56264384Y-36019384D01*
X56391785Y-35864144D01*
X56391786Y-35864140D01*
X56391789Y-35864138D01*
X56486451Y-35687038D01*
X56486451Y-35687037D01*
X56486453Y-35687034D01*
X56544749Y-35494857D01*
X56564433Y-35295000D01*
X56544749Y-35095143D01*
X56486453Y-34902966D01*
X56486451Y-34902963D01*
X56486451Y-34902961D01*
X56391789Y-34725861D01*
X56391784Y-34725855D01*
X56385549Y-34718258D01*
X56310104Y-34626326D01*
X56264384Y-34570615D01*
X56109144Y-34443215D01*
X56109138Y-34443210D01*
X55932038Y-34348548D01*
X55739855Y-34290250D01*
X55540000Y-34270567D01*
X55340144Y-34290250D01*
X55147961Y-34348548D01*
X54970861Y-34443210D01*
X54970855Y-34443215D01*
X54815615Y-34570615D01*
X54688215Y-34725855D01*
X54688210Y-34725861D01*
X54593548Y-34902961D01*
X54535250Y-35095144D01*
X54515567Y-35295000D01*
X51484433Y-35295000D01*
X51464749Y-35095143D01*
X51406453Y-34902966D01*
X51406451Y-34902963D01*
X51406451Y-34902961D01*
X51311789Y-34725861D01*
X51311784Y-34725855D01*
X51305549Y-34718258D01*
X51230104Y-34626326D01*
X51184384Y-34570615D01*
X51029144Y-34443215D01*
X51029138Y-34443210D01*
X50852038Y-34348548D01*
X50659855Y-34290250D01*
X50528748Y-34277338D01*
X50509099Y-34275402D01*
X50458610Y-34255015D01*
X50421850Y-34273828D01*
X50410899Y-34275403D01*
X50260144Y-34290250D01*
X50067961Y-34348548D01*
X49890861Y-34443210D01*
X49890855Y-34443215D01*
X49735615Y-34570615D01*
X49608215Y-34725855D01*
X49608210Y-34725861D01*
X49513548Y-34902961D01*
X49455250Y-35095144D01*
X49435567Y-35295000D01*
X42551032Y-35295000D01*
X42569404Y-35179002D01*
X42569404Y-35178997D01*
X42548320Y-35045878D01*
X42548319Y-35045876D01*
X42548319Y-35045874D01*
X42487128Y-34925780D01*
X42487126Y-34925778D01*
X42487123Y-34925774D01*
X42391825Y-34830476D01*
X42391821Y-34830473D01*
X42391820Y-34830472D01*
X42271726Y-34769281D01*
X42271724Y-34769280D01*
X42271721Y-34769279D01*
X42138602Y-34748196D01*
X42138598Y-34748196D01*
X42005478Y-34769279D01*
X41885378Y-34830473D01*
X41885374Y-34830476D01*
X41790076Y-34925774D01*
X41790073Y-34925778D01*
X41728879Y-35045878D01*
X41707796Y-35178997D01*
X31908755Y-35178997D01*
X31983152Y-35104600D01*
X32044343Y-34984506D01*
X32044344Y-34984501D01*
X32065428Y-34851382D01*
X32065428Y-34851377D01*
X32044344Y-34718258D01*
X32044343Y-34718256D01*
X32044343Y-34718254D01*
X31983152Y-34598160D01*
X31983150Y-34598158D01*
X31983147Y-34598154D01*
X31887849Y-34502856D01*
X31887845Y-34502853D01*
X31887844Y-34502852D01*
X31868895Y-34493197D01*
X33512196Y-34493197D01*
X33512196Y-34493202D01*
X33533279Y-34626321D01*
X33533280Y-34626324D01*
X33533281Y-34626326D01*
X33583997Y-34725861D01*
X33594473Y-34746421D01*
X33594476Y-34746425D01*
X33689774Y-34841723D01*
X33689778Y-34841726D01*
X33689780Y-34841728D01*
X33809874Y-34902919D01*
X33809876Y-34902919D01*
X33809878Y-34902920D01*
X33942998Y-34924004D01*
X33943000Y-34924004D01*
X33943002Y-34924004D01*
X34076121Y-34902920D01*
X34076121Y-34902919D01*
X34076126Y-34902919D01*
X34196220Y-34841728D01*
X34291528Y-34746420D01*
X34352719Y-34626326D01*
X34357180Y-34598160D01*
X34373804Y-34493202D01*
X34373804Y-34493197D01*
X34352720Y-34360078D01*
X34352719Y-34360076D01*
X34352719Y-34360074D01*
X34291528Y-34239980D01*
X34291526Y-34239978D01*
X34291523Y-34239974D01*
X34203549Y-34152000D01*
X51975567Y-34152000D01*
X51995250Y-34351855D01*
X52053548Y-34544038D01*
X52148210Y-34721138D01*
X52148215Y-34721144D01*
X52275615Y-34876384D01*
X52430855Y-35003784D01*
X52430861Y-35003789D01*
X52607961Y-35098451D01*
X52607963Y-35098451D01*
X52607966Y-35098453D01*
X52800143Y-35156749D01*
X52950899Y-35171597D01*
X53001388Y-35191984D01*
X53038149Y-35173172D01*
X53049097Y-35171597D01*
X53199857Y-35156749D01*
X53392034Y-35098453D01*
X53398227Y-35095143D01*
X53569138Y-35003789D01*
X53569140Y-35003786D01*
X53569144Y-35003785D01*
X53724384Y-34876384D01*
X53851785Y-34721144D01*
X53851786Y-34721140D01*
X53851789Y-34721138D01*
X53946451Y-34544038D01*
X53946451Y-34544037D01*
X53946453Y-34544034D01*
X54004749Y-34351857D01*
X54024433Y-34152000D01*
X54004749Y-33952143D01*
X53946453Y-33759966D01*
X53946451Y-33759963D01*
X53946451Y-33759961D01*
X53851789Y-33582861D01*
X53851784Y-33582855D01*
X53724384Y-33427615D01*
X53569144Y-33300215D01*
X53569138Y-33300210D01*
X53392038Y-33205548D01*
X53199855Y-33147250D01*
X53068748Y-33134338D01*
X53049099Y-33132402D01*
X52998610Y-33112015D01*
X52961850Y-33130828D01*
X52950899Y-33132403D01*
X52800144Y-33147250D01*
X52607961Y-33205548D01*
X52430861Y-33300210D01*
X52430855Y-33300215D01*
X52275615Y-33427615D01*
X52148215Y-33582855D01*
X52148210Y-33582861D01*
X52053548Y-33759961D01*
X51995250Y-33952144D01*
X51975567Y-34152000D01*
X34203549Y-34152000D01*
X34196225Y-34144676D01*
X34196221Y-34144673D01*
X34196220Y-34144672D01*
X34076126Y-34083481D01*
X34076124Y-34083480D01*
X34076121Y-34083479D01*
X33943002Y-34062396D01*
X33942998Y-34062396D01*
X33809878Y-34083479D01*
X33689778Y-34144673D01*
X33689774Y-34144676D01*
X33594476Y-34239974D01*
X33594473Y-34239978D01*
X33533279Y-34360078D01*
X33512196Y-34493197D01*
X31868895Y-34493197D01*
X31767750Y-34441661D01*
X31767748Y-34441660D01*
X31767745Y-34441659D01*
X31634626Y-34420576D01*
X31634622Y-34420576D01*
X31501502Y-34441659D01*
X31381402Y-34502853D01*
X31381398Y-34502856D01*
X31286100Y-34598154D01*
X31286097Y-34598158D01*
X31224903Y-34718258D01*
X31203820Y-34851377D01*
X26917256Y-34851377D01*
X26809580Y-33502597D01*
X39548796Y-33502597D01*
X39548796Y-33502602D01*
X39569879Y-33635721D01*
X39569880Y-33635724D01*
X39569881Y-33635726D01*
X39631072Y-33755820D01*
X39631073Y-33755821D01*
X39631076Y-33755825D01*
X39726374Y-33851123D01*
X39726378Y-33851126D01*
X39726380Y-33851128D01*
X39846474Y-33912319D01*
X39846476Y-33912319D01*
X39846478Y-33912320D01*
X39979598Y-33933404D01*
X39979600Y-33933404D01*
X39979602Y-33933404D01*
X40112721Y-33912320D01*
X40112721Y-33912319D01*
X40112726Y-33912319D01*
X40232820Y-33851128D01*
X40328128Y-33755820D01*
X40389319Y-33635726D01*
X40410404Y-33502600D01*
X40394318Y-33401038D01*
X40389320Y-33369478D01*
X40389319Y-33369476D01*
X40389319Y-33369474D01*
X40328128Y-33249380D01*
X40328126Y-33249378D01*
X40328123Y-33249374D01*
X40232825Y-33154076D01*
X40232821Y-33154073D01*
X40232820Y-33154072D01*
X40112726Y-33092881D01*
X40112724Y-33092880D01*
X40112721Y-33092879D01*
X39979602Y-33071796D01*
X39979598Y-33071796D01*
X39846478Y-33092879D01*
X39726378Y-33154073D01*
X39726374Y-33154076D01*
X39631076Y-33249374D01*
X39631073Y-33249378D01*
X39569879Y-33369478D01*
X39548796Y-33502597D01*
X26809580Y-33502597D01*
X26766997Y-32969197D01*
X37364396Y-32969197D01*
X37364396Y-32969202D01*
X37385479Y-33102321D01*
X37385480Y-33102324D01*
X37385481Y-33102326D01*
X37446672Y-33222420D01*
X37446673Y-33222421D01*
X37446676Y-33222425D01*
X37541974Y-33317723D01*
X37541978Y-33317726D01*
X37541980Y-33317728D01*
X37662074Y-33378919D01*
X37662076Y-33378919D01*
X37662078Y-33378920D01*
X37795198Y-33400004D01*
X37795200Y-33400004D01*
X37795202Y-33400004D01*
X37928321Y-33378920D01*
X37928321Y-33378919D01*
X37928326Y-33378919D01*
X38048420Y-33317728D01*
X38143728Y-33222420D01*
X38204919Y-33102326D01*
X38206415Y-33092879D01*
X38219700Y-33009000D01*
X49435567Y-33009000D01*
X49455250Y-33208855D01*
X49513548Y-33401038D01*
X49608210Y-33578138D01*
X49608215Y-33578144D01*
X49735615Y-33733384D01*
X49890855Y-33860784D01*
X49890861Y-33860789D01*
X50067961Y-33955451D01*
X50067963Y-33955451D01*
X50067966Y-33955453D01*
X50260143Y-34013749D01*
X50410899Y-34028597D01*
X50461388Y-34048984D01*
X50498149Y-34030172D01*
X50509097Y-34028597D01*
X50659857Y-34013749D01*
X50852034Y-33955453D01*
X50858227Y-33952143D01*
X51029138Y-33860789D01*
X51029140Y-33860786D01*
X51029144Y-33860785D01*
X51184384Y-33733384D01*
X51311785Y-33578144D01*
X51311786Y-33578140D01*
X51311789Y-33578138D01*
X51406451Y-33401038D01*
X51406451Y-33401037D01*
X51406453Y-33401034D01*
X51464749Y-33208857D01*
X51484433Y-33009000D01*
X51464749Y-32809143D01*
X51406453Y-32616966D01*
X51406451Y-32616963D01*
X51406451Y-32616961D01*
X51311789Y-32439861D01*
X51311784Y-32439855D01*
X51184384Y-32284615D01*
X51029144Y-32157215D01*
X51029138Y-32157210D01*
X50852038Y-32062548D01*
X50659855Y-32004250D01*
X50528748Y-31991338D01*
X50509099Y-31989402D01*
X50458610Y-31969015D01*
X50421850Y-31987828D01*
X50410899Y-31989403D01*
X50260144Y-32004250D01*
X50067961Y-32062548D01*
X49890861Y-32157210D01*
X49890855Y-32157215D01*
X49735615Y-32284615D01*
X49608215Y-32439855D01*
X49608210Y-32439861D01*
X49513548Y-32616961D01*
X49455250Y-32809144D01*
X49435567Y-33009000D01*
X38219700Y-33009000D01*
X38226004Y-32969202D01*
X38226004Y-32969197D01*
X38204920Y-32836078D01*
X38204919Y-32836076D01*
X38204919Y-32836074D01*
X38143728Y-32715980D01*
X38143726Y-32715978D01*
X38143723Y-32715974D01*
X38048425Y-32620676D01*
X38048421Y-32620673D01*
X38048420Y-32620672D01*
X37928326Y-32559481D01*
X37928324Y-32559480D01*
X37928321Y-32559479D01*
X37795202Y-32538396D01*
X37795198Y-32538396D01*
X37662078Y-32559479D01*
X37662074Y-32559480D01*
X37662074Y-32559481D01*
X37582011Y-32600275D01*
X37541978Y-32620673D01*
X37541974Y-32620676D01*
X37446676Y-32715974D01*
X37446673Y-32715978D01*
X37385479Y-32836078D01*
X37364396Y-32969197D01*
X26766997Y-32969197D01*
X26716303Y-32334200D01*
X30279153Y-32334200D01*
X30299634Y-32476656D01*
X30337459Y-32559479D01*
X30359423Y-32607573D01*
X30453672Y-32716343D01*
X30574747Y-32794153D01*
X30574750Y-32794154D01*
X30574749Y-32794154D01*
X30712836Y-32834699D01*
X30712838Y-32834700D01*
X30712839Y-32834700D01*
X30856762Y-32834700D01*
X30856762Y-32834699D01*
X30994853Y-32794153D01*
X31115928Y-32716343D01*
X31210177Y-32607573D01*
X31269965Y-32476657D01*
X31290447Y-32334200D01*
X31269965Y-32191743D01*
X31230623Y-32105597D01*
X48260996Y-32105597D01*
X48260996Y-32105602D01*
X48282079Y-32238721D01*
X48282080Y-32238724D01*
X48282081Y-32238726D01*
X48343272Y-32358820D01*
X48343273Y-32358821D01*
X48343276Y-32358825D01*
X48438574Y-32454123D01*
X48438578Y-32454126D01*
X48438580Y-32454128D01*
X48558674Y-32515319D01*
X48558676Y-32515319D01*
X48558678Y-32515320D01*
X48691798Y-32536404D01*
X48691800Y-32536404D01*
X48691802Y-32536404D01*
X48824921Y-32515320D01*
X48824921Y-32515319D01*
X48824926Y-32515319D01*
X48945020Y-32454128D01*
X49040328Y-32358820D01*
X49101519Y-32238726D01*
X49101520Y-32238721D01*
X49122604Y-32105602D01*
X49122604Y-32105597D01*
X49101520Y-31972478D01*
X49101519Y-31972476D01*
X49101519Y-31972474D01*
X49047268Y-31866000D01*
X51975567Y-31866000D01*
X51995250Y-32065855D01*
X52053548Y-32258038D01*
X52148210Y-32435138D01*
X52148215Y-32435144D01*
X52275615Y-32590384D01*
X52430855Y-32717784D01*
X52430861Y-32717789D01*
X52607961Y-32812451D01*
X52607963Y-32812451D01*
X52607966Y-32812453D01*
X52800143Y-32870749D01*
X52950899Y-32885597D01*
X53001388Y-32905984D01*
X53038149Y-32887172D01*
X53049097Y-32885597D01*
X53199857Y-32870749D01*
X53392034Y-32812453D01*
X53426271Y-32794153D01*
X53569138Y-32717789D01*
X53569140Y-32717786D01*
X53569144Y-32717785D01*
X53724384Y-32590384D01*
X53851785Y-32435144D01*
X53851786Y-32435140D01*
X53851789Y-32435138D01*
X53946451Y-32258038D01*
X53946451Y-32258037D01*
X53946453Y-32258034D01*
X54004749Y-32065857D01*
X54024433Y-31866000D01*
X54004749Y-31666143D01*
X53946453Y-31473966D01*
X53946451Y-31473963D01*
X53946451Y-31473961D01*
X53851789Y-31296861D01*
X53851784Y-31296855D01*
X53724384Y-31141615D01*
X53569144Y-31014215D01*
X53569138Y-31014210D01*
X53392038Y-30919548D01*
X53199855Y-30861250D01*
X53068748Y-30848338D01*
X53049099Y-30846402D01*
X52998610Y-30826015D01*
X52961850Y-30844828D01*
X52950899Y-30846403D01*
X52800144Y-30861250D01*
X52607961Y-30919548D01*
X52430861Y-31014210D01*
X52430855Y-31014215D01*
X52275615Y-31141615D01*
X52148215Y-31296855D01*
X52148210Y-31296861D01*
X52053548Y-31473961D01*
X51995250Y-31666144D01*
X51975567Y-31866000D01*
X49047268Y-31866000D01*
X49040328Y-31852380D01*
X49040326Y-31852378D01*
X49040323Y-31852374D01*
X48945025Y-31757076D01*
X48945021Y-31757073D01*
X48945020Y-31757072D01*
X48824926Y-31695881D01*
X48824924Y-31695880D01*
X48824921Y-31695879D01*
X48691802Y-31674796D01*
X48691798Y-31674796D01*
X48558678Y-31695879D01*
X48438578Y-31757073D01*
X48438574Y-31757076D01*
X48343276Y-31852374D01*
X48343273Y-31852378D01*
X48343272Y-31852380D01*
X48292485Y-31952056D01*
X48282079Y-31972478D01*
X48260996Y-32105597D01*
X31230623Y-32105597D01*
X31210177Y-32060827D01*
X31115928Y-31952057D01*
X30994853Y-31874247D01*
X30994851Y-31874246D01*
X30994849Y-31874245D01*
X30994850Y-31874245D01*
X30856763Y-31833700D01*
X30856761Y-31833700D01*
X30712839Y-31833700D01*
X30712836Y-31833700D01*
X30574749Y-31874245D01*
X30453673Y-31952056D01*
X30359423Y-32060826D01*
X30359422Y-32060828D01*
X30299634Y-32191743D01*
X30279153Y-32334200D01*
X26716303Y-32334200D01*
X26556111Y-30327597D01*
X36856396Y-30327597D01*
X36856396Y-30327602D01*
X36877479Y-30460721D01*
X36877480Y-30460724D01*
X36877481Y-30460726D01*
X36909285Y-30523144D01*
X36938673Y-30580821D01*
X36938676Y-30580825D01*
X37033974Y-30676123D01*
X37033978Y-30676126D01*
X37033980Y-30676128D01*
X37154074Y-30737319D01*
X37154076Y-30737319D01*
X37154078Y-30737320D01*
X37287198Y-30758404D01*
X37287200Y-30758404D01*
X37287202Y-30758404D01*
X37420321Y-30737320D01*
X37420321Y-30737319D01*
X37420326Y-30737319D01*
X37448429Y-30723000D01*
X49435567Y-30723000D01*
X49455250Y-30922855D01*
X49513548Y-31115038D01*
X49608210Y-31292138D01*
X49608215Y-31292144D01*
X49735615Y-31447384D01*
X49890855Y-31574784D01*
X49890861Y-31574789D01*
X50067961Y-31669451D01*
X50067963Y-31669451D01*
X50067966Y-31669453D01*
X50260143Y-31727749D01*
X50410899Y-31742597D01*
X50461388Y-31762984D01*
X50498149Y-31744172D01*
X50509097Y-31742597D01*
X50659857Y-31727749D01*
X50852034Y-31669453D01*
X50858227Y-31666143D01*
X51029138Y-31574789D01*
X51029140Y-31574786D01*
X51029144Y-31574785D01*
X51184384Y-31447384D01*
X51311785Y-31292144D01*
X51311786Y-31292140D01*
X51311789Y-31292138D01*
X51406451Y-31115038D01*
X51406451Y-31115037D01*
X51406453Y-31115034D01*
X51464749Y-30922857D01*
X51484433Y-30723000D01*
X51464749Y-30523143D01*
X51406453Y-30330966D01*
X51406451Y-30330963D01*
X51406451Y-30330961D01*
X51311789Y-30153861D01*
X51311784Y-30153855D01*
X51184384Y-29998615D01*
X51029144Y-29871215D01*
X51029138Y-29871210D01*
X50852038Y-29776548D01*
X50659855Y-29718250D01*
X50528748Y-29705338D01*
X50509099Y-29703402D01*
X50458610Y-29683015D01*
X50421850Y-29701828D01*
X50410899Y-29703403D01*
X50260144Y-29718250D01*
X50067961Y-29776548D01*
X49890861Y-29871210D01*
X49890855Y-29871215D01*
X49735615Y-29998615D01*
X49608215Y-30153855D01*
X49608210Y-30153861D01*
X49513548Y-30330961D01*
X49455250Y-30523144D01*
X49435567Y-30723000D01*
X37448429Y-30723000D01*
X37540420Y-30676128D01*
X37635728Y-30580820D01*
X37696919Y-30460726D01*
X37718004Y-30327600D01*
X37701903Y-30225943D01*
X37696920Y-30194478D01*
X37696919Y-30194476D01*
X37696919Y-30194474D01*
X37635728Y-30074380D01*
X37635726Y-30074378D01*
X37635723Y-30074374D01*
X37540425Y-29979076D01*
X37540421Y-29979073D01*
X37540420Y-29979072D01*
X37420326Y-29917881D01*
X37420324Y-29917880D01*
X37420321Y-29917879D01*
X37287202Y-29896796D01*
X37287198Y-29896796D01*
X37154078Y-29917879D01*
X37033978Y-29979073D01*
X37033974Y-29979076D01*
X36938676Y-30074374D01*
X36938673Y-30074378D01*
X36877479Y-30194478D01*
X36856396Y-30327597D01*
X26556111Y-30327597D01*
X26518738Y-29859461D01*
X26525225Y-29828407D01*
X30980097Y-29828407D01*
X30980097Y-29828414D01*
X30999941Y-29953711D01*
X30999941Y-29953712D01*
X31012865Y-29979076D01*
X31057539Y-30066753D01*
X31057541Y-30066755D01*
X31057543Y-30066758D01*
X31147241Y-30156456D01*
X31147243Y-30156457D01*
X31147247Y-30156461D01*
X31260285Y-30214057D01*
X31260286Y-30214057D01*
X31260288Y-30214058D01*
X31385586Y-30233903D01*
X31385589Y-30233903D01*
X31385592Y-30233903D01*
X31510889Y-30214058D01*
X31510890Y-30214058D01*
X31510891Y-30214057D01*
X31510893Y-30214057D01*
X31623931Y-30156461D01*
X31713639Y-30066753D01*
X31771235Y-29953715D01*
X31771235Y-29953713D01*
X31771236Y-29953712D01*
X31771236Y-29953711D01*
X31791081Y-29828414D01*
X31791081Y-29828407D01*
X31771236Y-29703110D01*
X31771236Y-29703109D01*
X31768922Y-29698567D01*
X31713639Y-29590069D01*
X31713635Y-29590065D01*
X31713634Y-29590063D01*
X31703571Y-29580000D01*
X51975567Y-29580000D01*
X51995250Y-29779855D01*
X52053548Y-29972038D01*
X52148210Y-30149138D01*
X52148215Y-30149144D01*
X52275615Y-30304384D01*
X52430855Y-30431784D01*
X52430861Y-30431789D01*
X52607961Y-30526451D01*
X52607963Y-30526451D01*
X52607966Y-30526453D01*
X52800143Y-30584749D01*
X52950899Y-30599597D01*
X53001388Y-30619984D01*
X53038149Y-30601172D01*
X53049097Y-30599597D01*
X53199857Y-30584749D01*
X53392034Y-30526453D01*
X53398227Y-30523143D01*
X53569138Y-30431789D01*
X53569140Y-30431786D01*
X53569144Y-30431785D01*
X53724384Y-30304384D01*
X53851785Y-30149144D01*
X53851786Y-30149140D01*
X53851789Y-30149138D01*
X53946451Y-29972038D01*
X53946451Y-29972037D01*
X53946453Y-29972034D01*
X54004749Y-29779857D01*
X54024433Y-29580000D01*
X54004749Y-29380143D01*
X53946453Y-29187966D01*
X53946451Y-29187963D01*
X53946451Y-29187961D01*
X53851789Y-29010861D01*
X53851784Y-29010855D01*
X53724384Y-28855615D01*
X53569144Y-28728215D01*
X53569138Y-28728210D01*
X53392038Y-28633548D01*
X53199855Y-28575250D01*
X53068748Y-28562338D01*
X53049099Y-28560402D01*
X52998610Y-28540015D01*
X52961850Y-28558828D01*
X52950899Y-28560403D01*
X52800144Y-28575250D01*
X52607961Y-28633548D01*
X52430861Y-28728210D01*
X52430855Y-28728215D01*
X52275615Y-28855615D01*
X52148215Y-29010855D01*
X52148210Y-29010861D01*
X52053548Y-29187961D01*
X51995250Y-29380144D01*
X51975567Y-29580000D01*
X31703571Y-29580000D01*
X31623936Y-29500365D01*
X31623933Y-29500363D01*
X31623931Y-29500361D01*
X31510893Y-29442765D01*
X31510892Y-29442764D01*
X31510889Y-29442763D01*
X31385592Y-29422919D01*
X31385586Y-29422919D01*
X31260288Y-29442763D01*
X31260287Y-29442763D01*
X31193127Y-29476984D01*
X31147247Y-29500361D01*
X31147246Y-29500362D01*
X31147241Y-29500365D01*
X31057543Y-29590063D01*
X31057540Y-29590068D01*
X30999941Y-29703109D01*
X30999941Y-29703110D01*
X30980097Y-29828407D01*
X26525225Y-29828407D01*
X26533025Y-29791071D01*
X26582021Y-29741259D01*
X26617599Y-29728090D01*
X30930000Y-28850000D01*
X30930000Y-28847998D01*
X30949685Y-28780959D01*
X31002489Y-28735204D01*
X31071647Y-28725260D01*
X31073332Y-28725515D01*
X31079500Y-28726492D01*
X31079500Y-28726491D01*
X31079501Y-28726492D01*
X31079503Y-28726492D01*
X31204800Y-28706647D01*
X31204801Y-28706647D01*
X31204802Y-28706646D01*
X31204804Y-28706646D01*
X31213930Y-28701996D01*
X31704508Y-28701996D01*
X31704508Y-28702003D01*
X31724352Y-28827300D01*
X31724352Y-28827301D01*
X31742805Y-28863517D01*
X31781950Y-28940342D01*
X31781952Y-28940344D01*
X31781954Y-28940347D01*
X31871652Y-29030045D01*
X31871654Y-29030046D01*
X31871658Y-29030050D01*
X31984696Y-29087646D01*
X31984697Y-29087646D01*
X31984699Y-29087647D01*
X32109997Y-29107492D01*
X32110000Y-29107492D01*
X32110003Y-29107492D01*
X32235300Y-29087647D01*
X32235301Y-29087647D01*
X32235302Y-29087646D01*
X32235304Y-29087646D01*
X32348342Y-29030050D01*
X32438050Y-28940342D01*
X32495646Y-28827304D01*
X32495646Y-28827302D01*
X32495647Y-28827301D01*
X32495647Y-28827300D01*
X32507447Y-28752797D01*
X41428396Y-28752797D01*
X41428396Y-28752802D01*
X41449479Y-28885921D01*
X41449480Y-28885924D01*
X41449481Y-28885926D01*
X41510672Y-29006020D01*
X41510673Y-29006021D01*
X41510676Y-29006025D01*
X41605974Y-29101323D01*
X41605978Y-29101326D01*
X41605980Y-29101328D01*
X41726074Y-29162519D01*
X41726076Y-29162519D01*
X41726078Y-29162520D01*
X41859198Y-29183604D01*
X41859200Y-29183604D01*
X41859202Y-29183604D01*
X41992321Y-29162520D01*
X41992321Y-29162519D01*
X41992326Y-29162519D01*
X42112420Y-29101328D01*
X42207728Y-29006020D01*
X42268919Y-28885926D01*
X42278204Y-28827304D01*
X42290004Y-28752802D01*
X42290004Y-28752797D01*
X42268920Y-28619678D01*
X42268919Y-28619676D01*
X42268919Y-28619674D01*
X42207728Y-28499580D01*
X42207726Y-28499578D01*
X42207723Y-28499574D01*
X42145149Y-28437000D01*
X49435567Y-28437000D01*
X49455250Y-28636855D01*
X49513548Y-28829038D01*
X49608210Y-29006138D01*
X49608215Y-29006144D01*
X49735615Y-29161384D01*
X49890855Y-29288784D01*
X49890861Y-29288789D01*
X50067961Y-29383451D01*
X50067963Y-29383451D01*
X50067966Y-29383453D01*
X50260143Y-29441749D01*
X50410899Y-29456597D01*
X50461388Y-29476984D01*
X50498149Y-29458172D01*
X50509097Y-29456597D01*
X50659857Y-29441749D01*
X50852034Y-29383453D01*
X50858227Y-29380143D01*
X51029138Y-29288789D01*
X51029140Y-29288786D01*
X51029144Y-29288785D01*
X51184384Y-29161384D01*
X51311785Y-29006144D01*
X51311786Y-29006140D01*
X51311789Y-29006138D01*
X51406451Y-28829038D01*
X51406451Y-28829037D01*
X51406453Y-28829034D01*
X51464749Y-28636857D01*
X51484433Y-28437000D01*
X54515567Y-28437000D01*
X54535250Y-28636855D01*
X54593548Y-28829038D01*
X54688210Y-29006138D01*
X54688215Y-29006144D01*
X54815615Y-29161384D01*
X54970855Y-29288784D01*
X54970861Y-29288789D01*
X55147961Y-29383451D01*
X55147963Y-29383451D01*
X55147966Y-29383453D01*
X55340143Y-29441749D01*
X55540000Y-29461433D01*
X55739857Y-29441749D01*
X55932034Y-29383453D01*
X55938227Y-29380143D01*
X56109138Y-29288789D01*
X56109140Y-29288786D01*
X56109144Y-29288785D01*
X56264384Y-29161384D01*
X56391785Y-29006144D01*
X56391786Y-29006140D01*
X56391789Y-29006138D01*
X56469903Y-28859997D01*
X61789196Y-28859997D01*
X61789196Y-28860002D01*
X61810279Y-28993121D01*
X61810280Y-28993124D01*
X61810281Y-28993126D01*
X61871472Y-29113220D01*
X61871473Y-29113221D01*
X61871476Y-29113225D01*
X61966774Y-29208523D01*
X61966778Y-29208526D01*
X61966780Y-29208528D01*
X62086874Y-29269719D01*
X62086876Y-29269719D01*
X62086878Y-29269720D01*
X62219998Y-29290804D01*
X62220000Y-29290804D01*
X62220002Y-29290804D01*
X62353121Y-29269720D01*
X62353121Y-29269719D01*
X62353126Y-29269719D01*
X62473220Y-29208528D01*
X62568528Y-29113220D01*
X62629719Y-28993126D01*
X62629720Y-28993121D01*
X62650804Y-28860002D01*
X62650804Y-28859997D01*
X62629720Y-28726878D01*
X62629719Y-28726876D01*
X62629719Y-28726874D01*
X62568528Y-28606780D01*
X62568526Y-28606778D01*
X62568523Y-28606774D01*
X62473225Y-28511476D01*
X62473221Y-28511473D01*
X62473220Y-28511472D01*
X62353126Y-28450281D01*
X62353124Y-28450280D01*
X62353121Y-28450279D01*
X62220002Y-28429196D01*
X62219998Y-28429196D01*
X62086878Y-28450279D01*
X61966778Y-28511473D01*
X61966774Y-28511476D01*
X61871476Y-28606774D01*
X61871473Y-28606778D01*
X61810279Y-28726878D01*
X61789196Y-28859997D01*
X56469903Y-28859997D01*
X56486451Y-28829038D01*
X56486451Y-28829037D01*
X56486453Y-28829034D01*
X56544749Y-28636857D01*
X56564433Y-28437000D01*
X56544749Y-28237143D01*
X56486453Y-28044966D01*
X56486451Y-28044963D01*
X56486451Y-28044961D01*
X56391789Y-27867861D01*
X56391784Y-27867855D01*
X56264384Y-27712615D01*
X56109144Y-27585215D01*
X56109138Y-27585210D01*
X55932038Y-27490548D01*
X55739855Y-27432250D01*
X55608748Y-27419338D01*
X55589099Y-27417402D01*
X55538610Y-27397015D01*
X55501850Y-27415828D01*
X55490899Y-27417403D01*
X55340144Y-27432250D01*
X55147961Y-27490548D01*
X54970861Y-27585210D01*
X54970855Y-27585215D01*
X54815615Y-27712615D01*
X54688215Y-27867855D01*
X54688210Y-27867861D01*
X54593548Y-28044961D01*
X54535250Y-28237144D01*
X54515567Y-28437000D01*
X51484433Y-28437000D01*
X51464749Y-28237143D01*
X51406453Y-28044966D01*
X51406451Y-28044963D01*
X51406451Y-28044961D01*
X51311789Y-27867861D01*
X51311784Y-27867855D01*
X51184384Y-27712615D01*
X51029144Y-27585215D01*
X51029138Y-27585210D01*
X50852038Y-27490548D01*
X50659855Y-27432250D01*
X50528748Y-27419338D01*
X50509099Y-27417402D01*
X50458610Y-27397015D01*
X50421850Y-27415828D01*
X50410899Y-27417403D01*
X50260144Y-27432250D01*
X50067961Y-27490548D01*
X49890861Y-27585210D01*
X49890855Y-27585215D01*
X49735615Y-27712615D01*
X49608215Y-27867855D01*
X49608210Y-27867861D01*
X49513548Y-28044961D01*
X49455250Y-28237144D01*
X49435567Y-28437000D01*
X42145149Y-28437000D01*
X42112425Y-28404276D01*
X42112421Y-28404273D01*
X42112420Y-28404272D01*
X41992326Y-28343081D01*
X41992324Y-28343080D01*
X41992321Y-28343079D01*
X41859202Y-28321996D01*
X41859198Y-28321996D01*
X41726078Y-28343079D01*
X41605978Y-28404273D01*
X41605974Y-28404276D01*
X41510676Y-28499574D01*
X41510673Y-28499578D01*
X41449479Y-28619678D01*
X41428396Y-28752797D01*
X32507447Y-28752797D01*
X32515492Y-28702003D01*
X32515492Y-28701996D01*
X32495647Y-28576699D01*
X32495647Y-28576698D01*
X32486806Y-28559347D01*
X32438050Y-28463658D01*
X32438046Y-28463654D01*
X32438045Y-28463652D01*
X32348347Y-28373954D01*
X32348344Y-28373952D01*
X32348342Y-28373950D01*
X32235304Y-28316354D01*
X32235303Y-28316353D01*
X32235300Y-28316352D01*
X32110003Y-28296508D01*
X32109997Y-28296508D01*
X31984699Y-28316352D01*
X31984698Y-28316352D01*
X31909337Y-28354751D01*
X31871658Y-28373950D01*
X31871657Y-28373951D01*
X31871652Y-28373954D01*
X31781954Y-28463652D01*
X31781951Y-28463657D01*
X31724352Y-28576698D01*
X31724352Y-28576699D01*
X31704508Y-28701996D01*
X31213930Y-28701996D01*
X31317842Y-28649050D01*
X31407550Y-28559342D01*
X31465146Y-28446304D01*
X31465146Y-28446302D01*
X31465147Y-28446301D01*
X31465147Y-28446300D01*
X31484992Y-28321003D01*
X31484992Y-28320996D01*
X31465147Y-28195699D01*
X31465147Y-28195698D01*
X31461233Y-28188016D01*
X31407550Y-28082658D01*
X31407546Y-28082654D01*
X31407545Y-28082652D01*
X31317847Y-27992954D01*
X31317844Y-27992952D01*
X31317842Y-27992950D01*
X31204804Y-27935354D01*
X31204803Y-27935353D01*
X31204800Y-27935352D01*
X31079503Y-27915508D01*
X31079501Y-27915508D01*
X31079500Y-27915508D01*
X31048329Y-27920444D01*
X30979036Y-27911489D01*
X30941680Y-27886079D01*
X30930001Y-27874512D01*
X32914468Y-27855165D01*
X32897254Y-27888949D01*
X32897254Y-27888950D01*
X32877410Y-28014247D01*
X32877410Y-28014254D01*
X32897254Y-28139551D01*
X32897254Y-28139552D01*
X32900430Y-28145785D01*
X32954852Y-28252593D01*
X32954854Y-28252595D01*
X32954856Y-28252598D01*
X33044554Y-28342296D01*
X33044556Y-28342297D01*
X33044560Y-28342301D01*
X33157598Y-28399897D01*
X33157599Y-28399897D01*
X33157601Y-28399898D01*
X33282899Y-28419743D01*
X33282902Y-28419743D01*
X33282905Y-28419743D01*
X33408202Y-28399898D01*
X33408203Y-28399898D01*
X33408204Y-28399897D01*
X33408206Y-28399897D01*
X33521244Y-28342301D01*
X33542406Y-28321139D01*
X37186454Y-28321139D01*
X37186454Y-28321144D01*
X37207537Y-28454263D01*
X37207538Y-28454266D01*
X37207539Y-28454268D01*
X37261618Y-28560403D01*
X37268731Y-28574363D01*
X37268734Y-28574367D01*
X37364032Y-28669665D01*
X37364036Y-28669668D01*
X37364038Y-28669670D01*
X37484132Y-28730861D01*
X37484134Y-28730861D01*
X37484136Y-28730862D01*
X37617256Y-28751946D01*
X37617258Y-28751946D01*
X37617260Y-28751946D01*
X37750379Y-28730862D01*
X37750379Y-28730861D01*
X37750384Y-28730861D01*
X37870478Y-28669670D01*
X37965786Y-28574362D01*
X38026977Y-28454268D01*
X38026978Y-28454263D01*
X38048062Y-28321144D01*
X38048062Y-28321139D01*
X38026978Y-28188020D01*
X38026977Y-28188018D01*
X38026977Y-28188016D01*
X37965786Y-28067922D01*
X37965784Y-28067920D01*
X37965781Y-28067916D01*
X37870483Y-27972618D01*
X37870479Y-27972615D01*
X37870478Y-27972614D01*
X37750384Y-27911423D01*
X37750382Y-27911422D01*
X37750379Y-27911421D01*
X37617260Y-27890338D01*
X37617256Y-27890338D01*
X37484136Y-27911421D01*
X37484132Y-27911422D01*
X37484132Y-27911423D01*
X37476115Y-27915508D01*
X37364036Y-27972615D01*
X37364032Y-27972618D01*
X37268734Y-28067916D01*
X37268731Y-28067920D01*
X37207537Y-28188020D01*
X37186454Y-28321139D01*
X33542406Y-28321139D01*
X33610952Y-28252593D01*
X33668548Y-28139555D01*
X33668548Y-28139553D01*
X33668549Y-28139552D01*
X33668549Y-28139551D01*
X33688394Y-28014254D01*
X33688394Y-28014247D01*
X33668549Y-27888950D01*
X33668549Y-27888949D01*
X33657804Y-27867861D01*
X33647692Y-27848016D01*
X34470000Y-27840000D01*
X34472272Y-27294000D01*
X51975567Y-27294000D01*
X51995250Y-27493855D01*
X52053548Y-27686038D01*
X52148210Y-27863138D01*
X52148215Y-27863144D01*
X52275615Y-28018384D01*
X52430855Y-28145784D01*
X52430861Y-28145789D01*
X52607961Y-28240451D01*
X52607963Y-28240451D01*
X52607966Y-28240453D01*
X52800143Y-28298749D01*
X52950899Y-28313597D01*
X53001388Y-28333984D01*
X53038149Y-28315172D01*
X53049097Y-28313597D01*
X53199857Y-28298749D01*
X53392034Y-28240453D01*
X53398227Y-28237143D01*
X53569138Y-28145789D01*
X53569140Y-28145786D01*
X53569144Y-28145785D01*
X53724384Y-28018384D01*
X53851785Y-27863144D01*
X53851786Y-27863140D01*
X53851789Y-27863138D01*
X53946451Y-27686038D01*
X53946451Y-27686037D01*
X53946453Y-27686034D01*
X54004749Y-27493857D01*
X54021873Y-27319997D01*
X61889196Y-27319997D01*
X61889196Y-27320002D01*
X61910279Y-27453121D01*
X61910280Y-27453124D01*
X61910281Y-27453126D01*
X61971472Y-27573220D01*
X61971473Y-27573221D01*
X61971476Y-27573225D01*
X62066774Y-27668523D01*
X62066778Y-27668526D01*
X62066780Y-27668528D01*
X62186874Y-27729719D01*
X62186876Y-27729719D01*
X62186878Y-27729720D01*
X62319998Y-27750804D01*
X62320000Y-27750804D01*
X62320002Y-27750804D01*
X62453121Y-27729720D01*
X62453121Y-27729719D01*
X62453126Y-27729719D01*
X62573220Y-27668528D01*
X62668528Y-27573220D01*
X62729719Y-27453126D01*
X62733025Y-27432251D01*
X62750804Y-27320002D01*
X62750804Y-27319997D01*
X62729720Y-27186878D01*
X62729719Y-27186876D01*
X62729719Y-27186874D01*
X62668528Y-27066780D01*
X62668526Y-27066778D01*
X62668523Y-27066774D01*
X62573225Y-26971476D01*
X62573221Y-26971473D01*
X62573220Y-26971472D01*
X62453126Y-26910281D01*
X62453124Y-26910280D01*
X62453121Y-26910279D01*
X62320002Y-26889196D01*
X62319998Y-26889196D01*
X62186878Y-26910279D01*
X62066778Y-26971473D01*
X62066774Y-26971476D01*
X61971476Y-27066774D01*
X61971473Y-27066778D01*
X61971472Y-27066780D01*
X61916111Y-27175433D01*
X61910279Y-27186878D01*
X61889196Y-27319997D01*
X54021873Y-27319997D01*
X54024433Y-27294000D01*
X54004749Y-27094143D01*
X53946453Y-26901966D01*
X53946451Y-26901963D01*
X53946451Y-26901961D01*
X53851789Y-26724861D01*
X53851784Y-26724855D01*
X53724384Y-26569615D01*
X53569144Y-26442215D01*
X53569138Y-26442210D01*
X53392038Y-26347548D01*
X53199855Y-26289250D01*
X53068748Y-26276338D01*
X53049099Y-26274402D01*
X52998610Y-26254015D01*
X52961850Y-26272828D01*
X52950899Y-26274403D01*
X52800144Y-26289250D01*
X52607961Y-26347548D01*
X52430861Y-26442210D01*
X52430855Y-26442215D01*
X52275615Y-26569615D01*
X52148215Y-26724855D01*
X52148210Y-26724861D01*
X52053548Y-26901961D01*
X51995250Y-27094144D01*
X51975567Y-27294000D01*
X34472272Y-27294000D01*
X34477028Y-26151000D01*
X49435567Y-26151000D01*
X49455250Y-26350855D01*
X49513548Y-26543038D01*
X49608210Y-26720138D01*
X49608215Y-26720144D01*
X49735615Y-26875384D01*
X49890855Y-27002784D01*
X49890861Y-27002789D01*
X50067961Y-27097451D01*
X50067963Y-27097451D01*
X50067966Y-27097453D01*
X50260143Y-27155749D01*
X50410899Y-27170597D01*
X50461388Y-27190984D01*
X50498149Y-27172172D01*
X50509097Y-27170597D01*
X50659857Y-27155749D01*
X50852034Y-27097453D01*
X50909419Y-27066780D01*
X51029138Y-27002789D01*
X51029140Y-27002786D01*
X51029144Y-27002785D01*
X51184384Y-26875384D01*
X51311785Y-26720144D01*
X51311786Y-26720140D01*
X51311789Y-26720138D01*
X51406451Y-26543038D01*
X51406451Y-26543037D01*
X51406453Y-26543034D01*
X51464749Y-26350857D01*
X51484433Y-26151000D01*
X54515567Y-26151000D01*
X54535250Y-26350855D01*
X54593548Y-26543038D01*
X54688210Y-26720138D01*
X54688215Y-26720144D01*
X54815615Y-26875384D01*
X54970855Y-27002784D01*
X54970861Y-27002789D01*
X55147961Y-27097451D01*
X55147963Y-27097451D01*
X55147966Y-27097453D01*
X55340143Y-27155749D01*
X55490899Y-27170597D01*
X55541388Y-27190984D01*
X55578149Y-27172172D01*
X55589097Y-27170597D01*
X55739857Y-27155749D01*
X55932034Y-27097453D01*
X55989419Y-27066780D01*
X56109138Y-27002789D01*
X56109140Y-27002786D01*
X56109144Y-27002785D01*
X56264384Y-26875384D01*
X56391785Y-26720144D01*
X56391786Y-26720140D01*
X56391789Y-26720138D01*
X56486451Y-26543038D01*
X56486451Y-26543037D01*
X56486453Y-26543034D01*
X56544749Y-26350857D01*
X56564433Y-26151000D01*
X56544749Y-25951143D01*
X56486453Y-25758966D01*
X56486451Y-25758963D01*
X56486451Y-25758961D01*
X56391789Y-25581861D01*
X56391784Y-25581855D01*
X56264384Y-25426615D01*
X56109144Y-25299215D01*
X56109138Y-25299210D01*
X55932038Y-25204548D01*
X55739855Y-25146250D01*
X55540000Y-25126567D01*
X55340144Y-25146250D01*
X55147961Y-25204548D01*
X54970861Y-25299210D01*
X54970855Y-25299215D01*
X54815615Y-25426615D01*
X54688215Y-25581855D01*
X54688210Y-25581861D01*
X54593548Y-25758961D01*
X54535250Y-25951144D01*
X54515567Y-26151000D01*
X51484433Y-26151000D01*
X51464749Y-25951143D01*
X51406453Y-25758966D01*
X51406451Y-25758963D01*
X51406451Y-25758961D01*
X51311789Y-25581861D01*
X51311784Y-25581855D01*
X51184384Y-25426615D01*
X51029144Y-25299215D01*
X51029138Y-25299210D01*
X50852038Y-25204548D01*
X50659855Y-25146250D01*
X50528748Y-25133338D01*
X50509099Y-25131402D01*
X50458610Y-25111015D01*
X50421850Y-25129828D01*
X50410899Y-25131403D01*
X50260144Y-25146250D01*
X50067961Y-25204548D01*
X49890861Y-25299210D01*
X49890855Y-25299215D01*
X49735615Y-25426615D01*
X49608215Y-25581855D01*
X49608210Y-25581861D01*
X49513548Y-25758961D01*
X49455250Y-25951144D01*
X49435567Y-26151000D01*
X34477028Y-26151000D01*
X34481784Y-25008000D01*
X51975567Y-25008000D01*
X51995250Y-25207855D01*
X52053548Y-25400038D01*
X52148210Y-25577138D01*
X52148215Y-25577144D01*
X52275615Y-25732384D01*
X52430855Y-25859784D01*
X52430861Y-25859789D01*
X52607961Y-25954451D01*
X52607963Y-25954451D01*
X52607966Y-25954453D01*
X52800143Y-26012749D01*
X52950899Y-26027597D01*
X53001388Y-26047984D01*
X53038149Y-26029172D01*
X53049097Y-26027597D01*
X53199857Y-26012749D01*
X53392034Y-25954453D01*
X53398227Y-25951143D01*
X53569138Y-25859789D01*
X53569140Y-25859786D01*
X53569144Y-25859785D01*
X53724384Y-25732384D01*
X53851785Y-25577144D01*
X53851786Y-25577140D01*
X53851789Y-25577138D01*
X53946451Y-25400038D01*
X53946451Y-25400037D01*
X53946453Y-25400034D01*
X54004749Y-25207857D01*
X54024433Y-25008000D01*
X54004749Y-24808143D01*
X53946453Y-24615966D01*
X53946451Y-24615963D01*
X53946451Y-24615961D01*
X53851789Y-24438861D01*
X53851784Y-24438855D01*
X53828102Y-24409998D01*
X62914318Y-24409998D01*
X62914318Y-24410001D01*
X62934955Y-24566760D01*
X62934956Y-24566762D01*
X62995464Y-24712841D01*
X63091718Y-24838282D01*
X63217159Y-24934536D01*
X63363238Y-24995044D01*
X63441619Y-25005363D01*
X63519999Y-25015682D01*
X63520000Y-25015682D01*
X63520001Y-25015682D01*
X63578351Y-25008000D01*
X63676762Y-24995044D01*
X63822841Y-24934536D01*
X63948282Y-24838282D01*
X64044536Y-24712841D01*
X64105044Y-24566762D01*
X64125682Y-24410000D01*
X64105044Y-24253238D01*
X64044536Y-24107159D01*
X63948282Y-23981718D01*
X63822841Y-23885464D01*
X63676762Y-23824956D01*
X63676760Y-23824955D01*
X63520001Y-23804318D01*
X63519999Y-23804318D01*
X63363239Y-23824955D01*
X63363237Y-23824956D01*
X63217160Y-23885463D01*
X63091718Y-23981718D01*
X62995463Y-24107160D01*
X62934956Y-24253237D01*
X62934955Y-24253239D01*
X62914318Y-24409998D01*
X53828102Y-24409998D01*
X53724384Y-24283615D01*
X53569144Y-24156215D01*
X53569138Y-24156210D01*
X53392038Y-24061548D01*
X53199855Y-24003250D01*
X53000000Y-23983567D01*
X52800144Y-24003250D01*
X52607961Y-24061548D01*
X52430861Y-24156210D01*
X52430855Y-24156215D01*
X52275615Y-24283615D01*
X52148215Y-24438855D01*
X52148210Y-24438861D01*
X52053548Y-24615961D01*
X51995250Y-24808144D01*
X51975567Y-25008000D01*
X34481784Y-25008000D01*
X34486540Y-23865000D01*
X49435567Y-23865000D01*
X49455250Y-24064855D01*
X49513548Y-24257038D01*
X49608210Y-24434138D01*
X49608215Y-24434144D01*
X49735615Y-24589384D01*
X49890855Y-24716784D01*
X49890861Y-24716789D01*
X50067961Y-24811451D01*
X50067963Y-24811451D01*
X50067966Y-24811453D01*
X50260143Y-24869749D01*
X50410899Y-24884597D01*
X50461388Y-24904984D01*
X50498149Y-24886172D01*
X50509097Y-24884597D01*
X50659857Y-24869749D01*
X50852034Y-24811453D01*
X50858227Y-24808143D01*
X51029138Y-24716789D01*
X51029140Y-24716786D01*
X51029144Y-24716785D01*
X51184384Y-24589384D01*
X51311785Y-24434144D01*
X51311786Y-24434140D01*
X51311789Y-24434138D01*
X51406451Y-24257038D01*
X51406451Y-24257037D01*
X51406453Y-24257034D01*
X51464749Y-24064857D01*
X51484433Y-23865000D01*
X51464749Y-23665143D01*
X51406453Y-23472966D01*
X51406451Y-23472963D01*
X51406451Y-23472961D01*
X51311789Y-23295861D01*
X51311784Y-23295855D01*
X51184384Y-23140615D01*
X51029144Y-23013215D01*
X51029138Y-23013210D01*
X50852038Y-22918548D01*
X50659855Y-22860250D01*
X50460000Y-22840567D01*
X50260144Y-22860250D01*
X50067961Y-22918548D01*
X49890861Y-23013210D01*
X49890855Y-23013215D01*
X49735615Y-23140615D01*
X49608215Y-23295855D01*
X49608210Y-23295861D01*
X49513548Y-23472961D01*
X49455250Y-23665144D01*
X49435567Y-23865000D01*
X34486540Y-23865000D01*
X34491632Y-22641250D01*
X53806470Y-22641250D01*
X53806470Y-22641253D01*
X53827107Y-22798012D01*
X53827108Y-22798014D01*
X53887616Y-22944093D01*
X53983870Y-23069534D01*
X54109311Y-23165788D01*
X54255390Y-23226296D01*
X54333771Y-23236615D01*
X54412151Y-23246934D01*
X54412152Y-23246934D01*
X54412153Y-23246934D01*
X54464406Y-23240054D01*
X54568914Y-23226296D01*
X54714993Y-23165788D01*
X54840434Y-23069534D01*
X54936688Y-22944093D01*
X54997196Y-22798014D01*
X55017834Y-22641252D01*
X54997196Y-22484490D01*
X54936688Y-22338411D01*
X54840434Y-22212970D01*
X54714993Y-22116716D01*
X54568914Y-22056208D01*
X54568912Y-22056207D01*
X54412153Y-22035570D01*
X54412151Y-22035570D01*
X54255391Y-22056207D01*
X54255389Y-22056208D01*
X54109312Y-22116715D01*
X53983870Y-22212970D01*
X53887615Y-22338412D01*
X53827108Y-22484489D01*
X53827107Y-22484491D01*
X53806470Y-22641250D01*
X34491632Y-22641250D01*
X34498542Y-20980397D01*
X37288196Y-20980397D01*
X37288196Y-20980402D01*
X37309279Y-21113521D01*
X37309280Y-21113524D01*
X37309281Y-21113526D01*
X37340309Y-21174421D01*
X37370473Y-21233621D01*
X37370476Y-21233625D01*
X37465774Y-21328923D01*
X37465778Y-21328926D01*
X37465780Y-21328928D01*
X37585874Y-21390119D01*
X37585876Y-21390119D01*
X37585878Y-21390120D01*
X37718998Y-21411204D01*
X37719000Y-21411204D01*
X37719002Y-21411204D01*
X37852121Y-21390120D01*
X37852121Y-21390119D01*
X37852126Y-21390119D01*
X37972220Y-21328928D01*
X38067528Y-21233620D01*
X38128719Y-21113526D01*
X38128720Y-21113521D01*
X38149804Y-20980402D01*
X38149804Y-20980397D01*
X38140428Y-20921197D01*
X46000396Y-20921197D01*
X46000396Y-20921202D01*
X46021479Y-21054321D01*
X46021480Y-21054324D01*
X46021481Y-21054326D01*
X46051645Y-21113526D01*
X46082673Y-21174421D01*
X46082676Y-21174425D01*
X46177974Y-21269723D01*
X46177978Y-21269726D01*
X46177980Y-21269728D01*
X46298074Y-21330919D01*
X46298076Y-21330919D01*
X46298078Y-21330920D01*
X46431198Y-21352004D01*
X46431200Y-21352004D01*
X46431202Y-21352004D01*
X46564321Y-21330920D01*
X46564321Y-21330919D01*
X46564326Y-21330919D01*
X46684420Y-21269728D01*
X46779728Y-21174420D01*
X46840919Y-21054326D01*
X46840920Y-21054321D01*
X46862004Y-20921202D01*
X46862004Y-20921197D01*
X46840920Y-20788078D01*
X46840919Y-20788076D01*
X46840919Y-20788074D01*
X46779728Y-20667980D01*
X46779726Y-20667978D01*
X46779723Y-20667974D01*
X46684425Y-20572676D01*
X46684421Y-20572673D01*
X46684420Y-20572672D01*
X46564326Y-20511481D01*
X46564324Y-20511480D01*
X46564321Y-20511479D01*
X46431202Y-20490396D01*
X46431198Y-20490396D01*
X46298078Y-20511479D01*
X46177978Y-20572673D01*
X46177974Y-20572676D01*
X46082676Y-20667974D01*
X46082673Y-20667978D01*
X46021479Y-20788078D01*
X46000396Y-20921197D01*
X38140428Y-20921197D01*
X38128720Y-20847278D01*
X38128719Y-20847276D01*
X38128719Y-20847274D01*
X38067528Y-20727180D01*
X38067526Y-20727178D01*
X38067523Y-20727174D01*
X37972225Y-20631876D01*
X37972221Y-20631873D01*
X37972220Y-20631872D01*
X37852126Y-20570681D01*
X37852124Y-20570680D01*
X37852121Y-20570679D01*
X37719002Y-20549596D01*
X37718998Y-20549596D01*
X37585878Y-20570679D01*
X37585874Y-20570680D01*
X37585874Y-20570681D01*
X37581959Y-20572676D01*
X37465778Y-20631873D01*
X37465774Y-20631876D01*
X37370476Y-20727174D01*
X37370473Y-20727178D01*
X37309279Y-20847278D01*
X37288196Y-20980397D01*
X34498542Y-20980397D01*
X34500000Y-20630000D01*
X31543825Y-20638200D01*
X31576802Y-20294597D01*
X41225196Y-20294597D01*
X41225196Y-20294602D01*
X41246279Y-20427721D01*
X41246280Y-20427724D01*
X41246281Y-20427726D01*
X41307472Y-20547820D01*
X41307473Y-20547821D01*
X41307476Y-20547825D01*
X41402774Y-20643123D01*
X41402778Y-20643126D01*
X41402780Y-20643128D01*
X41522874Y-20704319D01*
X41522876Y-20704319D01*
X41522878Y-20704320D01*
X41655998Y-20725404D01*
X41656000Y-20725404D01*
X41656002Y-20725404D01*
X41789121Y-20704320D01*
X41789121Y-20704319D01*
X41789126Y-20704319D01*
X41909220Y-20643128D01*
X42004528Y-20547820D01*
X42065719Y-20427726D01*
X42086804Y-20294600D01*
X42065719Y-20161474D01*
X42004528Y-20041380D01*
X42004526Y-20041378D01*
X42004523Y-20041374D01*
X41909225Y-19946076D01*
X41909221Y-19946073D01*
X41909220Y-19946072D01*
X41789126Y-19884881D01*
X41789124Y-19884880D01*
X41789121Y-19884879D01*
X41656002Y-19863796D01*
X41655998Y-19863796D01*
X41522878Y-19884879D01*
X41402778Y-19946073D01*
X41402774Y-19946076D01*
X41307476Y-20041374D01*
X41307473Y-20041378D01*
X41246279Y-20161478D01*
X41225196Y-20294597D01*
X31576802Y-20294597D01*
X31677717Y-19243133D01*
X32673052Y-18208997D01*
X36861796Y-18208997D01*
X36861796Y-18209002D01*
X36882879Y-18342121D01*
X36882880Y-18342124D01*
X36882881Y-18342126D01*
X36944072Y-18462220D01*
X36944073Y-18462221D01*
X36944076Y-18462225D01*
X37039374Y-18557523D01*
X37039378Y-18557526D01*
X37039380Y-18557528D01*
X37159474Y-18618719D01*
X37159476Y-18618719D01*
X37159478Y-18618720D01*
X37292598Y-18639804D01*
X37292600Y-18639804D01*
X37292602Y-18639804D01*
X37425721Y-18618720D01*
X37425721Y-18618719D01*
X37425726Y-18618719D01*
X37545820Y-18557528D01*
X37641128Y-18462220D01*
X37702319Y-18342126D01*
X37703410Y-18335237D01*
X37723404Y-18209002D01*
X37723404Y-18208997D01*
X37702320Y-18075878D01*
X37702319Y-18075876D01*
X37702319Y-18075874D01*
X37641128Y-17955780D01*
X37641126Y-17955778D01*
X37641123Y-17955774D01*
X37545825Y-17860476D01*
X37545821Y-17860473D01*
X37545820Y-17860472D01*
X37425726Y-17799281D01*
X37425724Y-17799280D01*
X37425721Y-17799279D01*
X37292602Y-17778196D01*
X37292598Y-17778196D01*
X37159478Y-17799279D01*
X37039378Y-17860473D01*
X37039374Y-17860476D01*
X36944076Y-17955774D01*
X36944073Y-17955778D01*
X36944072Y-17955780D01*
X36887936Y-18065954D01*
X36882879Y-18075878D01*
X36861796Y-18208997D01*
X32673052Y-18208997D01*
X33794919Y-17043397D01*
X46178196Y-17043397D01*
X46178196Y-17043402D01*
X46199279Y-17176521D01*
X46199280Y-17176524D01*
X46199281Y-17176526D01*
X46260472Y-17296620D01*
X46260473Y-17296621D01*
X46260476Y-17296625D01*
X46355774Y-17391923D01*
X46355778Y-17391926D01*
X46355780Y-17391928D01*
X46475874Y-17453119D01*
X46475876Y-17453119D01*
X46475878Y-17453120D01*
X46608998Y-17474204D01*
X46609000Y-17474204D01*
X46609002Y-17474204D01*
X46742121Y-17453120D01*
X46742121Y-17453119D01*
X46742126Y-17453119D01*
X46862220Y-17391928D01*
X46957528Y-17296620D01*
X47018719Y-17176526D01*
X47039804Y-17043400D01*
X47018719Y-16910274D01*
X46990555Y-16855000D01*
X50394246Y-16855000D01*
X50413244Y-17169084D01*
X50469965Y-17478604D01*
X50563571Y-17778994D01*
X50563575Y-17779005D01*
X50563576Y-17779008D01*
X50563578Y-17779013D01*
X50692719Y-18065954D01*
X50775257Y-18202489D01*
X50855504Y-18335235D01*
X50855510Y-18335243D01*
X51049567Y-18582938D01*
X51272061Y-18805432D01*
X51519756Y-18999489D01*
X51519764Y-18999495D01*
X51586136Y-19039618D01*
X51789046Y-19162281D01*
X52075987Y-19291422D01*
X52075997Y-19291425D01*
X52076005Y-19291428D01*
X52376396Y-19385034D01*
X52376397Y-19385034D01*
X52376402Y-19385036D01*
X52685911Y-19441755D01*
X53000000Y-19460754D01*
X53314089Y-19441755D01*
X53623598Y-19385036D01*
X53924013Y-19291422D01*
X54210954Y-19162281D01*
X54480237Y-18999494D01*
X54727935Y-18805435D01*
X54950435Y-18582935D01*
X55144494Y-18335237D01*
X55307281Y-18065954D01*
X55436422Y-17779013D01*
X55530036Y-17478598D01*
X55586755Y-17169089D01*
X55605754Y-16855000D01*
X55586755Y-16540911D01*
X55530036Y-16231402D01*
X55530034Y-16231395D01*
X55436428Y-15931005D01*
X55436424Y-15930994D01*
X55436422Y-15930987D01*
X55307281Y-15644046D01*
X55144494Y-15374763D01*
X55097800Y-15315163D01*
X54950432Y-15127061D01*
X54727938Y-14904567D01*
X54480243Y-14710510D01*
X54480235Y-14710504D01*
X54347489Y-14630257D01*
X54210954Y-14547719D01*
X53924013Y-14418578D01*
X53924008Y-14418576D01*
X53924005Y-14418575D01*
X53923994Y-14418571D01*
X53623603Y-14324965D01*
X53623605Y-14324965D01*
X53314084Y-14268244D01*
X53000000Y-14249246D01*
X52685915Y-14268244D01*
X52376395Y-14324965D01*
X52076005Y-14418571D01*
X52075994Y-14418575D01*
X51789050Y-14547717D01*
X51789048Y-14547718D01*
X51519764Y-14710504D01*
X51519756Y-14710510D01*
X51272061Y-14904567D01*
X51049567Y-15127061D01*
X50855510Y-15374756D01*
X50855504Y-15374764D01*
X50713926Y-15608965D01*
X50692719Y-15644046D01*
X50612808Y-15821603D01*
X50563575Y-15930994D01*
X50563571Y-15931005D01*
X50469965Y-16231395D01*
X50413244Y-16540915D01*
X50394246Y-16855000D01*
X46990555Y-16855000D01*
X46957528Y-16790180D01*
X46957526Y-16790178D01*
X46957523Y-16790174D01*
X46862225Y-16694876D01*
X46862221Y-16694873D01*
X46862220Y-16694872D01*
X46742126Y-16633681D01*
X46742124Y-16633680D01*
X46742121Y-16633679D01*
X46609002Y-16612596D01*
X46608998Y-16612596D01*
X46475878Y-16633679D01*
X46355778Y-16694873D01*
X46355774Y-16694876D01*
X46260476Y-16790174D01*
X46260473Y-16790178D01*
X46199279Y-16910278D01*
X46178196Y-17043397D01*
X33794919Y-17043397D01*
X35214593Y-15568380D01*
X49424409Y-15568380D01*
X49424409Y-15568385D01*
X49445492Y-15701504D01*
X49445493Y-15701507D01*
X49445494Y-15701509D01*
X49468785Y-15747220D01*
X49506686Y-15821604D01*
X49506689Y-15821608D01*
X49601987Y-15916906D01*
X49601991Y-15916909D01*
X49601993Y-15916911D01*
X49722087Y-15978102D01*
X49722089Y-15978102D01*
X49722091Y-15978103D01*
X49855211Y-15999187D01*
X49855213Y-15999187D01*
X49855215Y-15999187D01*
X49988334Y-15978103D01*
X49988334Y-15978102D01*
X49988339Y-15978102D01*
X50108433Y-15916911D01*
X50203741Y-15821603D01*
X50264932Y-15701509D01*
X50286017Y-15568383D01*
X50264932Y-15435257D01*
X50203741Y-15315163D01*
X50203739Y-15315161D01*
X50203736Y-15315157D01*
X50108438Y-15219859D01*
X50108434Y-15219856D01*
X50108433Y-15219855D01*
X49988339Y-15158664D01*
X49988337Y-15158663D01*
X49988334Y-15158662D01*
X49855215Y-15137579D01*
X49855211Y-15137579D01*
X49722091Y-15158662D01*
X49601991Y-15219856D01*
X49601987Y-15219859D01*
X49506689Y-15315157D01*
X49506686Y-15315161D01*
X49445492Y-15435261D01*
X49424409Y-15568380D01*
X35214593Y-15568380D01*
X36830000Y-13890000D01*
X37075090Y-7919592D01*
X37097508Y-7853418D01*
X37152144Y-7809868D01*
X37199692Y-7800682D01*
X40528897Y-7819651D01*
X40595821Y-7839717D01*
X40626949Y-7868667D01*
X44806452Y-13373614D01*
X44910000Y-13510000D01*
X48949857Y-13899857D01*
X49961022Y-13679497D01*
X54077596Y-13679497D01*
X54077596Y-13679502D01*
X54098679Y-13812621D01*
X54098680Y-13812624D01*
X54098681Y-13812626D01*
X54152476Y-13918204D01*
X54159873Y-13932721D01*
X54159876Y-13932725D01*
X54255174Y-14028023D01*
X54255178Y-14028026D01*
X54255180Y-14028028D01*
X54375274Y-14089219D01*
X54375276Y-14089219D01*
X54375278Y-14089220D01*
X54508398Y-14110304D01*
X54508400Y-14110304D01*
X54508402Y-14110304D01*
X54641521Y-14089220D01*
X54641521Y-14089219D01*
X54641526Y-14089219D01*
X54761620Y-14028028D01*
X54856928Y-13932720D01*
X54918119Y-13812626D01*
X54921181Y-13793288D01*
X54951109Y-13730154D01*
X55010419Y-13693221D01*
X55080282Y-13694217D01*
X55138516Y-13732825D01*
X55143975Y-13739801D01*
X55144572Y-13740623D01*
X55239872Y-13835923D01*
X55239876Y-13835926D01*
X55239878Y-13835928D01*
X55359972Y-13897119D01*
X55359974Y-13897119D01*
X55359976Y-13897120D01*
X55493096Y-13918204D01*
X55493098Y-13918204D01*
X55493100Y-13918204D01*
X55626219Y-13897120D01*
X55626219Y-13897119D01*
X55626224Y-13897119D01*
X55746318Y-13835928D01*
X55841626Y-13740620D01*
X55902817Y-13620526D01*
X55914561Y-13546378D01*
X55923902Y-13487402D01*
X55923902Y-13487397D01*
X55902818Y-13354278D01*
X55902817Y-13354276D01*
X55902817Y-13354274D01*
X55841626Y-13234180D01*
X55841624Y-13234178D01*
X55841621Y-13234174D01*
X55746323Y-13138876D01*
X55746319Y-13138873D01*
X55746318Y-13138872D01*
X55626224Y-13077681D01*
X55626222Y-13077680D01*
X55626219Y-13077679D01*
X55493100Y-13056596D01*
X55493096Y-13056596D01*
X55359976Y-13077679D01*
X55239876Y-13138873D01*
X55239872Y-13138876D01*
X55144574Y-13234174D01*
X55144571Y-13234178D01*
X55083377Y-13354278D01*
X55080315Y-13373614D01*
X55050385Y-13436749D01*
X54991073Y-13473679D01*
X54921210Y-13472681D01*
X54862978Y-13434070D01*
X54857521Y-13427096D01*
X54856926Y-13426277D01*
X54761625Y-13330976D01*
X54761621Y-13330973D01*
X54761620Y-13330972D01*
X54641526Y-13269781D01*
X54641524Y-13269780D01*
X54641521Y-13269779D01*
X54508402Y-13248696D01*
X54508398Y-13248696D01*
X54375278Y-13269779D01*
X54255178Y-13330973D01*
X54255174Y-13330976D01*
X54159876Y-13426274D01*
X54159873Y-13426278D01*
X54159872Y-13426280D01*
X54117215Y-13510000D01*
X54098679Y-13546378D01*
X54077596Y-13679497D01*
X49961022Y-13679497D01*
X51060000Y-13440000D01*
X53731317Y-12541317D01*
X54157447Y-11051749D01*
X59266796Y-11051749D01*
X59266796Y-11051754D01*
X59287879Y-11184873D01*
X59287880Y-11184876D01*
X59287881Y-11184878D01*
X59349072Y-11304972D01*
X59349073Y-11304973D01*
X59349076Y-11304977D01*
X59444374Y-11400275D01*
X59444378Y-11400278D01*
X59444380Y-11400280D01*
X59564474Y-11461471D01*
X59564476Y-11461471D01*
X59564478Y-11461472D01*
X59697598Y-11482556D01*
X59697600Y-11482556D01*
X59697602Y-11482556D01*
X59830721Y-11461472D01*
X59830721Y-11461471D01*
X59830726Y-11461471D01*
X59950820Y-11400280D01*
X60046128Y-11304972D01*
X60107319Y-11184878D01*
X60119460Y-11108221D01*
X60128404Y-11051754D01*
X60128404Y-11051749D01*
X60107320Y-10918630D01*
X60107319Y-10918628D01*
X60107319Y-10918626D01*
X60074898Y-10854997D01*
X60554596Y-10854997D01*
X60554596Y-10855002D01*
X60575679Y-10988121D01*
X60575680Y-10988124D01*
X60575681Y-10988126D01*
X60636872Y-11108220D01*
X60636873Y-11108221D01*
X60636876Y-11108225D01*
X60732174Y-11203523D01*
X60732178Y-11203526D01*
X60732180Y-11203528D01*
X60852274Y-11264719D01*
X60852276Y-11264719D01*
X60852278Y-11264720D01*
X60985398Y-11285804D01*
X60985400Y-11285804D01*
X60985402Y-11285804D01*
X61118521Y-11264720D01*
X61118521Y-11264719D01*
X61118526Y-11264719D01*
X61238620Y-11203528D01*
X61333928Y-11108220D01*
X61395119Y-10988126D01*
X61395120Y-10988121D01*
X61416204Y-10855002D01*
X61416204Y-10854997D01*
X61395120Y-10721878D01*
X61395119Y-10721876D01*
X61395119Y-10721874D01*
X61333928Y-10601780D01*
X61333926Y-10601778D01*
X61333923Y-10601774D01*
X61238625Y-10506476D01*
X61238621Y-10506473D01*
X61238620Y-10506472D01*
X61118526Y-10445281D01*
X61118524Y-10445280D01*
X61118521Y-10445279D01*
X60985402Y-10424196D01*
X60985398Y-10424196D01*
X60852278Y-10445279D01*
X60732178Y-10506473D01*
X60732174Y-10506476D01*
X60636876Y-10601774D01*
X60636873Y-10601778D01*
X60575679Y-10721878D01*
X60554596Y-10854997D01*
X60074898Y-10854997D01*
X60046128Y-10798532D01*
X60046126Y-10798530D01*
X60046123Y-10798526D01*
X59950825Y-10703228D01*
X59950821Y-10703225D01*
X59950820Y-10703224D01*
X59830726Y-10642033D01*
X59830724Y-10642032D01*
X59830721Y-10642031D01*
X59697602Y-10620948D01*
X59697598Y-10620948D01*
X59564478Y-10642031D01*
X59444378Y-10703225D01*
X59444374Y-10703228D01*
X59349076Y-10798526D01*
X59349073Y-10798530D01*
X59287879Y-10918630D01*
X59266796Y-11051749D01*
X54157447Y-11051749D01*
X54401280Y-10199415D01*
X54478202Y-10200101D01*
X54477343Y-9933533D01*
X54514286Y-9804397D01*
X54966596Y-9804397D01*
X54966596Y-9804402D01*
X54987679Y-9937521D01*
X54987680Y-9937524D01*
X54987681Y-9937526D01*
X55048872Y-10057620D01*
X55048873Y-10057621D01*
X55048876Y-10057625D01*
X55144174Y-10152923D01*
X55144178Y-10152926D01*
X55144180Y-10152928D01*
X55264274Y-10214119D01*
X55264276Y-10214119D01*
X55264278Y-10214120D01*
X55397398Y-10235204D01*
X55397400Y-10235204D01*
X55397402Y-10235204D01*
X55530521Y-10214120D01*
X55530521Y-10214119D01*
X55530526Y-10214119D01*
X55650620Y-10152928D01*
X55745928Y-10057620D01*
X55807119Y-9937526D01*
X55828204Y-9804400D01*
X55811624Y-9699720D01*
X55807120Y-9671278D01*
X55807119Y-9671276D01*
X55807119Y-9671274D01*
X55745928Y-9551180D01*
X55745926Y-9551178D01*
X55745923Y-9551174D01*
X55650625Y-9455876D01*
X55650621Y-9455873D01*
X55650620Y-9455872D01*
X55530526Y-9394681D01*
X55530524Y-9394680D01*
X55530521Y-9394679D01*
X55397402Y-9373596D01*
X55397398Y-9373596D01*
X55264278Y-9394679D01*
X55144178Y-9455873D01*
X55144174Y-9455876D01*
X55048876Y-9551174D01*
X55048873Y-9551178D01*
X55048872Y-9551180D01*
X55004369Y-9638523D01*
X54987679Y-9671278D01*
X54966596Y-9804397D01*
X54514286Y-9804397D01*
X54650000Y-9330000D01*
X54649998Y-9330000D01*
X54649999Y-9329999D01*
X54475401Y-9330866D01*
X54475269Y-9289997D01*
X56509196Y-9289997D01*
X56509196Y-9290002D01*
X56530279Y-9423121D01*
X56530280Y-9423124D01*
X56530281Y-9423126D01*
X56591472Y-9543220D01*
X56591473Y-9543221D01*
X56591476Y-9543225D01*
X56686774Y-9638523D01*
X56686778Y-9638526D01*
X56686780Y-9638528D01*
X56806874Y-9699719D01*
X56806876Y-9699719D01*
X56806878Y-9699720D01*
X56939998Y-9720804D01*
X56940000Y-9720804D01*
X56940002Y-9720804D01*
X57073121Y-9699720D01*
X57073121Y-9699719D01*
X57073126Y-9699719D01*
X57193220Y-9638528D01*
X57288528Y-9543220D01*
X57349719Y-9423126D01*
X57364331Y-9330868D01*
X57370804Y-9290002D01*
X57370804Y-9289997D01*
X57349720Y-9156878D01*
X57349719Y-9156876D01*
X57349719Y-9156874D01*
X57288528Y-9036780D01*
X57288526Y-9036778D01*
X57288523Y-9036774D01*
X57193225Y-8941476D01*
X57193221Y-8941473D01*
X57193220Y-8941472D01*
X57073126Y-8880281D01*
X57073124Y-8880280D01*
X57073121Y-8880279D01*
X56940002Y-8859196D01*
X56939998Y-8859196D01*
X56806878Y-8880279D01*
X56686778Y-8941473D01*
X56686774Y-8941476D01*
X56591476Y-9036774D01*
X56591473Y-9036778D01*
X56530279Y-9156878D01*
X56509196Y-9289997D01*
X54475269Y-9289997D01*
X54472418Y-8405000D01*
X54544353Y-8405000D01*
X54564834Y-8547456D01*
X54578841Y-8578126D01*
X54624623Y-8678373D01*
X54718872Y-8787143D01*
X54839947Y-8864953D01*
X54839950Y-8864954D01*
X54839949Y-8864954D01*
X54978036Y-8905499D01*
X54978038Y-8905500D01*
X54978039Y-8905500D01*
X55121962Y-8905500D01*
X55121962Y-8905499D01*
X55260053Y-8864953D01*
X55381128Y-8787143D01*
X55475377Y-8678373D01*
X55535165Y-8547457D01*
X55555647Y-8405000D01*
X55542641Y-8314537D01*
X57146512Y-8314537D01*
X57146512Y-8314542D01*
X57167595Y-8447661D01*
X57167596Y-8447664D01*
X57167597Y-8447666D01*
X57228788Y-8567760D01*
X57228789Y-8567761D01*
X57228792Y-8567765D01*
X57324090Y-8663063D01*
X57324094Y-8663066D01*
X57324096Y-8663068D01*
X57444190Y-8724259D01*
X57444192Y-8724259D01*
X57444194Y-8724260D01*
X57577314Y-8745344D01*
X57577316Y-8745344D01*
X57577318Y-8745344D01*
X57710437Y-8724260D01*
X57710437Y-8724259D01*
X57710442Y-8724259D01*
X57830536Y-8663068D01*
X57925844Y-8567760D01*
X57987035Y-8447666D01*
X58008120Y-8314540D01*
X57994667Y-8229602D01*
X57994666Y-8229597D01*
X58700396Y-8229597D01*
X58700396Y-8229602D01*
X58721479Y-8362721D01*
X58721480Y-8362724D01*
X58721481Y-8362726D01*
X58782672Y-8482820D01*
X58782673Y-8482821D01*
X58782676Y-8482825D01*
X58877974Y-8578123D01*
X58877978Y-8578126D01*
X58877980Y-8578128D01*
X58998074Y-8639319D01*
X58998076Y-8639319D01*
X58998078Y-8639320D01*
X59131198Y-8660404D01*
X59131200Y-8660404D01*
X59131202Y-8660404D01*
X59264321Y-8639320D01*
X59264321Y-8639319D01*
X59264326Y-8639319D01*
X59384420Y-8578128D01*
X59479728Y-8482820D01*
X59540919Y-8362726D01*
X59548551Y-8314540D01*
X59562004Y-8229602D01*
X59562004Y-8229597D01*
X59540920Y-8096478D01*
X59540919Y-8096476D01*
X59540919Y-8096474D01*
X59479728Y-7976380D01*
X59479726Y-7976378D01*
X59479723Y-7976374D01*
X59384425Y-7881076D01*
X59384421Y-7881073D01*
X59384420Y-7881072D01*
X59264326Y-7819881D01*
X59264324Y-7819880D01*
X59264321Y-7819879D01*
X59131202Y-7798796D01*
X59131198Y-7798796D01*
X58998078Y-7819879D01*
X58877978Y-7881073D01*
X58877974Y-7881076D01*
X58782676Y-7976374D01*
X58782673Y-7976378D01*
X58782672Y-7976380D01*
X58729611Y-8080519D01*
X58721479Y-8096478D01*
X58700396Y-8229597D01*
X57994666Y-8229597D01*
X57987036Y-8181418D01*
X57987035Y-8181416D01*
X57987035Y-8181414D01*
X57925844Y-8061320D01*
X57925842Y-8061318D01*
X57925839Y-8061314D01*
X57830541Y-7966016D01*
X57830537Y-7966013D01*
X57830536Y-7966012D01*
X57710442Y-7904821D01*
X57710440Y-7904820D01*
X57710437Y-7904819D01*
X57577318Y-7883736D01*
X57577314Y-7883736D01*
X57444194Y-7904819D01*
X57324094Y-7966013D01*
X57324090Y-7966016D01*
X57228792Y-8061314D01*
X57228789Y-8061318D01*
X57167595Y-8181418D01*
X57146512Y-8314537D01*
X55542641Y-8314537D01*
X55535165Y-8262543D01*
X55475377Y-8131627D01*
X55381128Y-8022857D01*
X55260053Y-7945047D01*
X55260051Y-7945046D01*
X55260049Y-7945045D01*
X55260050Y-7945045D01*
X55121963Y-7904500D01*
X55121961Y-7904500D01*
X54978039Y-7904500D01*
X54978036Y-7904500D01*
X54839949Y-7945045D01*
X54718873Y-8022856D01*
X54624623Y-8131626D01*
X54624622Y-8131628D01*
X54564834Y-8262543D01*
X54544353Y-8405000D01*
X54472418Y-8405000D01*
X54470053Y-7670797D01*
X63170796Y-7670797D01*
X63170796Y-7670802D01*
X63191879Y-7803921D01*
X63191880Y-7803924D01*
X63191881Y-7803926D01*
X63243289Y-7904819D01*
X63253073Y-7924021D01*
X63253076Y-7924025D01*
X63348374Y-8019323D01*
X63348378Y-8019326D01*
X63348380Y-8019328D01*
X63468474Y-8080519D01*
X63468476Y-8080519D01*
X63468478Y-8080520D01*
X63601598Y-8101604D01*
X63601600Y-8101604D01*
X63601602Y-8101604D01*
X63734721Y-8080520D01*
X63734721Y-8080519D01*
X63734726Y-8080519D01*
X63854820Y-8019328D01*
X63950128Y-7924020D01*
X64011319Y-7803926D01*
X64012132Y-7798796D01*
X64032404Y-7670802D01*
X64032404Y-7670797D01*
X64011320Y-7537678D01*
X64011319Y-7537676D01*
X64011319Y-7537674D01*
X63950128Y-7417580D01*
X63950126Y-7417578D01*
X63950123Y-7417574D01*
X63854825Y-7322276D01*
X63854821Y-7322273D01*
X63854820Y-7322272D01*
X63734726Y-7261081D01*
X63734724Y-7261080D01*
X63734721Y-7261079D01*
X63601602Y-7239996D01*
X63601598Y-7239996D01*
X63468478Y-7261079D01*
X63348378Y-7322273D01*
X63348374Y-7322276D01*
X63253076Y-7417574D01*
X63253073Y-7417578D01*
X63191879Y-7537678D01*
X63170796Y-7670797D01*
X54470053Y-7670797D01*
X54460805Y-4799997D01*
X55139196Y-4799997D01*
X55139196Y-4800002D01*
X55160279Y-4933121D01*
X55160280Y-4933124D01*
X55160281Y-4933126D01*
X55221472Y-5053220D01*
X55221473Y-5053221D01*
X55221476Y-5053225D01*
X55316774Y-5148523D01*
X55316778Y-5148526D01*
X55316780Y-5148528D01*
X55436874Y-5209719D01*
X55436876Y-5209719D01*
X55436878Y-5209720D01*
X55569998Y-5230804D01*
X55570000Y-5230804D01*
X55570002Y-5230804D01*
X55703121Y-5209720D01*
X55703121Y-5209719D01*
X55703126Y-5209719D01*
X55823220Y-5148528D01*
X55918528Y-5053220D01*
X55979719Y-4933126D01*
X56000804Y-4800000D01*
X55979719Y-4666874D01*
X55918528Y-4546780D01*
X55918526Y-4546778D01*
X55918523Y-4546774D01*
X55823225Y-4451476D01*
X55823221Y-4451473D01*
X55823220Y-4451472D01*
X55703126Y-4390281D01*
X55703124Y-4390280D01*
X55703121Y-4390279D01*
X55570002Y-4369196D01*
X55569998Y-4369196D01*
X55436878Y-4390279D01*
X55316778Y-4451473D01*
X55316774Y-4451476D01*
X55221476Y-4546774D01*
X55221473Y-4546778D01*
X55160279Y-4666878D01*
X55139196Y-4799997D01*
X54460805Y-4799997D01*
X54460000Y-4550000D01*
X50911920Y-4554485D01*
X50689203Y-531352D01*
X50705151Y-463329D01*
X50755346Y-414725D01*
X50813013Y-400500D01*
X61284891Y-400500D01*
X61351930Y-420185D01*
G37*
G04 #@! TD.AperFunction*
G04 #@! TA.AperFunction,Conductor*
G36*
X5532384Y-35556151D02*
G01*
X8103800Y-36479441D01*
X8160243Y-36520623D01*
X8160847Y-36521415D01*
X8163236Y-36524579D01*
X8163241Y-36524584D01*
X8313958Y-36661980D01*
X8313960Y-36661982D01*
X8413141Y-36723392D01*
X8487363Y-36769348D01*
X8677544Y-36843024D01*
X8878024Y-36880500D01*
X8878026Y-36880500D01*
X9081975Y-36880500D01*
X9081976Y-36880500D01*
X9140204Y-36869615D01*
X9204890Y-36874797D01*
X24747655Y-42455567D01*
X24771144Y-42466918D01*
X37340000Y-50270000D01*
X47588357Y-51147291D01*
X47646443Y-51167584D01*
X49590000Y-52460000D01*
X49885209Y-52472562D01*
X49951348Y-52495078D01*
X49994816Y-52549779D01*
X50001811Y-52619298D01*
X49970110Y-52681562D01*
X49938389Y-52705806D01*
X49890862Y-52731210D01*
X49890855Y-52731215D01*
X49735615Y-52858615D01*
X49608215Y-53013855D01*
X49608210Y-53013861D01*
X49513548Y-53190961D01*
X49455250Y-53383144D01*
X49435567Y-53583000D01*
X49455250Y-53782855D01*
X49513548Y-53975038D01*
X49608210Y-54152138D01*
X49608215Y-54152144D01*
X49735615Y-54307384D01*
X49890855Y-54434784D01*
X49890861Y-54434789D01*
X50067961Y-54529451D01*
X50067963Y-54529451D01*
X50067966Y-54529453D01*
X50260143Y-54587749D01*
X50410899Y-54602597D01*
X50461388Y-54622984D01*
X50498149Y-54604172D01*
X50509097Y-54602597D01*
X50659857Y-54587749D01*
X50852034Y-54529453D01*
X50858227Y-54526143D01*
X51029138Y-54434789D01*
X51029140Y-54434786D01*
X51029144Y-54434785D01*
X51184384Y-54307384D01*
X51311785Y-54152144D01*
X51311786Y-54152140D01*
X51311789Y-54152138D01*
X51406451Y-53975038D01*
X51406451Y-53975037D01*
X51406453Y-53975034D01*
X51464749Y-53782857D01*
X51484433Y-53583000D01*
X51464749Y-53383143D01*
X51406453Y-53190966D01*
X51406451Y-53190963D01*
X51406451Y-53190961D01*
X51311789Y-53013861D01*
X51311784Y-53013855D01*
X51184384Y-52858615D01*
X51046286Y-52745283D01*
X51006951Y-52687537D01*
X51005080Y-52617693D01*
X51041267Y-52557924D01*
X51104023Y-52527208D01*
X51130218Y-52525541D01*
X51410940Y-52537486D01*
X51477080Y-52560003D01*
X51505234Y-52587468D01*
X52189998Y-53509999D01*
X52189999Y-53509999D01*
X52190000Y-53510000D01*
X52646532Y-53514658D01*
X52713366Y-53535026D01*
X52758580Y-53588294D01*
X52767817Y-53657550D01*
X52738146Y-53720807D01*
X52681262Y-53757312D01*
X52607964Y-53779547D01*
X52430861Y-53874210D01*
X52430855Y-53874215D01*
X52275615Y-54001615D01*
X52148215Y-54156855D01*
X52148210Y-54156861D01*
X52053548Y-54333961D01*
X51995250Y-54526144D01*
X51975567Y-54726000D01*
X51995250Y-54925855D01*
X52053548Y-55118038D01*
X52148210Y-55295138D01*
X52148215Y-55295144D01*
X52275615Y-55450384D01*
X52430855Y-55577784D01*
X52430861Y-55577789D01*
X52607961Y-55672451D01*
X52607963Y-55672451D01*
X52607966Y-55672453D01*
X52800143Y-55730749D01*
X52916530Y-55742212D01*
X52950899Y-55745597D01*
X53001388Y-55765984D01*
X53038149Y-55747172D01*
X53049097Y-55745597D01*
X53199857Y-55730749D01*
X53392034Y-55672453D01*
X53405304Y-55665360D01*
X53569138Y-55577789D01*
X53569140Y-55577786D01*
X53569144Y-55577785D01*
X53724384Y-55450384D01*
X53851785Y-55295144D01*
X53880463Y-55241490D01*
X53929425Y-55191646D01*
X53997563Y-55176185D01*
X54063243Y-55200016D01*
X54105612Y-55255573D01*
X54113796Y-55302475D01*
X54102000Y-55879990D01*
X54102000Y-55880003D01*
X54129722Y-56462167D01*
X54113248Y-56530067D01*
X54062680Y-56578282D01*
X53994073Y-56591503D01*
X53929209Y-56565534D01*
X53896504Y-56526518D01*
X53851788Y-56442861D01*
X53851784Y-56442855D01*
X53724384Y-56287615D01*
X53569144Y-56160215D01*
X53569138Y-56160210D01*
X53392038Y-56065548D01*
X53199855Y-56007250D01*
X53068748Y-55994338D01*
X53049099Y-55992402D01*
X52998610Y-55972015D01*
X52961850Y-55990828D01*
X52950899Y-55992403D01*
X52800144Y-56007250D01*
X52607961Y-56065548D01*
X52430861Y-56160210D01*
X52430855Y-56160215D01*
X52275615Y-56287615D01*
X52148215Y-56442855D01*
X52148210Y-56442861D01*
X52053548Y-56619961D01*
X51995250Y-56812144D01*
X51975567Y-57012000D01*
X51995250Y-57211855D01*
X52053548Y-57404038D01*
X52148210Y-57581138D01*
X52148215Y-57581144D01*
X52275615Y-57736384D01*
X52430855Y-57863784D01*
X52430861Y-57863789D01*
X52607961Y-57958451D01*
X52607963Y-57958451D01*
X52607966Y-57958453D01*
X52800143Y-58016749D01*
X53000000Y-58036433D01*
X53199857Y-58016749D01*
X53392034Y-57958453D01*
X53392038Y-57958451D01*
X53569138Y-57863789D01*
X53569140Y-57863786D01*
X53569144Y-57863785D01*
X53724384Y-57736384D01*
X53851785Y-57581144D01*
X53851786Y-57581140D01*
X53851789Y-57581138D01*
X53944070Y-57408493D01*
X53993032Y-57358648D01*
X54061170Y-57343188D01*
X54126850Y-57367020D01*
X54169218Y-57422577D01*
X54177288Y-57461048D01*
X54226333Y-58490996D01*
X54209859Y-58558896D01*
X54188712Y-58585994D01*
X49096121Y-63515038D01*
X49034259Y-63547518D01*
X49009731Y-63549938D01*
X40933072Y-63540125D01*
X40866057Y-63520359D01*
X40820366Y-63467499D01*
X40811284Y-63438641D01*
X39485942Y-56261038D01*
X39413552Y-55869000D01*
X49435567Y-55869000D01*
X49455250Y-56068855D01*
X49513548Y-56261038D01*
X49608210Y-56438138D01*
X49608215Y-56438144D01*
X49735615Y-56593384D01*
X49890855Y-56720784D01*
X49890861Y-56720789D01*
X50067961Y-56815451D01*
X50067963Y-56815451D01*
X50067966Y-56815453D01*
X50260143Y-56873749D01*
X50460000Y-56893433D01*
X50659857Y-56873749D01*
X50852034Y-56815453D01*
X50858227Y-56812143D01*
X51029138Y-56720789D01*
X51029140Y-56720786D01*
X51029144Y-56720785D01*
X51184384Y-56593384D01*
X51311785Y-56438144D01*
X51311786Y-56438140D01*
X51311789Y-56438138D01*
X51406451Y-56261038D01*
X51406451Y-56261037D01*
X51406453Y-56261034D01*
X51464749Y-56068857D01*
X51484433Y-55869000D01*
X51464749Y-55669143D01*
X51406453Y-55476966D01*
X51406451Y-55476963D01*
X51406451Y-55476961D01*
X51311789Y-55299861D01*
X51311784Y-55299855D01*
X51184384Y-55144615D01*
X51029144Y-55017215D01*
X51029138Y-55017210D01*
X50852038Y-54922548D01*
X50659855Y-54864250D01*
X50528748Y-54851338D01*
X50509099Y-54849402D01*
X50458610Y-54829015D01*
X50421850Y-54847828D01*
X50410899Y-54849403D01*
X50260144Y-54864250D01*
X50067961Y-54922548D01*
X49890861Y-55017210D01*
X49890855Y-55017215D01*
X49735615Y-55144615D01*
X49608215Y-55299855D01*
X49608210Y-55299861D01*
X49513548Y-55476961D01*
X49455250Y-55669144D01*
X49435567Y-55869000D01*
X39413552Y-55869000D01*
X39170000Y-54550000D01*
X39065660Y-54526144D01*
X30510003Y-52570000D01*
X20638376Y-52430542D01*
X20571622Y-52409912D01*
X20568638Y-52407871D01*
X18810866Y-51167584D01*
X15567767Y-48879247D01*
X15001941Y-48479999D01*
X23114785Y-48479999D01*
X23114785Y-48480000D01*
X23133602Y-48683082D01*
X23189417Y-48879247D01*
X23189422Y-48879260D01*
X23280327Y-49061821D01*
X23403237Y-49224581D01*
X23553958Y-49361980D01*
X23553960Y-49361982D01*
X23620262Y-49403034D01*
X23727363Y-49469348D01*
X23917544Y-49543024D01*
X24118024Y-49580500D01*
X24118026Y-49580500D01*
X24321974Y-49580500D01*
X24321976Y-49580500D01*
X24522456Y-49543024D01*
X24712637Y-49469348D01*
X24886041Y-49361981D01*
X25036764Y-49224579D01*
X25159673Y-49061821D01*
X25250582Y-48879250D01*
X25306397Y-48683083D01*
X25325215Y-48480000D01*
X25306397Y-48276917D01*
X25250582Y-48080750D01*
X25159673Y-47898179D01*
X25068465Y-47777400D01*
X25036762Y-47735418D01*
X24886041Y-47598019D01*
X24886039Y-47598017D01*
X24712642Y-47490655D01*
X24712635Y-47490651D01*
X24606111Y-47449384D01*
X24522456Y-47416976D01*
X24321976Y-47379500D01*
X24118024Y-47379500D01*
X23917544Y-47416976D01*
X23917541Y-47416976D01*
X23917541Y-47416977D01*
X23727364Y-47490651D01*
X23727357Y-47490655D01*
X23553960Y-47598017D01*
X23553958Y-47598019D01*
X23403237Y-47735418D01*
X23280327Y-47898178D01*
X23189422Y-48080739D01*
X23189417Y-48080752D01*
X23133602Y-48276917D01*
X23114785Y-48479999D01*
X15001941Y-48479999D01*
X12210006Y-46510004D01*
X12210003Y-46510002D01*
X12210000Y-46510000D01*
X11251399Y-45935999D01*
X23114785Y-45935999D01*
X23114785Y-45936000D01*
X23133602Y-46139082D01*
X23189417Y-46335247D01*
X23189422Y-46335260D01*
X23280327Y-46517821D01*
X23403237Y-46680581D01*
X23553958Y-46817980D01*
X23553960Y-46817982D01*
X23595282Y-46843567D01*
X23727363Y-46925348D01*
X23917544Y-46999024D01*
X24118024Y-47036500D01*
X24118026Y-47036500D01*
X24321974Y-47036500D01*
X24321976Y-47036500D01*
X24522456Y-46999024D01*
X24712637Y-46925348D01*
X24886041Y-46817981D01*
X25036764Y-46680579D01*
X25159673Y-46517821D01*
X25250582Y-46335250D01*
X25306397Y-46139083D01*
X25325215Y-45936000D01*
X25306397Y-45732917D01*
X25250582Y-45536750D01*
X25216550Y-45468405D01*
X25185871Y-45406793D01*
X25159673Y-45354179D01*
X25036764Y-45191421D01*
X25036762Y-45191418D01*
X24886041Y-45054019D01*
X24886039Y-45054017D01*
X24712642Y-44946655D01*
X24712635Y-44946651D01*
X24617546Y-44909814D01*
X24522456Y-44872976D01*
X24321976Y-44835500D01*
X24118024Y-44835500D01*
X23917544Y-44872976D01*
X23917541Y-44872976D01*
X23917541Y-44872977D01*
X23727364Y-44946651D01*
X23727357Y-44946655D01*
X23553960Y-45054017D01*
X23553958Y-45054019D01*
X23403237Y-45191418D01*
X23280327Y-45354178D01*
X23189422Y-45536739D01*
X23189417Y-45536752D01*
X23133602Y-45732917D01*
X23114785Y-45935999D01*
X11251399Y-45935999D01*
X10353504Y-45398348D01*
X10410000Y-43950000D01*
X7887514Y-43921736D01*
X7887513Y-43921736D01*
X7440398Y-43654008D01*
X7392995Y-43602680D01*
X7381164Y-43563812D01*
X7366844Y-43455038D01*
X7306336Y-43308959D01*
X7210082Y-43183518D01*
X7084641Y-43087264D01*
X6938562Y-43026756D01*
X6938560Y-43026755D01*
X6781801Y-43006118D01*
X6781799Y-43006118D01*
X6625039Y-43026755D01*
X6625037Y-43026756D01*
X6478960Y-43087263D01*
X6353518Y-43183518D01*
X6257263Y-43308960D01*
X6196756Y-43455037D01*
X6196756Y-43455038D01*
X6187433Y-43525853D01*
X6159166Y-43589749D01*
X6100842Y-43628220D01*
X6074301Y-43633279D01*
X5493325Y-43679374D01*
X5424939Y-43665053D01*
X5375151Y-43616033D01*
X5359518Y-43555654D01*
X5366483Y-35672745D01*
X5386227Y-35605725D01*
X5439071Y-35560017D01*
X5508238Y-35550135D01*
X5532384Y-35556151D01*
G37*
G04 #@! TD.AperFunction*
G04 #@! TA.AperFunction,Conductor*
G36*
X34470000Y-27840000D02*
G01*
X33647692Y-27848015D01*
X33610952Y-27775909D01*
X33610948Y-27775905D01*
X33610947Y-27775903D01*
X33521249Y-27686205D01*
X33521246Y-27686203D01*
X33521244Y-27686201D01*
X33408206Y-27628605D01*
X33408205Y-27628604D01*
X33408202Y-27628603D01*
X33282905Y-27608759D01*
X33282899Y-27608759D01*
X33157601Y-27628603D01*
X33157600Y-27628603D01*
X33082239Y-27667002D01*
X33044560Y-27686201D01*
X33044559Y-27686202D01*
X33044554Y-27686205D01*
X32954856Y-27775903D01*
X32954853Y-27775908D01*
X32914468Y-27855165D01*
X30930000Y-27874512D01*
X30930000Y-27874511D01*
X30929999Y-27874511D01*
X30929998Y-27874510D01*
X30849243Y-27875298D01*
X30849242Y-27875299D01*
X27290000Y-27910000D01*
X27290000Y-20650000D01*
X34500000Y-20630000D01*
X34470000Y-27840000D01*
G37*
G04 #@! TD.AperFunction*
G04 #@! TA.AperFunction,Conductor*
G36*
X23170000Y-70040000D02*
G01*
X26072824Y-69766545D01*
X25940000Y-70030000D01*
X33320000Y-70130000D01*
X26510000Y-76190000D01*
X12770000Y-75840000D01*
X8379502Y-71989999D01*
X29074750Y-71989999D01*
X29074750Y-71990000D01*
X29093670Y-72133708D01*
X29093671Y-72133712D01*
X29149137Y-72267622D01*
X29149138Y-72267624D01*
X29149139Y-72267625D01*
X29237379Y-72382621D01*
X29352375Y-72470861D01*
X29486291Y-72526330D01*
X29613280Y-72543048D01*
X29629999Y-72545250D01*
X29630000Y-72545250D01*
X29630001Y-72545250D01*
X29644977Y-72543278D01*
X29773709Y-72526330D01*
X29907625Y-72470861D01*
X30022621Y-72382621D01*
X30110861Y-72267625D01*
X30166330Y-72133709D01*
X30185250Y-71990000D01*
X30166330Y-71846291D01*
X30110861Y-71712375D01*
X30022621Y-71597379D01*
X29907625Y-71509139D01*
X29907624Y-71509138D01*
X29907622Y-71509137D01*
X29773712Y-71453671D01*
X29773710Y-71453670D01*
X29773709Y-71453670D01*
X29701854Y-71444210D01*
X29630001Y-71434750D01*
X29629999Y-71434750D01*
X29486291Y-71453670D01*
X29486287Y-71453671D01*
X29352377Y-71509137D01*
X29237379Y-71597379D01*
X29149137Y-71712377D01*
X29093671Y-71846287D01*
X29093670Y-71846291D01*
X29074750Y-71989999D01*
X8379502Y-71989999D01*
X7729477Y-71419996D01*
X19229819Y-71419996D01*
X19229819Y-71420003D01*
X19248424Y-71537477D01*
X19248424Y-71537478D01*
X19302428Y-71643466D01*
X19302431Y-71643470D01*
X19386529Y-71727568D01*
X19386533Y-71727571D01*
X19386535Y-71727573D01*
X19492518Y-71781574D01*
X19492520Y-71781574D01*
X19492522Y-71781575D01*
X19609997Y-71800181D01*
X19610000Y-71800181D01*
X19610003Y-71800181D01*
X19727477Y-71781575D01*
X19727478Y-71781575D01*
X19727479Y-71781574D01*
X19727482Y-71781574D01*
X19833465Y-71727573D01*
X19917573Y-71643465D01*
X19971574Y-71537482D01*
X19976063Y-71509139D01*
X19990181Y-71420003D01*
X19990181Y-71419996D01*
X19971575Y-71302522D01*
X19971575Y-71302521D01*
X19971574Y-71302519D01*
X19971574Y-71302518D01*
X19917573Y-71196535D01*
X19917571Y-71196533D01*
X19917568Y-71196529D01*
X19833470Y-71112431D01*
X19833466Y-71112428D01*
X19833465Y-71112427D01*
X19727482Y-71058426D01*
X19727480Y-71058425D01*
X19727477Y-71058424D01*
X19610003Y-71039819D01*
X19609997Y-71039819D01*
X19492522Y-71058424D01*
X19492521Y-71058424D01*
X19386533Y-71112428D01*
X19386529Y-71112431D01*
X19302431Y-71196529D01*
X19302428Y-71196533D01*
X19248424Y-71302521D01*
X19248424Y-71302522D01*
X19229819Y-71419996D01*
X7729477Y-71419996D01*
X7490000Y-71210000D01*
X7481486Y-70916796D01*
X27127619Y-70916796D01*
X27127619Y-70916803D01*
X27146224Y-71034277D01*
X27146224Y-71034278D01*
X27146225Y-71034281D01*
X27146226Y-71034282D01*
X27189901Y-71120000D01*
X27200228Y-71140266D01*
X27200231Y-71140270D01*
X27284329Y-71224368D01*
X27284333Y-71224371D01*
X27284335Y-71224373D01*
X27390318Y-71278374D01*
X27390320Y-71278374D01*
X27390322Y-71278375D01*
X27507797Y-71296981D01*
X27507800Y-71296981D01*
X27507803Y-71296981D01*
X27625277Y-71278375D01*
X27625278Y-71278375D01*
X27625279Y-71278374D01*
X27625282Y-71278374D01*
X27731265Y-71224373D01*
X27815373Y-71140265D01*
X27869374Y-71034282D01*
X27887981Y-70916800D01*
X27887981Y-70916796D01*
X27869375Y-70799322D01*
X27869375Y-70799321D01*
X27869374Y-70799319D01*
X27869374Y-70799318D01*
X27815373Y-70693335D01*
X27815371Y-70693333D01*
X27815368Y-70693329D01*
X27731270Y-70609231D01*
X27731266Y-70609228D01*
X27731265Y-70609227D01*
X27625282Y-70555226D01*
X27625280Y-70555225D01*
X27625277Y-70555224D01*
X27507803Y-70536619D01*
X27507797Y-70536619D01*
X27390322Y-70555224D01*
X27390321Y-70555224D01*
X27284333Y-70609228D01*
X27284329Y-70609231D01*
X27200231Y-70693329D01*
X27200228Y-70693333D01*
X27146224Y-70799321D01*
X27146224Y-70799322D01*
X27127619Y-70916796D01*
X7481486Y-70916796D01*
X7452250Y-69909996D01*
X12809819Y-69909996D01*
X12809819Y-69910003D01*
X12828424Y-70027477D01*
X12828424Y-70027478D01*
X12882428Y-70133466D01*
X12882431Y-70133470D01*
X12966529Y-70217568D01*
X12966533Y-70217571D01*
X12966535Y-70217573D01*
X13072518Y-70271574D01*
X13072520Y-70271574D01*
X13072522Y-70271575D01*
X13189997Y-70290181D01*
X13190000Y-70290181D01*
X13190003Y-70290181D01*
X13307477Y-70271575D01*
X13307478Y-70271575D01*
X13307479Y-70271574D01*
X13307482Y-70271574D01*
X13413465Y-70217573D01*
X13497573Y-70133465D01*
X13551574Y-70027482D01*
X13570181Y-69910000D01*
X13570181Y-69909996D01*
X13551575Y-69792522D01*
X13551575Y-69792521D01*
X13551574Y-69792519D01*
X13551574Y-69792518D01*
X13497573Y-69686535D01*
X13497571Y-69686533D01*
X13497568Y-69686529D01*
X13413470Y-69602431D01*
X13413466Y-69602428D01*
X13413465Y-69602427D01*
X13307482Y-69548426D01*
X13307480Y-69548425D01*
X13307477Y-69548424D01*
X13190003Y-69529819D01*
X13189997Y-69529819D01*
X13072522Y-69548424D01*
X13072521Y-69548424D01*
X12966533Y-69602428D01*
X12966529Y-69602431D01*
X12882431Y-69686529D01*
X12882428Y-69686533D01*
X12828424Y-69792521D01*
X12828424Y-69792522D01*
X12809819Y-69909996D01*
X7452250Y-69909996D01*
X7420018Y-68800000D01*
X7924417Y-68800000D01*
X7944699Y-69005932D01*
X7944700Y-69005934D01*
X8004768Y-69203954D01*
X8102315Y-69386450D01*
X8102317Y-69386452D01*
X8233589Y-69546410D01*
X8301852Y-69602431D01*
X8393550Y-69677685D01*
X8576046Y-69775232D01*
X8774066Y-69835300D01*
X8774065Y-69835300D01*
X8792529Y-69837118D01*
X8980000Y-69855583D01*
X9185934Y-69835300D01*
X9383954Y-69775232D01*
X9566450Y-69677685D01*
X9726410Y-69546410D01*
X9857685Y-69386450D01*
X9955232Y-69203954D01*
X10015300Y-69005934D01*
X10035583Y-68800000D01*
X10015300Y-68594066D01*
X9955232Y-68396046D01*
X9897479Y-68287999D01*
X14674722Y-68287999D01*
X14674722Y-68288000D01*
X14693762Y-68444818D01*
X14749780Y-68592523D01*
X14839517Y-68722530D01*
X14957760Y-68827283D01*
X14957762Y-68827284D01*
X15097634Y-68900696D01*
X15251014Y-68938500D01*
X15251015Y-68938500D01*
X15408985Y-68938500D01*
X15562365Y-68900696D01*
X15702240Y-68827283D01*
X15820483Y-68722530D01*
X15910220Y-68592523D01*
X15966237Y-68444818D01*
X15985278Y-68288000D01*
X15985278Y-68287999D01*
X17976722Y-68287999D01*
X17976722Y-68288000D01*
X17995762Y-68444818D01*
X18051780Y-68592523D01*
X18141517Y-68722530D01*
X18259760Y-68827283D01*
X18259762Y-68827284D01*
X18399634Y-68900696D01*
X18553014Y-68938500D01*
X18553015Y-68938500D01*
X18710985Y-68938500D01*
X18864365Y-68900696D01*
X19004240Y-68827283D01*
X19122483Y-68722530D01*
X19212220Y-68592523D01*
X19268237Y-68444818D01*
X19287278Y-68288000D01*
X19268237Y-68131182D01*
X19212220Y-67983477D01*
X19122483Y-67853470D01*
X19004240Y-67748717D01*
X19004238Y-67748716D01*
X19004237Y-67748715D01*
X18864365Y-67675303D01*
X18710986Y-67637500D01*
X18710985Y-67637500D01*
X18553015Y-67637500D01*
X18553014Y-67637500D01*
X18399634Y-67675303D01*
X18259762Y-67748715D01*
X18141516Y-67853471D01*
X18051781Y-67983475D01*
X18051780Y-67983476D01*
X17995762Y-68131181D01*
X17976722Y-68287999D01*
X15985278Y-68287999D01*
X15966237Y-68131182D01*
X15910220Y-67983477D01*
X15820483Y-67853470D01*
X15702240Y-67748717D01*
X15702238Y-67748716D01*
X15702237Y-67748715D01*
X15562365Y-67675303D01*
X15408986Y-67637500D01*
X15408985Y-67637500D01*
X15251015Y-67637500D01*
X15251014Y-67637500D01*
X15097634Y-67675303D01*
X14957762Y-67748715D01*
X14839516Y-67853471D01*
X14749781Y-67983475D01*
X14749780Y-67983476D01*
X14693762Y-68131181D01*
X14674722Y-68287999D01*
X9897479Y-68287999D01*
X9857685Y-68213550D01*
X9790087Y-68131181D01*
X9726410Y-68053589D01*
X9566452Y-67922317D01*
X9566453Y-67922317D01*
X9566450Y-67922315D01*
X9383954Y-67824768D01*
X9185934Y-67764700D01*
X9185932Y-67764699D01*
X9185934Y-67764699D01*
X8980000Y-67744417D01*
X8774067Y-67764699D01*
X8576043Y-67824769D01*
X8465898Y-67883643D01*
X8393550Y-67922315D01*
X8393548Y-67922316D01*
X8393547Y-67922317D01*
X8233589Y-68053589D01*
X8102317Y-68213547D01*
X8004769Y-68396043D01*
X7944699Y-68594067D01*
X7924417Y-68800000D01*
X7420018Y-68800000D01*
X7330000Y-65700000D01*
X6594978Y-65741209D01*
X6598012Y-65444453D01*
X6618380Y-65377623D01*
X6671649Y-65332410D01*
X6722463Y-65321727D01*
X10275812Y-65335036D01*
X10293130Y-65333253D01*
X10308620Y-65331659D01*
X10308624Y-65331658D01*
X10308637Y-65331657D01*
X10355491Y-65321726D01*
X10359827Y-65320807D01*
X10359828Y-65320806D01*
X10359831Y-65320806D01*
X10428603Y-65286907D01*
X10437004Y-65279729D01*
X10500759Y-65251143D01*
X10517558Y-65250000D01*
X10569999Y-65250000D01*
X10570000Y-65250000D01*
X11054445Y-64824668D01*
X11117808Y-64795232D01*
X11187029Y-64804724D01*
X11234627Y-64842362D01*
X11265979Y-64883221D01*
X11380975Y-64971461D01*
X11514891Y-65026930D01*
X11641880Y-65043648D01*
X11658599Y-65045850D01*
X11658600Y-65045850D01*
X11658601Y-65045850D01*
X11673577Y-65043878D01*
X11802309Y-65026930D01*
X11936225Y-64971461D01*
X12051221Y-64883221D01*
X12139461Y-64768225D01*
X12194930Y-64634309D01*
X12213850Y-64490600D01*
X12194930Y-64346891D01*
X12139461Y-64212975D01*
X12053818Y-64101363D01*
X12028625Y-64036197D01*
X12042663Y-63967752D01*
X12070379Y-63932702D01*
X13930000Y-62300000D01*
X23170000Y-70040000D01*
G37*
G04 #@! TD.AperFunction*
G04 #@! TA.AperFunction,Conductor*
G36*
X64540541Y-41044915D02*
G01*
X64587293Y-41096838D01*
X64599500Y-41150488D01*
X64599500Y-62898305D01*
X56820000Y-67090000D01*
X27150000Y-67630000D01*
X26072824Y-69766545D01*
X23170000Y-70040000D01*
X13930000Y-62300000D01*
X13839063Y-62379840D01*
X6910699Y-55977479D01*
X6874823Y-55917525D01*
X6870856Y-55886119D01*
X6870886Y-55873895D01*
X6864259Y-55821636D01*
X6848376Y-55760622D01*
X6842649Y-55742212D01*
X6842648Y-55742210D01*
X6793078Y-55665368D01*
X6793075Y-55665364D01*
X6793072Y-55665360D01*
X6747929Y-55621281D01*
X6713717Y-55560363D01*
X6714787Y-55500461D01*
X6716438Y-55494293D01*
X6716445Y-55494279D01*
X6737083Y-55337517D01*
X6716445Y-55180755D01*
X6716442Y-55180749D01*
X6715435Y-55176986D01*
X6715513Y-55173681D01*
X6715384Y-55172697D01*
X6715537Y-55172676D01*
X6717096Y-55107136D01*
X6754227Y-55050987D01*
X6782292Y-55026786D01*
X6800288Y-55009238D01*
X6845124Y-54929526D01*
X6864968Y-54862534D01*
X6873430Y-54804658D01*
X6874857Y-54204308D01*
X6894701Y-54137320D01*
X6947614Y-54091690D01*
X6982672Y-54081668D01*
X7014762Y-54077444D01*
X7160841Y-54016936D01*
X7286282Y-53920682D01*
X7382536Y-53795241D01*
X7443044Y-53649162D01*
X7462054Y-53504769D01*
X7463682Y-53492401D01*
X7463682Y-53492398D01*
X7443044Y-53335639D01*
X7443044Y-53335638D01*
X7382536Y-53189559D01*
X7286282Y-53064118D01*
X7160841Y-52967864D01*
X7014762Y-52907356D01*
X7000328Y-52905455D01*
X6986059Y-52903577D01*
X6922163Y-52875309D01*
X6883692Y-52816984D01*
X6878246Y-52780343D01*
X6878363Y-52731210D01*
X6895195Y-45657970D01*
X6889986Y-45611499D01*
X6877441Y-45556855D01*
X6874040Y-45543974D01*
X6829003Y-45464376D01*
X6781926Y-45412746D01*
X6767085Y-45398348D01*
X6763884Y-45395242D01*
X6763883Y-45395241D01*
X6710583Y-45367174D01*
X6682961Y-45352629D01*
X6682960Y-45352628D01*
X6682959Y-45352628D01*
X6611167Y-45333508D01*
X6611579Y-45331959D01*
X6555475Y-45303139D01*
X6520452Y-45242681D01*
X6516926Y-45214913D01*
X6505195Y-44324091D01*
X6523995Y-44256799D01*
X6576192Y-44210353D01*
X6645209Y-44199499D01*
X6781800Y-44217482D01*
X6781801Y-44217482D01*
X6835950Y-44210353D01*
X6938562Y-44196844D01*
X7084641Y-44136336D01*
X7210082Y-44040082D01*
X7268141Y-43964417D01*
X7324566Y-43923216D01*
X7367894Y-43915914D01*
X10410000Y-43950000D01*
X10353504Y-45398348D01*
X10250401Y-48041530D01*
X10228118Y-48107751D01*
X10173571Y-48151413D01*
X10104077Y-48158654D01*
X10041701Y-48127174D01*
X10013660Y-48085621D01*
X10013138Y-48085882D01*
X10011172Y-48081934D01*
X10010861Y-48081473D01*
X10010586Y-48080765D01*
X10010582Y-48080750D01*
X9919673Y-47898179D01*
X9828465Y-47777400D01*
X9796762Y-47735418D01*
X9646041Y-47598019D01*
X9646039Y-47598017D01*
X9472642Y-47490655D01*
X9472635Y-47490651D01*
X9297115Y-47422655D01*
X9282456Y-47416976D01*
X9081976Y-47379500D01*
X8878024Y-47379500D01*
X8677544Y-47416976D01*
X8677541Y-47416976D01*
X8677541Y-47416977D01*
X8487364Y-47490651D01*
X8487357Y-47490655D01*
X8313960Y-47598017D01*
X8313958Y-47598019D01*
X8163237Y-47735418D01*
X8040327Y-47898178D01*
X7949422Y-48080739D01*
X7949417Y-48080752D01*
X7893602Y-48276917D01*
X7874785Y-48479999D01*
X7874785Y-48480000D01*
X7893602Y-48683082D01*
X7949417Y-48879247D01*
X7949422Y-48879260D01*
X8040327Y-49061821D01*
X8163237Y-49224581D01*
X8313958Y-49361980D01*
X8313960Y-49361982D01*
X8380262Y-49403034D01*
X8487363Y-49469348D01*
X8677544Y-49543024D01*
X8878024Y-49580500D01*
X8878026Y-49580500D01*
X9081974Y-49580500D01*
X9081976Y-49580500D01*
X9282456Y-49543024D01*
X9472637Y-49469348D01*
X9646041Y-49361981D01*
X9790985Y-49229847D01*
X9796762Y-49224581D01*
X9807126Y-49210857D01*
X9919673Y-49061821D01*
X9977915Y-48944852D01*
X10025416Y-48893619D01*
X10093079Y-48876197D01*
X10159419Y-48898122D01*
X10203375Y-48952433D01*
X10212820Y-49004960D01*
X10158570Y-50395755D01*
X10136287Y-50461976D01*
X10081740Y-50505638D01*
X10012246Y-50512879D01*
X9949870Y-50481399D01*
X9923664Y-50446194D01*
X9923174Y-50445210D01*
X9919673Y-50438179D01*
X9810353Y-50293416D01*
X9796762Y-50275418D01*
X9646041Y-50138019D01*
X9646039Y-50138017D01*
X9472642Y-50030655D01*
X9472635Y-50030651D01*
X9283682Y-49957451D01*
X9282456Y-49956976D01*
X9081976Y-49919500D01*
X8878024Y-49919500D01*
X8677544Y-49956976D01*
X8677541Y-49956976D01*
X8677541Y-49956977D01*
X8487364Y-50030651D01*
X8487357Y-50030655D01*
X8313960Y-50138017D01*
X8313958Y-50138019D01*
X8163237Y-50275418D01*
X8040327Y-50438178D01*
X7949422Y-50620739D01*
X7949417Y-50620752D01*
X7893602Y-50816917D01*
X7874785Y-51019999D01*
X7874785Y-51020000D01*
X7893602Y-51223082D01*
X7949417Y-51419247D01*
X7949422Y-51419260D01*
X8040327Y-51601821D01*
X8163237Y-51764581D01*
X8313958Y-51901980D01*
X8313960Y-51901982D01*
X8402311Y-51956686D01*
X8487363Y-52009348D01*
X8677544Y-52083024D01*
X8878024Y-52120500D01*
X8878026Y-52120500D01*
X9081974Y-52120500D01*
X9081976Y-52120500D01*
X9282456Y-52083024D01*
X9472637Y-52009348D01*
X9646041Y-51901981D01*
X9796764Y-51764579D01*
X9883703Y-51649452D01*
X9939811Y-51607816D01*
X10009523Y-51603124D01*
X10070705Y-51636866D01*
X10103933Y-51698330D01*
X10106563Y-51729012D01*
X10025966Y-53795239D01*
X9970000Y-55230000D01*
X10248134Y-55500461D01*
X10513245Y-55758259D01*
X10547584Y-55819108D01*
X10550119Y-55834196D01*
X10568915Y-56013029D01*
X10568916Y-56013032D01*
X10625783Y-56188053D01*
X10625786Y-56188059D01*
X10717805Y-56347440D01*
X10799475Y-56438144D01*
X10840949Y-56484206D01*
X10840951Y-56484208D01*
X10989834Y-56592378D01*
X10989835Y-56592378D01*
X10989839Y-56592381D01*
X11126953Y-56653428D01*
X11157961Y-56667234D01*
X11157966Y-56667236D01*
X11337981Y-56705500D01*
X11437009Y-56705500D01*
X11504048Y-56725185D01*
X11523454Y-56740600D01*
X21570000Y-66510000D01*
X21570001Y-66509999D01*
X21570002Y-66510000D01*
X29955714Y-66455714D01*
X50920000Y-66320000D01*
X51485488Y-66078987D01*
X51554875Y-66070812D01*
X51598252Y-66086943D01*
X51729292Y-66166158D01*
X51789046Y-66202281D01*
X52075987Y-66331422D01*
X52075997Y-66331425D01*
X52076005Y-66331428D01*
X52376396Y-66425034D01*
X52376397Y-66425034D01*
X52376402Y-66425036D01*
X52685911Y-66481755D01*
X53000000Y-66500754D01*
X53314089Y-66481755D01*
X53623598Y-66425036D01*
X53924013Y-66331422D01*
X54210954Y-66202281D01*
X54480237Y-66039494D01*
X54727935Y-65845435D01*
X54950435Y-65622935D01*
X55144494Y-65375237D01*
X55307281Y-65105954D01*
X55436422Y-64819013D01*
X55530036Y-64518598D01*
X55550500Y-64406926D01*
X55581944Y-64344536D01*
X55623848Y-64315209D01*
X56950000Y-63750000D01*
X56900000Y-53590000D01*
X56782654Y-53550829D01*
X56629998Y-53499871D01*
X56572641Y-53459972D01*
X56545960Y-53395397D01*
X56545858Y-53394403D01*
X56544749Y-53383144D01*
X56530339Y-53335639D01*
X56486453Y-53190966D01*
X56486451Y-53190963D01*
X56486451Y-53190961D01*
X56426017Y-53077897D01*
X57449744Y-53077897D01*
X57449744Y-53077902D01*
X57470827Y-53211021D01*
X57470828Y-53211024D01*
X57470829Y-53211026D01*
X57532020Y-53331120D01*
X57532021Y-53331121D01*
X57532024Y-53331125D01*
X57627322Y-53426423D01*
X57627326Y-53426426D01*
X57627328Y-53426428D01*
X57747422Y-53487619D01*
X57747424Y-53487619D01*
X57747426Y-53487620D01*
X57855701Y-53504769D01*
X57918836Y-53534698D01*
X57955768Y-53594009D01*
X57954770Y-53663872D01*
X57916161Y-53722105D01*
X57911801Y-53725609D01*
X57841509Y-53779547D01*
X57813918Y-53800718D01*
X57717663Y-53926160D01*
X57657156Y-54072237D01*
X57657155Y-54072239D01*
X57636518Y-54228998D01*
X57636518Y-54229001D01*
X57657155Y-54385760D01*
X57657156Y-54385762D01*
X57717664Y-54531841D01*
X57813918Y-54657282D01*
X57939359Y-54753536D01*
X58085438Y-54814044D01*
X58163819Y-54824363D01*
X58242199Y-54834682D01*
X58242200Y-54834682D01*
X58242201Y-54834682D01*
X58294454Y-54827802D01*
X58398962Y-54814044D01*
X58545041Y-54753536D01*
X58670482Y-54657282D01*
X58766736Y-54531841D01*
X58827244Y-54385762D01*
X58847882Y-54229000D01*
X58827244Y-54072238D01*
X58766736Y-53926159D01*
X58670482Y-53800718D01*
X58545041Y-53704464D01*
X58447043Y-53663872D01*
X58398962Y-53643956D01*
X58398960Y-53643955D01*
X58242201Y-53623318D01*
X58236241Y-53623318D01*
X58169202Y-53603633D01*
X58123447Y-53550829D01*
X58113503Y-53481671D01*
X58142528Y-53418115D01*
X58148560Y-53411637D01*
X58229071Y-53331125D01*
X58229076Y-53331120D01*
X58290267Y-53211026D01*
X58293667Y-53189559D01*
X58311352Y-53077902D01*
X58311352Y-53077897D01*
X58290268Y-52944778D01*
X58290267Y-52944776D01*
X58290267Y-52944774D01*
X58229076Y-52824680D01*
X58229074Y-52824678D01*
X58229071Y-52824674D01*
X58133773Y-52729376D01*
X58133769Y-52729373D01*
X58133768Y-52729372D01*
X58013674Y-52668181D01*
X58013672Y-52668180D01*
X58013669Y-52668179D01*
X57880550Y-52647096D01*
X57880546Y-52647096D01*
X57747426Y-52668179D01*
X57627326Y-52729373D01*
X57627322Y-52729376D01*
X57532024Y-52824674D01*
X57532021Y-52824678D01*
X57470827Y-52944778D01*
X57449744Y-53077897D01*
X56426017Y-53077897D01*
X56391789Y-53013861D01*
X56391784Y-53013855D01*
X56264384Y-52858615D01*
X56109144Y-52731215D01*
X56109138Y-52731210D01*
X55932038Y-52636548D01*
X55739855Y-52578250D01*
X55540000Y-52558567D01*
X55340144Y-52578250D01*
X55147961Y-52636548D01*
X54970861Y-52731210D01*
X54970855Y-52731215D01*
X54837729Y-52840468D01*
X54773419Y-52867780D01*
X54719803Y-52862234D01*
X54100141Y-52655387D01*
X54042783Y-52615488D01*
X54016102Y-52550914D01*
X54016000Y-52525622D01*
X54024433Y-52440000D01*
X54004749Y-52240143D01*
X53946453Y-52047966D01*
X53946451Y-52047963D01*
X53946451Y-52047961D01*
X53851789Y-51870861D01*
X53851784Y-51870855D01*
X53724384Y-51715615D01*
X53569144Y-51588215D01*
X53569138Y-51588210D01*
X53392038Y-51493548D01*
X53199855Y-51435250D01*
X53068748Y-51422338D01*
X53049099Y-51420402D01*
X52998610Y-51400015D01*
X52961850Y-51418828D01*
X52950899Y-51420403D01*
X52800144Y-51435250D01*
X52607961Y-51493548D01*
X52430861Y-51588210D01*
X52430855Y-51588215D01*
X52275615Y-51715615D01*
X52148215Y-51870855D01*
X52137241Y-51891385D01*
X52088277Y-51941228D01*
X52020139Y-51956686D01*
X51988623Y-51950548D01*
X51502359Y-51788230D01*
X51445001Y-51748331D01*
X51418320Y-51683757D01*
X51422959Y-51634619D01*
X51464749Y-51496857D01*
X51484433Y-51297000D01*
X51464749Y-51097143D01*
X51406453Y-50904966D01*
X51406451Y-50904963D01*
X51406451Y-50904961D01*
X51311789Y-50727861D01*
X51311784Y-50727855D01*
X51184384Y-50572615D01*
X51029144Y-50445215D01*
X51029138Y-50445210D01*
X50852038Y-50350548D01*
X50659855Y-50292250D01*
X50528748Y-50279338D01*
X50509099Y-50277402D01*
X50458610Y-50257015D01*
X50421850Y-50275828D01*
X50410899Y-50277403D01*
X50260144Y-50292250D01*
X50135565Y-50330041D01*
X50065698Y-50330664D01*
X50006585Y-50293416D01*
X49976994Y-50230121D01*
X49976335Y-50197636D01*
X49981205Y-50154000D01*
X51975567Y-50154000D01*
X51995250Y-50353855D01*
X52053548Y-50546038D01*
X52148210Y-50723138D01*
X52148215Y-50723144D01*
X52275615Y-50878384D01*
X52430855Y-51005784D01*
X52430861Y-51005789D01*
X52607961Y-51100451D01*
X52607963Y-51100451D01*
X52607966Y-51100453D01*
X52800143Y-51158749D01*
X52950899Y-51173597D01*
X53001388Y-51193984D01*
X53038149Y-51175172D01*
X53049097Y-51173597D01*
X53199857Y-51158749D01*
X53392034Y-51100453D01*
X53398227Y-51097143D01*
X53569138Y-51005789D01*
X53569140Y-51005786D01*
X53569144Y-51005785D01*
X53724384Y-50878384D01*
X53851785Y-50723144D01*
X53851786Y-50723140D01*
X53851789Y-50723138D01*
X53946451Y-50546038D01*
X53946451Y-50546037D01*
X53946453Y-50546034D01*
X54004749Y-50353857D01*
X54024433Y-50154000D01*
X54004749Y-49954143D01*
X53946453Y-49761966D01*
X53946451Y-49761963D01*
X53946451Y-49761961D01*
X53851789Y-49584861D01*
X53851784Y-49584855D01*
X53724384Y-49429615D01*
X53569144Y-49302215D01*
X53569138Y-49302210D01*
X53392038Y-49207548D01*
X53199855Y-49149250D01*
X53068748Y-49136338D01*
X53049099Y-49134402D01*
X52998610Y-49114015D01*
X52961850Y-49132828D01*
X52950899Y-49134403D01*
X52800144Y-49149250D01*
X52607961Y-49207548D01*
X52430861Y-49302210D01*
X52430855Y-49302215D01*
X52275615Y-49429615D01*
X52148215Y-49584855D01*
X52148210Y-49584861D01*
X52053548Y-49761961D01*
X51995250Y-49954144D01*
X51975567Y-50154000D01*
X49981205Y-50154000D01*
X49988725Y-50086619D01*
X50015723Y-50022180D01*
X50073277Y-49982565D01*
X50143111Y-49980354D01*
X50147941Y-49981713D01*
X50260143Y-50015749D01*
X50410899Y-50030597D01*
X50461388Y-50050984D01*
X50498149Y-50032172D01*
X50509097Y-50030597D01*
X50659857Y-50015749D01*
X50852034Y-49957453D01*
X50852925Y-49956977D01*
X51029138Y-49862789D01*
X51029140Y-49862786D01*
X51029144Y-49862785D01*
X51184384Y-49735384D01*
X51311785Y-49580144D01*
X51311786Y-49580140D01*
X51311789Y-49580138D01*
X51406451Y-49403038D01*
X51406451Y-49403037D01*
X51406453Y-49403034D01*
X51464749Y-49210857D01*
X51484433Y-49011000D01*
X51477194Y-48937509D01*
X51490212Y-48868867D01*
X51538276Y-48818157D01*
X51584121Y-48802459D01*
X52346050Y-48700356D01*
X52415109Y-48710962D01*
X52428912Y-48718745D01*
X52430852Y-48719782D01*
X52430856Y-48719785D01*
X52607966Y-48814453D01*
X52800143Y-48872749D01*
X52950899Y-48887597D01*
X53001388Y-48907984D01*
X53038149Y-48889172D01*
X53049097Y-48887597D01*
X53199857Y-48872749D01*
X53293984Y-48844196D01*
X57489508Y-48844196D01*
X57489508Y-48844203D01*
X57509352Y-48969500D01*
X57509352Y-48969501D01*
X57509354Y-48969504D01*
X57566950Y-49082542D01*
X57566952Y-49082544D01*
X57566954Y-49082547D01*
X57656652Y-49172245D01*
X57656654Y-49172246D01*
X57656658Y-49172250D01*
X57769696Y-49229846D01*
X57769697Y-49229846D01*
X57769699Y-49229847D01*
X57894997Y-49249692D01*
X57895000Y-49249692D01*
X57895003Y-49249692D01*
X58020300Y-49229847D01*
X58020301Y-49229847D01*
X58020302Y-49229846D01*
X58020304Y-49229846D01*
X58133342Y-49172250D01*
X58223050Y-49082542D01*
X58280646Y-48969504D01*
X58280646Y-48969502D01*
X58280647Y-48969501D01*
X58280647Y-48969500D01*
X58300492Y-48844203D01*
X58300492Y-48844196D01*
X58280647Y-48718899D01*
X58280647Y-48718898D01*
X58262398Y-48683083D01*
X58223050Y-48605858D01*
X58223046Y-48605854D01*
X58223045Y-48605852D01*
X58133347Y-48516154D01*
X58133344Y-48516152D01*
X58133342Y-48516150D01*
X58020304Y-48458554D01*
X58020303Y-48458553D01*
X58020300Y-48458552D01*
X57895003Y-48438708D01*
X57894997Y-48438708D01*
X57769699Y-48458552D01*
X57769698Y-48458552D01*
X57694337Y-48496951D01*
X57656658Y-48516150D01*
X57656657Y-48516151D01*
X57656652Y-48516154D01*
X57566954Y-48605852D01*
X57566951Y-48605857D01*
X57509352Y-48718898D01*
X57509352Y-48718899D01*
X57489508Y-48844196D01*
X53293984Y-48844196D01*
X53392034Y-48814453D01*
X53414473Y-48802459D01*
X53569138Y-48719789D01*
X53569140Y-48719786D01*
X53569144Y-48719785D01*
X53724384Y-48592384D01*
X53764158Y-48543918D01*
X53821901Y-48504585D01*
X53843530Y-48499685D01*
X57050000Y-48070000D01*
X56982884Y-43859998D01*
X58874318Y-43859998D01*
X58874318Y-43860001D01*
X58894955Y-44016760D01*
X58894956Y-44016762D01*
X58949227Y-44147785D01*
X58955464Y-44162841D01*
X59051718Y-44288282D01*
X59177159Y-44384536D01*
X59323238Y-44445044D01*
X59401619Y-44455363D01*
X59479999Y-44465682D01*
X59480000Y-44465682D01*
X59480001Y-44465682D01*
X59532254Y-44458802D01*
X59636762Y-44445044D01*
X59782841Y-44384536D01*
X59908282Y-44288282D01*
X60004536Y-44162841D01*
X60065044Y-44016762D01*
X60078802Y-43912254D01*
X60085682Y-43860001D01*
X60085682Y-43859998D01*
X60065044Y-43703239D01*
X60065044Y-43703238D01*
X60004536Y-43557159D01*
X59908282Y-43431718D01*
X59782841Y-43335464D01*
X59718852Y-43308959D01*
X59636762Y-43274956D01*
X59636760Y-43274955D01*
X59480001Y-43254318D01*
X59479999Y-43254318D01*
X59323239Y-43274955D01*
X59323237Y-43274956D01*
X59177160Y-43335463D01*
X59051718Y-43431718D01*
X58955463Y-43557160D01*
X58894956Y-43703237D01*
X58894955Y-43703239D01*
X58874318Y-43859998D01*
X56982884Y-43859998D01*
X56941970Y-41293598D01*
X56960583Y-41226255D01*
X57012651Y-41179664D01*
X57063589Y-41167645D01*
X64473143Y-41026511D01*
X64540541Y-41044915D01*
G37*
G04 #@! TD.AperFunction*
M02*
