G04 #@! TF.GenerationSoftware,KiCad,Pcbnew,8.0.7*
G04 #@! TF.CreationDate,2025-02-07T02:05:50-05:00*
G04 #@! TF.ProjectId,accessory_v3,61636365-7373-46f7-9279-5f76332e6b69,rev?*
G04 #@! TF.SameCoordinates,Original*
G04 #@! TF.FileFunction,Legend,Top*
G04 #@! TF.FilePolarity,Positive*
%FSLAX46Y46*%
G04 Gerber Fmt 4.6, Leading zero omitted, Abs format (unit mm)*
G04 Created by KiCad (PCBNEW 8.0.7) date 2025-02-07 02:05:50*
%MOMM*%
%LPD*%
G01*
G04 APERTURE LIST*
G04 Aperture macros list*
%AMRoundRect*
0 Rectangle with rounded corners*
0 $1 Rounding radius*
0 $2 $3 $4 $5 $6 $7 $8 $9 X,Y pos of 4 corners*
0 Add a 4 corners polygon primitive as box body*
4,1,4,$2,$3,$4,$5,$6,$7,$8,$9,$2,$3,0*
0 Add four circle primitives for the rounded corners*
1,1,$1+$1,$2,$3*
1,1,$1+$1,$4,$5*
1,1,$1+$1,$6,$7*
1,1,$1+$1,$8,$9*
0 Add four rect primitives between the rounded corners*
20,1,$1+$1,$2,$3,$4,$5,0*
20,1,$1+$1,$4,$5,$6,$7,0*
20,1,$1+$1,$6,$7,$8,$9,0*
20,1,$1+$1,$8,$9,$2,$3,0*%
G04 Aperture macros list end*
%ADD10C,0.150000*%
%ADD11C,0.125000*%
%ADD12C,0.300000*%
%ADD13C,0.254000*%
%ADD14C,0.120000*%
%ADD15C,0.200000*%
%ADD16C,0.100000*%
%ADD17C,0.127000*%
%ADD18C,0.152400*%
%ADD19RoundRect,0.140000X0.140000X0.170000X-0.140000X0.170000X-0.140000X-0.170000X0.140000X-0.170000X0*%
%ADD20C,1.638000*%
%ADD21C,4.801000*%
%ADD22RoundRect,0.076750X-0.810250X-0.230250X0.810250X-0.230250X0.810250X0.230250X-0.810250X0.230250X0*%
%ADD23R,5.200000X1.250000*%
%ADD24RoundRect,0.135000X-0.135000X-0.185000X0.135000X-0.185000X0.135000X0.185000X-0.135000X0.185000X0*%
%ADD25RoundRect,0.102000X-1.220000X-0.600000X1.220000X-0.600000X1.220000X0.600000X-1.220000X0.600000X0*%
%ADD26RoundRect,0.225000X-0.225000X-0.250000X0.225000X-0.250000X0.225000X0.250000X-0.225000X0.250000X0*%
%ADD27R,3.960000X3.960000*%
%ADD28R,2.540000X3.170000*%
%ADD29RoundRect,0.140000X-0.140000X-0.170000X0.140000X-0.170000X0.140000X0.170000X-0.140000X0.170000X0*%
%ADD30R,1.910000X0.640000*%
%ADD31C,2.004000*%
%ADD32C,1.204000*%
%ADD33C,1.554000*%
%ADD34RoundRect,0.250000X-0.375000X-0.625000X0.375000X-0.625000X0.375000X0.625000X-0.375000X0.625000X0*%
%ADD35R,1.701800X3.606800*%
%ADD36RoundRect,0.135000X-0.185000X0.135000X-0.185000X-0.135000X0.185000X-0.135000X0.185000X0.135000X0*%
G04 APERTURE END LIST*
D10*
X0Y0D02*
X70000000Y0D01*
X70000000Y-4000000D01*
X0Y-4000000D01*
X0Y0D01*
G36*
X0Y0D02*
G01*
X70000000Y0D01*
X70000000Y-4000000D01*
X0Y-4000000D01*
X0Y0D01*
G37*
X0Y-76750000D02*
X70000000Y-76750000D01*
X70000000Y-80750000D01*
X0Y-80750000D01*
X0Y-76750000D01*
G36*
X0Y-76750000D02*
G01*
X70000000Y-76750000D01*
X70000000Y-80750000D01*
X0Y-80750000D01*
X0Y-76750000D01*
G37*
X61899819Y-65514649D02*
X60899819Y-65514649D01*
X61852200Y-65514649D02*
X61899819Y-65609887D01*
X61899819Y-65609887D02*
X61899819Y-65800363D01*
X61899819Y-65800363D02*
X61852200Y-65895601D01*
X61852200Y-65895601D02*
X61804580Y-65943220D01*
X61804580Y-65943220D02*
X61709342Y-65990839D01*
X61709342Y-65990839D02*
X61423628Y-65990839D01*
X61423628Y-65990839D02*
X61328390Y-65943220D01*
X61328390Y-65943220D02*
X61280771Y-65895601D01*
X61280771Y-65895601D02*
X61233152Y-65800363D01*
X61233152Y-65800363D02*
X61233152Y-65609887D01*
X61233152Y-65609887D02*
X61280771Y-65514649D01*
X61899819Y-65038458D02*
X60899819Y-65038458D01*
X61280771Y-65038458D02*
X61233152Y-64943220D01*
X61233152Y-64943220D02*
X61233152Y-64752744D01*
X61233152Y-64752744D02*
X61280771Y-64657506D01*
X61280771Y-64657506D02*
X61328390Y-64609887D01*
X61328390Y-64609887D02*
X61423628Y-64562268D01*
X61423628Y-64562268D02*
X61709342Y-64562268D01*
X61709342Y-64562268D02*
X61804580Y-64609887D01*
X61804580Y-64609887D02*
X61852200Y-64657506D01*
X61852200Y-64657506D02*
X61899819Y-64752744D01*
X61899819Y-64752744D02*
X61899819Y-64943220D01*
X61899819Y-64943220D02*
X61852200Y-65038458D01*
X61233152Y-63705125D02*
X61899819Y-63705125D01*
X60852200Y-63943220D02*
X61566485Y-64181315D01*
X61566485Y-64181315D02*
X61566485Y-63562268D01*
X61233152Y-62752744D02*
X61899819Y-62752744D01*
X60852200Y-62990839D02*
X61566485Y-63228934D01*
X61566485Y-63228934D02*
X61566485Y-62609887D01*
X61804580Y-62228934D02*
X61852200Y-62181315D01*
X61852200Y-62181315D02*
X61899819Y-62228934D01*
X61899819Y-62228934D02*
X61852200Y-62276553D01*
X61852200Y-62276553D02*
X61804580Y-62228934D01*
X61804580Y-62228934D02*
X61899819Y-62228934D01*
X61280771Y-62228934D02*
X61328390Y-62181315D01*
X61328390Y-62181315D02*
X61376009Y-62228934D01*
X61376009Y-62228934D02*
X61328390Y-62276553D01*
X61328390Y-62276553D02*
X61280771Y-62228934D01*
X61280771Y-62228934D02*
X61376009Y-62228934D01*
X60899819Y-61086077D02*
X60899819Y-60419411D01*
X60899819Y-60419411D02*
X61899819Y-60847982D01*
X61328390Y-59895601D02*
X61280771Y-59990839D01*
X61280771Y-59990839D02*
X61233152Y-60038458D01*
X61233152Y-60038458D02*
X61137914Y-60086077D01*
X61137914Y-60086077D02*
X61090295Y-60086077D01*
X61090295Y-60086077D02*
X60995057Y-60038458D01*
X60995057Y-60038458D02*
X60947438Y-59990839D01*
X60947438Y-59990839D02*
X60899819Y-59895601D01*
X60899819Y-59895601D02*
X60899819Y-59705125D01*
X60899819Y-59705125D02*
X60947438Y-59609887D01*
X60947438Y-59609887D02*
X60995057Y-59562268D01*
X60995057Y-59562268D02*
X61090295Y-59514649D01*
X61090295Y-59514649D02*
X61137914Y-59514649D01*
X61137914Y-59514649D02*
X61233152Y-59562268D01*
X61233152Y-59562268D02*
X61280771Y-59609887D01*
X61280771Y-59609887D02*
X61328390Y-59705125D01*
X61328390Y-59705125D02*
X61328390Y-59895601D01*
X61328390Y-59895601D02*
X61376009Y-59990839D01*
X61376009Y-59990839D02*
X61423628Y-60038458D01*
X61423628Y-60038458D02*
X61518866Y-60086077D01*
X61518866Y-60086077D02*
X61709342Y-60086077D01*
X61709342Y-60086077D02*
X61804580Y-60038458D01*
X61804580Y-60038458D02*
X61852200Y-59990839D01*
X61852200Y-59990839D02*
X61899819Y-59895601D01*
X61899819Y-59895601D02*
X61899819Y-59705125D01*
X61899819Y-59705125D02*
X61852200Y-59609887D01*
X61852200Y-59609887D02*
X61804580Y-59562268D01*
X61804580Y-59562268D02*
X61709342Y-59514649D01*
X61709342Y-59514649D02*
X61518866Y-59514649D01*
X61518866Y-59514649D02*
X61423628Y-59562268D01*
X61423628Y-59562268D02*
X61376009Y-59609887D01*
X61376009Y-59609887D02*
X61328390Y-59705125D01*
X61899819Y-58562268D02*
X61899819Y-59133696D01*
X61899819Y-58847982D02*
X60899819Y-58847982D01*
X60899819Y-58847982D02*
X61042676Y-58943220D01*
X61042676Y-58943220D02*
X61137914Y-59038458D01*
X61137914Y-59038458D02*
X61185533Y-59133696D01*
X61518866Y-58133696D02*
X61518866Y-57371792D01*
X61899819Y-56895601D02*
X60899819Y-56895601D01*
X60899819Y-56895601D02*
X61614104Y-56562268D01*
X61614104Y-56562268D02*
X60899819Y-56228935D01*
X60899819Y-56228935D02*
X61899819Y-56228935D01*
X61233152Y-55324173D02*
X61899819Y-55324173D01*
X60852200Y-55562268D02*
X61566485Y-55800363D01*
X61566485Y-55800363D02*
X61566485Y-55181316D01*
X61233152Y-54371792D02*
X61899819Y-54371792D01*
X60852200Y-54609887D02*
X61566485Y-54847982D01*
X61566485Y-54847982D02*
X61566485Y-54228935D01*
X61518866Y-53847982D02*
X61518866Y-53086078D01*
X61899819Y-52086078D02*
X61899819Y-52657506D01*
X61899819Y-52371792D02*
X60899819Y-52371792D01*
X60899819Y-52371792D02*
X61042676Y-52467030D01*
X61042676Y-52467030D02*
X61137914Y-52562268D01*
X61137914Y-52562268D02*
X61185533Y-52657506D01*
X61899819Y-51133697D02*
X61899819Y-51705125D01*
X61899819Y-51419411D02*
X60899819Y-51419411D01*
X60899819Y-51419411D02*
X61042676Y-51514649D01*
X61042676Y-51514649D02*
X61137914Y-51609887D01*
X61137914Y-51609887D02*
X61185533Y-51705125D01*
X60899819Y-50800363D02*
X60899819Y-50181316D01*
X60899819Y-50181316D02*
X61280771Y-50514649D01*
X61280771Y-50514649D02*
X61280771Y-50371792D01*
X61280771Y-50371792D02*
X61328390Y-50276554D01*
X61328390Y-50276554D02*
X61376009Y-50228935D01*
X61376009Y-50228935D02*
X61471247Y-50181316D01*
X61471247Y-50181316D02*
X61709342Y-50181316D01*
X61709342Y-50181316D02*
X61804580Y-50228935D01*
X61804580Y-50228935D02*
X61852200Y-50276554D01*
X61852200Y-50276554D02*
X61899819Y-50371792D01*
X61899819Y-50371792D02*
X61899819Y-50657506D01*
X61899819Y-50657506D02*
X61852200Y-50752744D01*
X61852200Y-50752744D02*
X61804580Y-50800363D01*
X61899819Y-49181316D02*
X61423628Y-49514649D01*
X61899819Y-49752744D02*
X60899819Y-49752744D01*
X60899819Y-49752744D02*
X60899819Y-49371792D01*
X60899819Y-49371792D02*
X60947438Y-49276554D01*
X60947438Y-49276554D02*
X60995057Y-49228935D01*
X60995057Y-49228935D02*
X61090295Y-49181316D01*
X61090295Y-49181316D02*
X61233152Y-49181316D01*
X61233152Y-49181316D02*
X61328390Y-49228935D01*
X61328390Y-49228935D02*
X61376009Y-49276554D01*
X61376009Y-49276554D02*
X61423628Y-49371792D01*
X61423628Y-49371792D02*
X61423628Y-49752744D01*
X61899819Y-48228935D02*
X61899819Y-48800363D01*
X61899819Y-48514649D02*
X60899819Y-48514649D01*
X60899819Y-48514649D02*
X61042676Y-48609887D01*
X61042676Y-48609887D02*
X61137914Y-48705125D01*
X61137914Y-48705125D02*
X61185533Y-48800363D01*
X61233152Y-47371792D02*
X61899819Y-47371792D01*
X60852200Y-47609887D02*
X61566485Y-47847982D01*
X61566485Y-47847982D02*
X61566485Y-47228935D01*
X61899819Y-46324173D02*
X61899819Y-46895601D01*
X61899819Y-46609887D02*
X60899819Y-46609887D01*
X60899819Y-46609887D02*
X61042676Y-46705125D01*
X61042676Y-46705125D02*
X61137914Y-46800363D01*
X61137914Y-46800363D02*
X61185533Y-46895601D01*
D11*
X58125569Y-6862309D02*
X58030331Y-6862309D01*
X58030331Y-6862309D02*
X57982712Y-6886119D01*
X57982712Y-6886119D02*
X57958902Y-6909928D01*
X57958902Y-6909928D02*
X57911283Y-6981357D01*
X57911283Y-6981357D02*
X57887474Y-7076595D01*
X57887474Y-7076595D02*
X57887474Y-7267071D01*
X57887474Y-7267071D02*
X57911283Y-7314690D01*
X57911283Y-7314690D02*
X57935093Y-7338500D01*
X57935093Y-7338500D02*
X57982712Y-7362309D01*
X57982712Y-7362309D02*
X58077950Y-7362309D01*
X58077950Y-7362309D02*
X58125569Y-7338500D01*
X58125569Y-7338500D02*
X58149378Y-7314690D01*
X58149378Y-7314690D02*
X58173188Y-7267071D01*
X58173188Y-7267071D02*
X58173188Y-7148023D01*
X58173188Y-7148023D02*
X58149378Y-7100404D01*
X58149378Y-7100404D02*
X58125569Y-7076595D01*
X58125569Y-7076595D02*
X58077950Y-7052785D01*
X58077950Y-7052785D02*
X57982712Y-7052785D01*
X57982712Y-7052785D02*
X57935093Y-7076595D01*
X57935093Y-7076595D02*
X57911283Y-7100404D01*
X57911283Y-7100404D02*
X57887474Y-7148023D01*
X58387473Y-7314690D02*
X58411283Y-7338500D01*
X58411283Y-7338500D02*
X58387473Y-7362309D01*
X58387473Y-7362309D02*
X58363664Y-7338500D01*
X58363664Y-7338500D02*
X58387473Y-7314690D01*
X58387473Y-7314690D02*
X58387473Y-7362309D01*
X58577949Y-6862309D02*
X58887473Y-6862309D01*
X58887473Y-6862309D02*
X58720806Y-7052785D01*
X58720806Y-7052785D02*
X58792235Y-7052785D01*
X58792235Y-7052785D02*
X58839854Y-7076595D01*
X58839854Y-7076595D02*
X58863663Y-7100404D01*
X58863663Y-7100404D02*
X58887473Y-7148023D01*
X58887473Y-7148023D02*
X58887473Y-7267071D01*
X58887473Y-7267071D02*
X58863663Y-7314690D01*
X58863663Y-7314690D02*
X58839854Y-7338500D01*
X58839854Y-7338500D02*
X58792235Y-7362309D01*
X58792235Y-7362309D02*
X58649378Y-7362309D01*
X58649378Y-7362309D02*
X58601759Y-7338500D01*
X58601759Y-7338500D02*
X58577949Y-7314690D01*
X59339853Y-6862309D02*
X59101758Y-6862309D01*
X59101758Y-6862309D02*
X59077949Y-7100404D01*
X59077949Y-7100404D02*
X59101758Y-7076595D01*
X59101758Y-7076595D02*
X59149377Y-7052785D01*
X59149377Y-7052785D02*
X59268425Y-7052785D01*
X59268425Y-7052785D02*
X59316044Y-7076595D01*
X59316044Y-7076595D02*
X59339853Y-7100404D01*
X59339853Y-7100404D02*
X59363663Y-7148023D01*
X59363663Y-7148023D02*
X59363663Y-7267071D01*
X59363663Y-7267071D02*
X59339853Y-7314690D01*
X59339853Y-7314690D02*
X59316044Y-7338500D01*
X59316044Y-7338500D02*
X59268425Y-7362309D01*
X59268425Y-7362309D02*
X59149377Y-7362309D01*
X59149377Y-7362309D02*
X59101758Y-7338500D01*
X59101758Y-7338500D02*
X59077949Y-7314690D01*
X59911281Y-7362309D02*
X60173186Y-7028976D01*
X59911281Y-7028976D02*
X60173186Y-7362309D01*
X60696995Y-6862309D02*
X61006519Y-6862309D01*
X61006519Y-6862309D02*
X60839852Y-7052785D01*
X60839852Y-7052785D02*
X60911281Y-7052785D01*
X60911281Y-7052785D02*
X60958900Y-7076595D01*
X60958900Y-7076595D02*
X60982709Y-7100404D01*
X60982709Y-7100404D02*
X61006519Y-7148023D01*
X61006519Y-7148023D02*
X61006519Y-7267071D01*
X61006519Y-7267071D02*
X60982709Y-7314690D01*
X60982709Y-7314690D02*
X60958900Y-7338500D01*
X60958900Y-7338500D02*
X60911281Y-7362309D01*
X60911281Y-7362309D02*
X60768424Y-7362309D01*
X60768424Y-7362309D02*
X60720805Y-7338500D01*
X60720805Y-7338500D02*
X60696995Y-7314690D01*
X61220804Y-7314690D02*
X61244614Y-7338500D01*
X61244614Y-7338500D02*
X61220804Y-7362309D01*
X61220804Y-7362309D02*
X61196995Y-7338500D01*
X61196995Y-7338500D02*
X61220804Y-7314690D01*
X61220804Y-7314690D02*
X61220804Y-7362309D01*
X61720804Y-7362309D02*
X61435090Y-7362309D01*
X61577947Y-7362309D02*
X61577947Y-6862309D01*
X61577947Y-6862309D02*
X61530328Y-6933738D01*
X61530328Y-6933738D02*
X61482709Y-6981357D01*
X61482709Y-6981357D02*
X61435090Y-7005166D01*
X61887470Y-6862309D02*
X62220803Y-6862309D01*
X62220803Y-6862309D02*
X62006518Y-7362309D01*
X62649374Y-6862309D02*
X62411279Y-6862309D01*
X62411279Y-6862309D02*
X62387470Y-7100404D01*
X62387470Y-7100404D02*
X62411279Y-7076595D01*
X62411279Y-7076595D02*
X62458898Y-7052785D01*
X62458898Y-7052785D02*
X62577946Y-7052785D01*
X62577946Y-7052785D02*
X62625565Y-7076595D01*
X62625565Y-7076595D02*
X62649374Y-7100404D01*
X62649374Y-7100404D02*
X62673184Y-7148023D01*
X62673184Y-7148023D02*
X62673184Y-7267071D01*
X62673184Y-7267071D02*
X62649374Y-7314690D01*
X62649374Y-7314690D02*
X62625565Y-7338500D01*
X62625565Y-7338500D02*
X62577946Y-7362309D01*
X62577946Y-7362309D02*
X62458898Y-7362309D01*
X62458898Y-7362309D02*
X62411279Y-7338500D01*
X62411279Y-7338500D02*
X62387470Y-7314690D01*
X63268421Y-7362309D02*
X63268421Y-7028976D01*
X63268421Y-7076595D02*
X63292231Y-7052785D01*
X63292231Y-7052785D02*
X63339850Y-7028976D01*
X63339850Y-7028976D02*
X63411278Y-7028976D01*
X63411278Y-7028976D02*
X63458897Y-7052785D01*
X63458897Y-7052785D02*
X63482707Y-7100404D01*
X63482707Y-7100404D02*
X63482707Y-7362309D01*
X63482707Y-7100404D02*
X63506516Y-7052785D01*
X63506516Y-7052785D02*
X63554135Y-7028976D01*
X63554135Y-7028976D02*
X63625564Y-7028976D01*
X63625564Y-7028976D02*
X63673183Y-7052785D01*
X63673183Y-7052785D02*
X63696993Y-7100404D01*
X63696993Y-7100404D02*
X63696993Y-7362309D01*
X63935088Y-7362309D02*
X63935088Y-7028976D01*
X63935088Y-7076595D02*
X63958898Y-7052785D01*
X63958898Y-7052785D02*
X64006517Y-7028976D01*
X64006517Y-7028976D02*
X64077945Y-7028976D01*
X64077945Y-7028976D02*
X64125564Y-7052785D01*
X64125564Y-7052785D02*
X64149374Y-7100404D01*
X64149374Y-7100404D02*
X64149374Y-7362309D01*
X64149374Y-7100404D02*
X64173183Y-7052785D01*
X64173183Y-7052785D02*
X64220802Y-7028976D01*
X64220802Y-7028976D02*
X64292231Y-7028976D01*
X64292231Y-7028976D02*
X64339850Y-7052785D01*
X64339850Y-7052785D02*
X64363660Y-7100404D01*
X64363660Y-7100404D02*
X64363660Y-7362309D01*
D10*
X35849636Y-69438390D02*
X35754398Y-69390771D01*
X35754398Y-69390771D02*
X35706779Y-69343152D01*
X35706779Y-69343152D02*
X35659160Y-69247914D01*
X35659160Y-69247914D02*
X35659160Y-69200295D01*
X35659160Y-69200295D02*
X35706779Y-69105057D01*
X35706779Y-69105057D02*
X35754398Y-69057438D01*
X35754398Y-69057438D02*
X35849636Y-69009819D01*
X35849636Y-69009819D02*
X36040112Y-69009819D01*
X36040112Y-69009819D02*
X36135350Y-69057438D01*
X36135350Y-69057438D02*
X36182969Y-69105057D01*
X36182969Y-69105057D02*
X36230588Y-69200295D01*
X36230588Y-69200295D02*
X36230588Y-69247914D01*
X36230588Y-69247914D02*
X36182969Y-69343152D01*
X36182969Y-69343152D02*
X36135350Y-69390771D01*
X36135350Y-69390771D02*
X36040112Y-69438390D01*
X36040112Y-69438390D02*
X35849636Y-69438390D01*
X35849636Y-69438390D02*
X35754398Y-69486009D01*
X35754398Y-69486009D02*
X35706779Y-69533628D01*
X35706779Y-69533628D02*
X35659160Y-69628866D01*
X35659160Y-69628866D02*
X35659160Y-69819342D01*
X35659160Y-69819342D02*
X35706779Y-69914580D01*
X35706779Y-69914580D02*
X35754398Y-69962200D01*
X35754398Y-69962200D02*
X35849636Y-70009819D01*
X35849636Y-70009819D02*
X36040112Y-70009819D01*
X36040112Y-70009819D02*
X36135350Y-69962200D01*
X36135350Y-69962200D02*
X36182969Y-69914580D01*
X36182969Y-69914580D02*
X36230588Y-69819342D01*
X36230588Y-69819342D02*
X36230588Y-69628866D01*
X36230588Y-69628866D02*
X36182969Y-69533628D01*
X36182969Y-69533628D02*
X36135350Y-69486009D01*
X36135350Y-69486009D02*
X36040112Y-69438390D01*
X36849636Y-69009819D02*
X36944874Y-69009819D01*
X36944874Y-69009819D02*
X37040112Y-69057438D01*
X37040112Y-69057438D02*
X37087731Y-69105057D01*
X37087731Y-69105057D02*
X37135350Y-69200295D01*
X37135350Y-69200295D02*
X37182969Y-69390771D01*
X37182969Y-69390771D02*
X37182969Y-69628866D01*
X37182969Y-69628866D02*
X37135350Y-69819342D01*
X37135350Y-69819342D02*
X37087731Y-69914580D01*
X37087731Y-69914580D02*
X37040112Y-69962200D01*
X37040112Y-69962200D02*
X36944874Y-70009819D01*
X36944874Y-70009819D02*
X36849636Y-70009819D01*
X36849636Y-70009819D02*
X36754398Y-69962200D01*
X36754398Y-69962200D02*
X36706779Y-69914580D01*
X36706779Y-69914580D02*
X36659160Y-69819342D01*
X36659160Y-69819342D02*
X36611541Y-69628866D01*
X36611541Y-69628866D02*
X36611541Y-69390771D01*
X36611541Y-69390771D02*
X36659160Y-69200295D01*
X36659160Y-69200295D02*
X36706779Y-69105057D01*
X36706779Y-69105057D02*
X36754398Y-69057438D01*
X36754398Y-69057438D02*
X36849636Y-69009819D01*
X37611541Y-69914580D02*
X37659160Y-69962200D01*
X37659160Y-69962200D02*
X37611541Y-70009819D01*
X37611541Y-70009819D02*
X37563922Y-69962200D01*
X37563922Y-69962200D02*
X37611541Y-69914580D01*
X37611541Y-69914580D02*
X37611541Y-70009819D01*
X37992493Y-69009819D02*
X38659159Y-69009819D01*
X38659159Y-69009819D02*
X38230588Y-70009819D01*
X39516302Y-69009819D02*
X39040112Y-69009819D01*
X39040112Y-69009819D02*
X38992493Y-69486009D01*
X38992493Y-69486009D02*
X39040112Y-69438390D01*
X39040112Y-69438390D02*
X39135350Y-69390771D01*
X39135350Y-69390771D02*
X39373445Y-69390771D01*
X39373445Y-69390771D02*
X39468683Y-69438390D01*
X39468683Y-69438390D02*
X39516302Y-69486009D01*
X39516302Y-69486009D02*
X39563921Y-69581247D01*
X39563921Y-69581247D02*
X39563921Y-69819342D01*
X39563921Y-69819342D02*
X39516302Y-69914580D01*
X39516302Y-69914580D02*
X39468683Y-69962200D01*
X39468683Y-69962200D02*
X39373445Y-70009819D01*
X39373445Y-70009819D02*
X39135350Y-70009819D01*
X39135350Y-70009819D02*
X39040112Y-69962200D01*
X39040112Y-69962200D02*
X38992493Y-69914580D01*
X39992493Y-70009819D02*
X39992493Y-69343152D01*
X39992493Y-69438390D02*
X40040112Y-69390771D01*
X40040112Y-69390771D02*
X40135350Y-69343152D01*
X40135350Y-69343152D02*
X40278207Y-69343152D01*
X40278207Y-69343152D02*
X40373445Y-69390771D01*
X40373445Y-69390771D02*
X40421064Y-69486009D01*
X40421064Y-69486009D02*
X40421064Y-70009819D01*
X40421064Y-69486009D02*
X40468683Y-69390771D01*
X40468683Y-69390771D02*
X40563921Y-69343152D01*
X40563921Y-69343152D02*
X40706778Y-69343152D01*
X40706778Y-69343152D02*
X40802017Y-69390771D01*
X40802017Y-69390771D02*
X40849636Y-69486009D01*
X40849636Y-69486009D02*
X40849636Y-70009819D01*
X41325826Y-70009819D02*
X41325826Y-69343152D01*
X41325826Y-69438390D02*
X41373445Y-69390771D01*
X41373445Y-69390771D02*
X41468683Y-69343152D01*
X41468683Y-69343152D02*
X41611540Y-69343152D01*
X41611540Y-69343152D02*
X41706778Y-69390771D01*
X41706778Y-69390771D02*
X41754397Y-69486009D01*
X41754397Y-69486009D02*
X41754397Y-70009819D01*
X41754397Y-69486009D02*
X41802016Y-69390771D01*
X41802016Y-69390771D02*
X41897254Y-69343152D01*
X41897254Y-69343152D02*
X42040111Y-69343152D01*
X42040111Y-69343152D02*
X42135350Y-69390771D01*
X42135350Y-69390771D02*
X42182969Y-69486009D01*
X42182969Y-69486009D02*
X42182969Y-70009819D01*
X43325826Y-70009819D02*
X43849635Y-69343152D01*
X43325826Y-69343152D02*
X43849635Y-70009819D01*
X45421064Y-69009819D02*
X45230588Y-69009819D01*
X45230588Y-69009819D02*
X45135350Y-69057438D01*
X45135350Y-69057438D02*
X45087731Y-69105057D01*
X45087731Y-69105057D02*
X44992493Y-69247914D01*
X44992493Y-69247914D02*
X44944874Y-69438390D01*
X44944874Y-69438390D02*
X44944874Y-69819342D01*
X44944874Y-69819342D02*
X44992493Y-69914580D01*
X44992493Y-69914580D02*
X45040112Y-69962200D01*
X45040112Y-69962200D02*
X45135350Y-70009819D01*
X45135350Y-70009819D02*
X45325826Y-70009819D01*
X45325826Y-70009819D02*
X45421064Y-69962200D01*
X45421064Y-69962200D02*
X45468683Y-69914580D01*
X45468683Y-69914580D02*
X45516302Y-69819342D01*
X45516302Y-69819342D02*
X45516302Y-69581247D01*
X45516302Y-69581247D02*
X45468683Y-69486009D01*
X45468683Y-69486009D02*
X45421064Y-69438390D01*
X45421064Y-69438390D02*
X45325826Y-69390771D01*
X45325826Y-69390771D02*
X45135350Y-69390771D01*
X45135350Y-69390771D02*
X45040112Y-69438390D01*
X45040112Y-69438390D02*
X44992493Y-69486009D01*
X44992493Y-69486009D02*
X44944874Y-69581247D01*
X46373445Y-69343152D02*
X46373445Y-70009819D01*
X46135350Y-68962200D02*
X45897255Y-69676485D01*
X45897255Y-69676485D02*
X46516302Y-69676485D01*
X46897255Y-69914580D02*
X46944874Y-69962200D01*
X46944874Y-69962200D02*
X46897255Y-70009819D01*
X46897255Y-70009819D02*
X46849636Y-69962200D01*
X46849636Y-69962200D02*
X46897255Y-69914580D01*
X46897255Y-69914580D02*
X46897255Y-70009819D01*
X47849635Y-69009819D02*
X47373445Y-69009819D01*
X47373445Y-69009819D02*
X47325826Y-69486009D01*
X47325826Y-69486009D02*
X47373445Y-69438390D01*
X47373445Y-69438390D02*
X47468683Y-69390771D01*
X47468683Y-69390771D02*
X47706778Y-69390771D01*
X47706778Y-69390771D02*
X47802016Y-69438390D01*
X47802016Y-69438390D02*
X47849635Y-69486009D01*
X47849635Y-69486009D02*
X47897254Y-69581247D01*
X47897254Y-69581247D02*
X47897254Y-69819342D01*
X47897254Y-69819342D02*
X47849635Y-69914580D01*
X47849635Y-69914580D02*
X47802016Y-69962200D01*
X47802016Y-69962200D02*
X47706778Y-70009819D01*
X47706778Y-70009819D02*
X47468683Y-70009819D01*
X47468683Y-70009819D02*
X47373445Y-69962200D01*
X47373445Y-69962200D02*
X47325826Y-69914580D01*
X49087731Y-70009819D02*
X49087731Y-69343152D01*
X49087731Y-69438390D02*
X49135350Y-69390771D01*
X49135350Y-69390771D02*
X49230588Y-69343152D01*
X49230588Y-69343152D02*
X49373445Y-69343152D01*
X49373445Y-69343152D02*
X49468683Y-69390771D01*
X49468683Y-69390771D02*
X49516302Y-69486009D01*
X49516302Y-69486009D02*
X49516302Y-70009819D01*
X49516302Y-69486009D02*
X49563921Y-69390771D01*
X49563921Y-69390771D02*
X49659159Y-69343152D01*
X49659159Y-69343152D02*
X49802016Y-69343152D01*
X49802016Y-69343152D02*
X49897255Y-69390771D01*
X49897255Y-69390771D02*
X49944874Y-69486009D01*
X49944874Y-69486009D02*
X49944874Y-70009819D01*
X50421064Y-70009819D02*
X50421064Y-69343152D01*
X50421064Y-69438390D02*
X50468683Y-69390771D01*
X50468683Y-69390771D02*
X50563921Y-69343152D01*
X50563921Y-69343152D02*
X50706778Y-69343152D01*
X50706778Y-69343152D02*
X50802016Y-69390771D01*
X50802016Y-69390771D02*
X50849635Y-69486009D01*
X50849635Y-69486009D02*
X50849635Y-70009819D01*
X50849635Y-69486009D02*
X50897254Y-69390771D01*
X50897254Y-69390771D02*
X50992492Y-69343152D01*
X50992492Y-69343152D02*
X51135349Y-69343152D01*
X51135349Y-69343152D02*
X51230588Y-69390771D01*
X51230588Y-69390771D02*
X51278207Y-69486009D01*
X51278207Y-69486009D02*
X51278207Y-70009819D01*
X52421064Y-70009819D02*
X52944873Y-69343152D01*
X52421064Y-69343152D02*
X52944873Y-70009819D01*
X54611540Y-70009819D02*
X54040112Y-70009819D01*
X54325826Y-70009819D02*
X54325826Y-69009819D01*
X54325826Y-69009819D02*
X54230588Y-69152676D01*
X54230588Y-69152676D02*
X54135350Y-69247914D01*
X54135350Y-69247914D02*
X54040112Y-69295533D01*
X55040112Y-69914580D02*
X55087731Y-69962200D01*
X55087731Y-69962200D02*
X55040112Y-70009819D01*
X55040112Y-70009819D02*
X54992493Y-69962200D01*
X54992493Y-69962200D02*
X55040112Y-69914580D01*
X55040112Y-69914580D02*
X55040112Y-70009819D01*
X55944873Y-69009819D02*
X55754397Y-69009819D01*
X55754397Y-69009819D02*
X55659159Y-69057438D01*
X55659159Y-69057438D02*
X55611540Y-69105057D01*
X55611540Y-69105057D02*
X55516302Y-69247914D01*
X55516302Y-69247914D02*
X55468683Y-69438390D01*
X55468683Y-69438390D02*
X55468683Y-69819342D01*
X55468683Y-69819342D02*
X55516302Y-69914580D01*
X55516302Y-69914580D02*
X55563921Y-69962200D01*
X55563921Y-69962200D02*
X55659159Y-70009819D01*
X55659159Y-70009819D02*
X55849635Y-70009819D01*
X55849635Y-70009819D02*
X55944873Y-69962200D01*
X55944873Y-69962200D02*
X55992492Y-69914580D01*
X55992492Y-69914580D02*
X56040111Y-69819342D01*
X56040111Y-69819342D02*
X56040111Y-69581247D01*
X56040111Y-69581247D02*
X55992492Y-69486009D01*
X55992492Y-69486009D02*
X55944873Y-69438390D01*
X55944873Y-69438390D02*
X55849635Y-69390771D01*
X55849635Y-69390771D02*
X55659159Y-69390771D01*
X55659159Y-69390771D02*
X55563921Y-69438390D01*
X55563921Y-69438390D02*
X55516302Y-69486009D01*
X55516302Y-69486009D02*
X55468683Y-69581247D01*
X56468683Y-70009819D02*
X56468683Y-69343152D01*
X56468683Y-69438390D02*
X56516302Y-69390771D01*
X56516302Y-69390771D02*
X56611540Y-69343152D01*
X56611540Y-69343152D02*
X56754397Y-69343152D01*
X56754397Y-69343152D02*
X56849635Y-69390771D01*
X56849635Y-69390771D02*
X56897254Y-69486009D01*
X56897254Y-69486009D02*
X56897254Y-70009819D01*
X56897254Y-69486009D02*
X56944873Y-69390771D01*
X56944873Y-69390771D02*
X57040111Y-69343152D01*
X57040111Y-69343152D02*
X57182968Y-69343152D01*
X57182968Y-69343152D02*
X57278207Y-69390771D01*
X57278207Y-69390771D02*
X57325826Y-69486009D01*
X57325826Y-69486009D02*
X57325826Y-70009819D01*
X57802016Y-70009819D02*
X57802016Y-69343152D01*
X57802016Y-69438390D02*
X57849635Y-69390771D01*
X57849635Y-69390771D02*
X57944873Y-69343152D01*
X57944873Y-69343152D02*
X58087730Y-69343152D01*
X58087730Y-69343152D02*
X58182968Y-69390771D01*
X58182968Y-69390771D02*
X58230587Y-69486009D01*
X58230587Y-69486009D02*
X58230587Y-70009819D01*
X58230587Y-69486009D02*
X58278206Y-69390771D01*
X58278206Y-69390771D02*
X58373444Y-69343152D01*
X58373444Y-69343152D02*
X58516301Y-69343152D01*
X58516301Y-69343152D02*
X58611540Y-69390771D01*
X58611540Y-69390771D02*
X58659159Y-69486009D01*
X58659159Y-69486009D02*
X58659159Y-70009819D01*
D12*
X1960198Y-31835489D02*
X2031626Y-31621203D01*
X2031626Y-31621203D02*
X2103055Y-31549774D01*
X2103055Y-31549774D02*
X2245912Y-31478346D01*
X2245912Y-31478346D02*
X2460198Y-31478346D01*
X2460198Y-31478346D02*
X2603055Y-31549774D01*
X2603055Y-31549774D02*
X2674484Y-31621203D01*
X2674484Y-31621203D02*
X2745912Y-31764060D01*
X2745912Y-31764060D02*
X2745912Y-32335489D01*
X2745912Y-32335489D02*
X1245912Y-32335489D01*
X1245912Y-32335489D02*
X1245912Y-31835489D01*
X1245912Y-31835489D02*
X1317341Y-31692632D01*
X1317341Y-31692632D02*
X1388769Y-31621203D01*
X1388769Y-31621203D02*
X1531626Y-31549774D01*
X1531626Y-31549774D02*
X1674484Y-31549774D01*
X1674484Y-31549774D02*
X1817341Y-31621203D01*
X1817341Y-31621203D02*
X1888769Y-31692632D01*
X1888769Y-31692632D02*
X1960198Y-31835489D01*
X1960198Y-31835489D02*
X1960198Y-32335489D01*
X1245912Y-30406917D02*
X2317341Y-30406917D01*
X2317341Y-30406917D02*
X2531626Y-30478346D01*
X2531626Y-30478346D02*
X2674484Y-30621203D01*
X2674484Y-30621203D02*
X2745912Y-30835489D01*
X2745912Y-30835489D02*
X2745912Y-30978346D01*
X2745912Y-28835489D02*
X2031626Y-29335489D01*
X2745912Y-29692632D02*
X1245912Y-29692632D01*
X1245912Y-29692632D02*
X1245912Y-29121203D01*
X1245912Y-29121203D02*
X1317341Y-28978346D01*
X1317341Y-28978346D02*
X1388769Y-28906917D01*
X1388769Y-28906917D02*
X1531626Y-28835489D01*
X1531626Y-28835489D02*
X1745912Y-28835489D01*
X1745912Y-28835489D02*
X1888769Y-28906917D01*
X1888769Y-28906917D02*
X1960198Y-28978346D01*
X1960198Y-28978346D02*
X2031626Y-29121203D01*
X2031626Y-29121203D02*
X2031626Y-29692632D01*
X2031626Y-27264060D02*
X1960198Y-27335489D01*
X1960198Y-27335489D02*
X1888769Y-27478346D01*
X1888769Y-27478346D02*
X1888769Y-27621203D01*
X1888769Y-27621203D02*
X1960198Y-27764060D01*
X1960198Y-27764060D02*
X2031626Y-27835489D01*
X2031626Y-27835489D02*
X2174484Y-27906917D01*
X2174484Y-27906917D02*
X2317341Y-27906917D01*
X2317341Y-27906917D02*
X2460198Y-27835489D01*
X2460198Y-27835489D02*
X2531626Y-27764060D01*
X2531626Y-27764060D02*
X2603055Y-27621203D01*
X2603055Y-27621203D02*
X2603055Y-27478346D01*
X2603055Y-27478346D02*
X2531626Y-27335489D01*
X2531626Y-27335489D02*
X2460198Y-27264060D01*
X1888769Y-27264060D02*
X2460198Y-27264060D01*
X2460198Y-27264060D02*
X2531626Y-27192632D01*
X2531626Y-27192632D02*
X2531626Y-27121203D01*
X2531626Y-27121203D02*
X2460198Y-26978346D01*
X2460198Y-26978346D02*
X2317341Y-26906917D01*
X2317341Y-26906917D02*
X1960198Y-26906917D01*
X1960198Y-26906917D02*
X1745912Y-27049775D01*
X1745912Y-27049775D02*
X1603055Y-27264060D01*
X1603055Y-27264060D02*
X1531626Y-27549775D01*
X1531626Y-27549775D02*
X1603055Y-27835489D01*
X1603055Y-27835489D02*
X1745912Y-28049775D01*
X1745912Y-28049775D02*
X1960198Y-28192632D01*
X1960198Y-28192632D02*
X2245912Y-28264060D01*
X2245912Y-28264060D02*
X2531626Y-28192632D01*
X2531626Y-28192632D02*
X2745912Y-28049775D01*
X2745912Y-28049775D02*
X2888769Y-27835489D01*
X2888769Y-27835489D02*
X2960198Y-27549775D01*
X2960198Y-27549775D02*
X2888769Y-27264060D01*
X2888769Y-27264060D02*
X2745912Y-27049775D01*
X1245912Y-25835489D02*
X2317341Y-25835489D01*
X2317341Y-25835489D02*
X2531626Y-25906918D01*
X2531626Y-25906918D02*
X2674484Y-26049775D01*
X2674484Y-26049775D02*
X2745912Y-26264061D01*
X2745912Y-26264061D02*
X2745912Y-26406918D01*
X2745912Y-25121204D02*
X1245912Y-25121204D01*
X1960198Y-25121204D02*
X1960198Y-24264061D01*
X2745912Y-24264061D02*
X1245912Y-24264061D01*
X1245912Y-23549775D02*
X2460198Y-23549775D01*
X2460198Y-23549775D02*
X2603055Y-23478346D01*
X2603055Y-23478346D02*
X2674484Y-23406918D01*
X2674484Y-23406918D02*
X2745912Y-23264060D01*
X2745912Y-23264060D02*
X2745912Y-22978346D01*
X2745912Y-22978346D02*
X2674484Y-22835489D01*
X2674484Y-22835489D02*
X2603055Y-22764060D01*
X2603055Y-22764060D02*
X2460198Y-22692632D01*
X2460198Y-22692632D02*
X1245912Y-22692632D01*
X4732257Y-32406917D02*
X4732257Y-31692632D01*
X5160828Y-32549774D02*
X3660828Y-32049774D01*
X3660828Y-32049774D02*
X5160828Y-31549774D01*
X5089400Y-30406918D02*
X5160828Y-30549775D01*
X5160828Y-30549775D02*
X5160828Y-30835489D01*
X5160828Y-30835489D02*
X5089400Y-30978346D01*
X5089400Y-30978346D02*
X5017971Y-31049775D01*
X5017971Y-31049775D02*
X4875114Y-31121203D01*
X4875114Y-31121203D02*
X4446542Y-31121203D01*
X4446542Y-31121203D02*
X4303685Y-31049775D01*
X4303685Y-31049775D02*
X4232257Y-30978346D01*
X4232257Y-30978346D02*
X4160828Y-30835489D01*
X4160828Y-30835489D02*
X4160828Y-30549775D01*
X4160828Y-30549775D02*
X4232257Y-30406918D01*
X5089400Y-29121204D02*
X5160828Y-29264061D01*
X5160828Y-29264061D02*
X5160828Y-29549775D01*
X5160828Y-29549775D02*
X5089400Y-29692632D01*
X5089400Y-29692632D02*
X5017971Y-29764061D01*
X5017971Y-29764061D02*
X4875114Y-29835489D01*
X4875114Y-29835489D02*
X4446542Y-29835489D01*
X4446542Y-29835489D02*
X4303685Y-29764061D01*
X4303685Y-29764061D02*
X4232257Y-29692632D01*
X4232257Y-29692632D02*
X4160828Y-29549775D01*
X4160828Y-29549775D02*
X4160828Y-29264061D01*
X4160828Y-29264061D02*
X4232257Y-29121204D01*
X5089400Y-27906918D02*
X5160828Y-28049775D01*
X5160828Y-28049775D02*
X5160828Y-28335490D01*
X5160828Y-28335490D02*
X5089400Y-28478347D01*
X5089400Y-28478347D02*
X4946542Y-28549775D01*
X4946542Y-28549775D02*
X4375114Y-28549775D01*
X4375114Y-28549775D02*
X4232257Y-28478347D01*
X4232257Y-28478347D02*
X4160828Y-28335490D01*
X4160828Y-28335490D02*
X4160828Y-28049775D01*
X4160828Y-28049775D02*
X4232257Y-27906918D01*
X4232257Y-27906918D02*
X4375114Y-27835490D01*
X4375114Y-27835490D02*
X4517971Y-27835490D01*
X4517971Y-27835490D02*
X4660828Y-28549775D01*
X5089400Y-27264061D02*
X5160828Y-27121204D01*
X5160828Y-27121204D02*
X5160828Y-26835490D01*
X5160828Y-26835490D02*
X5089400Y-26692633D01*
X5089400Y-26692633D02*
X4946542Y-26621204D01*
X4946542Y-26621204D02*
X4875114Y-26621204D01*
X4875114Y-26621204D02*
X4732257Y-26692633D01*
X4732257Y-26692633D02*
X4660828Y-26835490D01*
X4660828Y-26835490D02*
X4660828Y-27049776D01*
X4660828Y-27049776D02*
X4589400Y-27192633D01*
X4589400Y-27192633D02*
X4446542Y-27264061D01*
X4446542Y-27264061D02*
X4375114Y-27264061D01*
X4375114Y-27264061D02*
X4232257Y-27192633D01*
X4232257Y-27192633D02*
X4160828Y-27049776D01*
X4160828Y-27049776D02*
X4160828Y-26835490D01*
X4160828Y-26835490D02*
X4232257Y-26692633D01*
X5089400Y-26049775D02*
X5160828Y-25906918D01*
X5160828Y-25906918D02*
X5160828Y-25621204D01*
X5160828Y-25621204D02*
X5089400Y-25478347D01*
X5089400Y-25478347D02*
X4946542Y-25406918D01*
X4946542Y-25406918D02*
X4875114Y-25406918D01*
X4875114Y-25406918D02*
X4732257Y-25478347D01*
X4732257Y-25478347D02*
X4660828Y-25621204D01*
X4660828Y-25621204D02*
X4660828Y-25835490D01*
X4660828Y-25835490D02*
X4589400Y-25978347D01*
X4589400Y-25978347D02*
X4446542Y-26049775D01*
X4446542Y-26049775D02*
X4375114Y-26049775D01*
X4375114Y-26049775D02*
X4232257Y-25978347D01*
X4232257Y-25978347D02*
X4160828Y-25835490D01*
X4160828Y-25835490D02*
X4160828Y-25621204D01*
X4160828Y-25621204D02*
X4232257Y-25478347D01*
X5160828Y-24549775D02*
X5089400Y-24692632D01*
X5089400Y-24692632D02*
X5017971Y-24764061D01*
X5017971Y-24764061D02*
X4875114Y-24835489D01*
X4875114Y-24835489D02*
X4446542Y-24835489D01*
X4446542Y-24835489D02*
X4303685Y-24764061D01*
X4303685Y-24764061D02*
X4232257Y-24692632D01*
X4232257Y-24692632D02*
X4160828Y-24549775D01*
X4160828Y-24549775D02*
X4160828Y-24335489D01*
X4160828Y-24335489D02*
X4232257Y-24192632D01*
X4232257Y-24192632D02*
X4303685Y-24121204D01*
X4303685Y-24121204D02*
X4446542Y-24049775D01*
X4446542Y-24049775D02*
X4875114Y-24049775D01*
X4875114Y-24049775D02*
X5017971Y-24121204D01*
X5017971Y-24121204D02*
X5089400Y-24192632D01*
X5089400Y-24192632D02*
X5160828Y-24335489D01*
X5160828Y-24335489D02*
X5160828Y-24549775D01*
X5160828Y-23406918D02*
X4160828Y-23406918D01*
X4446542Y-23406918D02*
X4303685Y-23335489D01*
X4303685Y-23335489D02*
X4232257Y-23264061D01*
X4232257Y-23264061D02*
X4160828Y-23121203D01*
X4160828Y-23121203D02*
X4160828Y-22978346D01*
X4160828Y-22621204D02*
X5160828Y-22264061D01*
X4160828Y-21906918D02*
X5160828Y-22264061D01*
X5160828Y-22264061D02*
X5517971Y-22406918D01*
X5517971Y-22406918D02*
X5589400Y-22478347D01*
X5589400Y-22478347D02*
X5660828Y-22621204D01*
X3660828Y-20335490D02*
X3660828Y-19406918D01*
X3660828Y-19406918D02*
X4232257Y-19906918D01*
X4232257Y-19906918D02*
X4232257Y-19692633D01*
X4232257Y-19692633D02*
X4303685Y-19549776D01*
X4303685Y-19549776D02*
X4375114Y-19478347D01*
X4375114Y-19478347D02*
X4517971Y-19406918D01*
X4517971Y-19406918D02*
X4875114Y-19406918D01*
X4875114Y-19406918D02*
X5017971Y-19478347D01*
X5017971Y-19478347D02*
X5089400Y-19549776D01*
X5089400Y-19549776D02*
X5160828Y-19692633D01*
X5160828Y-19692633D02*
X5160828Y-20121204D01*
X5160828Y-20121204D02*
X5089400Y-20264061D01*
X5089400Y-20264061D02*
X5017971Y-20335490D01*
X5017971Y-18764062D02*
X5089400Y-18692633D01*
X5089400Y-18692633D02*
X5160828Y-18764062D01*
X5160828Y-18764062D02*
X5089400Y-18835490D01*
X5089400Y-18835490D02*
X5017971Y-18764062D01*
X5017971Y-18764062D02*
X5160828Y-18764062D01*
X3660828Y-17764061D02*
X3660828Y-17621204D01*
X3660828Y-17621204D02*
X3732257Y-17478347D01*
X3732257Y-17478347D02*
X3803685Y-17406919D01*
X3803685Y-17406919D02*
X3946542Y-17335490D01*
X3946542Y-17335490D02*
X4232257Y-17264061D01*
X4232257Y-17264061D02*
X4589400Y-17264061D01*
X4589400Y-17264061D02*
X4875114Y-17335490D01*
X4875114Y-17335490D02*
X5017971Y-17406919D01*
X5017971Y-17406919D02*
X5089400Y-17478347D01*
X5089400Y-17478347D02*
X5160828Y-17621204D01*
X5160828Y-17621204D02*
X5160828Y-17764061D01*
X5160828Y-17764061D02*
X5089400Y-17906919D01*
X5089400Y-17906919D02*
X5017971Y-17978347D01*
X5017971Y-17978347D02*
X4875114Y-18049776D01*
X4875114Y-18049776D02*
X4589400Y-18121204D01*
X4589400Y-18121204D02*
X4232257Y-18121204D01*
X4232257Y-18121204D02*
X3946542Y-18049776D01*
X3946542Y-18049776D02*
X3803685Y-17978347D01*
X3803685Y-17978347D02*
X3732257Y-17906919D01*
X3732257Y-17906919D02*
X3660828Y-17764061D01*
D11*
X58135569Y-73222309D02*
X58040331Y-73222309D01*
X58040331Y-73222309D02*
X57992712Y-73246119D01*
X57992712Y-73246119D02*
X57968902Y-73269928D01*
X57968902Y-73269928D02*
X57921283Y-73341357D01*
X57921283Y-73341357D02*
X57897474Y-73436595D01*
X57897474Y-73436595D02*
X57897474Y-73627071D01*
X57897474Y-73627071D02*
X57921283Y-73674690D01*
X57921283Y-73674690D02*
X57945093Y-73698500D01*
X57945093Y-73698500D02*
X57992712Y-73722309D01*
X57992712Y-73722309D02*
X58087950Y-73722309D01*
X58087950Y-73722309D02*
X58135569Y-73698500D01*
X58135569Y-73698500D02*
X58159378Y-73674690D01*
X58159378Y-73674690D02*
X58183188Y-73627071D01*
X58183188Y-73627071D02*
X58183188Y-73508023D01*
X58183188Y-73508023D02*
X58159378Y-73460404D01*
X58159378Y-73460404D02*
X58135569Y-73436595D01*
X58135569Y-73436595D02*
X58087950Y-73412785D01*
X58087950Y-73412785D02*
X57992712Y-73412785D01*
X57992712Y-73412785D02*
X57945093Y-73436595D01*
X57945093Y-73436595D02*
X57921283Y-73460404D01*
X57921283Y-73460404D02*
X57897474Y-73508023D01*
X58397473Y-73674690D02*
X58421283Y-73698500D01*
X58421283Y-73698500D02*
X58397473Y-73722309D01*
X58397473Y-73722309D02*
X58373664Y-73698500D01*
X58373664Y-73698500D02*
X58397473Y-73674690D01*
X58397473Y-73674690D02*
X58397473Y-73722309D01*
X58587949Y-73222309D02*
X58897473Y-73222309D01*
X58897473Y-73222309D02*
X58730806Y-73412785D01*
X58730806Y-73412785D02*
X58802235Y-73412785D01*
X58802235Y-73412785D02*
X58849854Y-73436595D01*
X58849854Y-73436595D02*
X58873663Y-73460404D01*
X58873663Y-73460404D02*
X58897473Y-73508023D01*
X58897473Y-73508023D02*
X58897473Y-73627071D01*
X58897473Y-73627071D02*
X58873663Y-73674690D01*
X58873663Y-73674690D02*
X58849854Y-73698500D01*
X58849854Y-73698500D02*
X58802235Y-73722309D01*
X58802235Y-73722309D02*
X58659378Y-73722309D01*
X58659378Y-73722309D02*
X58611759Y-73698500D01*
X58611759Y-73698500D02*
X58587949Y-73674690D01*
X59349853Y-73222309D02*
X59111758Y-73222309D01*
X59111758Y-73222309D02*
X59087949Y-73460404D01*
X59087949Y-73460404D02*
X59111758Y-73436595D01*
X59111758Y-73436595D02*
X59159377Y-73412785D01*
X59159377Y-73412785D02*
X59278425Y-73412785D01*
X59278425Y-73412785D02*
X59326044Y-73436595D01*
X59326044Y-73436595D02*
X59349853Y-73460404D01*
X59349853Y-73460404D02*
X59373663Y-73508023D01*
X59373663Y-73508023D02*
X59373663Y-73627071D01*
X59373663Y-73627071D02*
X59349853Y-73674690D01*
X59349853Y-73674690D02*
X59326044Y-73698500D01*
X59326044Y-73698500D02*
X59278425Y-73722309D01*
X59278425Y-73722309D02*
X59159377Y-73722309D01*
X59159377Y-73722309D02*
X59111758Y-73698500D01*
X59111758Y-73698500D02*
X59087949Y-73674690D01*
X59921281Y-73722309D02*
X60183186Y-73388976D01*
X59921281Y-73388976D02*
X60183186Y-73722309D01*
X60706995Y-73222309D02*
X61016519Y-73222309D01*
X61016519Y-73222309D02*
X60849852Y-73412785D01*
X60849852Y-73412785D02*
X60921281Y-73412785D01*
X60921281Y-73412785D02*
X60968900Y-73436595D01*
X60968900Y-73436595D02*
X60992709Y-73460404D01*
X60992709Y-73460404D02*
X61016519Y-73508023D01*
X61016519Y-73508023D02*
X61016519Y-73627071D01*
X61016519Y-73627071D02*
X60992709Y-73674690D01*
X60992709Y-73674690D02*
X60968900Y-73698500D01*
X60968900Y-73698500D02*
X60921281Y-73722309D01*
X60921281Y-73722309D02*
X60778424Y-73722309D01*
X60778424Y-73722309D02*
X60730805Y-73698500D01*
X60730805Y-73698500D02*
X60706995Y-73674690D01*
X61230804Y-73674690D02*
X61254614Y-73698500D01*
X61254614Y-73698500D02*
X61230804Y-73722309D01*
X61230804Y-73722309D02*
X61206995Y-73698500D01*
X61206995Y-73698500D02*
X61230804Y-73674690D01*
X61230804Y-73674690D02*
X61230804Y-73722309D01*
X61730804Y-73722309D02*
X61445090Y-73722309D01*
X61587947Y-73722309D02*
X61587947Y-73222309D01*
X61587947Y-73222309D02*
X61540328Y-73293738D01*
X61540328Y-73293738D02*
X61492709Y-73341357D01*
X61492709Y-73341357D02*
X61445090Y-73365166D01*
X61897470Y-73222309D02*
X62230803Y-73222309D01*
X62230803Y-73222309D02*
X62016518Y-73722309D01*
X62659374Y-73222309D02*
X62421279Y-73222309D01*
X62421279Y-73222309D02*
X62397470Y-73460404D01*
X62397470Y-73460404D02*
X62421279Y-73436595D01*
X62421279Y-73436595D02*
X62468898Y-73412785D01*
X62468898Y-73412785D02*
X62587946Y-73412785D01*
X62587946Y-73412785D02*
X62635565Y-73436595D01*
X62635565Y-73436595D02*
X62659374Y-73460404D01*
X62659374Y-73460404D02*
X62683184Y-73508023D01*
X62683184Y-73508023D02*
X62683184Y-73627071D01*
X62683184Y-73627071D02*
X62659374Y-73674690D01*
X62659374Y-73674690D02*
X62635565Y-73698500D01*
X62635565Y-73698500D02*
X62587946Y-73722309D01*
X62587946Y-73722309D02*
X62468898Y-73722309D01*
X62468898Y-73722309D02*
X62421279Y-73698500D01*
X62421279Y-73698500D02*
X62397470Y-73674690D01*
X63278421Y-73722309D02*
X63278421Y-73388976D01*
X63278421Y-73436595D02*
X63302231Y-73412785D01*
X63302231Y-73412785D02*
X63349850Y-73388976D01*
X63349850Y-73388976D02*
X63421278Y-73388976D01*
X63421278Y-73388976D02*
X63468897Y-73412785D01*
X63468897Y-73412785D02*
X63492707Y-73460404D01*
X63492707Y-73460404D02*
X63492707Y-73722309D01*
X63492707Y-73460404D02*
X63516516Y-73412785D01*
X63516516Y-73412785D02*
X63564135Y-73388976D01*
X63564135Y-73388976D02*
X63635564Y-73388976D01*
X63635564Y-73388976D02*
X63683183Y-73412785D01*
X63683183Y-73412785D02*
X63706993Y-73460404D01*
X63706993Y-73460404D02*
X63706993Y-73722309D01*
X63945088Y-73722309D02*
X63945088Y-73388976D01*
X63945088Y-73436595D02*
X63968898Y-73412785D01*
X63968898Y-73412785D02*
X64016517Y-73388976D01*
X64016517Y-73388976D02*
X64087945Y-73388976D01*
X64087945Y-73388976D02*
X64135564Y-73412785D01*
X64135564Y-73412785D02*
X64159374Y-73460404D01*
X64159374Y-73460404D02*
X64159374Y-73722309D01*
X64159374Y-73460404D02*
X64183183Y-73412785D01*
X64183183Y-73412785D02*
X64230802Y-73388976D01*
X64230802Y-73388976D02*
X64302231Y-73388976D01*
X64302231Y-73388976D02*
X64349850Y-73412785D01*
X64349850Y-73412785D02*
X64373660Y-73460404D01*
X64373660Y-73460404D02*
X64373660Y-73722309D01*
D10*
X2080065Y-15357420D02*
X2080065Y-15024087D01*
X2603875Y-14881230D02*
X2603875Y-15357420D01*
X2603875Y-15357420D02*
X1603875Y-15357420D01*
X1603875Y-15357420D02*
X1603875Y-14881230D01*
X2603875Y-14452658D02*
X1937208Y-14452658D01*
X2032446Y-14452658D02*
X1984827Y-14405039D01*
X1984827Y-14405039D02*
X1937208Y-14309801D01*
X1937208Y-14309801D02*
X1937208Y-14166944D01*
X1937208Y-14166944D02*
X1984827Y-14071706D01*
X1984827Y-14071706D02*
X2080065Y-14024087D01*
X2080065Y-14024087D02*
X2603875Y-14024087D01*
X2080065Y-14024087D02*
X1984827Y-13976468D01*
X1984827Y-13976468D02*
X1937208Y-13881230D01*
X1937208Y-13881230D02*
X1937208Y-13738373D01*
X1937208Y-13738373D02*
X1984827Y-13643134D01*
X1984827Y-13643134D02*
X2080065Y-13595515D01*
X2080065Y-13595515D02*
X2603875Y-13595515D01*
X2603875Y-13119325D02*
X1937208Y-13119325D01*
X2032446Y-13119325D02*
X1984827Y-13071706D01*
X1984827Y-13071706D02*
X1937208Y-12976468D01*
X1937208Y-12976468D02*
X1937208Y-12833611D01*
X1937208Y-12833611D02*
X1984827Y-12738373D01*
X1984827Y-12738373D02*
X2080065Y-12690754D01*
X2080065Y-12690754D02*
X2603875Y-12690754D01*
X2080065Y-12690754D02*
X1984827Y-12643135D01*
X1984827Y-12643135D02*
X1937208Y-12547897D01*
X1937208Y-12547897D02*
X1937208Y-12405040D01*
X1937208Y-12405040D02*
X1984827Y-12309801D01*
X1984827Y-12309801D02*
X2080065Y-12262182D01*
X2080065Y-12262182D02*
X2603875Y-12262182D01*
X2603875Y-11357421D02*
X2080065Y-11357421D01*
X2080065Y-11357421D02*
X1984827Y-11405040D01*
X1984827Y-11405040D02*
X1937208Y-11500278D01*
X1937208Y-11500278D02*
X1937208Y-11690754D01*
X1937208Y-11690754D02*
X1984827Y-11785992D01*
X2556256Y-11357421D02*
X2603875Y-11452659D01*
X2603875Y-11452659D02*
X2603875Y-11690754D01*
X2603875Y-11690754D02*
X2556256Y-11785992D01*
X2556256Y-11785992D02*
X2461017Y-11833611D01*
X2461017Y-11833611D02*
X2365779Y-11833611D01*
X2365779Y-11833611D02*
X2270541Y-11785992D01*
X2270541Y-11785992D02*
X2222922Y-11690754D01*
X2222922Y-11690754D02*
X2222922Y-11452659D01*
X2222922Y-11452659D02*
X2175303Y-11357421D01*
X1603875Y-9928849D02*
X1603875Y-9738373D01*
X1603875Y-9738373D02*
X1651494Y-9643135D01*
X1651494Y-9643135D02*
X1746732Y-9547897D01*
X1746732Y-9547897D02*
X1937208Y-9500278D01*
X1937208Y-9500278D02*
X2270541Y-9500278D01*
X2270541Y-9500278D02*
X2461017Y-9547897D01*
X2461017Y-9547897D02*
X2556256Y-9643135D01*
X2556256Y-9643135D02*
X2603875Y-9738373D01*
X2603875Y-9738373D02*
X2603875Y-9928849D01*
X2603875Y-9928849D02*
X2556256Y-10024087D01*
X2556256Y-10024087D02*
X2461017Y-10119325D01*
X2461017Y-10119325D02*
X2270541Y-10166944D01*
X2270541Y-10166944D02*
X1937208Y-10166944D01*
X1937208Y-10166944D02*
X1746732Y-10119325D01*
X1746732Y-10119325D02*
X1651494Y-10024087D01*
X1651494Y-10024087D02*
X1603875Y-9928849D01*
X1937208Y-8643135D02*
X2603875Y-8643135D01*
X1937208Y-9071706D02*
X2461017Y-9071706D01*
X2461017Y-9071706D02*
X2556256Y-9024087D01*
X2556256Y-9024087D02*
X2603875Y-8928849D01*
X2603875Y-8928849D02*
X2603875Y-8785992D01*
X2603875Y-8785992D02*
X2556256Y-8690754D01*
X2556256Y-8690754D02*
X2508636Y-8643135D01*
X1937208Y-8262182D02*
X2603875Y-8024087D01*
X1937208Y-7785992D02*
X2603875Y-8024087D01*
X2603875Y-8024087D02*
X2841970Y-8119325D01*
X2841970Y-8119325D02*
X2889589Y-8166944D01*
X2889589Y-8166944D02*
X2937208Y-8262182D01*
X2603875Y-6976468D02*
X2080065Y-6976468D01*
X2080065Y-6976468D02*
X1984827Y-7024087D01*
X1984827Y-7024087D02*
X1937208Y-7119325D01*
X1937208Y-7119325D02*
X1937208Y-7309801D01*
X1937208Y-7309801D02*
X1984827Y-7405039D01*
X2556256Y-6976468D02*
X2603875Y-7071706D01*
X2603875Y-7071706D02*
X2603875Y-7309801D01*
X2603875Y-7309801D02*
X2556256Y-7405039D01*
X2556256Y-7405039D02*
X2461017Y-7452658D01*
X2461017Y-7452658D02*
X2365779Y-7452658D01*
X2365779Y-7452658D02*
X2270541Y-7405039D01*
X2270541Y-7405039D02*
X2222922Y-7309801D01*
X2222922Y-7309801D02*
X2222922Y-7071706D01*
X2222922Y-7071706D02*
X2175303Y-6976468D01*
X1937208Y-6500277D02*
X2603875Y-6500277D01*
X2032446Y-6500277D02*
X1984827Y-6452658D01*
X1984827Y-6452658D02*
X1937208Y-6357420D01*
X1937208Y-6357420D02*
X1937208Y-6214563D01*
X1937208Y-6214563D02*
X1984827Y-6119325D01*
X1984827Y-6119325D02*
X2080065Y-6071706D01*
X2080065Y-6071706D02*
X2603875Y-6071706D01*
X1937208Y-5166944D02*
X2746732Y-5166944D01*
X2746732Y-5166944D02*
X2841970Y-5214563D01*
X2841970Y-5214563D02*
X2889589Y-5262182D01*
X2889589Y-5262182D02*
X2937208Y-5357420D01*
X2937208Y-5357420D02*
X2937208Y-5500277D01*
X2937208Y-5500277D02*
X2889589Y-5595515D01*
X2556256Y-5166944D02*
X2603875Y-5262182D01*
X2603875Y-5262182D02*
X2603875Y-5452658D01*
X2603875Y-5452658D02*
X2556256Y-5547896D01*
X2556256Y-5547896D02*
X2508636Y-5595515D01*
X2508636Y-5595515D02*
X2413398Y-5643134D01*
X2413398Y-5643134D02*
X2127684Y-5643134D01*
X2127684Y-5643134D02*
X2032446Y-5595515D01*
X2032446Y-5595515D02*
X1984827Y-5547896D01*
X1984827Y-5547896D02*
X1937208Y-5452658D01*
X1937208Y-5452658D02*
X1937208Y-5262182D01*
X1937208Y-5262182D02*
X1984827Y-5166944D01*
X3928104Y-15405039D02*
X3928104Y-14928849D01*
X4213819Y-15500277D02*
X3213819Y-15166944D01*
X3213819Y-15166944D02*
X4213819Y-14833611D01*
X4213819Y-14071706D02*
X3690009Y-14071706D01*
X3690009Y-14071706D02*
X3594771Y-14119325D01*
X3594771Y-14119325D02*
X3547152Y-14214563D01*
X3547152Y-14214563D02*
X3547152Y-14405039D01*
X3547152Y-14405039D02*
X3594771Y-14500277D01*
X4166200Y-14071706D02*
X4213819Y-14166944D01*
X4213819Y-14166944D02*
X4213819Y-14405039D01*
X4213819Y-14405039D02*
X4166200Y-14500277D01*
X4166200Y-14500277D02*
X4070961Y-14547896D01*
X4070961Y-14547896D02*
X3975723Y-14547896D01*
X3975723Y-14547896D02*
X3880485Y-14500277D01*
X3880485Y-14500277D02*
X3832866Y-14405039D01*
X3832866Y-14405039D02*
X3832866Y-14166944D01*
X3832866Y-14166944D02*
X3785247Y-14071706D01*
X4213819Y-13595515D02*
X3547152Y-13595515D01*
X3737628Y-13595515D02*
X3642390Y-13547896D01*
X3642390Y-13547896D02*
X3594771Y-13500277D01*
X3594771Y-13500277D02*
X3547152Y-13405039D01*
X3547152Y-13405039D02*
X3547152Y-13309801D01*
X4166200Y-12595515D02*
X4213819Y-12690753D01*
X4213819Y-12690753D02*
X4213819Y-12881229D01*
X4213819Y-12881229D02*
X4166200Y-12976467D01*
X4166200Y-12976467D02*
X4070961Y-13024086D01*
X4070961Y-13024086D02*
X3690009Y-13024086D01*
X3690009Y-13024086D02*
X3594771Y-12976467D01*
X3594771Y-12976467D02*
X3547152Y-12881229D01*
X3547152Y-12881229D02*
X3547152Y-12690753D01*
X3547152Y-12690753D02*
X3594771Y-12595515D01*
X3594771Y-12595515D02*
X3690009Y-12547896D01*
X3690009Y-12547896D02*
X3785247Y-12547896D01*
X3785247Y-12547896D02*
X3880485Y-13024086D01*
X3547152Y-12119324D02*
X4213819Y-12119324D01*
X3642390Y-12119324D02*
X3594771Y-12071705D01*
X3594771Y-12071705D02*
X3547152Y-11976467D01*
X3547152Y-11976467D02*
X3547152Y-11833610D01*
X3547152Y-11833610D02*
X3594771Y-11738372D01*
X3594771Y-11738372D02*
X3690009Y-11690753D01*
X3690009Y-11690753D02*
X4213819Y-11690753D01*
X3213819Y-10547895D02*
X4213819Y-10309800D01*
X4213819Y-10309800D02*
X3499533Y-10119324D01*
X3499533Y-10119324D02*
X4213819Y-9928848D01*
X4213819Y-9928848D02*
X3213819Y-9690753D01*
X4213819Y-9166943D02*
X4166200Y-9262181D01*
X4166200Y-9262181D02*
X4118580Y-9309800D01*
X4118580Y-9309800D02*
X4023342Y-9357419D01*
X4023342Y-9357419D02*
X3737628Y-9357419D01*
X3737628Y-9357419D02*
X3642390Y-9309800D01*
X3642390Y-9309800D02*
X3594771Y-9262181D01*
X3594771Y-9262181D02*
X3547152Y-9166943D01*
X3547152Y-9166943D02*
X3547152Y-9024086D01*
X3547152Y-9024086D02*
X3594771Y-8928848D01*
X3594771Y-8928848D02*
X3642390Y-8881229D01*
X3642390Y-8881229D02*
X3737628Y-8833610D01*
X3737628Y-8833610D02*
X4023342Y-8833610D01*
X4023342Y-8833610D02*
X4118580Y-8881229D01*
X4118580Y-8881229D02*
X4166200Y-8928848D01*
X4166200Y-8928848D02*
X4213819Y-9024086D01*
X4213819Y-9024086D02*
X4213819Y-9166943D01*
X3547152Y-8405038D02*
X4213819Y-8405038D01*
X3642390Y-8405038D02*
X3594771Y-8357419D01*
X3594771Y-8357419D02*
X3547152Y-8262181D01*
X3547152Y-8262181D02*
X3547152Y-8119324D01*
X3547152Y-8119324D02*
X3594771Y-8024086D01*
X3594771Y-8024086D02*
X3690009Y-7976467D01*
X3690009Y-7976467D02*
X4213819Y-7976467D01*
X3547152Y-7071705D02*
X4356676Y-7071705D01*
X4356676Y-7071705D02*
X4451914Y-7119324D01*
X4451914Y-7119324D02*
X4499533Y-7166943D01*
X4499533Y-7166943D02*
X4547152Y-7262181D01*
X4547152Y-7262181D02*
X4547152Y-7405038D01*
X4547152Y-7405038D02*
X4499533Y-7500276D01*
X4166200Y-7071705D02*
X4213819Y-7166943D01*
X4213819Y-7166943D02*
X4213819Y-7357419D01*
X4213819Y-7357419D02*
X4166200Y-7452657D01*
X4166200Y-7452657D02*
X4118580Y-7500276D01*
X4118580Y-7500276D02*
X4023342Y-7547895D01*
X4023342Y-7547895D02*
X3737628Y-7547895D01*
X3737628Y-7547895D02*
X3642390Y-7500276D01*
X3642390Y-7500276D02*
X3594771Y-7452657D01*
X3594771Y-7452657D02*
X3547152Y-7357419D01*
X3547152Y-7357419D02*
X3547152Y-7166943D01*
X3547152Y-7166943D02*
X3594771Y-7071705D01*
X30368207Y-7584580D02*
X30320588Y-7632200D01*
X30320588Y-7632200D02*
X30177731Y-7679819D01*
X30177731Y-7679819D02*
X30082493Y-7679819D01*
X30082493Y-7679819D02*
X29939636Y-7632200D01*
X29939636Y-7632200D02*
X29844398Y-7536961D01*
X29844398Y-7536961D02*
X29796779Y-7441723D01*
X29796779Y-7441723D02*
X29749160Y-7251247D01*
X29749160Y-7251247D02*
X29749160Y-7108390D01*
X29749160Y-7108390D02*
X29796779Y-6917914D01*
X29796779Y-6917914D02*
X29844398Y-6822676D01*
X29844398Y-6822676D02*
X29939636Y-6727438D01*
X29939636Y-6727438D02*
X30082493Y-6679819D01*
X30082493Y-6679819D02*
X30177731Y-6679819D01*
X30177731Y-6679819D02*
X30320588Y-6727438D01*
X30320588Y-6727438D02*
X30368207Y-6775057D01*
X31368207Y-7679819D02*
X31034874Y-7203628D01*
X30796779Y-7679819D02*
X30796779Y-6679819D01*
X30796779Y-6679819D02*
X31177731Y-6679819D01*
X31177731Y-6679819D02*
X31272969Y-6727438D01*
X31272969Y-6727438D02*
X31320588Y-6775057D01*
X31320588Y-6775057D02*
X31368207Y-6870295D01*
X31368207Y-6870295D02*
X31368207Y-7013152D01*
X31368207Y-7013152D02*
X31320588Y-7108390D01*
X31320588Y-7108390D02*
X31272969Y-7156009D01*
X31272969Y-7156009D02*
X31177731Y-7203628D01*
X31177731Y-7203628D02*
X30796779Y-7203628D01*
X32320588Y-7679819D02*
X31749160Y-7679819D01*
X32034874Y-7679819D02*
X32034874Y-6679819D01*
X32034874Y-6679819D02*
X31939636Y-6822676D01*
X31939636Y-6822676D02*
X31844398Y-6917914D01*
X31844398Y-6917914D02*
X31749160Y-6965533D01*
X32701541Y-6775057D02*
X32749160Y-6727438D01*
X32749160Y-6727438D02*
X32844398Y-6679819D01*
X32844398Y-6679819D02*
X33082493Y-6679819D01*
X33082493Y-6679819D02*
X33177731Y-6727438D01*
X33177731Y-6727438D02*
X33225350Y-6775057D01*
X33225350Y-6775057D02*
X33272969Y-6870295D01*
X33272969Y-6870295D02*
X33272969Y-6965533D01*
X33272969Y-6965533D02*
X33225350Y-7108390D01*
X33225350Y-7108390D02*
X32653922Y-7679819D01*
X32653922Y-7679819D02*
X33272969Y-7679819D01*
X33653922Y-6775057D02*
X33701541Y-6727438D01*
X33701541Y-6727438D02*
X33796779Y-6679819D01*
X33796779Y-6679819D02*
X34034874Y-6679819D01*
X34034874Y-6679819D02*
X34130112Y-6727438D01*
X34130112Y-6727438D02*
X34177731Y-6775057D01*
X34177731Y-6775057D02*
X34225350Y-6870295D01*
X34225350Y-6870295D02*
X34225350Y-6965533D01*
X34225350Y-6965533D02*
X34177731Y-7108390D01*
X34177731Y-7108390D02*
X33606303Y-7679819D01*
X33606303Y-7679819D02*
X34225350Y-7679819D01*
X34844398Y-6679819D02*
X34939636Y-6679819D01*
X34939636Y-6679819D02*
X35034874Y-6727438D01*
X35034874Y-6727438D02*
X35082493Y-6775057D01*
X35082493Y-6775057D02*
X35130112Y-6870295D01*
X35130112Y-6870295D02*
X35177731Y-7060771D01*
X35177731Y-7060771D02*
X35177731Y-7298866D01*
X35177731Y-7298866D02*
X35130112Y-7489342D01*
X35130112Y-7489342D02*
X35082493Y-7584580D01*
X35082493Y-7584580D02*
X35034874Y-7632200D01*
X35034874Y-7632200D02*
X34939636Y-7679819D01*
X34939636Y-7679819D02*
X34844398Y-7679819D01*
X34844398Y-7679819D02*
X34749160Y-7632200D01*
X34749160Y-7632200D02*
X34701541Y-7584580D01*
X34701541Y-7584580D02*
X34653922Y-7489342D01*
X34653922Y-7489342D02*
X34606303Y-7298866D01*
X34606303Y-7298866D02*
X34606303Y-7060771D01*
X34606303Y-7060771D02*
X34653922Y-6870295D01*
X34653922Y-6870295D02*
X34701541Y-6775057D01*
X34701541Y-6775057D02*
X34749160Y-6727438D01*
X34749160Y-6727438D02*
X34844398Y-6679819D01*
X30427142Y-59189580D02*
X30379523Y-59237200D01*
X30379523Y-59237200D02*
X30236666Y-59284819D01*
X30236666Y-59284819D02*
X30141428Y-59284819D01*
X30141428Y-59284819D02*
X29998571Y-59237200D01*
X29998571Y-59237200D02*
X29903333Y-59141961D01*
X29903333Y-59141961D02*
X29855714Y-59046723D01*
X29855714Y-59046723D02*
X29808095Y-58856247D01*
X29808095Y-58856247D02*
X29808095Y-58713390D01*
X29808095Y-58713390D02*
X29855714Y-58522914D01*
X29855714Y-58522914D02*
X29903333Y-58427676D01*
X29903333Y-58427676D02*
X29998571Y-58332438D01*
X29998571Y-58332438D02*
X30141428Y-58284819D01*
X30141428Y-58284819D02*
X30236666Y-58284819D01*
X30236666Y-58284819D02*
X30379523Y-58332438D01*
X30379523Y-58332438D02*
X30427142Y-58380057D01*
X30808095Y-58380057D02*
X30855714Y-58332438D01*
X30855714Y-58332438D02*
X30950952Y-58284819D01*
X30950952Y-58284819D02*
X31189047Y-58284819D01*
X31189047Y-58284819D02*
X31284285Y-58332438D01*
X31284285Y-58332438D02*
X31331904Y-58380057D01*
X31331904Y-58380057D02*
X31379523Y-58475295D01*
X31379523Y-58475295D02*
X31379523Y-58570533D01*
X31379523Y-58570533D02*
X31331904Y-58713390D01*
X31331904Y-58713390D02*
X30760476Y-59284819D01*
X30760476Y-59284819D02*
X31379523Y-59284819D01*
X32236666Y-58284819D02*
X32046190Y-58284819D01*
X32046190Y-58284819D02*
X31950952Y-58332438D01*
X31950952Y-58332438D02*
X31903333Y-58380057D01*
X31903333Y-58380057D02*
X31808095Y-58522914D01*
X31808095Y-58522914D02*
X31760476Y-58713390D01*
X31760476Y-58713390D02*
X31760476Y-59094342D01*
X31760476Y-59094342D02*
X31808095Y-59189580D01*
X31808095Y-59189580D02*
X31855714Y-59237200D01*
X31855714Y-59237200D02*
X31950952Y-59284819D01*
X31950952Y-59284819D02*
X32141428Y-59284819D01*
X32141428Y-59284819D02*
X32236666Y-59237200D01*
X32236666Y-59237200D02*
X32284285Y-59189580D01*
X32284285Y-59189580D02*
X32331904Y-59094342D01*
X32331904Y-59094342D02*
X32331904Y-58856247D01*
X32331904Y-58856247D02*
X32284285Y-58761009D01*
X32284285Y-58761009D02*
X32236666Y-58713390D01*
X32236666Y-58713390D02*
X32141428Y-58665771D01*
X32141428Y-58665771D02*
X31950952Y-58665771D01*
X31950952Y-58665771D02*
X31855714Y-58713390D01*
X31855714Y-58713390D02*
X31808095Y-58761009D01*
X31808095Y-58761009D02*
X31760476Y-58856247D01*
D13*
X59674318Y-40813332D02*
X60581461Y-40813332D01*
X60581461Y-40813332D02*
X60762889Y-40873809D01*
X60762889Y-40873809D02*
X60883842Y-40994761D01*
X60883842Y-40994761D02*
X60944318Y-41176190D01*
X60944318Y-41176190D02*
X60944318Y-41297142D01*
X60944318Y-39543332D02*
X60944318Y-40269047D01*
X60944318Y-39906190D02*
X59674318Y-39906190D01*
X59674318Y-39906190D02*
X59855746Y-40027142D01*
X59855746Y-40027142D02*
X59976699Y-40148094D01*
X59976699Y-40148094D02*
X60037175Y-40269047D01*
D10*
X36823810Y-44834819D02*
X36823810Y-43834819D01*
X37871428Y-44739580D02*
X37823809Y-44787200D01*
X37823809Y-44787200D02*
X37680952Y-44834819D01*
X37680952Y-44834819D02*
X37585714Y-44834819D01*
X37585714Y-44834819D02*
X37442857Y-44787200D01*
X37442857Y-44787200D02*
X37347619Y-44691961D01*
X37347619Y-44691961D02*
X37300000Y-44596723D01*
X37300000Y-44596723D02*
X37252381Y-44406247D01*
X37252381Y-44406247D02*
X37252381Y-44263390D01*
X37252381Y-44263390D02*
X37300000Y-44072914D01*
X37300000Y-44072914D02*
X37347619Y-43977676D01*
X37347619Y-43977676D02*
X37442857Y-43882438D01*
X37442857Y-43882438D02*
X37585714Y-43834819D01*
X37585714Y-43834819D02*
X37680952Y-43834819D01*
X37680952Y-43834819D02*
X37823809Y-43882438D01*
X37823809Y-43882438D02*
X37871428Y-43930057D01*
X38728571Y-43834819D02*
X38538095Y-43834819D01*
X38538095Y-43834819D02*
X38442857Y-43882438D01*
X38442857Y-43882438D02*
X38395238Y-43930057D01*
X38395238Y-43930057D02*
X38300000Y-44072914D01*
X38300000Y-44072914D02*
X38252381Y-44263390D01*
X38252381Y-44263390D02*
X38252381Y-44644342D01*
X38252381Y-44644342D02*
X38300000Y-44739580D01*
X38300000Y-44739580D02*
X38347619Y-44787200D01*
X38347619Y-44787200D02*
X38442857Y-44834819D01*
X38442857Y-44834819D02*
X38633333Y-44834819D01*
X38633333Y-44834819D02*
X38728571Y-44787200D01*
X38728571Y-44787200D02*
X38776190Y-44739580D01*
X38776190Y-44739580D02*
X38823809Y-44644342D01*
X38823809Y-44644342D02*
X38823809Y-44406247D01*
X38823809Y-44406247D02*
X38776190Y-44311009D01*
X38776190Y-44311009D02*
X38728571Y-44263390D01*
X38728571Y-44263390D02*
X38633333Y-44215771D01*
X38633333Y-44215771D02*
X38442857Y-44215771D01*
X38442857Y-44215771D02*
X38347619Y-44263390D01*
X38347619Y-44263390D02*
X38300000Y-44311009D01*
X38300000Y-44311009D02*
X38252381Y-44406247D01*
X30637142Y-57139580D02*
X30589523Y-57187200D01*
X30589523Y-57187200D02*
X30446666Y-57234819D01*
X30446666Y-57234819D02*
X30351428Y-57234819D01*
X30351428Y-57234819D02*
X30208571Y-57187200D01*
X30208571Y-57187200D02*
X30113333Y-57091961D01*
X30113333Y-57091961D02*
X30065714Y-56996723D01*
X30065714Y-56996723D02*
X30018095Y-56806247D01*
X30018095Y-56806247D02*
X30018095Y-56663390D01*
X30018095Y-56663390D02*
X30065714Y-56472914D01*
X30065714Y-56472914D02*
X30113333Y-56377676D01*
X30113333Y-56377676D02*
X30208571Y-56282438D01*
X30208571Y-56282438D02*
X30351428Y-56234819D01*
X30351428Y-56234819D02*
X30446666Y-56234819D01*
X30446666Y-56234819D02*
X30589523Y-56282438D01*
X30589523Y-56282438D02*
X30637142Y-56330057D01*
X31018095Y-56330057D02*
X31065714Y-56282438D01*
X31065714Y-56282438D02*
X31160952Y-56234819D01*
X31160952Y-56234819D02*
X31399047Y-56234819D01*
X31399047Y-56234819D02*
X31494285Y-56282438D01*
X31494285Y-56282438D02*
X31541904Y-56330057D01*
X31541904Y-56330057D02*
X31589523Y-56425295D01*
X31589523Y-56425295D02*
X31589523Y-56520533D01*
X31589523Y-56520533D02*
X31541904Y-56663390D01*
X31541904Y-56663390D02*
X30970476Y-57234819D01*
X30970476Y-57234819D02*
X31589523Y-57234819D01*
X32494285Y-56234819D02*
X32018095Y-56234819D01*
X32018095Y-56234819D02*
X31970476Y-56711009D01*
X31970476Y-56711009D02*
X32018095Y-56663390D01*
X32018095Y-56663390D02*
X32113333Y-56615771D01*
X32113333Y-56615771D02*
X32351428Y-56615771D01*
X32351428Y-56615771D02*
X32446666Y-56663390D01*
X32446666Y-56663390D02*
X32494285Y-56711009D01*
X32494285Y-56711009D02*
X32541904Y-56806247D01*
X32541904Y-56806247D02*
X32541904Y-57044342D01*
X32541904Y-57044342D02*
X32494285Y-57139580D01*
X32494285Y-57139580D02*
X32446666Y-57187200D01*
X32446666Y-57187200D02*
X32351428Y-57234819D01*
X32351428Y-57234819D02*
X32113333Y-57234819D01*
X32113333Y-57234819D02*
X32018095Y-57187200D01*
X32018095Y-57187200D02*
X31970476Y-57139580D01*
X5949636Y-34699819D02*
X5949636Y-34937914D01*
X5711541Y-34842676D02*
X5949636Y-34937914D01*
X5949636Y-34937914D02*
X6187731Y-34842676D01*
X5806779Y-35128390D02*
X5949636Y-34937914D01*
X5949636Y-34937914D02*
X6092493Y-35128390D01*
X13507142Y-27244819D02*
X13173809Y-26768628D01*
X12935714Y-27244819D02*
X12935714Y-26244819D01*
X12935714Y-26244819D02*
X13316666Y-26244819D01*
X13316666Y-26244819D02*
X13411904Y-26292438D01*
X13411904Y-26292438D02*
X13459523Y-26340057D01*
X13459523Y-26340057D02*
X13507142Y-26435295D01*
X13507142Y-26435295D02*
X13507142Y-26578152D01*
X13507142Y-26578152D02*
X13459523Y-26673390D01*
X13459523Y-26673390D02*
X13411904Y-26721009D01*
X13411904Y-26721009D02*
X13316666Y-26768628D01*
X13316666Y-26768628D02*
X12935714Y-26768628D01*
X14411904Y-26244819D02*
X13935714Y-26244819D01*
X13935714Y-26244819D02*
X13888095Y-26721009D01*
X13888095Y-26721009D02*
X13935714Y-26673390D01*
X13935714Y-26673390D02*
X14030952Y-26625771D01*
X14030952Y-26625771D02*
X14269047Y-26625771D01*
X14269047Y-26625771D02*
X14364285Y-26673390D01*
X14364285Y-26673390D02*
X14411904Y-26721009D01*
X14411904Y-26721009D02*
X14459523Y-26816247D01*
X14459523Y-26816247D02*
X14459523Y-27054342D01*
X14459523Y-27054342D02*
X14411904Y-27149580D01*
X14411904Y-27149580D02*
X14364285Y-27197200D01*
X14364285Y-27197200D02*
X14269047Y-27244819D01*
X14269047Y-27244819D02*
X14030952Y-27244819D01*
X14030952Y-27244819D02*
X13935714Y-27197200D01*
X13935714Y-27197200D02*
X13888095Y-27149580D01*
X15030952Y-26673390D02*
X14935714Y-26625771D01*
X14935714Y-26625771D02*
X14888095Y-26578152D01*
X14888095Y-26578152D02*
X14840476Y-26482914D01*
X14840476Y-26482914D02*
X14840476Y-26435295D01*
X14840476Y-26435295D02*
X14888095Y-26340057D01*
X14888095Y-26340057D02*
X14935714Y-26292438D01*
X14935714Y-26292438D02*
X15030952Y-26244819D01*
X15030952Y-26244819D02*
X15221428Y-26244819D01*
X15221428Y-26244819D02*
X15316666Y-26292438D01*
X15316666Y-26292438D02*
X15364285Y-26340057D01*
X15364285Y-26340057D02*
X15411904Y-26435295D01*
X15411904Y-26435295D02*
X15411904Y-26482914D01*
X15411904Y-26482914D02*
X15364285Y-26578152D01*
X15364285Y-26578152D02*
X15316666Y-26625771D01*
X15316666Y-26625771D02*
X15221428Y-26673390D01*
X15221428Y-26673390D02*
X15030952Y-26673390D01*
X15030952Y-26673390D02*
X14935714Y-26721009D01*
X14935714Y-26721009D02*
X14888095Y-26768628D01*
X14888095Y-26768628D02*
X14840476Y-26863866D01*
X14840476Y-26863866D02*
X14840476Y-27054342D01*
X14840476Y-27054342D02*
X14888095Y-27149580D01*
X14888095Y-27149580D02*
X14935714Y-27197200D01*
X14935714Y-27197200D02*
X15030952Y-27244819D01*
X15030952Y-27244819D02*
X15221428Y-27244819D01*
X15221428Y-27244819D02*
X15316666Y-27197200D01*
X15316666Y-27197200D02*
X15364285Y-27149580D01*
X15364285Y-27149580D02*
X15411904Y-27054342D01*
X15411904Y-27054342D02*
X15411904Y-26863866D01*
X15411904Y-26863866D02*
X15364285Y-26768628D01*
X15364285Y-26768628D02*
X15316666Y-26721009D01*
X15316666Y-26721009D02*
X15221428Y-26673390D01*
X33485714Y-32424819D02*
X33485714Y-31424819D01*
X33485714Y-31424819D02*
X33866666Y-31424819D01*
X33866666Y-31424819D02*
X33961904Y-31472438D01*
X33961904Y-31472438D02*
X34009523Y-31520057D01*
X34009523Y-31520057D02*
X34057142Y-31615295D01*
X34057142Y-31615295D02*
X34057142Y-31758152D01*
X34057142Y-31758152D02*
X34009523Y-31853390D01*
X34009523Y-31853390D02*
X33961904Y-31901009D01*
X33961904Y-31901009D02*
X33866666Y-31948628D01*
X33866666Y-31948628D02*
X33485714Y-31948628D01*
X34438095Y-32377200D02*
X34580952Y-32424819D01*
X34580952Y-32424819D02*
X34819047Y-32424819D01*
X34819047Y-32424819D02*
X34914285Y-32377200D01*
X34914285Y-32377200D02*
X34961904Y-32329580D01*
X34961904Y-32329580D02*
X35009523Y-32234342D01*
X35009523Y-32234342D02*
X35009523Y-32139104D01*
X35009523Y-32139104D02*
X34961904Y-32043866D01*
X34961904Y-32043866D02*
X34914285Y-31996247D01*
X34914285Y-31996247D02*
X34819047Y-31948628D01*
X34819047Y-31948628D02*
X34628571Y-31901009D01*
X34628571Y-31901009D02*
X34533333Y-31853390D01*
X34533333Y-31853390D02*
X34485714Y-31805771D01*
X34485714Y-31805771D02*
X34438095Y-31710533D01*
X34438095Y-31710533D02*
X34438095Y-31615295D01*
X34438095Y-31615295D02*
X34485714Y-31520057D01*
X34485714Y-31520057D02*
X34533333Y-31472438D01*
X34533333Y-31472438D02*
X34628571Y-31424819D01*
X34628571Y-31424819D02*
X34866666Y-31424819D01*
X34866666Y-31424819D02*
X35009523Y-31472438D01*
X35961904Y-32424819D02*
X35390476Y-32424819D01*
X35676190Y-32424819D02*
X35676190Y-31424819D01*
X35676190Y-31424819D02*
X35580952Y-31567676D01*
X35580952Y-31567676D02*
X35485714Y-31662914D01*
X35485714Y-31662914D02*
X35390476Y-31710533D01*
X45693333Y-32739580D02*
X45645714Y-32787200D01*
X45645714Y-32787200D02*
X45502857Y-32834819D01*
X45502857Y-32834819D02*
X45407619Y-32834819D01*
X45407619Y-32834819D02*
X45264762Y-32787200D01*
X45264762Y-32787200D02*
X45169524Y-32691961D01*
X45169524Y-32691961D02*
X45121905Y-32596723D01*
X45121905Y-32596723D02*
X45074286Y-32406247D01*
X45074286Y-32406247D02*
X45074286Y-32263390D01*
X45074286Y-32263390D02*
X45121905Y-32072914D01*
X45121905Y-32072914D02*
X45169524Y-31977676D01*
X45169524Y-31977676D02*
X45264762Y-31882438D01*
X45264762Y-31882438D02*
X45407619Y-31834819D01*
X45407619Y-31834819D02*
X45502857Y-31834819D01*
X45502857Y-31834819D02*
X45645714Y-31882438D01*
X45645714Y-31882438D02*
X45693333Y-31930057D01*
X46169524Y-32834819D02*
X46360000Y-32834819D01*
X46360000Y-32834819D02*
X46455238Y-32787200D01*
X46455238Y-32787200D02*
X46502857Y-32739580D01*
X46502857Y-32739580D02*
X46598095Y-32596723D01*
X46598095Y-32596723D02*
X46645714Y-32406247D01*
X46645714Y-32406247D02*
X46645714Y-32025295D01*
X46645714Y-32025295D02*
X46598095Y-31930057D01*
X46598095Y-31930057D02*
X46550476Y-31882438D01*
X46550476Y-31882438D02*
X46455238Y-31834819D01*
X46455238Y-31834819D02*
X46264762Y-31834819D01*
X46264762Y-31834819D02*
X46169524Y-31882438D01*
X46169524Y-31882438D02*
X46121905Y-31930057D01*
X46121905Y-31930057D02*
X46074286Y-32025295D01*
X46074286Y-32025295D02*
X46074286Y-32263390D01*
X46074286Y-32263390D02*
X46121905Y-32358628D01*
X46121905Y-32358628D02*
X46169524Y-32406247D01*
X46169524Y-32406247D02*
X46264762Y-32453866D01*
X46264762Y-32453866D02*
X46455238Y-32453866D01*
X46455238Y-32453866D02*
X46550476Y-32406247D01*
X46550476Y-32406247D02*
X46598095Y-32358628D01*
X46598095Y-32358628D02*
X46645714Y-32263390D01*
X45693333Y-52864819D02*
X45360000Y-52388628D01*
X45121905Y-52864819D02*
X45121905Y-51864819D01*
X45121905Y-51864819D02*
X45502857Y-51864819D01*
X45502857Y-51864819D02*
X45598095Y-51912438D01*
X45598095Y-51912438D02*
X45645714Y-51960057D01*
X45645714Y-51960057D02*
X45693333Y-52055295D01*
X45693333Y-52055295D02*
X45693333Y-52198152D01*
X45693333Y-52198152D02*
X45645714Y-52293390D01*
X45645714Y-52293390D02*
X45598095Y-52341009D01*
X45598095Y-52341009D02*
X45502857Y-52388628D01*
X45502857Y-52388628D02*
X45121905Y-52388628D01*
X46169524Y-52864819D02*
X46360000Y-52864819D01*
X46360000Y-52864819D02*
X46455238Y-52817200D01*
X46455238Y-52817200D02*
X46502857Y-52769580D01*
X46502857Y-52769580D02*
X46598095Y-52626723D01*
X46598095Y-52626723D02*
X46645714Y-52436247D01*
X46645714Y-52436247D02*
X46645714Y-52055295D01*
X46645714Y-52055295D02*
X46598095Y-51960057D01*
X46598095Y-51960057D02*
X46550476Y-51912438D01*
X46550476Y-51912438D02*
X46455238Y-51864819D01*
X46455238Y-51864819D02*
X46264762Y-51864819D01*
X46264762Y-51864819D02*
X46169524Y-51912438D01*
X46169524Y-51912438D02*
X46121905Y-51960057D01*
X46121905Y-51960057D02*
X46074286Y-52055295D01*
X46074286Y-52055295D02*
X46074286Y-52293390D01*
X46074286Y-52293390D02*
X46121905Y-52388628D01*
X46121905Y-52388628D02*
X46169524Y-52436247D01*
X46169524Y-52436247D02*
X46264762Y-52483866D01*
X46264762Y-52483866D02*
X46455238Y-52483866D01*
X46455238Y-52483866D02*
X46550476Y-52436247D01*
X46550476Y-52436247D02*
X46598095Y-52388628D01*
X46598095Y-52388628D02*
X46645714Y-52293390D01*
D13*
X36213143Y-13294880D02*
X36394571Y-13355356D01*
X36394571Y-13355356D02*
X36455048Y-13415832D01*
X36455048Y-13415832D02*
X36515524Y-13536784D01*
X36515524Y-13536784D02*
X36515524Y-13718213D01*
X36515524Y-13718213D02*
X36455048Y-13839165D01*
X36455048Y-13839165D02*
X36394571Y-13899642D01*
X36394571Y-13899642D02*
X36273619Y-13960118D01*
X36273619Y-13960118D02*
X35789809Y-13960118D01*
X35789809Y-13960118D02*
X35789809Y-12690118D01*
X35789809Y-12690118D02*
X36213143Y-12690118D01*
X36213143Y-12690118D02*
X36334095Y-12750594D01*
X36334095Y-12750594D02*
X36394571Y-12811070D01*
X36394571Y-12811070D02*
X36455048Y-12932022D01*
X36455048Y-12932022D02*
X36455048Y-13052975D01*
X36455048Y-13052975D02*
X36394571Y-13173927D01*
X36394571Y-13173927D02*
X36334095Y-13234403D01*
X36334095Y-13234403D02*
X36213143Y-13294880D01*
X36213143Y-13294880D02*
X35789809Y-13294880D01*
X36878381Y-12690118D02*
X37604095Y-12690118D01*
X37241238Y-13960118D02*
X37241238Y-12690118D01*
X38692667Y-13960118D02*
X37966952Y-13960118D01*
X38329809Y-13960118D02*
X38329809Y-12690118D01*
X38329809Y-12690118D02*
X38208857Y-12871546D01*
X38208857Y-12871546D02*
X38087905Y-12992499D01*
X38087905Y-12992499D02*
X37966952Y-13052975D01*
D10*
X41697142Y-40329580D02*
X41649523Y-40377200D01*
X41649523Y-40377200D02*
X41506666Y-40424819D01*
X41506666Y-40424819D02*
X41411428Y-40424819D01*
X41411428Y-40424819D02*
X41268571Y-40377200D01*
X41268571Y-40377200D02*
X41173333Y-40281961D01*
X41173333Y-40281961D02*
X41125714Y-40186723D01*
X41125714Y-40186723D02*
X41078095Y-39996247D01*
X41078095Y-39996247D02*
X41078095Y-39853390D01*
X41078095Y-39853390D02*
X41125714Y-39662914D01*
X41125714Y-39662914D02*
X41173333Y-39567676D01*
X41173333Y-39567676D02*
X41268571Y-39472438D01*
X41268571Y-39472438D02*
X41411428Y-39424819D01*
X41411428Y-39424819D02*
X41506666Y-39424819D01*
X41506666Y-39424819D02*
X41649523Y-39472438D01*
X41649523Y-39472438D02*
X41697142Y-39520057D01*
X42649523Y-40424819D02*
X42078095Y-40424819D01*
X42363809Y-40424819D02*
X42363809Y-39424819D01*
X42363809Y-39424819D02*
X42268571Y-39567676D01*
X42268571Y-39567676D02*
X42173333Y-39662914D01*
X42173333Y-39662914D02*
X42078095Y-39710533D01*
X42982857Y-39424819D02*
X43649523Y-39424819D01*
X43649523Y-39424819D02*
X43220952Y-40424819D01*
X32997142Y-40119580D02*
X32949523Y-40167200D01*
X32949523Y-40167200D02*
X32806666Y-40214819D01*
X32806666Y-40214819D02*
X32711428Y-40214819D01*
X32711428Y-40214819D02*
X32568571Y-40167200D01*
X32568571Y-40167200D02*
X32473333Y-40071961D01*
X32473333Y-40071961D02*
X32425714Y-39976723D01*
X32425714Y-39976723D02*
X32378095Y-39786247D01*
X32378095Y-39786247D02*
X32378095Y-39643390D01*
X32378095Y-39643390D02*
X32425714Y-39452914D01*
X32425714Y-39452914D02*
X32473333Y-39357676D01*
X32473333Y-39357676D02*
X32568571Y-39262438D01*
X32568571Y-39262438D02*
X32711428Y-39214819D01*
X32711428Y-39214819D02*
X32806666Y-39214819D01*
X32806666Y-39214819D02*
X32949523Y-39262438D01*
X32949523Y-39262438D02*
X32997142Y-39310057D01*
X33949523Y-40214819D02*
X33378095Y-40214819D01*
X33663809Y-40214819D02*
X33663809Y-39214819D01*
X33663809Y-39214819D02*
X33568571Y-39357676D01*
X33568571Y-39357676D02*
X33473333Y-39452914D01*
X33473333Y-39452914D02*
X33378095Y-39500533D01*
X34330476Y-39310057D02*
X34378095Y-39262438D01*
X34378095Y-39262438D02*
X34473333Y-39214819D01*
X34473333Y-39214819D02*
X34711428Y-39214819D01*
X34711428Y-39214819D02*
X34806666Y-39262438D01*
X34806666Y-39262438D02*
X34854285Y-39310057D01*
X34854285Y-39310057D02*
X34901904Y-39405295D01*
X34901904Y-39405295D02*
X34901904Y-39500533D01*
X34901904Y-39500533D02*
X34854285Y-39643390D01*
X34854285Y-39643390D02*
X34282857Y-40214819D01*
X34282857Y-40214819D02*
X34901904Y-40214819D01*
X26337142Y-22234819D02*
X26003809Y-21758628D01*
X25765714Y-22234819D02*
X25765714Y-21234819D01*
X25765714Y-21234819D02*
X26146666Y-21234819D01*
X26146666Y-21234819D02*
X26241904Y-21282438D01*
X26241904Y-21282438D02*
X26289523Y-21330057D01*
X26289523Y-21330057D02*
X26337142Y-21425295D01*
X26337142Y-21425295D02*
X26337142Y-21568152D01*
X26337142Y-21568152D02*
X26289523Y-21663390D01*
X26289523Y-21663390D02*
X26241904Y-21711009D01*
X26241904Y-21711009D02*
X26146666Y-21758628D01*
X26146666Y-21758628D02*
X25765714Y-21758628D01*
X27241904Y-21234819D02*
X26765714Y-21234819D01*
X26765714Y-21234819D02*
X26718095Y-21711009D01*
X26718095Y-21711009D02*
X26765714Y-21663390D01*
X26765714Y-21663390D02*
X26860952Y-21615771D01*
X26860952Y-21615771D02*
X27099047Y-21615771D01*
X27099047Y-21615771D02*
X27194285Y-21663390D01*
X27194285Y-21663390D02*
X27241904Y-21711009D01*
X27241904Y-21711009D02*
X27289523Y-21806247D01*
X27289523Y-21806247D02*
X27289523Y-22044342D01*
X27289523Y-22044342D02*
X27241904Y-22139580D01*
X27241904Y-22139580D02*
X27194285Y-22187200D01*
X27194285Y-22187200D02*
X27099047Y-22234819D01*
X27099047Y-22234819D02*
X26860952Y-22234819D01*
X26860952Y-22234819D02*
X26765714Y-22187200D01*
X26765714Y-22187200D02*
X26718095Y-22139580D01*
X28194285Y-21234819D02*
X27718095Y-21234819D01*
X27718095Y-21234819D02*
X27670476Y-21711009D01*
X27670476Y-21711009D02*
X27718095Y-21663390D01*
X27718095Y-21663390D02*
X27813333Y-21615771D01*
X27813333Y-21615771D02*
X28051428Y-21615771D01*
X28051428Y-21615771D02*
X28146666Y-21663390D01*
X28146666Y-21663390D02*
X28194285Y-21711009D01*
X28194285Y-21711009D02*
X28241904Y-21806247D01*
X28241904Y-21806247D02*
X28241904Y-22044342D01*
X28241904Y-22044342D02*
X28194285Y-22139580D01*
X28194285Y-22139580D02*
X28146666Y-22187200D01*
X28146666Y-22187200D02*
X28051428Y-22234819D01*
X28051428Y-22234819D02*
X27813333Y-22234819D01*
X27813333Y-22234819D02*
X27718095Y-22187200D01*
X27718095Y-22187200D02*
X27670476Y-22139580D01*
X46557142Y-59334819D02*
X46223809Y-58858628D01*
X45985714Y-59334819D02*
X45985714Y-58334819D01*
X45985714Y-58334819D02*
X46366666Y-58334819D01*
X46366666Y-58334819D02*
X46461904Y-58382438D01*
X46461904Y-58382438D02*
X46509523Y-58430057D01*
X46509523Y-58430057D02*
X46557142Y-58525295D01*
X46557142Y-58525295D02*
X46557142Y-58668152D01*
X46557142Y-58668152D02*
X46509523Y-58763390D01*
X46509523Y-58763390D02*
X46461904Y-58811009D01*
X46461904Y-58811009D02*
X46366666Y-58858628D01*
X46366666Y-58858628D02*
X45985714Y-58858628D01*
X47509523Y-59334819D02*
X46938095Y-59334819D01*
X47223809Y-59334819D02*
X47223809Y-58334819D01*
X47223809Y-58334819D02*
X47128571Y-58477676D01*
X47128571Y-58477676D02*
X47033333Y-58572914D01*
X47033333Y-58572914D02*
X46938095Y-58620533D01*
X48128571Y-58334819D02*
X48223809Y-58334819D01*
X48223809Y-58334819D02*
X48319047Y-58382438D01*
X48319047Y-58382438D02*
X48366666Y-58430057D01*
X48366666Y-58430057D02*
X48414285Y-58525295D01*
X48414285Y-58525295D02*
X48461904Y-58715771D01*
X48461904Y-58715771D02*
X48461904Y-58953866D01*
X48461904Y-58953866D02*
X48414285Y-59144342D01*
X48414285Y-59144342D02*
X48366666Y-59239580D01*
X48366666Y-59239580D02*
X48319047Y-59287200D01*
X48319047Y-59287200D02*
X48223809Y-59334819D01*
X48223809Y-59334819D02*
X48128571Y-59334819D01*
X48128571Y-59334819D02*
X48033333Y-59287200D01*
X48033333Y-59287200D02*
X47985714Y-59239580D01*
X47985714Y-59239580D02*
X47938095Y-59144342D01*
X47938095Y-59144342D02*
X47890476Y-58953866D01*
X47890476Y-58953866D02*
X47890476Y-58715771D01*
X47890476Y-58715771D02*
X47938095Y-58525295D01*
X47938095Y-58525295D02*
X47985714Y-58430057D01*
X47985714Y-58430057D02*
X48033333Y-58382438D01*
X48033333Y-58382438D02*
X48128571Y-58334819D01*
D13*
X37802381Y-57144318D02*
X38528095Y-57144318D01*
X38165238Y-58414318D02*
X38165238Y-57144318D01*
X39616667Y-58414318D02*
X38890952Y-58414318D01*
X39253809Y-58414318D02*
X39253809Y-57144318D01*
X39253809Y-57144318D02*
X39132857Y-57325746D01*
X39132857Y-57325746D02*
X39011905Y-57446699D01*
X39011905Y-57446699D02*
X38890952Y-57507175D01*
D10*
X13417142Y-24924819D02*
X13083809Y-24448628D01*
X12845714Y-24924819D02*
X12845714Y-23924819D01*
X12845714Y-23924819D02*
X13226666Y-23924819D01*
X13226666Y-23924819D02*
X13321904Y-23972438D01*
X13321904Y-23972438D02*
X13369523Y-24020057D01*
X13369523Y-24020057D02*
X13417142Y-24115295D01*
X13417142Y-24115295D02*
X13417142Y-24258152D01*
X13417142Y-24258152D02*
X13369523Y-24353390D01*
X13369523Y-24353390D02*
X13321904Y-24401009D01*
X13321904Y-24401009D02*
X13226666Y-24448628D01*
X13226666Y-24448628D02*
X12845714Y-24448628D01*
X14321904Y-23924819D02*
X13845714Y-23924819D01*
X13845714Y-23924819D02*
X13798095Y-24401009D01*
X13798095Y-24401009D02*
X13845714Y-24353390D01*
X13845714Y-24353390D02*
X13940952Y-24305771D01*
X13940952Y-24305771D02*
X14179047Y-24305771D01*
X14179047Y-24305771D02*
X14274285Y-24353390D01*
X14274285Y-24353390D02*
X14321904Y-24401009D01*
X14321904Y-24401009D02*
X14369523Y-24496247D01*
X14369523Y-24496247D02*
X14369523Y-24734342D01*
X14369523Y-24734342D02*
X14321904Y-24829580D01*
X14321904Y-24829580D02*
X14274285Y-24877200D01*
X14274285Y-24877200D02*
X14179047Y-24924819D01*
X14179047Y-24924819D02*
X13940952Y-24924819D01*
X13940952Y-24924819D02*
X13845714Y-24877200D01*
X13845714Y-24877200D02*
X13798095Y-24829580D01*
X15226666Y-23924819D02*
X15036190Y-23924819D01*
X15036190Y-23924819D02*
X14940952Y-23972438D01*
X14940952Y-23972438D02*
X14893333Y-24020057D01*
X14893333Y-24020057D02*
X14798095Y-24162914D01*
X14798095Y-24162914D02*
X14750476Y-24353390D01*
X14750476Y-24353390D02*
X14750476Y-24734342D01*
X14750476Y-24734342D02*
X14798095Y-24829580D01*
X14798095Y-24829580D02*
X14845714Y-24877200D01*
X14845714Y-24877200D02*
X14940952Y-24924819D01*
X14940952Y-24924819D02*
X15131428Y-24924819D01*
X15131428Y-24924819D02*
X15226666Y-24877200D01*
X15226666Y-24877200D02*
X15274285Y-24829580D01*
X15274285Y-24829580D02*
X15321904Y-24734342D01*
X15321904Y-24734342D02*
X15321904Y-24496247D01*
X15321904Y-24496247D02*
X15274285Y-24401009D01*
X15274285Y-24401009D02*
X15226666Y-24353390D01*
X15226666Y-24353390D02*
X15131428Y-24305771D01*
X15131428Y-24305771D02*
X14940952Y-24305771D01*
X14940952Y-24305771D02*
X14845714Y-24353390D01*
X14845714Y-24353390D02*
X14798095Y-24401009D01*
X14798095Y-24401009D02*
X14750476Y-24496247D01*
X30537142Y-63709580D02*
X30489523Y-63757200D01*
X30489523Y-63757200D02*
X30346666Y-63804819D01*
X30346666Y-63804819D02*
X30251428Y-63804819D01*
X30251428Y-63804819D02*
X30108571Y-63757200D01*
X30108571Y-63757200D02*
X30013333Y-63661961D01*
X30013333Y-63661961D02*
X29965714Y-63566723D01*
X29965714Y-63566723D02*
X29918095Y-63376247D01*
X29918095Y-63376247D02*
X29918095Y-63233390D01*
X29918095Y-63233390D02*
X29965714Y-63042914D01*
X29965714Y-63042914D02*
X30013333Y-62947676D01*
X30013333Y-62947676D02*
X30108571Y-62852438D01*
X30108571Y-62852438D02*
X30251428Y-62804819D01*
X30251428Y-62804819D02*
X30346666Y-62804819D01*
X30346666Y-62804819D02*
X30489523Y-62852438D01*
X30489523Y-62852438D02*
X30537142Y-62900057D01*
X30918095Y-62900057D02*
X30965714Y-62852438D01*
X30965714Y-62852438D02*
X31060952Y-62804819D01*
X31060952Y-62804819D02*
X31299047Y-62804819D01*
X31299047Y-62804819D02*
X31394285Y-62852438D01*
X31394285Y-62852438D02*
X31441904Y-62900057D01*
X31441904Y-62900057D02*
X31489523Y-62995295D01*
X31489523Y-62995295D02*
X31489523Y-63090533D01*
X31489523Y-63090533D02*
X31441904Y-63233390D01*
X31441904Y-63233390D02*
X30870476Y-63804819D01*
X30870476Y-63804819D02*
X31489523Y-63804819D01*
X31822857Y-62804819D02*
X32489523Y-62804819D01*
X32489523Y-62804819D02*
X32060952Y-63804819D01*
X30547142Y-52789580D02*
X30499523Y-52837200D01*
X30499523Y-52837200D02*
X30356666Y-52884819D01*
X30356666Y-52884819D02*
X30261428Y-52884819D01*
X30261428Y-52884819D02*
X30118571Y-52837200D01*
X30118571Y-52837200D02*
X30023333Y-52741961D01*
X30023333Y-52741961D02*
X29975714Y-52646723D01*
X29975714Y-52646723D02*
X29928095Y-52456247D01*
X29928095Y-52456247D02*
X29928095Y-52313390D01*
X29928095Y-52313390D02*
X29975714Y-52122914D01*
X29975714Y-52122914D02*
X30023333Y-52027676D01*
X30023333Y-52027676D02*
X30118571Y-51932438D01*
X30118571Y-51932438D02*
X30261428Y-51884819D01*
X30261428Y-51884819D02*
X30356666Y-51884819D01*
X30356666Y-51884819D02*
X30499523Y-51932438D01*
X30499523Y-51932438D02*
X30547142Y-51980057D01*
X30928095Y-51980057D02*
X30975714Y-51932438D01*
X30975714Y-51932438D02*
X31070952Y-51884819D01*
X31070952Y-51884819D02*
X31309047Y-51884819D01*
X31309047Y-51884819D02*
X31404285Y-51932438D01*
X31404285Y-51932438D02*
X31451904Y-51980057D01*
X31451904Y-51980057D02*
X31499523Y-52075295D01*
X31499523Y-52075295D02*
X31499523Y-52170533D01*
X31499523Y-52170533D02*
X31451904Y-52313390D01*
X31451904Y-52313390D02*
X30880476Y-52884819D01*
X30880476Y-52884819D02*
X31499523Y-52884819D01*
X32356666Y-52218152D02*
X32356666Y-52884819D01*
X32118571Y-51837200D02*
X31880476Y-52551485D01*
X31880476Y-52551485D02*
X32499523Y-52551485D01*
X43271314Y-38328819D02*
X43271314Y-37328819D01*
X43271314Y-37328819D02*
X43509409Y-37328819D01*
X43509409Y-37328819D02*
X43652266Y-37376438D01*
X43652266Y-37376438D02*
X43747504Y-37471676D01*
X43747504Y-37471676D02*
X43795123Y-37566914D01*
X43795123Y-37566914D02*
X43842742Y-37757390D01*
X43842742Y-37757390D02*
X43842742Y-37900247D01*
X43842742Y-37900247D02*
X43795123Y-38090723D01*
X43795123Y-38090723D02*
X43747504Y-38185961D01*
X43747504Y-38185961D02*
X43652266Y-38281200D01*
X43652266Y-38281200D02*
X43509409Y-38328819D01*
X43509409Y-38328819D02*
X43271314Y-38328819D01*
X44795123Y-38328819D02*
X44223695Y-38328819D01*
X44509409Y-38328819D02*
X44509409Y-37328819D01*
X44509409Y-37328819D02*
X44414171Y-37471676D01*
X44414171Y-37471676D02*
X44318933Y-37566914D01*
X44318933Y-37566914D02*
X44223695Y-37614533D01*
X45747504Y-38328819D02*
X45176076Y-38328819D01*
X45461790Y-38328819D02*
X45461790Y-37328819D01*
X45461790Y-37328819D02*
X45366552Y-37471676D01*
X45366552Y-37471676D02*
X45271314Y-37566914D01*
X45271314Y-37566914D02*
X45176076Y-37614533D01*
X44181733Y-31087219D02*
X43705543Y-31087219D01*
X43705543Y-31087219D02*
X43705543Y-30087219D01*
X45038876Y-31087219D02*
X44467448Y-31087219D01*
X44753162Y-31087219D02*
X44753162Y-30087219D01*
X44753162Y-30087219D02*
X44657924Y-30230076D01*
X44657924Y-30230076D02*
X44562686Y-30325314D01*
X44562686Y-30325314D02*
X44467448Y-30372933D01*
X41338500Y-30087219D02*
X41338500Y-30325314D01*
X41100405Y-30230076D02*
X41338500Y-30325314D01*
X41338500Y-30325314D02*
X41576595Y-30230076D01*
X41195643Y-30515790D02*
X41338500Y-30325314D01*
X41338500Y-30325314D02*
X41481357Y-30515790D01*
X41338500Y-30087219D02*
X41338500Y-30325314D01*
X41100405Y-30230076D02*
X41338500Y-30325314D01*
X41338500Y-30325314D02*
X41576595Y-30230076D01*
X41195643Y-30515790D02*
X41338500Y-30325314D01*
X41338500Y-30325314D02*
X41481357Y-30515790D01*
X21637142Y-28074819D02*
X21303809Y-27598628D01*
X21065714Y-28074819D02*
X21065714Y-27074819D01*
X21065714Y-27074819D02*
X21446666Y-27074819D01*
X21446666Y-27074819D02*
X21541904Y-27122438D01*
X21541904Y-27122438D02*
X21589523Y-27170057D01*
X21589523Y-27170057D02*
X21637142Y-27265295D01*
X21637142Y-27265295D02*
X21637142Y-27408152D01*
X21637142Y-27408152D02*
X21589523Y-27503390D01*
X21589523Y-27503390D02*
X21541904Y-27551009D01*
X21541904Y-27551009D02*
X21446666Y-27598628D01*
X21446666Y-27598628D02*
X21065714Y-27598628D01*
X22541904Y-27074819D02*
X22065714Y-27074819D01*
X22065714Y-27074819D02*
X22018095Y-27551009D01*
X22018095Y-27551009D02*
X22065714Y-27503390D01*
X22065714Y-27503390D02*
X22160952Y-27455771D01*
X22160952Y-27455771D02*
X22399047Y-27455771D01*
X22399047Y-27455771D02*
X22494285Y-27503390D01*
X22494285Y-27503390D02*
X22541904Y-27551009D01*
X22541904Y-27551009D02*
X22589523Y-27646247D01*
X22589523Y-27646247D02*
X22589523Y-27884342D01*
X22589523Y-27884342D02*
X22541904Y-27979580D01*
X22541904Y-27979580D02*
X22494285Y-28027200D01*
X22494285Y-28027200D02*
X22399047Y-28074819D01*
X22399047Y-28074819D02*
X22160952Y-28074819D01*
X22160952Y-28074819D02*
X22065714Y-28027200D01*
X22065714Y-28027200D02*
X22018095Y-27979580D01*
X22922857Y-27074819D02*
X23589523Y-27074819D01*
X23589523Y-27074819D02*
X23160952Y-28074819D01*
D14*
X31407836Y-60050000D02*
X31192164Y-60050000D01*
X31407836Y-60770000D02*
X31192164Y-60770000D01*
D15*
X48640000Y-55875000D02*
X48640000Y-55875000D01*
X48640000Y-55875000D02*
X48640000Y-55875000D01*
X48740000Y-55869000D02*
X48740000Y-55869000D01*
D16*
X59350000Y-13850000D02*
X65240000Y-13850000D01*
X59350000Y-66900000D02*
X59350000Y-13850000D01*
X65240000Y-13850000D02*
X65240000Y-66900000D01*
X65240000Y-20900000D02*
X71350000Y-20900000D01*
X65240000Y-59850000D02*
X65240000Y-20900000D01*
X65240000Y-66900000D02*
X59350000Y-66900000D01*
X71350000Y-20900000D02*
X71350000Y-59850000D01*
X71350000Y-59850000D02*
X65240000Y-59850000D01*
D15*
X48640000Y-55875000D02*
G75*
G02*
X48740000Y-55869000I50000J3000D01*
G01*
X48740000Y-55869000D02*
G75*
G02*
X48640000Y-55875000I-50000J-3000D01*
G01*
X48740000Y-55869000D02*
G75*
G02*
X48640000Y-55875000I-50000J-3000D01*
G01*
D17*
X35295000Y-40730000D02*
X39695000Y-40730000D01*
X35295000Y-47630000D02*
X39695000Y-47630000D01*
D15*
X33405000Y-41255000D02*
G75*
G02*
X33205000Y-41255000I-100000J0D01*
G01*
X33205000Y-41255000D02*
G75*
G02*
X33405000Y-41255000I100000J0D01*
G01*
D14*
X31457836Y-54810000D02*
X31242164Y-54810000D01*
X31457836Y-55530000D02*
X31242164Y-55530000D01*
X11246359Y-26340000D02*
X11553641Y-26340000D01*
X11246359Y-27100000D02*
X11553641Y-27100000D01*
D17*
X28640000Y-25660000D02*
X40740000Y-25660000D01*
X28640000Y-27260000D02*
X28640000Y-25660000D01*
X28640000Y-29310000D02*
X28640000Y-33960000D01*
X28640000Y-36010000D02*
X28640000Y-37560000D01*
X28640000Y-37560000D02*
X40740000Y-37560000D01*
X40740000Y-25660000D02*
X40740000Y-26210000D01*
X40740000Y-33110000D02*
X40740000Y-34960000D01*
X40740000Y-37560000D02*
X40740000Y-37010000D01*
D15*
X42308000Y-27210000D02*
G75*
G02*
X42108000Y-27210000I-100000J0D01*
G01*
X42108000Y-27210000D02*
G75*
G02*
X42308000Y-27210000I100000J0D01*
G01*
D14*
X45719420Y-33300000D02*
X46000580Y-33300000D01*
X45719420Y-34320000D02*
X46000580Y-34320000D01*
X45876359Y-54280000D02*
X46183641Y-54280000D01*
X45876359Y-55040000D02*
X46183641Y-55040000D01*
D16*
X31711000Y-8385800D02*
X32711000Y-7585800D01*
X32211000Y-8935800D02*
X31711000Y-8385800D01*
X32711000Y-7585800D02*
X33211000Y-8135800D01*
X41211000Y-8135800D02*
X41711000Y-7585800D01*
X41711000Y-7585800D02*
X42711000Y-8385800D01*
X42711000Y-8385800D02*
X42211000Y-8935800D01*
D14*
X39457836Y-39620000D02*
X39242164Y-39620000D01*
X39457836Y-40340000D02*
X39242164Y-40340000D01*
X36082164Y-39530000D02*
X36297836Y-39530000D01*
X36082164Y-40250000D02*
X36297836Y-40250000D01*
X26626359Y-22580000D02*
X26933641Y-22580000D01*
X26626359Y-23340000D02*
X26933641Y-23340000D01*
X45876359Y-60580000D02*
X46183641Y-60580000D01*
X45876359Y-61340000D02*
X46183641Y-61340000D01*
D15*
X32870000Y-53340000D02*
X32870000Y-53340000D01*
X33070000Y-53340000D02*
X33070000Y-53340000D01*
X35215000Y-51365000D02*
X35215000Y-52440000D01*
X35215000Y-64315000D02*
X35215000Y-63240000D01*
X42325000Y-51365000D02*
X35215000Y-51365000D01*
X42325000Y-52440000D02*
X42325000Y-51365000D01*
X42325000Y-63240000D02*
X42325000Y-64315000D01*
X42325000Y-64315000D02*
X35215000Y-64315000D01*
X32870000Y-53340000D02*
G75*
G02*
X33070000Y-53340000I100000J0D01*
G01*
X33070000Y-53340000D02*
G75*
G02*
X32870000Y-53340000I-100000J0D01*
G01*
D14*
X11206359Y-24890000D02*
X11513641Y-24890000D01*
X11206359Y-25650000D02*
X11513641Y-25650000D01*
X31417836Y-61180000D02*
X31202164Y-61180000D01*
X31417836Y-61900000D02*
X31202164Y-61900000D01*
X31467836Y-53730000D02*
X31252164Y-53730000D01*
X31467836Y-54450000D02*
X31252164Y-54450000D01*
D17*
X7710000Y-9110000D02*
X25490000Y-9110000D01*
X7710000Y-70070000D02*
X7710000Y-9110000D01*
X7710000Y-70070000D02*
X12570000Y-70070000D01*
X12570000Y-70070000D02*
X12570000Y-70770000D01*
X20630000Y-70070000D02*
X20630000Y-70770000D01*
X20630000Y-70770000D02*
X12570000Y-70770000D01*
X25490000Y-9110000D02*
X25490000Y-70070000D01*
X25490000Y-70070000D02*
X20630000Y-70070000D01*
D15*
X26200000Y-63720000D02*
G75*
G02*
X26000000Y-63720000I-100000J0D01*
G01*
X26000000Y-63720000D02*
G75*
G02*
X26200000Y-63720000I100000J0D01*
G01*
D14*
X42520600Y-34679000D02*
X42520600Y-36949000D01*
X42520600Y-36949000D02*
X46405600Y-36949000D01*
X46405600Y-34679000D02*
X42520600Y-34679000D01*
D18*
X44256850Y-32562800D02*
X44439950Y-32562800D01*
X44439950Y-28702000D02*
X44256850Y-28702000D01*
D14*
X23860000Y-28096359D02*
X23860000Y-28403641D01*
X24620000Y-28096359D02*
X24620000Y-28403641D01*
%LPC*%
D19*
X31780000Y-60410000D03*
X30820000Y-60410000D03*
D20*
X50460000Y-55869000D03*
X50460000Y-53583000D03*
X50460000Y-51297000D03*
X50460000Y-49011000D03*
X50460000Y-46725000D03*
X50460000Y-44439000D03*
X50460000Y-42153000D03*
X50460000Y-39867000D03*
X50460000Y-37581000D03*
X50460000Y-35295000D03*
X50460000Y-33009000D03*
X50460000Y-30723000D03*
X50460000Y-28437000D03*
X50460000Y-26151000D03*
X50460000Y-23865000D03*
X53000000Y-57012000D03*
X53000000Y-54726000D03*
X53000000Y-52440000D03*
X53000000Y-50154000D03*
X53000000Y-47868000D03*
X53000000Y-45582000D03*
X53000000Y-43296000D03*
X53000000Y-41010000D03*
X53000000Y-38724000D03*
X53000000Y-36438000D03*
X53000000Y-34152000D03*
X53000000Y-31866000D03*
X53000000Y-29580000D03*
X53000000Y-27294000D03*
X53000000Y-25008000D03*
X55540000Y-55869000D03*
X55540000Y-53583000D03*
X55540000Y-51297000D03*
X55540000Y-49011000D03*
X55540000Y-46725000D03*
X55540000Y-44439000D03*
X55540000Y-42153000D03*
X55540000Y-39867000D03*
X55540000Y-37581000D03*
X55540000Y-35295000D03*
X55540000Y-33009000D03*
X55540000Y-30723000D03*
X55540000Y-28437000D03*
X55540000Y-26151000D03*
D21*
X53000000Y-63895000D03*
X53000000Y-16855000D03*
D22*
X34625000Y-41255000D03*
X34625000Y-41905000D03*
X34625000Y-42555000D03*
X34625000Y-43205000D03*
X34625000Y-43855000D03*
X34625000Y-44505000D03*
X34625000Y-45155000D03*
X34625000Y-45805000D03*
X34625000Y-46455000D03*
X34625000Y-47105000D03*
X40365000Y-47105000D03*
X40365000Y-46455000D03*
X40365000Y-45805000D03*
X40365000Y-45155000D03*
X40365000Y-44505000D03*
X40365000Y-43855000D03*
X40365000Y-43205000D03*
X40365000Y-42555000D03*
X40365000Y-41905000D03*
X40365000Y-41255000D03*
D19*
X31830000Y-55170000D03*
X30870000Y-55170000D03*
D23*
X3480000Y-35930000D03*
X3480000Y-37830000D03*
X3480000Y-39830000D03*
X3480000Y-41830000D03*
X3480000Y-43830000D03*
D24*
X10890000Y-26720000D03*
X11910000Y-26720000D03*
D25*
X40010000Y-27210000D03*
X40010000Y-29210000D03*
X40010000Y-32010000D03*
X40010000Y-36010000D03*
X29370000Y-28210000D03*
X29370000Y-35010000D03*
D26*
X45085000Y-33810000D03*
X46635000Y-33810000D03*
D24*
X45520000Y-54660000D03*
X46540000Y-54660000D03*
D27*
X37211000Y-13385800D03*
D28*
X29591000Y-13385800D03*
X44831000Y-13385800D03*
D19*
X39830000Y-39980000D03*
X38870000Y-39980000D03*
D29*
X35710000Y-39890000D03*
X36670000Y-39890000D03*
D24*
X26270000Y-22960000D03*
X27290000Y-22960000D03*
X45520000Y-60960000D03*
X46540000Y-60960000D03*
D30*
X34385000Y-53395000D03*
X34385000Y-54665000D03*
X34385000Y-55935000D03*
X34385000Y-57205000D03*
X34385000Y-58475000D03*
X34385000Y-59745000D03*
X34385000Y-61015000D03*
X34385000Y-62285000D03*
X43155000Y-62285000D03*
X43155000Y-61015000D03*
X43155000Y-59745000D03*
X43155000Y-58475000D03*
X43155000Y-57205000D03*
X43155000Y-55935000D03*
X43155000Y-54665000D03*
X43155000Y-53395000D03*
D24*
X10850000Y-25270000D03*
X11870000Y-25270000D03*
D19*
X31790000Y-61540000D03*
X30830000Y-61540000D03*
X31840000Y-54090000D03*
X30880000Y-54090000D03*
D31*
X8980000Y-63720000D03*
X19140000Y-23080000D03*
X24220000Y-48480000D03*
X24220000Y-45936000D03*
X24220000Y-40860000D03*
X24220000Y-38320000D03*
X24220000Y-35780000D03*
X8980000Y-35780000D03*
X8980000Y-48480000D03*
X8980000Y-51020000D03*
X24220000Y-30696000D03*
X24220000Y-25620000D03*
X24220000Y-23080000D03*
X24220000Y-15460000D03*
X24220000Y-12920000D03*
X24220000Y-10380000D03*
X8980000Y-23080000D03*
X8980000Y-25620000D03*
X8980000Y-28160000D03*
X8980000Y-30700000D03*
D32*
X18632000Y-68288000D03*
X15330000Y-68288000D03*
D31*
X24220000Y-68800000D03*
X8980000Y-33240000D03*
X8980000Y-66260000D03*
X16600000Y-23080000D03*
D33*
X13430000Y-53830000D03*
X13430000Y-55830000D03*
X11430000Y-55830000D03*
X11430000Y-53830000D03*
X15430000Y-53830000D03*
X15430000Y-55830000D03*
D31*
X21170000Y-54830000D03*
X21170000Y-52290000D03*
X21680000Y-23080000D03*
X8980000Y-68800000D03*
D34*
X43405600Y-35814000D03*
X46205600Y-35814000D03*
D35*
X43098400Y-30632400D03*
X45598400Y-30632400D03*
D36*
X24240000Y-27740000D03*
X24240000Y-28760000D03*
%LPD*%
M02*
