%TF.GenerationSoftware,KiCad,Pcbnew,7.0.8*%
%TF.CreationDate,2024-10-17T19:18:06-04:00*%
%TF.ProjectId,SPIBreakout,53504942-7265-4616-9b6f-75742e6b6963,rev?*%
%TF.SameCoordinates,Original*%
%TF.FileFunction,Copper,L2,Bot*%
%TF.FilePolarity,Positive*%
%FSLAX46Y46*%
G04 Gerber Fmt 4.6, Leading zero omitted, Abs format (unit mm)*
G04 Created by KiCad (PCBNEW 7.0.8) date 2024-10-17 19:18:06*
%MOMM*%
%LPD*%
G01*
G04 APERTURE LIST*
%TA.AperFunction,ComponentPad*%
%ADD10R,1.350000X1.350000*%
%TD*%
%TA.AperFunction,ComponentPad*%
%ADD11O,1.350000X1.350000*%
%TD*%
%TA.AperFunction,ViaPad*%
%ADD12C,0.800000*%
%TD*%
G04 APERTURE END LIST*
D10*
%TO.P,J2,1,Pin_1*%
%TO.N,VCC*%
X148250000Y-93200000D03*
D11*
%TO.P,J2,2,Pin_2*%
%TO.N,DI{slash}MOSI*%
X146250000Y-93200000D03*
%TO.P,J2,3,Pin_3*%
%TO.N,Clk*%
X144250000Y-93200000D03*
%TO.P,J2,4,Pin_4*%
%TO.N,CS*%
X142250000Y-93200000D03*
%TO.P,J2,5,Pin_5*%
%TO.N,D0{slash}MISO*%
X140250000Y-93200000D03*
%TO.P,J2,6,Pin_6*%
%TO.N,GND*%
X138250000Y-93200000D03*
%TD*%
D12*
%TO.N,GND*%
X153130000Y-93050000D03*
X151320000Y-95850000D03*
X135610000Y-85240000D03*
X134430000Y-84350000D03*
X136920000Y-81680000D03*
X134960000Y-79600000D03*
X139060000Y-78470000D03*
X148450000Y-78590000D03*
X151800000Y-79330000D03*
X152490000Y-82290000D03*
X152570000Y-86750000D03*
X152610000Y-90050000D03*
X139720000Y-90280000D03*
X135030000Y-92290000D03*
X133840000Y-90100000D03*
X133900000Y-87750000D03*
X135510000Y-87690000D03*
X138290000Y-95610000D03*
X135480000Y-89820000D03*
X139490000Y-88860000D03*
%TD*%
%TA.AperFunction,Conductor*%
%TO.N,GND*%
G36*
X153222695Y-76790735D02*
G01*
X153265519Y-76794482D01*
X153391771Y-76806918D01*
X153411685Y-76810541D01*
X153478349Y-76828403D01*
X153571570Y-76856682D01*
X153587971Y-76862958D01*
X153655411Y-76894406D01*
X153658375Y-76895888D01*
X153695969Y-76915982D01*
X153742327Y-76940762D01*
X153748667Y-76944657D01*
X153814828Y-76990983D01*
X153818600Y-76993844D01*
X153890808Y-77053103D01*
X153895309Y-77057182D01*
X153952815Y-77114688D01*
X153956895Y-77119190D01*
X154016154Y-77191398D01*
X154019015Y-77195170D01*
X154065341Y-77261331D01*
X154069236Y-77267671D01*
X154114101Y-77351605D01*
X154115614Y-77354631D01*
X154147040Y-77422027D01*
X154153319Y-77438435D01*
X154181601Y-77531669D01*
X154199454Y-77598299D01*
X154203082Y-77618238D01*
X154215523Y-77744554D01*
X154219264Y-77787302D01*
X154219500Y-77792710D01*
X154219500Y-95966823D01*
X154219264Y-95972214D01*
X154216597Y-96002678D01*
X154215471Y-96015548D01*
X154203108Y-96141175D01*
X154199476Y-96161134D01*
X154181357Y-96228730D01*
X154153351Y-96321013D01*
X154147069Y-96337426D01*
X154115336Y-96405451D01*
X154113823Y-96408477D01*
X154069266Y-96491801D01*
X154065370Y-96498142D01*
X154018696Y-96564772D01*
X154015832Y-96568546D01*
X153956919Y-96640298D01*
X153952829Y-96644809D01*
X153894938Y-96702671D01*
X153890425Y-96706759D01*
X153818655Y-96765626D01*
X153814881Y-96768488D01*
X153748220Y-96815133D01*
X153741878Y-96819027D01*
X153658545Y-96863535D01*
X153655517Y-96865047D01*
X153587454Y-96896756D01*
X153571039Y-96903030D01*
X153478740Y-96930989D01*
X153411133Y-96949075D01*
X153391187Y-96952696D01*
X153267406Y-96964832D01*
X153221927Y-96968791D01*
X153216519Y-96969024D01*
X134052230Y-96959973D01*
X134046825Y-96959734D01*
X134003465Y-96955921D01*
X133877992Y-96943524D01*
X133858044Y-96939887D01*
X133790461Y-96921750D01*
X133698281Y-96893748D01*
X133681878Y-96887465D01*
X133613858Y-96855717D01*
X133610835Y-96854205D01*
X133527610Y-96809684D01*
X133521273Y-96805788D01*
X133454645Y-96759106D01*
X133450875Y-96756244D01*
X133379202Y-96697390D01*
X133374725Y-96693330D01*
X133316838Y-96635415D01*
X133312763Y-96630916D01*
X133253945Y-96559213D01*
X133251093Y-96555453D01*
X133204447Y-96488806D01*
X133200559Y-96482476D01*
X133156070Y-96399210D01*
X133154561Y-96396190D01*
X133153579Y-96394083D01*
X133122839Y-96328135D01*
X133116580Y-96311769D01*
X133088622Y-96219565D01*
X133084773Y-96205197D01*
X133070508Y-96151935D01*
X133066886Y-96132022D01*
X133054732Y-96008561D01*
X133052145Y-95978973D01*
X133050736Y-95962844D01*
X133050500Y-95957442D01*
X133050500Y-92949999D01*
X137099494Y-92949999D01*
X137099495Y-92950000D01*
X137934314Y-92950000D01*
X137922359Y-92961955D01*
X137864835Y-93074852D01*
X137845014Y-93200000D01*
X137864835Y-93325148D01*
X137922359Y-93438045D01*
X137934314Y-93450000D01*
X137099495Y-93450000D01*
X137149651Y-93626280D01*
X137246715Y-93821208D01*
X137377945Y-93994985D01*
X137538868Y-94141685D01*
X137724012Y-94256322D01*
X137724023Y-94256327D01*
X137927060Y-94334984D01*
X138000000Y-94348619D01*
X138000000Y-93515686D01*
X138011955Y-93527641D01*
X138124852Y-93585165D01*
X138218519Y-93600000D01*
X138281481Y-93600000D01*
X138375148Y-93585165D01*
X138488045Y-93527641D01*
X138500000Y-93515686D01*
X138500000Y-94348619D01*
X138572939Y-94334984D01*
X138775976Y-94256327D01*
X138775987Y-94256322D01*
X138961130Y-94141685D01*
X138961131Y-94141685D01*
X139122055Y-93994984D01*
X139150730Y-93957012D01*
X139206838Y-93915374D01*
X139276550Y-93910681D01*
X139337733Y-93944422D01*
X139348640Y-93957009D01*
X139367512Y-93982000D01*
X139377573Y-93995322D01*
X139538568Y-94142088D01*
X139538575Y-94142092D01*
X139538576Y-94142093D01*
X139723786Y-94256770D01*
X139723792Y-94256773D01*
X139746664Y-94265633D01*
X139926931Y-94335470D01*
X140141074Y-94375500D01*
X140141076Y-94375500D01*
X140358924Y-94375500D01*
X140358926Y-94375500D01*
X140573069Y-94335470D01*
X140776210Y-94256772D01*
X140961432Y-94142088D01*
X141122427Y-93995322D01*
X141151047Y-93957422D01*
X141207153Y-93915787D01*
X141276865Y-93911094D01*
X141338048Y-93944836D01*
X141348946Y-93957414D01*
X141377573Y-93995322D01*
X141538568Y-94142088D01*
X141538575Y-94142092D01*
X141538576Y-94142093D01*
X141723786Y-94256770D01*
X141723792Y-94256773D01*
X141746664Y-94265633D01*
X141926931Y-94335470D01*
X142141074Y-94375500D01*
X142141076Y-94375500D01*
X142358924Y-94375500D01*
X142358926Y-94375500D01*
X142573069Y-94335470D01*
X142776210Y-94256772D01*
X142961432Y-94142088D01*
X143122427Y-93995322D01*
X143151047Y-93957422D01*
X143207153Y-93915787D01*
X143276865Y-93911094D01*
X143338048Y-93944836D01*
X143348946Y-93957414D01*
X143377573Y-93995322D01*
X143538568Y-94142088D01*
X143538575Y-94142092D01*
X143538576Y-94142093D01*
X143723786Y-94256770D01*
X143723792Y-94256773D01*
X143746664Y-94265633D01*
X143926931Y-94335470D01*
X144141074Y-94375500D01*
X144141076Y-94375500D01*
X144358924Y-94375500D01*
X144358926Y-94375500D01*
X144573069Y-94335470D01*
X144776210Y-94256772D01*
X144961432Y-94142088D01*
X145122427Y-93995322D01*
X145151047Y-93957422D01*
X145207153Y-93915787D01*
X145276865Y-93911094D01*
X145338048Y-93944836D01*
X145348946Y-93957414D01*
X145377573Y-93995322D01*
X145538568Y-94142088D01*
X145538575Y-94142092D01*
X145538576Y-94142093D01*
X145723786Y-94256770D01*
X145723792Y-94256773D01*
X145746664Y-94265633D01*
X145926931Y-94335470D01*
X146141074Y-94375500D01*
X146141076Y-94375500D01*
X146358924Y-94375500D01*
X146358926Y-94375500D01*
X146573069Y-94335470D01*
X146776210Y-94256772D01*
X146961432Y-94142088D01*
X146972407Y-94132082D01*
X147035207Y-94101463D01*
X147104594Y-94109657D01*
X147155214Y-94149405D01*
X147217452Y-94232544D01*
X147217455Y-94232547D01*
X147332664Y-94318793D01*
X147332671Y-94318797D01*
X147467517Y-94369091D01*
X147467516Y-94369091D01*
X147474444Y-94369835D01*
X147527127Y-94375500D01*
X148972872Y-94375499D01*
X149032483Y-94369091D01*
X149167331Y-94318796D01*
X149282546Y-94232546D01*
X149368796Y-94117331D01*
X149419091Y-93982483D01*
X149425500Y-93922873D01*
X149425499Y-92477128D01*
X149419091Y-92417517D01*
X149414426Y-92405010D01*
X149368797Y-92282671D01*
X149368793Y-92282664D01*
X149282547Y-92167455D01*
X149282544Y-92167452D01*
X149167335Y-92081206D01*
X149167328Y-92081202D01*
X149032482Y-92030908D01*
X149032483Y-92030908D01*
X148972883Y-92024501D01*
X148972881Y-92024500D01*
X148972873Y-92024500D01*
X148972864Y-92024500D01*
X147527129Y-92024500D01*
X147527123Y-92024501D01*
X147467516Y-92030908D01*
X147332671Y-92081202D01*
X147332664Y-92081206D01*
X147217455Y-92167452D01*
X147155214Y-92250594D01*
X147099279Y-92292465D01*
X147029588Y-92297448D01*
X146972411Y-92267920D01*
X146961434Y-92257913D01*
X146961429Y-92257910D01*
X146776213Y-92143229D01*
X146776207Y-92143226D01*
X146691113Y-92110260D01*
X146573069Y-92064530D01*
X146358926Y-92024500D01*
X146141074Y-92024500D01*
X145926931Y-92064530D01*
X145883896Y-92081202D01*
X145723792Y-92143226D01*
X145723786Y-92143229D01*
X145538576Y-92257906D01*
X145538566Y-92257913D01*
X145377573Y-92404676D01*
X145348953Y-92442576D01*
X145292844Y-92484211D01*
X145223132Y-92488902D01*
X145161950Y-92455159D01*
X145151047Y-92442576D01*
X145122426Y-92404676D01*
X144961433Y-92257913D01*
X144961423Y-92257906D01*
X144776213Y-92143229D01*
X144776207Y-92143226D01*
X144691113Y-92110260D01*
X144573069Y-92064530D01*
X144358926Y-92024500D01*
X144141074Y-92024500D01*
X143926931Y-92064530D01*
X143883896Y-92081202D01*
X143723792Y-92143226D01*
X143723786Y-92143229D01*
X143538576Y-92257906D01*
X143538566Y-92257913D01*
X143377573Y-92404676D01*
X143348953Y-92442576D01*
X143292844Y-92484211D01*
X143223132Y-92488902D01*
X143161950Y-92455159D01*
X143151047Y-92442576D01*
X143122426Y-92404676D01*
X142961433Y-92257913D01*
X142961423Y-92257906D01*
X142776213Y-92143229D01*
X142776207Y-92143226D01*
X142691113Y-92110260D01*
X142573069Y-92064530D01*
X142358926Y-92024500D01*
X142141074Y-92024500D01*
X141926931Y-92064530D01*
X141883896Y-92081202D01*
X141723792Y-92143226D01*
X141723786Y-92143229D01*
X141538576Y-92257906D01*
X141538566Y-92257913D01*
X141377573Y-92404676D01*
X141348953Y-92442576D01*
X141292844Y-92484211D01*
X141223132Y-92488902D01*
X141161950Y-92455159D01*
X141151047Y-92442576D01*
X141122426Y-92404676D01*
X140961433Y-92257913D01*
X140961423Y-92257906D01*
X140776213Y-92143229D01*
X140776207Y-92143226D01*
X140691113Y-92110260D01*
X140573069Y-92064530D01*
X140358926Y-92024500D01*
X140141074Y-92024500D01*
X139926931Y-92064530D01*
X139883896Y-92081202D01*
X139723792Y-92143226D01*
X139723786Y-92143229D01*
X139538576Y-92257906D01*
X139538566Y-92257913D01*
X139377574Y-92404676D01*
X139348640Y-92442991D01*
X139292530Y-92484627D01*
X139222818Y-92489318D01*
X139161637Y-92455576D01*
X139150731Y-92442990D01*
X139122051Y-92405011D01*
X139122050Y-92405010D01*
X138961131Y-92258314D01*
X138775987Y-92143677D01*
X138775985Y-92143676D01*
X138572931Y-92065013D01*
X138572921Y-92065010D01*
X138500001Y-92051378D01*
X138500000Y-92051379D01*
X138500000Y-92884314D01*
X138488045Y-92872359D01*
X138375148Y-92814835D01*
X138281481Y-92800000D01*
X138218519Y-92800000D01*
X138124852Y-92814835D01*
X138011955Y-92872359D01*
X138000000Y-92884314D01*
X138000000Y-92051379D01*
X137999998Y-92051378D01*
X137927078Y-92065010D01*
X137927068Y-92065013D01*
X137724014Y-92143676D01*
X137724012Y-92143677D01*
X137538869Y-92258314D01*
X137538868Y-92258314D01*
X137377945Y-92405014D01*
X137246715Y-92578791D01*
X137149651Y-92773719D01*
X137099494Y-92949999D01*
X133050500Y-92949999D01*
X133050500Y-77792705D01*
X133050736Y-77787299D01*
X133054476Y-77744554D01*
X133066918Y-77618223D01*
X133070542Y-77598309D01*
X133088405Y-77531645D01*
X133116683Y-77438424D01*
X133122948Y-77422049D01*
X133154399Y-77354603D01*
X133155901Y-77351600D01*
X133156591Y-77350308D01*
X133200770Y-77267654D01*
X133204640Y-77261354D01*
X133250987Y-77195164D01*
X133253843Y-77191401D01*
X133255970Y-77188808D01*
X133313122Y-77119168D01*
X133317162Y-77114710D01*
X133374710Y-77057162D01*
X133379168Y-77053122D01*
X133451401Y-76993843D01*
X133455171Y-76990983D01*
X133521354Y-76944640D01*
X133527654Y-76940770D01*
X133611600Y-76895901D01*
X133614603Y-76894399D01*
X133682049Y-76862948D01*
X133698424Y-76856683D01*
X133791645Y-76828405D01*
X133858309Y-76810542D01*
X133878223Y-76806918D01*
X134004542Y-76794477D01*
X134047305Y-76790735D01*
X134052706Y-76790500D01*
X153217293Y-76790500D01*
X153222695Y-76790735D01*
G37*
%TD.AperFunction*%
%TD*%
M02*
