%TF.GenerationSoftware,KiCad,Pcbnew,7.0.10*%
%TF.CreationDate,2024-10-11T10:49:25-04:00*%
%TF.ProjectId,ad5689r,61643536-3839-4722-9e6b-696361645f70,rev?*%
%TF.SameCoordinates,Original*%
%TF.FileFunction,Drillmap*%
%TF.FilePolarity,Positive*%
%FSLAX45Y45*%
G04 Gerber Fmt 4.5, Leading zero omitted, Abs format (unit mm)*
G04 Created by KiCad (PCBNEW 7.0.10) date 2024-10-11 10:49:25*
%MOMM*%
%LPD*%
G01*
G04 APERTURE LIST*
%ADD10C,0.100000*%
%ADD11C,0.200000*%
G04 APERTURE END LIST*
D10*
X2590800Y-2235200D02*
X5029200Y-2235200D01*
X5029200Y-3987800D01*
X2590800Y-3987800D01*
X2590800Y-2235200D01*
D11*
X2846577Y-4304284D02*
X2846577Y-4104284D01*
X2846577Y-4104284D02*
X2894196Y-4104284D01*
X2894196Y-4104284D02*
X2922767Y-4113808D01*
X2922767Y-4113808D02*
X2941815Y-4132855D01*
X2941815Y-4132855D02*
X2951339Y-4151903D01*
X2951339Y-4151903D02*
X2960862Y-4189998D01*
X2960862Y-4189998D02*
X2960862Y-4218570D01*
X2960862Y-4218570D02*
X2951339Y-4256665D01*
X2951339Y-4256665D02*
X2941815Y-4275712D01*
X2941815Y-4275712D02*
X2922767Y-4294760D01*
X2922767Y-4294760D02*
X2894196Y-4304284D01*
X2894196Y-4304284D02*
X2846577Y-4304284D01*
X3046577Y-4304284D02*
X3046577Y-4170950D01*
X3046577Y-4209046D02*
X3056101Y-4189998D01*
X3056101Y-4189998D02*
X3065624Y-4180474D01*
X3065624Y-4180474D02*
X3084672Y-4170950D01*
X3084672Y-4170950D02*
X3103720Y-4170950D01*
X3170386Y-4304284D02*
X3170386Y-4170950D01*
X3170386Y-4104284D02*
X3160862Y-4113808D01*
X3160862Y-4113808D02*
X3170386Y-4123331D01*
X3170386Y-4123331D02*
X3179910Y-4113808D01*
X3179910Y-4113808D02*
X3170386Y-4104284D01*
X3170386Y-4104284D02*
X3170386Y-4123331D01*
X3294196Y-4304284D02*
X3275148Y-4294760D01*
X3275148Y-4294760D02*
X3265624Y-4275712D01*
X3265624Y-4275712D02*
X3265624Y-4104284D01*
X3398958Y-4304284D02*
X3379910Y-4294760D01*
X3379910Y-4294760D02*
X3370386Y-4275712D01*
X3370386Y-4275712D02*
X3370386Y-4104284D01*
X3627529Y-4304284D02*
X3627529Y-4104284D01*
X3627529Y-4104284D02*
X3694196Y-4247141D01*
X3694196Y-4247141D02*
X3760862Y-4104284D01*
X3760862Y-4104284D02*
X3760862Y-4304284D01*
X3941815Y-4304284D02*
X3941815Y-4199522D01*
X3941815Y-4199522D02*
X3932291Y-4180474D01*
X3932291Y-4180474D02*
X3913243Y-4170950D01*
X3913243Y-4170950D02*
X3875148Y-4170950D01*
X3875148Y-4170950D02*
X3856101Y-4180474D01*
X3941815Y-4294760D02*
X3922767Y-4304284D01*
X3922767Y-4304284D02*
X3875148Y-4304284D01*
X3875148Y-4304284D02*
X3856101Y-4294760D01*
X3856101Y-4294760D02*
X3846577Y-4275712D01*
X3846577Y-4275712D02*
X3846577Y-4256665D01*
X3846577Y-4256665D02*
X3856101Y-4237617D01*
X3856101Y-4237617D02*
X3875148Y-4228093D01*
X3875148Y-4228093D02*
X3922767Y-4228093D01*
X3922767Y-4228093D02*
X3941815Y-4218570D01*
X4037053Y-4170950D02*
X4037053Y-4370950D01*
X4037053Y-4180474D02*
X4056101Y-4170950D01*
X4056101Y-4170950D02*
X4094196Y-4170950D01*
X4094196Y-4170950D02*
X4113243Y-4180474D01*
X4113243Y-4180474D02*
X4122767Y-4189998D01*
X4122767Y-4189998D02*
X4132291Y-4209046D01*
X4132291Y-4209046D02*
X4132291Y-4266189D01*
X4132291Y-4266189D02*
X4122767Y-4285236D01*
X4122767Y-4285236D02*
X4113243Y-4294760D01*
X4113243Y-4294760D02*
X4094196Y-4304284D01*
X4094196Y-4304284D02*
X4056101Y-4304284D01*
X4056101Y-4304284D02*
X4037053Y-4294760D01*
X4218005Y-4285236D02*
X4227529Y-4294760D01*
X4227529Y-4294760D02*
X4218005Y-4304284D01*
X4218005Y-4304284D02*
X4208482Y-4294760D01*
X4208482Y-4294760D02*
X4218005Y-4285236D01*
X4218005Y-4285236D02*
X4218005Y-4304284D01*
X4218005Y-4180474D02*
X4227529Y-4189998D01*
X4227529Y-4189998D02*
X4218005Y-4199522D01*
X4218005Y-4199522D02*
X4208482Y-4189998D01*
X4208482Y-4189998D02*
X4218005Y-4180474D01*
X4218005Y-4180474D02*
X4218005Y-4199522D01*
M02*
