M48
; DRILL file {KiCad 8.0.4} date 2025-04-09T14:15:47-0400
; FORMAT={-:-/ absolute / metric / decimal}
; #@! TF.CreationDate,2025-04-09T14:15:47-04:00
; #@! TF.GenerationSoftware,Kicad,Pcbnew,8.0.4
; #@! TF.FileFunction,Plated,1,4,PTH
FMAT,2
METRIC
; #@! TA.AperFunction,Plated,PTH,ViaDrill
T1C0.300
; #@! TA.AperFunction,Plated,PTH,ViaDrill
T2C0.400
; #@! TA.AperFunction,Plated,PTH,ViaDrill
T3C0.500
; #@! TA.AperFunction,Plated,PTH,ViaDrill
T4C0.600
; #@! TA.AperFunction,Plated,PTH,ComponentDrill
T5C0.600
; #@! TA.AperFunction,Plated,PTH,ComponentDrill
T6C0.800
; #@! TA.AperFunction,Plated,PTH,ComponentDrill
T7C1.000
; #@! TA.AperFunction,Plated,PTH,ComponentDrill
T8C1.092
; #@! TA.AperFunction,Plated,PTH,ComponentDrill
T9C3.200
%
G90
G05
T1
X1.194Y-66.675
X1.651Y-70.231
X1.93Y-74.778
X1.956Y-79.096
X5.359Y-70.129
X6.756Y-74.651
X6.858Y-79.019
X8.611Y-10.262
X8.611Y-14.986
X8.687Y-18.847
X8.915Y-6.274
X11.709Y-79.019
X12.55Y-68.52
X13.19Y-69.91
X14.859Y-19.761
X15.519Y-6.274
X15.545Y-10.617
X15.672Y-15.011
X15.71Y-71.807
X15.824Y-2.337
X17.856Y-79.096
X19.61Y-71.42
X21.158Y-14.351
X21.514Y-9.474
X23.419Y-78.842
X25.27Y-20.07
X25.476Y-32.258
X26.416Y-2.261
X26.87Y-22.3
X27.711Y-78.562
X28.33Y-33.51
X29.34Y-25.05
X29.38Y-24.22
X29.43Y-23.25
X29.44Y-22.62
X29.44Y-25.93
X30.912Y-2.032
X31.09Y-15.61
X31.11Y-28.29
X31.47Y-29.84
X31.97Y-7.93
X32.01Y-36.23
X32.09Y-34.78
X32.22Y-28.86
X32.38Y-22.72
X32.43Y-23.44
X32.44Y-24.22
X32.44Y-25.76
X32.49Y-24.99
X32.65Y-28.24
X32.684Y-38.576
X32.817Y-78.638
X32.97Y-35.64
X33.3Y-13.84
X33.39Y-7.94
X33.943Y-34.493
X34.35Y-27.08
X34.47Y-36.13
X35.02Y-37.72
X35.365Y-33.02
X35.89Y-2.057
X36.474Y-37.109
X36.525Y-41.199
X36.652Y-38.278
X36.932Y-24.943
X37.287Y-30.328
X37.293Y-18.209
X37.443Y-32.86
X37.617Y-28.321
X37.719Y-20.98
X37.8Y-8.035
X38.252Y-35.992
X38.303Y-26.873
X38.33Y-30.32
X38.659Y-78.613
X38.766Y-19.682
X38.982Y-34.409
X39.9Y-13.87
X39.98Y-33.503
X39.98Y-37.008
X40.203Y-17.241
X40.47Y-9.085
X40.869Y-40.02
X40.98Y-32.985
X41.158Y-9.534
X41.22Y-12.23
X41.427Y-24.511
X41.48Y-22.84
X41.605Y-2.108
X41.656Y-20.295
X41.859Y-28.753
X42.55Y-10.87
X42.59Y-11.62
X42.977Y-17.272
X42.977Y-78.588
X43.358Y-20.32
X43.917Y-24.511
X44.324Y-29.947
X44.348Y-31.445
X44.404Y-38.388
X44.729Y-27.196
X44.958Y-10.922
X45.16Y-20.98
X45.72Y-10.668
X45.923Y-28.321
X46.05Y-54.127
X46.15Y-21.94
X46.177Y-38.303
X46.228Y-2.108
X46.279Y-26.467
X46.533Y-24.587
X46.96Y-32.8
X46.97Y-16.705
X47.33Y-18.13
X47.777Y-78.511
X48.006Y-12.954
X48.692Y-32.106
X48.959Y-7.841
X49.022Y-6.35
X50.175Y-8.551
X52.019Y-7.061
X52.045Y-2.007
X52.07Y-12.294
X52.807Y-78.537
X53.111Y-73.101
X54.508Y-13.679
X55.397Y-9.804
X55.493Y-13.487
X55.57Y-4.8
X55.702Y-70.002
X56.515Y-78.689
X56.6Y-62.09
X56.94Y-9.29
X57.302Y-37.363
X57.577Y-8.315
X57.638Y-4.201
X57.7Y-19.45
X57.76Y-15.07
X57.881Y-53.078
X57.895Y-48.844
X57.92Y-32.31
X57.93Y-63.66
X57.95Y-58.81
X58.15Y-72.52
X58.24Y-36.88
X58.268Y-67.107
X59.03Y-29.67
X59.131Y-8.23
X59.39Y-27.94
X59.4Y-74.95
X59.698Y-11.052
X59.86Y-29.85
X60.5Y-37.43
X60.88Y-18.91
X60.985Y-10.855
X61.036Y-68.275
X61.07Y-6.76
X61.48Y-26.5
X61.63Y-43.14
X61.835Y-29.84
X62.001Y-46.203
X62.22Y-28.86
X62.32Y-27.32
X62.37Y-17.36
X63.15Y-33.2
X63.22Y-26.416
X63.602Y-7.671
X63.92Y-39.32
X64.033Y-46.279
X64.11Y-52.578
X64.11Y-59.284
T2
X5.9Y-47.95
X6.78Y-36.66
X6.78Y-44.63
X7.58Y-43.42
X10.2Y-72.43
X12.7Y-31.115
X18.74Y-71.48
X23.538Y-33.638
X25.94Y-24.0
X25.96Y-29.844
X26.67Y-28.51
X27.89Y-31.64
X29.89Y-54.09
X29.89Y-55.17
X29.93Y-61.56
X29.95Y-60.41
X30.378Y-31.13
X30.785Y-32.334
X30.85Y-10.4
X34.36Y-27.93
X47.48Y-61.0
X49.098Y-18.771
X55.05Y-8.405
X58.79Y-54.05
T3
X32.7Y-16.45
T4
X27.37Y-17.42
X28.81Y-18.02
X32.35Y-69.27
X34.82Y-68.28
X50.216Y-12.446
X53.62Y-22.83
X59.48Y-43.86
X63.52Y-24.41
T5
X15.33Y-68.288
X17.87Y-68.288
T6
X11.43Y-53.83
X11.43Y-55.83
X13.43Y-53.83
X13.43Y-55.83
X15.43Y-53.83
X15.43Y-55.83
T7
X8.98Y-23.08
X8.98Y-25.62
X8.98Y-28.16
X8.98Y-30.7
X8.98Y-33.24
X8.98Y-35.78
X8.98Y-45.94
X8.98Y-48.48
X8.98Y-51.02
X8.98Y-63.72
X8.98Y-66.26
X8.98Y-68.8
X16.6Y-23.08
X19.14Y-23.08
X21.17Y-52.29
X21.17Y-54.83
X21.68Y-23.08
X24.22Y-10.38
X24.22Y-12.92
X24.22Y-15.46
X24.22Y-23.08
X24.22Y-25.62
X24.22Y-30.7
X24.22Y-35.78
X24.22Y-38.32
X24.22Y-40.86
X24.22Y-45.94
X24.22Y-48.48
X24.22Y-68.8
T8
X50.46Y-23.865
X50.46Y-26.151
X50.46Y-28.437
X50.46Y-30.723
X50.46Y-33.009
X50.46Y-35.295
X50.46Y-37.581
X50.46Y-39.867
X50.46Y-42.153
X50.46Y-44.439
X50.46Y-46.725
X50.46Y-49.011
X50.46Y-51.297
X50.46Y-53.583
X50.46Y-55.869
X53.0Y-25.008
X53.0Y-27.294
X53.0Y-29.58
X53.0Y-31.866
X53.0Y-34.152
X53.0Y-36.438
X53.0Y-38.724
X53.0Y-41.01
X53.0Y-43.296
X53.0Y-45.582
X53.0Y-47.868
X53.0Y-50.154
X53.0Y-52.44
X53.0Y-54.726
X53.0Y-57.012
X55.54Y-26.151
X55.54Y-28.437
X55.54Y-30.723
X55.54Y-33.009
X55.54Y-35.295
X55.54Y-37.581
X55.54Y-39.867
X55.54Y-42.153
X55.54Y-44.439
X55.54Y-46.725
X55.54Y-49.011
X55.54Y-51.297
X55.54Y-53.583
X55.54Y-55.869
T9
X53.0Y-16.855
X53.0Y-63.895
M30
