G04 #@! TF.GenerationSoftware,KiCad,Pcbnew,8.0.7*
G04 #@! TF.CreationDate,2025-03-29T00:45:04-04:00*
G04 #@! TF.ProjectId,power_distribution_board,706f7765-725f-4646-9973-747269627574,1*
G04 #@! TF.SameCoordinates,Original*
G04 #@! TF.FileFunction,Soldermask,Bot*
G04 #@! TF.FilePolarity,Negative*
%FSLAX46Y46*%
G04 Gerber Fmt 4.6, Leading zero omitted, Abs format (unit mm)*
G04 Created by KiCad (PCBNEW 8.0.7) date 2025-03-29 00:45:04*
%MOMM*%
%LPD*%
G01*
G04 APERTURE LIST*
G04 APERTURE END LIST*
G36*
X25590000Y-58900000D02*
G01*
X22590000Y-58900000D01*
X22590000Y-53900000D01*
X25590000Y-53900000D01*
X25590000Y-58900000D01*
G37*
G36*
X41760000Y-58900000D02*
G01*
X38760000Y-58900000D01*
X38760000Y-53900000D01*
X41760000Y-53900000D01*
X41760000Y-58900000D01*
G37*
G36*
X57207500Y-58900000D02*
G01*
X54207500Y-58900000D01*
X54207500Y-53900000D01*
X57207500Y-53900000D01*
X57207500Y-58900000D01*
G37*
G36*
X19952500Y-58512500D02*
G01*
X14952500Y-58512500D01*
X14952500Y-55512500D01*
X19952500Y-55512500D01*
X19952500Y-58512500D01*
G37*
G36*
X36122500Y-58512500D02*
G01*
X31122500Y-58512500D01*
X31122500Y-55512500D01*
X36122500Y-55512500D01*
X36122500Y-58512500D01*
G37*
G36*
X51570000Y-58512500D02*
G01*
X46570000Y-58512500D01*
X46570000Y-55512500D01*
X51570000Y-55512500D01*
X51570000Y-58512500D01*
G37*
G36*
X41110295Y-44919699D02*
G01*
X41354427Y-44978310D01*
X41586385Y-45074390D01*
X41800456Y-45205573D01*
X41991371Y-45368629D01*
X42154427Y-45559544D01*
X42285610Y-45773615D01*
X42381690Y-46005573D01*
X42440301Y-46249705D01*
X42460000Y-46500000D01*
X42440301Y-46750295D01*
X42381690Y-46994427D01*
X42285610Y-47226385D01*
X42154427Y-47440456D01*
X41991371Y-47631371D01*
X41800456Y-47794427D01*
X41586385Y-47925610D01*
X41354427Y-48021690D01*
X41110295Y-48080301D01*
X40860000Y-48100000D01*
X40609705Y-48080301D01*
X40365573Y-48021690D01*
X40133615Y-47925610D01*
X39919544Y-47794427D01*
X39728629Y-47631371D01*
X39565573Y-47440456D01*
X39434390Y-47226385D01*
X39338310Y-46994427D01*
X39279699Y-46750295D01*
X39260000Y-46500000D01*
X39279699Y-46249705D01*
X39338310Y-46005573D01*
X39434390Y-45773615D01*
X39565573Y-45559544D01*
X39728629Y-45368629D01*
X39919544Y-45205573D01*
X40133615Y-45074390D01*
X40365573Y-44978310D01*
X40609705Y-44919699D01*
X40860000Y-44900000D01*
X41110295Y-44919699D01*
G37*
G36*
X45845493Y-39663110D02*
G01*
X45881442Y-39663110D01*
X45910663Y-39671690D01*
X45939813Y-39675528D01*
X45978966Y-39691745D01*
X46018538Y-39703365D01*
X46039425Y-39716788D01*
X46060778Y-39725633D01*
X46099904Y-39755656D01*
X46138740Y-39780614D01*
X46151259Y-39795062D01*
X46164659Y-39805344D01*
X46199395Y-39850613D01*
X46232309Y-39888598D01*
X46237848Y-39900726D01*
X46244365Y-39909220D01*
X46270095Y-39971339D01*
X46291665Y-40018570D01*
X46292731Y-40025987D01*
X46294471Y-40030187D01*
X46306805Y-40123869D01*
X46312000Y-40160000D01*
X46306805Y-40196130D01*
X46294471Y-40289813D01*
X46292731Y-40294012D01*
X46291665Y-40301430D01*
X46270096Y-40348658D01*
X46244366Y-40410778D01*
X46237848Y-40419271D01*
X46232309Y-40431402D01*
X46199387Y-40469395D01*
X46164657Y-40514657D01*
X46151260Y-40524936D01*
X46138740Y-40539386D01*
X46099898Y-40564348D01*
X46060778Y-40594366D01*
X46039429Y-40603208D01*
X46018538Y-40616635D01*
X45978957Y-40628256D01*
X45939813Y-40644471D01*
X45910669Y-40648307D01*
X45881442Y-40656890D01*
X45845486Y-40656890D01*
X45810000Y-40661562D01*
X45774514Y-40656890D01*
X45738558Y-40656890D01*
X45709330Y-40648308D01*
X45680186Y-40644471D01*
X45641038Y-40628255D01*
X45601462Y-40616635D01*
X45580571Y-40603209D01*
X45559221Y-40594366D01*
X45520095Y-40564344D01*
X45481260Y-40539386D01*
X45468741Y-40524938D01*
X45455342Y-40514657D01*
X45420604Y-40469385D01*
X45387691Y-40431402D01*
X45382152Y-40419274D01*
X45375633Y-40410778D01*
X45349892Y-40348634D01*
X45328335Y-40301430D01*
X45327269Y-40294016D01*
X45325528Y-40289813D01*
X45313183Y-40196047D01*
X45308000Y-40160000D01*
X45313183Y-40123952D01*
X45325528Y-40030187D01*
X45327269Y-40025983D01*
X45328335Y-40018570D01*
X45349893Y-39971363D01*
X45375634Y-39909220D01*
X45382153Y-39900723D01*
X45387691Y-39888598D01*
X45420598Y-39850621D01*
X45455342Y-39805342D01*
X45468743Y-39795058D01*
X45481260Y-39780614D01*
X45520088Y-39755660D01*
X45559220Y-39725634D01*
X45580573Y-39716788D01*
X45601462Y-39703365D01*
X45641034Y-39691745D01*
X45680187Y-39675528D01*
X45709336Y-39671690D01*
X45738558Y-39663110D01*
X45774507Y-39663110D01*
X45810000Y-39658437D01*
X45845493Y-39663110D01*
G37*
G36*
X45845493Y-33113110D02*
G01*
X45881442Y-33113110D01*
X45910663Y-33121690D01*
X45939813Y-33125528D01*
X45978966Y-33141745D01*
X46018538Y-33153365D01*
X46039425Y-33166788D01*
X46060778Y-33175633D01*
X46099904Y-33205656D01*
X46138740Y-33230614D01*
X46151259Y-33245062D01*
X46164659Y-33255344D01*
X46199395Y-33300613D01*
X46232309Y-33338598D01*
X46237848Y-33350726D01*
X46244365Y-33359220D01*
X46270095Y-33421339D01*
X46291665Y-33468570D01*
X46292731Y-33475987D01*
X46294471Y-33480187D01*
X46306805Y-33573869D01*
X46312000Y-33610000D01*
X46306805Y-33646130D01*
X46294471Y-33739813D01*
X46292731Y-33744012D01*
X46291665Y-33751430D01*
X46270096Y-33798658D01*
X46244366Y-33860778D01*
X46237848Y-33869271D01*
X46232309Y-33881402D01*
X46199387Y-33919395D01*
X46164657Y-33964657D01*
X46151260Y-33974936D01*
X46138740Y-33989386D01*
X46099898Y-34014348D01*
X46060778Y-34044366D01*
X46039429Y-34053208D01*
X46018538Y-34066635D01*
X45978957Y-34078256D01*
X45939813Y-34094471D01*
X45910669Y-34098307D01*
X45881442Y-34106890D01*
X45845486Y-34106890D01*
X45810000Y-34111562D01*
X45774514Y-34106890D01*
X45738558Y-34106890D01*
X45709330Y-34098308D01*
X45680186Y-34094471D01*
X45641038Y-34078255D01*
X45601462Y-34066635D01*
X45580571Y-34053209D01*
X45559221Y-34044366D01*
X45520095Y-34014344D01*
X45481260Y-33989386D01*
X45468741Y-33974938D01*
X45455342Y-33964657D01*
X45420604Y-33919385D01*
X45387691Y-33881402D01*
X45382152Y-33869274D01*
X45375633Y-33860778D01*
X45349892Y-33798634D01*
X45328335Y-33751430D01*
X45327269Y-33744016D01*
X45325528Y-33739813D01*
X45313183Y-33646047D01*
X45308000Y-33610000D01*
X45313183Y-33573952D01*
X45325528Y-33480187D01*
X45327269Y-33475983D01*
X45328335Y-33468570D01*
X45349893Y-33421363D01*
X45375634Y-33359220D01*
X45382153Y-33350723D01*
X45387691Y-33338598D01*
X45420598Y-33300621D01*
X45455342Y-33255342D01*
X45468743Y-33245058D01*
X45481260Y-33230614D01*
X45520088Y-33205660D01*
X45559220Y-33175634D01*
X45580573Y-33166788D01*
X45601462Y-33153365D01*
X45641034Y-33141745D01*
X45680187Y-33125528D01*
X45709336Y-33121690D01*
X45738558Y-33113110D01*
X45774507Y-33113110D01*
X45810000Y-33108437D01*
X45845493Y-33113110D01*
G37*
G36*
X49969931Y-15934930D02*
G01*
X49980579Y-15939427D01*
X49984890Y-15950039D01*
X49802680Y-32540756D01*
X49798090Y-32551504D01*
X49787563Y-32555780D01*
X30828418Y-32505834D01*
X30817749Y-32501382D01*
X30813446Y-32490915D01*
X31014877Y-15820045D01*
X31019462Y-15809345D01*
X31030069Y-15805068D01*
X49969931Y-15934930D01*
G37*
G36*
X41110295Y-11919699D02*
G01*
X41354427Y-11978310D01*
X41586385Y-12074390D01*
X41800456Y-12205573D01*
X41991371Y-12368629D01*
X42154427Y-12559544D01*
X42285610Y-12773615D01*
X42381690Y-13005573D01*
X42440301Y-13249705D01*
X42460000Y-13500000D01*
X42440301Y-13750295D01*
X42381690Y-13994427D01*
X42285610Y-14226385D01*
X42154427Y-14440456D01*
X41991371Y-14631371D01*
X41800456Y-14794427D01*
X41586385Y-14925610D01*
X41354427Y-15021690D01*
X41110295Y-15080301D01*
X40860000Y-15100000D01*
X40609705Y-15080301D01*
X40365573Y-15021690D01*
X40133615Y-14925610D01*
X39919544Y-14794427D01*
X39728629Y-14631371D01*
X39565573Y-14440456D01*
X39434390Y-14226385D01*
X39338310Y-13994427D01*
X39279699Y-13750295D01*
X39260000Y-13500000D01*
X39279699Y-13249705D01*
X39338310Y-13005573D01*
X39434390Y-12773615D01*
X39565573Y-12559544D01*
X39728629Y-12368629D01*
X39919544Y-12205573D01*
X40133615Y-12074390D01*
X40365573Y-11978310D01*
X40609705Y-11919699D01*
X40860000Y-11900000D01*
X41110295Y-11919699D01*
G37*
G36*
X56350433Y-7671678D02*
G01*
X53350433Y-7671678D01*
X53350433Y-2671678D01*
X56350433Y-2671678D01*
X56350433Y-7671678D01*
G37*
G36*
X36227500Y-7650000D02*
G01*
X33227500Y-7650000D01*
X33227500Y-2650000D01*
X36227500Y-2650000D01*
X36227500Y-7650000D01*
G37*
G36*
X51712933Y-7284178D02*
G01*
X46712933Y-7284178D01*
X46712933Y-4284178D01*
X51712933Y-4284178D01*
X51712933Y-7284178D01*
G37*
G36*
X31590000Y-7262500D02*
G01*
X26590000Y-7262500D01*
X26590000Y-4262500D01*
X31590000Y-4262500D01*
X31590000Y-7262500D01*
G37*
M02*
