G04 #@! TF.GenerationSoftware,KiCad,Pcbnew,8.0.7*
G04 #@! TF.CreationDate,2025-04-20T00:45:44-04:00*
G04 #@! TF.ProjectId,power_distribution_board,706f7765-725f-4646-9973-747269627574,1*
G04 #@! TF.SameCoordinates,Original*
G04 #@! TF.FileFunction,Copper,L2,Inr*
G04 #@! TF.FilePolarity,Positive*
%FSLAX46Y46*%
G04 Gerber Fmt 4.6, Leading zero omitted, Abs format (unit mm)*
G04 Created by KiCad (PCBNEW 8.0.7) date 2025-04-20 00:45:44*
%MOMM*%
%LPD*%
G01*
G04 APERTURE LIST*
G04 Aperture macros list*
%AMRoundRect*
0 Rectangle with rounded corners*
0 $1 Rounding radius*
0 $2 $3 $4 $5 $6 $7 $8 $9 X,Y pos of 4 corners*
0 Add a 4 corners polygon primitive as box body*
4,1,4,$2,$3,$4,$5,$6,$7,$8,$9,$2,$3,0*
0 Add four circle primitives for the rounded corners*
1,1,$1+$1,$2,$3*
1,1,$1+$1,$4,$5*
1,1,$1+$1,$6,$7*
1,1,$1+$1,$8,$9*
0 Add four rect primitives between the rounded corners*
20,1,$1+$1,$2,$3,$4,$5,0*
20,1,$1+$1,$4,$5,$6,$7,0*
20,1,$1+$1,$6,$7,$8,$9,0*
20,1,$1+$1,$8,$9,$2,$3,0*%
G04 Aperture macros list end*
G04 #@! TA.AperFunction,ComponentPad*
%ADD10R,5.400000X3.000000*%
G04 #@! TD*
G04 #@! TA.AperFunction,ComponentPad*
%ADD11R,3.000000X5.400000*%
G04 #@! TD*
G04 #@! TA.AperFunction,ComponentPad*
%ADD12RoundRect,0.250000X0.750000X-0.600000X0.750000X0.600000X-0.750000X0.600000X-0.750000X-0.600000X0*%
G04 #@! TD*
G04 #@! TA.AperFunction,ComponentPad*
%ADD13O,2.000000X1.700000*%
G04 #@! TD*
G04 #@! TA.AperFunction,ComponentPad*
%ADD14C,0.800000*%
G04 #@! TD*
G04 #@! TA.AperFunction,ViaPad*
%ADD15C,0.685800*%
G04 #@! TD*
G04 #@! TA.AperFunction,Conductor*
%ADD16C,0.254000*%
G04 #@! TD*
G04 APERTURE END LIST*
D10*
X159730000Y-74977500D03*
D11*
X160342500Y-81477500D03*
X138410000Y-27887500D03*
D10*
X132910000Y-28500000D03*
D11*
X154570000Y-27650000D03*
D10*
X160070000Y-27037500D03*
X146552500Y-74872500D03*
D11*
X147165000Y-81372500D03*
D10*
X133032500Y-75092500D03*
D11*
X133645000Y-81592500D03*
D12*
X134722500Y-56240000D03*
D13*
X134722500Y-53740000D03*
D14*
X160490000Y-55675000D03*
X160490000Y-62225000D03*
D15*
X153400000Y-58300000D03*
X162000000Y-71800000D03*
X155200000Y-70000000D03*
X134500000Y-61100000D03*
X134400000Y-65000000D03*
X150300000Y-62100000D03*
X150400000Y-64900000D03*
X150400000Y-67400000D03*
X157100000Y-82300000D03*
X157100000Y-78800000D03*
X163500000Y-78700000D03*
X163500000Y-81700000D03*
X149900000Y-81600000D03*
X150000000Y-78900000D03*
X143500000Y-79000000D03*
X143500000Y-81400000D03*
X130200000Y-81300000D03*
X136200000Y-79000000D03*
X139900000Y-78300000D03*
X139700000Y-76600000D03*
X137700000Y-76600000D03*
X158364800Y-72700000D03*
X160600000Y-72700000D03*
X159482400Y-72700000D03*
X157298000Y-72700000D03*
X145200000Y-66800000D03*
X143205600Y-66800000D03*
X141205600Y-66800000D03*
X148400000Y-71800000D03*
X146405600Y-71800000D03*
X144405600Y-71800000D03*
X142000000Y-71800000D03*
X140005600Y-71800000D03*
X138005600Y-71800000D03*
X141600000Y-73800000D03*
X139605600Y-73800000D03*
X137605600Y-73800000D03*
X153600000Y-77575000D03*
X151600000Y-70400000D03*
X151800000Y-62400000D03*
X154800000Y-64600000D03*
X152050000Y-61100000D03*
X155600000Y-61800000D03*
X160274000Y-32664400D03*
X162763200Y-48717200D03*
X162407600Y-41656000D03*
X162458400Y-45212000D03*
X162458400Y-46329600D03*
X162407600Y-40538400D03*
X163118800Y-33782000D03*
X160121600Y-50698400D03*
X162458400Y-44094400D03*
X162763200Y-52019200D03*
X160121600Y-48514000D03*
X157276800Y-47396400D03*
X160121600Y-49631600D03*
X156718000Y-31343600D03*
X160274000Y-33731200D03*
X157276800Y-49631600D03*
X162763200Y-50952400D03*
X156718000Y-29159200D03*
X160274000Y-30429200D03*
X160121600Y-47396400D03*
X163118800Y-31597600D03*
X162407600Y-42722800D03*
X157276800Y-48514000D03*
X160274000Y-31546800D03*
X156718000Y-30276800D03*
X163118800Y-30480000D03*
X162458400Y-47396400D03*
X162763200Y-49834800D03*
X162407600Y-39420800D03*
X163118800Y-32715200D03*
X157276800Y-50698400D03*
X156718000Y-28041600D03*
X138340000Y-54310000D03*
X145012359Y-47190234D03*
X151820000Y-38740000D03*
X148449149Y-43577456D03*
X140823392Y-43631136D03*
X142389618Y-43595095D03*
X140764351Y-52599980D03*
X148479715Y-50852160D03*
X147320468Y-54244986D03*
X142000000Y-38000000D03*
X142366996Y-50808477D03*
X146831459Y-40933360D03*
X151618020Y-45332918D03*
X143933222Y-50844518D03*
X149010000Y-47290000D03*
X145588018Y-48265138D03*
X143113415Y-49862443D03*
X140749448Y-50776400D03*
X140833580Y-41776800D03*
X150480000Y-54290000D03*
X146865846Y-44670052D03*
X140100000Y-54260000D03*
X146903347Y-38733552D03*
X151890000Y-47290000D03*
X146914810Y-46092313D03*
X150876316Y-44417640D03*
X146833585Y-51866036D03*
X145486412Y-53112440D03*
X151648586Y-52607622D03*
X145500000Y-49660000D03*
X149258768Y-44449717D03*
X144017354Y-41708682D03*
X148459337Y-41723120D03*
X150520000Y-47270000D03*
X149289334Y-51724421D03*
X147343393Y-47218631D03*
X141710000Y-54270000D03*
X140808489Y-45454716D03*
X142374715Y-45418675D03*
X148990000Y-39800000D03*
X151643111Y-41655002D03*
X146842922Y-48292121D03*
X140739260Y-48922064D03*
X142381899Y-52632057D03*
X149268956Y-42595381D03*
X150750000Y-39750000D03*
X143923034Y-48990182D03*
X151663489Y-50784042D03*
X141495867Y-49830366D03*
X142356808Y-48954141D03*
X143992263Y-45386598D03*
X146937734Y-42470244D03*
X149299522Y-49870085D03*
X150917070Y-49838008D03*
X151673677Y-48929706D03*
X150000472Y-45364995D03*
X150886504Y-42563304D03*
X141830000Y-39770000D03*
X143260000Y-54220000D03*
X146905473Y-49666228D03*
X143450000Y-47170000D03*
X147331930Y-39859870D03*
X143250559Y-44471320D03*
X143260747Y-42616984D03*
X146891885Y-53118668D03*
X145610942Y-44643069D03*
X141506055Y-51684702D03*
X141643199Y-42649061D03*
X145509337Y-46086085D03*
X145578681Y-51839053D03*
X143123603Y-51716779D03*
X150330000Y-38120000D03*
X151632923Y-43509338D03*
X146200000Y-50792546D03*
X148489903Y-48997824D03*
X148434246Y-45401036D03*
X152090000Y-54300000D03*
X143948125Y-52668098D03*
X146200000Y-43596562D03*
X148464812Y-52675740D03*
X144007166Y-43563018D03*
X145497874Y-38727324D03*
X145532261Y-42464016D03*
X148720000Y-54340000D03*
X150056129Y-48961783D03*
X142399806Y-41740759D03*
X150025563Y-41687079D03*
X144989434Y-54216589D03*
X145000896Y-39831473D03*
X150045941Y-50816119D03*
X150015375Y-43541415D03*
X141900000Y-47220000D03*
X140750000Y-38750000D03*
X145576555Y-40906377D03*
X153640000Y-54250000D03*
X141633011Y-44503397D03*
X150031038Y-52639699D03*
X150906882Y-51692344D03*
X143380000Y-39720000D03*
X134112000Y-33883600D03*
X131521200Y-40538400D03*
X138277600Y-32461200D03*
X130708400Y-31648400D03*
X138734800Y-33629600D03*
X139344400Y-32461200D03*
X136042400Y-32461200D03*
X137617200Y-31038800D03*
X135432800Y-33629600D03*
X136296400Y-27482800D03*
X138734800Y-31038800D03*
X130708400Y-30530800D03*
X136499600Y-31038800D03*
X131521200Y-41656000D03*
X134112000Y-31699200D03*
X136296400Y-26365200D03*
X134112000Y-30581600D03*
X137160000Y-32461200D03*
X130708400Y-33832800D03*
X130708400Y-32766000D03*
X136296400Y-28600400D03*
X134112000Y-32816800D03*
X131521200Y-42722800D03*
X139801600Y-31038800D03*
X131419600Y-47396400D03*
X136550400Y-33629600D03*
X131521200Y-39420800D03*
X137668000Y-33629600D03*
X136296400Y-29667200D03*
X143410000Y-30030000D03*
X135910000Y-48910000D03*
X158127500Y-45270000D03*
X149230000Y-30055000D03*
X146717500Y-61100000D03*
X149230000Y-26205000D03*
X155852073Y-57372073D03*
X147200000Y-59722500D03*
X137650000Y-63000000D03*
X143410000Y-26142500D03*
X159004000Y-50698400D03*
X161340800Y-46329600D03*
X161290000Y-40538400D03*
X161290000Y-29311600D03*
X143927500Y-64420000D03*
X161645600Y-49834800D03*
X159156400Y-30429200D03*
X161645600Y-50952400D03*
X129895600Y-46329600D03*
X129895600Y-44094400D03*
X156159200Y-50698400D03*
X156159200Y-49631600D03*
X132588000Y-30581600D03*
X161290000Y-39420800D03*
X161340800Y-44094400D03*
X129184400Y-31648400D03*
X162001200Y-32715200D03*
X144442500Y-62050000D03*
X162001200Y-30480000D03*
X161340800Y-45212000D03*
X132588000Y-33883600D03*
X157400000Y-32860000D03*
X162001200Y-33782000D03*
X159156400Y-32664400D03*
X161645600Y-48717200D03*
X159156400Y-33731200D03*
X162001200Y-31597600D03*
X159004000Y-49631600D03*
X161290000Y-41656000D03*
X161490229Y-36673083D03*
X131460000Y-60890000D03*
X161645600Y-52019200D03*
X133870000Y-45300000D03*
X140480000Y-61820000D03*
X158560000Y-41670000D03*
X159156400Y-31546800D03*
X129184400Y-33832800D03*
X129997200Y-42722800D03*
X132588000Y-31699200D03*
X129895600Y-45212000D03*
X143907500Y-59740000D03*
X129184400Y-30530800D03*
X157988000Y-29311600D03*
X161340800Y-47396400D03*
X129184400Y-32766000D03*
X160223200Y-29311600D03*
X131090000Y-36450000D03*
X159105600Y-29311600D03*
X159004000Y-47396400D03*
X134045000Y-49940000D03*
X155200000Y-55890000D03*
X129895600Y-47396400D03*
X134260000Y-40200000D03*
X156159200Y-48514000D03*
X159004000Y-48514000D03*
X156159200Y-47396400D03*
X129997200Y-41656000D03*
X156252500Y-46220000D03*
X129997200Y-40538400D03*
X129997200Y-39420800D03*
X161290000Y-42722800D03*
X132588000Y-32816800D03*
X134112000Y-77165200D03*
X154584400Y-79705200D03*
X154025600Y-80772000D03*
X141630400Y-82753200D03*
X160223200Y-77114400D03*
X161340800Y-77114400D03*
X147066000Y-76962000D03*
X161276225Y-67139059D03*
X132994400Y-71526400D03*
X133045200Y-69443600D03*
X153924000Y-78689200D03*
X158545664Y-67989812D03*
X159421889Y-67128871D03*
X155041600Y-78689200D03*
X153974800Y-83058000D03*
X151790400Y-83058000D03*
X139395200Y-82753200D03*
X161308302Y-68756607D03*
X145948400Y-76962000D03*
X160400000Y-68000000D03*
X160367923Y-66382452D03*
X131200000Y-69443600D03*
X159105600Y-77114400D03*
X151180800Y-84175600D03*
X129000000Y-71526400D03*
X130810000Y-77165200D03*
X139903200Y-83870800D03*
X151739600Y-78689200D03*
X140512800Y-82753200D03*
X141020800Y-83870800D03*
X129200000Y-69443600D03*
X144881600Y-76962000D03*
X154533600Y-81889600D03*
X159453966Y-68746419D03*
X132994400Y-77165200D03*
X154482800Y-84175600D03*
X155092400Y-83058000D03*
X137718800Y-83870800D03*
X131000000Y-71526400D03*
X158513587Y-66372264D03*
X159385848Y-65562645D03*
X158038800Y-77114400D03*
X151231600Y-81889600D03*
X151282400Y-79705200D03*
X155143200Y-80772000D03*
X131876800Y-77165200D03*
X148183600Y-76962000D03*
X157562268Y-65547742D03*
X157598309Y-67113968D03*
X161240184Y-65572833D03*
X138785600Y-83870800D03*
X157630386Y-68731516D03*
X138328400Y-82753200D03*
X136805600Y-68317200D03*
X134805600Y-68317200D03*
X134605600Y-70400000D03*
X136605600Y-70400000D03*
X138650800Y-68317200D03*
X138600000Y-70400000D03*
D16*
X135910000Y-37530000D02*
X143410000Y-30030000D01*
X135910000Y-48910000D02*
X135910000Y-37530000D01*
X150935000Y-30055000D02*
X149230000Y-30055000D01*
X158127500Y-45270000D02*
X157827501Y-44970001D01*
X157827501Y-44970001D02*
X157827501Y-36947501D01*
X157827501Y-36947501D02*
X150935000Y-30055000D01*
G04 #@! TA.AperFunction,Conductor*
G36*
X163313039Y-63699685D02*
G01*
X163358794Y-63752489D01*
X163370000Y-63804000D01*
X163370000Y-72316000D01*
X163350315Y-72383039D01*
X163297511Y-72428794D01*
X163246000Y-72440000D01*
X162296524Y-72440000D01*
X162229485Y-72420315D01*
X162183730Y-72367511D01*
X162173786Y-72298353D01*
X162202811Y-72234797D01*
X162229484Y-72211685D01*
X162311212Y-72159161D01*
X162311211Y-72159161D01*
X162311214Y-72159160D01*
X162399795Y-72056933D01*
X162455987Y-71933890D01*
X162475237Y-71800000D01*
X162455987Y-71666110D01*
X162455986Y-71666109D01*
X162455986Y-71666106D01*
X162427891Y-71604588D01*
X162399795Y-71543067D01*
X162311214Y-71440840D01*
X162197421Y-71367709D01*
X162197420Y-71367708D01*
X162197419Y-71367708D01*
X162067634Y-71329600D01*
X162067633Y-71329600D01*
X161932367Y-71329600D01*
X161932366Y-71329600D01*
X161802580Y-71367708D01*
X161688788Y-71440838D01*
X161688783Y-71440842D01*
X161600209Y-71543061D01*
X161600203Y-71543071D01*
X161544013Y-71666106D01*
X161544012Y-71666111D01*
X161524763Y-71800000D01*
X161544012Y-71933888D01*
X161544013Y-71933893D01*
X161590571Y-72035838D01*
X161600205Y-72056933D01*
X161600208Y-72056936D01*
X161600209Y-72056938D01*
X161688783Y-72159157D01*
X161688787Y-72159161D01*
X161770516Y-72211685D01*
X161816270Y-72264489D01*
X161826214Y-72333647D01*
X161797189Y-72397203D01*
X161738411Y-72434977D01*
X161703476Y-72440000D01*
X155774000Y-72440000D01*
X155706961Y-72420315D01*
X155661206Y-72367511D01*
X155650000Y-72316000D01*
X155650000Y-70172108D01*
X155655024Y-70137168D01*
X155655982Y-70133898D01*
X155655987Y-70133890D01*
X155675237Y-70000000D01*
X155655987Y-69866110D01*
X155655987Y-69866109D01*
X155655023Y-69862826D01*
X155650000Y-69827891D01*
X155650000Y-68731516D01*
X157155149Y-68731516D01*
X157174398Y-68865404D01*
X157174399Y-68865409D01*
X157220957Y-68967354D01*
X157230591Y-68988449D01*
X157230594Y-68988452D01*
X157230595Y-68988454D01*
X157252332Y-69013540D01*
X157319172Y-69090676D01*
X157432965Y-69163807D01*
X157483720Y-69178710D01*
X157562752Y-69201916D01*
X157562753Y-69201916D01*
X157698019Y-69201916D01*
X157827807Y-69163807D01*
X157941600Y-69090676D01*
X158030181Y-68988449D01*
X158086373Y-68865406D01*
X158103480Y-68746419D01*
X158978729Y-68746419D01*
X158997978Y-68880307D01*
X158997979Y-68880312D01*
X159044537Y-68982257D01*
X159054171Y-69003352D01*
X159054174Y-69003355D01*
X159054175Y-69003357D01*
X159129835Y-69090673D01*
X159142752Y-69105579D01*
X159256545Y-69178710D01*
X159321439Y-69197764D01*
X159386332Y-69216819D01*
X159386333Y-69216819D01*
X159521599Y-69216819D01*
X159651387Y-69178710D01*
X159765180Y-69105579D01*
X159853761Y-69003352D01*
X159905299Y-68890500D01*
X159909952Y-68880312D01*
X159909953Y-68880307D01*
X159912095Y-68865409D01*
X159927738Y-68756607D01*
X160833065Y-68756607D01*
X160852314Y-68890495D01*
X160852315Y-68890500D01*
X160897046Y-68988444D01*
X160908507Y-69013540D01*
X160908510Y-69013543D01*
X160908511Y-69013545D01*
X160988260Y-69105580D01*
X160997088Y-69115767D01*
X161110881Y-69188898D01*
X161175775Y-69207952D01*
X161240668Y-69227007D01*
X161240669Y-69227007D01*
X161375935Y-69227007D01*
X161505723Y-69188898D01*
X161619516Y-69115767D01*
X161708097Y-69013540D01*
X161764289Y-68890497D01*
X161783539Y-68756607D01*
X161764289Y-68622717D01*
X161764288Y-68622716D01*
X161764288Y-68622713D01*
X161736193Y-68561195D01*
X161708097Y-68499674D01*
X161701717Y-68492311D01*
X161619518Y-68397449D01*
X161619513Y-68397445D01*
X161587934Y-68377150D01*
X161505723Y-68324316D01*
X161505722Y-68324315D01*
X161505721Y-68324315D01*
X161375936Y-68286207D01*
X161375935Y-68286207D01*
X161240669Y-68286207D01*
X161240668Y-68286207D01*
X161110882Y-68324315D01*
X160997081Y-68397450D01*
X160995185Y-68399094D01*
X160992904Y-68400135D01*
X160989628Y-68402241D01*
X160989325Y-68401769D01*
X160931627Y-68428114D01*
X160910637Y-68425094D01*
X160918311Y-68451226D01*
X160907105Y-68502743D01*
X160852315Y-68622713D01*
X160852314Y-68622718D01*
X160833065Y-68756607D01*
X159927738Y-68756607D01*
X159929203Y-68746419D01*
X159909953Y-68612529D01*
X159909952Y-68612528D01*
X159909952Y-68612525D01*
X159859815Y-68502743D01*
X159853761Y-68489486D01*
X159840851Y-68474587D01*
X159765182Y-68387261D01*
X159765177Y-68387257D01*
X159721459Y-68359161D01*
X159651387Y-68314128D01*
X159651386Y-68314127D01*
X159651385Y-68314127D01*
X159521600Y-68276019D01*
X159521599Y-68276019D01*
X159386333Y-68276019D01*
X159386332Y-68276019D01*
X159256546Y-68314127D01*
X159142745Y-68387262D01*
X159140849Y-68388906D01*
X159138568Y-68389947D01*
X159135292Y-68392053D01*
X159134989Y-68391581D01*
X159077291Y-68417926D01*
X159056301Y-68414906D01*
X159063975Y-68441038D01*
X159052769Y-68492555D01*
X158997979Y-68612525D01*
X158997978Y-68612530D01*
X158978729Y-68746419D01*
X158103480Y-68746419D01*
X158105623Y-68731516D01*
X158086373Y-68597626D01*
X158086371Y-68597622D01*
X158043041Y-68502743D01*
X158038276Y-68492310D01*
X158028333Y-68423153D01*
X158039133Y-68399505D01*
X157990043Y-68399505D01*
X157949071Y-68377132D01*
X157949060Y-68377150D01*
X157948815Y-68376993D01*
X157943774Y-68374240D01*
X157941602Y-68372358D01*
X157941600Y-68372356D01*
X157827807Y-68299225D01*
X157827806Y-68299224D01*
X157827805Y-68299224D01*
X157698020Y-68261116D01*
X157698019Y-68261116D01*
X157562753Y-68261116D01*
X157562752Y-68261116D01*
X157432966Y-68299224D01*
X157319174Y-68372354D01*
X157319169Y-68372358D01*
X157230595Y-68474577D01*
X157230589Y-68474587D01*
X157174399Y-68597622D01*
X157174398Y-68597627D01*
X157155149Y-68731516D01*
X155650000Y-68731516D01*
X155650000Y-67989812D01*
X158070427Y-67989812D01*
X158089676Y-68123700D01*
X158089677Y-68123705D01*
X158137772Y-68229016D01*
X158147716Y-68298175D01*
X158136917Y-68321822D01*
X158186005Y-68321822D01*
X158226978Y-68344195D01*
X158226990Y-68344178D01*
X158227234Y-68344335D01*
X158232276Y-68347088D01*
X158234451Y-68348973D01*
X158250304Y-68359161D01*
X158348243Y-68422103D01*
X158412730Y-68441038D01*
X158478030Y-68460212D01*
X158478031Y-68460212D01*
X158613297Y-68460212D01*
X158743085Y-68422103D01*
X158856878Y-68348972D01*
X158856880Y-68348969D01*
X158858768Y-68347334D01*
X158861046Y-68346293D01*
X158864338Y-68344178D01*
X158864642Y-68344651D01*
X158922323Y-68318306D01*
X158943329Y-68321325D01*
X158935654Y-68295177D01*
X158946858Y-68243680D01*
X159001651Y-68123702D01*
X159019436Y-68000000D01*
X159924763Y-68000000D01*
X159944012Y-68133888D01*
X159944013Y-68133893D01*
X159987456Y-68229016D01*
X160000205Y-68256933D01*
X160000208Y-68256936D01*
X160000209Y-68256938D01*
X160087366Y-68357522D01*
X160088786Y-68359160D01*
X160202579Y-68432291D01*
X160232369Y-68441038D01*
X160332366Y-68470400D01*
X160332367Y-68470400D01*
X160467633Y-68470400D01*
X160597421Y-68432291D01*
X160711214Y-68359160D01*
X160711216Y-68359157D01*
X160713104Y-68357522D01*
X160715382Y-68356481D01*
X160718674Y-68354366D01*
X160718978Y-68354839D01*
X160776659Y-68328494D01*
X160797665Y-68331513D01*
X160789990Y-68305365D01*
X160801194Y-68253868D01*
X160855987Y-68133890D01*
X160875237Y-68000000D01*
X160855987Y-67866110D01*
X160855986Y-67866109D01*
X160855986Y-67866106D01*
X160827891Y-67804588D01*
X160799795Y-67743067D01*
X160799790Y-67743061D01*
X160711216Y-67640842D01*
X160711211Y-67640838D01*
X160646532Y-67599271D01*
X160597421Y-67567709D01*
X160597420Y-67567708D01*
X160597419Y-67567708D01*
X160467634Y-67529600D01*
X160467633Y-67529600D01*
X160332367Y-67529600D01*
X160332366Y-67529600D01*
X160202580Y-67567708D01*
X160088788Y-67640838D01*
X160088783Y-67640842D01*
X160000209Y-67743061D01*
X160000203Y-67743071D01*
X159944013Y-67866106D01*
X159944012Y-67866111D01*
X159924763Y-68000000D01*
X159019436Y-68000000D01*
X159020901Y-67989812D01*
X159001651Y-67855922D01*
X159001650Y-67855921D01*
X159001650Y-67855918D01*
X158973555Y-67794400D01*
X158945459Y-67732879D01*
X158865706Y-67640840D01*
X158856880Y-67630654D01*
X158856875Y-67630650D01*
X158764603Y-67571350D01*
X158743085Y-67557521D01*
X158743084Y-67557520D01*
X158743083Y-67557520D01*
X158613298Y-67519412D01*
X158613297Y-67519412D01*
X158478031Y-67519412D01*
X158478030Y-67519412D01*
X158348244Y-67557520D01*
X158234452Y-67630650D01*
X158234447Y-67630654D01*
X158145873Y-67732873D01*
X158145867Y-67732883D01*
X158089677Y-67855918D01*
X158089676Y-67855923D01*
X158070427Y-67989812D01*
X155650000Y-67989812D01*
X155650000Y-67113968D01*
X157123072Y-67113968D01*
X157142321Y-67247856D01*
X157142322Y-67247861D01*
X157188880Y-67349806D01*
X157198514Y-67370901D01*
X157198517Y-67370904D01*
X157198518Y-67370906D01*
X157220255Y-67395992D01*
X157287095Y-67473128D01*
X157400888Y-67546259D01*
X157439240Y-67557520D01*
X157530675Y-67584368D01*
X157530676Y-67584368D01*
X157665942Y-67584368D01*
X157795730Y-67546259D01*
X157909523Y-67473128D01*
X157998104Y-67370901D01*
X158054296Y-67247858D01*
X158071403Y-67128871D01*
X158946652Y-67128871D01*
X158965901Y-67262759D01*
X158965902Y-67262764D01*
X159012460Y-67364709D01*
X159022094Y-67385804D01*
X159022097Y-67385807D01*
X159022098Y-67385809D01*
X159097758Y-67473125D01*
X159110675Y-67488031D01*
X159224468Y-67561162D01*
X159289362Y-67580216D01*
X159354255Y-67599271D01*
X159354256Y-67599271D01*
X159489522Y-67599271D01*
X159619310Y-67561162D01*
X159733103Y-67488031D01*
X159821684Y-67385804D01*
X159873222Y-67272952D01*
X159877875Y-67262764D01*
X159877876Y-67262759D01*
X159880018Y-67247861D01*
X159895661Y-67139059D01*
X160800988Y-67139059D01*
X160820237Y-67272947D01*
X160820238Y-67272952D01*
X160864969Y-67370896D01*
X160876430Y-67395992D01*
X160876433Y-67395995D01*
X160876434Y-67395997D01*
X160956183Y-67488032D01*
X160965011Y-67498219D01*
X161078804Y-67571350D01*
X161143698Y-67590404D01*
X161208591Y-67609459D01*
X161208592Y-67609459D01*
X161343858Y-67609459D01*
X161473646Y-67571350D01*
X161587439Y-67498219D01*
X161676020Y-67395992D01*
X161732212Y-67272949D01*
X161751462Y-67139059D01*
X161732212Y-67005169D01*
X161732211Y-67005168D01*
X161732211Y-67005165D01*
X161704116Y-66943647D01*
X161676020Y-66882126D01*
X161669640Y-66874763D01*
X161587441Y-66779901D01*
X161587436Y-66779897D01*
X161555857Y-66759602D01*
X161473646Y-66706768D01*
X161473645Y-66706767D01*
X161473644Y-66706767D01*
X161343859Y-66668659D01*
X161343858Y-66668659D01*
X161208592Y-66668659D01*
X161208591Y-66668659D01*
X161078805Y-66706767D01*
X160965004Y-66779902D01*
X160963108Y-66781546D01*
X160960827Y-66782587D01*
X160957551Y-66784693D01*
X160957248Y-66784221D01*
X160899550Y-66810566D01*
X160878560Y-66807546D01*
X160886234Y-66833678D01*
X160875028Y-66885195D01*
X160820238Y-67005165D01*
X160820237Y-67005170D01*
X160800988Y-67139059D01*
X159895661Y-67139059D01*
X159897126Y-67128871D01*
X159877876Y-66994981D01*
X159877875Y-66994980D01*
X159877875Y-66994977D01*
X159827738Y-66885195D01*
X159821684Y-66871938D01*
X159808774Y-66857039D01*
X159733105Y-66769713D01*
X159733100Y-66769709D01*
X159689382Y-66741613D01*
X159619310Y-66696580D01*
X159619309Y-66696579D01*
X159619308Y-66696579D01*
X159489523Y-66658471D01*
X159489522Y-66658471D01*
X159354256Y-66658471D01*
X159354255Y-66658471D01*
X159224469Y-66696579D01*
X159110668Y-66769714D01*
X159108772Y-66771358D01*
X159106491Y-66772399D01*
X159103215Y-66774505D01*
X159102912Y-66774033D01*
X159045214Y-66800378D01*
X159024224Y-66797358D01*
X159031898Y-66823490D01*
X159020692Y-66875007D01*
X158965902Y-66994977D01*
X158965901Y-66994982D01*
X158946652Y-67128871D01*
X158071403Y-67128871D01*
X158073546Y-67113968D01*
X158054296Y-66980078D01*
X158054294Y-66980074D01*
X158010964Y-66885195D01*
X158006199Y-66874762D01*
X157996256Y-66805605D01*
X158007056Y-66781957D01*
X157957966Y-66781957D01*
X157916994Y-66759584D01*
X157916983Y-66759602D01*
X157916738Y-66759445D01*
X157911697Y-66756692D01*
X157909525Y-66754810D01*
X157909523Y-66754808D01*
X157795730Y-66681677D01*
X157795729Y-66681676D01*
X157795728Y-66681676D01*
X157665943Y-66643568D01*
X157665942Y-66643568D01*
X157530676Y-66643568D01*
X157530675Y-66643568D01*
X157400889Y-66681676D01*
X157287097Y-66754806D01*
X157287092Y-66754810D01*
X157198518Y-66857029D01*
X157198512Y-66857039D01*
X157142322Y-66980074D01*
X157142321Y-66980079D01*
X157123072Y-67113968D01*
X155650000Y-67113968D01*
X155650000Y-66372264D01*
X158038350Y-66372264D01*
X158057599Y-66506152D01*
X158057600Y-66506157D01*
X158105695Y-66611468D01*
X158115639Y-66680627D01*
X158104840Y-66704274D01*
X158153928Y-66704274D01*
X158194901Y-66726647D01*
X158194913Y-66726630D01*
X158195157Y-66726787D01*
X158200199Y-66729540D01*
X158202374Y-66731425D01*
X158218227Y-66741613D01*
X158316166Y-66804555D01*
X158380653Y-66823490D01*
X158445953Y-66842664D01*
X158445954Y-66842664D01*
X158581220Y-66842664D01*
X158711008Y-66804555D01*
X158824801Y-66731424D01*
X158824803Y-66731421D01*
X158826691Y-66729786D01*
X158828969Y-66728745D01*
X158832261Y-66726630D01*
X158832565Y-66727103D01*
X158890246Y-66700758D01*
X158911252Y-66703777D01*
X158903577Y-66677629D01*
X158914781Y-66626132D01*
X158969574Y-66506154D01*
X158987359Y-66382452D01*
X159892686Y-66382452D01*
X159911935Y-66516340D01*
X159911936Y-66516345D01*
X159955379Y-66611468D01*
X159968128Y-66639385D01*
X159968131Y-66639388D01*
X159968132Y-66639390D01*
X160055289Y-66739974D01*
X160056709Y-66741612D01*
X160170502Y-66814743D01*
X160200292Y-66823490D01*
X160300289Y-66852852D01*
X160300290Y-66852852D01*
X160435556Y-66852852D01*
X160565344Y-66814743D01*
X160679137Y-66741612D01*
X160679139Y-66741609D01*
X160681027Y-66739974D01*
X160683305Y-66738933D01*
X160686597Y-66736818D01*
X160686901Y-66737291D01*
X160744582Y-66710946D01*
X160765588Y-66713965D01*
X160757913Y-66687817D01*
X160769117Y-66636320D01*
X160823910Y-66516342D01*
X160843160Y-66382452D01*
X160823910Y-66248562D01*
X160823909Y-66248561D01*
X160823909Y-66248558D01*
X160795814Y-66187040D01*
X160767718Y-66125519D01*
X160767713Y-66125513D01*
X160679139Y-66023294D01*
X160679134Y-66023290D01*
X160565342Y-65950160D01*
X160435557Y-65912052D01*
X160435556Y-65912052D01*
X160300290Y-65912052D01*
X160300289Y-65912052D01*
X160170503Y-65950160D01*
X160056711Y-66023290D01*
X160056706Y-66023294D01*
X159968132Y-66125513D01*
X159968126Y-66125523D01*
X159911936Y-66248558D01*
X159911935Y-66248563D01*
X159892686Y-66382452D01*
X158987359Y-66382452D01*
X158988824Y-66372264D01*
X158969574Y-66238374D01*
X158969573Y-66238373D01*
X158969573Y-66238370D01*
X158941478Y-66176852D01*
X158913382Y-66115331D01*
X158833629Y-66023292D01*
X158824803Y-66013106D01*
X158824798Y-66013102D01*
X158773342Y-65980033D01*
X158711008Y-65939973D01*
X158711007Y-65939972D01*
X158711006Y-65939972D01*
X158581221Y-65901864D01*
X158581220Y-65901864D01*
X158445954Y-65901864D01*
X158445953Y-65901864D01*
X158316167Y-65939972D01*
X158202375Y-66013102D01*
X158202370Y-66013106D01*
X158113796Y-66115325D01*
X158113790Y-66115335D01*
X158057600Y-66238370D01*
X158057599Y-66238375D01*
X158038350Y-66372264D01*
X155650000Y-66372264D01*
X155650000Y-65547742D01*
X157087031Y-65547742D01*
X157106280Y-65681630D01*
X157106281Y-65681635D01*
X157152839Y-65783580D01*
X157162473Y-65804675D01*
X157162476Y-65804678D01*
X157162477Y-65804680D01*
X157246688Y-65901864D01*
X157251054Y-65906902D01*
X157364847Y-65980033D01*
X157415602Y-65994936D01*
X157494634Y-66018142D01*
X157494635Y-66018142D01*
X157629901Y-66018142D01*
X157759689Y-65980033D01*
X157873482Y-65906902D01*
X157962063Y-65804675D01*
X158018255Y-65681632D01*
X158035362Y-65562645D01*
X158910611Y-65562645D01*
X158929860Y-65696533D01*
X158929861Y-65696538D01*
X158976419Y-65798483D01*
X158986053Y-65819578D01*
X158986056Y-65819581D01*
X158986057Y-65819583D01*
X159061717Y-65906899D01*
X159074634Y-65921805D01*
X159188427Y-65994936D01*
X159250295Y-66013102D01*
X159318214Y-66033045D01*
X159318215Y-66033045D01*
X159453481Y-66033045D01*
X159583269Y-65994936D01*
X159697062Y-65921805D01*
X159785643Y-65819578D01*
X159837181Y-65706726D01*
X159841834Y-65696538D01*
X159841835Y-65696533D01*
X159843977Y-65681635D01*
X159859620Y-65572833D01*
X160764947Y-65572833D01*
X160784196Y-65706721D01*
X160784197Y-65706726D01*
X160828928Y-65804670D01*
X160840389Y-65829766D01*
X160840392Y-65829769D01*
X160840393Y-65829771D01*
X160920142Y-65921806D01*
X160928970Y-65931993D01*
X161042763Y-66005124D01*
X161104631Y-66023290D01*
X161172550Y-66043233D01*
X161172551Y-66043233D01*
X161307817Y-66043233D01*
X161437605Y-66005124D01*
X161551398Y-65931993D01*
X161639979Y-65829766D01*
X161696171Y-65706723D01*
X161715421Y-65572833D01*
X161696171Y-65438943D01*
X161696170Y-65438942D01*
X161696170Y-65438939D01*
X161668075Y-65377421D01*
X161639979Y-65315900D01*
X161639974Y-65315894D01*
X161551400Y-65213675D01*
X161551395Y-65213671D01*
X161437603Y-65140541D01*
X161307818Y-65102433D01*
X161307817Y-65102433D01*
X161172551Y-65102433D01*
X161172550Y-65102433D01*
X161042764Y-65140541D01*
X160928972Y-65213671D01*
X160928967Y-65213675D01*
X160840393Y-65315894D01*
X160840387Y-65315904D01*
X160784197Y-65438939D01*
X160784196Y-65438944D01*
X160764947Y-65572833D01*
X159859620Y-65572833D01*
X159861085Y-65562645D01*
X159841835Y-65428755D01*
X159841834Y-65428754D01*
X159841834Y-65428751D01*
X159813739Y-65367233D01*
X159785643Y-65305712D01*
X159772733Y-65290813D01*
X159697064Y-65203487D01*
X159697059Y-65203483D01*
X159673870Y-65188580D01*
X159583269Y-65130354D01*
X159583268Y-65130353D01*
X159583267Y-65130353D01*
X159453482Y-65092245D01*
X159453481Y-65092245D01*
X159318215Y-65092245D01*
X159318214Y-65092245D01*
X159188428Y-65130353D01*
X159074636Y-65203483D01*
X159074631Y-65203487D01*
X158986057Y-65305706D01*
X158986051Y-65305716D01*
X158929861Y-65428751D01*
X158929860Y-65428756D01*
X158910611Y-65562645D01*
X158035362Y-65562645D01*
X158037505Y-65547742D01*
X158018255Y-65413852D01*
X158018254Y-65413851D01*
X158018254Y-65413848D01*
X157990159Y-65352330D01*
X157962063Y-65290809D01*
X157962058Y-65290803D01*
X157873484Y-65188584D01*
X157873479Y-65188580D01*
X157782878Y-65130354D01*
X157759689Y-65115451D01*
X157759688Y-65115450D01*
X157759687Y-65115450D01*
X157629902Y-65077342D01*
X157629901Y-65077342D01*
X157494635Y-65077342D01*
X157494634Y-65077342D01*
X157364848Y-65115450D01*
X157251056Y-65188580D01*
X157251051Y-65188584D01*
X157162477Y-65290803D01*
X157162471Y-65290813D01*
X157106281Y-65413848D01*
X157106280Y-65413853D01*
X157087031Y-65547742D01*
X155650000Y-65547742D01*
X155650000Y-63804000D01*
X155669685Y-63736961D01*
X155722489Y-63691206D01*
X155774000Y-63680000D01*
X163246000Y-63680000D01*
X163313039Y-63699685D01*
G37*
G04 #@! TD.AperFunction*
G04 #@! TA.AperFunction,Conductor*
G36*
X163366639Y-54782085D02*
G01*
X163412394Y-54834889D01*
X163423600Y-54886400D01*
X163423600Y-58651600D01*
X163403915Y-58718639D01*
X163351111Y-58764394D01*
X163299600Y-58775600D01*
X157705600Y-58775600D01*
X157638561Y-58755915D01*
X157592806Y-58703111D01*
X157581600Y-58651600D01*
X157581600Y-54886400D01*
X157601285Y-54819361D01*
X157654089Y-54773606D01*
X157705600Y-54762400D01*
X163299600Y-54762400D01*
X163366639Y-54782085D01*
G37*
G04 #@! TD.AperFunction*
G04 #@! TA.AperFunction,Conductor*
G36*
X163366639Y-59049285D02*
G01*
X163412394Y-59102089D01*
X163423600Y-59153600D01*
X163423600Y-62918800D01*
X163403915Y-62985839D01*
X163351111Y-63031594D01*
X163299600Y-63042800D01*
X157705600Y-63042800D01*
X157638561Y-63023115D01*
X157592806Y-62970311D01*
X157581600Y-62918800D01*
X157581600Y-59153600D01*
X157601285Y-59086561D01*
X157654089Y-59040806D01*
X157705600Y-59029600D01*
X163299600Y-59029600D01*
X163366639Y-59049285D01*
G37*
G04 #@! TD.AperFunction*
G04 #@! TA.AperFunction,Conductor*
G36*
X164943039Y-22019685D02*
G01*
X164988794Y-22072489D01*
X165000000Y-22124000D01*
X165000000Y-86376000D01*
X164980315Y-86443039D01*
X164927511Y-86488794D01*
X164876000Y-86500000D01*
X127624000Y-86500000D01*
X127556961Y-86480315D01*
X127511206Y-86427511D01*
X127500000Y-86376000D01*
X127500000Y-83870800D01*
X137243563Y-83870800D01*
X137262812Y-84004688D01*
X137262813Y-84004693D01*
X137298194Y-84082164D01*
X137319005Y-84127733D01*
X137407586Y-84229960D01*
X137521379Y-84303091D01*
X137586273Y-84322145D01*
X137651166Y-84341200D01*
X137651167Y-84341200D01*
X137786433Y-84341200D01*
X137916221Y-84303091D01*
X138030014Y-84229960D01*
X138118595Y-84127733D01*
X138139406Y-84082162D01*
X138185160Y-84029360D01*
X138252200Y-84009675D01*
X138319239Y-84029359D01*
X138364993Y-84082162D01*
X138385805Y-84127733D01*
X138474386Y-84229960D01*
X138588179Y-84303091D01*
X138653073Y-84322145D01*
X138717966Y-84341200D01*
X138717967Y-84341200D01*
X138853233Y-84341200D01*
X138983021Y-84303091D01*
X139096814Y-84229960D01*
X139185395Y-84127733D01*
X139224680Y-84041711D01*
X139231606Y-84026546D01*
X139277361Y-83973742D01*
X139344400Y-83954058D01*
X139411440Y-83973743D01*
X139457194Y-84026546D01*
X139464120Y-84041711D01*
X139503405Y-84127733D01*
X139591986Y-84229960D01*
X139705779Y-84303091D01*
X139770673Y-84322145D01*
X139835566Y-84341200D01*
X139835567Y-84341200D01*
X139970833Y-84341200D01*
X140100621Y-84303091D01*
X140214414Y-84229960D01*
X140302995Y-84127733D01*
X140342280Y-84041711D01*
X140349206Y-84026546D01*
X140394961Y-83973742D01*
X140462000Y-83954058D01*
X140529040Y-83973743D01*
X140574794Y-84026546D01*
X140581720Y-84041711D01*
X140621005Y-84127733D01*
X140709586Y-84229960D01*
X140823379Y-84303091D01*
X140888273Y-84322145D01*
X140953166Y-84341200D01*
X140953167Y-84341200D01*
X141088433Y-84341200D01*
X141218221Y-84303091D01*
X141332014Y-84229960D01*
X141379118Y-84175600D01*
X150705563Y-84175600D01*
X150724812Y-84309488D01*
X150724813Y-84309493D01*
X150771371Y-84411438D01*
X150781005Y-84432533D01*
X150869586Y-84534760D01*
X150983379Y-84607891D01*
X151048273Y-84626945D01*
X151113166Y-84646000D01*
X151113167Y-84646000D01*
X151248433Y-84646000D01*
X151378221Y-84607891D01*
X151492014Y-84534760D01*
X151580595Y-84432533D01*
X151636787Y-84309490D01*
X151656037Y-84175600D01*
X154007563Y-84175600D01*
X154026812Y-84309488D01*
X154026813Y-84309493D01*
X154073371Y-84411438D01*
X154083005Y-84432533D01*
X154171586Y-84534760D01*
X154285379Y-84607891D01*
X154350273Y-84626945D01*
X154415166Y-84646000D01*
X154415167Y-84646000D01*
X154550433Y-84646000D01*
X154680221Y-84607891D01*
X154794014Y-84534760D01*
X154882595Y-84432533D01*
X154938787Y-84309490D01*
X154958037Y-84175600D01*
X154938787Y-84041710D01*
X154938786Y-84041709D01*
X154938786Y-84041706D01*
X154907747Y-83973742D01*
X154882595Y-83918667D01*
X154794014Y-83816440D01*
X154680221Y-83743309D01*
X154680220Y-83743308D01*
X154680219Y-83743308D01*
X154550434Y-83705200D01*
X154550433Y-83705200D01*
X154415167Y-83705200D01*
X154415166Y-83705200D01*
X154285380Y-83743308D01*
X154171588Y-83816438D01*
X154171583Y-83816442D01*
X154083009Y-83918661D01*
X154083003Y-83918671D01*
X154026813Y-84041706D01*
X154026812Y-84041711D01*
X154007563Y-84175600D01*
X151656037Y-84175600D01*
X151636787Y-84041710D01*
X151636786Y-84041709D01*
X151636786Y-84041706D01*
X151605747Y-83973742D01*
X151580595Y-83918667D01*
X151492014Y-83816440D01*
X151378221Y-83743309D01*
X151378220Y-83743308D01*
X151378219Y-83743308D01*
X151248434Y-83705200D01*
X151248433Y-83705200D01*
X151113167Y-83705200D01*
X151113166Y-83705200D01*
X150983380Y-83743308D01*
X150869588Y-83816438D01*
X150869583Y-83816442D01*
X150781009Y-83918661D01*
X150781003Y-83918671D01*
X150724813Y-84041706D01*
X150724812Y-84041711D01*
X150705563Y-84175600D01*
X141379118Y-84175600D01*
X141420595Y-84127733D01*
X141466806Y-84026546D01*
X141476786Y-84004693D01*
X141476787Y-84004688D01*
X141481236Y-83973743D01*
X141496037Y-83870800D01*
X141476787Y-83736910D01*
X141476786Y-83736909D01*
X141476786Y-83736906D01*
X141441406Y-83659436D01*
X141420595Y-83613867D01*
X141332014Y-83511640D01*
X141218221Y-83438509D01*
X141218220Y-83438508D01*
X141218219Y-83438508D01*
X141088434Y-83400400D01*
X141088433Y-83400400D01*
X140953167Y-83400400D01*
X140953166Y-83400400D01*
X140823380Y-83438508D01*
X140709588Y-83511638D01*
X140709583Y-83511642D01*
X140621009Y-83613861D01*
X140621002Y-83613871D01*
X140574794Y-83715053D01*
X140529039Y-83767857D01*
X140461999Y-83787541D01*
X140394960Y-83767856D01*
X140349206Y-83715053D01*
X140302997Y-83613871D01*
X140302996Y-83613870D01*
X140302995Y-83613867D01*
X140214414Y-83511640D01*
X140100621Y-83438509D01*
X140100620Y-83438508D01*
X140100619Y-83438508D01*
X139970834Y-83400400D01*
X139970833Y-83400400D01*
X139835567Y-83400400D01*
X139835566Y-83400400D01*
X139705780Y-83438508D01*
X139591988Y-83511638D01*
X139591983Y-83511642D01*
X139503409Y-83613861D01*
X139503402Y-83613871D01*
X139457194Y-83715053D01*
X139411439Y-83767857D01*
X139344399Y-83787541D01*
X139277360Y-83767856D01*
X139231606Y-83715053D01*
X139185397Y-83613871D01*
X139185396Y-83613870D01*
X139185395Y-83613867D01*
X139096814Y-83511640D01*
X138983021Y-83438509D01*
X138983020Y-83438508D01*
X138983019Y-83438508D01*
X138853234Y-83400400D01*
X138853233Y-83400400D01*
X138717967Y-83400400D01*
X138717966Y-83400400D01*
X138588180Y-83438508D01*
X138474388Y-83511638D01*
X138474383Y-83511642D01*
X138385809Y-83613861D01*
X138385803Y-83613871D01*
X138364994Y-83659436D01*
X138319239Y-83712240D01*
X138252200Y-83731924D01*
X138185160Y-83712239D01*
X138139406Y-83659436D01*
X138134121Y-83647865D01*
X138118595Y-83613867D01*
X138030014Y-83511640D01*
X137916221Y-83438509D01*
X137916220Y-83438508D01*
X137916219Y-83438508D01*
X137786434Y-83400400D01*
X137786433Y-83400400D01*
X137651167Y-83400400D01*
X137651166Y-83400400D01*
X137521380Y-83438508D01*
X137407588Y-83511638D01*
X137407583Y-83511642D01*
X137319009Y-83613861D01*
X137319003Y-83613871D01*
X137262813Y-83736906D01*
X137262812Y-83736911D01*
X137243563Y-83870800D01*
X127500000Y-83870800D01*
X127500000Y-82753200D01*
X137853163Y-82753200D01*
X137872412Y-82887088D01*
X137872413Y-82887093D01*
X137907794Y-82964564D01*
X137928605Y-83010133D01*
X138017186Y-83112360D01*
X138130979Y-83185491D01*
X138195873Y-83204545D01*
X138260766Y-83223600D01*
X138260767Y-83223600D01*
X138396033Y-83223600D01*
X138525821Y-83185491D01*
X138639614Y-83112360D01*
X138728195Y-83010133D01*
X138749006Y-82964562D01*
X138794760Y-82911760D01*
X138861800Y-82892075D01*
X138928839Y-82911759D01*
X138974593Y-82964562D01*
X138995405Y-83010133D01*
X139083986Y-83112360D01*
X139197779Y-83185491D01*
X139262673Y-83204545D01*
X139327566Y-83223600D01*
X139327567Y-83223600D01*
X139462833Y-83223600D01*
X139592621Y-83185491D01*
X139706414Y-83112360D01*
X139794995Y-83010133D01*
X139834280Y-82924111D01*
X139841206Y-82908946D01*
X139886961Y-82856142D01*
X139954000Y-82836458D01*
X140021040Y-82856143D01*
X140066794Y-82908946D01*
X140073720Y-82924111D01*
X140113005Y-83010133D01*
X140201586Y-83112360D01*
X140315379Y-83185491D01*
X140380273Y-83204545D01*
X140445166Y-83223600D01*
X140445167Y-83223600D01*
X140580433Y-83223600D01*
X140710221Y-83185491D01*
X140824014Y-83112360D01*
X140912595Y-83010133D01*
X140951880Y-82924111D01*
X140958806Y-82908946D01*
X141004561Y-82856142D01*
X141071600Y-82836458D01*
X141138640Y-82856143D01*
X141184394Y-82908946D01*
X141191320Y-82924111D01*
X141230605Y-83010133D01*
X141319186Y-83112360D01*
X141432979Y-83185491D01*
X141497873Y-83204545D01*
X141562766Y-83223600D01*
X141562767Y-83223600D01*
X141698033Y-83223600D01*
X141827821Y-83185491D01*
X141941614Y-83112360D01*
X141988718Y-83058000D01*
X151315163Y-83058000D01*
X151334412Y-83191888D01*
X151334413Y-83191893D01*
X151380971Y-83293838D01*
X151390605Y-83314933D01*
X151479186Y-83417160D01*
X151592979Y-83490291D01*
X151657873Y-83509345D01*
X151722766Y-83528400D01*
X151722767Y-83528400D01*
X151858033Y-83528400D01*
X151987821Y-83490291D01*
X152101614Y-83417160D01*
X152190195Y-83314933D01*
X152246387Y-83191890D01*
X152265637Y-83058000D01*
X153499563Y-83058000D01*
X153518812Y-83191888D01*
X153518813Y-83191893D01*
X153565371Y-83293838D01*
X153575005Y-83314933D01*
X153663586Y-83417160D01*
X153777379Y-83490291D01*
X153842273Y-83509345D01*
X153907166Y-83528400D01*
X153907167Y-83528400D01*
X154042433Y-83528400D01*
X154172221Y-83490291D01*
X154286014Y-83417160D01*
X154374595Y-83314933D01*
X154411435Y-83234264D01*
X154420806Y-83213746D01*
X154466561Y-83160942D01*
X154533600Y-83141258D01*
X154600640Y-83160943D01*
X154646394Y-83213746D01*
X154671128Y-83267906D01*
X154692605Y-83314933D01*
X154781186Y-83417160D01*
X154894979Y-83490291D01*
X154959873Y-83509345D01*
X155024766Y-83528400D01*
X155024767Y-83528400D01*
X155160033Y-83528400D01*
X155289821Y-83490291D01*
X155403614Y-83417160D01*
X155492195Y-83314933D01*
X155548387Y-83191890D01*
X155567637Y-83058000D01*
X155548387Y-82924110D01*
X155548386Y-82924109D01*
X155548386Y-82924106D01*
X155517347Y-82856142D01*
X155492195Y-82801067D01*
X155403614Y-82698840D01*
X155289821Y-82625709D01*
X155289820Y-82625708D01*
X155289819Y-82625708D01*
X155160034Y-82587600D01*
X155160033Y-82587600D01*
X155024767Y-82587600D01*
X155024766Y-82587600D01*
X154894980Y-82625708D01*
X154781188Y-82698838D01*
X154781183Y-82698842D01*
X154692609Y-82801061D01*
X154692602Y-82801071D01*
X154646394Y-82902253D01*
X154600639Y-82955057D01*
X154533599Y-82974741D01*
X154466560Y-82955056D01*
X154420806Y-82902253D01*
X154374597Y-82801071D01*
X154374596Y-82801070D01*
X154374595Y-82801067D01*
X154286014Y-82698840D01*
X154172221Y-82625709D01*
X154172220Y-82625708D01*
X154172219Y-82625708D01*
X154042434Y-82587600D01*
X154042433Y-82587600D01*
X153907167Y-82587600D01*
X153907166Y-82587600D01*
X153777380Y-82625708D01*
X153663588Y-82698838D01*
X153663583Y-82698842D01*
X153575009Y-82801061D01*
X153575003Y-82801071D01*
X153518813Y-82924106D01*
X153518812Y-82924111D01*
X153499563Y-83058000D01*
X152265637Y-83058000D01*
X152246387Y-82924110D01*
X152246386Y-82924109D01*
X152246386Y-82924106D01*
X152215347Y-82856142D01*
X152190195Y-82801067D01*
X152101614Y-82698840D01*
X151987821Y-82625709D01*
X151987820Y-82625708D01*
X151987819Y-82625708D01*
X151858034Y-82587600D01*
X151858033Y-82587600D01*
X151722767Y-82587600D01*
X151722766Y-82587600D01*
X151592980Y-82625708D01*
X151479188Y-82698838D01*
X151479183Y-82698842D01*
X151390609Y-82801061D01*
X151390603Y-82801071D01*
X151334413Y-82924106D01*
X151334412Y-82924111D01*
X151315163Y-83058000D01*
X141988718Y-83058000D01*
X142030195Y-83010133D01*
X142079462Y-82902253D01*
X142086386Y-82887093D01*
X142086387Y-82887088D01*
X142090836Y-82856143D01*
X142105637Y-82753200D01*
X142086387Y-82619310D01*
X142086386Y-82619309D01*
X142086386Y-82619306D01*
X142051006Y-82541836D01*
X142030195Y-82496267D01*
X141941614Y-82394040D01*
X141827821Y-82320909D01*
X141827820Y-82320908D01*
X141827819Y-82320908D01*
X141698034Y-82282800D01*
X141698033Y-82282800D01*
X141562767Y-82282800D01*
X141562766Y-82282800D01*
X141432980Y-82320908D01*
X141319188Y-82394038D01*
X141319183Y-82394042D01*
X141230609Y-82496261D01*
X141230602Y-82496271D01*
X141184394Y-82597453D01*
X141138639Y-82650257D01*
X141071599Y-82669941D01*
X141004560Y-82650256D01*
X140958806Y-82597453D01*
X140912597Y-82496271D01*
X140912596Y-82496270D01*
X140912595Y-82496267D01*
X140824014Y-82394040D01*
X140710221Y-82320909D01*
X140710220Y-82320908D01*
X140710219Y-82320908D01*
X140580434Y-82282800D01*
X140580433Y-82282800D01*
X140445167Y-82282800D01*
X140445166Y-82282800D01*
X140315380Y-82320908D01*
X140201588Y-82394038D01*
X140201583Y-82394042D01*
X140113009Y-82496261D01*
X140113002Y-82496271D01*
X140066794Y-82597453D01*
X140021039Y-82650257D01*
X139953999Y-82669941D01*
X139886960Y-82650256D01*
X139841206Y-82597453D01*
X139794997Y-82496271D01*
X139794996Y-82496270D01*
X139794995Y-82496267D01*
X139706414Y-82394040D01*
X139592621Y-82320909D01*
X139592620Y-82320908D01*
X139592619Y-82320908D01*
X139462834Y-82282800D01*
X139462833Y-82282800D01*
X139327567Y-82282800D01*
X139327566Y-82282800D01*
X139197780Y-82320908D01*
X139083988Y-82394038D01*
X139083983Y-82394042D01*
X138995409Y-82496261D01*
X138995403Y-82496271D01*
X138974594Y-82541836D01*
X138928839Y-82594640D01*
X138861800Y-82614324D01*
X138794760Y-82594639D01*
X138749006Y-82541836D01*
X138743721Y-82530265D01*
X138728195Y-82496267D01*
X138639614Y-82394040D01*
X138525821Y-82320909D01*
X138525820Y-82320908D01*
X138525819Y-82320908D01*
X138396034Y-82282800D01*
X138396033Y-82282800D01*
X138260767Y-82282800D01*
X138260766Y-82282800D01*
X138130980Y-82320908D01*
X138017188Y-82394038D01*
X138017183Y-82394042D01*
X137928609Y-82496261D01*
X137928603Y-82496271D01*
X137872413Y-82619306D01*
X137872412Y-82619311D01*
X137853163Y-82753200D01*
X127500000Y-82753200D01*
X127500000Y-81889600D01*
X150756363Y-81889600D01*
X150775612Y-82023488D01*
X150775613Y-82023493D01*
X150822171Y-82125438D01*
X150831805Y-82146533D01*
X150920386Y-82248760D01*
X151034179Y-82321891D01*
X151099073Y-82340945D01*
X151163966Y-82360000D01*
X151163967Y-82360000D01*
X151299233Y-82360000D01*
X151429021Y-82321891D01*
X151542814Y-82248760D01*
X151631395Y-82146533D01*
X151687587Y-82023490D01*
X151706837Y-81889600D01*
X154058363Y-81889600D01*
X154077612Y-82023488D01*
X154077613Y-82023493D01*
X154124171Y-82125438D01*
X154133805Y-82146533D01*
X154222386Y-82248760D01*
X154336179Y-82321891D01*
X154401073Y-82340945D01*
X154465966Y-82360000D01*
X154465967Y-82360000D01*
X154601233Y-82360000D01*
X154731021Y-82321891D01*
X154844814Y-82248760D01*
X154933395Y-82146533D01*
X154989587Y-82023490D01*
X155008837Y-81889600D01*
X154989587Y-81755710D01*
X154989586Y-81755709D01*
X154989586Y-81755706D01*
X154961491Y-81694188D01*
X154933395Y-81632667D01*
X154844814Y-81530440D01*
X154731021Y-81457309D01*
X154731020Y-81457308D01*
X154731019Y-81457308D01*
X154601234Y-81419200D01*
X154601233Y-81419200D01*
X154465967Y-81419200D01*
X154465966Y-81419200D01*
X154336180Y-81457308D01*
X154222388Y-81530438D01*
X154222383Y-81530442D01*
X154133809Y-81632661D01*
X154133803Y-81632671D01*
X154077613Y-81755706D01*
X154077612Y-81755711D01*
X154058363Y-81889600D01*
X151706837Y-81889600D01*
X151687587Y-81755710D01*
X151687586Y-81755709D01*
X151687586Y-81755706D01*
X151659491Y-81694188D01*
X151631395Y-81632667D01*
X151542814Y-81530440D01*
X151429021Y-81457309D01*
X151429020Y-81457308D01*
X151429019Y-81457308D01*
X151299234Y-81419200D01*
X151299233Y-81419200D01*
X151163967Y-81419200D01*
X151163966Y-81419200D01*
X151034180Y-81457308D01*
X150920388Y-81530438D01*
X150920383Y-81530442D01*
X150831809Y-81632661D01*
X150831803Y-81632671D01*
X150775613Y-81755706D01*
X150775612Y-81755711D01*
X150756363Y-81889600D01*
X127500000Y-81889600D01*
X127500000Y-80772000D01*
X153550363Y-80772000D01*
X153569612Y-80905888D01*
X153569613Y-80905893D01*
X153616171Y-81007838D01*
X153625805Y-81028933D01*
X153714386Y-81131160D01*
X153828179Y-81204291D01*
X153893073Y-81223345D01*
X153957966Y-81242400D01*
X153957967Y-81242400D01*
X154093233Y-81242400D01*
X154223021Y-81204291D01*
X154336814Y-81131160D01*
X154425395Y-81028933D01*
X154471606Y-80927746D01*
X154517361Y-80874942D01*
X154584400Y-80855258D01*
X154651440Y-80874943D01*
X154697194Y-80927746D01*
X154743405Y-81028933D01*
X154831986Y-81131160D01*
X154945779Y-81204291D01*
X155010673Y-81223345D01*
X155075566Y-81242400D01*
X155075567Y-81242400D01*
X155210833Y-81242400D01*
X155340621Y-81204291D01*
X155454414Y-81131160D01*
X155542995Y-81028933D01*
X155599187Y-80905890D01*
X155618437Y-80772000D01*
X155599187Y-80638110D01*
X155599186Y-80638109D01*
X155599186Y-80638106D01*
X155571091Y-80576588D01*
X155542995Y-80515067D01*
X155454414Y-80412840D01*
X155340621Y-80339709D01*
X155340620Y-80339708D01*
X155340619Y-80339708D01*
X155210834Y-80301600D01*
X155210833Y-80301600D01*
X155075567Y-80301600D01*
X155075566Y-80301600D01*
X154945780Y-80339708D01*
X154831988Y-80412838D01*
X154831983Y-80412842D01*
X154743409Y-80515061D01*
X154743402Y-80515071D01*
X154697194Y-80616253D01*
X154651439Y-80669057D01*
X154584399Y-80688741D01*
X154517360Y-80669056D01*
X154471606Y-80616253D01*
X154425397Y-80515071D01*
X154425396Y-80515070D01*
X154425395Y-80515067D01*
X154336814Y-80412840D01*
X154223021Y-80339709D01*
X154223020Y-80339708D01*
X154223019Y-80339708D01*
X154093234Y-80301600D01*
X154093233Y-80301600D01*
X153957967Y-80301600D01*
X153957966Y-80301600D01*
X153828180Y-80339708D01*
X153714388Y-80412838D01*
X153714383Y-80412842D01*
X153625809Y-80515061D01*
X153625803Y-80515071D01*
X153569613Y-80638106D01*
X153569612Y-80638111D01*
X153550363Y-80772000D01*
X127500000Y-80772000D01*
X127500000Y-79705200D01*
X150807163Y-79705200D01*
X150826412Y-79839088D01*
X150826413Y-79839093D01*
X150872971Y-79941038D01*
X150882605Y-79962133D01*
X150971186Y-80064360D01*
X151084979Y-80137491D01*
X151149873Y-80156545D01*
X151214766Y-80175600D01*
X151214767Y-80175600D01*
X151350033Y-80175600D01*
X151479821Y-80137491D01*
X151593614Y-80064360D01*
X151682195Y-79962133D01*
X151738387Y-79839090D01*
X151757637Y-79705200D01*
X151738387Y-79571310D01*
X151738386Y-79571309D01*
X151738386Y-79571306D01*
X151710291Y-79509788D01*
X151682195Y-79448267D01*
X151609871Y-79364802D01*
X151580847Y-79301248D01*
X151590790Y-79232089D01*
X151636545Y-79179285D01*
X151703584Y-79159600D01*
X151807233Y-79159600D01*
X151937021Y-79121491D01*
X152050814Y-79048360D01*
X152139395Y-78946133D01*
X152195587Y-78823090D01*
X152214837Y-78689200D01*
X152195587Y-78555310D01*
X152195586Y-78555309D01*
X152195586Y-78555306D01*
X152167491Y-78493788D01*
X152139395Y-78432267D01*
X152050814Y-78330040D01*
X151937021Y-78256909D01*
X151937020Y-78256908D01*
X151937019Y-78256908D01*
X151807234Y-78218800D01*
X151807233Y-78218800D01*
X151671967Y-78218800D01*
X151671966Y-78218800D01*
X151542180Y-78256908D01*
X151428388Y-78330038D01*
X151428383Y-78330042D01*
X151339809Y-78432261D01*
X151339803Y-78432271D01*
X151283613Y-78555306D01*
X151283612Y-78555311D01*
X151264363Y-78689200D01*
X151283612Y-78823088D01*
X151283613Y-78823093D01*
X151330171Y-78925038D01*
X151339805Y-78946133D01*
X151339806Y-78946134D01*
X151412128Y-79029597D01*
X151441153Y-79093152D01*
X151431210Y-79162311D01*
X151385455Y-79215115D01*
X151318416Y-79234800D01*
X151214766Y-79234800D01*
X151084980Y-79272908D01*
X150971188Y-79346038D01*
X150971183Y-79346042D01*
X150882609Y-79448261D01*
X150882603Y-79448271D01*
X150826413Y-79571306D01*
X150826412Y-79571311D01*
X150807163Y-79705200D01*
X127500000Y-79705200D01*
X127500000Y-73579941D01*
X130205000Y-73579941D01*
X130205000Y-76605058D01*
X130212398Y-76642249D01*
X130240577Y-76684422D01*
X130282750Y-76712601D01*
X130282752Y-76712602D01*
X130314079Y-76718833D01*
X130325918Y-76721189D01*
X130325516Y-76723205D01*
X130381601Y-76745834D01*
X130421976Y-76802857D01*
X130425112Y-76872656D01*
X130413376Y-76899965D01*
X130413889Y-76900200D01*
X130354013Y-77031306D01*
X130354012Y-77031311D01*
X130334763Y-77165200D01*
X130354012Y-77299088D01*
X130354013Y-77299093D01*
X130389394Y-77376564D01*
X130410205Y-77422133D01*
X130410208Y-77422136D01*
X130410209Y-77422138D01*
X130454764Y-77473557D01*
X130498786Y-77524360D01*
X130612579Y-77597491D01*
X130677473Y-77616545D01*
X130742366Y-77635600D01*
X130742367Y-77635600D01*
X130877633Y-77635600D01*
X131007421Y-77597491D01*
X131121214Y-77524360D01*
X131209795Y-77422133D01*
X131230606Y-77376562D01*
X131276360Y-77323760D01*
X131343400Y-77304075D01*
X131410439Y-77323759D01*
X131456193Y-77376562D01*
X131477005Y-77422133D01*
X131477007Y-77422136D01*
X131477009Y-77422138D01*
X131521564Y-77473557D01*
X131565586Y-77524360D01*
X131679379Y-77597491D01*
X131744273Y-77616545D01*
X131809166Y-77635600D01*
X131809167Y-77635600D01*
X131944433Y-77635600D01*
X132074221Y-77597491D01*
X132188014Y-77524360D01*
X132276595Y-77422133D01*
X132313435Y-77341464D01*
X132322806Y-77320946D01*
X132368561Y-77268142D01*
X132435600Y-77248458D01*
X132502640Y-77268143D01*
X132548394Y-77320946D01*
X132571403Y-77371328D01*
X132594605Y-77422133D01*
X132594608Y-77422136D01*
X132594609Y-77422138D01*
X132639164Y-77473557D01*
X132683186Y-77524360D01*
X132796979Y-77597491D01*
X132861873Y-77616545D01*
X132926766Y-77635600D01*
X132926767Y-77635600D01*
X133062033Y-77635600D01*
X133191821Y-77597491D01*
X133305614Y-77524360D01*
X133394195Y-77422133D01*
X133431035Y-77341464D01*
X133440406Y-77320946D01*
X133486161Y-77268142D01*
X133553200Y-77248458D01*
X133620240Y-77268143D01*
X133665994Y-77320946D01*
X133689003Y-77371328D01*
X133712205Y-77422133D01*
X133712208Y-77422136D01*
X133712209Y-77422138D01*
X133756764Y-77473557D01*
X133800786Y-77524360D01*
X133914579Y-77597491D01*
X133979473Y-77616545D01*
X134044366Y-77635600D01*
X134044367Y-77635600D01*
X134179633Y-77635600D01*
X134309421Y-77597491D01*
X134344417Y-77575000D01*
X153124763Y-77575000D01*
X153144012Y-77708888D01*
X153144013Y-77708893D01*
X153190571Y-77810838D01*
X153200205Y-77831933D01*
X153288786Y-77934160D01*
X153402579Y-78007291D01*
X153467473Y-78026345D01*
X153532366Y-78045400D01*
X153633388Y-78045400D01*
X153700427Y-78065085D01*
X153746182Y-78117889D01*
X153756126Y-78187047D01*
X153727101Y-78250603D01*
X153700428Y-78273715D01*
X153612788Y-78330038D01*
X153612783Y-78330042D01*
X153524209Y-78432261D01*
X153524203Y-78432271D01*
X153468013Y-78555306D01*
X153468012Y-78555311D01*
X153448763Y-78689200D01*
X153468012Y-78823088D01*
X153468013Y-78823093D01*
X153514571Y-78925038D01*
X153524205Y-78946133D01*
X153524208Y-78946136D01*
X153524209Y-78946138D01*
X153596527Y-79029597D01*
X153612786Y-79048360D01*
X153726579Y-79121491D01*
X153791473Y-79140545D01*
X153856366Y-79159600D01*
X153856367Y-79159600D01*
X153991633Y-79159600D01*
X154121421Y-79121491D01*
X154235214Y-79048360D01*
X154323795Y-78946133D01*
X154370006Y-78844946D01*
X154415761Y-78792142D01*
X154482800Y-78772458D01*
X154549840Y-78792143D01*
X154595594Y-78844946D01*
X154641805Y-78946133D01*
X154641806Y-78946134D01*
X154714128Y-79029597D01*
X154743153Y-79093152D01*
X154733210Y-79162311D01*
X154687455Y-79215115D01*
X154620416Y-79234800D01*
X154516766Y-79234800D01*
X154386980Y-79272908D01*
X154273188Y-79346038D01*
X154273183Y-79346042D01*
X154184609Y-79448261D01*
X154184603Y-79448271D01*
X154128413Y-79571306D01*
X154128412Y-79571311D01*
X154109163Y-79705200D01*
X154128412Y-79839088D01*
X154128413Y-79839093D01*
X154174971Y-79941038D01*
X154184605Y-79962133D01*
X154273186Y-80064360D01*
X154386979Y-80137491D01*
X154451873Y-80156545D01*
X154516766Y-80175600D01*
X154516767Y-80175600D01*
X154652033Y-80175600D01*
X154781821Y-80137491D01*
X154895614Y-80064360D01*
X154984195Y-79962133D01*
X155040387Y-79839090D01*
X155059637Y-79705200D01*
X155040387Y-79571310D01*
X155040386Y-79571309D01*
X155040386Y-79571306D01*
X155012291Y-79509788D01*
X154984195Y-79448267D01*
X154911871Y-79364802D01*
X154882847Y-79301248D01*
X154892790Y-79232089D01*
X154938545Y-79179285D01*
X155005584Y-79159600D01*
X155109233Y-79159600D01*
X155239021Y-79121491D01*
X155352814Y-79048360D01*
X155441395Y-78946133D01*
X155497587Y-78823090D01*
X155516837Y-78689200D01*
X155497587Y-78555310D01*
X155497586Y-78555309D01*
X155497586Y-78555306D01*
X155469491Y-78493788D01*
X155441395Y-78432267D01*
X155352814Y-78330040D01*
X155239021Y-78256909D01*
X155239020Y-78256908D01*
X155239019Y-78256908D01*
X155109234Y-78218800D01*
X155109233Y-78218800D01*
X154973967Y-78218800D01*
X154973966Y-78218800D01*
X154844180Y-78256908D01*
X154730388Y-78330038D01*
X154730383Y-78330042D01*
X154641809Y-78432261D01*
X154641802Y-78432271D01*
X154595594Y-78533453D01*
X154549839Y-78586257D01*
X154482799Y-78605941D01*
X154415760Y-78586256D01*
X154370006Y-78533453D01*
X154323797Y-78432271D01*
X154323796Y-78432270D01*
X154323795Y-78432267D01*
X154235214Y-78330040D01*
X154121421Y-78256909D01*
X154121420Y-78256908D01*
X154121419Y-78256908D01*
X153991634Y-78218800D01*
X153991633Y-78218800D01*
X153890612Y-78218800D01*
X153823573Y-78199115D01*
X153777818Y-78146311D01*
X153767874Y-78077153D01*
X153796899Y-78013597D01*
X153823572Y-77990485D01*
X153849191Y-77974019D01*
X153911214Y-77934160D01*
X153999795Y-77831933D01*
X154055987Y-77708890D01*
X154075237Y-77575000D01*
X154055987Y-77441110D01*
X154055986Y-77441109D01*
X154055986Y-77441106D01*
X154024120Y-77371332D01*
X153999795Y-77318067D01*
X153983351Y-77299090D01*
X153911216Y-77215842D01*
X153911211Y-77215838D01*
X153888283Y-77201103D01*
X153797421Y-77142709D01*
X153797420Y-77142708D01*
X153797419Y-77142708D01*
X153667634Y-77104600D01*
X153667633Y-77104600D01*
X153532367Y-77104600D01*
X153532366Y-77104600D01*
X153402580Y-77142708D01*
X153288788Y-77215838D01*
X153288783Y-77215842D01*
X153200209Y-77318061D01*
X153200203Y-77318071D01*
X153144013Y-77441106D01*
X153144012Y-77441111D01*
X153124763Y-77575000D01*
X134344417Y-77575000D01*
X134423214Y-77524360D01*
X134511795Y-77422133D01*
X134556721Y-77323759D01*
X134567986Y-77299093D01*
X134567987Y-77299088D01*
X134587237Y-77165200D01*
X134567987Y-77031310D01*
X134567986Y-77031309D01*
X134567986Y-77031306D01*
X134508111Y-76900200D01*
X134510124Y-76899280D01*
X134493892Y-76844004D01*
X134513574Y-76776964D01*
X134566377Y-76731207D01*
X134617892Y-76720000D01*
X135745059Y-76720000D01*
X135752457Y-76718528D01*
X135782248Y-76712602D01*
X135824422Y-76684422D01*
X135852602Y-76642248D01*
X135860000Y-76605058D01*
X135860000Y-73800000D01*
X137130363Y-73800000D01*
X137149612Y-73933888D01*
X137149613Y-73933893D01*
X137196171Y-74035838D01*
X137205805Y-74056933D01*
X137294386Y-74159160D01*
X137408179Y-74232291D01*
X137473073Y-74251345D01*
X137537966Y-74270400D01*
X137537967Y-74270400D01*
X137673233Y-74270400D01*
X137803021Y-74232291D01*
X137916814Y-74159160D01*
X138005395Y-74056933D01*
X138061587Y-73933890D01*
X138080837Y-73800000D01*
X139130363Y-73800000D01*
X139149612Y-73933888D01*
X139149613Y-73933893D01*
X139196171Y-74035838D01*
X139205805Y-74056933D01*
X139294386Y-74159160D01*
X139408179Y-74232291D01*
X139473073Y-74251345D01*
X139537966Y-74270400D01*
X139537967Y-74270400D01*
X139673233Y-74270400D01*
X139803021Y-74232291D01*
X139916814Y-74159160D01*
X140005395Y-74056933D01*
X140061587Y-73933890D01*
X140080837Y-73800000D01*
X141124763Y-73800000D01*
X141144012Y-73933888D01*
X141144013Y-73933893D01*
X141190571Y-74035838D01*
X141200205Y-74056933D01*
X141288786Y-74159160D01*
X141402579Y-74232291D01*
X141467473Y-74251345D01*
X141532366Y-74270400D01*
X141532367Y-74270400D01*
X141667633Y-74270400D01*
X141797421Y-74232291D01*
X141911214Y-74159160D01*
X141999795Y-74056933D01*
X142055987Y-73933890D01*
X142075237Y-73800000D01*
X142055987Y-73666110D01*
X142055986Y-73666109D01*
X142055986Y-73666106D01*
X142016635Y-73579941D01*
X141999795Y-73543067D01*
X141999522Y-73542752D01*
X141911216Y-73440842D01*
X141911211Y-73440838D01*
X141797419Y-73367708D01*
X141770967Y-73359941D01*
X143725000Y-73359941D01*
X143725000Y-76385058D01*
X143732398Y-76422249D01*
X143760577Y-76464422D01*
X143802750Y-76492601D01*
X143802752Y-76492602D01*
X143830705Y-76498162D01*
X143839941Y-76500000D01*
X143839942Y-76500000D01*
X144387975Y-76500000D01*
X144455014Y-76519685D01*
X144500769Y-76572489D01*
X144510713Y-76641647D01*
X144485484Y-76696890D01*
X144486600Y-76697607D01*
X144481807Y-76705064D01*
X144481805Y-76705067D01*
X144481803Y-76705070D01*
X144481803Y-76705071D01*
X144425613Y-76828106D01*
X144425612Y-76828111D01*
X144406363Y-76962000D01*
X144425612Y-77095888D01*
X144425613Y-77095893D01*
X144460994Y-77173364D01*
X144481805Y-77218933D01*
X144481808Y-77218936D01*
X144481809Y-77218938D01*
X144570200Y-77320946D01*
X144570386Y-77321160D01*
X144684179Y-77394291D01*
X144749073Y-77413345D01*
X144813966Y-77432400D01*
X144813967Y-77432400D01*
X144949233Y-77432400D01*
X145079021Y-77394291D01*
X145192814Y-77321160D01*
X145281395Y-77218933D01*
X145302206Y-77173362D01*
X145347960Y-77120560D01*
X145415000Y-77100875D01*
X145482039Y-77120559D01*
X145527793Y-77173362D01*
X145548605Y-77218933D01*
X145548607Y-77218936D01*
X145548609Y-77218938D01*
X145637000Y-77320946D01*
X145637186Y-77321160D01*
X145750979Y-77394291D01*
X145815873Y-77413345D01*
X145880766Y-77432400D01*
X145880767Y-77432400D01*
X146016033Y-77432400D01*
X146145821Y-77394291D01*
X146259614Y-77321160D01*
X146348195Y-77218933D01*
X146394406Y-77117746D01*
X146440161Y-77064942D01*
X146507200Y-77045258D01*
X146574240Y-77064943D01*
X146619994Y-77117746D01*
X146641666Y-77165200D01*
X146666205Y-77218933D01*
X146666208Y-77218936D01*
X146666209Y-77218938D01*
X146754600Y-77320946D01*
X146754786Y-77321160D01*
X146868579Y-77394291D01*
X146933473Y-77413345D01*
X146998366Y-77432400D01*
X146998367Y-77432400D01*
X147133633Y-77432400D01*
X147263421Y-77394291D01*
X147377214Y-77321160D01*
X147465795Y-77218933D01*
X147512006Y-77117746D01*
X147557761Y-77064942D01*
X147624800Y-77045258D01*
X147691840Y-77064943D01*
X147737594Y-77117746D01*
X147759266Y-77165200D01*
X147783805Y-77218933D01*
X147783808Y-77218936D01*
X147783809Y-77218938D01*
X147872200Y-77320946D01*
X147872386Y-77321160D01*
X147986179Y-77394291D01*
X148051073Y-77413345D01*
X148115966Y-77432400D01*
X148115967Y-77432400D01*
X148251233Y-77432400D01*
X148381021Y-77394291D01*
X148494814Y-77321160D01*
X148583395Y-77218933D01*
X148631134Y-77114400D01*
X148639586Y-77095893D01*
X148639587Y-77095888D01*
X148644036Y-77064943D01*
X148658837Y-76962000D01*
X148639587Y-76828110D01*
X148639586Y-76828109D01*
X148639586Y-76828106D01*
X148602384Y-76746647D01*
X148583395Y-76705067D01*
X148583388Y-76705059D01*
X148578600Y-76697607D01*
X148579716Y-76696889D01*
X148554488Y-76641653D01*
X148564428Y-76572494D01*
X148610181Y-76519688D01*
X148677219Y-76500000D01*
X149265059Y-76500000D01*
X149272457Y-76498528D01*
X149302248Y-76492602D01*
X149344422Y-76464422D01*
X149372602Y-76422248D01*
X149380000Y-76385058D01*
X149380000Y-73359942D01*
X149372602Y-73322752D01*
X149372601Y-73322750D01*
X149344422Y-73280577D01*
X149302249Y-73252398D01*
X149265059Y-73245000D01*
X149265058Y-73245000D01*
X143839942Y-73245000D01*
X143839941Y-73245000D01*
X143802750Y-73252398D01*
X143760577Y-73280577D01*
X143732398Y-73322750D01*
X143725000Y-73359941D01*
X141770967Y-73359941D01*
X141667634Y-73329600D01*
X141667633Y-73329600D01*
X141532367Y-73329600D01*
X141532366Y-73329600D01*
X141402580Y-73367708D01*
X141288788Y-73440838D01*
X141288783Y-73440842D01*
X141200209Y-73543061D01*
X141200203Y-73543071D01*
X141144013Y-73666106D01*
X141144012Y-73666111D01*
X141124763Y-73800000D01*
X140080837Y-73800000D01*
X140061587Y-73666110D01*
X140061586Y-73666109D01*
X140061586Y-73666106D01*
X140022235Y-73579941D01*
X140005395Y-73543067D01*
X140005122Y-73542752D01*
X139916816Y-73440842D01*
X139916811Y-73440838D01*
X139803019Y-73367708D01*
X139673234Y-73329600D01*
X139673233Y-73329600D01*
X139537967Y-73329600D01*
X139537966Y-73329600D01*
X139408180Y-73367708D01*
X139294388Y-73440838D01*
X139294383Y-73440842D01*
X139205809Y-73543061D01*
X139205803Y-73543071D01*
X139149613Y-73666106D01*
X139149612Y-73666111D01*
X139130363Y-73800000D01*
X138080837Y-73800000D01*
X138061587Y-73666110D01*
X138061586Y-73666109D01*
X138061586Y-73666106D01*
X138022235Y-73579941D01*
X138005395Y-73543067D01*
X138005122Y-73542752D01*
X137916816Y-73440842D01*
X137916811Y-73440838D01*
X137803019Y-73367708D01*
X137673234Y-73329600D01*
X137673233Y-73329600D01*
X137537967Y-73329600D01*
X137537966Y-73329600D01*
X137408180Y-73367708D01*
X137294388Y-73440838D01*
X137294383Y-73440842D01*
X137205809Y-73543061D01*
X137205803Y-73543071D01*
X137149613Y-73666106D01*
X137149612Y-73666111D01*
X137130363Y-73800000D01*
X135860000Y-73800000D01*
X135860000Y-73579942D01*
X135852602Y-73542752D01*
X135852601Y-73542750D01*
X135824422Y-73500577D01*
X135782249Y-73472398D01*
X135745059Y-73465000D01*
X135745058Y-73465000D01*
X130319942Y-73465000D01*
X130319941Y-73465000D01*
X130282750Y-73472398D01*
X130240577Y-73500577D01*
X130212398Y-73542750D01*
X130205000Y-73579941D01*
X127500000Y-73579941D01*
X127500000Y-71526400D01*
X128524763Y-71526400D01*
X128544012Y-71660288D01*
X128544013Y-71660293D01*
X128590571Y-71762238D01*
X128600205Y-71783333D01*
X128688786Y-71885560D01*
X128802579Y-71958691D01*
X128867473Y-71977745D01*
X128932366Y-71996800D01*
X128932367Y-71996800D01*
X129067633Y-71996800D01*
X129197421Y-71958691D01*
X129311214Y-71885560D01*
X129399795Y-71783333D01*
X129455987Y-71660290D01*
X129475237Y-71526400D01*
X130524763Y-71526400D01*
X130544012Y-71660288D01*
X130544013Y-71660293D01*
X130590571Y-71762238D01*
X130600205Y-71783333D01*
X130688786Y-71885560D01*
X130802579Y-71958691D01*
X130867473Y-71977745D01*
X130932366Y-71996800D01*
X130932367Y-71996800D01*
X131067633Y-71996800D01*
X131197421Y-71958691D01*
X131311214Y-71885560D01*
X131399795Y-71783333D01*
X131455987Y-71660290D01*
X131475237Y-71526400D01*
X132519163Y-71526400D01*
X132538412Y-71660288D01*
X132538413Y-71660293D01*
X132584971Y-71762238D01*
X132594605Y-71783333D01*
X132683186Y-71885560D01*
X132796979Y-71958691D01*
X132861873Y-71977745D01*
X132926766Y-71996800D01*
X132926767Y-71996800D01*
X133062033Y-71996800D01*
X133191821Y-71958691D01*
X133305614Y-71885560D01*
X133379753Y-71800000D01*
X137530363Y-71800000D01*
X137549612Y-71933888D01*
X137549613Y-71933893D01*
X137578343Y-71996800D01*
X137605805Y-72056933D01*
X137694386Y-72159160D01*
X137808179Y-72232291D01*
X137873073Y-72251345D01*
X137937966Y-72270400D01*
X137937967Y-72270400D01*
X138073233Y-72270400D01*
X138203021Y-72232291D01*
X138316814Y-72159160D01*
X138405395Y-72056933D01*
X138461587Y-71933890D01*
X138480837Y-71800000D01*
X139530363Y-71800000D01*
X139549612Y-71933888D01*
X139549613Y-71933893D01*
X139578343Y-71996800D01*
X139605805Y-72056933D01*
X139694386Y-72159160D01*
X139808179Y-72232291D01*
X139873073Y-72251345D01*
X139937966Y-72270400D01*
X139937967Y-72270400D01*
X140073233Y-72270400D01*
X140203021Y-72232291D01*
X140316814Y-72159160D01*
X140405395Y-72056933D01*
X140461587Y-71933890D01*
X140480837Y-71800000D01*
X141524763Y-71800000D01*
X141544012Y-71933888D01*
X141544013Y-71933893D01*
X141572743Y-71996800D01*
X141600205Y-72056933D01*
X141688786Y-72159160D01*
X141802579Y-72232291D01*
X141867473Y-72251345D01*
X141932366Y-72270400D01*
X141932367Y-72270400D01*
X142067633Y-72270400D01*
X142197421Y-72232291D01*
X142311214Y-72159160D01*
X142399795Y-72056933D01*
X142455987Y-71933890D01*
X142475237Y-71800000D01*
X143930363Y-71800000D01*
X143949612Y-71933888D01*
X143949613Y-71933893D01*
X143978343Y-71996800D01*
X144005805Y-72056933D01*
X144094386Y-72159160D01*
X144208179Y-72232291D01*
X144273073Y-72251345D01*
X144337966Y-72270400D01*
X144337967Y-72270400D01*
X144473233Y-72270400D01*
X144603021Y-72232291D01*
X144716814Y-72159160D01*
X144805395Y-72056933D01*
X144861587Y-71933890D01*
X144880837Y-71800000D01*
X145930363Y-71800000D01*
X145949612Y-71933888D01*
X145949613Y-71933893D01*
X145978343Y-71996800D01*
X146005805Y-72056933D01*
X146094386Y-72159160D01*
X146208179Y-72232291D01*
X146273073Y-72251345D01*
X146337966Y-72270400D01*
X146337967Y-72270400D01*
X146473233Y-72270400D01*
X146603021Y-72232291D01*
X146716814Y-72159160D01*
X146805395Y-72056933D01*
X146861587Y-71933890D01*
X146880837Y-71800000D01*
X147924763Y-71800000D01*
X147944012Y-71933888D01*
X147944013Y-71933893D01*
X147972743Y-71996800D01*
X148000205Y-72056933D01*
X148088786Y-72159160D01*
X148202579Y-72232291D01*
X148267473Y-72251345D01*
X148332366Y-72270400D01*
X148332367Y-72270400D01*
X148467633Y-72270400D01*
X148597421Y-72232291D01*
X148711214Y-72159160D01*
X148799795Y-72056933D01*
X148855987Y-71933890D01*
X148875237Y-71800000D01*
X148855987Y-71666110D01*
X148855986Y-71666109D01*
X148855986Y-71666106D01*
X148827891Y-71604588D01*
X148799795Y-71543067D01*
X148711214Y-71440840D01*
X148597421Y-71367709D01*
X148597420Y-71367708D01*
X148597419Y-71367708D01*
X148467634Y-71329600D01*
X148467633Y-71329600D01*
X148332367Y-71329600D01*
X148332366Y-71329600D01*
X148202580Y-71367708D01*
X148088788Y-71440838D01*
X148088783Y-71440842D01*
X148000209Y-71543061D01*
X148000203Y-71543071D01*
X147944013Y-71666106D01*
X147944012Y-71666111D01*
X147924763Y-71800000D01*
X146880837Y-71800000D01*
X146861587Y-71666110D01*
X146861586Y-71666109D01*
X146861586Y-71666106D01*
X146833491Y-71604588D01*
X146805395Y-71543067D01*
X146716814Y-71440840D01*
X146603021Y-71367709D01*
X146603020Y-71367708D01*
X146603019Y-71367708D01*
X146473234Y-71329600D01*
X146473233Y-71329600D01*
X146337967Y-71329600D01*
X146337966Y-71329600D01*
X146208180Y-71367708D01*
X146094388Y-71440838D01*
X146094383Y-71440842D01*
X146005809Y-71543061D01*
X146005803Y-71543071D01*
X145949613Y-71666106D01*
X145949612Y-71666111D01*
X145930363Y-71800000D01*
X144880837Y-71800000D01*
X144861587Y-71666110D01*
X144861586Y-71666109D01*
X144861586Y-71666106D01*
X144833491Y-71604588D01*
X144805395Y-71543067D01*
X144716814Y-71440840D01*
X144603021Y-71367709D01*
X144603020Y-71367708D01*
X144603019Y-71367708D01*
X144473234Y-71329600D01*
X144473233Y-71329600D01*
X144337967Y-71329600D01*
X144337966Y-71329600D01*
X144208180Y-71367708D01*
X144094388Y-71440838D01*
X144094383Y-71440842D01*
X144005809Y-71543061D01*
X144005803Y-71543071D01*
X143949613Y-71666106D01*
X143949612Y-71666111D01*
X143930363Y-71800000D01*
X142475237Y-71800000D01*
X142455987Y-71666110D01*
X142455986Y-71666109D01*
X142455986Y-71666106D01*
X142427891Y-71604588D01*
X142399795Y-71543067D01*
X142311214Y-71440840D01*
X142197421Y-71367709D01*
X142197420Y-71367708D01*
X142197419Y-71367708D01*
X142067634Y-71329600D01*
X142067633Y-71329600D01*
X141932367Y-71329600D01*
X141932366Y-71329600D01*
X141802580Y-71367708D01*
X141688788Y-71440838D01*
X141688783Y-71440842D01*
X141600209Y-71543061D01*
X141600203Y-71543071D01*
X141544013Y-71666106D01*
X141544012Y-71666111D01*
X141524763Y-71800000D01*
X140480837Y-71800000D01*
X140461587Y-71666110D01*
X140461586Y-71666109D01*
X140461586Y-71666106D01*
X140433491Y-71604588D01*
X140405395Y-71543067D01*
X140316814Y-71440840D01*
X140203021Y-71367709D01*
X140203020Y-71367708D01*
X140203019Y-71367708D01*
X140073234Y-71329600D01*
X140073233Y-71329600D01*
X139937967Y-71329600D01*
X139937966Y-71329600D01*
X139808180Y-71367708D01*
X139694388Y-71440838D01*
X139694383Y-71440842D01*
X139605809Y-71543061D01*
X139605803Y-71543071D01*
X139549613Y-71666106D01*
X139549612Y-71666111D01*
X139530363Y-71800000D01*
X138480837Y-71800000D01*
X138461587Y-71666110D01*
X138461586Y-71666109D01*
X138461586Y-71666106D01*
X138433491Y-71604588D01*
X138405395Y-71543067D01*
X138316814Y-71440840D01*
X138203021Y-71367709D01*
X138203020Y-71367708D01*
X138203019Y-71367708D01*
X138073234Y-71329600D01*
X138073233Y-71329600D01*
X137937967Y-71329600D01*
X137937966Y-71329600D01*
X137808180Y-71367708D01*
X137694388Y-71440838D01*
X137694383Y-71440842D01*
X137605809Y-71543061D01*
X137605803Y-71543071D01*
X137549613Y-71666106D01*
X137549612Y-71666111D01*
X137530363Y-71800000D01*
X133379753Y-71800000D01*
X133394195Y-71783333D01*
X133450387Y-71660290D01*
X133469637Y-71526400D01*
X133450387Y-71392510D01*
X133450386Y-71392509D01*
X133450386Y-71392506D01*
X133421657Y-71329600D01*
X133394195Y-71269467D01*
X133305614Y-71167240D01*
X133191821Y-71094109D01*
X133191820Y-71094108D01*
X133191819Y-71094108D01*
X133062034Y-71056000D01*
X133062033Y-71056000D01*
X132926767Y-71056000D01*
X132926766Y-71056000D01*
X132796980Y-71094108D01*
X132683188Y-71167238D01*
X132683183Y-71167242D01*
X132594609Y-71269461D01*
X132594603Y-71269471D01*
X132538413Y-71392506D01*
X132538412Y-71392511D01*
X132519163Y-71526400D01*
X131475237Y-71526400D01*
X131455987Y-71392510D01*
X131455986Y-71392509D01*
X131455986Y-71392506D01*
X131427257Y-71329600D01*
X131399795Y-71269467D01*
X131311214Y-71167240D01*
X131197421Y-71094109D01*
X131197420Y-71094108D01*
X131197419Y-71094108D01*
X131067634Y-71056000D01*
X131067633Y-71056000D01*
X130932367Y-71056000D01*
X130932366Y-71056000D01*
X130802580Y-71094108D01*
X130688788Y-71167238D01*
X130688783Y-71167242D01*
X130600209Y-71269461D01*
X130600203Y-71269471D01*
X130544013Y-71392506D01*
X130544012Y-71392511D01*
X130524763Y-71526400D01*
X129475237Y-71526400D01*
X129455987Y-71392510D01*
X129455986Y-71392509D01*
X129455986Y-71392506D01*
X129427257Y-71329600D01*
X129399795Y-71269467D01*
X129311214Y-71167240D01*
X129197421Y-71094109D01*
X129197420Y-71094108D01*
X129197419Y-71094108D01*
X129067634Y-71056000D01*
X129067633Y-71056000D01*
X128932367Y-71056000D01*
X128932366Y-71056000D01*
X128802580Y-71094108D01*
X128688788Y-71167238D01*
X128688783Y-71167242D01*
X128600209Y-71269461D01*
X128600203Y-71269471D01*
X128544013Y-71392506D01*
X128544012Y-71392511D01*
X128524763Y-71526400D01*
X127500000Y-71526400D01*
X127500000Y-70400000D01*
X134130363Y-70400000D01*
X134149612Y-70533888D01*
X134149613Y-70533893D01*
X134192974Y-70628838D01*
X134205805Y-70656933D01*
X134294386Y-70759160D01*
X134408179Y-70832291D01*
X134473073Y-70851345D01*
X134537966Y-70870400D01*
X134537967Y-70870400D01*
X134673233Y-70870400D01*
X134803021Y-70832291D01*
X134916814Y-70759160D01*
X135005395Y-70656933D01*
X135061587Y-70533890D01*
X135080837Y-70400000D01*
X136130363Y-70400000D01*
X136149612Y-70533888D01*
X136149613Y-70533893D01*
X136192974Y-70628838D01*
X136205805Y-70656933D01*
X136294386Y-70759160D01*
X136408179Y-70832291D01*
X136473073Y-70851345D01*
X136537966Y-70870400D01*
X136537967Y-70870400D01*
X136673233Y-70870400D01*
X136803021Y-70832291D01*
X136916814Y-70759160D01*
X137005395Y-70656933D01*
X137061587Y-70533890D01*
X137080837Y-70400000D01*
X138124763Y-70400000D01*
X138144012Y-70533888D01*
X138144013Y-70533893D01*
X138187374Y-70628838D01*
X138200205Y-70656933D01*
X138288786Y-70759160D01*
X138402579Y-70832291D01*
X138467473Y-70851345D01*
X138532366Y-70870400D01*
X138532367Y-70870400D01*
X138667633Y-70870400D01*
X138797421Y-70832291D01*
X138911214Y-70759160D01*
X138999795Y-70656933D01*
X139055987Y-70533890D01*
X139075237Y-70400000D01*
X139055987Y-70266110D01*
X139055986Y-70266109D01*
X139055986Y-70266106D01*
X139027741Y-70204260D01*
X138999795Y-70143067D01*
X138911214Y-70040840D01*
X138797421Y-69967709D01*
X138797420Y-69967708D01*
X138797419Y-69967708D01*
X138667634Y-69929600D01*
X138667633Y-69929600D01*
X138532367Y-69929600D01*
X138532366Y-69929600D01*
X138402580Y-69967708D01*
X138288788Y-70040838D01*
X138288783Y-70040842D01*
X138200209Y-70143061D01*
X138200203Y-70143071D01*
X138144013Y-70266106D01*
X138144012Y-70266111D01*
X138124763Y-70400000D01*
X137080837Y-70400000D01*
X137061587Y-70266110D01*
X137061586Y-70266109D01*
X137061586Y-70266106D01*
X137033341Y-70204260D01*
X137005395Y-70143067D01*
X136916814Y-70040840D01*
X136803021Y-69967709D01*
X136803020Y-69967708D01*
X136803019Y-69967708D01*
X136673234Y-69929600D01*
X136673233Y-69929600D01*
X136537967Y-69929600D01*
X136537966Y-69929600D01*
X136408180Y-69967708D01*
X136294388Y-70040838D01*
X136294383Y-70040842D01*
X136205809Y-70143061D01*
X136205803Y-70143071D01*
X136149613Y-70266106D01*
X136149612Y-70266111D01*
X136130363Y-70400000D01*
X135080837Y-70400000D01*
X135061587Y-70266110D01*
X135061586Y-70266109D01*
X135061586Y-70266106D01*
X135033341Y-70204260D01*
X135005395Y-70143067D01*
X134916814Y-70040840D01*
X134803021Y-69967709D01*
X134803020Y-69967708D01*
X134803019Y-69967708D01*
X134673234Y-69929600D01*
X134673233Y-69929600D01*
X134537967Y-69929600D01*
X134537966Y-69929600D01*
X134408180Y-69967708D01*
X134294388Y-70040838D01*
X134294383Y-70040842D01*
X134205809Y-70143061D01*
X134205803Y-70143071D01*
X134149613Y-70266106D01*
X134149612Y-70266111D01*
X134130363Y-70400000D01*
X127500000Y-70400000D01*
X127500000Y-69443600D01*
X128724763Y-69443600D01*
X128744012Y-69577488D01*
X128744013Y-69577493D01*
X128790571Y-69679438D01*
X128800205Y-69700533D01*
X128800208Y-69700536D01*
X128800209Y-69700538D01*
X128837064Y-69743071D01*
X128888786Y-69802760D01*
X129002579Y-69875891D01*
X129067473Y-69894945D01*
X129132366Y-69914000D01*
X129132367Y-69914000D01*
X129267633Y-69914000D01*
X129397421Y-69875891D01*
X129511214Y-69802760D01*
X129599795Y-69700533D01*
X129655987Y-69577490D01*
X129675237Y-69443600D01*
X130724763Y-69443600D01*
X130744012Y-69577488D01*
X130744013Y-69577493D01*
X130790571Y-69679438D01*
X130800205Y-69700533D01*
X130800208Y-69700536D01*
X130800209Y-69700538D01*
X130837064Y-69743071D01*
X130888786Y-69802760D01*
X131002579Y-69875891D01*
X131067473Y-69894945D01*
X131132366Y-69914000D01*
X131132367Y-69914000D01*
X131267633Y-69914000D01*
X131397421Y-69875891D01*
X131511214Y-69802760D01*
X131599795Y-69700533D01*
X131655987Y-69577490D01*
X131675237Y-69443600D01*
X132569963Y-69443600D01*
X132589212Y-69577488D01*
X132589213Y-69577493D01*
X132635771Y-69679438D01*
X132645405Y-69700533D01*
X132645408Y-69700536D01*
X132645409Y-69700538D01*
X132682264Y-69743071D01*
X132733986Y-69802760D01*
X132847779Y-69875891D01*
X132912673Y-69894945D01*
X132977566Y-69914000D01*
X132977567Y-69914000D01*
X133112833Y-69914000D01*
X133242621Y-69875891D01*
X133356414Y-69802760D01*
X133444995Y-69700533D01*
X133501187Y-69577490D01*
X133520437Y-69443600D01*
X133501187Y-69309710D01*
X133501186Y-69309709D01*
X133501186Y-69309706D01*
X133473091Y-69248188D01*
X133444995Y-69186667D01*
X133356414Y-69084440D01*
X133242621Y-69011309D01*
X133242620Y-69011308D01*
X133242619Y-69011308D01*
X133112834Y-68973200D01*
X133112833Y-68973200D01*
X132977567Y-68973200D01*
X132977566Y-68973200D01*
X132847780Y-69011308D01*
X132733988Y-69084438D01*
X132733983Y-69084442D01*
X132645409Y-69186661D01*
X132645403Y-69186671D01*
X132589213Y-69309706D01*
X132589212Y-69309711D01*
X132569963Y-69443600D01*
X131675237Y-69443600D01*
X131655987Y-69309710D01*
X131655986Y-69309709D01*
X131655986Y-69309706D01*
X131627891Y-69248188D01*
X131599795Y-69186667D01*
X131511214Y-69084440D01*
X131397421Y-69011309D01*
X131397420Y-69011308D01*
X131397419Y-69011308D01*
X131267634Y-68973200D01*
X131267633Y-68973200D01*
X131132367Y-68973200D01*
X131132366Y-68973200D01*
X131002580Y-69011308D01*
X130888788Y-69084438D01*
X130888783Y-69084442D01*
X130800209Y-69186661D01*
X130800203Y-69186671D01*
X130744013Y-69309706D01*
X130744012Y-69309711D01*
X130724763Y-69443600D01*
X129675237Y-69443600D01*
X129655987Y-69309710D01*
X129655986Y-69309709D01*
X129655986Y-69309706D01*
X129627891Y-69248188D01*
X129599795Y-69186667D01*
X129511214Y-69084440D01*
X129397421Y-69011309D01*
X129397420Y-69011308D01*
X129397419Y-69011308D01*
X129267634Y-68973200D01*
X129267633Y-68973200D01*
X129132367Y-68973200D01*
X129132366Y-68973200D01*
X129002580Y-69011308D01*
X128888788Y-69084438D01*
X128888783Y-69084442D01*
X128800209Y-69186661D01*
X128800203Y-69186671D01*
X128744013Y-69309706D01*
X128744012Y-69309711D01*
X128724763Y-69443600D01*
X127500000Y-69443600D01*
X127500000Y-68317200D01*
X134330363Y-68317200D01*
X134349612Y-68451088D01*
X134349613Y-68451093D01*
X134396171Y-68553038D01*
X134405805Y-68574133D01*
X134494386Y-68676360D01*
X134608179Y-68749491D01*
X134673073Y-68768545D01*
X134737966Y-68787600D01*
X134737967Y-68787600D01*
X134873233Y-68787600D01*
X135003021Y-68749491D01*
X135116814Y-68676360D01*
X135205395Y-68574133D01*
X135261587Y-68451090D01*
X135280837Y-68317200D01*
X136330363Y-68317200D01*
X136349612Y-68451088D01*
X136349613Y-68451093D01*
X136396171Y-68553038D01*
X136405805Y-68574133D01*
X136494386Y-68676360D01*
X136608179Y-68749491D01*
X136673073Y-68768545D01*
X136737966Y-68787600D01*
X136737967Y-68787600D01*
X136873233Y-68787600D01*
X137003021Y-68749491D01*
X137116814Y-68676360D01*
X137205395Y-68574133D01*
X137261587Y-68451090D01*
X137280837Y-68317200D01*
X138175563Y-68317200D01*
X138194812Y-68451088D01*
X138194813Y-68451093D01*
X138241371Y-68553038D01*
X138251005Y-68574133D01*
X138339586Y-68676360D01*
X138453379Y-68749491D01*
X138518273Y-68768545D01*
X138583166Y-68787600D01*
X138583167Y-68787600D01*
X138718433Y-68787600D01*
X138848221Y-68749491D01*
X138942796Y-68688711D01*
X144529500Y-68688711D01*
X144529500Y-68931288D01*
X144561161Y-69171785D01*
X144623947Y-69406104D01*
X144664647Y-69504361D01*
X144716776Y-69630212D01*
X144838064Y-69840289D01*
X144838066Y-69840292D01*
X144838067Y-69840293D01*
X144985733Y-70032736D01*
X144985739Y-70032743D01*
X145157256Y-70204260D01*
X145157262Y-70204265D01*
X145349711Y-70351936D01*
X145559788Y-70473224D01*
X145783900Y-70566054D01*
X146018211Y-70628838D01*
X146198586Y-70652584D01*
X146258711Y-70660500D01*
X146258712Y-70660500D01*
X146501289Y-70660500D01*
X146549388Y-70654167D01*
X146741789Y-70628838D01*
X146976100Y-70566054D01*
X147200212Y-70473224D01*
X147410289Y-70351936D01*
X147602738Y-70204265D01*
X147774265Y-70032738D01*
X147799386Y-70000000D01*
X154724763Y-70000000D01*
X154744012Y-70133888D01*
X154744013Y-70133893D01*
X154790571Y-70235838D01*
X154800205Y-70256933D01*
X154800208Y-70256936D01*
X154800209Y-70256938D01*
X154882522Y-70351932D01*
X154888786Y-70359160D01*
X155002579Y-70432291D01*
X155041435Y-70443700D01*
X155132366Y-70470400D01*
X155132367Y-70470400D01*
X155267633Y-70470400D01*
X155358565Y-70443700D01*
X155428435Y-70443700D01*
X155487213Y-70481474D01*
X155516238Y-70545030D01*
X155517500Y-70562677D01*
X155517500Y-72316002D01*
X155520527Y-72344165D01*
X155531734Y-72395678D01*
X155561069Y-72454281D01*
X155583946Y-72480682D01*
X155606824Y-72507084D01*
X155606826Y-72507085D01*
X155606827Y-72507086D01*
X155640817Y-72528931D01*
X155669630Y-72547448D01*
X155736669Y-72567133D01*
X155774000Y-72572500D01*
X156698763Y-72572500D01*
X156765802Y-72592185D01*
X156811557Y-72644989D01*
X156822763Y-72696500D01*
X156822763Y-72699999D01*
X156842012Y-72833889D01*
X156842013Y-72833893D01*
X156877394Y-72911364D01*
X156898205Y-72956933D01*
X156898208Y-72956936D01*
X156898209Y-72956938D01*
X156986783Y-73059157D01*
X156986787Y-73059161D01*
X157084076Y-73121685D01*
X157129830Y-73174489D01*
X157139774Y-73243647D01*
X157110749Y-73307203D01*
X157051971Y-73344977D01*
X157023468Y-73349075D01*
X157023501Y-73349403D01*
X157017444Y-73349999D01*
X156980250Y-73357398D01*
X156938077Y-73385577D01*
X156909898Y-73427750D01*
X156902500Y-73464941D01*
X156902500Y-76490058D01*
X156909898Y-76527249D01*
X156938077Y-76569422D01*
X156980250Y-76597601D01*
X156980252Y-76597602D01*
X157006584Y-76602840D01*
X157017441Y-76605000D01*
X157586247Y-76605000D01*
X157653286Y-76624685D01*
X157699041Y-76677489D01*
X157708985Y-76746647D01*
X157679960Y-76810203D01*
X157639006Y-76857465D01*
X157639003Y-76857471D01*
X157582813Y-76980506D01*
X157582812Y-76980511D01*
X157563563Y-77114400D01*
X157582812Y-77248288D01*
X157582813Y-77248293D01*
X157618194Y-77325764D01*
X157639005Y-77371333D01*
X157639008Y-77371336D01*
X157639009Y-77371338D01*
X157699468Y-77441111D01*
X157727586Y-77473560D01*
X157841379Y-77546691D01*
X157906273Y-77565745D01*
X157971166Y-77584800D01*
X157971167Y-77584800D01*
X158106433Y-77584800D01*
X158236221Y-77546691D01*
X158350014Y-77473560D01*
X158438595Y-77371333D01*
X158459406Y-77325762D01*
X158505160Y-77272960D01*
X158572200Y-77253275D01*
X158639239Y-77272959D01*
X158684993Y-77325762D01*
X158705805Y-77371333D01*
X158705807Y-77371336D01*
X158705809Y-77371338D01*
X158766268Y-77441111D01*
X158794386Y-77473560D01*
X158908179Y-77546691D01*
X158973073Y-77565745D01*
X159037966Y-77584800D01*
X159037967Y-77584800D01*
X159173233Y-77584800D01*
X159303021Y-77546691D01*
X159416814Y-77473560D01*
X159505395Y-77371333D01*
X159551606Y-77270146D01*
X159597361Y-77217342D01*
X159664400Y-77197658D01*
X159731440Y-77217343D01*
X159777194Y-77270146D01*
X159790414Y-77299093D01*
X159823405Y-77371333D01*
X159823408Y-77371336D01*
X159823409Y-77371338D01*
X159883868Y-77441111D01*
X159911986Y-77473560D01*
X160025779Y-77546691D01*
X160090673Y-77565745D01*
X160155566Y-77584800D01*
X160155567Y-77584800D01*
X160290833Y-77584800D01*
X160420621Y-77546691D01*
X160534414Y-77473560D01*
X160622995Y-77371333D01*
X160669206Y-77270146D01*
X160714961Y-77217342D01*
X160782000Y-77197658D01*
X160849040Y-77217343D01*
X160894794Y-77270146D01*
X160908014Y-77299093D01*
X160941005Y-77371333D01*
X160941008Y-77371336D01*
X160941009Y-77371338D01*
X161001468Y-77441111D01*
X161029586Y-77473560D01*
X161143379Y-77546691D01*
X161208273Y-77565745D01*
X161273166Y-77584800D01*
X161273167Y-77584800D01*
X161408433Y-77584800D01*
X161538221Y-77546691D01*
X161652014Y-77473560D01*
X161740595Y-77371333D01*
X161786806Y-77270146D01*
X161796786Y-77248293D01*
X161796787Y-77248288D01*
X161801007Y-77218938D01*
X161816037Y-77114400D01*
X161796787Y-76980510D01*
X161796786Y-76980509D01*
X161796786Y-76980506D01*
X161768691Y-76918988D01*
X161740595Y-76857467D01*
X161699639Y-76810202D01*
X161670615Y-76746647D01*
X161680559Y-76677489D01*
X161726313Y-76624685D01*
X161793353Y-76605000D01*
X162442559Y-76605000D01*
X162453416Y-76602840D01*
X162479748Y-76597602D01*
X162521922Y-76569422D01*
X162550102Y-76527248D01*
X162557500Y-76490058D01*
X162557500Y-73464942D01*
X162550102Y-73427752D01*
X162550101Y-73427750D01*
X162521922Y-73385577D01*
X162479749Y-73357398D01*
X162442559Y-73350000D01*
X162442558Y-73350000D01*
X160880964Y-73350000D01*
X160813925Y-73330315D01*
X160768170Y-73277511D01*
X160758226Y-73208353D01*
X160787251Y-73144797D01*
X160813924Y-73121685D01*
X160911212Y-73059161D01*
X160911211Y-73059161D01*
X160911214Y-73059160D01*
X160999795Y-72956933D01*
X161046006Y-72855746D01*
X161055986Y-72833893D01*
X161055987Y-72833889D01*
X161060437Y-72802942D01*
X161075237Y-72700000D01*
X161075237Y-72699999D01*
X161075237Y-72696500D01*
X161076222Y-72693142D01*
X161076499Y-72691222D01*
X161076775Y-72691261D01*
X161094922Y-72629461D01*
X161147726Y-72583706D01*
X161199237Y-72572500D01*
X161703475Y-72572500D01*
X161703476Y-72572500D01*
X161722333Y-72571151D01*
X161757268Y-72566128D01*
X161810045Y-72546443D01*
X161861366Y-72513461D01*
X161867638Y-72510035D01*
X161868820Y-72508670D01*
X161868823Y-72508669D01*
X161868824Y-72508669D01*
X161906060Y-72465695D01*
X161964836Y-72427922D01*
X162034706Y-72427922D01*
X162093484Y-72465695D01*
X162129348Y-72507084D01*
X162129351Y-72507086D01*
X162163341Y-72528931D01*
X162192154Y-72547448D01*
X162259193Y-72567133D01*
X162296524Y-72572500D01*
X162296526Y-72572500D01*
X163246000Y-72572500D01*
X163274166Y-72569472D01*
X163325677Y-72558266D01*
X163384280Y-72528931D01*
X163437084Y-72483176D01*
X163477448Y-72420370D01*
X163497133Y-72353331D01*
X163502500Y-72316000D01*
X163502500Y-63804000D01*
X163499472Y-63775834D01*
X163488266Y-63724323D01*
X163458931Y-63665720D01*
X163458930Y-63665718D01*
X163433892Y-63636824D01*
X163413176Y-63612916D01*
X163413173Y-63612914D01*
X163413172Y-63612913D01*
X163350374Y-63572554D01*
X163350372Y-63572553D01*
X163350371Y-63572552D01*
X163350370Y-63572552D01*
X163283331Y-63552867D01*
X163283328Y-63552866D01*
X163246003Y-63547500D01*
X163246000Y-63547500D01*
X155774000Y-63547500D01*
X155773997Y-63547500D01*
X155745834Y-63550527D01*
X155694321Y-63561734D01*
X155635718Y-63591069D01*
X155582916Y-63636824D01*
X155582913Y-63636827D01*
X155542554Y-63699625D01*
X155542553Y-63699627D01*
X155522866Y-63766671D01*
X155517500Y-63803996D01*
X155517500Y-69437322D01*
X155497815Y-69504361D01*
X155445011Y-69550116D01*
X155375853Y-69560060D01*
X155358566Y-69556299D01*
X155267636Y-69529600D01*
X155267633Y-69529600D01*
X155132367Y-69529600D01*
X155132366Y-69529600D01*
X155002580Y-69567708D01*
X154888788Y-69640838D01*
X154888783Y-69640842D01*
X154800209Y-69743061D01*
X154800203Y-69743071D01*
X154744013Y-69866106D01*
X154744012Y-69866111D01*
X154724763Y-70000000D01*
X147799386Y-70000000D01*
X147921936Y-69840289D01*
X148043224Y-69630212D01*
X148136054Y-69406100D01*
X148198838Y-69171789D01*
X148230500Y-68931288D01*
X148230500Y-68688712D01*
X148228873Y-68676357D01*
X148199217Y-68451090D01*
X148198838Y-68448211D01*
X148136054Y-68213900D01*
X148043224Y-67989788D01*
X147921936Y-67779711D01*
X147774265Y-67587262D01*
X147774260Y-67587256D01*
X147602743Y-67415739D01*
X147602736Y-67415733D01*
X147410293Y-67268067D01*
X147410292Y-67268066D01*
X147410289Y-67268064D01*
X147238661Y-67168974D01*
X147200214Y-67146777D01*
X147200205Y-67146773D01*
X146976104Y-67053947D01*
X146858944Y-67022554D01*
X146741789Y-66991162D01*
X146741788Y-66991161D01*
X146741785Y-66991161D01*
X146501289Y-66959500D01*
X146501288Y-66959500D01*
X146258712Y-66959500D01*
X146258711Y-66959500D01*
X146018212Y-66991161D01*
X145814493Y-67045748D01*
X145744643Y-67044085D01*
X145686781Y-67004922D01*
X145659277Y-66940694D01*
X145659662Y-66908326D01*
X145675237Y-66800000D01*
X145655987Y-66666110D01*
X145655986Y-66666109D01*
X145655986Y-66666106D01*
X145627891Y-66604588D01*
X145599795Y-66543067D01*
X145511214Y-66440840D01*
X145397421Y-66367709D01*
X145397420Y-66367708D01*
X145397419Y-66367708D01*
X145267634Y-66329600D01*
X145267633Y-66329600D01*
X145132367Y-66329600D01*
X145132366Y-66329600D01*
X145002580Y-66367708D01*
X144888788Y-66440838D01*
X144888783Y-66440842D01*
X144800209Y-66543061D01*
X144800203Y-66543071D01*
X144744013Y-66666106D01*
X144744012Y-66666111D01*
X144724763Y-66800000D01*
X144744012Y-66933888D01*
X144744013Y-66933893D01*
X144770168Y-66991162D01*
X144800205Y-67056933D01*
X144800208Y-67056936D01*
X144800209Y-67056938D01*
X144878052Y-67146773D01*
X144888786Y-67159160D01*
X144888788Y-67159161D01*
X145002580Y-67232292D01*
X145063431Y-67250159D01*
X145122209Y-67287933D01*
X145151235Y-67351488D01*
X145141292Y-67420647D01*
X145116179Y-67456817D01*
X144985732Y-67587264D01*
X144838067Y-67779706D01*
X144716777Y-67989785D01*
X144716773Y-67989794D01*
X144623947Y-68213895D01*
X144561161Y-68448214D01*
X144529500Y-68688711D01*
X138942796Y-68688711D01*
X138962014Y-68676360D01*
X139050595Y-68574133D01*
X139106787Y-68451090D01*
X139126037Y-68317200D01*
X139106787Y-68183310D01*
X139106786Y-68183309D01*
X139106786Y-68183306D01*
X139078691Y-68121788D01*
X139050595Y-68060267D01*
X138989524Y-67989788D01*
X138962016Y-67958042D01*
X138962011Y-67958038D01*
X138848219Y-67884908D01*
X138718434Y-67846800D01*
X138718433Y-67846800D01*
X138583167Y-67846800D01*
X138583166Y-67846800D01*
X138453380Y-67884908D01*
X138339588Y-67958038D01*
X138339583Y-67958042D01*
X138251009Y-68060261D01*
X138251003Y-68060271D01*
X138194813Y-68183306D01*
X138194812Y-68183311D01*
X138175563Y-68317200D01*
X137280837Y-68317200D01*
X137261587Y-68183310D01*
X137261586Y-68183309D01*
X137261586Y-68183306D01*
X137233491Y-68121788D01*
X137205395Y-68060267D01*
X137144324Y-67989788D01*
X137116816Y-67958042D01*
X137116811Y-67958038D01*
X137003019Y-67884908D01*
X136873234Y-67846800D01*
X136873233Y-67846800D01*
X136737967Y-67846800D01*
X136737966Y-67846800D01*
X136608180Y-67884908D01*
X136494388Y-67958038D01*
X136494383Y-67958042D01*
X136405809Y-68060261D01*
X136405803Y-68060271D01*
X136349613Y-68183306D01*
X136349612Y-68183311D01*
X136330363Y-68317200D01*
X135280837Y-68317200D01*
X135261587Y-68183310D01*
X135261586Y-68183309D01*
X135261586Y-68183306D01*
X135233491Y-68121788D01*
X135205395Y-68060267D01*
X135144324Y-67989788D01*
X135116816Y-67958042D01*
X135116811Y-67958038D01*
X135003019Y-67884908D01*
X134873234Y-67846800D01*
X134873233Y-67846800D01*
X134737967Y-67846800D01*
X134737966Y-67846800D01*
X134608180Y-67884908D01*
X134494388Y-67958038D01*
X134494383Y-67958042D01*
X134405809Y-68060261D01*
X134405803Y-68060271D01*
X134349613Y-68183306D01*
X134349612Y-68183311D01*
X134330363Y-68317200D01*
X127500000Y-68317200D01*
X127500000Y-66800000D01*
X140730363Y-66800000D01*
X140749612Y-66933888D01*
X140749613Y-66933893D01*
X140775768Y-66991162D01*
X140805805Y-67056933D01*
X140805808Y-67056936D01*
X140805809Y-67056938D01*
X140883652Y-67146773D01*
X140894386Y-67159160D01*
X141008179Y-67232291D01*
X141069032Y-67250159D01*
X141137966Y-67270400D01*
X141137967Y-67270400D01*
X141273233Y-67270400D01*
X141403021Y-67232291D01*
X141516814Y-67159160D01*
X141605395Y-67056933D01*
X141661587Y-66933890D01*
X141680837Y-66800000D01*
X142730363Y-66800000D01*
X142749612Y-66933888D01*
X142749613Y-66933893D01*
X142775768Y-66991162D01*
X142805805Y-67056933D01*
X142805808Y-67056936D01*
X142805809Y-67056938D01*
X142883652Y-67146773D01*
X142894386Y-67159160D01*
X143008179Y-67232291D01*
X143069032Y-67250159D01*
X143137966Y-67270400D01*
X143137967Y-67270400D01*
X143273233Y-67270400D01*
X143403021Y-67232291D01*
X143516814Y-67159160D01*
X143605395Y-67056933D01*
X143661587Y-66933890D01*
X143680837Y-66800000D01*
X143661587Y-66666110D01*
X143661586Y-66666109D01*
X143661586Y-66666106D01*
X143633491Y-66604588D01*
X143605395Y-66543067D01*
X143516814Y-66440840D01*
X143403021Y-66367709D01*
X143403020Y-66367708D01*
X143403019Y-66367708D01*
X143273234Y-66329600D01*
X143273233Y-66329600D01*
X143137967Y-66329600D01*
X143137966Y-66329600D01*
X143008180Y-66367708D01*
X142894388Y-66440838D01*
X142894383Y-66440842D01*
X142805809Y-66543061D01*
X142805803Y-66543071D01*
X142749613Y-66666106D01*
X142749612Y-66666111D01*
X142730363Y-66800000D01*
X141680837Y-66800000D01*
X141661587Y-66666110D01*
X141661586Y-66666109D01*
X141661586Y-66666106D01*
X141633491Y-66604588D01*
X141605395Y-66543067D01*
X141516814Y-66440840D01*
X141403021Y-66367709D01*
X141403020Y-66367708D01*
X141403019Y-66367708D01*
X141273234Y-66329600D01*
X141273233Y-66329600D01*
X141137967Y-66329600D01*
X141137966Y-66329600D01*
X141008180Y-66367708D01*
X140894388Y-66440838D01*
X140894383Y-66440842D01*
X140805809Y-66543061D01*
X140805803Y-66543071D01*
X140749613Y-66666106D01*
X140749612Y-66666111D01*
X140730363Y-66800000D01*
X127500000Y-66800000D01*
X127500000Y-63000000D01*
X137174763Y-63000000D01*
X137194012Y-63133888D01*
X137194013Y-63133893D01*
X137212924Y-63175300D01*
X137250205Y-63256933D01*
X137338786Y-63359160D01*
X137452579Y-63432291D01*
X137517473Y-63451345D01*
X137582366Y-63470400D01*
X137582367Y-63470400D01*
X137717633Y-63470400D01*
X137847421Y-63432291D01*
X137961214Y-63359160D01*
X138049795Y-63256933D01*
X138098517Y-63150248D01*
X138105986Y-63133893D01*
X138105987Y-63133888D01*
X138106297Y-63131731D01*
X138125237Y-63000000D01*
X138105987Y-62866110D01*
X138105986Y-62866109D01*
X138105986Y-62866106D01*
X138077891Y-62804588D01*
X138049795Y-62743067D01*
X137961214Y-62640840D01*
X137847421Y-62567709D01*
X137847420Y-62567708D01*
X137847419Y-62567708D01*
X137717634Y-62529600D01*
X137717633Y-62529600D01*
X137582367Y-62529600D01*
X137582366Y-62529600D01*
X137452580Y-62567708D01*
X137338788Y-62640838D01*
X137338783Y-62640842D01*
X137250209Y-62743061D01*
X137250203Y-62743071D01*
X137194013Y-62866106D01*
X137194012Y-62866111D01*
X137174763Y-63000000D01*
X127500000Y-63000000D01*
X127500000Y-61100000D01*
X146242263Y-61100000D01*
X146261512Y-61233888D01*
X146261513Y-61233893D01*
X146308071Y-61335838D01*
X146317705Y-61356933D01*
X146406286Y-61459160D01*
X146520079Y-61532291D01*
X146584973Y-61551345D01*
X146649866Y-61570400D01*
X146649867Y-61570400D01*
X146785133Y-61570400D01*
X146914921Y-61532291D01*
X147028714Y-61459160D01*
X147117295Y-61356933D01*
X147173487Y-61233890D01*
X147192737Y-61100000D01*
X151574763Y-61100000D01*
X151594012Y-61233888D01*
X151594013Y-61233893D01*
X151640571Y-61335838D01*
X151650205Y-61356933D01*
X151738786Y-61459160D01*
X151852579Y-61532291D01*
X151917473Y-61551345D01*
X151982366Y-61570400D01*
X151982367Y-61570400D01*
X152117633Y-61570400D01*
X152247421Y-61532291D01*
X152361214Y-61459160D01*
X152449795Y-61356933D01*
X152505987Y-61233890D01*
X152525237Y-61100000D01*
X152505987Y-60966110D01*
X152505986Y-60966109D01*
X152505986Y-60966106D01*
X152477891Y-60904588D01*
X152449795Y-60843067D01*
X152361214Y-60740840D01*
X152247421Y-60667709D01*
X152247420Y-60667708D01*
X152247419Y-60667708D01*
X152117634Y-60629600D01*
X152117633Y-60629600D01*
X151982367Y-60629600D01*
X151982366Y-60629600D01*
X151852580Y-60667708D01*
X151738788Y-60740838D01*
X151738783Y-60740842D01*
X151650209Y-60843061D01*
X151650203Y-60843071D01*
X151594013Y-60966106D01*
X151594012Y-60966111D01*
X151574763Y-61100000D01*
X147192737Y-61100000D01*
X147173487Y-60966110D01*
X147173486Y-60966109D01*
X147173486Y-60966106D01*
X147145391Y-60904588D01*
X147117295Y-60843067D01*
X147028714Y-60740840D01*
X146914921Y-60667709D01*
X146914920Y-60667708D01*
X146914919Y-60667708D01*
X146785134Y-60629600D01*
X146785133Y-60629600D01*
X146649867Y-60629600D01*
X146649866Y-60629600D01*
X146520080Y-60667708D01*
X146406288Y-60740838D01*
X146406283Y-60740842D01*
X146317709Y-60843061D01*
X146317703Y-60843071D01*
X146261513Y-60966106D01*
X146261512Y-60966111D01*
X146242263Y-61100000D01*
X127500000Y-61100000D01*
X127500000Y-59722500D01*
X146724763Y-59722500D01*
X146744012Y-59856388D01*
X146744013Y-59856393D01*
X146790571Y-59958338D01*
X146800205Y-59979433D01*
X146888786Y-60081660D01*
X147002579Y-60154791D01*
X147067473Y-60173845D01*
X147132366Y-60192900D01*
X147132367Y-60192900D01*
X147267633Y-60192900D01*
X147397421Y-60154791D01*
X147511214Y-60081660D01*
X147599795Y-59979433D01*
X147655987Y-59856390D01*
X147675237Y-59722500D01*
X147655987Y-59588610D01*
X147655986Y-59588609D01*
X147655986Y-59588606D01*
X147627891Y-59527088D01*
X147599795Y-59465567D01*
X147511214Y-59363340D01*
X147397421Y-59290209D01*
X147397420Y-59290208D01*
X147397419Y-59290208D01*
X147267634Y-59252100D01*
X147267633Y-59252100D01*
X147132367Y-59252100D01*
X147132366Y-59252100D01*
X147002580Y-59290208D01*
X146888788Y-59363338D01*
X146888783Y-59363342D01*
X146800209Y-59465561D01*
X146800203Y-59465571D01*
X146744013Y-59588606D01*
X146744012Y-59588611D01*
X146724763Y-59722500D01*
X127500000Y-59722500D01*
X127500000Y-57372073D01*
X155376836Y-57372073D01*
X155396085Y-57505961D01*
X155396086Y-57505966D01*
X155442644Y-57607911D01*
X155452278Y-57629006D01*
X155540859Y-57731233D01*
X155654652Y-57804364D01*
X155719546Y-57823418D01*
X155784439Y-57842473D01*
X155784440Y-57842473D01*
X155919706Y-57842473D01*
X156049494Y-57804364D01*
X156163287Y-57731233D01*
X156251868Y-57629006D01*
X156308060Y-57505963D01*
X156327310Y-57372073D01*
X156308060Y-57238183D01*
X156308059Y-57238182D01*
X156308059Y-57238179D01*
X156279964Y-57176661D01*
X156251868Y-57115140D01*
X156163287Y-57012913D01*
X156049494Y-56939782D01*
X156049493Y-56939781D01*
X156049492Y-56939781D01*
X155919707Y-56901673D01*
X155919706Y-56901673D01*
X155784440Y-56901673D01*
X155784439Y-56901673D01*
X155654653Y-56939781D01*
X155540861Y-57012911D01*
X155540856Y-57012915D01*
X155452282Y-57115134D01*
X155452276Y-57115144D01*
X155396086Y-57238179D01*
X155396085Y-57238184D01*
X155376836Y-57372073D01*
X127500000Y-57372073D01*
X127500000Y-53643720D01*
X133595000Y-53643720D01*
X133595000Y-53836279D01*
X133632562Y-54025118D01*
X133632566Y-54025132D01*
X133706246Y-54203013D01*
X133706253Y-54203026D01*
X133813225Y-54363119D01*
X133813228Y-54363123D01*
X133949376Y-54499271D01*
X133949380Y-54499274D01*
X134109473Y-54606246D01*
X134109486Y-54606253D01*
X134227062Y-54654954D01*
X134287374Y-54679936D01*
X134476220Y-54717499D01*
X134476224Y-54717500D01*
X134476225Y-54717500D01*
X134968776Y-54717500D01*
X134968777Y-54717499D01*
X135157626Y-54679936D01*
X135335520Y-54606250D01*
X135495620Y-54499274D01*
X135631774Y-54363120D01*
X135738750Y-54203020D01*
X135812436Y-54025126D01*
X135850000Y-53836275D01*
X135850000Y-53643725D01*
X135812436Y-53454874D01*
X135800396Y-53425806D01*
X135738753Y-53276986D01*
X135738746Y-53276973D01*
X135631774Y-53116880D01*
X135631771Y-53116876D01*
X135495623Y-52980728D01*
X135495619Y-52980725D01*
X135335526Y-52873753D01*
X135335513Y-52873746D01*
X135157632Y-52800066D01*
X135157628Y-52800064D01*
X135157626Y-52800064D01*
X135157622Y-52800063D01*
X135157618Y-52800062D01*
X134968779Y-52762500D01*
X134968775Y-52762500D01*
X134476225Y-52762500D01*
X134476220Y-52762500D01*
X134287381Y-52800062D01*
X134287367Y-52800066D01*
X134109486Y-52873746D01*
X134109473Y-52873753D01*
X133949380Y-52980725D01*
X133949376Y-52980728D01*
X133813228Y-53116876D01*
X133813225Y-53116880D01*
X133706253Y-53276973D01*
X133706246Y-53276986D01*
X133632566Y-53454867D01*
X133632562Y-53454881D01*
X133595000Y-53643720D01*
X127500000Y-53643720D01*
X127500000Y-47396400D01*
X130944363Y-47396400D01*
X130963612Y-47530288D01*
X130963613Y-47530293D01*
X131010171Y-47632238D01*
X131019805Y-47653333D01*
X131108386Y-47755560D01*
X131222179Y-47828691D01*
X131247831Y-47836223D01*
X131351966Y-47866800D01*
X131351967Y-47866800D01*
X131487233Y-47866800D01*
X131617021Y-47828691D01*
X131730814Y-47755560D01*
X131819395Y-47653333D01*
X131875587Y-47530290D01*
X131894837Y-47396400D01*
X131875587Y-47262510D01*
X131875586Y-47262509D01*
X131875586Y-47262506D01*
X131847491Y-47200988D01*
X131819395Y-47139467D01*
X131730814Y-47037240D01*
X131617021Y-46964109D01*
X131617020Y-46964108D01*
X131617019Y-46964108D01*
X131487234Y-46926000D01*
X131487233Y-46926000D01*
X131351967Y-46926000D01*
X131351966Y-46926000D01*
X131222180Y-46964108D01*
X131108388Y-47037238D01*
X131108383Y-47037242D01*
X131019809Y-47139461D01*
X131019803Y-47139471D01*
X130963613Y-47262506D01*
X130963612Y-47262511D01*
X130944363Y-47396400D01*
X127500000Y-47396400D01*
X127500000Y-39420800D01*
X131045963Y-39420800D01*
X131065212Y-39554688D01*
X131065213Y-39554693D01*
X131111771Y-39656638D01*
X131121405Y-39677733D01*
X131209986Y-39779960D01*
X131323779Y-39853091D01*
X131333047Y-39855812D01*
X131349429Y-39860623D01*
X131408207Y-39898397D01*
X131437232Y-39961953D01*
X131427288Y-40031111D01*
X131381533Y-40083915D01*
X131349429Y-40098577D01*
X131323780Y-40106108D01*
X131209988Y-40179238D01*
X131209983Y-40179242D01*
X131121409Y-40281461D01*
X131121403Y-40281471D01*
X131065213Y-40404506D01*
X131065212Y-40404511D01*
X131045963Y-40538400D01*
X131065212Y-40672288D01*
X131065213Y-40672293D01*
X131111771Y-40774238D01*
X131121405Y-40795333D01*
X131209986Y-40897560D01*
X131323779Y-40970691D01*
X131333047Y-40973412D01*
X131349429Y-40978223D01*
X131408207Y-41015997D01*
X131437232Y-41079553D01*
X131427288Y-41148711D01*
X131381533Y-41201515D01*
X131349429Y-41216177D01*
X131323780Y-41223708D01*
X131209988Y-41296838D01*
X131209983Y-41296842D01*
X131121409Y-41399061D01*
X131121403Y-41399071D01*
X131065213Y-41522106D01*
X131065212Y-41522111D01*
X131045963Y-41656000D01*
X131065212Y-41789888D01*
X131065213Y-41789893D01*
X131111771Y-41891838D01*
X131121405Y-41912933D01*
X131209986Y-42015160D01*
X131209988Y-42015161D01*
X131318790Y-42085085D01*
X131364545Y-42137889D01*
X131374488Y-42207048D01*
X131345463Y-42270603D01*
X131318790Y-42293715D01*
X131209988Y-42363638D01*
X131209983Y-42363642D01*
X131121409Y-42465861D01*
X131121403Y-42465871D01*
X131065213Y-42588906D01*
X131065212Y-42588911D01*
X131045963Y-42722800D01*
X131065212Y-42856688D01*
X131065213Y-42856693D01*
X131111771Y-42958638D01*
X131121405Y-42979733D01*
X131209986Y-43081960D01*
X131323779Y-43155091D01*
X131388673Y-43174145D01*
X131453566Y-43193200D01*
X131453567Y-43193200D01*
X131588833Y-43193200D01*
X131718621Y-43155091D01*
X131832414Y-43081960D01*
X131920995Y-42979733D01*
X131977187Y-42856690D01*
X131996437Y-42722800D01*
X131977187Y-42588910D01*
X131977186Y-42588909D01*
X131977186Y-42588906D01*
X131949091Y-42527388D01*
X131920995Y-42465867D01*
X131832414Y-42363640D01*
X131832411Y-42363638D01*
X131832409Y-42363636D01*
X131723610Y-42293715D01*
X131677855Y-42240911D01*
X131667911Y-42171753D01*
X131696936Y-42108197D01*
X131723610Y-42085085D01*
X131832409Y-42015163D01*
X131832408Y-42015163D01*
X131832414Y-42015160D01*
X131920995Y-41912933D01*
X131977187Y-41789890D01*
X131996437Y-41656000D01*
X131977187Y-41522110D01*
X131977186Y-41522109D01*
X131977186Y-41522106D01*
X131949091Y-41460588D01*
X131920995Y-41399067D01*
X131832414Y-41296840D01*
X131832411Y-41296838D01*
X131718619Y-41223707D01*
X131692971Y-41216177D01*
X131634193Y-41178403D01*
X131605167Y-41114848D01*
X131615110Y-41045689D01*
X131660865Y-40992885D01*
X131692971Y-40978223D01*
X131718618Y-40970692D01*
X131718619Y-40970692D01*
X131718621Y-40970691D01*
X131832414Y-40897560D01*
X131920995Y-40795333D01*
X131977187Y-40672290D01*
X131996437Y-40538400D01*
X131977187Y-40404510D01*
X131977186Y-40404509D01*
X131977186Y-40404506D01*
X131949091Y-40342988D01*
X131920995Y-40281467D01*
X131832414Y-40179240D01*
X131832411Y-40179238D01*
X131718619Y-40106107D01*
X131692971Y-40098577D01*
X131634193Y-40060803D01*
X131605167Y-39997248D01*
X131615110Y-39928089D01*
X131660865Y-39875285D01*
X131692971Y-39860623D01*
X131718618Y-39853092D01*
X131718619Y-39853092D01*
X131718621Y-39853091D01*
X131832414Y-39779960D01*
X131920995Y-39677733D01*
X131977187Y-39554690D01*
X131996437Y-39420800D01*
X131977187Y-39286910D01*
X131977186Y-39286909D01*
X131977186Y-39286906D01*
X131949091Y-39225388D01*
X131920995Y-39163867D01*
X131832414Y-39061640D01*
X131718621Y-38988509D01*
X131718620Y-38988508D01*
X131718619Y-38988508D01*
X131588834Y-38950400D01*
X131588833Y-38950400D01*
X131453567Y-38950400D01*
X131453566Y-38950400D01*
X131323780Y-38988508D01*
X131209988Y-39061638D01*
X131209983Y-39061642D01*
X131121409Y-39163861D01*
X131121403Y-39163871D01*
X131065213Y-39286906D01*
X131065212Y-39286911D01*
X131045963Y-39420800D01*
X127500000Y-39420800D01*
X127500000Y-30530800D01*
X130233163Y-30530800D01*
X130252412Y-30664688D01*
X130252413Y-30664693D01*
X130290094Y-30747200D01*
X130308605Y-30787733D01*
X130308608Y-30787736D01*
X130308609Y-30787738D01*
X130391748Y-30883685D01*
X130397186Y-30889960D01*
X130510979Y-30963091D01*
X130520247Y-30965812D01*
X130536629Y-30970623D01*
X130595407Y-31008397D01*
X130624432Y-31071953D01*
X130614488Y-31141111D01*
X130568733Y-31193915D01*
X130536629Y-31208577D01*
X130510980Y-31216108D01*
X130397188Y-31289238D01*
X130397183Y-31289242D01*
X130308609Y-31391461D01*
X130308603Y-31391471D01*
X130252413Y-31514506D01*
X130252412Y-31514511D01*
X130233163Y-31648400D01*
X130252412Y-31782288D01*
X130252413Y-31782293D01*
X130298971Y-31884238D01*
X130308605Y-31905333D01*
X130308608Y-31905336D01*
X130308609Y-31905338D01*
X130391748Y-32001285D01*
X130397186Y-32007560D01*
X130510979Y-32080691D01*
X130520247Y-32083412D01*
X130536629Y-32088223D01*
X130595407Y-32125997D01*
X130624432Y-32189553D01*
X130614488Y-32258711D01*
X130568733Y-32311515D01*
X130536629Y-32326177D01*
X130510980Y-32333708D01*
X130397188Y-32406838D01*
X130397183Y-32406842D01*
X130308609Y-32509061D01*
X130308603Y-32509071D01*
X130252413Y-32632106D01*
X130252412Y-32632111D01*
X130233163Y-32766000D01*
X130252412Y-32899888D01*
X130252413Y-32899893D01*
X130298971Y-33001838D01*
X130308605Y-33022933D01*
X130308608Y-33022936D01*
X130308609Y-33022938D01*
X130353169Y-33074363D01*
X130397186Y-33125160D01*
X130450153Y-33159200D01*
X130505990Y-33195085D01*
X130551745Y-33247889D01*
X130561688Y-33317048D01*
X130532663Y-33380603D01*
X130505990Y-33403715D01*
X130397188Y-33473638D01*
X130397183Y-33473642D01*
X130308609Y-33575861D01*
X130308603Y-33575871D01*
X130252413Y-33698906D01*
X130252412Y-33698911D01*
X130233163Y-33832800D01*
X130252412Y-33966688D01*
X130252413Y-33966693D01*
X130292262Y-34053947D01*
X130308605Y-34089733D01*
X130308608Y-34089736D01*
X130308609Y-34089738D01*
X130353164Y-34141157D01*
X130397186Y-34191960D01*
X130510979Y-34265091D01*
X130575873Y-34284145D01*
X130640766Y-34303200D01*
X130640767Y-34303200D01*
X130776033Y-34303200D01*
X130905821Y-34265091D01*
X131019614Y-34191960D01*
X131108195Y-34089733D01*
X131153211Y-33991161D01*
X131164386Y-33966693D01*
X131164387Y-33966688D01*
X131183637Y-33832800D01*
X131164387Y-33698910D01*
X131164386Y-33698909D01*
X131164386Y-33698906D01*
X131131396Y-33626671D01*
X131108195Y-33575867D01*
X131108190Y-33575861D01*
X131019616Y-33473642D01*
X131019609Y-33473636D01*
X130910810Y-33403715D01*
X130865055Y-33350911D01*
X130855111Y-33281753D01*
X130884136Y-33218197D01*
X130910810Y-33195085D01*
X131019609Y-33125163D01*
X131019608Y-33125163D01*
X131019614Y-33125160D01*
X131108195Y-33022933D01*
X131164387Y-32899890D01*
X131183637Y-32766000D01*
X131164387Y-32632110D01*
X131164386Y-32632109D01*
X131164386Y-32632106D01*
X131131396Y-32559871D01*
X131108195Y-32509067D01*
X131020161Y-32407471D01*
X131019616Y-32406842D01*
X131019611Y-32406838D01*
X130905819Y-32333707D01*
X130880171Y-32326177D01*
X130821393Y-32288403D01*
X130792367Y-32224848D01*
X130802310Y-32155689D01*
X130848065Y-32102885D01*
X130880171Y-32088223D01*
X130905818Y-32080692D01*
X130905819Y-32080692D01*
X130905821Y-32080691D01*
X131019614Y-32007560D01*
X131108195Y-31905333D01*
X131164387Y-31782290D01*
X131183637Y-31648400D01*
X131164387Y-31514510D01*
X131164386Y-31514509D01*
X131164386Y-31514506D01*
X131131396Y-31442271D01*
X131108195Y-31391467D01*
X131025245Y-31295738D01*
X131019616Y-31289242D01*
X131019611Y-31289238D01*
X130905819Y-31216107D01*
X130880171Y-31208577D01*
X130821393Y-31170803D01*
X130792367Y-31107248D01*
X130802310Y-31038089D01*
X130848065Y-30985285D01*
X130880171Y-30970623D01*
X130905818Y-30963092D01*
X130905819Y-30963092D01*
X130905821Y-30963091D01*
X131019614Y-30889960D01*
X131108195Y-30787733D01*
X131157560Y-30679640D01*
X131164386Y-30664693D01*
X131164387Y-30664688D01*
X131168517Y-30635963D01*
X131176333Y-30581600D01*
X133636763Y-30581600D01*
X133656012Y-30715488D01*
X133656013Y-30715493D01*
X133702571Y-30817438D01*
X133712205Y-30838533D01*
X133712208Y-30838536D01*
X133712209Y-30838538D01*
X133795348Y-30934485D01*
X133800786Y-30940760D01*
X133914579Y-31013891D01*
X133923847Y-31016612D01*
X133940229Y-31021423D01*
X133999007Y-31059197D01*
X134028032Y-31122753D01*
X134018088Y-31191911D01*
X133972333Y-31244715D01*
X133940229Y-31259377D01*
X133914580Y-31266908D01*
X133800788Y-31340038D01*
X133800783Y-31340042D01*
X133712209Y-31442261D01*
X133712203Y-31442271D01*
X133656013Y-31565306D01*
X133656012Y-31565311D01*
X133636763Y-31699200D01*
X133656012Y-31833088D01*
X133656013Y-31833093D01*
X133689292Y-31905961D01*
X133712205Y-31956133D01*
X133712208Y-31956136D01*
X133712209Y-31956138D01*
X133795348Y-32052085D01*
X133800786Y-32058360D01*
X133914579Y-32131491D01*
X133923847Y-32134212D01*
X133940229Y-32139023D01*
X133999007Y-32176797D01*
X134028032Y-32240353D01*
X134018088Y-32309511D01*
X133972333Y-32362315D01*
X133940229Y-32376977D01*
X133914580Y-32384508D01*
X133800788Y-32457638D01*
X133800783Y-32457642D01*
X133712209Y-32559861D01*
X133712203Y-32559871D01*
X133656013Y-32682906D01*
X133656012Y-32682911D01*
X133636763Y-32816800D01*
X133656012Y-32950688D01*
X133656013Y-32950693D01*
X133689292Y-33023561D01*
X133712205Y-33073733D01*
X133712208Y-33073736D01*
X133712209Y-33073738D01*
X133775075Y-33146289D01*
X133800786Y-33175960D01*
X133857157Y-33212188D01*
X133909590Y-33245885D01*
X133955345Y-33298689D01*
X133965288Y-33367848D01*
X133936263Y-33431403D01*
X133909590Y-33454515D01*
X133800788Y-33524438D01*
X133800783Y-33524442D01*
X133712209Y-33626661D01*
X133712203Y-33626671D01*
X133656013Y-33749706D01*
X133656012Y-33749711D01*
X133636763Y-33883600D01*
X133656012Y-34017488D01*
X133656013Y-34017493D01*
X133689292Y-34090361D01*
X133712205Y-34140533D01*
X133712208Y-34140536D01*
X133712209Y-34140538D01*
X133799821Y-34241647D01*
X133800786Y-34242760D01*
X133914579Y-34315891D01*
X133979473Y-34334945D01*
X134044366Y-34354000D01*
X134044367Y-34354000D01*
X134179633Y-34354000D01*
X134309421Y-34315891D01*
X134423214Y-34242760D01*
X134511795Y-34140533D01*
X134567987Y-34017490D01*
X134587237Y-33883600D01*
X134567987Y-33749710D01*
X134567986Y-33749709D01*
X134567986Y-33749706D01*
X134529143Y-33664654D01*
X134513134Y-33629600D01*
X134957563Y-33629600D01*
X134976812Y-33763488D01*
X134976813Y-33763493D01*
X135012194Y-33840964D01*
X135033005Y-33886533D01*
X135033008Y-33886536D01*
X135033009Y-33886538D01*
X135121042Y-33988133D01*
X135121586Y-33988760D01*
X135235379Y-34061891D01*
X135300273Y-34080945D01*
X135365166Y-34100000D01*
X135365167Y-34100000D01*
X135500433Y-34100000D01*
X135630221Y-34061891D01*
X135744014Y-33988760D01*
X135832595Y-33886533D01*
X135878806Y-33785346D01*
X135924561Y-33732542D01*
X135991600Y-33712858D01*
X136058640Y-33732543D01*
X136104394Y-33785346D01*
X136150605Y-33886533D01*
X136150608Y-33886536D01*
X136150609Y-33886538D01*
X136238642Y-33988133D01*
X136239186Y-33988760D01*
X136352979Y-34061891D01*
X136417873Y-34080945D01*
X136482766Y-34100000D01*
X136482767Y-34100000D01*
X136618033Y-34100000D01*
X136747821Y-34061891D01*
X136861614Y-33988760D01*
X136950195Y-33886533D01*
X136996406Y-33785346D01*
X137042161Y-33732542D01*
X137109200Y-33712858D01*
X137176240Y-33732543D01*
X137221994Y-33785346D01*
X137268205Y-33886533D01*
X137268208Y-33886536D01*
X137268209Y-33886538D01*
X137356242Y-33988133D01*
X137356786Y-33988760D01*
X137470579Y-34061891D01*
X137535473Y-34080945D01*
X137600366Y-34100000D01*
X137600367Y-34100000D01*
X137735633Y-34100000D01*
X137865421Y-34061891D01*
X137979214Y-33988760D01*
X138067795Y-33886533D01*
X138088606Y-33840962D01*
X138134360Y-33788160D01*
X138201400Y-33768475D01*
X138268439Y-33788159D01*
X138314193Y-33840962D01*
X138335005Y-33886533D01*
X138335007Y-33886536D01*
X138335009Y-33886538D01*
X138423042Y-33988133D01*
X138423586Y-33988760D01*
X138537379Y-34061891D01*
X138602273Y-34080945D01*
X138667166Y-34100000D01*
X138680720Y-34100000D01*
X138747759Y-34119685D01*
X138793514Y-34172489D01*
X138803458Y-34241647D01*
X138774433Y-34305203D01*
X138768401Y-34311681D01*
X135694244Y-37385837D01*
X135694242Y-37385839D01*
X135655501Y-37479373D01*
X135655500Y-37479378D01*
X135655500Y-48446683D01*
X135635815Y-48513722D01*
X135605032Y-48544505D01*
X135605489Y-48545032D01*
X135598783Y-48550842D01*
X135510209Y-48653061D01*
X135510203Y-48653071D01*
X135454013Y-48776106D01*
X135454012Y-48776111D01*
X135434763Y-48910000D01*
X135454012Y-49043888D01*
X135454013Y-49043893D01*
X135475275Y-49090448D01*
X135510205Y-49166933D01*
X135510208Y-49166936D01*
X135510209Y-49166938D01*
X135589421Y-49258353D01*
X135598786Y-49269160D01*
X135712579Y-49342291D01*
X135763365Y-49357203D01*
X135842366Y-49380400D01*
X135842367Y-49380400D01*
X135977633Y-49380400D01*
X136107421Y-49342291D01*
X136221214Y-49269160D01*
X136309795Y-49166933D01*
X136353410Y-49071428D01*
X136365986Y-49043893D01*
X136365987Y-49043888D01*
X136374540Y-48984400D01*
X136385237Y-48910000D01*
X136365987Y-48776110D01*
X136365986Y-48776109D01*
X136365986Y-48776106D01*
X136337891Y-48714588D01*
X136309795Y-48653067D01*
X136305309Y-48647890D01*
X136221216Y-48550842D01*
X136214511Y-48545032D01*
X136215400Y-48544005D01*
X136175705Y-48498192D01*
X136164500Y-48446683D01*
X136164500Y-37686779D01*
X136184185Y-37619740D01*
X136200814Y-37599103D01*
X136425921Y-37373996D01*
X137117500Y-37373996D01*
X137117500Y-55126002D01*
X137120527Y-55154165D01*
X137131734Y-55205678D01*
X137161069Y-55264281D01*
X137183946Y-55290682D01*
X137206824Y-55317084D01*
X137206826Y-55317085D01*
X137206827Y-55317086D01*
X137240817Y-55338931D01*
X137269630Y-55357448D01*
X137336669Y-55377133D01*
X137374000Y-55382500D01*
X137374002Y-55382500D01*
X155126000Y-55382500D01*
X155154166Y-55379472D01*
X155205677Y-55368266D01*
X155264280Y-55338931D01*
X155317084Y-55293176D01*
X155357448Y-55230370D01*
X155377133Y-55163331D01*
X155382500Y-55126000D01*
X155382500Y-54886396D01*
X157449100Y-54886396D01*
X157449100Y-58651602D01*
X157452127Y-58679765D01*
X157463334Y-58731278D01*
X157492669Y-58789881D01*
X157518382Y-58819554D01*
X157547408Y-58883109D01*
X157537465Y-58952268D01*
X157518385Y-58981958D01*
X157514516Y-58986423D01*
X157474154Y-59049225D01*
X157474153Y-59049227D01*
X157454466Y-59116271D01*
X157449100Y-59153596D01*
X157449100Y-62918802D01*
X157452127Y-62946965D01*
X157463334Y-62998478D01*
X157492669Y-63057081D01*
X157515546Y-63083482D01*
X157538424Y-63109884D01*
X157538426Y-63109885D01*
X157538427Y-63109886D01*
X157572417Y-63131731D01*
X157601230Y-63150248D01*
X157668269Y-63169933D01*
X157705600Y-63175300D01*
X157705602Y-63175300D01*
X163299600Y-63175300D01*
X163327766Y-63172272D01*
X163379277Y-63161066D01*
X163437880Y-63131731D01*
X163490684Y-63085976D01*
X163531048Y-63023170D01*
X163550733Y-62956131D01*
X163556100Y-62918800D01*
X163556100Y-59153600D01*
X163553072Y-59125434D01*
X163541866Y-59073923D01*
X163512531Y-59015320D01*
X163512529Y-59015316D01*
X163512528Y-59015315D01*
X163486818Y-58985645D01*
X163457791Y-58922090D01*
X163467734Y-58852932D01*
X163486822Y-58823232D01*
X163490678Y-58818781D01*
X163490684Y-58818776D01*
X163531048Y-58755970D01*
X163550733Y-58688931D01*
X163556100Y-58651600D01*
X163556100Y-54886400D01*
X163553072Y-54858234D01*
X163541866Y-54806723D01*
X163512531Y-54748120D01*
X163512530Y-54748118D01*
X163487492Y-54719224D01*
X163466776Y-54695316D01*
X163466773Y-54695314D01*
X163466772Y-54695313D01*
X163403974Y-54654954D01*
X163403972Y-54654953D01*
X163403971Y-54654952D01*
X163403970Y-54654952D01*
X163336931Y-54635267D01*
X163336928Y-54635266D01*
X163299603Y-54629900D01*
X163299600Y-54629900D01*
X157705600Y-54629900D01*
X157705597Y-54629900D01*
X157677434Y-54632927D01*
X157625921Y-54644134D01*
X157567318Y-54673469D01*
X157514516Y-54719224D01*
X157514513Y-54719227D01*
X157474154Y-54782025D01*
X157474153Y-54782027D01*
X157454466Y-54849071D01*
X157449100Y-54886396D01*
X155382500Y-54886396D01*
X155382500Y-47396400D01*
X156801563Y-47396400D01*
X156820812Y-47530288D01*
X156820813Y-47530293D01*
X156867371Y-47632238D01*
X156877005Y-47653333D01*
X156965586Y-47755560D01*
X157079379Y-47828691D01*
X157088647Y-47831412D01*
X157105029Y-47836223D01*
X157163807Y-47873997D01*
X157192832Y-47937553D01*
X157182888Y-48006711D01*
X157137133Y-48059515D01*
X157105029Y-48074177D01*
X157079380Y-48081708D01*
X156965588Y-48154838D01*
X156965583Y-48154842D01*
X156877009Y-48257061D01*
X156877003Y-48257071D01*
X156820813Y-48380106D01*
X156820812Y-48380111D01*
X156801563Y-48514000D01*
X156820812Y-48647888D01*
X156820813Y-48647893D01*
X156867371Y-48749838D01*
X156877005Y-48770933D01*
X156877008Y-48770936D01*
X156877009Y-48770938D01*
X156946464Y-48851093D01*
X156965586Y-48873160D01*
X157079379Y-48946291D01*
X157088647Y-48949012D01*
X157105029Y-48953823D01*
X157163807Y-48991597D01*
X157192832Y-49055153D01*
X157182888Y-49124311D01*
X157137133Y-49177115D01*
X157105029Y-49191777D01*
X157079380Y-49199308D01*
X156965588Y-49272438D01*
X156965583Y-49272442D01*
X156877009Y-49374661D01*
X156877003Y-49374671D01*
X156820813Y-49497706D01*
X156820812Y-49497711D01*
X156801563Y-49631600D01*
X156820812Y-49765488D01*
X156820813Y-49765493D01*
X156867371Y-49867438D01*
X156877005Y-49888533D01*
X156877008Y-49888536D01*
X156877009Y-49888538D01*
X156946464Y-49968693D01*
X156965586Y-49990760D01*
X156965588Y-49990761D01*
X157074390Y-50060685D01*
X157120145Y-50113489D01*
X157130088Y-50182648D01*
X157101063Y-50246203D01*
X157074390Y-50269315D01*
X156965588Y-50339238D01*
X156965583Y-50339242D01*
X156877009Y-50441461D01*
X156877003Y-50441471D01*
X156820813Y-50564506D01*
X156820812Y-50564511D01*
X156801563Y-50698400D01*
X156820812Y-50832288D01*
X156820813Y-50832293D01*
X156867371Y-50934238D01*
X156877005Y-50955333D01*
X156965586Y-51057560D01*
X157079379Y-51130691D01*
X157144273Y-51149745D01*
X157209166Y-51168800D01*
X157209167Y-51168800D01*
X157344433Y-51168800D01*
X157474221Y-51130691D01*
X157588014Y-51057560D01*
X157676595Y-50955333D01*
X157732787Y-50832290D01*
X157752037Y-50698400D01*
X157732787Y-50564510D01*
X157732786Y-50564509D01*
X157732786Y-50564506D01*
X157691819Y-50474803D01*
X157676595Y-50441467D01*
X157650410Y-50411248D01*
X157588016Y-50339242D01*
X157588009Y-50339236D01*
X157479210Y-50269315D01*
X157433455Y-50216511D01*
X157423511Y-50147353D01*
X157452536Y-50083797D01*
X157479210Y-50060685D01*
X157588009Y-49990763D01*
X157588008Y-49990763D01*
X157588014Y-49990760D01*
X157676595Y-49888533D01*
X157732787Y-49765490D01*
X157752037Y-49631600D01*
X157732787Y-49497710D01*
X157732786Y-49497709D01*
X157732786Y-49497706D01*
X157689310Y-49402509D01*
X157676595Y-49374667D01*
X157588014Y-49272440D01*
X157582906Y-49269157D01*
X157474219Y-49199307D01*
X157448571Y-49191777D01*
X157389793Y-49154003D01*
X157360767Y-49090448D01*
X157370710Y-49021289D01*
X157416465Y-48968485D01*
X157448571Y-48953823D01*
X157474218Y-48946292D01*
X157474219Y-48946292D01*
X157474221Y-48946291D01*
X157588014Y-48873160D01*
X157676595Y-48770933D01*
X157730423Y-48653067D01*
X157732786Y-48647893D01*
X157732787Y-48647888D01*
X157752037Y-48514000D01*
X157732787Y-48380110D01*
X157732786Y-48380109D01*
X157732786Y-48380106D01*
X157689310Y-48284909D01*
X157676595Y-48257067D01*
X157588014Y-48154840D01*
X157588011Y-48154838D01*
X157474219Y-48081707D01*
X157448571Y-48074177D01*
X157389793Y-48036403D01*
X157360767Y-47972848D01*
X157370710Y-47903689D01*
X157416465Y-47850885D01*
X157448571Y-47836223D01*
X157474218Y-47828692D01*
X157474219Y-47828692D01*
X157474221Y-47828691D01*
X157588014Y-47755560D01*
X157676595Y-47653333D01*
X157732787Y-47530290D01*
X157752037Y-47396400D01*
X159646363Y-47396400D01*
X159665612Y-47530288D01*
X159665613Y-47530293D01*
X159712171Y-47632238D01*
X159721805Y-47653333D01*
X159810386Y-47755560D01*
X159924179Y-47828691D01*
X159933447Y-47831412D01*
X159949829Y-47836223D01*
X160008607Y-47873997D01*
X160037632Y-47937553D01*
X160027688Y-48006711D01*
X159981933Y-48059515D01*
X159949829Y-48074177D01*
X159924180Y-48081708D01*
X159810388Y-48154838D01*
X159810383Y-48154842D01*
X159721809Y-48257061D01*
X159721803Y-48257071D01*
X159665613Y-48380106D01*
X159665612Y-48380111D01*
X159646363Y-48514000D01*
X159665612Y-48647888D01*
X159665613Y-48647893D01*
X159712171Y-48749838D01*
X159721805Y-48770933D01*
X159721808Y-48770936D01*
X159721809Y-48770938D01*
X159791264Y-48851093D01*
X159810386Y-48873160D01*
X159924179Y-48946291D01*
X159933447Y-48949012D01*
X159949829Y-48953823D01*
X160008607Y-48991597D01*
X160037632Y-49055153D01*
X160027688Y-49124311D01*
X159981933Y-49177115D01*
X159949829Y-49191777D01*
X159924180Y-49199308D01*
X159810388Y-49272438D01*
X159810383Y-49272442D01*
X159721809Y-49374661D01*
X159721803Y-49374671D01*
X159665613Y-49497706D01*
X159665612Y-49497711D01*
X159646363Y-49631600D01*
X159665612Y-49765488D01*
X159665613Y-49765493D01*
X159712171Y-49867438D01*
X159721805Y-49888533D01*
X159721808Y-49888536D01*
X159721809Y-49888538D01*
X159791264Y-49968693D01*
X159810386Y-49990760D01*
X159810388Y-49990761D01*
X159919190Y-50060685D01*
X159964945Y-50113489D01*
X159974888Y-50182648D01*
X159945863Y-50246203D01*
X159919190Y-50269315D01*
X159810388Y-50339238D01*
X159810383Y-50339242D01*
X159721809Y-50441461D01*
X159721803Y-50441471D01*
X159665613Y-50564506D01*
X159665612Y-50564511D01*
X159646363Y-50698400D01*
X159665612Y-50832288D01*
X159665613Y-50832293D01*
X159712171Y-50934238D01*
X159721805Y-50955333D01*
X159810386Y-51057560D01*
X159924179Y-51130691D01*
X159989073Y-51149745D01*
X160053966Y-51168800D01*
X160053967Y-51168800D01*
X160189233Y-51168800D01*
X160319021Y-51130691D01*
X160432814Y-51057560D01*
X160521395Y-50955333D01*
X160577587Y-50832290D01*
X160596837Y-50698400D01*
X160577587Y-50564510D01*
X160577586Y-50564509D01*
X160577586Y-50564506D01*
X160536619Y-50474803D01*
X160521395Y-50441467D01*
X160495210Y-50411248D01*
X160432816Y-50339242D01*
X160432809Y-50339236D01*
X160324010Y-50269315D01*
X160278255Y-50216511D01*
X160268311Y-50147353D01*
X160297336Y-50083797D01*
X160324010Y-50060685D01*
X160432809Y-49990763D01*
X160432808Y-49990763D01*
X160432814Y-49990760D01*
X160521395Y-49888533D01*
X160577587Y-49765490D01*
X160596837Y-49631600D01*
X160577587Y-49497710D01*
X160577586Y-49497709D01*
X160577586Y-49497706D01*
X160534110Y-49402509D01*
X160521395Y-49374667D01*
X160432814Y-49272440D01*
X160427706Y-49269157D01*
X160319019Y-49199307D01*
X160293371Y-49191777D01*
X160234593Y-49154003D01*
X160205567Y-49090448D01*
X160215510Y-49021289D01*
X160261265Y-48968485D01*
X160293371Y-48953823D01*
X160319018Y-48946292D01*
X160319019Y-48946292D01*
X160319021Y-48946291D01*
X160432814Y-48873160D01*
X160521395Y-48770933D01*
X160545934Y-48717200D01*
X162287963Y-48717200D01*
X162307212Y-48851088D01*
X162307213Y-48851093D01*
X162334116Y-48910000D01*
X162363405Y-48974133D01*
X162363408Y-48974136D01*
X162363409Y-48974138D01*
X162433609Y-49055153D01*
X162451986Y-49076360D01*
X162565779Y-49149491D01*
X162575047Y-49152212D01*
X162591429Y-49157023D01*
X162650207Y-49194797D01*
X162679232Y-49258353D01*
X162669288Y-49327511D01*
X162623533Y-49380315D01*
X162591429Y-49394977D01*
X162565780Y-49402508D01*
X162451988Y-49475638D01*
X162451983Y-49475642D01*
X162363409Y-49577861D01*
X162363403Y-49577871D01*
X162307213Y-49700906D01*
X162307212Y-49700911D01*
X162287963Y-49834800D01*
X162307212Y-49968688D01*
X162307213Y-49968693D01*
X162349226Y-50060685D01*
X162363405Y-50091733D01*
X162451986Y-50193960D01*
X162565779Y-50267091D01*
X162573353Y-50269315D01*
X162591429Y-50274623D01*
X162650207Y-50312397D01*
X162679232Y-50375953D01*
X162669288Y-50445111D01*
X162623533Y-50497915D01*
X162591429Y-50512577D01*
X162565780Y-50520108D01*
X162451988Y-50593238D01*
X162451983Y-50593242D01*
X162363409Y-50695461D01*
X162363403Y-50695471D01*
X162307213Y-50818506D01*
X162307212Y-50818511D01*
X162287963Y-50952400D01*
X162307212Y-51086288D01*
X162307213Y-51086293D01*
X162327490Y-51130691D01*
X162363405Y-51209333D01*
X162451986Y-51311560D01*
X162451988Y-51311561D01*
X162560790Y-51381485D01*
X162606545Y-51434289D01*
X162616488Y-51503448D01*
X162587463Y-51567003D01*
X162560790Y-51590115D01*
X162451988Y-51660038D01*
X162451983Y-51660042D01*
X162363409Y-51762261D01*
X162363403Y-51762271D01*
X162307213Y-51885306D01*
X162307212Y-51885311D01*
X162287963Y-52019200D01*
X162307212Y-52153088D01*
X162307213Y-52153093D01*
X162353771Y-52255038D01*
X162363405Y-52276133D01*
X162451986Y-52378360D01*
X162565779Y-52451491D01*
X162630673Y-52470545D01*
X162695566Y-52489600D01*
X162695567Y-52489600D01*
X162830833Y-52489600D01*
X162960621Y-52451491D01*
X163074414Y-52378360D01*
X163162995Y-52276133D01*
X163219187Y-52153090D01*
X163238437Y-52019200D01*
X163219187Y-51885310D01*
X163219186Y-51885309D01*
X163219186Y-51885306D01*
X163191091Y-51823788D01*
X163162995Y-51762267D01*
X163074414Y-51660040D01*
X163074411Y-51660038D01*
X163074409Y-51660036D01*
X162965610Y-51590115D01*
X162919855Y-51537311D01*
X162909911Y-51468153D01*
X162938936Y-51404597D01*
X162965610Y-51381485D01*
X163074409Y-51311563D01*
X163074408Y-51311563D01*
X163074414Y-51311560D01*
X163162995Y-51209333D01*
X163219187Y-51086290D01*
X163238437Y-50952400D01*
X163219187Y-50818510D01*
X163219186Y-50818509D01*
X163219186Y-50818506D01*
X163164334Y-50698400D01*
X163162995Y-50695467D01*
X163074414Y-50593240D01*
X163074411Y-50593238D01*
X162960619Y-50520107D01*
X162934971Y-50512577D01*
X162876193Y-50474803D01*
X162847167Y-50411248D01*
X162857110Y-50342089D01*
X162902865Y-50289285D01*
X162934971Y-50274623D01*
X162960618Y-50267092D01*
X162960619Y-50267092D01*
X162962149Y-50266109D01*
X163074414Y-50193960D01*
X163162995Y-50091733D01*
X163209107Y-49990763D01*
X163219186Y-49968693D01*
X163219187Y-49968688D01*
X163238437Y-49834800D01*
X163219187Y-49700910D01*
X163219186Y-49700909D01*
X163219186Y-49700906D01*
X163187534Y-49631600D01*
X163162995Y-49577867D01*
X163093538Y-49497710D01*
X163074416Y-49475642D01*
X163074411Y-49475638D01*
X162960619Y-49402507D01*
X162934971Y-49394977D01*
X162876193Y-49357203D01*
X162847167Y-49293648D01*
X162857110Y-49224489D01*
X162902865Y-49171685D01*
X162934971Y-49157023D01*
X162960618Y-49149492D01*
X162960619Y-49149492D01*
X162999801Y-49124311D01*
X163074414Y-49076360D01*
X163162995Y-48974133D01*
X163206610Y-48878628D01*
X163219186Y-48851093D01*
X163219187Y-48851088D01*
X163238437Y-48717200D01*
X163219187Y-48583310D01*
X163219186Y-48583309D01*
X163219186Y-48583306D01*
X163187407Y-48513722D01*
X163162995Y-48460267D01*
X163093538Y-48380110D01*
X163074416Y-48358042D01*
X163074411Y-48358038D01*
X162960619Y-48284908D01*
X162830834Y-48246800D01*
X162830833Y-48246800D01*
X162695567Y-48246800D01*
X162695566Y-48246800D01*
X162565780Y-48284908D01*
X162451988Y-48358038D01*
X162451983Y-48358042D01*
X162363409Y-48460261D01*
X162363403Y-48460271D01*
X162307213Y-48583306D01*
X162307212Y-48583311D01*
X162287963Y-48717200D01*
X160545934Y-48717200D01*
X160575223Y-48653067D01*
X160577586Y-48647893D01*
X160577587Y-48647888D01*
X160596837Y-48514000D01*
X160577587Y-48380110D01*
X160577586Y-48380109D01*
X160577586Y-48380106D01*
X160534110Y-48284909D01*
X160521395Y-48257067D01*
X160432814Y-48154840D01*
X160432811Y-48154838D01*
X160319019Y-48081707D01*
X160293371Y-48074177D01*
X160234593Y-48036403D01*
X160205567Y-47972848D01*
X160215510Y-47903689D01*
X160261265Y-47850885D01*
X160293371Y-47836223D01*
X160319018Y-47828692D01*
X160319019Y-47828692D01*
X160319021Y-47828691D01*
X160432814Y-47755560D01*
X160521395Y-47653333D01*
X160577587Y-47530290D01*
X160596837Y-47396400D01*
X160577587Y-47262510D01*
X160577586Y-47262509D01*
X160577586Y-47262506D01*
X160549491Y-47200988D01*
X160521395Y-47139467D01*
X160432814Y-47037240D01*
X160319021Y-46964109D01*
X160319020Y-46964108D01*
X160319019Y-46964108D01*
X160189234Y-46926000D01*
X160189233Y-46926000D01*
X160053967Y-46926000D01*
X160053966Y-46926000D01*
X159924180Y-46964108D01*
X159810388Y-47037238D01*
X159810383Y-47037242D01*
X159721809Y-47139461D01*
X159721803Y-47139471D01*
X159665613Y-47262506D01*
X159665612Y-47262511D01*
X159646363Y-47396400D01*
X157752037Y-47396400D01*
X157732787Y-47262510D01*
X157732786Y-47262509D01*
X157732786Y-47262506D01*
X157704691Y-47200988D01*
X157676595Y-47139467D01*
X157588014Y-47037240D01*
X157474221Y-46964109D01*
X157474220Y-46964108D01*
X157474219Y-46964108D01*
X157344434Y-46926000D01*
X157344433Y-46926000D01*
X157209167Y-46926000D01*
X157209166Y-46926000D01*
X157079380Y-46964108D01*
X156965588Y-47037238D01*
X156965583Y-47037242D01*
X156877009Y-47139461D01*
X156877003Y-47139471D01*
X156820813Y-47262506D01*
X156820812Y-47262511D01*
X156801563Y-47396400D01*
X155382500Y-47396400D01*
X155382500Y-37374000D01*
X155379472Y-37345834D01*
X155368266Y-37294323D01*
X155338931Y-37235720D01*
X155338930Y-37235718D01*
X155313892Y-37206824D01*
X155293176Y-37182916D01*
X155293173Y-37182914D01*
X155293172Y-37182913D01*
X155230374Y-37142554D01*
X155230372Y-37142553D01*
X155230371Y-37142552D01*
X155230370Y-37142552D01*
X155163331Y-37122867D01*
X155163328Y-37122866D01*
X155126003Y-37117500D01*
X155126000Y-37117500D01*
X147960672Y-37117500D01*
X147893633Y-37097815D01*
X147847878Y-37045011D01*
X147837934Y-36975853D01*
X147862296Y-36918014D01*
X147879073Y-36896148D01*
X147921936Y-36840289D01*
X148043224Y-36630212D01*
X148136054Y-36406100D01*
X148198838Y-36171789D01*
X148230500Y-35931288D01*
X148230500Y-35688712D01*
X148198838Y-35448211D01*
X148136054Y-35213900D01*
X148043224Y-34989788D01*
X147921936Y-34779711D01*
X147774265Y-34587262D01*
X147774260Y-34587256D01*
X147602743Y-34415739D01*
X147602736Y-34415733D01*
X147410293Y-34268067D01*
X147410292Y-34268066D01*
X147410289Y-34268064D01*
X147200212Y-34146776D01*
X147185128Y-34140528D01*
X146976104Y-34053947D01*
X146741785Y-33991161D01*
X146501289Y-33959500D01*
X146501288Y-33959500D01*
X146258712Y-33959500D01*
X146258711Y-33959500D01*
X146018214Y-33991161D01*
X145783895Y-34053947D01*
X145559794Y-34146773D01*
X145559785Y-34146777D01*
X145393544Y-34242757D01*
X145354861Y-34265091D01*
X145349706Y-34268067D01*
X145157263Y-34415733D01*
X145157256Y-34415739D01*
X144985739Y-34587256D01*
X144985733Y-34587263D01*
X144838067Y-34779706D01*
X144716777Y-34989785D01*
X144716773Y-34989794D01*
X144623947Y-35213895D01*
X144561161Y-35448214D01*
X144529500Y-35688711D01*
X144529500Y-35931288D01*
X144561161Y-36171785D01*
X144623947Y-36406104D01*
X144716773Y-36630205D01*
X144716776Y-36630212D01*
X144838064Y-36840289D01*
X144838066Y-36840292D01*
X144838067Y-36840293D01*
X144897704Y-36918014D01*
X144922898Y-36983183D01*
X144908860Y-37051628D01*
X144860045Y-37101617D01*
X144799328Y-37117500D01*
X137373997Y-37117500D01*
X137345834Y-37120527D01*
X137294321Y-37131734D01*
X137235718Y-37161069D01*
X137182916Y-37206824D01*
X137182913Y-37206827D01*
X137142554Y-37269625D01*
X137142553Y-37269627D01*
X137122866Y-37336671D01*
X137117500Y-37373996D01*
X136425921Y-37373996D01*
X143263198Y-30536718D01*
X143324521Y-30503234D01*
X143350879Y-30500400D01*
X143477633Y-30500400D01*
X143607421Y-30462291D01*
X143721214Y-30389160D01*
X143809795Y-30286933D01*
X143853410Y-30191428D01*
X143865986Y-30163893D01*
X143865987Y-30163888D01*
X143868083Y-30149309D01*
X143881643Y-30055000D01*
X148754763Y-30055000D01*
X148774012Y-30188888D01*
X148774013Y-30188893D01*
X148814160Y-30276800D01*
X148830205Y-30311933D01*
X148830208Y-30311936D01*
X148830209Y-30311938D01*
X148915781Y-30410693D01*
X148918786Y-30414160D01*
X149032579Y-30487291D01*
X149086876Y-30503234D01*
X149162366Y-30525400D01*
X149162367Y-30525400D01*
X149297633Y-30525400D01*
X149427421Y-30487291D01*
X149541214Y-30414160D01*
X149594820Y-30352296D01*
X149653598Y-30314523D01*
X149688532Y-30309500D01*
X150778220Y-30309500D01*
X150845259Y-30329185D01*
X150865901Y-30345819D01*
X157536682Y-37016599D01*
X157570167Y-37077922D01*
X157573001Y-37104280D01*
X157573001Y-45020622D01*
X157573002Y-45020627D01*
X157611743Y-45114161D01*
X157622868Y-45125286D01*
X157656353Y-45186609D01*
X157657925Y-45230611D01*
X157652263Y-45269997D01*
X157652263Y-45269999D01*
X157671512Y-45403889D01*
X157671513Y-45403893D01*
X157718071Y-45505838D01*
X157727705Y-45526933D01*
X157727708Y-45526936D01*
X157727709Y-45526938D01*
X157766025Y-45571157D01*
X157816286Y-45629160D01*
X157930079Y-45702291D01*
X157987969Y-45719289D01*
X158059866Y-45740400D01*
X158059867Y-45740400D01*
X158195133Y-45740400D01*
X158324921Y-45702291D01*
X158438714Y-45629160D01*
X158527295Y-45526933D01*
X158583487Y-45403890D01*
X158602737Y-45270000D01*
X158583487Y-45136110D01*
X158583486Y-45136109D01*
X158583486Y-45136106D01*
X158555391Y-45074588D01*
X158527295Y-45013067D01*
X158477032Y-44955061D01*
X158438716Y-44910842D01*
X158438711Y-44910838D01*
X158324919Y-44837708D01*
X158195135Y-44799600D01*
X158188352Y-44798625D01*
X158124797Y-44769599D01*
X158087023Y-44710820D01*
X158082001Y-44675887D01*
X158082001Y-44094400D01*
X161983163Y-44094400D01*
X162002412Y-44228288D01*
X162002413Y-44228293D01*
X162048971Y-44330238D01*
X162058605Y-44351333D01*
X162147186Y-44453560D01*
X162260979Y-44526691D01*
X162270247Y-44529412D01*
X162286629Y-44534223D01*
X162345407Y-44571997D01*
X162374432Y-44635553D01*
X162364488Y-44704711D01*
X162318733Y-44757515D01*
X162286629Y-44772177D01*
X162260980Y-44779708D01*
X162147188Y-44852838D01*
X162147183Y-44852842D01*
X162058609Y-44955061D01*
X162058603Y-44955071D01*
X162002413Y-45078106D01*
X162002412Y-45078111D01*
X161983163Y-45212000D01*
X162002412Y-45345888D01*
X162002413Y-45345893D01*
X162028902Y-45403893D01*
X162058605Y-45468933D01*
X162058608Y-45468936D01*
X162058609Y-45468938D01*
X162108862Y-45526933D01*
X162147186Y-45571160D01*
X162260979Y-45644291D01*
X162270247Y-45647012D01*
X162286629Y-45651823D01*
X162345407Y-45689597D01*
X162374432Y-45753153D01*
X162364488Y-45822311D01*
X162318733Y-45875115D01*
X162286629Y-45889777D01*
X162260980Y-45897308D01*
X162147188Y-45970438D01*
X162147183Y-45970442D01*
X162058609Y-46072661D01*
X162058603Y-46072671D01*
X162002413Y-46195706D01*
X162002412Y-46195711D01*
X161983163Y-46329600D01*
X162002412Y-46463488D01*
X162002413Y-46463493D01*
X162048971Y-46565438D01*
X162058605Y-46586533D01*
X162147186Y-46688760D01*
X162147188Y-46688761D01*
X162255990Y-46758685D01*
X162301745Y-46811489D01*
X162311688Y-46880648D01*
X162282663Y-46944203D01*
X162255990Y-46967315D01*
X162147188Y-47037238D01*
X162147183Y-47037242D01*
X162058609Y-47139461D01*
X162058603Y-47139471D01*
X162002413Y-47262506D01*
X162002412Y-47262511D01*
X161983163Y-47396400D01*
X162002412Y-47530288D01*
X162002413Y-47530293D01*
X162048971Y-47632238D01*
X162058605Y-47653333D01*
X162147186Y-47755560D01*
X162260979Y-47828691D01*
X162286631Y-47836223D01*
X162390766Y-47866800D01*
X162390767Y-47866800D01*
X162526033Y-47866800D01*
X162655821Y-47828691D01*
X162769614Y-47755560D01*
X162858195Y-47653333D01*
X162914387Y-47530290D01*
X162933637Y-47396400D01*
X162914387Y-47262510D01*
X162914386Y-47262509D01*
X162914386Y-47262506D01*
X162886291Y-47200988D01*
X162858195Y-47139467D01*
X162769614Y-47037240D01*
X162769611Y-47037238D01*
X162769609Y-47037236D01*
X162660810Y-46967315D01*
X162615055Y-46914511D01*
X162605111Y-46845353D01*
X162634136Y-46781797D01*
X162660810Y-46758685D01*
X162769609Y-46688763D01*
X162769608Y-46688763D01*
X162769614Y-46688760D01*
X162858195Y-46586533D01*
X162914387Y-46463490D01*
X162933637Y-46329600D01*
X162914387Y-46195710D01*
X162914386Y-46195709D01*
X162914386Y-46195706D01*
X162886291Y-46134188D01*
X162858195Y-46072667D01*
X162769614Y-45970440D01*
X162769611Y-45970438D01*
X162655819Y-45897307D01*
X162630171Y-45889777D01*
X162571393Y-45852003D01*
X162542367Y-45788448D01*
X162552310Y-45719289D01*
X162598065Y-45666485D01*
X162630171Y-45651823D01*
X162655818Y-45644292D01*
X162655819Y-45644292D01*
X162655821Y-45644291D01*
X162769614Y-45571160D01*
X162858195Y-45468933D01*
X162914387Y-45345890D01*
X162933637Y-45212000D01*
X162914387Y-45078110D01*
X162914386Y-45078109D01*
X162914386Y-45078106D01*
X162884680Y-45013061D01*
X162858195Y-44955067D01*
X162827270Y-44919378D01*
X162769616Y-44852842D01*
X162769611Y-44852838D01*
X162655819Y-44779707D01*
X162630171Y-44772177D01*
X162571393Y-44734403D01*
X162542367Y-44670848D01*
X162552310Y-44601689D01*
X162598065Y-44548885D01*
X162630171Y-44534223D01*
X162655818Y-44526692D01*
X162655819Y-44526692D01*
X162655821Y-44526691D01*
X162769614Y-44453560D01*
X162858195Y-44351333D01*
X162914387Y-44228290D01*
X162933637Y-44094400D01*
X162914387Y-43960510D01*
X162914386Y-43960509D01*
X162914386Y-43960506D01*
X162886291Y-43898988D01*
X162858195Y-43837467D01*
X162769614Y-43735240D01*
X162655821Y-43662109D01*
X162655820Y-43662108D01*
X162655819Y-43662108D01*
X162526034Y-43624000D01*
X162526033Y-43624000D01*
X162390767Y-43624000D01*
X162390766Y-43624000D01*
X162260980Y-43662108D01*
X162147188Y-43735238D01*
X162147183Y-43735242D01*
X162058609Y-43837461D01*
X162058603Y-43837471D01*
X162002413Y-43960506D01*
X162002412Y-43960511D01*
X161983163Y-44094400D01*
X158082001Y-44094400D01*
X158082001Y-39420800D01*
X161932363Y-39420800D01*
X161951612Y-39554688D01*
X161951613Y-39554693D01*
X161998171Y-39656638D01*
X162007805Y-39677733D01*
X162096386Y-39779960D01*
X162210179Y-39853091D01*
X162219447Y-39855812D01*
X162235829Y-39860623D01*
X162294607Y-39898397D01*
X162323632Y-39961953D01*
X162313688Y-40031111D01*
X162267933Y-40083915D01*
X162235829Y-40098577D01*
X162210180Y-40106108D01*
X162096388Y-40179238D01*
X162096383Y-40179242D01*
X162007809Y-40281461D01*
X162007803Y-40281471D01*
X161951613Y-40404506D01*
X161951612Y-40404511D01*
X161932363Y-40538400D01*
X161951612Y-40672288D01*
X161951613Y-40672293D01*
X161998171Y-40774238D01*
X162007805Y-40795333D01*
X162096386Y-40897560D01*
X162210179Y-40970691D01*
X162219447Y-40973412D01*
X162235829Y-40978223D01*
X162294607Y-41015997D01*
X162323632Y-41079553D01*
X162313688Y-41148711D01*
X162267933Y-41201515D01*
X162235829Y-41216177D01*
X162210180Y-41223708D01*
X162096388Y-41296838D01*
X162096383Y-41296842D01*
X162007809Y-41399061D01*
X162007803Y-41399071D01*
X161951613Y-41522106D01*
X161951612Y-41522111D01*
X161932363Y-41656000D01*
X161951612Y-41789888D01*
X161951613Y-41789893D01*
X161998171Y-41891838D01*
X162007805Y-41912933D01*
X162096386Y-42015160D01*
X162096388Y-42015161D01*
X162205190Y-42085085D01*
X162250945Y-42137889D01*
X162260888Y-42207048D01*
X162231863Y-42270603D01*
X162205190Y-42293715D01*
X162096388Y-42363638D01*
X162096383Y-42363642D01*
X162007809Y-42465861D01*
X162007803Y-42465871D01*
X161951613Y-42588906D01*
X161951612Y-42588911D01*
X161932363Y-42722800D01*
X161951612Y-42856688D01*
X161951613Y-42856693D01*
X161998171Y-42958638D01*
X162007805Y-42979733D01*
X162096386Y-43081960D01*
X162210179Y-43155091D01*
X162275073Y-43174145D01*
X162339966Y-43193200D01*
X162339967Y-43193200D01*
X162475233Y-43193200D01*
X162605021Y-43155091D01*
X162718814Y-43081960D01*
X162807395Y-42979733D01*
X162863587Y-42856690D01*
X162882837Y-42722800D01*
X162863587Y-42588910D01*
X162863586Y-42588909D01*
X162863586Y-42588906D01*
X162835491Y-42527388D01*
X162807395Y-42465867D01*
X162718814Y-42363640D01*
X162718811Y-42363638D01*
X162718809Y-42363636D01*
X162610010Y-42293715D01*
X162564255Y-42240911D01*
X162554311Y-42171753D01*
X162583336Y-42108197D01*
X162610010Y-42085085D01*
X162718809Y-42015163D01*
X162718808Y-42015163D01*
X162718814Y-42015160D01*
X162807395Y-41912933D01*
X162863587Y-41789890D01*
X162882837Y-41656000D01*
X162863587Y-41522110D01*
X162863586Y-41522109D01*
X162863586Y-41522106D01*
X162835491Y-41460588D01*
X162807395Y-41399067D01*
X162718814Y-41296840D01*
X162718811Y-41296838D01*
X162605019Y-41223707D01*
X162579371Y-41216177D01*
X162520593Y-41178403D01*
X162491567Y-41114848D01*
X162501510Y-41045689D01*
X162547265Y-40992885D01*
X162579371Y-40978223D01*
X162605018Y-40970692D01*
X162605019Y-40970692D01*
X162605021Y-40970691D01*
X162718814Y-40897560D01*
X162807395Y-40795333D01*
X162863587Y-40672290D01*
X162882837Y-40538400D01*
X162863587Y-40404510D01*
X162863586Y-40404509D01*
X162863586Y-40404506D01*
X162835491Y-40342988D01*
X162807395Y-40281467D01*
X162718814Y-40179240D01*
X162718811Y-40179238D01*
X162605019Y-40106107D01*
X162579371Y-40098577D01*
X162520593Y-40060803D01*
X162491567Y-39997248D01*
X162501510Y-39928089D01*
X162547265Y-39875285D01*
X162579371Y-39860623D01*
X162605018Y-39853092D01*
X162605019Y-39853092D01*
X162605021Y-39853091D01*
X162718814Y-39779960D01*
X162807395Y-39677733D01*
X162863587Y-39554690D01*
X162882837Y-39420800D01*
X162863587Y-39286910D01*
X162863586Y-39286909D01*
X162863586Y-39286906D01*
X162835491Y-39225388D01*
X162807395Y-39163867D01*
X162718814Y-39061640D01*
X162605021Y-38988509D01*
X162605020Y-38988508D01*
X162605019Y-38988508D01*
X162475234Y-38950400D01*
X162475233Y-38950400D01*
X162339967Y-38950400D01*
X162339966Y-38950400D01*
X162210180Y-38988508D01*
X162096388Y-39061638D01*
X162096383Y-39061642D01*
X162007809Y-39163861D01*
X162007803Y-39163871D01*
X161951613Y-39286906D01*
X161951612Y-39286911D01*
X161932363Y-39420800D01*
X158082001Y-39420800D01*
X158082001Y-36896879D01*
X158081999Y-36896874D01*
X158043258Y-36803340D01*
X157964599Y-36724681D01*
X157964592Y-36724675D01*
X151079162Y-29839244D01*
X151079160Y-29839242D01*
X150985626Y-29800501D01*
X150985624Y-29800500D01*
X150985623Y-29800500D01*
X150985621Y-29800500D01*
X149688532Y-29800500D01*
X149621493Y-29780815D01*
X149594820Y-29757704D01*
X149575708Y-29735648D01*
X149541214Y-29695840D01*
X149427421Y-29622709D01*
X149427420Y-29622708D01*
X149427419Y-29622708D01*
X149297634Y-29584600D01*
X149297633Y-29584600D01*
X149162367Y-29584600D01*
X149162366Y-29584600D01*
X149032580Y-29622708D01*
X148918788Y-29695838D01*
X148918783Y-29695842D01*
X148830209Y-29798061D01*
X148830203Y-29798071D01*
X148774013Y-29921106D01*
X148774012Y-29921111D01*
X148754763Y-30055000D01*
X143881643Y-30055000D01*
X143885237Y-30030000D01*
X143865987Y-29896110D01*
X143865986Y-29896109D01*
X143865986Y-29896106D01*
X143837891Y-29834588D01*
X143809795Y-29773067D01*
X143721214Y-29670840D01*
X143607421Y-29597709D01*
X143607420Y-29597708D01*
X143607419Y-29597708D01*
X143477634Y-29559600D01*
X143477633Y-29559600D01*
X143342367Y-29559600D01*
X143342366Y-29559600D01*
X143212580Y-29597708D01*
X143098788Y-29670838D01*
X143098783Y-29670842D01*
X143010209Y-29773061D01*
X143010203Y-29773071D01*
X142954013Y-29896106D01*
X142954012Y-29896110D01*
X142934763Y-30030000D01*
X142934763Y-30030001D01*
X142940425Y-30069386D01*
X142930481Y-30138544D01*
X142905368Y-30174712D01*
X139415426Y-33664654D01*
X139354103Y-33698139D01*
X139284411Y-33693155D01*
X139228478Y-33651283D01*
X139205007Y-33594621D01*
X139190787Y-33495710D01*
X139190786Y-33495709D01*
X139190786Y-33495706D01*
X139138219Y-33380603D01*
X139134595Y-33372667D01*
X139134590Y-33372661D01*
X139046016Y-33270442D01*
X139046011Y-33270438D01*
X138993047Y-33236400D01*
X138932221Y-33197309D01*
X138932220Y-33197308D01*
X138932219Y-33197308D01*
X138802434Y-33159200D01*
X138802433Y-33159200D01*
X138667167Y-33159200D01*
X138667166Y-33159200D01*
X138537380Y-33197308D01*
X138423588Y-33270438D01*
X138423583Y-33270442D01*
X138335009Y-33372661D01*
X138335003Y-33372671D01*
X138314194Y-33418236D01*
X138268439Y-33471040D01*
X138201400Y-33490724D01*
X138134360Y-33471039D01*
X138088606Y-33418236D01*
X138071419Y-33380603D01*
X138067795Y-33372667D01*
X138067790Y-33372661D01*
X137979216Y-33270442D01*
X137979211Y-33270438D01*
X137926247Y-33236400D01*
X137865421Y-33197309D01*
X137865420Y-33197308D01*
X137865419Y-33197308D01*
X137735634Y-33159200D01*
X137735633Y-33159200D01*
X137600367Y-33159200D01*
X137600366Y-33159200D01*
X137470580Y-33197308D01*
X137356788Y-33270438D01*
X137356783Y-33270442D01*
X137268209Y-33372661D01*
X137268202Y-33372671D01*
X137221994Y-33473853D01*
X137176239Y-33526657D01*
X137109199Y-33546341D01*
X137042160Y-33526656D01*
X136996406Y-33473853D01*
X136950197Y-33372671D01*
X136950196Y-33372670D01*
X136950195Y-33372667D01*
X136950190Y-33372661D01*
X136861616Y-33270442D01*
X136861611Y-33270438D01*
X136808647Y-33236400D01*
X136747821Y-33197309D01*
X136747820Y-33197308D01*
X136747819Y-33197308D01*
X136618034Y-33159200D01*
X136618033Y-33159200D01*
X136482767Y-33159200D01*
X136482766Y-33159200D01*
X136352980Y-33197308D01*
X136239188Y-33270438D01*
X136239183Y-33270442D01*
X136150609Y-33372661D01*
X136150602Y-33372671D01*
X136104394Y-33473853D01*
X136058639Y-33526657D01*
X135991599Y-33546341D01*
X135924560Y-33526656D01*
X135878806Y-33473853D01*
X135832597Y-33372671D01*
X135832596Y-33372670D01*
X135832595Y-33372667D01*
X135832590Y-33372661D01*
X135744016Y-33270442D01*
X135744011Y-33270438D01*
X135691047Y-33236400D01*
X135630221Y-33197309D01*
X135630220Y-33197308D01*
X135630219Y-33197308D01*
X135500434Y-33159200D01*
X135500433Y-33159200D01*
X135365167Y-33159200D01*
X135365166Y-33159200D01*
X135235380Y-33197308D01*
X135121588Y-33270438D01*
X135121583Y-33270442D01*
X135033009Y-33372661D01*
X135033003Y-33372671D01*
X134976813Y-33495706D01*
X134976812Y-33495711D01*
X134957563Y-33629600D01*
X134513134Y-33629600D01*
X134511795Y-33626667D01*
X134486357Y-33597310D01*
X134423216Y-33524442D01*
X134423209Y-33524436D01*
X134314410Y-33454515D01*
X134268655Y-33401711D01*
X134258711Y-33332553D01*
X134287736Y-33268997D01*
X134314410Y-33245885D01*
X134408214Y-33185600D01*
X134423214Y-33175960D01*
X134511795Y-33073733D01*
X134567987Y-32950690D01*
X134587237Y-32816800D01*
X134567987Y-32682910D01*
X134567986Y-32682909D01*
X134567986Y-32682906D01*
X134527882Y-32595093D01*
X134511795Y-32559867D01*
X134486357Y-32530510D01*
X134426299Y-32461200D01*
X135567163Y-32461200D01*
X135586412Y-32595088D01*
X135586413Y-32595093D01*
X135632971Y-32697038D01*
X135642605Y-32718133D01*
X135642608Y-32718136D01*
X135642609Y-32718138D01*
X135712064Y-32798293D01*
X135731186Y-32820360D01*
X135844979Y-32893491D01*
X135909873Y-32912545D01*
X135974766Y-32931600D01*
X135974767Y-32931600D01*
X136110033Y-32931600D01*
X136239821Y-32893491D01*
X136353614Y-32820360D01*
X136442195Y-32718133D01*
X136481480Y-32632111D01*
X136488406Y-32616946D01*
X136534161Y-32564142D01*
X136601200Y-32544458D01*
X136668240Y-32564143D01*
X136713994Y-32616946D01*
X136720920Y-32632111D01*
X136760205Y-32718133D01*
X136760208Y-32718136D01*
X136760209Y-32718138D01*
X136829664Y-32798293D01*
X136848786Y-32820360D01*
X136962579Y-32893491D01*
X137027473Y-32912545D01*
X137092366Y-32931600D01*
X137092367Y-32931600D01*
X137227633Y-32931600D01*
X137357421Y-32893491D01*
X137471214Y-32820360D01*
X137559795Y-32718133D01*
X137599080Y-32632111D01*
X137606006Y-32616946D01*
X137651761Y-32564142D01*
X137718800Y-32544458D01*
X137785840Y-32564143D01*
X137831594Y-32616946D01*
X137838520Y-32632111D01*
X137877805Y-32718133D01*
X137877808Y-32718136D01*
X137877809Y-32718138D01*
X137947264Y-32798293D01*
X137966386Y-32820360D01*
X138080179Y-32893491D01*
X138145073Y-32912545D01*
X138209966Y-32931600D01*
X138209967Y-32931600D01*
X138345233Y-32931600D01*
X138475021Y-32893491D01*
X138588814Y-32820360D01*
X138677395Y-32718133D01*
X138698206Y-32672562D01*
X138743960Y-32619760D01*
X138811000Y-32600075D01*
X138878039Y-32619759D01*
X138923793Y-32672562D01*
X138944605Y-32718133D01*
X138944607Y-32718136D01*
X138944609Y-32718138D01*
X139014064Y-32798293D01*
X139033186Y-32820360D01*
X139146979Y-32893491D01*
X139211873Y-32912545D01*
X139276766Y-32931600D01*
X139276767Y-32931600D01*
X139412033Y-32931600D01*
X139541821Y-32893491D01*
X139655614Y-32820360D01*
X139744195Y-32718133D01*
X139790406Y-32616946D01*
X139800386Y-32595093D01*
X139800387Y-32595088D01*
X139802368Y-32581310D01*
X139819637Y-32461200D01*
X139800387Y-32327310D01*
X139800386Y-32327309D01*
X139800386Y-32327306D01*
X139756910Y-32232109D01*
X139744195Y-32204267D01*
X139687660Y-32139023D01*
X139655616Y-32102042D01*
X139655611Y-32102038D01*
X139587647Y-32058360D01*
X139541821Y-32028909D01*
X139541820Y-32028908D01*
X139541819Y-32028908D01*
X139412034Y-31990800D01*
X139412033Y-31990800D01*
X139276767Y-31990800D01*
X139276766Y-31990800D01*
X139146980Y-32028908D01*
X139033188Y-32102038D01*
X139033183Y-32102042D01*
X138944609Y-32204261D01*
X138944603Y-32204271D01*
X138923794Y-32249836D01*
X138878039Y-32302640D01*
X138811000Y-32322324D01*
X138743960Y-32302639D01*
X138698206Y-32249836D01*
X138690110Y-32232109D01*
X138677395Y-32204267D01*
X138620860Y-32139023D01*
X138588816Y-32102042D01*
X138588811Y-32102038D01*
X138520847Y-32058360D01*
X138475021Y-32028909D01*
X138475020Y-32028908D01*
X138475019Y-32028908D01*
X138345234Y-31990800D01*
X138345233Y-31990800D01*
X138209967Y-31990800D01*
X138209966Y-31990800D01*
X138080180Y-32028908D01*
X137966388Y-32102038D01*
X137966383Y-32102042D01*
X137877809Y-32204261D01*
X137877802Y-32204271D01*
X137831594Y-32305453D01*
X137785839Y-32358257D01*
X137718799Y-32377941D01*
X137651760Y-32358256D01*
X137606006Y-32305453D01*
X137559797Y-32204271D01*
X137559796Y-32204270D01*
X137559795Y-32204267D01*
X137503260Y-32139023D01*
X137471216Y-32102042D01*
X137471211Y-32102038D01*
X137403247Y-32058360D01*
X137357421Y-32028909D01*
X137357420Y-32028908D01*
X137357419Y-32028908D01*
X137227634Y-31990800D01*
X137227633Y-31990800D01*
X137092367Y-31990800D01*
X137092366Y-31990800D01*
X136962580Y-32028908D01*
X136848788Y-32102038D01*
X136848783Y-32102042D01*
X136760209Y-32204261D01*
X136760202Y-32204271D01*
X136713994Y-32305453D01*
X136668239Y-32358257D01*
X136601199Y-32377941D01*
X136534160Y-32358256D01*
X136488406Y-32305453D01*
X136442197Y-32204271D01*
X136442196Y-32204270D01*
X136442195Y-32204267D01*
X136385660Y-32139023D01*
X136353616Y-32102042D01*
X136353611Y-32102038D01*
X136285647Y-32058360D01*
X136239821Y-32028909D01*
X136239820Y-32028908D01*
X136239819Y-32028908D01*
X136110034Y-31990800D01*
X136110033Y-31990800D01*
X135974767Y-31990800D01*
X135974766Y-31990800D01*
X135844980Y-32028908D01*
X135731188Y-32102038D01*
X135731183Y-32102042D01*
X135642609Y-32204261D01*
X135642603Y-32204271D01*
X135586413Y-32327306D01*
X135586412Y-32327311D01*
X135567163Y-32461200D01*
X134426299Y-32461200D01*
X134423216Y-32457642D01*
X134423211Y-32457638D01*
X134309419Y-32384507D01*
X134283771Y-32376977D01*
X134224993Y-32339203D01*
X134195967Y-32275648D01*
X134205910Y-32206489D01*
X134251665Y-32153685D01*
X134283771Y-32139023D01*
X134309418Y-32131492D01*
X134309419Y-32131492D01*
X134309421Y-32131491D01*
X134423214Y-32058360D01*
X134511795Y-31956133D01*
X134567987Y-31833090D01*
X134587237Y-31699200D01*
X134567987Y-31565310D01*
X134567986Y-31565309D01*
X134567986Y-31565306D01*
X134527882Y-31477493D01*
X134511795Y-31442267D01*
X134486357Y-31412910D01*
X134423216Y-31340042D01*
X134423211Y-31340038D01*
X134309419Y-31266907D01*
X134283771Y-31259377D01*
X134224993Y-31221603D01*
X134195967Y-31158048D01*
X134205910Y-31088889D01*
X134251665Y-31036085D01*
X134283771Y-31021423D01*
X134309418Y-31013892D01*
X134309419Y-31013892D01*
X134309421Y-31013891D01*
X134423214Y-30940760D01*
X134511795Y-30838533D01*
X134567987Y-30715490D01*
X134587237Y-30581600D01*
X134567987Y-30447710D01*
X134567986Y-30447709D01*
X134567986Y-30447706D01*
X134529099Y-30362558D01*
X134511795Y-30324667D01*
X134500761Y-30311933D01*
X134423216Y-30222442D01*
X134423211Y-30222438D01*
X134371010Y-30188890D01*
X134309421Y-30149309D01*
X134309420Y-30149308D01*
X134309419Y-30149308D01*
X134179634Y-30111200D01*
X134179633Y-30111200D01*
X134044367Y-30111200D01*
X134044366Y-30111200D01*
X133914580Y-30149308D01*
X133800788Y-30222438D01*
X133800783Y-30222442D01*
X133712209Y-30324661D01*
X133712203Y-30324671D01*
X133656013Y-30447706D01*
X133656012Y-30447711D01*
X133636763Y-30581600D01*
X131176333Y-30581600D01*
X131183637Y-30530800D01*
X131164387Y-30396910D01*
X131164386Y-30396909D01*
X131164386Y-30396906D01*
X131131396Y-30324671D01*
X131108195Y-30273867D01*
X131034564Y-30188893D01*
X131019616Y-30171642D01*
X131019611Y-30171638D01*
X130956102Y-30130823D01*
X130905821Y-30098509D01*
X130905820Y-30098508D01*
X130905819Y-30098508D01*
X130776034Y-30060400D01*
X130776033Y-30060400D01*
X130640767Y-30060400D01*
X130640766Y-30060400D01*
X130510980Y-30098508D01*
X130397188Y-30171638D01*
X130397183Y-30171642D01*
X130308609Y-30273861D01*
X130308603Y-30273871D01*
X130252413Y-30396906D01*
X130252412Y-30396911D01*
X130233163Y-30530800D01*
X127500000Y-30530800D01*
X127500000Y-26365200D01*
X135821163Y-26365200D01*
X135840412Y-26499088D01*
X135840413Y-26499093D01*
X135886971Y-26601038D01*
X135896605Y-26622133D01*
X135896608Y-26622136D01*
X135896609Y-26622138D01*
X135942761Y-26675400D01*
X135985186Y-26724360D01*
X136098979Y-26797491D01*
X136108247Y-26800212D01*
X136124629Y-26805023D01*
X136183407Y-26842797D01*
X136212432Y-26906353D01*
X136202488Y-26975511D01*
X136156733Y-27028315D01*
X136124629Y-27042977D01*
X136098980Y-27050508D01*
X135985188Y-27123638D01*
X135985183Y-27123642D01*
X135896609Y-27225861D01*
X135896603Y-27225871D01*
X135840413Y-27348906D01*
X135840412Y-27348911D01*
X135821163Y-27482800D01*
X135840412Y-27616688D01*
X135840413Y-27616693D01*
X135880770Y-27705059D01*
X135896605Y-27739733D01*
X135896608Y-27739736D01*
X135896609Y-27739738D01*
X135935535Y-27784661D01*
X135985186Y-27841960D01*
X136098979Y-27915091D01*
X136108247Y-27917812D01*
X136124629Y-27922623D01*
X136183407Y-27960397D01*
X136212432Y-28023953D01*
X136202488Y-28093111D01*
X136156733Y-28145915D01*
X136124629Y-28160577D01*
X136098980Y-28168108D01*
X135985188Y-28241238D01*
X135985183Y-28241242D01*
X135896609Y-28343461D01*
X135896603Y-28343471D01*
X135840413Y-28466506D01*
X135840412Y-28466511D01*
X135821163Y-28600400D01*
X135840412Y-28734288D01*
X135840413Y-28734293D01*
X135870439Y-28800038D01*
X135896605Y-28857333D01*
X135896608Y-28857336D01*
X135896609Y-28857338D01*
X135935535Y-28902261D01*
X135985186Y-28959560D01*
X135985188Y-28959561D01*
X136093990Y-29029485D01*
X136139745Y-29082289D01*
X136149688Y-29151448D01*
X136120663Y-29215003D01*
X136093990Y-29238115D01*
X135985188Y-29308038D01*
X135985183Y-29308042D01*
X135896609Y-29410261D01*
X135896603Y-29410271D01*
X135840413Y-29533306D01*
X135840412Y-29533311D01*
X135821163Y-29667200D01*
X135840412Y-29801088D01*
X135840413Y-29801093D01*
X135883805Y-29896106D01*
X135896605Y-29924133D01*
X135896608Y-29924136D01*
X135896609Y-29924138D01*
X135979559Y-30019867D01*
X135985186Y-30026360D01*
X136098979Y-30099491D01*
X136163873Y-30118545D01*
X136228766Y-30137600D01*
X136228767Y-30137600D01*
X136364033Y-30137600D01*
X136493821Y-30099491D01*
X136591461Y-30036740D01*
X136658499Y-30017056D01*
X136725539Y-30036740D01*
X136771294Y-30089544D01*
X136782500Y-30141056D01*
X136782500Y-30465963D01*
X136762815Y-30533002D01*
X136710011Y-30578757D01*
X136640853Y-30588701D01*
X136623566Y-30584940D01*
X136567235Y-30568400D01*
X136567233Y-30568400D01*
X136431967Y-30568400D01*
X136431966Y-30568400D01*
X136302180Y-30606508D01*
X136188388Y-30679638D01*
X136188383Y-30679642D01*
X136099809Y-30781861D01*
X136099803Y-30781871D01*
X136043613Y-30904906D01*
X136043612Y-30904911D01*
X136024363Y-31038800D01*
X136043612Y-31172688D01*
X136043613Y-31172693D01*
X136086641Y-31266908D01*
X136099805Y-31295733D01*
X136099808Y-31295736D01*
X136099809Y-31295738D01*
X136182759Y-31391467D01*
X136188386Y-31397960D01*
X136302179Y-31471091D01*
X136367073Y-31490145D01*
X136431966Y-31509200D01*
X136431967Y-31509200D01*
X136567233Y-31509200D01*
X136697021Y-31471091D01*
X136810814Y-31397960D01*
X136899395Y-31295733D01*
X136938680Y-31209711D01*
X136945606Y-31194546D01*
X136991361Y-31141742D01*
X137058400Y-31122058D01*
X137125440Y-31141743D01*
X137171194Y-31194546D01*
X137178120Y-31209711D01*
X137217405Y-31295733D01*
X137217408Y-31295736D01*
X137217409Y-31295738D01*
X137300359Y-31391467D01*
X137305986Y-31397960D01*
X137419779Y-31471091D01*
X137484673Y-31490145D01*
X137549566Y-31509200D01*
X137549567Y-31509200D01*
X137684833Y-31509200D01*
X137814621Y-31471091D01*
X137928414Y-31397960D01*
X138016995Y-31295733D01*
X138056280Y-31209711D01*
X138063206Y-31194546D01*
X138108961Y-31141742D01*
X138176000Y-31122058D01*
X138243040Y-31141743D01*
X138288794Y-31194546D01*
X138295720Y-31209711D01*
X138335005Y-31295733D01*
X138335008Y-31295736D01*
X138335009Y-31295738D01*
X138417959Y-31391467D01*
X138423586Y-31397960D01*
X138537379Y-31471091D01*
X138602273Y-31490145D01*
X138667166Y-31509200D01*
X138667167Y-31509200D01*
X138802433Y-31509200D01*
X138932221Y-31471091D01*
X139046014Y-31397960D01*
X139134595Y-31295733D01*
X139155406Y-31250162D01*
X139201160Y-31197360D01*
X139268200Y-31177675D01*
X139335239Y-31197359D01*
X139380993Y-31250162D01*
X139401805Y-31295733D01*
X139401807Y-31295736D01*
X139401809Y-31295738D01*
X139484759Y-31391467D01*
X139490386Y-31397960D01*
X139604179Y-31471091D01*
X139669073Y-31490145D01*
X139733966Y-31509200D01*
X139733967Y-31509200D01*
X139869233Y-31509200D01*
X139999021Y-31471091D01*
X140112814Y-31397960D01*
X140201395Y-31295733D01*
X140250760Y-31187640D01*
X140257586Y-31172693D01*
X140257587Y-31172688D01*
X140262036Y-31141743D01*
X140276837Y-31038800D01*
X140257587Y-30904910D01*
X140257586Y-30904909D01*
X140257586Y-30904906D01*
X140227560Y-30839160D01*
X140201395Y-30781867D01*
X140171356Y-30747200D01*
X140112816Y-30679642D01*
X140112810Y-30679637D01*
X140094459Y-30667843D01*
X140048705Y-30615038D01*
X140037500Y-30563529D01*
X140037500Y-26142500D01*
X142934763Y-26142500D01*
X142954012Y-26276388D01*
X142954013Y-26276393D01*
X142982557Y-26338893D01*
X143010205Y-26399433D01*
X143010208Y-26399436D01*
X143010209Y-26399438D01*
X143096561Y-26499093D01*
X143098786Y-26501660D01*
X143212579Y-26574791D01*
X143277473Y-26593845D01*
X143342366Y-26612900D01*
X143342367Y-26612900D01*
X143477633Y-26612900D01*
X143607421Y-26574791D01*
X143721214Y-26501660D01*
X143809795Y-26399433D01*
X143865987Y-26276390D01*
X143876251Y-26205000D01*
X148754763Y-26205000D01*
X148774012Y-26338888D01*
X148774013Y-26338893D01*
X148801662Y-26399433D01*
X148830205Y-26461933D01*
X148830208Y-26461936D01*
X148830209Y-26461938D01*
X148864629Y-26501661D01*
X148918786Y-26564160D01*
X149032579Y-26637291D01*
X149097473Y-26656345D01*
X149162366Y-26675400D01*
X149162367Y-26675400D01*
X149297633Y-26675400D01*
X149427421Y-26637291D01*
X149541214Y-26564160D01*
X149629795Y-26461933D01*
X149685987Y-26338890D01*
X149705237Y-26205000D01*
X149685987Y-26071110D01*
X149685986Y-26071109D01*
X149685986Y-26071106D01*
X149656270Y-26006040D01*
X149629795Y-25948067D01*
X149629790Y-25948061D01*
X149541216Y-25845842D01*
X149541211Y-25845838D01*
X149427419Y-25772708D01*
X149297634Y-25734600D01*
X149297633Y-25734600D01*
X149162367Y-25734600D01*
X149162366Y-25734600D01*
X149032580Y-25772708D01*
X148918788Y-25845838D01*
X148918783Y-25845842D01*
X148830209Y-25948061D01*
X148830203Y-25948071D01*
X148774013Y-26071106D01*
X148774012Y-26071111D01*
X148754763Y-26205000D01*
X143876251Y-26205000D01*
X143885237Y-26142500D01*
X143865987Y-26008610D01*
X143865986Y-26008609D01*
X143865986Y-26008606D01*
X143831415Y-25932908D01*
X143809795Y-25885567D01*
X143775371Y-25845840D01*
X143721216Y-25783342D01*
X143721211Y-25783338D01*
X143607419Y-25710208D01*
X143477634Y-25672100D01*
X143477633Y-25672100D01*
X143342367Y-25672100D01*
X143342366Y-25672100D01*
X143212580Y-25710208D01*
X143098788Y-25783338D01*
X143098783Y-25783342D01*
X143010209Y-25885561D01*
X143010203Y-25885571D01*
X142954013Y-26008606D01*
X142954012Y-26008611D01*
X142934763Y-26142500D01*
X140037500Y-26142500D01*
X140037500Y-25174941D01*
X140035662Y-25165705D01*
X140030102Y-25137752D01*
X140030101Y-25137750D01*
X140001922Y-25095577D01*
X139959749Y-25067398D01*
X139922559Y-25060000D01*
X139922558Y-25060000D01*
X136897442Y-25060000D01*
X136897441Y-25060000D01*
X136860250Y-25067398D01*
X136818077Y-25095577D01*
X136789898Y-25137750D01*
X136782500Y-25174941D01*
X136782500Y-25891343D01*
X136762815Y-25958382D01*
X136710011Y-26004137D01*
X136640853Y-26014081D01*
X136591460Y-25995658D01*
X136493819Y-25932908D01*
X136364034Y-25894800D01*
X136364033Y-25894800D01*
X136228767Y-25894800D01*
X136228766Y-25894800D01*
X136098980Y-25932908D01*
X135985188Y-26006038D01*
X135985183Y-26006042D01*
X135896609Y-26108261D01*
X135896603Y-26108271D01*
X135840413Y-26231306D01*
X135840412Y-26231311D01*
X135821163Y-26365200D01*
X127500000Y-26365200D01*
X127500000Y-24937441D01*
X152942500Y-24937441D01*
X152942500Y-30362558D01*
X152949898Y-30399749D01*
X152978077Y-30441922D01*
X153020250Y-30470101D01*
X153020252Y-30470102D01*
X153048205Y-30475662D01*
X153057441Y-30477500D01*
X153057442Y-30477500D01*
X156082559Y-30477500D01*
X156088729Y-30476272D01*
X156119748Y-30470102D01*
X156128382Y-30464332D01*
X156195057Y-30443452D01*
X156262438Y-30461934D01*
X156309130Y-30513910D01*
X156310070Y-30515921D01*
X156318201Y-30533726D01*
X156318203Y-30533729D01*
X156318205Y-30533733D01*
X156318207Y-30533736D01*
X156318209Y-30533738D01*
X156388656Y-30615038D01*
X156406786Y-30635960D01*
X156463157Y-30672188D01*
X156515590Y-30705885D01*
X156561345Y-30758689D01*
X156571288Y-30827848D01*
X156542263Y-30891403D01*
X156515590Y-30914515D01*
X156406788Y-30984438D01*
X156406783Y-30984442D01*
X156318209Y-31086661D01*
X156318203Y-31086671D01*
X156262013Y-31209706D01*
X156262012Y-31209711D01*
X156242763Y-31343600D01*
X156262012Y-31477488D01*
X156262013Y-31477493D01*
X156308571Y-31579438D01*
X156318205Y-31600533D01*
X156318208Y-31600536D01*
X156318209Y-31600538D01*
X156387664Y-31680693D01*
X156406786Y-31702760D01*
X156520579Y-31775891D01*
X156585473Y-31794945D01*
X156650366Y-31814000D01*
X156650367Y-31814000D01*
X156785633Y-31814000D01*
X156915421Y-31775891D01*
X157029214Y-31702760D01*
X157117795Y-31600533D01*
X157173987Y-31477490D01*
X157193237Y-31343600D01*
X157173987Y-31209710D01*
X157173986Y-31209709D01*
X157173986Y-31209706D01*
X157134275Y-31122753D01*
X157117795Y-31086667D01*
X157061260Y-31021423D01*
X157029216Y-30984442D01*
X157029209Y-30984436D01*
X156920410Y-30914515D01*
X156874655Y-30861711D01*
X156864711Y-30792553D01*
X156893736Y-30728997D01*
X156920410Y-30705885D01*
X157029209Y-30635963D01*
X157029208Y-30635963D01*
X157029214Y-30635960D01*
X157117795Y-30533733D01*
X157165534Y-30429200D01*
X159798763Y-30429200D01*
X159818012Y-30563088D01*
X159818013Y-30563093D01*
X159851292Y-30635961D01*
X159874205Y-30686133D01*
X159874208Y-30686136D01*
X159874209Y-30686138D01*
X159962242Y-30787733D01*
X159962786Y-30788360D01*
X160076579Y-30861491D01*
X160085847Y-30864212D01*
X160102229Y-30869023D01*
X160161007Y-30906797D01*
X160190032Y-30970353D01*
X160180088Y-31039511D01*
X160134333Y-31092315D01*
X160102229Y-31106977D01*
X160076580Y-31114508D01*
X159962788Y-31187638D01*
X159962783Y-31187642D01*
X159874209Y-31289861D01*
X159874203Y-31289871D01*
X159818013Y-31412906D01*
X159818012Y-31412911D01*
X159798763Y-31546800D01*
X159818012Y-31680688D01*
X159818013Y-31680693D01*
X159861490Y-31775891D01*
X159874205Y-31803733D01*
X159874208Y-31803736D01*
X159874209Y-31803738D01*
X159962242Y-31905333D01*
X159962786Y-31905960D01*
X160076579Y-31979091D01*
X160085847Y-31981812D01*
X160102229Y-31986623D01*
X160161007Y-32024397D01*
X160190032Y-32087953D01*
X160180088Y-32157111D01*
X160134333Y-32209915D01*
X160102229Y-32224577D01*
X160076580Y-32232108D01*
X159962788Y-32305238D01*
X159962783Y-32305242D01*
X159874209Y-32407461D01*
X159874203Y-32407471D01*
X159818013Y-32530506D01*
X159818012Y-32530511D01*
X159798763Y-32664400D01*
X159818012Y-32798288D01*
X159818013Y-32798293D01*
X159861490Y-32893491D01*
X159874205Y-32921333D01*
X159874208Y-32921336D01*
X159874209Y-32921338D01*
X159962242Y-33022933D01*
X159962786Y-33023560D01*
X159962788Y-33023561D01*
X160071590Y-33093485D01*
X160117345Y-33146289D01*
X160127288Y-33215448D01*
X160098263Y-33279003D01*
X160071590Y-33302115D01*
X159962788Y-33372038D01*
X159962783Y-33372042D01*
X159874209Y-33474261D01*
X159874203Y-33474271D01*
X159818013Y-33597306D01*
X159818012Y-33597311D01*
X159798763Y-33731200D01*
X159818012Y-33865088D01*
X159818013Y-33865093D01*
X159861129Y-33959500D01*
X159874205Y-33988133D01*
X159874208Y-33988136D01*
X159874209Y-33988138D01*
X159962242Y-34089733D01*
X159962786Y-34090360D01*
X160076579Y-34163491D01*
X160107224Y-34172489D01*
X160206366Y-34201600D01*
X160206367Y-34201600D01*
X160341633Y-34201600D01*
X160471421Y-34163491D01*
X160585214Y-34090360D01*
X160673795Y-33988133D01*
X160729987Y-33865090D01*
X160749237Y-33731200D01*
X160729987Y-33597310D01*
X160729986Y-33597309D01*
X160729986Y-33597306D01*
X160696996Y-33525071D01*
X160673795Y-33474267D01*
X160673436Y-33473853D01*
X160585216Y-33372042D01*
X160585209Y-33372036D01*
X160476410Y-33302115D01*
X160430655Y-33249311D01*
X160420711Y-33180153D01*
X160449736Y-33116597D01*
X160476410Y-33093485D01*
X160585209Y-33023563D01*
X160585208Y-33023563D01*
X160585214Y-33023560D01*
X160673795Y-32921333D01*
X160717410Y-32825828D01*
X160729986Y-32798293D01*
X160729987Y-32798288D01*
X160734629Y-32766000D01*
X160749237Y-32664400D01*
X160729987Y-32530510D01*
X160729986Y-32530509D01*
X160729986Y-32530506D01*
X160696996Y-32458271D01*
X160673795Y-32407467D01*
X160673790Y-32407461D01*
X160585216Y-32305242D01*
X160585211Y-32305238D01*
X160471419Y-32232107D01*
X160445771Y-32224577D01*
X160386993Y-32186803D01*
X160357967Y-32123248D01*
X160367910Y-32054089D01*
X160413665Y-32001285D01*
X160445771Y-31986623D01*
X160471418Y-31979092D01*
X160471419Y-31979092D01*
X160471421Y-31979091D01*
X160585214Y-31905960D01*
X160673795Y-31803733D01*
X160717410Y-31708228D01*
X160729986Y-31680693D01*
X160729987Y-31680688D01*
X160734629Y-31648400D01*
X160749237Y-31546800D01*
X160729987Y-31412910D01*
X160729986Y-31412909D01*
X160729986Y-31412906D01*
X160696996Y-31340671D01*
X160673795Y-31289867D01*
X160673790Y-31289861D01*
X160585216Y-31187642D01*
X160585211Y-31187638D01*
X160471419Y-31114507D01*
X160445771Y-31106977D01*
X160386993Y-31069203D01*
X160357967Y-31005648D01*
X160367910Y-30936489D01*
X160413665Y-30883685D01*
X160445771Y-30869023D01*
X160471418Y-30861492D01*
X160471419Y-30861492D01*
X160471421Y-30861491D01*
X160585214Y-30788360D01*
X160673795Y-30686133D01*
X160729987Y-30563090D01*
X160741933Y-30480000D01*
X162643563Y-30480000D01*
X162662812Y-30613888D01*
X162662813Y-30613893D01*
X162709211Y-30715488D01*
X162719005Y-30736933D01*
X162719008Y-30736936D01*
X162719009Y-30736938D01*
X162807042Y-30838533D01*
X162807586Y-30839160D01*
X162921379Y-30912291D01*
X162928953Y-30914515D01*
X162947029Y-30919823D01*
X163005807Y-30957597D01*
X163034832Y-31021153D01*
X163024888Y-31090311D01*
X162979133Y-31143115D01*
X162947029Y-31157777D01*
X162921380Y-31165308D01*
X162807588Y-31238438D01*
X162807583Y-31238442D01*
X162719009Y-31340661D01*
X162719003Y-31340671D01*
X162662813Y-31463706D01*
X162662812Y-31463711D01*
X162643563Y-31597600D01*
X162662812Y-31731488D01*
X162662813Y-31731493D01*
X162700494Y-31814000D01*
X162719005Y-31854533D01*
X162719008Y-31854536D01*
X162719009Y-31854538D01*
X162807042Y-31956133D01*
X162807586Y-31956760D01*
X162921379Y-32029891D01*
X162930647Y-32032612D01*
X162947029Y-32037423D01*
X163005807Y-32075197D01*
X163034832Y-32138753D01*
X163024888Y-32207911D01*
X162979133Y-32260715D01*
X162947029Y-32275377D01*
X162921380Y-32282908D01*
X162807588Y-32356038D01*
X162807583Y-32356042D01*
X162719009Y-32458261D01*
X162719003Y-32458271D01*
X162662813Y-32581306D01*
X162662812Y-32581311D01*
X162643563Y-32715200D01*
X162662812Y-32849088D01*
X162662813Y-32849093D01*
X162700494Y-32931600D01*
X162719005Y-32972133D01*
X162719008Y-32972136D01*
X162719009Y-32972138D01*
X162807042Y-33073733D01*
X162807586Y-33074360D01*
X162863957Y-33110588D01*
X162916390Y-33144285D01*
X162962145Y-33197089D01*
X162972088Y-33266248D01*
X162943063Y-33329803D01*
X162916390Y-33352915D01*
X162807588Y-33422838D01*
X162807583Y-33422842D01*
X162719009Y-33525061D01*
X162719003Y-33525071D01*
X162662813Y-33648106D01*
X162662812Y-33648111D01*
X162643563Y-33782000D01*
X162662812Y-33915888D01*
X162662813Y-33915893D01*
X162709211Y-34017488D01*
X162719005Y-34038933D01*
X162719008Y-34038936D01*
X162719009Y-34038938D01*
X162807042Y-34140533D01*
X162807586Y-34141160D01*
X162921379Y-34214291D01*
X162986273Y-34233345D01*
X163051166Y-34252400D01*
X163051167Y-34252400D01*
X163186433Y-34252400D01*
X163316221Y-34214291D01*
X163430014Y-34141160D01*
X163518595Y-34038933D01*
X163574787Y-33915890D01*
X163594037Y-33782000D01*
X163574787Y-33648110D01*
X163574786Y-33648109D01*
X163574786Y-33648106D01*
X163541796Y-33575871D01*
X163518595Y-33525067D01*
X163518590Y-33525061D01*
X163430016Y-33422842D01*
X163430009Y-33422836D01*
X163321210Y-33352915D01*
X163275455Y-33300111D01*
X163265511Y-33230953D01*
X163294536Y-33167397D01*
X163321210Y-33144285D01*
X163430009Y-33074363D01*
X163430008Y-33074363D01*
X163430014Y-33074360D01*
X163518595Y-32972133D01*
X163574787Y-32849090D01*
X163594037Y-32715200D01*
X163574787Y-32581310D01*
X163574786Y-32581309D01*
X163574786Y-32581306D01*
X163541796Y-32509071D01*
X163518595Y-32458267D01*
X163518590Y-32458261D01*
X163430016Y-32356042D01*
X163430011Y-32356038D01*
X163316219Y-32282907D01*
X163290571Y-32275377D01*
X163231793Y-32237603D01*
X163202767Y-32174048D01*
X163212710Y-32104889D01*
X163258465Y-32052085D01*
X163290571Y-32037423D01*
X163316218Y-32029892D01*
X163316219Y-32029892D01*
X163317749Y-32028909D01*
X163430014Y-31956760D01*
X163518595Y-31854533D01*
X163574787Y-31731490D01*
X163594037Y-31597600D01*
X163574787Y-31463710D01*
X163574786Y-31463709D01*
X163574786Y-31463706D01*
X163544760Y-31397960D01*
X163518595Y-31340667D01*
X163518590Y-31340661D01*
X163430016Y-31238442D01*
X163430011Y-31238438D01*
X163316219Y-31165307D01*
X163290571Y-31157777D01*
X163231793Y-31120003D01*
X163202767Y-31056448D01*
X163212710Y-30987289D01*
X163258465Y-30934485D01*
X163290571Y-30919823D01*
X163316218Y-30912292D01*
X163316219Y-30912292D01*
X163317749Y-30911309D01*
X163430014Y-30839160D01*
X163518595Y-30736933D01*
X163564707Y-30635963D01*
X163574786Y-30613893D01*
X163574787Y-30613888D01*
X163575848Y-30606508D01*
X163594037Y-30480000D01*
X163574787Y-30346110D01*
X163574786Y-30346109D01*
X163574786Y-30346106D01*
X163541796Y-30273871D01*
X163518595Y-30223067D01*
X163518590Y-30223061D01*
X163430016Y-30120842D01*
X163430011Y-30120838D01*
X163381317Y-30089544D01*
X163316221Y-30047709D01*
X163316220Y-30047708D01*
X163316219Y-30047708D01*
X163186434Y-30009600D01*
X163186433Y-30009600D01*
X163051167Y-30009600D01*
X163051166Y-30009600D01*
X162921380Y-30047708D01*
X162807588Y-30120838D01*
X162807583Y-30120842D01*
X162719009Y-30223061D01*
X162719003Y-30223071D01*
X162662813Y-30346106D01*
X162662812Y-30346111D01*
X162643563Y-30480000D01*
X160741933Y-30480000D01*
X160749237Y-30429200D01*
X160729987Y-30295310D01*
X160729986Y-30295309D01*
X160729986Y-30295306D01*
X160696996Y-30223071D01*
X160673795Y-30172267D01*
X160673790Y-30172261D01*
X160585216Y-30070042D01*
X160585211Y-30070038D01*
X160533399Y-30036740D01*
X160471421Y-29996909D01*
X160471420Y-29996908D01*
X160471419Y-29996908D01*
X160341634Y-29958800D01*
X160341633Y-29958800D01*
X160206367Y-29958800D01*
X160206366Y-29958800D01*
X160076580Y-29996908D01*
X159962788Y-30070038D01*
X159962783Y-30070042D01*
X159874209Y-30172261D01*
X159874203Y-30172271D01*
X159818013Y-30295306D01*
X159818012Y-30295311D01*
X159798763Y-30429200D01*
X157165534Y-30429200D01*
X157172402Y-30414161D01*
X157173986Y-30410693D01*
X157173987Y-30410688D01*
X157175968Y-30396910D01*
X157193237Y-30276800D01*
X157173987Y-30142910D01*
X157173986Y-30142909D01*
X157173986Y-30142906D01*
X157140707Y-30070038D01*
X157117795Y-30019867D01*
X157034845Y-29924138D01*
X157029216Y-29917642D01*
X157029211Y-29917638D01*
X156915419Y-29844507D01*
X156889771Y-29836977D01*
X156830993Y-29799203D01*
X156801967Y-29735648D01*
X156811910Y-29666489D01*
X156857665Y-29613685D01*
X156889771Y-29599023D01*
X156915418Y-29591492D01*
X156915419Y-29591492D01*
X156915421Y-29591491D01*
X157029214Y-29518360D01*
X157117795Y-29416133D01*
X157167160Y-29308040D01*
X157173986Y-29293093D01*
X157173987Y-29293088D01*
X157193237Y-29159200D01*
X157173987Y-29025310D01*
X157173986Y-29025309D01*
X157173986Y-29025306D01*
X157143960Y-28959560D01*
X157117795Y-28902267D01*
X157117790Y-28902261D01*
X157029216Y-28800042D01*
X157029211Y-28800038D01*
X156915419Y-28726907D01*
X156889771Y-28719377D01*
X156830993Y-28681603D01*
X156801967Y-28618048D01*
X156811910Y-28548889D01*
X156857665Y-28496085D01*
X156889771Y-28481423D01*
X156915418Y-28473892D01*
X156915419Y-28473892D01*
X156926904Y-28466511D01*
X157029214Y-28400760D01*
X157117795Y-28298533D01*
X157173987Y-28175490D01*
X157193237Y-28041600D01*
X157173987Y-27907710D01*
X157173986Y-27907709D01*
X157173986Y-27907706D01*
X157143960Y-27841960D01*
X157117795Y-27784667D01*
X157117790Y-27784661D01*
X157029216Y-27682442D01*
X157029211Y-27682438D01*
X156993214Y-27659304D01*
X156915421Y-27609309D01*
X156915420Y-27609308D01*
X156915419Y-27609308D01*
X156785634Y-27571200D01*
X156785633Y-27571200D01*
X156650367Y-27571200D01*
X156650366Y-27571200D01*
X156520580Y-27609308D01*
X156406783Y-27682441D01*
X156402702Y-27685978D01*
X156339146Y-27715003D01*
X156269988Y-27705059D01*
X156217184Y-27659304D01*
X156197500Y-27592265D01*
X156197500Y-24937441D01*
X156195662Y-24928205D01*
X156190102Y-24900252D01*
X156190101Y-24900250D01*
X156161922Y-24858077D01*
X156119749Y-24829898D01*
X156082559Y-24822500D01*
X156082558Y-24822500D01*
X153057442Y-24822500D01*
X153057441Y-24822500D01*
X153020250Y-24829898D01*
X152978077Y-24858077D01*
X152949898Y-24900250D01*
X152942500Y-24937441D01*
X127500000Y-24937441D01*
X127500000Y-22124000D01*
X127519685Y-22056961D01*
X127572489Y-22011206D01*
X127624000Y-22000000D01*
X164876000Y-22000000D01*
X164943039Y-22019685D01*
G37*
G04 #@! TD.AperFunction*
G04 #@! TA.AperFunction,Conductor*
G36*
X145241812Y-37269685D02*
G01*
X145250259Y-37275624D01*
X145349711Y-37351936D01*
X145559784Y-37473222D01*
X145559785Y-37473222D01*
X145559788Y-37473224D01*
X145783900Y-37566054D01*
X146018211Y-37628838D01*
X146198586Y-37652584D01*
X146258711Y-37660500D01*
X146258712Y-37660500D01*
X146501289Y-37660500D01*
X146549388Y-37654167D01*
X146741789Y-37628838D01*
X146976100Y-37566054D01*
X147200212Y-37473224D01*
X147410289Y-37351936D01*
X147509741Y-37275624D01*
X147574910Y-37250430D01*
X147585227Y-37250000D01*
X155126000Y-37250000D01*
X155193039Y-37269685D01*
X155238794Y-37322489D01*
X155250000Y-37374000D01*
X155250000Y-55126000D01*
X155230315Y-55193039D01*
X155177511Y-55238794D01*
X155126000Y-55250000D01*
X137500000Y-55250000D01*
X137374000Y-55250000D01*
X137306961Y-55230315D01*
X137261206Y-55177511D01*
X137250000Y-55126000D01*
X137250000Y-37374000D01*
X137269685Y-37306961D01*
X137322489Y-37261206D01*
X137374000Y-37250000D01*
X145174773Y-37250000D01*
X145241812Y-37269685D01*
G37*
G04 #@! TD.AperFunction*
M02*
