G04 #@! TF.GenerationSoftware,KiCad,Pcbnew,8.0.7*
G04 #@! TF.CreationDate,2025-03-28T00:17:57-04:00*
G04 #@! TF.ProjectId,power_distribution_board,706f7765-725f-4646-9973-747269627574,1*
G04 #@! TF.SameCoordinates,Original*
G04 #@! TF.FileFunction,Legend,Top*
G04 #@! TF.FilePolarity,Positive*
%FSLAX46Y46*%
G04 Gerber Fmt 4.6, Leading zero omitted, Abs format (unit mm)*
G04 Created by KiCad (PCBNEW 8.0.7) date 2025-03-28 00:17:57*
%MOMM*%
%LPD*%
G01*
G04 APERTURE LIST*
G04 Aperture macros list*
%AMRoundRect*
0 Rectangle with rounded corners*
0 $1 Rounding radius*
0 $2 $3 $4 $5 $6 $7 $8 $9 X,Y pos of 4 corners*
0 Add a 4 corners polygon primitive as box body*
4,1,4,$2,$3,$4,$5,$6,$7,$8,$9,$2,$3,0*
0 Add four circle primitives for the rounded corners*
1,1,$1+$1,$2,$3*
1,1,$1+$1,$4,$5*
1,1,$1+$1,$6,$7*
1,1,$1+$1,$8,$9*
0 Add four rect primitives between the rounded corners*
20,1,$1+$1,$2,$3,$4,$5,0*
20,1,$1+$1,$4,$5,$6,$7,0*
20,1,$1+$1,$6,$7,$8,$9,0*
20,1,$1+$1,$8,$9,$2,$3,0*%
G04 Aperture macros list end*
%ADD10C,0.254000*%
%ADD11C,0.100000*%
%ADD12C,0.150000*%
%ADD13C,0.250000*%
%ADD14C,0.125000*%
%ADD15C,0.187500*%
%ADD16C,0.120000*%
%ADD17C,0.200000*%
%ADD18C,0.127000*%
%ADD19C,0.581507*%
%ADD20R,0.850000X0.300000*%
%ADD21R,0.690000X2.440000*%
%ADD22RoundRect,0.140000X0.140000X0.170000X-0.140000X0.170000X-0.140000X-0.170000X0.140000X-0.170000X0*%
%ADD23R,1.200000X0.600000*%
%ADD24RoundRect,0.135000X0.135000X0.185000X-0.135000X0.185000X-0.135000X-0.185000X0.135000X-0.185000X0*%
%ADD25RoundRect,0.225000X-0.250000X0.225000X-0.250000X-0.225000X0.250000X-0.225000X0.250000X0.225000X0*%
%ADD26R,4.560000X0.430000*%
%ADD27R,5.550000X0.910000*%
%ADD28R,4.560000X2.730000*%
%ADD29R,0.750000X0.475000*%
%ADD30R,0.750000X1.000000*%
%ADD31C,3.200000*%
%ADD32RoundRect,0.102000X-2.665000X1.815000X-2.665000X-1.815000X2.665000X-1.815000X2.665000X1.815000X0*%
%ADD33C,1.004000*%
%ADD34R,3.000000X5.000000*%
%ADD35R,5.000000X3.000000*%
%ADD36RoundRect,0.140000X0.170000X-0.140000X0.170000X0.140000X-0.170000X0.140000X-0.170000X-0.140000X0*%
%ADD37R,4.560000X4.055000*%
%ADD38R,0.495000X0.905000*%
%ADD39R,2.200000X2.150000*%
%ADD40R,1.750000X0.950000*%
%ADD41R,1.750000X3.200000*%
%ADD42RoundRect,0.525400X0.900400X0.525400X-0.900400X0.525400X-0.900400X-0.525400X0.900400X-0.525400X0*%
%ADD43RoundRect,0.140000X-0.140000X-0.170000X0.140000X-0.170000X0.140000X0.170000X-0.140000X0.170000X0*%
G04 APERTURE END LIST*
D10*
X23360000Y-10000000D02*
X58360000Y-10000000D01*
X58360000Y-50000000D01*
X23360000Y-50000000D01*
X23360000Y-10000000D01*
D11*
X47829881Y-48987419D02*
X48020357Y-48987419D01*
X48020357Y-48987419D02*
X48115595Y-49035038D01*
X48115595Y-49035038D02*
X48210833Y-49130276D01*
X48210833Y-49130276D02*
X48258452Y-49320752D01*
X48258452Y-49320752D02*
X48258452Y-49654085D01*
X48258452Y-49654085D02*
X48210833Y-49844561D01*
X48210833Y-49844561D02*
X48115595Y-49939800D01*
X48115595Y-49939800D02*
X48020357Y-49987419D01*
X48020357Y-49987419D02*
X47829881Y-49987419D01*
X47829881Y-49987419D02*
X47734643Y-49939800D01*
X47734643Y-49939800D02*
X47639405Y-49844561D01*
X47639405Y-49844561D02*
X47591786Y-49654085D01*
X47591786Y-49654085D02*
X47591786Y-49320752D01*
X47591786Y-49320752D02*
X47639405Y-49130276D01*
X47639405Y-49130276D02*
X47734643Y-49035038D01*
X47734643Y-49035038D02*
X47829881Y-48987419D01*
X48687024Y-48987419D02*
X48687024Y-49796942D01*
X48687024Y-49796942D02*
X48734643Y-49892180D01*
X48734643Y-49892180D02*
X48782262Y-49939800D01*
X48782262Y-49939800D02*
X48877500Y-49987419D01*
X48877500Y-49987419D02*
X49067976Y-49987419D01*
X49067976Y-49987419D02*
X49163214Y-49939800D01*
X49163214Y-49939800D02*
X49210833Y-49892180D01*
X49210833Y-49892180D02*
X49258452Y-49796942D01*
X49258452Y-49796942D02*
X49258452Y-48987419D01*
X49591786Y-48987419D02*
X50163214Y-48987419D01*
X49877500Y-49987419D02*
X49877500Y-48987419D01*
X50496548Y-49606466D02*
X51258453Y-49606466D01*
X52687024Y-48987419D02*
X52877500Y-48987419D01*
X52877500Y-48987419D02*
X52972738Y-49035038D01*
X52972738Y-49035038D02*
X53067976Y-49130276D01*
X53067976Y-49130276D02*
X53115595Y-49320752D01*
X53115595Y-49320752D02*
X53115595Y-49654085D01*
X53115595Y-49654085D02*
X53067976Y-49844561D01*
X53067976Y-49844561D02*
X52972738Y-49939800D01*
X52972738Y-49939800D02*
X52877500Y-49987419D01*
X52877500Y-49987419D02*
X52687024Y-49987419D01*
X52687024Y-49987419D02*
X52591786Y-49939800D01*
X52591786Y-49939800D02*
X52496548Y-49844561D01*
X52496548Y-49844561D02*
X52448929Y-49654085D01*
X52448929Y-49654085D02*
X52448929Y-49320752D01*
X52448929Y-49320752D02*
X52496548Y-49130276D01*
X52496548Y-49130276D02*
X52591786Y-49035038D01*
X52591786Y-49035038D02*
X52687024Y-48987419D01*
X53544167Y-48987419D02*
X53544167Y-49796942D01*
X53544167Y-49796942D02*
X53591786Y-49892180D01*
X53591786Y-49892180D02*
X53639405Y-49939800D01*
X53639405Y-49939800D02*
X53734643Y-49987419D01*
X53734643Y-49987419D02*
X53925119Y-49987419D01*
X53925119Y-49987419D02*
X54020357Y-49939800D01*
X54020357Y-49939800D02*
X54067976Y-49892180D01*
X54067976Y-49892180D02*
X54115595Y-49796942D01*
X54115595Y-49796942D02*
X54115595Y-48987419D01*
X54448929Y-48987419D02*
X55020357Y-48987419D01*
X54734643Y-49987419D02*
X54734643Y-48987419D01*
X55353691Y-49606466D02*
X56115596Y-49606466D01*
X55734643Y-49987419D02*
X55734643Y-49225514D01*
X30020000Y-11363609D02*
X30162857Y-11411228D01*
X30162857Y-11411228D02*
X30210476Y-11458847D01*
X30210476Y-11458847D02*
X30258095Y-11554085D01*
X30258095Y-11554085D02*
X30258095Y-11696942D01*
X30258095Y-11696942D02*
X30210476Y-11792180D01*
X30210476Y-11792180D02*
X30162857Y-11839800D01*
X30162857Y-11839800D02*
X30067619Y-11887419D01*
X30067619Y-11887419D02*
X29686667Y-11887419D01*
X29686667Y-11887419D02*
X29686667Y-10887419D01*
X29686667Y-10887419D02*
X30020000Y-10887419D01*
X30020000Y-10887419D02*
X30115238Y-10935038D01*
X30115238Y-10935038D02*
X30162857Y-10982657D01*
X30162857Y-10982657D02*
X30210476Y-11077895D01*
X30210476Y-11077895D02*
X30210476Y-11173133D01*
X30210476Y-11173133D02*
X30162857Y-11268371D01*
X30162857Y-11268371D02*
X30115238Y-11315990D01*
X30115238Y-11315990D02*
X30020000Y-11363609D01*
X30020000Y-11363609D02*
X29686667Y-11363609D01*
X31210476Y-11887419D02*
X30639048Y-11887419D01*
X30924762Y-11887419D02*
X30924762Y-10887419D01*
X30924762Y-10887419D02*
X30829524Y-11030276D01*
X30829524Y-11030276D02*
X30734286Y-11125514D01*
X30734286Y-11125514D02*
X30639048Y-11173133D01*
X31639048Y-11506466D02*
X32400953Y-11506466D01*
X33972381Y-11363609D02*
X34115238Y-11411228D01*
X34115238Y-11411228D02*
X34162857Y-11458847D01*
X34162857Y-11458847D02*
X34210476Y-11554085D01*
X34210476Y-11554085D02*
X34210476Y-11696942D01*
X34210476Y-11696942D02*
X34162857Y-11792180D01*
X34162857Y-11792180D02*
X34115238Y-11839800D01*
X34115238Y-11839800D02*
X34020000Y-11887419D01*
X34020000Y-11887419D02*
X33639048Y-11887419D01*
X33639048Y-11887419D02*
X33639048Y-10887419D01*
X33639048Y-10887419D02*
X33972381Y-10887419D01*
X33972381Y-10887419D02*
X34067619Y-10935038D01*
X34067619Y-10935038D02*
X34115238Y-10982657D01*
X34115238Y-10982657D02*
X34162857Y-11077895D01*
X34162857Y-11077895D02*
X34162857Y-11173133D01*
X34162857Y-11173133D02*
X34115238Y-11268371D01*
X34115238Y-11268371D02*
X34067619Y-11315990D01*
X34067619Y-11315990D02*
X33972381Y-11363609D01*
X33972381Y-11363609D02*
X33639048Y-11363609D01*
X35162857Y-11887419D02*
X34591429Y-11887419D01*
X34877143Y-11887419D02*
X34877143Y-10887419D01*
X34877143Y-10887419D02*
X34781905Y-11030276D01*
X34781905Y-11030276D02*
X34686667Y-11125514D01*
X34686667Y-11125514D02*
X34591429Y-11173133D01*
X35591429Y-11506466D02*
X36353334Y-11506466D01*
X35972381Y-11887419D02*
X35972381Y-11125514D01*
D12*
X24430000Y-24439580D02*
X24477619Y-24487200D01*
X24477619Y-24487200D02*
X24430000Y-24534819D01*
X24430000Y-24534819D02*
X24382381Y-24487200D01*
X24382381Y-24487200D02*
X24430000Y-24439580D01*
X24430000Y-24439580D02*
X24430000Y-24534819D01*
D13*
X19955760Y-3038438D02*
X20098617Y-3086057D01*
X20098617Y-3086057D02*
X20146236Y-3133676D01*
X20146236Y-3133676D02*
X20193855Y-3228914D01*
X20193855Y-3228914D02*
X20193855Y-3371771D01*
X20193855Y-3371771D02*
X20146236Y-3467009D01*
X20146236Y-3467009D02*
X20098617Y-3514629D01*
X20098617Y-3514629D02*
X20003379Y-3562248D01*
X20003379Y-3562248D02*
X19622427Y-3562248D01*
X19622427Y-3562248D02*
X19622427Y-2562248D01*
X19622427Y-2562248D02*
X19955760Y-2562248D01*
X19955760Y-2562248D02*
X20050998Y-2609867D01*
X20050998Y-2609867D02*
X20098617Y-2657486D01*
X20098617Y-2657486D02*
X20146236Y-2752724D01*
X20146236Y-2752724D02*
X20146236Y-2847962D01*
X20146236Y-2847962D02*
X20098617Y-2943200D01*
X20098617Y-2943200D02*
X20050998Y-2990819D01*
X20050998Y-2990819D02*
X19955760Y-3038438D01*
X19955760Y-3038438D02*
X19622427Y-3038438D01*
X20908141Y-2562248D02*
X20908141Y-3276533D01*
X20908141Y-3276533D02*
X20860522Y-3419390D01*
X20860522Y-3419390D02*
X20765284Y-3514629D01*
X20765284Y-3514629D02*
X20622427Y-3562248D01*
X20622427Y-3562248D02*
X20527189Y-3562248D01*
X21955760Y-3562248D02*
X21622427Y-3086057D01*
X21384332Y-3562248D02*
X21384332Y-2562248D01*
X21384332Y-2562248D02*
X21765284Y-2562248D01*
X21765284Y-2562248D02*
X21860522Y-2609867D01*
X21860522Y-2609867D02*
X21908141Y-2657486D01*
X21908141Y-2657486D02*
X21955760Y-2752724D01*
X21955760Y-2752724D02*
X21955760Y-2895581D01*
X21955760Y-2895581D02*
X21908141Y-2990819D01*
X21908141Y-2990819D02*
X21860522Y-3038438D01*
X21860522Y-3038438D02*
X21765284Y-3086057D01*
X21765284Y-3086057D02*
X21384332Y-3086057D01*
X23003379Y-3086057D02*
X22955760Y-3038438D01*
X22955760Y-3038438D02*
X22860522Y-2990819D01*
X22860522Y-2990819D02*
X22765284Y-2990819D01*
X22765284Y-2990819D02*
X22670046Y-3038438D01*
X22670046Y-3038438D02*
X22622427Y-3086057D01*
X22622427Y-3086057D02*
X22574808Y-3181295D01*
X22574808Y-3181295D02*
X22574808Y-3276533D01*
X22574808Y-3276533D02*
X22622427Y-3371771D01*
X22622427Y-3371771D02*
X22670046Y-3419390D01*
X22670046Y-3419390D02*
X22765284Y-3467009D01*
X22765284Y-3467009D02*
X22860522Y-3467009D01*
X22860522Y-3467009D02*
X22955760Y-3419390D01*
X22955760Y-3419390D02*
X23003379Y-3371771D01*
X23003379Y-2990819D02*
X23003379Y-3371771D01*
X23003379Y-3371771D02*
X23050998Y-3419390D01*
X23050998Y-3419390D02*
X23098617Y-3419390D01*
X23098617Y-3419390D02*
X23193856Y-3371771D01*
X23193856Y-3371771D02*
X23241475Y-3276533D01*
X23241475Y-3276533D02*
X23241475Y-3038438D01*
X23241475Y-3038438D02*
X23146237Y-2895581D01*
X23146237Y-2895581D02*
X23003379Y-2800343D01*
X23003379Y-2800343D02*
X22812903Y-2752724D01*
X22812903Y-2752724D02*
X22622427Y-2800343D01*
X22622427Y-2800343D02*
X22479570Y-2895581D01*
X22479570Y-2895581D02*
X22384332Y-3038438D01*
X22384332Y-3038438D02*
X22336713Y-3228914D01*
X22336713Y-3228914D02*
X22384332Y-3419390D01*
X22384332Y-3419390D02*
X22479570Y-3562248D01*
X22479570Y-3562248D02*
X22622427Y-3657486D01*
X22622427Y-3657486D02*
X22812903Y-3705105D01*
X22812903Y-3705105D02*
X23003379Y-3657486D01*
X23003379Y-3657486D02*
X23146237Y-3562248D01*
X23955760Y-2562248D02*
X23955760Y-3276533D01*
X23955760Y-3276533D02*
X23908141Y-3419390D01*
X23908141Y-3419390D02*
X23812903Y-3514629D01*
X23812903Y-3514629D02*
X23670046Y-3562248D01*
X23670046Y-3562248D02*
X23574808Y-3562248D01*
X24431951Y-3562248D02*
X24431951Y-2562248D01*
X24431951Y-3038438D02*
X25003379Y-3038438D01*
X25003379Y-3562248D02*
X25003379Y-2562248D01*
X25479570Y-2562248D02*
X25479570Y-3371771D01*
X25479570Y-3371771D02*
X25527189Y-3467009D01*
X25527189Y-3467009D02*
X25574808Y-3514629D01*
X25574808Y-3514629D02*
X25670046Y-3562248D01*
X25670046Y-3562248D02*
X25860522Y-3562248D01*
X25860522Y-3562248D02*
X25955760Y-3514629D01*
X25955760Y-3514629D02*
X26003379Y-3467009D01*
X26003379Y-3467009D02*
X26050998Y-3371771D01*
X26050998Y-3371771D02*
X26050998Y-2562248D01*
X19574808Y-4267430D02*
X19622427Y-4219811D01*
X19622427Y-4219811D02*
X19717665Y-4172192D01*
X19717665Y-4172192D02*
X19955760Y-4172192D01*
X19955760Y-4172192D02*
X20050998Y-4219811D01*
X20050998Y-4219811D02*
X20098617Y-4267430D01*
X20098617Y-4267430D02*
X20146236Y-4362668D01*
X20146236Y-4362668D02*
X20146236Y-4457906D01*
X20146236Y-4457906D02*
X20098617Y-4600763D01*
X20098617Y-4600763D02*
X19527189Y-5172192D01*
X19527189Y-5172192D02*
X20146236Y-5172192D01*
X21098617Y-5172192D02*
X20527189Y-5172192D01*
X20812903Y-5172192D02*
X20812903Y-4172192D01*
X20812903Y-4172192D02*
X20717665Y-4315049D01*
X20717665Y-4315049D02*
X20622427Y-4410287D01*
X20622427Y-4410287D02*
X20527189Y-4457906D01*
X21431951Y-5172192D02*
X21955760Y-4505525D01*
X21431951Y-4505525D02*
X21955760Y-5172192D01*
X22193856Y-4505525D02*
X22574808Y-4505525D01*
X22336713Y-4172192D02*
X22336713Y-5029334D01*
X22336713Y-5029334D02*
X22384332Y-5124573D01*
X22384332Y-5124573D02*
X22479570Y-5172192D01*
X22479570Y-5172192D02*
X22574808Y-5172192D01*
X19622427Y-6115469D02*
X19622427Y-7115469D01*
X19622427Y-6163088D02*
X19717665Y-6115469D01*
X19717665Y-6115469D02*
X19908141Y-6115469D01*
X19908141Y-6115469D02*
X20003379Y-6163088D01*
X20003379Y-6163088D02*
X20050998Y-6210707D01*
X20050998Y-6210707D02*
X20098617Y-6305945D01*
X20098617Y-6305945D02*
X20098617Y-6591659D01*
X20098617Y-6591659D02*
X20050998Y-6686897D01*
X20050998Y-6686897D02*
X20003379Y-6734517D01*
X20003379Y-6734517D02*
X19908141Y-6782136D01*
X19908141Y-6782136D02*
X19717665Y-6782136D01*
X19717665Y-6782136D02*
X19622427Y-6734517D01*
X20431951Y-6115469D02*
X20622427Y-6782136D01*
X20622427Y-6782136D02*
X20812903Y-6305945D01*
X20812903Y-6305945D02*
X21003379Y-6782136D01*
X21003379Y-6782136D02*
X21193855Y-6115469D01*
X21574808Y-6782136D02*
X21574808Y-6115469D01*
X21574808Y-6305945D02*
X21622427Y-6210707D01*
X21622427Y-6210707D02*
X21670046Y-6163088D01*
X21670046Y-6163088D02*
X21765284Y-6115469D01*
X21765284Y-6115469D02*
X21860522Y-6115469D01*
X23384332Y-6782136D02*
X23384332Y-5782136D01*
X23384332Y-6734517D02*
X23289094Y-6782136D01*
X23289094Y-6782136D02*
X23098618Y-6782136D01*
X23098618Y-6782136D02*
X23003380Y-6734517D01*
X23003380Y-6734517D02*
X22955761Y-6686897D01*
X22955761Y-6686897D02*
X22908142Y-6591659D01*
X22908142Y-6591659D02*
X22908142Y-6305945D01*
X22908142Y-6305945D02*
X22955761Y-6210707D01*
X22955761Y-6210707D02*
X23003380Y-6163088D01*
X23003380Y-6163088D02*
X23098618Y-6115469D01*
X23098618Y-6115469D02*
X23289094Y-6115469D01*
X23289094Y-6115469D02*
X23384332Y-6163088D01*
X23860523Y-6782136D02*
X23860523Y-6115469D01*
X23860523Y-5782136D02*
X23812904Y-5829755D01*
X23812904Y-5829755D02*
X23860523Y-5877374D01*
X23860523Y-5877374D02*
X23908142Y-5829755D01*
X23908142Y-5829755D02*
X23860523Y-5782136D01*
X23860523Y-5782136D02*
X23860523Y-5877374D01*
X24289094Y-6734517D02*
X24384332Y-6782136D01*
X24384332Y-6782136D02*
X24574808Y-6782136D01*
X24574808Y-6782136D02*
X24670046Y-6734517D01*
X24670046Y-6734517D02*
X24717665Y-6639278D01*
X24717665Y-6639278D02*
X24717665Y-6591659D01*
X24717665Y-6591659D02*
X24670046Y-6496421D01*
X24670046Y-6496421D02*
X24574808Y-6448802D01*
X24574808Y-6448802D02*
X24431951Y-6448802D01*
X24431951Y-6448802D02*
X24336713Y-6401183D01*
X24336713Y-6401183D02*
X24289094Y-6305945D01*
X24289094Y-6305945D02*
X24289094Y-6258326D01*
X24289094Y-6258326D02*
X24336713Y-6163088D01*
X24336713Y-6163088D02*
X24431951Y-6115469D01*
X24431951Y-6115469D02*
X24574808Y-6115469D01*
X24574808Y-6115469D02*
X24670046Y-6163088D01*
X25003380Y-6115469D02*
X25384332Y-6115469D01*
X25146237Y-5782136D02*
X25146237Y-6639278D01*
X25146237Y-6639278D02*
X25193856Y-6734517D01*
X25193856Y-6734517D02*
X25289094Y-6782136D01*
X25289094Y-6782136D02*
X25384332Y-6782136D01*
X25717666Y-6782136D02*
X25717666Y-6115469D01*
X25717666Y-6305945D02*
X25765285Y-6210707D01*
X25765285Y-6210707D02*
X25812904Y-6163088D01*
X25812904Y-6163088D02*
X25908142Y-6115469D01*
X25908142Y-6115469D02*
X26003380Y-6115469D01*
X26479571Y-6782136D02*
X26384333Y-6734517D01*
X26384333Y-6734517D02*
X26336714Y-6686897D01*
X26336714Y-6686897D02*
X26289095Y-6591659D01*
X26289095Y-6591659D02*
X26289095Y-6305945D01*
X26289095Y-6305945D02*
X26336714Y-6210707D01*
X26336714Y-6210707D02*
X26384333Y-6163088D01*
X26384333Y-6163088D02*
X26479571Y-6115469D01*
X26479571Y-6115469D02*
X26622428Y-6115469D01*
X26622428Y-6115469D02*
X26717666Y-6163088D01*
X26717666Y-6163088D02*
X26765285Y-6210707D01*
X26765285Y-6210707D02*
X26812904Y-6305945D01*
X26812904Y-6305945D02*
X26812904Y-6591659D01*
X26812904Y-6591659D02*
X26765285Y-6686897D01*
X26765285Y-6686897D02*
X26717666Y-6734517D01*
X26717666Y-6734517D02*
X26622428Y-6782136D01*
X26622428Y-6782136D02*
X26479571Y-6782136D01*
D12*
X57700000Y-23929580D02*
X57747619Y-23977200D01*
X57747619Y-23977200D02*
X57700000Y-24024819D01*
X57700000Y-24024819D02*
X57652381Y-23977200D01*
X57652381Y-23977200D02*
X57700000Y-23929580D01*
X57700000Y-23929580D02*
X57700000Y-24024819D01*
D14*
X39271905Y-38394809D02*
X39271905Y-37894809D01*
X39795714Y-38347190D02*
X39771905Y-38371000D01*
X39771905Y-38371000D02*
X39700476Y-38394809D01*
X39700476Y-38394809D02*
X39652857Y-38394809D01*
X39652857Y-38394809D02*
X39581429Y-38371000D01*
X39581429Y-38371000D02*
X39533810Y-38323380D01*
X39533810Y-38323380D02*
X39510000Y-38275761D01*
X39510000Y-38275761D02*
X39486191Y-38180523D01*
X39486191Y-38180523D02*
X39486191Y-38109095D01*
X39486191Y-38109095D02*
X39510000Y-38013857D01*
X39510000Y-38013857D02*
X39533810Y-37966238D01*
X39533810Y-37966238D02*
X39581429Y-37918619D01*
X39581429Y-37918619D02*
X39652857Y-37894809D01*
X39652857Y-37894809D02*
X39700476Y-37894809D01*
X39700476Y-37894809D02*
X39771905Y-37918619D01*
X39771905Y-37918619D02*
X39795714Y-37942428D01*
X39962381Y-37894809D02*
X40271905Y-37894809D01*
X40271905Y-37894809D02*
X40105238Y-38085285D01*
X40105238Y-38085285D02*
X40176667Y-38085285D01*
X40176667Y-38085285D02*
X40224286Y-38109095D01*
X40224286Y-38109095D02*
X40248095Y-38132904D01*
X40248095Y-38132904D02*
X40271905Y-38180523D01*
X40271905Y-38180523D02*
X40271905Y-38299571D01*
X40271905Y-38299571D02*
X40248095Y-38347190D01*
X40248095Y-38347190D02*
X40224286Y-38371000D01*
X40224286Y-38371000D02*
X40176667Y-38394809D01*
X40176667Y-38394809D02*
X40033810Y-38394809D01*
X40033810Y-38394809D02*
X39986191Y-38371000D01*
X39986191Y-38371000D02*
X39962381Y-38347190D01*
X35406666Y-36382190D02*
X35382857Y-36406000D01*
X35382857Y-36406000D02*
X35311428Y-36429809D01*
X35311428Y-36429809D02*
X35263809Y-36429809D01*
X35263809Y-36429809D02*
X35192381Y-36406000D01*
X35192381Y-36406000D02*
X35144762Y-36358380D01*
X35144762Y-36358380D02*
X35120952Y-36310761D01*
X35120952Y-36310761D02*
X35097143Y-36215523D01*
X35097143Y-36215523D02*
X35097143Y-36144095D01*
X35097143Y-36144095D02*
X35120952Y-36048857D01*
X35120952Y-36048857D02*
X35144762Y-36001238D01*
X35144762Y-36001238D02*
X35192381Y-35953619D01*
X35192381Y-35953619D02*
X35263809Y-35929809D01*
X35263809Y-35929809D02*
X35311428Y-35929809D01*
X35311428Y-35929809D02*
X35382857Y-35953619D01*
X35382857Y-35953619D02*
X35406666Y-35977428D01*
X35692381Y-36144095D02*
X35644762Y-36120285D01*
X35644762Y-36120285D02*
X35620952Y-36096476D01*
X35620952Y-36096476D02*
X35597143Y-36048857D01*
X35597143Y-36048857D02*
X35597143Y-36025047D01*
X35597143Y-36025047D02*
X35620952Y-35977428D01*
X35620952Y-35977428D02*
X35644762Y-35953619D01*
X35644762Y-35953619D02*
X35692381Y-35929809D01*
X35692381Y-35929809D02*
X35787619Y-35929809D01*
X35787619Y-35929809D02*
X35835238Y-35953619D01*
X35835238Y-35953619D02*
X35859047Y-35977428D01*
X35859047Y-35977428D02*
X35882857Y-36025047D01*
X35882857Y-36025047D02*
X35882857Y-36048857D01*
X35882857Y-36048857D02*
X35859047Y-36096476D01*
X35859047Y-36096476D02*
X35835238Y-36120285D01*
X35835238Y-36120285D02*
X35787619Y-36144095D01*
X35787619Y-36144095D02*
X35692381Y-36144095D01*
X35692381Y-36144095D02*
X35644762Y-36167904D01*
X35644762Y-36167904D02*
X35620952Y-36191714D01*
X35620952Y-36191714D02*
X35597143Y-36239333D01*
X35597143Y-36239333D02*
X35597143Y-36334571D01*
X35597143Y-36334571D02*
X35620952Y-36382190D01*
X35620952Y-36382190D02*
X35644762Y-36406000D01*
X35644762Y-36406000D02*
X35692381Y-36429809D01*
X35692381Y-36429809D02*
X35787619Y-36429809D01*
X35787619Y-36429809D02*
X35835238Y-36406000D01*
X35835238Y-36406000D02*
X35859047Y-36382190D01*
X35859047Y-36382190D02*
X35882857Y-36334571D01*
X35882857Y-36334571D02*
X35882857Y-36239333D01*
X35882857Y-36239333D02*
X35859047Y-36191714D01*
X35859047Y-36191714D02*
X35835238Y-36167904D01*
X35835238Y-36167904D02*
X35787619Y-36144095D01*
D12*
X27003333Y-29379580D02*
X26955714Y-29427200D01*
X26955714Y-29427200D02*
X26812857Y-29474819D01*
X26812857Y-29474819D02*
X26717619Y-29474819D01*
X26717619Y-29474819D02*
X26574762Y-29427200D01*
X26574762Y-29427200D02*
X26479524Y-29331961D01*
X26479524Y-29331961D02*
X26431905Y-29236723D01*
X26431905Y-29236723D02*
X26384286Y-29046247D01*
X26384286Y-29046247D02*
X26384286Y-28903390D01*
X26384286Y-28903390D02*
X26431905Y-28712914D01*
X26431905Y-28712914D02*
X26479524Y-28617676D01*
X26479524Y-28617676D02*
X26574762Y-28522438D01*
X26574762Y-28522438D02*
X26717619Y-28474819D01*
X26717619Y-28474819D02*
X26812857Y-28474819D01*
X26812857Y-28474819D02*
X26955714Y-28522438D01*
X26955714Y-28522438D02*
X27003333Y-28570057D01*
X27336667Y-28474819D02*
X27955714Y-28474819D01*
X27955714Y-28474819D02*
X27622381Y-28855771D01*
X27622381Y-28855771D02*
X27765238Y-28855771D01*
X27765238Y-28855771D02*
X27860476Y-28903390D01*
X27860476Y-28903390D02*
X27908095Y-28951009D01*
X27908095Y-28951009D02*
X27955714Y-29046247D01*
X27955714Y-29046247D02*
X27955714Y-29284342D01*
X27955714Y-29284342D02*
X27908095Y-29379580D01*
X27908095Y-29379580D02*
X27860476Y-29427200D01*
X27860476Y-29427200D02*
X27765238Y-29474819D01*
X27765238Y-29474819D02*
X27479524Y-29474819D01*
X27479524Y-29474819D02*
X27384286Y-29427200D01*
X27384286Y-29427200D02*
X27336667Y-29379580D01*
D10*
X54710237Y-32054318D02*
X54710237Y-30784318D01*
X56040714Y-31933365D02*
X55980238Y-31993842D01*
X55980238Y-31993842D02*
X55798809Y-32054318D01*
X55798809Y-32054318D02*
X55677857Y-32054318D01*
X55677857Y-32054318D02*
X55496428Y-31993842D01*
X55496428Y-31993842D02*
X55375476Y-31872889D01*
X55375476Y-31872889D02*
X55314999Y-31751937D01*
X55314999Y-31751937D02*
X55254523Y-31510032D01*
X55254523Y-31510032D02*
X55254523Y-31328603D01*
X55254523Y-31328603D02*
X55314999Y-31086699D01*
X55314999Y-31086699D02*
X55375476Y-30965746D01*
X55375476Y-30965746D02*
X55496428Y-30844794D01*
X55496428Y-30844794D02*
X55677857Y-30784318D01*
X55677857Y-30784318D02*
X55798809Y-30784318D01*
X55798809Y-30784318D02*
X55980238Y-30844794D01*
X55980238Y-30844794D02*
X56040714Y-30905270D01*
X57129285Y-31207651D02*
X57129285Y-32054318D01*
X56826904Y-30723842D02*
X56524523Y-31630984D01*
X56524523Y-31630984D02*
X57310714Y-31630984D01*
D14*
X40506666Y-32454809D02*
X40340000Y-32216714D01*
X40220952Y-32454809D02*
X40220952Y-31954809D01*
X40220952Y-31954809D02*
X40411428Y-31954809D01*
X40411428Y-31954809D02*
X40459047Y-31978619D01*
X40459047Y-31978619D02*
X40482857Y-32002428D01*
X40482857Y-32002428D02*
X40506666Y-32050047D01*
X40506666Y-32050047D02*
X40506666Y-32121476D01*
X40506666Y-32121476D02*
X40482857Y-32169095D01*
X40482857Y-32169095D02*
X40459047Y-32192904D01*
X40459047Y-32192904D02*
X40411428Y-32216714D01*
X40411428Y-32216714D02*
X40220952Y-32216714D01*
X40697143Y-32002428D02*
X40720952Y-31978619D01*
X40720952Y-31978619D02*
X40768571Y-31954809D01*
X40768571Y-31954809D02*
X40887619Y-31954809D01*
X40887619Y-31954809D02*
X40935238Y-31978619D01*
X40935238Y-31978619D02*
X40959047Y-32002428D01*
X40959047Y-32002428D02*
X40982857Y-32050047D01*
X40982857Y-32050047D02*
X40982857Y-32097666D01*
X40982857Y-32097666D02*
X40959047Y-32169095D01*
X40959047Y-32169095D02*
X40673333Y-32454809D01*
X40673333Y-32454809D02*
X40982857Y-32454809D01*
D12*
X41639580Y-41926666D02*
X41687200Y-41974285D01*
X41687200Y-41974285D02*
X41734819Y-42117142D01*
X41734819Y-42117142D02*
X41734819Y-42212380D01*
X41734819Y-42212380D02*
X41687200Y-42355237D01*
X41687200Y-42355237D02*
X41591961Y-42450475D01*
X41591961Y-42450475D02*
X41496723Y-42498094D01*
X41496723Y-42498094D02*
X41306247Y-42545713D01*
X41306247Y-42545713D02*
X41163390Y-42545713D01*
X41163390Y-42545713D02*
X40972914Y-42498094D01*
X40972914Y-42498094D02*
X40877676Y-42450475D01*
X40877676Y-42450475D02*
X40782438Y-42355237D01*
X40782438Y-42355237D02*
X40734819Y-42212380D01*
X40734819Y-42212380D02*
X40734819Y-42117142D01*
X40734819Y-42117142D02*
X40782438Y-41974285D01*
X40782438Y-41974285D02*
X40830057Y-41926666D01*
X40734819Y-41069523D02*
X40734819Y-41259999D01*
X40734819Y-41259999D02*
X40782438Y-41355237D01*
X40782438Y-41355237D02*
X40830057Y-41402856D01*
X40830057Y-41402856D02*
X40972914Y-41498094D01*
X40972914Y-41498094D02*
X41163390Y-41545713D01*
X41163390Y-41545713D02*
X41544342Y-41545713D01*
X41544342Y-41545713D02*
X41639580Y-41498094D01*
X41639580Y-41498094D02*
X41687200Y-41450475D01*
X41687200Y-41450475D02*
X41734819Y-41355237D01*
X41734819Y-41355237D02*
X41734819Y-41164761D01*
X41734819Y-41164761D02*
X41687200Y-41069523D01*
X41687200Y-41069523D02*
X41639580Y-41021904D01*
X41639580Y-41021904D02*
X41544342Y-40974285D01*
X41544342Y-40974285D02*
X41306247Y-40974285D01*
X41306247Y-40974285D02*
X41211009Y-41021904D01*
X41211009Y-41021904D02*
X41163390Y-41069523D01*
X41163390Y-41069523D02*
X41115771Y-41164761D01*
X41115771Y-41164761D02*
X41115771Y-41355237D01*
X41115771Y-41355237D02*
X41163390Y-41450475D01*
X41163390Y-41450475D02*
X41211009Y-41498094D01*
X41211009Y-41498094D02*
X41306247Y-41545713D01*
D10*
X49062618Y-18884318D02*
X49062618Y-17614318D01*
X49062618Y-17614318D02*
X49364999Y-17614318D01*
X49364999Y-17614318D02*
X49546428Y-17674794D01*
X49546428Y-17674794D02*
X49667380Y-17795746D01*
X49667380Y-17795746D02*
X49727857Y-17916699D01*
X49727857Y-17916699D02*
X49788333Y-18158603D01*
X49788333Y-18158603D02*
X49788333Y-18340032D01*
X49788333Y-18340032D02*
X49727857Y-18581937D01*
X49727857Y-18581937D02*
X49667380Y-18702889D01*
X49667380Y-18702889D02*
X49546428Y-18823842D01*
X49546428Y-18823842D02*
X49364999Y-18884318D01*
X49364999Y-18884318D02*
X49062618Y-18884318D01*
X50272142Y-17735270D02*
X50332618Y-17674794D01*
X50332618Y-17674794D02*
X50453571Y-17614318D01*
X50453571Y-17614318D02*
X50755952Y-17614318D01*
X50755952Y-17614318D02*
X50876904Y-17674794D01*
X50876904Y-17674794D02*
X50937380Y-17735270D01*
X50937380Y-17735270D02*
X50997857Y-17856222D01*
X50997857Y-17856222D02*
X50997857Y-17977175D01*
X50997857Y-17977175D02*
X50937380Y-18158603D01*
X50937380Y-18158603D02*
X50211666Y-18884318D01*
X50211666Y-18884318D02*
X50997857Y-18884318D01*
X30592618Y-18754318D02*
X30592618Y-17484318D01*
X30592618Y-17484318D02*
X30894999Y-17484318D01*
X30894999Y-17484318D02*
X31076428Y-17544794D01*
X31076428Y-17544794D02*
X31197380Y-17665746D01*
X31197380Y-17665746D02*
X31257857Y-17786699D01*
X31257857Y-17786699D02*
X31318333Y-18028603D01*
X31318333Y-18028603D02*
X31318333Y-18210032D01*
X31318333Y-18210032D02*
X31257857Y-18451937D01*
X31257857Y-18451937D02*
X31197380Y-18572889D01*
X31197380Y-18572889D02*
X31076428Y-18693842D01*
X31076428Y-18693842D02*
X30894999Y-18754318D01*
X30894999Y-18754318D02*
X30592618Y-18754318D01*
X32406904Y-17907651D02*
X32406904Y-18754318D01*
X32104523Y-17423842D02*
X31802142Y-18330984D01*
X31802142Y-18330984D02*
X32588333Y-18330984D01*
D12*
X47893333Y-42264819D02*
X47560000Y-41788628D01*
X47321905Y-42264819D02*
X47321905Y-41264819D01*
X47321905Y-41264819D02*
X47702857Y-41264819D01*
X47702857Y-41264819D02*
X47798095Y-41312438D01*
X47798095Y-41312438D02*
X47845714Y-41360057D01*
X47845714Y-41360057D02*
X47893333Y-41455295D01*
X47893333Y-41455295D02*
X47893333Y-41598152D01*
X47893333Y-41598152D02*
X47845714Y-41693390D01*
X47845714Y-41693390D02*
X47798095Y-41741009D01*
X47798095Y-41741009D02*
X47702857Y-41788628D01*
X47702857Y-41788628D02*
X47321905Y-41788628D01*
X48845714Y-42264819D02*
X48274286Y-42264819D01*
X48560000Y-42264819D02*
X48560000Y-41264819D01*
X48560000Y-41264819D02*
X48464762Y-41407676D01*
X48464762Y-41407676D02*
X48369524Y-41502914D01*
X48369524Y-41502914D02*
X48274286Y-41550533D01*
D14*
X42507190Y-37143333D02*
X42531000Y-37167142D01*
X42531000Y-37167142D02*
X42554809Y-37238571D01*
X42554809Y-37238571D02*
X42554809Y-37286190D01*
X42554809Y-37286190D02*
X42531000Y-37357618D01*
X42531000Y-37357618D02*
X42483380Y-37405237D01*
X42483380Y-37405237D02*
X42435761Y-37429047D01*
X42435761Y-37429047D02*
X42340523Y-37452856D01*
X42340523Y-37452856D02*
X42269095Y-37452856D01*
X42269095Y-37452856D02*
X42173857Y-37429047D01*
X42173857Y-37429047D02*
X42126238Y-37405237D01*
X42126238Y-37405237D02*
X42078619Y-37357618D01*
X42078619Y-37357618D02*
X42054809Y-37286190D01*
X42054809Y-37286190D02*
X42054809Y-37238571D01*
X42054809Y-37238571D02*
X42078619Y-37167142D01*
X42078619Y-37167142D02*
X42102428Y-37143333D01*
X42054809Y-36976666D02*
X42054809Y-36643333D01*
X42054809Y-36643333D02*
X42554809Y-36857618D01*
X49956666Y-27137190D02*
X49932857Y-27161000D01*
X49932857Y-27161000D02*
X49861428Y-27184809D01*
X49861428Y-27184809D02*
X49813809Y-27184809D01*
X49813809Y-27184809D02*
X49742381Y-27161000D01*
X49742381Y-27161000D02*
X49694762Y-27113380D01*
X49694762Y-27113380D02*
X49670952Y-27065761D01*
X49670952Y-27065761D02*
X49647143Y-26970523D01*
X49647143Y-26970523D02*
X49647143Y-26899095D01*
X49647143Y-26899095D02*
X49670952Y-26803857D01*
X49670952Y-26803857D02*
X49694762Y-26756238D01*
X49694762Y-26756238D02*
X49742381Y-26708619D01*
X49742381Y-26708619D02*
X49813809Y-26684809D01*
X49813809Y-26684809D02*
X49861428Y-26684809D01*
X49861428Y-26684809D02*
X49932857Y-26708619D01*
X49932857Y-26708619D02*
X49956666Y-26732428D01*
X50432857Y-27184809D02*
X50147143Y-27184809D01*
X50290000Y-27184809D02*
X50290000Y-26684809D01*
X50290000Y-26684809D02*
X50242381Y-26756238D01*
X50242381Y-26756238D02*
X50194762Y-26803857D01*
X50194762Y-26803857D02*
X50147143Y-26827666D01*
X36642380Y-32062428D02*
X36594761Y-32038619D01*
X36594761Y-32038619D02*
X36547142Y-31991000D01*
X36547142Y-31991000D02*
X36475714Y-31919571D01*
X36475714Y-31919571D02*
X36428095Y-31895761D01*
X36428095Y-31895761D02*
X36380476Y-31895761D01*
X36404285Y-32014809D02*
X36356666Y-31991000D01*
X36356666Y-31991000D02*
X36309047Y-31943380D01*
X36309047Y-31943380D02*
X36285238Y-31848142D01*
X36285238Y-31848142D02*
X36285238Y-31681476D01*
X36285238Y-31681476D02*
X36309047Y-31586238D01*
X36309047Y-31586238D02*
X36356666Y-31538619D01*
X36356666Y-31538619D02*
X36404285Y-31514809D01*
X36404285Y-31514809D02*
X36499523Y-31514809D01*
X36499523Y-31514809D02*
X36547142Y-31538619D01*
X36547142Y-31538619D02*
X36594761Y-31586238D01*
X36594761Y-31586238D02*
X36618571Y-31681476D01*
X36618571Y-31681476D02*
X36618571Y-31848142D01*
X36618571Y-31848142D02*
X36594761Y-31943380D01*
X36594761Y-31943380D02*
X36547142Y-31991000D01*
X36547142Y-31991000D02*
X36499523Y-32014809D01*
X36499523Y-32014809D02*
X36404285Y-32014809D01*
X37094762Y-32014809D02*
X36809048Y-32014809D01*
X36951905Y-32014809D02*
X36951905Y-31514809D01*
X36951905Y-31514809D02*
X36904286Y-31586238D01*
X36904286Y-31586238D02*
X36856667Y-31633857D01*
X36856667Y-31633857D02*
X36809048Y-31657666D01*
D10*
X20802618Y-24854318D02*
X20802618Y-23584318D01*
X20802618Y-23584318D02*
X21104999Y-23584318D01*
X21104999Y-23584318D02*
X21286428Y-23644794D01*
X21286428Y-23644794D02*
X21407380Y-23765746D01*
X21407380Y-23765746D02*
X21467857Y-23886699D01*
X21467857Y-23886699D02*
X21528333Y-24128603D01*
X21528333Y-24128603D02*
X21528333Y-24310032D01*
X21528333Y-24310032D02*
X21467857Y-24551937D01*
X21467857Y-24551937D02*
X21407380Y-24672889D01*
X21407380Y-24672889D02*
X21286428Y-24793842D01*
X21286428Y-24793842D02*
X21104999Y-24854318D01*
X21104999Y-24854318D02*
X20802618Y-24854318D01*
X21951666Y-23584318D02*
X22737857Y-23584318D01*
X22737857Y-23584318D02*
X22314523Y-24068127D01*
X22314523Y-24068127D02*
X22495952Y-24068127D01*
X22495952Y-24068127D02*
X22616904Y-24128603D01*
X22616904Y-24128603D02*
X22677380Y-24189080D01*
X22677380Y-24189080D02*
X22737857Y-24310032D01*
X22737857Y-24310032D02*
X22737857Y-24612413D01*
X22737857Y-24612413D02*
X22677380Y-24733365D01*
X22677380Y-24733365D02*
X22616904Y-24793842D01*
X22616904Y-24793842D02*
X22495952Y-24854318D01*
X22495952Y-24854318D02*
X22133095Y-24854318D01*
X22133095Y-24854318D02*
X22012142Y-24793842D01*
X22012142Y-24793842D02*
X21951666Y-24733365D01*
D14*
X42377190Y-31823333D02*
X42401000Y-31847142D01*
X42401000Y-31847142D02*
X42424809Y-31918571D01*
X42424809Y-31918571D02*
X42424809Y-31966190D01*
X42424809Y-31966190D02*
X42401000Y-32037618D01*
X42401000Y-32037618D02*
X42353380Y-32085237D01*
X42353380Y-32085237D02*
X42305761Y-32109047D01*
X42305761Y-32109047D02*
X42210523Y-32132856D01*
X42210523Y-32132856D02*
X42139095Y-32132856D01*
X42139095Y-32132856D02*
X42043857Y-32109047D01*
X42043857Y-32109047D02*
X41996238Y-32085237D01*
X41996238Y-32085237D02*
X41948619Y-32037618D01*
X41948619Y-32037618D02*
X41924809Y-31966190D01*
X41924809Y-31966190D02*
X41924809Y-31918571D01*
X41924809Y-31918571D02*
X41948619Y-31847142D01*
X41948619Y-31847142D02*
X41972428Y-31823333D01*
X41924809Y-31370952D02*
X41924809Y-31609047D01*
X41924809Y-31609047D02*
X42162904Y-31632856D01*
X42162904Y-31632856D02*
X42139095Y-31609047D01*
X42139095Y-31609047D02*
X42115285Y-31561428D01*
X42115285Y-31561428D02*
X42115285Y-31442380D01*
X42115285Y-31442380D02*
X42139095Y-31394761D01*
X42139095Y-31394761D02*
X42162904Y-31370952D01*
X42162904Y-31370952D02*
X42210523Y-31347142D01*
X42210523Y-31347142D02*
X42329571Y-31347142D01*
X42329571Y-31347142D02*
X42377190Y-31370952D01*
X42377190Y-31370952D02*
X42401000Y-31394761D01*
X42401000Y-31394761D02*
X42424809Y-31442380D01*
X42424809Y-31442380D02*
X42424809Y-31561428D01*
X42424809Y-31561428D02*
X42401000Y-31609047D01*
X42401000Y-31609047D02*
X42377190Y-31632856D01*
D15*
X51697857Y-28037214D02*
X51697857Y-27287214D01*
X52483571Y-27965785D02*
X52447857Y-28001500D01*
X52447857Y-28001500D02*
X52340714Y-28037214D01*
X52340714Y-28037214D02*
X52269286Y-28037214D01*
X52269286Y-28037214D02*
X52162143Y-28001500D01*
X52162143Y-28001500D02*
X52090714Y-27930071D01*
X52090714Y-27930071D02*
X52055000Y-27858642D01*
X52055000Y-27858642D02*
X52019286Y-27715785D01*
X52019286Y-27715785D02*
X52019286Y-27608642D01*
X52019286Y-27608642D02*
X52055000Y-27465785D01*
X52055000Y-27465785D02*
X52090714Y-27394357D01*
X52090714Y-27394357D02*
X52162143Y-27322928D01*
X52162143Y-27322928D02*
X52269286Y-27287214D01*
X52269286Y-27287214D02*
X52340714Y-27287214D01*
X52340714Y-27287214D02*
X52447857Y-27322928D01*
X52447857Y-27322928D02*
X52483571Y-27358642D01*
X52769286Y-27358642D02*
X52805000Y-27322928D01*
X52805000Y-27322928D02*
X52876429Y-27287214D01*
X52876429Y-27287214D02*
X53055000Y-27287214D01*
X53055000Y-27287214D02*
X53126429Y-27322928D01*
X53126429Y-27322928D02*
X53162143Y-27358642D01*
X53162143Y-27358642D02*
X53197857Y-27430071D01*
X53197857Y-27430071D02*
X53197857Y-27501500D01*
X53197857Y-27501500D02*
X53162143Y-27608642D01*
X53162143Y-27608642D02*
X52733571Y-28037214D01*
X52733571Y-28037214D02*
X53197857Y-28037214D01*
D10*
X25100237Y-32404318D02*
X25100237Y-31134318D01*
X26430714Y-32283365D02*
X26370238Y-32343842D01*
X26370238Y-32343842D02*
X26188809Y-32404318D01*
X26188809Y-32404318D02*
X26067857Y-32404318D01*
X26067857Y-32404318D02*
X25886428Y-32343842D01*
X25886428Y-32343842D02*
X25765476Y-32222889D01*
X25765476Y-32222889D02*
X25704999Y-32101937D01*
X25704999Y-32101937D02*
X25644523Y-31860032D01*
X25644523Y-31860032D02*
X25644523Y-31678603D01*
X25644523Y-31678603D02*
X25704999Y-31436699D01*
X25704999Y-31436699D02*
X25765476Y-31315746D01*
X25765476Y-31315746D02*
X25886428Y-31194794D01*
X25886428Y-31194794D02*
X26067857Y-31134318D01*
X26067857Y-31134318D02*
X26188809Y-31134318D01*
X26188809Y-31134318D02*
X26370238Y-31194794D01*
X26370238Y-31194794D02*
X26430714Y-31255270D01*
X27640238Y-32404318D02*
X26914523Y-32404318D01*
X27277380Y-32404318D02*
X27277380Y-31134318D01*
X27277380Y-31134318D02*
X27156428Y-31315746D01*
X27156428Y-31315746D02*
X27035476Y-31436699D01*
X27035476Y-31436699D02*
X26914523Y-31497175D01*
X51670237Y-41054318D02*
X51670237Y-39784318D01*
X53000714Y-40933365D02*
X52940238Y-40993842D01*
X52940238Y-40993842D02*
X52758809Y-41054318D01*
X52758809Y-41054318D02*
X52637857Y-41054318D01*
X52637857Y-41054318D02*
X52456428Y-40993842D01*
X52456428Y-40993842D02*
X52335476Y-40872889D01*
X52335476Y-40872889D02*
X52274999Y-40751937D01*
X52274999Y-40751937D02*
X52214523Y-40510032D01*
X52214523Y-40510032D02*
X52214523Y-40328603D01*
X52214523Y-40328603D02*
X52274999Y-40086699D01*
X52274999Y-40086699D02*
X52335476Y-39965746D01*
X52335476Y-39965746D02*
X52456428Y-39844794D01*
X52456428Y-39844794D02*
X52637857Y-39784318D01*
X52637857Y-39784318D02*
X52758809Y-39784318D01*
X52758809Y-39784318D02*
X52940238Y-39844794D01*
X52940238Y-39844794D02*
X53000714Y-39905270D01*
X54149761Y-39784318D02*
X53544999Y-39784318D01*
X53544999Y-39784318D02*
X53484523Y-40389080D01*
X53484523Y-40389080D02*
X53544999Y-40328603D01*
X53544999Y-40328603D02*
X53665952Y-40268127D01*
X53665952Y-40268127D02*
X53968333Y-40268127D01*
X53968333Y-40268127D02*
X54089285Y-40328603D01*
X54089285Y-40328603D02*
X54149761Y-40389080D01*
X54149761Y-40389080D02*
X54210238Y-40510032D01*
X54210238Y-40510032D02*
X54210238Y-40812413D01*
X54210238Y-40812413D02*
X54149761Y-40933365D01*
X54149761Y-40933365D02*
X54089285Y-40993842D01*
X54089285Y-40993842D02*
X53968333Y-41054318D01*
X53968333Y-41054318D02*
X53665952Y-41054318D01*
X53665952Y-41054318D02*
X53544999Y-40993842D01*
X53544999Y-40993842D02*
X53484523Y-40933365D01*
X54332618Y-21824318D02*
X54332618Y-20554318D01*
X54332618Y-20554318D02*
X54634999Y-20554318D01*
X54634999Y-20554318D02*
X54816428Y-20614794D01*
X54816428Y-20614794D02*
X54937380Y-20735746D01*
X54937380Y-20735746D02*
X54997857Y-20856699D01*
X54997857Y-20856699D02*
X55058333Y-21098603D01*
X55058333Y-21098603D02*
X55058333Y-21280032D01*
X55058333Y-21280032D02*
X54997857Y-21521937D01*
X54997857Y-21521937D02*
X54937380Y-21642889D01*
X54937380Y-21642889D02*
X54816428Y-21763842D01*
X54816428Y-21763842D02*
X54634999Y-21824318D01*
X54634999Y-21824318D02*
X54332618Y-21824318D01*
X56267857Y-21824318D02*
X55542142Y-21824318D01*
X55904999Y-21824318D02*
X55904999Y-20554318D01*
X55904999Y-20554318D02*
X55784047Y-20735746D01*
X55784047Y-20735746D02*
X55663095Y-20856699D01*
X55663095Y-20856699D02*
X55542142Y-20917175D01*
D14*
X38866666Y-32482809D02*
X38700000Y-32244714D01*
X38580952Y-32482809D02*
X38580952Y-31982809D01*
X38580952Y-31982809D02*
X38771428Y-31982809D01*
X38771428Y-31982809D02*
X38819047Y-32006619D01*
X38819047Y-32006619D02*
X38842857Y-32030428D01*
X38842857Y-32030428D02*
X38866666Y-32078047D01*
X38866666Y-32078047D02*
X38866666Y-32149476D01*
X38866666Y-32149476D02*
X38842857Y-32197095D01*
X38842857Y-32197095D02*
X38819047Y-32220904D01*
X38819047Y-32220904D02*
X38771428Y-32244714D01*
X38771428Y-32244714D02*
X38580952Y-32244714D01*
X39033333Y-31982809D02*
X39342857Y-31982809D01*
X39342857Y-31982809D02*
X39176190Y-32173285D01*
X39176190Y-32173285D02*
X39247619Y-32173285D01*
X39247619Y-32173285D02*
X39295238Y-32197095D01*
X39295238Y-32197095D02*
X39319047Y-32220904D01*
X39319047Y-32220904D02*
X39342857Y-32268523D01*
X39342857Y-32268523D02*
X39342857Y-32387571D01*
X39342857Y-32387571D02*
X39319047Y-32435190D01*
X39319047Y-32435190D02*
X39295238Y-32459000D01*
X39295238Y-32459000D02*
X39247619Y-32482809D01*
X39247619Y-32482809D02*
X39104762Y-32482809D01*
X39104762Y-32482809D02*
X39057143Y-32459000D01*
X39057143Y-32459000D02*
X39033333Y-32435190D01*
D12*
X52789580Y-20376666D02*
X52837200Y-20424285D01*
X52837200Y-20424285D02*
X52884819Y-20567142D01*
X52884819Y-20567142D02*
X52884819Y-20662380D01*
X52884819Y-20662380D02*
X52837200Y-20805237D01*
X52837200Y-20805237D02*
X52741961Y-20900475D01*
X52741961Y-20900475D02*
X52646723Y-20948094D01*
X52646723Y-20948094D02*
X52456247Y-20995713D01*
X52456247Y-20995713D02*
X52313390Y-20995713D01*
X52313390Y-20995713D02*
X52122914Y-20948094D01*
X52122914Y-20948094D02*
X52027676Y-20900475D01*
X52027676Y-20900475D02*
X51932438Y-20805237D01*
X51932438Y-20805237D02*
X51884819Y-20662380D01*
X51884819Y-20662380D02*
X51884819Y-20567142D01*
X51884819Y-20567142D02*
X51932438Y-20424285D01*
X51932438Y-20424285D02*
X51980057Y-20376666D01*
X51980057Y-19995713D02*
X51932438Y-19948094D01*
X51932438Y-19948094D02*
X51884819Y-19852856D01*
X51884819Y-19852856D02*
X51884819Y-19614761D01*
X51884819Y-19614761D02*
X51932438Y-19519523D01*
X51932438Y-19519523D02*
X51980057Y-19471904D01*
X51980057Y-19471904D02*
X52075295Y-19424285D01*
X52075295Y-19424285D02*
X52170533Y-19424285D01*
X52170533Y-19424285D02*
X52313390Y-19471904D01*
X52313390Y-19471904D02*
X52884819Y-20043332D01*
X52884819Y-20043332D02*
X52884819Y-19424285D01*
D14*
X44272380Y-31882428D02*
X44224761Y-31858619D01*
X44224761Y-31858619D02*
X44177142Y-31811000D01*
X44177142Y-31811000D02*
X44105714Y-31739571D01*
X44105714Y-31739571D02*
X44058095Y-31715761D01*
X44058095Y-31715761D02*
X44010476Y-31715761D01*
X44034285Y-31834809D02*
X43986666Y-31811000D01*
X43986666Y-31811000D02*
X43939047Y-31763380D01*
X43939047Y-31763380D02*
X43915238Y-31668142D01*
X43915238Y-31668142D02*
X43915238Y-31501476D01*
X43915238Y-31501476D02*
X43939047Y-31406238D01*
X43939047Y-31406238D02*
X43986666Y-31358619D01*
X43986666Y-31358619D02*
X44034285Y-31334809D01*
X44034285Y-31334809D02*
X44129523Y-31334809D01*
X44129523Y-31334809D02*
X44177142Y-31358619D01*
X44177142Y-31358619D02*
X44224761Y-31406238D01*
X44224761Y-31406238D02*
X44248571Y-31501476D01*
X44248571Y-31501476D02*
X44248571Y-31668142D01*
X44248571Y-31668142D02*
X44224761Y-31763380D01*
X44224761Y-31763380D02*
X44177142Y-31811000D01*
X44177142Y-31811000D02*
X44129523Y-31834809D01*
X44129523Y-31834809D02*
X44034285Y-31834809D01*
X44439048Y-31382428D02*
X44462857Y-31358619D01*
X44462857Y-31358619D02*
X44510476Y-31334809D01*
X44510476Y-31334809D02*
X44629524Y-31334809D01*
X44629524Y-31334809D02*
X44677143Y-31358619D01*
X44677143Y-31358619D02*
X44700952Y-31382428D01*
X44700952Y-31382428D02*
X44724762Y-31430047D01*
X44724762Y-31430047D02*
X44724762Y-31477666D01*
X44724762Y-31477666D02*
X44700952Y-31549095D01*
X44700952Y-31549095D02*
X44415238Y-31834809D01*
X44415238Y-31834809D02*
X44724762Y-31834809D01*
D12*
X24193333Y-27779580D02*
X24145714Y-27827200D01*
X24145714Y-27827200D02*
X24002857Y-27874819D01*
X24002857Y-27874819D02*
X23907619Y-27874819D01*
X23907619Y-27874819D02*
X23764762Y-27827200D01*
X23764762Y-27827200D02*
X23669524Y-27731961D01*
X23669524Y-27731961D02*
X23621905Y-27636723D01*
X23621905Y-27636723D02*
X23574286Y-27446247D01*
X23574286Y-27446247D02*
X23574286Y-27303390D01*
X23574286Y-27303390D02*
X23621905Y-27112914D01*
X23621905Y-27112914D02*
X23669524Y-27017676D01*
X23669524Y-27017676D02*
X23764762Y-26922438D01*
X23764762Y-26922438D02*
X23907619Y-26874819D01*
X23907619Y-26874819D02*
X24002857Y-26874819D01*
X24002857Y-26874819D02*
X24145714Y-26922438D01*
X24145714Y-26922438D02*
X24193333Y-26970057D01*
X25050476Y-27208152D02*
X25050476Y-27874819D01*
X24812381Y-26827200D02*
X24574286Y-27541485D01*
X24574286Y-27541485D02*
X25193333Y-27541485D01*
D11*
X49196666Y-10887419D02*
X49196666Y-11601704D01*
X49196666Y-11601704D02*
X49149047Y-11744561D01*
X49149047Y-11744561D02*
X49053809Y-11839800D01*
X49053809Y-11839800D02*
X48910952Y-11887419D01*
X48910952Y-11887419D02*
X48815714Y-11887419D01*
X49577619Y-10887419D02*
X50196666Y-10887419D01*
X50196666Y-10887419D02*
X49863333Y-11268371D01*
X49863333Y-11268371D02*
X50006190Y-11268371D01*
X50006190Y-11268371D02*
X50101428Y-11315990D01*
X50101428Y-11315990D02*
X50149047Y-11363609D01*
X50149047Y-11363609D02*
X50196666Y-11458847D01*
X50196666Y-11458847D02*
X50196666Y-11696942D01*
X50196666Y-11696942D02*
X50149047Y-11792180D01*
X50149047Y-11792180D02*
X50101428Y-11839800D01*
X50101428Y-11839800D02*
X50006190Y-11887419D01*
X50006190Y-11887419D02*
X49720476Y-11887419D01*
X49720476Y-11887419D02*
X49625238Y-11839800D01*
X49625238Y-11839800D02*
X49577619Y-11792180D01*
D13*
X41625000Y-37450000D02*
G75*
G02*
X41375000Y-37450000I-125000J0D01*
G01*
X41375000Y-37450000D02*
G75*
G02*
X41625000Y-37450000I125000J0D01*
G01*
D16*
X37427836Y-35960000D02*
X37212164Y-35960000D01*
X37427836Y-36680000D02*
X37212164Y-36680000D01*
X29497836Y-27470000D02*
X29282164Y-27470000D01*
X29497836Y-28190000D02*
X29282164Y-28190000D01*
D17*
X53900000Y-27180000D02*
X55100000Y-27180000D01*
X55450000Y-27230000D02*
X56050000Y-27230000D01*
X55450000Y-30130000D02*
X55450000Y-27230000D01*
X56050000Y-27230000D02*
X56050000Y-30130000D01*
X56050000Y-30130000D02*
X55450000Y-30130000D01*
D16*
X40820641Y-32747000D02*
X40513359Y-32747000D01*
X40820641Y-33507000D02*
X40513359Y-33507000D01*
X41580000Y-39024420D02*
X41580000Y-39305580D01*
X42600000Y-39024420D02*
X42600000Y-39305580D01*
D17*
X47285000Y-16401000D02*
G75*
G02*
X47085000Y-16401000I-100000J0D01*
G01*
X47085000Y-16401000D02*
G75*
G02*
X47285000Y-16401000I100000J0D01*
G01*
D11*
X47735000Y-22701000D02*
X47735000Y-20701000D01*
X47735000Y-18701000D02*
X47735000Y-18201000D01*
D17*
X47285000Y-16401000D02*
X47285000Y-16401000D01*
X47085000Y-16401000D02*
X47085000Y-16401000D01*
D11*
X46285000Y-23151000D02*
X44285000Y-23151000D01*
X42835000Y-22701000D02*
X42835000Y-20701000D01*
X42835000Y-18701000D02*
X42835000Y-18201000D01*
X34190000Y-18721000D02*
X34190000Y-18221000D01*
X34190000Y-22721000D02*
X34190000Y-20721000D01*
X37640000Y-23171000D02*
X35640000Y-23171000D01*
D17*
X38440000Y-16421000D02*
X38440000Y-16421000D01*
X38640000Y-16421000D02*
X38640000Y-16421000D01*
D11*
X39090000Y-18721000D02*
X39090000Y-18221000D01*
X39090000Y-22721000D02*
X39090000Y-20721000D01*
D17*
X38440000Y-16421000D02*
G75*
G02*
X38640000Y-16421000I100000J0D01*
G01*
X38640000Y-16421000D02*
G75*
G02*
X38440000Y-16421000I-100000J0D01*
G01*
D18*
X42831500Y-33205000D02*
X42831500Y-40565000D01*
X48788500Y-40565000D02*
X48788500Y-33205000D01*
D16*
X41920000Y-35717836D02*
X41920000Y-35502164D01*
X42640000Y-35717836D02*
X42640000Y-35502164D01*
X50317836Y-27530000D02*
X50102164Y-27530000D01*
X50317836Y-28250000D02*
X50102164Y-28250000D01*
D11*
X34731000Y-31312000D02*
X34731000Y-31312000D01*
X34731000Y-31412000D02*
X34731000Y-31412000D01*
X34731000Y-31312000D02*
G75*
G02*
X34731000Y-31412000I0J-50000D01*
G01*
X34731000Y-31412000D02*
G75*
G02*
X34731000Y-31312000I0J50000D01*
G01*
D17*
X25520000Y-26310000D02*
X30920000Y-26310000D01*
X30920000Y-22690000D02*
X25520000Y-22690000D01*
D16*
X41890000Y-33287836D02*
X41890000Y-33072164D01*
X42610000Y-33287836D02*
X42610000Y-33072164D01*
D17*
X49530000Y-28620000D02*
X50730000Y-28620000D01*
X51080000Y-28770000D02*
X51680000Y-28770000D01*
X51080000Y-31670000D02*
X51080000Y-28770000D01*
X51680000Y-28770000D02*
X51680000Y-31670000D01*
X51680000Y-31670000D02*
X51080000Y-31670000D01*
X30360000Y-31820000D02*
X29760000Y-31820000D01*
X30360000Y-28920000D02*
X30360000Y-31820000D01*
X29760000Y-31820000D02*
X29760000Y-28920000D01*
X29760000Y-28920000D02*
X30360000Y-28920000D01*
X28210000Y-28770000D02*
X29410000Y-28770000D01*
X49065000Y-32795000D02*
X50815000Y-32795000D01*
X51340000Y-32670000D02*
X54840000Y-32670000D01*
X51340000Y-39170000D02*
X51340000Y-32670000D01*
X54840000Y-32670000D02*
X54840000Y-39170000D01*
X54840000Y-39170000D02*
X51340000Y-39170000D01*
X51230000Y-26360000D02*
X56630000Y-26360000D01*
X56630000Y-22740000D02*
X51230000Y-22740000D01*
D16*
X38820641Y-32747000D02*
X38513359Y-32747000D01*
X38820641Y-33507000D02*
X38513359Y-33507000D01*
X53230000Y-20317836D02*
X53230000Y-20102164D01*
X53950000Y-20317836D02*
X53950000Y-20102164D01*
D11*
X43380000Y-31312000D02*
X43380000Y-31312000D01*
X43380000Y-31412000D02*
X43380000Y-31412000D01*
X43380000Y-31312000D02*
G75*
G02*
X43380000Y-31412000I0J-50000D01*
G01*
X43380000Y-31412000D02*
G75*
G02*
X43380000Y-31312000I0J50000D01*
G01*
X20395047Y-56390500D02*
X20395047Y-38435500D01*
X21895047Y-36935500D02*
X36675047Y-36935500D01*
X36675047Y-57890500D02*
X21895047Y-57890500D01*
X38175047Y-38435500D02*
X38175047Y-56390500D01*
X32258447Y-60065000D02*
X26228447Y-60065000D01*
X26228447Y-57905000D01*
X32258447Y-57905000D01*
X32258447Y-60065000D01*
X20395047Y-38435500D02*
G75*
G02*
X21895047Y-36935500I1500000J0D01*
G01*
X21895047Y-57890500D02*
G75*
G02*
X20395047Y-56390500I0J1500000D01*
G01*
X36675047Y-36935500D02*
G75*
G02*
X38175047Y-38435500I-1J-1500001D01*
G01*
X38175047Y-56390500D02*
G75*
G02*
X36675047Y-57890500I-1500001J1D01*
G01*
D19*
X36949200Y-56825000D02*
G75*
G02*
X36367694Y-56825000I-290753J0D01*
G01*
X36367694Y-56825000D02*
G75*
G02*
X36949200Y-56825000I290753J0D01*
G01*
X38649200Y-58125000D02*
G75*
G02*
X38067694Y-58125000I-290753J0D01*
G01*
X38067694Y-58125000D02*
G75*
G02*
X38649200Y-58125000I290753J0D01*
G01*
D16*
X27142164Y-27000000D02*
X27357836Y-27000000D01*
X27142164Y-27720000D02*
X27357836Y-27720000D01*
%LPC*%
D20*
X41075000Y-36800000D03*
X41075000Y-36300000D03*
X41075000Y-35800000D03*
X41075000Y-35300000D03*
X41075000Y-34800000D03*
X39175000Y-34800000D03*
X39175000Y-35300000D03*
X39175000Y-35800000D03*
X39175000Y-36300000D03*
X39175000Y-36800000D03*
D21*
X40125000Y-35800000D03*
D22*
X37800000Y-36320000D03*
X36840000Y-36320000D03*
X29870000Y-27830000D03*
X28910000Y-27830000D03*
D23*
X54500000Y-27730000D03*
X54500000Y-28680000D03*
X54500000Y-29630000D03*
X57000000Y-29630000D03*
X57000000Y-27730000D03*
D24*
X41177000Y-33127000D03*
X40157000Y-33127000D03*
D25*
X42090000Y-38390000D03*
X42090000Y-39940000D03*
D26*
X45285000Y-19000000D03*
D27*
X45285000Y-19665000D03*
D28*
X45285000Y-21480000D03*
D29*
X47190000Y-23080000D03*
X43380000Y-23080000D03*
D30*
X43380000Y-17322000D03*
X44650000Y-17322000D03*
X45920000Y-17322000D03*
X47190000Y-17322000D03*
D31*
X40860000Y-13500000D03*
X40860000Y-46500000D03*
D30*
X38545000Y-17342000D03*
X37275000Y-17342000D03*
X36005000Y-17342000D03*
X34735000Y-17342000D03*
D29*
X34735000Y-23100000D03*
X38545000Y-23100000D03*
D28*
X36640000Y-21500000D03*
D27*
X36640000Y-19685000D03*
D26*
X36640000Y-19020000D03*
D32*
X45810000Y-34765000D03*
X45810000Y-39005000D03*
D33*
X45810000Y-33610000D03*
X45810000Y-40160000D03*
D34*
X36807500Y-5180000D03*
D35*
X31170000Y-5792500D03*
D36*
X42280000Y-36090000D03*
X42280000Y-35130000D03*
D22*
X50690000Y-27890000D03*
X49730000Y-27890000D03*
D30*
X34731000Y-30460000D03*
X36001000Y-30460000D03*
X37271000Y-30460000D03*
X38541000Y-30460000D03*
D37*
X36636000Y-26967000D03*
D29*
X34731000Y-24702000D03*
D38*
X34109000Y-28117000D03*
X39163000Y-28117000D03*
D29*
X38541000Y-24702000D03*
D34*
X54507500Y-55190000D03*
D35*
X48870000Y-55802500D03*
D39*
X26020000Y-24500000D03*
X30420000Y-24500000D03*
D36*
X42250000Y-33660000D03*
X42250000Y-32700000D03*
D23*
X50130000Y-29270000D03*
X50130000Y-30220000D03*
X50130000Y-31170000D03*
X52630000Y-31170000D03*
X52630000Y-30220000D03*
X52630000Y-29270000D03*
X31310000Y-29420000D03*
X31310000Y-30370000D03*
X31310000Y-31320000D03*
X28810000Y-31320000D03*
X28810000Y-30370000D03*
X28810000Y-29420000D03*
D40*
X49940000Y-33620000D03*
X49940000Y-35920000D03*
X49940000Y-38220000D03*
D41*
X56240000Y-35920000D03*
D39*
X56130000Y-24550000D03*
X51730000Y-24550000D03*
D24*
X39177000Y-33127000D03*
X38157000Y-33127000D03*
D36*
X53590000Y-20690000D03*
X53590000Y-19730000D03*
D30*
X43380000Y-30460000D03*
X44650000Y-30460000D03*
X45920000Y-30460000D03*
X47190000Y-30460000D03*
D37*
X45285000Y-26967000D03*
D29*
X43380000Y-24702000D03*
D38*
X42758000Y-28117000D03*
X47812000Y-28117000D03*
D29*
X47190000Y-24702000D03*
D42*
X37340047Y-54973500D03*
X37340047Y-52433500D03*
X37340047Y-49893500D03*
X37340047Y-47353500D03*
X37340047Y-44813500D03*
X37340047Y-42273500D03*
X37340047Y-39733500D03*
X21175047Y-39733500D03*
X21175047Y-42273500D03*
X21175047Y-44813500D03*
X21175047Y-47353500D03*
X21175047Y-49893500D03*
X21175047Y-52433500D03*
X21175047Y-54955000D03*
D43*
X26770000Y-27360000D03*
X27730000Y-27360000D03*
D34*
X51987500Y-5220000D03*
D35*
X46350000Y-5832500D03*
%LPD*%
M02*
