%TF.GenerationSoftware,KiCad,Pcbnew,8.0.7*%
%TF.CreationDate,2025-03-27T23:32:18-04:00*%
%TF.ProjectId,power_distribution_board,706f7765-725f-4646-9973-747269627574,1*%
%TF.SameCoordinates,Original*%
%TF.FileFunction,Drillmap*%
%TF.FilePolarity,Positive*%
%FSLAX45Y45*%
G04 Gerber Fmt 4.5, Leading zero omitted, Abs format (unit mm)*
G04 Created by KiCad (PCBNEW 8.0.7) date 2025-03-27 23:32:18*
%MOMM*%
%LPD*%
G01*
G04 APERTURE LIST*
%ADD10C,0.038100*%
%ADD11C,0.200000*%
%ADD12C,0.100000*%
%ADD13C,0.125000*%
G04 APERTURE END LIST*
D10*
X5869000Y-127000D02*
G75*
G02*
X5969000Y-227000I0J-100000D01*
G01*
X2005000Y-6019800D02*
G75*
G02*
X1905000Y-5919800I0J100000D01*
G01*
X1905000Y-5919800D02*
X1905000Y-227000D01*
X5869000Y-6019800D02*
X2005000Y-6019800D01*
X1905000Y-227000D02*
G75*
G02*
X2005000Y-127000I100000J0D01*
G01*
X2005000Y-127000D02*
X5869000Y-127000D01*
X5969000Y-5919800D02*
G75*
G02*
X5869000Y-6019800I-100000J0D01*
G01*
X5969000Y-227000D02*
X5969000Y-5919800D01*
D11*
D12*
X2308490Y-5490490D02*
X2341510Y-5523510D01*
X2341510Y-5490490D02*
X2308490Y-5523510D01*
X2322490Y-5229490D02*
X2355510Y-5262510D01*
X2355510Y-5229490D02*
X2322490Y-5262510D01*
X2334490Y-4987490D02*
X2367510Y-5020510D01*
X2367510Y-4987490D02*
X2334490Y-5020510D01*
X2407490Y-1734490D02*
X2440510Y-1767510D01*
X2440510Y-1734490D02*
X2407490Y-1767510D01*
X2463490Y-1996490D02*
X2496510Y-2029510D01*
X2496510Y-1996490D02*
X2463490Y-2029510D01*
X2555490Y-1734490D02*
X2588510Y-1767510D01*
X2588510Y-1734490D02*
X2555490Y-1767510D01*
X2574490Y-2716490D02*
X2607510Y-2749510D01*
X2607510Y-2716490D02*
X2574490Y-2749510D01*
X2611490Y-1996490D02*
X2644510Y-2029510D01*
X2644510Y-1996490D02*
X2611490Y-2029510D01*
X2716490Y-1737490D02*
X2749510Y-1770510D01*
X2749510Y-1737490D02*
X2716490Y-1770510D01*
X2756490Y-2435490D02*
X2789510Y-2468510D01*
X2789510Y-2435490D02*
X2756490Y-2468510D01*
X2760490Y-2522490D02*
X2793510Y-2555510D01*
X2793510Y-2522490D02*
X2760490Y-2555510D01*
X2761490Y-2354490D02*
X2794510Y-2387510D01*
X2794510Y-2354490D02*
X2761490Y-2387510D01*
X2772490Y-1999490D02*
X2805510Y-2032510D01*
X2805510Y-1999490D02*
X2772490Y-2032510D01*
X2782490Y-3005490D02*
X2815510Y-3038510D01*
X2815510Y-3005490D02*
X2782490Y-3038510D01*
X2879490Y-875490D02*
X2912510Y-908510D01*
X2912510Y-875490D02*
X2879490Y-908510D01*
X2885490Y-1741490D02*
X2918510Y-1774510D01*
X2918510Y-1741490D02*
X2885490Y-1774510D01*
X2917490Y-765490D02*
X2950510Y-798510D01*
X2950510Y-765490D02*
X2917490Y-798510D01*
X2941490Y-2003490D02*
X2974510Y-2036510D01*
X2974510Y-2003490D02*
X2941490Y-2036510D01*
X2942240Y-337490D02*
X2975260Y-370510D01*
X2975260Y-337490D02*
X2942240Y-370510D01*
X2961490Y-875490D02*
X2994510Y-908510D01*
X2994510Y-875490D02*
X2961490Y-908510D01*
X2980240Y-227490D02*
X3013260Y-260510D01*
X3013260Y-227490D02*
X2980240Y-260510D01*
X2999490Y-765490D02*
X3032510Y-798510D01*
X3032510Y-765490D02*
X2999490Y-798510D01*
X3024240Y-337490D02*
X3057260Y-370510D01*
X3057260Y-337490D02*
X3024240Y-370510D01*
X3042490Y-874490D02*
X3075510Y-907510D01*
X3075510Y-874490D02*
X3042490Y-907510D01*
X3062240Y-227490D02*
X3095260Y-260510D01*
X3095260Y-227490D02*
X3062240Y-260510D01*
X3080490Y-764490D02*
X3113510Y-797510D01*
X3113510Y-764490D02*
X3080490Y-797510D01*
X3105240Y-336490D02*
X3138260Y-369510D01*
X3138260Y-336490D02*
X3105240Y-369510D01*
X3120490Y-877490D02*
X3153510Y-910510D01*
X3153510Y-877490D02*
X3120490Y-910510D01*
X3132490Y-3190490D02*
X3165510Y-3223510D01*
X3165510Y-3190490D02*
X3132490Y-3223510D01*
X3143240Y-226490D02*
X3176260Y-259510D01*
X3176260Y-226490D02*
X3143240Y-259510D01*
X3158490Y-767490D02*
X3191510Y-800510D01*
X3191510Y-767490D02*
X3158490Y-800510D01*
X3183240Y-339490D02*
X3216260Y-372510D01*
X3216260Y-339490D02*
X3183240Y-372510D01*
X3187490Y-4643490D02*
X3220510Y-4676510D01*
X3220510Y-4643490D02*
X3187490Y-4676510D01*
X3202490Y-877490D02*
X3235510Y-910510D01*
X3235510Y-877490D02*
X3202490Y-910510D01*
X3221240Y-229490D02*
X3254260Y-262510D01*
X3254260Y-229490D02*
X3221240Y-262510D01*
X3240490Y-767490D02*
X3273510Y-800510D01*
X3273510Y-767490D02*
X3240490Y-800510D01*
X3265240Y-339490D02*
X3298260Y-372510D01*
X3298260Y-339490D02*
X3265240Y-372510D01*
X3275490Y-3195490D02*
X3308510Y-3228510D01*
X3308510Y-3195490D02*
X3275490Y-3228510D01*
X3281490Y-873490D02*
X3314510Y-906510D01*
X3314510Y-873490D02*
X3281490Y-906510D01*
X3303240Y-229490D02*
X3336260Y-262510D01*
X3336260Y-229490D02*
X3303240Y-262510D01*
X3314490Y-1605490D02*
X3347510Y-1638510D01*
X3347510Y-1605490D02*
X3314490Y-1638510D01*
X3316490Y-2672490D02*
X3349510Y-2705510D01*
X3349510Y-2672490D02*
X3316490Y-2705510D01*
X3317490Y-1871490D02*
X3350510Y-1904510D01*
X3350510Y-1871490D02*
X3317490Y-1904510D01*
X3319490Y-2799490D02*
X3352510Y-2832510D01*
X3352510Y-2799490D02*
X3319490Y-2832510D01*
X3320490Y-2395490D02*
X3353510Y-2428510D01*
X3353510Y-2395490D02*
X3320490Y-2428510D01*
X3321490Y-766490D02*
X3354510Y-799510D01*
X3354510Y-766490D02*
X3321490Y-799510D01*
X3321490Y-1738490D02*
X3354510Y-1771510D01*
X3354510Y-1738490D02*
X3321490Y-1771510D01*
X3321490Y-2529490D02*
X3354510Y-2562510D01*
X3354510Y-2529490D02*
X3321490Y-2562510D01*
X3323490Y-2042490D02*
X3356510Y-2075510D01*
X3356510Y-2042490D02*
X3323490Y-2075510D01*
X3329490Y-2189490D02*
X3362510Y-2222510D01*
X3362510Y-2189490D02*
X3329490Y-2222510D01*
X3344240Y-335490D02*
X3377260Y-368510D01*
X3377260Y-335490D02*
X3344240Y-368510D01*
X3355490Y-3898490D02*
X3388510Y-3931510D01*
X3388510Y-3898490D02*
X3355490Y-3931510D01*
X3384240Y-228490D02*
X3417260Y-261510D01*
X3417260Y-228490D02*
X3384240Y-261510D01*
X3402490Y-3192490D02*
X3435510Y-3225510D01*
X3435510Y-3192490D02*
X3402490Y-3225510D01*
X3413490Y-1606490D02*
X3446510Y-1639510D01*
X3446510Y-1606490D02*
X3413490Y-1639510D01*
X3436490Y-2371490D02*
X3469510Y-2404510D01*
X3469510Y-2371490D02*
X3436490Y-2404510D01*
X3437490Y-4419490D02*
X3470510Y-4452510D01*
X3470510Y-4419490D02*
X3437490Y-4452510D01*
X3469490Y-2807490D02*
X3502510Y-2840510D01*
X3502510Y-2807490D02*
X3469490Y-2840510D01*
X3470490Y-2709490D02*
X3503510Y-2742510D01*
X3503510Y-2709490D02*
X3470490Y-2742510D01*
X3474490Y-2202490D02*
X3507510Y-2235510D01*
X3507510Y-2202490D02*
X3474490Y-2235510D01*
X3474490Y-2620490D02*
X3507510Y-2653510D01*
X3507510Y-2620490D02*
X3474490Y-2653510D01*
X3476490Y-2109490D02*
X3509510Y-2142510D01*
X3509510Y-2109490D02*
X3476490Y-2142510D01*
X3479490Y-2015490D02*
X3512510Y-2048510D01*
X3512510Y-2015490D02*
X3479490Y-2048510D01*
X3482490Y-2529490D02*
X3515510Y-2562510D01*
X3515510Y-2529490D02*
X3482490Y-2562510D01*
X3487490Y-1924490D02*
X3520510Y-1957510D01*
X3520510Y-1924490D02*
X3487490Y-1957510D01*
X3497180Y-4115490D02*
X3530200Y-4148510D01*
X3530200Y-4115490D02*
X3497180Y-4148510D01*
X3519490Y-3188490D02*
X3552510Y-3221510D01*
X3552510Y-3188490D02*
X3519490Y-3221510D01*
X3569490Y-2808490D02*
X3602510Y-2841510D01*
X3602510Y-2808490D02*
X3569490Y-2841510D01*
X3570490Y-2710490D02*
X3603510Y-2743510D01*
X3603510Y-2710490D02*
X3570490Y-2743510D01*
X3574490Y-2203490D02*
X3607510Y-2236510D01*
X3607510Y-2203490D02*
X3574490Y-2236510D01*
X3574490Y-2621490D02*
X3607510Y-2654510D01*
X3607510Y-2621490D02*
X3574490Y-2654510D01*
X3576490Y-2110490D02*
X3609510Y-2143510D01*
X3609510Y-2110490D02*
X3576490Y-2143510D01*
X3578490Y-2381490D02*
X3611510Y-2414510D01*
X3611510Y-2381490D02*
X3578490Y-2414510D01*
X3579490Y-2016490D02*
X3612510Y-2049510D01*
X3612510Y-2016490D02*
X3579490Y-2049510D01*
X3582490Y-2530490D02*
X3615510Y-2563510D01*
X3615510Y-2530490D02*
X3582490Y-2563510D01*
X3587490Y-1925490D02*
X3620510Y-1958510D01*
X3620510Y-1925490D02*
X3587490Y-1958510D01*
X3662490Y-3260090D02*
X3695510Y-3293110D01*
X3695510Y-3260090D02*
X3662490Y-3293110D01*
X3662490Y-3353490D02*
X3695510Y-3386510D01*
X3695510Y-3353490D02*
X3662490Y-3386510D01*
X3680490Y-2810490D02*
X3713510Y-2843510D01*
X3713510Y-2810490D02*
X3680490Y-2843510D01*
X3681490Y-2712490D02*
X3714510Y-2745510D01*
X3714510Y-2712490D02*
X3681490Y-2745510D01*
X3685490Y-2205490D02*
X3718510Y-2238510D01*
X3718510Y-2205490D02*
X3685490Y-2238510D01*
X3685490Y-2623490D02*
X3718510Y-2656510D01*
X3718510Y-2623490D02*
X3685490Y-2656510D01*
X3687490Y-2112490D02*
X3720510Y-2145510D01*
X3720510Y-2112490D02*
X3687490Y-2145510D01*
X3690490Y-2018490D02*
X3723510Y-2051510D01*
X3723510Y-2018490D02*
X3690490Y-2051510D01*
X3693490Y-2532490D02*
X3726510Y-2565510D01*
X3726510Y-2532490D02*
X3693490Y-2565510D01*
X3698490Y-1927490D02*
X3731510Y-1960510D01*
X3731510Y-1927490D02*
X3698490Y-1960510D01*
X3704490Y-3753490D02*
X3737510Y-3786510D01*
X3737510Y-3753490D02*
X3704490Y-3786510D01*
X3709490Y-3479490D02*
X3742510Y-3512510D01*
X3742510Y-3479490D02*
X3709490Y-3512510D01*
X3715490Y-1604490D02*
X3748510Y-1637510D01*
X3748510Y-1604490D02*
X3715490Y-1637510D01*
X3719490Y-2382490D02*
X3752510Y-2415510D01*
X3752510Y-2382490D02*
X3719490Y-2415510D01*
X3724490Y-1514490D02*
X3757510Y-1547510D01*
X3757510Y-1514490D02*
X3724490Y-1547510D01*
X3736490Y-1242490D02*
X3769510Y-1275510D01*
X3769510Y-1242490D02*
X3736490Y-1275510D01*
X3737490Y-1388490D02*
X3770510Y-1421510D01*
X3770510Y-1388490D02*
X3737490Y-1421510D01*
X3743490Y-1081490D02*
X3776510Y-1114510D01*
X3776510Y-1081490D02*
X3743490Y-1114510D01*
X3749490Y-947490D02*
X3782510Y-980510D01*
X3782510Y-947490D02*
X3749490Y-980510D01*
X3778490Y-2808490D02*
X3811510Y-2841510D01*
X3811510Y-2808490D02*
X3778490Y-2841510D01*
X3779490Y-2710490D02*
X3812510Y-2743510D01*
X3812510Y-2710490D02*
X3779490Y-2743510D01*
X3783490Y-2203490D02*
X3816510Y-2236510D01*
X3816510Y-2203490D02*
X3783490Y-2236510D01*
X3783490Y-2621490D02*
X3816510Y-2654510D01*
X3816510Y-2621490D02*
X3783490Y-2654510D01*
X3785490Y-2110490D02*
X3818510Y-2143510D01*
X3818510Y-2110490D02*
X3785490Y-2143510D01*
X3788490Y-2016490D02*
X3821510Y-2049510D01*
X3821510Y-2016490D02*
X3788490Y-2049510D01*
X3789490Y-3190490D02*
X3822510Y-3223510D01*
X3822510Y-3190490D02*
X3789490Y-3223510D01*
X3791490Y-2530490D02*
X3824510Y-2563510D01*
X3824510Y-2530490D02*
X3791490Y-2563510D01*
X3796490Y-1925490D02*
X3829510Y-1958510D01*
X3829510Y-1925490D02*
X3796490Y-1958510D01*
X3803490Y-3446490D02*
X3836510Y-3479510D01*
X3836510Y-3446490D02*
X3803490Y-3479510D01*
X3827490Y-1604490D02*
X3860510Y-1637510D01*
X3860510Y-1604490D02*
X3827490Y-1637510D01*
X3840490Y-2372490D02*
X3873510Y-2405510D01*
X3873510Y-2372490D02*
X3840490Y-2405510D01*
X3885990Y-3725490D02*
X3919010Y-3758510D01*
X3919010Y-3725490D02*
X3885990Y-3758510D01*
X3895490Y-1068490D02*
X3928510Y-1101510D01*
X3928510Y-1068490D02*
X3895490Y-1101510D01*
X3906490Y-913490D02*
X3939510Y-946510D01*
X3939510Y-913490D02*
X3906490Y-946510D01*
X3907990Y-3412490D02*
X3941010Y-3445510D01*
X3941010Y-3412490D02*
X3907990Y-3445510D01*
X3911490Y-4896490D02*
X3944510Y-4929510D01*
X3944510Y-4896490D02*
X3911490Y-4929510D01*
X3919490Y-5123490D02*
X3952510Y-5156510D01*
X3952510Y-5123490D02*
X3919490Y-5156510D01*
X3920490Y-4022490D02*
X3953510Y-4055510D01*
X3953510Y-4022490D02*
X3920490Y-4055510D01*
X3920490Y-4301490D02*
X3953510Y-4334510D01*
X3953510Y-4301490D02*
X3920490Y-4334510D01*
X3922490Y-2888490D02*
X3955510Y-2921510D01*
X3955510Y-2888490D02*
X3922490Y-2921510D01*
X3922490Y-4181490D02*
X3955510Y-4214510D01*
X3955510Y-4181490D02*
X3922490Y-4214510D01*
X3925490Y-5311490D02*
X3958510Y-5344510D01*
X3958510Y-5311490D02*
X3925490Y-5344510D01*
X3927490Y-3896490D02*
X3960510Y-3929510D01*
X3960510Y-3896490D02*
X3927490Y-3929510D01*
X3928490Y-2547490D02*
X3961510Y-2580510D01*
X3961510Y-2547490D02*
X3928490Y-2580510D01*
X3936490Y-2101490D02*
X3969510Y-2134510D01*
X3969510Y-2101490D02*
X3936490Y-2134510D01*
X3939490Y-1773490D02*
X3972510Y-1806510D01*
X3972510Y-1773490D02*
X3939490Y-1806510D01*
X3971290Y-3133090D02*
X4004310Y-3166110D01*
X4004310Y-3133090D02*
X3971290Y-3166110D01*
X3991490Y-2986490D02*
X4024510Y-3019510D01*
X4024510Y-2986490D02*
X3991490Y-3019510D01*
X3997490Y-2645490D02*
X4030510Y-2678510D01*
X4030510Y-2645490D02*
X3997490Y-2678510D01*
X3998490Y-2328490D02*
X4031510Y-2361510D01*
X4031510Y-2328490D02*
X3998490Y-2361510D01*
X4000490Y-2793490D02*
X4033510Y-2826510D01*
X4033510Y-2793490D02*
X4000490Y-2826510D01*
X4005490Y-2199490D02*
X4038510Y-2232510D01*
X4038510Y-2199490D02*
X4005490Y-2232510D01*
X4006490Y-2452490D02*
X4039510Y-2485510D01*
X4039510Y-2452490D02*
X4006490Y-2485510D01*
X4007990Y-3389490D02*
X4041010Y-3422510D01*
X4041010Y-3389490D02*
X4007990Y-3422510D01*
X4008490Y-1871490D02*
X4041510Y-1904510D01*
X4041510Y-1871490D02*
X4008490Y-1904510D01*
X4014490Y-2006490D02*
X4047510Y-2039510D01*
X4047510Y-2006490D02*
X4014490Y-2039510D01*
X4017490Y-1678490D02*
X4050510Y-1711510D01*
X4050510Y-1678490D02*
X4017490Y-1711510D01*
X4036490Y-5160490D02*
X4069510Y-5193510D01*
X4069510Y-5160490D02*
X4036490Y-5193510D01*
X4044490Y-4126490D02*
X4077510Y-4159510D01*
X4077510Y-4126490D02*
X4044490Y-4159510D01*
X4044490Y-5281490D02*
X4077510Y-5314510D01*
X4077510Y-5281490D02*
X4044490Y-5314510D01*
X4046490Y-4285490D02*
X4079510Y-4318510D01*
X4079510Y-4285490D02*
X4046490Y-4318510D01*
X4055490Y-3970490D02*
X4088510Y-4003510D01*
X4088510Y-3970490D02*
X4055490Y-4003510D01*
X4056490Y-1075490D02*
X4089510Y-1108510D01*
X4089510Y-1075490D02*
X4056490Y-1108510D01*
X4067490Y-920490D02*
X4100510Y-953510D01*
X4100510Y-920490D02*
X4067490Y-953510D01*
X4071490Y-3798490D02*
X4104510Y-3831510D01*
X4104510Y-3798490D02*
X4071490Y-3831510D01*
X4079490Y-4905490D02*
X4112510Y-4938510D01*
X4112510Y-4905490D02*
X4079490Y-4938510D01*
X4126490Y-3401500D02*
X4159510Y-3434520D01*
X4159510Y-3401500D02*
X4126490Y-3434520D01*
X4133490Y-2988490D02*
X4166510Y-3021510D01*
X4166510Y-2988490D02*
X4133490Y-3021510D01*
X4135490Y-2793490D02*
X4168510Y-2826510D01*
X4168510Y-2793490D02*
X4135490Y-2826510D01*
X4135490Y-3214490D02*
X4168510Y-3247510D01*
X4168510Y-3214490D02*
X4135490Y-3247510D01*
X4138490Y-2324490D02*
X4171510Y-2357510D01*
X4171510Y-2324490D02*
X4138490Y-2357510D01*
X4139490Y-2647490D02*
X4172510Y-2680510D01*
X4172510Y-2647490D02*
X4139490Y-2680510D01*
X4141490Y-2452490D02*
X4174510Y-2485510D01*
X4174510Y-2452490D02*
X4141490Y-2485510D01*
X4147490Y-2201490D02*
X4180510Y-2234510D01*
X4180510Y-2201490D02*
X4147490Y-2234510D01*
X4149490Y-2006490D02*
X4182510Y-2039510D01*
X4182510Y-2006490D02*
X4149490Y-2039510D01*
X4150490Y-1873490D02*
X4183510Y-1906510D01*
X4183510Y-1873490D02*
X4150490Y-1906510D01*
X4152490Y-1678490D02*
X4185510Y-1711510D01*
X4185510Y-1678490D02*
X4152490Y-1711510D01*
X4201490Y-5257490D02*
X4234510Y-5290510D01*
X4234510Y-5257490D02*
X4201490Y-5290510D01*
X4205490Y-4096490D02*
X4238510Y-4129510D01*
X4238510Y-4096490D02*
X4205490Y-4129510D01*
X4205490Y-5113490D02*
X4238510Y-5146510D01*
X4238510Y-5113490D02*
X4205490Y-5146510D01*
X4206490Y-2895490D02*
X4239510Y-2928510D01*
X4239510Y-2895490D02*
X4206490Y-2928510D01*
X4212490Y-2554490D02*
X4245510Y-2587510D01*
X4245510Y-2554490D02*
X4212490Y-2587510D01*
X4217490Y-1075490D02*
X4250510Y-1108510D01*
X4250510Y-1075490D02*
X4217490Y-1108510D01*
X4220490Y-2108490D02*
X4253510Y-2141510D01*
X4253510Y-2108490D02*
X4220490Y-2141510D01*
X4223490Y-1780490D02*
X4256510Y-1813510D01*
X4256510Y-1780490D02*
X4223490Y-1813510D01*
X4224490Y-914490D02*
X4257510Y-947510D01*
X4257510Y-914490D02*
X4224490Y-947510D01*
X4262090Y-4352214D02*
X4295110Y-4385234D01*
X4295110Y-4352214D02*
X4262090Y-4385234D01*
X4267490Y-1606490D02*
X4300510Y-1639510D01*
X4300510Y-1606490D02*
X4267490Y-1639510D01*
X4286490Y-2375490D02*
X4319510Y-2408510D01*
X4319510Y-2375490D02*
X4286490Y-2408510D01*
X4298182Y-4205895D02*
X4331202Y-4238915D01*
X4331202Y-4205895D02*
X4298182Y-4238915D01*
X4335490Y-2206490D02*
X4368510Y-2239510D01*
X4368510Y-2206490D02*
X4335490Y-2239510D01*
X4335490Y-4851490D02*
X4368510Y-4884510D01*
X4368510Y-4851490D02*
X4335490Y-4884510D01*
X4337490Y-2725490D02*
X4370510Y-2758510D01*
X4370510Y-2725490D02*
X4337490Y-2758510D01*
X4339490Y-2817490D02*
X4372510Y-2850510D01*
X4372510Y-2817490D02*
X4339490Y-2850510D01*
X4340490Y-2019490D02*
X4373510Y-2052510D01*
X4373510Y-2019490D02*
X4340490Y-2052510D01*
X4340490Y-2115490D02*
X4373510Y-2148510D01*
X4373510Y-2115490D02*
X4340490Y-2148510D01*
X4344490Y-2630490D02*
X4377510Y-2663510D01*
X4377510Y-2630490D02*
X4344490Y-2663510D01*
X4348490Y-1928490D02*
X4381510Y-1961510D01*
X4381510Y-1928490D02*
X4348490Y-1961510D01*
X4352490Y-2539490D02*
X4385510Y-2572510D01*
X4385510Y-2539490D02*
X4352490Y-2572510D01*
X4359490Y-1399490D02*
X4392510Y-1432510D01*
X4392510Y-1399490D02*
X4359490Y-1432510D01*
X4366490Y-1260490D02*
X4399510Y-1293510D01*
X4399510Y-1260490D02*
X4366490Y-1293510D01*
X4373490Y-1099490D02*
X4406510Y-1132510D01*
X4406510Y-1099490D02*
X4373490Y-1132510D01*
X4374197Y-886322D02*
X4407217Y-919342D01*
X4407217Y-886322D02*
X4374197Y-919342D01*
X4405490Y-4605490D02*
X4438510Y-4638510D01*
X4438510Y-4605490D02*
X4405490Y-4638510D01*
X4407240Y-5534490D02*
X4440260Y-5567510D01*
X4440260Y-5534490D02*
X4407240Y-5567510D01*
X4407240Y-5616490D02*
X4440260Y-5649510D01*
X4440260Y-5616490D02*
X4407240Y-5649510D01*
X4407490Y-1605490D02*
X4440510Y-1638510D01*
X4440510Y-1605490D02*
X4407490Y-1638510D01*
X4407490Y-4764490D02*
X4440510Y-4797510D01*
X4440510Y-4764490D02*
X4407490Y-4797510D01*
X4409490Y-4430490D02*
X4442510Y-4463510D01*
X4442510Y-4430490D02*
X4409490Y-4463510D01*
X4410240Y-5456490D02*
X4443260Y-5489510D01*
X4443260Y-5456490D02*
X4410240Y-5489510D01*
X4411240Y-5695490D02*
X4444260Y-5728510D01*
X4444260Y-5695490D02*
X4411240Y-5728510D01*
X4411490Y-4127490D02*
X4444510Y-4160510D01*
X4444510Y-4127490D02*
X4411490Y-4160510D01*
X4412490Y-1513490D02*
X4445510Y-1546510D01*
X4445510Y-1513490D02*
X4412490Y-1546510D01*
X4413490Y-4286490D02*
X4446510Y-4319510D01*
X4446510Y-4286490D02*
X4413490Y-4319510D01*
X4414197Y-797322D02*
X4447217Y-830342D01*
X4447217Y-797322D02*
X4414197Y-830342D01*
X4424490Y-2371490D02*
X4457510Y-2404510D01*
X4457510Y-2371490D02*
X4424490Y-2404510D01*
X4428197Y-360322D02*
X4461217Y-393342D01*
X4461217Y-360322D02*
X4428197Y-393342D01*
X4435490Y-2207490D02*
X4468510Y-2240510D01*
X4468510Y-2207490D02*
X4435490Y-2240510D01*
X4437490Y-2726490D02*
X4470510Y-2759510D01*
X4470510Y-2726490D02*
X4437490Y-2759510D01*
X4439490Y-2818490D02*
X4472510Y-2851510D01*
X4472510Y-2818490D02*
X4439490Y-2851510D01*
X4440490Y-2020490D02*
X4473510Y-2053510D01*
X4473510Y-2020490D02*
X4440490Y-2053510D01*
X4440490Y-2116490D02*
X4473510Y-2149510D01*
X4473510Y-2116490D02*
X4440490Y-2149510D01*
X4444490Y-2631490D02*
X4477510Y-2664510D01*
X4477510Y-2631490D02*
X4444490Y-2664510D01*
X4448490Y-1929490D02*
X4481510Y-1962510D01*
X4481510Y-1929490D02*
X4448490Y-1962510D01*
X4452490Y-2540490D02*
X4485510Y-2573510D01*
X4485510Y-2540490D02*
X4452490Y-2573510D01*
X4455197Y-885322D02*
X4488217Y-918342D01*
X4488217Y-885322D02*
X4455197Y-918342D01*
X4468197Y-271322D02*
X4501217Y-304342D01*
X4501217Y-271322D02*
X4468197Y-304342D01*
X4493197Y-793322D02*
X4526217Y-826342D01*
X4526217Y-793322D02*
X4493197Y-826342D01*
X4509197Y-359322D02*
X4542217Y-392342D01*
X4542217Y-359322D02*
X4509197Y-392342D01*
X4517240Y-5572490D02*
X4550260Y-5605510D01*
X4550260Y-5572490D02*
X4517240Y-5605510D01*
X4517240Y-5654490D02*
X4550260Y-5687510D01*
X4550260Y-5654490D02*
X4517240Y-5687510D01*
X4518240Y-5735490D02*
X4551260Y-5768510D01*
X4551260Y-5735490D02*
X4518240Y-5768510D01*
X4520240Y-5494490D02*
X4553260Y-5527510D01*
X4553260Y-5494490D02*
X4520240Y-5527510D01*
X4523240Y-5412490D02*
X4556260Y-5445510D01*
X4556260Y-5412490D02*
X4523240Y-5445510D01*
X4537197Y-885322D02*
X4570217Y-918342D01*
X4570217Y-885322D02*
X4537197Y-918342D01*
X4541490Y-1606490D02*
X4574510Y-1639510D01*
X4574510Y-1606490D02*
X4541490Y-1639510D01*
X4542490Y-4676490D02*
X4575510Y-4709510D01*
X4575510Y-4676490D02*
X4542490Y-4709510D01*
X4546490Y-2209490D02*
X4579510Y-2242510D01*
X4579510Y-2209490D02*
X4546490Y-2242510D01*
X4546490Y-4501490D02*
X4579510Y-4534510D01*
X4579510Y-4501490D02*
X4546490Y-4534510D01*
X4547197Y-267322D02*
X4580217Y-300342D01*
X4580217Y-267322D02*
X4547197Y-300342D01*
X4548490Y-2728490D02*
X4581510Y-2761510D01*
X4581510Y-2728490D02*
X4548490Y-2761510D01*
X4548490Y-4198490D02*
X4581510Y-4231510D01*
X4581510Y-4198490D02*
X4548490Y-4231510D01*
X4550490Y-2820490D02*
X4583510Y-2853510D01*
X4583510Y-2820490D02*
X4550490Y-2853510D01*
X4550490Y-4357490D02*
X4583510Y-4390510D01*
X4583510Y-4357490D02*
X4550490Y-4390510D01*
X4551490Y-2022490D02*
X4584510Y-2055510D01*
X4584510Y-2022490D02*
X4551490Y-2055510D01*
X4551490Y-2118490D02*
X4584510Y-2151510D01*
X4584510Y-2118490D02*
X4551490Y-2151510D01*
X4555490Y-2633490D02*
X4588510Y-2666510D01*
X4588510Y-2633490D02*
X4555490Y-2666510D01*
X4559490Y-1931490D02*
X4592510Y-1964510D01*
X4592510Y-1931490D02*
X4559490Y-1964510D01*
X4563490Y-2542490D02*
X4596510Y-2575510D01*
X4596510Y-2542490D02*
X4563490Y-2575510D01*
X4566490Y-2371490D02*
X4599510Y-2404510D01*
X4599510Y-2371490D02*
X4566490Y-2404510D01*
X4575197Y-793322D02*
X4608217Y-826342D01*
X4608217Y-793322D02*
X4575197Y-826342D01*
X4591197Y-359322D02*
X4624217Y-392342D01*
X4624217Y-359322D02*
X4591197Y-392342D01*
X4615197Y-888322D02*
X4648217Y-921342D01*
X4648217Y-888322D02*
X4615197Y-921342D01*
X4629197Y-267322D02*
X4662217Y-300342D01*
X4662217Y-267322D02*
X4629197Y-300342D01*
X4644490Y-2207490D02*
X4677510Y-2240510D01*
X4677510Y-2207490D02*
X4644490Y-2240510D01*
X4646490Y-2726490D02*
X4679510Y-2759510D01*
X4679510Y-2726490D02*
X4646490Y-2759510D01*
X4648490Y-2818490D02*
X4681510Y-2851510D01*
X4681510Y-2818490D02*
X4648490Y-2851510D01*
X4649490Y-2020490D02*
X4682510Y-2053510D01*
X4682510Y-2020490D02*
X4649490Y-2053510D01*
X4649490Y-2116490D02*
X4682510Y-2149510D01*
X4682510Y-2116490D02*
X4649490Y-2149510D01*
X4653197Y-796322D02*
X4686217Y-829342D01*
X4686217Y-796322D02*
X4653197Y-829342D01*
X4653490Y-2631490D02*
X4686510Y-2664510D01*
X4686510Y-2631490D02*
X4653490Y-2664510D01*
X4657490Y-1929490D02*
X4690510Y-1962510D01*
X4690510Y-1929490D02*
X4657490Y-1962510D01*
X4661490Y-2540490D02*
X4694510Y-2573510D01*
X4694510Y-2540490D02*
X4661490Y-2573510D01*
X4669197Y-362322D02*
X4702217Y-395342D01*
X4702217Y-362322D02*
X4669197Y-395342D01*
X4679490Y-4585490D02*
X4712510Y-4618510D01*
X4712510Y-4585490D02*
X4679490Y-4618510D01*
X4681490Y-4744490D02*
X4714510Y-4777510D01*
X4714510Y-4744490D02*
X4681490Y-4777510D01*
X4683490Y-4410490D02*
X4716510Y-4443510D01*
X4716510Y-4410490D02*
X4683490Y-4443510D01*
X4687490Y-4266490D02*
X4720510Y-4299510D01*
X4720510Y-4266490D02*
X4687490Y-4299510D01*
X4696197Y-887322D02*
X4729217Y-920342D01*
X4729217Y-887322D02*
X4696197Y-920342D01*
X4701490Y-2370490D02*
X4734510Y-2403510D01*
X4734510Y-2370490D02*
X4701490Y-2403510D01*
X4706240Y-5318490D02*
X4739260Y-5351510D01*
X4739260Y-5318490D02*
X4706240Y-5351510D01*
X4707197Y-270322D02*
X4740217Y-303342D01*
X4740217Y-270322D02*
X4707197Y-303342D01*
X4734197Y-795322D02*
X4767217Y-828342D01*
X4767217Y-795322D02*
X4734197Y-828342D01*
X4746240Y-5211490D02*
X4779260Y-5244510D01*
X4779260Y-5211490D02*
X4746240Y-5244510D01*
X4750197Y-361322D02*
X4783217Y-394342D01*
X4783217Y-361322D02*
X4750197Y-394342D01*
X4778197Y-887322D02*
X4811217Y-920342D01*
X4811217Y-887322D02*
X4778197Y-920342D01*
X4787240Y-5317490D02*
X4820260Y-5350510D01*
X4820260Y-5317490D02*
X4787240Y-5350510D01*
X4788197Y-269322D02*
X4821217Y-302342D01*
X4821217Y-269322D02*
X4788197Y-302342D01*
X4816197Y-795322D02*
X4849217Y-828342D01*
X4849217Y-795322D02*
X4816197Y-828342D01*
X4816490Y-4656490D02*
X4849510Y-4689510D01*
X4849510Y-4656490D02*
X4816490Y-4689510D01*
X4820490Y-4481490D02*
X4853510Y-4514510D01*
X4853510Y-4481490D02*
X4820490Y-4514510D01*
X4823490Y-2168490D02*
X4856510Y-2201510D01*
X4856510Y-2168490D02*
X4823490Y-2201510D01*
X4824490Y-4337490D02*
X4857510Y-4370510D01*
X4857510Y-4337490D02*
X4824490Y-4370510D01*
X4825240Y-5207490D02*
X4858260Y-5240510D01*
X4858260Y-5207490D02*
X4825240Y-5240510D01*
X4827490Y-2045490D02*
X4860510Y-2078510D01*
X4860510Y-2045490D02*
X4827490Y-2078510D01*
X4827490Y-2310490D02*
X4860510Y-2343510D01*
X4860510Y-2310490D02*
X4827490Y-2343510D01*
X4832197Y-361322D02*
X4865217Y-394342D01*
X4865217Y-361322D02*
X4832197Y-394342D01*
X4840490Y-3005490D02*
X4873510Y-3038510D01*
X4873510Y-3005490D02*
X4840490Y-3038510D01*
X4841490Y-1898490D02*
X4874510Y-1931510D01*
X4874510Y-1898490D02*
X4841490Y-1931510D01*
X4842490Y-2746490D02*
X4875510Y-2779510D01*
X4875510Y-2746490D02*
X4842490Y-2779510D01*
X4845490Y-2873490D02*
X4878510Y-2906510D01*
X4878510Y-2873490D02*
X4845490Y-2906510D01*
X4846490Y-2469490D02*
X4879510Y-2502510D01*
X4879510Y-2469490D02*
X4846490Y-2502510D01*
X4847490Y-2603490D02*
X4880510Y-2636510D01*
X4880510Y-2603490D02*
X4847490Y-2636510D01*
X4869240Y-5317490D02*
X4902260Y-5350510D01*
X4902260Y-5317490D02*
X4869240Y-5350510D01*
X4907240Y-5207490D02*
X4940260Y-5240510D01*
X4940260Y-5207490D02*
X4907240Y-5240510D01*
X4947240Y-5320490D02*
X4980260Y-5353510D01*
X4980260Y-5320490D02*
X4947240Y-5353510D01*
X4950490Y-4587490D02*
X4983510Y-4620510D01*
X4983510Y-4587490D02*
X4950490Y-4620510D01*
X4952490Y-4746490D02*
X4985510Y-4779510D01*
X4985510Y-4746490D02*
X4952490Y-4779510D01*
X4954490Y-4412490D02*
X4987510Y-4445510D01*
X4987510Y-4412490D02*
X4954490Y-4445510D01*
X4958490Y-4268490D02*
X4991510Y-4301510D01*
X4991510Y-4268490D02*
X4958490Y-4301510D01*
X4985240Y-5210490D02*
X5018260Y-5243510D01*
X5018260Y-5210490D02*
X4985240Y-5243510D01*
X5029240Y-5323490D02*
X5062260Y-5356510D01*
X5062260Y-5323490D02*
X5029240Y-5356510D01*
X5037500Y-2987480D02*
X5070520Y-3020500D01*
X5070520Y-2987480D02*
X5037500Y-3020500D01*
X5087490Y-4658490D02*
X5120510Y-4691510D01*
X5120510Y-4658490D02*
X5087490Y-4691510D01*
X5091490Y-4483490D02*
X5124510Y-4516510D01*
X5124510Y-4483490D02*
X5091490Y-4516510D01*
X5095490Y-4339490D02*
X5128510Y-4372510D01*
X5128510Y-4339490D02*
X5095490Y-4372510D01*
X5190490Y-3413490D02*
X5223510Y-3446510D01*
X5223510Y-3413490D02*
X5190490Y-3446510D01*
X5317490Y-2812490D02*
X5350510Y-2845510D01*
X5350510Y-2812490D02*
X5317490Y-2845510D01*
X5320490Y-3829490D02*
X5353510Y-3862510D01*
X5353510Y-3829490D02*
X5320490Y-3862510D01*
X5340490Y-2143490D02*
X5373510Y-2176510D01*
X5373510Y-2143490D02*
X5340490Y-2176510D01*
X5425490Y-2357490D02*
X5458510Y-2390510D01*
X5458510Y-2357490D02*
X5425490Y-2390510D01*
X5426490Y-2525490D02*
X5459510Y-2558510D01*
X5459510Y-2525490D02*
X5426490Y-2558510D01*
X5430490Y-2438490D02*
X5463510Y-2471510D01*
X5463510Y-2438490D02*
X5430490Y-2471510D01*
X5534787Y-2799071D02*
X5567807Y-2832091D01*
X5567807Y-2799071D02*
X5534787Y-2832091D01*
X5626490Y-2102490D02*
X5659510Y-2135510D01*
X5659510Y-2102490D02*
X5626490Y-2135510D01*
X5630490Y-1933490D02*
X5663510Y-1966510D01*
X5663510Y-1933490D02*
X5630490Y-1966510D01*
X5633490Y-1624490D02*
X5666510Y-1657510D01*
X5666510Y-1624490D02*
X5633490Y-1657510D01*
X5633490Y-1772490D02*
X5666510Y-1805510D01*
X5666510Y-1772490D02*
X5633490Y-1805510D01*
X4606000Y-3361000D02*
G75*
G02*
X4556000Y-3361000I-25000J0D01*
G01*
X4556000Y-3361000D02*
G75*
G02*
X4606000Y-3361000I25000J0D01*
G01*
X4606000Y-4016000D02*
G75*
G02*
X4556000Y-4016000I-25000J0D01*
G01*
X4556000Y-4016000D02*
G75*
G02*
X4606000Y-4016000I25000J0D01*
G01*
D13*
X3117000Y-516750D02*
X3117000Y-641750D01*
X3054500Y-579250D02*
X3179500Y-579250D01*
D12*
X3254500Y-516750D02*
X2979500Y-516750D01*
X2979500Y-641750D02*
G75*
G02*
X2979500Y-516750I0J62500D01*
G01*
X2979500Y-641750D02*
X3254500Y-641750D01*
X3254500Y-641750D02*
G75*
G03*
X3254500Y-516750I0J62500D01*
G01*
D13*
X3680750Y-455500D02*
X3680750Y-580500D01*
X3618250Y-518000D02*
X3743250Y-518000D01*
D12*
X3743250Y-655500D02*
X3743250Y-380500D01*
X3618250Y-380500D02*
G75*
G02*
X3743250Y-380500I62500J0D01*
G01*
X3618250Y-380500D02*
X3618250Y-655500D01*
X3618250Y-655500D02*
G75*
G03*
X3743250Y-655500I62500J0D01*
G01*
D13*
X4635000Y-520750D02*
X4635000Y-645750D01*
X4572500Y-583250D02*
X4697500Y-583250D01*
D12*
X4772500Y-520750D02*
X4497500Y-520750D01*
X4497500Y-645750D02*
G75*
G02*
X4497500Y-520750I0J62500D01*
G01*
X4497500Y-645750D02*
X4772500Y-645750D01*
X4772500Y-645750D02*
G75*
G03*
X4772500Y-520750I0J62500D01*
G01*
D13*
X4887000Y-5517750D02*
X4887000Y-5642750D01*
X4824500Y-5580250D02*
X4949500Y-5580250D01*
D12*
X5024500Y-5517750D02*
X4749500Y-5517750D01*
X4749500Y-5642750D02*
G75*
G02*
X4749500Y-5517750I0J62500D01*
G01*
X4749500Y-5642750D02*
X5024500Y-5642750D01*
X5024500Y-5642750D02*
G75*
G03*
X5024500Y-5517750I0J62500D01*
G01*
D13*
X5198750Y-459500D02*
X5198750Y-584500D01*
X5136250Y-522000D02*
X5261250Y-522000D01*
D12*
X5261250Y-659500D02*
X5261250Y-384500D01*
X5136250Y-384500D02*
G75*
G02*
X5261250Y-384500I62500J0D01*
G01*
X5136250Y-384500D02*
X5136250Y-659500D01*
X5136250Y-659500D02*
G75*
G03*
X5261250Y-659500I62500J0D01*
G01*
D13*
X5450750Y-5456500D02*
X5450750Y-5581500D01*
X5388250Y-5519000D02*
X5513250Y-5519000D01*
D12*
X5513250Y-5656500D02*
X5513250Y-5381500D01*
X5388250Y-5381500D02*
G75*
G02*
X5513250Y-5381500I62500J0D01*
G01*
X5388250Y-5381500D02*
X5388250Y-5656500D01*
X5388250Y-5656500D02*
G75*
G03*
X5513250Y-5656500I62500J0D01*
G01*
D11*
X2163872Y-6333189D02*
X2163872Y-6133189D01*
X2163872Y-6133189D02*
X2211491Y-6133189D01*
X2211491Y-6133189D02*
X2240062Y-6142713D01*
X2240062Y-6142713D02*
X2259110Y-6161760D01*
X2259110Y-6161760D02*
X2268634Y-6180808D01*
X2268634Y-6180808D02*
X2278158Y-6218903D01*
X2278158Y-6218903D02*
X2278158Y-6247474D01*
X2278158Y-6247474D02*
X2268634Y-6285570D01*
X2268634Y-6285570D02*
X2259110Y-6304617D01*
X2259110Y-6304617D02*
X2240062Y-6323665D01*
X2240062Y-6323665D02*
X2211491Y-6333189D01*
X2211491Y-6333189D02*
X2163872Y-6333189D01*
X2363872Y-6333189D02*
X2363872Y-6199855D01*
X2363872Y-6237951D02*
X2373396Y-6218903D01*
X2373396Y-6218903D02*
X2382919Y-6209379D01*
X2382919Y-6209379D02*
X2401967Y-6199855D01*
X2401967Y-6199855D02*
X2421015Y-6199855D01*
X2487681Y-6333189D02*
X2487681Y-6199855D01*
X2487681Y-6133189D02*
X2478158Y-6142713D01*
X2478158Y-6142713D02*
X2487681Y-6152236D01*
X2487681Y-6152236D02*
X2497205Y-6142713D01*
X2497205Y-6142713D02*
X2487681Y-6133189D01*
X2487681Y-6133189D02*
X2487681Y-6152236D01*
X2611491Y-6333189D02*
X2592443Y-6323665D01*
X2592443Y-6323665D02*
X2582919Y-6304617D01*
X2582919Y-6304617D02*
X2582919Y-6133189D01*
X2716253Y-6333189D02*
X2697205Y-6323665D01*
X2697205Y-6323665D02*
X2687681Y-6304617D01*
X2687681Y-6304617D02*
X2687681Y-6133189D01*
X2944824Y-6333189D02*
X2944824Y-6133189D01*
X2944824Y-6133189D02*
X3011491Y-6276046D01*
X3011491Y-6276046D02*
X3078157Y-6133189D01*
X3078157Y-6133189D02*
X3078157Y-6333189D01*
X3259110Y-6333189D02*
X3259110Y-6228427D01*
X3259110Y-6228427D02*
X3249586Y-6209379D01*
X3249586Y-6209379D02*
X3230538Y-6199855D01*
X3230538Y-6199855D02*
X3192443Y-6199855D01*
X3192443Y-6199855D02*
X3173396Y-6209379D01*
X3259110Y-6323665D02*
X3240062Y-6333189D01*
X3240062Y-6333189D02*
X3192443Y-6333189D01*
X3192443Y-6333189D02*
X3173396Y-6323665D01*
X3173396Y-6323665D02*
X3163872Y-6304617D01*
X3163872Y-6304617D02*
X3163872Y-6285570D01*
X3163872Y-6285570D02*
X3173396Y-6266522D01*
X3173396Y-6266522D02*
X3192443Y-6256998D01*
X3192443Y-6256998D02*
X3240062Y-6256998D01*
X3240062Y-6256998D02*
X3259110Y-6247474D01*
X3354348Y-6199855D02*
X3354348Y-6399855D01*
X3354348Y-6209379D02*
X3373396Y-6199855D01*
X3373396Y-6199855D02*
X3411491Y-6199855D01*
X3411491Y-6199855D02*
X3430538Y-6209379D01*
X3430538Y-6209379D02*
X3440062Y-6218903D01*
X3440062Y-6218903D02*
X3449586Y-6237951D01*
X3449586Y-6237951D02*
X3449586Y-6295093D01*
X3449586Y-6295093D02*
X3440062Y-6314141D01*
X3440062Y-6314141D02*
X3430538Y-6323665D01*
X3430538Y-6323665D02*
X3411491Y-6333189D01*
X3411491Y-6333189D02*
X3373396Y-6333189D01*
X3373396Y-6333189D02*
X3354348Y-6323665D01*
X3535300Y-6314141D02*
X3544824Y-6323665D01*
X3544824Y-6323665D02*
X3535300Y-6333189D01*
X3535300Y-6333189D02*
X3525777Y-6323665D01*
X3525777Y-6323665D02*
X3535300Y-6314141D01*
X3535300Y-6314141D02*
X3535300Y-6333189D01*
X3535300Y-6209379D02*
X3544824Y-6218903D01*
X3544824Y-6218903D02*
X3535300Y-6228427D01*
X3535300Y-6228427D02*
X3525777Y-6218903D01*
X3525777Y-6218903D02*
X3535300Y-6209379D01*
X3535300Y-6209379D02*
X3535300Y-6228427D01*
D12*
X1870075Y-6645195D02*
X1903095Y-6678215D01*
X1903095Y-6645195D02*
X1870075Y-6678215D01*
D11*
X2201967Y-6553189D02*
X2221015Y-6553189D01*
X2221015Y-6553189D02*
X2240062Y-6562713D01*
X2240062Y-6562713D02*
X2249586Y-6572236D01*
X2249586Y-6572236D02*
X2259110Y-6591284D01*
X2259110Y-6591284D02*
X2268634Y-6629379D01*
X2268634Y-6629379D02*
X2268634Y-6676998D01*
X2268634Y-6676998D02*
X2259110Y-6715093D01*
X2259110Y-6715093D02*
X2249586Y-6734141D01*
X2249586Y-6734141D02*
X2240062Y-6743665D01*
X2240062Y-6743665D02*
X2221015Y-6753189D01*
X2221015Y-6753189D02*
X2201967Y-6753189D01*
X2201967Y-6753189D02*
X2182919Y-6743665D01*
X2182919Y-6743665D02*
X2173396Y-6734141D01*
X2173396Y-6734141D02*
X2163872Y-6715093D01*
X2163872Y-6715093D02*
X2154348Y-6676998D01*
X2154348Y-6676998D02*
X2154348Y-6629379D01*
X2154348Y-6629379D02*
X2163872Y-6591284D01*
X2163872Y-6591284D02*
X2173396Y-6572236D01*
X2173396Y-6572236D02*
X2182919Y-6562713D01*
X2182919Y-6562713D02*
X2201967Y-6553189D01*
X2354348Y-6734141D02*
X2363872Y-6743665D01*
X2363872Y-6743665D02*
X2354348Y-6753189D01*
X2354348Y-6753189D02*
X2344824Y-6743665D01*
X2344824Y-6743665D02*
X2354348Y-6734141D01*
X2354348Y-6734141D02*
X2354348Y-6753189D01*
X2430539Y-6553189D02*
X2554348Y-6553189D01*
X2554348Y-6553189D02*
X2487681Y-6629379D01*
X2487681Y-6629379D02*
X2516253Y-6629379D01*
X2516253Y-6629379D02*
X2535300Y-6638903D01*
X2535300Y-6638903D02*
X2544824Y-6648427D01*
X2544824Y-6648427D02*
X2554348Y-6667474D01*
X2554348Y-6667474D02*
X2554348Y-6715093D01*
X2554348Y-6715093D02*
X2544824Y-6734141D01*
X2544824Y-6734141D02*
X2535300Y-6743665D01*
X2535300Y-6743665D02*
X2516253Y-6753189D01*
X2516253Y-6753189D02*
X2459110Y-6753189D01*
X2459110Y-6753189D02*
X2440062Y-6743665D01*
X2440062Y-6743665D02*
X2430539Y-6734141D01*
X2621015Y-6553189D02*
X2744824Y-6553189D01*
X2744824Y-6553189D02*
X2678158Y-6629379D01*
X2678158Y-6629379D02*
X2706729Y-6629379D01*
X2706729Y-6629379D02*
X2725777Y-6638903D01*
X2725777Y-6638903D02*
X2735300Y-6648427D01*
X2735300Y-6648427D02*
X2744824Y-6667474D01*
X2744824Y-6667474D02*
X2744824Y-6715093D01*
X2744824Y-6715093D02*
X2735300Y-6734141D01*
X2735300Y-6734141D02*
X2725777Y-6743665D01*
X2725777Y-6743665D02*
X2706729Y-6753189D01*
X2706729Y-6753189D02*
X2649586Y-6753189D01*
X2649586Y-6753189D02*
X2630539Y-6743665D01*
X2630539Y-6743665D02*
X2621015Y-6734141D01*
X2868634Y-6553189D02*
X2887681Y-6553189D01*
X2887681Y-6553189D02*
X2906729Y-6562713D01*
X2906729Y-6562713D02*
X2916253Y-6572236D01*
X2916253Y-6572236D02*
X2925777Y-6591284D01*
X2925777Y-6591284D02*
X2935300Y-6629379D01*
X2935300Y-6629379D02*
X2935300Y-6676998D01*
X2935300Y-6676998D02*
X2925777Y-6715093D01*
X2925777Y-6715093D02*
X2916253Y-6734141D01*
X2916253Y-6734141D02*
X2906729Y-6743665D01*
X2906729Y-6743665D02*
X2887681Y-6753189D01*
X2887681Y-6753189D02*
X2868634Y-6753189D01*
X2868634Y-6753189D02*
X2849586Y-6743665D01*
X2849586Y-6743665D02*
X2840062Y-6734141D01*
X2840062Y-6734141D02*
X2830538Y-6715093D01*
X2830538Y-6715093D02*
X2821015Y-6676998D01*
X2821015Y-6676998D02*
X2821015Y-6629379D01*
X2821015Y-6629379D02*
X2830538Y-6591284D01*
X2830538Y-6591284D02*
X2840062Y-6572236D01*
X2840062Y-6572236D02*
X2849586Y-6562713D01*
X2849586Y-6562713D02*
X2868634Y-6553189D01*
X3021015Y-6753189D02*
X3021015Y-6619855D01*
X3021015Y-6638903D02*
X3030538Y-6629379D01*
X3030538Y-6629379D02*
X3049586Y-6619855D01*
X3049586Y-6619855D02*
X3078158Y-6619855D01*
X3078158Y-6619855D02*
X3097205Y-6629379D01*
X3097205Y-6629379D02*
X3106729Y-6648427D01*
X3106729Y-6648427D02*
X3106729Y-6753189D01*
X3106729Y-6648427D02*
X3116253Y-6629379D01*
X3116253Y-6629379D02*
X3135300Y-6619855D01*
X3135300Y-6619855D02*
X3163872Y-6619855D01*
X3163872Y-6619855D02*
X3182919Y-6629379D01*
X3182919Y-6629379D02*
X3192443Y-6648427D01*
X3192443Y-6648427D02*
X3192443Y-6753189D01*
X3287681Y-6753189D02*
X3287681Y-6619855D01*
X3287681Y-6638903D02*
X3297205Y-6629379D01*
X3297205Y-6629379D02*
X3316253Y-6619855D01*
X3316253Y-6619855D02*
X3344824Y-6619855D01*
X3344824Y-6619855D02*
X3363872Y-6629379D01*
X3363872Y-6629379D02*
X3373396Y-6648427D01*
X3373396Y-6648427D02*
X3373396Y-6753189D01*
X3373396Y-6648427D02*
X3382919Y-6629379D01*
X3382919Y-6629379D02*
X3401967Y-6619855D01*
X3401967Y-6619855D02*
X3430538Y-6619855D01*
X3430538Y-6619855D02*
X3449586Y-6629379D01*
X3449586Y-6629379D02*
X3459110Y-6648427D01*
X3459110Y-6648427D02*
X3459110Y-6753189D01*
X3849586Y-6543665D02*
X3678158Y-6800808D01*
X4106729Y-6553189D02*
X4125777Y-6553189D01*
X4125777Y-6553189D02*
X4144824Y-6562713D01*
X4144824Y-6562713D02*
X4154348Y-6572236D01*
X4154348Y-6572236D02*
X4163872Y-6591284D01*
X4163872Y-6591284D02*
X4173396Y-6629379D01*
X4173396Y-6629379D02*
X4173396Y-6676998D01*
X4173396Y-6676998D02*
X4163872Y-6715093D01*
X4163872Y-6715093D02*
X4154348Y-6734141D01*
X4154348Y-6734141D02*
X4144824Y-6743665D01*
X4144824Y-6743665D02*
X4125777Y-6753189D01*
X4125777Y-6753189D02*
X4106729Y-6753189D01*
X4106729Y-6753189D02*
X4087681Y-6743665D01*
X4087681Y-6743665D02*
X4078158Y-6734141D01*
X4078158Y-6734141D02*
X4068634Y-6715093D01*
X4068634Y-6715093D02*
X4059110Y-6676998D01*
X4059110Y-6676998D02*
X4059110Y-6629379D01*
X4059110Y-6629379D02*
X4068634Y-6591284D01*
X4068634Y-6591284D02*
X4078158Y-6572236D01*
X4078158Y-6572236D02*
X4087681Y-6562713D01*
X4087681Y-6562713D02*
X4106729Y-6553189D01*
X4259110Y-6734141D02*
X4268634Y-6743665D01*
X4268634Y-6743665D02*
X4259110Y-6753189D01*
X4259110Y-6753189D02*
X4249586Y-6743665D01*
X4249586Y-6743665D02*
X4259110Y-6734141D01*
X4259110Y-6734141D02*
X4259110Y-6753189D01*
X4392443Y-6553189D02*
X4411491Y-6553189D01*
X4411491Y-6553189D02*
X4430539Y-6562713D01*
X4430539Y-6562713D02*
X4440063Y-6572236D01*
X4440063Y-6572236D02*
X4449586Y-6591284D01*
X4449586Y-6591284D02*
X4459110Y-6629379D01*
X4459110Y-6629379D02*
X4459110Y-6676998D01*
X4459110Y-6676998D02*
X4449586Y-6715093D01*
X4449586Y-6715093D02*
X4440063Y-6734141D01*
X4440063Y-6734141D02*
X4430539Y-6743665D01*
X4430539Y-6743665D02*
X4411491Y-6753189D01*
X4411491Y-6753189D02*
X4392443Y-6753189D01*
X4392443Y-6753189D02*
X4373396Y-6743665D01*
X4373396Y-6743665D02*
X4363872Y-6734141D01*
X4363872Y-6734141D02*
X4354348Y-6715093D01*
X4354348Y-6715093D02*
X4344824Y-6676998D01*
X4344824Y-6676998D02*
X4344824Y-6629379D01*
X4344824Y-6629379D02*
X4354348Y-6591284D01*
X4354348Y-6591284D02*
X4363872Y-6572236D01*
X4363872Y-6572236D02*
X4373396Y-6562713D01*
X4373396Y-6562713D02*
X4392443Y-6553189D01*
X4649586Y-6753189D02*
X4535301Y-6753189D01*
X4592443Y-6753189D02*
X4592443Y-6553189D01*
X4592443Y-6553189D02*
X4573396Y-6581760D01*
X4573396Y-6581760D02*
X4554348Y-6600808D01*
X4554348Y-6600808D02*
X4535301Y-6610332D01*
X4716253Y-6553189D02*
X4840063Y-6553189D01*
X4840063Y-6553189D02*
X4773396Y-6629379D01*
X4773396Y-6629379D02*
X4801967Y-6629379D01*
X4801967Y-6629379D02*
X4821015Y-6638903D01*
X4821015Y-6638903D02*
X4830539Y-6648427D01*
X4830539Y-6648427D02*
X4840063Y-6667474D01*
X4840063Y-6667474D02*
X4840063Y-6715093D01*
X4840063Y-6715093D02*
X4830539Y-6734141D01*
X4830539Y-6734141D02*
X4821015Y-6743665D01*
X4821015Y-6743665D02*
X4801967Y-6753189D01*
X4801967Y-6753189D02*
X4744824Y-6753189D01*
X4744824Y-6753189D02*
X4725777Y-6743665D01*
X4725777Y-6743665D02*
X4716253Y-6734141D01*
X4963872Y-6553189D02*
X4982920Y-6553189D01*
X4982920Y-6553189D02*
X5001967Y-6562713D01*
X5001967Y-6562713D02*
X5011491Y-6572236D01*
X5011491Y-6572236D02*
X5021015Y-6591284D01*
X5021015Y-6591284D02*
X5030539Y-6629379D01*
X5030539Y-6629379D02*
X5030539Y-6676998D01*
X5030539Y-6676998D02*
X5021015Y-6715093D01*
X5021015Y-6715093D02*
X5011491Y-6734141D01*
X5011491Y-6734141D02*
X5001967Y-6743665D01*
X5001967Y-6743665D02*
X4982920Y-6753189D01*
X4982920Y-6753189D02*
X4963872Y-6753189D01*
X4963872Y-6753189D02*
X4944824Y-6743665D01*
X4944824Y-6743665D02*
X4935301Y-6734141D01*
X4935301Y-6734141D02*
X4925777Y-6715093D01*
X4925777Y-6715093D02*
X4916253Y-6676998D01*
X4916253Y-6676998D02*
X4916253Y-6629379D01*
X4916253Y-6629379D02*
X4925777Y-6591284D01*
X4925777Y-6591284D02*
X4935301Y-6572236D01*
X4935301Y-6572236D02*
X4944824Y-6562713D01*
X4944824Y-6562713D02*
X4963872Y-6553189D01*
X5106729Y-6553189D02*
X5106729Y-6591284D01*
X5182920Y-6553189D02*
X5182920Y-6591284D01*
X5478158Y-6829379D02*
X5468634Y-6819855D01*
X5468634Y-6819855D02*
X5449586Y-6791284D01*
X5449586Y-6791284D02*
X5440063Y-6772236D01*
X5440063Y-6772236D02*
X5430539Y-6743665D01*
X5430539Y-6743665D02*
X5421015Y-6696046D01*
X5421015Y-6696046D02*
X5421015Y-6657951D01*
X5421015Y-6657951D02*
X5430539Y-6610332D01*
X5430539Y-6610332D02*
X5440063Y-6581760D01*
X5440063Y-6581760D02*
X5449586Y-6562713D01*
X5449586Y-6562713D02*
X5468634Y-6534141D01*
X5468634Y-6534141D02*
X5478158Y-6524617D01*
X5544825Y-6572236D02*
X5554348Y-6562713D01*
X5554348Y-6562713D02*
X5573396Y-6553189D01*
X5573396Y-6553189D02*
X5621015Y-6553189D01*
X5621015Y-6553189D02*
X5640063Y-6562713D01*
X5640063Y-6562713D02*
X5649586Y-6572236D01*
X5649586Y-6572236D02*
X5659110Y-6591284D01*
X5659110Y-6591284D02*
X5659110Y-6610332D01*
X5659110Y-6610332D02*
X5649586Y-6638903D01*
X5649586Y-6638903D02*
X5535301Y-6753189D01*
X5535301Y-6753189D02*
X5659110Y-6753189D01*
X5754348Y-6753189D02*
X5792443Y-6753189D01*
X5792443Y-6753189D02*
X5811491Y-6743665D01*
X5811491Y-6743665D02*
X5821015Y-6734141D01*
X5821015Y-6734141D02*
X5840063Y-6705570D01*
X5840063Y-6705570D02*
X5849586Y-6667474D01*
X5849586Y-6667474D02*
X5849586Y-6591284D01*
X5849586Y-6591284D02*
X5840063Y-6572236D01*
X5840063Y-6572236D02*
X5830539Y-6562713D01*
X5830539Y-6562713D02*
X5811491Y-6553189D01*
X5811491Y-6553189D02*
X5773396Y-6553189D01*
X5773396Y-6553189D02*
X5754348Y-6562713D01*
X5754348Y-6562713D02*
X5744824Y-6572236D01*
X5744824Y-6572236D02*
X5735301Y-6591284D01*
X5735301Y-6591284D02*
X5735301Y-6638903D01*
X5735301Y-6638903D02*
X5744824Y-6657951D01*
X5744824Y-6657951D02*
X5754348Y-6667474D01*
X5754348Y-6667474D02*
X5773396Y-6676998D01*
X5773396Y-6676998D02*
X5811491Y-6676998D01*
X5811491Y-6676998D02*
X5830539Y-6667474D01*
X5830539Y-6667474D02*
X5840063Y-6657951D01*
X5840063Y-6657951D02*
X5849586Y-6638903D01*
X6021015Y-6619855D02*
X6021015Y-6753189D01*
X5973396Y-6543665D02*
X5925777Y-6686522D01*
X5925777Y-6686522D02*
X6049586Y-6686522D01*
X6278158Y-6753189D02*
X6278158Y-6553189D01*
X6363872Y-6753189D02*
X6363872Y-6648427D01*
X6363872Y-6648427D02*
X6354348Y-6629379D01*
X6354348Y-6629379D02*
X6335301Y-6619855D01*
X6335301Y-6619855D02*
X6306729Y-6619855D01*
X6306729Y-6619855D02*
X6287682Y-6629379D01*
X6287682Y-6629379D02*
X6278158Y-6638903D01*
X6487682Y-6753189D02*
X6468634Y-6743665D01*
X6468634Y-6743665D02*
X6459110Y-6734141D01*
X6459110Y-6734141D02*
X6449586Y-6715093D01*
X6449586Y-6715093D02*
X6449586Y-6657951D01*
X6449586Y-6657951D02*
X6459110Y-6638903D01*
X6459110Y-6638903D02*
X6468634Y-6629379D01*
X6468634Y-6629379D02*
X6487682Y-6619855D01*
X6487682Y-6619855D02*
X6516253Y-6619855D01*
X6516253Y-6619855D02*
X6535301Y-6629379D01*
X6535301Y-6629379D02*
X6544825Y-6638903D01*
X6544825Y-6638903D02*
X6554348Y-6657951D01*
X6554348Y-6657951D02*
X6554348Y-6715093D01*
X6554348Y-6715093D02*
X6544825Y-6734141D01*
X6544825Y-6734141D02*
X6535301Y-6743665D01*
X6535301Y-6743665D02*
X6516253Y-6753189D01*
X6516253Y-6753189D02*
X6487682Y-6753189D01*
X6668634Y-6753189D02*
X6649586Y-6743665D01*
X6649586Y-6743665D02*
X6640063Y-6724617D01*
X6640063Y-6724617D02*
X6640063Y-6553189D01*
X6821015Y-6743665D02*
X6801967Y-6753189D01*
X6801967Y-6753189D02*
X6763872Y-6753189D01*
X6763872Y-6753189D02*
X6744825Y-6743665D01*
X6744825Y-6743665D02*
X6735301Y-6724617D01*
X6735301Y-6724617D02*
X6735301Y-6648427D01*
X6735301Y-6648427D02*
X6744825Y-6629379D01*
X6744825Y-6629379D02*
X6763872Y-6619855D01*
X6763872Y-6619855D02*
X6801967Y-6619855D01*
X6801967Y-6619855D02*
X6821015Y-6629379D01*
X6821015Y-6629379D02*
X6830539Y-6648427D01*
X6830539Y-6648427D02*
X6830539Y-6667474D01*
X6830539Y-6667474D02*
X6735301Y-6686522D01*
X6906729Y-6743665D02*
X6925777Y-6753189D01*
X6925777Y-6753189D02*
X6963872Y-6753189D01*
X6963872Y-6753189D02*
X6982920Y-6743665D01*
X6982920Y-6743665D02*
X6992444Y-6724617D01*
X6992444Y-6724617D02*
X6992444Y-6715093D01*
X6992444Y-6715093D02*
X6982920Y-6696046D01*
X6982920Y-6696046D02*
X6963872Y-6686522D01*
X6963872Y-6686522D02*
X6935301Y-6686522D01*
X6935301Y-6686522D02*
X6916253Y-6676998D01*
X6916253Y-6676998D02*
X6906729Y-6657951D01*
X6906729Y-6657951D02*
X6906729Y-6648427D01*
X6906729Y-6648427D02*
X6916253Y-6629379D01*
X6916253Y-6629379D02*
X6935301Y-6619855D01*
X6935301Y-6619855D02*
X6963872Y-6619855D01*
X6963872Y-6619855D02*
X6982920Y-6629379D01*
X7059110Y-6829379D02*
X7068634Y-6819855D01*
X7068634Y-6819855D02*
X7087682Y-6791284D01*
X7087682Y-6791284D02*
X7097206Y-6772236D01*
X7097206Y-6772236D02*
X7106729Y-6743665D01*
X7106729Y-6743665D02*
X7116253Y-6696046D01*
X7116253Y-6696046D02*
X7116253Y-6657951D01*
X7116253Y-6657951D02*
X7106729Y-6610332D01*
X7106729Y-6610332D02*
X7097206Y-6581760D01*
X7097206Y-6581760D02*
X7087682Y-6562713D01*
X7087682Y-6562713D02*
X7068634Y-6534141D01*
X7068634Y-6534141D02*
X7059110Y-6524617D01*
D12*
X1903095Y-6925705D02*
G75*
G02*
X1853095Y-6925705I-25000J0D01*
G01*
X1853095Y-6925705D02*
G75*
G02*
X1903095Y-6925705I25000J0D01*
G01*
D11*
X2201967Y-6817189D02*
X2221015Y-6817189D01*
X2221015Y-6817189D02*
X2240062Y-6826713D01*
X2240062Y-6826713D02*
X2249586Y-6836236D01*
X2249586Y-6836236D02*
X2259110Y-6855284D01*
X2259110Y-6855284D02*
X2268634Y-6893379D01*
X2268634Y-6893379D02*
X2268634Y-6940998D01*
X2268634Y-6940998D02*
X2259110Y-6979093D01*
X2259110Y-6979093D02*
X2249586Y-6998141D01*
X2249586Y-6998141D02*
X2240062Y-7007665D01*
X2240062Y-7007665D02*
X2221015Y-7017189D01*
X2221015Y-7017189D02*
X2201967Y-7017189D01*
X2201967Y-7017189D02*
X2182919Y-7007665D01*
X2182919Y-7007665D02*
X2173396Y-6998141D01*
X2173396Y-6998141D02*
X2163872Y-6979093D01*
X2163872Y-6979093D02*
X2154348Y-6940998D01*
X2154348Y-6940998D02*
X2154348Y-6893379D01*
X2154348Y-6893379D02*
X2163872Y-6855284D01*
X2163872Y-6855284D02*
X2173396Y-6836236D01*
X2173396Y-6836236D02*
X2182919Y-6826713D01*
X2182919Y-6826713D02*
X2201967Y-6817189D01*
X2354348Y-6998141D02*
X2363872Y-7007665D01*
X2363872Y-7007665D02*
X2354348Y-7017189D01*
X2354348Y-7017189D02*
X2344824Y-7007665D01*
X2344824Y-7007665D02*
X2354348Y-6998141D01*
X2354348Y-6998141D02*
X2354348Y-7017189D01*
X2544824Y-6817189D02*
X2449586Y-6817189D01*
X2449586Y-6817189D02*
X2440062Y-6912427D01*
X2440062Y-6912427D02*
X2449586Y-6902903D01*
X2449586Y-6902903D02*
X2468634Y-6893379D01*
X2468634Y-6893379D02*
X2516253Y-6893379D01*
X2516253Y-6893379D02*
X2535300Y-6902903D01*
X2535300Y-6902903D02*
X2544824Y-6912427D01*
X2544824Y-6912427D02*
X2554348Y-6931474D01*
X2554348Y-6931474D02*
X2554348Y-6979093D01*
X2554348Y-6979093D02*
X2544824Y-6998141D01*
X2544824Y-6998141D02*
X2535300Y-7007665D01*
X2535300Y-7007665D02*
X2516253Y-7017189D01*
X2516253Y-7017189D02*
X2468634Y-7017189D01*
X2468634Y-7017189D02*
X2449586Y-7007665D01*
X2449586Y-7007665D02*
X2440062Y-6998141D01*
X2678158Y-6817189D02*
X2697205Y-6817189D01*
X2697205Y-6817189D02*
X2716253Y-6826713D01*
X2716253Y-6826713D02*
X2725777Y-6836236D01*
X2725777Y-6836236D02*
X2735300Y-6855284D01*
X2735300Y-6855284D02*
X2744824Y-6893379D01*
X2744824Y-6893379D02*
X2744824Y-6940998D01*
X2744824Y-6940998D02*
X2735300Y-6979093D01*
X2735300Y-6979093D02*
X2725777Y-6998141D01*
X2725777Y-6998141D02*
X2716253Y-7007665D01*
X2716253Y-7007665D02*
X2697205Y-7017189D01*
X2697205Y-7017189D02*
X2678158Y-7017189D01*
X2678158Y-7017189D02*
X2659110Y-7007665D01*
X2659110Y-7007665D02*
X2649586Y-6998141D01*
X2649586Y-6998141D02*
X2640062Y-6979093D01*
X2640062Y-6979093D02*
X2630539Y-6940998D01*
X2630539Y-6940998D02*
X2630539Y-6893379D01*
X2630539Y-6893379D02*
X2640062Y-6855284D01*
X2640062Y-6855284D02*
X2649586Y-6836236D01*
X2649586Y-6836236D02*
X2659110Y-6826713D01*
X2659110Y-6826713D02*
X2678158Y-6817189D01*
X2868634Y-6817189D02*
X2887681Y-6817189D01*
X2887681Y-6817189D02*
X2906729Y-6826713D01*
X2906729Y-6826713D02*
X2916253Y-6836236D01*
X2916253Y-6836236D02*
X2925777Y-6855284D01*
X2925777Y-6855284D02*
X2935300Y-6893379D01*
X2935300Y-6893379D02*
X2935300Y-6940998D01*
X2935300Y-6940998D02*
X2925777Y-6979093D01*
X2925777Y-6979093D02*
X2916253Y-6998141D01*
X2916253Y-6998141D02*
X2906729Y-7007665D01*
X2906729Y-7007665D02*
X2887681Y-7017189D01*
X2887681Y-7017189D02*
X2868634Y-7017189D01*
X2868634Y-7017189D02*
X2849586Y-7007665D01*
X2849586Y-7007665D02*
X2840062Y-6998141D01*
X2840062Y-6998141D02*
X2830538Y-6979093D01*
X2830538Y-6979093D02*
X2821015Y-6940998D01*
X2821015Y-6940998D02*
X2821015Y-6893379D01*
X2821015Y-6893379D02*
X2830538Y-6855284D01*
X2830538Y-6855284D02*
X2840062Y-6836236D01*
X2840062Y-6836236D02*
X2849586Y-6826713D01*
X2849586Y-6826713D02*
X2868634Y-6817189D01*
X3021015Y-7017189D02*
X3021015Y-6883855D01*
X3021015Y-6902903D02*
X3030538Y-6893379D01*
X3030538Y-6893379D02*
X3049586Y-6883855D01*
X3049586Y-6883855D02*
X3078158Y-6883855D01*
X3078158Y-6883855D02*
X3097205Y-6893379D01*
X3097205Y-6893379D02*
X3106729Y-6912427D01*
X3106729Y-6912427D02*
X3106729Y-7017189D01*
X3106729Y-6912427D02*
X3116253Y-6893379D01*
X3116253Y-6893379D02*
X3135300Y-6883855D01*
X3135300Y-6883855D02*
X3163872Y-6883855D01*
X3163872Y-6883855D02*
X3182919Y-6893379D01*
X3182919Y-6893379D02*
X3192443Y-6912427D01*
X3192443Y-6912427D02*
X3192443Y-7017189D01*
X3287681Y-7017189D02*
X3287681Y-6883855D01*
X3287681Y-6902903D02*
X3297205Y-6893379D01*
X3297205Y-6893379D02*
X3316253Y-6883855D01*
X3316253Y-6883855D02*
X3344824Y-6883855D01*
X3344824Y-6883855D02*
X3363872Y-6893379D01*
X3363872Y-6893379D02*
X3373396Y-6912427D01*
X3373396Y-6912427D02*
X3373396Y-7017189D01*
X3373396Y-6912427D02*
X3382919Y-6893379D01*
X3382919Y-6893379D02*
X3401967Y-6883855D01*
X3401967Y-6883855D02*
X3430538Y-6883855D01*
X3430538Y-6883855D02*
X3449586Y-6893379D01*
X3449586Y-6893379D02*
X3459110Y-6912427D01*
X3459110Y-6912427D02*
X3459110Y-7017189D01*
X3849586Y-6807665D02*
X3678158Y-7064808D01*
X4106729Y-6817189D02*
X4125777Y-6817189D01*
X4125777Y-6817189D02*
X4144824Y-6826713D01*
X4144824Y-6826713D02*
X4154348Y-6836236D01*
X4154348Y-6836236D02*
X4163872Y-6855284D01*
X4163872Y-6855284D02*
X4173396Y-6893379D01*
X4173396Y-6893379D02*
X4173396Y-6940998D01*
X4173396Y-6940998D02*
X4163872Y-6979093D01*
X4163872Y-6979093D02*
X4154348Y-6998141D01*
X4154348Y-6998141D02*
X4144824Y-7007665D01*
X4144824Y-7007665D02*
X4125777Y-7017189D01*
X4125777Y-7017189D02*
X4106729Y-7017189D01*
X4106729Y-7017189D02*
X4087681Y-7007665D01*
X4087681Y-7007665D02*
X4078158Y-6998141D01*
X4078158Y-6998141D02*
X4068634Y-6979093D01*
X4068634Y-6979093D02*
X4059110Y-6940998D01*
X4059110Y-6940998D02*
X4059110Y-6893379D01*
X4059110Y-6893379D02*
X4068634Y-6855284D01*
X4068634Y-6855284D02*
X4078158Y-6836236D01*
X4078158Y-6836236D02*
X4087681Y-6826713D01*
X4087681Y-6826713D02*
X4106729Y-6817189D01*
X4259110Y-6998141D02*
X4268634Y-7007665D01*
X4268634Y-7007665D02*
X4259110Y-7017189D01*
X4259110Y-7017189D02*
X4249586Y-7007665D01*
X4249586Y-7007665D02*
X4259110Y-6998141D01*
X4259110Y-6998141D02*
X4259110Y-7017189D01*
X4392443Y-6817189D02*
X4411491Y-6817189D01*
X4411491Y-6817189D02*
X4430539Y-6826713D01*
X4430539Y-6826713D02*
X4440063Y-6836236D01*
X4440063Y-6836236D02*
X4449586Y-6855284D01*
X4449586Y-6855284D02*
X4459110Y-6893379D01*
X4459110Y-6893379D02*
X4459110Y-6940998D01*
X4459110Y-6940998D02*
X4449586Y-6979093D01*
X4449586Y-6979093D02*
X4440063Y-6998141D01*
X4440063Y-6998141D02*
X4430539Y-7007665D01*
X4430539Y-7007665D02*
X4411491Y-7017189D01*
X4411491Y-7017189D02*
X4392443Y-7017189D01*
X4392443Y-7017189D02*
X4373396Y-7007665D01*
X4373396Y-7007665D02*
X4363872Y-6998141D01*
X4363872Y-6998141D02*
X4354348Y-6979093D01*
X4354348Y-6979093D02*
X4344824Y-6940998D01*
X4344824Y-6940998D02*
X4344824Y-6893379D01*
X4344824Y-6893379D02*
X4354348Y-6855284D01*
X4354348Y-6855284D02*
X4363872Y-6836236D01*
X4363872Y-6836236D02*
X4373396Y-6826713D01*
X4373396Y-6826713D02*
X4392443Y-6817189D01*
X4649586Y-7017189D02*
X4535301Y-7017189D01*
X4592443Y-7017189D02*
X4592443Y-6817189D01*
X4592443Y-6817189D02*
X4573396Y-6845760D01*
X4573396Y-6845760D02*
X4554348Y-6864808D01*
X4554348Y-6864808D02*
X4535301Y-6874332D01*
X4744824Y-7017189D02*
X4782920Y-7017189D01*
X4782920Y-7017189D02*
X4801967Y-7007665D01*
X4801967Y-7007665D02*
X4811491Y-6998141D01*
X4811491Y-6998141D02*
X4830539Y-6969570D01*
X4830539Y-6969570D02*
X4840063Y-6931474D01*
X4840063Y-6931474D02*
X4840063Y-6855284D01*
X4840063Y-6855284D02*
X4830539Y-6836236D01*
X4830539Y-6836236D02*
X4821015Y-6826713D01*
X4821015Y-6826713D02*
X4801967Y-6817189D01*
X4801967Y-6817189D02*
X4763872Y-6817189D01*
X4763872Y-6817189D02*
X4744824Y-6826713D01*
X4744824Y-6826713D02*
X4735301Y-6836236D01*
X4735301Y-6836236D02*
X4725777Y-6855284D01*
X4725777Y-6855284D02*
X4725777Y-6902903D01*
X4725777Y-6902903D02*
X4735301Y-6921951D01*
X4735301Y-6921951D02*
X4744824Y-6931474D01*
X4744824Y-6931474D02*
X4763872Y-6940998D01*
X4763872Y-6940998D02*
X4801967Y-6940998D01*
X4801967Y-6940998D02*
X4821015Y-6931474D01*
X4821015Y-6931474D02*
X4830539Y-6921951D01*
X4830539Y-6921951D02*
X4840063Y-6902903D01*
X4906729Y-6817189D02*
X5040063Y-6817189D01*
X5040063Y-6817189D02*
X4954348Y-7017189D01*
X5106729Y-6817189D02*
X5106729Y-6855284D01*
X5182920Y-6817189D02*
X5182920Y-6855284D01*
X5478158Y-7093379D02*
X5468634Y-7083855D01*
X5468634Y-7083855D02*
X5449586Y-7055284D01*
X5449586Y-7055284D02*
X5440063Y-7036236D01*
X5440063Y-7036236D02*
X5430539Y-7007665D01*
X5430539Y-7007665D02*
X5421015Y-6960046D01*
X5421015Y-6960046D02*
X5421015Y-6921951D01*
X5421015Y-6921951D02*
X5430539Y-6874332D01*
X5430539Y-6874332D02*
X5440063Y-6845760D01*
X5440063Y-6845760D02*
X5449586Y-6826713D01*
X5449586Y-6826713D02*
X5468634Y-6798141D01*
X5468634Y-6798141D02*
X5478158Y-6788617D01*
X5544825Y-6836236D02*
X5554348Y-6826713D01*
X5554348Y-6826713D02*
X5573396Y-6817189D01*
X5573396Y-6817189D02*
X5621015Y-6817189D01*
X5621015Y-6817189D02*
X5640063Y-6826713D01*
X5640063Y-6826713D02*
X5649586Y-6836236D01*
X5649586Y-6836236D02*
X5659110Y-6855284D01*
X5659110Y-6855284D02*
X5659110Y-6874332D01*
X5659110Y-6874332D02*
X5649586Y-6902903D01*
X5649586Y-6902903D02*
X5535301Y-7017189D01*
X5535301Y-7017189D02*
X5659110Y-7017189D01*
X5897205Y-7017189D02*
X5897205Y-6817189D01*
X5982920Y-7017189D02*
X5982920Y-6912427D01*
X5982920Y-6912427D02*
X5973396Y-6893379D01*
X5973396Y-6893379D02*
X5954348Y-6883855D01*
X5954348Y-6883855D02*
X5925777Y-6883855D01*
X5925777Y-6883855D02*
X5906729Y-6893379D01*
X5906729Y-6893379D02*
X5897205Y-6902903D01*
X6106729Y-7017189D02*
X6087682Y-7007665D01*
X6087682Y-7007665D02*
X6078158Y-6998141D01*
X6078158Y-6998141D02*
X6068634Y-6979093D01*
X6068634Y-6979093D02*
X6068634Y-6921951D01*
X6068634Y-6921951D02*
X6078158Y-6902903D01*
X6078158Y-6902903D02*
X6087682Y-6893379D01*
X6087682Y-6893379D02*
X6106729Y-6883855D01*
X6106729Y-6883855D02*
X6135301Y-6883855D01*
X6135301Y-6883855D02*
X6154348Y-6893379D01*
X6154348Y-6893379D02*
X6163872Y-6902903D01*
X6163872Y-6902903D02*
X6173396Y-6921951D01*
X6173396Y-6921951D02*
X6173396Y-6979093D01*
X6173396Y-6979093D02*
X6163872Y-6998141D01*
X6163872Y-6998141D02*
X6154348Y-7007665D01*
X6154348Y-7007665D02*
X6135301Y-7017189D01*
X6135301Y-7017189D02*
X6106729Y-7017189D01*
X6287682Y-7017189D02*
X6268634Y-7007665D01*
X6268634Y-7007665D02*
X6259110Y-6988617D01*
X6259110Y-6988617D02*
X6259110Y-6817189D01*
X6440063Y-7007665D02*
X6421015Y-7017189D01*
X6421015Y-7017189D02*
X6382920Y-7017189D01*
X6382920Y-7017189D02*
X6363872Y-7007665D01*
X6363872Y-7007665D02*
X6354348Y-6988617D01*
X6354348Y-6988617D02*
X6354348Y-6912427D01*
X6354348Y-6912427D02*
X6363872Y-6893379D01*
X6363872Y-6893379D02*
X6382920Y-6883855D01*
X6382920Y-6883855D02*
X6421015Y-6883855D01*
X6421015Y-6883855D02*
X6440063Y-6893379D01*
X6440063Y-6893379D02*
X6449586Y-6912427D01*
X6449586Y-6912427D02*
X6449586Y-6931474D01*
X6449586Y-6931474D02*
X6354348Y-6950522D01*
X6525777Y-7007665D02*
X6544825Y-7017189D01*
X6544825Y-7017189D02*
X6582920Y-7017189D01*
X6582920Y-7017189D02*
X6601967Y-7007665D01*
X6601967Y-7007665D02*
X6611491Y-6988617D01*
X6611491Y-6988617D02*
X6611491Y-6979093D01*
X6611491Y-6979093D02*
X6601967Y-6960046D01*
X6601967Y-6960046D02*
X6582920Y-6950522D01*
X6582920Y-6950522D02*
X6554348Y-6950522D01*
X6554348Y-6950522D02*
X6535301Y-6940998D01*
X6535301Y-6940998D02*
X6525777Y-6921951D01*
X6525777Y-6921951D02*
X6525777Y-6912427D01*
X6525777Y-6912427D02*
X6535301Y-6893379D01*
X6535301Y-6893379D02*
X6554348Y-6883855D01*
X6554348Y-6883855D02*
X6582920Y-6883855D01*
X6582920Y-6883855D02*
X6601967Y-6893379D01*
X6678158Y-7093379D02*
X6687682Y-7083855D01*
X6687682Y-7083855D02*
X6706729Y-7055284D01*
X6706729Y-7055284D02*
X6716253Y-7036236D01*
X6716253Y-7036236D02*
X6725777Y-7007665D01*
X6725777Y-7007665D02*
X6735301Y-6960046D01*
X6735301Y-6960046D02*
X6735301Y-6921951D01*
X6735301Y-6921951D02*
X6725777Y-6874332D01*
X6725777Y-6874332D02*
X6716253Y-6845760D01*
X6716253Y-6845760D02*
X6706729Y-6826713D01*
X6706729Y-6826713D02*
X6687682Y-6798141D01*
X6687682Y-6798141D02*
X6678158Y-6788617D01*
D13*
X1840595Y-7127205D02*
X1840595Y-7252205D01*
X1778095Y-7189705D02*
X1903095Y-7189705D01*
D11*
X2268634Y-7281189D02*
X2154348Y-7281189D01*
X2211491Y-7281189D02*
X2211491Y-7081189D01*
X2211491Y-7081189D02*
X2192443Y-7109760D01*
X2192443Y-7109760D02*
X2173396Y-7128808D01*
X2173396Y-7128808D02*
X2154348Y-7138332D01*
X2354348Y-7262141D02*
X2363872Y-7271665D01*
X2363872Y-7271665D02*
X2354348Y-7281189D01*
X2354348Y-7281189D02*
X2344824Y-7271665D01*
X2344824Y-7271665D02*
X2354348Y-7262141D01*
X2354348Y-7262141D02*
X2354348Y-7281189D01*
X2440062Y-7100236D02*
X2449586Y-7090713D01*
X2449586Y-7090713D02*
X2468634Y-7081189D01*
X2468634Y-7081189D02*
X2516253Y-7081189D01*
X2516253Y-7081189D02*
X2535300Y-7090713D01*
X2535300Y-7090713D02*
X2544824Y-7100236D01*
X2544824Y-7100236D02*
X2554348Y-7119284D01*
X2554348Y-7119284D02*
X2554348Y-7138332D01*
X2554348Y-7138332D02*
X2544824Y-7166903D01*
X2544824Y-7166903D02*
X2430539Y-7281189D01*
X2430539Y-7281189D02*
X2554348Y-7281189D01*
X2735300Y-7081189D02*
X2640062Y-7081189D01*
X2640062Y-7081189D02*
X2630539Y-7176427D01*
X2630539Y-7176427D02*
X2640062Y-7166903D01*
X2640062Y-7166903D02*
X2659110Y-7157379D01*
X2659110Y-7157379D02*
X2706729Y-7157379D01*
X2706729Y-7157379D02*
X2725777Y-7166903D01*
X2725777Y-7166903D02*
X2735300Y-7176427D01*
X2735300Y-7176427D02*
X2744824Y-7195474D01*
X2744824Y-7195474D02*
X2744824Y-7243093D01*
X2744824Y-7243093D02*
X2735300Y-7262141D01*
X2735300Y-7262141D02*
X2725777Y-7271665D01*
X2725777Y-7271665D02*
X2706729Y-7281189D01*
X2706729Y-7281189D02*
X2659110Y-7281189D01*
X2659110Y-7281189D02*
X2640062Y-7271665D01*
X2640062Y-7271665D02*
X2630539Y-7262141D01*
X2868634Y-7081189D02*
X2887681Y-7081189D01*
X2887681Y-7081189D02*
X2906729Y-7090713D01*
X2906729Y-7090713D02*
X2916253Y-7100236D01*
X2916253Y-7100236D02*
X2925777Y-7119284D01*
X2925777Y-7119284D02*
X2935300Y-7157379D01*
X2935300Y-7157379D02*
X2935300Y-7204998D01*
X2935300Y-7204998D02*
X2925777Y-7243093D01*
X2925777Y-7243093D02*
X2916253Y-7262141D01*
X2916253Y-7262141D02*
X2906729Y-7271665D01*
X2906729Y-7271665D02*
X2887681Y-7281189D01*
X2887681Y-7281189D02*
X2868634Y-7281189D01*
X2868634Y-7281189D02*
X2849586Y-7271665D01*
X2849586Y-7271665D02*
X2840062Y-7262141D01*
X2840062Y-7262141D02*
X2830538Y-7243093D01*
X2830538Y-7243093D02*
X2821015Y-7204998D01*
X2821015Y-7204998D02*
X2821015Y-7157379D01*
X2821015Y-7157379D02*
X2830538Y-7119284D01*
X2830538Y-7119284D02*
X2840062Y-7100236D01*
X2840062Y-7100236D02*
X2849586Y-7090713D01*
X2849586Y-7090713D02*
X2868634Y-7081189D01*
X3021015Y-7281189D02*
X3021015Y-7147855D01*
X3021015Y-7166903D02*
X3030538Y-7157379D01*
X3030538Y-7157379D02*
X3049586Y-7147855D01*
X3049586Y-7147855D02*
X3078158Y-7147855D01*
X3078158Y-7147855D02*
X3097205Y-7157379D01*
X3097205Y-7157379D02*
X3106729Y-7176427D01*
X3106729Y-7176427D02*
X3106729Y-7281189D01*
X3106729Y-7176427D02*
X3116253Y-7157379D01*
X3116253Y-7157379D02*
X3135300Y-7147855D01*
X3135300Y-7147855D02*
X3163872Y-7147855D01*
X3163872Y-7147855D02*
X3182919Y-7157379D01*
X3182919Y-7157379D02*
X3192443Y-7176427D01*
X3192443Y-7176427D02*
X3192443Y-7281189D01*
X3287681Y-7281189D02*
X3287681Y-7147855D01*
X3287681Y-7166903D02*
X3297205Y-7157379D01*
X3297205Y-7157379D02*
X3316253Y-7147855D01*
X3316253Y-7147855D02*
X3344824Y-7147855D01*
X3344824Y-7147855D02*
X3363872Y-7157379D01*
X3363872Y-7157379D02*
X3373396Y-7176427D01*
X3373396Y-7176427D02*
X3373396Y-7281189D01*
X3373396Y-7176427D02*
X3382919Y-7157379D01*
X3382919Y-7157379D02*
X3401967Y-7147855D01*
X3401967Y-7147855D02*
X3430538Y-7147855D01*
X3430538Y-7147855D02*
X3449586Y-7157379D01*
X3449586Y-7157379D02*
X3459110Y-7176427D01*
X3459110Y-7176427D02*
X3459110Y-7281189D01*
X3849586Y-7071665D02*
X3678158Y-7328808D01*
X4106729Y-7081189D02*
X4125777Y-7081189D01*
X4125777Y-7081189D02*
X4144824Y-7090713D01*
X4144824Y-7090713D02*
X4154348Y-7100236D01*
X4154348Y-7100236D02*
X4163872Y-7119284D01*
X4163872Y-7119284D02*
X4173396Y-7157379D01*
X4173396Y-7157379D02*
X4173396Y-7204998D01*
X4173396Y-7204998D02*
X4163872Y-7243093D01*
X4163872Y-7243093D02*
X4154348Y-7262141D01*
X4154348Y-7262141D02*
X4144824Y-7271665D01*
X4144824Y-7271665D02*
X4125777Y-7281189D01*
X4125777Y-7281189D02*
X4106729Y-7281189D01*
X4106729Y-7281189D02*
X4087681Y-7271665D01*
X4087681Y-7271665D02*
X4078158Y-7262141D01*
X4078158Y-7262141D02*
X4068634Y-7243093D01*
X4068634Y-7243093D02*
X4059110Y-7204998D01*
X4059110Y-7204998D02*
X4059110Y-7157379D01*
X4059110Y-7157379D02*
X4068634Y-7119284D01*
X4068634Y-7119284D02*
X4078158Y-7100236D01*
X4078158Y-7100236D02*
X4087681Y-7090713D01*
X4087681Y-7090713D02*
X4106729Y-7081189D01*
X4259110Y-7262141D02*
X4268634Y-7271665D01*
X4268634Y-7271665D02*
X4259110Y-7281189D01*
X4259110Y-7281189D02*
X4249586Y-7271665D01*
X4249586Y-7271665D02*
X4259110Y-7262141D01*
X4259110Y-7262141D02*
X4259110Y-7281189D01*
X4392443Y-7081189D02*
X4411491Y-7081189D01*
X4411491Y-7081189D02*
X4430539Y-7090713D01*
X4430539Y-7090713D02*
X4440063Y-7100236D01*
X4440063Y-7100236D02*
X4449586Y-7119284D01*
X4449586Y-7119284D02*
X4459110Y-7157379D01*
X4459110Y-7157379D02*
X4459110Y-7204998D01*
X4459110Y-7204998D02*
X4449586Y-7243093D01*
X4449586Y-7243093D02*
X4440063Y-7262141D01*
X4440063Y-7262141D02*
X4430539Y-7271665D01*
X4430539Y-7271665D02*
X4411491Y-7281189D01*
X4411491Y-7281189D02*
X4392443Y-7281189D01*
X4392443Y-7281189D02*
X4373396Y-7271665D01*
X4373396Y-7271665D02*
X4363872Y-7262141D01*
X4363872Y-7262141D02*
X4354348Y-7243093D01*
X4354348Y-7243093D02*
X4344824Y-7204998D01*
X4344824Y-7204998D02*
X4344824Y-7157379D01*
X4344824Y-7157379D02*
X4354348Y-7119284D01*
X4354348Y-7119284D02*
X4363872Y-7100236D01*
X4363872Y-7100236D02*
X4373396Y-7090713D01*
X4373396Y-7090713D02*
X4392443Y-7081189D01*
X4630539Y-7147855D02*
X4630539Y-7281189D01*
X4582920Y-7071665D02*
X4535301Y-7214522D01*
X4535301Y-7214522D02*
X4659110Y-7214522D01*
X4744824Y-7281189D02*
X4782920Y-7281189D01*
X4782920Y-7281189D02*
X4801967Y-7271665D01*
X4801967Y-7271665D02*
X4811491Y-7262141D01*
X4811491Y-7262141D02*
X4830539Y-7233570D01*
X4830539Y-7233570D02*
X4840063Y-7195474D01*
X4840063Y-7195474D02*
X4840063Y-7119284D01*
X4840063Y-7119284D02*
X4830539Y-7100236D01*
X4830539Y-7100236D02*
X4821015Y-7090713D01*
X4821015Y-7090713D02*
X4801967Y-7081189D01*
X4801967Y-7081189D02*
X4763872Y-7081189D01*
X4763872Y-7081189D02*
X4744824Y-7090713D01*
X4744824Y-7090713D02*
X4735301Y-7100236D01*
X4735301Y-7100236D02*
X4725777Y-7119284D01*
X4725777Y-7119284D02*
X4725777Y-7166903D01*
X4725777Y-7166903D02*
X4735301Y-7185951D01*
X4735301Y-7185951D02*
X4744824Y-7195474D01*
X4744824Y-7195474D02*
X4763872Y-7204998D01*
X4763872Y-7204998D02*
X4801967Y-7204998D01*
X4801967Y-7204998D02*
X4821015Y-7195474D01*
X4821015Y-7195474D02*
X4830539Y-7185951D01*
X4830539Y-7185951D02*
X4840063Y-7166903D01*
X4916253Y-7100236D02*
X4925777Y-7090713D01*
X4925777Y-7090713D02*
X4944824Y-7081189D01*
X4944824Y-7081189D02*
X4992444Y-7081189D01*
X4992444Y-7081189D02*
X5011491Y-7090713D01*
X5011491Y-7090713D02*
X5021015Y-7100236D01*
X5021015Y-7100236D02*
X5030539Y-7119284D01*
X5030539Y-7119284D02*
X5030539Y-7138332D01*
X5030539Y-7138332D02*
X5021015Y-7166903D01*
X5021015Y-7166903D02*
X4906729Y-7281189D01*
X4906729Y-7281189D02*
X5030539Y-7281189D01*
X5106729Y-7081189D02*
X5106729Y-7119284D01*
X5182920Y-7081189D02*
X5182920Y-7119284D01*
X5478158Y-7357379D02*
X5468634Y-7347855D01*
X5468634Y-7347855D02*
X5449586Y-7319284D01*
X5449586Y-7319284D02*
X5440063Y-7300236D01*
X5440063Y-7300236D02*
X5430539Y-7271665D01*
X5430539Y-7271665D02*
X5421015Y-7224046D01*
X5421015Y-7224046D02*
X5421015Y-7185951D01*
X5421015Y-7185951D02*
X5430539Y-7138332D01*
X5430539Y-7138332D02*
X5440063Y-7109760D01*
X5440063Y-7109760D02*
X5449586Y-7090713D01*
X5449586Y-7090713D02*
X5468634Y-7062141D01*
X5468634Y-7062141D02*
X5478158Y-7052617D01*
X5592443Y-7081189D02*
X5611491Y-7081189D01*
X5611491Y-7081189D02*
X5630539Y-7090713D01*
X5630539Y-7090713D02*
X5640063Y-7100236D01*
X5640063Y-7100236D02*
X5649586Y-7119284D01*
X5649586Y-7119284D02*
X5659110Y-7157379D01*
X5659110Y-7157379D02*
X5659110Y-7204998D01*
X5659110Y-7204998D02*
X5649586Y-7243093D01*
X5649586Y-7243093D02*
X5640063Y-7262141D01*
X5640063Y-7262141D02*
X5630539Y-7271665D01*
X5630539Y-7271665D02*
X5611491Y-7281189D01*
X5611491Y-7281189D02*
X5592443Y-7281189D01*
X5592443Y-7281189D02*
X5573396Y-7271665D01*
X5573396Y-7271665D02*
X5563872Y-7262141D01*
X5563872Y-7262141D02*
X5554348Y-7243093D01*
X5554348Y-7243093D02*
X5544825Y-7204998D01*
X5544825Y-7204998D02*
X5544825Y-7157379D01*
X5544825Y-7157379D02*
X5554348Y-7119284D01*
X5554348Y-7119284D02*
X5563872Y-7100236D01*
X5563872Y-7100236D02*
X5573396Y-7090713D01*
X5573396Y-7090713D02*
X5592443Y-7081189D01*
X5897205Y-7281189D02*
X5897205Y-7081189D01*
X5982920Y-7281189D02*
X5982920Y-7176427D01*
X5982920Y-7176427D02*
X5973396Y-7157379D01*
X5973396Y-7157379D02*
X5954348Y-7147855D01*
X5954348Y-7147855D02*
X5925777Y-7147855D01*
X5925777Y-7147855D02*
X5906729Y-7157379D01*
X5906729Y-7157379D02*
X5897205Y-7166903D01*
X6106729Y-7281189D02*
X6087682Y-7271665D01*
X6087682Y-7271665D02*
X6078158Y-7262141D01*
X6078158Y-7262141D02*
X6068634Y-7243093D01*
X6068634Y-7243093D02*
X6068634Y-7185951D01*
X6068634Y-7185951D02*
X6078158Y-7166903D01*
X6078158Y-7166903D02*
X6087682Y-7157379D01*
X6087682Y-7157379D02*
X6106729Y-7147855D01*
X6106729Y-7147855D02*
X6135301Y-7147855D01*
X6135301Y-7147855D02*
X6154348Y-7157379D01*
X6154348Y-7157379D02*
X6163872Y-7166903D01*
X6163872Y-7166903D02*
X6173396Y-7185951D01*
X6173396Y-7185951D02*
X6173396Y-7243093D01*
X6173396Y-7243093D02*
X6163872Y-7262141D01*
X6163872Y-7262141D02*
X6154348Y-7271665D01*
X6154348Y-7271665D02*
X6135301Y-7281189D01*
X6135301Y-7281189D02*
X6106729Y-7281189D01*
X6287682Y-7281189D02*
X6268634Y-7271665D01*
X6268634Y-7271665D02*
X6259110Y-7252617D01*
X6259110Y-7252617D02*
X6259110Y-7081189D01*
X6440063Y-7271665D02*
X6421015Y-7281189D01*
X6421015Y-7281189D02*
X6382920Y-7281189D01*
X6382920Y-7281189D02*
X6363872Y-7271665D01*
X6363872Y-7271665D02*
X6354348Y-7252617D01*
X6354348Y-7252617D02*
X6354348Y-7176427D01*
X6354348Y-7176427D02*
X6363872Y-7157379D01*
X6363872Y-7157379D02*
X6382920Y-7147855D01*
X6382920Y-7147855D02*
X6421015Y-7147855D01*
X6421015Y-7147855D02*
X6440063Y-7157379D01*
X6440063Y-7157379D02*
X6449586Y-7176427D01*
X6449586Y-7176427D02*
X6449586Y-7195474D01*
X6449586Y-7195474D02*
X6354348Y-7214522D01*
X6525777Y-7271665D02*
X6544825Y-7281189D01*
X6544825Y-7281189D02*
X6582920Y-7281189D01*
X6582920Y-7281189D02*
X6601967Y-7271665D01*
X6601967Y-7271665D02*
X6611491Y-7252617D01*
X6611491Y-7252617D02*
X6611491Y-7243093D01*
X6611491Y-7243093D02*
X6601967Y-7224046D01*
X6601967Y-7224046D02*
X6582920Y-7214522D01*
X6582920Y-7214522D02*
X6554348Y-7214522D01*
X6554348Y-7214522D02*
X6535301Y-7204998D01*
X6535301Y-7204998D02*
X6525777Y-7185951D01*
X6525777Y-7185951D02*
X6525777Y-7176427D01*
X6525777Y-7176427D02*
X6535301Y-7157379D01*
X6535301Y-7157379D02*
X6554348Y-7147855D01*
X6554348Y-7147855D02*
X6582920Y-7147855D01*
X6582920Y-7147855D02*
X6601967Y-7157379D01*
X6849587Y-7204998D02*
X7001968Y-7204998D01*
X6925777Y-7281189D02*
X6925777Y-7128808D01*
X7335301Y-7081189D02*
X7297206Y-7081189D01*
X7297206Y-7081189D02*
X7278158Y-7090713D01*
X7278158Y-7090713D02*
X7268634Y-7100236D01*
X7268634Y-7100236D02*
X7249587Y-7128808D01*
X7249587Y-7128808D02*
X7240063Y-7166903D01*
X7240063Y-7166903D02*
X7240063Y-7243093D01*
X7240063Y-7243093D02*
X7249587Y-7262141D01*
X7249587Y-7262141D02*
X7259110Y-7271665D01*
X7259110Y-7271665D02*
X7278158Y-7281189D01*
X7278158Y-7281189D02*
X7316253Y-7281189D01*
X7316253Y-7281189D02*
X7335301Y-7271665D01*
X7335301Y-7271665D02*
X7344825Y-7262141D01*
X7344825Y-7262141D02*
X7354348Y-7243093D01*
X7354348Y-7243093D02*
X7354348Y-7195474D01*
X7354348Y-7195474D02*
X7344825Y-7176427D01*
X7344825Y-7176427D02*
X7335301Y-7166903D01*
X7335301Y-7166903D02*
X7316253Y-7157379D01*
X7316253Y-7157379D02*
X7278158Y-7157379D01*
X7278158Y-7157379D02*
X7259110Y-7166903D01*
X7259110Y-7166903D02*
X7249587Y-7176427D01*
X7249587Y-7176427D02*
X7240063Y-7195474D01*
X7582920Y-7271665D02*
X7601968Y-7281189D01*
X7601968Y-7281189D02*
X7640063Y-7281189D01*
X7640063Y-7281189D02*
X7659110Y-7271665D01*
X7659110Y-7271665D02*
X7668634Y-7252617D01*
X7668634Y-7252617D02*
X7668634Y-7243093D01*
X7668634Y-7243093D02*
X7659110Y-7224046D01*
X7659110Y-7224046D02*
X7640063Y-7214522D01*
X7640063Y-7214522D02*
X7611491Y-7214522D01*
X7611491Y-7214522D02*
X7592444Y-7204998D01*
X7592444Y-7204998D02*
X7582920Y-7185951D01*
X7582920Y-7185951D02*
X7582920Y-7176427D01*
X7582920Y-7176427D02*
X7592444Y-7157379D01*
X7592444Y-7157379D02*
X7611491Y-7147855D01*
X7611491Y-7147855D02*
X7640063Y-7147855D01*
X7640063Y-7147855D02*
X7659110Y-7157379D01*
X7782920Y-7281189D02*
X7763872Y-7271665D01*
X7763872Y-7271665D02*
X7754349Y-7252617D01*
X7754349Y-7252617D02*
X7754349Y-7081189D01*
X7887682Y-7281189D02*
X7868634Y-7271665D01*
X7868634Y-7271665D02*
X7859110Y-7262141D01*
X7859110Y-7262141D02*
X7849587Y-7243093D01*
X7849587Y-7243093D02*
X7849587Y-7185951D01*
X7849587Y-7185951D02*
X7859110Y-7166903D01*
X7859110Y-7166903D02*
X7868634Y-7157379D01*
X7868634Y-7157379D02*
X7887682Y-7147855D01*
X7887682Y-7147855D02*
X7916253Y-7147855D01*
X7916253Y-7147855D02*
X7935301Y-7157379D01*
X7935301Y-7157379D02*
X7944825Y-7166903D01*
X7944825Y-7166903D02*
X7954349Y-7185951D01*
X7954349Y-7185951D02*
X7954349Y-7243093D01*
X7954349Y-7243093D02*
X7944825Y-7262141D01*
X7944825Y-7262141D02*
X7935301Y-7271665D01*
X7935301Y-7271665D02*
X7916253Y-7281189D01*
X7916253Y-7281189D02*
X7887682Y-7281189D01*
X8011491Y-7147855D02*
X8087682Y-7147855D01*
X8040063Y-7081189D02*
X8040063Y-7252617D01*
X8040063Y-7252617D02*
X8049587Y-7271665D01*
X8049587Y-7271665D02*
X8068634Y-7281189D01*
X8068634Y-7281189D02*
X8087682Y-7281189D01*
X8144825Y-7271665D02*
X8163872Y-7281189D01*
X8163872Y-7281189D02*
X8201968Y-7281189D01*
X8201968Y-7281189D02*
X8221015Y-7271665D01*
X8221015Y-7271665D02*
X8230539Y-7252617D01*
X8230539Y-7252617D02*
X8230539Y-7243093D01*
X8230539Y-7243093D02*
X8221015Y-7224046D01*
X8221015Y-7224046D02*
X8201968Y-7214522D01*
X8201968Y-7214522D02*
X8173396Y-7214522D01*
X8173396Y-7214522D02*
X8154349Y-7204998D01*
X8154349Y-7204998D02*
X8144825Y-7185951D01*
X8144825Y-7185951D02*
X8144825Y-7176427D01*
X8144825Y-7176427D02*
X8154349Y-7157379D01*
X8154349Y-7157379D02*
X8173396Y-7147855D01*
X8173396Y-7147855D02*
X8201968Y-7147855D01*
X8201968Y-7147855D02*
X8221015Y-7157379D01*
X8297206Y-7357379D02*
X8306730Y-7347855D01*
X8306730Y-7347855D02*
X8325777Y-7319284D01*
X8325777Y-7319284D02*
X8335301Y-7300236D01*
X8335301Y-7300236D02*
X8344825Y-7271665D01*
X8344825Y-7271665D02*
X8354349Y-7224046D01*
X8354349Y-7224046D02*
X8354349Y-7185951D01*
X8354349Y-7185951D02*
X8344825Y-7138332D01*
X8344825Y-7138332D02*
X8335301Y-7109760D01*
X8335301Y-7109760D02*
X8325777Y-7090713D01*
X8325777Y-7090713D02*
X8306730Y-7062141D01*
X8306730Y-7062141D02*
X8297206Y-7052617D01*
M02*
