%TF.GenerationSoftware,KiCad,Pcbnew,7.0.6*%
%TF.CreationDate,2024-04-06T15:43:43-04:00*%
%TF.ProjectId,peripheral_io_right_eth,70657269-7068-4657-9261-6c5f696f5f72,rev?*%
%TF.SameCoordinates,Original*%
%TF.FileFunction,Legend,Top*%
%TF.FilePolarity,Positive*%
%FSLAX46Y46*%
G04 Gerber Fmt 4.6, Leading zero omitted, Abs format (unit mm)*
G04 Created by KiCad (PCBNEW 7.0.6) date 2024-04-06 15:43:43*
%MOMM*%
%LPD*%
G01*
G04 APERTURE LIST*
%ADD10C,0.150000*%
%ADD11C,0.152400*%
G04 APERTURE END LIST*
D10*
X124582628Y-106879816D02*
X124630247Y-106832197D01*
X124630247Y-106832197D02*
X124725485Y-106784578D01*
X124725485Y-106784578D02*
X124963580Y-106784578D01*
X124963580Y-106784578D02*
X125058818Y-106832197D01*
X125058818Y-106832197D02*
X125106437Y-106879816D01*
X125106437Y-106879816D02*
X125154056Y-106975054D01*
X125154056Y-106975054D02*
X125154056Y-107070292D01*
X125154056Y-107070292D02*
X125106437Y-107213149D01*
X125106437Y-107213149D02*
X124535009Y-107784578D01*
X124535009Y-107784578D02*
X125154056Y-107784578D01*
X125773104Y-106784578D02*
X125868342Y-106784578D01*
X125868342Y-106784578D02*
X125963580Y-106832197D01*
X125963580Y-106832197D02*
X126011199Y-106879816D01*
X126011199Y-106879816D02*
X126058818Y-106975054D01*
X126058818Y-106975054D02*
X126106437Y-107165530D01*
X126106437Y-107165530D02*
X126106437Y-107403625D01*
X126106437Y-107403625D02*
X126058818Y-107594101D01*
X126058818Y-107594101D02*
X126011199Y-107689339D01*
X126011199Y-107689339D02*
X125963580Y-107736959D01*
X125963580Y-107736959D02*
X125868342Y-107784578D01*
X125868342Y-107784578D02*
X125773104Y-107784578D01*
X125773104Y-107784578D02*
X125677866Y-107736959D01*
X125677866Y-107736959D02*
X125630247Y-107689339D01*
X125630247Y-107689339D02*
X125582628Y-107594101D01*
X125582628Y-107594101D02*
X125535009Y-107403625D01*
X125535009Y-107403625D02*
X125535009Y-107165530D01*
X125535009Y-107165530D02*
X125582628Y-106975054D01*
X125582628Y-106975054D02*
X125630247Y-106879816D01*
X125630247Y-106879816D02*
X125677866Y-106832197D01*
X125677866Y-106832197D02*
X125773104Y-106784578D01*
X126439771Y-107784578D02*
X126963580Y-107117911D01*
X126439771Y-107117911D02*
X126963580Y-107784578D01*
X127201676Y-107117911D02*
X127582628Y-107117911D01*
X127344533Y-106784578D02*
X127344533Y-107641720D01*
X127344533Y-107641720D02*
X127392152Y-107736959D01*
X127392152Y-107736959D02*
X127487390Y-107784578D01*
X127487390Y-107784578D02*
X127582628Y-107784578D01*
X124630247Y-109394578D02*
X124630247Y-108727911D01*
X124630247Y-108918387D02*
X124677866Y-108823149D01*
X124677866Y-108823149D02*
X124725485Y-108775530D01*
X124725485Y-108775530D02*
X124820723Y-108727911D01*
X124820723Y-108727911D02*
X124915961Y-108727911D01*
X125249295Y-109394578D02*
X125249295Y-108727911D01*
X125249295Y-108394578D02*
X125201676Y-108442197D01*
X125201676Y-108442197D02*
X125249295Y-108489816D01*
X125249295Y-108489816D02*
X125296914Y-108442197D01*
X125296914Y-108442197D02*
X125249295Y-108394578D01*
X125249295Y-108394578D02*
X125249295Y-108489816D01*
X126154056Y-108727911D02*
X126154056Y-109537435D01*
X126154056Y-109537435D02*
X126106437Y-109632673D01*
X126106437Y-109632673D02*
X126058818Y-109680292D01*
X126058818Y-109680292D02*
X125963580Y-109727911D01*
X125963580Y-109727911D02*
X125820723Y-109727911D01*
X125820723Y-109727911D02*
X125725485Y-109680292D01*
X126154056Y-109346959D02*
X126058818Y-109394578D01*
X126058818Y-109394578D02*
X125868342Y-109394578D01*
X125868342Y-109394578D02*
X125773104Y-109346959D01*
X125773104Y-109346959D02*
X125725485Y-109299339D01*
X125725485Y-109299339D02*
X125677866Y-109204101D01*
X125677866Y-109204101D02*
X125677866Y-108918387D01*
X125677866Y-108918387D02*
X125725485Y-108823149D01*
X125725485Y-108823149D02*
X125773104Y-108775530D01*
X125773104Y-108775530D02*
X125868342Y-108727911D01*
X125868342Y-108727911D02*
X126058818Y-108727911D01*
X126058818Y-108727911D02*
X126154056Y-108775530D01*
X126630247Y-109394578D02*
X126630247Y-108394578D01*
X127058818Y-109394578D02*
X127058818Y-108870768D01*
X127058818Y-108870768D02*
X127011199Y-108775530D01*
X127011199Y-108775530D02*
X126915961Y-108727911D01*
X126915961Y-108727911D02*
X126773104Y-108727911D01*
X126773104Y-108727911D02*
X126677866Y-108775530D01*
X126677866Y-108775530D02*
X126630247Y-108823149D01*
X127392152Y-108727911D02*
X127773104Y-108727911D01*
X127535009Y-108394578D02*
X127535009Y-109251720D01*
X127535009Y-109251720D02*
X127582628Y-109346959D01*
X127582628Y-109346959D02*
X127677866Y-109394578D01*
X127677866Y-109394578D02*
X127773104Y-109394578D01*
X129249295Y-109346959D02*
X129154057Y-109394578D01*
X129154057Y-109394578D02*
X128963581Y-109394578D01*
X128963581Y-109394578D02*
X128868343Y-109346959D01*
X128868343Y-109346959D02*
X128820724Y-109251720D01*
X128820724Y-109251720D02*
X128820724Y-108870768D01*
X128820724Y-108870768D02*
X128868343Y-108775530D01*
X128868343Y-108775530D02*
X128963581Y-108727911D01*
X128963581Y-108727911D02*
X129154057Y-108727911D01*
X129154057Y-108727911D02*
X129249295Y-108775530D01*
X129249295Y-108775530D02*
X129296914Y-108870768D01*
X129296914Y-108870768D02*
X129296914Y-108966006D01*
X129296914Y-108966006D02*
X128820724Y-109061244D01*
X129582629Y-108727911D02*
X129963581Y-108727911D01*
X129725486Y-108394578D02*
X129725486Y-109251720D01*
X129725486Y-109251720D02*
X129773105Y-109346959D01*
X129773105Y-109346959D02*
X129868343Y-109394578D01*
X129868343Y-109394578D02*
X129963581Y-109394578D01*
X130296915Y-109394578D02*
X130296915Y-108394578D01*
X130725486Y-109394578D02*
X130725486Y-108870768D01*
X130725486Y-108870768D02*
X130677867Y-108775530D01*
X130677867Y-108775530D02*
X130582629Y-108727911D01*
X130582629Y-108727911D02*
X130439772Y-108727911D01*
X130439772Y-108727911D02*
X130344534Y-108775530D01*
X130344534Y-108775530D02*
X130296915Y-108823149D01*
X136061836Y-98640192D02*
X136566912Y-99145268D01*
X136566912Y-99145268D02*
X136634256Y-99279955D01*
X136634256Y-99279955D02*
X136634256Y-99414642D01*
X136634256Y-99414642D02*
X136566912Y-99549329D01*
X136566912Y-99549329D02*
X136499569Y-99616673D01*
X136331210Y-98370818D02*
X136768943Y-97933085D01*
X136768943Y-97933085D02*
X136802615Y-98438161D01*
X136802615Y-98438161D02*
X136903630Y-98337146D01*
X136903630Y-98337146D02*
X137004645Y-98303474D01*
X137004645Y-98303474D02*
X137071989Y-98303474D01*
X137071989Y-98303474D02*
X137173004Y-98337146D01*
X137173004Y-98337146D02*
X137341363Y-98505505D01*
X137341363Y-98505505D02*
X137375034Y-98606520D01*
X137375034Y-98606520D02*
X137375034Y-98673863D01*
X137375034Y-98673863D02*
X137341363Y-98774879D01*
X137341363Y-98774879D02*
X137139332Y-98976909D01*
X137139332Y-98976909D02*
X137038317Y-99010581D01*
X137038317Y-99010581D02*
X136970973Y-99010581D01*
D11*
%TO.C,J3*%
X147109740Y-98789991D02*
G75*
G03*
X147109740Y-98789991I-10426700J0D01*
G01*
%TD*%
M02*
