%TF.GenerationSoftware,KiCad,Pcbnew,7.0.10*%
%TF.CreationDate,2024-12-22T23:47:13-08:00*%
%TF.ProjectId,wsg1.0,77736731-2e30-42e6-9b69-6361645f7063,rev?*%
%TF.SameCoordinates,Original*%
%TF.FileFunction,Copper,L4,Bot*%
%TF.FilePolarity,Positive*%
%FSLAX46Y46*%
G04 Gerber Fmt 4.6, Leading zero omitted, Abs format (unit mm)*
G04 Created by KiCad (PCBNEW 7.0.10) date 2024-12-22 23:47:13*
%MOMM*%
%LPD*%
G01*
G04 APERTURE LIST*
G04 Aperture macros list*
%AMRoundRect*
0 Rectangle with rounded corners*
0 $1 Rounding radius*
0 $2 $3 $4 $5 $6 $7 $8 $9 X,Y pos of 4 corners*
0 Add a 4 corners polygon primitive as box body*
4,1,4,$2,$3,$4,$5,$6,$7,$8,$9,$2,$3,0*
0 Add four circle primitives for the rounded corners*
1,1,$1+$1,$2,$3*
1,1,$1+$1,$4,$5*
1,1,$1+$1,$6,$7*
1,1,$1+$1,$8,$9*
0 Add four rect primitives between the rounded corners*
20,1,$1+$1,$2,$3,$4,$5,0*
20,1,$1+$1,$4,$5,$6,$7,0*
20,1,$1+$1,$6,$7,$8,$9,0*
20,1,$1+$1,$8,$9,$2,$3,0*%
G04 Aperture macros list end*
%TA.AperFunction,ComponentPad*%
%ADD10C,1.700000*%
%TD*%
%TA.AperFunction,ComponentPad*%
%ADD11R,2.640000X2.640000*%
%TD*%
%TA.AperFunction,ComponentPad*%
%ADD12C,2.640000*%
%TD*%
%TA.AperFunction,ComponentPad*%
%ADD13RoundRect,0.250000X0.350000X0.625000X-0.350000X0.625000X-0.350000X-0.625000X0.350000X-0.625000X0*%
%TD*%
%TA.AperFunction,ComponentPad*%
%ADD14O,1.200000X1.750000*%
%TD*%
%TA.AperFunction,ComponentPad*%
%ADD15RoundRect,0.275000X-0.975000X-0.275000X0.975000X-0.275000X0.975000X0.275000X-0.975000X0.275000X0*%
%TD*%
%TA.AperFunction,ComponentPad*%
%ADD16O,2.000000X0.822200*%
%TD*%
%TA.AperFunction,ComponentPad*%
%ADD17O,2.000000X0.898400*%
%TD*%
%TA.AperFunction,ViaPad*%
%ADD18C,0.300000*%
%TD*%
%TA.AperFunction,ViaPad*%
%ADD19C,0.685800*%
%TD*%
%TA.AperFunction,Conductor*%
%ADD20C,0.127000*%
%TD*%
%TA.AperFunction,Conductor*%
%ADD21C,0.254000*%
%TD*%
G04 APERTURE END LIST*
D10*
%TO.P,J3,1,D-*%
%TO.N,USB_D-*%
X1480000Y-24490000D03*
%TO.P,J3,2,SHIELD*%
%TO.N,GNDA*%
X4020000Y-24490000D03*
%TO.P,J3,3,D+*%
%TO.N,USB_D+*%
X6560000Y-24490000D03*
%TO.P,J3,4,GND*%
%TO.N,GNDA*%
X1480000Y-10490000D03*
%TO.P,J3,5,VBUS*%
%TO.N,5V USB*%
X4020000Y-10490000D03*
%TO.P,J3,6,CC*%
%TO.N,Net-(J3-CC)*%
X6560000Y-10490000D03*
%TD*%
D11*
%TO.P,J1,1,1*%
%TO.N,S+*%
X48850000Y-9750000D03*
D12*
%TO.P,J1,2,2*%
%TO.N,S-*%
X53300000Y-9750000D03*
%TO.P,J1,3,3*%
%TO.N,2V5 Ref*%
X53300000Y-18870000D03*
%TO.P,J1,4,4*%
%TO.N,GNDA*%
X48850000Y-18870000D03*
%TD*%
D13*
%TO.P,J4,1,Pin_1*%
%TO.N,BAT-*%
X36770000Y-22950000D03*
D14*
%TO.P,J4,2,Pin_2*%
%TO.N,BAT+*%
X34770000Y-22950000D03*
%TD*%
D15*
%TO.P,U1,15,BAT-*%
%TO.N,BAT-*%
X27161700Y-19456400D03*
%TO.P,U1,16,Bat+*%
%TO.N,BAT+*%
X27161700Y-16916400D03*
D10*
%TO.P,U1,17,MTDO*%
%TO.N,unconnected-(U1-MTDO-Pad17)*%
X12988500Y-18948400D03*
%TO.P,U1,18,MTDI*%
%TO.N,unconnected-(U1-MTDI-Pad18)*%
X13016500Y-16408400D03*
%TO.P,U1,19,GND*%
%TO.N,unconnected-(U1-GND-Pad19)*%
X15528500Y-18948400D03*
%TO.P,U1,20,EN*%
%TO.N,unconnected-(U1-EN-Pad20)*%
X15528500Y-16408400D03*
%TO.P,U1,21,MTCK*%
%TO.N,unconnected-(U1-MTCK-Pad21)*%
X18068500Y-18948400D03*
%TO.P,U1,22,MTMS*%
%TO.N,unconnected-(U1-MTMS-Pad22)*%
X18068500Y-16408400D03*
%TO.P,U1,23,3v3*%
%TO.N,unconnected-(U1-3v3-Pad23)*%
X20608500Y-18948400D03*
%TO.P,U1,24,BOOT*%
%TO.N,unconnected-(U1-BOOT-Pad24)*%
X20551700Y-16501000D03*
%TD*%
D16*
%TO.P,J2,MH1,MH1*%
%TO.N,unconnected-(J2-PadMH1)*%
X2440000Y-720000D03*
D17*
%TO.P,J2,MH2,MH2*%
%TO.N,unconnected-(J2-PadMH2)*%
X2440000Y-8220000D03*
%TD*%
D18*
%TO.N,MOSI_ADC*%
X20980000Y-7170000D03*
%TO.N,SCLK_ADC*%
X27350000Y-6710000D03*
D19*
%TO.N,GNDA*%
X35850000Y-6670000D03*
X35100000Y-6570000D03*
X15860000Y-11530000D03*
X28600000Y-4860000D03*
X43110000Y-20670000D03*
X11550000Y-8300000D03*
X11670000Y-3450000D03*
X42090000Y-21660000D03*
X42060000Y-22640000D03*
X11670000Y-2480000D03*
X36620000Y-6590000D03*
X23422504Y-5157607D03*
X44460000Y-11050000D03*
X9540000Y-23580000D03*
X34950000Y-25480000D03*
X44350000Y-4180000D03*
X38370000Y-4290000D03*
X39240000Y-22630000D03*
X38380000Y-6160000D03*
X16590000Y-12600000D03*
X14090000Y-950000D03*
X36360000Y-10810000D03*
X43900000Y-1910000D03*
X17300000Y-11530000D03*
X43510000Y-27540000D03*
X40440000Y-5680000D03*
%TO.N,5V5*%
X40820000Y-4250000D03*
X9290000Y-12310000D03*
X35510000Y-10900000D03*
X16310000Y-4540000D03*
X39220000Y-21040000D03*
X39280000Y-24150000D03*
X35210000Y-26510000D03*
X35850000Y-890000D03*
%TO.N,2V5 Ref*%
X37120000Y-910000D03*
%TO.N,DAC Bias*%
X37480000Y-5470000D03*
X38160000Y-12140000D03*
D18*
X42740000Y-3190000D03*
D19*
%TO.N,3V3*%
X31913400Y-2480000D03*
X19030000Y-11550000D03*
X29150000Y-3490000D03*
X19700000Y-12680000D03*
X29040000Y-2560000D03*
X23380000Y-4040000D03*
X21880000Y-27730000D03*
X18300000Y-12730000D03*
%TO.N,ADC DReady*%
X19540000Y-22590000D03*
X34160000Y-2240000D03*
D18*
%TO.N,MISO*%
X23450000Y-5900000D03*
X31900000Y-4670000D03*
D19*
%TO.N,CS-ADC*%
X34080000Y-5530000D03*
X24140000Y-21650000D03*
%TO.N,CS-MEM*%
X18870000Y-27700000D03*
X23390000Y-2150000D03*
%TO.N,Net-(PS2-FB)*%
X15560000Y-7140000D03*
X11800000Y-9790000D03*
%TO.N,CS-DAC*%
X36380000Y-9440000D03*
X17860000Y-23550000D03*
%TO.N,Net-(J3-CC)*%
X9730000Y-20530000D03*
D18*
%TO.N,MOSI_ADC*%
X32420000Y-5440000D03*
%TO.N,SCLK_ADC*%
X32980000Y-6240000D03*
%TD*%
D20*
%TO.N,MOSI_ADC*%
X21770000Y-6400000D02*
X20990000Y-7180000D01*
X31650000Y-6210000D02*
X24035488Y-6210000D01*
X32420000Y-5440000D02*
X31650000Y-6210000D01*
X23845488Y-6400000D02*
X21770000Y-6400000D01*
X24035488Y-6210000D02*
X23845488Y-6400000D01*
%TO.N,MISO*%
X23630000Y-5720000D02*
X23450000Y-5900000D01*
X31570000Y-5720000D02*
X23630000Y-5720000D01*
X31900000Y-5390000D02*
X31570000Y-5720000D01*
X31900000Y-4670000D02*
X31900000Y-5390000D01*
%TO.N,SCLK_ADC*%
X27360000Y-6700000D02*
X27350000Y-6710000D01*
X28200000Y-6700000D02*
X27360000Y-6700000D01*
%TO.N,DAC Bias*%
X40570000Y-3670000D02*
X41050000Y-3190000D01*
D21*
X38652072Y-5587928D02*
X38534144Y-5470000D01*
D20*
X38652072Y-5587928D02*
X40570000Y-3670000D01*
D21*
X39170000Y-11130000D02*
X38160000Y-12140000D01*
D20*
X41050000Y-3190000D02*
X42740000Y-3190000D01*
D21*
X38534144Y-5470000D02*
X37480000Y-5470000D01*
X38652072Y-5587928D02*
X39170000Y-6105856D01*
X39170000Y-6105856D02*
X39170000Y-11130000D01*
D20*
%TO.N,ADC DReady*%
X34160000Y-2240000D02*
X33443500Y-2956500D01*
X19540000Y-22262954D02*
X19540000Y-22590000D01*
X33443500Y-2956500D02*
X33443500Y-8359454D01*
X33443500Y-8359454D02*
X19540000Y-22262954D01*
%TO.N,CS-ADC*%
X24140000Y-21650000D02*
X24140000Y-18022164D01*
X34080000Y-8082164D02*
X34080000Y-5530000D01*
X24140000Y-18022164D02*
X34080000Y-8082164D01*
%TO.N,CS-MEM*%
X23190000Y-2150000D02*
X23390000Y-2150000D01*
X18390000Y-27700000D02*
X11540000Y-20850000D01*
X18870000Y-27700000D02*
X18390000Y-27700000D01*
X11540000Y-13800000D02*
X23190000Y-2150000D01*
X11540000Y-20850000D02*
X11540000Y-13800000D01*
%TO.N,Net-(PS2-FB)*%
X11800000Y-9790000D02*
X11800000Y-9260000D01*
X14930000Y-7770000D02*
X15560000Y-7140000D01*
X11800000Y-9260000D02*
X13290000Y-7770000D01*
X13290000Y-7770000D02*
X14930000Y-7770000D01*
%TO.N,CS-DAC*%
X17860000Y-23550000D02*
X17880000Y-23530000D01*
X35590000Y-9440000D02*
X36380000Y-9440000D01*
X28854100Y-21215900D02*
X28854100Y-16175900D01*
X28854100Y-16175900D02*
X35590000Y-9440000D01*
X17880000Y-23530000D02*
X26540000Y-23530000D01*
X26540000Y-23530000D02*
X28854100Y-21215900D01*
D21*
%TO.N,Net-(J3-CC)*%
X9730000Y-18350000D02*
X7670000Y-16290000D01*
X7670000Y-16290000D02*
X7670000Y-11600000D01*
X7670000Y-11600000D02*
X6560000Y-10490000D01*
X9730000Y-20530000D02*
X9730000Y-18350000D01*
D20*
%TO.N,SCLK_ADC*%
X32520000Y-6700000D02*
X28200000Y-6700000D01*
X32980000Y-6240000D02*
X32520000Y-6700000D01*
%TD*%
M02*
