%TF.GenerationSoftware,KiCad,Pcbnew,7.0.11*%
%TF.CreationDate,2024-12-08T12:57:26-05:00*%
%TF.ProjectId,wsg1.0,77736731-2e30-42e6-9b69-6361645f7063,rev?*%
%TF.SameCoordinates,Original*%
%TF.FileFunction,Drillmap*%
%TF.FilePolarity,Positive*%
%FSLAX45Y45*%
G04 Gerber Fmt 4.5, Leading zero omitted, Abs format (unit mm)*
G04 Created by KiCad (PCBNEW 7.0.11) date 2024-12-08 12:57:26*
%MOMM*%
%LPD*%
G01*
G04 APERTURE LIST*
%ADD10C,0.100000*%
%ADD11C,0.200000*%
%ADD12C,0.102000*%
%ADD13C,0.170000*%
%ADD14C,0.170180*%
%ADD15C,0.238760*%
G04 APERTURE END LIST*
D10*
X11581000Y-12300000D02*
X17111000Y-12300000D01*
X17111000Y-15170000D01*
X11581000Y-15170000D01*
X11581000Y-12300000D01*
D11*
D10*
X14364000Y-13307000D02*
X14384000Y-13327000D01*
X14384000Y-13307000D02*
X14364000Y-13327000D01*
X14498000Y-13006950D02*
X14518000Y-13026950D01*
X14518000Y-13006950D02*
X14498000Y-13026950D01*
X15370250Y-13219250D02*
X15390250Y-13239250D01*
X15390250Y-13219250D02*
X15370250Y-13239250D01*
X15518520Y-13268520D02*
X15538520Y-13288520D01*
X15538520Y-13268520D02*
X15518520Y-13288520D01*
X14581000Y-12419000D02*
G75*
G03*
X14551000Y-12419000I-15000J0D01*
G01*
X14551000Y-12419000D02*
G75*
G03*
X14581000Y-12419000I15000J0D01*
G01*
X12212000Y-13495000D02*
X12212000Y-13535000D01*
X12192000Y-13515000D02*
X12232000Y-13515000D01*
X12940000Y-12520000D02*
X12940000Y-12560000D01*
X12920000Y-12540000D02*
X12960000Y-12540000D01*
X13138000Y-13253000D02*
X13138000Y-13293000D01*
X13118000Y-13273000D02*
X13158000Y-13273000D01*
X13194000Y-13025000D02*
X13194000Y-13065000D01*
X13174000Y-13045000D02*
X13214000Y-13045000D01*
X13383500Y-12452500D02*
X13383500Y-12492500D01*
X13363500Y-12472500D02*
X13403500Y-12472500D01*
X13431000Y-12764000D02*
X13431000Y-12804000D01*
X13411000Y-12784000D02*
X13451000Y-12784000D01*
X13522000Y-14650000D02*
X13522000Y-14690000D01*
X13502000Y-14670000D02*
X13542000Y-14670000D01*
X13663000Y-12811000D02*
X13663000Y-12851000D01*
X13643000Y-12831000D02*
X13683000Y-12831000D01*
X13740000Y-14627000D02*
X13740000Y-14667000D01*
X13720000Y-14647000D02*
X13760000Y-14647000D01*
X13788033Y-13708033D02*
X13788033Y-13748033D01*
X13768033Y-13728033D02*
X13808033Y-13728033D01*
X13847000Y-12687000D02*
X13847000Y-12727000D01*
X13827000Y-12707000D02*
X13867000Y-12707000D01*
X13942000Y-14326000D02*
X13942000Y-14366000D01*
X13922000Y-14346000D02*
X13962000Y-14346000D01*
X13981000Y-12487000D02*
X13981000Y-12527000D01*
X13961000Y-12507000D02*
X14001000Y-12507000D01*
X14040000Y-12389000D02*
X14040000Y-12429000D01*
X14020000Y-12409000D02*
X14060000Y-12409000D01*
X14044000Y-12582000D02*
X14044000Y-12622000D01*
X14024000Y-12602000D02*
X14064000Y-12602000D01*
X14098000Y-13304000D02*
X14098000Y-13344000D01*
X14078000Y-13324000D02*
X14118000Y-13324000D01*
X14206000Y-13725000D02*
X14206000Y-13765000D01*
X14186000Y-13745000D02*
X14226000Y-13745000D01*
X14395000Y-12837050D02*
X14395000Y-12877050D01*
X14375000Y-12857050D02*
X14415000Y-12857050D01*
X14697000Y-12691000D02*
X14697000Y-12731000D01*
X14677000Y-12711000D02*
X14717000Y-12711000D01*
X14741000Y-13064000D02*
X14741000Y-13104000D01*
X14721000Y-13084000D02*
X14761000Y-13084000D01*
X14856000Y-14475000D02*
X14856000Y-14515000D01*
X14836000Y-14495000D02*
X14876000Y-14495000D01*
X14864000Y-14132000D02*
X14864000Y-14172000D01*
X14844000Y-14152000D02*
X14884000Y-14152000D01*
X14866000Y-14896000D02*
X14866000Y-14936000D01*
X14846000Y-14916000D02*
X14886000Y-14916000D01*
X15223000Y-13303950D02*
X15223000Y-13343950D01*
X15203000Y-13323950D02*
X15243000Y-13323950D01*
X15289000Y-13668000D02*
X15289000Y-13708000D01*
X15269000Y-13688000D02*
X15309000Y-13688000D01*
X15481000Y-13978000D02*
X15481000Y-14018000D01*
X15461000Y-13998000D02*
X15501000Y-13998000D01*
X15737000Y-14177000D02*
X15737000Y-14217000D01*
X15717000Y-14197000D02*
X15757000Y-14197000D01*
X15776000Y-14550000D02*
X15776000Y-14590000D01*
X15756000Y-14570000D02*
X15796000Y-14570000D01*
X15965500Y-12807000D02*
X15965500Y-12847000D01*
X15945500Y-12827000D02*
X15985500Y-12827000D01*
X16070000Y-14301000D02*
X16070000Y-14341000D01*
X16050000Y-14321000D02*
X16090000Y-14321000D01*
X16182000Y-14178000D02*
X16182000Y-14218000D01*
X16162000Y-14198000D02*
X16202000Y-14198000D01*
X16330000Y-14643000D02*
X16330000Y-14683000D01*
X16310000Y-14663000D02*
X16350000Y-14663000D01*
X16760000Y-13134000D02*
X16760000Y-13174000D01*
X16740000Y-13154000D02*
X16780000Y-13154000D01*
D12*
X12983063Y-13538063D02*
X12983063Y-13465937D01*
X12910937Y-13465937D01*
X12910937Y-13538063D01*
X12983063Y-13538063D01*
X12983063Y-15062063D02*
X12983063Y-14989937D01*
X12910937Y-14989937D01*
X12910937Y-15062063D01*
X12983063Y-15062063D01*
X13237063Y-13538063D02*
X13237063Y-13465937D01*
X13164937Y-13465937D01*
X13164937Y-13538063D01*
X13237063Y-13538063D01*
X13237063Y-15062063D02*
X13237063Y-14989937D01*
X13164937Y-14989937D01*
X13164937Y-15062063D01*
X13237063Y-15062063D01*
X13491063Y-13538063D02*
X13491063Y-13465937D01*
X13418937Y-13465937D01*
X13418937Y-13538063D01*
X13491063Y-13538063D01*
X13491063Y-15062063D02*
X13491063Y-14989937D01*
X13418937Y-14989937D01*
X13418937Y-15062063D01*
X13491063Y-15062063D01*
X13745063Y-13538063D02*
X13745063Y-13465937D01*
X13672937Y-13465937D01*
X13672937Y-13538063D01*
X13745063Y-13538063D01*
X13745063Y-15062063D02*
X13745063Y-14989937D01*
X13672937Y-14989937D01*
X13672937Y-15062063D01*
X13745063Y-15062063D01*
X13999063Y-13538063D02*
X13999063Y-13465937D01*
X13926937Y-13465937D01*
X13926937Y-13538063D01*
X13999063Y-13538063D01*
X13999063Y-15062063D02*
X13999063Y-14989937D01*
X13926937Y-14989937D01*
X13926937Y-15062063D01*
X13999063Y-15062063D01*
X14253063Y-13538063D02*
X14253063Y-13465937D01*
X14180937Y-13465937D01*
X14180937Y-13538063D01*
X14253063Y-13538063D01*
X14253063Y-15062063D02*
X14253063Y-14989937D01*
X14180937Y-14989937D01*
X14180937Y-15062063D01*
X14253063Y-15062063D01*
X14507063Y-13538063D02*
X14507063Y-13465937D01*
X14434937Y-13465937D01*
X14434937Y-13538063D01*
X14507063Y-13538063D01*
X14507063Y-15062063D02*
X14507063Y-14989937D01*
X14434937Y-14989937D01*
X14434937Y-15062063D01*
X14507063Y-15062063D01*
D13*
X11870000Y-12599000D02*
X11955000Y-12514000D01*
X11870000Y-12429000D01*
X11785000Y-12514000D01*
X11870000Y-12599000D01*
X11870000Y-13349000D02*
X11955000Y-13264000D01*
X11870000Y-13179000D01*
X11785000Y-13264000D01*
X11870000Y-13349000D01*
D14*
X16400910Y-13188910D02*
X16571090Y-13359090D01*
X16571090Y-13188910D02*
X16400910Y-13359090D01*
X16571090Y-13274000D02*
G75*
G03*
X16400910Y-13274000I-85090J0D01*
G01*
X16400910Y-13274000D02*
G75*
G03*
X16571090Y-13274000I85090J0D01*
G01*
X16400910Y-14098910D02*
X16571090Y-14269090D01*
X16571090Y-14098910D02*
X16400910Y-14269090D01*
X16571090Y-14184000D02*
G75*
G03*
X16400910Y-14184000I-85090J0D01*
G01*
X16400910Y-14184000D02*
G75*
G03*
X16571090Y-14184000I85090J0D01*
G01*
X16842910Y-13188910D02*
X17013090Y-13359090D01*
X17013090Y-13188910D02*
X16842910Y-13359090D01*
X17013090Y-13274000D02*
G75*
G03*
X16842910Y-13274000I-85090J0D01*
G01*
X16842910Y-13274000D02*
G75*
G03*
X17013090Y-13274000I85090J0D01*
G01*
X16842910Y-14098910D02*
X17013090Y-14269090D01*
X17013090Y-14098910D02*
X16842910Y-14269090D01*
X17013090Y-14184000D02*
G75*
G03*
X16842910Y-14184000I-85090J0D01*
G01*
X16842910Y-14184000D02*
G75*
G03*
X17013090Y-14184000I85090J0D01*
G01*
D15*
X16587620Y-12568120D02*
X16826380Y-12806880D01*
X16826380Y-12568120D02*
X16587620Y-12806880D01*
X16707000Y-12568120D02*
X16707000Y-12806880D01*
X16587620Y-12687500D02*
X16826380Y-12687500D01*
X16587620Y-14651120D02*
X16826380Y-14889880D01*
X16826380Y-14651120D02*
X16587620Y-14889880D01*
X16707000Y-14651120D02*
X16707000Y-14889880D01*
X16587620Y-14770500D02*
X16826380Y-14770500D01*
D11*
X11836777Y-15486484D02*
X11836777Y-15286484D01*
X11836777Y-15286484D02*
X11884396Y-15286484D01*
X11884396Y-15286484D02*
X11912967Y-15296008D01*
X11912967Y-15296008D02*
X11932015Y-15315055D01*
X11932015Y-15315055D02*
X11941539Y-15334103D01*
X11941539Y-15334103D02*
X11951062Y-15372198D01*
X11951062Y-15372198D02*
X11951062Y-15400769D01*
X11951062Y-15400769D02*
X11941539Y-15438865D01*
X11941539Y-15438865D02*
X11932015Y-15457912D01*
X11932015Y-15457912D02*
X11912967Y-15476960D01*
X11912967Y-15476960D02*
X11884396Y-15486484D01*
X11884396Y-15486484D02*
X11836777Y-15486484D01*
X12036777Y-15486484D02*
X12036777Y-15353150D01*
X12036777Y-15391246D02*
X12046301Y-15372198D01*
X12046301Y-15372198D02*
X12055824Y-15362674D01*
X12055824Y-15362674D02*
X12074872Y-15353150D01*
X12074872Y-15353150D02*
X12093920Y-15353150D01*
X12160586Y-15486484D02*
X12160586Y-15353150D01*
X12160586Y-15286484D02*
X12151062Y-15296008D01*
X12151062Y-15296008D02*
X12160586Y-15305531D01*
X12160586Y-15305531D02*
X12170110Y-15296008D01*
X12170110Y-15296008D02*
X12160586Y-15286484D01*
X12160586Y-15286484D02*
X12160586Y-15305531D01*
X12284396Y-15486484D02*
X12265348Y-15476960D01*
X12265348Y-15476960D02*
X12255824Y-15457912D01*
X12255824Y-15457912D02*
X12255824Y-15286484D01*
X12389158Y-15486484D02*
X12370110Y-15476960D01*
X12370110Y-15476960D02*
X12360586Y-15457912D01*
X12360586Y-15457912D02*
X12360586Y-15286484D01*
X12617729Y-15486484D02*
X12617729Y-15286484D01*
X12617729Y-15286484D02*
X12684396Y-15429341D01*
X12684396Y-15429341D02*
X12751062Y-15286484D01*
X12751062Y-15286484D02*
X12751062Y-15486484D01*
X12932015Y-15486484D02*
X12932015Y-15381722D01*
X12932015Y-15381722D02*
X12922491Y-15362674D01*
X12922491Y-15362674D02*
X12903443Y-15353150D01*
X12903443Y-15353150D02*
X12865348Y-15353150D01*
X12865348Y-15353150D02*
X12846301Y-15362674D01*
X12932015Y-15476960D02*
X12912967Y-15486484D01*
X12912967Y-15486484D02*
X12865348Y-15486484D01*
X12865348Y-15486484D02*
X12846301Y-15476960D01*
X12846301Y-15476960D02*
X12836777Y-15457912D01*
X12836777Y-15457912D02*
X12836777Y-15438865D01*
X12836777Y-15438865D02*
X12846301Y-15419817D01*
X12846301Y-15419817D02*
X12865348Y-15410293D01*
X12865348Y-15410293D02*
X12912967Y-15410293D01*
X12912967Y-15410293D02*
X12932015Y-15400769D01*
X13027253Y-15353150D02*
X13027253Y-15553150D01*
X13027253Y-15362674D02*
X13046301Y-15353150D01*
X13046301Y-15353150D02*
X13084396Y-15353150D01*
X13084396Y-15353150D02*
X13103443Y-15362674D01*
X13103443Y-15362674D02*
X13112967Y-15372198D01*
X13112967Y-15372198D02*
X13122491Y-15391246D01*
X13122491Y-15391246D02*
X13122491Y-15448388D01*
X13122491Y-15448388D02*
X13112967Y-15467436D01*
X13112967Y-15467436D02*
X13103443Y-15476960D01*
X13103443Y-15476960D02*
X13084396Y-15486484D01*
X13084396Y-15486484D02*
X13046301Y-15486484D01*
X13046301Y-15486484D02*
X13027253Y-15476960D01*
X13208205Y-15467436D02*
X13217729Y-15476960D01*
X13217729Y-15476960D02*
X13208205Y-15486484D01*
X13208205Y-15486484D02*
X13198682Y-15476960D01*
X13198682Y-15476960D02*
X13208205Y-15467436D01*
X13208205Y-15467436D02*
X13208205Y-15486484D01*
X13208205Y-15362674D02*
X13217729Y-15372198D01*
X13217729Y-15372198D02*
X13208205Y-15381722D01*
X13208205Y-15381722D02*
X13198682Y-15372198D01*
X13198682Y-15372198D02*
X13208205Y-15362674D01*
X13208205Y-15362674D02*
X13208205Y-15381722D01*
D10*
X11556000Y-15805000D02*
X11576000Y-15825000D01*
X11576000Y-15805000D02*
X11556000Y-15825000D01*
D11*
X11874872Y-15706484D02*
X11893920Y-15706484D01*
X11893920Y-15706484D02*
X11912967Y-15716008D01*
X11912967Y-15716008D02*
X11922491Y-15725531D01*
X11922491Y-15725531D02*
X11932015Y-15744579D01*
X11932015Y-15744579D02*
X11941539Y-15782674D01*
X11941539Y-15782674D02*
X11941539Y-15830293D01*
X11941539Y-15830293D02*
X11932015Y-15868388D01*
X11932015Y-15868388D02*
X11922491Y-15887436D01*
X11922491Y-15887436D02*
X11912967Y-15896960D01*
X11912967Y-15896960D02*
X11893920Y-15906484D01*
X11893920Y-15906484D02*
X11874872Y-15906484D01*
X11874872Y-15906484D02*
X11855824Y-15896960D01*
X11855824Y-15896960D02*
X11846301Y-15887436D01*
X11846301Y-15887436D02*
X11836777Y-15868388D01*
X11836777Y-15868388D02*
X11827253Y-15830293D01*
X11827253Y-15830293D02*
X11827253Y-15782674D01*
X11827253Y-15782674D02*
X11836777Y-15744579D01*
X11836777Y-15744579D02*
X11846301Y-15725531D01*
X11846301Y-15725531D02*
X11855824Y-15716008D01*
X11855824Y-15716008D02*
X11874872Y-15706484D01*
X12027253Y-15887436D02*
X12036777Y-15896960D01*
X12036777Y-15896960D02*
X12027253Y-15906484D01*
X12027253Y-15906484D02*
X12017729Y-15896960D01*
X12017729Y-15896960D02*
X12027253Y-15887436D01*
X12027253Y-15887436D02*
X12027253Y-15906484D01*
X12112967Y-15725531D02*
X12122491Y-15716008D01*
X12122491Y-15716008D02*
X12141539Y-15706484D01*
X12141539Y-15706484D02*
X12189158Y-15706484D01*
X12189158Y-15706484D02*
X12208205Y-15716008D01*
X12208205Y-15716008D02*
X12217729Y-15725531D01*
X12217729Y-15725531D02*
X12227253Y-15744579D01*
X12227253Y-15744579D02*
X12227253Y-15763627D01*
X12227253Y-15763627D02*
X12217729Y-15792198D01*
X12217729Y-15792198D02*
X12103443Y-15906484D01*
X12103443Y-15906484D02*
X12227253Y-15906484D01*
X12351062Y-15706484D02*
X12370110Y-15706484D01*
X12370110Y-15706484D02*
X12389158Y-15716008D01*
X12389158Y-15716008D02*
X12398682Y-15725531D01*
X12398682Y-15725531D02*
X12408205Y-15744579D01*
X12408205Y-15744579D02*
X12417729Y-15782674D01*
X12417729Y-15782674D02*
X12417729Y-15830293D01*
X12417729Y-15830293D02*
X12408205Y-15868388D01*
X12408205Y-15868388D02*
X12398682Y-15887436D01*
X12398682Y-15887436D02*
X12389158Y-15896960D01*
X12389158Y-15896960D02*
X12370110Y-15906484D01*
X12370110Y-15906484D02*
X12351062Y-15906484D01*
X12351062Y-15906484D02*
X12332015Y-15896960D01*
X12332015Y-15896960D02*
X12322491Y-15887436D01*
X12322491Y-15887436D02*
X12312967Y-15868388D01*
X12312967Y-15868388D02*
X12303443Y-15830293D01*
X12303443Y-15830293D02*
X12303443Y-15782674D01*
X12303443Y-15782674D02*
X12312967Y-15744579D01*
X12312967Y-15744579D02*
X12322491Y-15725531D01*
X12322491Y-15725531D02*
X12332015Y-15716008D01*
X12332015Y-15716008D02*
X12351062Y-15706484D01*
X12541539Y-15706484D02*
X12560586Y-15706484D01*
X12560586Y-15706484D02*
X12579634Y-15716008D01*
X12579634Y-15716008D02*
X12589158Y-15725531D01*
X12589158Y-15725531D02*
X12598682Y-15744579D01*
X12598682Y-15744579D02*
X12608205Y-15782674D01*
X12608205Y-15782674D02*
X12608205Y-15830293D01*
X12608205Y-15830293D02*
X12598682Y-15868388D01*
X12598682Y-15868388D02*
X12589158Y-15887436D01*
X12589158Y-15887436D02*
X12579634Y-15896960D01*
X12579634Y-15896960D02*
X12560586Y-15906484D01*
X12560586Y-15906484D02*
X12541539Y-15906484D01*
X12541539Y-15906484D02*
X12522491Y-15896960D01*
X12522491Y-15896960D02*
X12512967Y-15887436D01*
X12512967Y-15887436D02*
X12503443Y-15868388D01*
X12503443Y-15868388D02*
X12493920Y-15830293D01*
X12493920Y-15830293D02*
X12493920Y-15782674D01*
X12493920Y-15782674D02*
X12503443Y-15744579D01*
X12503443Y-15744579D02*
X12512967Y-15725531D01*
X12512967Y-15725531D02*
X12522491Y-15716008D01*
X12522491Y-15716008D02*
X12541539Y-15706484D01*
X12693920Y-15906484D02*
X12693920Y-15773150D01*
X12693920Y-15792198D02*
X12703443Y-15782674D01*
X12703443Y-15782674D02*
X12722491Y-15773150D01*
X12722491Y-15773150D02*
X12751063Y-15773150D01*
X12751063Y-15773150D02*
X12770110Y-15782674D01*
X12770110Y-15782674D02*
X12779634Y-15801722D01*
X12779634Y-15801722D02*
X12779634Y-15906484D01*
X12779634Y-15801722D02*
X12789158Y-15782674D01*
X12789158Y-15782674D02*
X12808205Y-15773150D01*
X12808205Y-15773150D02*
X12836777Y-15773150D01*
X12836777Y-15773150D02*
X12855824Y-15782674D01*
X12855824Y-15782674D02*
X12865348Y-15801722D01*
X12865348Y-15801722D02*
X12865348Y-15906484D01*
X12960586Y-15906484D02*
X12960586Y-15773150D01*
X12960586Y-15792198D02*
X12970110Y-15782674D01*
X12970110Y-15782674D02*
X12989158Y-15773150D01*
X12989158Y-15773150D02*
X13017729Y-15773150D01*
X13017729Y-15773150D02*
X13036777Y-15782674D01*
X13036777Y-15782674D02*
X13046301Y-15801722D01*
X13046301Y-15801722D02*
X13046301Y-15906484D01*
X13046301Y-15801722D02*
X13055824Y-15782674D01*
X13055824Y-15782674D02*
X13074872Y-15773150D01*
X13074872Y-15773150D02*
X13103443Y-15773150D01*
X13103443Y-15773150D02*
X13122491Y-15782674D01*
X13122491Y-15782674D02*
X13132015Y-15801722D01*
X13132015Y-15801722D02*
X13132015Y-15906484D01*
X13522491Y-15696960D02*
X13351063Y-15954103D01*
X13779634Y-15706484D02*
X13798682Y-15706484D01*
X13798682Y-15706484D02*
X13817729Y-15716008D01*
X13817729Y-15716008D02*
X13827253Y-15725531D01*
X13827253Y-15725531D02*
X13836777Y-15744579D01*
X13836777Y-15744579D02*
X13846301Y-15782674D01*
X13846301Y-15782674D02*
X13846301Y-15830293D01*
X13846301Y-15830293D02*
X13836777Y-15868388D01*
X13836777Y-15868388D02*
X13827253Y-15887436D01*
X13827253Y-15887436D02*
X13817729Y-15896960D01*
X13817729Y-15896960D02*
X13798682Y-15906484D01*
X13798682Y-15906484D02*
X13779634Y-15906484D01*
X13779634Y-15906484D02*
X13760586Y-15896960D01*
X13760586Y-15896960D02*
X13751063Y-15887436D01*
X13751063Y-15887436D02*
X13741539Y-15868388D01*
X13741539Y-15868388D02*
X13732015Y-15830293D01*
X13732015Y-15830293D02*
X13732015Y-15782674D01*
X13732015Y-15782674D02*
X13741539Y-15744579D01*
X13741539Y-15744579D02*
X13751063Y-15725531D01*
X13751063Y-15725531D02*
X13760586Y-15716008D01*
X13760586Y-15716008D02*
X13779634Y-15706484D01*
X13932015Y-15887436D02*
X13941539Y-15896960D01*
X13941539Y-15896960D02*
X13932015Y-15906484D01*
X13932015Y-15906484D02*
X13922491Y-15896960D01*
X13922491Y-15896960D02*
X13932015Y-15887436D01*
X13932015Y-15887436D02*
X13932015Y-15906484D01*
X14065348Y-15706484D02*
X14084396Y-15706484D01*
X14084396Y-15706484D02*
X14103444Y-15716008D01*
X14103444Y-15716008D02*
X14112967Y-15725531D01*
X14112967Y-15725531D02*
X14122491Y-15744579D01*
X14122491Y-15744579D02*
X14132015Y-15782674D01*
X14132015Y-15782674D02*
X14132015Y-15830293D01*
X14132015Y-15830293D02*
X14122491Y-15868388D01*
X14122491Y-15868388D02*
X14112967Y-15887436D01*
X14112967Y-15887436D02*
X14103444Y-15896960D01*
X14103444Y-15896960D02*
X14084396Y-15906484D01*
X14084396Y-15906484D02*
X14065348Y-15906484D01*
X14065348Y-15906484D02*
X14046301Y-15896960D01*
X14046301Y-15896960D02*
X14036777Y-15887436D01*
X14036777Y-15887436D02*
X14027253Y-15868388D01*
X14027253Y-15868388D02*
X14017729Y-15830293D01*
X14017729Y-15830293D02*
X14017729Y-15782674D01*
X14017729Y-15782674D02*
X14027253Y-15744579D01*
X14027253Y-15744579D02*
X14036777Y-15725531D01*
X14036777Y-15725531D02*
X14046301Y-15716008D01*
X14046301Y-15716008D02*
X14065348Y-15706484D01*
X14255825Y-15706484D02*
X14274872Y-15706484D01*
X14274872Y-15706484D02*
X14293920Y-15716008D01*
X14293920Y-15716008D02*
X14303444Y-15725531D01*
X14303444Y-15725531D02*
X14312967Y-15744579D01*
X14312967Y-15744579D02*
X14322491Y-15782674D01*
X14322491Y-15782674D02*
X14322491Y-15830293D01*
X14322491Y-15830293D02*
X14312967Y-15868388D01*
X14312967Y-15868388D02*
X14303444Y-15887436D01*
X14303444Y-15887436D02*
X14293920Y-15896960D01*
X14293920Y-15896960D02*
X14274872Y-15906484D01*
X14274872Y-15906484D02*
X14255825Y-15906484D01*
X14255825Y-15906484D02*
X14236777Y-15896960D01*
X14236777Y-15896960D02*
X14227253Y-15887436D01*
X14227253Y-15887436D02*
X14217729Y-15868388D01*
X14217729Y-15868388D02*
X14208206Y-15830293D01*
X14208206Y-15830293D02*
X14208206Y-15782674D01*
X14208206Y-15782674D02*
X14217729Y-15744579D01*
X14217729Y-15744579D02*
X14227253Y-15725531D01*
X14227253Y-15725531D02*
X14236777Y-15716008D01*
X14236777Y-15716008D02*
X14255825Y-15706484D01*
X14389158Y-15706484D02*
X14522491Y-15706484D01*
X14522491Y-15706484D02*
X14436777Y-15906484D01*
X14608206Y-15906484D02*
X14646301Y-15906484D01*
X14646301Y-15906484D02*
X14665348Y-15896960D01*
X14665348Y-15896960D02*
X14674872Y-15887436D01*
X14674872Y-15887436D02*
X14693920Y-15858865D01*
X14693920Y-15858865D02*
X14703444Y-15820769D01*
X14703444Y-15820769D02*
X14703444Y-15744579D01*
X14703444Y-15744579D02*
X14693920Y-15725531D01*
X14693920Y-15725531D02*
X14684396Y-15716008D01*
X14684396Y-15716008D02*
X14665348Y-15706484D01*
X14665348Y-15706484D02*
X14627253Y-15706484D01*
X14627253Y-15706484D02*
X14608206Y-15716008D01*
X14608206Y-15716008D02*
X14598682Y-15725531D01*
X14598682Y-15725531D02*
X14589158Y-15744579D01*
X14589158Y-15744579D02*
X14589158Y-15792198D01*
X14589158Y-15792198D02*
X14598682Y-15811246D01*
X14598682Y-15811246D02*
X14608206Y-15820769D01*
X14608206Y-15820769D02*
X14627253Y-15830293D01*
X14627253Y-15830293D02*
X14665348Y-15830293D01*
X14665348Y-15830293D02*
X14684396Y-15820769D01*
X14684396Y-15820769D02*
X14693920Y-15811246D01*
X14693920Y-15811246D02*
X14703444Y-15792198D01*
X14779634Y-15706484D02*
X14779634Y-15744579D01*
X14855825Y-15706484D02*
X14855825Y-15744579D01*
X15151063Y-15982674D02*
X15141539Y-15973150D01*
X15141539Y-15973150D02*
X15122491Y-15944579D01*
X15122491Y-15944579D02*
X15112968Y-15925531D01*
X15112968Y-15925531D02*
X15103444Y-15896960D01*
X15103444Y-15896960D02*
X15093920Y-15849341D01*
X15093920Y-15849341D02*
X15093920Y-15811246D01*
X15093920Y-15811246D02*
X15103444Y-15763627D01*
X15103444Y-15763627D02*
X15112968Y-15735055D01*
X15112968Y-15735055D02*
X15122491Y-15716008D01*
X15122491Y-15716008D02*
X15141539Y-15687436D01*
X15141539Y-15687436D02*
X15151063Y-15677912D01*
X15312968Y-15773150D02*
X15312968Y-15906484D01*
X15265348Y-15696960D02*
X15217729Y-15839817D01*
X15217729Y-15839817D02*
X15341539Y-15839817D01*
X15570110Y-15906484D02*
X15570110Y-15706484D01*
X15655825Y-15906484D02*
X15655825Y-15801722D01*
X15655825Y-15801722D02*
X15646301Y-15782674D01*
X15646301Y-15782674D02*
X15627253Y-15773150D01*
X15627253Y-15773150D02*
X15598682Y-15773150D01*
X15598682Y-15773150D02*
X15579634Y-15782674D01*
X15579634Y-15782674D02*
X15570110Y-15792198D01*
X15779634Y-15906484D02*
X15760587Y-15896960D01*
X15760587Y-15896960D02*
X15751063Y-15887436D01*
X15751063Y-15887436D02*
X15741539Y-15868388D01*
X15741539Y-15868388D02*
X15741539Y-15811246D01*
X15741539Y-15811246D02*
X15751063Y-15792198D01*
X15751063Y-15792198D02*
X15760587Y-15782674D01*
X15760587Y-15782674D02*
X15779634Y-15773150D01*
X15779634Y-15773150D02*
X15808206Y-15773150D01*
X15808206Y-15773150D02*
X15827253Y-15782674D01*
X15827253Y-15782674D02*
X15836777Y-15792198D01*
X15836777Y-15792198D02*
X15846301Y-15811246D01*
X15846301Y-15811246D02*
X15846301Y-15868388D01*
X15846301Y-15868388D02*
X15836777Y-15887436D01*
X15836777Y-15887436D02*
X15827253Y-15896960D01*
X15827253Y-15896960D02*
X15808206Y-15906484D01*
X15808206Y-15906484D02*
X15779634Y-15906484D01*
X15960587Y-15906484D02*
X15941539Y-15896960D01*
X15941539Y-15896960D02*
X15932015Y-15877912D01*
X15932015Y-15877912D02*
X15932015Y-15706484D01*
X16112968Y-15896960D02*
X16093920Y-15906484D01*
X16093920Y-15906484D02*
X16055825Y-15906484D01*
X16055825Y-15906484D02*
X16036777Y-15896960D01*
X16036777Y-15896960D02*
X16027253Y-15877912D01*
X16027253Y-15877912D02*
X16027253Y-15801722D01*
X16027253Y-15801722D02*
X16036777Y-15782674D01*
X16036777Y-15782674D02*
X16055825Y-15773150D01*
X16055825Y-15773150D02*
X16093920Y-15773150D01*
X16093920Y-15773150D02*
X16112968Y-15782674D01*
X16112968Y-15782674D02*
X16122491Y-15801722D01*
X16122491Y-15801722D02*
X16122491Y-15820769D01*
X16122491Y-15820769D02*
X16027253Y-15839817D01*
X16198682Y-15896960D02*
X16217730Y-15906484D01*
X16217730Y-15906484D02*
X16255825Y-15906484D01*
X16255825Y-15906484D02*
X16274872Y-15896960D01*
X16274872Y-15896960D02*
X16284396Y-15877912D01*
X16284396Y-15877912D02*
X16284396Y-15868388D01*
X16284396Y-15868388D02*
X16274872Y-15849341D01*
X16274872Y-15849341D02*
X16255825Y-15839817D01*
X16255825Y-15839817D02*
X16227253Y-15839817D01*
X16227253Y-15839817D02*
X16208206Y-15830293D01*
X16208206Y-15830293D02*
X16198682Y-15811246D01*
X16198682Y-15811246D02*
X16198682Y-15801722D01*
X16198682Y-15801722D02*
X16208206Y-15782674D01*
X16208206Y-15782674D02*
X16227253Y-15773150D01*
X16227253Y-15773150D02*
X16255825Y-15773150D01*
X16255825Y-15773150D02*
X16274872Y-15782674D01*
X16351063Y-15982674D02*
X16360587Y-15973150D01*
X16360587Y-15973150D02*
X16379634Y-15944579D01*
X16379634Y-15944579D02*
X16389158Y-15925531D01*
X16389158Y-15925531D02*
X16398682Y-15896960D01*
X16398682Y-15896960D02*
X16408206Y-15849341D01*
X16408206Y-15849341D02*
X16408206Y-15811246D01*
X16408206Y-15811246D02*
X16398682Y-15763627D01*
X16398682Y-15763627D02*
X16389158Y-15735055D01*
X16389158Y-15735055D02*
X16379634Y-15716008D01*
X16379634Y-15716008D02*
X16360587Y-15687436D01*
X16360587Y-15687436D02*
X16351063Y-15677912D01*
D10*
X11576000Y-16079000D02*
G75*
G03*
X11546000Y-16079000I-15000J0D01*
G01*
X11546000Y-16079000D02*
G75*
G03*
X11576000Y-16079000I15000J0D01*
G01*
D11*
X11874872Y-15970484D02*
X11893920Y-15970484D01*
X11893920Y-15970484D02*
X11912967Y-15980008D01*
X11912967Y-15980008D02*
X11922491Y-15989531D01*
X11922491Y-15989531D02*
X11932015Y-16008579D01*
X11932015Y-16008579D02*
X11941539Y-16046674D01*
X11941539Y-16046674D02*
X11941539Y-16094293D01*
X11941539Y-16094293D02*
X11932015Y-16132388D01*
X11932015Y-16132388D02*
X11922491Y-16151436D01*
X11922491Y-16151436D02*
X11912967Y-16160960D01*
X11912967Y-16160960D02*
X11893920Y-16170484D01*
X11893920Y-16170484D02*
X11874872Y-16170484D01*
X11874872Y-16170484D02*
X11855824Y-16160960D01*
X11855824Y-16160960D02*
X11846301Y-16151436D01*
X11846301Y-16151436D02*
X11836777Y-16132388D01*
X11836777Y-16132388D02*
X11827253Y-16094293D01*
X11827253Y-16094293D02*
X11827253Y-16046674D01*
X11827253Y-16046674D02*
X11836777Y-16008579D01*
X11836777Y-16008579D02*
X11846301Y-15989531D01*
X11846301Y-15989531D02*
X11855824Y-15980008D01*
X11855824Y-15980008D02*
X11874872Y-15970484D01*
X12027253Y-16151436D02*
X12036777Y-16160960D01*
X12036777Y-16160960D02*
X12027253Y-16170484D01*
X12027253Y-16170484D02*
X12017729Y-16160960D01*
X12017729Y-16160960D02*
X12027253Y-16151436D01*
X12027253Y-16151436D02*
X12027253Y-16170484D01*
X12103443Y-15970484D02*
X12227253Y-15970484D01*
X12227253Y-15970484D02*
X12160586Y-16046674D01*
X12160586Y-16046674D02*
X12189158Y-16046674D01*
X12189158Y-16046674D02*
X12208205Y-16056198D01*
X12208205Y-16056198D02*
X12217729Y-16065722D01*
X12217729Y-16065722D02*
X12227253Y-16084769D01*
X12227253Y-16084769D02*
X12227253Y-16132388D01*
X12227253Y-16132388D02*
X12217729Y-16151436D01*
X12217729Y-16151436D02*
X12208205Y-16160960D01*
X12208205Y-16160960D02*
X12189158Y-16170484D01*
X12189158Y-16170484D02*
X12132015Y-16170484D01*
X12132015Y-16170484D02*
X12112967Y-16160960D01*
X12112967Y-16160960D02*
X12103443Y-16151436D01*
X12351062Y-15970484D02*
X12370110Y-15970484D01*
X12370110Y-15970484D02*
X12389158Y-15980008D01*
X12389158Y-15980008D02*
X12398682Y-15989531D01*
X12398682Y-15989531D02*
X12408205Y-16008579D01*
X12408205Y-16008579D02*
X12417729Y-16046674D01*
X12417729Y-16046674D02*
X12417729Y-16094293D01*
X12417729Y-16094293D02*
X12408205Y-16132388D01*
X12408205Y-16132388D02*
X12398682Y-16151436D01*
X12398682Y-16151436D02*
X12389158Y-16160960D01*
X12389158Y-16160960D02*
X12370110Y-16170484D01*
X12370110Y-16170484D02*
X12351062Y-16170484D01*
X12351062Y-16170484D02*
X12332015Y-16160960D01*
X12332015Y-16160960D02*
X12322491Y-16151436D01*
X12322491Y-16151436D02*
X12312967Y-16132388D01*
X12312967Y-16132388D02*
X12303443Y-16094293D01*
X12303443Y-16094293D02*
X12303443Y-16046674D01*
X12303443Y-16046674D02*
X12312967Y-16008579D01*
X12312967Y-16008579D02*
X12322491Y-15989531D01*
X12322491Y-15989531D02*
X12332015Y-15980008D01*
X12332015Y-15980008D02*
X12351062Y-15970484D01*
X12541539Y-15970484D02*
X12560586Y-15970484D01*
X12560586Y-15970484D02*
X12579634Y-15980008D01*
X12579634Y-15980008D02*
X12589158Y-15989531D01*
X12589158Y-15989531D02*
X12598682Y-16008579D01*
X12598682Y-16008579D02*
X12608205Y-16046674D01*
X12608205Y-16046674D02*
X12608205Y-16094293D01*
X12608205Y-16094293D02*
X12598682Y-16132388D01*
X12598682Y-16132388D02*
X12589158Y-16151436D01*
X12589158Y-16151436D02*
X12579634Y-16160960D01*
X12579634Y-16160960D02*
X12560586Y-16170484D01*
X12560586Y-16170484D02*
X12541539Y-16170484D01*
X12541539Y-16170484D02*
X12522491Y-16160960D01*
X12522491Y-16160960D02*
X12512967Y-16151436D01*
X12512967Y-16151436D02*
X12503443Y-16132388D01*
X12503443Y-16132388D02*
X12493920Y-16094293D01*
X12493920Y-16094293D02*
X12493920Y-16046674D01*
X12493920Y-16046674D02*
X12503443Y-16008579D01*
X12503443Y-16008579D02*
X12512967Y-15989531D01*
X12512967Y-15989531D02*
X12522491Y-15980008D01*
X12522491Y-15980008D02*
X12541539Y-15970484D01*
X12693920Y-16170484D02*
X12693920Y-16037150D01*
X12693920Y-16056198D02*
X12703443Y-16046674D01*
X12703443Y-16046674D02*
X12722491Y-16037150D01*
X12722491Y-16037150D02*
X12751063Y-16037150D01*
X12751063Y-16037150D02*
X12770110Y-16046674D01*
X12770110Y-16046674D02*
X12779634Y-16065722D01*
X12779634Y-16065722D02*
X12779634Y-16170484D01*
X12779634Y-16065722D02*
X12789158Y-16046674D01*
X12789158Y-16046674D02*
X12808205Y-16037150D01*
X12808205Y-16037150D02*
X12836777Y-16037150D01*
X12836777Y-16037150D02*
X12855824Y-16046674D01*
X12855824Y-16046674D02*
X12865348Y-16065722D01*
X12865348Y-16065722D02*
X12865348Y-16170484D01*
X12960586Y-16170484D02*
X12960586Y-16037150D01*
X12960586Y-16056198D02*
X12970110Y-16046674D01*
X12970110Y-16046674D02*
X12989158Y-16037150D01*
X12989158Y-16037150D02*
X13017729Y-16037150D01*
X13017729Y-16037150D02*
X13036777Y-16046674D01*
X13036777Y-16046674D02*
X13046301Y-16065722D01*
X13046301Y-16065722D02*
X13046301Y-16170484D01*
X13046301Y-16065722D02*
X13055824Y-16046674D01*
X13055824Y-16046674D02*
X13074872Y-16037150D01*
X13074872Y-16037150D02*
X13103443Y-16037150D01*
X13103443Y-16037150D02*
X13122491Y-16046674D01*
X13122491Y-16046674D02*
X13132015Y-16065722D01*
X13132015Y-16065722D02*
X13132015Y-16170484D01*
X13522491Y-15960960D02*
X13351063Y-16218103D01*
X13779634Y-15970484D02*
X13798682Y-15970484D01*
X13798682Y-15970484D02*
X13817729Y-15980008D01*
X13817729Y-15980008D02*
X13827253Y-15989531D01*
X13827253Y-15989531D02*
X13836777Y-16008579D01*
X13836777Y-16008579D02*
X13846301Y-16046674D01*
X13846301Y-16046674D02*
X13846301Y-16094293D01*
X13846301Y-16094293D02*
X13836777Y-16132388D01*
X13836777Y-16132388D02*
X13827253Y-16151436D01*
X13827253Y-16151436D02*
X13817729Y-16160960D01*
X13817729Y-16160960D02*
X13798682Y-16170484D01*
X13798682Y-16170484D02*
X13779634Y-16170484D01*
X13779634Y-16170484D02*
X13760586Y-16160960D01*
X13760586Y-16160960D02*
X13751063Y-16151436D01*
X13751063Y-16151436D02*
X13741539Y-16132388D01*
X13741539Y-16132388D02*
X13732015Y-16094293D01*
X13732015Y-16094293D02*
X13732015Y-16046674D01*
X13732015Y-16046674D02*
X13741539Y-16008579D01*
X13741539Y-16008579D02*
X13751063Y-15989531D01*
X13751063Y-15989531D02*
X13760586Y-15980008D01*
X13760586Y-15980008D02*
X13779634Y-15970484D01*
X13932015Y-16151436D02*
X13941539Y-16160960D01*
X13941539Y-16160960D02*
X13932015Y-16170484D01*
X13932015Y-16170484D02*
X13922491Y-16160960D01*
X13922491Y-16160960D02*
X13932015Y-16151436D01*
X13932015Y-16151436D02*
X13932015Y-16170484D01*
X14065348Y-15970484D02*
X14084396Y-15970484D01*
X14084396Y-15970484D02*
X14103444Y-15980008D01*
X14103444Y-15980008D02*
X14112967Y-15989531D01*
X14112967Y-15989531D02*
X14122491Y-16008579D01*
X14122491Y-16008579D02*
X14132015Y-16046674D01*
X14132015Y-16046674D02*
X14132015Y-16094293D01*
X14132015Y-16094293D02*
X14122491Y-16132388D01*
X14122491Y-16132388D02*
X14112967Y-16151436D01*
X14112967Y-16151436D02*
X14103444Y-16160960D01*
X14103444Y-16160960D02*
X14084396Y-16170484D01*
X14084396Y-16170484D02*
X14065348Y-16170484D01*
X14065348Y-16170484D02*
X14046301Y-16160960D01*
X14046301Y-16160960D02*
X14036777Y-16151436D01*
X14036777Y-16151436D02*
X14027253Y-16132388D01*
X14027253Y-16132388D02*
X14017729Y-16094293D01*
X14017729Y-16094293D02*
X14017729Y-16046674D01*
X14017729Y-16046674D02*
X14027253Y-16008579D01*
X14027253Y-16008579D02*
X14036777Y-15989531D01*
X14036777Y-15989531D02*
X14046301Y-15980008D01*
X14046301Y-15980008D02*
X14065348Y-15970484D01*
X14322491Y-16170484D02*
X14208206Y-16170484D01*
X14265348Y-16170484D02*
X14265348Y-15970484D01*
X14265348Y-15970484D02*
X14246301Y-15999055D01*
X14246301Y-15999055D02*
X14227253Y-16018103D01*
X14227253Y-16018103D02*
X14208206Y-16027627D01*
X14512967Y-16170484D02*
X14398682Y-16170484D01*
X14455825Y-16170484D02*
X14455825Y-15970484D01*
X14455825Y-15970484D02*
X14436777Y-15999055D01*
X14436777Y-15999055D02*
X14417729Y-16018103D01*
X14417729Y-16018103D02*
X14398682Y-16027627D01*
X14627253Y-16056198D02*
X14608206Y-16046674D01*
X14608206Y-16046674D02*
X14598682Y-16037150D01*
X14598682Y-16037150D02*
X14589158Y-16018103D01*
X14589158Y-16018103D02*
X14589158Y-16008579D01*
X14589158Y-16008579D02*
X14598682Y-15989531D01*
X14598682Y-15989531D02*
X14608206Y-15980008D01*
X14608206Y-15980008D02*
X14627253Y-15970484D01*
X14627253Y-15970484D02*
X14665348Y-15970484D01*
X14665348Y-15970484D02*
X14684396Y-15980008D01*
X14684396Y-15980008D02*
X14693920Y-15989531D01*
X14693920Y-15989531D02*
X14703444Y-16008579D01*
X14703444Y-16008579D02*
X14703444Y-16018103D01*
X14703444Y-16018103D02*
X14693920Y-16037150D01*
X14693920Y-16037150D02*
X14684396Y-16046674D01*
X14684396Y-16046674D02*
X14665348Y-16056198D01*
X14665348Y-16056198D02*
X14627253Y-16056198D01*
X14627253Y-16056198D02*
X14608206Y-16065722D01*
X14608206Y-16065722D02*
X14598682Y-16075246D01*
X14598682Y-16075246D02*
X14589158Y-16094293D01*
X14589158Y-16094293D02*
X14589158Y-16132388D01*
X14589158Y-16132388D02*
X14598682Y-16151436D01*
X14598682Y-16151436D02*
X14608206Y-16160960D01*
X14608206Y-16160960D02*
X14627253Y-16170484D01*
X14627253Y-16170484D02*
X14665348Y-16170484D01*
X14665348Y-16170484D02*
X14684396Y-16160960D01*
X14684396Y-16160960D02*
X14693920Y-16151436D01*
X14693920Y-16151436D02*
X14703444Y-16132388D01*
X14703444Y-16132388D02*
X14703444Y-16094293D01*
X14703444Y-16094293D02*
X14693920Y-16075246D01*
X14693920Y-16075246D02*
X14684396Y-16065722D01*
X14684396Y-16065722D02*
X14665348Y-16056198D01*
X14779634Y-15970484D02*
X14779634Y-16008579D01*
X14855825Y-15970484D02*
X14855825Y-16008579D01*
X15151063Y-16246674D02*
X15141539Y-16237150D01*
X15141539Y-16237150D02*
X15122491Y-16208579D01*
X15122491Y-16208579D02*
X15112968Y-16189531D01*
X15112968Y-16189531D02*
X15103444Y-16160960D01*
X15103444Y-16160960D02*
X15093920Y-16113341D01*
X15093920Y-16113341D02*
X15093920Y-16075246D01*
X15093920Y-16075246D02*
X15103444Y-16027627D01*
X15103444Y-16027627D02*
X15112968Y-15999055D01*
X15112968Y-15999055D02*
X15122491Y-15980008D01*
X15122491Y-15980008D02*
X15141539Y-15951436D01*
X15141539Y-15951436D02*
X15151063Y-15941912D01*
X15332015Y-16170484D02*
X15217729Y-16170484D01*
X15274872Y-16170484D02*
X15274872Y-15970484D01*
X15274872Y-15970484D02*
X15255825Y-15999055D01*
X15255825Y-15999055D02*
X15236777Y-16018103D01*
X15236777Y-16018103D02*
X15217729Y-16027627D01*
X15570110Y-16170484D02*
X15570110Y-15970484D01*
X15655825Y-16170484D02*
X15655825Y-16065722D01*
X15655825Y-16065722D02*
X15646301Y-16046674D01*
X15646301Y-16046674D02*
X15627253Y-16037150D01*
X15627253Y-16037150D02*
X15598682Y-16037150D01*
X15598682Y-16037150D02*
X15579634Y-16046674D01*
X15579634Y-16046674D02*
X15570110Y-16056198D01*
X15779634Y-16170484D02*
X15760587Y-16160960D01*
X15760587Y-16160960D02*
X15751063Y-16151436D01*
X15751063Y-16151436D02*
X15741539Y-16132388D01*
X15741539Y-16132388D02*
X15741539Y-16075246D01*
X15741539Y-16075246D02*
X15751063Y-16056198D01*
X15751063Y-16056198D02*
X15760587Y-16046674D01*
X15760587Y-16046674D02*
X15779634Y-16037150D01*
X15779634Y-16037150D02*
X15808206Y-16037150D01*
X15808206Y-16037150D02*
X15827253Y-16046674D01*
X15827253Y-16046674D02*
X15836777Y-16056198D01*
X15836777Y-16056198D02*
X15846301Y-16075246D01*
X15846301Y-16075246D02*
X15846301Y-16132388D01*
X15846301Y-16132388D02*
X15836777Y-16151436D01*
X15836777Y-16151436D02*
X15827253Y-16160960D01*
X15827253Y-16160960D02*
X15808206Y-16170484D01*
X15808206Y-16170484D02*
X15779634Y-16170484D01*
X15960587Y-16170484D02*
X15941539Y-16160960D01*
X15941539Y-16160960D02*
X15932015Y-16141912D01*
X15932015Y-16141912D02*
X15932015Y-15970484D01*
X16112968Y-16160960D02*
X16093920Y-16170484D01*
X16093920Y-16170484D02*
X16055825Y-16170484D01*
X16055825Y-16170484D02*
X16036777Y-16160960D01*
X16036777Y-16160960D02*
X16027253Y-16141912D01*
X16027253Y-16141912D02*
X16027253Y-16065722D01*
X16027253Y-16065722D02*
X16036777Y-16046674D01*
X16036777Y-16046674D02*
X16055825Y-16037150D01*
X16055825Y-16037150D02*
X16093920Y-16037150D01*
X16093920Y-16037150D02*
X16112968Y-16046674D01*
X16112968Y-16046674D02*
X16122491Y-16065722D01*
X16122491Y-16065722D02*
X16122491Y-16084769D01*
X16122491Y-16084769D02*
X16027253Y-16103817D01*
X16189158Y-16246674D02*
X16198682Y-16237150D01*
X16198682Y-16237150D02*
X16217730Y-16208579D01*
X16217730Y-16208579D02*
X16227253Y-16189531D01*
X16227253Y-16189531D02*
X16236777Y-16160960D01*
X16236777Y-16160960D02*
X16246301Y-16113341D01*
X16246301Y-16113341D02*
X16246301Y-16075246D01*
X16246301Y-16075246D02*
X16236777Y-16027627D01*
X16236777Y-16027627D02*
X16227253Y-15999055D01*
X16227253Y-15999055D02*
X16217730Y-15980008D01*
X16217730Y-15980008D02*
X16198682Y-15951436D01*
X16198682Y-15951436D02*
X16189158Y-15941912D01*
D10*
X11556000Y-16323000D02*
X11556000Y-16363000D01*
X11536000Y-16343000D02*
X11576000Y-16343000D01*
D11*
X11874872Y-16234484D02*
X11893920Y-16234484D01*
X11893920Y-16234484D02*
X11912967Y-16244008D01*
X11912967Y-16244008D02*
X11922491Y-16253531D01*
X11922491Y-16253531D02*
X11932015Y-16272579D01*
X11932015Y-16272579D02*
X11941539Y-16310674D01*
X11941539Y-16310674D02*
X11941539Y-16358293D01*
X11941539Y-16358293D02*
X11932015Y-16396388D01*
X11932015Y-16396388D02*
X11922491Y-16415436D01*
X11922491Y-16415436D02*
X11912967Y-16424960D01*
X11912967Y-16424960D02*
X11893920Y-16434484D01*
X11893920Y-16434484D02*
X11874872Y-16434484D01*
X11874872Y-16434484D02*
X11855824Y-16424960D01*
X11855824Y-16424960D02*
X11846301Y-16415436D01*
X11846301Y-16415436D02*
X11836777Y-16396388D01*
X11836777Y-16396388D02*
X11827253Y-16358293D01*
X11827253Y-16358293D02*
X11827253Y-16310674D01*
X11827253Y-16310674D02*
X11836777Y-16272579D01*
X11836777Y-16272579D02*
X11846301Y-16253531D01*
X11846301Y-16253531D02*
X11855824Y-16244008D01*
X11855824Y-16244008D02*
X11874872Y-16234484D01*
X12027253Y-16415436D02*
X12036777Y-16424960D01*
X12036777Y-16424960D02*
X12027253Y-16434484D01*
X12027253Y-16434484D02*
X12017729Y-16424960D01*
X12017729Y-16424960D02*
X12027253Y-16415436D01*
X12027253Y-16415436D02*
X12027253Y-16434484D01*
X12208205Y-16301150D02*
X12208205Y-16434484D01*
X12160586Y-16224960D02*
X12112967Y-16367817D01*
X12112967Y-16367817D02*
X12236777Y-16367817D01*
X12351062Y-16234484D02*
X12370110Y-16234484D01*
X12370110Y-16234484D02*
X12389158Y-16244008D01*
X12389158Y-16244008D02*
X12398682Y-16253531D01*
X12398682Y-16253531D02*
X12408205Y-16272579D01*
X12408205Y-16272579D02*
X12417729Y-16310674D01*
X12417729Y-16310674D02*
X12417729Y-16358293D01*
X12417729Y-16358293D02*
X12408205Y-16396388D01*
X12408205Y-16396388D02*
X12398682Y-16415436D01*
X12398682Y-16415436D02*
X12389158Y-16424960D01*
X12389158Y-16424960D02*
X12370110Y-16434484D01*
X12370110Y-16434484D02*
X12351062Y-16434484D01*
X12351062Y-16434484D02*
X12332015Y-16424960D01*
X12332015Y-16424960D02*
X12322491Y-16415436D01*
X12322491Y-16415436D02*
X12312967Y-16396388D01*
X12312967Y-16396388D02*
X12303443Y-16358293D01*
X12303443Y-16358293D02*
X12303443Y-16310674D01*
X12303443Y-16310674D02*
X12312967Y-16272579D01*
X12312967Y-16272579D02*
X12322491Y-16253531D01*
X12322491Y-16253531D02*
X12332015Y-16244008D01*
X12332015Y-16244008D02*
X12351062Y-16234484D01*
X12541539Y-16234484D02*
X12560586Y-16234484D01*
X12560586Y-16234484D02*
X12579634Y-16244008D01*
X12579634Y-16244008D02*
X12589158Y-16253531D01*
X12589158Y-16253531D02*
X12598682Y-16272579D01*
X12598682Y-16272579D02*
X12608205Y-16310674D01*
X12608205Y-16310674D02*
X12608205Y-16358293D01*
X12608205Y-16358293D02*
X12598682Y-16396388D01*
X12598682Y-16396388D02*
X12589158Y-16415436D01*
X12589158Y-16415436D02*
X12579634Y-16424960D01*
X12579634Y-16424960D02*
X12560586Y-16434484D01*
X12560586Y-16434484D02*
X12541539Y-16434484D01*
X12541539Y-16434484D02*
X12522491Y-16424960D01*
X12522491Y-16424960D02*
X12512967Y-16415436D01*
X12512967Y-16415436D02*
X12503443Y-16396388D01*
X12503443Y-16396388D02*
X12493920Y-16358293D01*
X12493920Y-16358293D02*
X12493920Y-16310674D01*
X12493920Y-16310674D02*
X12503443Y-16272579D01*
X12503443Y-16272579D02*
X12512967Y-16253531D01*
X12512967Y-16253531D02*
X12522491Y-16244008D01*
X12522491Y-16244008D02*
X12541539Y-16234484D01*
X12693920Y-16434484D02*
X12693920Y-16301150D01*
X12693920Y-16320198D02*
X12703443Y-16310674D01*
X12703443Y-16310674D02*
X12722491Y-16301150D01*
X12722491Y-16301150D02*
X12751063Y-16301150D01*
X12751063Y-16301150D02*
X12770110Y-16310674D01*
X12770110Y-16310674D02*
X12779634Y-16329722D01*
X12779634Y-16329722D02*
X12779634Y-16434484D01*
X12779634Y-16329722D02*
X12789158Y-16310674D01*
X12789158Y-16310674D02*
X12808205Y-16301150D01*
X12808205Y-16301150D02*
X12836777Y-16301150D01*
X12836777Y-16301150D02*
X12855824Y-16310674D01*
X12855824Y-16310674D02*
X12865348Y-16329722D01*
X12865348Y-16329722D02*
X12865348Y-16434484D01*
X12960586Y-16434484D02*
X12960586Y-16301150D01*
X12960586Y-16320198D02*
X12970110Y-16310674D01*
X12970110Y-16310674D02*
X12989158Y-16301150D01*
X12989158Y-16301150D02*
X13017729Y-16301150D01*
X13017729Y-16301150D02*
X13036777Y-16310674D01*
X13036777Y-16310674D02*
X13046301Y-16329722D01*
X13046301Y-16329722D02*
X13046301Y-16434484D01*
X13046301Y-16329722D02*
X13055824Y-16310674D01*
X13055824Y-16310674D02*
X13074872Y-16301150D01*
X13074872Y-16301150D02*
X13103443Y-16301150D01*
X13103443Y-16301150D02*
X13122491Y-16310674D01*
X13122491Y-16310674D02*
X13132015Y-16329722D01*
X13132015Y-16329722D02*
X13132015Y-16434484D01*
X13522491Y-16224960D02*
X13351063Y-16482103D01*
X13779634Y-16234484D02*
X13798682Y-16234484D01*
X13798682Y-16234484D02*
X13817729Y-16244008D01*
X13817729Y-16244008D02*
X13827253Y-16253531D01*
X13827253Y-16253531D02*
X13836777Y-16272579D01*
X13836777Y-16272579D02*
X13846301Y-16310674D01*
X13846301Y-16310674D02*
X13846301Y-16358293D01*
X13846301Y-16358293D02*
X13836777Y-16396388D01*
X13836777Y-16396388D02*
X13827253Y-16415436D01*
X13827253Y-16415436D02*
X13817729Y-16424960D01*
X13817729Y-16424960D02*
X13798682Y-16434484D01*
X13798682Y-16434484D02*
X13779634Y-16434484D01*
X13779634Y-16434484D02*
X13760586Y-16424960D01*
X13760586Y-16424960D02*
X13751063Y-16415436D01*
X13751063Y-16415436D02*
X13741539Y-16396388D01*
X13741539Y-16396388D02*
X13732015Y-16358293D01*
X13732015Y-16358293D02*
X13732015Y-16310674D01*
X13732015Y-16310674D02*
X13741539Y-16272579D01*
X13741539Y-16272579D02*
X13751063Y-16253531D01*
X13751063Y-16253531D02*
X13760586Y-16244008D01*
X13760586Y-16244008D02*
X13779634Y-16234484D01*
X13932015Y-16415436D02*
X13941539Y-16424960D01*
X13941539Y-16424960D02*
X13932015Y-16434484D01*
X13932015Y-16434484D02*
X13922491Y-16424960D01*
X13922491Y-16424960D02*
X13932015Y-16415436D01*
X13932015Y-16415436D02*
X13932015Y-16434484D01*
X14065348Y-16234484D02*
X14084396Y-16234484D01*
X14084396Y-16234484D02*
X14103444Y-16244008D01*
X14103444Y-16244008D02*
X14112967Y-16253531D01*
X14112967Y-16253531D02*
X14122491Y-16272579D01*
X14122491Y-16272579D02*
X14132015Y-16310674D01*
X14132015Y-16310674D02*
X14132015Y-16358293D01*
X14132015Y-16358293D02*
X14122491Y-16396388D01*
X14122491Y-16396388D02*
X14112967Y-16415436D01*
X14112967Y-16415436D02*
X14103444Y-16424960D01*
X14103444Y-16424960D02*
X14084396Y-16434484D01*
X14084396Y-16434484D02*
X14065348Y-16434484D01*
X14065348Y-16434484D02*
X14046301Y-16424960D01*
X14046301Y-16424960D02*
X14036777Y-16415436D01*
X14036777Y-16415436D02*
X14027253Y-16396388D01*
X14027253Y-16396388D02*
X14017729Y-16358293D01*
X14017729Y-16358293D02*
X14017729Y-16310674D01*
X14017729Y-16310674D02*
X14027253Y-16272579D01*
X14027253Y-16272579D02*
X14036777Y-16253531D01*
X14036777Y-16253531D02*
X14046301Y-16244008D01*
X14046301Y-16244008D02*
X14065348Y-16234484D01*
X14322491Y-16434484D02*
X14208206Y-16434484D01*
X14265348Y-16434484D02*
X14265348Y-16234484D01*
X14265348Y-16234484D02*
X14246301Y-16263055D01*
X14246301Y-16263055D02*
X14227253Y-16282103D01*
X14227253Y-16282103D02*
X14208206Y-16291627D01*
X14503444Y-16234484D02*
X14408206Y-16234484D01*
X14408206Y-16234484D02*
X14398682Y-16329722D01*
X14398682Y-16329722D02*
X14408206Y-16320198D01*
X14408206Y-16320198D02*
X14427253Y-16310674D01*
X14427253Y-16310674D02*
X14474872Y-16310674D01*
X14474872Y-16310674D02*
X14493920Y-16320198D01*
X14493920Y-16320198D02*
X14503444Y-16329722D01*
X14503444Y-16329722D02*
X14512967Y-16348769D01*
X14512967Y-16348769D02*
X14512967Y-16396388D01*
X14512967Y-16396388D02*
X14503444Y-16415436D01*
X14503444Y-16415436D02*
X14493920Y-16424960D01*
X14493920Y-16424960D02*
X14474872Y-16434484D01*
X14474872Y-16434484D02*
X14427253Y-16434484D01*
X14427253Y-16434484D02*
X14408206Y-16424960D01*
X14408206Y-16424960D02*
X14398682Y-16415436D01*
X14579634Y-16234484D02*
X14712967Y-16234484D01*
X14712967Y-16234484D02*
X14627253Y-16434484D01*
X14779634Y-16234484D02*
X14779634Y-16272579D01*
X14855825Y-16234484D02*
X14855825Y-16272579D01*
X15151063Y-16510674D02*
X15141539Y-16501150D01*
X15141539Y-16501150D02*
X15122491Y-16472579D01*
X15122491Y-16472579D02*
X15112968Y-16453531D01*
X15112968Y-16453531D02*
X15103444Y-16424960D01*
X15103444Y-16424960D02*
X15093920Y-16377341D01*
X15093920Y-16377341D02*
X15093920Y-16339246D01*
X15093920Y-16339246D02*
X15103444Y-16291627D01*
X15103444Y-16291627D02*
X15112968Y-16263055D01*
X15112968Y-16263055D02*
X15122491Y-16244008D01*
X15122491Y-16244008D02*
X15141539Y-16215436D01*
X15141539Y-16215436D02*
X15151063Y-16205912D01*
X15208206Y-16234484D02*
X15332015Y-16234484D01*
X15332015Y-16234484D02*
X15265348Y-16310674D01*
X15265348Y-16310674D02*
X15293920Y-16310674D01*
X15293920Y-16310674D02*
X15312968Y-16320198D01*
X15312968Y-16320198D02*
X15322491Y-16329722D01*
X15322491Y-16329722D02*
X15332015Y-16348769D01*
X15332015Y-16348769D02*
X15332015Y-16396388D01*
X15332015Y-16396388D02*
X15322491Y-16415436D01*
X15322491Y-16415436D02*
X15312968Y-16424960D01*
X15312968Y-16424960D02*
X15293920Y-16434484D01*
X15293920Y-16434484D02*
X15236777Y-16434484D01*
X15236777Y-16434484D02*
X15217729Y-16424960D01*
X15217729Y-16424960D02*
X15208206Y-16415436D01*
X15398682Y-16234484D02*
X15522491Y-16234484D01*
X15522491Y-16234484D02*
X15455825Y-16310674D01*
X15455825Y-16310674D02*
X15484396Y-16310674D01*
X15484396Y-16310674D02*
X15503444Y-16320198D01*
X15503444Y-16320198D02*
X15512968Y-16329722D01*
X15512968Y-16329722D02*
X15522491Y-16348769D01*
X15522491Y-16348769D02*
X15522491Y-16396388D01*
X15522491Y-16396388D02*
X15512968Y-16415436D01*
X15512968Y-16415436D02*
X15503444Y-16424960D01*
X15503444Y-16424960D02*
X15484396Y-16434484D01*
X15484396Y-16434484D02*
X15427253Y-16434484D01*
X15427253Y-16434484D02*
X15408206Y-16424960D01*
X15408206Y-16424960D02*
X15398682Y-16415436D01*
X15760587Y-16434484D02*
X15760587Y-16234484D01*
X15846301Y-16434484D02*
X15846301Y-16329722D01*
X15846301Y-16329722D02*
X15836777Y-16310674D01*
X15836777Y-16310674D02*
X15817730Y-16301150D01*
X15817730Y-16301150D02*
X15789158Y-16301150D01*
X15789158Y-16301150D02*
X15770110Y-16310674D01*
X15770110Y-16310674D02*
X15760587Y-16320198D01*
X15970110Y-16434484D02*
X15951063Y-16424960D01*
X15951063Y-16424960D02*
X15941539Y-16415436D01*
X15941539Y-16415436D02*
X15932015Y-16396388D01*
X15932015Y-16396388D02*
X15932015Y-16339246D01*
X15932015Y-16339246D02*
X15941539Y-16320198D01*
X15941539Y-16320198D02*
X15951063Y-16310674D01*
X15951063Y-16310674D02*
X15970110Y-16301150D01*
X15970110Y-16301150D02*
X15998682Y-16301150D01*
X15998682Y-16301150D02*
X16017730Y-16310674D01*
X16017730Y-16310674D02*
X16027253Y-16320198D01*
X16027253Y-16320198D02*
X16036777Y-16339246D01*
X16036777Y-16339246D02*
X16036777Y-16396388D01*
X16036777Y-16396388D02*
X16027253Y-16415436D01*
X16027253Y-16415436D02*
X16017730Y-16424960D01*
X16017730Y-16424960D02*
X15998682Y-16434484D01*
X15998682Y-16434484D02*
X15970110Y-16434484D01*
X16151063Y-16434484D02*
X16132015Y-16424960D01*
X16132015Y-16424960D02*
X16122491Y-16405912D01*
X16122491Y-16405912D02*
X16122491Y-16234484D01*
X16303444Y-16424960D02*
X16284396Y-16434484D01*
X16284396Y-16434484D02*
X16246301Y-16434484D01*
X16246301Y-16434484D02*
X16227253Y-16424960D01*
X16227253Y-16424960D02*
X16217730Y-16405912D01*
X16217730Y-16405912D02*
X16217730Y-16329722D01*
X16217730Y-16329722D02*
X16227253Y-16310674D01*
X16227253Y-16310674D02*
X16246301Y-16301150D01*
X16246301Y-16301150D02*
X16284396Y-16301150D01*
X16284396Y-16301150D02*
X16303444Y-16310674D01*
X16303444Y-16310674D02*
X16312968Y-16329722D01*
X16312968Y-16329722D02*
X16312968Y-16348769D01*
X16312968Y-16348769D02*
X16217730Y-16367817D01*
X16389158Y-16424960D02*
X16408206Y-16434484D01*
X16408206Y-16434484D02*
X16446301Y-16434484D01*
X16446301Y-16434484D02*
X16465349Y-16424960D01*
X16465349Y-16424960D02*
X16474872Y-16405912D01*
X16474872Y-16405912D02*
X16474872Y-16396388D01*
X16474872Y-16396388D02*
X16465349Y-16377341D01*
X16465349Y-16377341D02*
X16446301Y-16367817D01*
X16446301Y-16367817D02*
X16417730Y-16367817D01*
X16417730Y-16367817D02*
X16398682Y-16358293D01*
X16398682Y-16358293D02*
X16389158Y-16339246D01*
X16389158Y-16339246D02*
X16389158Y-16329722D01*
X16389158Y-16329722D02*
X16398682Y-16310674D01*
X16398682Y-16310674D02*
X16417730Y-16301150D01*
X16417730Y-16301150D02*
X16446301Y-16301150D01*
X16446301Y-16301150D02*
X16465349Y-16310674D01*
X16541539Y-16510674D02*
X16551063Y-16501150D01*
X16551063Y-16501150D02*
X16570111Y-16472579D01*
X16570111Y-16472579D02*
X16579634Y-16453531D01*
X16579634Y-16453531D02*
X16589158Y-16424960D01*
X16589158Y-16424960D02*
X16598682Y-16377341D01*
X16598682Y-16377341D02*
X16598682Y-16339246D01*
X16598682Y-16339246D02*
X16589158Y-16291627D01*
X16589158Y-16291627D02*
X16579634Y-16263055D01*
X16579634Y-16263055D02*
X16570111Y-16244008D01*
X16570111Y-16244008D02*
X16551063Y-16215436D01*
X16551063Y-16215436D02*
X16541539Y-16205912D01*
D12*
X11561063Y-16643063D02*
X11561063Y-16570937D01*
X11488937Y-16570937D01*
X11488937Y-16643063D01*
X11561063Y-16643063D01*
D11*
X11941539Y-16698484D02*
X11827253Y-16698484D01*
X11884396Y-16698484D02*
X11884396Y-16498484D01*
X11884396Y-16498484D02*
X11865348Y-16527055D01*
X11865348Y-16527055D02*
X11846301Y-16546103D01*
X11846301Y-16546103D02*
X11827253Y-16555627D01*
X12027253Y-16679436D02*
X12036777Y-16688960D01*
X12036777Y-16688960D02*
X12027253Y-16698484D01*
X12027253Y-16698484D02*
X12017729Y-16688960D01*
X12017729Y-16688960D02*
X12027253Y-16679436D01*
X12027253Y-16679436D02*
X12027253Y-16698484D01*
X12160586Y-16498484D02*
X12179634Y-16498484D01*
X12179634Y-16498484D02*
X12198682Y-16508008D01*
X12198682Y-16508008D02*
X12208205Y-16517531D01*
X12208205Y-16517531D02*
X12217729Y-16536579D01*
X12217729Y-16536579D02*
X12227253Y-16574674D01*
X12227253Y-16574674D02*
X12227253Y-16622293D01*
X12227253Y-16622293D02*
X12217729Y-16660388D01*
X12217729Y-16660388D02*
X12208205Y-16679436D01*
X12208205Y-16679436D02*
X12198682Y-16688960D01*
X12198682Y-16688960D02*
X12179634Y-16698484D01*
X12179634Y-16698484D02*
X12160586Y-16698484D01*
X12160586Y-16698484D02*
X12141539Y-16688960D01*
X12141539Y-16688960D02*
X12132015Y-16679436D01*
X12132015Y-16679436D02*
X12122491Y-16660388D01*
X12122491Y-16660388D02*
X12112967Y-16622293D01*
X12112967Y-16622293D02*
X12112967Y-16574674D01*
X12112967Y-16574674D02*
X12122491Y-16536579D01*
X12122491Y-16536579D02*
X12132015Y-16517531D01*
X12132015Y-16517531D02*
X12141539Y-16508008D01*
X12141539Y-16508008D02*
X12160586Y-16498484D01*
X12303443Y-16517531D02*
X12312967Y-16508008D01*
X12312967Y-16508008D02*
X12332015Y-16498484D01*
X12332015Y-16498484D02*
X12379634Y-16498484D01*
X12379634Y-16498484D02*
X12398682Y-16508008D01*
X12398682Y-16508008D02*
X12408205Y-16517531D01*
X12408205Y-16517531D02*
X12417729Y-16536579D01*
X12417729Y-16536579D02*
X12417729Y-16555627D01*
X12417729Y-16555627D02*
X12408205Y-16584198D01*
X12408205Y-16584198D02*
X12293920Y-16698484D01*
X12293920Y-16698484D02*
X12417729Y-16698484D01*
X12541539Y-16498484D02*
X12560586Y-16498484D01*
X12560586Y-16498484D02*
X12579634Y-16508008D01*
X12579634Y-16508008D02*
X12589158Y-16517531D01*
X12589158Y-16517531D02*
X12598682Y-16536579D01*
X12598682Y-16536579D02*
X12608205Y-16574674D01*
X12608205Y-16574674D02*
X12608205Y-16622293D01*
X12608205Y-16622293D02*
X12598682Y-16660388D01*
X12598682Y-16660388D02*
X12589158Y-16679436D01*
X12589158Y-16679436D02*
X12579634Y-16688960D01*
X12579634Y-16688960D02*
X12560586Y-16698484D01*
X12560586Y-16698484D02*
X12541539Y-16698484D01*
X12541539Y-16698484D02*
X12522491Y-16688960D01*
X12522491Y-16688960D02*
X12512967Y-16679436D01*
X12512967Y-16679436D02*
X12503443Y-16660388D01*
X12503443Y-16660388D02*
X12493920Y-16622293D01*
X12493920Y-16622293D02*
X12493920Y-16574674D01*
X12493920Y-16574674D02*
X12503443Y-16536579D01*
X12503443Y-16536579D02*
X12512967Y-16517531D01*
X12512967Y-16517531D02*
X12522491Y-16508008D01*
X12522491Y-16508008D02*
X12541539Y-16498484D01*
X12693920Y-16698484D02*
X12693920Y-16565150D01*
X12693920Y-16584198D02*
X12703443Y-16574674D01*
X12703443Y-16574674D02*
X12722491Y-16565150D01*
X12722491Y-16565150D02*
X12751063Y-16565150D01*
X12751063Y-16565150D02*
X12770110Y-16574674D01*
X12770110Y-16574674D02*
X12779634Y-16593722D01*
X12779634Y-16593722D02*
X12779634Y-16698484D01*
X12779634Y-16593722D02*
X12789158Y-16574674D01*
X12789158Y-16574674D02*
X12808205Y-16565150D01*
X12808205Y-16565150D02*
X12836777Y-16565150D01*
X12836777Y-16565150D02*
X12855824Y-16574674D01*
X12855824Y-16574674D02*
X12865348Y-16593722D01*
X12865348Y-16593722D02*
X12865348Y-16698484D01*
X12960586Y-16698484D02*
X12960586Y-16565150D01*
X12960586Y-16584198D02*
X12970110Y-16574674D01*
X12970110Y-16574674D02*
X12989158Y-16565150D01*
X12989158Y-16565150D02*
X13017729Y-16565150D01*
X13017729Y-16565150D02*
X13036777Y-16574674D01*
X13036777Y-16574674D02*
X13046301Y-16593722D01*
X13046301Y-16593722D02*
X13046301Y-16698484D01*
X13046301Y-16593722D02*
X13055824Y-16574674D01*
X13055824Y-16574674D02*
X13074872Y-16565150D01*
X13074872Y-16565150D02*
X13103443Y-16565150D01*
X13103443Y-16565150D02*
X13122491Y-16574674D01*
X13122491Y-16574674D02*
X13132015Y-16593722D01*
X13132015Y-16593722D02*
X13132015Y-16698484D01*
X13522491Y-16488960D02*
X13351063Y-16746103D01*
X13779634Y-16498484D02*
X13798682Y-16498484D01*
X13798682Y-16498484D02*
X13817729Y-16508008D01*
X13817729Y-16508008D02*
X13827253Y-16517531D01*
X13827253Y-16517531D02*
X13836777Y-16536579D01*
X13836777Y-16536579D02*
X13846301Y-16574674D01*
X13846301Y-16574674D02*
X13846301Y-16622293D01*
X13846301Y-16622293D02*
X13836777Y-16660388D01*
X13836777Y-16660388D02*
X13827253Y-16679436D01*
X13827253Y-16679436D02*
X13817729Y-16688960D01*
X13817729Y-16688960D02*
X13798682Y-16698484D01*
X13798682Y-16698484D02*
X13779634Y-16698484D01*
X13779634Y-16698484D02*
X13760586Y-16688960D01*
X13760586Y-16688960D02*
X13751063Y-16679436D01*
X13751063Y-16679436D02*
X13741539Y-16660388D01*
X13741539Y-16660388D02*
X13732015Y-16622293D01*
X13732015Y-16622293D02*
X13732015Y-16574674D01*
X13732015Y-16574674D02*
X13741539Y-16536579D01*
X13741539Y-16536579D02*
X13751063Y-16517531D01*
X13751063Y-16517531D02*
X13760586Y-16508008D01*
X13760586Y-16508008D02*
X13779634Y-16498484D01*
X13932015Y-16679436D02*
X13941539Y-16688960D01*
X13941539Y-16688960D02*
X13932015Y-16698484D01*
X13932015Y-16698484D02*
X13922491Y-16688960D01*
X13922491Y-16688960D02*
X13932015Y-16679436D01*
X13932015Y-16679436D02*
X13932015Y-16698484D01*
X14065348Y-16498484D02*
X14084396Y-16498484D01*
X14084396Y-16498484D02*
X14103444Y-16508008D01*
X14103444Y-16508008D02*
X14112967Y-16517531D01*
X14112967Y-16517531D02*
X14122491Y-16536579D01*
X14122491Y-16536579D02*
X14132015Y-16574674D01*
X14132015Y-16574674D02*
X14132015Y-16622293D01*
X14132015Y-16622293D02*
X14122491Y-16660388D01*
X14122491Y-16660388D02*
X14112967Y-16679436D01*
X14112967Y-16679436D02*
X14103444Y-16688960D01*
X14103444Y-16688960D02*
X14084396Y-16698484D01*
X14084396Y-16698484D02*
X14065348Y-16698484D01*
X14065348Y-16698484D02*
X14046301Y-16688960D01*
X14046301Y-16688960D02*
X14036777Y-16679436D01*
X14036777Y-16679436D02*
X14027253Y-16660388D01*
X14027253Y-16660388D02*
X14017729Y-16622293D01*
X14017729Y-16622293D02*
X14017729Y-16574674D01*
X14017729Y-16574674D02*
X14027253Y-16536579D01*
X14027253Y-16536579D02*
X14036777Y-16517531D01*
X14036777Y-16517531D02*
X14046301Y-16508008D01*
X14046301Y-16508008D02*
X14065348Y-16498484D01*
X14303444Y-16565150D02*
X14303444Y-16698484D01*
X14255825Y-16488960D02*
X14208206Y-16631817D01*
X14208206Y-16631817D02*
X14332015Y-16631817D01*
X14446301Y-16498484D02*
X14465348Y-16498484D01*
X14465348Y-16498484D02*
X14484396Y-16508008D01*
X14484396Y-16508008D02*
X14493920Y-16517531D01*
X14493920Y-16517531D02*
X14503444Y-16536579D01*
X14503444Y-16536579D02*
X14512967Y-16574674D01*
X14512967Y-16574674D02*
X14512967Y-16622293D01*
X14512967Y-16622293D02*
X14503444Y-16660388D01*
X14503444Y-16660388D02*
X14493920Y-16679436D01*
X14493920Y-16679436D02*
X14484396Y-16688960D01*
X14484396Y-16688960D02*
X14465348Y-16698484D01*
X14465348Y-16698484D02*
X14446301Y-16698484D01*
X14446301Y-16698484D02*
X14427253Y-16688960D01*
X14427253Y-16688960D02*
X14417729Y-16679436D01*
X14417729Y-16679436D02*
X14408206Y-16660388D01*
X14408206Y-16660388D02*
X14398682Y-16622293D01*
X14398682Y-16622293D02*
X14398682Y-16574674D01*
X14398682Y-16574674D02*
X14408206Y-16536579D01*
X14408206Y-16536579D02*
X14417729Y-16517531D01*
X14417729Y-16517531D02*
X14427253Y-16508008D01*
X14427253Y-16508008D02*
X14446301Y-16498484D01*
X14589158Y-16517531D02*
X14598682Y-16508008D01*
X14598682Y-16508008D02*
X14617729Y-16498484D01*
X14617729Y-16498484D02*
X14665348Y-16498484D01*
X14665348Y-16498484D02*
X14684396Y-16508008D01*
X14684396Y-16508008D02*
X14693920Y-16517531D01*
X14693920Y-16517531D02*
X14703444Y-16536579D01*
X14703444Y-16536579D02*
X14703444Y-16555627D01*
X14703444Y-16555627D02*
X14693920Y-16584198D01*
X14693920Y-16584198D02*
X14579634Y-16698484D01*
X14579634Y-16698484D02*
X14703444Y-16698484D01*
X14779634Y-16498484D02*
X14779634Y-16536579D01*
X14855825Y-16498484D02*
X14855825Y-16536579D01*
X15151063Y-16774674D02*
X15141539Y-16765150D01*
X15141539Y-16765150D02*
X15122491Y-16736579D01*
X15122491Y-16736579D02*
X15112968Y-16717531D01*
X15112968Y-16717531D02*
X15103444Y-16688960D01*
X15103444Y-16688960D02*
X15093920Y-16641341D01*
X15093920Y-16641341D02*
X15093920Y-16603246D01*
X15093920Y-16603246D02*
X15103444Y-16555627D01*
X15103444Y-16555627D02*
X15112968Y-16527055D01*
X15112968Y-16527055D02*
X15122491Y-16508008D01*
X15122491Y-16508008D02*
X15141539Y-16479436D01*
X15141539Y-16479436D02*
X15151063Y-16469912D01*
X15332015Y-16698484D02*
X15217729Y-16698484D01*
X15274872Y-16698484D02*
X15274872Y-16498484D01*
X15274872Y-16498484D02*
X15255825Y-16527055D01*
X15255825Y-16527055D02*
X15236777Y-16546103D01*
X15236777Y-16546103D02*
X15217729Y-16555627D01*
X15503444Y-16565150D02*
X15503444Y-16698484D01*
X15455825Y-16488960D02*
X15408206Y-16631817D01*
X15408206Y-16631817D02*
X15532015Y-16631817D01*
X15760587Y-16698484D02*
X15760587Y-16498484D01*
X15846301Y-16698484D02*
X15846301Y-16593722D01*
X15846301Y-16593722D02*
X15836777Y-16574674D01*
X15836777Y-16574674D02*
X15817730Y-16565150D01*
X15817730Y-16565150D02*
X15789158Y-16565150D01*
X15789158Y-16565150D02*
X15770110Y-16574674D01*
X15770110Y-16574674D02*
X15760587Y-16584198D01*
X15970110Y-16698484D02*
X15951063Y-16688960D01*
X15951063Y-16688960D02*
X15941539Y-16679436D01*
X15941539Y-16679436D02*
X15932015Y-16660388D01*
X15932015Y-16660388D02*
X15932015Y-16603246D01*
X15932015Y-16603246D02*
X15941539Y-16584198D01*
X15941539Y-16584198D02*
X15951063Y-16574674D01*
X15951063Y-16574674D02*
X15970110Y-16565150D01*
X15970110Y-16565150D02*
X15998682Y-16565150D01*
X15998682Y-16565150D02*
X16017730Y-16574674D01*
X16017730Y-16574674D02*
X16027253Y-16584198D01*
X16027253Y-16584198D02*
X16036777Y-16603246D01*
X16036777Y-16603246D02*
X16036777Y-16660388D01*
X16036777Y-16660388D02*
X16027253Y-16679436D01*
X16027253Y-16679436D02*
X16017730Y-16688960D01*
X16017730Y-16688960D02*
X15998682Y-16698484D01*
X15998682Y-16698484D02*
X15970110Y-16698484D01*
X16151063Y-16698484D02*
X16132015Y-16688960D01*
X16132015Y-16688960D02*
X16122491Y-16669912D01*
X16122491Y-16669912D02*
X16122491Y-16498484D01*
X16303444Y-16688960D02*
X16284396Y-16698484D01*
X16284396Y-16698484D02*
X16246301Y-16698484D01*
X16246301Y-16698484D02*
X16227253Y-16688960D01*
X16227253Y-16688960D02*
X16217730Y-16669912D01*
X16217730Y-16669912D02*
X16217730Y-16593722D01*
X16217730Y-16593722D02*
X16227253Y-16574674D01*
X16227253Y-16574674D02*
X16246301Y-16565150D01*
X16246301Y-16565150D02*
X16284396Y-16565150D01*
X16284396Y-16565150D02*
X16303444Y-16574674D01*
X16303444Y-16574674D02*
X16312968Y-16593722D01*
X16312968Y-16593722D02*
X16312968Y-16612769D01*
X16312968Y-16612769D02*
X16217730Y-16631817D01*
X16389158Y-16688960D02*
X16408206Y-16698484D01*
X16408206Y-16698484D02*
X16446301Y-16698484D01*
X16446301Y-16698484D02*
X16465349Y-16688960D01*
X16465349Y-16688960D02*
X16474872Y-16669912D01*
X16474872Y-16669912D02*
X16474872Y-16660388D01*
X16474872Y-16660388D02*
X16465349Y-16641341D01*
X16465349Y-16641341D02*
X16446301Y-16631817D01*
X16446301Y-16631817D02*
X16417730Y-16631817D01*
X16417730Y-16631817D02*
X16398682Y-16622293D01*
X16398682Y-16622293D02*
X16389158Y-16603246D01*
X16389158Y-16603246D02*
X16389158Y-16593722D01*
X16389158Y-16593722D02*
X16398682Y-16574674D01*
X16398682Y-16574674D02*
X16417730Y-16565150D01*
X16417730Y-16565150D02*
X16446301Y-16565150D01*
X16446301Y-16565150D02*
X16465349Y-16574674D01*
X16541539Y-16774674D02*
X16551063Y-16765150D01*
X16551063Y-16765150D02*
X16570111Y-16736579D01*
X16570111Y-16736579D02*
X16579634Y-16717531D01*
X16579634Y-16717531D02*
X16589158Y-16688960D01*
X16589158Y-16688960D02*
X16598682Y-16641341D01*
X16598682Y-16641341D02*
X16598682Y-16603246D01*
X16598682Y-16603246D02*
X16589158Y-16555627D01*
X16589158Y-16555627D02*
X16579634Y-16527055D01*
X16579634Y-16527055D02*
X16570111Y-16508008D01*
X16570111Y-16508008D02*
X16551063Y-16479436D01*
X16551063Y-16479436D02*
X16541539Y-16469912D01*
D13*
X11491000Y-16956000D02*
X11576000Y-16871000D01*
X11491000Y-16786000D01*
X11406000Y-16871000D01*
X11491000Y-16956000D01*
D11*
X11941539Y-16962484D02*
X11827253Y-16962484D01*
X11884396Y-16962484D02*
X11884396Y-16762484D01*
X11884396Y-16762484D02*
X11865348Y-16791055D01*
X11865348Y-16791055D02*
X11846301Y-16810103D01*
X11846301Y-16810103D02*
X11827253Y-16819627D01*
X12027253Y-16943436D02*
X12036777Y-16952960D01*
X12036777Y-16952960D02*
X12027253Y-16962484D01*
X12027253Y-16962484D02*
X12017729Y-16952960D01*
X12017729Y-16952960D02*
X12027253Y-16943436D01*
X12027253Y-16943436D02*
X12027253Y-16962484D01*
X12103443Y-16762484D02*
X12236777Y-16762484D01*
X12236777Y-16762484D02*
X12151062Y-16962484D01*
X12351062Y-16762484D02*
X12370110Y-16762484D01*
X12370110Y-16762484D02*
X12389158Y-16772008D01*
X12389158Y-16772008D02*
X12398682Y-16781531D01*
X12398682Y-16781531D02*
X12408205Y-16800579D01*
X12408205Y-16800579D02*
X12417729Y-16838674D01*
X12417729Y-16838674D02*
X12417729Y-16886293D01*
X12417729Y-16886293D02*
X12408205Y-16924389D01*
X12408205Y-16924389D02*
X12398682Y-16943436D01*
X12398682Y-16943436D02*
X12389158Y-16952960D01*
X12389158Y-16952960D02*
X12370110Y-16962484D01*
X12370110Y-16962484D02*
X12351062Y-16962484D01*
X12351062Y-16962484D02*
X12332015Y-16952960D01*
X12332015Y-16952960D02*
X12322491Y-16943436D01*
X12322491Y-16943436D02*
X12312967Y-16924389D01*
X12312967Y-16924389D02*
X12303443Y-16886293D01*
X12303443Y-16886293D02*
X12303443Y-16838674D01*
X12303443Y-16838674D02*
X12312967Y-16800579D01*
X12312967Y-16800579D02*
X12322491Y-16781531D01*
X12322491Y-16781531D02*
X12332015Y-16772008D01*
X12332015Y-16772008D02*
X12351062Y-16762484D01*
X12541539Y-16762484D02*
X12560586Y-16762484D01*
X12560586Y-16762484D02*
X12579634Y-16772008D01*
X12579634Y-16772008D02*
X12589158Y-16781531D01*
X12589158Y-16781531D02*
X12598682Y-16800579D01*
X12598682Y-16800579D02*
X12608205Y-16838674D01*
X12608205Y-16838674D02*
X12608205Y-16886293D01*
X12608205Y-16886293D02*
X12598682Y-16924389D01*
X12598682Y-16924389D02*
X12589158Y-16943436D01*
X12589158Y-16943436D02*
X12579634Y-16952960D01*
X12579634Y-16952960D02*
X12560586Y-16962484D01*
X12560586Y-16962484D02*
X12541539Y-16962484D01*
X12541539Y-16962484D02*
X12522491Y-16952960D01*
X12522491Y-16952960D02*
X12512967Y-16943436D01*
X12512967Y-16943436D02*
X12503443Y-16924389D01*
X12503443Y-16924389D02*
X12493920Y-16886293D01*
X12493920Y-16886293D02*
X12493920Y-16838674D01*
X12493920Y-16838674D02*
X12503443Y-16800579D01*
X12503443Y-16800579D02*
X12512967Y-16781531D01*
X12512967Y-16781531D02*
X12522491Y-16772008D01*
X12522491Y-16772008D02*
X12541539Y-16762484D01*
X12693920Y-16962484D02*
X12693920Y-16829150D01*
X12693920Y-16848198D02*
X12703443Y-16838674D01*
X12703443Y-16838674D02*
X12722491Y-16829150D01*
X12722491Y-16829150D02*
X12751063Y-16829150D01*
X12751063Y-16829150D02*
X12770110Y-16838674D01*
X12770110Y-16838674D02*
X12779634Y-16857722D01*
X12779634Y-16857722D02*
X12779634Y-16962484D01*
X12779634Y-16857722D02*
X12789158Y-16838674D01*
X12789158Y-16838674D02*
X12808205Y-16829150D01*
X12808205Y-16829150D02*
X12836777Y-16829150D01*
X12836777Y-16829150D02*
X12855824Y-16838674D01*
X12855824Y-16838674D02*
X12865348Y-16857722D01*
X12865348Y-16857722D02*
X12865348Y-16962484D01*
X12960586Y-16962484D02*
X12960586Y-16829150D01*
X12960586Y-16848198D02*
X12970110Y-16838674D01*
X12970110Y-16838674D02*
X12989158Y-16829150D01*
X12989158Y-16829150D02*
X13017729Y-16829150D01*
X13017729Y-16829150D02*
X13036777Y-16838674D01*
X13036777Y-16838674D02*
X13046301Y-16857722D01*
X13046301Y-16857722D02*
X13046301Y-16962484D01*
X13046301Y-16857722D02*
X13055824Y-16838674D01*
X13055824Y-16838674D02*
X13074872Y-16829150D01*
X13074872Y-16829150D02*
X13103443Y-16829150D01*
X13103443Y-16829150D02*
X13122491Y-16838674D01*
X13122491Y-16838674D02*
X13132015Y-16857722D01*
X13132015Y-16857722D02*
X13132015Y-16962484D01*
X13522491Y-16752960D02*
X13351063Y-17010103D01*
X13779634Y-16762484D02*
X13798682Y-16762484D01*
X13798682Y-16762484D02*
X13817729Y-16772008D01*
X13817729Y-16772008D02*
X13827253Y-16781531D01*
X13827253Y-16781531D02*
X13836777Y-16800579D01*
X13836777Y-16800579D02*
X13846301Y-16838674D01*
X13846301Y-16838674D02*
X13846301Y-16886293D01*
X13846301Y-16886293D02*
X13836777Y-16924389D01*
X13836777Y-16924389D02*
X13827253Y-16943436D01*
X13827253Y-16943436D02*
X13817729Y-16952960D01*
X13817729Y-16952960D02*
X13798682Y-16962484D01*
X13798682Y-16962484D02*
X13779634Y-16962484D01*
X13779634Y-16962484D02*
X13760586Y-16952960D01*
X13760586Y-16952960D02*
X13751063Y-16943436D01*
X13751063Y-16943436D02*
X13741539Y-16924389D01*
X13741539Y-16924389D02*
X13732015Y-16886293D01*
X13732015Y-16886293D02*
X13732015Y-16838674D01*
X13732015Y-16838674D02*
X13741539Y-16800579D01*
X13741539Y-16800579D02*
X13751063Y-16781531D01*
X13751063Y-16781531D02*
X13760586Y-16772008D01*
X13760586Y-16772008D02*
X13779634Y-16762484D01*
X13932015Y-16943436D02*
X13941539Y-16952960D01*
X13941539Y-16952960D02*
X13932015Y-16962484D01*
X13932015Y-16962484D02*
X13922491Y-16952960D01*
X13922491Y-16952960D02*
X13932015Y-16943436D01*
X13932015Y-16943436D02*
X13932015Y-16962484D01*
X14065348Y-16762484D02*
X14084396Y-16762484D01*
X14084396Y-16762484D02*
X14103444Y-16772008D01*
X14103444Y-16772008D02*
X14112967Y-16781531D01*
X14112967Y-16781531D02*
X14122491Y-16800579D01*
X14122491Y-16800579D02*
X14132015Y-16838674D01*
X14132015Y-16838674D02*
X14132015Y-16886293D01*
X14132015Y-16886293D02*
X14122491Y-16924389D01*
X14122491Y-16924389D02*
X14112967Y-16943436D01*
X14112967Y-16943436D02*
X14103444Y-16952960D01*
X14103444Y-16952960D02*
X14084396Y-16962484D01*
X14084396Y-16962484D02*
X14065348Y-16962484D01*
X14065348Y-16962484D02*
X14046301Y-16952960D01*
X14046301Y-16952960D02*
X14036777Y-16943436D01*
X14036777Y-16943436D02*
X14027253Y-16924389D01*
X14027253Y-16924389D02*
X14017729Y-16886293D01*
X14017729Y-16886293D02*
X14017729Y-16838674D01*
X14017729Y-16838674D02*
X14027253Y-16800579D01*
X14027253Y-16800579D02*
X14036777Y-16781531D01*
X14036777Y-16781531D02*
X14046301Y-16772008D01*
X14046301Y-16772008D02*
X14065348Y-16762484D01*
X14303444Y-16762484D02*
X14265348Y-16762484D01*
X14265348Y-16762484D02*
X14246301Y-16772008D01*
X14246301Y-16772008D02*
X14236777Y-16781531D01*
X14236777Y-16781531D02*
X14217729Y-16810103D01*
X14217729Y-16810103D02*
X14208206Y-16848198D01*
X14208206Y-16848198D02*
X14208206Y-16924389D01*
X14208206Y-16924389D02*
X14217729Y-16943436D01*
X14217729Y-16943436D02*
X14227253Y-16952960D01*
X14227253Y-16952960D02*
X14246301Y-16962484D01*
X14246301Y-16962484D02*
X14284396Y-16962484D01*
X14284396Y-16962484D02*
X14303444Y-16952960D01*
X14303444Y-16952960D02*
X14312967Y-16943436D01*
X14312967Y-16943436D02*
X14322491Y-16924389D01*
X14322491Y-16924389D02*
X14322491Y-16876770D01*
X14322491Y-16876770D02*
X14312967Y-16857722D01*
X14312967Y-16857722D02*
X14303444Y-16848198D01*
X14303444Y-16848198D02*
X14284396Y-16838674D01*
X14284396Y-16838674D02*
X14246301Y-16838674D01*
X14246301Y-16838674D02*
X14227253Y-16848198D01*
X14227253Y-16848198D02*
X14217729Y-16857722D01*
X14217729Y-16857722D02*
X14208206Y-16876770D01*
X14493920Y-16762484D02*
X14455825Y-16762484D01*
X14455825Y-16762484D02*
X14436777Y-16772008D01*
X14436777Y-16772008D02*
X14427253Y-16781531D01*
X14427253Y-16781531D02*
X14408206Y-16810103D01*
X14408206Y-16810103D02*
X14398682Y-16848198D01*
X14398682Y-16848198D02*
X14398682Y-16924389D01*
X14398682Y-16924389D02*
X14408206Y-16943436D01*
X14408206Y-16943436D02*
X14417729Y-16952960D01*
X14417729Y-16952960D02*
X14436777Y-16962484D01*
X14436777Y-16962484D02*
X14474872Y-16962484D01*
X14474872Y-16962484D02*
X14493920Y-16952960D01*
X14493920Y-16952960D02*
X14503444Y-16943436D01*
X14503444Y-16943436D02*
X14512967Y-16924389D01*
X14512967Y-16924389D02*
X14512967Y-16876770D01*
X14512967Y-16876770D02*
X14503444Y-16857722D01*
X14503444Y-16857722D02*
X14493920Y-16848198D01*
X14493920Y-16848198D02*
X14474872Y-16838674D01*
X14474872Y-16838674D02*
X14436777Y-16838674D01*
X14436777Y-16838674D02*
X14417729Y-16848198D01*
X14417729Y-16848198D02*
X14408206Y-16857722D01*
X14408206Y-16857722D02*
X14398682Y-16876770D01*
X14608206Y-16962484D02*
X14646301Y-16962484D01*
X14646301Y-16962484D02*
X14665348Y-16952960D01*
X14665348Y-16952960D02*
X14674872Y-16943436D01*
X14674872Y-16943436D02*
X14693920Y-16914865D01*
X14693920Y-16914865D02*
X14703444Y-16876770D01*
X14703444Y-16876770D02*
X14703444Y-16800579D01*
X14703444Y-16800579D02*
X14693920Y-16781531D01*
X14693920Y-16781531D02*
X14684396Y-16772008D01*
X14684396Y-16772008D02*
X14665348Y-16762484D01*
X14665348Y-16762484D02*
X14627253Y-16762484D01*
X14627253Y-16762484D02*
X14608206Y-16772008D01*
X14608206Y-16772008D02*
X14598682Y-16781531D01*
X14598682Y-16781531D02*
X14589158Y-16800579D01*
X14589158Y-16800579D02*
X14589158Y-16848198D01*
X14589158Y-16848198D02*
X14598682Y-16867246D01*
X14598682Y-16867246D02*
X14608206Y-16876770D01*
X14608206Y-16876770D02*
X14627253Y-16886293D01*
X14627253Y-16886293D02*
X14665348Y-16886293D01*
X14665348Y-16886293D02*
X14684396Y-16876770D01*
X14684396Y-16876770D02*
X14693920Y-16867246D01*
X14693920Y-16867246D02*
X14703444Y-16848198D01*
X14779634Y-16762484D02*
X14779634Y-16800579D01*
X14855825Y-16762484D02*
X14855825Y-16800579D01*
X15151063Y-17038674D02*
X15141539Y-17029150D01*
X15141539Y-17029150D02*
X15122491Y-17000579D01*
X15122491Y-17000579D02*
X15112968Y-16981531D01*
X15112968Y-16981531D02*
X15103444Y-16952960D01*
X15103444Y-16952960D02*
X15093920Y-16905341D01*
X15093920Y-16905341D02*
X15093920Y-16867246D01*
X15093920Y-16867246D02*
X15103444Y-16819627D01*
X15103444Y-16819627D02*
X15112968Y-16791055D01*
X15112968Y-16791055D02*
X15122491Y-16772008D01*
X15122491Y-16772008D02*
X15141539Y-16743436D01*
X15141539Y-16743436D02*
X15151063Y-16733912D01*
X15217729Y-16781531D02*
X15227253Y-16772008D01*
X15227253Y-16772008D02*
X15246301Y-16762484D01*
X15246301Y-16762484D02*
X15293920Y-16762484D01*
X15293920Y-16762484D02*
X15312968Y-16772008D01*
X15312968Y-16772008D02*
X15322491Y-16781531D01*
X15322491Y-16781531D02*
X15332015Y-16800579D01*
X15332015Y-16800579D02*
X15332015Y-16819627D01*
X15332015Y-16819627D02*
X15322491Y-16848198D01*
X15322491Y-16848198D02*
X15208206Y-16962484D01*
X15208206Y-16962484D02*
X15332015Y-16962484D01*
X15570110Y-16962484D02*
X15570110Y-16762484D01*
X15655825Y-16962484D02*
X15655825Y-16857722D01*
X15655825Y-16857722D02*
X15646301Y-16838674D01*
X15646301Y-16838674D02*
X15627253Y-16829150D01*
X15627253Y-16829150D02*
X15598682Y-16829150D01*
X15598682Y-16829150D02*
X15579634Y-16838674D01*
X15579634Y-16838674D02*
X15570110Y-16848198D01*
X15779634Y-16962484D02*
X15760587Y-16952960D01*
X15760587Y-16952960D02*
X15751063Y-16943436D01*
X15751063Y-16943436D02*
X15741539Y-16924389D01*
X15741539Y-16924389D02*
X15741539Y-16867246D01*
X15741539Y-16867246D02*
X15751063Y-16848198D01*
X15751063Y-16848198D02*
X15760587Y-16838674D01*
X15760587Y-16838674D02*
X15779634Y-16829150D01*
X15779634Y-16829150D02*
X15808206Y-16829150D01*
X15808206Y-16829150D02*
X15827253Y-16838674D01*
X15827253Y-16838674D02*
X15836777Y-16848198D01*
X15836777Y-16848198D02*
X15846301Y-16867246D01*
X15846301Y-16867246D02*
X15846301Y-16924389D01*
X15846301Y-16924389D02*
X15836777Y-16943436D01*
X15836777Y-16943436D02*
X15827253Y-16952960D01*
X15827253Y-16952960D02*
X15808206Y-16962484D01*
X15808206Y-16962484D02*
X15779634Y-16962484D01*
X15960587Y-16962484D02*
X15941539Y-16952960D01*
X15941539Y-16952960D02*
X15932015Y-16933912D01*
X15932015Y-16933912D02*
X15932015Y-16762484D01*
X16112968Y-16952960D02*
X16093920Y-16962484D01*
X16093920Y-16962484D02*
X16055825Y-16962484D01*
X16055825Y-16962484D02*
X16036777Y-16952960D01*
X16036777Y-16952960D02*
X16027253Y-16933912D01*
X16027253Y-16933912D02*
X16027253Y-16857722D01*
X16027253Y-16857722D02*
X16036777Y-16838674D01*
X16036777Y-16838674D02*
X16055825Y-16829150D01*
X16055825Y-16829150D02*
X16093920Y-16829150D01*
X16093920Y-16829150D02*
X16112968Y-16838674D01*
X16112968Y-16838674D02*
X16122491Y-16857722D01*
X16122491Y-16857722D02*
X16122491Y-16876770D01*
X16122491Y-16876770D02*
X16027253Y-16895817D01*
X16198682Y-16952960D02*
X16217730Y-16962484D01*
X16217730Y-16962484D02*
X16255825Y-16962484D01*
X16255825Y-16962484D02*
X16274872Y-16952960D01*
X16274872Y-16952960D02*
X16284396Y-16933912D01*
X16284396Y-16933912D02*
X16284396Y-16924389D01*
X16284396Y-16924389D02*
X16274872Y-16905341D01*
X16274872Y-16905341D02*
X16255825Y-16895817D01*
X16255825Y-16895817D02*
X16227253Y-16895817D01*
X16227253Y-16895817D02*
X16208206Y-16886293D01*
X16208206Y-16886293D02*
X16198682Y-16867246D01*
X16198682Y-16867246D02*
X16198682Y-16857722D01*
X16198682Y-16857722D02*
X16208206Y-16838674D01*
X16208206Y-16838674D02*
X16227253Y-16829150D01*
X16227253Y-16829150D02*
X16255825Y-16829150D01*
X16255825Y-16829150D02*
X16274872Y-16838674D01*
X16351063Y-17038674D02*
X16360587Y-17029150D01*
X16360587Y-17029150D02*
X16379634Y-17000579D01*
X16379634Y-17000579D02*
X16389158Y-16981531D01*
X16389158Y-16981531D02*
X16398682Y-16952960D01*
X16398682Y-16952960D02*
X16408206Y-16905341D01*
X16408206Y-16905341D02*
X16408206Y-16867246D01*
X16408206Y-16867246D02*
X16398682Y-16819627D01*
X16398682Y-16819627D02*
X16389158Y-16791055D01*
X16389158Y-16791055D02*
X16379634Y-16772008D01*
X16379634Y-16772008D02*
X16360587Y-16743436D01*
X16360587Y-16743436D02*
X16351063Y-16733912D01*
D14*
X11405820Y-17075910D02*
X11576000Y-17246090D01*
X11576000Y-17075910D02*
X11405820Y-17246090D01*
X11576000Y-17161000D02*
G75*
G03*
X11405820Y-17161000I-85090J0D01*
G01*
X11405820Y-17161000D02*
G75*
G03*
X11576000Y-17161000I85090J0D01*
G01*
D11*
X11941539Y-17252484D02*
X11827253Y-17252484D01*
X11884396Y-17252484D02*
X11884396Y-17052484D01*
X11884396Y-17052484D02*
X11865348Y-17081055D01*
X11865348Y-17081055D02*
X11846301Y-17100103D01*
X11846301Y-17100103D02*
X11827253Y-17109627D01*
X12027253Y-17233436D02*
X12036777Y-17242960D01*
X12036777Y-17242960D02*
X12027253Y-17252484D01*
X12027253Y-17252484D02*
X12017729Y-17242960D01*
X12017729Y-17242960D02*
X12027253Y-17233436D01*
X12027253Y-17233436D02*
X12027253Y-17252484D01*
X12103443Y-17052484D02*
X12236777Y-17052484D01*
X12236777Y-17052484D02*
X12151062Y-17252484D01*
X12351062Y-17052484D02*
X12370110Y-17052484D01*
X12370110Y-17052484D02*
X12389158Y-17062008D01*
X12389158Y-17062008D02*
X12398682Y-17071531D01*
X12398682Y-17071531D02*
X12408205Y-17090579D01*
X12408205Y-17090579D02*
X12417729Y-17128674D01*
X12417729Y-17128674D02*
X12417729Y-17176293D01*
X12417729Y-17176293D02*
X12408205Y-17214389D01*
X12408205Y-17214389D02*
X12398682Y-17233436D01*
X12398682Y-17233436D02*
X12389158Y-17242960D01*
X12389158Y-17242960D02*
X12370110Y-17252484D01*
X12370110Y-17252484D02*
X12351062Y-17252484D01*
X12351062Y-17252484D02*
X12332015Y-17242960D01*
X12332015Y-17242960D02*
X12322491Y-17233436D01*
X12322491Y-17233436D02*
X12312967Y-17214389D01*
X12312967Y-17214389D02*
X12303443Y-17176293D01*
X12303443Y-17176293D02*
X12303443Y-17128674D01*
X12303443Y-17128674D02*
X12312967Y-17090579D01*
X12312967Y-17090579D02*
X12322491Y-17071531D01*
X12322491Y-17071531D02*
X12332015Y-17062008D01*
X12332015Y-17062008D02*
X12351062Y-17052484D01*
X12493920Y-17071531D02*
X12503443Y-17062008D01*
X12503443Y-17062008D02*
X12522491Y-17052484D01*
X12522491Y-17052484D02*
X12570110Y-17052484D01*
X12570110Y-17052484D02*
X12589158Y-17062008D01*
X12589158Y-17062008D02*
X12598682Y-17071531D01*
X12598682Y-17071531D02*
X12608205Y-17090579D01*
X12608205Y-17090579D02*
X12608205Y-17109627D01*
X12608205Y-17109627D02*
X12598682Y-17138198D01*
X12598682Y-17138198D02*
X12484396Y-17252484D01*
X12484396Y-17252484D02*
X12608205Y-17252484D01*
X12693920Y-17252484D02*
X12693920Y-17119150D01*
X12693920Y-17138198D02*
X12703443Y-17128674D01*
X12703443Y-17128674D02*
X12722491Y-17119150D01*
X12722491Y-17119150D02*
X12751063Y-17119150D01*
X12751063Y-17119150D02*
X12770110Y-17128674D01*
X12770110Y-17128674D02*
X12779634Y-17147722D01*
X12779634Y-17147722D02*
X12779634Y-17252484D01*
X12779634Y-17147722D02*
X12789158Y-17128674D01*
X12789158Y-17128674D02*
X12808205Y-17119150D01*
X12808205Y-17119150D02*
X12836777Y-17119150D01*
X12836777Y-17119150D02*
X12855824Y-17128674D01*
X12855824Y-17128674D02*
X12865348Y-17147722D01*
X12865348Y-17147722D02*
X12865348Y-17252484D01*
X12960586Y-17252484D02*
X12960586Y-17119150D01*
X12960586Y-17138198D02*
X12970110Y-17128674D01*
X12970110Y-17128674D02*
X12989158Y-17119150D01*
X12989158Y-17119150D02*
X13017729Y-17119150D01*
X13017729Y-17119150D02*
X13036777Y-17128674D01*
X13036777Y-17128674D02*
X13046301Y-17147722D01*
X13046301Y-17147722D02*
X13046301Y-17252484D01*
X13046301Y-17147722D02*
X13055824Y-17128674D01*
X13055824Y-17128674D02*
X13074872Y-17119150D01*
X13074872Y-17119150D02*
X13103443Y-17119150D01*
X13103443Y-17119150D02*
X13122491Y-17128674D01*
X13122491Y-17128674D02*
X13132015Y-17147722D01*
X13132015Y-17147722D02*
X13132015Y-17252484D01*
X13522491Y-17042960D02*
X13351063Y-17300103D01*
X13779634Y-17052484D02*
X13798682Y-17052484D01*
X13798682Y-17052484D02*
X13817729Y-17062008D01*
X13817729Y-17062008D02*
X13827253Y-17071531D01*
X13827253Y-17071531D02*
X13836777Y-17090579D01*
X13836777Y-17090579D02*
X13846301Y-17128674D01*
X13846301Y-17128674D02*
X13846301Y-17176293D01*
X13846301Y-17176293D02*
X13836777Y-17214389D01*
X13836777Y-17214389D02*
X13827253Y-17233436D01*
X13827253Y-17233436D02*
X13817729Y-17242960D01*
X13817729Y-17242960D02*
X13798682Y-17252484D01*
X13798682Y-17252484D02*
X13779634Y-17252484D01*
X13779634Y-17252484D02*
X13760586Y-17242960D01*
X13760586Y-17242960D02*
X13751063Y-17233436D01*
X13751063Y-17233436D02*
X13741539Y-17214389D01*
X13741539Y-17214389D02*
X13732015Y-17176293D01*
X13732015Y-17176293D02*
X13732015Y-17128674D01*
X13732015Y-17128674D02*
X13741539Y-17090579D01*
X13741539Y-17090579D02*
X13751063Y-17071531D01*
X13751063Y-17071531D02*
X13760586Y-17062008D01*
X13760586Y-17062008D02*
X13779634Y-17052484D01*
X13932015Y-17233436D02*
X13941539Y-17242960D01*
X13941539Y-17242960D02*
X13932015Y-17252484D01*
X13932015Y-17252484D02*
X13922491Y-17242960D01*
X13922491Y-17242960D02*
X13932015Y-17233436D01*
X13932015Y-17233436D02*
X13932015Y-17252484D01*
X14065348Y-17052484D02*
X14084396Y-17052484D01*
X14084396Y-17052484D02*
X14103444Y-17062008D01*
X14103444Y-17062008D02*
X14112967Y-17071531D01*
X14112967Y-17071531D02*
X14122491Y-17090579D01*
X14122491Y-17090579D02*
X14132015Y-17128674D01*
X14132015Y-17128674D02*
X14132015Y-17176293D01*
X14132015Y-17176293D02*
X14122491Y-17214389D01*
X14122491Y-17214389D02*
X14112967Y-17233436D01*
X14112967Y-17233436D02*
X14103444Y-17242960D01*
X14103444Y-17242960D02*
X14084396Y-17252484D01*
X14084396Y-17252484D02*
X14065348Y-17252484D01*
X14065348Y-17252484D02*
X14046301Y-17242960D01*
X14046301Y-17242960D02*
X14036777Y-17233436D01*
X14036777Y-17233436D02*
X14027253Y-17214389D01*
X14027253Y-17214389D02*
X14017729Y-17176293D01*
X14017729Y-17176293D02*
X14017729Y-17128674D01*
X14017729Y-17128674D02*
X14027253Y-17090579D01*
X14027253Y-17090579D02*
X14036777Y-17071531D01*
X14036777Y-17071531D02*
X14046301Y-17062008D01*
X14046301Y-17062008D02*
X14065348Y-17052484D01*
X14303444Y-17052484D02*
X14265348Y-17052484D01*
X14265348Y-17052484D02*
X14246301Y-17062008D01*
X14246301Y-17062008D02*
X14236777Y-17071531D01*
X14236777Y-17071531D02*
X14217729Y-17100103D01*
X14217729Y-17100103D02*
X14208206Y-17138198D01*
X14208206Y-17138198D02*
X14208206Y-17214389D01*
X14208206Y-17214389D02*
X14217729Y-17233436D01*
X14217729Y-17233436D02*
X14227253Y-17242960D01*
X14227253Y-17242960D02*
X14246301Y-17252484D01*
X14246301Y-17252484D02*
X14284396Y-17252484D01*
X14284396Y-17252484D02*
X14303444Y-17242960D01*
X14303444Y-17242960D02*
X14312967Y-17233436D01*
X14312967Y-17233436D02*
X14322491Y-17214389D01*
X14322491Y-17214389D02*
X14322491Y-17166770D01*
X14322491Y-17166770D02*
X14312967Y-17147722D01*
X14312967Y-17147722D02*
X14303444Y-17138198D01*
X14303444Y-17138198D02*
X14284396Y-17128674D01*
X14284396Y-17128674D02*
X14246301Y-17128674D01*
X14246301Y-17128674D02*
X14227253Y-17138198D01*
X14227253Y-17138198D02*
X14217729Y-17147722D01*
X14217729Y-17147722D02*
X14208206Y-17166770D01*
X14389158Y-17052484D02*
X14522491Y-17052484D01*
X14522491Y-17052484D02*
X14436777Y-17252484D01*
X14636777Y-17052484D02*
X14655825Y-17052484D01*
X14655825Y-17052484D02*
X14674872Y-17062008D01*
X14674872Y-17062008D02*
X14684396Y-17071531D01*
X14684396Y-17071531D02*
X14693920Y-17090579D01*
X14693920Y-17090579D02*
X14703444Y-17128674D01*
X14703444Y-17128674D02*
X14703444Y-17176293D01*
X14703444Y-17176293D02*
X14693920Y-17214389D01*
X14693920Y-17214389D02*
X14684396Y-17233436D01*
X14684396Y-17233436D02*
X14674872Y-17242960D01*
X14674872Y-17242960D02*
X14655825Y-17252484D01*
X14655825Y-17252484D02*
X14636777Y-17252484D01*
X14636777Y-17252484D02*
X14617729Y-17242960D01*
X14617729Y-17242960D02*
X14608206Y-17233436D01*
X14608206Y-17233436D02*
X14598682Y-17214389D01*
X14598682Y-17214389D02*
X14589158Y-17176293D01*
X14589158Y-17176293D02*
X14589158Y-17128674D01*
X14589158Y-17128674D02*
X14598682Y-17090579D01*
X14598682Y-17090579D02*
X14608206Y-17071531D01*
X14608206Y-17071531D02*
X14617729Y-17062008D01*
X14617729Y-17062008D02*
X14636777Y-17052484D01*
X14779634Y-17052484D02*
X14779634Y-17090579D01*
X14855825Y-17052484D02*
X14855825Y-17090579D01*
X15151063Y-17328674D02*
X15141539Y-17319150D01*
X15141539Y-17319150D02*
X15122491Y-17290579D01*
X15122491Y-17290579D02*
X15112968Y-17271531D01*
X15112968Y-17271531D02*
X15103444Y-17242960D01*
X15103444Y-17242960D02*
X15093920Y-17195341D01*
X15093920Y-17195341D02*
X15093920Y-17157246D01*
X15093920Y-17157246D02*
X15103444Y-17109627D01*
X15103444Y-17109627D02*
X15112968Y-17081055D01*
X15112968Y-17081055D02*
X15122491Y-17062008D01*
X15122491Y-17062008D02*
X15141539Y-17033436D01*
X15141539Y-17033436D02*
X15151063Y-17023912D01*
X15312968Y-17119150D02*
X15312968Y-17252484D01*
X15265348Y-17042960D02*
X15217729Y-17185817D01*
X15217729Y-17185817D02*
X15341539Y-17185817D01*
X15570110Y-17252484D02*
X15570110Y-17052484D01*
X15655825Y-17252484D02*
X15655825Y-17147722D01*
X15655825Y-17147722D02*
X15646301Y-17128674D01*
X15646301Y-17128674D02*
X15627253Y-17119150D01*
X15627253Y-17119150D02*
X15598682Y-17119150D01*
X15598682Y-17119150D02*
X15579634Y-17128674D01*
X15579634Y-17128674D02*
X15570110Y-17138198D01*
X15779634Y-17252484D02*
X15760587Y-17242960D01*
X15760587Y-17242960D02*
X15751063Y-17233436D01*
X15751063Y-17233436D02*
X15741539Y-17214389D01*
X15741539Y-17214389D02*
X15741539Y-17157246D01*
X15741539Y-17157246D02*
X15751063Y-17138198D01*
X15751063Y-17138198D02*
X15760587Y-17128674D01*
X15760587Y-17128674D02*
X15779634Y-17119150D01*
X15779634Y-17119150D02*
X15808206Y-17119150D01*
X15808206Y-17119150D02*
X15827253Y-17128674D01*
X15827253Y-17128674D02*
X15836777Y-17138198D01*
X15836777Y-17138198D02*
X15846301Y-17157246D01*
X15846301Y-17157246D02*
X15846301Y-17214389D01*
X15846301Y-17214389D02*
X15836777Y-17233436D01*
X15836777Y-17233436D02*
X15827253Y-17242960D01*
X15827253Y-17242960D02*
X15808206Y-17252484D01*
X15808206Y-17252484D02*
X15779634Y-17252484D01*
X15960587Y-17252484D02*
X15941539Y-17242960D01*
X15941539Y-17242960D02*
X15932015Y-17223912D01*
X15932015Y-17223912D02*
X15932015Y-17052484D01*
X16112968Y-17242960D02*
X16093920Y-17252484D01*
X16093920Y-17252484D02*
X16055825Y-17252484D01*
X16055825Y-17252484D02*
X16036777Y-17242960D01*
X16036777Y-17242960D02*
X16027253Y-17223912D01*
X16027253Y-17223912D02*
X16027253Y-17147722D01*
X16027253Y-17147722D02*
X16036777Y-17128674D01*
X16036777Y-17128674D02*
X16055825Y-17119150D01*
X16055825Y-17119150D02*
X16093920Y-17119150D01*
X16093920Y-17119150D02*
X16112968Y-17128674D01*
X16112968Y-17128674D02*
X16122491Y-17147722D01*
X16122491Y-17147722D02*
X16122491Y-17166770D01*
X16122491Y-17166770D02*
X16027253Y-17185817D01*
X16198682Y-17242960D02*
X16217730Y-17252484D01*
X16217730Y-17252484D02*
X16255825Y-17252484D01*
X16255825Y-17252484D02*
X16274872Y-17242960D01*
X16274872Y-17242960D02*
X16284396Y-17223912D01*
X16284396Y-17223912D02*
X16284396Y-17214389D01*
X16284396Y-17214389D02*
X16274872Y-17195341D01*
X16274872Y-17195341D02*
X16255825Y-17185817D01*
X16255825Y-17185817D02*
X16227253Y-17185817D01*
X16227253Y-17185817D02*
X16208206Y-17176293D01*
X16208206Y-17176293D02*
X16198682Y-17157246D01*
X16198682Y-17157246D02*
X16198682Y-17147722D01*
X16198682Y-17147722D02*
X16208206Y-17128674D01*
X16208206Y-17128674D02*
X16227253Y-17119150D01*
X16227253Y-17119150D02*
X16255825Y-17119150D01*
X16255825Y-17119150D02*
X16274872Y-17128674D01*
X16351063Y-17328674D02*
X16360587Y-17319150D01*
X16360587Y-17319150D02*
X16379634Y-17290579D01*
X16379634Y-17290579D02*
X16389158Y-17271531D01*
X16389158Y-17271531D02*
X16398682Y-17242960D01*
X16398682Y-17242960D02*
X16408206Y-17195341D01*
X16408206Y-17195341D02*
X16408206Y-17157246D01*
X16408206Y-17157246D02*
X16398682Y-17109627D01*
X16398682Y-17109627D02*
X16389158Y-17081055D01*
X16389158Y-17081055D02*
X16379634Y-17062008D01*
X16379634Y-17062008D02*
X16360587Y-17033436D01*
X16360587Y-17033436D02*
X16351063Y-17023912D01*
X11376000Y-17351180D02*
X11576000Y-17551180D01*
X11576000Y-17351180D02*
X11376000Y-17551180D01*
X11476000Y-17351180D02*
X11476000Y-17551180D01*
X11376000Y-17451180D02*
X11576000Y-17451180D01*
X11827253Y-17361711D02*
X11836777Y-17352188D01*
X11836777Y-17352188D02*
X11855824Y-17342664D01*
X11855824Y-17342664D02*
X11903443Y-17342664D01*
X11903443Y-17342664D02*
X11922491Y-17352188D01*
X11922491Y-17352188D02*
X11932015Y-17361711D01*
X11932015Y-17361711D02*
X11941539Y-17380759D01*
X11941539Y-17380759D02*
X11941539Y-17399807D01*
X11941539Y-17399807D02*
X11932015Y-17428378D01*
X11932015Y-17428378D02*
X11817729Y-17542664D01*
X11817729Y-17542664D02*
X11941539Y-17542664D01*
X12027253Y-17523616D02*
X12036777Y-17533140D01*
X12036777Y-17533140D02*
X12027253Y-17542664D01*
X12027253Y-17542664D02*
X12017729Y-17533140D01*
X12017729Y-17533140D02*
X12027253Y-17523616D01*
X12027253Y-17523616D02*
X12027253Y-17542664D01*
X12103443Y-17342664D02*
X12227253Y-17342664D01*
X12227253Y-17342664D02*
X12160586Y-17418854D01*
X12160586Y-17418854D02*
X12189158Y-17418854D01*
X12189158Y-17418854D02*
X12208205Y-17428378D01*
X12208205Y-17428378D02*
X12217729Y-17437902D01*
X12217729Y-17437902D02*
X12227253Y-17456950D01*
X12227253Y-17456950D02*
X12227253Y-17504569D01*
X12227253Y-17504569D02*
X12217729Y-17523616D01*
X12217729Y-17523616D02*
X12208205Y-17533140D01*
X12208205Y-17533140D02*
X12189158Y-17542664D01*
X12189158Y-17542664D02*
X12132015Y-17542664D01*
X12132015Y-17542664D02*
X12112967Y-17533140D01*
X12112967Y-17533140D02*
X12103443Y-17523616D01*
X12341539Y-17428378D02*
X12322491Y-17418854D01*
X12322491Y-17418854D02*
X12312967Y-17409330D01*
X12312967Y-17409330D02*
X12303443Y-17390283D01*
X12303443Y-17390283D02*
X12303443Y-17380759D01*
X12303443Y-17380759D02*
X12312967Y-17361711D01*
X12312967Y-17361711D02*
X12322491Y-17352188D01*
X12322491Y-17352188D02*
X12341539Y-17342664D01*
X12341539Y-17342664D02*
X12379634Y-17342664D01*
X12379634Y-17342664D02*
X12398682Y-17352188D01*
X12398682Y-17352188D02*
X12408205Y-17361711D01*
X12408205Y-17361711D02*
X12417729Y-17380759D01*
X12417729Y-17380759D02*
X12417729Y-17390283D01*
X12417729Y-17390283D02*
X12408205Y-17409330D01*
X12408205Y-17409330D02*
X12398682Y-17418854D01*
X12398682Y-17418854D02*
X12379634Y-17428378D01*
X12379634Y-17428378D02*
X12341539Y-17428378D01*
X12341539Y-17428378D02*
X12322491Y-17437902D01*
X12322491Y-17437902D02*
X12312967Y-17447426D01*
X12312967Y-17447426D02*
X12303443Y-17466473D01*
X12303443Y-17466473D02*
X12303443Y-17504569D01*
X12303443Y-17504569D02*
X12312967Y-17523616D01*
X12312967Y-17523616D02*
X12322491Y-17533140D01*
X12322491Y-17533140D02*
X12341539Y-17542664D01*
X12341539Y-17542664D02*
X12379634Y-17542664D01*
X12379634Y-17542664D02*
X12398682Y-17533140D01*
X12398682Y-17533140D02*
X12408205Y-17523616D01*
X12408205Y-17523616D02*
X12417729Y-17504569D01*
X12417729Y-17504569D02*
X12417729Y-17466473D01*
X12417729Y-17466473D02*
X12408205Y-17447426D01*
X12408205Y-17447426D02*
X12398682Y-17437902D01*
X12398682Y-17437902D02*
X12379634Y-17428378D01*
X12532015Y-17428378D02*
X12512967Y-17418854D01*
X12512967Y-17418854D02*
X12503443Y-17409330D01*
X12503443Y-17409330D02*
X12493920Y-17390283D01*
X12493920Y-17390283D02*
X12493920Y-17380759D01*
X12493920Y-17380759D02*
X12503443Y-17361711D01*
X12503443Y-17361711D02*
X12512967Y-17352188D01*
X12512967Y-17352188D02*
X12532015Y-17342664D01*
X12532015Y-17342664D02*
X12570110Y-17342664D01*
X12570110Y-17342664D02*
X12589158Y-17352188D01*
X12589158Y-17352188D02*
X12598682Y-17361711D01*
X12598682Y-17361711D02*
X12608205Y-17380759D01*
X12608205Y-17380759D02*
X12608205Y-17390283D01*
X12608205Y-17390283D02*
X12598682Y-17409330D01*
X12598682Y-17409330D02*
X12589158Y-17418854D01*
X12589158Y-17418854D02*
X12570110Y-17428378D01*
X12570110Y-17428378D02*
X12532015Y-17428378D01*
X12532015Y-17428378D02*
X12512967Y-17437902D01*
X12512967Y-17437902D02*
X12503443Y-17447426D01*
X12503443Y-17447426D02*
X12493920Y-17466473D01*
X12493920Y-17466473D02*
X12493920Y-17504569D01*
X12493920Y-17504569D02*
X12503443Y-17523616D01*
X12503443Y-17523616D02*
X12512967Y-17533140D01*
X12512967Y-17533140D02*
X12532015Y-17542664D01*
X12532015Y-17542664D02*
X12570110Y-17542664D01*
X12570110Y-17542664D02*
X12589158Y-17533140D01*
X12589158Y-17533140D02*
X12598682Y-17523616D01*
X12598682Y-17523616D02*
X12608205Y-17504569D01*
X12608205Y-17504569D02*
X12608205Y-17466473D01*
X12608205Y-17466473D02*
X12598682Y-17447426D01*
X12598682Y-17447426D02*
X12589158Y-17437902D01*
X12589158Y-17437902D02*
X12570110Y-17428378D01*
X12693920Y-17542664D02*
X12693920Y-17409330D01*
X12693920Y-17428378D02*
X12703443Y-17418854D01*
X12703443Y-17418854D02*
X12722491Y-17409330D01*
X12722491Y-17409330D02*
X12751063Y-17409330D01*
X12751063Y-17409330D02*
X12770110Y-17418854D01*
X12770110Y-17418854D02*
X12779634Y-17437902D01*
X12779634Y-17437902D02*
X12779634Y-17542664D01*
X12779634Y-17437902D02*
X12789158Y-17418854D01*
X12789158Y-17418854D02*
X12808205Y-17409330D01*
X12808205Y-17409330D02*
X12836777Y-17409330D01*
X12836777Y-17409330D02*
X12855824Y-17418854D01*
X12855824Y-17418854D02*
X12865348Y-17437902D01*
X12865348Y-17437902D02*
X12865348Y-17542664D01*
X12960586Y-17542664D02*
X12960586Y-17409330D01*
X12960586Y-17428378D02*
X12970110Y-17418854D01*
X12970110Y-17418854D02*
X12989158Y-17409330D01*
X12989158Y-17409330D02*
X13017729Y-17409330D01*
X13017729Y-17409330D02*
X13036777Y-17418854D01*
X13036777Y-17418854D02*
X13046301Y-17437902D01*
X13046301Y-17437902D02*
X13046301Y-17542664D01*
X13046301Y-17437902D02*
X13055824Y-17418854D01*
X13055824Y-17418854D02*
X13074872Y-17409330D01*
X13074872Y-17409330D02*
X13103443Y-17409330D01*
X13103443Y-17409330D02*
X13122491Y-17418854D01*
X13122491Y-17418854D02*
X13132015Y-17437902D01*
X13132015Y-17437902D02*
X13132015Y-17542664D01*
X13522491Y-17333140D02*
X13351063Y-17590283D01*
X13779634Y-17342664D02*
X13798682Y-17342664D01*
X13798682Y-17342664D02*
X13817729Y-17352188D01*
X13817729Y-17352188D02*
X13827253Y-17361711D01*
X13827253Y-17361711D02*
X13836777Y-17380759D01*
X13836777Y-17380759D02*
X13846301Y-17418854D01*
X13846301Y-17418854D02*
X13846301Y-17466473D01*
X13846301Y-17466473D02*
X13836777Y-17504569D01*
X13836777Y-17504569D02*
X13827253Y-17523616D01*
X13827253Y-17523616D02*
X13817729Y-17533140D01*
X13817729Y-17533140D02*
X13798682Y-17542664D01*
X13798682Y-17542664D02*
X13779634Y-17542664D01*
X13779634Y-17542664D02*
X13760586Y-17533140D01*
X13760586Y-17533140D02*
X13751063Y-17523616D01*
X13751063Y-17523616D02*
X13741539Y-17504569D01*
X13741539Y-17504569D02*
X13732015Y-17466473D01*
X13732015Y-17466473D02*
X13732015Y-17418854D01*
X13732015Y-17418854D02*
X13741539Y-17380759D01*
X13741539Y-17380759D02*
X13751063Y-17361711D01*
X13751063Y-17361711D02*
X13760586Y-17352188D01*
X13760586Y-17352188D02*
X13779634Y-17342664D01*
X13932015Y-17523616D02*
X13941539Y-17533140D01*
X13941539Y-17533140D02*
X13932015Y-17542664D01*
X13932015Y-17542664D02*
X13922491Y-17533140D01*
X13922491Y-17533140D02*
X13932015Y-17523616D01*
X13932015Y-17523616D02*
X13932015Y-17542664D01*
X14065348Y-17342664D02*
X14084396Y-17342664D01*
X14084396Y-17342664D02*
X14103444Y-17352188D01*
X14103444Y-17352188D02*
X14112967Y-17361711D01*
X14112967Y-17361711D02*
X14122491Y-17380759D01*
X14122491Y-17380759D02*
X14132015Y-17418854D01*
X14132015Y-17418854D02*
X14132015Y-17466473D01*
X14132015Y-17466473D02*
X14122491Y-17504569D01*
X14122491Y-17504569D02*
X14112967Y-17523616D01*
X14112967Y-17523616D02*
X14103444Y-17533140D01*
X14103444Y-17533140D02*
X14084396Y-17542664D01*
X14084396Y-17542664D02*
X14065348Y-17542664D01*
X14065348Y-17542664D02*
X14046301Y-17533140D01*
X14046301Y-17533140D02*
X14036777Y-17523616D01*
X14036777Y-17523616D02*
X14027253Y-17504569D01*
X14027253Y-17504569D02*
X14017729Y-17466473D01*
X14017729Y-17466473D02*
X14017729Y-17418854D01*
X14017729Y-17418854D02*
X14027253Y-17380759D01*
X14027253Y-17380759D02*
X14036777Y-17361711D01*
X14036777Y-17361711D02*
X14046301Y-17352188D01*
X14046301Y-17352188D02*
X14065348Y-17342664D01*
X14227253Y-17542664D02*
X14265348Y-17542664D01*
X14265348Y-17542664D02*
X14284396Y-17533140D01*
X14284396Y-17533140D02*
X14293920Y-17523616D01*
X14293920Y-17523616D02*
X14312967Y-17495045D01*
X14312967Y-17495045D02*
X14322491Y-17456950D01*
X14322491Y-17456950D02*
X14322491Y-17380759D01*
X14322491Y-17380759D02*
X14312967Y-17361711D01*
X14312967Y-17361711D02*
X14303444Y-17352188D01*
X14303444Y-17352188D02*
X14284396Y-17342664D01*
X14284396Y-17342664D02*
X14246301Y-17342664D01*
X14246301Y-17342664D02*
X14227253Y-17352188D01*
X14227253Y-17352188D02*
X14217729Y-17361711D01*
X14217729Y-17361711D02*
X14208206Y-17380759D01*
X14208206Y-17380759D02*
X14208206Y-17428378D01*
X14208206Y-17428378D02*
X14217729Y-17447426D01*
X14217729Y-17447426D02*
X14227253Y-17456950D01*
X14227253Y-17456950D02*
X14246301Y-17466473D01*
X14246301Y-17466473D02*
X14284396Y-17466473D01*
X14284396Y-17466473D02*
X14303444Y-17456950D01*
X14303444Y-17456950D02*
X14312967Y-17447426D01*
X14312967Y-17447426D02*
X14322491Y-17428378D01*
X14493920Y-17409330D02*
X14493920Y-17542664D01*
X14446301Y-17333140D02*
X14398682Y-17475997D01*
X14398682Y-17475997D02*
X14522491Y-17475997D01*
X14636777Y-17342664D02*
X14655825Y-17342664D01*
X14655825Y-17342664D02*
X14674872Y-17352188D01*
X14674872Y-17352188D02*
X14684396Y-17361711D01*
X14684396Y-17361711D02*
X14693920Y-17380759D01*
X14693920Y-17380759D02*
X14703444Y-17418854D01*
X14703444Y-17418854D02*
X14703444Y-17466473D01*
X14703444Y-17466473D02*
X14693920Y-17504569D01*
X14693920Y-17504569D02*
X14684396Y-17523616D01*
X14684396Y-17523616D02*
X14674872Y-17533140D01*
X14674872Y-17533140D02*
X14655825Y-17542664D01*
X14655825Y-17542664D02*
X14636777Y-17542664D01*
X14636777Y-17542664D02*
X14617729Y-17533140D01*
X14617729Y-17533140D02*
X14608206Y-17523616D01*
X14608206Y-17523616D02*
X14598682Y-17504569D01*
X14598682Y-17504569D02*
X14589158Y-17466473D01*
X14589158Y-17466473D02*
X14589158Y-17418854D01*
X14589158Y-17418854D02*
X14598682Y-17380759D01*
X14598682Y-17380759D02*
X14608206Y-17361711D01*
X14608206Y-17361711D02*
X14617729Y-17352188D01*
X14617729Y-17352188D02*
X14636777Y-17342664D01*
X14779634Y-17342664D02*
X14779634Y-17380759D01*
X14855825Y-17342664D02*
X14855825Y-17380759D01*
X15151063Y-17618854D02*
X15141539Y-17609330D01*
X15141539Y-17609330D02*
X15122491Y-17580759D01*
X15122491Y-17580759D02*
X15112968Y-17561711D01*
X15112968Y-17561711D02*
X15103444Y-17533140D01*
X15103444Y-17533140D02*
X15093920Y-17485521D01*
X15093920Y-17485521D02*
X15093920Y-17447426D01*
X15093920Y-17447426D02*
X15103444Y-17399807D01*
X15103444Y-17399807D02*
X15112968Y-17371235D01*
X15112968Y-17371235D02*
X15122491Y-17352188D01*
X15122491Y-17352188D02*
X15141539Y-17323616D01*
X15141539Y-17323616D02*
X15151063Y-17314092D01*
X15217729Y-17361711D02*
X15227253Y-17352188D01*
X15227253Y-17352188D02*
X15246301Y-17342664D01*
X15246301Y-17342664D02*
X15293920Y-17342664D01*
X15293920Y-17342664D02*
X15312968Y-17352188D01*
X15312968Y-17352188D02*
X15322491Y-17361711D01*
X15322491Y-17361711D02*
X15332015Y-17380759D01*
X15332015Y-17380759D02*
X15332015Y-17399807D01*
X15332015Y-17399807D02*
X15322491Y-17428378D01*
X15322491Y-17428378D02*
X15208206Y-17542664D01*
X15208206Y-17542664D02*
X15332015Y-17542664D01*
X15570110Y-17542664D02*
X15570110Y-17342664D01*
X15655825Y-17542664D02*
X15655825Y-17437902D01*
X15655825Y-17437902D02*
X15646301Y-17418854D01*
X15646301Y-17418854D02*
X15627253Y-17409330D01*
X15627253Y-17409330D02*
X15598682Y-17409330D01*
X15598682Y-17409330D02*
X15579634Y-17418854D01*
X15579634Y-17418854D02*
X15570110Y-17428378D01*
X15779634Y-17542664D02*
X15760587Y-17533140D01*
X15760587Y-17533140D02*
X15751063Y-17523616D01*
X15751063Y-17523616D02*
X15741539Y-17504569D01*
X15741539Y-17504569D02*
X15741539Y-17447426D01*
X15741539Y-17447426D02*
X15751063Y-17428378D01*
X15751063Y-17428378D02*
X15760587Y-17418854D01*
X15760587Y-17418854D02*
X15779634Y-17409330D01*
X15779634Y-17409330D02*
X15808206Y-17409330D01*
X15808206Y-17409330D02*
X15827253Y-17418854D01*
X15827253Y-17418854D02*
X15836777Y-17428378D01*
X15836777Y-17428378D02*
X15846301Y-17447426D01*
X15846301Y-17447426D02*
X15846301Y-17504569D01*
X15846301Y-17504569D02*
X15836777Y-17523616D01*
X15836777Y-17523616D02*
X15827253Y-17533140D01*
X15827253Y-17533140D02*
X15808206Y-17542664D01*
X15808206Y-17542664D02*
X15779634Y-17542664D01*
X15960587Y-17542664D02*
X15941539Y-17533140D01*
X15941539Y-17533140D02*
X15932015Y-17514092D01*
X15932015Y-17514092D02*
X15932015Y-17342664D01*
X16112968Y-17533140D02*
X16093920Y-17542664D01*
X16093920Y-17542664D02*
X16055825Y-17542664D01*
X16055825Y-17542664D02*
X16036777Y-17533140D01*
X16036777Y-17533140D02*
X16027253Y-17514092D01*
X16027253Y-17514092D02*
X16027253Y-17437902D01*
X16027253Y-17437902D02*
X16036777Y-17418854D01*
X16036777Y-17418854D02*
X16055825Y-17409330D01*
X16055825Y-17409330D02*
X16093920Y-17409330D01*
X16093920Y-17409330D02*
X16112968Y-17418854D01*
X16112968Y-17418854D02*
X16122491Y-17437902D01*
X16122491Y-17437902D02*
X16122491Y-17456950D01*
X16122491Y-17456950D02*
X16027253Y-17475997D01*
X16198682Y-17533140D02*
X16217730Y-17542664D01*
X16217730Y-17542664D02*
X16255825Y-17542664D01*
X16255825Y-17542664D02*
X16274872Y-17533140D01*
X16274872Y-17533140D02*
X16284396Y-17514092D01*
X16284396Y-17514092D02*
X16284396Y-17504569D01*
X16284396Y-17504569D02*
X16274872Y-17485521D01*
X16274872Y-17485521D02*
X16255825Y-17475997D01*
X16255825Y-17475997D02*
X16227253Y-17475997D01*
X16227253Y-17475997D02*
X16208206Y-17466473D01*
X16208206Y-17466473D02*
X16198682Y-17447426D01*
X16198682Y-17447426D02*
X16198682Y-17437902D01*
X16198682Y-17437902D02*
X16208206Y-17418854D01*
X16208206Y-17418854D02*
X16227253Y-17409330D01*
X16227253Y-17409330D02*
X16255825Y-17409330D01*
X16255825Y-17409330D02*
X16274872Y-17418854D01*
X16351063Y-17618854D02*
X16360587Y-17609330D01*
X16360587Y-17609330D02*
X16379634Y-17580759D01*
X16379634Y-17580759D02*
X16389158Y-17561711D01*
X16389158Y-17561711D02*
X16398682Y-17533140D01*
X16398682Y-17533140D02*
X16408206Y-17485521D01*
X16408206Y-17485521D02*
X16408206Y-17447426D01*
X16408206Y-17447426D02*
X16398682Y-17399807D01*
X16398682Y-17399807D02*
X16389158Y-17371235D01*
X16389158Y-17371235D02*
X16379634Y-17352188D01*
X16379634Y-17352188D02*
X16360587Y-17323616D01*
X16360587Y-17323616D02*
X16351063Y-17314092D01*
M02*
