%TF.GenerationSoftware,KiCad,Pcbnew,7.0.11*%
%TF.CreationDate,2024-12-08T12:57:22-05:00*%
%TF.ProjectId,wsg1.0,77736731-2e30-42e6-9b69-6361645f7063,rev?*%
%TF.SameCoordinates,Original*%
%TF.FileFunction,Soldermask,Top*%
%TF.FilePolarity,Negative*%
%FSLAX46Y46*%
G04 Gerber Fmt 4.6, Leading zero omitted, Abs format (unit mm)*
G04 Created by KiCad (PCBNEW 7.0.11) date 2024-12-08 12:57:22*
%MOMM*%
%LPD*%
G01*
G04 APERTURE LIST*
G04 Aperture macros list*
%AMRoundRect*
0 Rectangle with rounded corners*
0 $1 Rounding radius*
0 $2 $3 $4 $5 $6 $7 $8 $9 X,Y pos of 4 corners*
0 Add a 4 corners polygon primitive as box body*
4,1,4,$2,$3,$4,$5,$6,$7,$8,$9,$2,$3,0*
0 Add four circle primitives for the rounded corners*
1,1,$1+$1,$2,$3*
1,1,$1+$1,$4,$5*
1,1,$1+$1,$6,$7*
1,1,$1+$1,$8,$9*
0 Add four rect primitives between the rounded corners*
20,1,$1+$1,$2,$3,$4,$5,0*
20,1,$1+$1,$4,$5,$6,$7,0*
20,1,$1+$1,$6,$7,$8,$9,0*
20,1,$1+$1,$8,$9,$2,$3,0*%
G04 Aperture macros list end*
%ADD10R,4.000000X4.000000*%
%ADD11RoundRect,0.100000X-0.130000X-0.100000X0.130000X-0.100000X0.130000X0.100000X-0.130000X0.100000X0*%
%ADD12RoundRect,0.102000X0.545000X0.305000X-0.545000X0.305000X-0.545000X-0.305000X0.545000X-0.305000X0*%
%ADD13R,1.150000X0.600000*%
%ADD14RoundRect,0.147500X0.172500X-0.147500X0.172500X0.147500X-0.172500X0.147500X-0.172500X-0.147500X0*%
%ADD15RoundRect,0.100000X0.100000X-0.130000X0.100000X0.130000X-0.100000X0.130000X-0.100000X-0.130000X0*%
%ADD16RoundRect,0.100000X-0.100000X0.130000X-0.100000X-0.130000X0.100000X-0.130000X0.100000X0.130000X0*%
%ADD17RoundRect,0.250000X0.450000X-0.262500X0.450000X0.262500X-0.450000X0.262500X-0.450000X-0.262500X0*%
%ADD18RoundRect,0.102000X0.765000X-0.765000X0.765000X0.765000X-0.765000X0.765000X-0.765000X-0.765000X0*%
%ADD19C,1.734000*%
%ADD20RoundRect,0.102000X0.400000X-0.750000X0.400000X0.750000X-0.400000X0.750000X-0.400000X-0.750000X0*%
%ADD21RoundRect,0.102000X2.025000X-1.625000X2.025000X1.625000X-2.025000X1.625000X-2.025000X-1.625000X0*%
%ADD22RoundRect,0.147500X-0.147500X-0.172500X0.147500X-0.172500X0.147500X0.172500X-0.147500X0.172500X0*%
%ADD23C,1.200000*%
%ADD24R,1.200000X0.750000*%
%ADD25C,2.550000*%
%ADD26R,0.260000X0.530000*%
%ADD27RoundRect,0.100000X0.130000X0.100000X-0.130000X0.100000X-0.130000X-0.100000X0.130000X-0.100000X0*%
%ADD28RoundRect,0.135000X-0.135000X-0.185000X0.135000X-0.185000X0.135000X0.185000X-0.135000X0.185000X0*%
%ADD29RoundRect,0.147500X0.147500X0.172500X-0.147500X0.172500X-0.147500X-0.172500X0.147500X-0.172500X0*%
%ADD30C,2.209800*%
%ADD31C,2.387600*%
%ADD32RoundRect,0.100500X-0.301500X0.986500X-0.301500X-0.986500X0.301500X-0.986500X0.301500X0.986500X0*%
%ADD33RoundRect,0.135000X0.135000X0.185000X-0.135000X0.185000X-0.135000X-0.185000X0.135000X-0.185000X0*%
%ADD34RoundRect,0.076750X0.810250X0.230250X-0.810250X0.230250X-0.810250X-0.230250X0.810250X-0.230250X0*%
%ADD35RoundRect,0.135000X0.185000X-0.135000X0.185000X0.135000X-0.185000X0.135000X-0.185000X-0.135000X0*%
%ADD36RoundRect,0.102000X-0.215900X0.749300X-0.215900X-0.749300X0.215900X-0.749300X0.215900X0.749300X0*%
G04 APERTURE END LIST*
D10*
%TO.C,TP1*%
X119200000Y-142300000D03*
%TD*%
D11*
%TO.C,C5*%
X121580000Y-138500000D03*
X122220000Y-138500000D03*
%TD*%
D12*
%TO.C,LinReg2*%
X161240000Y-146615000D03*
X161240000Y-144785000D03*
X159100000Y-145700000D03*
%TD*%
D11*
%TO.C,C2*%
X135165000Y-128825000D03*
X135805000Y-128825000D03*
%TD*%
D13*
%TO.C,IC1*%
X144290000Y-126000000D03*
X144290000Y-125050000D03*
X144290000Y-124100000D03*
X141790000Y-124100000D03*
X141790000Y-125050000D03*
X141790000Y-126000000D03*
%TD*%
D14*
%TO.C,Zener1*%
X145905000Y-127987500D03*
X145905000Y-127017500D03*
%TD*%
D15*
%TO.C,R3*%
X142240000Y-133540000D03*
X142240000Y-132900000D03*
%TD*%
%TO.C,C6*%
X146360000Y-125590000D03*
X146360000Y-124950000D03*
%TD*%
D16*
%TO.C,R12*%
X137070000Y-148140000D03*
X137070000Y-148780000D03*
%TD*%
D11*
%TO.C,C8*%
X159500000Y-127350000D03*
X160140000Y-127350000D03*
%TD*%
D15*
%TO.C,R5*%
X137130000Y-133530000D03*
X137130000Y-132890000D03*
%TD*%
D17*
%TO.C,R1*%
X136915000Y-127037500D03*
X136915000Y-125212500D03*
%TD*%
D18*
%TO.C,U2*%
X129470000Y-150260000D03*
D19*
X132010000Y-150260000D03*
X134550000Y-150260000D03*
X137090000Y-150260000D03*
X139630000Y-150260000D03*
X142170000Y-150260000D03*
X144710000Y-150260000D03*
X144710000Y-135020000D03*
X142170000Y-135020000D03*
X139630000Y-135020000D03*
X137090000Y-135020000D03*
X134550000Y-135020000D03*
X132010000Y-135020000D03*
X129470000Y-135020000D03*
%TD*%
D20*
%TO.C,F1*%
X150500000Y-149910000D03*
X151770000Y-149910000D03*
X153040000Y-149910000D03*
X154310000Y-149910000D03*
X154310000Y-141610000D03*
X153040000Y-141610000D03*
X151770000Y-141610000D03*
X150500000Y-141610000D03*
D21*
X152405000Y-145760000D03*
%TD*%
D22*
%TO.C,TVS1*%
X131645000Y-128910000D03*
X132615000Y-128910000D03*
%TD*%
D11*
%TO.C,C11*%
X158790000Y-142750000D03*
X159430000Y-142750000D03*
%TD*%
D23*
%TO.C,J1*%
X118700000Y-128890000D03*
X124700000Y-128890000D03*
D24*
X129400000Y-126440000D03*
X129400000Y-130340000D03*
X129400000Y-128890000D03*
X129400000Y-131340000D03*
X129400000Y-127440000D03*
D25*
X118700000Y-125140000D03*
X118700000Y-132640000D03*
%TD*%
D16*
%TO.C,R11*%
X134570000Y-148160000D03*
X134570000Y-148800000D03*
%TD*%
D26*
%TO.C,BConv1*%
X132640000Y-126950000D03*
X133240000Y-126950000D03*
X133840000Y-126950000D03*
X134440000Y-126950000D03*
X134440000Y-125750000D03*
X133840000Y-125750000D03*
X133240000Y-125750000D03*
X132640000Y-125750000D03*
%TD*%
D16*
%TO.C,R7*%
X132000000Y-148180000D03*
X132000000Y-148820000D03*
%TD*%
D27*
%TO.C,R8*%
X159610000Y-133630000D03*
X158970000Y-133630000D03*
%TD*%
D16*
%TO.C,R4*%
X139640000Y-136740000D03*
X139640000Y-137380000D03*
%TD*%
D27*
%TO.C,C3*%
X133980000Y-132130000D03*
X133340000Y-132130000D03*
%TD*%
D16*
%TO.C,R6*%
X129510000Y-148190000D03*
X129510000Y-148830000D03*
%TD*%
D28*
%TO.C,R10*%
X157560000Y-127410000D03*
X158580000Y-127410000D03*
%TD*%
D11*
%TO.C,C12*%
X158760000Y-143550000D03*
X159400000Y-143550000D03*
%TD*%
D27*
%TO.C,C1*%
X134210000Y-128850000D03*
X133570000Y-128850000D03*
%TD*%
D15*
%TO.C,C15*%
X147200000Y-125600000D03*
X147200000Y-124960000D03*
%TD*%
D29*
%TO.C,D8*%
X124147500Y-135170000D03*
X123177500Y-135170000D03*
%TD*%
D30*
%TO.C,U3*%
X164860000Y-141840002D03*
X164860000Y-132740000D03*
X169280000Y-141840002D03*
X169280000Y-132740000D03*
D31*
X167069999Y-147704999D03*
X167069999Y-126875003D03*
%TD*%
D32*
%TO.C,InstrAmp1*%
X161170000Y-135310000D03*
X159900000Y-135310000D03*
X158630000Y-135310000D03*
X157360000Y-135310000D03*
X157360000Y-140250000D03*
X158630000Y-140250000D03*
X159900000Y-140250000D03*
X161170000Y-140250000D03*
%TD*%
D16*
%TO.C,C7*%
X144915000Y-127330000D03*
X144915000Y-127970000D03*
%TD*%
D33*
%TO.C,R2*%
X134635000Y-123775000D03*
X133615000Y-123775000D03*
%TD*%
D34*
%TO.C,U1*%
X155000000Y-131095000D03*
X155000000Y-130445000D03*
X155000000Y-129795000D03*
X155000000Y-129145000D03*
X155000000Y-128495000D03*
X155000000Y-127845000D03*
X155000000Y-127195000D03*
X155000000Y-126545000D03*
X149260000Y-126545000D03*
X149260000Y-127195000D03*
X149260000Y-127845000D03*
X149260000Y-128495000D03*
X149260000Y-129145000D03*
X149260000Y-129795000D03*
X149260000Y-130445000D03*
X149260000Y-131095000D03*
%TD*%
D35*
%TO.C,R9*%
X148540000Y-143910000D03*
X148540000Y-142890000D03*
%TD*%
D36*
%TO.C,DAC1*%
X155285200Y-134025600D03*
X154650200Y-134025600D03*
X153989800Y-134025600D03*
X153354800Y-134025600D03*
X153354800Y-138394400D03*
X153989800Y-138394400D03*
X154650200Y-138394400D03*
X155285200Y-138394400D03*
%TD*%
D27*
%TO.C,C4*%
X133970000Y-132970000D03*
X133330000Y-132970000D03*
%TD*%
M02*
