%TF.GenerationSoftware,KiCad,Pcbnew,7.0.10*%
%TF.CreationDate,2024-12-23T10:05:36-08:00*%
%TF.ProjectId,wsg1.0,77736731-2e30-42e6-9b69-6361645f7063,rev?*%
%TF.SameCoordinates,Original*%
%TF.FileFunction,Soldermask,Top*%
%TF.FilePolarity,Negative*%
%FSLAX46Y46*%
G04 Gerber Fmt 4.6, Leading zero omitted, Abs format (unit mm)*
G04 Created by KiCad (PCBNEW 7.0.10) date 2024-12-23 10:05:36*
%MOMM*%
%LPD*%
G01*
G04 APERTURE LIST*
G04 Aperture macros list*
%AMRoundRect*
0 Rectangle with rounded corners*
0 $1 Rounding radius*
0 $2 $3 $4 $5 $6 $7 $8 $9 X,Y pos of 4 corners*
0 Add a 4 corners polygon primitive as box body*
4,1,4,$2,$3,$4,$5,$6,$7,$8,$9,$2,$3,0*
0 Add four circle primitives for the rounded corners*
1,1,$1+$1,$2,$3*
1,1,$1+$1,$4,$5*
1,1,$1+$1,$6,$7*
1,1,$1+$1,$8,$9*
0 Add four rect primitives between the rounded corners*
20,1,$1+$1,$2,$3,$4,$5,0*
20,1,$1+$1,$4,$5,$6,$7,0*
20,1,$1+$1,$6,$7,$8,$9,0*
20,1,$1+$1,$8,$9,$2,$3,0*%
G04 Aperture macros list end*
%ADD10C,1.875000*%
%ADD11RoundRect,0.102000X0.545000X0.305000X-0.545000X0.305000X-0.545000X-0.305000X0.545000X-0.305000X0*%
%ADD12C,1.700000*%
%ADD13R,1.900000X0.350000*%
%ADD14R,1.400000X1.500000*%
%ADD15R,2.100000X0.650000*%
%ADD16R,1.200000X1.200000*%
%ADD17R,1.300000X1.500000*%
%ADD18RoundRect,0.140000X-0.170000X0.140000X-0.170000X-0.140000X0.170000X-0.140000X0.170000X0.140000X0*%
%ADD19RoundRect,0.135000X-0.135000X-0.185000X0.135000X-0.185000X0.135000X0.185000X-0.135000X0.185000X0*%
%ADD20R,1.150000X0.600000*%
%ADD21RoundRect,0.135000X-0.185000X0.135000X-0.185000X-0.135000X0.185000X-0.135000X0.185000X0.135000X0*%
%ADD22RoundRect,0.250000X0.475000X-0.250000X0.475000X0.250000X-0.475000X0.250000X-0.475000X-0.250000X0*%
%ADD23RoundRect,0.102000X-0.215900X0.749300X-0.215900X-0.749300X0.215900X-0.749300X0.215900X0.749300X0*%
%ADD24C,2.160000*%
%ADD25R,2.640000X2.640000*%
%ADD26C,2.640000*%
%ADD27R,0.300000X0.900000*%
%ADD28R,2.500000X1.550000*%
%ADD29R,2.500000X2.300000*%
%ADD30RoundRect,0.135000X-0.092715X0.209413X-0.227715X-0.024413X0.092715X-0.209413X0.227715X0.024413X0*%
%ADD31RoundRect,0.140000X-0.140000X-0.170000X0.140000X-0.170000X0.140000X0.170000X-0.140000X0.170000X0*%
%ADD32RoundRect,0.135000X0.135000X0.185000X-0.135000X0.185000X-0.135000X-0.185000X0.135000X-0.185000X0*%
%ADD33R,0.950000X0.450000*%
%ADD34R,3.450000X4.350000*%
%ADD35RoundRect,0.237500X-0.250000X-0.237500X0.250000X-0.237500X0.250000X0.237500X-0.250000X0.237500X0*%
%ADD36R,0.260000X0.530000*%
%ADD37R,0.300000X0.800000*%
%ADD38R,0.800000X0.300000*%
%ADD39R,2.240000X2.240000*%
%ADD40RoundRect,0.140000X0.170000X-0.140000X0.170000X0.140000X-0.170000X0.140000X-0.170000X-0.140000X0*%
%ADD41RoundRect,0.250000X0.350000X0.625000X-0.350000X0.625000X-0.350000X-0.625000X0.350000X-0.625000X0*%
%ADD42O,1.200000X1.750000*%
%ADD43RoundRect,0.525400X0.525400X-0.900400X0.525400X0.900400X-0.525400X0.900400X-0.525400X-0.900400X0*%
%ADD44RoundRect,0.300400X-1.000400X-0.300400X1.000400X-0.300400X1.000400X0.300400X-1.000400X0.300400X0*%
%ADD45C,1.200000*%
%ADD46R,1.200000X0.750000*%
%ADD47O,2.000000X0.822200*%
%ADD48O,2.000000X0.898400*%
%ADD49RoundRect,0.135000X0.185000X-0.135000X0.185000X0.135000X-0.185000X0.135000X-0.185000X-0.135000X0*%
G04 APERTURE END LIST*
D10*
X19447750Y-2159127D02*
G75*
G03*
X17572750Y-2159127I-937500J0D01*
G01*
X17572750Y-2159127D02*
G75*
G03*
X19447750Y-2159127I937500J0D01*
G01*
X10168750Y-26447877D02*
G75*
G03*
X8293750Y-26447877I-937500J0D01*
G01*
X8293750Y-26447877D02*
G75*
G03*
X10168750Y-26447877I937500J0D01*
G01*
D11*
%TO.C,PS1*%
X39520000Y-27445000D03*
X39520000Y-25615000D03*
X37380000Y-26530000D03*
%TD*%
D12*
%TO.C,J3*%
X1480000Y-24490000D03*
X4020000Y-24490000D03*
X6560000Y-24490000D03*
X1480000Y-10490000D03*
X4020000Y-10490000D03*
X6560000Y-10490000D03*
D13*
X1280000Y-14740000D03*
X1280000Y-16240000D03*
X1280000Y-16740000D03*
X1280000Y-17240000D03*
X1280000Y-17740000D03*
X1280000Y-19240000D03*
X1280000Y-19740000D03*
X1280000Y-20240000D03*
X1280000Y-18740000D03*
X1280000Y-18240000D03*
X1280000Y-15740000D03*
X1280000Y-15240000D03*
D14*
X3380000Y-22040000D03*
X5880000Y-22040000D03*
D15*
X1380000Y-20890000D03*
D16*
X5980000Y-19240000D03*
X4230000Y-18740000D03*
X4230000Y-16240000D03*
X5980000Y-15740000D03*
D15*
X1380000Y-14090000D03*
D17*
X3380000Y-12940000D03*
D14*
X5880000Y-12940000D03*
%TD*%
D18*
%TO.C,C6*%
X38010000Y-7030000D03*
X38010000Y-7990000D03*
%TD*%
%TO.C,C5*%
X42330000Y-26410000D03*
X42330000Y-27370000D03*
%TD*%
D19*
%TO.C,R9*%
X42370000Y-8410000D03*
X43390000Y-8410000D03*
%TD*%
D20*
%TO.C,IC2*%
X43320000Y-23980000D03*
X43320000Y-23030000D03*
X43320000Y-22080000D03*
X40820000Y-22080000D03*
X40820000Y-23030000D03*
X40820000Y-23980000D03*
%TD*%
D21*
%TO.C,R13*%
X9720000Y-21490000D03*
X9720000Y-22510000D03*
%TD*%
D22*
%TO.C,C8*%
X15520000Y-1440000D03*
X15520000Y-3340000D03*
%TD*%
D23*
%TO.C,U2*%
X37005200Y-7935600D03*
X36370200Y-7935600D03*
X35709800Y-7935600D03*
X35074800Y-7935600D03*
X35074800Y-12304400D03*
X35709800Y-12304400D03*
X36370200Y-12304400D03*
X37005200Y-12304400D03*
%TD*%
D24*
%TO.C,J1*%
X51073000Y-24724000D03*
X51073000Y-3894000D03*
D25*
X48850000Y-9750000D03*
D26*
X53300000Y-9750000D03*
X53300000Y-18870000D03*
X48850000Y-18870000D03*
%TD*%
D27*
%TO.C,IC3*%
X41770000Y-7120000D03*
X42270000Y-7120000D03*
X42770000Y-7120000D03*
X43270000Y-7120000D03*
X43270000Y-4220000D03*
X42770000Y-4220000D03*
X42270000Y-4220000D03*
X41770000Y-4220000D03*
D28*
X42520000Y-5670000D03*
%TD*%
D19*
%TO.C,R3*%
X24830000Y-7500000D03*
X25850000Y-7500000D03*
%TD*%
D29*
%TO.C,C9*%
X41950000Y-11020000D03*
X41950000Y-17220000D03*
%TD*%
D30*
%TO.C,R14*%
X32525000Y-3158327D03*
X32015000Y-4041673D03*
%TD*%
D31*
%TO.C,C2*%
X41070000Y-20730000D03*
X42030000Y-20730000D03*
%TD*%
D32*
%TO.C,R12*%
X20960000Y-27790000D03*
X19940000Y-27790000D03*
%TD*%
D33*
%TO.C,IC4*%
X22300000Y-1680000D03*
X22300000Y-2950000D03*
X22300000Y-4220000D03*
X22300000Y-5490000D03*
X30100000Y-5490000D03*
X30100000Y-4220000D03*
X30100000Y-2950000D03*
X30100000Y-1680000D03*
D34*
X26200000Y-3585000D03*
%TD*%
D35*
%TO.C,R6*%
X41367500Y-19420000D03*
X43192500Y-19420000D03*
%TD*%
D19*
%TO.C,R4*%
X11480000Y-27550000D03*
X12500000Y-27550000D03*
%TD*%
D31*
%TO.C,C1*%
X42100000Y-1930000D03*
X43060000Y-1930000D03*
%TD*%
D21*
%TO.C,R10*%
X10430000Y-9180000D03*
X10430000Y-10200000D03*
%TD*%
D32*
%TO.C,R2*%
X29860000Y-7500000D03*
X28840000Y-7500000D03*
%TD*%
%TO.C,R7*%
X23820000Y-27790000D03*
X22800000Y-27790000D03*
%TD*%
D19*
%TO.C,R1*%
X26820000Y-7490000D03*
X27840000Y-7490000D03*
%TD*%
D21*
%TO.C,R11*%
X10430000Y-11260000D03*
X10430000Y-12280000D03*
%TD*%
D18*
%TO.C,C4*%
X41190000Y-26420000D03*
X41190000Y-27380000D03*
%TD*%
D36*
%TO.C,PS2*%
X18310000Y-5720000D03*
X17710000Y-5720000D03*
X17110000Y-5720000D03*
X16510000Y-5720000D03*
X16510000Y-6920000D03*
X17110000Y-6920000D03*
X17710000Y-6920000D03*
X18310000Y-6920000D03*
%TD*%
D21*
%TO.C,R16*%
X20990000Y-4280000D03*
X20990000Y-5300000D03*
%TD*%
D37*
%TO.C,IC1*%
X34850000Y-5490000D03*
X35350000Y-5490000D03*
X35850000Y-5490000D03*
X36350000Y-5490000D03*
D38*
X37300000Y-4540000D03*
X37300000Y-4040000D03*
X37300000Y-3540000D03*
X37300000Y-3040000D03*
D37*
X36350000Y-2090000D03*
X35850000Y-2090000D03*
X35350000Y-2090000D03*
X34850000Y-2090000D03*
D38*
X33900000Y-3040000D03*
X33900000Y-3540000D03*
X33900000Y-4040000D03*
X33900000Y-4540000D03*
D39*
X35600000Y-3790000D03*
%TD*%
D40*
%TO.C,C3*%
X36020000Y-26430000D03*
X36020000Y-25470000D03*
%TD*%
D41*
%TO.C,J4*%
X36770000Y-22950000D03*
D42*
X34770000Y-22950000D03*
%TD*%
D43*
%TO.C,U1*%
X14010000Y-25730000D03*
X16550000Y-25730000D03*
X19090000Y-25730000D03*
X21630000Y-25730000D03*
X24170000Y-25730000D03*
X26710000Y-25730000D03*
X29250000Y-25730000D03*
X29250000Y-9565000D03*
X26710000Y-9565000D03*
X24170000Y-9565000D03*
X21630000Y-9565000D03*
X19090000Y-9565000D03*
X16550000Y-9565000D03*
X14028500Y-9565000D03*
D44*
X27161700Y-19456400D03*
X27161700Y-16916400D03*
D12*
X12988500Y-18948400D03*
X13016500Y-16408400D03*
X15528500Y-18948400D03*
X15528500Y-16408400D03*
X18068500Y-18948400D03*
X18068500Y-16408400D03*
X20608500Y-18948400D03*
X20551700Y-16501000D03*
%TD*%
D21*
%TO.C,R17*%
X21610000Y-6710000D03*
X21610000Y-7730000D03*
%TD*%
D45*
%TO.C,J2*%
X2440000Y-4470000D03*
X8440000Y-4470000D03*
D46*
X13140000Y-2020000D03*
X13140000Y-5920000D03*
X13140000Y-4470000D03*
X13140000Y-6920000D03*
X13140000Y-3020000D03*
D47*
X2440000Y-720000D03*
D48*
X2440000Y-8220000D03*
%TD*%
D49*
%TO.C,R8*%
X40720000Y-2950000D03*
X40720000Y-1930000D03*
%TD*%
D21*
%TO.C,R19*%
X20260000Y-6690000D03*
X20260000Y-7710000D03*
%TD*%
D32*
%TO.C,R5*%
X18090000Y-27790000D03*
X17070000Y-27790000D03*
%TD*%
%TO.C,R18*%
X23610000Y-7540000D03*
X22590000Y-7540000D03*
%TD*%
M02*
