%TF.GenerationSoftware,KiCad,Pcbnew,8.0.7*%
%TF.CreationDate,2025-04-11T01:47:19-04:00*%
%TF.ProjectId,1M_2F,314d5f32-462e-46b6-9963-61645f706362,rev?*%
%TF.SameCoordinates,Original*%
%TF.FileFunction,Copper,L5,Inr*%
%TF.FilePolarity,Positive*%
%FSLAX46Y46*%
G04 Gerber Fmt 4.6, Leading zero omitted, Abs format (unit mm)*
G04 Created by KiCad (PCBNEW 8.0.7) date 2025-04-11 01:47:19*
%MOMM*%
%LPD*%
G01*
G04 APERTURE LIST*
%TA.AperFunction,ComponentPad*%
%ADD10R,3.000000X5.000000*%
%TD*%
%TA.AperFunction,ComponentPad*%
%ADD11R,5.000000X3.000000*%
%TD*%
%TA.AperFunction,ViaPad*%
%ADD12C,0.600000*%
%TD*%
G04 APERTURE END LIST*
D10*
%TO.N,Net-(J1-Pin_1)*%
%TO.C,J1*%
X97207100Y-47653300D03*
D11*
%TO.N,GND*%
X102844600Y-47040800D03*
%TD*%
D10*
%TO.N,Net-(J1-Pin_1)*%
%TO.C,J3*%
X96275000Y-56262500D03*
D11*
%TO.N,GND*%
X102912500Y-56875000D03*
%TD*%
D10*
%TO.N,Net-(J1-Pin_1)*%
%TO.C,J2*%
X96200000Y-39050000D03*
D11*
%TO.N,GND*%
X102837500Y-39662500D03*
%TD*%
D12*
%TO.N,GND*%
X105500000Y-37000000D03*
X100500000Y-59000000D03*
X100500000Y-60000000D03*
X101500000Y-49500000D03*
X104500000Y-42000000D03*
X103500000Y-54000000D03*
X105500000Y-45000000D03*
X103500000Y-42000000D03*
X104500000Y-37000000D03*
X101500000Y-42000000D03*
X101500000Y-45000000D03*
X104500000Y-49500000D03*
X104500000Y-60000000D03*
X102500000Y-54000000D03*
X101500000Y-51000000D03*
X100500000Y-49500000D03*
X100500000Y-45000000D03*
X104500000Y-52500000D03*
X102500000Y-37000000D03*
X103500000Y-51000000D03*
X100500000Y-42000000D03*
X103500000Y-43500000D03*
X100500000Y-35500000D03*
X104500000Y-43500000D03*
X102500000Y-49500000D03*
X105500000Y-51000000D03*
X103500000Y-45000000D03*
X103500000Y-60000000D03*
X104500000Y-54000000D03*
X100500000Y-51000000D03*
X104500000Y-51000000D03*
X103500000Y-49500000D03*
X102500000Y-35500000D03*
X102500000Y-60000000D03*
X105500000Y-43500000D03*
X100500000Y-54000000D03*
X101500000Y-37000000D03*
X103500000Y-35500000D03*
X103500000Y-37000000D03*
X100500000Y-52500000D03*
X105500000Y-60000000D03*
X104500000Y-35500000D03*
X102500000Y-43500000D03*
X101500000Y-54000000D03*
X103500000Y-59000000D03*
X104500000Y-45000000D03*
X102500000Y-51000000D03*
X101500000Y-60000000D03*
X101500000Y-35500000D03*
X102500000Y-45000000D03*
X105500000Y-54000000D03*
X100500000Y-43500000D03*
X105500000Y-59000000D03*
X105500000Y-35500000D03*
X105500000Y-52500000D03*
X105500000Y-49500000D03*
X102500000Y-52500000D03*
X102500000Y-59000000D03*
X105500000Y-42000000D03*
X101500000Y-59000000D03*
X102500000Y-42000000D03*
X100500000Y-37000000D03*
X101500000Y-52500000D03*
X101500000Y-43500000D03*
X104500000Y-59000000D03*
X103500000Y-52500000D03*
%TO.N,Net-(J1-Pin_1)*%
X99000000Y-51000000D03*
X96000000Y-42500000D03*
X94000000Y-60000000D03*
X94000000Y-59000000D03*
X94000000Y-58000000D03*
X97000000Y-42500000D03*
X96000000Y-35500000D03*
X94000000Y-41500000D03*
X99000000Y-56000000D03*
X97000000Y-60000000D03*
X94000000Y-36500000D03*
X99000000Y-38500000D03*
X99000000Y-54000000D03*
X94000000Y-56000000D03*
X94500000Y-49000000D03*
X99000000Y-37500000D03*
X99000000Y-36500000D03*
X95000000Y-52500000D03*
X98000000Y-35500000D03*
X94000000Y-39500000D03*
X99000000Y-52500000D03*
X94500000Y-46000000D03*
X99000000Y-40500000D03*
X99000000Y-60000000D03*
X94000000Y-55000000D03*
X94500000Y-45000000D03*
X97000000Y-52500000D03*
X94000000Y-57000000D03*
X94000000Y-42500000D03*
X94500000Y-47000000D03*
X95000000Y-60000000D03*
X99000000Y-41500000D03*
X98000000Y-60000000D03*
X99000000Y-44000000D03*
X97000000Y-44000000D03*
X96000000Y-52500000D03*
X94000000Y-38500000D03*
X94000000Y-37500000D03*
X99000000Y-42500000D03*
X99000000Y-39500000D03*
X94000000Y-52500000D03*
X97000000Y-51000000D03*
X98000000Y-42500000D03*
X94000000Y-51000000D03*
X94500000Y-50000000D03*
X95000000Y-35500000D03*
X95000000Y-51000000D03*
X96000000Y-60000000D03*
X95000000Y-42500000D03*
X94000000Y-40500000D03*
X99000000Y-35500000D03*
X94000000Y-35500000D03*
X96000000Y-51000000D03*
X98000000Y-52500000D03*
X94500000Y-48000000D03*
X98000000Y-51000000D03*
X99000000Y-55000000D03*
X99000000Y-58000000D03*
X95000000Y-44000000D03*
X96000000Y-44000000D03*
X97000000Y-35500000D03*
X99000000Y-57000000D03*
X94000000Y-44000000D03*
X98000000Y-44000000D03*
X94000000Y-54000000D03*
X99000000Y-59000000D03*
%TD*%
%TA.AperFunction,Conductor*%
%TO.N,GND*%
G36*
X106506922Y-34501280D02*
G01*
X106597266Y-34511459D01*
X106624331Y-34517636D01*
X106703540Y-34545352D01*
X106728553Y-34557398D01*
X106799606Y-34602043D01*
X106821313Y-34619355D01*
X106880644Y-34678686D01*
X106897957Y-34700395D01*
X106942600Y-34771444D01*
X106954648Y-34796462D01*
X106982362Y-34875666D01*
X106988540Y-34902735D01*
X106998720Y-34993076D01*
X106999500Y-35006961D01*
X106999500Y-59993036D01*
X106998720Y-60006921D01*
X106988540Y-60097264D01*
X106982362Y-60124333D01*
X106954648Y-60203537D01*
X106942600Y-60228555D01*
X106897957Y-60299604D01*
X106880644Y-60321313D01*
X106821313Y-60380644D01*
X106799604Y-60397957D01*
X106728555Y-60442600D01*
X106703537Y-60454648D01*
X106624333Y-60482362D01*
X106597264Y-60488540D01*
X106517075Y-60497576D01*
X106506921Y-60498720D01*
X106493038Y-60499500D01*
X99848072Y-60499500D01*
X99781033Y-60479815D01*
X99735278Y-60427011D01*
X99725334Y-60357853D01*
X99731030Y-60334546D01*
X99785367Y-60179257D01*
X99785368Y-60179255D01*
X99793042Y-60111149D01*
X99805565Y-60000003D01*
X99805565Y-59999996D01*
X99785369Y-59820750D01*
X99785368Y-59820745D01*
X99725788Y-59650475D01*
X99672691Y-59565973D01*
X99653690Y-59498736D01*
X99672691Y-59434027D01*
X99725788Y-59349524D01*
X99785368Y-59179254D01*
X99785369Y-59179249D01*
X99805565Y-59000003D01*
X99805565Y-58999996D01*
X99785369Y-58820750D01*
X99785368Y-58820745D01*
X99725788Y-58650475D01*
X99672691Y-58565973D01*
X99653690Y-58498736D01*
X99672691Y-58434027D01*
X99725788Y-58349524D01*
X99785368Y-58179254D01*
X99785369Y-58179249D01*
X99805565Y-58000003D01*
X99805565Y-57999996D01*
X99785369Y-57820750D01*
X99785368Y-57820745D01*
X99725788Y-57650475D01*
X99672691Y-57565973D01*
X99653690Y-57498736D01*
X99672691Y-57434027D01*
X99725788Y-57349524D01*
X99785368Y-57179254D01*
X99785369Y-57179249D01*
X99805565Y-57000003D01*
X99805565Y-56999996D01*
X99785369Y-56820750D01*
X99785368Y-56820745D01*
X99725788Y-56650475D01*
X99672691Y-56565973D01*
X99653690Y-56498736D01*
X99672691Y-56434027D01*
X99725788Y-56349524D01*
X99785368Y-56179254D01*
X99785369Y-56179249D01*
X99805565Y-56000003D01*
X99805565Y-55999996D01*
X99785369Y-55820750D01*
X99785368Y-55820745D01*
X99725788Y-55650475D01*
X99672691Y-55565973D01*
X99653690Y-55498736D01*
X99672691Y-55434027D01*
X99725788Y-55349524D01*
X99785368Y-55179254D01*
X99785369Y-55179249D01*
X99805565Y-55000003D01*
X99805565Y-54999996D01*
X99785369Y-54820750D01*
X99785368Y-54820745D01*
X99725788Y-54650475D01*
X99672691Y-54565973D01*
X99653690Y-54498736D01*
X99672691Y-54434027D01*
X99725788Y-54349524D01*
X99785368Y-54179254D01*
X99785369Y-54179249D01*
X99805565Y-54000003D01*
X99805565Y-53999996D01*
X99785369Y-53820750D01*
X99785368Y-53820745D01*
X99725788Y-53650476D01*
X99629815Y-53497737D01*
X99536319Y-53404241D01*
X99502834Y-53342918D01*
X99500000Y-53316560D01*
X99500000Y-53183440D01*
X99519685Y-53116401D01*
X99536319Y-53095759D01*
X99629816Y-53002262D01*
X99725789Y-52849522D01*
X99785368Y-52679255D01*
X99805565Y-52500000D01*
X99785368Y-52320745D01*
X99725789Y-52150478D01*
X99629816Y-51997738D01*
X99536319Y-51904241D01*
X99502834Y-51842918D01*
X99500000Y-51816560D01*
X99500000Y-51683440D01*
X99519685Y-51616401D01*
X99536319Y-51595759D01*
X99629816Y-51502262D01*
X99725789Y-51349522D01*
X99785368Y-51179255D01*
X99805565Y-51000000D01*
X99785368Y-50820745D01*
X99725789Y-50650478D01*
X99629816Y-50497738D01*
X99536319Y-50404241D01*
X99502834Y-50342918D01*
X99500000Y-50316560D01*
X99500000Y-44683440D01*
X99519685Y-44616401D01*
X99536319Y-44595759D01*
X99629816Y-44502262D01*
X99725789Y-44349522D01*
X99785368Y-44179255D01*
X99805565Y-44000000D01*
X99785368Y-43820745D01*
X99725789Y-43650478D01*
X99629816Y-43497738D01*
X99536319Y-43404241D01*
X99502834Y-43342918D01*
X99500000Y-43316560D01*
X99500000Y-43183440D01*
X99519685Y-43116401D01*
X99536319Y-43095759D01*
X99629816Y-43002262D01*
X99725789Y-42849522D01*
X99785368Y-42679255D01*
X99805565Y-42500000D01*
X99785368Y-42320745D01*
X99725789Y-42150478D01*
X99725788Y-42150475D01*
X99672691Y-42065973D01*
X99653690Y-41998736D01*
X99672691Y-41934027D01*
X99725788Y-41849524D01*
X99785368Y-41679254D01*
X99785369Y-41679249D01*
X99805565Y-41500003D01*
X99805565Y-41499996D01*
X99785369Y-41320750D01*
X99785368Y-41320745D01*
X99725788Y-41150475D01*
X99672691Y-41065973D01*
X99653690Y-40998736D01*
X99672691Y-40934027D01*
X99725788Y-40849524D01*
X99785368Y-40679254D01*
X99785369Y-40679249D01*
X99805565Y-40500003D01*
X99805565Y-40499996D01*
X99785369Y-40320750D01*
X99785368Y-40320745D01*
X99725788Y-40150475D01*
X99672691Y-40065973D01*
X99653690Y-39998736D01*
X99672691Y-39934027D01*
X99725788Y-39849524D01*
X99785368Y-39679254D01*
X99785369Y-39679249D01*
X99805565Y-39500003D01*
X99805565Y-39499996D01*
X99785369Y-39320750D01*
X99785368Y-39320745D01*
X99725788Y-39150475D01*
X99672691Y-39065973D01*
X99653690Y-38998736D01*
X99672691Y-38934027D01*
X99725788Y-38849524D01*
X99785368Y-38679254D01*
X99785369Y-38679249D01*
X99805565Y-38500003D01*
X99805565Y-38499996D01*
X99785369Y-38320750D01*
X99785368Y-38320745D01*
X99725788Y-38150475D01*
X99672691Y-38065973D01*
X99653690Y-37998736D01*
X99672691Y-37934027D01*
X99725788Y-37849524D01*
X99785368Y-37679254D01*
X99785369Y-37679249D01*
X99805565Y-37500003D01*
X99805565Y-37499996D01*
X99785369Y-37320750D01*
X99785368Y-37320745D01*
X99725788Y-37150475D01*
X99672691Y-37065973D01*
X99653690Y-36998736D01*
X99672691Y-36934027D01*
X99725788Y-36849524D01*
X99785368Y-36679254D01*
X99785369Y-36679249D01*
X99805565Y-36500003D01*
X99805565Y-36499996D01*
X99785369Y-36320750D01*
X99785368Y-36320745D01*
X99725788Y-36150475D01*
X99672691Y-36065973D01*
X99653690Y-35998736D01*
X99672691Y-35934027D01*
X99725788Y-35849524D01*
X99785368Y-35679254D01*
X99785369Y-35679249D01*
X99805565Y-35500003D01*
X99805565Y-35499996D01*
X99785369Y-35320750D01*
X99785368Y-35320745D01*
X99725788Y-35150476D01*
X99629815Y-34997737D01*
X99536319Y-34904241D01*
X99502834Y-34842918D01*
X99500000Y-34816560D01*
X99500000Y-34624500D01*
X99519685Y-34557461D01*
X99572489Y-34511706D01*
X99624000Y-34500500D01*
X106434108Y-34500500D01*
X106493038Y-34500500D01*
X106506922Y-34501280D01*
G37*
%TD.AperFunction*%
%TD*%
M02*
