%TF.GenerationSoftware,KiCad,Pcbnew,8.0.7*%
%TF.CreationDate,2025-04-20T00:47:21-04:00*%
%TF.ProjectId,1M_2F,314d5f32-462e-46b6-9963-61645f706362,rev?*%
%TF.SameCoordinates,Original*%
%TF.FileFunction,Drillmap*%
%TF.FilePolarity,Positive*%
%FSLAX45Y45*%
G04 Gerber Fmt 4.5, Leading zero omitted, Abs format (unit mm)*
G04 Created by KiCad (PCBNEW 8.0.7) date 2025-04-20 00:47:21*
%MOMM*%
%LPD*%
G01*
G04 APERTURE LIST*
%ADD10C,0.050000*%
%ADD11C,0.200000*%
%ADD12C,0.100000*%
%ADD13C,0.160000*%
G04 APERTURE END LIST*
D10*
X9400000Y-6100000D02*
G75*
G02*
X9300000Y-6000000I0J100000D01*
G01*
X9300000Y-3500000D02*
G75*
G02*
X9400000Y-3400000I100000J0D01*
G01*
X10650000Y-3400000D02*
G75*
G02*
X10750000Y-3500000I0J-100000D01*
G01*
X9300000Y-6000000D02*
X9300000Y-3500000D01*
X10750000Y-3500000D02*
X10750000Y-6000000D01*
X10750000Y-6000000D02*
G75*
G02*
X10650000Y-6100000I-100000J0D01*
G01*
X10650000Y-6100000D02*
X9400000Y-6100000D01*
X9400000Y-3400000D02*
X10650000Y-3400000D01*
D11*
D12*
X9385000Y-3535000D02*
X9415000Y-3565000D01*
X9415000Y-3535000D02*
X9385000Y-3565000D01*
X9385000Y-3635000D02*
X9415000Y-3665000D01*
X9415000Y-3635000D02*
X9385000Y-3665000D01*
X9385000Y-3735000D02*
X9415000Y-3765000D01*
X9415000Y-3735000D02*
X9385000Y-3765000D01*
X9385000Y-3835000D02*
X9415000Y-3865000D01*
X9415000Y-3835000D02*
X9385000Y-3865000D01*
X9385000Y-3935000D02*
X9415000Y-3965000D01*
X9415000Y-3935000D02*
X9385000Y-3965000D01*
X9385000Y-4035000D02*
X9415000Y-4065000D01*
X9415000Y-4035000D02*
X9385000Y-4065000D01*
X9385000Y-4135000D02*
X9415000Y-4165000D01*
X9415000Y-4135000D02*
X9385000Y-4165000D01*
X9385000Y-4235000D02*
X9415000Y-4265000D01*
X9415000Y-4235000D02*
X9385000Y-4265000D01*
X9385000Y-4385000D02*
X9415000Y-4415000D01*
X9415000Y-4385000D02*
X9385000Y-4415000D01*
X9385000Y-5085000D02*
X9415000Y-5115000D01*
X9415000Y-5085000D02*
X9385000Y-5115000D01*
X9385000Y-5235000D02*
X9415000Y-5265000D01*
X9415000Y-5235000D02*
X9385000Y-5265000D01*
X9385000Y-5385000D02*
X9415000Y-5415000D01*
X9415000Y-5385000D02*
X9385000Y-5415000D01*
X9385000Y-5485000D02*
X9415000Y-5515000D01*
X9415000Y-5485000D02*
X9385000Y-5515000D01*
X9385000Y-5585000D02*
X9415000Y-5615000D01*
X9415000Y-5585000D02*
X9385000Y-5615000D01*
X9385000Y-5685000D02*
X9415000Y-5715000D01*
X9415000Y-5685000D02*
X9385000Y-5715000D01*
X9385000Y-5785000D02*
X9415000Y-5815000D01*
X9415000Y-5785000D02*
X9385000Y-5815000D01*
X9385000Y-5885000D02*
X9415000Y-5915000D01*
X9415000Y-5885000D02*
X9385000Y-5915000D01*
X9385000Y-5985000D02*
X9415000Y-6015000D01*
X9415000Y-5985000D02*
X9385000Y-6015000D01*
X9435000Y-4485000D02*
X9465000Y-4515000D01*
X9465000Y-4485000D02*
X9435000Y-4515000D01*
X9435000Y-4585000D02*
X9465000Y-4615000D01*
X9465000Y-4585000D02*
X9435000Y-4615000D01*
X9435000Y-4685000D02*
X9465000Y-4715000D01*
X9465000Y-4685000D02*
X9435000Y-4715000D01*
X9435000Y-4785000D02*
X9465000Y-4815000D01*
X9465000Y-4785000D02*
X9435000Y-4815000D01*
X9435000Y-4885000D02*
X9465000Y-4915000D01*
X9465000Y-4885000D02*
X9435000Y-4915000D01*
X9435000Y-4985000D02*
X9465000Y-5015000D01*
X9465000Y-4985000D02*
X9435000Y-5015000D01*
X9485000Y-3535000D02*
X9515000Y-3565000D01*
X9515000Y-3535000D02*
X9485000Y-3565000D01*
X9485000Y-4235000D02*
X9515000Y-4265000D01*
X9515000Y-4235000D02*
X9485000Y-4265000D01*
X9485000Y-4385000D02*
X9515000Y-4415000D01*
X9515000Y-4385000D02*
X9485000Y-4415000D01*
X9485000Y-5085000D02*
X9515000Y-5115000D01*
X9515000Y-5085000D02*
X9485000Y-5115000D01*
X9485000Y-5235000D02*
X9515000Y-5265000D01*
X9515000Y-5235000D02*
X9485000Y-5265000D01*
X9485000Y-5985000D02*
X9515000Y-6015000D01*
X9515000Y-5985000D02*
X9485000Y-6015000D01*
X9585000Y-3535000D02*
X9615000Y-3565000D01*
X9615000Y-3535000D02*
X9585000Y-3565000D01*
X9585000Y-4235000D02*
X9615000Y-4265000D01*
X9615000Y-4235000D02*
X9585000Y-4265000D01*
X9585000Y-4385000D02*
X9615000Y-4415000D01*
X9615000Y-4385000D02*
X9585000Y-4415000D01*
X9585000Y-5085000D02*
X9615000Y-5115000D01*
X9615000Y-5085000D02*
X9585000Y-5115000D01*
X9585000Y-5235000D02*
X9615000Y-5265000D01*
X9615000Y-5235000D02*
X9585000Y-5265000D01*
X9585000Y-5985000D02*
X9615000Y-6015000D01*
X9615000Y-5985000D02*
X9585000Y-6015000D01*
X9685000Y-3535000D02*
X9715000Y-3565000D01*
X9715000Y-3535000D02*
X9685000Y-3565000D01*
X9685000Y-4235000D02*
X9715000Y-4265000D01*
X9715000Y-4235000D02*
X9685000Y-4265000D01*
X9685000Y-4385000D02*
X9715000Y-4415000D01*
X9715000Y-4385000D02*
X9685000Y-4415000D01*
X9685000Y-5085000D02*
X9715000Y-5115000D01*
X9715000Y-5085000D02*
X9685000Y-5115000D01*
X9685000Y-5235000D02*
X9715000Y-5265000D01*
X9715000Y-5235000D02*
X9685000Y-5265000D01*
X9685000Y-5985000D02*
X9715000Y-6015000D01*
X9715000Y-5985000D02*
X9685000Y-6015000D01*
X9785000Y-3535000D02*
X9815000Y-3565000D01*
X9815000Y-3535000D02*
X9785000Y-3565000D01*
X9785000Y-4235000D02*
X9815000Y-4265000D01*
X9815000Y-4235000D02*
X9785000Y-4265000D01*
X9785000Y-4385000D02*
X9815000Y-4415000D01*
X9815000Y-4385000D02*
X9785000Y-4415000D01*
X9785000Y-5085000D02*
X9815000Y-5115000D01*
X9815000Y-5085000D02*
X9785000Y-5115000D01*
X9785000Y-5235000D02*
X9815000Y-5265000D01*
X9815000Y-5235000D02*
X9785000Y-5265000D01*
X9785000Y-5985000D02*
X9815000Y-6015000D01*
X9815000Y-5985000D02*
X9785000Y-6015000D01*
X9885000Y-3535000D02*
X9915000Y-3565000D01*
X9915000Y-3535000D02*
X9885000Y-3565000D01*
X9885000Y-3635000D02*
X9915000Y-3665000D01*
X9915000Y-3635000D02*
X9885000Y-3665000D01*
X9885000Y-3735000D02*
X9915000Y-3765000D01*
X9915000Y-3735000D02*
X9885000Y-3765000D01*
X9885000Y-3835000D02*
X9915000Y-3865000D01*
X9915000Y-3835000D02*
X9885000Y-3865000D01*
X9885000Y-3935000D02*
X9915000Y-3965000D01*
X9915000Y-3935000D02*
X9885000Y-3965000D01*
X9885000Y-4035000D02*
X9915000Y-4065000D01*
X9915000Y-4035000D02*
X9885000Y-4065000D01*
X9885000Y-4135000D02*
X9915000Y-4165000D01*
X9915000Y-4135000D02*
X9885000Y-4165000D01*
X9885000Y-4235000D02*
X9915000Y-4265000D01*
X9915000Y-4235000D02*
X9885000Y-4265000D01*
X9885000Y-4385000D02*
X9915000Y-4415000D01*
X9915000Y-4385000D02*
X9885000Y-4415000D01*
X9885000Y-5085000D02*
X9915000Y-5115000D01*
X9915000Y-5085000D02*
X9885000Y-5115000D01*
X9885000Y-5235000D02*
X9915000Y-5265000D01*
X9915000Y-5235000D02*
X9885000Y-5265000D01*
X9885000Y-5385000D02*
X9915000Y-5415000D01*
X9915000Y-5385000D02*
X9885000Y-5415000D01*
X9885000Y-5485000D02*
X9915000Y-5515000D01*
X9915000Y-5485000D02*
X9885000Y-5515000D01*
X9885000Y-5585000D02*
X9915000Y-5615000D01*
X9915000Y-5585000D02*
X9885000Y-5615000D01*
X9885000Y-5685000D02*
X9915000Y-5715000D01*
X9915000Y-5685000D02*
X9885000Y-5715000D01*
X9885000Y-5785000D02*
X9915000Y-5815000D01*
X9915000Y-5785000D02*
X9885000Y-5815000D01*
X9885000Y-5885000D02*
X9915000Y-5915000D01*
X9915000Y-5885000D02*
X9885000Y-5915000D01*
X9885000Y-5985000D02*
X9915000Y-6015000D01*
X9915000Y-5985000D02*
X9885000Y-6015000D01*
X10035000Y-3535000D02*
X10065000Y-3565000D01*
X10065000Y-3535000D02*
X10035000Y-3565000D01*
X10035000Y-3685000D02*
X10065000Y-3715000D01*
X10065000Y-3685000D02*
X10035000Y-3715000D01*
X10035000Y-4185000D02*
X10065000Y-4215000D01*
X10065000Y-4185000D02*
X10035000Y-4215000D01*
X10035000Y-4335000D02*
X10065000Y-4365000D01*
X10065000Y-4335000D02*
X10035000Y-4365000D01*
X10035000Y-4485000D02*
X10065000Y-4515000D01*
X10065000Y-4485000D02*
X10035000Y-4515000D01*
X10035000Y-4935000D02*
X10065000Y-4965000D01*
X10065000Y-4935000D02*
X10035000Y-4965000D01*
X10035000Y-5085000D02*
X10065000Y-5115000D01*
X10065000Y-5085000D02*
X10035000Y-5115000D01*
X10035000Y-5235000D02*
X10065000Y-5265000D01*
X10065000Y-5235000D02*
X10035000Y-5265000D01*
X10035000Y-5385000D02*
X10065000Y-5415000D01*
X10065000Y-5385000D02*
X10035000Y-5415000D01*
X10035000Y-5885000D02*
X10065000Y-5915000D01*
X10065000Y-5885000D02*
X10035000Y-5915000D01*
X10035000Y-5985000D02*
X10065000Y-6015000D01*
X10065000Y-5985000D02*
X10035000Y-6015000D01*
X10135000Y-3535000D02*
X10165000Y-3565000D01*
X10165000Y-3535000D02*
X10135000Y-3565000D01*
X10135000Y-3685000D02*
X10165000Y-3715000D01*
X10165000Y-3685000D02*
X10135000Y-3715000D01*
X10135000Y-4185000D02*
X10165000Y-4215000D01*
X10165000Y-4185000D02*
X10135000Y-4215000D01*
X10135000Y-4335000D02*
X10165000Y-4365000D01*
X10165000Y-4335000D02*
X10135000Y-4365000D01*
X10135000Y-4485000D02*
X10165000Y-4515000D01*
X10165000Y-4485000D02*
X10135000Y-4515000D01*
X10135000Y-4935000D02*
X10165000Y-4965000D01*
X10165000Y-4935000D02*
X10135000Y-4965000D01*
X10135000Y-5085000D02*
X10165000Y-5115000D01*
X10165000Y-5085000D02*
X10135000Y-5115000D01*
X10135000Y-5235000D02*
X10165000Y-5265000D01*
X10165000Y-5235000D02*
X10135000Y-5265000D01*
X10135000Y-5385000D02*
X10165000Y-5415000D01*
X10165000Y-5385000D02*
X10135000Y-5415000D01*
X10135000Y-5885000D02*
X10165000Y-5915000D01*
X10165000Y-5885000D02*
X10135000Y-5915000D01*
X10135000Y-5985000D02*
X10165000Y-6015000D01*
X10165000Y-5985000D02*
X10135000Y-6015000D01*
X10235000Y-3535000D02*
X10265000Y-3565000D01*
X10265000Y-3535000D02*
X10235000Y-3565000D01*
X10235000Y-3685000D02*
X10265000Y-3715000D01*
X10265000Y-3685000D02*
X10235000Y-3715000D01*
X10235000Y-4185000D02*
X10265000Y-4215000D01*
X10265000Y-4185000D02*
X10235000Y-4215000D01*
X10235000Y-4335000D02*
X10265000Y-4365000D01*
X10265000Y-4335000D02*
X10235000Y-4365000D01*
X10235000Y-4485000D02*
X10265000Y-4515000D01*
X10265000Y-4485000D02*
X10235000Y-4515000D01*
X10235000Y-4935000D02*
X10265000Y-4965000D01*
X10265000Y-4935000D02*
X10235000Y-4965000D01*
X10235000Y-5085000D02*
X10265000Y-5115000D01*
X10265000Y-5085000D02*
X10235000Y-5115000D01*
X10235000Y-5235000D02*
X10265000Y-5265000D01*
X10265000Y-5235000D02*
X10235000Y-5265000D01*
X10235000Y-5385000D02*
X10265000Y-5415000D01*
X10265000Y-5385000D02*
X10235000Y-5415000D01*
X10235000Y-5885000D02*
X10265000Y-5915000D01*
X10265000Y-5885000D02*
X10235000Y-5915000D01*
X10235000Y-5985000D02*
X10265000Y-6015000D01*
X10265000Y-5985000D02*
X10235000Y-6015000D01*
X10335000Y-3535000D02*
X10365000Y-3565000D01*
X10365000Y-3535000D02*
X10335000Y-3565000D01*
X10335000Y-3685000D02*
X10365000Y-3715000D01*
X10365000Y-3685000D02*
X10335000Y-3715000D01*
X10335000Y-4185000D02*
X10365000Y-4215000D01*
X10365000Y-4185000D02*
X10335000Y-4215000D01*
X10335000Y-4335000D02*
X10365000Y-4365000D01*
X10365000Y-4335000D02*
X10335000Y-4365000D01*
X10335000Y-4485000D02*
X10365000Y-4515000D01*
X10365000Y-4485000D02*
X10335000Y-4515000D01*
X10335000Y-4935000D02*
X10365000Y-4965000D01*
X10365000Y-4935000D02*
X10335000Y-4965000D01*
X10335000Y-5085000D02*
X10365000Y-5115000D01*
X10365000Y-5085000D02*
X10335000Y-5115000D01*
X10335000Y-5235000D02*
X10365000Y-5265000D01*
X10365000Y-5235000D02*
X10335000Y-5265000D01*
X10335000Y-5385000D02*
X10365000Y-5415000D01*
X10365000Y-5385000D02*
X10335000Y-5415000D01*
X10335000Y-5885000D02*
X10365000Y-5915000D01*
X10365000Y-5885000D02*
X10335000Y-5915000D01*
X10335000Y-5985000D02*
X10365000Y-6015000D01*
X10365000Y-5985000D02*
X10335000Y-6015000D01*
X10435000Y-3535000D02*
X10465000Y-3565000D01*
X10465000Y-3535000D02*
X10435000Y-3565000D01*
X10435000Y-3685000D02*
X10465000Y-3715000D01*
X10465000Y-3685000D02*
X10435000Y-3715000D01*
X10435000Y-4185000D02*
X10465000Y-4215000D01*
X10465000Y-4185000D02*
X10435000Y-4215000D01*
X10435000Y-4335000D02*
X10465000Y-4365000D01*
X10465000Y-4335000D02*
X10435000Y-4365000D01*
X10435000Y-4485000D02*
X10465000Y-4515000D01*
X10465000Y-4485000D02*
X10435000Y-4515000D01*
X10435000Y-4935000D02*
X10465000Y-4965000D01*
X10465000Y-4935000D02*
X10435000Y-4965000D01*
X10435000Y-5085000D02*
X10465000Y-5115000D01*
X10465000Y-5085000D02*
X10435000Y-5115000D01*
X10435000Y-5235000D02*
X10465000Y-5265000D01*
X10465000Y-5235000D02*
X10435000Y-5265000D01*
X10435000Y-5385000D02*
X10465000Y-5415000D01*
X10465000Y-5385000D02*
X10435000Y-5415000D01*
X10435000Y-5885000D02*
X10465000Y-5915000D01*
X10465000Y-5885000D02*
X10435000Y-5915000D01*
X10435000Y-5985000D02*
X10465000Y-6015000D01*
X10465000Y-5985000D02*
X10435000Y-6015000D01*
X10535000Y-3535000D02*
X10565000Y-3565000D01*
X10565000Y-3535000D02*
X10535000Y-3565000D01*
X10535000Y-3685000D02*
X10565000Y-3715000D01*
X10565000Y-3685000D02*
X10535000Y-3715000D01*
X10535000Y-4185000D02*
X10565000Y-4215000D01*
X10565000Y-4185000D02*
X10535000Y-4215000D01*
X10535000Y-4335000D02*
X10565000Y-4365000D01*
X10565000Y-4335000D02*
X10535000Y-4365000D01*
X10535000Y-4485000D02*
X10565000Y-4515000D01*
X10565000Y-4485000D02*
X10535000Y-4515000D01*
X10535000Y-4935000D02*
X10565000Y-4965000D01*
X10565000Y-4935000D02*
X10535000Y-4965000D01*
X10535000Y-5085000D02*
X10565000Y-5115000D01*
X10565000Y-5085000D02*
X10535000Y-5115000D01*
X10535000Y-5235000D02*
X10565000Y-5265000D01*
X10565000Y-5235000D02*
X10535000Y-5265000D01*
X10535000Y-5385000D02*
X10565000Y-5415000D01*
X10565000Y-5385000D02*
X10535000Y-5415000D01*
X10535000Y-5885000D02*
X10565000Y-5915000D01*
X10565000Y-5885000D02*
X10535000Y-5915000D01*
X10535000Y-5985000D02*
X10565000Y-6015000D01*
X10565000Y-5985000D02*
X10535000Y-6015000D01*
D13*
X9713750Y-3905000D02*
G75*
G02*
X9553750Y-3905000I-80000J0D01*
G01*
X9553750Y-3905000D02*
G75*
G02*
X9713750Y-3905000I80000J0D01*
G01*
D12*
X9553750Y-3760000D02*
X9553750Y-4050000D01*
X9713750Y-4050000D02*
G75*
G02*
X9553750Y-4050000I-80000J0D01*
G01*
X9713750Y-4050000D02*
X9713750Y-3760000D01*
X9713750Y-3760000D02*
G75*
G03*
X9553750Y-3760000I-80000J0D01*
G01*
D13*
X9721250Y-5626250D02*
G75*
G02*
X9561250Y-5626250I-80000J0D01*
G01*
X9561250Y-5626250D02*
G75*
G02*
X9721250Y-5626250I80000J0D01*
G01*
D12*
X9561250Y-5481250D02*
X9561250Y-5771250D01*
X9721250Y-5771250D02*
G75*
G02*
X9561250Y-5771250I-80000J0D01*
G01*
X9721250Y-5771250D02*
X9721250Y-5481250D01*
X9721250Y-5481250D02*
G75*
G03*
X9561250Y-5481250I-80000J0D01*
G01*
D13*
X9814460Y-4765330D02*
G75*
G02*
X9654460Y-4765330I-80000J0D01*
G01*
X9654460Y-4765330D02*
G75*
G02*
X9814460Y-4765330I80000J0D01*
G01*
D12*
X9654460Y-4620330D02*
X9654460Y-4910330D01*
X9814460Y-4910330D02*
G75*
G02*
X9654460Y-4910330I-80000J0D01*
G01*
X9814460Y-4910330D02*
X9814460Y-4620330D01*
X9814460Y-4620330D02*
G75*
G03*
X9654460Y-4620330I-80000J0D01*
G01*
D13*
X10363750Y-3966250D02*
G75*
G02*
X10203750Y-3966250I-80000J0D01*
G01*
X10203750Y-3966250D02*
G75*
G02*
X10363750Y-3966250I80000J0D01*
G01*
D12*
X10428750Y-3886250D02*
X10138750Y-3886250D01*
X10138750Y-4046250D02*
G75*
G02*
X10138750Y-3886250I0J80000D01*
G01*
X10138750Y-4046250D02*
X10428750Y-4046250D01*
X10428750Y-4046250D02*
G75*
G03*
X10428750Y-3886250I0J80000D01*
G01*
D13*
X10364460Y-4704080D02*
G75*
G02*
X10204460Y-4704080I-80000J0D01*
G01*
X10204460Y-4704080D02*
G75*
G02*
X10364460Y-4704080I80000J0D01*
G01*
D12*
X10139460Y-4784080D02*
X10429460Y-4784080D01*
X10429460Y-4624080D02*
G75*
G02*
X10429460Y-4784080I0J-80000D01*
G01*
X10429460Y-4624080D02*
X10139460Y-4624080D01*
X10139460Y-4624080D02*
G75*
G03*
X10139460Y-4784080I0J-80000D01*
G01*
D13*
X10371250Y-5687500D02*
G75*
G02*
X10211250Y-5687500I-80000J0D01*
G01*
X10211250Y-5687500D02*
G75*
G02*
X10371250Y-5687500I80000J0D01*
G01*
D12*
X10436250Y-5607500D02*
X10146250Y-5607500D01*
X10146250Y-5767500D02*
G75*
G02*
X10146250Y-5607500I0J80000D01*
G01*
X10146250Y-5767500D02*
X10436250Y-5767500D01*
X10436250Y-5767500D02*
G75*
G03*
X10436250Y-5607500I0J80000D01*
G01*
D11*
X9558277Y-6413984D02*
X9558277Y-6213984D01*
X9558277Y-6213984D02*
X9605896Y-6213984D01*
X9605896Y-6213984D02*
X9634467Y-6223508D01*
X9634467Y-6223508D02*
X9653515Y-6242555D01*
X9653515Y-6242555D02*
X9663039Y-6261603D01*
X9663039Y-6261603D02*
X9672563Y-6299698D01*
X9672563Y-6299698D02*
X9672563Y-6328269D01*
X9672563Y-6328269D02*
X9663039Y-6366365D01*
X9663039Y-6366365D02*
X9653515Y-6385412D01*
X9653515Y-6385412D02*
X9634467Y-6404460D01*
X9634467Y-6404460D02*
X9605896Y-6413984D01*
X9605896Y-6413984D02*
X9558277Y-6413984D01*
X9758277Y-6413984D02*
X9758277Y-6280650D01*
X9758277Y-6318746D02*
X9767801Y-6299698D01*
X9767801Y-6299698D02*
X9777324Y-6290174D01*
X9777324Y-6290174D02*
X9796372Y-6280650D01*
X9796372Y-6280650D02*
X9815420Y-6280650D01*
X9882086Y-6413984D02*
X9882086Y-6280650D01*
X9882086Y-6213984D02*
X9872563Y-6223508D01*
X9872563Y-6223508D02*
X9882086Y-6233031D01*
X9882086Y-6233031D02*
X9891610Y-6223508D01*
X9891610Y-6223508D02*
X9882086Y-6213984D01*
X9882086Y-6213984D02*
X9882086Y-6233031D01*
X10005896Y-6413984D02*
X9986848Y-6404460D01*
X9986848Y-6404460D02*
X9977324Y-6385412D01*
X9977324Y-6385412D02*
X9977324Y-6213984D01*
X10110658Y-6413984D02*
X10091610Y-6404460D01*
X10091610Y-6404460D02*
X10082086Y-6385412D01*
X10082086Y-6385412D02*
X10082086Y-6213984D01*
X10339229Y-6413984D02*
X10339229Y-6213984D01*
X10339229Y-6213984D02*
X10405896Y-6356841D01*
X10405896Y-6356841D02*
X10472563Y-6213984D01*
X10472563Y-6213984D02*
X10472563Y-6413984D01*
X10653515Y-6413984D02*
X10653515Y-6309222D01*
X10653515Y-6309222D02*
X10643991Y-6290174D01*
X10643991Y-6290174D02*
X10624944Y-6280650D01*
X10624944Y-6280650D02*
X10586848Y-6280650D01*
X10586848Y-6280650D02*
X10567801Y-6290174D01*
X10653515Y-6404460D02*
X10634467Y-6413984D01*
X10634467Y-6413984D02*
X10586848Y-6413984D01*
X10586848Y-6413984D02*
X10567801Y-6404460D01*
X10567801Y-6404460D02*
X10558277Y-6385412D01*
X10558277Y-6385412D02*
X10558277Y-6366365D01*
X10558277Y-6366365D02*
X10567801Y-6347317D01*
X10567801Y-6347317D02*
X10586848Y-6337793D01*
X10586848Y-6337793D02*
X10634467Y-6337793D01*
X10634467Y-6337793D02*
X10653515Y-6328269D01*
X10748753Y-6280650D02*
X10748753Y-6480650D01*
X10748753Y-6290174D02*
X10767801Y-6280650D01*
X10767801Y-6280650D02*
X10805896Y-6280650D01*
X10805896Y-6280650D02*
X10824944Y-6290174D01*
X10824944Y-6290174D02*
X10834467Y-6299698D01*
X10834467Y-6299698D02*
X10843991Y-6318746D01*
X10843991Y-6318746D02*
X10843991Y-6375888D01*
X10843991Y-6375888D02*
X10834467Y-6394936D01*
X10834467Y-6394936D02*
X10824944Y-6404460D01*
X10824944Y-6404460D02*
X10805896Y-6413984D01*
X10805896Y-6413984D02*
X10767801Y-6413984D01*
X10767801Y-6413984D02*
X10748753Y-6404460D01*
X10929705Y-6394936D02*
X10939229Y-6404460D01*
X10939229Y-6404460D02*
X10929705Y-6413984D01*
X10929705Y-6413984D02*
X10920182Y-6404460D01*
X10920182Y-6404460D02*
X10929705Y-6394936D01*
X10929705Y-6394936D02*
X10929705Y-6413984D01*
X10929705Y-6290174D02*
X10939229Y-6299698D01*
X10939229Y-6299698D02*
X10929705Y-6309222D01*
X10929705Y-6309222D02*
X10920182Y-6299698D01*
X10920182Y-6299698D02*
X10929705Y-6290174D01*
X10929705Y-6290174D02*
X10929705Y-6309222D01*
D12*
X9267500Y-6727500D02*
X9297500Y-6757500D01*
X9297500Y-6727500D02*
X9267500Y-6757500D01*
D11*
X9596372Y-6633984D02*
X9615420Y-6633984D01*
X9615420Y-6633984D02*
X9634467Y-6643508D01*
X9634467Y-6643508D02*
X9643991Y-6653031D01*
X9643991Y-6653031D02*
X9653515Y-6672079D01*
X9653515Y-6672079D02*
X9663039Y-6710174D01*
X9663039Y-6710174D02*
X9663039Y-6757793D01*
X9663039Y-6757793D02*
X9653515Y-6795888D01*
X9653515Y-6795888D02*
X9643991Y-6814936D01*
X9643991Y-6814936D02*
X9634467Y-6824460D01*
X9634467Y-6824460D02*
X9615420Y-6833984D01*
X9615420Y-6833984D02*
X9596372Y-6833984D01*
X9596372Y-6833984D02*
X9577324Y-6824460D01*
X9577324Y-6824460D02*
X9567801Y-6814936D01*
X9567801Y-6814936D02*
X9558277Y-6795888D01*
X9558277Y-6795888D02*
X9548753Y-6757793D01*
X9548753Y-6757793D02*
X9548753Y-6710174D01*
X9548753Y-6710174D02*
X9558277Y-6672079D01*
X9558277Y-6672079D02*
X9567801Y-6653031D01*
X9567801Y-6653031D02*
X9577324Y-6643508D01*
X9577324Y-6643508D02*
X9596372Y-6633984D01*
X9748753Y-6814936D02*
X9758277Y-6824460D01*
X9758277Y-6824460D02*
X9748753Y-6833984D01*
X9748753Y-6833984D02*
X9739229Y-6824460D01*
X9739229Y-6824460D02*
X9748753Y-6814936D01*
X9748753Y-6814936D02*
X9748753Y-6833984D01*
X9824944Y-6633984D02*
X9948753Y-6633984D01*
X9948753Y-6633984D02*
X9882086Y-6710174D01*
X9882086Y-6710174D02*
X9910658Y-6710174D01*
X9910658Y-6710174D02*
X9929705Y-6719698D01*
X9929705Y-6719698D02*
X9939229Y-6729222D01*
X9939229Y-6729222D02*
X9948753Y-6748269D01*
X9948753Y-6748269D02*
X9948753Y-6795888D01*
X9948753Y-6795888D02*
X9939229Y-6814936D01*
X9939229Y-6814936D02*
X9929705Y-6824460D01*
X9929705Y-6824460D02*
X9910658Y-6833984D01*
X9910658Y-6833984D02*
X9853515Y-6833984D01*
X9853515Y-6833984D02*
X9834467Y-6824460D01*
X9834467Y-6824460D02*
X9824944Y-6814936D01*
X10072563Y-6633984D02*
X10091610Y-6633984D01*
X10091610Y-6633984D02*
X10110658Y-6643508D01*
X10110658Y-6643508D02*
X10120182Y-6653031D01*
X10120182Y-6653031D02*
X10129705Y-6672079D01*
X10129705Y-6672079D02*
X10139229Y-6710174D01*
X10139229Y-6710174D02*
X10139229Y-6757793D01*
X10139229Y-6757793D02*
X10129705Y-6795888D01*
X10129705Y-6795888D02*
X10120182Y-6814936D01*
X10120182Y-6814936D02*
X10110658Y-6824460D01*
X10110658Y-6824460D02*
X10091610Y-6833984D01*
X10091610Y-6833984D02*
X10072563Y-6833984D01*
X10072563Y-6833984D02*
X10053515Y-6824460D01*
X10053515Y-6824460D02*
X10043991Y-6814936D01*
X10043991Y-6814936D02*
X10034467Y-6795888D01*
X10034467Y-6795888D02*
X10024944Y-6757793D01*
X10024944Y-6757793D02*
X10024944Y-6710174D01*
X10024944Y-6710174D02*
X10034467Y-6672079D01*
X10034467Y-6672079D02*
X10043991Y-6653031D01*
X10043991Y-6653031D02*
X10053515Y-6643508D01*
X10053515Y-6643508D02*
X10072563Y-6633984D01*
X10263039Y-6633984D02*
X10282086Y-6633984D01*
X10282086Y-6633984D02*
X10301134Y-6643508D01*
X10301134Y-6643508D02*
X10310658Y-6653031D01*
X10310658Y-6653031D02*
X10320182Y-6672079D01*
X10320182Y-6672079D02*
X10329705Y-6710174D01*
X10329705Y-6710174D02*
X10329705Y-6757793D01*
X10329705Y-6757793D02*
X10320182Y-6795888D01*
X10320182Y-6795888D02*
X10310658Y-6814936D01*
X10310658Y-6814936D02*
X10301134Y-6824460D01*
X10301134Y-6824460D02*
X10282086Y-6833984D01*
X10282086Y-6833984D02*
X10263039Y-6833984D01*
X10263039Y-6833984D02*
X10243991Y-6824460D01*
X10243991Y-6824460D02*
X10234467Y-6814936D01*
X10234467Y-6814936D02*
X10224944Y-6795888D01*
X10224944Y-6795888D02*
X10215420Y-6757793D01*
X10215420Y-6757793D02*
X10215420Y-6710174D01*
X10215420Y-6710174D02*
X10224944Y-6672079D01*
X10224944Y-6672079D02*
X10234467Y-6653031D01*
X10234467Y-6653031D02*
X10243991Y-6643508D01*
X10243991Y-6643508D02*
X10263039Y-6633984D01*
X10415420Y-6833984D02*
X10415420Y-6700650D01*
X10415420Y-6719698D02*
X10424944Y-6710174D01*
X10424944Y-6710174D02*
X10443991Y-6700650D01*
X10443991Y-6700650D02*
X10472563Y-6700650D01*
X10472563Y-6700650D02*
X10491610Y-6710174D01*
X10491610Y-6710174D02*
X10501134Y-6729222D01*
X10501134Y-6729222D02*
X10501134Y-6833984D01*
X10501134Y-6729222D02*
X10510658Y-6710174D01*
X10510658Y-6710174D02*
X10529705Y-6700650D01*
X10529705Y-6700650D02*
X10558277Y-6700650D01*
X10558277Y-6700650D02*
X10577325Y-6710174D01*
X10577325Y-6710174D02*
X10586848Y-6729222D01*
X10586848Y-6729222D02*
X10586848Y-6833984D01*
X10682086Y-6833984D02*
X10682086Y-6700650D01*
X10682086Y-6719698D02*
X10691610Y-6710174D01*
X10691610Y-6710174D02*
X10710658Y-6700650D01*
X10710658Y-6700650D02*
X10739229Y-6700650D01*
X10739229Y-6700650D02*
X10758277Y-6710174D01*
X10758277Y-6710174D02*
X10767801Y-6729222D01*
X10767801Y-6729222D02*
X10767801Y-6833984D01*
X10767801Y-6729222D02*
X10777325Y-6710174D01*
X10777325Y-6710174D02*
X10796372Y-6700650D01*
X10796372Y-6700650D02*
X10824944Y-6700650D01*
X10824944Y-6700650D02*
X10843991Y-6710174D01*
X10843991Y-6710174D02*
X10853515Y-6729222D01*
X10853515Y-6729222D02*
X10853515Y-6833984D01*
X11243991Y-6624460D02*
X11072563Y-6881603D01*
X11501134Y-6633984D02*
X11520182Y-6633984D01*
X11520182Y-6633984D02*
X11539229Y-6643508D01*
X11539229Y-6643508D02*
X11548753Y-6653031D01*
X11548753Y-6653031D02*
X11558277Y-6672079D01*
X11558277Y-6672079D02*
X11567801Y-6710174D01*
X11567801Y-6710174D02*
X11567801Y-6757793D01*
X11567801Y-6757793D02*
X11558277Y-6795888D01*
X11558277Y-6795888D02*
X11548753Y-6814936D01*
X11548753Y-6814936D02*
X11539229Y-6824460D01*
X11539229Y-6824460D02*
X11520182Y-6833984D01*
X11520182Y-6833984D02*
X11501134Y-6833984D01*
X11501134Y-6833984D02*
X11482086Y-6824460D01*
X11482086Y-6824460D02*
X11472563Y-6814936D01*
X11472563Y-6814936D02*
X11463039Y-6795888D01*
X11463039Y-6795888D02*
X11453515Y-6757793D01*
X11453515Y-6757793D02*
X11453515Y-6710174D01*
X11453515Y-6710174D02*
X11463039Y-6672079D01*
X11463039Y-6672079D02*
X11472563Y-6653031D01*
X11472563Y-6653031D02*
X11482086Y-6643508D01*
X11482086Y-6643508D02*
X11501134Y-6633984D01*
X11653515Y-6814936D02*
X11663039Y-6824460D01*
X11663039Y-6824460D02*
X11653515Y-6833984D01*
X11653515Y-6833984D02*
X11643991Y-6824460D01*
X11643991Y-6824460D02*
X11653515Y-6814936D01*
X11653515Y-6814936D02*
X11653515Y-6833984D01*
X11786848Y-6633984D02*
X11805896Y-6633984D01*
X11805896Y-6633984D02*
X11824944Y-6643508D01*
X11824944Y-6643508D02*
X11834467Y-6653031D01*
X11834467Y-6653031D02*
X11843991Y-6672079D01*
X11843991Y-6672079D02*
X11853515Y-6710174D01*
X11853515Y-6710174D02*
X11853515Y-6757793D01*
X11853515Y-6757793D02*
X11843991Y-6795888D01*
X11843991Y-6795888D02*
X11834467Y-6814936D01*
X11834467Y-6814936D02*
X11824944Y-6824460D01*
X11824944Y-6824460D02*
X11805896Y-6833984D01*
X11805896Y-6833984D02*
X11786848Y-6833984D01*
X11786848Y-6833984D02*
X11767801Y-6824460D01*
X11767801Y-6824460D02*
X11758277Y-6814936D01*
X11758277Y-6814936D02*
X11748753Y-6795888D01*
X11748753Y-6795888D02*
X11739229Y-6757793D01*
X11739229Y-6757793D02*
X11739229Y-6710174D01*
X11739229Y-6710174D02*
X11748753Y-6672079D01*
X11748753Y-6672079D02*
X11758277Y-6653031D01*
X11758277Y-6653031D02*
X11767801Y-6643508D01*
X11767801Y-6643508D02*
X11786848Y-6633984D01*
X12043991Y-6833984D02*
X11929706Y-6833984D01*
X11986848Y-6833984D02*
X11986848Y-6633984D01*
X11986848Y-6633984D02*
X11967801Y-6662555D01*
X11967801Y-6662555D02*
X11948753Y-6681603D01*
X11948753Y-6681603D02*
X11929706Y-6691127D01*
X12234467Y-6833984D02*
X12120182Y-6833984D01*
X12177325Y-6833984D02*
X12177325Y-6633984D01*
X12177325Y-6633984D02*
X12158277Y-6662555D01*
X12158277Y-6662555D02*
X12139229Y-6681603D01*
X12139229Y-6681603D02*
X12120182Y-6691127D01*
X12348753Y-6719698D02*
X12329706Y-6710174D01*
X12329706Y-6710174D02*
X12320182Y-6700650D01*
X12320182Y-6700650D02*
X12310658Y-6681603D01*
X12310658Y-6681603D02*
X12310658Y-6672079D01*
X12310658Y-6672079D02*
X12320182Y-6653031D01*
X12320182Y-6653031D02*
X12329706Y-6643508D01*
X12329706Y-6643508D02*
X12348753Y-6633984D01*
X12348753Y-6633984D02*
X12386848Y-6633984D01*
X12386848Y-6633984D02*
X12405896Y-6643508D01*
X12405896Y-6643508D02*
X12415420Y-6653031D01*
X12415420Y-6653031D02*
X12424944Y-6672079D01*
X12424944Y-6672079D02*
X12424944Y-6681603D01*
X12424944Y-6681603D02*
X12415420Y-6700650D01*
X12415420Y-6700650D02*
X12405896Y-6710174D01*
X12405896Y-6710174D02*
X12386848Y-6719698D01*
X12386848Y-6719698D02*
X12348753Y-6719698D01*
X12348753Y-6719698D02*
X12329706Y-6729222D01*
X12329706Y-6729222D02*
X12320182Y-6738746D01*
X12320182Y-6738746D02*
X12310658Y-6757793D01*
X12310658Y-6757793D02*
X12310658Y-6795888D01*
X12310658Y-6795888D02*
X12320182Y-6814936D01*
X12320182Y-6814936D02*
X12329706Y-6824460D01*
X12329706Y-6824460D02*
X12348753Y-6833984D01*
X12348753Y-6833984D02*
X12386848Y-6833984D01*
X12386848Y-6833984D02*
X12405896Y-6824460D01*
X12405896Y-6824460D02*
X12415420Y-6814936D01*
X12415420Y-6814936D02*
X12424944Y-6795888D01*
X12424944Y-6795888D02*
X12424944Y-6757793D01*
X12424944Y-6757793D02*
X12415420Y-6738746D01*
X12415420Y-6738746D02*
X12405896Y-6729222D01*
X12405896Y-6729222D02*
X12386848Y-6719698D01*
X12501134Y-6633984D02*
X12501134Y-6672079D01*
X12577325Y-6633984D02*
X12577325Y-6672079D01*
X12872563Y-6910174D02*
X12863039Y-6900650D01*
X12863039Y-6900650D02*
X12843991Y-6872079D01*
X12843991Y-6872079D02*
X12834468Y-6853031D01*
X12834468Y-6853031D02*
X12824944Y-6824460D01*
X12824944Y-6824460D02*
X12815420Y-6776841D01*
X12815420Y-6776841D02*
X12815420Y-6738746D01*
X12815420Y-6738746D02*
X12824944Y-6691127D01*
X12824944Y-6691127D02*
X12834468Y-6662555D01*
X12834468Y-6662555D02*
X12843991Y-6643508D01*
X12843991Y-6643508D02*
X12863039Y-6614936D01*
X12863039Y-6614936D02*
X12872563Y-6605412D01*
X13053515Y-6833984D02*
X12939229Y-6833984D01*
X12996372Y-6833984D02*
X12996372Y-6633984D01*
X12996372Y-6633984D02*
X12977325Y-6662555D01*
X12977325Y-6662555D02*
X12958277Y-6681603D01*
X12958277Y-6681603D02*
X12939229Y-6691127D01*
X13120182Y-6633984D02*
X13243991Y-6633984D01*
X13243991Y-6633984D02*
X13177325Y-6710174D01*
X13177325Y-6710174D02*
X13205896Y-6710174D01*
X13205896Y-6710174D02*
X13224944Y-6719698D01*
X13224944Y-6719698D02*
X13234468Y-6729222D01*
X13234468Y-6729222D02*
X13243991Y-6748269D01*
X13243991Y-6748269D02*
X13243991Y-6795888D01*
X13243991Y-6795888D02*
X13234468Y-6814936D01*
X13234468Y-6814936D02*
X13224944Y-6824460D01*
X13224944Y-6824460D02*
X13205896Y-6833984D01*
X13205896Y-6833984D02*
X13148753Y-6833984D01*
X13148753Y-6833984D02*
X13129706Y-6824460D01*
X13129706Y-6824460D02*
X13120182Y-6814936D01*
X13320182Y-6653031D02*
X13329706Y-6643508D01*
X13329706Y-6643508D02*
X13348753Y-6633984D01*
X13348753Y-6633984D02*
X13396372Y-6633984D01*
X13396372Y-6633984D02*
X13415420Y-6643508D01*
X13415420Y-6643508D02*
X13424944Y-6653031D01*
X13424944Y-6653031D02*
X13434468Y-6672079D01*
X13434468Y-6672079D02*
X13434468Y-6691127D01*
X13434468Y-6691127D02*
X13424944Y-6719698D01*
X13424944Y-6719698D02*
X13310658Y-6833984D01*
X13310658Y-6833984D02*
X13434468Y-6833984D01*
X13672563Y-6833984D02*
X13672563Y-6633984D01*
X13758277Y-6833984D02*
X13758277Y-6729222D01*
X13758277Y-6729222D02*
X13748753Y-6710174D01*
X13748753Y-6710174D02*
X13729706Y-6700650D01*
X13729706Y-6700650D02*
X13701134Y-6700650D01*
X13701134Y-6700650D02*
X13682087Y-6710174D01*
X13682087Y-6710174D02*
X13672563Y-6719698D01*
X13882087Y-6833984D02*
X13863039Y-6824460D01*
X13863039Y-6824460D02*
X13853515Y-6814936D01*
X13853515Y-6814936D02*
X13843991Y-6795888D01*
X13843991Y-6795888D02*
X13843991Y-6738746D01*
X13843991Y-6738746D02*
X13853515Y-6719698D01*
X13853515Y-6719698D02*
X13863039Y-6710174D01*
X13863039Y-6710174D02*
X13882087Y-6700650D01*
X13882087Y-6700650D02*
X13910658Y-6700650D01*
X13910658Y-6700650D02*
X13929706Y-6710174D01*
X13929706Y-6710174D02*
X13939230Y-6719698D01*
X13939230Y-6719698D02*
X13948753Y-6738746D01*
X13948753Y-6738746D02*
X13948753Y-6795888D01*
X13948753Y-6795888D02*
X13939230Y-6814936D01*
X13939230Y-6814936D02*
X13929706Y-6824460D01*
X13929706Y-6824460D02*
X13910658Y-6833984D01*
X13910658Y-6833984D02*
X13882087Y-6833984D01*
X14063039Y-6833984D02*
X14043991Y-6824460D01*
X14043991Y-6824460D02*
X14034468Y-6805412D01*
X14034468Y-6805412D02*
X14034468Y-6633984D01*
X14215420Y-6824460D02*
X14196372Y-6833984D01*
X14196372Y-6833984D02*
X14158277Y-6833984D01*
X14158277Y-6833984D02*
X14139230Y-6824460D01*
X14139230Y-6824460D02*
X14129706Y-6805412D01*
X14129706Y-6805412D02*
X14129706Y-6729222D01*
X14129706Y-6729222D02*
X14139230Y-6710174D01*
X14139230Y-6710174D02*
X14158277Y-6700650D01*
X14158277Y-6700650D02*
X14196372Y-6700650D01*
X14196372Y-6700650D02*
X14215420Y-6710174D01*
X14215420Y-6710174D02*
X14224944Y-6729222D01*
X14224944Y-6729222D02*
X14224944Y-6748269D01*
X14224944Y-6748269D02*
X14129706Y-6767317D01*
X14301134Y-6824460D02*
X14320182Y-6833984D01*
X14320182Y-6833984D02*
X14358277Y-6833984D01*
X14358277Y-6833984D02*
X14377325Y-6824460D01*
X14377325Y-6824460D02*
X14386849Y-6805412D01*
X14386849Y-6805412D02*
X14386849Y-6795888D01*
X14386849Y-6795888D02*
X14377325Y-6776841D01*
X14377325Y-6776841D02*
X14358277Y-6767317D01*
X14358277Y-6767317D02*
X14329706Y-6767317D01*
X14329706Y-6767317D02*
X14310658Y-6757793D01*
X14310658Y-6757793D02*
X14301134Y-6738746D01*
X14301134Y-6738746D02*
X14301134Y-6729222D01*
X14301134Y-6729222D02*
X14310658Y-6710174D01*
X14310658Y-6710174D02*
X14329706Y-6700650D01*
X14329706Y-6700650D02*
X14358277Y-6700650D01*
X14358277Y-6700650D02*
X14377325Y-6710174D01*
X14453515Y-6910174D02*
X14463039Y-6900650D01*
X14463039Y-6900650D02*
X14482087Y-6872079D01*
X14482087Y-6872079D02*
X14491611Y-6853031D01*
X14491611Y-6853031D02*
X14501134Y-6824460D01*
X14501134Y-6824460D02*
X14510658Y-6776841D01*
X14510658Y-6776841D02*
X14510658Y-6738746D01*
X14510658Y-6738746D02*
X14501134Y-6691127D01*
X14501134Y-6691127D02*
X14491611Y-6662555D01*
X14491611Y-6662555D02*
X14482087Y-6643508D01*
X14482087Y-6643508D02*
X14463039Y-6614936D01*
X14463039Y-6614936D02*
X14453515Y-6605412D01*
D13*
X9297500Y-7006500D02*
G75*
G02*
X9137500Y-7006500I-80000J0D01*
G01*
X9137500Y-7006500D02*
G75*
G02*
X9297500Y-7006500I80000J0D01*
G01*
D11*
X9663039Y-7097984D02*
X9548753Y-7097984D01*
X9605896Y-7097984D02*
X9605896Y-6897984D01*
X9605896Y-6897984D02*
X9586848Y-6926555D01*
X9586848Y-6926555D02*
X9567801Y-6945603D01*
X9567801Y-6945603D02*
X9548753Y-6955127D01*
X9748753Y-7078936D02*
X9758277Y-7088460D01*
X9758277Y-7088460D02*
X9748753Y-7097984D01*
X9748753Y-7097984D02*
X9739229Y-7088460D01*
X9739229Y-7088460D02*
X9748753Y-7078936D01*
X9748753Y-7078936D02*
X9748753Y-7097984D01*
X9929705Y-6897984D02*
X9891610Y-6897984D01*
X9891610Y-6897984D02*
X9872563Y-6907508D01*
X9872563Y-6907508D02*
X9863039Y-6917031D01*
X9863039Y-6917031D02*
X9843991Y-6945603D01*
X9843991Y-6945603D02*
X9834467Y-6983698D01*
X9834467Y-6983698D02*
X9834467Y-7059888D01*
X9834467Y-7059888D02*
X9843991Y-7078936D01*
X9843991Y-7078936D02*
X9853515Y-7088460D01*
X9853515Y-7088460D02*
X9872563Y-7097984D01*
X9872563Y-7097984D02*
X9910658Y-7097984D01*
X9910658Y-7097984D02*
X9929705Y-7088460D01*
X9929705Y-7088460D02*
X9939229Y-7078936D01*
X9939229Y-7078936D02*
X9948753Y-7059888D01*
X9948753Y-7059888D02*
X9948753Y-7012269D01*
X9948753Y-7012269D02*
X9939229Y-6993222D01*
X9939229Y-6993222D02*
X9929705Y-6983698D01*
X9929705Y-6983698D02*
X9910658Y-6974174D01*
X9910658Y-6974174D02*
X9872563Y-6974174D01*
X9872563Y-6974174D02*
X9853515Y-6983698D01*
X9853515Y-6983698D02*
X9843991Y-6993222D01*
X9843991Y-6993222D02*
X9834467Y-7012269D01*
X10072563Y-6897984D02*
X10091610Y-6897984D01*
X10091610Y-6897984D02*
X10110658Y-6907508D01*
X10110658Y-6907508D02*
X10120182Y-6917031D01*
X10120182Y-6917031D02*
X10129705Y-6936079D01*
X10129705Y-6936079D02*
X10139229Y-6974174D01*
X10139229Y-6974174D02*
X10139229Y-7021793D01*
X10139229Y-7021793D02*
X10129705Y-7059888D01*
X10129705Y-7059888D02*
X10120182Y-7078936D01*
X10120182Y-7078936D02*
X10110658Y-7088460D01*
X10110658Y-7088460D02*
X10091610Y-7097984D01*
X10091610Y-7097984D02*
X10072563Y-7097984D01*
X10072563Y-7097984D02*
X10053515Y-7088460D01*
X10053515Y-7088460D02*
X10043991Y-7078936D01*
X10043991Y-7078936D02*
X10034467Y-7059888D01*
X10034467Y-7059888D02*
X10024944Y-7021793D01*
X10024944Y-7021793D02*
X10024944Y-6974174D01*
X10024944Y-6974174D02*
X10034467Y-6936079D01*
X10034467Y-6936079D02*
X10043991Y-6917031D01*
X10043991Y-6917031D02*
X10053515Y-6907508D01*
X10053515Y-6907508D02*
X10072563Y-6897984D01*
X10263039Y-6897984D02*
X10282086Y-6897984D01*
X10282086Y-6897984D02*
X10301134Y-6907508D01*
X10301134Y-6907508D02*
X10310658Y-6917031D01*
X10310658Y-6917031D02*
X10320182Y-6936079D01*
X10320182Y-6936079D02*
X10329705Y-6974174D01*
X10329705Y-6974174D02*
X10329705Y-7021793D01*
X10329705Y-7021793D02*
X10320182Y-7059888D01*
X10320182Y-7059888D02*
X10310658Y-7078936D01*
X10310658Y-7078936D02*
X10301134Y-7088460D01*
X10301134Y-7088460D02*
X10282086Y-7097984D01*
X10282086Y-7097984D02*
X10263039Y-7097984D01*
X10263039Y-7097984D02*
X10243991Y-7088460D01*
X10243991Y-7088460D02*
X10234467Y-7078936D01*
X10234467Y-7078936D02*
X10224944Y-7059888D01*
X10224944Y-7059888D02*
X10215420Y-7021793D01*
X10215420Y-7021793D02*
X10215420Y-6974174D01*
X10215420Y-6974174D02*
X10224944Y-6936079D01*
X10224944Y-6936079D02*
X10234467Y-6917031D01*
X10234467Y-6917031D02*
X10243991Y-6907508D01*
X10243991Y-6907508D02*
X10263039Y-6897984D01*
X10415420Y-7097984D02*
X10415420Y-6964650D01*
X10415420Y-6983698D02*
X10424944Y-6974174D01*
X10424944Y-6974174D02*
X10443991Y-6964650D01*
X10443991Y-6964650D02*
X10472563Y-6964650D01*
X10472563Y-6964650D02*
X10491610Y-6974174D01*
X10491610Y-6974174D02*
X10501134Y-6993222D01*
X10501134Y-6993222D02*
X10501134Y-7097984D01*
X10501134Y-6993222D02*
X10510658Y-6974174D01*
X10510658Y-6974174D02*
X10529705Y-6964650D01*
X10529705Y-6964650D02*
X10558277Y-6964650D01*
X10558277Y-6964650D02*
X10577325Y-6974174D01*
X10577325Y-6974174D02*
X10586848Y-6993222D01*
X10586848Y-6993222D02*
X10586848Y-7097984D01*
X10682086Y-7097984D02*
X10682086Y-6964650D01*
X10682086Y-6983698D02*
X10691610Y-6974174D01*
X10691610Y-6974174D02*
X10710658Y-6964650D01*
X10710658Y-6964650D02*
X10739229Y-6964650D01*
X10739229Y-6964650D02*
X10758277Y-6974174D01*
X10758277Y-6974174D02*
X10767801Y-6993222D01*
X10767801Y-6993222D02*
X10767801Y-7097984D01*
X10767801Y-6993222D02*
X10777325Y-6974174D01*
X10777325Y-6974174D02*
X10796372Y-6964650D01*
X10796372Y-6964650D02*
X10824944Y-6964650D01*
X10824944Y-6964650D02*
X10843991Y-6974174D01*
X10843991Y-6974174D02*
X10853515Y-6993222D01*
X10853515Y-6993222D02*
X10853515Y-7097984D01*
X11243991Y-6888460D02*
X11072563Y-7145603D01*
X11501134Y-6897984D02*
X11520182Y-6897984D01*
X11520182Y-6897984D02*
X11539229Y-6907508D01*
X11539229Y-6907508D02*
X11548753Y-6917031D01*
X11548753Y-6917031D02*
X11558277Y-6936079D01*
X11558277Y-6936079D02*
X11567801Y-6974174D01*
X11567801Y-6974174D02*
X11567801Y-7021793D01*
X11567801Y-7021793D02*
X11558277Y-7059888D01*
X11558277Y-7059888D02*
X11548753Y-7078936D01*
X11548753Y-7078936D02*
X11539229Y-7088460D01*
X11539229Y-7088460D02*
X11520182Y-7097984D01*
X11520182Y-7097984D02*
X11501134Y-7097984D01*
X11501134Y-7097984D02*
X11482086Y-7088460D01*
X11482086Y-7088460D02*
X11472563Y-7078936D01*
X11472563Y-7078936D02*
X11463039Y-7059888D01*
X11463039Y-7059888D02*
X11453515Y-7021793D01*
X11453515Y-7021793D02*
X11453515Y-6974174D01*
X11453515Y-6974174D02*
X11463039Y-6936079D01*
X11463039Y-6936079D02*
X11472563Y-6917031D01*
X11472563Y-6917031D02*
X11482086Y-6907508D01*
X11482086Y-6907508D02*
X11501134Y-6897984D01*
X11653515Y-7078936D02*
X11663039Y-7088460D01*
X11663039Y-7088460D02*
X11653515Y-7097984D01*
X11653515Y-7097984D02*
X11643991Y-7088460D01*
X11643991Y-7088460D02*
X11653515Y-7078936D01*
X11653515Y-7078936D02*
X11653515Y-7097984D01*
X11786848Y-6897984D02*
X11805896Y-6897984D01*
X11805896Y-6897984D02*
X11824944Y-6907508D01*
X11824944Y-6907508D02*
X11834467Y-6917031D01*
X11834467Y-6917031D02*
X11843991Y-6936079D01*
X11843991Y-6936079D02*
X11853515Y-6974174D01*
X11853515Y-6974174D02*
X11853515Y-7021793D01*
X11853515Y-7021793D02*
X11843991Y-7059888D01*
X11843991Y-7059888D02*
X11834467Y-7078936D01*
X11834467Y-7078936D02*
X11824944Y-7088460D01*
X11824944Y-7088460D02*
X11805896Y-7097984D01*
X11805896Y-7097984D02*
X11786848Y-7097984D01*
X11786848Y-7097984D02*
X11767801Y-7088460D01*
X11767801Y-7088460D02*
X11758277Y-7078936D01*
X11758277Y-7078936D02*
X11748753Y-7059888D01*
X11748753Y-7059888D02*
X11739229Y-7021793D01*
X11739229Y-7021793D02*
X11739229Y-6974174D01*
X11739229Y-6974174D02*
X11748753Y-6936079D01*
X11748753Y-6936079D02*
X11758277Y-6917031D01*
X11758277Y-6917031D02*
X11767801Y-6907508D01*
X11767801Y-6907508D02*
X11786848Y-6897984D01*
X12024944Y-6897984D02*
X11986848Y-6897984D01*
X11986848Y-6897984D02*
X11967801Y-6907508D01*
X11967801Y-6907508D02*
X11958277Y-6917031D01*
X11958277Y-6917031D02*
X11939229Y-6945603D01*
X11939229Y-6945603D02*
X11929706Y-6983698D01*
X11929706Y-6983698D02*
X11929706Y-7059888D01*
X11929706Y-7059888D02*
X11939229Y-7078936D01*
X11939229Y-7078936D02*
X11948753Y-7088460D01*
X11948753Y-7088460D02*
X11967801Y-7097984D01*
X11967801Y-7097984D02*
X12005896Y-7097984D01*
X12005896Y-7097984D02*
X12024944Y-7088460D01*
X12024944Y-7088460D02*
X12034467Y-7078936D01*
X12034467Y-7078936D02*
X12043991Y-7059888D01*
X12043991Y-7059888D02*
X12043991Y-7012269D01*
X12043991Y-7012269D02*
X12034467Y-6993222D01*
X12034467Y-6993222D02*
X12024944Y-6983698D01*
X12024944Y-6983698D02*
X12005896Y-6974174D01*
X12005896Y-6974174D02*
X11967801Y-6974174D01*
X11967801Y-6974174D02*
X11948753Y-6983698D01*
X11948753Y-6983698D02*
X11939229Y-6993222D01*
X11939229Y-6993222D02*
X11929706Y-7012269D01*
X12110658Y-6897984D02*
X12234467Y-6897984D01*
X12234467Y-6897984D02*
X12167801Y-6974174D01*
X12167801Y-6974174D02*
X12196372Y-6974174D01*
X12196372Y-6974174D02*
X12215420Y-6983698D01*
X12215420Y-6983698D02*
X12224944Y-6993222D01*
X12224944Y-6993222D02*
X12234467Y-7012269D01*
X12234467Y-7012269D02*
X12234467Y-7059888D01*
X12234467Y-7059888D02*
X12224944Y-7078936D01*
X12224944Y-7078936D02*
X12215420Y-7088460D01*
X12215420Y-7088460D02*
X12196372Y-7097984D01*
X12196372Y-7097984D02*
X12139229Y-7097984D01*
X12139229Y-7097984D02*
X12120182Y-7088460D01*
X12120182Y-7088460D02*
X12110658Y-7078936D01*
X12358277Y-6897984D02*
X12377325Y-6897984D01*
X12377325Y-6897984D02*
X12396372Y-6907508D01*
X12396372Y-6907508D02*
X12405896Y-6917031D01*
X12405896Y-6917031D02*
X12415420Y-6936079D01*
X12415420Y-6936079D02*
X12424944Y-6974174D01*
X12424944Y-6974174D02*
X12424944Y-7021793D01*
X12424944Y-7021793D02*
X12415420Y-7059888D01*
X12415420Y-7059888D02*
X12405896Y-7078936D01*
X12405896Y-7078936D02*
X12396372Y-7088460D01*
X12396372Y-7088460D02*
X12377325Y-7097984D01*
X12377325Y-7097984D02*
X12358277Y-7097984D01*
X12358277Y-7097984D02*
X12339229Y-7088460D01*
X12339229Y-7088460D02*
X12329706Y-7078936D01*
X12329706Y-7078936D02*
X12320182Y-7059888D01*
X12320182Y-7059888D02*
X12310658Y-7021793D01*
X12310658Y-7021793D02*
X12310658Y-6974174D01*
X12310658Y-6974174D02*
X12320182Y-6936079D01*
X12320182Y-6936079D02*
X12329706Y-6917031D01*
X12329706Y-6917031D02*
X12339229Y-6907508D01*
X12339229Y-6907508D02*
X12358277Y-6897984D01*
X12501134Y-6897984D02*
X12501134Y-6936079D01*
X12577325Y-6897984D02*
X12577325Y-6936079D01*
X12872563Y-7174174D02*
X12863039Y-7164650D01*
X12863039Y-7164650D02*
X12843991Y-7136079D01*
X12843991Y-7136079D02*
X12834468Y-7117031D01*
X12834468Y-7117031D02*
X12824944Y-7088460D01*
X12824944Y-7088460D02*
X12815420Y-7040841D01*
X12815420Y-7040841D02*
X12815420Y-7002746D01*
X12815420Y-7002746D02*
X12824944Y-6955127D01*
X12824944Y-6955127D02*
X12834468Y-6926555D01*
X12834468Y-6926555D02*
X12843991Y-6907508D01*
X12843991Y-6907508D02*
X12863039Y-6878936D01*
X12863039Y-6878936D02*
X12872563Y-6869412D01*
X12986848Y-6897984D02*
X13005896Y-6897984D01*
X13005896Y-6897984D02*
X13024944Y-6907508D01*
X13024944Y-6907508D02*
X13034468Y-6917031D01*
X13034468Y-6917031D02*
X13043991Y-6936079D01*
X13043991Y-6936079D02*
X13053515Y-6974174D01*
X13053515Y-6974174D02*
X13053515Y-7021793D01*
X13053515Y-7021793D02*
X13043991Y-7059888D01*
X13043991Y-7059888D02*
X13034468Y-7078936D01*
X13034468Y-7078936D02*
X13024944Y-7088460D01*
X13024944Y-7088460D02*
X13005896Y-7097984D01*
X13005896Y-7097984D02*
X12986848Y-7097984D01*
X12986848Y-7097984D02*
X12967801Y-7088460D01*
X12967801Y-7088460D02*
X12958277Y-7078936D01*
X12958277Y-7078936D02*
X12948753Y-7059888D01*
X12948753Y-7059888D02*
X12939229Y-7021793D01*
X12939229Y-7021793D02*
X12939229Y-6974174D01*
X12939229Y-6974174D02*
X12948753Y-6936079D01*
X12948753Y-6936079D02*
X12958277Y-6917031D01*
X12958277Y-6917031D02*
X12967801Y-6907508D01*
X12967801Y-6907508D02*
X12986848Y-6897984D01*
X13291610Y-7097984D02*
X13291610Y-6897984D01*
X13377325Y-7097984D02*
X13377325Y-6993222D01*
X13377325Y-6993222D02*
X13367801Y-6974174D01*
X13367801Y-6974174D02*
X13348753Y-6964650D01*
X13348753Y-6964650D02*
X13320182Y-6964650D01*
X13320182Y-6964650D02*
X13301134Y-6974174D01*
X13301134Y-6974174D02*
X13291610Y-6983698D01*
X13501134Y-7097984D02*
X13482087Y-7088460D01*
X13482087Y-7088460D02*
X13472563Y-7078936D01*
X13472563Y-7078936D02*
X13463039Y-7059888D01*
X13463039Y-7059888D02*
X13463039Y-7002746D01*
X13463039Y-7002746D02*
X13472563Y-6983698D01*
X13472563Y-6983698D02*
X13482087Y-6974174D01*
X13482087Y-6974174D02*
X13501134Y-6964650D01*
X13501134Y-6964650D02*
X13529706Y-6964650D01*
X13529706Y-6964650D02*
X13548753Y-6974174D01*
X13548753Y-6974174D02*
X13558277Y-6983698D01*
X13558277Y-6983698D02*
X13567801Y-7002746D01*
X13567801Y-7002746D02*
X13567801Y-7059888D01*
X13567801Y-7059888D02*
X13558277Y-7078936D01*
X13558277Y-7078936D02*
X13548753Y-7088460D01*
X13548753Y-7088460D02*
X13529706Y-7097984D01*
X13529706Y-7097984D02*
X13501134Y-7097984D01*
X13682087Y-7097984D02*
X13663039Y-7088460D01*
X13663039Y-7088460D02*
X13653515Y-7069412D01*
X13653515Y-7069412D02*
X13653515Y-6897984D01*
X13834468Y-7088460D02*
X13815420Y-7097984D01*
X13815420Y-7097984D02*
X13777325Y-7097984D01*
X13777325Y-7097984D02*
X13758277Y-7088460D01*
X13758277Y-7088460D02*
X13748753Y-7069412D01*
X13748753Y-7069412D02*
X13748753Y-6993222D01*
X13748753Y-6993222D02*
X13758277Y-6974174D01*
X13758277Y-6974174D02*
X13777325Y-6964650D01*
X13777325Y-6964650D02*
X13815420Y-6964650D01*
X13815420Y-6964650D02*
X13834468Y-6974174D01*
X13834468Y-6974174D02*
X13843991Y-6993222D01*
X13843991Y-6993222D02*
X13843991Y-7012269D01*
X13843991Y-7012269D02*
X13748753Y-7031317D01*
X13920182Y-7088460D02*
X13939230Y-7097984D01*
X13939230Y-7097984D02*
X13977325Y-7097984D01*
X13977325Y-7097984D02*
X13996372Y-7088460D01*
X13996372Y-7088460D02*
X14005896Y-7069412D01*
X14005896Y-7069412D02*
X14005896Y-7059888D01*
X14005896Y-7059888D02*
X13996372Y-7040841D01*
X13996372Y-7040841D02*
X13977325Y-7031317D01*
X13977325Y-7031317D02*
X13948753Y-7031317D01*
X13948753Y-7031317D02*
X13929706Y-7021793D01*
X13929706Y-7021793D02*
X13920182Y-7002746D01*
X13920182Y-7002746D02*
X13920182Y-6993222D01*
X13920182Y-6993222D02*
X13929706Y-6974174D01*
X13929706Y-6974174D02*
X13948753Y-6964650D01*
X13948753Y-6964650D02*
X13977325Y-6964650D01*
X13977325Y-6964650D02*
X13996372Y-6974174D01*
X14243992Y-7021793D02*
X14396373Y-7021793D01*
X14320182Y-7097984D02*
X14320182Y-6945603D01*
X14729706Y-6897984D02*
X14691611Y-6897984D01*
X14691611Y-6897984D02*
X14672563Y-6907508D01*
X14672563Y-6907508D02*
X14663039Y-6917031D01*
X14663039Y-6917031D02*
X14643992Y-6945603D01*
X14643992Y-6945603D02*
X14634468Y-6983698D01*
X14634468Y-6983698D02*
X14634468Y-7059888D01*
X14634468Y-7059888D02*
X14643992Y-7078936D01*
X14643992Y-7078936D02*
X14653515Y-7088460D01*
X14653515Y-7088460D02*
X14672563Y-7097984D01*
X14672563Y-7097984D02*
X14710658Y-7097984D01*
X14710658Y-7097984D02*
X14729706Y-7088460D01*
X14729706Y-7088460D02*
X14739230Y-7078936D01*
X14739230Y-7078936D02*
X14748753Y-7059888D01*
X14748753Y-7059888D02*
X14748753Y-7012269D01*
X14748753Y-7012269D02*
X14739230Y-6993222D01*
X14739230Y-6993222D02*
X14729706Y-6983698D01*
X14729706Y-6983698D02*
X14710658Y-6974174D01*
X14710658Y-6974174D02*
X14672563Y-6974174D01*
X14672563Y-6974174D02*
X14653515Y-6983698D01*
X14653515Y-6983698D02*
X14643992Y-6993222D01*
X14643992Y-6993222D02*
X14634468Y-7012269D01*
X14977325Y-7088460D02*
X14996373Y-7097984D01*
X14996373Y-7097984D02*
X15034468Y-7097984D01*
X15034468Y-7097984D02*
X15053515Y-7088460D01*
X15053515Y-7088460D02*
X15063039Y-7069412D01*
X15063039Y-7069412D02*
X15063039Y-7059888D01*
X15063039Y-7059888D02*
X15053515Y-7040841D01*
X15053515Y-7040841D02*
X15034468Y-7031317D01*
X15034468Y-7031317D02*
X15005896Y-7031317D01*
X15005896Y-7031317D02*
X14986849Y-7021793D01*
X14986849Y-7021793D02*
X14977325Y-7002746D01*
X14977325Y-7002746D02*
X14977325Y-6993222D01*
X14977325Y-6993222D02*
X14986849Y-6974174D01*
X14986849Y-6974174D02*
X15005896Y-6964650D01*
X15005896Y-6964650D02*
X15034468Y-6964650D01*
X15034468Y-6964650D02*
X15053515Y-6974174D01*
X15177325Y-7097984D02*
X15158277Y-7088460D01*
X15158277Y-7088460D02*
X15148754Y-7069412D01*
X15148754Y-7069412D02*
X15148754Y-6897984D01*
X15282087Y-7097984D02*
X15263039Y-7088460D01*
X15263039Y-7088460D02*
X15253515Y-7078936D01*
X15253515Y-7078936D02*
X15243992Y-7059888D01*
X15243992Y-7059888D02*
X15243992Y-7002746D01*
X15243992Y-7002746D02*
X15253515Y-6983698D01*
X15253515Y-6983698D02*
X15263039Y-6974174D01*
X15263039Y-6974174D02*
X15282087Y-6964650D01*
X15282087Y-6964650D02*
X15310658Y-6964650D01*
X15310658Y-6964650D02*
X15329706Y-6974174D01*
X15329706Y-6974174D02*
X15339230Y-6983698D01*
X15339230Y-6983698D02*
X15348754Y-7002746D01*
X15348754Y-7002746D02*
X15348754Y-7059888D01*
X15348754Y-7059888D02*
X15339230Y-7078936D01*
X15339230Y-7078936D02*
X15329706Y-7088460D01*
X15329706Y-7088460D02*
X15310658Y-7097984D01*
X15310658Y-7097984D02*
X15282087Y-7097984D01*
X15405896Y-6964650D02*
X15482087Y-6964650D01*
X15434468Y-6897984D02*
X15434468Y-7069412D01*
X15434468Y-7069412D02*
X15443992Y-7088460D01*
X15443992Y-7088460D02*
X15463039Y-7097984D01*
X15463039Y-7097984D02*
X15482087Y-7097984D01*
X15539230Y-7088460D02*
X15558277Y-7097984D01*
X15558277Y-7097984D02*
X15596373Y-7097984D01*
X15596373Y-7097984D02*
X15615420Y-7088460D01*
X15615420Y-7088460D02*
X15624944Y-7069412D01*
X15624944Y-7069412D02*
X15624944Y-7059888D01*
X15624944Y-7059888D02*
X15615420Y-7040841D01*
X15615420Y-7040841D02*
X15596373Y-7031317D01*
X15596373Y-7031317D02*
X15567801Y-7031317D01*
X15567801Y-7031317D02*
X15548754Y-7021793D01*
X15548754Y-7021793D02*
X15539230Y-7002746D01*
X15539230Y-7002746D02*
X15539230Y-6993222D01*
X15539230Y-6993222D02*
X15548754Y-6974174D01*
X15548754Y-6974174D02*
X15567801Y-6964650D01*
X15567801Y-6964650D02*
X15596373Y-6964650D01*
X15596373Y-6964650D02*
X15615420Y-6974174D01*
X15691611Y-7174174D02*
X15701135Y-7164650D01*
X15701135Y-7164650D02*
X15720182Y-7136079D01*
X15720182Y-7136079D02*
X15729706Y-7117031D01*
X15729706Y-7117031D02*
X15739230Y-7088460D01*
X15739230Y-7088460D02*
X15748754Y-7040841D01*
X15748754Y-7040841D02*
X15748754Y-7002746D01*
X15748754Y-7002746D02*
X15739230Y-6955127D01*
X15739230Y-6955127D02*
X15729706Y-6926555D01*
X15729706Y-6926555D02*
X15720182Y-6907508D01*
X15720182Y-6907508D02*
X15701135Y-6878936D01*
X15701135Y-6878936D02*
X15691611Y-6869412D01*
M02*
