%TF.GenerationSoftware,KiCad,Pcbnew,8.0.4*%
%TF.CreationDate,2025-02-04T23:44:10-05:00*%
%TF.ProjectId,Magnetometer,4d61676e-6574-46f6-9d65-7465722e6b69,rev?*%
%TF.SameCoordinates,Original*%
%TF.FileFunction,Copper,L2,Inr*%
%TF.FilePolarity,Positive*%
%FSLAX46Y46*%
G04 Gerber Fmt 4.6, Leading zero omitted, Abs format (unit mm)*
G04 Created by KiCad (PCBNEW 8.0.4) date 2025-02-04 23:44:10*
%MOMM*%
%LPD*%
G01*
G04 APERTURE LIST*
%TA.AperFunction,ComponentPad*%
%ADD10C,2.900000*%
%TD*%
%TA.AperFunction,ViaPad*%
%ADD11C,0.600000*%
%TD*%
G04 APERTURE END LIST*
D10*
%TO.N,N/C*%
%TO.C,REF\u002A\u002A*%
X129286000Y-144526000D03*
%TD*%
%TO.N,N/C*%
%TO.C,REF\u002A\u002A*%
X140716000Y-159004000D03*
%TD*%
D11*
%TO.N,5V*%
X132560000Y-142950000D03*
X130880000Y-148710000D03*
X133480000Y-146500000D03*
X135710000Y-154980000D03*
X133420000Y-150680000D03*
X131940000Y-159320000D03*
X132880000Y-159350000D03*
X132890000Y-158130000D03*
X131820000Y-158110000D03*
%TO.N,GND*%
X135560000Y-159270000D03*
X136640000Y-159290000D03*
X136650000Y-158180000D03*
X135510000Y-158190000D03*
X128270000Y-156100000D03*
X128250000Y-157120000D03*
%TO.N,5V*%
X128260000Y-158750000D03*
X128230000Y-159830000D03*
%TO.N,GND*%
X141224000Y-148590000D03*
X137922000Y-151384000D03*
X132924550Y-154975601D03*
X137414000Y-155956000D03*
X130810000Y-155448000D03*
X140716000Y-155194000D03*
%TO.N,3V3*%
X140208000Y-149098000D03*
X138176000Y-145288000D03*
X137668000Y-148590000D03*
X137922000Y-153670000D03*
X140208000Y-152400000D03*
X142240000Y-148844000D03*
%TO.N,5V*%
X132924550Y-153075599D03*
X130048000Y-153670000D03*
%TD*%
%TA.AperFunction,Conductor*%
%TO.N,GND*%
G36*
X141765121Y-141478020D02*
G01*
X141899109Y-141480409D01*
X141914528Y-141481650D01*
X142180897Y-141519948D01*
X142198184Y-141523708D01*
X142455313Y-141599209D01*
X142471887Y-141605391D01*
X142581159Y-141655293D01*
X142715659Y-141716717D01*
X142731173Y-141725188D01*
X142956628Y-141870080D01*
X142970787Y-141880679D01*
X143173317Y-142056172D01*
X143185827Y-142068682D01*
X143361320Y-142271212D01*
X143371921Y-142285374D01*
X143516808Y-142510821D01*
X143525284Y-142526345D01*
X143636608Y-142770112D01*
X143642791Y-142786688D01*
X143718290Y-143043814D01*
X143722051Y-143061102D01*
X143760348Y-143327463D01*
X143761590Y-143342898D01*
X143763980Y-143476877D01*
X143764000Y-143479089D01*
X143764000Y-160050910D01*
X143763980Y-160053122D01*
X143761590Y-160187101D01*
X143760348Y-160202536D01*
X143722051Y-160468897D01*
X143718290Y-160486185D01*
X143642791Y-160743311D01*
X143636608Y-160759887D01*
X143525284Y-161003654D01*
X143516805Y-161019183D01*
X143371922Y-161244624D01*
X143361320Y-161258787D01*
X143185827Y-161461317D01*
X143173317Y-161473827D01*
X142970787Y-161649320D01*
X142956624Y-161659922D01*
X142731183Y-161804805D01*
X142715654Y-161813284D01*
X142471887Y-161924608D01*
X142455311Y-161930791D01*
X142198185Y-162006290D01*
X142180897Y-162010051D01*
X141914536Y-162048348D01*
X141899101Y-162049590D01*
X141768818Y-162051914D01*
X141765120Y-162051980D01*
X141762910Y-162052000D01*
X128239090Y-162052000D01*
X128236879Y-162051980D01*
X128233015Y-162051911D01*
X128102898Y-162049590D01*
X128087463Y-162048348D01*
X127821102Y-162010051D01*
X127803814Y-162006290D01*
X127546688Y-161930791D01*
X127530112Y-161924608D01*
X127286345Y-161813284D01*
X127270821Y-161804808D01*
X127045374Y-161659921D01*
X127031212Y-161649320D01*
X126828682Y-161473827D01*
X126816172Y-161461317D01*
X126640679Y-161258787D01*
X126630077Y-161244624D01*
X126485188Y-161019173D01*
X126476715Y-161003654D01*
X126365391Y-160759887D01*
X126359208Y-160743311D01*
X126328644Y-160639221D01*
X126283708Y-160486184D01*
X126279948Y-160468897D01*
X126261906Y-160343411D01*
X126241650Y-160202528D01*
X126240409Y-160187109D01*
X126238020Y-160053121D01*
X126238000Y-160050910D01*
X126238000Y-159830000D01*
X127724353Y-159830000D01*
X127744834Y-159972456D01*
X127781673Y-160053121D01*
X127804623Y-160103373D01*
X127898872Y-160212143D01*
X128019947Y-160289953D01*
X128019950Y-160289954D01*
X128019949Y-160289954D01*
X128158036Y-160330499D01*
X128158038Y-160330500D01*
X128158039Y-160330500D01*
X128301962Y-160330500D01*
X128301962Y-160330499D01*
X128440053Y-160289953D01*
X128561128Y-160212143D01*
X128655377Y-160103373D01*
X128715165Y-159972457D01*
X128735647Y-159830000D01*
X128715165Y-159687543D01*
X128655377Y-159556627D01*
X128561128Y-159447857D01*
X128561125Y-159447855D01*
X128492815Y-159403954D01*
X128447060Y-159351150D01*
X128437117Y-159281991D01*
X128466143Y-159218436D01*
X128492810Y-159195327D01*
X128591128Y-159132143D01*
X128685377Y-159023373D01*
X128745165Y-158892457D01*
X128765647Y-158750000D01*
X128745165Y-158607543D01*
X128685377Y-158476627D01*
X128591128Y-158367857D01*
X128470053Y-158290047D01*
X128470051Y-158290046D01*
X128470049Y-158290045D01*
X128470050Y-158290045D01*
X128331963Y-158249500D01*
X128331961Y-158249500D01*
X128188039Y-158249500D01*
X128188036Y-158249500D01*
X128049949Y-158290045D01*
X127928873Y-158367856D01*
X127928872Y-158367856D01*
X127928872Y-158367857D01*
X127916290Y-158382377D01*
X127834623Y-158476626D01*
X127834622Y-158476628D01*
X127774834Y-158607543D01*
X127754353Y-158750000D01*
X127774834Y-158892456D01*
X127826220Y-159004973D01*
X127834623Y-159023373D01*
X127928872Y-159132143D01*
X127928874Y-159132144D01*
X127928873Y-159132144D01*
X127997184Y-159176045D01*
X128042939Y-159228849D01*
X128052882Y-159298007D01*
X128023857Y-159361563D01*
X127997184Y-159384675D01*
X127898874Y-159447855D01*
X127804623Y-159556626D01*
X127804622Y-159556628D01*
X127744834Y-159687543D01*
X127724353Y-159830000D01*
X126238000Y-159830000D01*
X126238000Y-158110000D01*
X131314353Y-158110000D01*
X131334834Y-158252456D01*
X131387537Y-158367857D01*
X131394623Y-158383373D01*
X131488872Y-158492143D01*
X131609947Y-158569953D01*
X131609950Y-158569954D01*
X131609949Y-158569954D01*
X131756548Y-158612999D01*
X131755714Y-158615838D01*
X131805731Y-158638669D01*
X131843517Y-158697440D01*
X131843530Y-158767310D01*
X131805766Y-158826095D01*
X131759482Y-158851374D01*
X131729948Y-158860046D01*
X131608873Y-158937856D01*
X131514623Y-159046626D01*
X131514622Y-159046628D01*
X131454834Y-159177543D01*
X131434353Y-159320000D01*
X131454834Y-159462456D01*
X131476850Y-159510663D01*
X131514623Y-159593373D01*
X131608872Y-159702143D01*
X131729947Y-159779953D01*
X131729950Y-159779954D01*
X131729949Y-159779954D01*
X131868036Y-159820499D01*
X131868038Y-159820500D01*
X131868039Y-159820500D01*
X132011962Y-159820500D01*
X132011962Y-159820499D01*
X132150053Y-159779953D01*
X132271128Y-159702143D01*
X132303290Y-159665025D01*
X132362065Y-159627251D01*
X132431935Y-159627250D01*
X132490712Y-159665023D01*
X132548872Y-159732143D01*
X132669947Y-159809953D01*
X132669950Y-159809954D01*
X132669949Y-159809954D01*
X132808036Y-159850499D01*
X132808038Y-159850500D01*
X132808039Y-159850500D01*
X132951962Y-159850500D01*
X132951962Y-159850499D01*
X133090053Y-159809953D01*
X133211128Y-159732143D01*
X133305377Y-159623373D01*
X133365165Y-159492457D01*
X133385647Y-159350000D01*
X133365165Y-159207543D01*
X133305377Y-159076627D01*
X133242446Y-159004000D01*
X139060396Y-159004000D01*
X139080778Y-159262990D01*
X139141427Y-159515610D01*
X139240843Y-159755623D01*
X139240845Y-159755627D01*
X139240846Y-159755628D01*
X139376588Y-159977140D01*
X139545311Y-160174689D01*
X139742860Y-160343412D01*
X139964372Y-160479154D01*
X139964374Y-160479154D01*
X139964376Y-160479156D01*
X139981346Y-160486185D01*
X140204390Y-160578573D01*
X140457006Y-160639221D01*
X140716000Y-160659604D01*
X140974994Y-160639221D01*
X141227610Y-160578573D01*
X141467628Y-160479154D01*
X141689140Y-160343412D01*
X141886689Y-160174689D01*
X142055412Y-159977140D01*
X142191154Y-159755628D01*
X142290573Y-159515610D01*
X142351221Y-159262994D01*
X142371604Y-159004000D01*
X142351221Y-158745006D01*
X142290573Y-158492390D01*
X142199473Y-158272456D01*
X142191156Y-158252376D01*
X142116164Y-158130000D01*
X142055412Y-158030860D01*
X141886689Y-157833311D01*
X141689140Y-157664588D01*
X141467628Y-157528846D01*
X141467627Y-157528845D01*
X141467623Y-157528843D01*
X141301627Y-157460086D01*
X141227610Y-157429427D01*
X141227611Y-157429427D01*
X141089921Y-157396370D01*
X140974994Y-157368779D01*
X140974992Y-157368778D01*
X140974991Y-157368778D01*
X140716000Y-157348396D01*
X140457009Y-157368778D01*
X140204389Y-157429427D01*
X139964376Y-157528843D01*
X139742859Y-157664588D01*
X139545311Y-157833311D01*
X139376588Y-158030859D01*
X139240843Y-158252376D01*
X139141427Y-158492389D01*
X139080778Y-158745009D01*
X139060396Y-159004000D01*
X133242446Y-159004000D01*
X133211128Y-158967857D01*
X133090053Y-158890047D01*
X133090051Y-158890046D01*
X133090049Y-158890045D01*
X133090050Y-158890045D01*
X132989239Y-158860445D01*
X132930460Y-158822671D01*
X132901435Y-158759115D01*
X132911378Y-158689957D01*
X132957133Y-158637153D01*
X132989239Y-158622491D01*
X133100050Y-158589954D01*
X133100050Y-158589953D01*
X133100053Y-158589953D01*
X133221128Y-158512143D01*
X133315377Y-158403373D01*
X133375165Y-158272457D01*
X133395647Y-158130000D01*
X133375165Y-157987543D01*
X133315377Y-157856627D01*
X133221128Y-157747857D01*
X133100053Y-157670047D01*
X133100051Y-157670046D01*
X133100049Y-157670045D01*
X133100050Y-157670045D01*
X132961963Y-157629500D01*
X132961961Y-157629500D01*
X132818039Y-157629500D01*
X132818036Y-157629500D01*
X132679949Y-157670045D01*
X132558873Y-157747856D01*
X132464615Y-157856636D01*
X132464560Y-157856722D01*
X132464483Y-157856788D01*
X132458815Y-157863330D01*
X132457873Y-157862514D01*
X132411752Y-157902472D01*
X132342592Y-157912408D01*
X132279039Y-157883376D01*
X132247457Y-157841182D01*
X132245377Y-157836627D01*
X132151128Y-157727857D01*
X132030053Y-157650047D01*
X132030051Y-157650046D01*
X132030049Y-157650045D01*
X132030050Y-157650045D01*
X131891963Y-157609500D01*
X131891961Y-157609500D01*
X131748039Y-157609500D01*
X131748036Y-157609500D01*
X131609949Y-157650045D01*
X131488873Y-157727856D01*
X131394623Y-157836626D01*
X131394622Y-157836628D01*
X131334834Y-157967543D01*
X131314353Y-158110000D01*
X126238000Y-158110000D01*
X126238000Y-154980000D01*
X135204353Y-154980000D01*
X135224834Y-155122456D01*
X135284622Y-155253371D01*
X135284623Y-155253373D01*
X135378872Y-155362143D01*
X135499947Y-155439953D01*
X135499950Y-155439954D01*
X135499949Y-155439954D01*
X135638036Y-155480499D01*
X135638038Y-155480500D01*
X135638039Y-155480500D01*
X135781962Y-155480500D01*
X135781962Y-155480499D01*
X135920053Y-155439953D01*
X136041128Y-155362143D01*
X136135377Y-155253373D01*
X136195165Y-155122457D01*
X136215647Y-154980000D01*
X136195165Y-154837543D01*
X136135377Y-154706627D01*
X136041128Y-154597857D01*
X135920053Y-154520047D01*
X135920051Y-154520046D01*
X135920049Y-154520045D01*
X135920050Y-154520045D01*
X135781963Y-154479500D01*
X135781961Y-154479500D01*
X135638039Y-154479500D01*
X135638036Y-154479500D01*
X135499949Y-154520045D01*
X135378873Y-154597856D01*
X135284623Y-154706626D01*
X135284622Y-154706628D01*
X135224834Y-154837543D01*
X135204353Y-154980000D01*
X126238000Y-154980000D01*
X126238000Y-153670000D01*
X129542353Y-153670000D01*
X129562834Y-153812456D01*
X129622622Y-153943371D01*
X129622623Y-153943373D01*
X129716872Y-154052143D01*
X129837947Y-154129953D01*
X129837950Y-154129954D01*
X129837949Y-154129954D01*
X129976036Y-154170499D01*
X129976038Y-154170500D01*
X129976039Y-154170500D01*
X130119962Y-154170500D01*
X130119962Y-154170499D01*
X130258053Y-154129953D01*
X130379128Y-154052143D01*
X130473377Y-153943373D01*
X130533165Y-153812457D01*
X130553647Y-153670000D01*
X137416353Y-153670000D01*
X137436834Y-153812456D01*
X137496622Y-153943371D01*
X137496623Y-153943373D01*
X137590872Y-154052143D01*
X137711947Y-154129953D01*
X137711950Y-154129954D01*
X137711949Y-154129954D01*
X137850036Y-154170499D01*
X137850038Y-154170500D01*
X137850039Y-154170500D01*
X137993962Y-154170500D01*
X137993962Y-154170499D01*
X138132053Y-154129953D01*
X138253128Y-154052143D01*
X138347377Y-153943373D01*
X138407165Y-153812457D01*
X138427647Y-153670000D01*
X138407165Y-153527543D01*
X138347377Y-153396627D01*
X138253128Y-153287857D01*
X138132053Y-153210047D01*
X138132051Y-153210046D01*
X138132049Y-153210045D01*
X138132050Y-153210045D01*
X137993963Y-153169500D01*
X137993961Y-153169500D01*
X137850039Y-153169500D01*
X137850036Y-153169500D01*
X137711949Y-153210045D01*
X137590873Y-153287856D01*
X137496623Y-153396626D01*
X137496622Y-153396628D01*
X137436834Y-153527543D01*
X137416353Y-153670000D01*
X130553647Y-153670000D01*
X130533165Y-153527543D01*
X130473377Y-153396627D01*
X130379128Y-153287857D01*
X130258053Y-153210047D01*
X130258051Y-153210046D01*
X130258049Y-153210045D01*
X130258050Y-153210045D01*
X130119963Y-153169500D01*
X130119961Y-153169500D01*
X129976039Y-153169500D01*
X129976036Y-153169500D01*
X129837949Y-153210045D01*
X129716873Y-153287856D01*
X129622623Y-153396626D01*
X129622622Y-153396628D01*
X129562834Y-153527543D01*
X129542353Y-153670000D01*
X126238000Y-153670000D01*
X126238000Y-153075599D01*
X132418903Y-153075599D01*
X132439384Y-153218055D01*
X132471262Y-153287856D01*
X132499173Y-153348972D01*
X132593422Y-153457742D01*
X132714497Y-153535552D01*
X132714500Y-153535553D01*
X132714499Y-153535553D01*
X132852586Y-153576098D01*
X132852588Y-153576099D01*
X132852589Y-153576099D01*
X132996512Y-153576099D01*
X132996512Y-153576098D01*
X133134603Y-153535552D01*
X133255678Y-153457742D01*
X133349927Y-153348972D01*
X133409715Y-153218056D01*
X133430197Y-153075599D01*
X133409715Y-152933142D01*
X133349927Y-152802226D01*
X133255678Y-152693456D01*
X133134603Y-152615646D01*
X133134601Y-152615645D01*
X133134599Y-152615644D01*
X133134600Y-152615644D01*
X132996513Y-152575099D01*
X132996511Y-152575099D01*
X132852589Y-152575099D01*
X132852586Y-152575099D01*
X132714499Y-152615644D01*
X132593423Y-152693455D01*
X132499173Y-152802225D01*
X132499172Y-152802227D01*
X132439384Y-152933142D01*
X132418903Y-153075599D01*
X126238000Y-153075599D01*
X126238000Y-152400000D01*
X139702353Y-152400000D01*
X139722834Y-152542456D01*
X139782622Y-152673371D01*
X139782623Y-152673373D01*
X139876872Y-152782143D01*
X139997947Y-152859953D01*
X139997950Y-152859954D01*
X139997949Y-152859954D01*
X140136036Y-152900499D01*
X140136038Y-152900500D01*
X140136039Y-152900500D01*
X140279962Y-152900500D01*
X140279962Y-152900499D01*
X140418053Y-152859953D01*
X140539128Y-152782143D01*
X140633377Y-152673373D01*
X140693165Y-152542457D01*
X140713647Y-152400000D01*
X140693165Y-152257543D01*
X140633377Y-152126627D01*
X140539128Y-152017857D01*
X140418053Y-151940047D01*
X140418051Y-151940046D01*
X140418049Y-151940045D01*
X140418050Y-151940045D01*
X140279963Y-151899500D01*
X140279961Y-151899500D01*
X140136039Y-151899500D01*
X140136036Y-151899500D01*
X139997949Y-151940045D01*
X139876873Y-152017856D01*
X139782623Y-152126626D01*
X139782622Y-152126628D01*
X139722834Y-152257543D01*
X139702353Y-152400000D01*
X126238000Y-152400000D01*
X126238000Y-150680000D01*
X132914353Y-150680000D01*
X132934834Y-150822456D01*
X132994622Y-150953371D01*
X132994623Y-150953373D01*
X133088872Y-151062143D01*
X133209947Y-151139953D01*
X133209950Y-151139954D01*
X133209949Y-151139954D01*
X133348036Y-151180499D01*
X133348038Y-151180500D01*
X133348039Y-151180500D01*
X133491962Y-151180500D01*
X133491962Y-151180499D01*
X133630053Y-151139953D01*
X133751128Y-151062143D01*
X133845377Y-150953373D01*
X133905165Y-150822457D01*
X133925647Y-150680000D01*
X133905165Y-150537543D01*
X133845377Y-150406627D01*
X133751128Y-150297857D01*
X133630053Y-150220047D01*
X133630051Y-150220046D01*
X133630049Y-150220045D01*
X133630050Y-150220045D01*
X133491963Y-150179500D01*
X133491961Y-150179500D01*
X133348039Y-150179500D01*
X133348036Y-150179500D01*
X133209949Y-150220045D01*
X133088873Y-150297856D01*
X132994623Y-150406626D01*
X132994622Y-150406628D01*
X132934834Y-150537543D01*
X132914353Y-150680000D01*
X126238000Y-150680000D01*
X126238000Y-148710000D01*
X130374353Y-148710000D01*
X130394834Y-148852456D01*
X130399819Y-148863371D01*
X130454623Y-148983373D01*
X130548872Y-149092143D01*
X130669947Y-149169953D01*
X130669950Y-149169954D01*
X130669949Y-149169954D01*
X130808036Y-149210499D01*
X130808038Y-149210500D01*
X130808039Y-149210500D01*
X130951962Y-149210500D01*
X130951962Y-149210499D01*
X131090053Y-149169953D01*
X131202014Y-149098000D01*
X139702353Y-149098000D01*
X139722834Y-149240456D01*
X139751833Y-149303953D01*
X139782623Y-149371373D01*
X139876872Y-149480143D01*
X139997947Y-149557953D01*
X139997950Y-149557954D01*
X139997949Y-149557954D01*
X140136036Y-149598499D01*
X140136038Y-149598500D01*
X140136039Y-149598500D01*
X140279962Y-149598500D01*
X140279962Y-149598499D01*
X140418053Y-149557953D01*
X140539128Y-149480143D01*
X140633377Y-149371373D01*
X140693165Y-149240457D01*
X140713647Y-149098000D01*
X140693165Y-148955543D01*
X140642224Y-148844000D01*
X141734353Y-148844000D01*
X141754834Y-148986456D01*
X141814622Y-149117371D01*
X141814623Y-149117373D01*
X141908872Y-149226143D01*
X142029947Y-149303953D01*
X142029950Y-149303954D01*
X142029949Y-149303954D01*
X142168036Y-149344499D01*
X142168038Y-149344500D01*
X142168039Y-149344500D01*
X142311962Y-149344500D01*
X142311962Y-149344499D01*
X142450053Y-149303953D01*
X142571128Y-149226143D01*
X142665377Y-149117373D01*
X142725165Y-148986457D01*
X142745647Y-148844000D01*
X142725165Y-148701543D01*
X142665377Y-148570627D01*
X142571128Y-148461857D01*
X142450053Y-148384047D01*
X142450051Y-148384046D01*
X142450049Y-148384045D01*
X142450050Y-148384045D01*
X142311963Y-148343500D01*
X142311961Y-148343500D01*
X142168039Y-148343500D01*
X142168036Y-148343500D01*
X142029949Y-148384045D01*
X141908873Y-148461856D01*
X141814623Y-148570626D01*
X141814622Y-148570628D01*
X141754834Y-148701543D01*
X141734353Y-148844000D01*
X140642224Y-148844000D01*
X140633377Y-148824627D01*
X140539128Y-148715857D01*
X140418053Y-148638047D01*
X140418051Y-148638046D01*
X140418049Y-148638045D01*
X140418050Y-148638045D01*
X140279963Y-148597500D01*
X140279961Y-148597500D01*
X140136039Y-148597500D01*
X140136036Y-148597500D01*
X139997949Y-148638045D01*
X139876873Y-148715856D01*
X139782623Y-148824626D01*
X139782622Y-148824628D01*
X139722834Y-148955543D01*
X139702353Y-149098000D01*
X131202014Y-149098000D01*
X131211128Y-149092143D01*
X131305377Y-148983373D01*
X131365165Y-148852457D01*
X131385647Y-148710000D01*
X131368394Y-148590000D01*
X137162353Y-148590000D01*
X137182834Y-148732456D01*
X137237637Y-148852456D01*
X137242623Y-148863373D01*
X137336872Y-148972143D01*
X137457947Y-149049953D01*
X137457950Y-149049954D01*
X137457949Y-149049954D01*
X137596036Y-149090499D01*
X137596038Y-149090500D01*
X137596039Y-149090500D01*
X137739962Y-149090500D01*
X137739962Y-149090499D01*
X137878053Y-149049953D01*
X137999128Y-148972143D01*
X138093377Y-148863373D01*
X138153165Y-148732457D01*
X138173647Y-148590000D01*
X138153165Y-148447543D01*
X138093377Y-148316627D01*
X137999128Y-148207857D01*
X137878053Y-148130047D01*
X137878051Y-148130046D01*
X137878049Y-148130045D01*
X137878050Y-148130045D01*
X137739963Y-148089500D01*
X137739961Y-148089500D01*
X137596039Y-148089500D01*
X137596036Y-148089500D01*
X137457949Y-148130045D01*
X137336873Y-148207856D01*
X137242623Y-148316626D01*
X137242622Y-148316628D01*
X137182834Y-148447543D01*
X137162353Y-148590000D01*
X131368394Y-148590000D01*
X131365165Y-148567543D01*
X131305377Y-148436627D01*
X131211128Y-148327857D01*
X131090053Y-148250047D01*
X131090051Y-148250046D01*
X131090049Y-148250045D01*
X131090050Y-148250045D01*
X130951963Y-148209500D01*
X130951961Y-148209500D01*
X130808039Y-148209500D01*
X130808036Y-148209500D01*
X130669949Y-148250045D01*
X130548873Y-148327856D01*
X130454623Y-148436626D01*
X130454622Y-148436628D01*
X130394834Y-148567543D01*
X130374353Y-148710000D01*
X126238000Y-148710000D01*
X126238000Y-146500000D01*
X132974353Y-146500000D01*
X132994834Y-146642456D01*
X133054622Y-146773371D01*
X133054623Y-146773373D01*
X133148872Y-146882143D01*
X133269947Y-146959953D01*
X133269950Y-146959954D01*
X133269949Y-146959954D01*
X133408036Y-147000499D01*
X133408038Y-147000500D01*
X133408039Y-147000500D01*
X133551962Y-147000500D01*
X133551962Y-147000499D01*
X133690053Y-146959953D01*
X133811128Y-146882143D01*
X133905377Y-146773373D01*
X133965165Y-146642457D01*
X133985647Y-146500000D01*
X133965165Y-146357543D01*
X133905377Y-146226627D01*
X133811128Y-146117857D01*
X133690053Y-146040047D01*
X133690051Y-146040046D01*
X133690049Y-146040045D01*
X133690050Y-146040045D01*
X133551963Y-145999500D01*
X133551961Y-145999500D01*
X133408039Y-145999500D01*
X133408036Y-145999500D01*
X133269949Y-146040045D01*
X133148873Y-146117856D01*
X133054623Y-146226626D01*
X133054622Y-146226628D01*
X132994834Y-146357543D01*
X132974353Y-146500000D01*
X126238000Y-146500000D01*
X126238000Y-144526000D01*
X127630396Y-144526000D01*
X127650778Y-144784990D01*
X127711427Y-145037610D01*
X127810843Y-145277623D01*
X127810845Y-145277627D01*
X127810846Y-145277628D01*
X127946588Y-145499140D01*
X128115311Y-145696689D01*
X128312860Y-145865412D01*
X128534372Y-146001154D01*
X128534374Y-146001154D01*
X128534376Y-146001156D01*
X128595693Y-146026554D01*
X128774390Y-146100573D01*
X129027006Y-146161221D01*
X129286000Y-146181604D01*
X129544994Y-146161221D01*
X129797610Y-146100573D01*
X130037628Y-146001154D01*
X130259140Y-145865412D01*
X130456689Y-145696689D01*
X130625412Y-145499140D01*
X130754798Y-145288000D01*
X137670353Y-145288000D01*
X137690834Y-145430456D01*
X137722202Y-145499140D01*
X137750623Y-145561373D01*
X137844872Y-145670143D01*
X137965947Y-145747953D01*
X137965950Y-145747954D01*
X137965949Y-145747954D01*
X138104036Y-145788499D01*
X138104038Y-145788500D01*
X138104039Y-145788500D01*
X138247962Y-145788500D01*
X138247962Y-145788499D01*
X138386053Y-145747953D01*
X138507128Y-145670143D01*
X138601377Y-145561373D01*
X138661165Y-145430457D01*
X138681647Y-145288000D01*
X138661165Y-145145543D01*
X138601377Y-145014627D01*
X138507128Y-144905857D01*
X138386053Y-144828047D01*
X138386051Y-144828046D01*
X138386049Y-144828045D01*
X138386050Y-144828045D01*
X138247963Y-144787500D01*
X138247961Y-144787500D01*
X138104039Y-144787500D01*
X138104036Y-144787500D01*
X137965949Y-144828045D01*
X137844873Y-144905856D01*
X137750623Y-145014626D01*
X137750622Y-145014628D01*
X137690834Y-145145543D01*
X137670353Y-145288000D01*
X130754798Y-145288000D01*
X130761154Y-145277628D01*
X130860573Y-145037610D01*
X130921221Y-144784994D01*
X130941604Y-144526000D01*
X130921221Y-144267006D01*
X130860573Y-144014390D01*
X130761154Y-143774372D01*
X130625412Y-143552860D01*
X130456689Y-143355311D01*
X130259140Y-143186588D01*
X130037628Y-143050846D01*
X130037627Y-143050845D01*
X130037623Y-143050843D01*
X129871627Y-142982086D01*
X129797610Y-142951427D01*
X129797611Y-142951427D01*
X129791667Y-142950000D01*
X132054353Y-142950000D01*
X132074834Y-143092456D01*
X132134622Y-143223371D01*
X132134623Y-143223373D01*
X132228872Y-143332143D01*
X132349947Y-143409953D01*
X132349950Y-143409954D01*
X132349949Y-143409954D01*
X132488036Y-143450499D01*
X132488038Y-143450500D01*
X132488039Y-143450500D01*
X132631962Y-143450500D01*
X132631962Y-143450499D01*
X132770053Y-143409953D01*
X132891128Y-143332143D01*
X132985377Y-143223373D01*
X133045165Y-143092457D01*
X133065647Y-142950000D01*
X133045165Y-142807543D01*
X132985377Y-142676627D01*
X132891128Y-142567857D01*
X132770053Y-142490047D01*
X132770051Y-142490046D01*
X132770049Y-142490045D01*
X132770050Y-142490045D01*
X132631963Y-142449500D01*
X132631961Y-142449500D01*
X132488039Y-142449500D01*
X132488036Y-142449500D01*
X132349949Y-142490045D01*
X132228873Y-142567856D01*
X132134623Y-142676626D01*
X132134622Y-142676628D01*
X132074834Y-142807543D01*
X132054353Y-142950000D01*
X129791667Y-142950000D01*
X129659921Y-142918370D01*
X129544994Y-142890779D01*
X129544992Y-142890778D01*
X129544991Y-142890778D01*
X129286000Y-142870396D01*
X129027009Y-142890778D01*
X128774389Y-142951427D01*
X128534376Y-143050843D01*
X128312859Y-143186588D01*
X128115311Y-143355311D01*
X127946588Y-143552859D01*
X127810843Y-143774376D01*
X127711427Y-144014389D01*
X127650778Y-144267009D01*
X127630396Y-144526000D01*
X126238000Y-144526000D01*
X126238000Y-143479089D01*
X126238020Y-143476878D01*
X126238490Y-143450499D01*
X126240409Y-143342889D01*
X126241650Y-143327472D01*
X126279948Y-143061099D01*
X126283709Y-143043814D01*
X126359210Y-142786681D01*
X126365391Y-142770112D01*
X126476720Y-142526334D01*
X126485185Y-142510832D01*
X126630084Y-142285364D01*
X126640670Y-142271222D01*
X126816177Y-142068676D01*
X126828676Y-142056177D01*
X127031222Y-141880670D01*
X127045364Y-141870084D01*
X127270832Y-141725185D01*
X127286334Y-141716720D01*
X127530112Y-141605390D01*
X127546681Y-141599210D01*
X127803818Y-141523707D01*
X127821099Y-141519948D01*
X128087472Y-141481650D01*
X128102889Y-141480409D01*
X128236879Y-141478020D01*
X128239090Y-141478000D01*
X141762910Y-141478000D01*
X141765121Y-141478020D01*
G37*
%TD.AperFunction*%
%TD*%
M02*
