%TF.GenerationSoftware,KiCad,Pcbnew,8.0.4*%
%TF.CreationDate,2025-02-04T23:44:10-05:00*%
%TF.ProjectId,Magnetometer,4d61676e-6574-46f6-9d65-7465722e6b69,rev?*%
%TF.SameCoordinates,Original*%
%TF.FileFunction,Soldermask,Top*%
%TF.FilePolarity,Negative*%
%FSLAX46Y46*%
G04 Gerber Fmt 4.6, Leading zero omitted, Abs format (unit mm)*
G04 Created by KiCad (PCBNEW 8.0.4) date 2025-02-04 23:44:10*
%MOMM*%
%LPD*%
G01*
G04 APERTURE LIST*
G04 Aperture macros list*
%AMRoundRect*
0 Rectangle with rounded corners*
0 $1 Rounding radius*
0 $2 $3 $4 $5 $6 $7 $8 $9 X,Y pos of 4 corners*
0 Add a 4 corners polygon primitive as box body*
4,1,4,$2,$3,$4,$5,$6,$7,$8,$9,$2,$3,0*
0 Add four circle primitives for the rounded corners*
1,1,$1+$1,$2,$3*
1,1,$1+$1,$4,$5*
1,1,$1+$1,$6,$7*
1,1,$1+$1,$8,$9*
0 Add four rect primitives between the rounded corners*
20,1,$1+$1,$2,$3,$4,$5,0*
20,1,$1+$1,$4,$5,$6,$7,0*
20,1,$1+$1,$6,$7,$8,$9,0*
20,1,$1+$1,$8,$9,$2,$3,0*%
G04 Aperture macros list end*
%ADD10C,0.100000*%
%ADD11RoundRect,0.381000X0.381000X-0.762000X0.381000X0.762000X-0.381000X0.762000X-0.381000X-0.762000X0*%
%ADD12C,2.900000*%
%ADD13C,5.000000*%
%ADD14RoundRect,0.135000X-0.185000X0.135000X-0.185000X-0.135000X0.185000X-0.135000X0.185000X0.135000X0*%
%ADD15RoundRect,0.140000X0.140000X0.170000X-0.140000X0.170000X-0.140000X-0.170000X0.140000X-0.170000X0*%
%ADD16R,0.558800X1.270000*%
%ADD17RoundRect,0.381000X-0.381000X0.762000X-0.381000X-0.762000X0.381000X-0.762000X0.381000X0.762000X0*%
%ADD18RoundRect,0.140000X0.170000X-0.140000X0.170000X0.140000X-0.170000X0.140000X-0.170000X-0.140000X0*%
%ADD19RoundRect,0.135000X0.185000X-0.135000X0.185000X0.135000X-0.185000X0.135000X-0.185000X-0.135000X0*%
%ADD20R,0.977900X0.457200*%
%ADD21RoundRect,0.140000X-0.170000X0.140000X-0.170000X-0.140000X0.170000X-0.140000X0.170000X0.140000X0*%
%ADD22RoundRect,0.135000X0.135000X0.185000X-0.135000X0.185000X-0.135000X-0.185000X0.135000X-0.185000X0*%
%ADD23RoundRect,0.080375X-0.110125X0.080375X-0.110125X-0.080375X0.110125X-0.080375X0.110125X0.080375X0*%
%ADD24R,2.184400X2.184400*%
%ADD25R,0.376682X0.351536*%
%ADD26R,0.351536X0.376682*%
G04 APERTURE END LIST*
D10*
X142472000Y-150196000D02*
X142980000Y-150196000D01*
X142980000Y-150450000D01*
X142472000Y-150450000D01*
X142472000Y-150196000D01*
G36*
X142472000Y-150196000D02*
G01*
X142980000Y-150196000D01*
X142980000Y-150450000D01*
X142472000Y-150450000D01*
X142472000Y-150196000D01*
G37*
D11*
%TO.C,J3*%
X128222300Y-152759000D03*
X128222300Y-150009000D03*
%TD*%
D12*
%TO.C,REF\u002A\u002A*%
X129286000Y-144526000D03*
D13*
X129286000Y-144526000D03*
%TD*%
D14*
%TO.C,R1*%
X141478000Y-149604000D03*
X141478000Y-150624000D03*
%TD*%
D15*
%TO.C,C3*%
X139738801Y-155270200D03*
X138778801Y-155270200D03*
%TD*%
D16*
%TO.C,U4*%
X133477000Y-146558000D03*
X135382000Y-146558000D03*
X134429500Y-144475200D03*
%TD*%
D12*
%TO.C,REF\u002A\u002A*%
X140716000Y-159004000D03*
D13*
X140716000Y-159004000D03*
%TD*%
D16*
%TO.C,U2*%
X133413500Y-150672800D03*
X135318500Y-150672800D03*
X134366000Y-148590000D03*
%TD*%
D17*
%TO.C,J1*%
X128270000Y-156616400D03*
X128270000Y-159366400D03*
%TD*%
D18*
%TO.C,C6*%
X137160000Y-152908000D03*
X137160000Y-151948000D03*
%TD*%
D19*
%TO.C,R2*%
X137160000Y-147068000D03*
X137160000Y-146048000D03*
%TD*%
D20*
%TO.C,U5*%
X132924550Y-153075599D03*
X132924550Y-154975601D03*
X135655050Y-154975601D03*
X135655050Y-154025600D03*
X135655050Y-153075599D03*
%TD*%
D21*
%TO.C,C4*%
X131064000Y-153444000D03*
X131064000Y-154404000D03*
%TD*%
D19*
%TO.C,R4*%
X137160000Y-150626000D03*
X137160000Y-149606000D03*
%TD*%
D22*
%TO.C,R5*%
X132790000Y-148170000D03*
X131770000Y-148170000D03*
%TD*%
D21*
%TO.C,C5*%
X137160000Y-154206000D03*
X137160000Y-155166000D03*
%TD*%
D15*
%TO.C,C2*%
X139700000Y-154178000D03*
X138740000Y-154178000D03*
%TD*%
D23*
%TO.C,JP1*%
X142748000Y-150114000D03*
X142748000Y-150553250D03*
%TD*%
D22*
%TO.C,R3*%
X134380000Y-142930000D03*
X133360000Y-142930000D03*
%TD*%
D15*
%TO.C,C1*%
X139700000Y-153115200D03*
X138740000Y-153115200D03*
%TD*%
D24*
%TO.C,CR2*%
X132384800Y-158750000D03*
X136093200Y-158750000D03*
%TD*%
D25*
%TO.C,U1*%
X138695999Y-150125999D03*
X138695999Y-150626000D03*
X138695999Y-151126000D03*
X138695999Y-151626001D03*
D26*
X139196000Y-151626001D03*
X139696000Y-151626001D03*
D25*
X140196001Y-151626001D03*
X140196001Y-151126000D03*
X140196001Y-150626000D03*
X140196001Y-150125999D03*
D26*
X139696000Y-150125999D03*
X139196000Y-150125999D03*
%TD*%
M02*
