M48
; DRILL file {KiCad 8.0.4} date 2025-02-04T23:44:12-0500
; FORMAT={-:-/ absolute / metric / decimal}
; #@! TF.CreationDate,2025-02-04T23:44:12-05:00
; #@! TF.GenerationSoftware,Kicad,Pcbnew,8.0.4
; #@! TF.FileFunction,Plated,1,4,PTH
FMAT,2
METRIC
; #@! TA.AperFunction,Plated,PTH,ViaDrill
T1C0.300
; #@! TA.AperFunction,Plated,PTH,ComponentDrill
T2C2.500
%
G90
G05
T1
X128.23Y-159.83
X128.25Y-157.12
X128.26Y-158.75
X128.27Y-156.1
X130.048Y-153.67
X130.81Y-155.448
X130.88Y-148.71
X131.82Y-158.11
X131.94Y-159.32
X132.56Y-142.95
X132.88Y-159.35
X132.89Y-158.13
X132.925Y-153.076
X132.925Y-154.976
X133.42Y-150.68
X133.48Y-146.5
X135.51Y-158.19
X135.56Y-159.27
X135.71Y-154.98
X136.64Y-159.29
X136.65Y-158.18
X137.414Y-155.956
X137.668Y-148.59
X137.922Y-151.384
X137.922Y-153.67
X138.176Y-145.288
X140.208Y-149.098
X140.208Y-152.4
X140.716Y-155.194
X141.224Y-148.59
X142.24Y-148.844
T2
X129.286Y-144.526
X140.716Y-159.004
M30
