%TF.GenerationSoftware,KiCad,Pcbnew,7.0.6*%
%TF.CreationDate,2024-04-06T17:32:54-04:00*%
%TF.ProjectId,5.2_5V,352e325f-3556-42e6-9b69-6361645f7063,rev?*%
%TF.SameCoordinates,Original*%
%TF.FileFunction,Copper,L2,Inr*%
%TF.FilePolarity,Positive*%
%FSLAX46Y46*%
G04 Gerber Fmt 4.6, Leading zero omitted, Abs format (unit mm)*
G04 Created by KiCad (PCBNEW 7.0.6) date 2024-04-06 17:32:54*
%MOMM*%
%LPD*%
G01*
G04 APERTURE LIST*
%TA.AperFunction,ComponentPad*%
%ADD10C,4.400000*%
%TD*%
%TA.AperFunction,ComponentPad*%
%ADD11R,1.530000X1.530000*%
%TD*%
%TA.AperFunction,ComponentPad*%
%ADD12C,1.530000*%
%TD*%
%TA.AperFunction,ViaPad*%
%ADD13C,0.800000*%
%TD*%
%TA.AperFunction,ViaPad*%
%ADD14C,1.500000*%
%TD*%
G04 APERTURE END LIST*
D10*
%TO.N,N/C*%
%TO.C,H3*%
X159562800Y-34239200D03*
%TD*%
%TO.N,N/C*%
%TO.C,H2*%
X136194800Y-54102000D03*
%TD*%
D11*
%TO.N,GND*%
%TO.C,U3*%
X183432500Y-52380000D03*
D12*
X183432500Y-49840000D03*
%TO.N,DRDY*%
X183432500Y-47300000D03*
%TO.N,CS*%
X183432500Y-44760000D03*
%TO.N,Net-(U3-PA8_A4_D4_SDA)*%
X183432500Y-42220000D03*
X183432500Y-39680000D03*
X183432500Y-37140000D03*
X168192500Y-37140000D03*
%TO.N,SCLK*%
X168192500Y-39680000D03*
%TO.N,DOUT*%
X168192500Y-42220000D03*
%TO.N,DIN*%
X168192500Y-44760000D03*
%TO.N,3V3*%
X168192500Y-47300000D03*
%TO.N,GND*%
X168192500Y-49840000D03*
%TO.N,Net-(D1-K)*%
X168192500Y-52380000D03*
%TD*%
D10*
%TO.N,N/C*%
%TO.C,H1*%
X135432800Y-34442400D03*
%TD*%
D13*
%TO.N,5V*%
X174950000Y-53425000D03*
X145669000Y-50419000D03*
X156591000Y-50800000D03*
X131572000Y-46355000D03*
X156591000Y-51816000D03*
X156591000Y-52959000D03*
X133975000Y-49900000D03*
%TO.N,GND*%
X128016000Y-44323000D03*
X158877000Y-45974000D03*
X153150000Y-38925000D03*
X140462000Y-46228000D03*
X141732000Y-55753000D03*
X148082000Y-48895000D03*
X155075000Y-33100000D03*
X129875000Y-52700000D03*
X159131000Y-54864000D03*
X133975000Y-38350000D03*
X145669000Y-39243000D03*
X132470000Y-49493844D03*
X144272000Y-36449000D03*
X167375000Y-56150000D03*
X151892000Y-32639000D03*
X154425000Y-36825000D03*
X164829819Y-43958181D03*
D14*
%TO.N,Net-(PS2-+VIN_(VCC))*%
X154675700Y-43850700D03*
X152146000Y-36830000D03*
D13*
%TO.N,Net-(U3-PA8_A4_D4_SDA)*%
X170675000Y-39450000D03*
X173900000Y-38300000D03*
%TD*%
%TA.AperFunction,Conductor*%
%TO.N,GND*%
G36*
X134453973Y-31897185D02*
G01*
X134499728Y-31949989D01*
X134509672Y-32019147D01*
X134480647Y-32082703D01*
X134432581Y-32116792D01*
X134353243Y-32148203D01*
X134353242Y-32148204D01*
X134074210Y-32301604D01*
X134074198Y-32301611D01*
X133816618Y-32488754D01*
X133816608Y-32488762D01*
X133584499Y-32706727D01*
X133381531Y-32952073D01*
X133210923Y-33220909D01*
X133210920Y-33220915D01*
X133075351Y-33509012D01*
X133075349Y-33509017D01*
X132976955Y-33811841D01*
X132917289Y-34124620D01*
X132917288Y-34124627D01*
X132897297Y-34442394D01*
X132897297Y-34442405D01*
X132917288Y-34760172D01*
X132917289Y-34760179D01*
X132976955Y-35072958D01*
X133075349Y-35375782D01*
X133075351Y-35375787D01*
X133210920Y-35663884D01*
X133210923Y-35663890D01*
X133381531Y-35932726D01*
X133381534Y-35932730D01*
X133381535Y-35932731D01*
X133584498Y-36178071D01*
X133799517Y-36379988D01*
X133816608Y-36396037D01*
X133816618Y-36396045D01*
X134074198Y-36583188D01*
X134074203Y-36583190D01*
X134074210Y-36583196D01*
X134353235Y-36736592D01*
X134353240Y-36736594D01*
X134353242Y-36736595D01*
X134353243Y-36736596D01*
X134649282Y-36853806D01*
X134649285Y-36853807D01*
X134752088Y-36880202D01*
X134957694Y-36932992D01*
X135112380Y-36952533D01*
X135273584Y-36972899D01*
X135273590Y-36972899D01*
X135273594Y-36972900D01*
X135273596Y-36972900D01*
X135592004Y-36972900D01*
X135592006Y-36972900D01*
X135592011Y-36972899D01*
X135592015Y-36972899D01*
X135675876Y-36962304D01*
X135907906Y-36932992D01*
X136216314Y-36853807D01*
X136276444Y-36830000D01*
X151060871Y-36830000D01*
X151079346Y-37029391D01*
X151079347Y-37029393D01*
X151134145Y-37221989D01*
X151134151Y-37222004D01*
X151223401Y-37401241D01*
X151223406Y-37401249D01*
X151344081Y-37561049D01*
X151471386Y-37677102D01*
X151492064Y-37695952D01*
X151662316Y-37801368D01*
X151849040Y-37873705D01*
X152045877Y-37910500D01*
X152045879Y-37910500D01*
X152246121Y-37910500D01*
X152246123Y-37910500D01*
X152442960Y-37873705D01*
X152629684Y-37801368D01*
X152799936Y-37695952D01*
X152947920Y-37561047D01*
X153068595Y-37401247D01*
X153157853Y-37221994D01*
X153212653Y-37029392D01*
X153231129Y-36830000D01*
X153225541Y-36769700D01*
X153212653Y-36630608D01*
X153212652Y-36630606D01*
X153199162Y-36583195D01*
X153157853Y-36438006D01*
X153157848Y-36437995D01*
X153068598Y-36258758D01*
X153068593Y-36258750D01*
X152947918Y-36098950D01*
X152799937Y-35964049D01*
X152799936Y-35964048D01*
X152735101Y-35923903D01*
X152629685Y-35858632D01*
X152629683Y-35858631D01*
X152493152Y-35805739D01*
X152442960Y-35786295D01*
X152246123Y-35749500D01*
X152045877Y-35749500D01*
X151849040Y-35786295D01*
X151849037Y-35786295D01*
X151849037Y-35786296D01*
X151662316Y-35858631D01*
X151662314Y-35858632D01*
X151492062Y-35964049D01*
X151344081Y-36098950D01*
X151223406Y-36258750D01*
X151223401Y-36258758D01*
X151134151Y-36437995D01*
X151134145Y-36438010D01*
X151079347Y-36630606D01*
X151079346Y-36630608D01*
X151060871Y-36829999D01*
X151060871Y-36830000D01*
X136276444Y-36830000D01*
X136512356Y-36736596D01*
X136512357Y-36736595D01*
X136512355Y-36736595D01*
X136512365Y-36736592D01*
X136791390Y-36583196D01*
X137048990Y-36396039D01*
X137281102Y-36178071D01*
X137484065Y-35932731D01*
X137654678Y-35663888D01*
X137790251Y-35375781D01*
X137888646Y-35072954D01*
X137948310Y-34760183D01*
X137961094Y-34556983D01*
X137968303Y-34442405D01*
X137968303Y-34442394D01*
X137948311Y-34124627D01*
X137948310Y-34124620D01*
X137948310Y-34124617D01*
X137888646Y-33811846D01*
X137790251Y-33509019D01*
X137654678Y-33220912D01*
X137625263Y-33174561D01*
X137484068Y-32952073D01*
X137421962Y-32877000D01*
X137281102Y-32706729D01*
X137258281Y-32685299D01*
X137048991Y-32488762D01*
X137048981Y-32488754D01*
X136791401Y-32301611D01*
X136791394Y-32301606D01*
X136791390Y-32301604D01*
X136512365Y-32148208D01*
X136512362Y-32148206D01*
X136512357Y-32148204D01*
X136512356Y-32148203D01*
X136433019Y-32116792D01*
X136377933Y-32073811D01*
X136354830Y-32007872D01*
X136371043Y-31939910D01*
X136421426Y-31891502D01*
X136478666Y-31877500D01*
X155564979Y-31877500D01*
X155632018Y-31897185D01*
X155677773Y-31949989D01*
X155688953Y-32004047D01*
X155657529Y-33533547D01*
X155636471Y-33600168D01*
X155582739Y-33644829D01*
X155533555Y-33655000D01*
X155321000Y-33655000D01*
X155321000Y-37214000D01*
X155301315Y-37281039D01*
X155248511Y-37326794D01*
X155197000Y-37338000D01*
X154263679Y-37338000D01*
X154222131Y-37325800D01*
X154200000Y-37325800D01*
X154000000Y-37325800D01*
X154000000Y-42535800D01*
X154174999Y-42535800D01*
X154175000Y-42535800D01*
X154176515Y-42220000D01*
X167092307Y-42220000D01*
X167111039Y-42422159D01*
X167111040Y-42422161D01*
X167166599Y-42617431D01*
X167166605Y-42617446D01*
X167257097Y-42799177D01*
X167379449Y-42961197D01*
X167529485Y-43097972D01*
X167529487Y-43097974D01*
X167702098Y-43204850D01*
X167702104Y-43204853D01*
X167723420Y-43213110D01*
X167891418Y-43278194D01*
X168090987Y-43315500D01*
X168090989Y-43315500D01*
X168294011Y-43315500D01*
X168294013Y-43315500D01*
X168493582Y-43278194D01*
X168682898Y-43204852D01*
X168855514Y-43097973D01*
X169005552Y-42961195D01*
X169127903Y-42799177D01*
X169218399Y-42617436D01*
X169273960Y-42422160D01*
X169292693Y-42220000D01*
X182332307Y-42220000D01*
X182351039Y-42422159D01*
X182351040Y-42422161D01*
X182406599Y-42617431D01*
X182406605Y-42617446D01*
X182497097Y-42799177D01*
X182619449Y-42961197D01*
X182769485Y-43097972D01*
X182769487Y-43097974D01*
X182942098Y-43204850D01*
X182942104Y-43204853D01*
X182963420Y-43213110D01*
X183131418Y-43278194D01*
X183330987Y-43315500D01*
X183330989Y-43315500D01*
X183534011Y-43315500D01*
X183534013Y-43315500D01*
X183733582Y-43278194D01*
X183922898Y-43204852D01*
X184095514Y-43097973D01*
X184245552Y-42961195D01*
X184367903Y-42799177D01*
X184458399Y-42617436D01*
X184513960Y-42422160D01*
X184532693Y-42220000D01*
X184513960Y-42017840D01*
X184458399Y-41822564D01*
X184367903Y-41640823D01*
X184245552Y-41478805D01*
X184245550Y-41478802D01*
X184095514Y-41342027D01*
X184095512Y-41342025D01*
X183922901Y-41235149D01*
X183922895Y-41235146D01*
X183843591Y-41204424D01*
X183733582Y-41161806D01*
X183534013Y-41124500D01*
X183330987Y-41124500D01*
X183131418Y-41161806D01*
X183085938Y-41179424D01*
X182942104Y-41235146D01*
X182942098Y-41235149D01*
X182769487Y-41342025D01*
X182769485Y-41342027D01*
X182619449Y-41478802D01*
X182497097Y-41640822D01*
X182406605Y-41822553D01*
X182406599Y-41822568D01*
X182351040Y-42017838D01*
X182351039Y-42017840D01*
X182332307Y-42219999D01*
X182332307Y-42220000D01*
X169292693Y-42220000D01*
X169273960Y-42017840D01*
X169218399Y-41822564D01*
X169127903Y-41640823D01*
X169005552Y-41478805D01*
X169005550Y-41478802D01*
X168855514Y-41342027D01*
X168855512Y-41342025D01*
X168682901Y-41235149D01*
X168682895Y-41235146D01*
X168603591Y-41204424D01*
X168493582Y-41161806D01*
X168294013Y-41124500D01*
X168090987Y-41124500D01*
X167891418Y-41161806D01*
X167845938Y-41179424D01*
X167702104Y-41235146D01*
X167702098Y-41235149D01*
X167529487Y-41342025D01*
X167529485Y-41342027D01*
X167379449Y-41478802D01*
X167257097Y-41640822D01*
X167166605Y-41822553D01*
X167166599Y-41822568D01*
X167111040Y-42017838D01*
X167111039Y-42017840D01*
X167092307Y-42219999D01*
X167092307Y-42220000D01*
X154176515Y-42220000D01*
X154188703Y-39680000D01*
X167092307Y-39680000D01*
X167111039Y-39882159D01*
X167111040Y-39882161D01*
X167166599Y-40077431D01*
X167166605Y-40077446D01*
X167257097Y-40259177D01*
X167379449Y-40421197D01*
X167529485Y-40557972D01*
X167529487Y-40557974D01*
X167702098Y-40664850D01*
X167702104Y-40664853D01*
X167723420Y-40673110D01*
X167891418Y-40738194D01*
X168090987Y-40775500D01*
X168090989Y-40775500D01*
X168294011Y-40775500D01*
X168294013Y-40775500D01*
X168493582Y-40738194D01*
X168682898Y-40664852D01*
X168855514Y-40557973D01*
X169005552Y-40421195D01*
X169127903Y-40259177D01*
X169218399Y-40077436D01*
X169273960Y-39882160D01*
X169292693Y-39680000D01*
X169273960Y-39477840D01*
X169266040Y-39450003D01*
X169939878Y-39450003D01*
X169958307Y-39613574D01*
X170012676Y-39768953D01*
X170012677Y-39768955D01*
X170012678Y-39768957D01*
X170100258Y-39908341D01*
X170216659Y-40024742D01*
X170356043Y-40112322D01*
X170511420Y-40166691D01*
X170511423Y-40166691D01*
X170511425Y-40166692D01*
X170674996Y-40185122D01*
X170675000Y-40185122D01*
X170675004Y-40185122D01*
X170838574Y-40166692D01*
X170838575Y-40166691D01*
X170838580Y-40166691D01*
X170993957Y-40112322D01*
X171133341Y-40024742D01*
X171249742Y-39908341D01*
X171337322Y-39768957D01*
X171368450Y-39680000D01*
X182332307Y-39680000D01*
X182351039Y-39882159D01*
X182351040Y-39882161D01*
X182406599Y-40077431D01*
X182406605Y-40077446D01*
X182497097Y-40259177D01*
X182619449Y-40421197D01*
X182769485Y-40557972D01*
X182769487Y-40557974D01*
X182942098Y-40664850D01*
X182942104Y-40664853D01*
X182963420Y-40673110D01*
X183131418Y-40738194D01*
X183330987Y-40775500D01*
X183330989Y-40775500D01*
X183534011Y-40775500D01*
X183534013Y-40775500D01*
X183733582Y-40738194D01*
X183922898Y-40664852D01*
X184095514Y-40557973D01*
X184245552Y-40421195D01*
X184367903Y-40259177D01*
X184458399Y-40077436D01*
X184513960Y-39882160D01*
X184532693Y-39680000D01*
X184513960Y-39477840D01*
X184458399Y-39282564D01*
X184367903Y-39100823D01*
X184263312Y-38962323D01*
X184245550Y-38938802D01*
X184095514Y-38802027D01*
X184095512Y-38802025D01*
X183922901Y-38695149D01*
X183922895Y-38695146D01*
X183843592Y-38664424D01*
X183733582Y-38621806D01*
X183534013Y-38584500D01*
X183330987Y-38584500D01*
X183131418Y-38621806D01*
X183085938Y-38639424D01*
X182942104Y-38695146D01*
X182942098Y-38695149D01*
X182769487Y-38802025D01*
X182769485Y-38802027D01*
X182619449Y-38938802D01*
X182497097Y-39100822D01*
X182406605Y-39282553D01*
X182406599Y-39282568D01*
X182351040Y-39477838D01*
X182351039Y-39477840D01*
X182332307Y-39679999D01*
X182332307Y-39680000D01*
X171368450Y-39680000D01*
X171391691Y-39613580D01*
X171391692Y-39613574D01*
X171410122Y-39450003D01*
X171410122Y-39449996D01*
X171391692Y-39286425D01*
X171391691Y-39286423D01*
X171391691Y-39286420D01*
X171337322Y-39131043D01*
X171249742Y-38991659D01*
X171133341Y-38875258D01*
X170993957Y-38787678D01*
X170993956Y-38787677D01*
X170993955Y-38787677D01*
X170993953Y-38787676D01*
X170838574Y-38733307D01*
X170675004Y-38714878D01*
X170674996Y-38714878D01*
X170511425Y-38733307D01*
X170356046Y-38787676D01*
X170356044Y-38787677D01*
X170216658Y-38875258D01*
X170100258Y-38991658D01*
X170012677Y-39131044D01*
X170012676Y-39131046D01*
X169958307Y-39286425D01*
X169939878Y-39449996D01*
X169939878Y-39450003D01*
X169266040Y-39450003D01*
X169218399Y-39282564D01*
X169127903Y-39100823D01*
X169023312Y-38962323D01*
X169005550Y-38938802D01*
X168855514Y-38802027D01*
X168855512Y-38802025D01*
X168682901Y-38695149D01*
X168682895Y-38695146D01*
X168603591Y-38664424D01*
X168493582Y-38621806D01*
X168294013Y-38584500D01*
X168090987Y-38584500D01*
X167891418Y-38621806D01*
X167845938Y-38639424D01*
X167702104Y-38695146D01*
X167702098Y-38695149D01*
X167529487Y-38802025D01*
X167529485Y-38802027D01*
X167379449Y-38938802D01*
X167257097Y-39100822D01*
X167166605Y-39282553D01*
X167166599Y-39282568D01*
X167111040Y-39477838D01*
X167111039Y-39477840D01*
X167092307Y-39679999D01*
X167092307Y-39680000D01*
X154188703Y-39680000D01*
X154195325Y-38300003D01*
X173164878Y-38300003D01*
X173183307Y-38463574D01*
X173237676Y-38618953D01*
X173237677Y-38618955D01*
X173237678Y-38618957D01*
X173325258Y-38758341D01*
X173441659Y-38874742D01*
X173581043Y-38962322D01*
X173736420Y-39016691D01*
X173736423Y-39016691D01*
X173736425Y-39016692D01*
X173899996Y-39035122D01*
X173900000Y-39035122D01*
X173900004Y-39035122D01*
X174063574Y-39016692D01*
X174063575Y-39016691D01*
X174063580Y-39016691D01*
X174218957Y-38962322D01*
X174358341Y-38874742D01*
X174474742Y-38758341D01*
X174562322Y-38618957D01*
X174616691Y-38463580D01*
X174635122Y-38300000D01*
X174623651Y-38198194D01*
X174616692Y-38136425D01*
X174616691Y-38136423D01*
X174616691Y-38136420D01*
X174562322Y-37981043D01*
X174474742Y-37841659D01*
X174358341Y-37725258D01*
X174218957Y-37637678D01*
X174218956Y-37637677D01*
X174218955Y-37637677D01*
X174218953Y-37637676D01*
X174063574Y-37583307D01*
X173900004Y-37564878D01*
X173899996Y-37564878D01*
X173736425Y-37583307D01*
X173581046Y-37637676D01*
X173581044Y-37637677D01*
X173441658Y-37725258D01*
X173325258Y-37841658D01*
X173237677Y-37981044D01*
X173237676Y-37981046D01*
X173183307Y-38136425D01*
X173164878Y-38299996D01*
X173164878Y-38300003D01*
X154195325Y-38300003D01*
X154198130Y-37715405D01*
X154218137Y-37648461D01*
X154271160Y-37602960D01*
X154322130Y-37592000D01*
X155448000Y-37592000D01*
X155448000Y-37140000D01*
X167092307Y-37140000D01*
X167111039Y-37342159D01*
X167111040Y-37342161D01*
X167166599Y-37537431D01*
X167166605Y-37537446D01*
X167257097Y-37719177D01*
X167379449Y-37881197D01*
X167529485Y-38017972D01*
X167529487Y-38017974D01*
X167702098Y-38124850D01*
X167702104Y-38124853D01*
X167723420Y-38133110D01*
X167891418Y-38198194D01*
X168090987Y-38235500D01*
X168090989Y-38235500D01*
X168294011Y-38235500D01*
X168294013Y-38235500D01*
X168493582Y-38198194D01*
X168682898Y-38124852D01*
X168855514Y-38017973D01*
X169005552Y-37881195D01*
X169127903Y-37719177D01*
X169218399Y-37537436D01*
X169273960Y-37342160D01*
X169292693Y-37140000D01*
X182332307Y-37140000D01*
X182351039Y-37342159D01*
X182351040Y-37342161D01*
X182406599Y-37537431D01*
X182406605Y-37537446D01*
X182497097Y-37719177D01*
X182619449Y-37881197D01*
X182769485Y-38017972D01*
X182769487Y-38017974D01*
X182942098Y-38124850D01*
X182942104Y-38124853D01*
X182963420Y-38133110D01*
X183131418Y-38198194D01*
X183330987Y-38235500D01*
X183330989Y-38235500D01*
X183534011Y-38235500D01*
X183534013Y-38235500D01*
X183733582Y-38198194D01*
X183922898Y-38124852D01*
X184095514Y-38017973D01*
X184245552Y-37881195D01*
X184367903Y-37719177D01*
X184458399Y-37537436D01*
X184513960Y-37342160D01*
X184532693Y-37140000D01*
X184513960Y-36937840D01*
X184458399Y-36742564D01*
X184455427Y-36736596D01*
X184379039Y-36583188D01*
X184367903Y-36560823D01*
X184309204Y-36483094D01*
X184245550Y-36398802D01*
X184095514Y-36262027D01*
X184095512Y-36262025D01*
X183922901Y-36155149D01*
X183922895Y-36155146D01*
X183843592Y-36124424D01*
X183733582Y-36081806D01*
X183534013Y-36044500D01*
X183330987Y-36044500D01*
X183131418Y-36081806D01*
X183087165Y-36098950D01*
X182942104Y-36155146D01*
X182942098Y-36155149D01*
X182769487Y-36262025D01*
X182769485Y-36262027D01*
X182619449Y-36398802D01*
X182497097Y-36560822D01*
X182406605Y-36742553D01*
X182406599Y-36742568D01*
X182351040Y-36937838D01*
X182351039Y-36937840D01*
X182332307Y-37139999D01*
X182332307Y-37140000D01*
X169292693Y-37140000D01*
X169273960Y-36937840D01*
X169218399Y-36742564D01*
X169215427Y-36736596D01*
X169139039Y-36583188D01*
X169127903Y-36560823D01*
X169069204Y-36483094D01*
X169005550Y-36398802D01*
X168855514Y-36262027D01*
X168855512Y-36262025D01*
X168682901Y-36155149D01*
X168682895Y-36155146D01*
X168603591Y-36124424D01*
X168493582Y-36081806D01*
X168294013Y-36044500D01*
X168090987Y-36044500D01*
X167891418Y-36081806D01*
X167847165Y-36098950D01*
X167702104Y-36155146D01*
X167702098Y-36155149D01*
X167529487Y-36262025D01*
X167529485Y-36262027D01*
X167379449Y-36398802D01*
X167257097Y-36560822D01*
X167166605Y-36742553D01*
X167166599Y-36742568D01*
X167111040Y-36937838D01*
X167111039Y-36937840D01*
X167092307Y-37139999D01*
X167092307Y-37140000D01*
X155448000Y-37140000D01*
X155448000Y-34033000D01*
X155467685Y-33965961D01*
X155520489Y-33920206D01*
X155572000Y-33909000D01*
X155724712Y-33909000D01*
X155736004Y-33902834D01*
X155762362Y-33900000D01*
X155956000Y-33900000D01*
X155956000Y-32001500D01*
X155975685Y-31934461D01*
X156028489Y-31888706D01*
X156080000Y-31877500D01*
X158126625Y-31877500D01*
X158193664Y-31897185D01*
X158239419Y-31949989D01*
X158249363Y-32019147D01*
X158220338Y-32082703D01*
X158199510Y-32101818D01*
X157946618Y-32285554D01*
X157946608Y-32285562D01*
X157714499Y-32503527D01*
X157511531Y-32748873D01*
X157340923Y-33017709D01*
X157340920Y-33017715D01*
X157205351Y-33305812D01*
X157205349Y-33305817D01*
X157106955Y-33608641D01*
X157047289Y-33921420D01*
X157047288Y-33921427D01*
X157027297Y-34239194D01*
X157027297Y-34239205D01*
X157047288Y-34556972D01*
X157047289Y-34556979D01*
X157106955Y-34869758D01*
X157205349Y-35172582D01*
X157205351Y-35172587D01*
X157340920Y-35460684D01*
X157340923Y-35460690D01*
X157511531Y-35729526D01*
X157511534Y-35729530D01*
X157511535Y-35729531D01*
X157705544Y-35964048D01*
X157714499Y-35974872D01*
X157946608Y-36192837D01*
X157946618Y-36192845D01*
X158204198Y-36379988D01*
X158204203Y-36379990D01*
X158204210Y-36379996D01*
X158483235Y-36533392D01*
X158483240Y-36533394D01*
X158483242Y-36533395D01*
X158483243Y-36533396D01*
X158779282Y-36650606D01*
X158779285Y-36650607D01*
X158882088Y-36677002D01*
X159087694Y-36729792D01*
X159242380Y-36749333D01*
X159403584Y-36769699D01*
X159403590Y-36769699D01*
X159403594Y-36769700D01*
X159403596Y-36769700D01*
X159722004Y-36769700D01*
X159722006Y-36769700D01*
X159722011Y-36769699D01*
X159722015Y-36769699D01*
X159805876Y-36759104D01*
X160037906Y-36729792D01*
X160346314Y-36650607D01*
X160516575Y-36583196D01*
X160642356Y-36533396D01*
X160642357Y-36533395D01*
X160642355Y-36533395D01*
X160642365Y-36533392D01*
X160921390Y-36379996D01*
X161178990Y-36192839D01*
X161411102Y-35974871D01*
X161614065Y-35729531D01*
X161784678Y-35460688D01*
X161920251Y-35172581D01*
X162018646Y-34869754D01*
X162078310Y-34556983D01*
X162085519Y-34442400D01*
X162098303Y-34239205D01*
X162098303Y-34239194D01*
X162078311Y-33921427D01*
X162078310Y-33921420D01*
X162078310Y-33921417D01*
X162018646Y-33608646D01*
X161920251Y-33305819D01*
X161784678Y-33017712D01*
X161697099Y-32879710D01*
X161614068Y-32748873D01*
X161614065Y-32748869D01*
X161411102Y-32503529D01*
X161178990Y-32285561D01*
X161178987Y-32285559D01*
X161178981Y-32285554D01*
X160926090Y-32101818D01*
X160883424Y-32046488D01*
X160877445Y-31976875D01*
X160910051Y-31915080D01*
X160970889Y-31880723D01*
X160998975Y-31877500D01*
X184607793Y-31877500D01*
X184613195Y-31877735D01*
X184656019Y-31881482D01*
X184782271Y-31893918D01*
X184802185Y-31897541D01*
X184868849Y-31915403D01*
X184962070Y-31943682D01*
X184978471Y-31949958D01*
X184979348Y-31950367D01*
X185045911Y-31981406D01*
X185048875Y-31982888D01*
X185083696Y-32001500D01*
X185132827Y-32027762D01*
X185139167Y-32031657D01*
X185205328Y-32077983D01*
X185209100Y-32080844D01*
X185281308Y-32140103D01*
X185285809Y-32144182D01*
X185343315Y-32201688D01*
X185347395Y-32206190D01*
X185406654Y-32278398D01*
X185409515Y-32282170D01*
X185455841Y-32348331D01*
X185459736Y-32354671D01*
X185504601Y-32438605D01*
X185506114Y-32441631D01*
X185537540Y-32509027D01*
X185543819Y-32525435D01*
X185572101Y-32618669D01*
X185589954Y-32685299D01*
X185593582Y-32705238D01*
X185606023Y-32831554D01*
X185609764Y-32874302D01*
X185610000Y-32879710D01*
X185610000Y-32927916D01*
X185610089Y-32928738D01*
X185649495Y-55867355D01*
X185649259Y-55872869D01*
X185645489Y-55915952D01*
X185633109Y-56041756D01*
X185629480Y-56061706D01*
X185611460Y-56128961D01*
X185583374Y-56221542D01*
X185577098Y-56237946D01*
X185545482Y-56305752D01*
X185543969Y-56308778D01*
X185499340Y-56392277D01*
X185495445Y-56398617D01*
X185448905Y-56465089D01*
X185446044Y-56468861D01*
X185387057Y-56540744D01*
X185382968Y-56545257D01*
X185325226Y-56603002D01*
X185320716Y-56607089D01*
X185248845Y-56666079D01*
X185245075Y-56668940D01*
X185178606Y-56715491D01*
X185172264Y-56719387D01*
X185088765Y-56764025D01*
X185085742Y-56765537D01*
X185017937Y-56797162D01*
X185001529Y-56803442D01*
X184908956Y-56831534D01*
X184900731Y-56833738D01*
X184841692Y-56849563D01*
X184821757Y-56853193D01*
X184697205Y-56865474D01*
X184652608Y-56869381D01*
X184647201Y-56869618D01*
X164335015Y-56872022D01*
X164267973Y-56852345D01*
X164222212Y-56799547D01*
X164211000Y-56748022D01*
X164211000Y-56001466D01*
X164184171Y-55952333D01*
X164181340Y-55925061D01*
X164226457Y-49840000D01*
X166922668Y-49840000D01*
X166941959Y-50060499D01*
X166941961Y-50060509D01*
X166999245Y-50274300D01*
X166999249Y-50274309D01*
X167092795Y-50474919D01*
X167138603Y-50540341D01*
X167138605Y-50540342D01*
X167701366Y-49977580D01*
X167723818Y-50054040D01*
X167803105Y-50177413D01*
X167913938Y-50273451D01*
X168047339Y-50334373D01*
X168051133Y-50334918D01*
X167492156Y-50893894D01*
X167557583Y-50939706D01*
X167557585Y-50939707D01*
X167758190Y-51033250D01*
X167758199Y-51033254D01*
X167919850Y-51076567D01*
X167979510Y-51112931D01*
X168010040Y-51175778D01*
X168001746Y-51245154D01*
X167957261Y-51299032D01*
X167910545Y-51318230D01*
X167891426Y-51321804D01*
X167891420Y-51321805D01*
X167891418Y-51321806D01*
X167845938Y-51339424D01*
X167702104Y-51395146D01*
X167702098Y-51395149D01*
X167529487Y-51502025D01*
X167529485Y-51502027D01*
X167379449Y-51638802D01*
X167257097Y-51800822D01*
X167166605Y-51982553D01*
X167166599Y-51982568D01*
X167111040Y-52177838D01*
X167111039Y-52177840D01*
X167092307Y-52379999D01*
X167092307Y-52380000D01*
X167111039Y-52582159D01*
X167111040Y-52582161D01*
X167166599Y-52777431D01*
X167166605Y-52777446D01*
X167257097Y-52959177D01*
X167379449Y-53121197D01*
X167529485Y-53257972D01*
X167529487Y-53257974D01*
X167702098Y-53364850D01*
X167702104Y-53364853D01*
X167723419Y-53373110D01*
X167891418Y-53438194D01*
X168090987Y-53475500D01*
X168090989Y-53475500D01*
X168294011Y-53475500D01*
X168294013Y-53475500D01*
X168493582Y-53438194D01*
X168527632Y-53425003D01*
X174214878Y-53425003D01*
X174233307Y-53588574D01*
X174287676Y-53743953D01*
X174287677Y-53743955D01*
X174287678Y-53743957D01*
X174375258Y-53883341D01*
X174491659Y-53999742D01*
X174631043Y-54087322D01*
X174786420Y-54141691D01*
X174786423Y-54141691D01*
X174786425Y-54141692D01*
X174949996Y-54160122D01*
X174950000Y-54160122D01*
X174950004Y-54160122D01*
X175113574Y-54141692D01*
X175113575Y-54141691D01*
X175113580Y-54141691D01*
X175268957Y-54087322D01*
X175408341Y-53999742D01*
X175524742Y-53883341D01*
X175612322Y-53743957D01*
X175666691Y-53588580D01*
X175666692Y-53588574D01*
X175685122Y-53425003D01*
X175685122Y-53424996D01*
X175666692Y-53261425D01*
X175666691Y-53261423D01*
X175666691Y-53261420D01*
X175612322Y-53106043D01*
X175524742Y-52966659D01*
X175408341Y-52850258D01*
X175268957Y-52762678D01*
X175268956Y-52762677D01*
X175268955Y-52762677D01*
X175268953Y-52762676D01*
X175113574Y-52708307D01*
X174950004Y-52689878D01*
X174949996Y-52689878D01*
X174786425Y-52708307D01*
X174631046Y-52762676D01*
X174631044Y-52762677D01*
X174491658Y-52850258D01*
X174375258Y-52966658D01*
X174287677Y-53106044D01*
X174287676Y-53106046D01*
X174233307Y-53261425D01*
X174214878Y-53424996D01*
X174214878Y-53425003D01*
X168527632Y-53425003D01*
X168682898Y-53364852D01*
X168855514Y-53257973D01*
X169005552Y-53121195D01*
X169127903Y-52959177D01*
X169218399Y-52777436D01*
X169273960Y-52582160D01*
X169292693Y-52380000D01*
X169289372Y-52344166D01*
X169273960Y-52177840D01*
X169273959Y-52177838D01*
X169270579Y-52165960D01*
X169218399Y-51982564D01*
X169216913Y-51979580D01*
X169162349Y-51870000D01*
X169127903Y-51800823D01*
X169044660Y-51690592D01*
X169005550Y-51638802D01*
X168855514Y-51502027D01*
X168855512Y-51502025D01*
X168682901Y-51395149D01*
X168682895Y-51395146D01*
X168584540Y-51357043D01*
X168493582Y-51321806D01*
X168493576Y-51321804D01*
X168493573Y-51321804D01*
X168474454Y-51318230D01*
X168412174Y-51286561D01*
X168376902Y-51226248D01*
X168379837Y-51156440D01*
X168420048Y-51099301D01*
X168465150Y-51076567D01*
X168626798Y-51033255D01*
X168626809Y-51033250D01*
X168827415Y-50939706D01*
X168892842Y-50893894D01*
X168333866Y-50334918D01*
X168337661Y-50334373D01*
X168471062Y-50273451D01*
X168581895Y-50177413D01*
X168661182Y-50054040D01*
X168683633Y-49977579D01*
X169246394Y-50540342D01*
X169292206Y-50474915D01*
X169385750Y-50274309D01*
X169385754Y-50274300D01*
X169443038Y-50060509D01*
X169443040Y-50060499D01*
X169462332Y-49840000D01*
X182162668Y-49840000D01*
X182181959Y-50060499D01*
X182181961Y-50060509D01*
X182239245Y-50274300D01*
X182239249Y-50274309D01*
X182332795Y-50474919D01*
X182378603Y-50540341D01*
X182378604Y-50540342D01*
X182941366Y-49977579D01*
X182963818Y-50054040D01*
X183043105Y-50177413D01*
X183153938Y-50273451D01*
X183287339Y-50334373D01*
X183291133Y-50334918D01*
X182732156Y-50893894D01*
X182732502Y-50897844D01*
X182769398Y-50944002D01*
X182776592Y-51013500D01*
X182745069Y-51075855D01*
X182684840Y-51111269D01*
X182654650Y-51115000D01*
X182619655Y-51115000D01*
X182560127Y-51121401D01*
X182560120Y-51121403D01*
X182425413Y-51171645D01*
X182425406Y-51171649D01*
X182310312Y-51257809D01*
X182310309Y-51257812D01*
X182224149Y-51372906D01*
X182224145Y-51372913D01*
X182173903Y-51507620D01*
X182173901Y-51507627D01*
X182167500Y-51567155D01*
X182167500Y-52130000D01*
X182986928Y-52130000D01*
X182963818Y-52165960D01*
X182922500Y-52306673D01*
X182922500Y-52453327D01*
X182963818Y-52594040D01*
X182986928Y-52630000D01*
X182167500Y-52630000D01*
X182167500Y-53192844D01*
X182173901Y-53252372D01*
X182173903Y-53252379D01*
X182224145Y-53387086D01*
X182224149Y-53387093D01*
X182310309Y-53502187D01*
X182310312Y-53502190D01*
X182425406Y-53588350D01*
X182425413Y-53588354D01*
X182560120Y-53638596D01*
X182560127Y-53638598D01*
X182619655Y-53644999D01*
X182619672Y-53645000D01*
X183182500Y-53645000D01*
X183182500Y-52826494D01*
X183287339Y-52874373D01*
X183396027Y-52890000D01*
X183468973Y-52890000D01*
X183577661Y-52874373D01*
X183682500Y-52826494D01*
X183682500Y-53645000D01*
X184245328Y-53645000D01*
X184245344Y-53644999D01*
X184304872Y-53638598D01*
X184304879Y-53638596D01*
X184439586Y-53588354D01*
X184439593Y-53588350D01*
X184554687Y-53502190D01*
X184554690Y-53502187D01*
X184640850Y-53387093D01*
X184640854Y-53387086D01*
X184691096Y-53252379D01*
X184691098Y-53252372D01*
X184697499Y-53192844D01*
X184697500Y-53192827D01*
X184697500Y-52630000D01*
X183878072Y-52630000D01*
X183901182Y-52594040D01*
X183942500Y-52453327D01*
X183942500Y-52306673D01*
X183901182Y-52165960D01*
X183878072Y-52130000D01*
X184697500Y-52130000D01*
X184697500Y-51567172D01*
X184697499Y-51567155D01*
X184691098Y-51507627D01*
X184691096Y-51507620D01*
X184640854Y-51372913D01*
X184640850Y-51372906D01*
X184554690Y-51257812D01*
X184554687Y-51257809D01*
X184439593Y-51171649D01*
X184439586Y-51171645D01*
X184304879Y-51121403D01*
X184304872Y-51121401D01*
X184245344Y-51115000D01*
X184210349Y-51115000D01*
X184143310Y-51095315D01*
X184097555Y-51042511D01*
X184087611Y-50973353D01*
X184116636Y-50909797D01*
X184132720Y-50895291D01*
X184132842Y-50893894D01*
X183573866Y-50334918D01*
X183577661Y-50334373D01*
X183711062Y-50273451D01*
X183821895Y-50177413D01*
X183901182Y-50054040D01*
X183923632Y-49977580D01*
X184486394Y-50540342D01*
X184532206Y-50474915D01*
X184625750Y-50274309D01*
X184625754Y-50274300D01*
X184683038Y-50060509D01*
X184683040Y-50060499D01*
X184702332Y-49840000D01*
X184702332Y-49839999D01*
X184683040Y-49619500D01*
X184683038Y-49619490D01*
X184625754Y-49405699D01*
X184625750Y-49405690D01*
X184532207Y-49205085D01*
X184532206Y-49205083D01*
X184486394Y-49139657D01*
X184486394Y-49139656D01*
X183923632Y-49702418D01*
X183901182Y-49625960D01*
X183821895Y-49502587D01*
X183711062Y-49406549D01*
X183577661Y-49345627D01*
X183573866Y-49345081D01*
X184132842Y-48786105D01*
X184132841Y-48786103D01*
X184067419Y-48740295D01*
X183866809Y-48646749D01*
X183866800Y-48646745D01*
X183705149Y-48603432D01*
X183645488Y-48567067D01*
X183614959Y-48504220D01*
X183623254Y-48434845D01*
X183667739Y-48380967D01*
X183714455Y-48361769D01*
X183733582Y-48358194D01*
X183922898Y-48284852D01*
X184095514Y-48177973D01*
X184245552Y-48041195D01*
X184367903Y-47879177D01*
X184458399Y-47697436D01*
X184513960Y-47502160D01*
X184532693Y-47300000D01*
X184513960Y-47097840D01*
X184458399Y-46902564D01*
X184367903Y-46720823D01*
X184245552Y-46558805D01*
X184245550Y-46558802D01*
X184095514Y-46422027D01*
X184095512Y-46422025D01*
X183922901Y-46315149D01*
X183922895Y-46315146D01*
X183843591Y-46284424D01*
X183733582Y-46241806D01*
X183534013Y-46204500D01*
X183330987Y-46204500D01*
X183131418Y-46241806D01*
X183085938Y-46259424D01*
X182942104Y-46315146D01*
X182942098Y-46315149D01*
X182769487Y-46422025D01*
X182769485Y-46422027D01*
X182619449Y-46558802D01*
X182497097Y-46720822D01*
X182406605Y-46902553D01*
X182406599Y-46902568D01*
X182351040Y-47097838D01*
X182351039Y-47097840D01*
X182332307Y-47299999D01*
X182332307Y-47300000D01*
X182351039Y-47502159D01*
X182351040Y-47502161D01*
X182406599Y-47697431D01*
X182406605Y-47697446D01*
X182497097Y-47879177D01*
X182619449Y-48041197D01*
X182769485Y-48177972D01*
X182769487Y-48177974D01*
X182942098Y-48284850D01*
X182942104Y-48284853D01*
X182968540Y-48295094D01*
X183131418Y-48358194D01*
X183150543Y-48361769D01*
X183212822Y-48393435D01*
X183248096Y-48453747D01*
X183245163Y-48523555D01*
X183204954Y-48580696D01*
X183159850Y-48603432D01*
X182998199Y-48646745D01*
X182998190Y-48646749D01*
X182797584Y-48740293D01*
X182732157Y-48786104D01*
X183291134Y-49345081D01*
X183287339Y-49345627D01*
X183153938Y-49406549D01*
X183043105Y-49502587D01*
X182963818Y-49625960D01*
X182941367Y-49702418D01*
X182378604Y-49139657D01*
X182332793Y-49205084D01*
X182239249Y-49405690D01*
X182239245Y-49405699D01*
X182181961Y-49619490D01*
X182181959Y-49619500D01*
X182162668Y-49839999D01*
X182162668Y-49840000D01*
X169462332Y-49840000D01*
X169462332Y-49839999D01*
X169443040Y-49619500D01*
X169443038Y-49619490D01*
X169385754Y-49405699D01*
X169385750Y-49405690D01*
X169292207Y-49205085D01*
X169292206Y-49205083D01*
X169246394Y-49139657D01*
X169246394Y-49139656D01*
X168683632Y-49702418D01*
X168661182Y-49625960D01*
X168581895Y-49502587D01*
X168471062Y-49406549D01*
X168337661Y-49345627D01*
X168333866Y-49345081D01*
X168892842Y-48786105D01*
X168892841Y-48786103D01*
X168827419Y-48740295D01*
X168626809Y-48646749D01*
X168626800Y-48646745D01*
X168465149Y-48603432D01*
X168405488Y-48567067D01*
X168374959Y-48504220D01*
X168383254Y-48434845D01*
X168427739Y-48380967D01*
X168474455Y-48361769D01*
X168493582Y-48358194D01*
X168682898Y-48284852D01*
X168855514Y-48177973D01*
X169005552Y-48041195D01*
X169127903Y-47879177D01*
X169218399Y-47697436D01*
X169273960Y-47502160D01*
X169292693Y-47300000D01*
X169273960Y-47097840D01*
X169218399Y-46902564D01*
X169127903Y-46720823D01*
X169005552Y-46558805D01*
X169005550Y-46558802D01*
X168855514Y-46422027D01*
X168855512Y-46422025D01*
X168682901Y-46315149D01*
X168682895Y-46315146D01*
X168603591Y-46284424D01*
X168493582Y-46241806D01*
X168294013Y-46204500D01*
X168090987Y-46204500D01*
X167891418Y-46241806D01*
X167845938Y-46259424D01*
X167702104Y-46315146D01*
X167702098Y-46315149D01*
X167529487Y-46422025D01*
X167529485Y-46422027D01*
X167379449Y-46558802D01*
X167257097Y-46720822D01*
X167166605Y-46902553D01*
X167166599Y-46902568D01*
X167111040Y-47097838D01*
X167111039Y-47097840D01*
X167092307Y-47299999D01*
X167092307Y-47300000D01*
X167111039Y-47502159D01*
X167111040Y-47502161D01*
X167166599Y-47697431D01*
X167166605Y-47697446D01*
X167257097Y-47879177D01*
X167379449Y-48041197D01*
X167529485Y-48177972D01*
X167529487Y-48177974D01*
X167702098Y-48284850D01*
X167702104Y-48284853D01*
X167728540Y-48295094D01*
X167891418Y-48358194D01*
X167910543Y-48361769D01*
X167972822Y-48393435D01*
X168008096Y-48453747D01*
X168005163Y-48523555D01*
X167964954Y-48580696D01*
X167919850Y-48603432D01*
X167758199Y-48646745D01*
X167758190Y-48646749D01*
X167557584Y-48740293D01*
X167492157Y-48786104D01*
X168051134Y-49345081D01*
X168047339Y-49345627D01*
X167913938Y-49406549D01*
X167803105Y-49502587D01*
X167723818Y-49625960D01*
X167701366Y-49702419D01*
X167138604Y-49139657D01*
X167092793Y-49205084D01*
X166999249Y-49405690D01*
X166999245Y-49405699D01*
X166941961Y-49619490D01*
X166941959Y-49619500D01*
X166922668Y-49839999D01*
X166922668Y-49840000D01*
X164226457Y-49840000D01*
X164264122Y-44760000D01*
X167092307Y-44760000D01*
X167111039Y-44962159D01*
X167111040Y-44962161D01*
X167166599Y-45157431D01*
X167166605Y-45157446D01*
X167257097Y-45339177D01*
X167379449Y-45501197D01*
X167529485Y-45637972D01*
X167529487Y-45637974D01*
X167702098Y-45744850D01*
X167702104Y-45744853D01*
X167723420Y-45753110D01*
X167891418Y-45818194D01*
X168090987Y-45855500D01*
X168090989Y-45855500D01*
X168294011Y-45855500D01*
X168294013Y-45855500D01*
X168493582Y-45818194D01*
X168682898Y-45744852D01*
X168855514Y-45637973D01*
X169005552Y-45501195D01*
X169127903Y-45339177D01*
X169218399Y-45157436D01*
X169273960Y-44962160D01*
X169292693Y-44760000D01*
X182332307Y-44760000D01*
X182351039Y-44962159D01*
X182351040Y-44962161D01*
X182406599Y-45157431D01*
X182406605Y-45157446D01*
X182497097Y-45339177D01*
X182619449Y-45501197D01*
X182769485Y-45637972D01*
X182769487Y-45637974D01*
X182942098Y-45744850D01*
X182942104Y-45744853D01*
X182963420Y-45753110D01*
X183131418Y-45818194D01*
X183330987Y-45855500D01*
X183330989Y-45855500D01*
X183534011Y-45855500D01*
X183534013Y-45855500D01*
X183733582Y-45818194D01*
X183922898Y-45744852D01*
X184095514Y-45637973D01*
X184245552Y-45501195D01*
X184367903Y-45339177D01*
X184458399Y-45157436D01*
X184513960Y-44962160D01*
X184532693Y-44760000D01*
X184513960Y-44557840D01*
X184458399Y-44362564D01*
X184367903Y-44180823D01*
X184245552Y-44018805D01*
X184245550Y-44018802D01*
X184095514Y-43882027D01*
X184095512Y-43882025D01*
X183922901Y-43775149D01*
X183922895Y-43775146D01*
X183843591Y-43744424D01*
X183733582Y-43701806D01*
X183534013Y-43664500D01*
X183330987Y-43664500D01*
X183131418Y-43701806D01*
X183116243Y-43707685D01*
X182942104Y-43775146D01*
X182942098Y-43775149D01*
X182769487Y-43882025D01*
X182769485Y-43882027D01*
X182619449Y-44018802D01*
X182497097Y-44180822D01*
X182406605Y-44362553D01*
X182406599Y-44362568D01*
X182351040Y-44557838D01*
X182351039Y-44557840D01*
X182332307Y-44759999D01*
X182332307Y-44760000D01*
X169292693Y-44760000D01*
X169273960Y-44557840D01*
X169218399Y-44362564D01*
X169127903Y-44180823D01*
X169005552Y-44018805D01*
X169005550Y-44018802D01*
X168855514Y-43882027D01*
X168855512Y-43882025D01*
X168682901Y-43775149D01*
X168682895Y-43775146D01*
X168603591Y-43744424D01*
X168493582Y-43701806D01*
X168294013Y-43664500D01*
X168090987Y-43664500D01*
X167891418Y-43701806D01*
X167876243Y-43707685D01*
X167702104Y-43775146D01*
X167702098Y-43775149D01*
X167529487Y-43882025D01*
X167529485Y-43882027D01*
X167379449Y-44018802D01*
X167257097Y-44180822D01*
X167166605Y-44362553D01*
X167166599Y-44362568D01*
X167111040Y-44557838D01*
X167111039Y-44557840D01*
X167092307Y-44759999D01*
X167092307Y-44760000D01*
X164264122Y-44760000D01*
X164272291Y-43658255D01*
X164287200Y-43608838D01*
X164287200Y-43303766D01*
X164276425Y-43293000D01*
X164275000Y-43293000D01*
X163696000Y-43293000D01*
X163675276Y-43293000D01*
X163659437Y-43301589D01*
X163633540Y-43304347D01*
X156200000Y-43310965D01*
X156139999Y-43380966D01*
X156143380Y-43388316D01*
X156154696Y-43442744D01*
X156150999Y-43617965D01*
X156151000Y-43617966D01*
X163569231Y-43595171D01*
X163636330Y-43614649D01*
X163682247Y-43667312D01*
X163693609Y-43719864D01*
X163625528Y-55883694D01*
X163605469Y-55950622D01*
X163552409Y-55996081D01*
X163501530Y-56007000D01*
X149617049Y-56007000D01*
X149550010Y-55987315D01*
X149504255Y-55934511D01*
X149493049Y-55883226D01*
X149487728Y-52959003D01*
X155855878Y-52959003D01*
X155874307Y-53122574D01*
X155928676Y-53277953D01*
X155928677Y-53277955D01*
X155928678Y-53277957D01*
X156016258Y-53417341D01*
X156132659Y-53533742D01*
X156272043Y-53621322D01*
X156427420Y-53675691D01*
X156427423Y-53675691D01*
X156427425Y-53675692D01*
X156590996Y-53694122D01*
X156591000Y-53694122D01*
X156591004Y-53694122D01*
X156754574Y-53675692D01*
X156754575Y-53675691D01*
X156754580Y-53675691D01*
X156909957Y-53621322D01*
X157049341Y-53533742D01*
X157165742Y-53417341D01*
X157253322Y-53277957D01*
X157307691Y-53122580D01*
X157309554Y-53106044D01*
X157326122Y-52959003D01*
X157326122Y-52958996D01*
X157307692Y-52795425D01*
X157307691Y-52795423D01*
X157307691Y-52795420D01*
X157253322Y-52640043D01*
X157165742Y-52500659D01*
X157140264Y-52475181D01*
X157106779Y-52413858D01*
X157111763Y-52344166D01*
X157140264Y-52299819D01*
X157140263Y-52299818D01*
X157165742Y-52274341D01*
X157253322Y-52134957D01*
X157307691Y-51979580D01*
X157309761Y-51961211D01*
X157326122Y-51816003D01*
X157326122Y-51815996D01*
X157307692Y-51652425D01*
X157307691Y-51652423D01*
X157307691Y-51652420D01*
X157253322Y-51497043D01*
X157175990Y-51373969D01*
X157156991Y-51306734D01*
X157175989Y-51242032D01*
X157253322Y-51118957D01*
X157307691Y-50963580D01*
X157315098Y-50897844D01*
X157326122Y-50800003D01*
X157326122Y-50799996D01*
X157307692Y-50636425D01*
X157307691Y-50636423D01*
X157307691Y-50636420D01*
X157253322Y-50481043D01*
X157165742Y-50341659D01*
X157049341Y-50225258D01*
X156909957Y-50137678D01*
X156909956Y-50137677D01*
X156909955Y-50137677D01*
X156909953Y-50137676D01*
X156754574Y-50083307D01*
X156591004Y-50064878D01*
X156590996Y-50064878D01*
X156427425Y-50083307D01*
X156272046Y-50137676D01*
X156272044Y-50137677D01*
X156132658Y-50225258D01*
X156016258Y-50341658D01*
X155928677Y-50481044D01*
X155928676Y-50481046D01*
X155874307Y-50636425D01*
X155855878Y-50799996D01*
X155855878Y-50800003D01*
X155874307Y-50963574D01*
X155928676Y-51118953D01*
X155928677Y-51118955D01*
X155928678Y-51118957D01*
X156006008Y-51242028D01*
X156025008Y-51309264D01*
X156006008Y-51373970D01*
X155928679Y-51497039D01*
X155928676Y-51497046D01*
X155874307Y-51652425D01*
X155855878Y-51815996D01*
X155855878Y-51816003D01*
X155874307Y-51979574D01*
X155928676Y-52134953D01*
X155928677Y-52134955D01*
X155928678Y-52134957D01*
X155955622Y-52177838D01*
X156016258Y-52274341D01*
X156041736Y-52299819D01*
X156075221Y-52361142D01*
X156070237Y-52430834D01*
X156041736Y-52475181D01*
X156016258Y-52500658D01*
X155928677Y-52640044D01*
X155928676Y-52640046D01*
X155874307Y-52795425D01*
X155855878Y-52958996D01*
X155855878Y-52959003D01*
X149487728Y-52959003D01*
X149472441Y-44557838D01*
X149471084Y-43812225D01*
X149490647Y-43745150D01*
X149543367Y-43699300D01*
X149595084Y-43688000D01*
X153469626Y-43688000D01*
X153536665Y-43707685D01*
X153582420Y-43760489D01*
X153593097Y-43823442D01*
X153590571Y-43850700D01*
X153609046Y-44050091D01*
X153609047Y-44050093D01*
X153663845Y-44242689D01*
X153663851Y-44242704D01*
X153753101Y-44421941D01*
X153753106Y-44421949D01*
X153873781Y-44581749D01*
X154001086Y-44697802D01*
X154021764Y-44716652D01*
X154192016Y-44822068D01*
X154378740Y-44894405D01*
X154575577Y-44931200D01*
X154575579Y-44931200D01*
X154775821Y-44931200D01*
X154775823Y-44931200D01*
X154972660Y-44894405D01*
X155159384Y-44822068D01*
X155329636Y-44716652D01*
X155477620Y-44581747D01*
X155598295Y-44421947D01*
X155687553Y-44242694D01*
X155742353Y-44050092D01*
X155760829Y-43850700D01*
X155742353Y-43651308D01*
X155687553Y-43458706D01*
X155651350Y-43386001D01*
X155598298Y-43279458D01*
X155598293Y-43279450D01*
X155477618Y-43119650D01*
X155329637Y-42984749D01*
X155329636Y-42984748D01*
X155264800Y-42944603D01*
X155159385Y-42879332D01*
X155159383Y-42879331D01*
X155022852Y-42826439D01*
X154972660Y-42806995D01*
X154775823Y-42770200D01*
X154575577Y-42770200D01*
X154378740Y-42806995D01*
X154378737Y-42806995D01*
X154378737Y-42806996D01*
X154192016Y-42879331D01*
X154192014Y-42879332D01*
X154021762Y-42984749D01*
X153873781Y-43119650D01*
X153753106Y-43279450D01*
X153753103Y-43279456D01*
X153746293Y-43293132D01*
X153698788Y-43344368D01*
X153635953Y-43361855D01*
X149090858Y-43386000D01*
X149090857Y-43386001D01*
X149028476Y-55898777D01*
X149008458Y-55965718D01*
X148992160Y-55985839D01*
X148971000Y-56006999D01*
X148971000Y-56749857D01*
X148951315Y-56816896D01*
X148898511Y-56862651D01*
X148847015Y-56873857D01*
X136402739Y-56875331D01*
X136335697Y-56855654D01*
X136289936Y-56802856D01*
X136279984Y-56733698D01*
X136309001Y-56670139D01*
X136367775Y-56632358D01*
X136387183Y-56628309D01*
X136669902Y-56592593D01*
X136826757Y-56552320D01*
X136978314Y-56513407D01*
X136980519Y-56512534D01*
X137274356Y-56396196D01*
X137274357Y-56396195D01*
X137274355Y-56396195D01*
X137274365Y-56396192D01*
X137553390Y-56242796D01*
X137810990Y-56055639D01*
X138043102Y-55837671D01*
X138246065Y-55592331D01*
X138416678Y-55323488D01*
X138552251Y-55035381D01*
X138650646Y-54732554D01*
X138710310Y-54419783D01*
X138710311Y-54419772D01*
X138730303Y-54102005D01*
X138730303Y-54101994D01*
X138710311Y-53784227D01*
X138710310Y-53784220D01*
X138710310Y-53784217D01*
X138650646Y-53471446D01*
X138552251Y-53168619D01*
X138522805Y-53106044D01*
X138453613Y-52959003D01*
X138416678Y-52880512D01*
X138307395Y-52708309D01*
X138246068Y-52611673D01*
X138154229Y-52500659D01*
X138043102Y-52366329D01*
X138037578Y-52361142D01*
X137810991Y-52148362D01*
X137810981Y-52148354D01*
X137553401Y-51961211D01*
X137553394Y-51961206D01*
X137553390Y-51961204D01*
X137274365Y-51807808D01*
X137274362Y-51807806D01*
X137274357Y-51807804D01*
X137274356Y-51807803D01*
X136978317Y-51690593D01*
X136978314Y-51690592D01*
X136669903Y-51611407D01*
X136354015Y-51571500D01*
X136354006Y-51571500D01*
X136035594Y-51571500D01*
X136035584Y-51571500D01*
X135719696Y-51611407D01*
X135411285Y-51690592D01*
X135411282Y-51690593D01*
X135115243Y-51807803D01*
X135115242Y-51807804D01*
X134836210Y-51961204D01*
X134836198Y-51961211D01*
X134578618Y-52148354D01*
X134578608Y-52148362D01*
X134346499Y-52366327D01*
X134143531Y-52611673D01*
X133972923Y-52880509D01*
X133972920Y-52880515D01*
X133837351Y-53168612D01*
X133837349Y-53168617D01*
X133738955Y-53471441D01*
X133679289Y-53784220D01*
X133679288Y-53784227D01*
X133659297Y-54101994D01*
X133659297Y-54102005D01*
X133679288Y-54419772D01*
X133679289Y-54419779D01*
X133738955Y-54732558D01*
X133837349Y-55035382D01*
X133837351Y-55035387D01*
X133972920Y-55323484D01*
X133972923Y-55323490D01*
X134143531Y-55592326D01*
X134143534Y-55592330D01*
X134143535Y-55592331D01*
X134346498Y-55837671D01*
X134573202Y-56050561D01*
X134578608Y-56055637D01*
X134578618Y-56055645D01*
X134836198Y-56242788D01*
X134836203Y-56242790D01*
X134836210Y-56242796D01*
X135115235Y-56396192D01*
X135115240Y-56396194D01*
X135115242Y-56396195D01*
X135115243Y-56396196D01*
X135411282Y-56513406D01*
X135411285Y-56513407D01*
X135719697Y-56592593D01*
X136002805Y-56628358D01*
X136066849Y-56656289D01*
X136105625Y-56714412D01*
X136106822Y-56784271D01*
X136070061Y-56843688D01*
X136007011Y-56873797D01*
X135987279Y-56875380D01*
X126542211Y-56876498D01*
X126536797Y-56876262D01*
X126493994Y-56872517D01*
X126367738Y-56860082D01*
X126347799Y-56856454D01*
X126281169Y-56838601D01*
X126187935Y-56810319D01*
X126171527Y-56804040D01*
X126120595Y-56780291D01*
X126104118Y-56772607D01*
X126101105Y-56771101D01*
X126017171Y-56726236D01*
X126010831Y-56722341D01*
X125944670Y-56676015D01*
X125940898Y-56673154D01*
X125868690Y-56613895D01*
X125864188Y-56609815D01*
X125806682Y-56552309D01*
X125802603Y-56547808D01*
X125800509Y-56545257D01*
X125743344Y-56475600D01*
X125740483Y-56471828D01*
X125694157Y-56405667D01*
X125690262Y-56399327D01*
X125665482Y-56352969D01*
X125645388Y-56315375D01*
X125643906Y-56312411D01*
X125612458Y-56244971D01*
X125606182Y-56228570D01*
X125577903Y-56135349D01*
X125560041Y-56068685D01*
X125556418Y-56048771D01*
X125543975Y-55922435D01*
X125543408Y-55915952D01*
X125540233Y-55879671D01*
X125540000Y-55874315D01*
X125540000Y-49900003D01*
X133239878Y-49900003D01*
X133258307Y-50063574D01*
X133312676Y-50218953D01*
X133312677Y-50218955D01*
X133312678Y-50218957D01*
X133400258Y-50358341D01*
X133516659Y-50474742D01*
X133656043Y-50562322D01*
X133811420Y-50616691D01*
X133811423Y-50616691D01*
X133811425Y-50616692D01*
X133974996Y-50635122D01*
X133975000Y-50635122D01*
X133975004Y-50635122D01*
X134138574Y-50616692D01*
X134138575Y-50616691D01*
X134138580Y-50616691D01*
X134293957Y-50562322D01*
X134433341Y-50474742D01*
X134489080Y-50419003D01*
X144933878Y-50419003D01*
X144952307Y-50582574D01*
X145006676Y-50737953D01*
X145006677Y-50737955D01*
X145006678Y-50737957D01*
X145094258Y-50877341D01*
X145210659Y-50993742D01*
X145350043Y-51081322D01*
X145505420Y-51135691D01*
X145505423Y-51135691D01*
X145505425Y-51135692D01*
X145668996Y-51154122D01*
X145669000Y-51154122D01*
X145669004Y-51154122D01*
X145832574Y-51135692D01*
X145832575Y-51135691D01*
X145832580Y-51135691D01*
X145987957Y-51081322D01*
X146127341Y-50993742D01*
X146243742Y-50877341D01*
X146331322Y-50737957D01*
X146385691Y-50582580D01*
X146385692Y-50582574D01*
X146404122Y-50419003D01*
X146404122Y-50418996D01*
X146385692Y-50255425D01*
X146385691Y-50255423D01*
X146385691Y-50255420D01*
X146331322Y-50100043D01*
X146243742Y-49960659D01*
X146127341Y-49844258D01*
X145987957Y-49756678D01*
X145987956Y-49756677D01*
X145987955Y-49756677D01*
X145987953Y-49756676D01*
X145832574Y-49702307D01*
X145669004Y-49683878D01*
X145668996Y-49683878D01*
X145505425Y-49702307D01*
X145350046Y-49756676D01*
X145350044Y-49756677D01*
X145210658Y-49844258D01*
X145094258Y-49960658D01*
X145006677Y-50100044D01*
X145006676Y-50100046D01*
X144952307Y-50255425D01*
X144933878Y-50418996D01*
X144933878Y-50419003D01*
X134489080Y-50419003D01*
X134549742Y-50358341D01*
X134637322Y-50218957D01*
X134691691Y-50063580D01*
X134692766Y-50054040D01*
X134710122Y-49900003D01*
X134710122Y-49899996D01*
X134691692Y-49736425D01*
X134691691Y-49736423D01*
X134691691Y-49736420D01*
X134637322Y-49581043D01*
X134549742Y-49441659D01*
X134433341Y-49325258D01*
X134293957Y-49237678D01*
X134293956Y-49237677D01*
X134293955Y-49237677D01*
X134293953Y-49237676D01*
X134138574Y-49183307D01*
X133975004Y-49164878D01*
X133974996Y-49164878D01*
X133811425Y-49183307D01*
X133656046Y-49237676D01*
X133656044Y-49237677D01*
X133516658Y-49325258D01*
X133400258Y-49441658D01*
X133312677Y-49581044D01*
X133312676Y-49581046D01*
X133258307Y-49736425D01*
X133239878Y-49899996D01*
X133239878Y-49900003D01*
X125540000Y-49900003D01*
X125540000Y-46355003D01*
X130836878Y-46355003D01*
X130855307Y-46518574D01*
X130909676Y-46673953D01*
X130909677Y-46673955D01*
X130909678Y-46673957D01*
X130997258Y-46813341D01*
X131113659Y-46929742D01*
X131253043Y-47017322D01*
X131408420Y-47071691D01*
X131408423Y-47071691D01*
X131408425Y-47071692D01*
X131571996Y-47090122D01*
X131572000Y-47090122D01*
X131572004Y-47090122D01*
X131735574Y-47071692D01*
X131735575Y-47071691D01*
X131735580Y-47071691D01*
X131890957Y-47017322D01*
X132030341Y-46929742D01*
X132146742Y-46813341D01*
X132234322Y-46673957D01*
X132288691Y-46518580D01*
X132307122Y-46355000D01*
X132294368Y-46241806D01*
X132288692Y-46191425D01*
X132288691Y-46191423D01*
X132288691Y-46191420D01*
X132234322Y-46036043D01*
X132146742Y-45896659D01*
X132030341Y-45780258D01*
X131890957Y-45692678D01*
X131890956Y-45692677D01*
X131890955Y-45692677D01*
X131890953Y-45692676D01*
X131735574Y-45638307D01*
X131572004Y-45619878D01*
X131571996Y-45619878D01*
X131408425Y-45638307D01*
X131253046Y-45692676D01*
X131253044Y-45692677D01*
X131113658Y-45780258D01*
X130997258Y-45896658D01*
X130909677Y-46036044D01*
X130909676Y-46036046D01*
X130855307Y-46191425D01*
X130836878Y-46354996D01*
X130836878Y-46355003D01*
X125540000Y-46355003D01*
X125540000Y-32879681D01*
X125540233Y-32874330D01*
X125543977Y-32831535D01*
X125556418Y-32705223D01*
X125560042Y-32685309D01*
X125577902Y-32618653D01*
X125606183Y-32525424D01*
X125612453Y-32509037D01*
X125643920Y-32441558D01*
X125645372Y-32438653D01*
X125690264Y-32354666D01*
X125694157Y-32348331D01*
X125740494Y-32282155D01*
X125743327Y-32278420D01*
X125802622Y-32206168D01*
X125806662Y-32201710D01*
X125864210Y-32144162D01*
X125868668Y-32140122D01*
X125940920Y-32080827D01*
X125944655Y-32077994D01*
X126010834Y-32031654D01*
X126017166Y-32027764D01*
X126101153Y-31982872D01*
X126104058Y-31981420D01*
X126171537Y-31949953D01*
X126187924Y-31943683D01*
X126281153Y-31915402D01*
X126347809Y-31897542D01*
X126367723Y-31893918D01*
X126494042Y-31881477D01*
X126536805Y-31877735D01*
X126542206Y-31877500D01*
X134386934Y-31877500D01*
X134453973Y-31897185D01*
G37*
%TD.AperFunction*%
%TD*%
M02*
