%TF.GenerationSoftware,KiCad,Pcbnew,7.0.6*%
%TF.CreationDate,2024-04-06T15:36:31-04:00*%
%TF.ProjectId,peripheral_io_left_eth,70657269-7068-4657-9261-6c5f696f5f6c,rev?*%
%TF.SameCoordinates,Original*%
%TF.FileFunction,Copper,L1,Top*%
%TF.FilePolarity,Positive*%
%FSLAX46Y46*%
G04 Gerber Fmt 4.6, Leading zero omitted, Abs format (unit mm)*
G04 Created by KiCad (PCBNEW 7.0.6) date 2024-04-06 15:36:31*
%MOMM*%
%LPD*%
G01*
G04 APERTURE LIST*
G04 Aperture macros list*
%AMRoundRect*
0 Rectangle with rounded corners*
0 $1 Rounding radius*
0 $2 $3 $4 $5 $6 $7 $8 $9 X,Y pos of 4 corners*
0 Add a 4 corners polygon primitive as box body*
4,1,4,$2,$3,$4,$5,$6,$7,$8,$9,$2,$3,0*
0 Add four circle primitives for the rounded corners*
1,1,$1+$1,$2,$3*
1,1,$1+$1,$4,$5*
1,1,$1+$1,$6,$7*
1,1,$1+$1,$8,$9*
0 Add four rect primitives between the rounded corners*
20,1,$1+$1,$2,$3,$4,$5,0*
20,1,$1+$1,$4,$5,$6,$7,0*
20,1,$1+$1,$6,$7,$8,$9,0*
20,1,$1+$1,$8,$9,$2,$3,0*%
G04 Aperture macros list end*
%TA.AperFunction,SMDPad,CuDef*%
%ADD10RoundRect,0.425000X-0.775000X0.425000X-0.775000X-0.425000X0.775000X-0.425000X0.775000X0.425000X0*%
%TD*%
%TA.AperFunction,SMDPad,CuDef*%
%ADD11RoundRect,0.150000X-0.650000X0.150000X-0.650000X-0.150000X0.650000X-0.150000X0.650000X0.150000X0*%
%TD*%
%TA.AperFunction,ComponentPad*%
%ADD12C,1.600000*%
%TD*%
%TA.AperFunction,SMDPad,CuDef*%
%ADD13RoundRect,0.425000X-0.425000X-0.775000X0.425000X-0.775000X0.425000X0.775000X-0.425000X0.775000X0*%
%TD*%
%TA.AperFunction,SMDPad,CuDef*%
%ADD14RoundRect,0.150000X-0.150000X-0.650000X0.150000X-0.650000X0.150000X0.650000X-0.150000X0.650000X0*%
%TD*%
%TA.AperFunction,ViaPad*%
%ADD15C,0.800000*%
%TD*%
%TA.AperFunction,ViaPad*%
%ADD16C,1.000000*%
%TD*%
%TA.AperFunction,Conductor*%
%ADD17C,0.250000*%
%TD*%
%TA.AperFunction,Conductor*%
%ADD18C,0.500000*%
%TD*%
G04 APERTURE END LIST*
D10*
%TO.P,J2,*%
%TO.N,*%
X189259500Y-56979500D03*
X189259500Y-62729500D03*
D11*
%TO.P,J2,1,1*%
%TO.N,GND*%
X187009500Y-60479500D03*
%TO.P,J2,2,2*%
%TO.N,Net-(J1-Pad9)*%
X187009500Y-59229500D03*
%TD*%
D12*
%TO.P,J1,1,1*%
%TO.N,Net-(Input1-Pad7)*%
X181031928Y-73449408D03*
%TO.P,J1,2,2*%
%TO.N,/Red*%
X181031969Y-76305476D03*
%TO.P,J1,3,3*%
%TO.N,Net-(Input1-Pad5)*%
X182428578Y-77549421D03*
%TO.P,J1,4,4*%
%TO.N,Net-(Input1-Pad2)*%
X184294316Y-77681970D03*
%TO.P,J1,5,5*%
%TO.N,/Bl*%
X185852930Y-76647803D03*
%TO.P,J1,6,6*%
%TO.N,Net-(Input1-Pad6)*%
X186455864Y-74877436D03*
%TO.P,J1,7,7*%
%TO.N,Net-(Input1-Pad3)*%
X185852930Y-73107068D03*
%TO.P,J1,8,8*%
%TO.N,Net-(Input1-Pad4)*%
X184294316Y-72072902D03*
%TO.P,J1,9,9*%
%TO.N,Net-(J1-Pad9)*%
X182428578Y-72205450D03*
%TO.P,J1,10,10*%
%TO.N,GND*%
X182455962Y-74877436D03*
%TO.P,J1,11,11*%
%TO.N,unconnected-(J1-Pad11)*%
X184105959Y-75830063D03*
%TO.P,J1,12,12*%
%TO.N,unconnected-(J1-Pad12)*%
X184105959Y-73924808D03*
%TD*%
D13*
%TO.P,Input1,*%
%TO.N,*%
X169820500Y-59914500D03*
X183170500Y-59914500D03*
D14*
%TO.P,Input1,1,1*%
%TO.N,/Bl*%
X180820500Y-62164500D03*
%TO.P,Input1,2,2*%
%TO.N,Net-(Input1-Pad2)*%
X179570500Y-62164500D03*
%TO.P,Input1,3,3*%
%TO.N,Net-(Input1-Pad3)*%
X178320500Y-62164500D03*
%TO.P,Input1,4,4*%
%TO.N,Net-(Input1-Pad4)*%
X177070500Y-62164500D03*
%TO.P,Input1,5,5*%
%TO.N,Net-(Input1-Pad5)*%
X175820500Y-62164500D03*
%TO.P,Input1,6,6*%
%TO.N,Net-(Input1-Pad6)*%
X174570500Y-62164500D03*
%TO.P,Input1,7,7*%
%TO.N,Net-(Input1-Pad7)*%
X173320500Y-62164500D03*
%TO.P,Input1,8,8*%
%TO.N,/Red*%
X172070500Y-62164500D03*
%TD*%
D15*
%TO.N,/Bl*%
X188468000Y-75946000D03*
%TO.N,Net-(Input1-Pad5)*%
X176657000Y-66421000D03*
%TO.N,Net-(Input1-Pad6)*%
X174752000Y-64262000D03*
D16*
%TO.N,Net-(J1-Pad9)*%
X185928000Y-67945000D03*
%TO.N,GND*%
X185034701Y-66425299D03*
%TD*%
D17*
%TO.N,/Bl*%
X180820500Y-64615500D02*
X188468000Y-72263000D01*
X180820500Y-62164500D02*
X180820500Y-64615500D01*
X188468000Y-72263000D02*
X188468000Y-75946000D01*
%TO.N,Net-(Input1-Pad2)*%
X186360342Y-77872803D02*
X184485149Y-77872803D01*
X179570500Y-62164500D02*
X179570500Y-64508500D01*
X179570500Y-64508500D02*
X187680864Y-72618864D01*
X187680864Y-72618864D02*
X187680864Y-76552281D01*
X187680864Y-76552281D02*
X186360342Y-77872803D01*
X184485149Y-77872803D02*
X184294316Y-77681970D01*
%TO.N,Net-(Input1-Pad3)*%
X178320500Y-62164500D02*
X178320500Y-63918900D01*
X185852930Y-71451330D02*
X185852930Y-73107068D01*
X178320500Y-63918900D02*
X185852930Y-71451330D01*
%TO.N,Net-(Input1-Pad4)*%
X177070500Y-64849086D02*
X184294316Y-72072902D01*
X177070500Y-62164500D02*
X177070500Y-64849086D01*
%TO.N,Net-(Input1-Pad5)*%
X175820500Y-62164500D02*
X175820500Y-65584500D01*
X175820500Y-65584500D02*
X176657000Y-66421000D01*
%TO.N,Net-(Input1-Pad6)*%
X174570500Y-62164500D02*
X174570500Y-64080500D01*
X174570500Y-64080500D02*
X174752000Y-64262000D01*
%TO.N,Net-(Input1-Pad7)*%
X180631791Y-73342191D02*
X181418536Y-73342191D01*
X173320500Y-66030900D02*
X180631791Y-73342191D01*
X173320500Y-62164500D02*
X173320500Y-66030900D01*
%TO.N,/Red*%
X172070500Y-62164500D02*
X172070500Y-69581500D01*
X178794476Y-76305476D02*
X181031969Y-76305476D01*
X172070500Y-69581500D02*
X178794476Y-76305476D01*
D18*
%TO.N,Net-(J1-Pad9)*%
X188595000Y-59817000D02*
X188007500Y-59229500D01*
D17*
X187231251Y-59229500D02*
X187009500Y-59229500D01*
D18*
X187020896Y-62280104D02*
X188595000Y-60706000D01*
X185928000Y-67945000D02*
X187020896Y-66852104D01*
X188595000Y-60706000D02*
X188595000Y-59817000D01*
X187020896Y-66852104D02*
X187020896Y-62280104D01*
X188007500Y-59229500D02*
X187231251Y-59229500D01*
%TO.N,GND*%
X185293000Y-66167000D02*
X185293000Y-62196000D01*
X185034701Y-66425299D02*
X185293000Y-66167000D01*
X185293000Y-62196000D02*
X187009500Y-60479500D01*
%TD*%
%TA.AperFunction,Conductor*%
%TO.N,GND*%
G36*
X187687603Y-55849385D02*
G01*
X187733358Y-55902189D01*
X187743302Y-55971347D01*
X187716931Y-56031735D01*
X187704034Y-56047661D01*
X187615712Y-56221004D01*
X187565358Y-56408925D01*
X187559000Y-56489720D01*
X187559000Y-57469280D01*
X187565358Y-57550074D01*
X187565358Y-57550077D01*
X187565359Y-57550078D01*
X187615712Y-57737996D01*
X187704035Y-57911340D01*
X187826468Y-58062532D01*
X187935994Y-58151225D01*
X187977662Y-58184967D01*
X188092184Y-58243318D01*
X188142981Y-58291292D01*
X188159776Y-58359113D01*
X188137239Y-58425248D01*
X188082524Y-58468700D01*
X188039499Y-58477750D01*
X187997602Y-58478970D01*
X187996583Y-58479000D01*
X187941828Y-58479000D01*
X187907233Y-58474076D01*
X187762073Y-58431902D01*
X187762067Y-58431901D01*
X187725196Y-58429000D01*
X187725194Y-58429000D01*
X186293806Y-58429000D01*
X186293804Y-58429000D01*
X186256932Y-58431901D01*
X186256926Y-58431902D01*
X186099106Y-58477754D01*
X186099103Y-58477755D01*
X185957637Y-58561417D01*
X185957629Y-58561423D01*
X185841423Y-58677629D01*
X185841417Y-58677637D01*
X185757755Y-58819103D01*
X185757754Y-58819106D01*
X185711902Y-58976926D01*
X185711901Y-58976932D01*
X185709000Y-59013804D01*
X185709000Y-59445196D01*
X185711901Y-59482067D01*
X185711902Y-59482073D01*
X185757754Y-59639893D01*
X185757755Y-59639896D01*
X185845390Y-59788080D01*
X185843545Y-59789170D01*
X185865051Y-59843963D01*
X185851362Y-59912479D01*
X185845752Y-59921207D01*
X185845788Y-59921229D01*
X185758217Y-60069303D01*
X185758216Y-60069306D01*
X185712400Y-60227004D01*
X185712399Y-60227010D01*
X185709500Y-60263856D01*
X185709500Y-60695144D01*
X185712399Y-60731989D01*
X185712400Y-60731995D01*
X185758216Y-60889693D01*
X185758217Y-60889696D01*
X185841814Y-61031052D01*
X185841821Y-61031061D01*
X185957936Y-61147176D01*
X185957942Y-61147181D01*
X185976997Y-61158449D01*
X186921819Y-60213628D01*
X186983142Y-60180143D01*
X187052834Y-60185127D01*
X187097181Y-60213628D01*
X187275372Y-60391819D01*
X187308857Y-60453142D01*
X187303873Y-60522834D01*
X187275372Y-60567181D01*
X186563053Y-61279499D01*
X186563054Y-61279500D01*
X186660769Y-61279500D01*
X186727808Y-61299185D01*
X186773563Y-61351989D01*
X186783507Y-61421147D01*
X186754482Y-61484703D01*
X186748450Y-61491181D01*
X186535254Y-61704376D01*
X186521625Y-61716155D01*
X186502364Y-61730494D01*
X186468794Y-61770501D01*
X186465149Y-61774480D01*
X186459305Y-61780326D01*
X186438955Y-61806063D01*
X186389591Y-61864893D01*
X186385625Y-61870923D01*
X186385578Y-61870892D01*
X186381526Y-61877251D01*
X186381575Y-61877281D01*
X186377785Y-61883425D01*
X186345320Y-61953045D01*
X186310856Y-62021670D01*
X186308384Y-62028461D01*
X186308328Y-62028440D01*
X186305856Y-62035554D01*
X186305911Y-62035573D01*
X186303638Y-62042431D01*
X186295871Y-62080049D01*
X186288103Y-62117669D01*
X186274897Y-62173388D01*
X186270394Y-62192390D01*
X186269557Y-62199558D01*
X186269497Y-62199551D01*
X186268731Y-62207049D01*
X186268791Y-62207055D01*
X186268161Y-62214244D01*
X186270396Y-62291020D01*
X186270396Y-66489872D01*
X186250711Y-66556911D01*
X186234077Y-66577553D01*
X185897225Y-66914405D01*
X185835902Y-66947890D01*
X185821700Y-66950127D01*
X185731870Y-66958975D01*
X185543266Y-67016188D01*
X185369467Y-67109086D01*
X185369460Y-67109090D01*
X185217116Y-67234116D01*
X185092090Y-67386460D01*
X185092086Y-67386467D01*
X184999186Y-67560271D01*
X184977937Y-67630319D01*
X184939639Y-67688757D01*
X184875827Y-67717214D01*
X184806760Y-67706653D01*
X184771596Y-67682004D01*
X181482319Y-64392727D01*
X181448834Y-64331404D01*
X181446000Y-64305046D01*
X181446000Y-63310308D01*
X181465685Y-63243269D01*
X181482318Y-63222627D01*
X181488581Y-63216365D01*
X181572244Y-63074898D01*
X181618098Y-62917069D01*
X181621000Y-62880194D01*
X181621000Y-61448806D01*
X181618098Y-61411931D01*
X181602811Y-61359315D01*
X181572245Y-61254106D01*
X181572244Y-61254103D01*
X181572244Y-61254102D01*
X181488581Y-61112635D01*
X181488579Y-61112633D01*
X181488576Y-61112629D01*
X181372370Y-60996423D01*
X181372362Y-60996417D01*
X181230896Y-60912755D01*
X181230893Y-60912754D01*
X181073073Y-60866902D01*
X181073067Y-60866901D01*
X181036196Y-60864000D01*
X181036194Y-60864000D01*
X180604806Y-60864000D01*
X180604804Y-60864000D01*
X180567932Y-60866901D01*
X180567926Y-60866902D01*
X180410106Y-60912754D01*
X180410103Y-60912755D01*
X180261920Y-61000390D01*
X180260754Y-60998419D01*
X180206442Y-61019732D01*
X180137927Y-61006040D01*
X180129095Y-61000364D01*
X180129080Y-61000390D01*
X179980896Y-60912755D01*
X179980893Y-60912754D01*
X179823073Y-60866902D01*
X179823067Y-60866901D01*
X179786196Y-60864000D01*
X179786194Y-60864000D01*
X179354806Y-60864000D01*
X179354804Y-60864000D01*
X179317932Y-60866901D01*
X179317926Y-60866902D01*
X179160106Y-60912754D01*
X179160103Y-60912755D01*
X179011920Y-61000390D01*
X179010754Y-60998419D01*
X178956442Y-61019732D01*
X178887927Y-61006040D01*
X178879095Y-61000364D01*
X178879080Y-61000390D01*
X178730896Y-60912755D01*
X178730893Y-60912754D01*
X178573073Y-60866902D01*
X178573067Y-60866901D01*
X178536196Y-60864000D01*
X178536194Y-60864000D01*
X178104806Y-60864000D01*
X178104804Y-60864000D01*
X178067932Y-60866901D01*
X178067926Y-60866902D01*
X177910106Y-60912754D01*
X177910103Y-60912755D01*
X177761920Y-61000390D01*
X177760754Y-60998419D01*
X177706442Y-61019732D01*
X177637927Y-61006040D01*
X177629095Y-61000364D01*
X177629080Y-61000390D01*
X177480896Y-60912755D01*
X177480893Y-60912754D01*
X177323073Y-60866902D01*
X177323067Y-60866901D01*
X177286196Y-60864000D01*
X177286194Y-60864000D01*
X176854806Y-60864000D01*
X176854804Y-60864000D01*
X176817932Y-60866901D01*
X176817926Y-60866902D01*
X176660106Y-60912754D01*
X176660103Y-60912755D01*
X176511920Y-61000390D01*
X176510754Y-60998419D01*
X176456442Y-61019732D01*
X176387927Y-61006040D01*
X176379095Y-61000364D01*
X176379080Y-61000390D01*
X176230896Y-60912755D01*
X176230893Y-60912754D01*
X176073073Y-60866902D01*
X176073067Y-60866901D01*
X176036196Y-60864000D01*
X176036194Y-60864000D01*
X175604806Y-60864000D01*
X175604804Y-60864000D01*
X175567932Y-60866901D01*
X175567926Y-60866902D01*
X175410106Y-60912754D01*
X175410103Y-60912755D01*
X175261920Y-61000390D01*
X175260754Y-60998419D01*
X175206442Y-61019732D01*
X175137927Y-61006040D01*
X175129095Y-61000364D01*
X175129080Y-61000390D01*
X174980896Y-60912755D01*
X174980893Y-60912754D01*
X174823073Y-60866902D01*
X174823067Y-60866901D01*
X174786196Y-60864000D01*
X174786194Y-60864000D01*
X174354806Y-60864000D01*
X174354804Y-60864000D01*
X174317932Y-60866901D01*
X174317926Y-60866902D01*
X174160106Y-60912754D01*
X174160103Y-60912755D01*
X174011920Y-61000390D01*
X174010754Y-60998419D01*
X173956442Y-61019732D01*
X173887927Y-61006040D01*
X173879095Y-61000364D01*
X173879080Y-61000390D01*
X173730896Y-60912755D01*
X173730893Y-60912754D01*
X173573073Y-60866902D01*
X173573067Y-60866901D01*
X173536196Y-60864000D01*
X173536194Y-60864000D01*
X173104806Y-60864000D01*
X173104804Y-60864000D01*
X173067932Y-60866901D01*
X173067926Y-60866902D01*
X172910106Y-60912754D01*
X172910103Y-60912755D01*
X172761920Y-61000390D01*
X172760754Y-60998419D01*
X172706442Y-61019732D01*
X172637927Y-61006040D01*
X172629095Y-61000364D01*
X172629080Y-61000390D01*
X172480896Y-60912755D01*
X172480893Y-60912754D01*
X172323073Y-60866902D01*
X172323067Y-60866901D01*
X172286196Y-60864000D01*
X172286194Y-60864000D01*
X171854806Y-60864000D01*
X171854804Y-60864000D01*
X171817932Y-60866901D01*
X171817926Y-60866902D01*
X171660106Y-60912754D01*
X171660103Y-60912755D01*
X171518637Y-60996417D01*
X171518629Y-60996423D01*
X171402423Y-61112629D01*
X171402417Y-61112637D01*
X171318755Y-61254103D01*
X171318754Y-61254106D01*
X171272902Y-61411926D01*
X171272901Y-61411932D01*
X171270000Y-61448804D01*
X171270000Y-62880196D01*
X171272901Y-62917067D01*
X171272902Y-62917073D01*
X171318754Y-63074893D01*
X171318755Y-63074896D01*
X171318756Y-63074898D01*
X171402419Y-63216365D01*
X171408679Y-63222625D01*
X171442165Y-63283945D01*
X171445000Y-63310308D01*
X171445000Y-69498755D01*
X171443275Y-69514372D01*
X171443561Y-69514399D01*
X171442826Y-69522165D01*
X171445000Y-69591314D01*
X171445000Y-69620843D01*
X171445001Y-69620860D01*
X171445868Y-69627731D01*
X171446326Y-69633550D01*
X171447790Y-69680124D01*
X171447791Y-69680127D01*
X171453380Y-69699367D01*
X171457324Y-69718411D01*
X171459836Y-69738291D01*
X171476990Y-69781619D01*
X171478882Y-69787147D01*
X171491881Y-69831888D01*
X171502080Y-69849134D01*
X171510638Y-69866603D01*
X171518014Y-69885232D01*
X171545398Y-69922923D01*
X171548606Y-69927807D01*
X171572327Y-69967916D01*
X171572333Y-69967924D01*
X171586490Y-69982080D01*
X171599128Y-69996876D01*
X171610905Y-70013086D01*
X171610906Y-70013087D01*
X171646809Y-70042788D01*
X171651120Y-70046710D01*
X176674884Y-75070475D01*
X178293673Y-76689264D01*
X178303498Y-76701527D01*
X178303719Y-76701345D01*
X178308690Y-76707354D01*
X178332964Y-76730148D01*
X178359111Y-76754702D01*
X178380005Y-76775596D01*
X178385487Y-76779849D01*
X178389919Y-76783633D01*
X178423894Y-76815538D01*
X178441452Y-76825190D01*
X178457709Y-76835869D01*
X178473540Y-76848149D01*
X178493213Y-76856662D01*
X178516309Y-76866658D01*
X178521553Y-76869226D01*
X178562384Y-76891673D01*
X178574999Y-76894911D01*
X178581781Y-76896653D01*
X178600195Y-76902957D01*
X178618580Y-76910914D01*
X178664633Y-76918208D01*
X178670302Y-76919382D01*
X178715457Y-76930976D01*
X178735492Y-76930976D01*
X178754889Y-76932502D01*
X178774672Y-76935636D01*
X178821059Y-76931251D01*
X178826898Y-76930976D01*
X179817781Y-76930976D01*
X179884820Y-76950661D01*
X179919356Y-76983853D01*
X180031923Y-77144617D01*
X180192827Y-77305521D01*
X180192830Y-77305523D01*
X180379235Y-77436044D01*
X180585473Y-77532215D01*
X180805277Y-77591111D01*
X181025585Y-77610385D01*
X181090653Y-77635837D01*
X181131632Y-77692428D01*
X181138305Y-77723104D01*
X181142942Y-77776109D01*
X181142944Y-77776118D01*
X181201836Y-77995909D01*
X181201839Y-77995918D01*
X181298009Y-78202153D01*
X181298010Y-78202155D01*
X181428532Y-78388562D01*
X181589436Y-78549466D01*
X181589439Y-78549468D01*
X181775844Y-78679989D01*
X181982082Y-78776160D01*
X182201886Y-78835056D01*
X182363808Y-78849222D01*
X182428576Y-78854889D01*
X182428578Y-78854889D01*
X182428580Y-78854889D01*
X182485250Y-78849930D01*
X182655270Y-78835056D01*
X182875074Y-78776160D01*
X183081312Y-78679989D01*
X183214785Y-78586530D01*
X183280988Y-78564205D01*
X183348755Y-78581215D01*
X183373582Y-78600422D01*
X183455177Y-78682017D01*
X183641582Y-78812538D01*
X183847820Y-78908709D01*
X184067624Y-78967605D01*
X184229546Y-78981771D01*
X184294314Y-78987438D01*
X184294316Y-78987438D01*
X184294318Y-78987438D01*
X184350989Y-78982479D01*
X184521008Y-78967605D01*
X184740812Y-78908709D01*
X184947050Y-78812538D01*
X185133455Y-78682017D01*
X185280851Y-78534620D01*
X185342173Y-78501137D01*
X185368531Y-78498303D01*
X186277599Y-78498303D01*
X186293219Y-78500027D01*
X186293246Y-78499742D01*
X186301002Y-78500474D01*
X186301009Y-78500476D01*
X186370156Y-78498303D01*
X186399692Y-78498303D01*
X186406570Y-78497433D01*
X186412383Y-78496975D01*
X186458969Y-78495512D01*
X186478211Y-78489920D01*
X186497254Y-78485977D01*
X186517134Y-78483467D01*
X186560464Y-78466310D01*
X186565988Y-78464420D01*
X186569738Y-78463330D01*
X186610732Y-78451421D01*
X186627971Y-78441225D01*
X186645445Y-78432665D01*
X186664069Y-78425291D01*
X186664069Y-78425290D01*
X186664074Y-78425289D01*
X186701791Y-78397885D01*
X186706647Y-78394695D01*
X186746762Y-78370973D01*
X186760931Y-78356802D01*
X186775721Y-78344171D01*
X186791929Y-78332397D01*
X186821641Y-78296479D01*
X186825554Y-78292179D01*
X188064651Y-77053083D01*
X188076906Y-77043267D01*
X188076723Y-77043045D01*
X188082730Y-77038073D01*
X188082741Y-77038067D01*
X188113639Y-77005163D01*
X188130091Y-76987645D01*
X188140535Y-76977199D01*
X188150984Y-76966752D01*
X188155243Y-76961259D01*
X188159016Y-76956842D01*
X188190926Y-76922863D01*
X188200577Y-76905305D01*
X188211258Y-76889046D01*
X188214860Y-76884401D01*
X188271502Y-76843498D01*
X188338616Y-76839116D01*
X188373354Y-76846500D01*
X188373355Y-76846500D01*
X188562644Y-76846500D01*
X188562646Y-76846500D01*
X188747803Y-76807144D01*
X188920730Y-76730151D01*
X189073871Y-76618888D01*
X189200533Y-76478216D01*
X189295179Y-76314284D01*
X189353674Y-76134256D01*
X189373460Y-75946000D01*
X189353674Y-75757744D01*
X189295179Y-75577716D01*
X189200533Y-75413784D01*
X189125350Y-75330284D01*
X189095120Y-75267292D01*
X189093500Y-75247312D01*
X189093500Y-72345737D01*
X189095224Y-72330123D01*
X189094938Y-72330096D01*
X189095672Y-72322333D01*
X189093500Y-72253203D01*
X189093500Y-72223651D01*
X189093500Y-72223650D01*
X189092629Y-72216759D01*
X189092172Y-72210945D01*
X189090709Y-72164372D01*
X189085122Y-72145144D01*
X189081174Y-72126084D01*
X189078664Y-72106208D01*
X189061507Y-72062875D01*
X189059619Y-72057359D01*
X189046619Y-72012612D01*
X189036418Y-71995363D01*
X189027860Y-71977894D01*
X189020486Y-71959268D01*
X189020483Y-71959264D01*
X189020483Y-71959263D01*
X188993098Y-71921571D01*
X188989890Y-71916687D01*
X188966172Y-71876582D01*
X188966163Y-71876571D01*
X188952005Y-71862413D01*
X188939370Y-71847620D01*
X188927593Y-71831412D01*
X188891693Y-71801713D01*
X188887381Y-71797790D01*
X186190994Y-69101403D01*
X186157509Y-69040080D01*
X186162493Y-68970388D01*
X186204365Y-68914455D01*
X186242674Y-68895064D01*
X186312727Y-68873814D01*
X186486538Y-68780910D01*
X186638883Y-68655883D01*
X186763910Y-68503538D01*
X186856814Y-68329727D01*
X186914024Y-68141132D01*
X186922871Y-68051299D01*
X186949031Y-67986513D01*
X186958584Y-67975782D01*
X187506538Y-67427828D01*
X187520153Y-67416062D01*
X187539426Y-67401714D01*
X187573019Y-67361678D01*
X187576653Y-67357712D01*
X187582486Y-67351881D01*
X187602823Y-67326159D01*
X187606733Y-67321500D01*
X187608058Y-67319919D01*
X187652198Y-67267318D01*
X187652200Y-67267313D01*
X187656168Y-67261283D01*
X187656219Y-67261316D01*
X187660265Y-67254964D01*
X187660213Y-67254932D01*
X187664005Y-67248783D01*
X187664007Y-67248781D01*
X187696465Y-67179173D01*
X187730936Y-67110537D01*
X187730939Y-67110521D01*
X187733406Y-67103748D01*
X187733464Y-67103769D01*
X187735939Y-67096650D01*
X187735881Y-67096631D01*
X187738152Y-67089776D01*
X187753680Y-67014571D01*
X187768222Y-66953216D01*
X187771396Y-66939825D01*
X187771396Y-66939824D01*
X187772235Y-66932652D01*
X187772293Y-66932658D01*
X187773060Y-66925160D01*
X187773000Y-66925155D01*
X187773629Y-66917964D01*
X187773525Y-66914405D01*
X187771396Y-66841206D01*
X187771396Y-64027905D01*
X187791081Y-63960867D01*
X187843885Y-63915112D01*
X187913043Y-63905168D01*
X187973435Y-63931543D01*
X187977660Y-63934965D01*
X188151004Y-64023288D01*
X188338922Y-64073641D01*
X188387402Y-64077456D01*
X188419720Y-64080000D01*
X188419722Y-64080000D01*
X190099280Y-64080000D01*
X190126211Y-64077880D01*
X190180078Y-64073641D01*
X190367996Y-64023288D01*
X190541340Y-63934965D01*
X190692532Y-63812532D01*
X190814965Y-63661340D01*
X190903288Y-63487996D01*
X190953641Y-63300078D01*
X190960000Y-63219278D01*
X190960000Y-62239722D01*
X190953641Y-62158922D01*
X190903288Y-61971004D01*
X190814965Y-61797660D01*
X190692532Y-61646468D01*
X190541340Y-61524035D01*
X190367996Y-61435712D01*
X190180078Y-61385359D01*
X190180077Y-61385358D01*
X190180074Y-61385358D01*
X190099280Y-61379000D01*
X190099278Y-61379000D01*
X189275912Y-61379000D01*
X189208873Y-61359315D01*
X189163118Y-61306511D01*
X189153174Y-61237353D01*
X189180924Y-61175293D01*
X189226301Y-61121215D01*
X189230272Y-61115179D01*
X189230323Y-61115212D01*
X189234369Y-61108860D01*
X189234317Y-61108828D01*
X189238109Y-61102679D01*
X189238111Y-61102677D01*
X189270569Y-61033069D01*
X189305040Y-60964433D01*
X189305043Y-60964417D01*
X189307510Y-60957644D01*
X189307568Y-60957665D01*
X189310043Y-60950546D01*
X189309985Y-60950527D01*
X189312256Y-60943672D01*
X189318640Y-60912756D01*
X189327784Y-60868467D01*
X189345500Y-60793721D01*
X189345500Y-60793720D01*
X189346339Y-60786548D01*
X189346397Y-60786554D01*
X189347164Y-60779056D01*
X189347104Y-60779051D01*
X189347733Y-60771860D01*
X189345500Y-60695103D01*
X189345500Y-59880705D01*
X189346809Y-59862735D01*
X189347223Y-59859905D01*
X189350289Y-59838977D01*
X189345735Y-59786933D01*
X189345500Y-59781532D01*
X189345500Y-59773297D01*
X189345500Y-59773296D01*
X189345500Y-59773291D01*
X189341691Y-59740707D01*
X189334998Y-59664202D01*
X189334996Y-59664197D01*
X189333538Y-59657133D01*
X189333597Y-59657120D01*
X189331967Y-59649764D01*
X189331908Y-59649779D01*
X189330241Y-59642751D01*
X189330241Y-59642745D01*
X189303966Y-59570556D01*
X189279813Y-59497665D01*
X189279808Y-59497658D01*
X189276760Y-59491119D01*
X189276815Y-59491092D01*
X189273529Y-59484305D01*
X189273476Y-59484332D01*
X189270238Y-59477883D01*
X189228023Y-59413700D01*
X189187709Y-59348341D01*
X189183233Y-59342681D01*
X189183280Y-59342643D01*
X189178519Y-59336799D01*
X189178474Y-59336838D01*
X189173834Y-59331309D01*
X189173832Y-59331307D01*
X189173830Y-59331304D01*
X189143061Y-59302275D01*
X189117966Y-59278598D01*
X188583229Y-58743861D01*
X188571449Y-58730230D01*
X188563982Y-58720201D01*
X188557112Y-58710972D01*
X188517385Y-58677637D01*
X188517087Y-58677386D01*
X188513112Y-58673744D01*
X188510190Y-58670822D01*
X188507280Y-58667911D01*
X188481540Y-58647559D01*
X188422709Y-58598194D01*
X188416680Y-58594229D01*
X188416712Y-58594180D01*
X188410353Y-58590128D01*
X188410322Y-58590179D01*
X188404180Y-58586391D01*
X188404178Y-58586390D01*
X188404177Y-58586389D01*
X188360939Y-58566226D01*
X188308501Y-58520054D01*
X188289350Y-58452860D01*
X188309567Y-58385979D01*
X188362732Y-58340645D01*
X188418219Y-58329941D01*
X188419719Y-58329999D01*
X188419722Y-58330000D01*
X188419725Y-58330000D01*
X190099280Y-58330000D01*
X190126211Y-58327880D01*
X190180078Y-58323641D01*
X190367996Y-58273288D01*
X190541340Y-58184965D01*
X190692532Y-58062532D01*
X190814965Y-57911340D01*
X190903288Y-57737996D01*
X190953641Y-57550078D01*
X190960000Y-57469278D01*
X190960000Y-56489722D01*
X190959813Y-56487351D01*
X190953641Y-56408925D01*
X190953641Y-56408922D01*
X190903288Y-56221004D01*
X190814965Y-56047660D01*
X190802068Y-56031734D01*
X190775178Y-55967248D01*
X190787421Y-55898459D01*
X190834910Y-55847209D01*
X190898436Y-55829700D01*
X195974297Y-55829700D01*
X195979697Y-55829936D01*
X195987490Y-55830616D01*
X196022527Y-55833679D01*
X196148773Y-55846102D01*
X196168694Y-55849725D01*
X196235367Y-55867585D01*
X196275610Y-55879791D01*
X196328583Y-55895858D01*
X196344988Y-55902133D01*
X196412413Y-55933570D01*
X196415381Y-55935054D01*
X196499361Y-55979938D01*
X196505681Y-55983820D01*
X196560985Y-56022542D01*
X196571843Y-56030145D01*
X196575615Y-56033006D01*
X196647842Y-56092280D01*
X196652354Y-56096369D01*
X196709829Y-56153844D01*
X196713918Y-56158356D01*
X196773192Y-56230583D01*
X196776053Y-56234355D01*
X196822370Y-56300504D01*
X196826266Y-56306847D01*
X196871128Y-56390785D01*
X196872640Y-56393810D01*
X196904063Y-56461205D01*
X196910340Y-56477614D01*
X196938621Y-56570858D01*
X196956470Y-56637494D01*
X196960097Y-56657434D01*
X196972527Y-56783749D01*
X196976264Y-56826504D01*
X196976500Y-56831906D01*
X196976500Y-86576489D01*
X196976264Y-86581897D01*
X196972523Y-86624645D01*
X196960082Y-86750960D01*
X196956454Y-86770899D01*
X196938601Y-86837530D01*
X196910318Y-86930763D01*
X196904040Y-86947171D01*
X196872614Y-87014567D01*
X196871101Y-87017593D01*
X196826236Y-87101527D01*
X196822341Y-87107867D01*
X196776015Y-87174028D01*
X196773154Y-87177800D01*
X196713895Y-87250008D01*
X196709806Y-87254520D01*
X196652320Y-87312006D01*
X196647808Y-87316095D01*
X196575600Y-87375354D01*
X196571828Y-87378215D01*
X196505667Y-87424541D01*
X196499327Y-87428436D01*
X196415393Y-87473301D01*
X196412367Y-87474814D01*
X196344971Y-87506240D01*
X196328563Y-87512518D01*
X196235330Y-87540801D01*
X196168699Y-87558654D01*
X196148761Y-87562282D01*
X196022495Y-87574719D01*
X195979787Y-87578455D01*
X195974204Y-87578690D01*
X171455528Y-87506679D01*
X169455420Y-87500805D01*
X169454568Y-87500552D01*
X169406561Y-87500648D01*
X169401137Y-87500421D01*
X169359492Y-87496850D01*
X169231522Y-87484433D01*
X169211589Y-87480837D01*
X169146764Y-87463574D01*
X169051403Y-87434804D01*
X169034966Y-87428541D01*
X168968719Y-87397758D01*
X168965689Y-87396248D01*
X168880285Y-87350739D01*
X168873933Y-87346848D01*
X168824051Y-87312006D01*
X168808639Y-87301240D01*
X168804870Y-87298387D01*
X168731486Y-87238293D01*
X168726966Y-87234205D01*
X168670172Y-87177518D01*
X168666087Y-87173019D01*
X168634643Y-87134770D01*
X168605859Y-87099755D01*
X168602992Y-87095982D01*
X168557246Y-87030757D01*
X168553348Y-87024421D01*
X168507667Y-86939085D01*
X168506176Y-86936107D01*
X168475253Y-86869890D01*
X168468968Y-86853487D01*
X168440008Y-86758156D01*
X168422632Y-86693396D01*
X168418999Y-86673456D01*
X168405984Y-86541548D01*
X168402735Y-86504477D01*
X168402499Y-86499097D01*
X168402499Y-61284044D01*
X168422184Y-61217006D01*
X168474988Y-61171251D01*
X168544146Y-61161307D01*
X168607702Y-61190332D01*
X168622863Y-61206007D01*
X168737468Y-61347532D01*
X168888660Y-61469965D01*
X169062004Y-61558288D01*
X169249922Y-61608641D01*
X169298401Y-61612456D01*
X169330720Y-61615000D01*
X169330722Y-61615000D01*
X170310280Y-61615000D01*
X170337211Y-61612880D01*
X170391078Y-61608641D01*
X170578996Y-61558288D01*
X170752340Y-61469965D01*
X170903532Y-61347532D01*
X171025965Y-61196340D01*
X171114288Y-61022996D01*
X171164641Y-60835078D01*
X171171000Y-60754280D01*
X181820000Y-60754280D01*
X181826358Y-60835074D01*
X181826358Y-60835077D01*
X181826359Y-60835078D01*
X181876712Y-61022996D01*
X181965035Y-61196340D01*
X182087468Y-61347532D01*
X182238660Y-61469965D01*
X182412004Y-61558288D01*
X182599922Y-61608641D01*
X182648401Y-61612456D01*
X182680720Y-61615000D01*
X182680722Y-61615000D01*
X183660280Y-61615000D01*
X183687211Y-61612880D01*
X183741078Y-61608641D01*
X183928996Y-61558288D01*
X184102340Y-61469965D01*
X184253532Y-61347532D01*
X184375965Y-61196340D01*
X184464288Y-61022996D01*
X184514641Y-60835078D01*
X184521000Y-60754278D01*
X184521000Y-59074722D01*
X184514641Y-58993922D01*
X184464288Y-58806004D01*
X184375965Y-58632660D01*
X184253532Y-58481468D01*
X184102340Y-58359035D01*
X183928996Y-58270712D01*
X183741078Y-58220359D01*
X183741077Y-58220358D01*
X183741074Y-58220358D01*
X183660280Y-58214000D01*
X183660278Y-58214000D01*
X182680722Y-58214000D01*
X182680720Y-58214000D01*
X182599925Y-58220358D01*
X182412004Y-58270712D01*
X182238661Y-58359034D01*
X182087468Y-58481468D01*
X181965034Y-58632661D01*
X181876712Y-58806004D01*
X181826358Y-58993925D01*
X181820000Y-59074720D01*
X181820000Y-60754280D01*
X171171000Y-60754280D01*
X171171000Y-60754278D01*
X171171000Y-59074722D01*
X171164641Y-58993922D01*
X171114288Y-58806004D01*
X171025965Y-58632660D01*
X170903532Y-58481468D01*
X170752340Y-58359035D01*
X170578996Y-58270712D01*
X170391078Y-58220359D01*
X170391077Y-58220358D01*
X170391074Y-58220358D01*
X170310280Y-58214000D01*
X170310278Y-58214000D01*
X169330722Y-58214000D01*
X169330720Y-58214000D01*
X169249925Y-58220358D01*
X169062004Y-58270712D01*
X168888661Y-58359034D01*
X168798678Y-58431901D01*
X168737468Y-58481468D01*
X168649436Y-58590179D01*
X168622865Y-58622991D01*
X168565378Y-58662702D01*
X168495547Y-58665030D01*
X168435543Y-58629234D01*
X168404417Y-58566681D01*
X168402499Y-58544955D01*
X168402499Y-56831904D01*
X168402735Y-56826498D01*
X168406476Y-56783749D01*
X168418918Y-56657421D01*
X168422542Y-56637509D01*
X168440402Y-56570853D01*
X168468683Y-56477624D01*
X168474953Y-56461237D01*
X168506420Y-56393758D01*
X168507872Y-56390853D01*
X168552764Y-56306866D01*
X168556657Y-56300531D01*
X168589854Y-56253121D01*
X168602994Y-56234355D01*
X168605827Y-56230620D01*
X168665122Y-56158368D01*
X168669162Y-56153910D01*
X168726710Y-56096362D01*
X168731168Y-56092322D01*
X168803420Y-56033027D01*
X168807155Y-56030194D01*
X168873334Y-55983854D01*
X168879666Y-55979964D01*
X168963659Y-55935070D01*
X168966559Y-55933619D01*
X169034037Y-55902153D01*
X169050424Y-55895883D01*
X169143653Y-55867602D01*
X169210309Y-55849742D01*
X169230223Y-55846118D01*
X169356542Y-55833677D01*
X169399305Y-55829935D01*
X169404706Y-55829700D01*
X187620564Y-55829700D01*
X187687603Y-55849385D01*
G37*
%TD.AperFunction*%
%TA.AperFunction,Conductor*%
G36*
X172901203Y-66496639D02*
G01*
X172907681Y-66502671D01*
X179695867Y-73290858D01*
X179729352Y-73352181D01*
X179731714Y-73389345D01*
X179726460Y-73449404D01*
X179726460Y-73449409D01*
X179746292Y-73676094D01*
X179746294Y-73676105D01*
X179805186Y-73895896D01*
X179805189Y-73895905D01*
X179901359Y-74102140D01*
X179901360Y-74102142D01*
X180031882Y-74288549D01*
X180192786Y-74449453D01*
X180192789Y-74449455D01*
X180379194Y-74579976D01*
X180585432Y-74676147D01*
X180805236Y-74735043D01*
X181020953Y-74753915D01*
X181027882Y-74756626D01*
X181029320Y-74755871D01*
X181042942Y-74753912D01*
X181258620Y-74735043D01*
X181478424Y-74676147D01*
X181557970Y-74639053D01*
X181610374Y-74627436D01*
X181836147Y-74627436D01*
X181829610Y-74639892D01*
X181790962Y-74796690D01*
X181790962Y-74958182D01*
X181829610Y-75114980D01*
X181836147Y-75127436D01*
X181610390Y-75127436D01*
X181557985Y-75115818D01*
X181553459Y-75113707D01*
X181478465Y-75078737D01*
X181478461Y-75078736D01*
X181478457Y-75078734D01*
X181258666Y-75019842D01*
X181258656Y-75019840D01*
X181042944Y-75000968D01*
X181036013Y-74998256D01*
X181034577Y-74999012D01*
X181020952Y-75000971D01*
X180805281Y-75019840D01*
X180805271Y-75019842D01*
X180585480Y-75078734D01*
X180585471Y-75078737D01*
X180379236Y-75174907D01*
X180379234Y-75174908D01*
X180192827Y-75305430D01*
X180031923Y-75466334D01*
X179919356Y-75627099D01*
X179864780Y-75670724D01*
X179817781Y-75679976D01*
X179104928Y-75679976D01*
X179037889Y-75660291D01*
X179017247Y-75643657D01*
X172732319Y-69358728D01*
X172698834Y-69297405D01*
X172696000Y-69271047D01*
X172696000Y-66590352D01*
X172715685Y-66523313D01*
X172768489Y-66477558D01*
X172837647Y-66467614D01*
X172901203Y-66496639D01*
G37*
%TD.AperFunction*%
%TD*%
M02*
