%TF.GenerationSoftware,KiCad,Pcbnew,8.0.7*%
%TF.CreationDate,2025-04-11T02:02:34-04:00*%
%TF.ProjectId,2M_3F,324d5f33-462e-46b6-9963-61645f706362,rev?*%
%TF.SameCoordinates,Original*%
%TF.FileFunction,Drillmap*%
%TF.FilePolarity,Positive*%
%FSLAX45Y45*%
G04 Gerber Fmt 4.5, Leading zero omitted, Abs format (unit mm)*
G04 Created by KiCad (PCBNEW 8.0.7) date 2025-04-11 02:02:34*
%MOMM*%
%LPD*%
G01*
G04 APERTURE LIST*
%ADD10C,0.050000*%
%ADD11C,0.200000*%
G04 APERTURE END LIST*
D10*
X10775000Y-5200000D02*
G75*
G02*
X10675000Y-5300000I-100000J0D01*
G01*
X9400000Y-5300000D02*
G75*
G02*
X9300000Y-5200000I0J100000D01*
G01*
X10775000Y-5150000D02*
X10775000Y-5200000D01*
X9300000Y-5150000D02*
X9300000Y-5200000D01*
X9050000Y-2600000D02*
G75*
G02*
X9150000Y-2500000I100000J0D01*
G01*
X8475000Y-3700000D02*
G75*
G02*
X8575000Y-3600000I100000J0D01*
G01*
X8575000Y-5050000D02*
G75*
G02*
X8475000Y-4950000I0J100000D01*
G01*
X10875000Y-5050000D02*
X11500000Y-5050000D01*
X10775000Y-5150000D02*
G75*
G02*
X10875000Y-5050000I100000J0D01*
G01*
X9050000Y-3500000D02*
G75*
G02*
X8950000Y-3600000I-100000J0D01*
G01*
X9050000Y-3500000D02*
X9050000Y-2600000D01*
X11500000Y-3600000D02*
X11125000Y-3600000D01*
X8950000Y-3600000D02*
X8575000Y-3600000D01*
X11125000Y-3600000D02*
G75*
G02*
X11025000Y-3500000I0J100000D01*
G01*
X10925000Y-2500000D02*
G75*
G02*
X11025000Y-2600000I0J-100000D01*
G01*
X11500000Y-3600000D02*
G75*
G02*
X11600000Y-3700000I0J-100000D01*
G01*
X8475000Y-4950000D02*
X8475000Y-3700000D01*
X11600000Y-3700000D02*
X11600000Y-4950000D01*
X10675000Y-5300000D02*
X9400000Y-5300000D01*
X11600000Y-4950000D02*
G75*
G02*
X11500000Y-5050000I-100000J0D01*
G01*
X9150000Y-2500000D02*
X10925000Y-2500000D01*
X9200000Y-5050000D02*
X8575000Y-5050000D01*
X11025000Y-3500000D02*
X11025000Y-2600000D01*
X9200000Y-5050000D02*
G75*
G02*
X9300000Y-5150000I0J-100000D01*
G01*
D11*
X8733277Y-5613984D02*
X8733277Y-5413984D01*
X8733277Y-5413984D02*
X8780896Y-5413984D01*
X8780896Y-5413984D02*
X8809467Y-5423508D01*
X8809467Y-5423508D02*
X8828515Y-5442555D01*
X8828515Y-5442555D02*
X8838039Y-5461603D01*
X8838039Y-5461603D02*
X8847563Y-5499698D01*
X8847563Y-5499698D02*
X8847563Y-5528270D01*
X8847563Y-5528270D02*
X8838039Y-5566365D01*
X8838039Y-5566365D02*
X8828515Y-5585412D01*
X8828515Y-5585412D02*
X8809467Y-5604460D01*
X8809467Y-5604460D02*
X8780896Y-5613984D01*
X8780896Y-5613984D02*
X8733277Y-5613984D01*
X8933277Y-5613984D02*
X8933277Y-5480650D01*
X8933277Y-5518746D02*
X8942801Y-5499698D01*
X8942801Y-5499698D02*
X8952324Y-5490174D01*
X8952324Y-5490174D02*
X8971372Y-5480650D01*
X8971372Y-5480650D02*
X8990420Y-5480650D01*
X9057086Y-5613984D02*
X9057086Y-5480650D01*
X9057086Y-5413984D02*
X9047563Y-5423508D01*
X9047563Y-5423508D02*
X9057086Y-5433031D01*
X9057086Y-5433031D02*
X9066610Y-5423508D01*
X9066610Y-5423508D02*
X9057086Y-5413984D01*
X9057086Y-5413984D02*
X9057086Y-5433031D01*
X9180896Y-5613984D02*
X9161848Y-5604460D01*
X9161848Y-5604460D02*
X9152324Y-5585412D01*
X9152324Y-5585412D02*
X9152324Y-5413984D01*
X9285658Y-5613984D02*
X9266610Y-5604460D01*
X9266610Y-5604460D02*
X9257086Y-5585412D01*
X9257086Y-5585412D02*
X9257086Y-5413984D01*
X9514229Y-5613984D02*
X9514229Y-5413984D01*
X9514229Y-5413984D02*
X9580896Y-5556841D01*
X9580896Y-5556841D02*
X9647563Y-5413984D01*
X9647563Y-5413984D02*
X9647563Y-5613984D01*
X9828515Y-5613984D02*
X9828515Y-5509222D01*
X9828515Y-5509222D02*
X9818991Y-5490174D01*
X9818991Y-5490174D02*
X9799944Y-5480650D01*
X9799944Y-5480650D02*
X9761848Y-5480650D01*
X9761848Y-5480650D02*
X9742801Y-5490174D01*
X9828515Y-5604460D02*
X9809467Y-5613984D01*
X9809467Y-5613984D02*
X9761848Y-5613984D01*
X9761848Y-5613984D02*
X9742801Y-5604460D01*
X9742801Y-5604460D02*
X9733277Y-5585412D01*
X9733277Y-5585412D02*
X9733277Y-5566365D01*
X9733277Y-5566365D02*
X9742801Y-5547317D01*
X9742801Y-5547317D02*
X9761848Y-5537793D01*
X9761848Y-5537793D02*
X9809467Y-5537793D01*
X9809467Y-5537793D02*
X9828515Y-5528270D01*
X9923753Y-5480650D02*
X9923753Y-5680650D01*
X9923753Y-5490174D02*
X9942801Y-5480650D01*
X9942801Y-5480650D02*
X9980896Y-5480650D01*
X9980896Y-5480650D02*
X9999944Y-5490174D01*
X9999944Y-5490174D02*
X10009467Y-5499698D01*
X10009467Y-5499698D02*
X10018991Y-5518746D01*
X10018991Y-5518746D02*
X10018991Y-5575889D01*
X10018991Y-5575889D02*
X10009467Y-5594936D01*
X10009467Y-5594936D02*
X9999944Y-5604460D01*
X9999944Y-5604460D02*
X9980896Y-5613984D01*
X9980896Y-5613984D02*
X9942801Y-5613984D01*
X9942801Y-5613984D02*
X9923753Y-5604460D01*
X10104705Y-5594936D02*
X10114229Y-5604460D01*
X10114229Y-5604460D02*
X10104705Y-5613984D01*
X10104705Y-5613984D02*
X10095182Y-5604460D01*
X10095182Y-5604460D02*
X10104705Y-5594936D01*
X10104705Y-5594936D02*
X10104705Y-5613984D01*
X10104705Y-5490174D02*
X10114229Y-5499698D01*
X10114229Y-5499698D02*
X10104705Y-5509222D01*
X10104705Y-5509222D02*
X10095182Y-5499698D01*
X10095182Y-5499698D02*
X10104705Y-5490174D01*
X10104705Y-5490174D02*
X10104705Y-5509222D01*
M02*
