%TF.GenerationSoftware,KiCad,Pcbnew,8.0.7*%
%TF.CreationDate,2025-04-20T01:00:07-04:00*%
%TF.ProjectId,2M_3F,324d5f33-462e-46b6-9963-61645f706362,rev?*%
%TF.SameCoordinates,Original*%
%TF.FileFunction,Profile,NP*%
%FSLAX46Y46*%
G04 Gerber Fmt 4.6, Leading zero omitted, Abs format (unit mm)*
G04 Created by KiCad (PCBNEW 8.0.7) date 2025-04-20 01:00:07*
%MOMM*%
%LPD*%
G01*
G04 APERTURE LIST*
%TA.AperFunction,Profile*%
%ADD10C,0.050000*%
%TD*%
G04 APERTURE END LIST*
D10*
X91400000Y-53000000D02*
G75*
G02*
X90400000Y-52000000I0J1000000D01*
G01*
X110200000Y-52000000D02*
G75*
G02*
X109200000Y-53000000I-1000000J0D01*
G01*
X89400000Y-43600000D02*
G75*
G02*
X90400000Y-44600000I0J-1000000D01*
G01*
X110200000Y-44625000D02*
G75*
G02*
X111200000Y-43625000I1000000J0D01*
G01*
X85000000Y-43600000D02*
X89400000Y-43600000D01*
X111200000Y-28625000D02*
G75*
G02*
X110200000Y-27625000I0J1000000D01*
G01*
X90400000Y-27512500D02*
G75*
G02*
X89400000Y-28512500I-1000000J0D01*
G01*
X84000000Y-29512500D02*
G75*
G02*
X85000000Y-28512500I1000000J0D01*
G01*
X111200000Y-43625000D02*
X115600000Y-43625000D01*
X90400000Y-44600000D02*
X90400000Y-52000000D01*
X90400000Y-27512500D02*
X90400000Y-26000000D01*
X115600000Y-28625000D02*
X111200000Y-28625000D01*
X89400000Y-28512500D02*
X85000000Y-28512500D01*
X90400000Y-26000000D02*
G75*
G02*
X91400000Y-25000000I1000000J0D01*
G01*
X110200000Y-44625000D02*
X110200000Y-52000000D01*
X84000000Y-42600000D02*
X84000000Y-29512500D01*
X116600000Y-29625000D02*
X116600000Y-42625000D01*
X116600000Y-42625000D02*
G75*
G02*
X115600000Y-43625000I-1000000J0D01*
G01*
X109200000Y-25000000D02*
G75*
G02*
X110200000Y-26000000I0J-1000000D01*
G01*
X109200000Y-53000000D02*
X91400000Y-53000000D01*
X91400000Y-25000000D02*
X109200000Y-25000000D01*
X110200000Y-27625000D02*
X110200000Y-26000000D01*
X85000000Y-43600000D02*
G75*
G02*
X84000000Y-42600000I0J1000000D01*
G01*
X115600000Y-28625000D02*
G75*
G02*
X116600000Y-29625000I0J-1000000D01*
G01*
M02*
