%TF.GenerationSoftware,KiCad,Pcbnew,8.0.7*%
%TF.CreationDate,2025-04-11T02:02:34-04:00*%
%TF.ProjectId,2M_3F,324d5f33-462e-46b6-9963-61645f706362,rev?*%
%TF.SameCoordinates,Original*%
%TF.FileFunction,Drillmap*%
%TF.FilePolarity,Positive*%
%FSLAX45Y45*%
G04 Gerber Fmt 4.5, Leading zero omitted, Abs format (unit mm)*
G04 Created by KiCad (PCBNEW 8.0.7) date 2025-04-11 02:02:34*
%MOMM*%
%LPD*%
G01*
G04 APERTURE LIST*
%ADD10C,0.050000*%
%ADD11C,0.200000*%
%ADD12C,0.100000*%
%ADD13C,0.125000*%
G04 APERTURE END LIST*
D10*
X10775000Y-5200000D02*
G75*
G02*
X10675000Y-5300000I-100000J0D01*
G01*
X9400000Y-5300000D02*
G75*
G02*
X9300000Y-5200000I0J100000D01*
G01*
X10775000Y-5150000D02*
X10775000Y-5200000D01*
X9300000Y-5150000D02*
X9300000Y-5200000D01*
X9050000Y-2600000D02*
G75*
G02*
X9150000Y-2500000I100000J0D01*
G01*
X8475000Y-3700000D02*
G75*
G02*
X8575000Y-3600000I100000J0D01*
G01*
X8575000Y-5050000D02*
G75*
G02*
X8475000Y-4950000I0J100000D01*
G01*
X10875000Y-5050000D02*
X11500000Y-5050000D01*
X10775000Y-5150000D02*
G75*
G02*
X10875000Y-5050000I100000J0D01*
G01*
X9050000Y-3500000D02*
G75*
G02*
X8950000Y-3600000I-100000J0D01*
G01*
X9050000Y-3500000D02*
X9050000Y-2600000D01*
X11500000Y-3600000D02*
X11125000Y-3600000D01*
X8950000Y-3600000D02*
X8575000Y-3600000D01*
X11125000Y-3600000D02*
G75*
G02*
X11025000Y-3500000I0J100000D01*
G01*
X10925000Y-2500000D02*
G75*
G02*
X11025000Y-2600000I0J-100000D01*
G01*
X11500000Y-3600000D02*
G75*
G02*
X11600000Y-3700000I0J-100000D01*
G01*
X8475000Y-4950000D02*
X8475000Y-3700000D01*
X11600000Y-3700000D02*
X11600000Y-4950000D01*
X10675000Y-5300000D02*
X9400000Y-5300000D01*
X11600000Y-4950000D02*
G75*
G02*
X11500000Y-5050000I-100000J0D01*
G01*
X9150000Y-2500000D02*
X10925000Y-2500000D01*
X9200000Y-5050000D02*
X8575000Y-5050000D01*
X11025000Y-3500000D02*
X11025000Y-2600000D01*
X9200000Y-5050000D02*
G75*
G02*
X9300000Y-5150000I0J-100000D01*
G01*
D11*
D12*
X8660000Y-3785000D02*
X8690000Y-3815000D01*
X8690000Y-3785000D02*
X8660000Y-3815000D01*
X8660000Y-3955000D02*
X8690000Y-3985000D01*
X8690000Y-3955000D02*
X8660000Y-3985000D01*
X8660000Y-4125000D02*
X8690000Y-4155000D01*
X8690000Y-4125000D02*
X8660000Y-4155000D01*
X8660000Y-4295000D02*
X8690000Y-4325000D01*
X8690000Y-4295000D02*
X8660000Y-4325000D01*
X8660000Y-4460000D02*
X8690000Y-4490000D01*
X8690000Y-4460000D02*
X8660000Y-4490000D01*
X8830000Y-4460000D02*
X8860000Y-4490000D01*
X8860000Y-4460000D02*
X8830000Y-4490000D01*
X9000000Y-4460000D02*
X9030000Y-4490000D01*
X9030000Y-4460000D02*
X9000000Y-4490000D01*
X9170000Y-4460000D02*
X9200000Y-4490000D01*
X9200000Y-4460000D02*
X9170000Y-4490000D01*
X9210000Y-3800000D02*
X9240000Y-3830000D01*
X9240000Y-3800000D02*
X9210000Y-3830000D01*
X9210000Y-3970000D02*
X9240000Y-4000000D01*
X9240000Y-3970000D02*
X9210000Y-4000000D01*
X9210000Y-4140000D02*
X9240000Y-4170000D01*
X9240000Y-4140000D02*
X9210000Y-4170000D01*
X9210000Y-4310000D02*
X9240000Y-4340000D01*
X9240000Y-4310000D02*
X9210000Y-4340000D01*
X9235000Y-2675000D02*
X9265000Y-2705000D01*
X9265000Y-2675000D02*
X9235000Y-2705000D01*
X9235000Y-2845000D02*
X9265000Y-2875000D01*
X9265000Y-2845000D02*
X9235000Y-2875000D01*
X9235000Y-3015000D02*
X9265000Y-3045000D01*
X9265000Y-3015000D02*
X9235000Y-3045000D01*
X9235000Y-3185000D02*
X9265000Y-3215000D01*
X9265000Y-3185000D02*
X9235000Y-3215000D01*
X9235000Y-3340000D02*
X9265000Y-3370000D01*
X9265000Y-3340000D02*
X9235000Y-3370000D01*
X9235000Y-3510000D02*
X9265000Y-3540000D01*
X9265000Y-3510000D02*
X9235000Y-3540000D01*
X9385000Y-4525000D02*
X9415000Y-4555000D01*
X9415000Y-4525000D02*
X9385000Y-4555000D01*
X9385000Y-4695000D02*
X9415000Y-4725000D01*
X9415000Y-4695000D02*
X9385000Y-4725000D01*
X9385000Y-4865000D02*
X9415000Y-4895000D01*
X9415000Y-4865000D02*
X9385000Y-4895000D01*
X9385000Y-5035000D02*
X9415000Y-5065000D01*
X9415000Y-5035000D02*
X9385000Y-5065000D01*
X9395000Y-4187500D02*
X9425000Y-4217500D01*
X9425000Y-4187500D02*
X9395000Y-4217500D01*
X9485000Y-3460000D02*
X9515000Y-3490000D01*
X9515000Y-3460000D02*
X9485000Y-3490000D01*
X9495000Y-4362500D02*
X9525000Y-4392500D01*
X9525000Y-4362500D02*
X9495000Y-4392500D01*
X9510000Y-3210000D02*
X9540000Y-3240000D01*
X9540000Y-3210000D02*
X9510000Y-3240000D01*
X9565000Y-4187500D02*
X9595000Y-4217500D01*
X9595000Y-4187500D02*
X9565000Y-4217500D01*
X9665000Y-4362500D02*
X9695000Y-4392500D01*
X9695000Y-4362500D02*
X9665000Y-4392500D01*
X9735000Y-3460000D02*
X9765000Y-3490000D01*
X9765000Y-3460000D02*
X9735000Y-3490000D01*
X9735000Y-4187500D02*
X9765000Y-4217500D01*
X9765000Y-4187500D02*
X9735000Y-4217500D01*
X9760000Y-3235000D02*
X9790000Y-3265000D01*
X9790000Y-3235000D02*
X9760000Y-3265000D01*
X9835000Y-4362500D02*
X9865000Y-4392500D01*
X9865000Y-4362500D02*
X9835000Y-4392500D01*
X9905000Y-4187500D02*
X9935000Y-4217500D01*
X9935000Y-4187500D02*
X9905000Y-4217500D01*
X10005000Y-4362500D02*
X10035000Y-4392500D01*
X10035000Y-4362500D02*
X10005000Y-4392500D01*
X10010000Y-3260000D02*
X10040000Y-3290000D01*
X10040000Y-3260000D02*
X10010000Y-3290000D01*
X10010000Y-3485000D02*
X10040000Y-3515000D01*
X10040000Y-3485000D02*
X10010000Y-3515000D01*
X10035000Y-4960000D02*
X10065000Y-4990000D01*
X10065000Y-4960000D02*
X10035000Y-4990000D01*
X10075000Y-4185000D02*
X10105000Y-4215000D01*
X10105000Y-4185000D02*
X10075000Y-4215000D01*
X10160000Y-2840000D02*
X10190000Y-2870000D01*
X10190000Y-2840000D02*
X10160000Y-2870000D01*
X10160000Y-3010000D02*
X10190000Y-3040000D01*
X10190000Y-3010000D02*
X10160000Y-3040000D01*
X10175000Y-4360000D02*
X10205000Y-4390000D01*
X10205000Y-4360000D02*
X10175000Y-4390000D01*
X10180000Y-3260000D02*
X10210000Y-3290000D01*
X10210000Y-3260000D02*
X10180000Y-3290000D01*
X10205000Y-4960000D02*
X10235000Y-4990000D01*
X10235000Y-4960000D02*
X10205000Y-4990000D01*
X10235000Y-3485000D02*
X10265000Y-3515000D01*
X10265000Y-3485000D02*
X10235000Y-3515000D01*
X10245000Y-4185000D02*
X10275000Y-4215000D01*
X10275000Y-4185000D02*
X10245000Y-4215000D01*
X10345000Y-4360000D02*
X10375000Y-4390000D01*
X10375000Y-4360000D02*
X10345000Y-4390000D01*
X10375000Y-4960000D02*
X10405000Y-4990000D01*
X10405000Y-4960000D02*
X10375000Y-4990000D01*
X10415000Y-4185000D02*
X10445000Y-4215000D01*
X10445000Y-4185000D02*
X10415000Y-4215000D01*
X10515000Y-4360000D02*
X10545000Y-4390000D01*
X10545000Y-4360000D02*
X10515000Y-4390000D01*
X10520000Y-3485000D02*
X10550000Y-3515000D01*
X10550000Y-3485000D02*
X10520000Y-3515000D01*
X10545000Y-4960000D02*
X10575000Y-4990000D01*
X10575000Y-4960000D02*
X10545000Y-4990000D01*
X10585000Y-4185000D02*
X10615000Y-4215000D01*
X10615000Y-4185000D02*
X10585000Y-4215000D01*
X10685000Y-4360000D02*
X10715000Y-4390000D01*
X10715000Y-4360000D02*
X10685000Y-4390000D01*
X10685000Y-4565000D02*
X10715000Y-4595000D01*
X10715000Y-4565000D02*
X10685000Y-4595000D01*
X10685000Y-4735000D02*
X10715000Y-4765000D01*
X10715000Y-4735000D02*
X10685000Y-4765000D01*
X10760000Y-2620000D02*
X10790000Y-2650000D01*
X10790000Y-2620000D02*
X10760000Y-2650000D01*
X10760000Y-2790000D02*
X10790000Y-2820000D01*
X10790000Y-2790000D02*
X10760000Y-2820000D01*
X10760000Y-2960000D02*
X10790000Y-2990000D01*
X10790000Y-2960000D02*
X10760000Y-2990000D01*
X10760000Y-3130000D02*
X10790000Y-3160000D01*
X10790000Y-3130000D02*
X10760000Y-3160000D01*
X10760000Y-3285000D02*
X10790000Y-3315000D01*
X10790000Y-3285000D02*
X10760000Y-3315000D01*
X10760000Y-3455000D02*
X10790000Y-3485000D01*
X10790000Y-3455000D02*
X10760000Y-3485000D01*
X10810000Y-3675000D02*
X10840000Y-3705000D01*
X10840000Y-3675000D02*
X10810000Y-3705000D01*
X10810000Y-3845000D02*
X10840000Y-3875000D01*
X10840000Y-3845000D02*
X10810000Y-3875000D01*
X10810000Y-4015000D02*
X10840000Y-4045000D01*
X10840000Y-4015000D02*
X10810000Y-4045000D01*
X10810000Y-4185000D02*
X10840000Y-4215000D01*
X10840000Y-4185000D02*
X10810000Y-4215000D01*
X10900000Y-4460000D02*
X10930000Y-4490000D01*
X10930000Y-4460000D02*
X10900000Y-4490000D01*
X11070000Y-4460000D02*
X11100000Y-4490000D01*
X11100000Y-4460000D02*
X11070000Y-4490000D01*
X11110000Y-3685000D02*
X11140000Y-3715000D01*
X11140000Y-3685000D02*
X11110000Y-3715000D01*
X11240000Y-4460000D02*
X11270000Y-4490000D01*
X11270000Y-4460000D02*
X11240000Y-4490000D01*
X11410000Y-4460000D02*
X11440000Y-4490000D01*
X11440000Y-4460000D02*
X11410000Y-4490000D01*
X11435000Y-4160000D02*
X11465000Y-4190000D01*
X11465000Y-4160000D02*
X11435000Y-4190000D01*
X11460000Y-3710000D02*
X11490000Y-3740000D01*
X11490000Y-3710000D02*
X11460000Y-3740000D01*
X11460000Y-4910000D02*
X11490000Y-4940000D01*
X11490000Y-4910000D02*
X11460000Y-4940000D01*
D13*
X8998750Y-4751250D02*
G75*
G02*
X8873750Y-4751250I-62500J0D01*
G01*
X8873750Y-4751250D02*
G75*
G02*
X8998750Y-4751250I62500J0D01*
G01*
D12*
X8798750Y-4813750D02*
X9073750Y-4813750D01*
X9073750Y-4688750D02*
G75*
G02*
X9073750Y-4813750I0J-62500D01*
G01*
X9073750Y-4688750D02*
X8798750Y-4688750D01*
X8798750Y-4688750D02*
G75*
G03*
X8798750Y-4813750I0J-62500D01*
G01*
D13*
X9060000Y-4087500D02*
G75*
G02*
X8935000Y-4087500I-62500J0D01*
G01*
X8935000Y-4087500D02*
G75*
G02*
X9060000Y-4087500I62500J0D01*
G01*
D12*
X8935000Y-3950000D02*
X8935000Y-4225000D01*
X9060000Y-4225000D02*
G75*
G02*
X8935000Y-4225000I-62500J0D01*
G01*
X9060000Y-4225000D02*
X9060000Y-3950000D01*
X9060000Y-3950000D02*
G75*
G03*
X8935000Y-3950000I-62500J0D01*
G01*
D13*
X9773750Y-3837500D02*
G75*
G02*
X9648750Y-3837500I-62500J0D01*
G01*
X9648750Y-3837500D02*
G75*
G02*
X9773750Y-3837500I62500J0D01*
G01*
D12*
X9648750Y-3700000D02*
X9648750Y-3975000D01*
X9773750Y-3975000D02*
G75*
G02*
X9648750Y-3975000I-62500J0D01*
G01*
X9773750Y-3975000D02*
X9773750Y-3700000D01*
X9773750Y-3700000D02*
G75*
G03*
X9648750Y-3700000I-62500J0D01*
G01*
D13*
X9783210Y-4765330D02*
G75*
G02*
X9658210Y-4765330I-62500J0D01*
G01*
X9658210Y-4765330D02*
G75*
G02*
X9783210Y-4765330I62500J0D01*
G01*
D12*
X9658210Y-4627830D02*
X9658210Y-4902830D01*
X9783210Y-4902830D02*
G75*
G02*
X9658210Y-4902830I-62500J0D01*
G01*
X9783210Y-4902830D02*
X9783210Y-4627830D01*
X9783210Y-4627830D02*
G75*
G03*
X9658210Y-4627830I-62500J0D01*
G01*
D13*
X9837500Y-2902500D02*
G75*
G02*
X9712500Y-2902500I-62500J0D01*
G01*
X9712500Y-2902500D02*
G75*
G02*
X9837500Y-2902500I62500J0D01*
G01*
D12*
X9637500Y-2965000D02*
X9912500Y-2965000D01*
X9912500Y-2840000D02*
G75*
G02*
X9912500Y-2965000I0J-62500D01*
G01*
X9912500Y-2840000D02*
X9637500Y-2840000D01*
X9637500Y-2840000D02*
G75*
G03*
X9637500Y-2965000I0J-62500D01*
G01*
D13*
X10337500Y-3776250D02*
G75*
G02*
X10212500Y-3776250I-62500J0D01*
G01*
X10212500Y-3776250D02*
G75*
G02*
X10337500Y-3776250I62500J0D01*
G01*
D12*
X10137500Y-3838750D02*
X10412500Y-3838750D01*
X10412500Y-3713750D02*
G75*
G02*
X10412500Y-3838750I0J-62500D01*
G01*
X10412500Y-3713750D02*
X10137500Y-3713750D01*
X10137500Y-3713750D02*
G75*
G03*
X10137500Y-3838750I0J-62500D01*
G01*
D13*
X10346960Y-4704080D02*
G75*
G02*
X10221960Y-4704080I-62500J0D01*
G01*
X10221960Y-4704080D02*
G75*
G02*
X10346960Y-4704080I62500J0D01*
G01*
D12*
X10146960Y-4766580D02*
X10421960Y-4766580D01*
X10421960Y-4641580D02*
G75*
G02*
X10421960Y-4766580I0J-62500D01*
G01*
X10421960Y-4641580D02*
X10146960Y-4641580D01*
X10146960Y-4641580D02*
G75*
G03*
X10146960Y-4766580I0J-62500D01*
G01*
D13*
X10501250Y-2963750D02*
G75*
G02*
X10376250Y-2963750I-62500J0D01*
G01*
X10376250Y-2963750D02*
G75*
G02*
X10501250Y-2963750I62500J0D01*
G01*
D12*
X10501250Y-3101250D02*
X10501250Y-2826250D01*
X10376250Y-2826250D02*
G75*
G02*
X10501250Y-2826250I62500J0D01*
G01*
X10376250Y-2826250D02*
X10376250Y-3101250D01*
X10376250Y-3101250D02*
G75*
G03*
X10501250Y-3101250I62500J0D01*
G01*
D13*
X11176250Y-4751250D02*
G75*
G02*
X11051250Y-4751250I-62500J0D01*
G01*
X11051250Y-4751250D02*
G75*
G02*
X11176250Y-4751250I62500J0D01*
G01*
D12*
X10976250Y-4813750D02*
X11251250Y-4813750D01*
X11251250Y-4688750D02*
G75*
G02*
X11251250Y-4813750I0J-62500D01*
G01*
X11251250Y-4688750D02*
X10976250Y-4688750D01*
X10976250Y-4688750D02*
G75*
G03*
X10976250Y-4813750I0J-62500D01*
G01*
D13*
X11237500Y-4087500D02*
G75*
G02*
X11112500Y-4087500I-62500J0D01*
G01*
X11112500Y-4087500D02*
G75*
G02*
X11237500Y-4087500I62500J0D01*
G01*
D12*
X11112500Y-3950000D02*
X11112500Y-4225000D01*
X11237500Y-4225000D02*
G75*
G02*
X11112500Y-4225000I-62500J0D01*
G01*
X11237500Y-4225000D02*
X11237500Y-3950000D01*
X11237500Y-3950000D02*
G75*
G03*
X11112500Y-3950000I-62500J0D01*
G01*
D11*
X8733277Y-5613984D02*
X8733277Y-5413984D01*
X8733277Y-5413984D02*
X8780896Y-5413984D01*
X8780896Y-5413984D02*
X8809467Y-5423508D01*
X8809467Y-5423508D02*
X8828515Y-5442555D01*
X8828515Y-5442555D02*
X8838039Y-5461603D01*
X8838039Y-5461603D02*
X8847563Y-5499698D01*
X8847563Y-5499698D02*
X8847563Y-5528270D01*
X8847563Y-5528270D02*
X8838039Y-5566365D01*
X8838039Y-5566365D02*
X8828515Y-5585412D01*
X8828515Y-5585412D02*
X8809467Y-5604460D01*
X8809467Y-5604460D02*
X8780896Y-5613984D01*
X8780896Y-5613984D02*
X8733277Y-5613984D01*
X8933277Y-5613984D02*
X8933277Y-5480650D01*
X8933277Y-5518746D02*
X8942801Y-5499698D01*
X8942801Y-5499698D02*
X8952324Y-5490174D01*
X8952324Y-5490174D02*
X8971372Y-5480650D01*
X8971372Y-5480650D02*
X8990420Y-5480650D01*
X9057086Y-5613984D02*
X9057086Y-5480650D01*
X9057086Y-5413984D02*
X9047563Y-5423508D01*
X9047563Y-5423508D02*
X9057086Y-5433031D01*
X9057086Y-5433031D02*
X9066610Y-5423508D01*
X9066610Y-5423508D02*
X9057086Y-5413984D01*
X9057086Y-5413984D02*
X9057086Y-5433031D01*
X9180896Y-5613984D02*
X9161848Y-5604460D01*
X9161848Y-5604460D02*
X9152324Y-5585412D01*
X9152324Y-5585412D02*
X9152324Y-5413984D01*
X9285658Y-5613984D02*
X9266610Y-5604460D01*
X9266610Y-5604460D02*
X9257086Y-5585412D01*
X9257086Y-5585412D02*
X9257086Y-5413984D01*
X9514229Y-5613984D02*
X9514229Y-5413984D01*
X9514229Y-5413984D02*
X9580896Y-5556841D01*
X9580896Y-5556841D02*
X9647563Y-5413984D01*
X9647563Y-5413984D02*
X9647563Y-5613984D01*
X9828515Y-5613984D02*
X9828515Y-5509222D01*
X9828515Y-5509222D02*
X9818991Y-5490174D01*
X9818991Y-5490174D02*
X9799944Y-5480650D01*
X9799944Y-5480650D02*
X9761848Y-5480650D01*
X9761848Y-5480650D02*
X9742801Y-5490174D01*
X9828515Y-5604460D02*
X9809467Y-5613984D01*
X9809467Y-5613984D02*
X9761848Y-5613984D01*
X9761848Y-5613984D02*
X9742801Y-5604460D01*
X9742801Y-5604460D02*
X9733277Y-5585412D01*
X9733277Y-5585412D02*
X9733277Y-5566365D01*
X9733277Y-5566365D02*
X9742801Y-5547317D01*
X9742801Y-5547317D02*
X9761848Y-5537793D01*
X9761848Y-5537793D02*
X9809467Y-5537793D01*
X9809467Y-5537793D02*
X9828515Y-5528270D01*
X9923753Y-5480650D02*
X9923753Y-5680650D01*
X9923753Y-5490174D02*
X9942801Y-5480650D01*
X9942801Y-5480650D02*
X9980896Y-5480650D01*
X9980896Y-5480650D02*
X9999944Y-5490174D01*
X9999944Y-5490174D02*
X10009467Y-5499698D01*
X10009467Y-5499698D02*
X10018991Y-5518746D01*
X10018991Y-5518746D02*
X10018991Y-5575889D01*
X10018991Y-5575889D02*
X10009467Y-5594936D01*
X10009467Y-5594936D02*
X9999944Y-5604460D01*
X9999944Y-5604460D02*
X9980896Y-5613984D01*
X9980896Y-5613984D02*
X9942801Y-5613984D01*
X9942801Y-5613984D02*
X9923753Y-5604460D01*
X10104705Y-5594936D02*
X10114229Y-5604460D01*
X10114229Y-5604460D02*
X10104705Y-5613984D01*
X10104705Y-5613984D02*
X10095182Y-5604460D01*
X10095182Y-5604460D02*
X10104705Y-5594936D01*
X10104705Y-5594936D02*
X10104705Y-5613984D01*
X10104705Y-5490174D02*
X10114229Y-5499698D01*
X10114229Y-5499698D02*
X10104705Y-5509222D01*
X10104705Y-5509222D02*
X10095182Y-5499698D01*
X10095182Y-5499698D02*
X10104705Y-5490174D01*
X10104705Y-5490174D02*
X10104705Y-5509222D01*
D12*
X8442500Y-5927500D02*
X8472500Y-5957500D01*
X8472500Y-5927500D02*
X8442500Y-5957500D01*
D11*
X8771372Y-5833984D02*
X8790420Y-5833984D01*
X8790420Y-5833984D02*
X8809467Y-5843508D01*
X8809467Y-5843508D02*
X8818991Y-5853031D01*
X8818991Y-5853031D02*
X8828515Y-5872079D01*
X8828515Y-5872079D02*
X8838039Y-5910174D01*
X8838039Y-5910174D02*
X8838039Y-5957793D01*
X8838039Y-5957793D02*
X8828515Y-5995888D01*
X8828515Y-5995888D02*
X8818991Y-6014936D01*
X8818991Y-6014936D02*
X8809467Y-6024460D01*
X8809467Y-6024460D02*
X8790420Y-6033984D01*
X8790420Y-6033984D02*
X8771372Y-6033984D01*
X8771372Y-6033984D02*
X8752324Y-6024460D01*
X8752324Y-6024460D02*
X8742801Y-6014936D01*
X8742801Y-6014936D02*
X8733277Y-5995888D01*
X8733277Y-5995888D02*
X8723753Y-5957793D01*
X8723753Y-5957793D02*
X8723753Y-5910174D01*
X8723753Y-5910174D02*
X8733277Y-5872079D01*
X8733277Y-5872079D02*
X8742801Y-5853031D01*
X8742801Y-5853031D02*
X8752324Y-5843508D01*
X8752324Y-5843508D02*
X8771372Y-5833984D01*
X8923753Y-6014936D02*
X8933277Y-6024460D01*
X8933277Y-6024460D02*
X8923753Y-6033984D01*
X8923753Y-6033984D02*
X8914229Y-6024460D01*
X8914229Y-6024460D02*
X8923753Y-6014936D01*
X8923753Y-6014936D02*
X8923753Y-6033984D01*
X8999944Y-5833984D02*
X9123753Y-5833984D01*
X9123753Y-5833984D02*
X9057086Y-5910174D01*
X9057086Y-5910174D02*
X9085658Y-5910174D01*
X9085658Y-5910174D02*
X9104705Y-5919698D01*
X9104705Y-5919698D02*
X9114229Y-5929222D01*
X9114229Y-5929222D02*
X9123753Y-5948269D01*
X9123753Y-5948269D02*
X9123753Y-5995888D01*
X9123753Y-5995888D02*
X9114229Y-6014936D01*
X9114229Y-6014936D02*
X9104705Y-6024460D01*
X9104705Y-6024460D02*
X9085658Y-6033984D01*
X9085658Y-6033984D02*
X9028515Y-6033984D01*
X9028515Y-6033984D02*
X9009467Y-6024460D01*
X9009467Y-6024460D02*
X8999944Y-6014936D01*
X9247563Y-5833984D02*
X9266610Y-5833984D01*
X9266610Y-5833984D02*
X9285658Y-5843508D01*
X9285658Y-5843508D02*
X9295182Y-5853031D01*
X9295182Y-5853031D02*
X9304705Y-5872079D01*
X9304705Y-5872079D02*
X9314229Y-5910174D01*
X9314229Y-5910174D02*
X9314229Y-5957793D01*
X9314229Y-5957793D02*
X9304705Y-5995888D01*
X9304705Y-5995888D02*
X9295182Y-6014936D01*
X9295182Y-6014936D02*
X9285658Y-6024460D01*
X9285658Y-6024460D02*
X9266610Y-6033984D01*
X9266610Y-6033984D02*
X9247563Y-6033984D01*
X9247563Y-6033984D02*
X9228515Y-6024460D01*
X9228515Y-6024460D02*
X9218991Y-6014936D01*
X9218991Y-6014936D02*
X9209467Y-5995888D01*
X9209467Y-5995888D02*
X9199944Y-5957793D01*
X9199944Y-5957793D02*
X9199944Y-5910174D01*
X9199944Y-5910174D02*
X9209467Y-5872079D01*
X9209467Y-5872079D02*
X9218991Y-5853031D01*
X9218991Y-5853031D02*
X9228515Y-5843508D01*
X9228515Y-5843508D02*
X9247563Y-5833984D01*
X9438039Y-5833984D02*
X9457086Y-5833984D01*
X9457086Y-5833984D02*
X9476134Y-5843508D01*
X9476134Y-5843508D02*
X9485658Y-5853031D01*
X9485658Y-5853031D02*
X9495182Y-5872079D01*
X9495182Y-5872079D02*
X9504705Y-5910174D01*
X9504705Y-5910174D02*
X9504705Y-5957793D01*
X9504705Y-5957793D02*
X9495182Y-5995888D01*
X9495182Y-5995888D02*
X9485658Y-6014936D01*
X9485658Y-6014936D02*
X9476134Y-6024460D01*
X9476134Y-6024460D02*
X9457086Y-6033984D01*
X9457086Y-6033984D02*
X9438039Y-6033984D01*
X9438039Y-6033984D02*
X9418991Y-6024460D01*
X9418991Y-6024460D02*
X9409467Y-6014936D01*
X9409467Y-6014936D02*
X9399944Y-5995888D01*
X9399944Y-5995888D02*
X9390420Y-5957793D01*
X9390420Y-5957793D02*
X9390420Y-5910174D01*
X9390420Y-5910174D02*
X9399944Y-5872079D01*
X9399944Y-5872079D02*
X9409467Y-5853031D01*
X9409467Y-5853031D02*
X9418991Y-5843508D01*
X9418991Y-5843508D02*
X9438039Y-5833984D01*
X9590420Y-6033984D02*
X9590420Y-5900650D01*
X9590420Y-5919698D02*
X9599944Y-5910174D01*
X9599944Y-5910174D02*
X9618991Y-5900650D01*
X9618991Y-5900650D02*
X9647563Y-5900650D01*
X9647563Y-5900650D02*
X9666610Y-5910174D01*
X9666610Y-5910174D02*
X9676134Y-5929222D01*
X9676134Y-5929222D02*
X9676134Y-6033984D01*
X9676134Y-5929222D02*
X9685658Y-5910174D01*
X9685658Y-5910174D02*
X9704705Y-5900650D01*
X9704705Y-5900650D02*
X9733277Y-5900650D01*
X9733277Y-5900650D02*
X9752325Y-5910174D01*
X9752325Y-5910174D02*
X9761848Y-5929222D01*
X9761848Y-5929222D02*
X9761848Y-6033984D01*
X9857086Y-6033984D02*
X9857086Y-5900650D01*
X9857086Y-5919698D02*
X9866610Y-5910174D01*
X9866610Y-5910174D02*
X9885658Y-5900650D01*
X9885658Y-5900650D02*
X9914229Y-5900650D01*
X9914229Y-5900650D02*
X9933277Y-5910174D01*
X9933277Y-5910174D02*
X9942801Y-5929222D01*
X9942801Y-5929222D02*
X9942801Y-6033984D01*
X9942801Y-5929222D02*
X9952325Y-5910174D01*
X9952325Y-5910174D02*
X9971372Y-5900650D01*
X9971372Y-5900650D02*
X9999944Y-5900650D01*
X9999944Y-5900650D02*
X10018991Y-5910174D01*
X10018991Y-5910174D02*
X10028515Y-5929222D01*
X10028515Y-5929222D02*
X10028515Y-6033984D01*
X10418991Y-5824460D02*
X10247563Y-6081603D01*
X10676134Y-5833984D02*
X10695182Y-5833984D01*
X10695182Y-5833984D02*
X10714229Y-5843508D01*
X10714229Y-5843508D02*
X10723753Y-5853031D01*
X10723753Y-5853031D02*
X10733277Y-5872079D01*
X10733277Y-5872079D02*
X10742801Y-5910174D01*
X10742801Y-5910174D02*
X10742801Y-5957793D01*
X10742801Y-5957793D02*
X10733277Y-5995888D01*
X10733277Y-5995888D02*
X10723753Y-6014936D01*
X10723753Y-6014936D02*
X10714229Y-6024460D01*
X10714229Y-6024460D02*
X10695182Y-6033984D01*
X10695182Y-6033984D02*
X10676134Y-6033984D01*
X10676134Y-6033984D02*
X10657087Y-6024460D01*
X10657087Y-6024460D02*
X10647563Y-6014936D01*
X10647563Y-6014936D02*
X10638039Y-5995888D01*
X10638039Y-5995888D02*
X10628515Y-5957793D01*
X10628515Y-5957793D02*
X10628515Y-5910174D01*
X10628515Y-5910174D02*
X10638039Y-5872079D01*
X10638039Y-5872079D02*
X10647563Y-5853031D01*
X10647563Y-5853031D02*
X10657087Y-5843508D01*
X10657087Y-5843508D02*
X10676134Y-5833984D01*
X10828515Y-6014936D02*
X10838039Y-6024460D01*
X10838039Y-6024460D02*
X10828515Y-6033984D01*
X10828515Y-6033984D02*
X10818991Y-6024460D01*
X10818991Y-6024460D02*
X10828515Y-6014936D01*
X10828515Y-6014936D02*
X10828515Y-6033984D01*
X10961848Y-5833984D02*
X10980896Y-5833984D01*
X10980896Y-5833984D02*
X10999944Y-5843508D01*
X10999944Y-5843508D02*
X11009468Y-5853031D01*
X11009468Y-5853031D02*
X11018991Y-5872079D01*
X11018991Y-5872079D02*
X11028515Y-5910174D01*
X11028515Y-5910174D02*
X11028515Y-5957793D01*
X11028515Y-5957793D02*
X11018991Y-5995888D01*
X11018991Y-5995888D02*
X11009468Y-6014936D01*
X11009468Y-6014936D02*
X10999944Y-6024460D01*
X10999944Y-6024460D02*
X10980896Y-6033984D01*
X10980896Y-6033984D02*
X10961848Y-6033984D01*
X10961848Y-6033984D02*
X10942801Y-6024460D01*
X10942801Y-6024460D02*
X10933277Y-6014936D01*
X10933277Y-6014936D02*
X10923753Y-5995888D01*
X10923753Y-5995888D02*
X10914229Y-5957793D01*
X10914229Y-5957793D02*
X10914229Y-5910174D01*
X10914229Y-5910174D02*
X10923753Y-5872079D01*
X10923753Y-5872079D02*
X10933277Y-5853031D01*
X10933277Y-5853031D02*
X10942801Y-5843508D01*
X10942801Y-5843508D02*
X10961848Y-5833984D01*
X11218991Y-6033984D02*
X11104706Y-6033984D01*
X11161848Y-6033984D02*
X11161848Y-5833984D01*
X11161848Y-5833984D02*
X11142801Y-5862555D01*
X11142801Y-5862555D02*
X11123753Y-5881603D01*
X11123753Y-5881603D02*
X11104706Y-5891127D01*
X11409467Y-6033984D02*
X11295182Y-6033984D01*
X11352325Y-6033984D02*
X11352325Y-5833984D01*
X11352325Y-5833984D02*
X11333277Y-5862555D01*
X11333277Y-5862555D02*
X11314229Y-5881603D01*
X11314229Y-5881603D02*
X11295182Y-5891127D01*
X11523753Y-5919698D02*
X11504706Y-5910174D01*
X11504706Y-5910174D02*
X11495182Y-5900650D01*
X11495182Y-5900650D02*
X11485658Y-5881603D01*
X11485658Y-5881603D02*
X11485658Y-5872079D01*
X11485658Y-5872079D02*
X11495182Y-5853031D01*
X11495182Y-5853031D02*
X11504706Y-5843508D01*
X11504706Y-5843508D02*
X11523753Y-5833984D01*
X11523753Y-5833984D02*
X11561848Y-5833984D01*
X11561848Y-5833984D02*
X11580896Y-5843508D01*
X11580896Y-5843508D02*
X11590420Y-5853031D01*
X11590420Y-5853031D02*
X11599944Y-5872079D01*
X11599944Y-5872079D02*
X11599944Y-5881603D01*
X11599944Y-5881603D02*
X11590420Y-5900650D01*
X11590420Y-5900650D02*
X11580896Y-5910174D01*
X11580896Y-5910174D02*
X11561848Y-5919698D01*
X11561848Y-5919698D02*
X11523753Y-5919698D01*
X11523753Y-5919698D02*
X11504706Y-5929222D01*
X11504706Y-5929222D02*
X11495182Y-5938746D01*
X11495182Y-5938746D02*
X11485658Y-5957793D01*
X11485658Y-5957793D02*
X11485658Y-5995888D01*
X11485658Y-5995888D02*
X11495182Y-6014936D01*
X11495182Y-6014936D02*
X11504706Y-6024460D01*
X11504706Y-6024460D02*
X11523753Y-6033984D01*
X11523753Y-6033984D02*
X11561848Y-6033984D01*
X11561848Y-6033984D02*
X11580896Y-6024460D01*
X11580896Y-6024460D02*
X11590420Y-6014936D01*
X11590420Y-6014936D02*
X11599944Y-5995888D01*
X11599944Y-5995888D02*
X11599944Y-5957793D01*
X11599944Y-5957793D02*
X11590420Y-5938746D01*
X11590420Y-5938746D02*
X11580896Y-5929222D01*
X11580896Y-5929222D02*
X11561848Y-5919698D01*
X11676134Y-5833984D02*
X11676134Y-5872079D01*
X11752325Y-5833984D02*
X11752325Y-5872079D01*
X12047563Y-6110174D02*
X12038039Y-6100650D01*
X12038039Y-6100650D02*
X12018991Y-6072079D01*
X12018991Y-6072079D02*
X12009468Y-6053031D01*
X12009468Y-6053031D02*
X11999944Y-6024460D01*
X11999944Y-6024460D02*
X11990420Y-5976841D01*
X11990420Y-5976841D02*
X11990420Y-5938746D01*
X11990420Y-5938746D02*
X11999944Y-5891127D01*
X11999944Y-5891127D02*
X12009468Y-5862555D01*
X12009468Y-5862555D02*
X12018991Y-5843508D01*
X12018991Y-5843508D02*
X12038039Y-5814936D01*
X12038039Y-5814936D02*
X12047563Y-5805412D01*
X12104706Y-5833984D02*
X12238039Y-5833984D01*
X12238039Y-5833984D02*
X12152325Y-6033984D01*
X12295182Y-5833984D02*
X12418991Y-5833984D01*
X12418991Y-5833984D02*
X12352325Y-5910174D01*
X12352325Y-5910174D02*
X12380896Y-5910174D01*
X12380896Y-5910174D02*
X12399944Y-5919698D01*
X12399944Y-5919698D02*
X12409468Y-5929222D01*
X12409468Y-5929222D02*
X12418991Y-5948269D01*
X12418991Y-5948269D02*
X12418991Y-5995888D01*
X12418991Y-5995888D02*
X12409468Y-6014936D01*
X12409468Y-6014936D02*
X12399944Y-6024460D01*
X12399944Y-6024460D02*
X12380896Y-6033984D01*
X12380896Y-6033984D02*
X12323753Y-6033984D01*
X12323753Y-6033984D02*
X12304706Y-6024460D01*
X12304706Y-6024460D02*
X12295182Y-6014936D01*
X12657087Y-6033984D02*
X12657087Y-5833984D01*
X12742801Y-6033984D02*
X12742801Y-5929222D01*
X12742801Y-5929222D02*
X12733277Y-5910174D01*
X12733277Y-5910174D02*
X12714230Y-5900650D01*
X12714230Y-5900650D02*
X12685658Y-5900650D01*
X12685658Y-5900650D02*
X12666610Y-5910174D01*
X12666610Y-5910174D02*
X12657087Y-5919698D01*
X12866610Y-6033984D02*
X12847563Y-6024460D01*
X12847563Y-6024460D02*
X12838039Y-6014936D01*
X12838039Y-6014936D02*
X12828515Y-5995888D01*
X12828515Y-5995888D02*
X12828515Y-5938746D01*
X12828515Y-5938746D02*
X12838039Y-5919698D01*
X12838039Y-5919698D02*
X12847563Y-5910174D01*
X12847563Y-5910174D02*
X12866610Y-5900650D01*
X12866610Y-5900650D02*
X12895182Y-5900650D01*
X12895182Y-5900650D02*
X12914230Y-5910174D01*
X12914230Y-5910174D02*
X12923753Y-5919698D01*
X12923753Y-5919698D02*
X12933277Y-5938746D01*
X12933277Y-5938746D02*
X12933277Y-5995888D01*
X12933277Y-5995888D02*
X12923753Y-6014936D01*
X12923753Y-6014936D02*
X12914230Y-6024460D01*
X12914230Y-6024460D02*
X12895182Y-6033984D01*
X12895182Y-6033984D02*
X12866610Y-6033984D01*
X13047563Y-6033984D02*
X13028515Y-6024460D01*
X13028515Y-6024460D02*
X13018991Y-6005412D01*
X13018991Y-6005412D02*
X13018991Y-5833984D01*
X13199944Y-6024460D02*
X13180896Y-6033984D01*
X13180896Y-6033984D02*
X13142801Y-6033984D01*
X13142801Y-6033984D02*
X13123753Y-6024460D01*
X13123753Y-6024460D02*
X13114230Y-6005412D01*
X13114230Y-6005412D02*
X13114230Y-5929222D01*
X13114230Y-5929222D02*
X13123753Y-5910174D01*
X13123753Y-5910174D02*
X13142801Y-5900650D01*
X13142801Y-5900650D02*
X13180896Y-5900650D01*
X13180896Y-5900650D02*
X13199944Y-5910174D01*
X13199944Y-5910174D02*
X13209468Y-5929222D01*
X13209468Y-5929222D02*
X13209468Y-5948269D01*
X13209468Y-5948269D02*
X13114230Y-5967317D01*
X13285658Y-6024460D02*
X13304706Y-6033984D01*
X13304706Y-6033984D02*
X13342801Y-6033984D01*
X13342801Y-6033984D02*
X13361849Y-6024460D01*
X13361849Y-6024460D02*
X13371372Y-6005412D01*
X13371372Y-6005412D02*
X13371372Y-5995888D01*
X13371372Y-5995888D02*
X13361849Y-5976841D01*
X13361849Y-5976841D02*
X13342801Y-5967317D01*
X13342801Y-5967317D02*
X13314230Y-5967317D01*
X13314230Y-5967317D02*
X13295182Y-5957793D01*
X13295182Y-5957793D02*
X13285658Y-5938746D01*
X13285658Y-5938746D02*
X13285658Y-5929222D01*
X13285658Y-5929222D02*
X13295182Y-5910174D01*
X13295182Y-5910174D02*
X13314230Y-5900650D01*
X13314230Y-5900650D02*
X13342801Y-5900650D01*
X13342801Y-5900650D02*
X13361849Y-5910174D01*
X13438039Y-6110174D02*
X13447563Y-6100650D01*
X13447563Y-6100650D02*
X13466611Y-6072079D01*
X13466611Y-6072079D02*
X13476134Y-6053031D01*
X13476134Y-6053031D02*
X13485658Y-6024460D01*
X13485658Y-6024460D02*
X13495182Y-5976841D01*
X13495182Y-5976841D02*
X13495182Y-5938746D01*
X13495182Y-5938746D02*
X13485658Y-5891127D01*
X13485658Y-5891127D02*
X13476134Y-5862555D01*
X13476134Y-5862555D02*
X13466611Y-5843508D01*
X13466611Y-5843508D02*
X13447563Y-5814936D01*
X13447563Y-5814936D02*
X13438039Y-5805412D01*
D13*
X8472500Y-6206500D02*
G75*
G02*
X8347500Y-6206500I-62500J0D01*
G01*
X8347500Y-6206500D02*
G75*
G02*
X8472500Y-6206500I62500J0D01*
G01*
D11*
X8838039Y-6297984D02*
X8723753Y-6297984D01*
X8780896Y-6297984D02*
X8780896Y-6097984D01*
X8780896Y-6097984D02*
X8761848Y-6126555D01*
X8761848Y-6126555D02*
X8742801Y-6145603D01*
X8742801Y-6145603D02*
X8723753Y-6155127D01*
X8923753Y-6278936D02*
X8933277Y-6288460D01*
X8933277Y-6288460D02*
X8923753Y-6297984D01*
X8923753Y-6297984D02*
X8914229Y-6288460D01*
X8914229Y-6288460D02*
X8923753Y-6278936D01*
X8923753Y-6278936D02*
X8923753Y-6297984D01*
X9009467Y-6117031D02*
X9018991Y-6107508D01*
X9018991Y-6107508D02*
X9038039Y-6097984D01*
X9038039Y-6097984D02*
X9085658Y-6097984D01*
X9085658Y-6097984D02*
X9104705Y-6107508D01*
X9104705Y-6107508D02*
X9114229Y-6117031D01*
X9114229Y-6117031D02*
X9123753Y-6136079D01*
X9123753Y-6136079D02*
X9123753Y-6155127D01*
X9123753Y-6155127D02*
X9114229Y-6183698D01*
X9114229Y-6183698D02*
X8999944Y-6297984D01*
X8999944Y-6297984D02*
X9123753Y-6297984D01*
X9304705Y-6097984D02*
X9209467Y-6097984D01*
X9209467Y-6097984D02*
X9199944Y-6193222D01*
X9199944Y-6193222D02*
X9209467Y-6183698D01*
X9209467Y-6183698D02*
X9228515Y-6174174D01*
X9228515Y-6174174D02*
X9276134Y-6174174D01*
X9276134Y-6174174D02*
X9295182Y-6183698D01*
X9295182Y-6183698D02*
X9304705Y-6193222D01*
X9304705Y-6193222D02*
X9314229Y-6212269D01*
X9314229Y-6212269D02*
X9314229Y-6259888D01*
X9314229Y-6259888D02*
X9304705Y-6278936D01*
X9304705Y-6278936D02*
X9295182Y-6288460D01*
X9295182Y-6288460D02*
X9276134Y-6297984D01*
X9276134Y-6297984D02*
X9228515Y-6297984D01*
X9228515Y-6297984D02*
X9209467Y-6288460D01*
X9209467Y-6288460D02*
X9199944Y-6278936D01*
X9438039Y-6097984D02*
X9457086Y-6097984D01*
X9457086Y-6097984D02*
X9476134Y-6107508D01*
X9476134Y-6107508D02*
X9485658Y-6117031D01*
X9485658Y-6117031D02*
X9495182Y-6136079D01*
X9495182Y-6136079D02*
X9504705Y-6174174D01*
X9504705Y-6174174D02*
X9504705Y-6221793D01*
X9504705Y-6221793D02*
X9495182Y-6259888D01*
X9495182Y-6259888D02*
X9485658Y-6278936D01*
X9485658Y-6278936D02*
X9476134Y-6288460D01*
X9476134Y-6288460D02*
X9457086Y-6297984D01*
X9457086Y-6297984D02*
X9438039Y-6297984D01*
X9438039Y-6297984D02*
X9418991Y-6288460D01*
X9418991Y-6288460D02*
X9409467Y-6278936D01*
X9409467Y-6278936D02*
X9399944Y-6259888D01*
X9399944Y-6259888D02*
X9390420Y-6221793D01*
X9390420Y-6221793D02*
X9390420Y-6174174D01*
X9390420Y-6174174D02*
X9399944Y-6136079D01*
X9399944Y-6136079D02*
X9409467Y-6117031D01*
X9409467Y-6117031D02*
X9418991Y-6107508D01*
X9418991Y-6107508D02*
X9438039Y-6097984D01*
X9590420Y-6297984D02*
X9590420Y-6164650D01*
X9590420Y-6183698D02*
X9599944Y-6174174D01*
X9599944Y-6174174D02*
X9618991Y-6164650D01*
X9618991Y-6164650D02*
X9647563Y-6164650D01*
X9647563Y-6164650D02*
X9666610Y-6174174D01*
X9666610Y-6174174D02*
X9676134Y-6193222D01*
X9676134Y-6193222D02*
X9676134Y-6297984D01*
X9676134Y-6193222D02*
X9685658Y-6174174D01*
X9685658Y-6174174D02*
X9704705Y-6164650D01*
X9704705Y-6164650D02*
X9733277Y-6164650D01*
X9733277Y-6164650D02*
X9752325Y-6174174D01*
X9752325Y-6174174D02*
X9761848Y-6193222D01*
X9761848Y-6193222D02*
X9761848Y-6297984D01*
X9857086Y-6297984D02*
X9857086Y-6164650D01*
X9857086Y-6183698D02*
X9866610Y-6174174D01*
X9866610Y-6174174D02*
X9885658Y-6164650D01*
X9885658Y-6164650D02*
X9914229Y-6164650D01*
X9914229Y-6164650D02*
X9933277Y-6174174D01*
X9933277Y-6174174D02*
X9942801Y-6193222D01*
X9942801Y-6193222D02*
X9942801Y-6297984D01*
X9942801Y-6193222D02*
X9952325Y-6174174D01*
X9952325Y-6174174D02*
X9971372Y-6164650D01*
X9971372Y-6164650D02*
X9999944Y-6164650D01*
X9999944Y-6164650D02*
X10018991Y-6174174D01*
X10018991Y-6174174D02*
X10028515Y-6193222D01*
X10028515Y-6193222D02*
X10028515Y-6297984D01*
X10418991Y-6088460D02*
X10247563Y-6345603D01*
X10676134Y-6097984D02*
X10695182Y-6097984D01*
X10695182Y-6097984D02*
X10714229Y-6107508D01*
X10714229Y-6107508D02*
X10723753Y-6117031D01*
X10723753Y-6117031D02*
X10733277Y-6136079D01*
X10733277Y-6136079D02*
X10742801Y-6174174D01*
X10742801Y-6174174D02*
X10742801Y-6221793D01*
X10742801Y-6221793D02*
X10733277Y-6259888D01*
X10733277Y-6259888D02*
X10723753Y-6278936D01*
X10723753Y-6278936D02*
X10714229Y-6288460D01*
X10714229Y-6288460D02*
X10695182Y-6297984D01*
X10695182Y-6297984D02*
X10676134Y-6297984D01*
X10676134Y-6297984D02*
X10657087Y-6288460D01*
X10657087Y-6288460D02*
X10647563Y-6278936D01*
X10647563Y-6278936D02*
X10638039Y-6259888D01*
X10638039Y-6259888D02*
X10628515Y-6221793D01*
X10628515Y-6221793D02*
X10628515Y-6174174D01*
X10628515Y-6174174D02*
X10638039Y-6136079D01*
X10638039Y-6136079D02*
X10647563Y-6117031D01*
X10647563Y-6117031D02*
X10657087Y-6107508D01*
X10657087Y-6107508D02*
X10676134Y-6097984D01*
X10828515Y-6278936D02*
X10838039Y-6288460D01*
X10838039Y-6288460D02*
X10828515Y-6297984D01*
X10828515Y-6297984D02*
X10818991Y-6288460D01*
X10818991Y-6288460D02*
X10828515Y-6278936D01*
X10828515Y-6278936D02*
X10828515Y-6297984D01*
X10961848Y-6097984D02*
X10980896Y-6097984D01*
X10980896Y-6097984D02*
X10999944Y-6107508D01*
X10999944Y-6107508D02*
X11009468Y-6117031D01*
X11009468Y-6117031D02*
X11018991Y-6136079D01*
X11018991Y-6136079D02*
X11028515Y-6174174D01*
X11028515Y-6174174D02*
X11028515Y-6221793D01*
X11028515Y-6221793D02*
X11018991Y-6259888D01*
X11018991Y-6259888D02*
X11009468Y-6278936D01*
X11009468Y-6278936D02*
X10999944Y-6288460D01*
X10999944Y-6288460D02*
X10980896Y-6297984D01*
X10980896Y-6297984D02*
X10961848Y-6297984D01*
X10961848Y-6297984D02*
X10942801Y-6288460D01*
X10942801Y-6288460D02*
X10933277Y-6278936D01*
X10933277Y-6278936D02*
X10923753Y-6259888D01*
X10923753Y-6259888D02*
X10914229Y-6221793D01*
X10914229Y-6221793D02*
X10914229Y-6174174D01*
X10914229Y-6174174D02*
X10923753Y-6136079D01*
X10923753Y-6136079D02*
X10933277Y-6117031D01*
X10933277Y-6117031D02*
X10942801Y-6107508D01*
X10942801Y-6107508D02*
X10961848Y-6097984D01*
X11199944Y-6164650D02*
X11199944Y-6297984D01*
X11152325Y-6088460D02*
X11104706Y-6231317D01*
X11104706Y-6231317D02*
X11228515Y-6231317D01*
X11314229Y-6297984D02*
X11352325Y-6297984D01*
X11352325Y-6297984D02*
X11371372Y-6288460D01*
X11371372Y-6288460D02*
X11380896Y-6278936D01*
X11380896Y-6278936D02*
X11399944Y-6250365D01*
X11399944Y-6250365D02*
X11409467Y-6212269D01*
X11409467Y-6212269D02*
X11409467Y-6136079D01*
X11409467Y-6136079D02*
X11399944Y-6117031D01*
X11399944Y-6117031D02*
X11390420Y-6107508D01*
X11390420Y-6107508D02*
X11371372Y-6097984D01*
X11371372Y-6097984D02*
X11333277Y-6097984D01*
X11333277Y-6097984D02*
X11314229Y-6107508D01*
X11314229Y-6107508D02*
X11304706Y-6117031D01*
X11304706Y-6117031D02*
X11295182Y-6136079D01*
X11295182Y-6136079D02*
X11295182Y-6183698D01*
X11295182Y-6183698D02*
X11304706Y-6202746D01*
X11304706Y-6202746D02*
X11314229Y-6212269D01*
X11314229Y-6212269D02*
X11333277Y-6221793D01*
X11333277Y-6221793D02*
X11371372Y-6221793D01*
X11371372Y-6221793D02*
X11390420Y-6212269D01*
X11390420Y-6212269D02*
X11399944Y-6202746D01*
X11399944Y-6202746D02*
X11409467Y-6183698D01*
X11485658Y-6117031D02*
X11495182Y-6107508D01*
X11495182Y-6107508D02*
X11514229Y-6097984D01*
X11514229Y-6097984D02*
X11561848Y-6097984D01*
X11561848Y-6097984D02*
X11580896Y-6107508D01*
X11580896Y-6107508D02*
X11590420Y-6117031D01*
X11590420Y-6117031D02*
X11599944Y-6136079D01*
X11599944Y-6136079D02*
X11599944Y-6155127D01*
X11599944Y-6155127D02*
X11590420Y-6183698D01*
X11590420Y-6183698D02*
X11476134Y-6297984D01*
X11476134Y-6297984D02*
X11599944Y-6297984D01*
X11676134Y-6097984D02*
X11676134Y-6136079D01*
X11752325Y-6097984D02*
X11752325Y-6136079D01*
X12047563Y-6374174D02*
X12038039Y-6364650D01*
X12038039Y-6364650D02*
X12018991Y-6336079D01*
X12018991Y-6336079D02*
X12009468Y-6317031D01*
X12009468Y-6317031D02*
X11999944Y-6288460D01*
X11999944Y-6288460D02*
X11990420Y-6240841D01*
X11990420Y-6240841D02*
X11990420Y-6202746D01*
X11990420Y-6202746D02*
X11999944Y-6155127D01*
X11999944Y-6155127D02*
X12009468Y-6126555D01*
X12009468Y-6126555D02*
X12018991Y-6107508D01*
X12018991Y-6107508D02*
X12038039Y-6078936D01*
X12038039Y-6078936D02*
X12047563Y-6069412D01*
X12161848Y-6097984D02*
X12180896Y-6097984D01*
X12180896Y-6097984D02*
X12199944Y-6107508D01*
X12199944Y-6107508D02*
X12209468Y-6117031D01*
X12209468Y-6117031D02*
X12218991Y-6136079D01*
X12218991Y-6136079D02*
X12228515Y-6174174D01*
X12228515Y-6174174D02*
X12228515Y-6221793D01*
X12228515Y-6221793D02*
X12218991Y-6259888D01*
X12218991Y-6259888D02*
X12209468Y-6278936D01*
X12209468Y-6278936D02*
X12199944Y-6288460D01*
X12199944Y-6288460D02*
X12180896Y-6297984D01*
X12180896Y-6297984D02*
X12161848Y-6297984D01*
X12161848Y-6297984D02*
X12142801Y-6288460D01*
X12142801Y-6288460D02*
X12133277Y-6278936D01*
X12133277Y-6278936D02*
X12123753Y-6259888D01*
X12123753Y-6259888D02*
X12114229Y-6221793D01*
X12114229Y-6221793D02*
X12114229Y-6174174D01*
X12114229Y-6174174D02*
X12123753Y-6136079D01*
X12123753Y-6136079D02*
X12133277Y-6117031D01*
X12133277Y-6117031D02*
X12142801Y-6107508D01*
X12142801Y-6107508D02*
X12161848Y-6097984D01*
X12466610Y-6297984D02*
X12466610Y-6097984D01*
X12552325Y-6297984D02*
X12552325Y-6193222D01*
X12552325Y-6193222D02*
X12542801Y-6174174D01*
X12542801Y-6174174D02*
X12523753Y-6164650D01*
X12523753Y-6164650D02*
X12495182Y-6164650D01*
X12495182Y-6164650D02*
X12476134Y-6174174D01*
X12476134Y-6174174D02*
X12466610Y-6183698D01*
X12676134Y-6297984D02*
X12657087Y-6288460D01*
X12657087Y-6288460D02*
X12647563Y-6278936D01*
X12647563Y-6278936D02*
X12638039Y-6259888D01*
X12638039Y-6259888D02*
X12638039Y-6202746D01*
X12638039Y-6202746D02*
X12647563Y-6183698D01*
X12647563Y-6183698D02*
X12657087Y-6174174D01*
X12657087Y-6174174D02*
X12676134Y-6164650D01*
X12676134Y-6164650D02*
X12704706Y-6164650D01*
X12704706Y-6164650D02*
X12723753Y-6174174D01*
X12723753Y-6174174D02*
X12733277Y-6183698D01*
X12733277Y-6183698D02*
X12742801Y-6202746D01*
X12742801Y-6202746D02*
X12742801Y-6259888D01*
X12742801Y-6259888D02*
X12733277Y-6278936D01*
X12733277Y-6278936D02*
X12723753Y-6288460D01*
X12723753Y-6288460D02*
X12704706Y-6297984D01*
X12704706Y-6297984D02*
X12676134Y-6297984D01*
X12857087Y-6297984D02*
X12838039Y-6288460D01*
X12838039Y-6288460D02*
X12828515Y-6269412D01*
X12828515Y-6269412D02*
X12828515Y-6097984D01*
X13009468Y-6288460D02*
X12990420Y-6297984D01*
X12990420Y-6297984D02*
X12952325Y-6297984D01*
X12952325Y-6297984D02*
X12933277Y-6288460D01*
X12933277Y-6288460D02*
X12923753Y-6269412D01*
X12923753Y-6269412D02*
X12923753Y-6193222D01*
X12923753Y-6193222D02*
X12933277Y-6174174D01*
X12933277Y-6174174D02*
X12952325Y-6164650D01*
X12952325Y-6164650D02*
X12990420Y-6164650D01*
X12990420Y-6164650D02*
X13009468Y-6174174D01*
X13009468Y-6174174D02*
X13018991Y-6193222D01*
X13018991Y-6193222D02*
X13018991Y-6212269D01*
X13018991Y-6212269D02*
X12923753Y-6231317D01*
X13095182Y-6288460D02*
X13114230Y-6297984D01*
X13114230Y-6297984D02*
X13152325Y-6297984D01*
X13152325Y-6297984D02*
X13171372Y-6288460D01*
X13171372Y-6288460D02*
X13180896Y-6269412D01*
X13180896Y-6269412D02*
X13180896Y-6259888D01*
X13180896Y-6259888D02*
X13171372Y-6240841D01*
X13171372Y-6240841D02*
X13152325Y-6231317D01*
X13152325Y-6231317D02*
X13123753Y-6231317D01*
X13123753Y-6231317D02*
X13104706Y-6221793D01*
X13104706Y-6221793D02*
X13095182Y-6202746D01*
X13095182Y-6202746D02*
X13095182Y-6193222D01*
X13095182Y-6193222D02*
X13104706Y-6174174D01*
X13104706Y-6174174D02*
X13123753Y-6164650D01*
X13123753Y-6164650D02*
X13152325Y-6164650D01*
X13152325Y-6164650D02*
X13171372Y-6174174D01*
X13418992Y-6221793D02*
X13571373Y-6221793D01*
X13495182Y-6297984D02*
X13495182Y-6145603D01*
X13923753Y-6297984D02*
X13809468Y-6297984D01*
X13866611Y-6297984D02*
X13866611Y-6097984D01*
X13866611Y-6097984D02*
X13847563Y-6126555D01*
X13847563Y-6126555D02*
X13828515Y-6145603D01*
X13828515Y-6145603D02*
X13809468Y-6155127D01*
X14047563Y-6097984D02*
X14066611Y-6097984D01*
X14066611Y-6097984D02*
X14085658Y-6107508D01*
X14085658Y-6107508D02*
X14095182Y-6117031D01*
X14095182Y-6117031D02*
X14104706Y-6136079D01*
X14104706Y-6136079D02*
X14114230Y-6174174D01*
X14114230Y-6174174D02*
X14114230Y-6221793D01*
X14114230Y-6221793D02*
X14104706Y-6259888D01*
X14104706Y-6259888D02*
X14095182Y-6278936D01*
X14095182Y-6278936D02*
X14085658Y-6288460D01*
X14085658Y-6288460D02*
X14066611Y-6297984D01*
X14066611Y-6297984D02*
X14047563Y-6297984D01*
X14047563Y-6297984D02*
X14028515Y-6288460D01*
X14028515Y-6288460D02*
X14018992Y-6278936D01*
X14018992Y-6278936D02*
X14009468Y-6259888D01*
X14009468Y-6259888D02*
X13999944Y-6221793D01*
X13999944Y-6221793D02*
X13999944Y-6174174D01*
X13999944Y-6174174D02*
X14009468Y-6136079D01*
X14009468Y-6136079D02*
X14018992Y-6117031D01*
X14018992Y-6117031D02*
X14028515Y-6107508D01*
X14028515Y-6107508D02*
X14047563Y-6097984D01*
X14342801Y-6288460D02*
X14361849Y-6297984D01*
X14361849Y-6297984D02*
X14399944Y-6297984D01*
X14399944Y-6297984D02*
X14418992Y-6288460D01*
X14418992Y-6288460D02*
X14428515Y-6269412D01*
X14428515Y-6269412D02*
X14428515Y-6259888D01*
X14428515Y-6259888D02*
X14418992Y-6240841D01*
X14418992Y-6240841D02*
X14399944Y-6231317D01*
X14399944Y-6231317D02*
X14371373Y-6231317D01*
X14371373Y-6231317D02*
X14352325Y-6221793D01*
X14352325Y-6221793D02*
X14342801Y-6202746D01*
X14342801Y-6202746D02*
X14342801Y-6193222D01*
X14342801Y-6193222D02*
X14352325Y-6174174D01*
X14352325Y-6174174D02*
X14371373Y-6164650D01*
X14371373Y-6164650D02*
X14399944Y-6164650D01*
X14399944Y-6164650D02*
X14418992Y-6174174D01*
X14542801Y-6297984D02*
X14523754Y-6288460D01*
X14523754Y-6288460D02*
X14514230Y-6269412D01*
X14514230Y-6269412D02*
X14514230Y-6097984D01*
X14647563Y-6297984D02*
X14628515Y-6288460D01*
X14628515Y-6288460D02*
X14618992Y-6278936D01*
X14618992Y-6278936D02*
X14609468Y-6259888D01*
X14609468Y-6259888D02*
X14609468Y-6202746D01*
X14609468Y-6202746D02*
X14618992Y-6183698D01*
X14618992Y-6183698D02*
X14628515Y-6174174D01*
X14628515Y-6174174D02*
X14647563Y-6164650D01*
X14647563Y-6164650D02*
X14676135Y-6164650D01*
X14676135Y-6164650D02*
X14695182Y-6174174D01*
X14695182Y-6174174D02*
X14704706Y-6183698D01*
X14704706Y-6183698D02*
X14714230Y-6202746D01*
X14714230Y-6202746D02*
X14714230Y-6259888D01*
X14714230Y-6259888D02*
X14704706Y-6278936D01*
X14704706Y-6278936D02*
X14695182Y-6288460D01*
X14695182Y-6288460D02*
X14676135Y-6297984D01*
X14676135Y-6297984D02*
X14647563Y-6297984D01*
X14771373Y-6164650D02*
X14847563Y-6164650D01*
X14799944Y-6097984D02*
X14799944Y-6269412D01*
X14799944Y-6269412D02*
X14809468Y-6288460D01*
X14809468Y-6288460D02*
X14828515Y-6297984D01*
X14828515Y-6297984D02*
X14847563Y-6297984D01*
X14904706Y-6288460D02*
X14923754Y-6297984D01*
X14923754Y-6297984D02*
X14961849Y-6297984D01*
X14961849Y-6297984D02*
X14980896Y-6288460D01*
X14980896Y-6288460D02*
X14990420Y-6269412D01*
X14990420Y-6269412D02*
X14990420Y-6259888D01*
X14990420Y-6259888D02*
X14980896Y-6240841D01*
X14980896Y-6240841D02*
X14961849Y-6231317D01*
X14961849Y-6231317D02*
X14933277Y-6231317D01*
X14933277Y-6231317D02*
X14914230Y-6221793D01*
X14914230Y-6221793D02*
X14904706Y-6202746D01*
X14904706Y-6202746D02*
X14904706Y-6193222D01*
X14904706Y-6193222D02*
X14914230Y-6174174D01*
X14914230Y-6174174D02*
X14933277Y-6164650D01*
X14933277Y-6164650D02*
X14961849Y-6164650D01*
X14961849Y-6164650D02*
X14980896Y-6174174D01*
X15057087Y-6374174D02*
X15066611Y-6364650D01*
X15066611Y-6364650D02*
X15085658Y-6336079D01*
X15085658Y-6336079D02*
X15095182Y-6317031D01*
X15095182Y-6317031D02*
X15104706Y-6288460D01*
X15104706Y-6288460D02*
X15114230Y-6240841D01*
X15114230Y-6240841D02*
X15114230Y-6202746D01*
X15114230Y-6202746D02*
X15104706Y-6155127D01*
X15104706Y-6155127D02*
X15095182Y-6126555D01*
X15095182Y-6126555D02*
X15085658Y-6107508D01*
X15085658Y-6107508D02*
X15066611Y-6078936D01*
X15066611Y-6078936D02*
X15057087Y-6069412D01*
M02*
