%TF.GenerationSoftware,KiCad,Pcbnew,8.0.6-1.fc41*%
%TF.CreationDate,2024-12-16T12:55:24-05:00*%
%TF.ProjectId,MAX5719_breakout,4d415835-3731-4395-9f62-7265616b6f75,rev?*%
%TF.SameCoordinates,Original*%
%TF.FileFunction,Copper,L1,Top*%
%TF.FilePolarity,Positive*%
%FSLAX46Y46*%
G04 Gerber Fmt 4.6, Leading zero omitted, Abs format (unit mm)*
G04 Created by KiCad (PCBNEW 8.0.6-1.fc41) date 2024-12-16 12:55:24*
%MOMM*%
%LPD*%
G01*
G04 APERTURE LIST*
G04 Aperture macros list*
%AMRoundRect*
0 Rectangle with rounded corners*
0 $1 Rounding radius*
0 $2 $3 $4 $5 $6 $7 $8 $9 X,Y pos of 4 corners*
0 Add a 4 corners polygon primitive as box body*
4,1,4,$2,$3,$4,$5,$6,$7,$8,$9,$2,$3,0*
0 Add four circle primitives for the rounded corners*
1,1,$1+$1,$2,$3*
1,1,$1+$1,$4,$5*
1,1,$1+$1,$6,$7*
1,1,$1+$1,$8,$9*
0 Add four rect primitives between the rounded corners*
20,1,$1+$1,$2,$3,$4,$5,0*
20,1,$1+$1,$4,$5,$6,$7,0*
20,1,$1+$1,$6,$7,$8,$9,0*
20,1,$1+$1,$8,$9,$2,$3,0*%
G04 Aperture macros list end*
%TA.AperFunction,ComponentPad*%
%ADD10R,1.700000X1.700000*%
%TD*%
%TA.AperFunction,ComponentPad*%
%ADD11O,1.700000X1.700000*%
%TD*%
%TA.AperFunction,SMDPad,CuDef*%
%ADD12R,1.676400X0.355600*%
%TD*%
%TA.AperFunction,SMDPad,CuDef*%
%ADD13R,1.525000X0.650000*%
%TD*%
%TA.AperFunction,SMDPad,CuDef*%
%ADD14RoundRect,0.225000X0.225000X0.250000X-0.225000X0.250000X-0.225000X-0.250000X0.225000X-0.250000X0*%
%TD*%
%TA.AperFunction,Conductor*%
%ADD15C,0.200000*%
%TD*%
G04 APERTURE END LIST*
D10*
%TO.P,J2,1,Pin_1*%
%TO.N,GND*%
X172440000Y-103010000D03*
D11*
%TO.P,J2,2,Pin_2*%
%TO.N,5v*%
X169900000Y-103010000D03*
%TD*%
D12*
%TO.P,U1,1,VCCA*%
%TO.N,3v3*%
X153531200Y-112129998D03*
%TO.P,U1,2,A1*%
%TO.N,CS*%
X153531200Y-112779999D03*
%TO.P,U1,3,A2*%
%TO.N,SCLK*%
X153531200Y-113430000D03*
%TO.P,U1,4,A3*%
%TO.N,MOSI*%
X153531200Y-114079999D03*
%TO.P,U1,5,A4*%
%TO.N,LDAC*%
X153531200Y-114729998D03*
%TO.P,U1,6,NC*%
%TO.N,unconnected-(U1-NC-Pad6)*%
X153531200Y-115379999D03*
%TO.P,U1,7,GND*%
%TO.N,GND*%
X153531200Y-116029998D03*
%TO.P,U1,8,OE*%
%TO.N,3v3*%
X159170000Y-116030000D03*
%TO.P,U1,9,NC*%
%TO.N,unconnected-(U1-NC-Pad9)*%
X159170000Y-115379999D03*
%TO.P,U1,10,B4*%
%TO.N,Net-(IC1-~{LDAC})*%
X159170000Y-114730000D03*
%TO.P,U1,11,B3*%
%TO.N,Net-(IC1-DIN)*%
X159170000Y-114079999D03*
%TO.P,U1,12,B2*%
%TO.N,Net-(IC1-SCLK)*%
X159170000Y-113430000D03*
%TO.P,U1,13,B1*%
%TO.N,Net-(IC1-~{CS})*%
X159170000Y-112779999D03*
%TO.P,U1,14,VCCB*%
%TO.N,5v*%
X159170000Y-112130000D03*
%TD*%
D13*
%TO.P,IC1,1,RFB*%
%TO.N,unconnected-(IC1-RFB-Pad1)*%
X166958000Y-110660000D03*
%TO.P,IC1,2,OUT*%
%TO.N,AOUT*%
X166958000Y-111930000D03*
%TO.P,IC1,3,AGNDF*%
%TO.N,GND*%
X166958000Y-113200000D03*
%TO.P,IC1,4,AGNDS*%
X166958000Y-114470000D03*
%TO.P,IC1,5,REFS*%
%TO.N,5v*%
X166958000Y-115740000D03*
%TO.P,IC1,6,REFF*%
X166958000Y-117010000D03*
%TO.P,IC1,7,~{CS}*%
%TO.N,Net-(IC1-~{CS})*%
X166958000Y-118280000D03*
%TO.P,IC1,8,SCLK*%
%TO.N,Net-(IC1-SCLK)*%
X172382000Y-118280000D03*
%TO.P,IC1,9,NC*%
%TO.N,unconnected-(IC1-NC-Pad9)*%
X172382000Y-117010000D03*
%TO.P,IC1,10,DIN*%
%TO.N,Net-(IC1-DIN)*%
X172382000Y-115740000D03*
%TO.P,IC1,11,~{LDAC}*%
%TO.N,Net-(IC1-~{LDAC})*%
X172382000Y-114470000D03*
%TO.P,IC1,12,DGND*%
%TO.N,GND*%
X172382000Y-113200000D03*
%TO.P,IC1,13,INV*%
%TO.N,unconnected-(IC1-INV-Pad13)*%
X172382000Y-111930000D03*
%TO.P,IC1,14,VDD*%
%TO.N,5v*%
X172382000Y-110660000D03*
%TD*%
D10*
%TO.P,J1,1,Pin_1*%
%TO.N,AOUT*%
X164820000Y-103010000D03*
%TD*%
%TO.P,J3,1,Pin_1*%
%TO.N,3v3*%
X144500000Y-108090000D03*
D11*
%TO.P,J3,2,Pin_2*%
%TO.N,CS*%
X144500000Y-110630000D03*
%TO.P,J3,3,Pin_3*%
%TO.N,SCLK*%
X144500000Y-113170000D03*
%TO.P,J3,4,Pin_4*%
%TO.N,MOSI*%
X144500000Y-115710000D03*
%TO.P,J3,5,Pin_5*%
%TO.N,LDAC*%
X144500000Y-118250000D03*
%TD*%
D14*
%TO.P,C2,1*%
%TO.N,GND*%
X154695000Y-110280000D03*
%TO.P,C2,2*%
%TO.N,3v3*%
X153145000Y-110280000D03*
%TD*%
%TO.P,C1,1*%
%TO.N,GND*%
X172670000Y-108970000D03*
%TO.P,C1,2*%
%TO.N,5v*%
X171120000Y-108970000D03*
%TD*%
D15*
%TO.N,AOUT*%
X166958000Y-111930000D02*
X166520500Y-111930000D01*
X166520500Y-111930000D02*
X164820000Y-110229500D01*
X164820000Y-110229500D02*
X164820000Y-103010000D01*
%TO.N,5v*%
X171120000Y-108970000D02*
X169900000Y-107750000D01*
X169900000Y-107750000D02*
X169900000Y-103010000D01*
X162910500Y-112130000D02*
X159170000Y-112130000D01*
X167395500Y-115740000D02*
X171120000Y-112015500D01*
X172382000Y-110660000D02*
X171120000Y-109398000D01*
X171120000Y-109398000D02*
X171120000Y-108970000D01*
X166958000Y-115740000D02*
X167395500Y-115740000D01*
X166958000Y-115740000D02*
X166958000Y-117010000D01*
X166520500Y-115740000D02*
X162910500Y-112130000D01*
X166958000Y-115740000D02*
X166520500Y-115740000D01*
X171120000Y-112015500D02*
X171120000Y-108970000D01*
%TO.N,3v3*%
X144500000Y-108090000D02*
X150955000Y-108090000D01*
X154569400Y-112129998D02*
X153531200Y-112129998D01*
X158131800Y-116030000D02*
X154669400Y-112567600D01*
X159170000Y-116030000D02*
X158131800Y-116030000D01*
X153145000Y-110305000D02*
X153531200Y-110691200D01*
X153531200Y-110691200D02*
X153531200Y-112129998D01*
X153145000Y-110280000D02*
X153145000Y-110305000D01*
X154669400Y-112229998D02*
X154569400Y-112129998D01*
X154669400Y-112567600D02*
X154669400Y-112229998D01*
X150955000Y-108090000D02*
X153145000Y-110280000D01*
%TO.N,Net-(IC1-DIN)*%
X160154313Y-114079999D02*
X159170000Y-114079999D01*
X165379314Y-119305000D02*
X160154313Y-114079999D01*
X173044500Y-119305000D02*
X165379314Y-119305000D01*
X173444500Y-118905000D02*
X173044500Y-119305000D01*
X173444500Y-116365000D02*
X173444500Y-118905000D01*
X172819500Y-115740000D02*
X173444500Y-116365000D01*
X172382000Y-115740000D02*
X172819500Y-115740000D01*
%TO.N,Net-(IC1-SCLK)*%
X160070000Y-113430000D02*
X159170000Y-113430000D01*
X171757000Y-118905000D02*
X165545000Y-118905000D01*
X165545000Y-118905000D02*
X160070000Y-113430000D01*
X172382000Y-118280000D02*
X171757000Y-118905000D01*
%TO.N,Net-(IC1-~{CS})*%
X166958000Y-118280000D02*
X166520500Y-118280000D01*
X166520500Y-118280000D02*
X161020499Y-112779999D01*
X161020499Y-112779999D02*
X159170000Y-112779999D01*
%TO.N,Net-(IC1-~{LDAC})*%
X165213628Y-119705000D02*
X160238628Y-114730000D01*
X172799500Y-114470000D02*
X173844500Y-115515000D01*
X173844500Y-119070686D02*
X173210186Y-119705000D01*
X173844500Y-115515000D02*
X173844500Y-119070686D01*
X173210186Y-119705000D02*
X165213628Y-119705000D01*
X160238628Y-114730000D02*
X159170000Y-114730000D01*
X172382000Y-114470000D02*
X172799500Y-114470000D01*
%TO.N,LDAC*%
X148020002Y-114729998D02*
X144500000Y-118250000D01*
X153531200Y-114729998D02*
X148020002Y-114729998D01*
%TO.N,SCLK*%
X144760000Y-113430000D02*
X144500000Y-113170000D01*
X153531200Y-113430000D02*
X144760000Y-113430000D01*
%TO.N,MOSI*%
X153531200Y-114079999D02*
X146130001Y-114079999D01*
X146130001Y-114079999D02*
X144500000Y-115710000D01*
%TO.N,CS*%
X146649999Y-112779999D02*
X144500000Y-110630000D01*
X153531200Y-112779999D02*
X146649999Y-112779999D01*
%TD*%
%TA.AperFunction,Conductor*%
%TO.N,GND*%
G36*
X181754042Y-86100765D02*
G01*
X181778041Y-86102337D01*
X181989839Y-86116219D01*
X182005900Y-86118334D01*
X182233662Y-86163639D01*
X182249316Y-86167834D01*
X182469218Y-86242481D01*
X182484189Y-86248682D01*
X182681453Y-86345961D01*
X182692460Y-86351390D01*
X182706506Y-86359500D01*
X182899583Y-86488509D01*
X182912452Y-86498383D01*
X183087038Y-86651492D01*
X183098507Y-86662961D01*
X183251616Y-86837547D01*
X183261490Y-86850416D01*
X183390499Y-87043493D01*
X183398609Y-87057539D01*
X183501314Y-87265803D01*
X183507521Y-87280788D01*
X183582163Y-87500676D01*
X183586361Y-87516343D01*
X183631663Y-87744087D01*
X183633781Y-87760169D01*
X183649235Y-87995956D01*
X183649500Y-88004066D01*
X183649500Y-133995933D01*
X183649235Y-134004043D01*
X183633781Y-134239830D01*
X183631663Y-134255912D01*
X183586361Y-134483656D01*
X183582163Y-134499323D01*
X183507521Y-134719211D01*
X183501314Y-134734196D01*
X183398609Y-134942460D01*
X183390499Y-134956506D01*
X183261490Y-135149583D01*
X183251616Y-135162452D01*
X183098507Y-135337038D01*
X183087038Y-135348507D01*
X182912452Y-135501616D01*
X182899583Y-135511490D01*
X182706506Y-135640499D01*
X182692460Y-135648609D01*
X182484196Y-135751314D01*
X182469211Y-135757521D01*
X182249323Y-135832163D01*
X182233656Y-135836361D01*
X182005912Y-135881663D01*
X181989830Y-135883781D01*
X181754043Y-135899235D01*
X181745933Y-135899500D01*
X135754067Y-135899500D01*
X135745957Y-135899235D01*
X135510169Y-135883781D01*
X135494087Y-135881663D01*
X135266343Y-135836361D01*
X135250676Y-135832163D01*
X135030788Y-135757521D01*
X135015803Y-135751314D01*
X134807539Y-135648609D01*
X134793493Y-135640499D01*
X134600416Y-135511490D01*
X134587547Y-135501616D01*
X134412961Y-135348507D01*
X134401492Y-135337038D01*
X134248383Y-135162452D01*
X134238509Y-135149583D01*
X134109500Y-134956506D01*
X134101390Y-134942460D01*
X134095749Y-134931021D01*
X133998682Y-134734189D01*
X133992481Y-134719218D01*
X133917834Y-134499316D01*
X133913638Y-134483656D01*
X133868334Y-134255900D01*
X133866219Y-134239839D01*
X133850765Y-134004042D01*
X133850500Y-133995933D01*
X133850500Y-130874038D01*
X137149500Y-130874038D01*
X137149500Y-131125961D01*
X137188910Y-131374785D01*
X137266760Y-131614383D01*
X137381132Y-131838848D01*
X137529201Y-132042649D01*
X137529205Y-132042654D01*
X137707345Y-132220794D01*
X137707350Y-132220798D01*
X137885117Y-132349952D01*
X137911155Y-132368870D01*
X138054184Y-132441747D01*
X138135616Y-132483239D01*
X138135618Y-132483239D01*
X138135621Y-132483241D01*
X138375215Y-132561090D01*
X138624038Y-132600500D01*
X138624039Y-132600500D01*
X138875961Y-132600500D01*
X138875962Y-132600500D01*
X139124785Y-132561090D01*
X139364379Y-132483241D01*
X139588845Y-132368870D01*
X139792656Y-132220793D01*
X139970793Y-132042656D01*
X140118870Y-131838845D01*
X140233241Y-131614379D01*
X140311090Y-131374785D01*
X140350500Y-131125962D01*
X140350500Y-130874038D01*
X177149500Y-130874038D01*
X177149500Y-131125961D01*
X177188910Y-131374785D01*
X177266760Y-131614383D01*
X177381132Y-131838848D01*
X177529201Y-132042649D01*
X177529205Y-132042654D01*
X177707345Y-132220794D01*
X177707350Y-132220798D01*
X177885117Y-132349952D01*
X177911155Y-132368870D01*
X178054184Y-132441747D01*
X178135616Y-132483239D01*
X178135618Y-132483239D01*
X178135621Y-132483241D01*
X178375215Y-132561090D01*
X178624038Y-132600500D01*
X178624039Y-132600500D01*
X178875961Y-132600500D01*
X178875962Y-132600500D01*
X179124785Y-132561090D01*
X179364379Y-132483241D01*
X179588845Y-132368870D01*
X179792656Y-132220793D01*
X179970793Y-132042656D01*
X180118870Y-131838845D01*
X180233241Y-131614379D01*
X180311090Y-131374785D01*
X180350500Y-131125962D01*
X180350500Y-130874038D01*
X180311090Y-130625215D01*
X180233241Y-130385621D01*
X180233239Y-130385618D01*
X180233239Y-130385616D01*
X180191747Y-130304184D01*
X180118870Y-130161155D01*
X180099952Y-130135117D01*
X179970798Y-129957350D01*
X179970794Y-129957345D01*
X179792654Y-129779205D01*
X179792649Y-129779201D01*
X179588848Y-129631132D01*
X179588847Y-129631131D01*
X179588845Y-129631130D01*
X179518747Y-129595413D01*
X179364383Y-129516760D01*
X179124785Y-129438910D01*
X178875962Y-129399500D01*
X178624038Y-129399500D01*
X178499626Y-129419205D01*
X178375214Y-129438910D01*
X178135616Y-129516760D01*
X177911151Y-129631132D01*
X177707350Y-129779201D01*
X177707345Y-129779205D01*
X177529205Y-129957345D01*
X177529201Y-129957350D01*
X177381132Y-130161151D01*
X177266760Y-130385616D01*
X177188910Y-130625214D01*
X177149500Y-130874038D01*
X140350500Y-130874038D01*
X140311090Y-130625215D01*
X140233241Y-130385621D01*
X140233239Y-130385618D01*
X140233239Y-130385616D01*
X140191747Y-130304184D01*
X140118870Y-130161155D01*
X140099952Y-130135117D01*
X139970798Y-129957350D01*
X139970794Y-129957345D01*
X139792654Y-129779205D01*
X139792649Y-129779201D01*
X139588848Y-129631132D01*
X139588847Y-129631131D01*
X139588845Y-129631130D01*
X139518747Y-129595413D01*
X139364383Y-129516760D01*
X139124785Y-129438910D01*
X138875962Y-129399500D01*
X138624038Y-129399500D01*
X138499626Y-129419205D01*
X138375214Y-129438910D01*
X138135616Y-129516760D01*
X137911151Y-129631132D01*
X137707350Y-129779201D01*
X137707345Y-129779205D01*
X137529205Y-129957345D01*
X137529201Y-129957350D01*
X137381132Y-130161151D01*
X137266760Y-130385616D01*
X137188910Y-130625214D01*
X137149500Y-130874038D01*
X133850500Y-130874038D01*
X133850500Y-110629999D01*
X143144341Y-110629999D01*
X143144341Y-110630000D01*
X143164936Y-110865403D01*
X143164938Y-110865413D01*
X143226094Y-111093655D01*
X143226096Y-111093659D01*
X143226097Y-111093663D01*
X143301563Y-111255499D01*
X143325965Y-111307830D01*
X143325967Y-111307834D01*
X143426703Y-111451699D01*
X143458785Y-111497517D01*
X143461501Y-111501395D01*
X143461506Y-111501402D01*
X143628597Y-111668493D01*
X143628603Y-111668498D01*
X143814158Y-111798425D01*
X143857783Y-111853002D01*
X143864977Y-111922500D01*
X143833454Y-111984855D01*
X143814158Y-112001575D01*
X143628597Y-112131505D01*
X143461505Y-112298597D01*
X143325965Y-112492169D01*
X143325964Y-112492171D01*
X143226098Y-112706335D01*
X143226094Y-112706344D01*
X143164938Y-112934586D01*
X143164936Y-112934596D01*
X143144341Y-113169999D01*
X143144341Y-113170000D01*
X143164936Y-113405403D01*
X143164938Y-113405413D01*
X143226094Y-113633655D01*
X143226096Y-113633659D01*
X143226097Y-113633663D01*
X143305481Y-113803902D01*
X143325965Y-113847830D01*
X143325967Y-113847834D01*
X143407140Y-113963760D01*
X143458785Y-114037517D01*
X143461501Y-114041395D01*
X143461506Y-114041402D01*
X143628597Y-114208493D01*
X143628603Y-114208498D01*
X143814158Y-114338425D01*
X143857783Y-114393002D01*
X143864977Y-114462500D01*
X143833454Y-114524855D01*
X143814158Y-114541575D01*
X143628597Y-114671505D01*
X143461505Y-114838597D01*
X143325965Y-115032169D01*
X143325964Y-115032171D01*
X143226098Y-115246335D01*
X143226094Y-115246344D01*
X143164938Y-115474586D01*
X143164936Y-115474596D01*
X143144341Y-115709999D01*
X143144341Y-115710000D01*
X143164936Y-115945403D01*
X143164938Y-115945413D01*
X143226094Y-116173655D01*
X143226096Y-116173659D01*
X143226097Y-116173663D01*
X143292865Y-116316846D01*
X143325965Y-116387830D01*
X143325967Y-116387834D01*
X143411874Y-116510521D01*
X143458785Y-116577517D01*
X143461501Y-116581395D01*
X143461506Y-116581402D01*
X143628597Y-116748493D01*
X143628603Y-116748498D01*
X143814158Y-116878425D01*
X143857783Y-116933002D01*
X143864977Y-117002500D01*
X143833454Y-117064855D01*
X143814158Y-117081575D01*
X143628597Y-117211505D01*
X143461505Y-117378597D01*
X143325965Y-117572169D01*
X143325964Y-117572171D01*
X143226098Y-117786335D01*
X143226094Y-117786344D01*
X143164938Y-118014586D01*
X143164936Y-118014596D01*
X143144341Y-118249999D01*
X143144341Y-118250000D01*
X143164936Y-118485403D01*
X143164938Y-118485413D01*
X143226094Y-118713655D01*
X143226096Y-118713659D01*
X143226097Y-118713663D01*
X143325965Y-118927830D01*
X143325967Y-118927834D01*
X143434281Y-119082521D01*
X143461505Y-119121401D01*
X143628599Y-119288495D01*
X143648566Y-119302476D01*
X143822165Y-119424032D01*
X143822167Y-119424033D01*
X143822170Y-119424035D01*
X144036337Y-119523903D01*
X144264592Y-119585063D01*
X144452918Y-119601539D01*
X144499999Y-119605659D01*
X144500000Y-119605659D01*
X144500001Y-119605659D01*
X144539234Y-119602226D01*
X144735408Y-119585063D01*
X144963663Y-119523903D01*
X145177830Y-119424035D01*
X145371401Y-119288495D01*
X145538495Y-119121401D01*
X145674035Y-118927830D01*
X145773903Y-118713663D01*
X145835063Y-118485408D01*
X145855659Y-118250000D01*
X145835063Y-118014592D01*
X145800671Y-117886239D01*
X145802334Y-117816393D01*
X145832763Y-117766470D01*
X148232419Y-115366817D01*
X148293742Y-115333332D01*
X148320100Y-115330498D01*
X152068500Y-115330498D01*
X152135539Y-115350183D01*
X152181294Y-115402987D01*
X152192500Y-115454497D01*
X152192500Y-115605668D01*
X152192501Y-115605675D01*
X152198908Y-115665278D01*
X152200692Y-115672825D01*
X152198612Y-115673316D01*
X152202806Y-115732090D01*
X152200777Y-115738998D01*
X152199401Y-115744822D01*
X152193000Y-115804353D01*
X152193000Y-115852198D01*
X152226112Y-115852198D01*
X152293151Y-115871883D01*
X152325378Y-115901886D01*
X152335450Y-115915341D01*
X152335452Y-115915342D01*
X152335454Y-115915345D01*
X152427875Y-115984531D01*
X152469746Y-116040465D01*
X152474730Y-116110157D01*
X152441245Y-116171480D01*
X152379921Y-116204964D01*
X152353564Y-116207798D01*
X152193000Y-116207798D01*
X152193000Y-116255642D01*
X152199401Y-116315170D01*
X152199403Y-116315177D01*
X152249645Y-116449884D01*
X152249649Y-116449891D01*
X152335809Y-116564985D01*
X152335812Y-116564988D01*
X152450906Y-116651148D01*
X152450913Y-116651152D01*
X152585620Y-116701394D01*
X152585627Y-116701396D01*
X152645155Y-116707797D01*
X152645172Y-116707798D01*
X153353400Y-116707798D01*
X153353400Y-116182298D01*
X153373085Y-116115259D01*
X153425889Y-116069504D01*
X153477397Y-116058298D01*
X153585001Y-116058298D01*
X153652039Y-116077983D01*
X153697794Y-116130787D01*
X153709000Y-116182298D01*
X153709000Y-116707798D01*
X154417228Y-116707798D01*
X154417244Y-116707797D01*
X154476772Y-116701396D01*
X154476779Y-116701394D01*
X154611486Y-116651152D01*
X154611493Y-116651148D01*
X154726587Y-116564988D01*
X154726590Y-116564985D01*
X154812750Y-116449891D01*
X154812754Y-116449884D01*
X154862996Y-116315177D01*
X154862998Y-116315170D01*
X154869399Y-116255642D01*
X154869400Y-116255625D01*
X154869400Y-116207798D01*
X154708836Y-116207798D01*
X154641797Y-116188113D01*
X154596042Y-116135309D01*
X154586098Y-116066151D01*
X154615123Y-116002595D01*
X154634522Y-115984533D01*
X154726946Y-115915345D01*
X154726949Y-115915341D01*
X154737022Y-115901886D01*
X154792956Y-115860016D01*
X154836288Y-115852198D01*
X154869400Y-115852198D01*
X154869400Y-115804370D01*
X154869399Y-115804353D01*
X154862997Y-115744820D01*
X154861213Y-115737265D01*
X154863690Y-115736679D01*
X154859587Y-115679362D01*
X154862540Y-115669304D01*
X154863488Y-115665289D01*
X154863491Y-115665282D01*
X154869900Y-115605672D01*
X154869899Y-115154327D01*
X154863491Y-115094716D01*
X154863490Y-115094714D01*
X154863490Y-115094711D01*
X154861708Y-115087168D01*
X154864003Y-115086625D01*
X154859854Y-115028643D01*
X154862306Y-115020294D01*
X154863488Y-115015288D01*
X154863491Y-115015281D01*
X154869900Y-114955671D01*
X154869899Y-114504326D01*
X154863491Y-114444715D01*
X154863491Y-114444714D01*
X154861707Y-114437164D01*
X154864002Y-114436621D01*
X154859857Y-114378635D01*
X154862307Y-114370288D01*
X154863489Y-114365288D01*
X154863489Y-114365287D01*
X154863491Y-114365282D01*
X154869900Y-114305672D01*
X154869899Y-113916695D01*
X154889583Y-113849657D01*
X154942387Y-113803902D01*
X155011546Y-113793958D01*
X155075101Y-113822983D01*
X155081580Y-113829015D01*
X157646939Y-116394374D01*
X157646949Y-116394385D01*
X157651279Y-116398715D01*
X157651280Y-116398716D01*
X157763084Y-116510520D01*
X157847212Y-116559091D01*
X157900015Y-116589577D01*
X158042975Y-116627883D01*
X158085185Y-116648389D01*
X158089469Y-116651596D01*
X158089472Y-116651597D01*
X158224317Y-116701891D01*
X158224316Y-116701891D01*
X158231244Y-116702635D01*
X158283927Y-116708300D01*
X160056072Y-116708299D01*
X160115683Y-116701891D01*
X160250531Y-116651596D01*
X160365746Y-116565346D01*
X160451996Y-116450131D01*
X160502291Y-116315283D01*
X160508700Y-116255673D01*
X160508699Y-116148666D01*
X160528383Y-116081629D01*
X160581187Y-116035874D01*
X160650345Y-116025930D01*
X160713901Y-116054954D01*
X160720380Y-116060987D01*
X164728767Y-120069374D01*
X164728777Y-120069385D01*
X164733107Y-120073715D01*
X164733108Y-120073716D01*
X164844912Y-120185520D01*
X164844914Y-120185521D01*
X164844918Y-120185524D01*
X164981837Y-120264573D01*
X164981844Y-120264577D01*
X165093647Y-120294534D01*
X165134570Y-120305500D01*
X165134571Y-120305500D01*
X173123517Y-120305500D01*
X173123533Y-120305501D01*
X173131129Y-120305501D01*
X173289240Y-120305501D01*
X173289243Y-120305501D01*
X173441971Y-120264577D01*
X173492090Y-120235639D01*
X173578902Y-120185520D01*
X173690706Y-120073716D01*
X173690706Y-120073714D01*
X173700914Y-120063507D01*
X173700916Y-120063504D01*
X174203006Y-119561414D01*
X174203011Y-119561410D01*
X174213214Y-119551206D01*
X174213216Y-119551206D01*
X174325020Y-119439402D01*
X174404077Y-119302470D01*
X174445000Y-119149743D01*
X174445000Y-115435943D01*
X174426561Y-115367127D01*
X174404077Y-115283215D01*
X174362105Y-115210518D01*
X174340253Y-115172669D01*
X174325021Y-115146285D01*
X174208885Y-115030149D01*
X174208874Y-115030139D01*
X173681318Y-114502583D01*
X173647833Y-114441260D01*
X173644999Y-114414902D01*
X173644999Y-114097129D01*
X173644998Y-114097123D01*
X173638591Y-114037516D01*
X173588297Y-113902670D01*
X173584047Y-113894888D01*
X173587116Y-113893211D01*
X173568543Y-113843495D01*
X173583358Y-113775215D01*
X173583739Y-113774622D01*
X173587850Y-113767093D01*
X173638097Y-113632376D01*
X173638098Y-113632372D01*
X173644499Y-113572844D01*
X173644500Y-113572827D01*
X173644500Y-113450000D01*
X171119500Y-113450000D01*
X171119500Y-113572844D01*
X171125901Y-113632372D01*
X171125903Y-113632379D01*
X171176145Y-113767086D01*
X171180397Y-113774872D01*
X171177179Y-113776628D01*
X171195477Y-113825976D01*
X171180493Y-113894220D01*
X171179335Y-113896018D01*
X171175702Y-113902671D01*
X171125410Y-114037513D01*
X171125409Y-114037517D01*
X171119000Y-114097127D01*
X171119000Y-114097134D01*
X171119000Y-114097135D01*
X171119000Y-114842870D01*
X171119001Y-114842876D01*
X171125408Y-114902483D01*
X171175702Y-115037328D01*
X171179954Y-115045114D01*
X171176780Y-115046846D01*
X171195159Y-115096302D01*
X171180225Y-115164557D01*
X171179617Y-115165502D01*
X171175702Y-115172671D01*
X171125410Y-115307513D01*
X171125409Y-115307517D01*
X171119000Y-115367127D01*
X171119000Y-115367135D01*
X171119000Y-115367136D01*
X171119000Y-116112870D01*
X171119001Y-116112876D01*
X171125408Y-116172483D01*
X171175702Y-116307328D01*
X171179954Y-116315114D01*
X171176780Y-116316846D01*
X171195159Y-116366302D01*
X171180225Y-116434557D01*
X171179617Y-116435502D01*
X171175702Y-116442671D01*
X171129949Y-116565344D01*
X171125409Y-116577517D01*
X171119000Y-116637127D01*
X171119000Y-116637134D01*
X171119000Y-116637135D01*
X171119000Y-117382870D01*
X171119001Y-117382876D01*
X171125408Y-117442483D01*
X171175702Y-117577328D01*
X171179954Y-117585114D01*
X171176780Y-117586846D01*
X171195159Y-117636302D01*
X171180225Y-117704557D01*
X171179617Y-117705502D01*
X171175702Y-117712671D01*
X171125410Y-117847513D01*
X171125409Y-117847517D01*
X171119000Y-117907127D01*
X171119000Y-117907134D01*
X171119000Y-117907135D01*
X171119000Y-117907136D01*
X171119001Y-118180500D01*
X171099317Y-118247539D01*
X171046513Y-118293294D01*
X170995001Y-118304500D01*
X168345000Y-118304500D01*
X168277961Y-118284815D01*
X168232206Y-118232011D01*
X168221000Y-118180500D01*
X168220999Y-117907130D01*
X168220998Y-117907123D01*
X168214591Y-117847516D01*
X168164297Y-117712670D01*
X168160047Y-117704888D01*
X168163257Y-117703134D01*
X168144861Y-117654001D01*
X168159627Y-117585709D01*
X168160252Y-117584736D01*
X168164297Y-117577329D01*
X168175552Y-117547150D01*
X168214591Y-117442483D01*
X168221000Y-117382873D01*
X168220999Y-116637128D01*
X168214591Y-116577517D01*
X168207719Y-116559091D01*
X168164297Y-116442670D01*
X168160047Y-116434888D01*
X168163257Y-116433134D01*
X168144861Y-116384001D01*
X168159627Y-116315709D01*
X168160252Y-116314736D01*
X168164297Y-116307329D01*
X168183563Y-116255673D01*
X168214591Y-116172483D01*
X168221000Y-116112873D01*
X168220999Y-115815095D01*
X168240683Y-115748057D01*
X168257313Y-115727420D01*
X170998415Y-112986319D01*
X171059738Y-112952834D01*
X171086096Y-112950000D01*
X173644500Y-112950000D01*
X173644500Y-112827172D01*
X173644499Y-112827155D01*
X173638098Y-112767627D01*
X173638097Y-112767623D01*
X173587849Y-112632904D01*
X173583601Y-112625123D01*
X173586860Y-112623343D01*
X173568546Y-112574374D01*
X173583336Y-112506087D01*
X173584523Y-112504239D01*
X173588293Y-112497335D01*
X173588292Y-112497335D01*
X173588296Y-112497331D01*
X173638591Y-112362483D01*
X173645000Y-112302873D01*
X173644999Y-111557128D01*
X173638591Y-111497517D01*
X173638591Y-111497516D01*
X173588297Y-111362670D01*
X173584047Y-111354888D01*
X173587257Y-111353134D01*
X173568861Y-111304001D01*
X173583627Y-111235709D01*
X173584252Y-111234736D01*
X173588297Y-111227329D01*
X173601644Y-111191542D01*
X173638591Y-111092483D01*
X173645000Y-111032873D01*
X173644999Y-110287128D01*
X173639799Y-110238757D01*
X173638591Y-110227516D01*
X173588297Y-110092671D01*
X173588293Y-110092664D01*
X173502047Y-109977455D01*
X173422623Y-109917997D01*
X173380753Y-109862063D01*
X173375769Y-109792371D01*
X173409254Y-109731049D01*
X173467576Y-109672727D01*
X173556542Y-109528492D01*
X173556547Y-109528481D01*
X173609855Y-109367606D01*
X173619999Y-109268322D01*
X173620000Y-109268309D01*
X173620000Y-109220000D01*
X172544000Y-109220000D01*
X172476961Y-109200315D01*
X172431206Y-109147511D01*
X172420000Y-109096000D01*
X172420000Y-108720000D01*
X172920000Y-108720000D01*
X173619999Y-108720000D01*
X173619999Y-108671692D01*
X173619998Y-108671677D01*
X173609855Y-108572392D01*
X173556547Y-108411518D01*
X173556542Y-108411507D01*
X173467575Y-108267271D01*
X173467572Y-108267267D01*
X173347732Y-108147427D01*
X173347728Y-108147424D01*
X173203492Y-108058457D01*
X173203481Y-108058452D01*
X173042606Y-108005144D01*
X172943322Y-107995000D01*
X172920000Y-107995000D01*
X172920000Y-108720000D01*
X172420000Y-108720000D01*
X172420000Y-107994999D01*
X172396693Y-107995000D01*
X172396674Y-107995001D01*
X172297392Y-108005144D01*
X172136518Y-108058452D01*
X172136507Y-108058457D01*
X171992271Y-108147424D01*
X171992265Y-108147428D01*
X171983031Y-108156663D01*
X171921707Y-108190146D01*
X171852015Y-108185159D01*
X171807672Y-108156660D01*
X171798044Y-108147032D01*
X171798040Y-108147029D01*
X171653705Y-108058001D01*
X171653699Y-108057998D01*
X171653697Y-108057997D01*
X171653694Y-108057996D01*
X171492709Y-108004651D01*
X171393352Y-107994500D01*
X171393345Y-107994500D01*
X171045098Y-107994500D01*
X170978059Y-107974815D01*
X170957417Y-107958181D01*
X170536819Y-107537583D01*
X170503334Y-107476260D01*
X170500500Y-107449902D01*
X170500500Y-104299090D01*
X170520185Y-104232051D01*
X170572101Y-104186706D01*
X170577830Y-104184035D01*
X170771401Y-104048495D01*
X170893717Y-103926178D01*
X170955036Y-103892696D01*
X171024728Y-103897680D01*
X171080662Y-103939551D01*
X171097577Y-103970528D01*
X171146646Y-104102088D01*
X171146649Y-104102093D01*
X171232809Y-104217187D01*
X171232812Y-104217190D01*
X171347906Y-104303350D01*
X171347913Y-104303354D01*
X171482620Y-104353596D01*
X171482627Y-104353598D01*
X171542155Y-104359999D01*
X171542172Y-104360000D01*
X172190000Y-104360000D01*
X172190000Y-103443012D01*
X172247007Y-103475925D01*
X172374174Y-103510000D01*
X172505826Y-103510000D01*
X172632993Y-103475925D01*
X172690000Y-103443012D01*
X172690000Y-104360000D01*
X173337828Y-104360000D01*
X173337844Y-104359999D01*
X173397372Y-104353598D01*
X173397379Y-104353596D01*
X173532086Y-104303354D01*
X173532093Y-104303350D01*
X173647187Y-104217190D01*
X173647190Y-104217187D01*
X173733350Y-104102093D01*
X173733354Y-104102086D01*
X173783596Y-103967379D01*
X173783598Y-103967372D01*
X173789999Y-103907844D01*
X173790000Y-103907827D01*
X173790000Y-103260000D01*
X172873012Y-103260000D01*
X172905925Y-103202993D01*
X172940000Y-103075826D01*
X172940000Y-102944174D01*
X172905925Y-102817007D01*
X172873012Y-102760000D01*
X173790000Y-102760000D01*
X173790000Y-102112172D01*
X173789999Y-102112155D01*
X173783598Y-102052627D01*
X173783596Y-102052620D01*
X173733354Y-101917913D01*
X173733350Y-101917906D01*
X173647190Y-101802812D01*
X173647187Y-101802809D01*
X173532093Y-101716649D01*
X173532086Y-101716645D01*
X173397379Y-101666403D01*
X173397372Y-101666401D01*
X173337844Y-101660000D01*
X172690000Y-101660000D01*
X172690000Y-102576988D01*
X172632993Y-102544075D01*
X172505826Y-102510000D01*
X172374174Y-102510000D01*
X172247007Y-102544075D01*
X172190000Y-102576988D01*
X172190000Y-101660000D01*
X171542155Y-101660000D01*
X171482627Y-101666401D01*
X171482620Y-101666403D01*
X171347913Y-101716645D01*
X171347906Y-101716649D01*
X171232812Y-101802809D01*
X171232809Y-101802812D01*
X171146649Y-101917906D01*
X171146645Y-101917913D01*
X171097578Y-102049470D01*
X171055707Y-102105404D01*
X170990242Y-102129821D01*
X170921969Y-102114969D01*
X170893715Y-102093819D01*
X170849366Y-102049470D01*
X170771401Y-101971505D01*
X170771397Y-101971502D01*
X170771396Y-101971501D01*
X170577834Y-101835967D01*
X170577830Y-101835965D01*
X170506727Y-101802809D01*
X170363663Y-101736097D01*
X170363659Y-101736096D01*
X170363655Y-101736094D01*
X170135413Y-101674938D01*
X170135403Y-101674936D01*
X169900001Y-101654341D01*
X169899999Y-101654341D01*
X169664596Y-101674936D01*
X169664586Y-101674938D01*
X169436344Y-101736094D01*
X169436335Y-101736098D01*
X169222171Y-101835964D01*
X169222169Y-101835965D01*
X169028597Y-101971505D01*
X168861505Y-102138597D01*
X168725965Y-102332169D01*
X168725964Y-102332171D01*
X168626098Y-102546335D01*
X168626094Y-102546344D01*
X168564938Y-102774586D01*
X168564936Y-102774596D01*
X168544341Y-103009999D01*
X168544341Y-103010000D01*
X168564936Y-103245403D01*
X168564938Y-103245413D01*
X168626094Y-103473655D01*
X168626096Y-103473659D01*
X168626097Y-103473663D01*
X168725965Y-103687830D01*
X168725967Y-103687834D01*
X168834281Y-103842521D01*
X168861505Y-103881401D01*
X169028599Y-104048495D01*
X169125384Y-104116265D01*
X169222165Y-104184032D01*
X169222167Y-104184033D01*
X169222170Y-104184035D01*
X169227898Y-104186706D01*
X169280339Y-104232872D01*
X169299500Y-104299090D01*
X169299500Y-107663330D01*
X169299499Y-107663348D01*
X169299499Y-107829054D01*
X169299498Y-107829054D01*
X169340423Y-107981787D01*
X169347764Y-107994500D01*
X169347766Y-107994503D01*
X169419477Y-108118712D01*
X169419481Y-108118717D01*
X169538349Y-108237585D01*
X169538355Y-108237590D01*
X170133181Y-108832416D01*
X170166666Y-108893739D01*
X170169500Y-108920097D01*
X170169500Y-109268337D01*
X170169501Y-109268355D01*
X170179650Y-109367707D01*
X170179651Y-109367710D01*
X170232996Y-109528694D01*
X170233001Y-109528705D01*
X170322029Y-109673040D01*
X170322032Y-109673044D01*
X170441956Y-109792968D01*
X170460596Y-109804465D01*
X170507321Y-109856412D01*
X170519500Y-109910004D01*
X170519500Y-111715402D01*
X170499815Y-111782441D01*
X170483181Y-111803083D01*
X168358505Y-113927758D01*
X168297182Y-113961243D01*
X168227490Y-113956259D01*
X168171557Y-113914387D01*
X168161986Y-113899493D01*
X168159596Y-113895115D01*
X168162724Y-113893407D01*
X168144232Y-113843929D01*
X168159038Y-113775646D01*
X168159985Y-113774171D01*
X168163850Y-113767093D01*
X168214097Y-113632376D01*
X168214098Y-113632372D01*
X168220499Y-113572844D01*
X168220500Y-113572827D01*
X168220500Y-113450000D01*
X167208000Y-113450000D01*
X167208000Y-114596000D01*
X167188315Y-114663039D01*
X167135511Y-114708794D01*
X167084000Y-114720000D01*
X166832000Y-114720000D01*
X166764961Y-114700315D01*
X166719206Y-114647511D01*
X166708000Y-114596000D01*
X166708000Y-113450000D01*
X165695500Y-113450000D01*
X165695500Y-113572844D01*
X165701901Y-113632372D01*
X165701903Y-113632379D01*
X165752145Y-113767086D01*
X165756397Y-113774872D01*
X165753280Y-113776573D01*
X165771773Y-113826155D01*
X165756920Y-113894428D01*
X165755981Y-113895888D01*
X165753996Y-113899523D01*
X165753016Y-113900501D01*
X165747357Y-113909309D01*
X165746833Y-113910009D01*
X165744930Y-113908584D01*
X165704582Y-113948919D01*
X165636307Y-113963760D01*
X165570847Y-113939331D01*
X165557493Y-113927758D01*
X163398090Y-111768355D01*
X163398088Y-111768352D01*
X163279217Y-111649481D01*
X163279216Y-111649480D01*
X163179745Y-111592051D01*
X163179744Y-111592050D01*
X163142283Y-111570422D01*
X163086381Y-111555443D01*
X162989557Y-111529499D01*
X162831443Y-111529499D01*
X162823847Y-111529499D01*
X162823831Y-111529500D01*
X160319983Y-111529500D01*
X160258907Y-111511566D01*
X160258314Y-111512654D01*
X160253313Y-111509923D01*
X160252944Y-111509815D01*
X160252314Y-111509378D01*
X160250528Y-111508402D01*
X160115682Y-111458108D01*
X160115683Y-111458108D01*
X160056083Y-111451701D01*
X160056081Y-111451700D01*
X160056073Y-111451700D01*
X160056064Y-111451700D01*
X158283929Y-111451700D01*
X158283923Y-111451701D01*
X158224316Y-111458108D01*
X158089471Y-111508402D01*
X158089464Y-111508406D01*
X157974255Y-111594652D01*
X157974252Y-111594655D01*
X157888006Y-111709864D01*
X157888002Y-111709871D01*
X157853237Y-111803083D01*
X157837709Y-111844717D01*
X157831300Y-111904327D01*
X157831300Y-111904333D01*
X157831300Y-111904335D01*
X157831300Y-112355670D01*
X157831301Y-112355676D01*
X157837709Y-112415287D01*
X157839492Y-112422831D01*
X157837195Y-112423373D01*
X157841346Y-112481350D01*
X157838890Y-112489716D01*
X157837708Y-112494716D01*
X157831301Y-112554316D01*
X157831300Y-112554335D01*
X157831300Y-113005669D01*
X157831301Y-113005675D01*
X157837709Y-113065283D01*
X157839492Y-113072828D01*
X157837199Y-113073369D01*
X157841341Y-113131372D01*
X157838886Y-113139731D01*
X157837708Y-113144717D01*
X157831301Y-113204317D01*
X157831300Y-113204336D01*
X157831300Y-113655670D01*
X157831301Y-113655676D01*
X157837709Y-113715287D01*
X157839492Y-113722831D01*
X157837195Y-113723373D01*
X157841346Y-113781350D01*
X157838890Y-113789716D01*
X157837708Y-113794716D01*
X157831301Y-113854316D01*
X157831300Y-113854335D01*
X157831300Y-114305669D01*
X157831301Y-114305675D01*
X157837709Y-114365283D01*
X157839492Y-114372828D01*
X157837199Y-114373369D01*
X157841341Y-114431372D01*
X157838886Y-114439731D01*
X157837708Y-114444717D01*
X157831301Y-114504316D01*
X157831300Y-114504335D01*
X157831300Y-114580903D01*
X157811615Y-114647942D01*
X157758811Y-114693697D01*
X157689653Y-114703641D01*
X157626097Y-114674616D01*
X157619619Y-114668584D01*
X155306219Y-112355184D01*
X155272734Y-112293861D01*
X155269900Y-112267503D01*
X155269900Y-112150943D01*
X155269900Y-112150941D01*
X155228977Y-111998214D01*
X155182329Y-111917416D01*
X155149924Y-111861288D01*
X155149918Y-111861280D01*
X154938117Y-111649479D01*
X154938109Y-111649473D01*
X154838650Y-111592051D01*
X154838648Y-111592050D01*
X154801190Y-111570423D01*
X154801189Y-111570422D01*
X154751579Y-111557129D01*
X154658226Y-111532114D01*
X154616014Y-111511608D01*
X154611731Y-111508402D01*
X154611728Y-111508401D01*
X154611727Y-111508400D01*
X154486512Y-111461698D01*
X154430578Y-111419827D01*
X154406161Y-111354363D01*
X154421013Y-111286090D01*
X154442163Y-111257836D01*
X154444999Y-111254999D01*
X154945000Y-111254999D01*
X154968308Y-111254999D01*
X154968322Y-111254998D01*
X155067607Y-111244855D01*
X155228481Y-111191547D01*
X155228492Y-111191542D01*
X155372728Y-111102575D01*
X155372732Y-111102572D01*
X155492572Y-110982732D01*
X155492575Y-110982728D01*
X155581542Y-110838492D01*
X155581547Y-110838481D01*
X155634855Y-110677606D01*
X155644999Y-110578322D01*
X155645000Y-110578309D01*
X155645000Y-110530000D01*
X154945000Y-110530000D01*
X154945000Y-111254999D01*
X154444999Y-111254999D01*
X154445000Y-111254998D01*
X154445000Y-110030000D01*
X154945000Y-110030000D01*
X155644999Y-110030000D01*
X155644999Y-109981692D01*
X155644998Y-109981677D01*
X155634855Y-109882392D01*
X155581547Y-109721518D01*
X155581542Y-109721507D01*
X155492575Y-109577271D01*
X155492572Y-109577267D01*
X155372732Y-109457427D01*
X155372728Y-109457424D01*
X155228492Y-109368457D01*
X155228481Y-109368452D01*
X155067606Y-109315144D01*
X154968322Y-109305000D01*
X154945000Y-109305000D01*
X154945000Y-110030000D01*
X154445000Y-110030000D01*
X154445000Y-109304999D01*
X154421693Y-109305000D01*
X154421674Y-109305001D01*
X154322392Y-109315144D01*
X154161518Y-109368452D01*
X154161507Y-109368457D01*
X154017271Y-109457424D01*
X154017265Y-109457428D01*
X154008031Y-109466663D01*
X153946707Y-109500146D01*
X153877015Y-109495159D01*
X153832672Y-109466660D01*
X153823044Y-109457032D01*
X153823040Y-109457029D01*
X153678705Y-109368001D01*
X153678699Y-109367998D01*
X153678697Y-109367997D01*
X153677517Y-109367606D01*
X153517709Y-109314651D01*
X153418352Y-109304500D01*
X153418345Y-109304500D01*
X153070098Y-109304500D01*
X153003059Y-109284815D01*
X152982417Y-109268181D01*
X151442590Y-107728355D01*
X151442588Y-107728352D01*
X151323717Y-107609481D01*
X151323716Y-107609480D01*
X151236904Y-107559360D01*
X151236904Y-107559359D01*
X151236900Y-107559358D01*
X151186785Y-107530423D01*
X151034057Y-107489499D01*
X150875943Y-107489499D01*
X150868347Y-107489499D01*
X150868331Y-107489500D01*
X145974499Y-107489500D01*
X145907460Y-107469815D01*
X145861705Y-107417011D01*
X145850499Y-107365500D01*
X145850499Y-107192129D01*
X145850498Y-107192123D01*
X145850497Y-107192116D01*
X145844091Y-107132517D01*
X145793796Y-106997669D01*
X145793795Y-106997668D01*
X145793793Y-106997664D01*
X145707547Y-106882455D01*
X145707544Y-106882452D01*
X145592335Y-106796206D01*
X145592328Y-106796202D01*
X145457482Y-106745908D01*
X145457483Y-106745908D01*
X145397883Y-106739501D01*
X145397881Y-106739500D01*
X145397873Y-106739500D01*
X145397864Y-106739500D01*
X143602129Y-106739500D01*
X143602123Y-106739501D01*
X143542516Y-106745908D01*
X143407671Y-106796202D01*
X143407664Y-106796206D01*
X143292455Y-106882452D01*
X143292452Y-106882455D01*
X143206206Y-106997664D01*
X143206202Y-106997671D01*
X143155908Y-107132517D01*
X143149501Y-107192116D01*
X143149501Y-107192123D01*
X143149500Y-107192135D01*
X143149500Y-108987870D01*
X143149501Y-108987876D01*
X143155908Y-109047483D01*
X143206202Y-109182328D01*
X143206206Y-109182335D01*
X143292452Y-109297544D01*
X143292455Y-109297547D01*
X143407664Y-109383793D01*
X143407671Y-109383797D01*
X143539081Y-109432810D01*
X143595015Y-109474681D01*
X143619432Y-109540145D01*
X143604580Y-109608418D01*
X143583430Y-109636673D01*
X143461503Y-109758600D01*
X143325965Y-109952169D01*
X143325964Y-109952171D01*
X143226098Y-110166335D01*
X143226094Y-110166344D01*
X143164938Y-110394586D01*
X143164936Y-110394596D01*
X143144341Y-110629999D01*
X133850500Y-110629999D01*
X133850500Y-102112135D01*
X163469500Y-102112135D01*
X163469500Y-103907870D01*
X163469501Y-103907876D01*
X163475908Y-103967483D01*
X163526202Y-104102328D01*
X163526206Y-104102335D01*
X163612452Y-104217544D01*
X163612455Y-104217547D01*
X163727664Y-104303793D01*
X163727671Y-104303797D01*
X163772618Y-104320561D01*
X163862517Y-104354091D01*
X163922127Y-104360500D01*
X164095500Y-104360499D01*
X164162539Y-104380183D01*
X164208294Y-104432987D01*
X164219500Y-104484499D01*
X164219500Y-110142830D01*
X164219499Y-110142848D01*
X164219499Y-110308554D01*
X164219498Y-110308554D01*
X164260423Y-110461285D01*
X164289358Y-110511400D01*
X164289359Y-110511404D01*
X164289360Y-110511404D01*
X164328013Y-110578355D01*
X164339479Y-110598214D01*
X164339481Y-110598217D01*
X164458349Y-110717085D01*
X164458355Y-110717090D01*
X165658681Y-111917416D01*
X165692166Y-111978739D01*
X165695000Y-112005097D01*
X165695000Y-112302869D01*
X165695001Y-112302876D01*
X165701408Y-112362483D01*
X165751702Y-112497327D01*
X165755952Y-112505109D01*
X165752894Y-112506778D01*
X165771463Y-112556594D01*
X165756598Y-112624864D01*
X165756217Y-112625457D01*
X165752145Y-112632913D01*
X165701903Y-112767620D01*
X165701901Y-112767627D01*
X165695500Y-112827155D01*
X165695500Y-112950000D01*
X168220500Y-112950000D01*
X168220500Y-112827172D01*
X168220499Y-112827155D01*
X168214098Y-112767627D01*
X168214097Y-112767623D01*
X168163849Y-112632904D01*
X168159601Y-112625123D01*
X168162860Y-112623343D01*
X168144546Y-112574374D01*
X168159336Y-112506087D01*
X168160523Y-112504239D01*
X168164293Y-112497335D01*
X168164292Y-112497335D01*
X168164296Y-112497331D01*
X168214591Y-112362483D01*
X168221000Y-112302873D01*
X168220999Y-111557128D01*
X168214591Y-111497517D01*
X168214591Y-111497516D01*
X168164297Y-111362670D01*
X168160047Y-111354888D01*
X168163257Y-111353134D01*
X168144861Y-111304001D01*
X168159627Y-111235709D01*
X168160252Y-111234736D01*
X168164297Y-111227329D01*
X168177644Y-111191542D01*
X168214591Y-111092483D01*
X168221000Y-111032873D01*
X168220999Y-110287128D01*
X168215799Y-110238757D01*
X168214591Y-110227516D01*
X168164297Y-110092671D01*
X168164293Y-110092664D01*
X168078047Y-109977455D01*
X168078044Y-109977452D01*
X167962835Y-109891206D01*
X167962828Y-109891202D01*
X167827982Y-109840908D01*
X167827983Y-109840908D01*
X167768383Y-109834501D01*
X167768381Y-109834500D01*
X167768373Y-109834500D01*
X167768364Y-109834500D01*
X166147629Y-109834500D01*
X166147623Y-109834501D01*
X166088016Y-109840908D01*
X165953171Y-109891202D01*
X165953164Y-109891206D01*
X165837955Y-109977452D01*
X165837952Y-109977455D01*
X165746388Y-110099769D01*
X165744452Y-110098319D01*
X165704210Y-110138548D01*
X165635934Y-110153388D01*
X165570474Y-110128959D01*
X165557121Y-110117386D01*
X165456819Y-110017084D01*
X165423334Y-109955761D01*
X165420500Y-109929403D01*
X165420500Y-104484499D01*
X165440185Y-104417460D01*
X165492989Y-104371705D01*
X165544500Y-104360499D01*
X165717871Y-104360499D01*
X165717872Y-104360499D01*
X165777483Y-104354091D01*
X165912331Y-104303796D01*
X166027546Y-104217546D01*
X166113796Y-104102331D01*
X166164091Y-103967483D01*
X166170500Y-103907873D01*
X166170499Y-102112128D01*
X166164091Y-102052517D01*
X166113884Y-101917906D01*
X166113797Y-101917671D01*
X166113793Y-101917664D01*
X166027547Y-101802455D01*
X166027544Y-101802452D01*
X165912335Y-101716206D01*
X165912328Y-101716202D01*
X165777482Y-101665908D01*
X165777483Y-101665908D01*
X165717883Y-101659501D01*
X165717881Y-101659500D01*
X165717873Y-101659500D01*
X165717864Y-101659500D01*
X163922129Y-101659500D01*
X163922123Y-101659501D01*
X163862516Y-101665908D01*
X163727671Y-101716202D01*
X163727664Y-101716206D01*
X163612455Y-101802452D01*
X163612452Y-101802455D01*
X163526206Y-101917664D01*
X163526202Y-101917671D01*
X163475908Y-102052517D01*
X163471468Y-102093819D01*
X163469501Y-102112123D01*
X163469500Y-102112135D01*
X133850500Y-102112135D01*
X133850500Y-90874038D01*
X137149500Y-90874038D01*
X137149500Y-91125961D01*
X137188910Y-91374785D01*
X137266760Y-91614383D01*
X137381132Y-91838848D01*
X137529201Y-92042649D01*
X137529205Y-92042654D01*
X137707345Y-92220794D01*
X137707350Y-92220798D01*
X137885117Y-92349952D01*
X137911155Y-92368870D01*
X138054184Y-92441747D01*
X138135616Y-92483239D01*
X138135618Y-92483239D01*
X138135621Y-92483241D01*
X138375215Y-92561090D01*
X138624038Y-92600500D01*
X138624039Y-92600500D01*
X138875961Y-92600500D01*
X138875962Y-92600500D01*
X139124785Y-92561090D01*
X139364379Y-92483241D01*
X139588845Y-92368870D01*
X139792656Y-92220793D01*
X139970793Y-92042656D01*
X140118870Y-91838845D01*
X140233241Y-91614379D01*
X140311090Y-91374785D01*
X140350500Y-91125962D01*
X140350500Y-90874038D01*
X177149500Y-90874038D01*
X177149500Y-91125961D01*
X177188910Y-91374785D01*
X177266760Y-91614383D01*
X177381132Y-91838848D01*
X177529201Y-92042649D01*
X177529205Y-92042654D01*
X177707345Y-92220794D01*
X177707350Y-92220798D01*
X177885117Y-92349952D01*
X177911155Y-92368870D01*
X178054184Y-92441747D01*
X178135616Y-92483239D01*
X178135618Y-92483239D01*
X178135621Y-92483241D01*
X178375215Y-92561090D01*
X178624038Y-92600500D01*
X178624039Y-92600500D01*
X178875961Y-92600500D01*
X178875962Y-92600500D01*
X179124785Y-92561090D01*
X179364379Y-92483241D01*
X179588845Y-92368870D01*
X179792656Y-92220793D01*
X179970793Y-92042656D01*
X180118870Y-91838845D01*
X180233241Y-91614379D01*
X180311090Y-91374785D01*
X180350500Y-91125962D01*
X180350500Y-90874038D01*
X180311090Y-90625215D01*
X180233241Y-90385621D01*
X180233239Y-90385618D01*
X180233239Y-90385616D01*
X180191747Y-90304184D01*
X180118870Y-90161155D01*
X180099952Y-90135117D01*
X179970798Y-89957350D01*
X179970794Y-89957345D01*
X179792654Y-89779205D01*
X179792649Y-89779201D01*
X179588848Y-89631132D01*
X179588847Y-89631131D01*
X179588845Y-89631130D01*
X179518747Y-89595413D01*
X179364383Y-89516760D01*
X179124785Y-89438910D01*
X178875962Y-89399500D01*
X178624038Y-89399500D01*
X178499626Y-89419205D01*
X178375214Y-89438910D01*
X178135616Y-89516760D01*
X177911151Y-89631132D01*
X177707350Y-89779201D01*
X177707345Y-89779205D01*
X177529205Y-89957345D01*
X177529201Y-89957350D01*
X177381132Y-90161151D01*
X177266760Y-90385616D01*
X177188910Y-90625214D01*
X177149500Y-90874038D01*
X140350500Y-90874038D01*
X140311090Y-90625215D01*
X140233241Y-90385621D01*
X140233239Y-90385618D01*
X140233239Y-90385616D01*
X140191747Y-90304184D01*
X140118870Y-90161155D01*
X140099952Y-90135117D01*
X139970798Y-89957350D01*
X139970794Y-89957345D01*
X139792654Y-89779205D01*
X139792649Y-89779201D01*
X139588848Y-89631132D01*
X139588847Y-89631131D01*
X139588845Y-89631130D01*
X139518747Y-89595413D01*
X139364383Y-89516760D01*
X139124785Y-89438910D01*
X138875962Y-89399500D01*
X138624038Y-89399500D01*
X138499626Y-89419205D01*
X138375214Y-89438910D01*
X138135616Y-89516760D01*
X137911151Y-89631132D01*
X137707350Y-89779201D01*
X137707345Y-89779205D01*
X137529205Y-89957345D01*
X137529201Y-89957350D01*
X137381132Y-90161151D01*
X137266760Y-90385616D01*
X137188910Y-90625214D01*
X137149500Y-90874038D01*
X133850500Y-90874038D01*
X133850500Y-88004066D01*
X133850765Y-87995957D01*
X133859523Y-87862326D01*
X133866219Y-87760158D01*
X133868334Y-87744101D01*
X133913640Y-87516333D01*
X133917833Y-87500686D01*
X133992482Y-87280776D01*
X133998679Y-87265816D01*
X134101393Y-87057533D01*
X134109500Y-87043493D01*
X134238509Y-86850416D01*
X134248374Y-86837558D01*
X134401497Y-86662955D01*
X134412955Y-86651497D01*
X134587558Y-86498374D01*
X134600411Y-86488512D01*
X134793493Y-86359500D01*
X134807533Y-86351393D01*
X135015816Y-86248679D01*
X135030776Y-86242482D01*
X135250686Y-86167833D01*
X135266333Y-86163640D01*
X135494101Y-86118334D01*
X135510158Y-86116219D01*
X135723768Y-86102219D01*
X135745958Y-86100765D01*
X135754067Y-86100500D01*
X135776929Y-86100500D01*
X181723071Y-86100500D01*
X181745933Y-86100500D01*
X181754042Y-86100765D01*
G37*
%TD.AperFunction*%
%TD*%
M02*
