%TF.GenerationSoftware,KiCad,Pcbnew,7.0.9*%
%TF.CreationDate,2024-01-14T15:58:55-05:00*%
%TF.ProjectId,5.2_5V,352e325f-3556-42e6-9b69-6361645f7063,rev?*%
%TF.SameCoordinates,Original*%
%TF.FileFunction,Legend,Top*%
%TF.FilePolarity,Positive*%
%FSLAX46Y46*%
G04 Gerber Fmt 4.6, Leading zero omitted, Abs format (unit mm)*
G04 Created by KiCad (PCBNEW 7.0.9) date 2024-01-14 15:58:55*
%MOMM*%
%LPD*%
G01*
G04 APERTURE LIST*
%ADD10C,0.150000*%
%ADD11C,0.120000*%
%ADD12C,0.127000*%
%ADD13C,0.200000*%
%ADD14C,0.152400*%
G04 APERTURE END LIST*
D10*
X161801133Y-40773579D02*
X161801133Y-41535484D01*
X162086847Y-42011674D02*
X161801133Y-42773579D01*
X161801133Y-42773579D02*
X161515419Y-42011674D01*
X149929620Y-46434333D02*
X149167716Y-46434333D01*
X148691525Y-46720047D02*
X147929621Y-46434333D01*
X147929621Y-46434333D02*
X148691525Y-46148619D01*
X134702779Y-39316066D02*
X135464684Y-39316066D01*
X135940874Y-39030352D02*
X136702779Y-39316066D01*
X136702779Y-39316066D02*
X135940874Y-39601780D01*
X169773600Y-38404800D02*
G75*
G03*
X169773600Y-38404800I-183162J0D01*
G01*
X140462000Y-41046400D02*
G75*
G03*
X140462000Y-41046400I-183162J0D01*
G01*
X173329600Y-51968400D02*
G75*
G03*
X173329600Y-51968400I-183162J0D01*
G01*
X171653200Y-32867600D02*
G75*
G03*
X171653200Y-32867600I-183162J0D01*
G01*
X176377600Y-42468800D02*
G75*
G03*
X176377600Y-42468800I-183162J0D01*
G01*
X175818800Y-46228000D02*
G75*
G03*
X175818800Y-46228000I-183162J0D01*
G01*
X137089162Y-46736000D02*
G75*
G03*
X137089162Y-46736000I-183162J0D01*
G01*
X146701122Y-47891819D02*
X147034455Y-48891819D01*
X147034455Y-48891819D02*
X147367788Y-47891819D01*
X147701122Y-48891819D02*
X147701122Y-47891819D01*
X148177312Y-48225152D02*
X148177312Y-48891819D01*
X148177312Y-48320390D02*
X148224931Y-48272771D01*
X148224931Y-48272771D02*
X148320169Y-48225152D01*
X148320169Y-48225152D02*
X148463026Y-48225152D01*
X148463026Y-48225152D02*
X148558264Y-48272771D01*
X148558264Y-48272771D02*
X148605883Y-48368009D01*
X148605883Y-48368009D02*
X148605883Y-48891819D01*
X150367788Y-47939438D02*
X150272550Y-47891819D01*
X150272550Y-47891819D02*
X150129693Y-47891819D01*
X150129693Y-47891819D02*
X149986836Y-47939438D01*
X149986836Y-47939438D02*
X149891598Y-48034676D01*
X149891598Y-48034676D02*
X149843979Y-48129914D01*
X149843979Y-48129914D02*
X149796360Y-48320390D01*
X149796360Y-48320390D02*
X149796360Y-48463247D01*
X149796360Y-48463247D02*
X149843979Y-48653723D01*
X149843979Y-48653723D02*
X149891598Y-48748961D01*
X149891598Y-48748961D02*
X149986836Y-48844200D01*
X149986836Y-48844200D02*
X150129693Y-48891819D01*
X150129693Y-48891819D02*
X150224931Y-48891819D01*
X150224931Y-48891819D02*
X150367788Y-48844200D01*
X150367788Y-48844200D02*
X150415407Y-48796580D01*
X150415407Y-48796580D02*
X150415407Y-48463247D01*
X150415407Y-48463247D02*
X150224931Y-48463247D01*
X150843979Y-48891819D02*
X150843979Y-47891819D01*
X150843979Y-47891819D02*
X151415407Y-48891819D01*
X151415407Y-48891819D02*
X151415407Y-47891819D01*
X151891598Y-48891819D02*
X151891598Y-47891819D01*
X151891598Y-47891819D02*
X152129693Y-47891819D01*
X152129693Y-47891819D02*
X152272550Y-47939438D01*
X152272550Y-47939438D02*
X152367788Y-48034676D01*
X152367788Y-48034676D02*
X152415407Y-48129914D01*
X152415407Y-48129914D02*
X152463026Y-48320390D01*
X152463026Y-48320390D02*
X152463026Y-48463247D01*
X152463026Y-48463247D02*
X152415407Y-48653723D01*
X152415407Y-48653723D02*
X152367788Y-48748961D01*
X152367788Y-48748961D02*
X152272550Y-48844200D01*
X152272550Y-48844200D02*
X152129693Y-48891819D01*
X152129693Y-48891819D02*
X151891598Y-48891819D01*
X153605884Y-48844200D02*
X153748741Y-48891819D01*
X153748741Y-48891819D02*
X153986836Y-48891819D01*
X153986836Y-48891819D02*
X154082074Y-48844200D01*
X154082074Y-48844200D02*
X154129693Y-48796580D01*
X154129693Y-48796580D02*
X154177312Y-48701342D01*
X154177312Y-48701342D02*
X154177312Y-48606104D01*
X154177312Y-48606104D02*
X154129693Y-48510866D01*
X154129693Y-48510866D02*
X154082074Y-48463247D01*
X154082074Y-48463247D02*
X153986836Y-48415628D01*
X153986836Y-48415628D02*
X153796360Y-48368009D01*
X153796360Y-48368009D02*
X153701122Y-48320390D01*
X153701122Y-48320390D02*
X153653503Y-48272771D01*
X153653503Y-48272771D02*
X153605884Y-48177533D01*
X153605884Y-48177533D02*
X153605884Y-48082295D01*
X153605884Y-48082295D02*
X153653503Y-47987057D01*
X153653503Y-47987057D02*
X153701122Y-47939438D01*
X153701122Y-47939438D02*
X153796360Y-47891819D01*
X153796360Y-47891819D02*
X154034455Y-47891819D01*
X154034455Y-47891819D02*
X154177312Y-47939438D01*
X154605884Y-48510866D02*
X155367789Y-48510866D01*
X156558265Y-48844200D02*
X156701122Y-48891819D01*
X156701122Y-48891819D02*
X156939217Y-48891819D01*
X156939217Y-48891819D02*
X157034455Y-48844200D01*
X157034455Y-48844200D02*
X157082074Y-48796580D01*
X157082074Y-48796580D02*
X157129693Y-48701342D01*
X157129693Y-48701342D02*
X157129693Y-48606104D01*
X157129693Y-48606104D02*
X157082074Y-48510866D01*
X157082074Y-48510866D02*
X157034455Y-48463247D01*
X157034455Y-48463247D02*
X156939217Y-48415628D01*
X156939217Y-48415628D02*
X156748741Y-48368009D01*
X156748741Y-48368009D02*
X156653503Y-48320390D01*
X156653503Y-48320390D02*
X156605884Y-48272771D01*
X156605884Y-48272771D02*
X156558265Y-48177533D01*
X156558265Y-48177533D02*
X156558265Y-48082295D01*
X156558265Y-48082295D02*
X156605884Y-47987057D01*
X156605884Y-47987057D02*
X156653503Y-47939438D01*
X156653503Y-47939438D02*
X156748741Y-47891819D01*
X156748741Y-47891819D02*
X156986836Y-47891819D01*
X156986836Y-47891819D02*
X157129693Y-47939438D01*
X157558265Y-48510866D02*
X158320170Y-48510866D01*
X157939217Y-48891819D02*
X157939217Y-48129914D01*
X155022779Y-32731152D02*
X155022779Y-33588295D01*
X155022779Y-33588295D02*
X154975160Y-33683533D01*
X154975160Y-33683533D02*
X154879922Y-33731152D01*
X154879922Y-33731152D02*
X154832303Y-33731152D01*
X155022779Y-32397819D02*
X154975160Y-32445438D01*
X154975160Y-32445438D02*
X155022779Y-32493057D01*
X155022779Y-32493057D02*
X155070398Y-32445438D01*
X155070398Y-32445438D02*
X155022779Y-32397819D01*
X155022779Y-32397819D02*
X155022779Y-32493057D01*
X155403731Y-32731152D02*
X155594207Y-33397819D01*
X155594207Y-33397819D02*
X155784683Y-32921628D01*
X155784683Y-32921628D02*
X155975159Y-33397819D01*
X155975159Y-33397819D02*
X156165635Y-32731152D01*
X139798588Y-32359438D02*
X139703350Y-32311819D01*
X139703350Y-32311819D02*
X139560493Y-32311819D01*
X139560493Y-32311819D02*
X139417636Y-32359438D01*
X139417636Y-32359438D02*
X139322398Y-32454676D01*
X139322398Y-32454676D02*
X139274779Y-32549914D01*
X139274779Y-32549914D02*
X139227160Y-32740390D01*
X139227160Y-32740390D02*
X139227160Y-32883247D01*
X139227160Y-32883247D02*
X139274779Y-33073723D01*
X139274779Y-33073723D02*
X139322398Y-33168961D01*
X139322398Y-33168961D02*
X139417636Y-33264200D01*
X139417636Y-33264200D02*
X139560493Y-33311819D01*
X139560493Y-33311819D02*
X139655731Y-33311819D01*
X139655731Y-33311819D02*
X139798588Y-33264200D01*
X139798588Y-33264200D02*
X139846207Y-33216580D01*
X139846207Y-33216580D02*
X139846207Y-32883247D01*
X139846207Y-32883247D02*
X139655731Y-32883247D01*
X140274779Y-33311819D02*
X140274779Y-32311819D01*
X140274779Y-32311819D02*
X140846207Y-33311819D01*
X140846207Y-33311819D02*
X140846207Y-32311819D01*
X141322398Y-33311819D02*
X141322398Y-32311819D01*
X141322398Y-32311819D02*
X141560493Y-32311819D01*
X141560493Y-32311819D02*
X141703350Y-32359438D01*
X141703350Y-32359438D02*
X141798588Y-32454676D01*
X141798588Y-32454676D02*
X141846207Y-32549914D01*
X141846207Y-32549914D02*
X141893826Y-32740390D01*
X141893826Y-32740390D02*
X141893826Y-32883247D01*
X141893826Y-32883247D02*
X141846207Y-33073723D01*
X141846207Y-33073723D02*
X141798588Y-33168961D01*
X141798588Y-33168961D02*
X141703350Y-33264200D01*
X141703350Y-33264200D02*
X141560493Y-33311819D01*
X141560493Y-33311819D02*
X141322398Y-33311819D01*
X139274779Y-34921819D02*
X139274779Y-33921819D01*
X139274779Y-33921819D02*
X139655731Y-33921819D01*
X139655731Y-33921819D02*
X139750969Y-33969438D01*
X139750969Y-33969438D02*
X139798588Y-34017057D01*
X139798588Y-34017057D02*
X139846207Y-34112295D01*
X139846207Y-34112295D02*
X139846207Y-34255152D01*
X139846207Y-34255152D02*
X139798588Y-34350390D01*
X139798588Y-34350390D02*
X139750969Y-34398009D01*
X139750969Y-34398009D02*
X139655731Y-34445628D01*
X139655731Y-34445628D02*
X139274779Y-34445628D01*
X140179541Y-33921819D02*
X140417636Y-34921819D01*
X140417636Y-34921819D02*
X140608112Y-34207533D01*
X140608112Y-34207533D02*
X140798588Y-34921819D01*
X140798588Y-34921819D02*
X141036684Y-33921819D01*
X141989064Y-34921819D02*
X141655731Y-34445628D01*
X141417636Y-34921819D02*
X141417636Y-33921819D01*
X141417636Y-33921819D02*
X141798588Y-33921819D01*
X141798588Y-33921819D02*
X141893826Y-33969438D01*
X141893826Y-33969438D02*
X141941445Y-34017057D01*
X141941445Y-34017057D02*
X141989064Y-34112295D01*
X141989064Y-34112295D02*
X141989064Y-34255152D01*
X141989064Y-34255152D02*
X141941445Y-34350390D01*
X141941445Y-34350390D02*
X141893826Y-34398009D01*
X141893826Y-34398009D02*
X141798588Y-34445628D01*
X141798588Y-34445628D02*
X141417636Y-34445628D01*
D11*
%TO.C,R1*%
X165946400Y-35957636D02*
X165946400Y-40311764D01*
X162526400Y-35957636D02*
X162526400Y-40311764D01*
%TO.C,C3*%
X180642800Y-41999780D02*
X180642800Y-41718620D01*
X181662800Y-41999780D02*
X181662800Y-41718620D01*
%TO.C,C1*%
X156335000Y-38494580D02*
X156335000Y-38213420D01*
X157355000Y-38494580D02*
X157355000Y-38213420D01*
%TO.C,C4*%
X140609420Y-38740000D02*
X140890580Y-38740000D01*
X140609420Y-39760000D02*
X140890580Y-39760000D01*
D12*
%TO.C,U3*%
X175604800Y-41984800D02*
X178604800Y-41984800D01*
X175604800Y-44984800D02*
X178604800Y-44984800D01*
D13*
X173704800Y-42234800D02*
G75*
G03*
X173704800Y-42234800I-100000J0D01*
G01*
D11*
%TO.C,J2*%
X126231200Y-41663500D02*
X127481200Y-41663500D01*
X126521200Y-41373500D02*
X132491200Y-41373500D01*
X132491200Y-41373500D02*
X132491200Y-33753500D01*
X126531200Y-41363500D02*
X127281200Y-41363500D01*
X127281200Y-41363500D02*
X127281200Y-39563500D01*
X128781200Y-41363500D02*
X128781200Y-40613500D01*
X128781200Y-40613500D02*
X131731200Y-40613500D01*
X131731200Y-40613500D02*
X131731200Y-37563500D01*
X126231200Y-40413500D02*
X126231200Y-41663500D01*
X126531200Y-39563500D02*
X126531200Y-41363500D01*
X127281200Y-39563500D02*
X126531200Y-39563500D01*
X126531200Y-38063500D02*
X127281200Y-38063500D01*
X127281200Y-38063500D02*
X127281200Y-37063500D01*
X126531200Y-37063500D02*
X126531200Y-38063500D01*
X127281200Y-37063500D02*
X126531200Y-37063500D01*
X126531200Y-35563500D02*
X127281200Y-35563500D01*
X127281200Y-35563500D02*
X127281200Y-33763500D01*
X128781200Y-34513500D02*
X131731200Y-34513500D01*
X131731200Y-34513500D02*
X131731200Y-37563500D01*
X126531200Y-33763500D02*
X126531200Y-35563500D01*
X127281200Y-33763500D02*
X126531200Y-33763500D01*
X128781200Y-33763500D02*
X128781200Y-34513500D01*
X126521200Y-33753500D02*
X126521200Y-41373500D01*
X132491200Y-33753500D02*
X126521200Y-33753500D01*
%TO.C,C5*%
X137781420Y-37082000D02*
X138062580Y-37082000D01*
X137781420Y-38102000D02*
X138062580Y-38102000D01*
%TO.C,J1*%
X156510800Y-56513400D02*
X156510800Y-55263400D01*
X156220800Y-56223400D02*
X156220800Y-50253400D01*
X156220800Y-50253400D02*
X143600800Y-50253400D01*
X156210800Y-56213400D02*
X156210800Y-55463400D01*
X156210800Y-55463400D02*
X154410800Y-55463400D01*
X156210800Y-53963400D02*
X155460800Y-53963400D01*
X155460800Y-53963400D02*
X155460800Y-51013400D01*
X155460800Y-51013400D02*
X149910800Y-51013400D01*
X155260800Y-56513400D02*
X156510800Y-56513400D01*
X154410800Y-56213400D02*
X156210800Y-56213400D01*
X154410800Y-55463400D02*
X154410800Y-56213400D01*
X152910800Y-56213400D02*
X152910800Y-55463400D01*
X152910800Y-55463400D02*
X146910800Y-55463400D01*
X146910800Y-56213400D02*
X152910800Y-56213400D01*
X146910800Y-55463400D02*
X146910800Y-56213400D01*
X145410800Y-56213400D02*
X145410800Y-55463400D01*
X145410800Y-55463400D02*
X143610800Y-55463400D01*
X144360800Y-53963400D02*
X144360800Y-51013400D01*
X144360800Y-51013400D02*
X149910800Y-51013400D01*
X143610800Y-56213400D02*
X145410800Y-56213400D01*
X143610800Y-55463400D02*
X143610800Y-56213400D01*
X143610800Y-53963400D02*
X144360800Y-53963400D01*
X143600800Y-56223400D02*
X156220800Y-56223400D01*
X143600800Y-50253400D02*
X143600800Y-56223400D01*
%TO.C,D6*%
X147835000Y-44108000D02*
X147835000Y-45808000D01*
X147835000Y-44108000D02*
X150495000Y-44108000D01*
X147835000Y-45808000D02*
X150495000Y-45808000D01*
%TO.C,C14*%
X158001580Y-44960000D02*
X157720420Y-44960000D01*
X158001580Y-43940000D02*
X157720420Y-43940000D01*
%TO.C,R5*%
X133208500Y-43886658D02*
X133208500Y-43412142D01*
X134253500Y-43886658D02*
X134253500Y-43412142D01*
D14*
%TO.C,U12*%
X175130947Y-50634900D02*
X177878253Y-50634900D01*
X177878253Y-45631100D02*
X175130947Y-45631100D01*
X176199800Y-45631100D02*
G75*
G03*
X176809400Y-45631100I304800J0D01*
G01*
D12*
%TO.C,Q1*%
X146106000Y-33326000D02*
X152326000Y-33326000D01*
X146106000Y-39826000D02*
X146106000Y-33326000D01*
X152326000Y-39826000D02*
X146106000Y-39826000D01*
D13*
X142036000Y-34276000D02*
G75*
G03*
X142036000Y-34276000I-100000J0D01*
G01*
D11*
%TO.C,C10*%
X146925420Y-40638000D02*
X147206580Y-40638000D01*
X146925420Y-41658000D02*
X147206580Y-41658000D01*
%TO.C,R3*%
X174178700Y-40369258D02*
X174178700Y-39894742D01*
X175223700Y-40369258D02*
X175223700Y-39894742D01*
%TO.C,R10*%
X156605500Y-41291742D02*
X156605500Y-41766258D01*
X155560500Y-41291742D02*
X155560500Y-41766258D01*
%TO.C,L1*%
X153532721Y-40765000D02*
X153858279Y-40765000D01*
X153532721Y-41785000D02*
X153858279Y-41785000D01*
D13*
%TO.C,U8*%
X134618000Y-46213400D02*
X136145000Y-46213400D01*
X136495000Y-46341400D02*
X139691000Y-46341400D01*
X136495000Y-51245400D02*
X136495000Y-46341400D01*
X139691000Y-46341400D02*
X139691000Y-51245400D01*
X139691000Y-51245400D02*
X136495000Y-51245400D01*
D11*
%TO.C,R16*%
X163340000Y-55171964D02*
X163340000Y-53717836D01*
X165160000Y-55171964D02*
X165160000Y-53717836D01*
%TO.C,C18*%
X140450180Y-52884800D02*
X140169020Y-52884800D01*
X140450180Y-51864800D02*
X140169020Y-51864800D01*
%TO.C,C12*%
X155307420Y-46480000D02*
X155588580Y-46480000D01*
X155307420Y-47500000D02*
X155588580Y-47500000D01*
%TO.C,R13*%
X164354742Y-50531500D02*
X164829258Y-50531500D01*
X164354742Y-51576500D02*
X164829258Y-51576500D01*
%TO.C,C15*%
X143156400Y-47370420D02*
X143156400Y-47651580D01*
X142136400Y-47370420D02*
X142136400Y-47651580D01*
%TO.C,R12*%
X145171900Y-48192458D02*
X145171900Y-47717942D01*
X146216900Y-48192458D02*
X146216900Y-47717942D01*
%TO.C,R8*%
X150607500Y-42401258D02*
X150607500Y-41926742D01*
X151652500Y-42401258D02*
X151652500Y-41926742D01*
%TO.C,R18*%
X179086742Y-54087500D02*
X179561258Y-54087500D01*
X179086742Y-55132500D02*
X179561258Y-55132500D01*
D12*
%TO.C,Q2*%
X132415000Y-46196000D02*
X132415000Y-52416000D01*
X125915000Y-46196000D02*
X132415000Y-46196000D01*
X125915000Y-52416000D02*
X125915000Y-46196000D01*
D13*
X131565000Y-42026000D02*
G75*
G03*
X131565000Y-42026000I-100000J0D01*
G01*
D11*
%TO.C,R6*%
X145781500Y-45131258D02*
X145781500Y-44656742D01*
X146826500Y-45131258D02*
X146826500Y-44656742D01*
%TO.C,C23*%
X170828580Y-50802000D02*
X170547420Y-50802000D01*
X170828580Y-49782000D02*
X170547420Y-49782000D01*
%TO.C,R9*%
X152541500Y-45228742D02*
X152541500Y-45703258D01*
X151496500Y-45228742D02*
X151496500Y-45703258D01*
%TO.C,R15*%
X161539600Y-53768636D02*
X161539600Y-55222764D01*
X159719600Y-53768636D02*
X159719600Y-55222764D01*
%TO.C,C19*%
X140450180Y-54459600D02*
X140169020Y-54459600D01*
X140450180Y-53439600D02*
X140169020Y-53439600D01*
%TO.C,C2*%
X159398580Y-38102000D02*
X159117420Y-38102000D01*
X159398580Y-37082000D02*
X159117420Y-37082000D01*
%TO.C,C9*%
X133221000Y-40691980D02*
X133221000Y-40410820D01*
X134241000Y-40691980D02*
X134241000Y-40410820D01*
%TO.C,C6*%
X140956420Y-37082000D02*
X141237580Y-37082000D01*
X140956420Y-38102000D02*
X141237580Y-38102000D01*
D14*
%TO.C,U9*%
X171869100Y-56476900D02*
X176110900Y-56476900D01*
X176110900Y-51219100D02*
X171869100Y-51219100D01*
D11*
%TO.C,D5*%
X136230000Y-38848400D02*
X136230000Y-37148400D01*
X136230000Y-38848400D02*
X133570000Y-38848400D01*
X136230000Y-37148400D02*
X133570000Y-37148400D01*
%TO.C,R7*%
X148479742Y-42403500D02*
X148954258Y-42403500D01*
X148479742Y-43448500D02*
X148954258Y-43448500D01*
D12*
%TO.C,U2*%
X166461600Y-35423200D02*
X166461600Y-56423200D01*
X166461600Y-56423200D02*
X184261600Y-56423200D01*
X184261600Y-35423200D02*
X166461600Y-35423200D01*
X184261600Y-56423200D02*
X184261600Y-35423200D01*
D13*
X165761600Y-38303200D02*
G75*
G03*
X165761600Y-38303200I-100000J0D01*
G01*
D14*
%TO.C,U4*%
X139560300Y-45504100D02*
X143725900Y-45504100D01*
X143725900Y-40347900D02*
X139560300Y-40347900D01*
%TO.C,U1*%
X170599100Y-37426900D02*
X174840900Y-37426900D01*
X174840900Y-32169100D02*
X170599100Y-32169100D01*
D11*
%TO.C,C13*%
X159133000Y-41896420D02*
X159133000Y-42177580D01*
X158113000Y-41896420D02*
X158113000Y-42177580D01*
%TO.C,R11*%
X155052500Y-44941258D02*
X155052500Y-44466742D01*
X156097500Y-44941258D02*
X156097500Y-44466742D01*
%TO.C,R4*%
X176921900Y-40369258D02*
X176921900Y-39894742D01*
X177966900Y-40369258D02*
X177966900Y-39894742D01*
%TO.C,C17*%
X134012400Y-48792820D02*
X134012400Y-49073980D01*
X132992400Y-48792820D02*
X132992400Y-49073980D01*
%TO.C,C11*%
X154307000Y-43547420D02*
X154307000Y-43828580D01*
X153287000Y-43547420D02*
X153287000Y-43828580D01*
%TO.C,R17*%
X170982742Y-47107500D02*
X171457258Y-47107500D01*
X170982742Y-48152500D02*
X171457258Y-48152500D01*
%TO.C,C22*%
X179183420Y-52576000D02*
X179464580Y-52576000D01*
X179183420Y-53596000D02*
X179464580Y-53596000D01*
%TO.C,C16*%
X144680400Y-47370420D02*
X144680400Y-47651580D01*
X143660400Y-47370420D02*
X143660400Y-47651580D01*
%TO.C,C20*%
X180592000Y-45606580D02*
X180592000Y-45325420D01*
X181612000Y-45606580D02*
X181612000Y-45325420D01*
%TO.C,C8*%
X137035000Y-42023420D02*
X137035000Y-42304580D01*
X136015000Y-42023420D02*
X136015000Y-42304580D01*
%TO.C,D4*%
X159551000Y-44028000D02*
X161251000Y-44028000D01*
X159551000Y-44028000D02*
X159551000Y-41368000D01*
X161251000Y-44028000D02*
X161251000Y-41368000D01*
%TO.C,C21*%
X181612000Y-48386420D02*
X181612000Y-48667580D01*
X180592000Y-48386420D02*
X180592000Y-48667580D01*
%TO.C,R14*%
X160290742Y-50531500D02*
X160765258Y-50531500D01*
X160290742Y-51576500D02*
X160765258Y-51576500D01*
%TO.C,R2*%
X155888458Y-36387300D02*
X155413942Y-36387300D01*
X155888458Y-35342300D02*
X155413942Y-35342300D01*
%TD*%
M02*
