%TF.GenerationSoftware,KiCad,Pcbnew,7.0.9*%
%TF.CreationDate,2024-01-14T15:58:55-05:00*%
%TF.ProjectId,5.2_5V,352e325f-3556-42e6-9b69-6361645f7063,rev?*%
%TF.SameCoordinates,Original*%
%TF.FileFunction,Copper,L1,Top*%
%TF.FilePolarity,Positive*%
%FSLAX46Y46*%
G04 Gerber Fmt 4.6, Leading zero omitted, Abs format (unit mm)*
G04 Created by KiCad (PCBNEW 7.0.9) date 2024-01-14 15:58:55*
%MOMM*%
%LPD*%
G01*
G04 APERTURE LIST*
G04 Aperture macros list*
%AMRoundRect*
0 Rectangle with rounded corners*
0 $1 Rounding radius*
0 $2 $3 $4 $5 $6 $7 $8 $9 X,Y pos of 4 corners*
0 Add a 4 corners polygon primitive as box body*
4,1,4,$2,$3,$4,$5,$6,$7,$8,$9,$2,$3,0*
0 Add four circle primitives for the rounded corners*
1,1,$1+$1,$2,$3*
1,1,$1+$1,$4,$5*
1,1,$1+$1,$6,$7*
1,1,$1+$1,$8,$9*
0 Add four rect primitives between the rounded corners*
20,1,$1+$1,$2,$3,$4,$5,0*
20,1,$1+$1,$4,$5,$6,$7,0*
20,1,$1+$1,$6,$7,$8,$9,0*
20,1,$1+$1,$8,$9,$2,$3,0*%
G04 Aperture macros list end*
%TA.AperFunction,ComponentPad*%
%ADD10C,4.400000*%
%TD*%
%TA.AperFunction,SMDPad,CuDef*%
%ADD11RoundRect,0.250000X-1.425000X0.362500X-1.425000X-0.362500X1.425000X-0.362500X1.425000X0.362500X0*%
%TD*%
%TA.AperFunction,SMDPad,CuDef*%
%ADD12RoundRect,0.225000X0.250000X-0.225000X0.250000X0.225000X-0.250000X0.225000X-0.250000X-0.225000X0*%
%TD*%
%TA.AperFunction,SMDPad,CuDef*%
%ADD13RoundRect,0.225000X-0.225000X-0.250000X0.225000X-0.250000X0.225000X0.250000X-0.225000X0.250000X0*%
%TD*%
%TA.AperFunction,SMDPad,CuDef*%
%ADD14RoundRect,0.011200X-0.723800X-0.128800X0.723800X-0.128800X0.723800X0.128800X-0.723800X0.128800X0*%
%TD*%
%TA.AperFunction,ComponentPad*%
%ADD15RoundRect,0.250000X0.750000X-0.600000X0.750000X0.600000X-0.750000X0.600000X-0.750000X-0.600000X0*%
%TD*%
%TA.AperFunction,ComponentPad*%
%ADD16O,2.000000X1.700000*%
%TD*%
%TA.AperFunction,ComponentPad*%
%ADD17RoundRect,0.250000X0.600000X0.725000X-0.600000X0.725000X-0.600000X-0.725000X0.600000X-0.725000X0*%
%TD*%
%TA.AperFunction,ComponentPad*%
%ADD18O,1.700000X1.950000*%
%TD*%
%TA.AperFunction,SMDPad,CuDef*%
%ADD19RoundRect,0.112500X-0.187500X-0.112500X0.187500X-0.112500X0.187500X0.112500X-0.187500X0.112500X0*%
%TD*%
%TA.AperFunction,SMDPad,CuDef*%
%ADD20RoundRect,0.225000X0.225000X0.250000X-0.225000X0.250000X-0.225000X-0.250000X0.225000X-0.250000X0*%
%TD*%
%TA.AperFunction,SMDPad,CuDef*%
%ADD21RoundRect,0.200000X0.275000X-0.200000X0.275000X0.200000X-0.275000X0.200000X-0.275000X-0.200000X0*%
%TD*%
%TA.AperFunction,SMDPad,CuDef*%
%ADD22R,1.981200X0.558800*%
%TD*%
%TA.AperFunction,SMDPad,CuDef*%
%ADD23R,2.200000X1.200000*%
%TD*%
%TA.AperFunction,SMDPad,CuDef*%
%ADD24R,6.400000X5.800000*%
%TD*%
%TA.AperFunction,SMDPad,CuDef*%
%ADD25RoundRect,0.200000X-0.275000X0.200000X-0.275000X-0.200000X0.275000X-0.200000X0.275000X0.200000X0*%
%TD*%
%TA.AperFunction,SMDPad,CuDef*%
%ADD26RoundRect,0.218750X-0.218750X-0.256250X0.218750X-0.256250X0.218750X0.256250X-0.218750X0.256250X0*%
%TD*%
%TA.AperFunction,SMDPad,CuDef*%
%ADD27R,1.528000X0.650000*%
%TD*%
%TA.AperFunction,SMDPad,CuDef*%
%ADD28RoundRect,0.310444X0.705556X-0.388056X0.705556X0.388056X-0.705556X0.388056X-0.705556X-0.388056X0*%
%TD*%
%TA.AperFunction,SMDPad,CuDef*%
%ADD29RoundRect,0.200000X-0.200000X-0.275000X0.200000X-0.275000X0.200000X0.275000X-0.200000X0.275000X0*%
%TD*%
%TA.AperFunction,SMDPad,CuDef*%
%ADD30RoundRect,0.225000X-0.250000X0.225000X-0.250000X-0.225000X0.250000X-0.225000X0.250000X0.225000X0*%
%TD*%
%TA.AperFunction,SMDPad,CuDef*%
%ADD31R,1.200000X2.200000*%
%TD*%
%TA.AperFunction,SMDPad,CuDef*%
%ADD32R,5.800000X6.400000*%
%TD*%
%TA.AperFunction,SMDPad,CuDef*%
%ADD33RoundRect,0.310444X-0.705556X0.388056X-0.705556X-0.388056X0.705556X-0.388056X0.705556X0.388056X0*%
%TD*%
%TA.AperFunction,SMDPad,CuDef*%
%ADD34RoundRect,0.112500X0.187500X0.112500X-0.187500X0.112500X-0.187500X-0.112500X0.187500X-0.112500X0*%
%TD*%
%TA.AperFunction,ComponentPad*%
%ADD35R,1.530000X1.530000*%
%TD*%
%TA.AperFunction,ComponentPad*%
%ADD36C,1.530000*%
%TD*%
%TA.AperFunction,SMDPad,CuDef*%
%ADD37R,1.498600X0.558800*%
%TD*%
%TA.AperFunction,SMDPad,CuDef*%
%ADD38R,1.460500X0.558800*%
%TD*%
%TA.AperFunction,SMDPad,CuDef*%
%ADD39RoundRect,0.112500X0.112500X-0.187500X0.112500X0.187500X-0.112500X0.187500X-0.112500X-0.187500X0*%
%TD*%
%TA.AperFunction,SMDPad,CuDef*%
%ADD40RoundRect,0.200000X0.200000X0.275000X-0.200000X0.275000X-0.200000X-0.275000X0.200000X-0.275000X0*%
%TD*%
%TA.AperFunction,ViaPad*%
%ADD41C,0.800000*%
%TD*%
%TA.AperFunction,Conductor*%
%ADD42C,0.250000*%
%TD*%
G04 APERTURE END LIST*
D10*
%TO.P,H4,1*%
%TO.N,N/C*%
X161290000Y-47040800D03*
%TD*%
%TO.P,H3,1*%
%TO.N,N/C*%
X159562800Y-34239200D03*
%TD*%
%TO.P,H2,1*%
%TO.N,N/C*%
X136194800Y-54102000D03*
%TD*%
%TO.P,H1,1*%
%TO.N,N/C*%
X135432800Y-34442400D03*
%TD*%
D11*
%TO.P,R1,1*%
%TO.N,Net-(U1-PG)*%
X164236400Y-35172200D03*
%TO.P,R1,2*%
%TO.N,5V*%
X164236400Y-41097200D03*
%TD*%
D12*
%TO.P,C3,1*%
%TO.N,3V3*%
X181152800Y-42634200D03*
%TO.P,C3,2*%
%TO.N,GND*%
X181152800Y-41084200D03*
%TD*%
%TO.P,C1,1*%
%TO.N,5V2*%
X156845000Y-39129000D03*
%TO.P,C1,2*%
%TO.N,GND*%
X156845000Y-37579000D03*
%TD*%
D13*
%TO.P,C4,1*%
%TO.N,Net-(D5-K)*%
X139975000Y-39250000D03*
%TO.P,C4,2*%
%TO.N,GND*%
X141525000Y-39250000D03*
%TD*%
D14*
%TO.P,U3,1,ADDR*%
%TO.N,GND*%
X174954800Y-42484800D03*
%TO.P,U3,2,ALERT/RDY*%
%TO.N,unconnected-(U3-ALERT{slash}RDY-Pad2)*%
X174954800Y-42984800D03*
%TO.P,U3,3,GND*%
%TO.N,GND*%
X174954800Y-43484800D03*
%TO.P,U3,4,AIN0*%
%TO.N,ampSig*%
X174954800Y-43984800D03*
%TO.P,U3,5,AIN1*%
%TO.N,GND*%
X174954800Y-44484800D03*
%TO.P,U3,6,AIN2*%
%TO.N,unconnected-(U3-AIN2-Pad6)*%
X179254800Y-44484800D03*
%TO.P,U3,7,AIN3*%
%TO.N,unconnected-(U3-AIN3-Pad7)*%
X179254800Y-43984800D03*
%TO.P,U3,8,VDD*%
%TO.N,3V3*%
X179254800Y-43484800D03*
%TO.P,U3,9,SDA*%
%TO.N,Net-(U2-PA8_A4_D4_SDA)*%
X179254800Y-42984800D03*
%TO.P,U3,10,SCL*%
%TO.N,Net-(U2-PA9_A5_D5_SCL)*%
X179254800Y-42484800D03*
%TD*%
D15*
%TO.P,J2,1,1*%
%TO.N,Net-(D5-A)*%
X128981200Y-38813500D03*
D16*
%TO.P,J2,2,2*%
%TO.N,GND*%
X128981200Y-36313500D03*
%TD*%
D13*
%TO.P,C5,1*%
%TO.N,Net-(D5-K)*%
X137147000Y-37592000D03*
%TO.P,C5,2*%
%TO.N,Net-(C5-Pad2)*%
X138697000Y-37592000D03*
%TD*%
D17*
%TO.P,J1,1,Pin_1*%
%TO.N,Net-(J1-Pin_1)*%
X153660800Y-53763400D03*
D18*
%TO.P,J1,2,Pin_2*%
%TO.N,Net-(J1-Pin_2)*%
X151160800Y-53763400D03*
%TO.P,J1,3,Pin_3*%
%TO.N,GND*%
X148660800Y-53763400D03*
%TO.P,J1,4,Pin_4*%
%TO.N,Net-(J1-Pin_4)*%
X146160800Y-53763400D03*
%TD*%
D19*
%TO.P,D6,1,K*%
%TO.N,Net-(D6-K)*%
X148395000Y-44958000D03*
%TO.P,D6,2,A*%
%TO.N,Net-(D6-A)*%
X150495000Y-44958000D03*
%TD*%
D20*
%TO.P,C14,1*%
%TO.N,Net-(C13-Pad2)*%
X158636000Y-44450000D03*
%TO.P,C14,2*%
%TO.N,GND*%
X157086000Y-44450000D03*
%TD*%
D21*
%TO.P,R5,1*%
%TO.N,Net-(U4-COMP)*%
X133731000Y-44474400D03*
%TO.P,R5,2*%
%TO.N,Net-(C9-Pad1)*%
X133731000Y-42824400D03*
%TD*%
D22*
%TO.P,U12,1,1OUT*%
%TO.N,ampSig*%
X174040800Y-46228000D03*
%TO.P,U12,2,1IN-*%
X174040800Y-47498000D03*
%TO.P,U12,3,1IN+*%
%TO.N,Net-(U12-1IN+)*%
X174040800Y-48768000D03*
%TO.P,U12,4,GND*%
%TO.N,Net-(U12-GND)*%
X174040800Y-50038000D03*
%TO.P,U12,5,2IN+*%
%TO.N,unconnected-(U12-2IN+-Pad5)*%
X178968400Y-50038000D03*
%TO.P,U12,6,2IN-*%
%TO.N,unconnected-(U12-2IN--Pad6)*%
X178968400Y-48768000D03*
%TO.P,U12,7,2OUT*%
%TO.N,unconnected-(U12-2OUT-Pad7)*%
X178968400Y-47498000D03*
%TO.P,U12,8,VCC*%
%TO.N,Net-(U12-VCC)*%
X178968400Y-46228000D03*
%TD*%
D23*
%TO.P,Q1,1,D*%
%TO.N,Net-(D5-K)*%
X144106000Y-34296000D03*
D24*
%TO.P,Q1,2,G*%
%TO.N,Net-(D6-A)*%
X150406000Y-36576000D03*
D23*
%TO.P,Q1,3,S*%
%TO.N,Net-(Q1-S)*%
X144106000Y-38856000D03*
%TD*%
D13*
%TO.P,C10,1*%
%TO.N,Net-(U4-BST)*%
X146291000Y-41148000D03*
%TO.P,C10,2*%
%TO.N,Net-(Q1-S)*%
X147841000Y-41148000D03*
%TD*%
D21*
%TO.P,R3,1*%
%TO.N,3V3*%
X174701200Y-40957000D03*
%TO.P,R3,2*%
%TO.N,Net-(U2-PA8_A4_D4_SDA)*%
X174701200Y-39307000D03*
%TD*%
D25*
%TO.P,R10,1*%
%TO.N,5V2*%
X156083000Y-40704000D03*
%TO.P,R10,2*%
%TO.N,Net-(C11-Pad1)*%
X156083000Y-42354000D03*
%TD*%
D26*
%TO.P,L1,1,1*%
%TO.N,Net-(Q1-S)*%
X152908000Y-41275000D03*
%TO.P,L1,2,2*%
%TO.N,5V2*%
X154483000Y-41275000D03*
%TD*%
D27*
%TO.P,U8,1,NC*%
%TO.N,unconnected-(U8-NC-Pad1)*%
X135382000Y-46888400D03*
%TO.P,U8,2,CAP+*%
%TO.N,Net-(U8-CAP+)*%
X135382000Y-48158400D03*
%TO.P,U8,3,GND*%
%TO.N,GND*%
X135382000Y-49428400D03*
%TO.P,U8,4,CAP-*%
%TO.N,Net-(U8-CAP-)*%
X135382000Y-50698400D03*
%TO.P,U8,5,VOUT*%
%TO.N,Net-(U12-GND)*%
X140804000Y-50698400D03*
%TO.P,U8,6,LV*%
%TO.N,unconnected-(U8-LV-Pad6)*%
X140804000Y-49428400D03*
%TO.P,U8,7,OSC*%
%TO.N,unconnected-(U8-OSC-Pad7)*%
X140804000Y-48158400D03*
%TO.P,U8,8,V+*%
%TO.N,Net-(U12-VCC)*%
X140804000Y-46888400D03*
%TD*%
D28*
%TO.P,R16,1*%
%TO.N,Net-(U9-Ref)*%
X164250000Y-55905400D03*
%TO.P,R16,2*%
%TO.N,ampSig*%
X164250000Y-52984400D03*
%TD*%
D20*
%TO.P,C18,1*%
%TO.N,Net-(U12-GND)*%
X141084600Y-52374800D03*
%TO.P,C18,2*%
%TO.N,GND*%
X139534600Y-52374800D03*
%TD*%
D13*
%TO.P,C12,1*%
%TO.N,5V2*%
X154673000Y-46990000D03*
%TO.P,C12,2*%
%TO.N,GND*%
X156223000Y-46990000D03*
%TD*%
D29*
%TO.P,R13,1*%
%TO.N,Net-(J1-Pin_2)*%
X163767000Y-51054000D03*
%TO.P,R13,2*%
%TO.N,Net-(U9--)*%
X165417000Y-51054000D03*
%TD*%
D30*
%TO.P,C15,1*%
%TO.N,Net-(U12-VCC)*%
X142646400Y-46736000D03*
%TO.P,C15,2*%
%TO.N,GND*%
X142646400Y-48286000D03*
%TD*%
D21*
%TO.P,R12,1*%
%TO.N,Net-(J1-Pin_4)*%
X145694400Y-48780200D03*
%TO.P,R12,2*%
%TO.N,Net-(U12-VCC)*%
X145694400Y-47130200D03*
%TD*%
%TO.P,R8,1*%
%TO.N,Net-(D6-A)*%
X151130000Y-42989000D03*
%TO.P,R8,2*%
%TO.N,Net-(Q1-S)*%
X151130000Y-41339000D03*
%TD*%
D29*
%TO.P,R18,1*%
%TO.N,Net-(R18-Pad1)*%
X178499000Y-54610000D03*
%TO.P,R18,2*%
%TO.N,Net-(U12-1IN+)*%
X180149000Y-54610000D03*
%TD*%
D31*
%TO.P,Q2,1,D*%
%TO.N,Net-(Q1-S)*%
X131445000Y-44196000D03*
D32*
%TO.P,Q2,2,G*%
%TO.N,Net-(Q2-G)*%
X129165000Y-50496000D03*
D31*
%TO.P,Q2,3,S*%
%TO.N,GND*%
X126885000Y-44196000D03*
%TD*%
D21*
%TO.P,R6,1*%
%TO.N,Net-(Q2-G)*%
X146304000Y-45719000D03*
%TO.P,R6,2*%
%TO.N,GND*%
X146304000Y-44069000D03*
%TD*%
D20*
%TO.P,C23,1*%
%TO.N,Net-(U12-GND)*%
X171463000Y-50292000D03*
%TO.P,C23,2*%
%TO.N,GND*%
X169913000Y-50292000D03*
%TD*%
D25*
%TO.P,R9,1*%
%TO.N,5V2*%
X152019000Y-44641000D03*
%TO.P,R9,2*%
%TO.N,Net-(U4-FB)*%
X152019000Y-46291000D03*
%TD*%
D33*
%TO.P,R15,1*%
%TO.N,Net-(U12-VCC)*%
X160629600Y-53035200D03*
%TO.P,R15,2*%
%TO.N,Net-(U9-Ref)*%
X160629600Y-55956200D03*
%TD*%
D20*
%TO.P,C19,1*%
%TO.N,Net-(U12-GND)*%
X141084600Y-53949600D03*
%TO.P,C19,2*%
%TO.N,GND*%
X139534600Y-53949600D03*
%TD*%
%TO.P,C2,1*%
%TO.N,5V*%
X160033000Y-37592000D03*
%TO.P,C2,2*%
%TO.N,Net-(C2-Pad2)*%
X158483000Y-37592000D03*
%TD*%
D12*
%TO.P,C9,1*%
%TO.N,Net-(C9-Pad1)*%
X133731000Y-41326400D03*
%TO.P,C9,2*%
%TO.N,GND*%
X133731000Y-39776400D03*
%TD*%
D13*
%TO.P,C6,1*%
%TO.N,Net-(C5-Pad2)*%
X140322000Y-37592000D03*
%TO.P,C6,2*%
%TO.N,GND*%
X141872000Y-37592000D03*
%TD*%
D22*
%TO.P,U9,1,Rg*%
%TO.N,Net-(U9--)*%
X171526200Y-51943000D03*
%TO.P,U9,2,-*%
X171526200Y-53213000D03*
%TO.P,U9,3,+*%
%TO.N,Net-(U9-+)*%
X171526200Y-54483000D03*
%TO.P,U9,4,Vs-*%
%TO.N,Net-(U12-GND)*%
X171526200Y-55753000D03*
%TO.P,U9,5,Ref*%
%TO.N,Net-(U9-Ref)*%
X176453800Y-55753000D03*
%TO.P,U9,6*%
%TO.N,Net-(R18-Pad1)*%
X176453800Y-54483000D03*
%TO.P,U9,7,Vs+*%
%TO.N,Net-(U12-VCC)*%
X176453800Y-53213000D03*
%TO.P,U9,8,Rg*%
%TO.N,Net-(R17-Pad2)*%
X176453800Y-51943000D03*
%TD*%
D34*
%TO.P,D5,1,K*%
%TO.N,Net-(D5-K)*%
X135670000Y-37998400D03*
%TO.P,D5,2,A*%
%TO.N,Net-(D5-A)*%
X133570000Y-37998400D03*
%TD*%
D29*
%TO.P,R7,1*%
%TO.N,Net-(D6-K)*%
X147892000Y-42926000D03*
%TO.P,R7,2*%
%TO.N,Net-(D6-A)*%
X149542000Y-42926000D03*
%TD*%
D35*
%TO.P,U2,1,PA02_A0_D0*%
%TO.N,GND*%
X167741600Y-38303200D03*
D36*
%TO.P,U2,2,PA4_A1_D1*%
X167741600Y-40843200D03*
%TO.P,U2,3,PA10_A2_D2*%
X167741600Y-43383200D03*
%TO.P,U2,4,PA11_A3_D3*%
X167741600Y-45923200D03*
%TO.P,U2,5,PA8_A4_D4_SDA*%
%TO.N,Net-(U2-PA8_A4_D4_SDA)*%
X167741600Y-48463200D03*
%TO.P,U2,6,PA9_A5_D5_SCL*%
%TO.N,Net-(U2-PA9_A5_D5_SCL)*%
X167741600Y-51003200D03*
%TO.P,U2,7,PB08_A6_D6_TX*%
%TO.N,GND*%
X167741600Y-53543200D03*
%TO.P,U2,8,PB09_A7_D7_RX*%
X182981600Y-53543200D03*
%TO.P,U2,9,PA7_A8_D8_SCK*%
X182981600Y-51003200D03*
%TO.P,U2,10,PA5_A9_D9_MISO*%
X182981600Y-48463200D03*
%TO.P,U2,11,PA6_A10_D10_MOSI*%
X182981600Y-45923200D03*
%TO.P,U2,12,3V3*%
%TO.N,3V3*%
X182981600Y-43383200D03*
%TO.P,U2,13,GND*%
%TO.N,GND*%
X182981600Y-40843200D03*
%TO.P,U2,14,5V*%
%TO.N,Net-(D4-K)*%
X182981600Y-38303200D03*
%TD*%
D37*
%TO.P,U4,1,VCC*%
%TO.N,Net-(D5-K)*%
X138938000Y-41021000D03*
%TO.P,U4,2,COMP*%
%TO.N,Net-(U4-COMP)*%
X138938000Y-42291000D03*
%TO.P,U4,3,FB*%
%TO.N,Net-(U4-FB)*%
X138938000Y-43561000D03*
%TO.P,U4,4,GND*%
%TO.N,GND*%
X138938000Y-44831000D03*
%TO.P,U4,5,LSDR*%
%TO.N,Net-(Q2-G)*%
X144348200Y-44831000D03*
%TO.P,U4,6,VSW*%
%TO.N,Net-(Q1-S)*%
X144348200Y-43561000D03*
%TO.P,U4,7,HSDR*%
%TO.N,Net-(D6-K)*%
X144348200Y-42291000D03*
%TO.P,U4,8,BST*%
%TO.N,Net-(U4-BST)*%
X144348200Y-41021000D03*
%TD*%
D38*
%TO.P,U1,1,GND*%
%TO.N,GND*%
X169995850Y-32893000D03*
%TO.P,U1,2,\u002AEN*%
X169995850Y-34163000D03*
%TO.P,U1,3,IN*%
%TO.N,5V2*%
X169995850Y-35433000D03*
%TO.P,U1,4,IN*%
X169995850Y-36703000D03*
%TO.P,U1,5,OUT*%
%TO.N,5V*%
X175444150Y-36703000D03*
%TO.P,U1,6,OUT*%
X175444150Y-35433000D03*
%TO.P,U1,7,SENSE/FB*%
X175444150Y-34163000D03*
%TO.P,U1,8,PG*%
%TO.N,Net-(U1-PG)*%
X175444150Y-32893000D03*
%TD*%
D30*
%TO.P,C13,1*%
%TO.N,5V2*%
X158623000Y-41262000D03*
%TO.P,C13,2*%
%TO.N,Net-(C13-Pad2)*%
X158623000Y-42812000D03*
%TD*%
D21*
%TO.P,R11,1*%
%TO.N,Net-(U4-FB)*%
X155575000Y-45529000D03*
%TO.P,R11,2*%
%TO.N,GND*%
X155575000Y-43879000D03*
%TD*%
%TO.P,R4,1*%
%TO.N,3V3*%
X177444400Y-40957000D03*
%TO.P,R4,2*%
%TO.N,Net-(U2-PA9_A5_D5_SCL)*%
X177444400Y-39307000D03*
%TD*%
D30*
%TO.P,C17,1*%
%TO.N,Net-(U8-CAP+)*%
X133502400Y-48158400D03*
%TO.P,C17,2*%
%TO.N,Net-(U8-CAP-)*%
X133502400Y-49708400D03*
%TD*%
%TO.P,C11,1*%
%TO.N,Net-(C11-Pad1)*%
X153797000Y-42913000D03*
%TO.P,C11,2*%
%TO.N,Net-(U4-FB)*%
X153797000Y-44463000D03*
%TD*%
D29*
%TO.P,R17,1*%
%TO.N,Net-(U9--)*%
X170395000Y-47630000D03*
%TO.P,R17,2*%
%TO.N,Net-(R17-Pad2)*%
X172045000Y-47630000D03*
%TD*%
D13*
%TO.P,C22,1*%
%TO.N,Net-(U12-VCC)*%
X178549000Y-53086000D03*
%TO.P,C22,2*%
%TO.N,Net-(U12-GND)*%
X180099000Y-53086000D03*
%TD*%
D30*
%TO.P,C16,1*%
%TO.N,Net-(U12-VCC)*%
X144170400Y-46736000D03*
%TO.P,C16,2*%
%TO.N,GND*%
X144170400Y-48286000D03*
%TD*%
D12*
%TO.P,C20,1*%
%TO.N,Net-(U12-VCC)*%
X181102000Y-46241000D03*
%TO.P,C20,2*%
%TO.N,GND*%
X181102000Y-44691000D03*
%TD*%
D30*
%TO.P,C8,1*%
%TO.N,Net-(U4-COMP)*%
X136525000Y-41389000D03*
%TO.P,C8,2*%
%TO.N,GND*%
X136525000Y-42939000D03*
%TD*%
D39*
%TO.P,D4,1,K*%
%TO.N,Net-(D4-K)*%
X160401000Y-43468000D03*
%TO.P,D4,2,A*%
%TO.N,5V*%
X160401000Y-41368000D03*
%TD*%
D30*
%TO.P,C21,1*%
%TO.N,Net-(U12-VCC)*%
X181102000Y-47752000D03*
%TO.P,C21,2*%
%TO.N,GND*%
X181102000Y-49302000D03*
%TD*%
D29*
%TO.P,R14,1*%
%TO.N,Net-(J1-Pin_1)*%
X159703000Y-51054000D03*
%TO.P,R14,2*%
%TO.N,Net-(U9-+)*%
X161353000Y-51054000D03*
%TD*%
D40*
%TO.P,R2,1*%
%TO.N,Net-(C2-Pad2)*%
X156476200Y-35864800D03*
%TO.P,R2,2*%
%TO.N,GND*%
X154826200Y-35864800D03*
%TD*%
D41*
%TO.N,GND*%
X136499600Y-44297600D03*
X138480800Y-33070800D03*
X139090400Y-35509200D03*
%TO.N,5V2*%
X167640000Y-35560000D03*
X158425850Y-39129000D03*
%TO.N,5V*%
X165760400Y-43383200D03*
X178562000Y-36830000D03*
%TO.N,Net-(U4-FB)*%
X140589000Y-43561000D03*
X153289000Y-46609000D03*
%TO.N,Net-(U12-VCC)*%
X158038800Y-55626000D03*
X182118000Y-47244000D03*
X147320000Y-49276000D03*
X178182847Y-52195153D03*
%TO.N,Net-(U12-GND)*%
X142138400Y-55676800D03*
X158750000Y-52933600D03*
X179500000Y-56000000D03*
X157175200Y-56235600D03*
%TO.N,Net-(U1-PG)*%
X177800000Y-33020000D03*
X165709600Y-38354000D03*
%TO.N,Net-(U2-PA8_A4_D4_SDA)*%
X179226699Y-41253899D03*
X169418000Y-46583600D03*
%TO.N,Net-(U4-COMP)*%
X134975600Y-44710900D03*
X135077200Y-40741600D03*
%TO.N,Net-(U9--)*%
X169500000Y-53908200D03*
X169250000Y-48500000D03*
%TO.N,ampSig*%
X171600153Y-49100153D03*
X169963000Y-49217000D03*
%TO.N,GND*%
X157226000Y-43180000D03*
X165926600Y-53739815D03*
X165750000Y-47500000D03*
%TO.N,Net-(D4-K)*%
X161925000Y-43561000D03*
X181483000Y-37973000D03*
%TO.N,Net-(D6-K)*%
X142875000Y-42672000D03*
X146867825Y-42854825D03*
%TO.N,Net-(D6-A)*%
X154787600Y-38303200D03*
X149555200Y-41706800D03*
%TO.N,Net-(U2-PA9_A5_D5_SCL)*%
X180420499Y-40060099D03*
X169011600Y-52425600D03*
%TD*%
D42*
%TO.N,GND*%
X141872000Y-38903000D02*
X141525000Y-39250000D01*
X141872000Y-37592000D02*
X141872000Y-38903000D01*
%TO.N,Net-(C9-Pad1)*%
X133731000Y-41326400D02*
X133731000Y-42824400D01*
%TO.N,Net-(U1-PG)*%
X165100000Y-38354000D02*
X165709600Y-38354000D01*
X164236400Y-37490400D02*
X165100000Y-38354000D01*
X164236400Y-35172200D02*
X164236400Y-37490400D01*
%TO.N,5V*%
X160033000Y-40771400D02*
X160629600Y-41368000D01*
X160629600Y-41368000D02*
X160401000Y-41368000D01*
X160033000Y-37592000D02*
X160033000Y-40771400D01*
X161357600Y-41368000D02*
X160629600Y-41368000D01*
X163474400Y-41859200D02*
X163474400Y-43484800D01*
X164236400Y-41097200D02*
X163474400Y-41859200D01*
%TO.N,Net-(D5-A)*%
X133163600Y-37998400D02*
X132348500Y-38813500D01*
X133570000Y-37998400D02*
X133163600Y-37998400D01*
%TO.N,Net-(D5-K)*%
X136740600Y-37998400D02*
X137147000Y-37592000D01*
X135670000Y-37998400D02*
X136740600Y-37998400D01*
%TO.N,Net-(U4-COMP)*%
X135877600Y-40741600D02*
X136525000Y-41389000D01*
X135077200Y-40741600D02*
X135877600Y-40741600D01*
X133967500Y-44710900D02*
X133731000Y-44474400D01*
X134975600Y-44710900D02*
X133967500Y-44710900D01*
%TO.N,Net-(C2-Pad2)*%
X156755800Y-35864800D02*
X156476200Y-35864800D01*
X158483000Y-37592000D02*
X156755800Y-35864800D01*
%TO.N,5V*%
X163474400Y-43484800D02*
X161357600Y-41368000D01*
X165658800Y-43484800D02*
X163474400Y-43484800D01*
X165760400Y-43383200D02*
X165658800Y-43484800D01*
%TO.N,5V2*%
X158623000Y-41262000D02*
X158623000Y-39326150D01*
X158623000Y-39326150D02*
X158425850Y-39129000D01*
X151219000Y-46825000D02*
X151728000Y-47334000D01*
X167767000Y-35433000D02*
X169995850Y-35433000D01*
X155512000Y-41275000D02*
X156083000Y-40704000D01*
X151728000Y-47334000D02*
X154329000Y-47334000D01*
X154329000Y-47334000D02*
X154673000Y-46990000D01*
X156083000Y-39891000D02*
X156845000Y-39129000D01*
X152019000Y-44641000D02*
X151219000Y-45441000D01*
X154175948Y-41275000D02*
X154483000Y-41275000D01*
X156845000Y-39129000D02*
X158425850Y-39129000D01*
X167640000Y-35560000D02*
X167767000Y-35433000D01*
X169995850Y-35433000D02*
X169995850Y-36703000D01*
X152019000Y-43431948D02*
X154175948Y-41275000D01*
X154483000Y-41275000D02*
X155512000Y-41275000D01*
X152019000Y-44641000D02*
X152019000Y-43431948D01*
X156083000Y-40704000D02*
X156083000Y-39891000D01*
X151219000Y-45441000D02*
X151219000Y-46825000D01*
%TO.N,3V3*%
X177444400Y-40557000D02*
X175469400Y-38582000D01*
X179254800Y-43484800D02*
X177283168Y-43484800D01*
X182845000Y-43519800D02*
X182981600Y-43383200D01*
X173901200Y-40157000D02*
X174701200Y-40957000D01*
X179254800Y-43517200D02*
X179257400Y-43519800D01*
X175469400Y-38582000D02*
X174168400Y-38582000D01*
X181152800Y-42634200D02*
X180302200Y-43484800D01*
X177444400Y-40957000D02*
X177444400Y-40557000D01*
X177283168Y-43484800D02*
X174755368Y-40957000D01*
X174168400Y-38582000D02*
X173901200Y-38849200D01*
X179254800Y-43484800D02*
X179254800Y-43517200D01*
X180302200Y-43484800D02*
X179254800Y-43484800D01*
X174755368Y-40957000D02*
X174701200Y-40957000D01*
X179257400Y-43519800D02*
X182845000Y-43519800D01*
X173901200Y-38849200D02*
X173901200Y-40157000D01*
%TO.N,5V*%
X175444150Y-35433000D02*
X175444150Y-34163000D01*
X178435000Y-36703000D02*
X175444150Y-36703000D01*
X175444150Y-36703000D02*
X175444150Y-35433000D01*
X178562000Y-36830000D02*
X178435000Y-36703000D01*
%TO.N,Net-(C11-Pad1)*%
X153797000Y-42913000D02*
X155524000Y-42913000D01*
X155524000Y-42913000D02*
X156083000Y-42354000D01*
%TO.N,Net-(U4-FB)*%
X152019000Y-46291000D02*
X152019000Y-46241000D01*
X154509000Y-44463000D02*
X155575000Y-45529000D01*
X153797000Y-44463000D02*
X154509000Y-44463000D01*
X140589000Y-43561000D02*
X138938000Y-43561000D01*
X152971000Y-46291000D02*
X153289000Y-46609000D01*
X152019000Y-46241000D02*
X153797000Y-44463000D01*
X152019000Y-46291000D02*
X152971000Y-46291000D01*
%TO.N,Net-(U12-VCC)*%
X145694400Y-47130200D02*
X144564600Y-47130200D01*
X178549000Y-53086000D02*
X178549000Y-52561306D01*
X170210600Y-55087400D02*
X169317600Y-55980400D01*
X144564600Y-47130200D02*
X144170400Y-46736000D01*
X145694400Y-47130200D02*
X147320000Y-48755800D01*
X181102000Y-46241000D02*
X181102000Y-47752000D01*
X173929400Y-55087400D02*
X175803800Y-53213000D01*
X158038800Y-55626000D02*
X158038800Y-55331900D01*
X165339666Y-54864000D02*
X162458400Y-54864000D01*
X158038800Y-55626000D02*
X160629600Y-53035200D01*
X142494000Y-46888400D02*
X142646400Y-46736000D01*
X175803800Y-53213000D02*
X176453800Y-53213000D01*
X176580800Y-53086000D02*
X176453800Y-53213000D01*
X181089000Y-46228000D02*
X181102000Y-46241000D01*
X166370000Y-55894334D02*
X165339666Y-54864000D01*
X178968400Y-46228000D02*
X181089000Y-46228000D01*
X178257200Y-46228000D02*
X178968400Y-46228000D01*
X170210600Y-55087400D02*
X173929400Y-55087400D01*
X166370000Y-55980400D02*
X166370000Y-55894334D01*
X140804000Y-46888400D02*
X142494000Y-46888400D01*
X178549000Y-53086000D02*
X176580800Y-53086000D01*
X169317600Y-55980400D02*
X166370000Y-55980400D01*
X182118000Y-47244000D02*
X181610000Y-47244000D01*
X160629600Y-53035200D02*
X162458400Y-54864000D01*
X147320000Y-48755800D02*
X147320000Y-49276000D01*
X181610000Y-47244000D02*
X181102000Y-47752000D01*
X142646400Y-46736000D02*
X144170400Y-46736000D01*
X178549000Y-52561306D02*
X178182847Y-52195153D01*
%TO.N,Net-(U8-CAP+)*%
X135382000Y-48158400D02*
X133502400Y-48158400D01*
%TO.N,Net-(U8-CAP-)*%
X135382000Y-50698400D02*
X134492400Y-50698400D01*
X134492400Y-50698400D02*
X133502400Y-49708400D01*
%TO.N,Net-(U12-GND)*%
X177774000Y-55108004D02*
X178075996Y-55410000D01*
X179500000Y-56000000D02*
X179500000Y-55987996D01*
X142138400Y-52032800D02*
X140804000Y-50698400D01*
X178075996Y-55410000D02*
X178922004Y-55410000D01*
X178032400Y-51019400D02*
X175022200Y-51019400D01*
X175022200Y-51019400D02*
X174040800Y-50038000D01*
X179500000Y-55987996D02*
X178922004Y-55410000D01*
X142138400Y-55676800D02*
X142138400Y-52032800D01*
X179324000Y-55008004D02*
X179324000Y-53861000D01*
X157175200Y-56235600D02*
X157175200Y-54508400D01*
X157175200Y-54508400D02*
X158750000Y-52933600D01*
X171526200Y-55753000D02*
X174533800Y-55753000D01*
X141084600Y-52374800D02*
X141084600Y-50979000D01*
X179324000Y-53861000D02*
X180099000Y-53086000D01*
X178922004Y-55410000D02*
X179324000Y-55008004D01*
X180099000Y-53086000D02*
X178032400Y-51019400D01*
X175178796Y-55108004D02*
X177774000Y-55108004D01*
X141084600Y-50979000D02*
X140804000Y-50698400D01*
X141084600Y-52374800D02*
X141084600Y-53949600D01*
X171209000Y-50038000D02*
X174040800Y-50038000D01*
X174533800Y-55753000D02*
X175178796Y-55108004D01*
%TO.N,Net-(U1-PG)*%
X175571150Y-33020000D02*
X175444150Y-32893000D01*
X177800000Y-33020000D02*
X175571150Y-33020000D01*
%TO.N,Net-(U2-PA8_A4_D4_SDA)*%
X179226699Y-41253899D02*
X179157333Y-41253899D01*
X177820416Y-42590816D02*
X177698400Y-42712832D01*
X177698400Y-42712832D02*
X177698400Y-42824400D01*
X177858800Y-42984800D02*
X179254800Y-42984800D01*
X174701200Y-39707000D02*
X177585016Y-42590816D01*
X169418000Y-46786800D02*
X169418000Y-46583600D01*
X177698400Y-42824400D02*
X177858800Y-42984800D01*
X167741600Y-48463200D02*
X169418000Y-46786800D01*
X174701200Y-39307000D02*
X174701200Y-39707000D01*
X179157333Y-41253899D02*
X177820416Y-42590816D01*
X177585016Y-42590816D02*
X177820416Y-42590816D01*
%TO.N,Net-(U4-COMP)*%
X136525000Y-41389000D02*
X137427000Y-42291000D01*
X137427000Y-42291000D02*
X138938000Y-42291000D01*
%TO.N,Net-(U9--)*%
X170395000Y-47630000D02*
X170120000Y-47630000D01*
X167290107Y-44833200D02*
X165025000Y-47098307D01*
X170395000Y-47630000D02*
X170395000Y-46535295D01*
X171526200Y-53213000D02*
X171526200Y-51943000D01*
X165025000Y-50662000D02*
X165417000Y-51054000D01*
X168692905Y-44833200D02*
X167290107Y-44833200D01*
X170195200Y-53213000D02*
X169500000Y-53908200D01*
X165025000Y-47098307D02*
X165025000Y-50662000D01*
X170120000Y-47630000D02*
X169250000Y-48500000D01*
X170395000Y-46535295D02*
X168692905Y-44833200D01*
X171526200Y-53213000D02*
X170195200Y-53213000D01*
%TO.N,Net-(U9-+)*%
X171376000Y-54633200D02*
X165642024Y-54633200D01*
X161353000Y-51529000D02*
X161353000Y-51054000D01*
X162402000Y-53128666D02*
X162402000Y-52578000D01*
X171526200Y-54483000D02*
X171376000Y-54633200D01*
X165495824Y-54487000D02*
X163760334Y-54487000D01*
X165642024Y-54633200D02*
X165495824Y-54487000D01*
X163760334Y-54487000D02*
X162402000Y-53128666D01*
X162402000Y-52578000D02*
X161353000Y-51529000D01*
%TO.N,Net-(U9-Ref)*%
X175849400Y-56357400D02*
X164840800Y-56357400D01*
X164388800Y-55905400D02*
X160680400Y-55905400D01*
X160680400Y-55905400D02*
X160629600Y-55956200D01*
X164840800Y-56357400D02*
X164388800Y-55905400D01*
X160629600Y-55956200D02*
X161656000Y-55956200D01*
X176453800Y-55753000D02*
X175849400Y-56357400D01*
%TO.N,ampSig*%
X171899847Y-49100153D02*
X173502000Y-47498000D01*
X173894800Y-46082000D02*
X173894800Y-44216432D01*
X167419307Y-49784000D02*
X169161948Y-49784000D01*
X173502000Y-47498000D02*
X174040800Y-47498000D01*
X174126432Y-43984800D02*
X174954800Y-43984800D01*
X166624000Y-50579307D02*
X167419307Y-49784000D01*
X173894800Y-44216432D02*
X174126432Y-43984800D01*
X174752000Y-47498000D02*
X174040800Y-47498000D01*
X169728948Y-49217000D02*
X169963000Y-49217000D01*
X169161948Y-49784000D02*
X169728948Y-49217000D01*
X171600153Y-49100153D02*
X171899847Y-49100153D01*
X164388800Y-52984400D02*
X165404800Y-52984400D01*
X166624000Y-51765200D02*
X166624000Y-50579307D01*
X165404800Y-52984400D02*
X166624000Y-51765200D01*
X174040800Y-47498000D02*
X174040800Y-46228000D01*
X174040800Y-46228000D02*
X173894800Y-46082000D01*
%TO.N,Net-(R17-Pad2)*%
X172045000Y-47630000D02*
X170688000Y-48987000D01*
X175412641Y-51943000D02*
X176453800Y-51943000D01*
X174734821Y-51265179D02*
X175412641Y-51943000D01*
X170688000Y-50776052D02*
X171177127Y-51265179D01*
X171177127Y-51265179D02*
X174734821Y-51265179D01*
X170688000Y-48987000D02*
X170688000Y-50776052D01*
%TO.N,Net-(R18-Pad1)*%
X178499000Y-54610000D02*
X176580800Y-54610000D01*
X176580800Y-54610000D02*
X176453800Y-54483000D01*
%TO.N,Net-(U12-1IN+)*%
X175006000Y-48768000D02*
X174040800Y-48768000D01*
X176880400Y-50642400D02*
X175006000Y-48768000D01*
X180149000Y-54610000D02*
X180874000Y-53885000D01*
X180874000Y-52446400D02*
X179070000Y-50642400D01*
X179070000Y-50642400D02*
X176880400Y-50642400D01*
X180874000Y-53885000D02*
X180874000Y-52446400D01*
%TO.N,Net-(U4-BST)*%
X144475200Y-41148000D02*
X144348200Y-41021000D01*
X146291000Y-41148000D02*
X144475200Y-41148000D01*
%TO.N,Net-(C5-Pad2)*%
X138697000Y-37592000D02*
X140322000Y-37592000D01*
%TO.N,Net-(C13-Pad2)*%
X158623000Y-44437000D02*
X158636000Y-44450000D01*
X158623000Y-42812000D02*
X158623000Y-44437000D01*
%TO.N,GND*%
X156527000Y-43879000D02*
X157226000Y-43180000D01*
X181821600Y-40843200D02*
X181580600Y-41084200D01*
X138938000Y-44831000D02*
X138417000Y-44831000D01*
X169269947Y-53192558D02*
X169913000Y-52549505D01*
X167741600Y-53543200D02*
X168092242Y-53192558D01*
X176022000Y-43484800D02*
X174954800Y-43484800D01*
X169659000Y-50038000D02*
X169736600Y-50115600D01*
X176377600Y-43890368D02*
X176377600Y-43840400D01*
X147370800Y-45135800D02*
X147370800Y-47040800D01*
X165750000Y-47500000D02*
X166164800Y-47500000D01*
X174954800Y-44484800D02*
X175783168Y-44484800D01*
X169913000Y-52549505D02*
X169913000Y-50292000D01*
X168092242Y-53192558D02*
X169269947Y-53192558D01*
X146304000Y-44069000D02*
X147370800Y-45135800D01*
X182334200Y-45923200D02*
X181102000Y-44691000D01*
X176377600Y-43840400D02*
X176022000Y-43484800D01*
X166123215Y-53543200D02*
X165926600Y-53739815D01*
X174954800Y-43484800D02*
X173515200Y-43484800D01*
X182981600Y-45923200D02*
X182334200Y-45923200D01*
X182981600Y-40843200D02*
X181821600Y-40843200D01*
X168134200Y-53150600D02*
X167741600Y-53543200D01*
X166164800Y-47500000D02*
X167741600Y-45923200D01*
X155575000Y-43879000D02*
X156527000Y-43879000D01*
X174954800Y-42484800D02*
X173515200Y-42484800D01*
X175783168Y-44484800D02*
X176377600Y-43890368D01*
X167741600Y-53543200D02*
X166123215Y-53543200D01*
X138417000Y-44831000D02*
X136525000Y-42939000D01*
%TO.N,Net-(D5-K)*%
X141610000Y-36792000D02*
X144106000Y-34296000D01*
X137147000Y-37592000D02*
X137147000Y-39230000D01*
X137147000Y-39230000D02*
X138938000Y-41021000D01*
X139975000Y-39984000D02*
X138938000Y-41021000D01*
X139975000Y-39250000D02*
X139975000Y-39984000D01*
X137147000Y-37592000D02*
X137947000Y-36792000D01*
X137947000Y-36792000D02*
X141610000Y-36792000D01*
%TO.N,Net-(Q1-S)*%
X145137052Y-43561000D02*
X147550052Y-41148000D01*
X142003900Y-45435400D02*
X132684400Y-45435400D01*
X143878300Y-43561000D02*
X142003900Y-45435400D01*
X147550052Y-41148000D02*
X147841000Y-41148000D01*
X150772800Y-40981800D02*
X148007200Y-40981800D01*
X148007200Y-40981800D02*
X147841000Y-41148000D01*
X152844000Y-41339000D02*
X152908000Y-41275000D01*
X144106000Y-38856000D02*
X145549000Y-38856000D01*
X148032000Y-41339000D02*
X147841000Y-41148000D01*
X145549000Y-38856000D02*
X147841000Y-41148000D01*
X132684400Y-45435400D02*
X131445000Y-44196000D01*
X144348200Y-43561000D02*
X145137052Y-43561000D01*
X151130000Y-41339000D02*
X150772800Y-40981800D01*
X151130000Y-41339000D02*
X152844000Y-41339000D01*
X144348200Y-43561000D02*
X143878300Y-43561000D01*
%TO.N,Net-(D4-K)*%
X181483000Y-37973000D02*
X182651400Y-37973000D01*
X182651400Y-37973000D02*
X182981600Y-38303200D01*
X161832000Y-43468000D02*
X161925000Y-43561000D01*
X160401000Y-43468000D02*
X161832000Y-43468000D01*
%TO.N,Net-(D5-A)*%
X128981200Y-38813500D02*
X132348500Y-38813500D01*
%TO.N,Net-(D6-K)*%
X146939000Y-42926000D02*
X146867825Y-42854825D01*
X147892000Y-42926000D02*
X147892000Y-44455000D01*
X147892000Y-42926000D02*
X146939000Y-42926000D01*
X142875000Y-42672000D02*
X143967200Y-42672000D01*
X147892000Y-44455000D02*
X148395000Y-44958000D01*
X143967200Y-42672000D02*
X144348200Y-42291000D01*
%TO.N,Net-(D6-A)*%
X154787600Y-38303200D02*
X152133200Y-38303200D01*
X150495000Y-44958000D02*
X150495000Y-43624000D01*
X149542000Y-42926000D02*
X149542000Y-41720000D01*
X152133200Y-38303200D02*
X150406000Y-36576000D01*
X149542000Y-42926000D02*
X151067000Y-42926000D01*
X150495000Y-43624000D02*
X151130000Y-42989000D01*
X151067000Y-42926000D02*
X151130000Y-42989000D01*
X149542000Y-41720000D02*
X149555200Y-41706800D01*
%TO.N,Net-(J1-Pin_1)*%
X159703000Y-51054000D02*
X156370200Y-51054000D01*
X153660800Y-53763400D02*
X154122400Y-53763400D01*
X156370200Y-51054000D02*
X153660800Y-53763400D01*
%TO.N,Net-(J1-Pin_2)*%
X162967000Y-50254000D02*
X163767000Y-51054000D01*
X151160800Y-53763400D02*
X151515700Y-53763400D01*
X151515700Y-53763400D02*
X155025100Y-50254000D01*
X155025100Y-50254000D02*
X162967000Y-50254000D01*
%TO.N,Net-(J1-Pin_4)*%
X145694400Y-53297000D02*
X146160800Y-53763400D01*
X145694400Y-48780200D02*
X145694400Y-53297000D01*
%TO.N,Net-(Q2-G)*%
X129437600Y-50496000D02*
X129165000Y-50496000D01*
X132638800Y-45821600D02*
X132486400Y-45974000D01*
X144348200Y-44831000D02*
X143357600Y-45821600D01*
X144348200Y-44831000D02*
X145416000Y-44831000D01*
X132486400Y-45974000D02*
X132486400Y-47447200D01*
X143357600Y-45821600D02*
X132638800Y-45821600D01*
X132486400Y-47447200D02*
X129437600Y-50496000D01*
X145416000Y-44831000D02*
X146304000Y-45719000D01*
%TO.N,Net-(U2-PA9_A5_D5_SCL)*%
X179951699Y-40528899D02*
X179951699Y-41787901D01*
X180420499Y-40060099D02*
X179951699Y-40528899D01*
X179951699Y-41787901D02*
X179254800Y-42484800D01*
X180420499Y-40060099D02*
X180175804Y-40060099D01*
X179422705Y-39307000D02*
X177444400Y-39307000D01*
X179825305Y-42484800D02*
X179254800Y-42484800D01*
X167741600Y-51155600D02*
X169011600Y-52425600D01*
X180175804Y-40060099D02*
X179422705Y-39307000D01*
X167741600Y-51003200D02*
X167741600Y-51155600D01*
%TD*%
%TA.AperFunction,Conductor*%
%TO.N,GND*%
G36*
X139474539Y-46474785D02*
G01*
X139520294Y-46527589D01*
X139531500Y-46579100D01*
X139531500Y-47262054D01*
X139538011Y-47322602D01*
X139538011Y-47322604D01*
X139589111Y-47459605D01*
X139591500Y-47463980D01*
X139606347Y-47532254D01*
X139591500Y-47582820D01*
X139589111Y-47587194D01*
X139538011Y-47724195D01*
X139538011Y-47724197D01*
X139531500Y-47784745D01*
X139531500Y-48532054D01*
X139538011Y-48592602D01*
X139538011Y-48592604D01*
X139589111Y-48729605D01*
X139591500Y-48733980D01*
X139606347Y-48802254D01*
X139591500Y-48852820D01*
X139589111Y-48857194D01*
X139538011Y-48994195D01*
X139538011Y-48994197D01*
X139531500Y-49054745D01*
X139531500Y-49802054D01*
X139538011Y-49862602D01*
X139538011Y-49862604D01*
X139589111Y-49999605D01*
X139591500Y-50003980D01*
X139606347Y-50072254D01*
X139591500Y-50122820D01*
X139589111Y-50127194D01*
X139538011Y-50264195D01*
X139538011Y-50264197D01*
X139531500Y-50324745D01*
X139531500Y-51072054D01*
X139538011Y-51132602D01*
X139538011Y-51132604D01*
X139574161Y-51229522D01*
X139589111Y-51269604D01*
X139676739Y-51386661D01*
X139734910Y-51430207D01*
X139776781Y-51486139D01*
X139784600Y-51529474D01*
X139784600Y-54924599D01*
X139807908Y-54924599D01*
X139807922Y-54924598D01*
X139907207Y-54914455D01*
X140068081Y-54861147D01*
X140068092Y-54861142D01*
X140212328Y-54772175D01*
X140212332Y-54772172D01*
X140215909Y-54768596D01*
X140277232Y-54735111D01*
X140346924Y-54740095D01*
X140391271Y-54768596D01*
X140401559Y-54778884D01*
X140401563Y-54778887D01*
X140547490Y-54868897D01*
X140547493Y-54868898D01*
X140547499Y-54868902D01*
X140710264Y-54922836D01*
X140810728Y-54933100D01*
X140810733Y-54933100D01*
X141307015Y-54933100D01*
X141374054Y-54952785D01*
X141419809Y-55005589D01*
X141429753Y-55074747D01*
X141402610Y-55134180D01*
X141403182Y-55134595D01*
X141401133Y-55137414D01*
X141400728Y-55138303D01*
X141399377Y-55139832D01*
X141399358Y-55139857D01*
X141303873Y-55305243D01*
X141303870Y-55305250D01*
X141244859Y-55486868D01*
X141244858Y-55486872D01*
X141224896Y-55676800D01*
X141244858Y-55866728D01*
X141244859Y-55866731D01*
X141303870Y-56048349D01*
X141303873Y-56048356D01*
X141399360Y-56213744D01*
X141527147Y-56355666D01*
X141681648Y-56467918D01*
X141856112Y-56545594D01*
X142042913Y-56585300D01*
X142233887Y-56585300D01*
X142420688Y-56545594D01*
X142595152Y-56467918D01*
X142749653Y-56355666D01*
X142877440Y-56213744D01*
X142972927Y-56048356D01*
X143031942Y-55866728D01*
X143051904Y-55676800D01*
X143031942Y-55486872D01*
X142972927Y-55305244D01*
X142900915Y-55180515D01*
X142877441Y-55139857D01*
X142877436Y-55139850D01*
X142803750Y-55058013D01*
X142773520Y-54995021D01*
X142771900Y-54975041D01*
X142771900Y-52116432D01*
X142773639Y-52100680D01*
X142773368Y-52100655D01*
X142774100Y-52092899D01*
X142774102Y-52092892D01*
X142771900Y-52022828D01*
X142771900Y-51992944D01*
X142771014Y-51985941D01*
X142770557Y-51980122D01*
X142770294Y-51971763D01*
X142769074Y-51932911D01*
X142763374Y-51913292D01*
X142759431Y-51894246D01*
X142756874Y-51874004D01*
X142754843Y-51868874D01*
X142739481Y-51830074D01*
X142737604Y-51824592D01*
X142724419Y-51779207D01*
X142714020Y-51761624D01*
X142705466Y-51744163D01*
X142697952Y-51725183D01*
X142670193Y-51686976D01*
X142666986Y-51682094D01*
X142642944Y-51641441D01*
X142642943Y-51641440D01*
X142642942Y-51641438D01*
X142628508Y-51627004D01*
X142615871Y-51612209D01*
X142603872Y-51595693D01*
X142603870Y-51595690D01*
X142567473Y-51565581D01*
X142563151Y-51561647D01*
X142112819Y-51111315D01*
X142079334Y-51049992D01*
X142076500Y-51023634D01*
X142076500Y-50324762D01*
X142076499Y-50324745D01*
X142072606Y-50288542D01*
X142069989Y-50264199D01*
X142069987Y-50264195D01*
X142069987Y-50264192D01*
X142018890Y-50127197D01*
X142016505Y-50122830D01*
X142001651Y-50054558D01*
X142016505Y-50003970D01*
X142018890Y-49999602D01*
X142069987Y-49862607D01*
X142069988Y-49862604D01*
X142069989Y-49862601D01*
X142073798Y-49827172D01*
X142076499Y-49802054D01*
X142076500Y-49802037D01*
X142076500Y-49340483D01*
X142096185Y-49273444D01*
X142148989Y-49227689D01*
X142218147Y-49217745D01*
X142239510Y-49222779D01*
X142248794Y-49225856D01*
X142348083Y-49235999D01*
X142396399Y-49235998D01*
X142396400Y-49235998D01*
X142396400Y-48536000D01*
X142896400Y-48536000D01*
X142896400Y-49235999D01*
X142944708Y-49235999D01*
X142944722Y-49235998D01*
X143044007Y-49225855D01*
X143204881Y-49172547D01*
X143204888Y-49172544D01*
X143343302Y-49087168D01*
X143410694Y-49068727D01*
X143473498Y-49087168D01*
X143611911Y-49172544D01*
X143611918Y-49172547D01*
X143772793Y-49225855D01*
X143872083Y-49235999D01*
X143920399Y-49235998D01*
X143920400Y-49235998D01*
X143920400Y-48536000D01*
X142896400Y-48536000D01*
X142396400Y-48536000D01*
X142396400Y-48160000D01*
X142416085Y-48092961D01*
X142468889Y-48047206D01*
X142520400Y-48036000D01*
X144296400Y-48036000D01*
X144363439Y-48055685D01*
X144409194Y-48108489D01*
X144420400Y-48160000D01*
X144420400Y-49235999D01*
X144468708Y-49235999D01*
X144468722Y-49235998D01*
X144568005Y-49225856D01*
X144617859Y-49209336D01*
X144687688Y-49206934D01*
X144747730Y-49242666D01*
X144763962Y-49267135D01*
X144764693Y-49266694D01*
X144768572Y-49273111D01*
X144768573Y-49273113D01*
X144857584Y-49420355D01*
X144979245Y-49542016D01*
X145001048Y-49555196D01*
X145048236Y-49606722D01*
X145060900Y-49661314D01*
X145060900Y-52794328D01*
X145041215Y-52861367D01*
X145033380Y-52872222D01*
X145031206Y-52874914D01*
X145031199Y-52874923D01*
X144918421Y-53076805D01*
X144841382Y-53294846D01*
X144841379Y-53294856D01*
X144802300Y-53522765D01*
X144802300Y-53946119D01*
X144816997Y-54118813D01*
X144875269Y-54342606D01*
X144875270Y-54342610D01*
X144970516Y-54553319D01*
X144970523Y-54553331D01*
X145100009Y-54744913D01*
X145100014Y-54744918D01*
X145100017Y-54744923D01*
X145199739Y-54848971D01*
X145255934Y-54907605D01*
X145260028Y-54911876D01*
X145445953Y-55049385D01*
X145652443Y-55153495D01*
X145873557Y-55221211D01*
X146102935Y-55250584D01*
X146333978Y-55240769D01*
X146560038Y-55192049D01*
X146774613Y-55105826D01*
X146971530Y-54984579D01*
X147145124Y-54831798D01*
X147290400Y-54651876D01*
X147308000Y-54620371D01*
X147357879Y-54571444D01*
X147426292Y-54557251D01*
X147491518Y-54582298D01*
X147517829Y-54609721D01*
X147622686Y-54759473D01*
X147622691Y-54759479D01*
X147789717Y-54926505D01*
X147983221Y-55062000D01*
X148197307Y-55161829D01*
X148197316Y-55161833D01*
X148410800Y-55219034D01*
X148410800Y-54171418D01*
X148525601Y-54223846D01*
X148626825Y-54238400D01*
X148694775Y-54238400D01*
X148795999Y-54223846D01*
X148910800Y-54171418D01*
X148910800Y-55219033D01*
X149124283Y-55161833D01*
X149124292Y-55161829D01*
X149338377Y-55062000D01*
X149338379Y-55061999D01*
X149531873Y-54926513D01*
X149531879Y-54926508D01*
X149698908Y-54759479D01*
X149698913Y-54759473D01*
X149804633Y-54608489D01*
X149859210Y-54564864D01*
X149928708Y-54557670D01*
X149991063Y-54589193D01*
X150008943Y-54610175D01*
X150100009Y-54744913D01*
X150100014Y-54744918D01*
X150100017Y-54744923D01*
X150199739Y-54848971D01*
X150255934Y-54907605D01*
X150260028Y-54911876D01*
X150445953Y-55049385D01*
X150652443Y-55153495D01*
X150873557Y-55221211D01*
X151102935Y-55250584D01*
X151333978Y-55240769D01*
X151560038Y-55192049D01*
X151774613Y-55105826D01*
X151971530Y-54984579D01*
X152145124Y-54831798D01*
X152169042Y-54802175D01*
X152226470Y-54762385D01*
X152296297Y-54759958D01*
X152356352Y-54795668D01*
X152371054Y-54814980D01*
X152461767Y-54962048D01*
X152461770Y-54962052D01*
X152587148Y-55087430D01*
X152738062Y-55180515D01*
X152906374Y-55236287D01*
X153010255Y-55246900D01*
X154311344Y-55246899D01*
X154415226Y-55236287D01*
X154583538Y-55180515D01*
X154734452Y-55087430D01*
X154859830Y-54962052D01*
X154952915Y-54811138D01*
X155008687Y-54642826D01*
X155019300Y-54538945D01*
X155019299Y-53352164D01*
X155038984Y-53285126D01*
X155055613Y-53264489D01*
X156596285Y-51723819D01*
X156657608Y-51690334D01*
X156683966Y-51687500D01*
X158821885Y-51687500D01*
X158888924Y-51707185D01*
X158928002Y-51747350D01*
X158941181Y-51769151D01*
X158941182Y-51769152D01*
X158941184Y-51769155D01*
X158984728Y-51812699D01*
X158996042Y-51824013D01*
X159029526Y-51885337D01*
X159024541Y-51955029D01*
X158982670Y-52010962D01*
X158917205Y-52035378D01*
X158882579Y-52032984D01*
X158845487Y-52025100D01*
X158654513Y-52025100D01*
X158467714Y-52064805D01*
X158404627Y-52092893D01*
X158297653Y-52140521D01*
X158293246Y-52142483D01*
X158138745Y-52254735D01*
X158010959Y-52396657D01*
X157915473Y-52562043D01*
X157915470Y-52562050D01*
X157856459Y-52743668D01*
X157856458Y-52743672D01*
X157844088Y-52861367D01*
X157839019Y-52909595D01*
X157812434Y-52974209D01*
X157803379Y-52984314D01*
X156786379Y-54001314D01*
X156774020Y-54011218D01*
X156774193Y-54011427D01*
X156768183Y-54016399D01*
X156720215Y-54067479D01*
X156699072Y-54088622D01*
X156699057Y-54088639D01*
X156694731Y-54094214D01*
X156690947Y-54098644D01*
X156658619Y-54133071D01*
X156658612Y-54133081D01*
X156648779Y-54150967D01*
X156638103Y-54167220D01*
X156625586Y-54183357D01*
X156625585Y-54183359D01*
X156606825Y-54226710D01*
X156604255Y-54231956D01*
X156581503Y-54273341D01*
X156581503Y-54273342D01*
X156576425Y-54293120D01*
X156570125Y-54311522D01*
X156562018Y-54330257D01*
X156554631Y-54376895D01*
X156553446Y-54382616D01*
X156541700Y-54428365D01*
X156541700Y-54448784D01*
X156540173Y-54468183D01*
X156536980Y-54488341D01*
X156536980Y-54488342D01*
X156541425Y-54535366D01*
X156541700Y-54541204D01*
X156541700Y-55533841D01*
X156522015Y-55600880D01*
X156509850Y-55616813D01*
X156436163Y-55698650D01*
X156436158Y-55698657D01*
X156340673Y-55864043D01*
X156340670Y-55864050D01*
X156282274Y-56043775D01*
X156281658Y-56045672D01*
X156261696Y-56235600D01*
X156281658Y-56425528D01*
X156281659Y-56425531D01*
X156340670Y-56607149D01*
X156340673Y-56607156D01*
X156388792Y-56690500D01*
X156405265Y-56758400D01*
X156382412Y-56824427D01*
X156327491Y-56867618D01*
X156281405Y-56876500D01*
X137207219Y-56876500D01*
X137140180Y-56856815D01*
X137094425Y-56804011D01*
X137084481Y-56734853D01*
X137113506Y-56671297D01*
X137156328Y-56639424D01*
X137156997Y-56639122D01*
X137157003Y-56639121D01*
X137455804Y-56504642D01*
X137736216Y-56335126D01*
X137994151Y-56133047D01*
X138225847Y-55901351D01*
X138427926Y-55643416D01*
X138597442Y-55363004D01*
X138731921Y-55064203D01*
X138780871Y-54907115D01*
X138819607Y-54848971D01*
X138883632Y-54820997D01*
X138952617Y-54832078D01*
X138964352Y-54838471D01*
X139001107Y-54861142D01*
X139001118Y-54861147D01*
X139161993Y-54914455D01*
X139261283Y-54924599D01*
X139284600Y-54924598D01*
X139284600Y-52624800D01*
X138536682Y-52624800D01*
X138469643Y-52605115D01*
X138430565Y-52564949D01*
X138427929Y-52560589D01*
X138427926Y-52560584D01*
X138225847Y-52302649D01*
X138225844Y-52302645D01*
X138047999Y-52124800D01*
X138584600Y-52124800D01*
X139284600Y-52124800D01*
X139284600Y-51399799D01*
X139261293Y-51399800D01*
X139261274Y-51399801D01*
X139161992Y-51409944D01*
X139001118Y-51463252D01*
X139001107Y-51463257D01*
X138856871Y-51552224D01*
X138856867Y-51552227D01*
X138737027Y-51672067D01*
X138737024Y-51672071D01*
X138648057Y-51816307D01*
X138648052Y-51816318D01*
X138594744Y-51977193D01*
X138584600Y-52076477D01*
X138584600Y-52124800D01*
X138047999Y-52124800D01*
X137994154Y-52070955D01*
X137736215Y-51868873D01*
X137455804Y-51699358D01*
X137435753Y-51690334D01*
X137157003Y-51564879D01*
X137156996Y-51564876D01*
X137156984Y-51564872D01*
X136844179Y-51467399D01*
X136844175Y-51467398D01*
X136844171Y-51467397D01*
X136689191Y-51438995D01*
X136626799Y-51407549D01*
X136591312Y-51347362D01*
X136593998Y-51277544D01*
X136595363Y-51273692D01*
X136596886Y-51269607D01*
X136596889Y-51269604D01*
X136647989Y-51132601D01*
X136652272Y-51092766D01*
X136654499Y-51072054D01*
X136654500Y-51072037D01*
X136654500Y-50324762D01*
X136654499Y-50324745D01*
X136650606Y-50288542D01*
X136647989Y-50264199D01*
X136647986Y-50264192D01*
X136596888Y-50127193D01*
X136592637Y-50119408D01*
X136594512Y-50118384D01*
X136574286Y-50064151D01*
X136587328Y-50004199D01*
X136586253Y-50003798D01*
X136589044Y-49996314D01*
X136589139Y-49995879D01*
X136589141Y-49995875D01*
X136589352Y-49995487D01*
X136639597Y-49860776D01*
X136639598Y-49860772D01*
X136645999Y-49801244D01*
X136646000Y-49801227D01*
X136646000Y-49678400D01*
X135256000Y-49678400D01*
X135188961Y-49658715D01*
X135143206Y-49605911D01*
X135132000Y-49554400D01*
X135132000Y-49302400D01*
X135151685Y-49235361D01*
X135204489Y-49189606D01*
X135256000Y-49178400D01*
X136646000Y-49178400D01*
X136646000Y-49055572D01*
X136645999Y-49055555D01*
X136639598Y-48996027D01*
X136639597Y-48996023D01*
X136589351Y-48861308D01*
X136589138Y-48860918D01*
X136589043Y-48860483D01*
X136586253Y-48853002D01*
X136587328Y-48852600D01*
X136574286Y-48792645D01*
X136594512Y-48738416D01*
X136592637Y-48737392D01*
X136596888Y-48729606D01*
X136647988Y-48592604D01*
X136647988Y-48592603D01*
X136647989Y-48592601D01*
X136652236Y-48553099D01*
X136654499Y-48532054D01*
X136654500Y-48532037D01*
X136654500Y-47784762D01*
X136654499Y-47784745D01*
X136649169Y-47735178D01*
X136647989Y-47724199D01*
X136647987Y-47724195D01*
X136647987Y-47724192D01*
X136596890Y-47587197D01*
X136594505Y-47582830D01*
X136579651Y-47514558D01*
X136594505Y-47463970D01*
X136596890Y-47459602D01*
X136647987Y-47322607D01*
X136647988Y-47322604D01*
X136647989Y-47322601D01*
X136654279Y-47264098D01*
X136654499Y-47262054D01*
X136654500Y-47262037D01*
X136654500Y-46579100D01*
X136674185Y-46512061D01*
X136726989Y-46466306D01*
X136778500Y-46455100D01*
X139407500Y-46455100D01*
X139474539Y-46474785D01*
G37*
%TD.AperFunction*%
%TA.AperFunction,Conductor*%
G36*
X169188150Y-31897185D02*
G01*
X169233905Y-31949989D01*
X169243849Y-32019147D01*
X169214824Y-32082703D01*
X169164444Y-32117682D01*
X169023513Y-32170245D01*
X169023506Y-32170249D01*
X168908412Y-32256409D01*
X168908409Y-32256412D01*
X168822249Y-32371506D01*
X168822245Y-32371513D01*
X168772003Y-32506220D01*
X168772001Y-32506227D01*
X168765600Y-32565755D01*
X168765600Y-32643000D01*
X171226100Y-32643000D01*
X171226100Y-32565772D01*
X171226099Y-32565755D01*
X171219698Y-32506227D01*
X171219696Y-32506220D01*
X171169454Y-32371513D01*
X171169450Y-32371506D01*
X171083290Y-32256412D01*
X171083287Y-32256409D01*
X170968193Y-32170249D01*
X170968186Y-32170245D01*
X170827256Y-32117682D01*
X170771322Y-32075811D01*
X170746905Y-32010347D01*
X170761757Y-31942074D01*
X170811162Y-31892668D01*
X170870589Y-31877500D01*
X174545088Y-31877500D01*
X174612127Y-31897185D01*
X174657882Y-31949989D01*
X174667826Y-32019147D01*
X174638801Y-32082703D01*
X174588423Y-32117681D01*
X174467695Y-32162711D01*
X174350639Y-32250339D01*
X174263011Y-32367395D01*
X174211911Y-32504395D01*
X174211911Y-32504397D01*
X174205400Y-32564945D01*
X174205400Y-33221054D01*
X174211911Y-33281602D01*
X174211911Y-33281604D01*
X174263011Y-33418606D01*
X174263012Y-33418607D01*
X174289275Y-33453690D01*
X174313692Y-33519154D01*
X174298840Y-33587427D01*
X174289275Y-33602310D01*
X174263012Y-33637392D01*
X174263011Y-33637393D01*
X174211911Y-33774395D01*
X174211911Y-33774397D01*
X174205400Y-33834945D01*
X174205400Y-34491054D01*
X174211911Y-34551602D01*
X174211911Y-34551604D01*
X174263011Y-34688606D01*
X174263012Y-34688607D01*
X174289275Y-34723690D01*
X174313692Y-34789154D01*
X174298840Y-34857427D01*
X174289275Y-34872310D01*
X174263012Y-34907392D01*
X174263011Y-34907393D01*
X174211911Y-35044395D01*
X174211911Y-35044397D01*
X174205400Y-35104945D01*
X174205400Y-35761054D01*
X174211911Y-35821602D01*
X174211911Y-35821604D01*
X174263011Y-35958606D01*
X174263012Y-35958607D01*
X174289275Y-35993690D01*
X174313692Y-36059154D01*
X174298840Y-36127427D01*
X174289275Y-36142310D01*
X174263012Y-36177392D01*
X174263011Y-36177393D01*
X174211911Y-36314395D01*
X174211911Y-36314397D01*
X174205400Y-36374945D01*
X174205400Y-37031054D01*
X174211911Y-37091602D01*
X174211911Y-37091604D01*
X174259364Y-37218827D01*
X174263011Y-37228604D01*
X174350639Y-37345661D01*
X174467696Y-37433289D01*
X174557008Y-37466601D01*
X174604256Y-37484224D01*
X174604699Y-37484389D01*
X174631950Y-37487318D01*
X174665245Y-37490899D01*
X174665262Y-37490900D01*
X176223038Y-37490900D01*
X176223054Y-37490899D01*
X176250092Y-37487991D01*
X176283601Y-37484389D01*
X176284044Y-37484224D01*
X176326672Y-37468324D01*
X176420604Y-37433289D01*
X176516859Y-37361232D01*
X176582324Y-37336816D01*
X176591170Y-37336500D01*
X177740340Y-37336500D01*
X177807379Y-37356185D01*
X177832489Y-37377527D01*
X177873018Y-37422539D01*
X177950235Y-37508298D01*
X177950747Y-37508866D01*
X178105248Y-37621118D01*
X178279712Y-37698794D01*
X178466513Y-37738500D01*
X178657487Y-37738500D01*
X178844288Y-37698794D01*
X179018752Y-37621118D01*
X179173253Y-37508866D01*
X179301040Y-37366944D01*
X179396527Y-37201556D01*
X179455542Y-37019928D01*
X179475504Y-36830000D01*
X179455542Y-36640072D01*
X179396527Y-36458444D01*
X179301040Y-36293056D01*
X179173253Y-36151134D01*
X179018752Y-36038882D01*
X178844288Y-35961206D01*
X178844286Y-35961205D01*
X178657487Y-35921500D01*
X178466513Y-35921500D01*
X178279714Y-35961205D01*
X178105248Y-36038881D01*
X178095703Y-36045817D01*
X178029896Y-36069298D01*
X178022816Y-36069500D01*
X176762521Y-36069500D01*
X176695482Y-36049815D01*
X176649727Y-35997011D01*
X176639783Y-35927853D01*
X176646340Y-35902165D01*
X176676388Y-35821604D01*
X176676388Y-35821603D01*
X176676389Y-35821601D01*
X176680795Y-35780616D01*
X176682899Y-35761054D01*
X176682900Y-35761037D01*
X176682900Y-35104962D01*
X176682899Y-35104945D01*
X176679557Y-35073870D01*
X176676389Y-35044399D01*
X176676387Y-35044395D01*
X176676387Y-35044392D01*
X176625291Y-34907400D01*
X176625285Y-34907390D01*
X176599025Y-34872311D01*
X176574607Y-34806847D01*
X176589458Y-34738574D01*
X176599025Y-34723689D01*
X176625285Y-34688609D01*
X176625289Y-34688604D01*
X176676389Y-34551601D01*
X176679991Y-34518092D01*
X176682899Y-34491054D01*
X176682900Y-34491037D01*
X176682900Y-33834962D01*
X176682899Y-33834945D01*
X176678148Y-33790756D01*
X176690553Y-33721996D01*
X176738163Y-33670859D01*
X176801437Y-33653500D01*
X177092691Y-33653500D01*
X177159730Y-33673185D01*
X177184840Y-33694527D01*
X177188747Y-33698866D01*
X177343248Y-33811118D01*
X177517712Y-33888794D01*
X177704513Y-33928500D01*
X177895487Y-33928500D01*
X178082288Y-33888794D01*
X178256752Y-33811118D01*
X178411253Y-33698866D01*
X178539040Y-33556944D01*
X178634527Y-33391556D01*
X178693542Y-33209928D01*
X178713504Y-33020000D01*
X178693542Y-32830072D01*
X178634527Y-32648444D01*
X178539040Y-32483056D01*
X178411253Y-32341134D01*
X178256752Y-32228882D01*
X178082288Y-32151206D01*
X178082286Y-32151205D01*
X177948602Y-32122790D01*
X177887120Y-32089598D01*
X177853344Y-32028435D01*
X177857996Y-31958720D01*
X177899601Y-31902588D01*
X177964948Y-31877859D01*
X177974383Y-31877500D01*
X184607793Y-31877500D01*
X184613195Y-31877735D01*
X184656019Y-31881482D01*
X184782271Y-31893918D01*
X184802185Y-31897541D01*
X184868849Y-31915403D01*
X184962070Y-31943682D01*
X184978471Y-31949958D01*
X184979348Y-31950367D01*
X185045911Y-31981406D01*
X185048875Y-31982888D01*
X185086469Y-32002982D01*
X185132827Y-32027762D01*
X185139167Y-32031657D01*
X185205328Y-32077983D01*
X185209100Y-32080844D01*
X185281308Y-32140103D01*
X185285809Y-32144182D01*
X185343315Y-32201688D01*
X185347395Y-32206190D01*
X185406654Y-32278398D01*
X185409515Y-32282170D01*
X185455841Y-32348331D01*
X185459736Y-32354671D01*
X185504601Y-32438605D01*
X185506114Y-32441631D01*
X185537540Y-32509027D01*
X185543819Y-32525435D01*
X185572101Y-32618669D01*
X185589954Y-32685299D01*
X185593582Y-32705238D01*
X185606023Y-32831554D01*
X185609764Y-32874302D01*
X185610000Y-32879710D01*
X185610000Y-55874289D01*
X185609764Y-55879697D01*
X185606023Y-55922445D01*
X185593582Y-56048760D01*
X185589954Y-56068699D01*
X185572101Y-56135330D01*
X185543818Y-56228563D01*
X185537540Y-56244971D01*
X185506114Y-56312367D01*
X185504601Y-56315393D01*
X185459736Y-56399327D01*
X185455841Y-56405667D01*
X185409515Y-56471828D01*
X185406654Y-56475600D01*
X185347395Y-56547808D01*
X185343306Y-56552320D01*
X185285820Y-56609806D01*
X185281308Y-56613895D01*
X185209100Y-56673154D01*
X185205328Y-56676015D01*
X185139167Y-56722341D01*
X185132827Y-56726236D01*
X185048893Y-56771101D01*
X185045867Y-56772614D01*
X184978471Y-56804040D01*
X184962063Y-56810318D01*
X184868830Y-56838601D01*
X184802199Y-56856454D01*
X184782260Y-56860082D01*
X184655945Y-56872523D01*
X184615289Y-56876080D01*
X184613196Y-56876264D01*
X184607790Y-56876500D01*
X180211811Y-56876500D01*
X180144772Y-56856815D01*
X180099017Y-56804011D01*
X180089073Y-56734853D01*
X180118098Y-56671297D01*
X180119661Y-56669528D01*
X180136315Y-56651032D01*
X180239040Y-56536944D01*
X180334527Y-56371556D01*
X180393542Y-56189928D01*
X180413504Y-56000000D01*
X180393542Y-55810072D01*
X180373562Y-55748583D01*
X180371568Y-55678743D01*
X180407648Y-55618910D01*
X180470349Y-55588082D01*
X180476050Y-55587331D01*
X180477641Y-55587013D01*
X180477649Y-55587013D01*
X180641913Y-55535827D01*
X180789155Y-55446816D01*
X180910816Y-55325155D01*
X180999827Y-55177913D01*
X181051013Y-55013649D01*
X181057500Y-54942265D01*
X181057499Y-54648765D01*
X181077183Y-54581727D01*
X181093809Y-54561094D01*
X181262817Y-54392085D01*
X181275176Y-54382186D01*
X181275003Y-54381976D01*
X181281015Y-54377002D01*
X181281015Y-54377001D01*
X181281018Y-54377000D01*
X181328984Y-54325920D01*
X181350135Y-54304770D01*
X181354461Y-54299192D01*
X181358250Y-54294755D01*
X181390586Y-54260321D01*
X181400419Y-54242432D01*
X181411102Y-54226169D01*
X181423614Y-54210041D01*
X181442371Y-54166691D01*
X181444941Y-54161447D01*
X181467693Y-54120064D01*
X181467693Y-54120063D01*
X181467695Y-54120060D01*
X181472774Y-54100273D01*
X181479070Y-54081885D01*
X181487181Y-54063145D01*
X181494569Y-54016497D01*
X181495751Y-54010786D01*
X181507500Y-53965030D01*
X181507500Y-53944615D01*
X181509027Y-53925214D01*
X181509487Y-53922311D01*
X181512220Y-53905057D01*
X181511258Y-53894884D01*
X181524546Y-53826291D01*
X181572809Y-53775769D01*
X181640725Y-53759361D01*
X181706730Y-53782275D01*
X181749869Y-53837237D01*
X181754483Y-53851122D01*
X181788345Y-53977500D01*
X181788349Y-53977509D01*
X181881895Y-54178119D01*
X181927703Y-54243541D01*
X181927705Y-54243542D01*
X182490466Y-53680780D01*
X182512918Y-53757240D01*
X182592205Y-53880613D01*
X182703038Y-53976651D01*
X182836439Y-54037573D01*
X182840233Y-54038118D01*
X182281256Y-54597094D01*
X182346683Y-54642906D01*
X182346685Y-54642907D01*
X182547290Y-54736450D01*
X182547299Y-54736454D01*
X182761090Y-54793738D01*
X182761100Y-54793740D01*
X182981599Y-54813032D01*
X182981601Y-54813032D01*
X183202099Y-54793740D01*
X183202109Y-54793738D01*
X183415900Y-54736454D01*
X183415909Y-54736450D01*
X183616515Y-54642906D01*
X183681942Y-54597094D01*
X183122966Y-54038118D01*
X183126761Y-54037573D01*
X183260162Y-53976651D01*
X183370995Y-53880613D01*
X183450282Y-53757240D01*
X183472733Y-53680780D01*
X184035494Y-54243542D01*
X184081306Y-54178115D01*
X184174850Y-53977509D01*
X184174854Y-53977500D01*
X184232140Y-53763703D01*
X184232140Y-53763699D01*
X184251432Y-53543200D01*
X184251432Y-53543199D01*
X184232140Y-53322700D01*
X184232138Y-53322690D01*
X184174854Y-53108899D01*
X184174850Y-53108890D01*
X184081307Y-52908285D01*
X184081306Y-52908283D01*
X184035494Y-52842857D01*
X184035494Y-52842856D01*
X183472732Y-53405618D01*
X183450282Y-53329160D01*
X183370995Y-53205787D01*
X183260162Y-53109749D01*
X183126761Y-53048827D01*
X183122966Y-53048281D01*
X183681942Y-52489305D01*
X183681941Y-52489303D01*
X183616518Y-52443494D01*
X183616516Y-52443493D01*
X183492325Y-52385582D01*
X183439885Y-52339410D01*
X183420733Y-52272217D01*
X183440949Y-52205335D01*
X183492325Y-52160818D01*
X183616512Y-52102908D01*
X183616514Y-52102907D01*
X183681942Y-52057094D01*
X183122966Y-51498118D01*
X183126761Y-51497573D01*
X183260162Y-51436651D01*
X183370995Y-51340613D01*
X183450282Y-51217240D01*
X183472733Y-51140780D01*
X184035494Y-51703542D01*
X184081306Y-51638115D01*
X184174850Y-51437509D01*
X184174854Y-51437500D01*
X184232138Y-51223709D01*
X184232140Y-51223699D01*
X184251432Y-51003200D01*
X184251432Y-51003199D01*
X184232140Y-50782700D01*
X184232138Y-50782690D01*
X184174854Y-50568899D01*
X184174850Y-50568890D01*
X184081307Y-50368285D01*
X184081306Y-50368283D01*
X184035494Y-50302857D01*
X184035494Y-50302856D01*
X183472732Y-50865618D01*
X183450282Y-50789160D01*
X183370995Y-50665787D01*
X183260162Y-50569749D01*
X183126761Y-50508827D01*
X183122964Y-50508281D01*
X183681942Y-49949304D01*
X183681941Y-49949303D01*
X183616518Y-49903494D01*
X183616516Y-49903493D01*
X183492325Y-49845582D01*
X183439885Y-49799410D01*
X183420733Y-49732217D01*
X183440949Y-49665335D01*
X183492325Y-49620818D01*
X183616512Y-49562908D01*
X183616514Y-49562907D01*
X183681942Y-49517094D01*
X183122966Y-48958118D01*
X183126761Y-48957573D01*
X183260162Y-48896651D01*
X183370995Y-48800613D01*
X183450282Y-48677240D01*
X183472733Y-48600780D01*
X184035494Y-49163542D01*
X184081306Y-49098115D01*
X184174850Y-48897509D01*
X184174854Y-48897500D01*
X184232138Y-48683709D01*
X184232140Y-48683699D01*
X184251432Y-48463200D01*
X184251432Y-48463199D01*
X184232140Y-48242700D01*
X184232138Y-48242690D01*
X184174854Y-48028899D01*
X184174850Y-48028890D01*
X184081307Y-47828285D01*
X184081306Y-47828283D01*
X184035494Y-47762857D01*
X184035494Y-47762856D01*
X183472732Y-48325618D01*
X183450282Y-48249160D01*
X183370995Y-48125787D01*
X183260162Y-48029749D01*
X183126761Y-47968827D01*
X183122964Y-47968281D01*
X183681942Y-47409304D01*
X183681941Y-47409303D01*
X183616518Y-47363494D01*
X183616516Y-47363493D01*
X183492325Y-47305582D01*
X183439885Y-47259410D01*
X183420733Y-47192217D01*
X183440949Y-47125335D01*
X183492325Y-47080818D01*
X183616512Y-47022908D01*
X183616514Y-47022907D01*
X183681942Y-46977094D01*
X183122966Y-46418118D01*
X183126761Y-46417573D01*
X183260162Y-46356651D01*
X183370995Y-46260613D01*
X183450282Y-46137240D01*
X183472733Y-46060780D01*
X184035494Y-46623542D01*
X184081306Y-46558115D01*
X184174850Y-46357509D01*
X184174854Y-46357500D01*
X184232138Y-46143709D01*
X184232140Y-46143699D01*
X184251432Y-45923200D01*
X184251432Y-45923199D01*
X184232140Y-45702700D01*
X184232138Y-45702690D01*
X184174854Y-45488899D01*
X184174850Y-45488890D01*
X184081307Y-45288285D01*
X184081306Y-45288283D01*
X184035494Y-45222857D01*
X184035494Y-45222856D01*
X183472732Y-45785618D01*
X183450282Y-45709160D01*
X183370995Y-45585787D01*
X183260162Y-45489749D01*
X183126761Y-45428827D01*
X183122965Y-45428281D01*
X183681942Y-44869304D01*
X183681941Y-44869303D01*
X183616519Y-44823494D01*
X183502382Y-44770271D01*
X183449943Y-44724098D01*
X183430791Y-44656905D01*
X183451007Y-44590024D01*
X183502379Y-44545509D01*
X183620783Y-44490297D01*
X183803317Y-44362484D01*
X183960884Y-44204917D01*
X183961764Y-44203661D01*
X183998600Y-44151054D01*
X184088697Y-44022383D01*
X184182870Y-43820427D01*
X184240544Y-43605186D01*
X184259965Y-43383200D01*
X184259551Y-43378472D01*
X184253959Y-43314553D01*
X184240544Y-43161214D01*
X184182870Y-42945973D01*
X184088697Y-42744018D01*
X183960884Y-42561483D01*
X183803317Y-42403916D01*
X183803315Y-42403914D01*
X183803310Y-42403910D01*
X183620789Y-42276107D01*
X183620783Y-42276103D01*
X183502382Y-42220892D01*
X183449943Y-42174720D01*
X183430791Y-42107526D01*
X183451007Y-42040645D01*
X183502383Y-41996128D01*
X183616512Y-41942908D01*
X183616514Y-41942907D01*
X183681942Y-41897094D01*
X183122965Y-41338118D01*
X183126761Y-41337573D01*
X183260162Y-41276651D01*
X183370995Y-41180613D01*
X183450282Y-41057240D01*
X183472733Y-40980780D01*
X184035494Y-41543542D01*
X184081306Y-41478115D01*
X184174850Y-41277509D01*
X184174854Y-41277500D01*
X184232138Y-41063709D01*
X184232140Y-41063699D01*
X184251432Y-40843200D01*
X184251432Y-40843199D01*
X184232140Y-40622700D01*
X184232138Y-40622690D01*
X184174854Y-40408899D01*
X184174850Y-40408890D01*
X184081307Y-40208285D01*
X184081306Y-40208283D01*
X184035494Y-40142857D01*
X184035494Y-40142856D01*
X183472732Y-40705618D01*
X183450282Y-40629160D01*
X183370995Y-40505787D01*
X183260162Y-40409749D01*
X183126761Y-40348827D01*
X183122966Y-40348281D01*
X183681942Y-39789305D01*
X183681941Y-39789303D01*
X183616519Y-39743494D01*
X183502382Y-39690271D01*
X183449943Y-39644098D01*
X183430791Y-39576905D01*
X183451007Y-39510024D01*
X183502379Y-39465509D01*
X183620783Y-39410297D01*
X183803317Y-39282484D01*
X183960884Y-39124917D01*
X184088697Y-38942383D01*
X184159948Y-38789584D01*
X184182869Y-38740430D01*
X184182872Y-38740419D01*
X184185897Y-38729129D01*
X184240544Y-38525186D01*
X184259686Y-38306386D01*
X184259965Y-38303201D01*
X184259965Y-38303198D01*
X184251708Y-38208818D01*
X184240544Y-38081214D01*
X184182870Y-37865973D01*
X184088697Y-37664018D01*
X183960884Y-37481483D01*
X183803317Y-37323916D01*
X183803315Y-37323914D01*
X183803310Y-37323910D01*
X183620789Y-37196107D01*
X183620786Y-37196105D01*
X183620783Y-37196103D01*
X183590286Y-37181882D01*
X183418833Y-37101932D01*
X183418819Y-37101927D01*
X183203590Y-37044257D01*
X183203588Y-37044256D01*
X183203586Y-37044256D01*
X183203584Y-37044255D01*
X183203580Y-37044255D01*
X182981602Y-37024835D01*
X182981598Y-37024835D01*
X182759619Y-37044255D01*
X182759609Y-37044257D01*
X182544380Y-37101927D01*
X182544371Y-37101931D01*
X182342417Y-37196103D01*
X182342413Y-37196105D01*
X182219788Y-37281969D01*
X182153582Y-37304296D01*
X182085815Y-37287286D01*
X182075779Y-37280712D01*
X182068201Y-37275206D01*
X181939752Y-37181882D01*
X181765288Y-37104206D01*
X181765286Y-37104205D01*
X181578487Y-37064500D01*
X181387513Y-37064500D01*
X181200714Y-37104205D01*
X181200712Y-37104206D01*
X181059389Y-37167127D01*
X181026246Y-37181883D01*
X180871745Y-37294135D01*
X180743959Y-37436057D01*
X180648473Y-37601443D01*
X180648470Y-37601450D01*
X180589459Y-37783068D01*
X180589458Y-37783072D01*
X180569496Y-37973000D01*
X180589458Y-38162928D01*
X180589459Y-38162931D01*
X180648470Y-38344549D01*
X180648473Y-38344556D01*
X180743960Y-38509944D01*
X180817894Y-38592056D01*
X180858524Y-38637181D01*
X180871747Y-38651866D01*
X181026248Y-38764118D01*
X181200712Y-38841794D01*
X181387513Y-38881500D01*
X181578486Y-38881500D01*
X181578487Y-38881500D01*
X181725500Y-38850251D01*
X181795166Y-38855567D01*
X181850899Y-38897704D01*
X181863661Y-38919134D01*
X181874501Y-38942381D01*
X181874504Y-38942386D01*
X182002310Y-39124910D01*
X182002319Y-39124920D01*
X182159879Y-39282480D01*
X182159889Y-39282489D01*
X182282785Y-39368542D01*
X182342417Y-39410297D01*
X182457664Y-39464037D01*
X182460816Y-39465507D01*
X182513256Y-39511679D01*
X182532408Y-39578872D01*
X182512193Y-39645754D01*
X182460818Y-39690271D01*
X182346682Y-39743494D01*
X182281257Y-39789304D01*
X182840234Y-40348281D01*
X182836439Y-40348827D01*
X182703038Y-40409749D01*
X182592205Y-40505787D01*
X182512918Y-40629160D01*
X182490466Y-40705619D01*
X181927703Y-40142856D01*
X181927702Y-40142857D01*
X181902732Y-40178519D01*
X181848155Y-40222144D01*
X181778657Y-40229338D01*
X181736061Y-40212935D01*
X181711290Y-40197657D01*
X181711281Y-40197652D01*
X181550406Y-40144344D01*
X181451122Y-40134200D01*
X181447967Y-40134040D01*
X181447975Y-40133879D01*
X181447974Y-40133879D01*
X181447976Y-40133855D01*
X181448039Y-40132613D01*
X181386402Y-40114515D01*
X181340647Y-40061711D01*
X181330121Y-40023165D01*
X181314041Y-39870171D01*
X181256839Y-39694122D01*
X181255028Y-39688549D01*
X181255027Y-39688548D01*
X181255026Y-39688543D01*
X181159539Y-39523155D01*
X181031752Y-39381233D01*
X180877251Y-39268981D01*
X180702787Y-39191305D01*
X180702785Y-39191304D01*
X180515986Y-39151599D01*
X180325012Y-39151599D01*
X180257424Y-39165964D01*
X180187759Y-39160648D01*
X180143965Y-39132355D01*
X179929796Y-38918187D01*
X179919893Y-38905825D01*
X179919683Y-38906000D01*
X179914708Y-38899988D01*
X179914705Y-38899982D01*
X179889343Y-38876166D01*
X179863626Y-38852015D01*
X179842473Y-38830863D01*
X179840253Y-38829141D01*
X179836888Y-38826531D01*
X179832455Y-38822744D01*
X179798026Y-38790414D01*
X179798024Y-38790412D01*
X179780136Y-38780578D01*
X179763875Y-38769897D01*
X179747744Y-38757384D01*
X179704398Y-38738627D01*
X179699150Y-38736056D01*
X179664753Y-38717147D01*
X179657765Y-38713305D01*
X179654365Y-38712432D01*
X179637992Y-38708228D01*
X179619586Y-38701926D01*
X179600849Y-38693818D01*
X179600851Y-38693818D01*
X179554201Y-38686430D01*
X179548486Y-38685246D01*
X179528317Y-38680068D01*
X179502737Y-38673500D01*
X179502735Y-38673500D01*
X179482321Y-38673500D01*
X179462922Y-38671973D01*
X179442763Y-38668780D01*
X179442762Y-38668780D01*
X179395739Y-38673225D01*
X179389901Y-38673500D01*
X178339233Y-38673500D01*
X178272194Y-38653815D01*
X178251556Y-38637185D01*
X178159555Y-38545184D01*
X178012313Y-38456173D01*
X177848049Y-38404987D01*
X177848047Y-38404986D01*
X177848045Y-38404986D01*
X177798067Y-38400444D01*
X177776665Y-38398500D01*
X177776662Y-38398500D01*
X177112127Y-38398500D01*
X177040754Y-38404985D01*
X177040744Y-38404988D01*
X176876490Y-38456171D01*
X176729243Y-38545185D01*
X176616547Y-38657881D01*
X176555224Y-38691365D01*
X176485532Y-38686381D01*
X176441185Y-38657880D01*
X176212505Y-38429200D01*
X175976484Y-38193179D01*
X175966587Y-38180823D01*
X175966377Y-38180998D01*
X175961402Y-38174986D01*
X175961400Y-38174982D01*
X175928068Y-38143681D01*
X175910321Y-38127015D01*
X175889168Y-38105863D01*
X175887192Y-38104331D01*
X175883583Y-38101531D01*
X175879150Y-38097744D01*
X175861541Y-38081209D01*
X175844721Y-38065414D01*
X175844719Y-38065412D01*
X175826831Y-38055578D01*
X175810570Y-38044897D01*
X175794439Y-38032384D01*
X175751093Y-38013627D01*
X175745845Y-38011056D01*
X175709973Y-37991336D01*
X175704460Y-37988305D01*
X175701060Y-37987432D01*
X175684687Y-37983228D01*
X175666281Y-37976926D01*
X175647544Y-37968818D01*
X175647546Y-37968818D01*
X175600896Y-37961430D01*
X175595181Y-37960246D01*
X175575012Y-37955068D01*
X175549432Y-37948500D01*
X175549430Y-37948500D01*
X175529016Y-37948500D01*
X175509617Y-37946973D01*
X175489458Y-37943780D01*
X175489457Y-37943780D01*
X175442434Y-37948225D01*
X175436596Y-37948500D01*
X174252031Y-37948500D01*
X174236279Y-37946760D01*
X174236254Y-37947032D01*
X174228492Y-37946298D01*
X174228491Y-37946298D01*
X174158428Y-37948500D01*
X174128544Y-37948500D01*
X174128541Y-37948500D01*
X174128529Y-37948501D01*
X174121537Y-37949384D01*
X174115720Y-37949841D01*
X174068514Y-37951325D01*
X174068507Y-37951326D01*
X174048900Y-37957022D01*
X174029861Y-37960965D01*
X174009611Y-37963524D01*
X174009601Y-37963526D01*
X173965691Y-37980911D01*
X173960165Y-37982803D01*
X173914812Y-37995979D01*
X173914807Y-37995981D01*
X173897233Y-38006374D01*
X173879772Y-38014928D01*
X173860786Y-38022446D01*
X173860784Y-38022447D01*
X173822572Y-38050208D01*
X173817690Y-38053415D01*
X173777037Y-38077457D01*
X173762601Y-38091894D01*
X173747815Y-38104523D01*
X173731293Y-38116528D01*
X173731291Y-38116530D01*
X173731290Y-38116531D01*
X173731289Y-38116531D01*
X173701181Y-38152924D01*
X173697249Y-38157245D01*
X173512380Y-38342113D01*
X173500021Y-38352016D01*
X173500194Y-38352225D01*
X173494185Y-38357196D01*
X173446215Y-38408279D01*
X173425072Y-38429422D01*
X173425057Y-38429439D01*
X173420731Y-38435014D01*
X173416947Y-38439444D01*
X173384619Y-38473871D01*
X173384612Y-38473881D01*
X173374779Y-38491767D01*
X173364103Y-38508020D01*
X173351586Y-38524157D01*
X173351585Y-38524159D01*
X173332825Y-38567510D01*
X173330255Y-38572756D01*
X173307503Y-38614141D01*
X173307503Y-38614142D01*
X173302425Y-38633920D01*
X173296125Y-38652322D01*
X173288018Y-38671057D01*
X173280631Y-38717695D01*
X173279446Y-38723416D01*
X173267700Y-38769165D01*
X173267700Y-38789584D01*
X173266173Y-38808983D01*
X173262980Y-38829141D01*
X173262980Y-38829142D01*
X173267425Y-38876166D01*
X173267700Y-38882004D01*
X173267700Y-40073366D01*
X173265961Y-40089113D01*
X173266232Y-40089139D01*
X173265498Y-40096905D01*
X173265498Y-40096908D01*
X173265498Y-40096909D01*
X173266942Y-40142856D01*
X173267700Y-40166957D01*
X173267700Y-40196859D01*
X173268584Y-40203856D01*
X173269042Y-40209679D01*
X173270526Y-40256889D01*
X173270527Y-40256891D01*
X173276222Y-40276495D01*
X173280167Y-40295542D01*
X173282726Y-40315797D01*
X173282727Y-40315800D01*
X173282728Y-40315803D01*
X173300114Y-40359716D01*
X173302006Y-40365244D01*
X173315181Y-40410592D01*
X173325572Y-40428162D01*
X173334132Y-40445635D01*
X173341647Y-40464617D01*
X173369409Y-40502827D01*
X173372616Y-40507710D01*
X173396658Y-40548362D01*
X173396662Y-40548366D01*
X173411089Y-40562793D01*
X173423726Y-40577588D01*
X173435728Y-40594107D01*
X173472131Y-40624222D01*
X173476431Y-40628135D01*
X173581269Y-40732973D01*
X173681381Y-40833085D01*
X173714866Y-40894408D01*
X173717700Y-40920766D01*
X173717700Y-41214272D01*
X173724185Y-41285645D01*
X173724188Y-41285655D01*
X173775371Y-41449909D01*
X173775372Y-41449911D01*
X173775373Y-41449913D01*
X173855035Y-41581690D01*
X173864386Y-41597158D01*
X173988931Y-41721703D01*
X174022416Y-41783026D01*
X174017432Y-41852718D01*
X173975561Y-41908651D01*
X173865810Y-41990810D01*
X173777718Y-42108486D01*
X173726346Y-42246219D01*
X173719800Y-42307112D01*
X173719800Y-42344800D01*
X173721058Y-42346058D01*
X173783811Y-42364485D01*
X173829566Y-42417289D01*
X173839510Y-42486447D01*
X173815575Y-42543725D01*
X173798386Y-42566393D01*
X173791308Y-42575727D01*
X173735115Y-42617249D01*
X173725678Y-42618921D01*
X173719800Y-42624800D01*
X173719800Y-42662498D01*
X173723108Y-42693268D01*
X173720965Y-42723745D01*
X173722277Y-42723903D01*
X173711300Y-42815313D01*
X173711300Y-43154277D01*
X173722278Y-43245697D01*
X173720964Y-43245854D01*
X173723108Y-43276329D01*
X173719800Y-43307098D01*
X173719800Y-43356772D01*
X173738884Y-43391722D01*
X173733900Y-43461414D01*
X173694746Y-43513715D01*
X173695007Y-43513993D01*
X173693431Y-43515472D01*
X173692028Y-43517347D01*
X173690619Y-43518387D01*
X173689328Y-43519324D01*
X173689322Y-43519331D01*
X173659218Y-43555718D01*
X173655286Y-43560040D01*
X173505977Y-43709348D01*
X173493621Y-43719248D01*
X173493794Y-43719457D01*
X173487785Y-43724428D01*
X173439815Y-43775511D01*
X173418672Y-43796654D01*
X173418657Y-43796671D01*
X173414331Y-43802246D01*
X173410547Y-43806676D01*
X173378219Y-43841103D01*
X173378212Y-43841113D01*
X173368379Y-43858999D01*
X173357703Y-43875252D01*
X173345186Y-43891389D01*
X173345185Y-43891391D01*
X173326425Y-43934742D01*
X173323855Y-43939988D01*
X173301103Y-43981373D01*
X173301103Y-43981374D01*
X173296025Y-44001152D01*
X173289725Y-44019554D01*
X173281618Y-44038289D01*
X173274231Y-44084927D01*
X173273046Y-44090648D01*
X173261300Y-44136397D01*
X173261300Y-44156816D01*
X173259773Y-44176215D01*
X173256918Y-44194244D01*
X173256580Y-44196375D01*
X173257388Y-44204920D01*
X173261025Y-44243398D01*
X173261300Y-44249236D01*
X173261300Y-45316100D01*
X173241615Y-45383139D01*
X173188811Y-45428894D01*
X173137300Y-45440100D01*
X173001545Y-45440100D01*
X172940997Y-45446611D01*
X172940995Y-45446611D01*
X172803995Y-45497711D01*
X172686939Y-45585339D01*
X172599311Y-45702395D01*
X172548211Y-45839395D01*
X172548211Y-45839397D01*
X172541700Y-45899945D01*
X172541700Y-46536833D01*
X172522015Y-46603872D01*
X172469211Y-46649627D01*
X172400053Y-46659571D01*
X172380813Y-46655219D01*
X172373650Y-46652987D01*
X172373651Y-46652987D01*
X172345095Y-46650392D01*
X172302265Y-46646500D01*
X172302262Y-46646500D01*
X171787727Y-46646500D01*
X171716354Y-46652985D01*
X171716344Y-46652988D01*
X171552090Y-46704171D01*
X171404841Y-46793186D01*
X171404840Y-46793187D01*
X171307681Y-46890347D01*
X171246358Y-46923832D01*
X171176666Y-46918848D01*
X171132319Y-46890347D01*
X171064819Y-46822847D01*
X171031334Y-46761524D01*
X171028500Y-46735166D01*
X171028500Y-46618926D01*
X171030239Y-46603174D01*
X171029968Y-46603149D01*
X171030700Y-46595393D01*
X171030702Y-46595386D01*
X171028500Y-46525323D01*
X171028500Y-46495439D01*
X171027614Y-46488436D01*
X171027157Y-46482617D01*
X171025674Y-46435406D01*
X171019976Y-46415794D01*
X171016033Y-46396761D01*
X171013474Y-46376498D01*
X170996085Y-46332581D01*
X170994196Y-46327061D01*
X170981018Y-46281702D01*
X170970626Y-46264130D01*
X170962066Y-46246657D01*
X170954552Y-46227678D01*
X170926794Y-46189474D01*
X170923587Y-46184591D01*
X170913434Y-46167424D01*
X170899542Y-46143933D01*
X170885108Y-46129499D01*
X170872471Y-46114704D01*
X170860472Y-46098188D01*
X170860470Y-46098185D01*
X170824073Y-46068076D01*
X170819751Y-46064142D01*
X169199993Y-44444383D01*
X169190092Y-44432023D01*
X169189882Y-44432198D01*
X169184907Y-44426186D01*
X169184905Y-44426182D01*
X169157847Y-44400773D01*
X169133826Y-44378215D01*
X169112673Y-44357063D01*
X169109839Y-44354865D01*
X169107088Y-44352731D01*
X169102655Y-44348944D01*
X169100726Y-44347133D01*
X169068226Y-44316614D01*
X169068224Y-44316612D01*
X169050336Y-44306778D01*
X169034075Y-44296097D01*
X169017944Y-44283584D01*
X168974598Y-44264827D01*
X168969350Y-44262256D01*
X168935046Y-44243398D01*
X168927965Y-44239505D01*
X168919397Y-44237305D01*
X168908192Y-44234428D01*
X168889781Y-44228124D01*
X168879256Y-44223569D01*
X168825549Y-44178877D01*
X168804531Y-44112244D01*
X168822873Y-44044825D01*
X168826933Y-44038643D01*
X168841305Y-44018118D01*
X168841306Y-44018116D01*
X168934850Y-43817509D01*
X168934854Y-43817500D01*
X168992138Y-43603709D01*
X168992140Y-43603699D01*
X169011432Y-43383200D01*
X169011432Y-43383199D01*
X168992140Y-43162700D01*
X168992138Y-43162690D01*
X168934854Y-42948899D01*
X168934850Y-42948890D01*
X168841307Y-42748285D01*
X168841306Y-42748283D01*
X168795494Y-42682857D01*
X168795494Y-42682856D01*
X168232732Y-43245618D01*
X168210282Y-43169160D01*
X168130995Y-43045787D01*
X168020162Y-42949749D01*
X167886761Y-42888827D01*
X167882966Y-42888281D01*
X168441942Y-42329305D01*
X168441941Y-42329303D01*
X168376518Y-42283494D01*
X168376516Y-42283493D01*
X168252325Y-42225582D01*
X168199885Y-42179410D01*
X168180733Y-42112217D01*
X168200949Y-42045335D01*
X168252325Y-42000818D01*
X168376512Y-41942908D01*
X168376514Y-41942907D01*
X168441942Y-41897094D01*
X167882966Y-41338118D01*
X167886761Y-41337573D01*
X168020162Y-41276651D01*
X168130995Y-41180613D01*
X168210282Y-41057240D01*
X168232733Y-40980780D01*
X168795494Y-41543542D01*
X168841306Y-41478115D01*
X168934850Y-41277509D01*
X168934854Y-41277500D01*
X168992138Y-41063709D01*
X168992140Y-41063699D01*
X169011432Y-40843200D01*
X169011432Y-40843199D01*
X168992140Y-40622700D01*
X168992138Y-40622690D01*
X168934854Y-40408899D01*
X168934850Y-40408890D01*
X168841307Y-40208285D01*
X168841306Y-40208283D01*
X168795494Y-40142857D01*
X168795494Y-40142856D01*
X168232732Y-40705618D01*
X168210282Y-40629160D01*
X168130995Y-40505787D01*
X168020162Y-40409749D01*
X167886761Y-40348827D01*
X167882966Y-40348281D01*
X168441942Y-39789305D01*
X168441596Y-39785354D01*
X168404702Y-39739199D01*
X168397508Y-39669701D01*
X168429030Y-39607346D01*
X168489260Y-39571931D01*
X168519450Y-39568200D01*
X168554428Y-39568200D01*
X168554444Y-39568199D01*
X168613972Y-39561798D01*
X168613979Y-39561796D01*
X168748686Y-39511554D01*
X168748693Y-39511550D01*
X168863787Y-39425390D01*
X168863790Y-39425387D01*
X168949950Y-39310293D01*
X168949954Y-39310286D01*
X169000196Y-39175579D01*
X169000198Y-39175572D01*
X169006599Y-39116044D01*
X169006600Y-39116027D01*
X169006600Y-38553200D01*
X168187172Y-38553200D01*
X168210282Y-38517240D01*
X168251600Y-38376527D01*
X168251600Y-38229873D01*
X168210282Y-38089160D01*
X168187172Y-38053200D01*
X169006600Y-38053200D01*
X169006600Y-37605707D01*
X169026285Y-37538668D01*
X169079089Y-37492913D01*
X169148247Y-37482969D01*
X169154867Y-37484224D01*
X169156397Y-37484388D01*
X169156399Y-37484389D01*
X169171298Y-37485990D01*
X169216945Y-37490899D01*
X169216962Y-37490900D01*
X170774738Y-37490900D01*
X170774754Y-37490899D01*
X170801792Y-37487991D01*
X170835301Y-37484389D01*
X170835744Y-37484224D01*
X170878372Y-37468324D01*
X170972304Y-37433289D01*
X171089361Y-37345661D01*
X171176989Y-37228604D01*
X171228089Y-37091601D01*
X171231691Y-37058092D01*
X171234599Y-37031054D01*
X171234600Y-37031037D01*
X171234600Y-36374962D01*
X171234599Y-36374945D01*
X171229393Y-36326528D01*
X171228089Y-36314399D01*
X171228087Y-36314395D01*
X171228087Y-36314392D01*
X171176991Y-36177400D01*
X171176985Y-36177390D01*
X171150725Y-36142311D01*
X171126307Y-36076847D01*
X171141158Y-36008574D01*
X171150725Y-35993689D01*
X171176985Y-35958609D01*
X171176989Y-35958604D01*
X171176991Y-35958599D01*
X171228087Y-35821607D01*
X171228088Y-35821604D01*
X171228089Y-35821601D01*
X171232495Y-35780616D01*
X171234599Y-35761054D01*
X171234600Y-35761037D01*
X171234600Y-35104962D01*
X171234599Y-35104945D01*
X171231257Y-35073870D01*
X171228089Y-35044399D01*
X171228086Y-35044392D01*
X171176988Y-34907393D01*
X171176987Y-34907392D01*
X171145416Y-34865219D01*
X171120998Y-34799755D01*
X171135849Y-34731482D01*
X171145416Y-34716596D01*
X171169451Y-34684489D01*
X171169452Y-34684488D01*
X171219697Y-34549776D01*
X171219698Y-34549772D01*
X171226099Y-34490244D01*
X171226100Y-34490227D01*
X171226100Y-34413000D01*
X168765600Y-34413000D01*
X168765600Y-34490244D01*
X168772001Y-34549772D01*
X168772003Y-34549779D01*
X168802732Y-34632167D01*
X168807716Y-34701858D01*
X168774231Y-34763181D01*
X168712908Y-34796666D01*
X168686550Y-34799500D01*
X168179184Y-34799500D01*
X168112145Y-34779815D01*
X168106297Y-34775817D01*
X168096751Y-34768881D01*
X167979315Y-34716596D01*
X167922288Y-34691206D01*
X167922286Y-34691205D01*
X167735487Y-34651500D01*
X167544513Y-34651500D01*
X167357714Y-34691205D01*
X167183246Y-34768883D01*
X167028745Y-34881135D01*
X166900959Y-35023057D01*
X166805473Y-35188443D01*
X166805470Y-35188450D01*
X166746459Y-35370068D01*
X166746458Y-35370072D01*
X166726496Y-35560000D01*
X166746458Y-35749928D01*
X166746459Y-35749931D01*
X166805470Y-35931549D01*
X166805473Y-35931556D01*
X166900960Y-36096944D01*
X166973394Y-36177390D01*
X167012966Y-36221340D01*
X167028747Y-36238866D01*
X167183248Y-36351118D01*
X167357712Y-36428794D01*
X167544513Y-36468500D01*
X167735487Y-36468500D01*
X167922288Y-36428794D01*
X168096752Y-36351118D01*
X168251253Y-36238866D01*
X168369510Y-36107527D01*
X168428997Y-36070879D01*
X168461660Y-36066500D01*
X168677479Y-36066500D01*
X168744518Y-36086185D01*
X168790273Y-36138989D01*
X168800217Y-36208147D01*
X168793660Y-36233835D01*
X168763611Y-36314395D01*
X168763611Y-36314397D01*
X168757100Y-36374945D01*
X168757100Y-36921943D01*
X168737415Y-36988982D01*
X168684611Y-37034737D01*
X168619845Y-37045233D01*
X168554428Y-37038200D01*
X167991600Y-37038200D01*
X167991600Y-37856705D01*
X167886761Y-37808827D01*
X167778073Y-37793200D01*
X167705127Y-37793200D01*
X167596439Y-37808827D01*
X167491600Y-37856705D01*
X167491600Y-37038200D01*
X166928755Y-37038200D01*
X166869227Y-37044601D01*
X166869220Y-37044603D01*
X166734513Y-37094845D01*
X166734506Y-37094849D01*
X166619412Y-37181009D01*
X166619409Y-37181012D01*
X166533249Y-37296106D01*
X166533245Y-37296113D01*
X166483003Y-37430820D01*
X166483001Y-37430827D01*
X166476600Y-37490355D01*
X166476600Y-37544927D01*
X166456915Y-37611966D01*
X166404111Y-37657721D01*
X166334953Y-37667665D01*
X166279714Y-37645245D01*
X166268799Y-37637315D01*
X166166352Y-37562882D01*
X165991888Y-37485206D01*
X165991886Y-37485205D01*
X165805087Y-37445500D01*
X165614113Y-37445500D01*
X165427314Y-37485205D01*
X165297447Y-37543025D01*
X165228197Y-37552309D01*
X165164920Y-37522680D01*
X165159331Y-37517426D01*
X164906219Y-37264314D01*
X164872734Y-37202991D01*
X164869900Y-37176633D01*
X164869900Y-36417199D01*
X164889585Y-36350160D01*
X164942389Y-36304405D01*
X164993900Y-36293199D01*
X165711937Y-36293199D01*
X165711944Y-36293199D01*
X165815826Y-36282587D01*
X165984138Y-36226815D01*
X166135052Y-36133730D01*
X166260430Y-36008352D01*
X166353515Y-35857438D01*
X166409287Y-35689126D01*
X166419900Y-35585245D01*
X166419899Y-34759156D01*
X166409287Y-34655274D01*
X166353515Y-34486962D01*
X166260430Y-34336048D01*
X166135052Y-34210670D01*
X165984138Y-34117585D01*
X165880843Y-34083357D01*
X165815827Y-34061813D01*
X165711945Y-34051200D01*
X162760862Y-34051200D01*
X162760846Y-34051201D01*
X162656972Y-34061813D01*
X162488664Y-34117584D01*
X162488662Y-34117584D01*
X162488662Y-34117585D01*
X162488658Y-34117586D01*
X162488657Y-34117588D01*
X162453157Y-34139484D01*
X162385764Y-34157923D01*
X162319101Y-34136999D01*
X162274333Y-34083357D01*
X162264288Y-34041430D01*
X162257457Y-33928500D01*
X162256467Y-33912130D01*
X162197403Y-33589829D01*
X162099921Y-33276997D01*
X162039614Y-33143000D01*
X168765600Y-33143000D01*
X168765600Y-33220244D01*
X168772001Y-33279772D01*
X168772003Y-33279779D01*
X168822245Y-33414486D01*
X168822247Y-33414489D01*
X168851592Y-33453689D01*
X168876009Y-33519154D01*
X168861157Y-33587426D01*
X168851592Y-33602311D01*
X168822247Y-33641510D01*
X168822245Y-33641513D01*
X168772003Y-33776220D01*
X168772001Y-33776227D01*
X168765600Y-33835755D01*
X168765600Y-33913000D01*
X169745850Y-33913000D01*
X169745850Y-33143000D01*
X170245850Y-33143000D01*
X170245850Y-33913000D01*
X171226100Y-33913000D01*
X171226100Y-33835772D01*
X171226099Y-33835755D01*
X171219698Y-33776227D01*
X171219697Y-33776223D01*
X171169452Y-33641511D01*
X171169451Y-33641510D01*
X171140107Y-33602312D01*
X171115689Y-33536848D01*
X171130540Y-33468575D01*
X171140107Y-33453688D01*
X171169451Y-33414489D01*
X171169452Y-33414488D01*
X171219697Y-33279776D01*
X171219698Y-33279772D01*
X171226099Y-33220244D01*
X171226100Y-33220227D01*
X171226100Y-33143000D01*
X170245850Y-33143000D01*
X169745850Y-33143000D01*
X168765600Y-33143000D01*
X162039614Y-33143000D01*
X161965442Y-32978196D01*
X161795926Y-32697784D01*
X161660891Y-32525424D01*
X161593844Y-32439845D01*
X161362154Y-32208155D01*
X161222969Y-32099111D01*
X161182336Y-32042271D01*
X161178884Y-31972487D01*
X161213708Y-31911914D01*
X161275752Y-31879784D01*
X161299442Y-31877500D01*
X169121111Y-31877500D01*
X169188150Y-31897185D01*
G37*
%TD.AperFunction*%
%TA.AperFunction,Conductor*%
G36*
X166507249Y-52880367D02*
G01*
X166563182Y-52922239D01*
X166587599Y-52987703D01*
X166576298Y-53048953D01*
X166548347Y-53108894D01*
X166548345Y-53108899D01*
X166491061Y-53322690D01*
X166491059Y-53322700D01*
X166471768Y-53543199D01*
X166471768Y-53543200D01*
X166491059Y-53763699D01*
X166491060Y-53763703D01*
X166512470Y-53843607D01*
X166510807Y-53913456D01*
X166471645Y-53971319D01*
X166407416Y-53998823D01*
X166392695Y-53999700D01*
X165951426Y-53999700D01*
X165884387Y-53980015D01*
X165877634Y-53974746D01*
X165877453Y-53974997D01*
X165871143Y-53970412D01*
X165853255Y-53960578D01*
X165836994Y-53949897D01*
X165820863Y-53937384D01*
X165777517Y-53918627D01*
X165772269Y-53916056D01*
X165745435Y-53901304D01*
X165696171Y-53851758D01*
X165681514Y-53783443D01*
X165696751Y-53737120D01*
X165695048Y-53736300D01*
X165698061Y-53730040D01*
X165698068Y-53730031D01*
X165759019Y-53555841D01*
X165759019Y-53555837D01*
X165759869Y-53552117D01*
X165761104Y-53549881D01*
X165761319Y-53549268D01*
X165761423Y-53549304D01*
X165793075Y-53492029D01*
X165796162Y-53488942D01*
X165810598Y-53474505D01*
X165825392Y-53461870D01*
X165841907Y-53449872D01*
X165872022Y-53413467D01*
X165875926Y-53409176D01*
X166376236Y-52908866D01*
X166437557Y-52875383D01*
X166507249Y-52880367D01*
G37*
%TD.AperFunction*%
%TA.AperFunction,Conductor*%
G36*
X182512918Y-48677240D02*
G01*
X182592205Y-48800613D01*
X182703038Y-48896651D01*
X182836439Y-48957573D01*
X182840233Y-48958118D01*
X182281256Y-49517094D01*
X182346683Y-49562906D01*
X182346685Y-49562907D01*
X182470875Y-49620818D01*
X182523314Y-49666990D01*
X182542466Y-49734184D01*
X182522250Y-49801065D01*
X182470875Y-49845582D01*
X182346683Y-49903493D01*
X182346679Y-49903495D01*
X182178370Y-50021347D01*
X182112164Y-50043674D01*
X182044397Y-50026664D01*
X181996584Y-49975716D01*
X181983906Y-49907006D01*
X182001711Y-49854671D01*
X182013544Y-49835487D01*
X182013547Y-49835481D01*
X182066856Y-49674606D01*
X182074720Y-49597626D01*
X182090289Y-49559467D01*
X182078671Y-49552000D01*
X181352000Y-49552000D01*
X181352000Y-50251999D01*
X181400308Y-50251999D01*
X181400322Y-50251998D01*
X181499607Y-50241855D01*
X181660481Y-50188547D01*
X181660488Y-50188544D01*
X181760624Y-50126779D01*
X181828017Y-50108338D01*
X181894680Y-50129260D01*
X181939450Y-50182902D01*
X181948112Y-50252232D01*
X181927297Y-50303440D01*
X181881895Y-50368279D01*
X181881893Y-50368283D01*
X181788349Y-50568890D01*
X181788345Y-50568899D01*
X181731061Y-50782690D01*
X181731059Y-50782700D01*
X181711768Y-51003199D01*
X181711768Y-51003200D01*
X181731059Y-51223699D01*
X181731061Y-51223709D01*
X181788345Y-51437500D01*
X181788349Y-51437509D01*
X181881895Y-51638119D01*
X181927703Y-51703541D01*
X181927704Y-51703542D01*
X182490466Y-51140779D01*
X182512918Y-51217240D01*
X182592205Y-51340613D01*
X182703038Y-51436651D01*
X182836439Y-51497573D01*
X182840233Y-51498118D01*
X182281256Y-52057094D01*
X182346683Y-52102906D01*
X182346685Y-52102907D01*
X182470875Y-52160818D01*
X182523314Y-52206990D01*
X182542466Y-52274184D01*
X182522250Y-52341065D01*
X182470875Y-52385582D01*
X182346684Y-52443493D01*
X182281257Y-52489304D01*
X182840234Y-53048281D01*
X182836439Y-53048827D01*
X182703038Y-53109749D01*
X182592205Y-53205787D01*
X182512918Y-53329160D01*
X182490466Y-53405619D01*
X181927704Y-52842857D01*
X181881893Y-52908284D01*
X181788349Y-53108890D01*
X181788345Y-53108899D01*
X181751275Y-53247251D01*
X181714910Y-53306912D01*
X181652063Y-53337441D01*
X181582688Y-53329146D01*
X181528810Y-53284661D01*
X181507535Y-53218109D01*
X181507500Y-53215158D01*
X181507500Y-52530031D01*
X181509238Y-52514281D01*
X181508968Y-52514256D01*
X181509701Y-52506494D01*
X181509702Y-52506491D01*
X181507500Y-52436441D01*
X181507500Y-52406544D01*
X181506614Y-52399536D01*
X181506156Y-52393714D01*
X181504673Y-52346510D01*
X181504672Y-52346508D01*
X181503945Y-52344005D01*
X181498977Y-52326908D01*
X181495032Y-52307857D01*
X181492474Y-52287603D01*
X181475084Y-52243684D01*
X181473193Y-52238157D01*
X181463881Y-52206104D01*
X181460018Y-52192807D01*
X181449623Y-52175231D01*
X181441064Y-52157756D01*
X181433554Y-52138788D01*
X181433554Y-52138787D01*
X181433553Y-52138785D01*
X181433552Y-52138783D01*
X181405789Y-52100571D01*
X181402587Y-52095697D01*
X181384319Y-52064805D01*
X181378544Y-52055040D01*
X181378539Y-52055034D01*
X181364106Y-52040601D01*
X181351469Y-52025806D01*
X181350956Y-52025100D01*
X181339472Y-52009293D01*
X181326349Y-51998437D01*
X181303084Y-51979190D01*
X181298762Y-51975257D01*
X180241535Y-50918030D01*
X180208050Y-50856707D01*
X180213034Y-50787015D01*
X180254905Y-50731083D01*
X180322261Y-50680661D01*
X180409889Y-50563604D01*
X180460989Y-50426601D01*
X180465568Y-50384010D01*
X180467499Y-50366054D01*
X180467500Y-50366037D01*
X180467500Y-50335077D01*
X180487185Y-50268038D01*
X180539989Y-50222283D01*
X180609147Y-50212339D01*
X180630505Y-50217371D01*
X180704394Y-50241856D01*
X180803683Y-50251999D01*
X180851999Y-50251998D01*
X180852000Y-50251998D01*
X180852000Y-49176000D01*
X180871685Y-49108961D01*
X180924489Y-49063206D01*
X180976000Y-49052000D01*
X182039247Y-49052000D01*
X182039247Y-49051999D01*
X182490466Y-48600779D01*
X182512918Y-48677240D01*
G37*
%TD.AperFunction*%
%TA.AperFunction,Conductor*%
G36*
X157791874Y-39796963D02*
G01*
X157821420Y-39812823D01*
X157938386Y-39897804D01*
X157981051Y-39953135D01*
X157989500Y-39998122D01*
X157989500Y-40342531D01*
X157969815Y-40409570D01*
X157930600Y-40448068D01*
X157914958Y-40457716D01*
X157793712Y-40578963D01*
X157703702Y-40724890D01*
X157703697Y-40724901D01*
X157649764Y-40887663D01*
X157639500Y-40988120D01*
X157639500Y-41535879D01*
X157649764Y-41636336D01*
X157703697Y-41799098D01*
X157703702Y-41799109D01*
X157793712Y-41945036D01*
X157793715Y-41945040D01*
X157797994Y-41949319D01*
X157831479Y-42010642D01*
X157826495Y-42080334D01*
X157797994Y-42124681D01*
X157793715Y-42128959D01*
X157793712Y-42128963D01*
X157703702Y-42274890D01*
X157703697Y-42274901D01*
X157649764Y-42437663D01*
X157639500Y-42538120D01*
X157639500Y-43085879D01*
X157646489Y-43154284D01*
X157649764Y-43186336D01*
X157695512Y-43324398D01*
X157705970Y-43355956D01*
X157703731Y-43356697D01*
X157712525Y-43414616D01*
X157684002Y-43478399D01*
X157625523Y-43516635D01*
X157555656Y-43517186D01*
X157550649Y-43515643D01*
X157458608Y-43485144D01*
X157359322Y-43475000D01*
X157336000Y-43475000D01*
X157336000Y-45424999D01*
X157359308Y-45424999D01*
X157359322Y-45424998D01*
X157458607Y-45414855D01*
X157619481Y-45361547D01*
X157619492Y-45361542D01*
X157763728Y-45272575D01*
X157763732Y-45272572D01*
X157767309Y-45268996D01*
X157828632Y-45235511D01*
X157898324Y-45240495D01*
X157942671Y-45268996D01*
X157952959Y-45279284D01*
X157952963Y-45279287D01*
X158098890Y-45369297D01*
X158098893Y-45369298D01*
X158098899Y-45369302D01*
X158261664Y-45423236D01*
X158362128Y-45433500D01*
X158362133Y-45433500D01*
X158876845Y-45433500D01*
X158943884Y-45453185D01*
X158989639Y-45505989D01*
X158999583Y-45575147D01*
X158982961Y-45621649D01*
X158950755Y-45674925D01*
X158887359Y-45779793D01*
X158849338Y-45864273D01*
X158752945Y-46078452D01*
X158752878Y-46078600D01*
X158752872Y-46078615D01*
X158655399Y-46391420D01*
X158655397Y-46391426D01*
X158655397Y-46391429D01*
X158613707Y-46618926D01*
X158596332Y-46713735D01*
X158576549Y-47040800D01*
X158596332Y-47367864D01*
X158596332Y-47367869D01*
X158596333Y-47367870D01*
X158655397Y-47690171D01*
X158655398Y-47690175D01*
X158655399Y-47690179D01*
X158752872Y-48002984D01*
X158752876Y-48002996D01*
X158752879Y-48003003D01*
X158860620Y-48242394D01*
X158887358Y-48301804D01*
X159056873Y-48582215D01*
X159258955Y-48840154D01*
X159490645Y-49071844D01*
X159739353Y-49266694D01*
X159748584Y-49273926D01*
X159941227Y-49390384D01*
X159988415Y-49441911D01*
X160000253Y-49510770D01*
X159972984Y-49575099D01*
X159915265Y-49614473D01*
X159877077Y-49620500D01*
X155108734Y-49620500D01*
X155092986Y-49618761D01*
X155092961Y-49619032D01*
X155085194Y-49618298D01*
X155085191Y-49618298D01*
X155015142Y-49620500D01*
X154985237Y-49620500D01*
X154978243Y-49621384D01*
X154972420Y-49621842D01*
X154925212Y-49623326D01*
X154925209Y-49623327D01*
X154905606Y-49629022D01*
X154886558Y-49632966D01*
X154866303Y-49635526D01*
X154852934Y-49640819D01*
X154822385Y-49652913D01*
X154816859Y-49654805D01*
X154771507Y-49667981D01*
X154753933Y-49678374D01*
X154736472Y-49686928D01*
X154717486Y-49694446D01*
X154717484Y-49694447D01*
X154679272Y-49722208D01*
X154674390Y-49725415D01*
X154633737Y-49749457D01*
X154619301Y-49763894D01*
X154604515Y-49776523D01*
X154587993Y-49788528D01*
X154587991Y-49788529D01*
X154587991Y-49788530D01*
X154587988Y-49788532D01*
X154557880Y-49824925D01*
X154553949Y-49829246D01*
X151959099Y-52424094D01*
X151897776Y-52457579D01*
X151828084Y-52452595D01*
X151815593Y-52447136D01*
X151669158Y-52373305D01*
X151487057Y-52317537D01*
X151448043Y-52305589D01*
X151448041Y-52305588D01*
X151448042Y-52305588D01*
X151218659Y-52276215D01*
X150987627Y-52286030D01*
X150987621Y-52286030D01*
X150761559Y-52334751D01*
X150546990Y-52420972D01*
X150350070Y-52542220D01*
X150176479Y-52694999D01*
X150176472Y-52695005D01*
X150031204Y-52874917D01*
X150031197Y-52874927D01*
X150013597Y-52906432D01*
X149963717Y-52955357D01*
X149895303Y-52969548D01*
X149830078Y-52944499D01*
X149803770Y-52917078D01*
X149698913Y-52767326D01*
X149698908Y-52767320D01*
X149531882Y-52600294D01*
X149338378Y-52464799D01*
X149124292Y-52364970D01*
X149124286Y-52364967D01*
X148910800Y-52307764D01*
X148910800Y-53355381D01*
X148795999Y-53302954D01*
X148694775Y-53288400D01*
X148626825Y-53288400D01*
X148525601Y-53302954D01*
X148410800Y-53355381D01*
X148410800Y-52307764D01*
X148410799Y-52307764D01*
X148197313Y-52364967D01*
X148197307Y-52364970D01*
X147983222Y-52464799D01*
X147983220Y-52464800D01*
X147789726Y-52600286D01*
X147789720Y-52600291D01*
X147622691Y-52767320D01*
X147622690Y-52767322D01*
X147516966Y-52918311D01*
X147462389Y-52961936D01*
X147392890Y-52969128D01*
X147330536Y-52937606D01*
X147312656Y-52916624D01*
X147305767Y-52906432D01*
X147275309Y-52861367D01*
X147221590Y-52781886D01*
X147221586Y-52781881D01*
X147221583Y-52781877D01*
X147061572Y-52614924D01*
X146875647Y-52477415D01*
X146875646Y-52477414D01*
X146875644Y-52477413D01*
X146669158Y-52373305D01*
X146487057Y-52317537D01*
X146448043Y-52305589D01*
X146448041Y-52305588D01*
X146448039Y-52305588D01*
X146448037Y-52305587D01*
X146436143Y-52304064D01*
X146372148Y-52276020D01*
X146333474Y-52217830D01*
X146327900Y-52181069D01*
X146327900Y-49837405D01*
X146347585Y-49770366D01*
X146400389Y-49724611D01*
X146469547Y-49714667D01*
X146533103Y-49743692D01*
X146559285Y-49775403D01*
X146574673Y-49802054D01*
X146580960Y-49812944D01*
X146706111Y-49951939D01*
X146708747Y-49954866D01*
X146863248Y-50067118D01*
X147037712Y-50144794D01*
X147224513Y-50184500D01*
X147415487Y-50184500D01*
X147602288Y-50144794D01*
X147776752Y-50067118D01*
X147931253Y-49954866D01*
X148059040Y-49812944D01*
X148154527Y-49647556D01*
X148213542Y-49465928D01*
X148233504Y-49276000D01*
X148213542Y-49086072D01*
X148154527Y-48904444D01*
X148059040Y-48739056D01*
X147959161Y-48628129D01*
X147936022Y-48590810D01*
X147921081Y-48553074D01*
X147919204Y-48547592D01*
X147906019Y-48502207D01*
X147895620Y-48484624D01*
X147887066Y-48467163D01*
X147879552Y-48448183D01*
X147851793Y-48409976D01*
X147848586Y-48405094D01*
X147824544Y-48364441D01*
X147824543Y-48364440D01*
X147824542Y-48364438D01*
X147810108Y-48350004D01*
X147797471Y-48335209D01*
X147785472Y-48318693D01*
X147785470Y-48318690D01*
X147749073Y-48288581D01*
X147744751Y-48284647D01*
X146714218Y-47254113D01*
X146680733Y-47192790D01*
X146677899Y-47166432D01*
X146677899Y-46872927D01*
X146671414Y-46801555D01*
X146671413Y-46801550D01*
X146667035Y-46787500D01*
X146660231Y-46765669D01*
X146659080Y-46695811D01*
X146695880Y-46636418D01*
X146741723Y-46610395D01*
X146871913Y-46569827D01*
X147019155Y-46480816D01*
X147140816Y-46359155D01*
X147229827Y-46211913D01*
X147281013Y-46047649D01*
X147287500Y-45976265D01*
X147287499Y-45461736D01*
X147287499Y-45461727D01*
X147281014Y-45390354D01*
X147281011Y-45390344D01*
X147229828Y-45226090D01*
X147229827Y-45226089D01*
X147229827Y-45226087D01*
X147140816Y-45078845D01*
X147140814Y-45078843D01*
X147140813Y-45078841D01*
X147037641Y-44975669D01*
X147004156Y-44914346D01*
X147009140Y-44844654D01*
X147037641Y-44800306D01*
X147126040Y-44711908D01*
X147187364Y-44678424D01*
X147257055Y-44683408D01*
X147312989Y-44725280D01*
X147329012Y-44753940D01*
X147332448Y-44762617D01*
X147332449Y-44762619D01*
X147360209Y-44800827D01*
X147363416Y-44805710D01*
X147387458Y-44846362D01*
X147387462Y-44846366D01*
X147401889Y-44860793D01*
X147414526Y-44875588D01*
X147426528Y-44892107D01*
X147462931Y-44922222D01*
X147467231Y-44926135D01*
X147516765Y-44975669D01*
X147550181Y-45009085D01*
X147583666Y-45070408D01*
X147586500Y-45096766D01*
X147586500Y-45133222D01*
X147589269Y-45168416D01*
X147589270Y-45168422D01*
X147633042Y-45319084D01*
X147633043Y-45319087D01*
X147712911Y-45454137D01*
X147712918Y-45454146D01*
X147823853Y-45565081D01*
X147823862Y-45565088D01*
X147860305Y-45586640D01*
X147958911Y-45644956D01*
X147987242Y-45653187D01*
X148109577Y-45688729D01*
X148109580Y-45688729D01*
X148109582Y-45688730D01*
X148121314Y-45689653D01*
X148144778Y-45691500D01*
X148144780Y-45691500D01*
X148645222Y-45691500D01*
X148662819Y-45690115D01*
X148680418Y-45688730D01*
X148680420Y-45688729D01*
X148680422Y-45688729D01*
X148727935Y-45674925D01*
X148831089Y-45644956D01*
X148966141Y-45565086D01*
X149077086Y-45454141D01*
X149156956Y-45319089D01*
X149195150Y-45187626D01*
X149200729Y-45168422D01*
X149200730Y-45168416D01*
X149203500Y-45133222D01*
X149203500Y-44782778D01*
X149201231Y-44753943D01*
X149200730Y-44747582D01*
X149199962Y-44744939D01*
X149165694Y-44626987D01*
X149156956Y-44596911D01*
X149098437Y-44497961D01*
X149077088Y-44461862D01*
X149077081Y-44461853D01*
X148966146Y-44350918D01*
X148966137Y-44350911D01*
X148841833Y-44277398D01*
X148831089Y-44271044D01*
X148831088Y-44271043D01*
X148831087Y-44271043D01*
X148831084Y-44271042D01*
X148680422Y-44227270D01*
X148680415Y-44227269D01*
X148645214Y-44224499D01*
X148644619Y-44224476D01*
X148578407Y-44202168D01*
X148534766Y-44147604D01*
X148525500Y-44100572D01*
X148525500Y-43820833D01*
X148545185Y-43753794D01*
X148561813Y-43733157D01*
X148629321Y-43665649D01*
X148690640Y-43632167D01*
X148760332Y-43637151D01*
X148804680Y-43665652D01*
X148901841Y-43762813D01*
X148901843Y-43762814D01*
X148901845Y-43762816D01*
X149049087Y-43851827D01*
X149213351Y-43903013D01*
X149284735Y-43909500D01*
X149737500Y-43909499D01*
X149804539Y-43929183D01*
X149850294Y-43981987D01*
X149861500Y-44033499D01*
X149861500Y-44361910D01*
X149841815Y-44428949D01*
X149825181Y-44449591D01*
X149812918Y-44461853D01*
X149812911Y-44461862D01*
X149733043Y-44596912D01*
X149733042Y-44596915D01*
X149689270Y-44747577D01*
X149689269Y-44747583D01*
X149686500Y-44782778D01*
X149686500Y-45133222D01*
X149689269Y-45168416D01*
X149689270Y-45168422D01*
X149733042Y-45319084D01*
X149733043Y-45319087D01*
X149812911Y-45454137D01*
X149812918Y-45454146D01*
X149923853Y-45565081D01*
X149923862Y-45565088D01*
X149960305Y-45586640D01*
X150058911Y-45644956D01*
X150087242Y-45653187D01*
X150209577Y-45688729D01*
X150209580Y-45688729D01*
X150209582Y-45688730D01*
X150221314Y-45689653D01*
X150244778Y-45691500D01*
X150244780Y-45691500D01*
X150461500Y-45691500D01*
X150528539Y-45711185D01*
X150574294Y-45763989D01*
X150585500Y-45815500D01*
X150585500Y-46741366D01*
X150583761Y-46757113D01*
X150584032Y-46757139D01*
X150583298Y-46764905D01*
X150583298Y-46764908D01*
X150583298Y-46764909D01*
X150585008Y-46819296D01*
X150585500Y-46834957D01*
X150585500Y-46864859D01*
X150586384Y-46871856D01*
X150586842Y-46877679D01*
X150588326Y-46924889D01*
X150588327Y-46924891D01*
X150594022Y-46944495D01*
X150597967Y-46963542D01*
X150600526Y-46983797D01*
X150600527Y-46983800D01*
X150600528Y-46983803D01*
X150617914Y-47027716D01*
X150619806Y-47033244D01*
X150632981Y-47078592D01*
X150643372Y-47096162D01*
X150651932Y-47113635D01*
X150659447Y-47132617D01*
X150687209Y-47170827D01*
X150690418Y-47175712D01*
X150710792Y-47210164D01*
X150714458Y-47216362D01*
X150714462Y-47216366D01*
X150728889Y-47230793D01*
X150741527Y-47245589D01*
X150753528Y-47262107D01*
X150753530Y-47262109D01*
X150762948Y-47269900D01*
X150789931Y-47292222D01*
X150794231Y-47296135D01*
X151012654Y-47514558D01*
X151220910Y-47722814D01*
X151230816Y-47735178D01*
X151231026Y-47735005D01*
X151236001Y-47741019D01*
X151287095Y-47789000D01*
X151308224Y-47810129D01*
X151308228Y-47810132D01*
X151308231Y-47810135D01*
X151313805Y-47814458D01*
X151318247Y-47818252D01*
X151352678Y-47850585D01*
X151352681Y-47850587D01*
X151370563Y-47860417D01*
X151386830Y-47871102D01*
X151402959Y-47883614D01*
X151446307Y-47902371D01*
X151451533Y-47904931D01*
X151492940Y-47927695D01*
X151512716Y-47932772D01*
X151531124Y-47939075D01*
X151549850Y-47947179D01*
X151549852Y-47947180D01*
X151549853Y-47947180D01*
X151549855Y-47947181D01*
X151590784Y-47953663D01*
X151596503Y-47954569D01*
X151602212Y-47955751D01*
X151647970Y-47967500D01*
X151668384Y-47967500D01*
X151687783Y-47969027D01*
X151707943Y-47972220D01*
X151754966Y-47967775D01*
X151760804Y-47967500D01*
X154245366Y-47967500D01*
X154261113Y-47969238D01*
X154261139Y-47968968D01*
X154268905Y-47969701D01*
X154268909Y-47969702D01*
X154335927Y-47967595D01*
X154344177Y-47967885D01*
X154399128Y-47973500D01*
X154399133Y-47973500D01*
X154946867Y-47973500D01*
X154946872Y-47973500D01*
X155047336Y-47963236D01*
X155210101Y-47909302D01*
X155356040Y-47819285D01*
X155366329Y-47808996D01*
X155427652Y-47775511D01*
X155497344Y-47780495D01*
X155541691Y-47808996D01*
X155545267Y-47812572D01*
X155545271Y-47812575D01*
X155689507Y-47901542D01*
X155689518Y-47901547D01*
X155850393Y-47954855D01*
X155949683Y-47964999D01*
X155973000Y-47964998D01*
X155973000Y-47240000D01*
X156473000Y-47240000D01*
X156473000Y-47964999D01*
X156496308Y-47964999D01*
X156496322Y-47964998D01*
X156595607Y-47954855D01*
X156756481Y-47901547D01*
X156756492Y-47901542D01*
X156900728Y-47812575D01*
X156900732Y-47812572D01*
X157020572Y-47692732D01*
X157020575Y-47692728D01*
X157109542Y-47548492D01*
X157109547Y-47548481D01*
X157162855Y-47387606D01*
X157172999Y-47288322D01*
X157173000Y-47288309D01*
X157173000Y-47240000D01*
X156473000Y-47240000D01*
X155973000Y-47240000D01*
X155973000Y-46864000D01*
X155992685Y-46796961D01*
X156045489Y-46751206D01*
X156097000Y-46740000D01*
X157172999Y-46740000D01*
X157172999Y-46691692D01*
X157172998Y-46691677D01*
X157162855Y-46592392D01*
X157109547Y-46431518D01*
X157109542Y-46431507D01*
X157020575Y-46287271D01*
X157020572Y-46287267D01*
X156900732Y-46167427D01*
X156900728Y-46167424D01*
X156756492Y-46078457D01*
X156756481Y-46078452D01*
X156624401Y-46034685D01*
X156566956Y-45994912D01*
X156540133Y-45930396D01*
X156545019Y-45880092D01*
X156552013Y-45857649D01*
X156558500Y-45786265D01*
X156558499Y-45535049D01*
X156578183Y-45468012D01*
X156630987Y-45422257D01*
X156700146Y-45412313D01*
X156708466Y-45413800D01*
X156713400Y-45414856D01*
X156812683Y-45424999D01*
X156836000Y-45424998D01*
X156836000Y-43474999D01*
X156812693Y-43475000D01*
X156812674Y-43475001D01*
X156713393Y-43485143D01*
X156660459Y-43502684D01*
X156590631Y-43505084D01*
X156530589Y-43469352D01*
X156503071Y-43421867D01*
X156491400Y-43384413D01*
X156490250Y-43314553D01*
X156527051Y-43255160D01*
X156572893Y-43229138D01*
X156650913Y-43204827D01*
X156798155Y-43115816D01*
X156919816Y-42994155D01*
X157008827Y-42846913D01*
X157060013Y-42682649D01*
X157066500Y-42611265D01*
X157066499Y-42096736D01*
X157066499Y-42096727D01*
X157060014Y-42025354D01*
X157060011Y-42025344D01*
X157008828Y-41861090D01*
X157008827Y-41861089D01*
X157008827Y-41861087D01*
X156919816Y-41713845D01*
X156919814Y-41713843D01*
X156919813Y-41713841D01*
X156822653Y-41616681D01*
X156789168Y-41555358D01*
X156794152Y-41485666D01*
X156822653Y-41441319D01*
X156919812Y-41344159D01*
X156919813Y-41344158D01*
X156919816Y-41344155D01*
X157008827Y-41196913D01*
X157060013Y-41032649D01*
X157066500Y-40961265D01*
X157066499Y-40446736D01*
X157066499Y-40446727D01*
X157060014Y-40375354D01*
X157060013Y-40375352D01*
X157057832Y-40368354D01*
X157028648Y-40274697D01*
X157020451Y-40248390D01*
X157019301Y-40178530D01*
X157056102Y-40119137D01*
X157119171Y-40089069D01*
X157138837Y-40087500D01*
X157143867Y-40087500D01*
X157143872Y-40087500D01*
X157244336Y-40077236D01*
X157407101Y-40023302D01*
X157553040Y-39933285D01*
X157660863Y-39825461D01*
X157722182Y-39791979D01*
X157791874Y-39796963D01*
G37*
%TD.AperFunction*%
%TA.AperFunction,Conductor*%
G36*
X169812739Y-50113857D02*
G01*
X169867513Y-50125500D01*
X169930500Y-50125500D01*
X169997539Y-50145185D01*
X170043294Y-50197989D01*
X170054500Y-50249500D01*
X170054500Y-50692418D01*
X170052761Y-50708165D01*
X170053032Y-50708191D01*
X170052298Y-50715957D01*
X170054500Y-50786009D01*
X170054500Y-50815911D01*
X170055384Y-50822908D01*
X170055842Y-50828731D01*
X170057326Y-50875941D01*
X170057327Y-50875943D01*
X170063022Y-50895547D01*
X170066967Y-50914594D01*
X170069526Y-50934849D01*
X170069527Y-50934852D01*
X170069528Y-50934855D01*
X170086914Y-50978768D01*
X170088806Y-50984296D01*
X170101981Y-51029644D01*
X170112372Y-51047214D01*
X170120932Y-51064687D01*
X170128445Y-51083664D01*
X170128447Y-51083667D01*
X170128448Y-51083669D01*
X170139318Y-51098630D01*
X170162798Y-51164433D01*
X170163000Y-51171515D01*
X170163000Y-51271542D01*
X170143315Y-51338581D01*
X170138267Y-51345852D01*
X170084712Y-51417392D01*
X170084711Y-51417393D01*
X170033611Y-51554395D01*
X170033611Y-51554397D01*
X170027100Y-51614945D01*
X170027100Y-51904724D01*
X170007415Y-51971763D01*
X169954611Y-52017518D01*
X169885453Y-52027462D01*
X169821897Y-51998437D01*
X169795713Y-51966724D01*
X169764868Y-51913300D01*
X169750640Y-51888656D01*
X169652095Y-51779210D01*
X169622854Y-51746735D01*
X169619305Y-51744156D01*
X169468352Y-51634482D01*
X169293888Y-51556806D01*
X169293886Y-51556805D01*
X169107087Y-51517100D01*
X169083926Y-51517100D01*
X169016887Y-51497415D01*
X168971132Y-51444611D01*
X168961188Y-51375453D01*
X168964151Y-51361007D01*
X168980407Y-51300339D01*
X169000544Y-51225186D01*
X169005150Y-51172537D01*
X169030602Y-51107469D01*
X169087193Y-51066490D01*
X169156955Y-51062612D01*
X169216359Y-51095664D01*
X169235267Y-51114572D01*
X169235271Y-51114575D01*
X169379507Y-51203542D01*
X169379518Y-51203547D01*
X169540393Y-51256855D01*
X169639683Y-51266999D01*
X169663000Y-51266998D01*
X169663000Y-50235155D01*
X169682685Y-50168116D01*
X169735489Y-50122361D01*
X169804647Y-50112417D01*
X169812739Y-50113857D01*
G37*
%TD.AperFunction*%
%TA.AperFunction,Conductor*%
G36*
X167272918Y-46137240D02*
G01*
X167352205Y-46260613D01*
X167463038Y-46356651D01*
X167596439Y-46417573D01*
X167600232Y-46418118D01*
X167041256Y-46977094D01*
X167106683Y-47022906D01*
X167106689Y-47022909D01*
X167220817Y-47076128D01*
X167273257Y-47122300D01*
X167292409Y-47189493D01*
X167272193Y-47256375D01*
X167220818Y-47300892D01*
X167102417Y-47356103D01*
X167102411Y-47356107D01*
X166919882Y-47483916D01*
X166762316Y-47641482D01*
X166634507Y-47824011D01*
X166634503Y-47824017D01*
X166540331Y-48025971D01*
X166540327Y-48025980D01*
X166482657Y-48241209D01*
X166482655Y-48241219D01*
X166463235Y-48463198D01*
X166463235Y-48463201D01*
X166482655Y-48685180D01*
X166482657Y-48685190D01*
X166540327Y-48900419D01*
X166540332Y-48900433D01*
X166634501Y-49102379D01*
X166634507Y-49102389D01*
X166762310Y-49284910D01*
X166762319Y-49284920D01*
X166804719Y-49327320D01*
X166838204Y-49388643D01*
X166833220Y-49458335D01*
X166804719Y-49502682D01*
X166235182Y-50072219D01*
X166222820Y-50082123D01*
X166222994Y-50082333D01*
X166216985Y-50087304D01*
X166216982Y-50087306D01*
X166216982Y-50087307D01*
X166197232Y-50108338D01*
X166169014Y-50138387D01*
X166146454Y-50160947D01*
X166085131Y-50194432D01*
X166015439Y-50189448D01*
X165994630Y-50179386D01*
X165909913Y-50128173D01*
X165909911Y-50128172D01*
X165909909Y-50128171D01*
X165909910Y-50128171D01*
X165745610Y-50076974D01*
X165687462Y-50038237D01*
X165659488Y-49974212D01*
X165658500Y-49958589D01*
X165658500Y-47412072D01*
X165678185Y-47345033D01*
X165694814Y-47324396D01*
X166462943Y-46556268D01*
X166524261Y-46522786D01*
X166593952Y-46527770D01*
X166649886Y-46569642D01*
X166652194Y-46572828D01*
X166687704Y-46623541D01*
X166687704Y-46623542D01*
X167250466Y-46060779D01*
X167272918Y-46137240D01*
G37*
%TD.AperFunction*%
%TA.AperFunction,Conductor*%
G36*
X167272918Y-43597240D02*
G01*
X167352205Y-43720613D01*
X167463038Y-43816651D01*
X167596439Y-43877573D01*
X167600234Y-43878118D01*
X167313320Y-44165032D01*
X167251997Y-44198517D01*
X167229538Y-44201290D01*
X167190219Y-44202526D01*
X167190216Y-44202527D01*
X167170613Y-44208222D01*
X167151565Y-44212166D01*
X167131310Y-44214726D01*
X167123498Y-44217819D01*
X167087392Y-44232113D01*
X167081866Y-44234005D01*
X167036514Y-44247181D01*
X167018940Y-44257574D01*
X167001479Y-44266128D01*
X166982493Y-44273646D01*
X166982491Y-44273647D01*
X166944279Y-44301408D01*
X166939397Y-44304615D01*
X166898744Y-44328657D01*
X166884308Y-44343094D01*
X166869522Y-44355723D01*
X166853000Y-44367728D01*
X166852998Y-44367729D01*
X166852998Y-44367730D01*
X166852995Y-44367732D01*
X166822887Y-44404125D01*
X166818956Y-44408446D01*
X164636179Y-46591221D01*
X164623820Y-46601125D01*
X164623993Y-46601334D01*
X164617982Y-46606306D01*
X164570015Y-46657386D01*
X164548871Y-46678529D01*
X164548863Y-46678538D01*
X164544531Y-46684121D01*
X164540746Y-46688552D01*
X164508416Y-46722982D01*
X164508412Y-46722988D01*
X164498579Y-46740874D01*
X164487903Y-46757127D01*
X164475386Y-46773264D01*
X164475385Y-46773266D01*
X164456625Y-46816617D01*
X164454055Y-46821863D01*
X164431303Y-46863248D01*
X164431303Y-46863249D01*
X164426225Y-46883027D01*
X164419925Y-46901429D01*
X164411818Y-46920164D01*
X164404431Y-46966802D01*
X164403246Y-46972523D01*
X164391500Y-47018272D01*
X164391500Y-47038691D01*
X164389972Y-47058090D01*
X164386780Y-47078250D01*
X164387023Y-47080818D01*
X164391225Y-47125273D01*
X164391500Y-47131111D01*
X164391500Y-50000656D01*
X164371815Y-50067695D01*
X164319011Y-50113450D01*
X164249853Y-50123394D01*
X164230611Y-50119042D01*
X164166295Y-50099001D01*
X164095649Y-50076987D01*
X164024265Y-50070500D01*
X164024262Y-50070500D01*
X163730767Y-50070500D01*
X163663728Y-50050815D01*
X163643090Y-50034185D01*
X163474086Y-49865182D01*
X163464188Y-49852825D01*
X163463978Y-49853000D01*
X163459003Y-49846988D01*
X163459000Y-49846982D01*
X163422751Y-49812942D01*
X163407921Y-49799015D01*
X163386768Y-49777863D01*
X163383600Y-49775406D01*
X163381183Y-49773531D01*
X163376750Y-49769744D01*
X163342321Y-49737414D01*
X163342319Y-49737412D01*
X163324431Y-49727578D01*
X163308170Y-49716897D01*
X163292039Y-49704384D01*
X163248693Y-49685627D01*
X163243445Y-49683056D01*
X163203895Y-49661314D01*
X163202060Y-49660305D01*
X163195867Y-49658715D01*
X163182287Y-49655228D01*
X163163881Y-49648926D01*
X163145144Y-49640818D01*
X163145146Y-49640818D01*
X163098496Y-49633430D01*
X163092781Y-49632246D01*
X163072612Y-49627068D01*
X163047032Y-49620500D01*
X163047030Y-49620500D01*
X163026616Y-49620500D01*
X163007217Y-49618973D01*
X162987058Y-49615780D01*
X162987057Y-49615780D01*
X162940034Y-49620225D01*
X162934196Y-49620500D01*
X162702923Y-49620500D01*
X162635884Y-49600815D01*
X162590129Y-49548011D01*
X162580185Y-49478853D01*
X162609210Y-49415297D01*
X162638771Y-49390384D01*
X162831416Y-49273926D01*
X163089351Y-49071847D01*
X163321047Y-48840151D01*
X163523126Y-48582216D01*
X163692642Y-48301804D01*
X163827121Y-48003003D01*
X163924603Y-47690171D01*
X163983667Y-47367870D01*
X164003451Y-47040800D01*
X163983667Y-46713730D01*
X163924603Y-46391429D01*
X163868606Y-46211728D01*
X163827127Y-46078615D01*
X163827125Y-46078610D01*
X163827121Y-46078597D01*
X163692642Y-45779796D01*
X163523126Y-45499384D01*
X163447911Y-45403379D01*
X163321044Y-45241445D01*
X163089354Y-45009755D01*
X162831415Y-44807673D01*
X162551004Y-44638158D01*
X162526183Y-44626987D01*
X162398306Y-44569434D01*
X162345254Y-44523972D01*
X162325201Y-44457042D01*
X162344517Y-44389895D01*
X162377934Y-44357921D01*
X162376494Y-44355938D01*
X162381752Y-44352118D01*
X162536253Y-44239866D01*
X162664040Y-44097944D01*
X162759527Y-43932556D01*
X162762318Y-43923963D01*
X162801752Y-43866287D01*
X162866109Y-43839085D01*
X162934956Y-43850995D01*
X162975531Y-43887379D01*
X162977429Y-43885810D01*
X162982394Y-43891812D01*
X162982399Y-43891817D01*
X162982400Y-43891818D01*
X162988545Y-43897588D01*
X163003982Y-43915099D01*
X163008925Y-43921904D01*
X163008927Y-43921905D01*
X163008928Y-43921907D01*
X163042406Y-43949602D01*
X163045319Y-43952012D01*
X163049630Y-43955934D01*
X163054630Y-43960934D01*
X163060202Y-43965256D01*
X163064642Y-43969049D01*
X163089224Y-43992132D01*
X163099079Y-44001386D01*
X163106459Y-44005443D01*
X163125762Y-44018561D01*
X163129292Y-44021481D01*
X163132256Y-44023933D01*
X163132260Y-44023935D01*
X163138846Y-44028115D01*
X163138699Y-44028345D01*
X163142501Y-44030675D01*
X163142641Y-44030440D01*
X163149359Y-44034413D01*
X163158311Y-44038287D01*
X163192698Y-44053167D01*
X163197945Y-44055737D01*
X163239340Y-44078495D01*
X163247502Y-44080590D01*
X163269459Y-44088496D01*
X163277082Y-44092083D01*
X163277084Y-44092083D01*
X163284505Y-44094495D01*
X163284420Y-44094754D01*
X163288688Y-44096067D01*
X163288765Y-44095805D01*
X163296249Y-44097979D01*
X163296251Y-44097979D01*
X163296255Y-44097981D01*
X163339857Y-44104886D01*
X163342903Y-44105369D01*
X163348612Y-44106551D01*
X163394370Y-44118300D01*
X163402793Y-44118300D01*
X163426028Y-44120496D01*
X163427983Y-44120868D01*
X163434306Y-44122075D01*
X163434312Y-44122074D01*
X163442089Y-44122564D01*
X163442071Y-44122838D01*
X163446531Y-44123048D01*
X163446540Y-44122775D01*
X163454340Y-44123020D01*
X163454341Y-44123019D01*
X163454343Y-44123020D01*
X163501366Y-44118575D01*
X163507204Y-44118300D01*
X165186256Y-44118300D01*
X165253295Y-44137985D01*
X165259131Y-44141975D01*
X165303648Y-44174318D01*
X165478112Y-44251994D01*
X165664913Y-44291700D01*
X165855887Y-44291700D01*
X166042688Y-44251994D01*
X166217152Y-44174318D01*
X166371653Y-44062066D01*
X166437834Y-43988563D01*
X166497320Y-43951915D01*
X166567177Y-43953245D01*
X166625226Y-43992132D01*
X166638863Y-44013610D01*
X166639185Y-44013425D01*
X166641893Y-44018116D01*
X166687704Y-44083541D01*
X166687705Y-44083542D01*
X167250466Y-43520780D01*
X167272918Y-43597240D01*
G37*
%TD.AperFunction*%
%TA.AperFunction,Conductor*%
G36*
X176395003Y-43492986D02*
G01*
X176401481Y-43499018D01*
X176776080Y-43873617D01*
X176785984Y-43885978D01*
X176786194Y-43885805D01*
X176791169Y-43891819D01*
X176842246Y-43939784D01*
X176863392Y-43960930D01*
X176868981Y-43965266D01*
X176873410Y-43969049D01*
X176893408Y-43987827D01*
X176907848Y-44001387D01*
X176925730Y-44011217D01*
X176941997Y-44021902D01*
X176958128Y-44034415D01*
X176970375Y-44039714D01*
X177001475Y-44053171D01*
X177006701Y-44055731D01*
X177048108Y-44078495D01*
X177067884Y-44083572D01*
X177086292Y-44089875D01*
X177105018Y-44097979D01*
X177105020Y-44097980D01*
X177105021Y-44097980D01*
X177105023Y-44097981D01*
X177145952Y-44104463D01*
X177151671Y-44105369D01*
X177157380Y-44106551D01*
X177203138Y-44118300D01*
X177223552Y-44118300D01*
X177242951Y-44119827D01*
X177263111Y-44123020D01*
X177310134Y-44118575D01*
X177315972Y-44118300D01*
X177895178Y-44118300D01*
X177962217Y-44137985D01*
X178007972Y-44190789D01*
X178018292Y-44257083D01*
X178015111Y-44283584D01*
X178011300Y-44315314D01*
X178011300Y-44654277D01*
X178021329Y-44737801D01*
X178073738Y-44870704D01*
X178087495Y-44888845D01*
X178160062Y-44984538D01*
X178273895Y-45070861D01*
X178406797Y-45123270D01*
X178490315Y-45133300D01*
X180019284Y-45133299D01*
X180054231Y-45129102D01*
X180123136Y-45140654D01*
X180174860Y-45187626D01*
X180186717Y-45213210D01*
X180190453Y-45224484D01*
X180215222Y-45264640D01*
X180233663Y-45332033D01*
X180212741Y-45398696D01*
X180159099Y-45443466D01*
X180089769Y-45452128D01*
X180075123Y-45448246D01*
X180068202Y-45446611D01*
X180007654Y-45440100D01*
X180007638Y-45440100D01*
X177929162Y-45440100D01*
X177929145Y-45440100D01*
X177868597Y-45446611D01*
X177868595Y-45446611D01*
X177731595Y-45497711D01*
X177614539Y-45585339D01*
X177526911Y-45702395D01*
X177475811Y-45839395D01*
X177475811Y-45839397D01*
X177469300Y-45899945D01*
X177469300Y-46556054D01*
X177475811Y-46616602D01*
X177475811Y-46616604D01*
X177526911Y-46753606D01*
X177526912Y-46753607D01*
X177553175Y-46788690D01*
X177577592Y-46854154D01*
X177562740Y-46922427D01*
X177553175Y-46937310D01*
X177526912Y-46972392D01*
X177526911Y-46972393D01*
X177475811Y-47109395D01*
X177475811Y-47109397D01*
X177469300Y-47169945D01*
X177469300Y-47826054D01*
X177475811Y-47886602D01*
X177475811Y-47886604D01*
X177526911Y-48023606D01*
X177526912Y-48023607D01*
X177553175Y-48058690D01*
X177577592Y-48124154D01*
X177562740Y-48192427D01*
X177553175Y-48207310D01*
X177526912Y-48242392D01*
X177526911Y-48242393D01*
X177475811Y-48379395D01*
X177475811Y-48379397D01*
X177469300Y-48439945D01*
X177469300Y-49096054D01*
X177475811Y-49156602D01*
X177475811Y-49156604D01*
X177526911Y-49293606D01*
X177526912Y-49293607D01*
X177553175Y-49328690D01*
X177577592Y-49394154D01*
X177562740Y-49462427D01*
X177553175Y-49477310D01*
X177526912Y-49512392D01*
X177526911Y-49512393D01*
X177475811Y-49649395D01*
X177475811Y-49649397D01*
X177469300Y-49709945D01*
X177469300Y-49884900D01*
X177449615Y-49951939D01*
X177396811Y-49997694D01*
X177345300Y-50008900D01*
X177194166Y-50008900D01*
X177127127Y-49989215D01*
X177106485Y-49972581D01*
X175564411Y-48430506D01*
X175535910Y-48386159D01*
X175533388Y-48379397D01*
X175482289Y-48242396D01*
X175481408Y-48241219D01*
X175456025Y-48207311D01*
X175431607Y-48141847D01*
X175446458Y-48073574D01*
X175456025Y-48058689D01*
X175480510Y-48025980D01*
X175482289Y-48023604D01*
X175500977Y-47973500D01*
X175533387Y-47886607D01*
X175533388Y-47886604D01*
X175533389Y-47886601D01*
X175537261Y-47850585D01*
X175539899Y-47826054D01*
X175539900Y-47826037D01*
X175539900Y-47169962D01*
X175539899Y-47169945D01*
X175535102Y-47125335D01*
X175533389Y-47109399D01*
X175533387Y-47109395D01*
X175533387Y-47109392D01*
X175482291Y-46972400D01*
X175482285Y-46972390D01*
X175456025Y-46937311D01*
X175431607Y-46871847D01*
X175446458Y-46803574D01*
X175456025Y-46788689D01*
X175479662Y-46757113D01*
X175482289Y-46753604D01*
X175482291Y-46753599D01*
X175533387Y-46616607D01*
X175533388Y-46616604D01*
X175533389Y-46616601D01*
X175538418Y-46569826D01*
X175539899Y-46556054D01*
X175539900Y-46556037D01*
X175539900Y-45899962D01*
X175539899Y-45899945D01*
X175536053Y-45864183D01*
X175533389Y-45839399D01*
X175531941Y-45835518D01*
X175498884Y-45746888D01*
X175482289Y-45702396D01*
X175394661Y-45585339D01*
X175277604Y-45497711D01*
X175264346Y-45492766D01*
X175140603Y-45446611D01*
X175080054Y-45440100D01*
X175080038Y-45440100D01*
X174652300Y-45440100D01*
X174585261Y-45420415D01*
X174539506Y-45367611D01*
X174528300Y-45316100D01*
X174528300Y-45248800D01*
X174547985Y-45181761D01*
X174600789Y-45136006D01*
X174652300Y-45124800D01*
X174814800Y-45124800D01*
X174814800Y-44757299D01*
X174834485Y-44690260D01*
X174887289Y-44644505D01*
X174938800Y-44633299D01*
X174970800Y-44633299D01*
X175037839Y-44652984D01*
X175083594Y-44705788D01*
X175094800Y-44757299D01*
X175094800Y-45124800D01*
X175727486Y-45124800D01*
X175727487Y-45124799D01*
X175788380Y-45118253D01*
X175926113Y-45066881D01*
X176043789Y-44978789D01*
X176131881Y-44861113D01*
X176183253Y-44723380D01*
X176189799Y-44662487D01*
X176189800Y-44662486D01*
X176189800Y-44624800D01*
X176188541Y-44623541D01*
X176125789Y-44605115D01*
X176080034Y-44552311D01*
X176070090Y-44483153D01*
X176094025Y-44425873D01*
X176108814Y-44406372D01*
X176118292Y-44393872D01*
X176174485Y-44352351D01*
X176183921Y-44350678D01*
X176189800Y-44344800D01*
X176189800Y-44307112D01*
X176189799Y-44307103D01*
X176186491Y-44276339D01*
X176188639Y-44245857D01*
X176187322Y-44245699D01*
X176195894Y-44174316D01*
X176198300Y-44154285D01*
X176198299Y-43815316D01*
X176188270Y-43731797D01*
X176187322Y-43723901D01*
X176188639Y-43723742D01*
X176186491Y-43693258D01*
X176189799Y-43662494D01*
X176189800Y-43662487D01*
X176189800Y-43586699D01*
X176209485Y-43519660D01*
X176262289Y-43473905D01*
X176331447Y-43463961D01*
X176395003Y-43492986D01*
G37*
%TD.AperFunction*%
%TA.AperFunction,Conductor*%
G36*
X134062433Y-31897185D02*
G01*
X134108188Y-31949989D01*
X134118132Y-32019147D01*
X134089107Y-32082703D01*
X134059544Y-32107617D01*
X133891384Y-32209273D01*
X133633445Y-32411355D01*
X133401755Y-32643045D01*
X133199673Y-32900984D01*
X133030158Y-33181395D01*
X132985059Y-33281602D01*
X132907610Y-33453689D01*
X132895678Y-33480200D01*
X132895672Y-33480215D01*
X132798199Y-33793020D01*
X132798197Y-33793026D01*
X132798197Y-33793029D01*
X132773371Y-33928500D01*
X132739132Y-34115335D01*
X132719349Y-34442400D01*
X132739132Y-34769464D01*
X132739132Y-34769469D01*
X132739133Y-34769470D01*
X132798197Y-35091771D01*
X132798198Y-35091775D01*
X132798199Y-35091779D01*
X132895672Y-35404584D01*
X132895676Y-35404596D01*
X132895679Y-35404603D01*
X133025276Y-35692557D01*
X133030158Y-35703404D01*
X133199673Y-35983815D01*
X133401755Y-36241754D01*
X133633445Y-36473444D01*
X133848868Y-36642217D01*
X133891384Y-36675526D01*
X134171796Y-36845042D01*
X134470597Y-36979521D01*
X134470610Y-36979525D01*
X134470615Y-36979527D01*
X134635973Y-37031054D01*
X134783429Y-37077003D01*
X135103630Y-37135682D01*
X135166021Y-37167127D01*
X135201508Y-37227314D01*
X135198822Y-37297132D01*
X135158817Y-37354415D01*
X135144398Y-37364381D01*
X135098864Y-37391309D01*
X135098853Y-37391318D01*
X134987918Y-37502253D01*
X134987911Y-37502262D01*
X134908043Y-37637312D01*
X134908042Y-37637315D01*
X134864270Y-37787977D01*
X134864269Y-37787983D01*
X134861500Y-37823178D01*
X134861500Y-38173622D01*
X134864269Y-38208816D01*
X134864270Y-38208822D01*
X134908042Y-38359484D01*
X134908043Y-38359487D01*
X134908044Y-38359489D01*
X134917537Y-38375540D01*
X134987911Y-38494537D01*
X134987918Y-38494546D01*
X135098853Y-38605481D01*
X135098862Y-38605488D01*
X135113495Y-38614142D01*
X135233911Y-38685356D01*
X135263041Y-38693819D01*
X135384577Y-38729129D01*
X135384580Y-38729129D01*
X135384582Y-38729130D01*
X135396314Y-38730053D01*
X135419778Y-38731900D01*
X135419780Y-38731900D01*
X135920222Y-38731900D01*
X135937819Y-38730515D01*
X135955418Y-38729130D01*
X135955420Y-38729129D01*
X135955422Y-38729129D01*
X135996664Y-38717147D01*
X136106089Y-38685356D01*
X136167279Y-38649167D01*
X136230400Y-38631900D01*
X136389500Y-38631900D01*
X136456539Y-38651585D01*
X136502294Y-38704389D01*
X136513500Y-38755900D01*
X136513500Y-39146366D01*
X136511761Y-39162113D01*
X136512032Y-39162139D01*
X136511298Y-39169905D01*
X136511298Y-39169908D01*
X136511298Y-39169909D01*
X136513258Y-39232272D01*
X136513500Y-39239957D01*
X136513500Y-39269859D01*
X136514384Y-39276856D01*
X136514842Y-39282679D01*
X136516326Y-39329889D01*
X136516327Y-39329891D01*
X136522022Y-39349495D01*
X136525967Y-39368542D01*
X136528526Y-39388797D01*
X136528527Y-39388800D01*
X136528528Y-39388803D01*
X136545914Y-39432716D01*
X136547806Y-39438244D01*
X136560981Y-39483592D01*
X136560982Y-39483593D01*
X136571013Y-39500556D01*
X136571372Y-39501162D01*
X136579932Y-39518635D01*
X136587447Y-39537617D01*
X136615209Y-39575827D01*
X136618418Y-39580712D01*
X136635330Y-39609310D01*
X136642458Y-39621362D01*
X136642462Y-39621366D01*
X136656889Y-39635793D01*
X136669527Y-39650589D01*
X136681528Y-39667107D01*
X136681530Y-39667109D01*
X136690566Y-39674584D01*
X136717931Y-39697222D01*
X136722231Y-39701135D01*
X137183236Y-40162140D01*
X137643881Y-40622785D01*
X137677366Y-40684108D01*
X137680200Y-40710466D01*
X137680200Y-40798456D01*
X137660515Y-40865495D01*
X137607711Y-40911250D01*
X137538553Y-40921194D01*
X137474997Y-40892169D01*
X137448876Y-40857563D01*
X137448094Y-40858046D01*
X137354287Y-40705963D01*
X137354284Y-40705959D01*
X137233040Y-40584715D01*
X137233036Y-40584712D01*
X137087109Y-40494702D01*
X137087103Y-40494699D01*
X137087101Y-40494698D01*
X137067409Y-40488173D01*
X136924336Y-40440764D01*
X136823879Y-40430500D01*
X136823872Y-40430500D01*
X136513767Y-40430500D01*
X136446728Y-40410815D01*
X136426086Y-40394181D01*
X136384687Y-40352782D01*
X136374780Y-40340416D01*
X136374571Y-40340590D01*
X136369603Y-40334584D01*
X136318521Y-40286616D01*
X136297368Y-40265463D01*
X136294213Y-40263016D01*
X136291783Y-40261131D01*
X136287350Y-40257344D01*
X136286865Y-40256889D01*
X136252921Y-40225014D01*
X136252919Y-40225012D01*
X136235031Y-40215178D01*
X136218770Y-40204497D01*
X136202639Y-40191984D01*
X136159293Y-40173227D01*
X136154045Y-40170656D01*
X136125531Y-40154981D01*
X136112660Y-40147905D01*
X136098791Y-40144344D01*
X136092887Y-40142828D01*
X136074481Y-40136526D01*
X136055744Y-40128418D01*
X136055746Y-40128418D01*
X136009096Y-40121030D01*
X136003381Y-40119846D01*
X135982615Y-40114515D01*
X135957632Y-40108100D01*
X135957630Y-40108100D01*
X135937216Y-40108100D01*
X135917817Y-40106573D01*
X135897658Y-40103380D01*
X135897657Y-40103380D01*
X135850634Y-40107825D01*
X135844796Y-40108100D01*
X135784509Y-40108100D01*
X135717470Y-40088415D01*
X135692360Y-40067073D01*
X135688454Y-40062735D01*
X135675251Y-40053142D01*
X135533952Y-39950482D01*
X135359488Y-39872806D01*
X135359486Y-39872805D01*
X135172687Y-39833100D01*
X134981713Y-39833100D01*
X134794914Y-39872805D01*
X134620449Y-39950480D01*
X134570443Y-39986813D01*
X134554878Y-39998122D01*
X134548552Y-40002718D01*
X134482745Y-40026198D01*
X134475666Y-40026400D01*
X132756001Y-40026400D01*
X132756001Y-40049722D01*
X132766144Y-40149007D01*
X132819452Y-40309881D01*
X132819457Y-40309892D01*
X132908424Y-40454128D01*
X132908427Y-40454132D01*
X132912004Y-40457709D01*
X132945489Y-40519032D01*
X132940505Y-40588724D01*
X132912004Y-40633071D01*
X132901715Y-40643359D01*
X132901712Y-40643363D01*
X132811702Y-40789290D01*
X132811697Y-40789301D01*
X132757764Y-40952063D01*
X132747500Y-41052520D01*
X132747500Y-41600279D01*
X132757764Y-41700736D01*
X132811697Y-41863498D01*
X132811702Y-41863509D01*
X132901712Y-42009436D01*
X132906193Y-42015103D01*
X132903942Y-42016882D01*
X132931155Y-42066718D01*
X132926171Y-42136410D01*
X132897675Y-42180752D01*
X132894189Y-42184237D01*
X132894186Y-42184241D01*
X132805173Y-42331486D01*
X132753986Y-42495754D01*
X132749627Y-42543727D01*
X132747568Y-42566393D01*
X132747500Y-42567137D01*
X132747500Y-42837107D01*
X132727815Y-42904146D01*
X132675011Y-42949901D01*
X132605853Y-42959845D01*
X132542297Y-42930820D01*
X132507319Y-42880442D01*
X132495889Y-42849796D01*
X132408261Y-42732739D01*
X132291204Y-42645111D01*
X132154203Y-42594011D01*
X132093654Y-42587500D01*
X132093638Y-42587500D01*
X130796362Y-42587500D01*
X130796345Y-42587500D01*
X130735797Y-42594011D01*
X130735795Y-42594011D01*
X130598795Y-42645111D01*
X130481739Y-42732739D01*
X130394111Y-42849795D01*
X130343011Y-42986795D01*
X130343011Y-42986797D01*
X130336500Y-43047345D01*
X130336500Y-45344654D01*
X130343011Y-45405202D01*
X130343011Y-45405204D01*
X130380603Y-45505989D01*
X130394111Y-45542204D01*
X130481739Y-45659261D01*
X130598796Y-45746889D01*
X130704366Y-45786265D01*
X130730463Y-45795999D01*
X130735799Y-45797989D01*
X130763050Y-45800918D01*
X130796345Y-45804499D01*
X130796362Y-45804500D01*
X131726664Y-45804500D01*
X131793703Y-45824185D01*
X131839458Y-45876989D01*
X131849402Y-45946147D01*
X131849137Y-45947898D01*
X131848180Y-45953939D01*
X131848180Y-45953942D01*
X131852625Y-46000966D01*
X131852900Y-46006804D01*
X131852900Y-46663500D01*
X131833215Y-46730539D01*
X131780411Y-46776294D01*
X131728900Y-46787500D01*
X126216345Y-46787500D01*
X126155797Y-46794011D01*
X126155795Y-46794011D01*
X126018795Y-46845111D01*
X125901739Y-46932739D01*
X125814111Y-47049795D01*
X125780181Y-47140763D01*
X125738309Y-47196696D01*
X125672845Y-47221112D01*
X125604572Y-47206259D01*
X125555167Y-47156854D01*
X125540000Y-47097428D01*
X125540000Y-45378380D01*
X125559685Y-45311341D01*
X125612489Y-45265586D01*
X125681647Y-45255642D01*
X125745203Y-45284667D01*
X125782977Y-45343445D01*
X125787289Y-45365124D01*
X125791401Y-45403372D01*
X125791403Y-45403379D01*
X125841645Y-45538086D01*
X125841649Y-45538093D01*
X125927809Y-45653187D01*
X125927812Y-45653190D01*
X126042906Y-45739350D01*
X126042913Y-45739354D01*
X126177620Y-45789596D01*
X126177627Y-45789598D01*
X126237155Y-45795999D01*
X126237172Y-45796000D01*
X126635000Y-45796000D01*
X126635000Y-44446000D01*
X127135000Y-44446000D01*
X127135000Y-45796000D01*
X127532828Y-45796000D01*
X127532844Y-45795999D01*
X127592372Y-45789598D01*
X127592379Y-45789596D01*
X127727086Y-45739354D01*
X127727093Y-45739350D01*
X127842187Y-45653190D01*
X127842190Y-45653187D01*
X127928350Y-45538093D01*
X127928354Y-45538086D01*
X127978596Y-45403379D01*
X127978598Y-45403372D01*
X127984999Y-45343844D01*
X127985000Y-45343827D01*
X127985000Y-44446000D01*
X127135000Y-44446000D01*
X126635000Y-44446000D01*
X126635000Y-42596000D01*
X127135000Y-42596000D01*
X127135000Y-43946000D01*
X127985000Y-43946000D01*
X127985000Y-43048172D01*
X127984999Y-43048155D01*
X127978598Y-42988627D01*
X127978596Y-42988620D01*
X127928354Y-42853913D01*
X127928350Y-42853906D01*
X127842190Y-42738812D01*
X127842187Y-42738809D01*
X127727093Y-42652649D01*
X127727086Y-42652645D01*
X127592379Y-42602403D01*
X127592372Y-42602401D01*
X127532844Y-42596000D01*
X127135000Y-42596000D01*
X126635000Y-42596000D01*
X126237155Y-42596000D01*
X126177627Y-42602401D01*
X126177620Y-42602403D01*
X126042913Y-42652645D01*
X126042906Y-42652649D01*
X125927812Y-42738809D01*
X125927809Y-42738812D01*
X125841649Y-42853906D01*
X125841645Y-42853913D01*
X125791403Y-42988620D01*
X125791401Y-42988626D01*
X125787289Y-43026876D01*
X125760551Y-43091426D01*
X125703158Y-43131274D01*
X125633333Y-43133767D01*
X125573244Y-43098114D01*
X125541970Y-43035634D01*
X125540000Y-43013619D01*
X125540000Y-39464037D01*
X127472700Y-39464037D01*
X127472701Y-39464053D01*
X127483313Y-39567927D01*
X127539084Y-39736235D01*
X127539086Y-39736240D01*
X127556959Y-39765216D01*
X127632170Y-39887152D01*
X127757548Y-40012530D01*
X127908462Y-40105615D01*
X128076774Y-40161387D01*
X128180655Y-40172000D01*
X129781744Y-40171999D01*
X129885626Y-40161387D01*
X130053938Y-40105615D01*
X130204852Y-40012530D01*
X130330230Y-39887152D01*
X130423315Y-39736238D01*
X130479087Y-39567926D01*
X130480061Y-39558394D01*
X130506459Y-39493703D01*
X130563641Y-39453553D01*
X130603419Y-39447000D01*
X132264866Y-39447000D01*
X132280613Y-39448738D01*
X132280639Y-39448468D01*
X132288405Y-39449201D01*
X132288409Y-39449202D01*
X132358458Y-39447000D01*
X132388356Y-39447000D01*
X132388357Y-39447000D01*
X132389722Y-39446827D01*
X132395362Y-39446114D01*
X132401185Y-39445656D01*
X132427208Y-39444838D01*
X132448390Y-39444173D01*
X132458181Y-39441327D01*
X132467981Y-39438480D01*
X132487038Y-39434532D01*
X132507297Y-39431974D01*
X132551221Y-39414582D01*
X132556721Y-39412699D01*
X132597408Y-39400879D01*
X132667277Y-39401080D01*
X132725946Y-39439023D01*
X132754788Y-39502662D01*
X132756000Y-39519956D01*
X132756000Y-39526400D01*
X134705999Y-39526400D01*
X134705999Y-39503092D01*
X134705998Y-39503077D01*
X134695855Y-39403792D01*
X134642547Y-39242918D01*
X134642542Y-39242907D01*
X134553575Y-39098671D01*
X134553572Y-39098667D01*
X134433732Y-38978827D01*
X134433728Y-38978824D01*
X134289492Y-38889857D01*
X134289481Y-38889852D01*
X134144922Y-38841950D01*
X134087477Y-38802177D01*
X134060654Y-38737661D01*
X134072969Y-38668886D01*
X134120512Y-38617686D01*
X134141141Y-38605486D01*
X134252086Y-38494541D01*
X134331956Y-38359489D01*
X134375730Y-38208818D01*
X134378500Y-38173620D01*
X134378500Y-37823180D01*
X134377370Y-37808827D01*
X134375730Y-37787983D01*
X134375729Y-37787977D01*
X134331957Y-37637315D01*
X134331956Y-37637312D01*
X134331956Y-37637311D01*
X134268645Y-37530259D01*
X134252088Y-37502262D01*
X134252081Y-37502253D01*
X134141146Y-37391318D01*
X134141137Y-37391311D01*
X134006087Y-37311443D01*
X134006084Y-37311442D01*
X133855422Y-37267670D01*
X133855416Y-37267669D01*
X133820222Y-37264900D01*
X133820220Y-37264900D01*
X133319780Y-37264900D01*
X133319778Y-37264900D01*
X133284583Y-37267669D01*
X133284577Y-37267670D01*
X133133915Y-37311442D01*
X133133912Y-37311443D01*
X133043515Y-37364903D01*
X133011243Y-37378272D01*
X133004803Y-37379925D01*
X132960892Y-37397310D01*
X132955368Y-37399201D01*
X132910004Y-37412382D01*
X132910003Y-37412383D01*
X132892424Y-37422778D01*
X132874964Y-37431332D01*
X132855984Y-37438847D01*
X132855981Y-37438849D01*
X132817782Y-37466601D01*
X132812900Y-37469809D01*
X132772238Y-37493856D01*
X132757796Y-37508298D01*
X132743008Y-37520927D01*
X132726497Y-37532923D01*
X132726492Y-37532928D01*
X132696390Y-37569314D01*
X132692458Y-37573635D01*
X132122414Y-38143681D01*
X132061091Y-38177166D01*
X132034733Y-38180000D01*
X130603418Y-38180000D01*
X130536379Y-38160315D01*
X130490624Y-38107511D01*
X130480060Y-38068599D01*
X130479087Y-38059073D01*
X130455637Y-37988304D01*
X130423315Y-37890762D01*
X130330230Y-37739848D01*
X130204852Y-37614470D01*
X130204848Y-37614467D01*
X130050455Y-37519236D01*
X130003730Y-37467288D01*
X129992509Y-37398326D01*
X130020352Y-37334244D01*
X130027871Y-37326017D01*
X130169305Y-37184582D01*
X130304800Y-36991078D01*
X130404629Y-36776992D01*
X130404632Y-36776986D01*
X130461836Y-36563500D01*
X129414886Y-36563500D01*
X129440693Y-36523344D01*
X129481200Y-36385389D01*
X129481200Y-36241611D01*
X129440693Y-36103656D01*
X129414886Y-36063500D01*
X130461836Y-36063500D01*
X130461835Y-36063499D01*
X130404632Y-35850013D01*
X130404629Y-35850007D01*
X130304800Y-35635922D01*
X130304799Y-35635920D01*
X130169313Y-35442426D01*
X130169308Y-35442420D01*
X130002279Y-35275391D01*
X130002273Y-35275386D01*
X129808779Y-35139900D01*
X129808777Y-35139899D01*
X129594692Y-35040070D01*
X129594683Y-35040066D01*
X129366526Y-34978932D01*
X129366516Y-34978930D01*
X129231200Y-34967090D01*
X129231200Y-35877998D01*
X129123515Y-35828820D01*
X129016963Y-35813500D01*
X128945437Y-35813500D01*
X128838885Y-35828820D01*
X128731200Y-35877998D01*
X128731200Y-34967091D01*
X128731199Y-34967090D01*
X128595883Y-34978930D01*
X128595873Y-34978932D01*
X128367716Y-35040066D01*
X128367707Y-35040070D01*
X128153622Y-35139899D01*
X128153620Y-35139900D01*
X127960126Y-35275386D01*
X127960120Y-35275391D01*
X127793094Y-35442417D01*
X127657599Y-35635921D01*
X127557770Y-35850007D01*
X127557767Y-35850013D01*
X127500564Y-36063499D01*
X127500564Y-36063500D01*
X128547514Y-36063500D01*
X128521707Y-36103656D01*
X128481200Y-36241611D01*
X128481200Y-36385389D01*
X128521707Y-36523344D01*
X128547514Y-36563500D01*
X127500564Y-36563500D01*
X127557767Y-36776986D01*
X127557770Y-36776992D01*
X127657599Y-36991077D01*
X127657600Y-36991079D01*
X127793086Y-37184573D01*
X127934529Y-37326017D01*
X127968013Y-37387340D01*
X127963029Y-37457032D01*
X127921157Y-37512965D01*
X127911944Y-37519236D01*
X127757551Y-37614467D01*
X127757547Y-37614470D01*
X127632171Y-37739846D01*
X127539086Y-37890759D01*
X127539084Y-37890764D01*
X127483313Y-38059072D01*
X127472700Y-38162947D01*
X127472700Y-39464037D01*
X125540000Y-39464037D01*
X125540000Y-32879705D01*
X125540236Y-32874299D01*
X125543976Y-32831554D01*
X125544122Y-32830068D01*
X125556418Y-32705223D01*
X125560042Y-32685309D01*
X125577902Y-32618653D01*
X125606183Y-32525424D01*
X125612453Y-32509037D01*
X125643920Y-32441558D01*
X125645372Y-32438653D01*
X125690264Y-32354666D01*
X125694157Y-32348331D01*
X125740494Y-32282155D01*
X125743327Y-32278420D01*
X125802622Y-32206168D01*
X125806662Y-32201710D01*
X125864210Y-32144162D01*
X125868668Y-32140122D01*
X125940920Y-32080827D01*
X125944655Y-32077994D01*
X126010834Y-32031654D01*
X126017166Y-32027764D01*
X126101153Y-31982872D01*
X126104058Y-31981420D01*
X126171537Y-31949953D01*
X126187924Y-31943683D01*
X126281153Y-31915402D01*
X126347809Y-31897542D01*
X126367723Y-31893918D01*
X126494042Y-31881477D01*
X126536805Y-31877735D01*
X126542206Y-31877500D01*
X133995394Y-31877500D01*
X134062433Y-31897185D01*
G37*
%TD.AperFunction*%
%TA.AperFunction,Conductor*%
G36*
X182214753Y-44405757D02*
G01*
X182242545Y-44420365D01*
X182342410Y-44490293D01*
X182342414Y-44490295D01*
X182342417Y-44490297D01*
X182414634Y-44523972D01*
X182460816Y-44545507D01*
X182513256Y-44591679D01*
X182532408Y-44658872D01*
X182512193Y-44725754D01*
X182460818Y-44770271D01*
X182346680Y-44823495D01*
X182346679Y-44823495D01*
X182204183Y-44923273D01*
X182137977Y-44945600D01*
X182119651Y-44941000D01*
X180976000Y-44941000D01*
X180908961Y-44921315D01*
X180863206Y-44868511D01*
X180852000Y-44817000D01*
X180852000Y-44565000D01*
X180871685Y-44497961D01*
X180924489Y-44452206D01*
X180976000Y-44441000D01*
X182076998Y-44441000D01*
X182083739Y-44434259D01*
X182145061Y-44400773D01*
X182214753Y-44405757D01*
G37*
%TD.AperFunction*%
%TA.AperFunction,Conductor*%
G36*
X135504582Y-41625138D02*
G01*
X135541797Y-41684272D01*
X135545852Y-41705472D01*
X135551764Y-41763337D01*
X135605697Y-41926098D01*
X135605702Y-41926109D01*
X135695712Y-42072036D01*
X135695715Y-42072040D01*
X135706004Y-42082329D01*
X135739489Y-42143652D01*
X135734505Y-42213344D01*
X135706004Y-42257691D01*
X135702427Y-42261267D01*
X135702424Y-42261271D01*
X135613457Y-42405507D01*
X135613452Y-42405518D01*
X135560144Y-42566393D01*
X135550000Y-42665677D01*
X135550000Y-42689000D01*
X136651000Y-42689000D01*
X136718039Y-42708685D01*
X136763794Y-42761489D01*
X136775000Y-42813000D01*
X136775000Y-43888999D01*
X136823308Y-43888999D01*
X136823322Y-43888998D01*
X136922607Y-43878855D01*
X137083481Y-43825547D01*
X137083492Y-43825542D01*
X137227728Y-43736575D01*
X137227732Y-43736572D01*
X137347572Y-43616732D01*
X137347575Y-43616728D01*
X137436542Y-43472492D01*
X137436546Y-43472482D01*
X137438493Y-43466609D01*
X137478264Y-43409163D01*
X137542780Y-43382338D01*
X137611556Y-43394652D01*
X137662757Y-43442194D01*
X137680200Y-43505610D01*
X137680200Y-43889054D01*
X137686711Y-43949602D01*
X137686711Y-43949604D01*
X137737585Y-44085998D01*
X137737811Y-44086604D01*
X137762681Y-44119827D01*
X137769383Y-44128779D01*
X137793800Y-44194244D01*
X137778948Y-44262517D01*
X137769385Y-44277398D01*
X137745348Y-44309508D01*
X137745345Y-44309513D01*
X137695103Y-44444220D01*
X137695101Y-44444227D01*
X137688700Y-44503755D01*
X137688700Y-44677900D01*
X137669015Y-44744939D01*
X137616211Y-44790694D01*
X137564700Y-44801900D01*
X136010319Y-44801900D01*
X135943280Y-44782215D01*
X135897525Y-44729411D01*
X135886998Y-44690862D01*
X135886411Y-44685282D01*
X135869142Y-44520972D01*
X135810127Y-44339344D01*
X135714640Y-44173956D01*
X135586853Y-44032034D01*
X135432352Y-43919782D01*
X135257888Y-43842106D01*
X135257886Y-43842105D01*
X135071087Y-43802400D01*
X134880113Y-43802400D01*
X134693313Y-43842105D01*
X134693312Y-43842106D01*
X134689763Y-43843686D01*
X134687527Y-43843985D01*
X134687129Y-43844115D01*
X134687105Y-43844042D01*
X134620512Y-43852965D01*
X134557238Y-43823331D01*
X134551655Y-43818083D01*
X134470653Y-43737081D01*
X134437168Y-43675758D01*
X134442152Y-43606066D01*
X134470653Y-43561719D01*
X134567812Y-43464559D01*
X134567813Y-43464558D01*
X134567816Y-43464555D01*
X134656827Y-43317313D01*
X134696810Y-43189000D01*
X135550001Y-43189000D01*
X135550001Y-43212322D01*
X135560144Y-43311607D01*
X135613452Y-43472481D01*
X135613457Y-43472492D01*
X135702424Y-43616728D01*
X135702427Y-43616732D01*
X135822267Y-43736572D01*
X135822271Y-43736575D01*
X135966507Y-43825542D01*
X135966518Y-43825547D01*
X136127393Y-43878855D01*
X136226683Y-43888999D01*
X136274999Y-43888998D01*
X136275000Y-43888998D01*
X136275000Y-43189000D01*
X135550001Y-43189000D01*
X134696810Y-43189000D01*
X134708013Y-43153049D01*
X134714500Y-43081665D01*
X134714499Y-42567136D01*
X134714499Y-42567135D01*
X134714499Y-42567127D01*
X134708014Y-42495754D01*
X134708011Y-42495744D01*
X134656828Y-42331490D01*
X134656827Y-42331489D01*
X134656827Y-42331487D01*
X134567816Y-42184245D01*
X134567814Y-42184243D01*
X134567813Y-42184241D01*
X134564329Y-42180757D01*
X134530844Y-42119434D01*
X134535828Y-42049742D01*
X134557327Y-42016305D01*
X134555807Y-42015103D01*
X134560279Y-42009445D01*
X134560285Y-42009440D01*
X134650302Y-41863501D01*
X134703255Y-41703697D01*
X134743027Y-41646252D01*
X134807543Y-41619429D01*
X134846742Y-41621411D01*
X134981713Y-41650100D01*
X135172687Y-41650100D01*
X135359488Y-41610394D01*
X135372057Y-41604797D01*
X135441305Y-41595511D01*
X135504582Y-41625138D01*
G37*
%TD.AperFunction*%
%TA.AperFunction,Conductor*%
G36*
X141718039Y-39019685D02*
G01*
X141763794Y-39072489D01*
X141775000Y-39124000D01*
X141775000Y-40224999D01*
X141798308Y-40224999D01*
X141798322Y-40224998D01*
X141897607Y-40214855D01*
X142058481Y-40161547D01*
X142058492Y-40161542D01*
X142202728Y-40072575D01*
X142202732Y-40072572D01*
X142322572Y-39952732D01*
X142322575Y-39952728D01*
X142415339Y-39802337D01*
X142417482Y-39803658D01*
X142455796Y-39760117D01*
X142522983Y-39740944D01*
X142589871Y-39761138D01*
X142621303Y-39790626D01*
X142642739Y-39819261D01*
X142759796Y-39906889D01*
X142830566Y-39933285D01*
X142882704Y-39952732D01*
X142896799Y-39957989D01*
X142924050Y-39960918D01*
X142957345Y-39964499D01*
X142957362Y-39964500D01*
X145254638Y-39964500D01*
X145254654Y-39964499D01*
X145281692Y-39961591D01*
X145315201Y-39957989D01*
X145452204Y-39906889D01*
X145510179Y-39863488D01*
X145575643Y-39839072D01*
X145643916Y-39853924D01*
X145672171Y-39875075D01*
X145815969Y-40018873D01*
X145849454Y-40080196D01*
X145844470Y-40149888D01*
X145802598Y-40205821D01*
X145767294Y-40224259D01*
X145753905Y-40228695D01*
X145753890Y-40228702D01*
X145607963Y-40318712D01*
X145586819Y-40339856D01*
X145525495Y-40373340D01*
X145455803Y-40368354D01*
X145424828Y-40351440D01*
X145421607Y-40349029D01*
X145343704Y-40290711D01*
X145301504Y-40274971D01*
X145206703Y-40239611D01*
X145146154Y-40233100D01*
X145146138Y-40233100D01*
X143550262Y-40233100D01*
X143550245Y-40233100D01*
X143489697Y-40239611D01*
X143489695Y-40239611D01*
X143352695Y-40290711D01*
X143235639Y-40378339D01*
X143148011Y-40495395D01*
X143096911Y-40632395D01*
X143096911Y-40632397D01*
X143090400Y-40692945D01*
X143090400Y-41349054D01*
X143096911Y-41409602D01*
X143096911Y-41409604D01*
X143148011Y-41546606D01*
X143148012Y-41546607D01*
X143174275Y-41581690D01*
X143198692Y-41647154D01*
X143183840Y-41715427D01*
X143174274Y-41730312D01*
X143172371Y-41732854D01*
X143116436Y-41774725D01*
X143047325Y-41779832D01*
X142970487Y-41763500D01*
X142779513Y-41763500D01*
X142592714Y-41803205D01*
X142418246Y-41880883D01*
X142263745Y-41993135D01*
X142135959Y-42135057D01*
X142040473Y-42300443D01*
X142040470Y-42300450D01*
X141995887Y-42437663D01*
X141981458Y-42482072D01*
X141961496Y-42672000D01*
X141981458Y-42861928D01*
X141981459Y-42861931D01*
X142040470Y-43043549D01*
X142040473Y-43043556D01*
X142135960Y-43208944D01*
X142263747Y-43350866D01*
X142418248Y-43463118D01*
X142592712Y-43540794D01*
X142592714Y-43540794D01*
X142592715Y-43540795D01*
X142653525Y-43553720D01*
X142707360Y-43565163D01*
X142768842Y-43598355D01*
X142802619Y-43659518D01*
X142797967Y-43729232D01*
X142769261Y-43774134D01*
X141777814Y-44765581D01*
X141716491Y-44799066D01*
X141690133Y-44801900D01*
X140311300Y-44801900D01*
X140244261Y-44782215D01*
X140198506Y-44729411D01*
X140187300Y-44677900D01*
X140187300Y-44557539D01*
X140206985Y-44490500D01*
X140259789Y-44444745D01*
X140328947Y-44434801D01*
X140337076Y-44436248D01*
X140493513Y-44469500D01*
X140684487Y-44469500D01*
X140871288Y-44429794D01*
X141045752Y-44352118D01*
X141200253Y-44239866D01*
X141328040Y-44097944D01*
X141423527Y-43932556D01*
X141482542Y-43750928D01*
X141502504Y-43561000D01*
X141482542Y-43371072D01*
X141423527Y-43189444D01*
X141328040Y-43024056D01*
X141200253Y-42882134D01*
X141045752Y-42769882D01*
X140871288Y-42692206D01*
X140871286Y-42692205D01*
X140684487Y-42652500D01*
X140493513Y-42652500D01*
X140493512Y-42652500D01*
X140345580Y-42683943D01*
X140275913Y-42678627D01*
X140220180Y-42636490D01*
X140196075Y-42570910D01*
X140195800Y-42562653D01*
X140195800Y-41962962D01*
X140195799Y-41962945D01*
X140189961Y-41908651D01*
X140189289Y-41902399D01*
X140189287Y-41902395D01*
X140189287Y-41902392D01*
X140138191Y-41765400D01*
X140138185Y-41765390D01*
X140111925Y-41730311D01*
X140087507Y-41664847D01*
X140102358Y-41596574D01*
X140111925Y-41581689D01*
X140138185Y-41546609D01*
X140138189Y-41546604D01*
X140139331Y-41543542D01*
X140189287Y-41409607D01*
X140189288Y-41409604D01*
X140189289Y-41409601D01*
X140195353Y-41353200D01*
X140195799Y-41349054D01*
X140195800Y-41349037D01*
X140195800Y-40710465D01*
X140215485Y-40643426D01*
X140232113Y-40622789D01*
X140363819Y-40491083D01*
X140376180Y-40481183D01*
X140376006Y-40480973D01*
X140382012Y-40476003D01*
X140382018Y-40476000D01*
X140429999Y-40424904D01*
X140451134Y-40403770D01*
X140455463Y-40398187D01*
X140459242Y-40393763D01*
X140491586Y-40359321D01*
X140501423Y-40341424D01*
X140512097Y-40325174D01*
X140524613Y-40309041D01*
X140543372Y-40265689D01*
X140545933Y-40260462D01*
X140568695Y-40219060D01*
X140573774Y-40199274D01*
X140580072Y-40180882D01*
X140588181Y-40162145D01*
X140588182Y-40162140D01*
X140588930Y-40159567D01*
X140590066Y-40157786D01*
X140591281Y-40154981D01*
X140591733Y-40155176D01*
X140626532Y-40100679D01*
X140642912Y-40088616D01*
X140645438Y-40087058D01*
X140658040Y-40079285D01*
X140668329Y-40068996D01*
X140729652Y-40035511D01*
X140799344Y-40040495D01*
X140843691Y-40068996D01*
X140847267Y-40072572D01*
X140847271Y-40072575D01*
X140991507Y-40161542D01*
X140991518Y-40161547D01*
X141152393Y-40214855D01*
X141251683Y-40224999D01*
X141275000Y-40224998D01*
X141275000Y-39124000D01*
X141294685Y-39056961D01*
X141347489Y-39011206D01*
X141399000Y-39000000D01*
X141651000Y-39000000D01*
X141718039Y-39019685D01*
G37*
%TD.AperFunction*%
%TA.AperFunction,Conductor*%
G36*
X167272918Y-41057240D02*
G01*
X167352205Y-41180613D01*
X167463038Y-41276651D01*
X167596439Y-41337573D01*
X167600233Y-41338118D01*
X167041256Y-41897094D01*
X167106683Y-41942906D01*
X167106685Y-41942907D01*
X167230875Y-42000818D01*
X167283314Y-42046990D01*
X167302466Y-42114184D01*
X167282250Y-42181065D01*
X167230875Y-42225582D01*
X167106684Y-42283493D01*
X167041257Y-42329304D01*
X167600234Y-42888281D01*
X167596439Y-42888827D01*
X167463038Y-42949749D01*
X167352205Y-43045787D01*
X167272918Y-43169160D01*
X167250466Y-43245619D01*
X166687703Y-42682856D01*
X166641893Y-42748283D01*
X166639190Y-42752966D01*
X166637973Y-42752263D01*
X166596181Y-42799716D01*
X166528985Y-42818860D01*
X166462106Y-42798636D01*
X166437834Y-42777836D01*
X166430673Y-42769883D01*
X166371653Y-42704334D01*
X166217152Y-42592082D01*
X166042688Y-42514406D01*
X166042686Y-42514405D01*
X165855887Y-42474700D01*
X165664913Y-42474700D01*
X165478114Y-42514405D01*
X165424849Y-42538120D01*
X165313940Y-42587500D01*
X165303646Y-42592083D01*
X165149145Y-42704335D01*
X165053760Y-42810272D01*
X164994273Y-42846921D01*
X164961610Y-42851300D01*
X164231900Y-42851300D01*
X164164861Y-42831615D01*
X164119106Y-42778811D01*
X164107900Y-42727300D01*
X164107900Y-42342199D01*
X164127585Y-42275160D01*
X164180389Y-42229405D01*
X164231900Y-42218199D01*
X165711937Y-42218199D01*
X165711944Y-42218199D01*
X165815826Y-42207587D01*
X165984138Y-42151815D01*
X166135052Y-42058730D01*
X166260430Y-41933352D01*
X166353515Y-41782438D01*
X166409287Y-41614126D01*
X166417172Y-41536939D01*
X166443568Y-41472249D01*
X166500748Y-41432098D01*
X166570559Y-41429234D01*
X166630836Y-41464568D01*
X166642105Y-41478420D01*
X166687703Y-41543541D01*
X166687705Y-41543542D01*
X167250466Y-40980780D01*
X167272918Y-41057240D01*
G37*
%TD.AperFunction*%
%TA.AperFunction,Conductor*%
G36*
X162033875Y-35660800D02*
G01*
X162072982Y-35717703D01*
X162119285Y-35857438D01*
X162212370Y-36008352D01*
X162337748Y-36133730D01*
X162488662Y-36226815D01*
X162656974Y-36282587D01*
X162760855Y-36293200D01*
X163478900Y-36293199D01*
X163545939Y-36312883D01*
X163591694Y-36365687D01*
X163602900Y-36417199D01*
X163602900Y-37406766D01*
X163601161Y-37422513D01*
X163601432Y-37422539D01*
X163600698Y-37430305D01*
X163600698Y-37430308D01*
X163600698Y-37430309D01*
X163601893Y-37468324D01*
X163602900Y-37500357D01*
X163602900Y-37530259D01*
X163603784Y-37537256D01*
X163604242Y-37543079D01*
X163605726Y-37590289D01*
X163605727Y-37590291D01*
X163611422Y-37609895D01*
X163615367Y-37628942D01*
X163617926Y-37649197D01*
X163617927Y-37649200D01*
X163617928Y-37649203D01*
X163635314Y-37693116D01*
X163637206Y-37698644D01*
X163650381Y-37743992D01*
X163660772Y-37761562D01*
X163669332Y-37779035D01*
X163676847Y-37798017D01*
X163704609Y-37836227D01*
X163707818Y-37841112D01*
X163724753Y-37869749D01*
X163731858Y-37881762D01*
X163731862Y-37881766D01*
X163746289Y-37896193D01*
X163758927Y-37910989D01*
X163770928Y-37927507D01*
X163770930Y-37927509D01*
X163775929Y-37931644D01*
X163807331Y-37957622D01*
X163811631Y-37961535D01*
X164202321Y-38352225D01*
X164592909Y-38742813D01*
X164602818Y-38755181D01*
X164603028Y-38755008D01*
X164607998Y-38761017D01*
X164659079Y-38808984D01*
X164680224Y-38830130D01*
X164680228Y-38830133D01*
X164680230Y-38830135D01*
X164681171Y-38830865D01*
X164685813Y-38834466D01*
X164690245Y-38838252D01*
X164708685Y-38855567D01*
X164724680Y-38870587D01*
X164742562Y-38880417D01*
X164758829Y-38891102D01*
X164774960Y-38903615D01*
X164796838Y-38913081D01*
X164818307Y-38922371D01*
X164823533Y-38924931D01*
X164864940Y-38947695D01*
X164884716Y-38952772D01*
X164903124Y-38959075D01*
X164921850Y-38967179D01*
X164921852Y-38967180D01*
X164921853Y-38967180D01*
X164921855Y-38967181D01*
X164962784Y-38973663D01*
X164968503Y-38974569D01*
X164974212Y-38975751D01*
X165019970Y-38987500D01*
X165019972Y-38987500D01*
X165027527Y-38989440D01*
X165026969Y-38991610D01*
X165080596Y-39014991D01*
X165093170Y-39027117D01*
X165098347Y-39032866D01*
X165252848Y-39145118D01*
X165427312Y-39222794D01*
X165614113Y-39262500D01*
X165805087Y-39262500D01*
X165991888Y-39222794D01*
X166166352Y-39145118D01*
X166283744Y-39059827D01*
X166349548Y-39036348D01*
X166417602Y-39052173D01*
X166466297Y-39102279D01*
X166479917Y-39146888D01*
X166483001Y-39175573D01*
X166483003Y-39175579D01*
X166533245Y-39310286D01*
X166533249Y-39310293D01*
X166619409Y-39425387D01*
X166619412Y-39425390D01*
X166734506Y-39511550D01*
X166734513Y-39511554D01*
X166869220Y-39561796D01*
X166869227Y-39561798D01*
X166928755Y-39568199D01*
X166928772Y-39568200D01*
X166963748Y-39568200D01*
X167030787Y-39587885D01*
X167076542Y-39640689D01*
X167086486Y-39709847D01*
X167057461Y-39773403D01*
X167041379Y-39787905D01*
X167041256Y-39789303D01*
X167600234Y-40348281D01*
X167596439Y-40348827D01*
X167463038Y-40409749D01*
X167352205Y-40505787D01*
X167272918Y-40629160D01*
X167250466Y-40705619D01*
X166687704Y-40142857D01*
X166641893Y-40208284D01*
X166560842Y-40382096D01*
X166514669Y-40434535D01*
X166447475Y-40453687D01*
X166380594Y-40433471D01*
X166342923Y-40394790D01*
X166260430Y-40261048D01*
X166135052Y-40135670D01*
X166032754Y-40072572D01*
X165984140Y-40042586D01*
X165984135Y-40042584D01*
X165815827Y-39986813D01*
X165711945Y-39976200D01*
X162760862Y-39976200D01*
X162760846Y-39976201D01*
X162656972Y-39986813D01*
X162488664Y-40042584D01*
X162488659Y-40042586D01*
X162337746Y-40135671D01*
X162212371Y-40261046D01*
X162119286Y-40411959D01*
X162119284Y-40411964D01*
X162063513Y-40580272D01*
X162052900Y-40684147D01*
X162052900Y-40865346D01*
X162033215Y-40932385D01*
X161980411Y-40978140D01*
X161911253Y-40988084D01*
X161847697Y-40959059D01*
X161844016Y-40955738D01*
X161798522Y-40913017D01*
X161777368Y-40891863D01*
X161775392Y-40890331D01*
X161771783Y-40887531D01*
X161767350Y-40883744D01*
X161732921Y-40851414D01*
X161732919Y-40851412D01*
X161715031Y-40841578D01*
X161698770Y-40830897D01*
X161682639Y-40818384D01*
X161639293Y-40799627D01*
X161634045Y-40797056D01*
X161606851Y-40782106D01*
X161592660Y-40774305D01*
X161575399Y-40769873D01*
X161572887Y-40769228D01*
X161554481Y-40762926D01*
X161535744Y-40754818D01*
X161535746Y-40754818D01*
X161489096Y-40747430D01*
X161483381Y-40746246D01*
X161463212Y-40741068D01*
X161437632Y-40734500D01*
X161437630Y-40734500D01*
X161417216Y-40734500D01*
X161397817Y-40732973D01*
X161377658Y-40729780D01*
X161377657Y-40729780D01*
X161330634Y-40734225D01*
X161324796Y-40734500D01*
X160997090Y-40734500D01*
X160930051Y-40714815D01*
X160909409Y-40698181D01*
X160897144Y-40685916D01*
X160897140Y-40685913D01*
X160779141Y-40616127D01*
X160754582Y-40597077D01*
X160702819Y-40545314D01*
X160669334Y-40483991D01*
X160666500Y-40457633D01*
X160666500Y-38520489D01*
X160686185Y-38453450D01*
X160713589Y-38423223D01*
X160716034Y-38421288D01*
X160716040Y-38421285D01*
X160837285Y-38300040D01*
X160927302Y-38154101D01*
X160981236Y-37991336D01*
X160991500Y-37890872D01*
X160991500Y-37293128D01*
X160981236Y-37192664D01*
X160927302Y-37029899D01*
X160927298Y-37029893D01*
X160927297Y-37029890D01*
X160837287Y-36883963D01*
X160837284Y-36883959D01*
X160793024Y-36839699D01*
X160759539Y-36778376D01*
X160764523Y-36708684D01*
X160806395Y-36652751D01*
X160820600Y-36643786D01*
X160820597Y-36643780D01*
X160820933Y-36643576D01*
X160823088Y-36642217D01*
X160823790Y-36641847D01*
X160823804Y-36641842D01*
X161104216Y-36472326D01*
X161362151Y-36270247D01*
X161593847Y-36038551D01*
X161795926Y-35780616D01*
X161849160Y-35692555D01*
X161900687Y-35645370D01*
X161969546Y-35633531D01*
X162033875Y-35660800D01*
G37*
%TD.AperFunction*%
%TA.AperFunction,Conductor*%
G36*
X157893197Y-31897185D02*
G01*
X157938952Y-31949989D01*
X157948896Y-32019147D01*
X157919871Y-32082703D01*
X157902631Y-32099111D01*
X157763445Y-32208155D01*
X157531755Y-32439845D01*
X157329673Y-32697784D01*
X157160158Y-32978195D01*
X157085986Y-33143000D01*
X157051222Y-33220244D01*
X157025678Y-33277000D01*
X157025672Y-33277015D01*
X156928199Y-33589820D01*
X156928197Y-33589826D01*
X156928197Y-33589829D01*
X156894039Y-33776223D01*
X156869132Y-33912135D01*
X156849349Y-34239200D01*
X156869132Y-34566265D01*
X156900704Y-34738552D01*
X156893426Y-34808042D01*
X156849734Y-34862565D01*
X156783500Y-34884811D01*
X156767514Y-34884394D01*
X156749983Y-34882801D01*
X156733465Y-34881300D01*
X156733463Y-34881300D01*
X156218927Y-34881300D01*
X156147554Y-34887785D01*
X156147544Y-34887788D01*
X155983290Y-34938971D01*
X155836041Y-35027986D01*
X155836040Y-35027987D01*
X155732870Y-35131158D01*
X155671547Y-35164643D01*
X155601855Y-35159659D01*
X155557508Y-35131158D01*
X155461077Y-35034727D01*
X155315595Y-34946780D01*
X155315596Y-34946780D01*
X155153305Y-34896209D01*
X155153306Y-34896209D01*
X155082772Y-34889800D01*
X155076200Y-34889800D01*
X155076200Y-36839799D01*
X155082781Y-36839799D01*
X155153302Y-36833391D01*
X155153307Y-36833390D01*
X155315596Y-36782818D01*
X155461077Y-36694872D01*
X155461078Y-36694871D01*
X155557506Y-36598442D01*
X155618829Y-36564956D01*
X155688520Y-36569940D01*
X155732869Y-36598441D01*
X155836041Y-36701613D01*
X155836043Y-36701614D01*
X155836045Y-36701616D01*
X155954435Y-36773185D01*
X156001621Y-36824712D01*
X156013460Y-36893571D01*
X155995823Y-36944397D01*
X155933456Y-37045509D01*
X155933452Y-37045518D01*
X155880144Y-37206393D01*
X155870000Y-37305677D01*
X155870000Y-37329000D01*
X156971000Y-37329000D01*
X157038039Y-37348685D01*
X157083794Y-37401489D01*
X157095000Y-37453000D01*
X157095000Y-37705000D01*
X157075315Y-37772039D01*
X157022511Y-37817794D01*
X156971000Y-37829000D01*
X155870001Y-37829000D01*
X155870001Y-37852325D01*
X155877253Y-37923311D01*
X155864483Y-37992004D01*
X155845073Y-38012630D01*
X155878059Y-38023696D01*
X155921770Y-38078204D01*
X155924802Y-38086379D01*
X155933449Y-38112475D01*
X155933457Y-38112492D01*
X156022424Y-38256728D01*
X156022427Y-38256732D01*
X156026004Y-38260309D01*
X156059489Y-38321632D01*
X156054505Y-38391324D01*
X156026004Y-38435671D01*
X156015715Y-38445959D01*
X156015712Y-38445963D01*
X155925702Y-38591890D01*
X155925697Y-38591901D01*
X155871764Y-38754663D01*
X155861500Y-38855120D01*
X155861500Y-39165233D01*
X155841815Y-39232272D01*
X155825185Y-39252909D01*
X155759167Y-39318928D01*
X155694182Y-39383913D01*
X155681821Y-39393817D01*
X155681994Y-39394026D01*
X155675985Y-39398997D01*
X155675982Y-39398999D01*
X155675982Y-39399000D01*
X155630906Y-39447000D01*
X155628015Y-39450079D01*
X155606872Y-39471222D01*
X155606857Y-39471239D01*
X155602531Y-39476814D01*
X155598747Y-39481244D01*
X155566419Y-39515671D01*
X155566412Y-39515681D01*
X155556579Y-39533567D01*
X155545903Y-39549820D01*
X155533386Y-39565957D01*
X155533385Y-39565959D01*
X155514625Y-39609310D01*
X155512055Y-39614556D01*
X155489303Y-39655941D01*
X155489303Y-39655942D01*
X155484225Y-39675720D01*
X155477925Y-39694122D01*
X155469818Y-39712857D01*
X155462431Y-39759495D01*
X155461246Y-39765216D01*
X155449500Y-39810965D01*
X155449500Y-39822885D01*
X155429815Y-39889924D01*
X155389653Y-39929000D01*
X155367843Y-39942184D01*
X155246186Y-40063841D01*
X155157171Y-40211090D01*
X155140376Y-40264989D01*
X155101639Y-40323137D01*
X155037613Y-40351111D01*
X154982988Y-40345805D01*
X154849812Y-40301675D01*
X154750212Y-40291500D01*
X154215796Y-40291500D01*
X154215780Y-40291501D01*
X154116184Y-40301676D01*
X153954810Y-40355150D01*
X153954805Y-40355152D01*
X153810111Y-40444401D01*
X153783181Y-40471332D01*
X153721858Y-40504817D01*
X153652166Y-40499833D01*
X153607819Y-40471332D01*
X153580888Y-40444401D01*
X153580887Y-40444400D01*
X153473502Y-40378164D01*
X153436194Y-40355152D01*
X153436189Y-40355150D01*
X153414687Y-40348025D01*
X153274814Y-40301676D01*
X153274811Y-40301675D01*
X153274812Y-40301675D01*
X153175212Y-40291500D01*
X152640796Y-40291500D01*
X152640780Y-40291501D01*
X152541184Y-40301676D01*
X152379810Y-40355150D01*
X152379805Y-40355152D01*
X152235111Y-40444401D01*
X152114899Y-40564613D01*
X152089525Y-40605751D01*
X152037576Y-40652475D01*
X151968613Y-40663696D01*
X151904532Y-40635852D01*
X151896306Y-40628334D01*
X151845158Y-40577186D01*
X151841601Y-40575036D01*
X151697913Y-40488173D01*
X151533649Y-40436987D01*
X151533647Y-40436986D01*
X151533645Y-40436986D01*
X151483667Y-40432444D01*
X151462265Y-40430500D01*
X151462262Y-40430500D01*
X151119623Y-40430500D01*
X151070375Y-40420300D01*
X151063355Y-40417262D01*
X151054499Y-40413430D01*
X151049253Y-40410860D01*
X151007864Y-40388107D01*
X151007862Y-40388106D01*
X151007860Y-40388105D01*
X150996172Y-40385104D01*
X150988087Y-40383028D01*
X150969681Y-40376726D01*
X150950944Y-40368618D01*
X150950946Y-40368618D01*
X150904296Y-40361230D01*
X150898581Y-40360046D01*
X150870287Y-40352782D01*
X150852832Y-40348300D01*
X150852830Y-40348300D01*
X150832416Y-40348300D01*
X150813017Y-40346773D01*
X150792858Y-40343580D01*
X150792857Y-40343580D01*
X150745834Y-40348025D01*
X150739996Y-40348300D01*
X148604556Y-40348300D01*
X148537517Y-40328615D01*
X148527643Y-40321564D01*
X148524037Y-40318713D01*
X148378109Y-40228702D01*
X148378102Y-40228699D01*
X148378101Y-40228698D01*
X148378098Y-40228697D01*
X148378096Y-40228696D01*
X148373043Y-40227022D01*
X148370579Y-40226205D01*
X148313135Y-40186434D01*
X148286311Y-40121918D01*
X148298626Y-40053142D01*
X148346168Y-40001942D01*
X148409583Y-39984500D01*
X153654638Y-39984500D01*
X153654654Y-39984499D01*
X153681692Y-39981591D01*
X153715201Y-39977989D01*
X153719998Y-39976200D01*
X153751366Y-39964500D01*
X153852204Y-39926889D01*
X153969261Y-39839261D01*
X154056889Y-39722204D01*
X154107989Y-39585201D01*
X154113105Y-39537617D01*
X154114499Y-39524654D01*
X154114500Y-39524637D01*
X154114500Y-39180495D01*
X154134185Y-39113456D01*
X154186989Y-39067701D01*
X154256147Y-39057757D01*
X154311386Y-39080178D01*
X154330848Y-39094318D01*
X154505312Y-39171994D01*
X154692113Y-39211700D01*
X154883087Y-39211700D01*
X155069888Y-39171994D01*
X155244352Y-39094318D01*
X155398853Y-38982066D01*
X155526640Y-38840144D01*
X155622127Y-38674756D01*
X155681142Y-38493128D01*
X155701104Y-38303200D01*
X155683776Y-38138341D01*
X155696345Y-38069616D01*
X155715937Y-38048672D01*
X155682636Y-38037392D01*
X155639084Y-37982756D01*
X155635964Y-37974229D01*
X155622130Y-37931652D01*
X155622128Y-37931648D01*
X155622127Y-37931644D01*
X155526640Y-37766256D01*
X155398853Y-37624334D01*
X155244352Y-37512082D01*
X155069888Y-37434406D01*
X155069886Y-37434405D01*
X154883087Y-37394700D01*
X154692113Y-37394700D01*
X154505314Y-37434405D01*
X154330843Y-37512084D01*
X154311385Y-37526222D01*
X154245579Y-37549702D01*
X154177525Y-37533876D01*
X154128830Y-37483770D01*
X154114500Y-37425904D01*
X154114500Y-36868289D01*
X154134185Y-36801250D01*
X154186989Y-36755495D01*
X154256147Y-36745551D01*
X154302651Y-36762173D01*
X154336802Y-36782818D01*
X154336803Y-36782819D01*
X154499094Y-36833390D01*
X154499093Y-36833390D01*
X154569608Y-36839798D01*
X154569626Y-36839799D01*
X154576199Y-36839798D01*
X154576200Y-36839798D01*
X154576200Y-34889800D01*
X154576199Y-34889799D01*
X154569636Y-34889800D01*
X154569617Y-34889801D01*
X154499097Y-34896208D01*
X154499092Y-34896209D01*
X154336801Y-34946781D01*
X154336799Y-34946782D01*
X154302649Y-34967427D01*
X154235094Y-34985263D01*
X154168621Y-34963745D01*
X154124333Y-34909704D01*
X154114500Y-34861310D01*
X154114500Y-33627362D01*
X154114499Y-33627345D01*
X154110464Y-33589820D01*
X154107989Y-33566799D01*
X154104313Y-33556944D01*
X154085522Y-33506564D01*
X154056889Y-33429796D01*
X153969261Y-33312739D01*
X153852204Y-33225111D01*
X153839110Y-33220227D01*
X153715203Y-33174011D01*
X153654654Y-33167500D01*
X153654638Y-33167500D01*
X147157362Y-33167500D01*
X147157345Y-33167500D01*
X147096797Y-33174011D01*
X147096795Y-33174011D01*
X146959795Y-33225111D01*
X146842739Y-33312739D01*
X146755111Y-33429795D01*
X146704011Y-33566795D01*
X146704011Y-33566797D01*
X146697500Y-33627345D01*
X146697500Y-38809233D01*
X146677815Y-38876272D01*
X146625011Y-38922027D01*
X146555853Y-38931971D01*
X146492297Y-38902946D01*
X146485819Y-38896914D01*
X146056088Y-38467183D01*
X146046187Y-38454823D01*
X146045977Y-38454998D01*
X146041002Y-38448986D01*
X146041000Y-38448982D01*
X146011508Y-38421287D01*
X145989922Y-38401016D01*
X145968768Y-38379863D01*
X145964467Y-38376527D01*
X145963183Y-38375531D01*
X145958750Y-38371744D01*
X145943257Y-38357196D01*
X145924321Y-38339414D01*
X145924319Y-38339412D01*
X145906431Y-38329578D01*
X145890170Y-38318897D01*
X145874039Y-38306384D01*
X145830693Y-38287627D01*
X145825445Y-38285056D01*
X145797331Y-38269601D01*
X145784060Y-38262305D01*
X145784058Y-38262304D01*
X145777225Y-38258548D01*
X145778296Y-38256598D01*
X145732123Y-38220566D01*
X145709571Y-38161517D01*
X145707989Y-38146799D01*
X145656889Y-38009796D01*
X145569261Y-37892739D01*
X145452204Y-37805111D01*
X145315203Y-37754011D01*
X145254654Y-37747500D01*
X145254638Y-37747500D01*
X142957362Y-37747500D01*
X142957345Y-37747500D01*
X142896797Y-37754011D01*
X142896795Y-37754011D01*
X142759793Y-37805111D01*
X142759792Y-37805112D01*
X142743558Y-37817266D01*
X142678094Y-37841684D01*
X142669247Y-37842000D01*
X141746000Y-37842000D01*
X141678961Y-37822315D01*
X141633206Y-37769511D01*
X141622000Y-37718000D01*
X141622000Y-37541309D01*
X141641685Y-37474270D01*
X141694489Y-37428515D01*
X141711397Y-37422235D01*
X141717512Y-37420458D01*
X141729483Y-37416979D01*
X141748538Y-37413032D01*
X141768797Y-37410474D01*
X141812721Y-37393082D01*
X141818221Y-37391199D01*
X141863593Y-37378018D01*
X141881170Y-37367622D01*
X141898626Y-37359070D01*
X141917617Y-37351552D01*
X141917617Y-37351551D01*
X141919756Y-37350705D01*
X141965397Y-37342000D01*
X142821999Y-37342000D01*
X142821999Y-37293692D01*
X142821998Y-37293677D01*
X142811855Y-37194392D01*
X142758547Y-37033518D01*
X142758542Y-37033507D01*
X142669575Y-36889271D01*
X142669572Y-36889267D01*
X142626785Y-36846480D01*
X142593300Y-36785157D01*
X142598284Y-36715465D01*
X142626783Y-36671119D01*
X143857086Y-35440819D01*
X143918409Y-35407334D01*
X143944767Y-35404500D01*
X145254638Y-35404500D01*
X145254654Y-35404499D01*
X145281692Y-35401591D01*
X145315201Y-35397989D01*
X145452204Y-35346889D01*
X145569261Y-35259261D01*
X145656889Y-35142204D01*
X145707989Y-35005201D01*
X145712446Y-34963745D01*
X145714499Y-34944654D01*
X145714500Y-34944637D01*
X145714500Y-33647362D01*
X145714499Y-33647345D01*
X145711157Y-33616270D01*
X145707989Y-33586799D01*
X145700529Y-33566799D01*
X145682758Y-33519154D01*
X145656889Y-33449796D01*
X145569261Y-33332739D01*
X145452204Y-33245111D01*
X145315203Y-33194011D01*
X145254654Y-33187500D01*
X145254638Y-33187500D01*
X142957362Y-33187500D01*
X142957345Y-33187500D01*
X142896797Y-33194011D01*
X142896795Y-33194011D01*
X142759795Y-33245111D01*
X142642739Y-33332739D01*
X142555111Y-33449795D01*
X142504011Y-33586795D01*
X142504011Y-33586797D01*
X142497500Y-33647345D01*
X142497500Y-34944636D01*
X142497678Y-34947961D01*
X142496533Y-34948022D01*
X142484961Y-35012160D01*
X142461758Y-35044336D01*
X141383914Y-36122181D01*
X141322591Y-36155666D01*
X141296233Y-36158500D01*
X138030631Y-36158500D01*
X138014879Y-36156760D01*
X138014854Y-36157032D01*
X138007092Y-36156298D01*
X138007091Y-36156298D01*
X137937028Y-36158500D01*
X137907144Y-36158500D01*
X137907141Y-36158500D01*
X137907129Y-36158501D01*
X137900137Y-36159384D01*
X137894320Y-36159841D01*
X137847114Y-36161325D01*
X137847107Y-36161326D01*
X137827500Y-36167022D01*
X137808460Y-36170965D01*
X137785878Y-36173819D01*
X137716899Y-36162696D01*
X137664885Y-36116046D01*
X137646348Y-36048680D01*
X137664213Y-35986648D01*
X137665921Y-35983821D01*
X137665926Y-35983816D01*
X137835442Y-35703404D01*
X137969921Y-35404603D01*
X137980683Y-35370068D01*
X138000685Y-35305878D01*
X138067403Y-35091771D01*
X138126467Y-34769470D01*
X138146251Y-34442400D01*
X138126467Y-34115330D01*
X138067403Y-33793029D01*
X138015774Y-33627345D01*
X137969927Y-33480215D01*
X137969925Y-33480210D01*
X137969921Y-33480197D01*
X137835442Y-33181396D01*
X137665926Y-32900984D01*
X137496946Y-32685297D01*
X137463844Y-32643045D01*
X137232154Y-32411355D01*
X136974215Y-32209273D01*
X136806056Y-32107617D01*
X136758868Y-32056089D01*
X136747030Y-31987229D01*
X136774299Y-31922901D01*
X136832018Y-31883527D01*
X136870206Y-31877500D01*
X157826158Y-31877500D01*
X157893197Y-31897185D01*
G37*
%TD.AperFunction*%
%TD*%
M02*
