%TF.GenerationSoftware,KiCad,Pcbnew,7.0.6*%
%TF.CreationDate,2024-02-24T16:41:01-05:00*%
%TF.ProjectId,ads1120_breakout,61647331-3132-4305-9f62-7265616b6f75,rev?*%
%TF.SameCoordinates,Original*%
%TF.FileFunction,Drillmap*%
%TF.FilePolarity,Positive*%
%FSLAX45Y45*%
G04 Gerber Fmt 4.5, Leading zero omitted, Abs format (unit mm)*
G04 Created by KiCad (PCBNEW 7.0.6) date 2024-02-24 16:41:01*
%MOMM*%
%LPD*%
G01*
G04 APERTURE LIST*
%ADD10C,0.100000*%
%ADD11C,0.200000*%
G04 APERTURE END LIST*
D10*
X15798800Y-7313600D02*
G75*
G03*
X15698800Y-7213600I-100000J0D01*
G01*
X15698800Y-9626600D02*
G75*
G03*
X15798800Y-9526600I0J100000D01*
G01*
X12928600Y-9526600D02*
G75*
G03*
X13028600Y-9626600I100000J0D01*
G01*
X13028600Y-7213600D02*
G75*
G03*
X12928600Y-7313600I0J-100000D01*
G01*
X15698800Y-7213600D02*
X13028600Y-7213600D01*
X15798800Y-9526600D02*
X15798800Y-7313600D01*
X13028600Y-9626600D02*
X15698800Y-9626600D01*
X12928600Y-7313600D02*
X12928600Y-9526600D01*
D11*
X13184377Y-9943084D02*
X13184377Y-9743084D01*
X13184377Y-9743084D02*
X13231996Y-9743084D01*
X13231996Y-9743084D02*
X13260567Y-9752608D01*
X13260567Y-9752608D02*
X13279615Y-9771655D01*
X13279615Y-9771655D02*
X13289139Y-9790703D01*
X13289139Y-9790703D02*
X13298662Y-9828798D01*
X13298662Y-9828798D02*
X13298662Y-9857370D01*
X13298662Y-9857370D02*
X13289139Y-9895465D01*
X13289139Y-9895465D02*
X13279615Y-9914512D01*
X13279615Y-9914512D02*
X13260567Y-9933560D01*
X13260567Y-9933560D02*
X13231996Y-9943084D01*
X13231996Y-9943084D02*
X13184377Y-9943084D01*
X13384377Y-9943084D02*
X13384377Y-9809750D01*
X13384377Y-9847846D02*
X13393901Y-9828798D01*
X13393901Y-9828798D02*
X13403424Y-9819274D01*
X13403424Y-9819274D02*
X13422472Y-9809750D01*
X13422472Y-9809750D02*
X13441520Y-9809750D01*
X13508186Y-9943084D02*
X13508186Y-9809750D01*
X13508186Y-9743084D02*
X13498662Y-9752608D01*
X13498662Y-9752608D02*
X13508186Y-9762131D01*
X13508186Y-9762131D02*
X13517710Y-9752608D01*
X13517710Y-9752608D02*
X13508186Y-9743084D01*
X13508186Y-9743084D02*
X13508186Y-9762131D01*
X13631996Y-9943084D02*
X13612948Y-9933560D01*
X13612948Y-9933560D02*
X13603424Y-9914512D01*
X13603424Y-9914512D02*
X13603424Y-9743084D01*
X13736758Y-9943084D02*
X13717710Y-9933560D01*
X13717710Y-9933560D02*
X13708186Y-9914512D01*
X13708186Y-9914512D02*
X13708186Y-9743084D01*
X13965329Y-9943084D02*
X13965329Y-9743084D01*
X13965329Y-9743084D02*
X14031996Y-9885941D01*
X14031996Y-9885941D02*
X14098662Y-9743084D01*
X14098662Y-9743084D02*
X14098662Y-9943084D01*
X14279615Y-9943084D02*
X14279615Y-9838322D01*
X14279615Y-9838322D02*
X14270091Y-9819274D01*
X14270091Y-9819274D02*
X14251043Y-9809750D01*
X14251043Y-9809750D02*
X14212948Y-9809750D01*
X14212948Y-9809750D02*
X14193901Y-9819274D01*
X14279615Y-9933560D02*
X14260567Y-9943084D01*
X14260567Y-9943084D02*
X14212948Y-9943084D01*
X14212948Y-9943084D02*
X14193901Y-9933560D01*
X14193901Y-9933560D02*
X14184377Y-9914512D01*
X14184377Y-9914512D02*
X14184377Y-9895465D01*
X14184377Y-9895465D02*
X14193901Y-9876417D01*
X14193901Y-9876417D02*
X14212948Y-9866893D01*
X14212948Y-9866893D02*
X14260567Y-9866893D01*
X14260567Y-9866893D02*
X14279615Y-9857370D01*
X14374853Y-9809750D02*
X14374853Y-10009750D01*
X14374853Y-9819274D02*
X14393901Y-9809750D01*
X14393901Y-9809750D02*
X14431996Y-9809750D01*
X14431996Y-9809750D02*
X14451043Y-9819274D01*
X14451043Y-9819274D02*
X14460567Y-9828798D01*
X14460567Y-9828798D02*
X14470091Y-9847846D01*
X14470091Y-9847846D02*
X14470091Y-9904989D01*
X14470091Y-9904989D02*
X14460567Y-9924036D01*
X14460567Y-9924036D02*
X14451043Y-9933560D01*
X14451043Y-9933560D02*
X14431996Y-9943084D01*
X14431996Y-9943084D02*
X14393901Y-9943084D01*
X14393901Y-9943084D02*
X14374853Y-9933560D01*
X14555805Y-9924036D02*
X14565329Y-9933560D01*
X14565329Y-9933560D02*
X14555805Y-9943084D01*
X14555805Y-9943084D02*
X14546282Y-9933560D01*
X14546282Y-9933560D02*
X14555805Y-9924036D01*
X14555805Y-9924036D02*
X14555805Y-9943084D01*
X14555805Y-9819274D02*
X14565329Y-9828798D01*
X14565329Y-9828798D02*
X14555805Y-9838322D01*
X14555805Y-9838322D02*
X14546282Y-9828798D01*
X14546282Y-9828798D02*
X14555805Y-9819274D01*
X14555805Y-9819274D02*
X14555805Y-9838322D01*
M02*
