%TF.GenerationSoftware,KiCad,Pcbnew,8.0.7*%
%TF.CreationDate,2025-03-19T13:37:51-04:00*%
%TF.ProjectId,dyno_inst_3,64796e6f-5f69-46e7-9374-5f332e6b6963,rev?*%
%TF.SameCoordinates,Original*%
%TF.FileFunction,Copper,L4,Bot*%
%TF.FilePolarity,Positive*%
%FSLAX46Y46*%
G04 Gerber Fmt 4.6, Leading zero omitted, Abs format (unit mm)*
G04 Created by KiCad (PCBNEW 8.0.7) date 2025-03-19 13:37:51*
%MOMM*%
%LPD*%
G01*
G04 APERTURE LIST*
%TA.AperFunction,ComponentPad*%
%ADD10C,5.000000*%
%TD*%
%TA.AperFunction,ComponentPad*%
%ADD11C,1.800000*%
%TD*%
%TA.AperFunction,ComponentPad*%
%ADD12R,1.700000X1.700000*%
%TD*%
%TA.AperFunction,ComponentPad*%
%ADD13O,1.700000X1.700000*%
%TD*%
%TA.AperFunction,ComponentPad*%
%ADD14R,1.320800X1.320800*%
%TD*%
%TA.AperFunction,ComponentPad*%
%ADD15C,1.320800*%
%TD*%
%TA.AperFunction,ComponentPad*%
%ADD16O,2.250000X4.500000*%
%TD*%
%TA.AperFunction,ViaPad*%
%ADD17C,0.450000*%
%TD*%
%TA.AperFunction,ViaPad*%
%ADD18C,0.750000*%
%TD*%
%TA.AperFunction,Conductor*%
%ADD19C,0.200000*%
%TD*%
%TA.AperFunction,Conductor*%
%ADD20C,0.160000*%
%TD*%
%TA.AperFunction,Conductor*%
%ADD21C,0.500000*%
%TD*%
G04 APERTURE END LIST*
D10*
%TO.P,H2,1,1*%
%TO.N,GND1*%
X123646900Y-113974000D03*
%TD*%
D11*
%TO.P,U4,3.3V_1,3.3V*%
%TO.N,3v3Teensy*%
X158890000Y-77390000D03*
%TO.P,U4,5V,5V*%
%TO.N,unconnected-(U4-Pad5V)*%
X129680000Y-74340000D03*
%TO.P,U4,8,TX2*%
%TO.N,shcalctrl*%
X146190000Y-77390000D03*
%TO.P,U4,10,CS1*%
%TO.N,Net-(U4-CS1)*%
X151270000Y-77390000D03*
%TO.P,U4,11,MOSI*%
%TO.N,Net-(U4-MOSI)*%
X153810000Y-77390000D03*
%TO.P,U4,12,MISO*%
%TO.N,Net-(U4-MISO)*%
X156350000Y-77390000D03*
%TO.P,U4,13,SCK*%
%TO.N,Net-(U4-SCK)*%
X156350000Y-62150000D03*
%TO.P,U4,14,A0*%
%TO.N,BOTINB3v3*%
X153810000Y-62150000D03*
%TO.P,U4,15,A1*%
%TO.N,TOPINB3v3*%
X151270000Y-62150000D03*
%TO.P,U4,18,A4*%
%TO.N,BOTINA3v3*%
X143650000Y-62150000D03*
%TO.P,U4,19,A5*%
%TO.N,TOPINA3v3*%
X141110000Y-62150000D03*
%TO.P,U4,30,CRX3*%
%TO.N,Benc1*%
X176670000Y-77390000D03*
%TO.P,U4,31,CTX3*%
%TO.N,Benc2*%
X179210000Y-77390000D03*
%TO.P,U4,32,OUT1B*%
%TO.N,Benc3*%
X181750000Y-77390000D03*
%TO.P,U4,34,RX8*%
%TO.N,INB*%
X179210000Y-62150000D03*
%TO.P,U4,35,TX8*%
%TO.N,ENB*%
X176670000Y-62150000D03*
%TO.P,U4,36,CS2*%
%TO.N,CURRSNS*%
X174130000Y-62150000D03*
%TO.P,U4,37,CS3*%
%TO.N,PWM*%
X171590000Y-62150000D03*
%TO.P,U4,38,A14*%
%TO.N,ENA*%
X169050000Y-62150000D03*
%TO.P,U4,39,A15*%
%TO.N,INA*%
X166510000Y-62150000D03*
%TO.P,U4,GND1,GND*%
%TO.N,GND3*%
X123330000Y-77390000D03*
%TO.P,U4,GND2,GND__1*%
X158890000Y-62150000D03*
%TO.P,U4,GND3,GND__2*%
X125870000Y-62150000D03*
%TO.P,U4,GND4,GND__3*%
X169050000Y-69770000D03*
%TO.P,U4,GND5,GND__4*%
X138300000Y-66600000D03*
%TO.P,U4,ON/OFF,ON/OFF*%
%TO.N,unconnected-(U4-PadON{slash}OFF)*%
X169050000Y-64690000D03*
%TO.P,U4,PROGRAM,PROGRAM*%
%TO.N,unconnected-(U4-PadPROGRAM)*%
X169050000Y-67230000D03*
%TO.P,U4,R+,R+*%
%TO.N,Rd+*%
X136300000Y-64600000D03*
%TO.P,U4,R-,R-*%
%TO.N,Rd-*%
X138300000Y-64600000D03*
%TO.P,U4,T+,T+*%
%TO.N,Td+*%
X138300000Y-68600000D03*
%TO.P,U4,T-,T-*%
%TO.N,Td-*%
X136300000Y-68600000D03*
%TO.P,U4,USB_GND1,USB_GND*%
%TO.N,GND3*%
X137300000Y-74340000D03*
%TO.P,U4,USB_GND2,USB_GND__1*%
X139840000Y-74340000D03*
%TO.P,U4,VIN,VIN*%
%TO.N,5vpwr*%
X123330000Y-62150000D03*
%TD*%
D12*
%TO.P,J5,1,Pin_1*%
%TO.N,TOPINA5v*%
X145620000Y-41990000D03*
D13*
%TO.P,J5,2,Pin_2*%
%TO.N,BOTINA5v*%
X148160000Y-41990000D03*
%TO.P,J5,3,Pin_3*%
%TO.N,TOPINB5v*%
X150700000Y-41990000D03*
%TO.P,J5,4,Pin_4*%
%TO.N,BOTINB5v*%
X153240000Y-41990000D03*
%TO.P,J5,5,Pin_5*%
%TO.N,5vpwr*%
X155780000Y-41990000D03*
%TO.P,J5,6,Pin_6*%
%TO.N,GND3*%
X158320000Y-41990000D03*
%TD*%
D11*
%TO.P,J3,1,Pin_1*%
%TO.N,GND1*%
X201650799Y-93499978D03*
%TO.P,J3,2,Pin_2*%
%TO.N,ACSIG*%
X199700800Y-94125072D03*
%TO.P,J3,3,Pin_3*%
%TO.N,ACSHCAL*%
X201650799Y-96900022D03*
%TO.P,J3,4*%
%TO.N,N/C*%
X199700800Y-96274999D03*
%TD*%
D12*
%TO.P,U7,1,GND*%
%TO.N,GND1*%
X201360000Y-75020000D03*
D13*
%TO.P,U7,2,Vin*%
%TO.N,+12v*%
X201360000Y-72480000D03*
%TO.P,U7,3,0V*%
%TO.N,GND2*%
X201360000Y-69940000D03*
%TO.P,U7,4,+Vo*%
%TO.N,5venc*%
X201360000Y-67400000D03*
%TD*%
D14*
%TO.P,U21,1,-VIN*%
%TO.N,GND3*%
X122572000Y-93810000D03*
D15*
%TO.P,U21,2,+VIN*%
%TO.N,3v3Teensy*%
X122572000Y-96350000D03*
%TO.P,U21,3,-VOUT*%
%TO.N,GND1*%
X122572000Y-98890000D03*
%TO.P,U21,4,+VOUT*%
%TO.N,Net-(U21-+VOUT)*%
X122572000Y-101430000D03*
%TD*%
D10*
%TO.P,H3,1,1*%
%TO.N,GND3*%
X123646900Y-20248000D03*
%TD*%
D12*
%TO.P,U6,1,GND*%
%TO.N,GND1*%
X192440000Y-75160000D03*
D13*
%TO.P,U6,2,Vin*%
%TO.N,+12v*%
X192440000Y-72620000D03*
%TO.P,U6,3,0V*%
%TO.N,GND3*%
X192440000Y-70080000D03*
%TO.P,U6,4,+Vo*%
%TO.N,5vpwr*%
X192440000Y-67540000D03*
%TD*%
D12*
%TO.P,J2,1,Pin_1*%
%TO.N,INA*%
X166605000Y-58310000D03*
D13*
%TO.P,J2,2,Pin_2*%
%TO.N,ENA*%
X169145000Y-58310000D03*
%TO.P,J2,3,Pin_3*%
%TO.N,PWM*%
X171685000Y-58310000D03*
%TO.P,J2,4,Pin_4*%
%TO.N,CURRSNS*%
X174225000Y-58310000D03*
%TO.P,J2,5,Pin_5*%
%TO.N,ENB*%
X176765000Y-58310000D03*
%TO.P,J2,6,Pin_6*%
%TO.N,INB*%
X179305000Y-58310000D03*
%TO.P,J2,7,Pin_7*%
%TO.N,5vpwr*%
X181845000Y-58310000D03*
%TO.P,J2,8,Pin_8*%
%TO.N,GND3*%
X184385000Y-58310000D03*
%TO.P,J2,9,Pin_9*%
%TO.N,unconnected-(J2-Pin_9-Pad9)*%
X186925000Y-58310000D03*
%TO.P,J2,10,Pin_10*%
%TO.N,GND3*%
X189465000Y-58310000D03*
%TD*%
D11*
%TO.P,J6,1,Pin_1*%
%TO.N,+5vexc*%
X201175000Y-103474956D03*
%TO.P,J6,2,Pin_2*%
%TO.N,+DCSIG*%
X199225001Y-104100050D03*
%TO.P,J6,3,Pin_3*%
%TO.N,-5vexc*%
X201175000Y-106875000D03*
%TO.P,J6,4,Pin_4*%
%TO.N,-DCSIG*%
X199225001Y-106249977D03*
%TD*%
%TO.P,J7,1,Pin_1*%
%TO.N,Tx+*%
X140055000Y-39650000D03*
%TO.P,J7,2,Pin_2*%
%TO.N,Tx-*%
X139429906Y-37700001D03*
%TO.P,J7,3,Pin_3*%
%TO.N,Rx-*%
X136654956Y-39650000D03*
%TO.P,J7,4,Pin_4*%
%TO.N,Rx+*%
X137279979Y-37700001D03*
%TD*%
D10*
%TO.P,H1,1,1*%
%TO.N,GND3*%
X202209100Y-20248000D03*
%TD*%
D12*
%TO.P,J1,1,Pin_1*%
%TO.N,Aenc1*%
X203676843Y-52425000D03*
D13*
%TO.P,J1,2,Pin_2*%
%TO.N,Aenc2*%
X203676843Y-54965000D03*
%TO.P,J1,3,Pin_3*%
%TO.N,Aenc3*%
X203676843Y-57505000D03*
%TO.P,J1,4,Pin_4*%
%TO.N,5venc*%
X203676843Y-60045000D03*
%TO.P,J1,5,Pin_5*%
%TO.N,GND2*%
X203676843Y-62585000D03*
%TD*%
D16*
%TO.P,J4,1*%
%TO.N,+12v*%
X191050000Y-81925000D03*
%TO.P,J4,2*%
%TO.N,GND1*%
X197350000Y-81925000D03*
%TD*%
D10*
%TO.P,H4,1,1*%
%TO.N,GND1*%
X202209100Y-113974000D03*
%TD*%
D17*
%TO.N,3v3Teensy*%
X192270000Y-61190000D03*
X138000000Y-92700000D03*
X150200000Y-58800000D03*
X130400000Y-93800000D03*
%TO.N,GND2*%
X200816347Y-59095000D03*
X201870851Y-61105000D03*
X200766347Y-51725000D03*
%TO.N,5venc*%
X201870851Y-59905000D03*
%TO.N,3v3Ext*%
X138975000Y-100975000D03*
X130750000Y-99600000D03*
D18*
%TO.N,5vpwr*%
X151000000Y-48900000D03*
X123500000Y-58400000D03*
D17*
%TO.N,+5vref*%
X161700000Y-91000000D03*
X149225000Y-92425000D03*
X173200000Y-109150000D03*
X159275000Y-108175000D03*
X150250000Y-106500000D03*
X158825000Y-92475000D03*
%TO.N,-5vref*%
X150250000Y-93600000D03*
X173350000Y-100675000D03*
X165550000Y-101750000D03*
X153050000Y-101650000D03*
X160825000Y-93550000D03*
X156450000Y-91875000D03*
D18*
%TO.N,+12v*%
X182700000Y-87800000D03*
X154200000Y-89100000D03*
X164000000Y-90400000D03*
X179500000Y-99900000D03*
X179500000Y-101500000D03*
X174500000Y-97600000D03*
%TO.N,-12v*%
X165227660Y-86755671D03*
X175300000Y-93700000D03*
X155400000Y-84300000D03*
X174100000Y-87200000D03*
X173400000Y-86600000D03*
X175010784Y-91530000D03*
X171375000Y-86200000D03*
X173900000Y-85800000D03*
D17*
%TO.N,GND1*%
X152675000Y-107550000D03*
X170540000Y-87570000D03*
X163625000Y-97950000D03*
X158050000Y-93150000D03*
X160400000Y-84900000D03*
X154800000Y-87300000D03*
X177800000Y-93900000D03*
X158700000Y-90825000D03*
X148000201Y-98427124D03*
X194350000Y-97600000D03*
X160775000Y-87450000D03*
X147000000Y-92375000D03*
X184775000Y-100650000D03*
X155700000Y-105100000D03*
X184750000Y-109525000D03*
X171125000Y-87825000D03*
X175900000Y-83100000D03*
X137300000Y-103175000D03*
X182600000Y-84500000D03*
X172500000Y-94100000D03*
X140050000Y-98175000D03*
X164550000Y-101750000D03*
X165580000Y-91860000D03*
X151925000Y-101625000D03*
X159450000Y-109050000D03*
X192000000Y-90300000D03*
X194125000Y-113175000D03*
X142825000Y-98425000D03*
X172075000Y-102000000D03*
X170925000Y-104225000D03*
X155775000Y-96050000D03*
X128975000Y-102000000D03*
X186500000Y-81170000D03*
X144800000Y-110700000D03*
X176550000Y-99850000D03*
X165830000Y-84370000D03*
X160175000Y-95900000D03*
X166600000Y-103800000D03*
X172800000Y-96100000D03*
X204460000Y-76620000D03*
X159350000Y-103350000D03*
X145925201Y-98427124D03*
X152875000Y-97950000D03*
X155050000Y-95950000D03*
X149660000Y-95850000D03*
X159575000Y-90825000D03*
X124800000Y-107950000D03*
X154725000Y-96700000D03*
X165550000Y-96600000D03*
X160450000Y-92950000D03*
X151200000Y-89300000D03*
X143600000Y-110700000D03*
X177850000Y-93200000D03*
X149025201Y-98427124D03*
X141725000Y-98400000D03*
X142600000Y-110700000D03*
X145800000Y-110700000D03*
X180900000Y-96725000D03*
X143500000Y-106300000D03*
X144850000Y-106350000D03*
X166125000Y-95875000D03*
X144900201Y-98427124D03*
X143875201Y-98427124D03*
X148325000Y-92425000D03*
X151825000Y-99000000D03*
X151000000Y-85900000D03*
X150050201Y-98427124D03*
X172200000Y-107700000D03*
X125600000Y-104400000D03*
X146925201Y-98427124D03*
X145475000Y-95700000D03*
%TO.N,shcalctrl*%
X142400000Y-89300000D03*
%TO.N,ACSHCAL*%
X179250000Y-92075000D03*
X186575000Y-93425000D03*
X143675000Y-95950000D03*
%TO.N,+5vcla*%
X190025000Y-104800000D03*
X192300001Y-111849999D03*
X172500000Y-89355000D03*
X190125000Y-102450000D03*
X190875000Y-98575000D03*
%TO.N,-5vcla*%
X191750000Y-98125000D03*
X191060000Y-104800000D03*
X190950000Y-102475000D03*
X190625000Y-110700000D03*
X168550000Y-84225000D03*
%TO.N,GND3*%
X125100000Y-58600000D03*
X140700000Y-59800000D03*
X159800000Y-58400000D03*
X152700000Y-58700000D03*
X152000000Y-49100000D03*
X191773599Y-51635000D03*
X136800000Y-92700000D03*
X159800000Y-50300000D03*
X135600000Y-59800000D03*
X134800000Y-42500000D03*
X129100000Y-93800000D03*
X141700000Y-42600000D03*
X140800000Y-90400000D03*
X191720000Y-59550000D03*
%TD*%
D19*
%TO.N,-5vcla*%
X190960000Y-104700000D02*
X191060000Y-104800000D01*
X190625000Y-104700000D02*
X190960000Y-104700000D01*
D20*
%TO.N,ACSHCAL*%
X143975000Y-96250000D02*
X143675000Y-95950000D01*
X146395834Y-96250000D02*
X143975000Y-96250000D01*
X153750000Y-96350000D02*
X146495834Y-96350000D01*
X155500000Y-94600000D02*
X153750000Y-96350000D01*
X159730000Y-92450000D02*
X157580000Y-94600000D01*
X146495834Y-96350000D02*
X146395834Y-96250000D01*
X179050000Y-92450000D02*
X159730000Y-92450000D01*
X179250000Y-92250000D02*
X179050000Y-92450000D01*
X179250000Y-92075000D02*
X179250000Y-92250000D01*
X157580000Y-94600000D02*
X155500000Y-94600000D01*
D19*
%TO.N,-5vcla*%
X191595000Y-97970000D02*
X191750000Y-98125000D01*
X188045000Y-97970000D02*
X191595000Y-97970000D01*
X182475000Y-92400000D02*
X188045000Y-97970000D01*
X173935000Y-89610000D02*
X177935000Y-89610000D01*
X168550000Y-84225000D02*
X173935000Y-89610000D01*
X177935000Y-89610000D02*
X180725000Y-92400000D01*
X180725000Y-92400000D02*
X182475000Y-92400000D01*
D20*
%TO.N,ACSHCAL*%
X195290022Y-97800022D02*
X200750799Y-97800022D01*
X200750799Y-97800022D02*
X201650799Y-96900022D01*
X190915000Y-93425000D02*
X195290022Y-97800022D01*
X186575000Y-93425000D02*
X190915000Y-93425000D01*
%TO.N,3v3Ext*%
X137875000Y-99875000D02*
X138975000Y-100975000D01*
X131025000Y-99875000D02*
X137875000Y-99875000D01*
X130750000Y-99600000D02*
X131025000Y-99875000D01*
D21*
%TO.N,+12v*%
X179500000Y-101500000D02*
X179500000Y-99900000D01*
D20*
%TO.N,shcalctrl*%
X142400000Y-89300000D02*
X142400000Y-81120000D01*
X142400000Y-81120000D02*
X146170000Y-77350000D01*
D19*
%TO.N,+5vcla*%
X192300001Y-111849999D02*
X191875000Y-112275000D01*
X172500000Y-89355000D02*
X173045000Y-89900000D01*
X191163603Y-112275000D02*
X189750000Y-110861397D01*
X190875000Y-98575000D02*
X190875000Y-101700000D01*
X189750000Y-104400000D02*
X189750000Y-102825000D01*
X173045000Y-89900000D02*
X177814878Y-89900000D01*
X189750000Y-110861397D02*
X189750000Y-104400000D01*
X191875000Y-112275000D02*
X191163603Y-112275000D01*
X180714878Y-92800000D02*
X182450000Y-92800000D01*
X188225000Y-98575000D02*
X190875000Y-98575000D01*
X189750000Y-104400000D02*
X190025000Y-104675000D01*
X177814878Y-89900000D02*
X180714878Y-92800000D01*
X190875000Y-101700000D02*
X190125000Y-102450000D01*
X182450000Y-92800000D02*
X188225000Y-98575000D01*
X189750000Y-102825000D02*
X190125000Y-102450000D01*
%TO.N,-5vcla*%
X190625000Y-102800000D02*
X190625000Y-104700000D01*
X190625000Y-110700000D02*
X190625000Y-104700000D01*
X191750000Y-101675000D02*
X191750000Y-98125000D01*
X190950000Y-102475000D02*
X190625000Y-102800000D01*
X190950000Y-102475000D02*
X191750000Y-101675000D01*
%TD*%
M02*
