%TF.GenerationSoftware,KiCad,Pcbnew,8.0.7*%
%TF.CreationDate,2025-03-19T13:37:51-04:00*%
%TF.ProjectId,dyno_inst_3,64796e6f-5f69-46e7-9374-5f332e6b6963,rev?*%
%TF.SameCoordinates,Original*%
%TF.FileFunction,Copper,L2,Inr*%
%TF.FilePolarity,Positive*%
%FSLAX46Y46*%
G04 Gerber Fmt 4.6, Leading zero omitted, Abs format (unit mm)*
G04 Created by KiCad (PCBNEW 8.0.7) date 2025-03-19 13:37:51*
%MOMM*%
%LPD*%
G01*
G04 APERTURE LIST*
%TA.AperFunction,ComponentPad*%
%ADD10C,5.000000*%
%TD*%
%TA.AperFunction,ComponentPad*%
%ADD11C,1.800000*%
%TD*%
%TA.AperFunction,ComponentPad*%
%ADD12R,1.700000X1.700000*%
%TD*%
%TA.AperFunction,ComponentPad*%
%ADD13O,1.700000X1.700000*%
%TD*%
%TA.AperFunction,ComponentPad*%
%ADD14R,1.320800X1.320800*%
%TD*%
%TA.AperFunction,ComponentPad*%
%ADD15C,1.320800*%
%TD*%
%TA.AperFunction,ComponentPad*%
%ADD16O,2.250000X4.500000*%
%TD*%
%TA.AperFunction,ViaPad*%
%ADD17C,0.450000*%
%TD*%
%TA.AperFunction,ViaPad*%
%ADD18C,0.750000*%
%TD*%
G04 APERTURE END LIST*
D10*
%TO.N,GND1*%
%TO.C,H2*%
X123646900Y-113974000D03*
%TD*%
D11*
%TO.N,3v3Teensy*%
%TO.C,U4*%
X158890000Y-77390000D03*
%TO.N,unconnected-(U4-Pad5V)*%
X129680000Y-74340000D03*
%TO.N,shcalctrl*%
X146190000Y-77390000D03*
%TO.N,Net-(U4-CS1)*%
X151270000Y-77390000D03*
%TO.N,Net-(U4-MOSI)*%
X153810000Y-77390000D03*
%TO.N,Net-(U4-MISO)*%
X156350000Y-77390000D03*
%TO.N,Net-(U4-SCK)*%
X156350000Y-62150000D03*
%TO.N,BOTINB3v3*%
X153810000Y-62150000D03*
%TO.N,TOPINB3v3*%
X151270000Y-62150000D03*
%TO.N,BOTINA3v3*%
X143650000Y-62150000D03*
%TO.N,TOPINA3v3*%
X141110000Y-62150000D03*
%TO.N,Benc1*%
X176670000Y-77390000D03*
%TO.N,Benc2*%
X179210000Y-77390000D03*
%TO.N,Benc3*%
X181750000Y-77390000D03*
%TO.N,INB*%
X179210000Y-62150000D03*
%TO.N,ENB*%
X176670000Y-62150000D03*
%TO.N,CURRSNS*%
X174130000Y-62150000D03*
%TO.N,PWM*%
X171590000Y-62150000D03*
%TO.N,ENA*%
X169050000Y-62150000D03*
%TO.N,INA*%
X166510000Y-62150000D03*
%TO.N,GND3*%
X123330000Y-77390000D03*
X158890000Y-62150000D03*
X125870000Y-62150000D03*
X169050000Y-69770000D03*
X138300000Y-66600000D03*
%TO.N,unconnected-(U4-PadON{slash}OFF)*%
X169050000Y-64690000D03*
%TO.N,unconnected-(U4-PadPROGRAM)*%
X169050000Y-67230000D03*
%TO.N,Rd+*%
X136300000Y-64600000D03*
%TO.N,Rd-*%
X138300000Y-64600000D03*
%TO.N,Td+*%
X138300000Y-68600000D03*
%TO.N,Td-*%
X136300000Y-68600000D03*
%TO.N,GND3*%
X137300000Y-74340000D03*
X139840000Y-74340000D03*
%TO.N,5vpwr*%
X123330000Y-62150000D03*
%TD*%
D12*
%TO.N,TOPINA5v*%
%TO.C,J5*%
X145620000Y-41990000D03*
D13*
%TO.N,BOTINA5v*%
X148160000Y-41990000D03*
%TO.N,TOPINB5v*%
X150700000Y-41990000D03*
%TO.N,BOTINB5v*%
X153240000Y-41990000D03*
%TO.N,5vpwr*%
X155780000Y-41990000D03*
%TO.N,GND3*%
X158320000Y-41990000D03*
%TD*%
D11*
%TO.N,GND1*%
%TO.C,J3*%
X201650799Y-93499978D03*
%TO.N,ACSIG*%
X199700800Y-94125072D03*
%TO.N,ACSHCAL*%
X201650799Y-96900022D03*
%TO.N,N/C*%
X199700800Y-96274999D03*
%TD*%
D12*
%TO.N,GND1*%
%TO.C,U7*%
X201360000Y-75020000D03*
D13*
%TO.N,+12v*%
X201360000Y-72480000D03*
%TO.N,GND2*%
X201360000Y-69940000D03*
%TO.N,5venc*%
X201360000Y-67400000D03*
%TD*%
D14*
%TO.N,GND3*%
%TO.C,U21*%
X122572000Y-93810000D03*
D15*
%TO.N,3v3Teensy*%
X122572000Y-96350000D03*
%TO.N,GND1*%
X122572000Y-98890000D03*
%TO.N,Net-(U21-+VOUT)*%
X122572000Y-101430000D03*
%TD*%
D10*
%TO.N,GND3*%
%TO.C,H3*%
X123646900Y-20248000D03*
%TD*%
D12*
%TO.N,GND1*%
%TO.C,U6*%
X192440000Y-75160000D03*
D13*
%TO.N,+12v*%
X192440000Y-72620000D03*
%TO.N,GND3*%
X192440000Y-70080000D03*
%TO.N,5vpwr*%
X192440000Y-67540000D03*
%TD*%
D12*
%TO.N,INA*%
%TO.C,J2*%
X166605000Y-58310000D03*
D13*
%TO.N,ENA*%
X169145000Y-58310000D03*
%TO.N,PWM*%
X171685000Y-58310000D03*
%TO.N,CURRSNS*%
X174225000Y-58310000D03*
%TO.N,ENB*%
X176765000Y-58310000D03*
%TO.N,INB*%
X179305000Y-58310000D03*
%TO.N,5vpwr*%
X181845000Y-58310000D03*
%TO.N,GND3*%
X184385000Y-58310000D03*
%TO.N,unconnected-(J2-Pin_9-Pad9)*%
X186925000Y-58310000D03*
%TO.N,GND3*%
X189465000Y-58310000D03*
%TD*%
D11*
%TO.N,+5vexc*%
%TO.C,J6*%
X201175000Y-103474956D03*
%TO.N,+DCSIG*%
X199225001Y-104100050D03*
%TO.N,-5vexc*%
X201175000Y-106875000D03*
%TO.N,-DCSIG*%
X199225001Y-106249977D03*
%TD*%
%TO.N,Tx+*%
%TO.C,J7*%
X140055000Y-39650000D03*
%TO.N,Tx-*%
X139429906Y-37700001D03*
%TO.N,Rx-*%
X136654956Y-39650000D03*
%TO.N,Rx+*%
X137279979Y-37700001D03*
%TD*%
D10*
%TO.N,GND3*%
%TO.C,H1*%
X202209100Y-20248000D03*
%TD*%
D12*
%TO.N,Aenc1*%
%TO.C,J1*%
X203676843Y-52425000D03*
D13*
%TO.N,Aenc2*%
X203676843Y-54965000D03*
%TO.N,Aenc3*%
X203676843Y-57505000D03*
%TO.N,5venc*%
X203676843Y-60045000D03*
%TO.N,GND2*%
X203676843Y-62585000D03*
%TD*%
D16*
%TO.N,+12v*%
%TO.C,J4*%
X191050000Y-81925000D03*
%TO.N,GND1*%
X197350000Y-81925000D03*
%TD*%
D10*
%TO.N,GND1*%
%TO.C,H4*%
X202209100Y-113974000D03*
%TD*%
D17*
%TO.N,3v3Teensy*%
X192270000Y-61190000D03*
X138000000Y-92700000D03*
X150200000Y-58800000D03*
X130400000Y-93800000D03*
%TO.N,GND2*%
X200816347Y-59095000D03*
X201870851Y-61105000D03*
X200766347Y-51725000D03*
%TO.N,5venc*%
X201870851Y-59905000D03*
%TO.N,3v3Ext*%
X138975000Y-100975000D03*
X130750000Y-99600000D03*
D18*
%TO.N,5vpwr*%
X151000000Y-48900000D03*
X123500000Y-58400000D03*
D17*
%TO.N,+5vref*%
X161700000Y-91000000D03*
X149225000Y-92425000D03*
X173200000Y-109150000D03*
X159275000Y-108175000D03*
X150250000Y-106500000D03*
X158825000Y-92475000D03*
%TO.N,-5vref*%
X150250000Y-93600000D03*
X173350000Y-100675000D03*
X165550000Y-101750000D03*
X153050000Y-101650000D03*
X160825000Y-93550000D03*
X156450000Y-91875000D03*
D18*
%TO.N,+12v*%
X182700000Y-87800000D03*
X154200000Y-89100000D03*
X164000000Y-90400000D03*
X179500000Y-99900000D03*
X179500000Y-101500000D03*
X174500000Y-97600000D03*
%TO.N,-12v*%
X165227660Y-86755671D03*
X175300000Y-93700000D03*
X155400000Y-84300000D03*
X174100000Y-87200000D03*
X173400000Y-86600000D03*
X175010784Y-91530000D03*
X171375000Y-86200000D03*
X173900000Y-85800000D03*
D17*
%TO.N,GND1*%
X152675000Y-107550000D03*
X170540000Y-87570000D03*
X163625000Y-97950000D03*
X158050000Y-93150000D03*
X160400000Y-84900000D03*
X154800000Y-87300000D03*
X177800000Y-93900000D03*
X158700000Y-90825000D03*
X148000201Y-98427124D03*
X194350000Y-97600000D03*
X160775000Y-87450000D03*
X147000000Y-92375000D03*
X184775000Y-100650000D03*
X155700000Y-105100000D03*
X184750000Y-109525000D03*
X171125000Y-87825000D03*
X175900000Y-83100000D03*
X137300000Y-103175000D03*
X182600000Y-84500000D03*
X172500000Y-94100000D03*
X140050000Y-98175000D03*
X164550000Y-101750000D03*
X165580000Y-91860000D03*
X151925000Y-101625000D03*
X159450000Y-109050000D03*
X192000000Y-90300000D03*
X194125000Y-113175000D03*
X142825000Y-98425000D03*
X172075000Y-102000000D03*
X170925000Y-104225000D03*
X155775000Y-96050000D03*
X128975000Y-102000000D03*
X186500000Y-81170000D03*
X144800000Y-110700000D03*
X176550000Y-99850000D03*
X165830000Y-84370000D03*
X160175000Y-95900000D03*
X166600000Y-103800000D03*
X172800000Y-96100000D03*
X204460000Y-76620000D03*
X159350000Y-103350000D03*
X145925201Y-98427124D03*
X152875000Y-97950000D03*
X155050000Y-95950000D03*
X149660000Y-95850000D03*
X159575000Y-90825000D03*
X124800000Y-107950000D03*
X154725000Y-96700000D03*
X165550000Y-96600000D03*
X160450000Y-92950000D03*
X151200000Y-89300000D03*
X143600000Y-110700000D03*
X177850000Y-93200000D03*
X149025201Y-98427124D03*
X141725000Y-98400000D03*
X142600000Y-110700000D03*
X145800000Y-110700000D03*
X180900000Y-96725000D03*
X143500000Y-106300000D03*
X144850000Y-106350000D03*
X166125000Y-95875000D03*
X144900201Y-98427124D03*
X143875201Y-98427124D03*
X148325000Y-92425000D03*
X151825000Y-99000000D03*
X151000000Y-85900000D03*
X150050201Y-98427124D03*
X172200000Y-107700000D03*
X125600000Y-104400000D03*
X146925201Y-98427124D03*
X145475000Y-95700000D03*
%TO.N,shcalctrl*%
X142400000Y-89300000D03*
%TO.N,ACSHCAL*%
X179250000Y-92075000D03*
X186575000Y-93425000D03*
X143675000Y-95950000D03*
%TO.N,+5vcla*%
X190025000Y-104800000D03*
X192300001Y-111849999D03*
X172500000Y-89355000D03*
X190125000Y-102450000D03*
X190875000Y-98575000D03*
%TO.N,-5vcla*%
X191750000Y-98125000D03*
X191060000Y-104800000D03*
X190950000Y-102475000D03*
X190625000Y-110700000D03*
X168550000Y-84225000D03*
%TO.N,GND3*%
X125100000Y-58600000D03*
X140700000Y-59800000D03*
X159800000Y-58400000D03*
X152700000Y-58700000D03*
X152000000Y-49100000D03*
X191773599Y-51635000D03*
X136800000Y-92700000D03*
X159800000Y-50300000D03*
X135600000Y-59800000D03*
X134800000Y-42500000D03*
X129100000Y-93800000D03*
X141700000Y-42600000D03*
X140800000Y-90400000D03*
X191720000Y-59550000D03*
%TD*%
%TA.AperFunction,Conductor*%
%TO.N,GND1*%
G36*
X182400000Y-105800000D02*
G01*
X181500000Y-105800000D01*
X181500000Y-104400000D01*
X182400000Y-104400000D01*
X182400000Y-105800000D01*
G37*
%TD.AperFunction*%
%TD*%
%TA.AperFunction,Conductor*%
%TO.N,GND1*%
G36*
X205673424Y-71345240D02*
G01*
X205719237Y-71397993D01*
X205730500Y-71449630D01*
X205730500Y-88601000D01*
X205710815Y-88668039D01*
X205658011Y-88713794D01*
X205606500Y-88725000D01*
X183297968Y-88725000D01*
X183230929Y-88705315D01*
X183185174Y-88652511D01*
X183175230Y-88583353D01*
X183204255Y-88519797D01*
X183225083Y-88500682D01*
X183252316Y-88480895D01*
X183289050Y-88454207D01*
X183412195Y-88317440D01*
X183504214Y-88158059D01*
X183561085Y-87983029D01*
X183580322Y-87800000D01*
X183561085Y-87616971D01*
X183504214Y-87441941D01*
X183412195Y-87282560D01*
X183289050Y-87145793D01*
X183289048Y-87145791D01*
X183140165Y-87037621D01*
X183140162Y-87037619D01*
X183140161Y-87037619D01*
X183079112Y-87010438D01*
X182972038Y-86962765D01*
X182972033Y-86962763D01*
X182792019Y-86924500D01*
X182607981Y-86924500D01*
X182427966Y-86962763D01*
X182427961Y-86962765D01*
X182259839Y-87037619D01*
X182259834Y-87037621D01*
X182110951Y-87145791D01*
X182110949Y-87145793D01*
X181987804Y-87282561D01*
X181895786Y-87441940D01*
X181895783Y-87441946D01*
X181838916Y-87616967D01*
X181838915Y-87616971D01*
X181819678Y-87800000D01*
X181838915Y-87983029D01*
X181838916Y-87983032D01*
X181895783Y-88158053D01*
X181895786Y-88158059D01*
X181987805Y-88317440D01*
X182097327Y-88439077D01*
X182110949Y-88454206D01*
X182110951Y-88454208D01*
X182174917Y-88500682D01*
X182217583Y-88556012D01*
X182223562Y-88625625D01*
X182190956Y-88687420D01*
X182130117Y-88721778D01*
X182102032Y-88725000D01*
X179575172Y-88725000D01*
X179600000Y-85125000D01*
X174460432Y-85125000D01*
X174340165Y-85037621D01*
X174340162Y-85037619D01*
X174340161Y-85037619D01*
X174303810Y-85021434D01*
X174223034Y-84985469D01*
X174200000Y-83350000D01*
X174200000Y-83320932D01*
X174219685Y-83253893D01*
X174255139Y-83218438D01*
X174255000Y-83218252D01*
X174256296Y-83217281D01*
X174256961Y-83216616D01*
X174258543Y-83215600D01*
X174311347Y-83169845D01*
X174405567Y-83061111D01*
X174465338Y-82930234D01*
X174485023Y-82863195D01*
X174485024Y-82863191D01*
X174505500Y-82720775D01*
X174505500Y-80672070D01*
X189424500Y-80672070D01*
X189424500Y-83177930D01*
X189430627Y-83216614D01*
X189464526Y-83430640D01*
X189543588Y-83673972D01*
X189543589Y-83673975D01*
X189659750Y-83901950D01*
X189810132Y-84108935D01*
X189810136Y-84108940D01*
X189991059Y-84289863D01*
X189991064Y-84289867D01*
X190171607Y-84421038D01*
X190198053Y-84440252D01*
X190347080Y-84516185D01*
X190426024Y-84556410D01*
X190426027Y-84556411D01*
X190547693Y-84595942D01*
X190669361Y-84635474D01*
X190922070Y-84675500D01*
X190922071Y-84675500D01*
X191177929Y-84675500D01*
X191177930Y-84675500D01*
X191430639Y-84635474D01*
X191673975Y-84556410D01*
X191901947Y-84440252D01*
X192108942Y-84289862D01*
X192289862Y-84108942D01*
X192440252Y-83901947D01*
X192556410Y-83673975D01*
X192635474Y-83430639D01*
X192675500Y-83177930D01*
X192675500Y-80672070D01*
X192635474Y-80419361D01*
X192556410Y-80176025D01*
X192556410Y-80176024D01*
X192516185Y-80097080D01*
X192440252Y-79948053D01*
X192421038Y-79921607D01*
X192289867Y-79741064D01*
X192289863Y-79741059D01*
X192108940Y-79560136D01*
X192108935Y-79560132D01*
X191901950Y-79409750D01*
X191901949Y-79409749D01*
X191901947Y-79409748D01*
X191827941Y-79372040D01*
X191673975Y-79293589D01*
X191673972Y-79293588D01*
X191430640Y-79214526D01*
X191304284Y-79194513D01*
X191177930Y-79174500D01*
X190922070Y-79174500D01*
X190837833Y-79187842D01*
X190669359Y-79214526D01*
X190426027Y-79293588D01*
X190426024Y-79293589D01*
X190198049Y-79409750D01*
X189991064Y-79560132D01*
X189991059Y-79560136D01*
X189810136Y-79741059D01*
X189810132Y-79741064D01*
X189659750Y-79948049D01*
X189543589Y-80176024D01*
X189543588Y-80176027D01*
X189464526Y-80419359D01*
X189464526Y-80419361D01*
X189424500Y-80672070D01*
X174505500Y-80672070D01*
X174505500Y-79629500D01*
X174525185Y-79562461D01*
X174577989Y-79516706D01*
X174629500Y-79505500D01*
X176312956Y-79505500D01*
X176312957Y-79505500D01*
X176343349Y-79504586D01*
X176358225Y-79503690D01*
X176388476Y-79500953D01*
X176527407Y-79463540D01*
X176591601Y-79435955D01*
X176591602Y-79435954D01*
X176591602Y-79435953D01*
X176591972Y-79435795D01*
X176594056Y-79434453D01*
X176604497Y-79428071D01*
X176671962Y-79409906D01*
X176720673Y-79421079D01*
X176817584Y-79465338D01*
X176884623Y-79485023D01*
X176884627Y-79485024D01*
X177027043Y-79505500D01*
X177027046Y-79505500D01*
X178852956Y-79505500D01*
X178852957Y-79505500D01*
X178883349Y-79504586D01*
X178898225Y-79503690D01*
X178928476Y-79500953D01*
X179067407Y-79463540D01*
X179131601Y-79435955D01*
X179131602Y-79435954D01*
X179131602Y-79435953D01*
X179131972Y-79435795D01*
X179134056Y-79434453D01*
X179144497Y-79428071D01*
X179211962Y-79409906D01*
X179260673Y-79421079D01*
X179357584Y-79465338D01*
X179424623Y-79485023D01*
X179424627Y-79485024D01*
X179567043Y-79505500D01*
X179567046Y-79505500D01*
X181392956Y-79505500D01*
X181392957Y-79505500D01*
X181423349Y-79504586D01*
X181438225Y-79503690D01*
X181468476Y-79500953D01*
X181607407Y-79463540D01*
X181671601Y-79435955D01*
X181671602Y-79435954D01*
X181671602Y-79435953D01*
X181671972Y-79435795D01*
X181674056Y-79434453D01*
X181684497Y-79428071D01*
X181751962Y-79409906D01*
X181800673Y-79421079D01*
X181897584Y-79465338D01*
X181964623Y-79485023D01*
X181964627Y-79485024D01*
X182107043Y-79505500D01*
X182107046Y-79505500D01*
X183426399Y-79505500D01*
X183443361Y-79503690D01*
X183533055Y-79494120D01*
X183584205Y-79483079D01*
X183686069Y-79449447D01*
X183807357Y-79372046D01*
X183860307Y-79326460D01*
X183954874Y-79218027D01*
X184015062Y-79087340D01*
X184034961Y-79020364D01*
X184055893Y-78878017D01*
X184061597Y-77098398D01*
X184078486Y-71829103D01*
X184098385Y-71762127D01*
X184151335Y-71716541D01*
X184202485Y-71705500D01*
X191193482Y-71705500D01*
X191260521Y-71725185D01*
X191306276Y-71777989D01*
X191316220Y-71847147D01*
X191295057Y-71900622D01*
X191280498Y-71921414D01*
X191265963Y-71942173D01*
X191166098Y-72156335D01*
X191166094Y-72156344D01*
X191104938Y-72384586D01*
X191104936Y-72384596D01*
X191084341Y-72619999D01*
X191084341Y-72620000D01*
X191104936Y-72855403D01*
X191104938Y-72855413D01*
X191166094Y-73083655D01*
X191166096Y-73083659D01*
X191166097Y-73083663D01*
X191200682Y-73157830D01*
X191265965Y-73297830D01*
X191265967Y-73297834D01*
X191369015Y-73445000D01*
X191401505Y-73491401D01*
X191568599Y-73658495D01*
X191665384Y-73726265D01*
X191762165Y-73794032D01*
X191762167Y-73794033D01*
X191762170Y-73794035D01*
X191976337Y-73893903D01*
X192204592Y-73955063D01*
X192392918Y-73971539D01*
X192439999Y-73975659D01*
X192440000Y-73975659D01*
X192440001Y-73975659D01*
X192479234Y-73972226D01*
X192675408Y-73955063D01*
X192903663Y-73893903D01*
X193117830Y-73794035D01*
X193311401Y-73658495D01*
X193478495Y-73491401D01*
X193614035Y-73297830D01*
X193713903Y-73083663D01*
X193775063Y-72855408D01*
X193795659Y-72620000D01*
X193775063Y-72384592D01*
X193713903Y-72156337D01*
X193614035Y-71942171D01*
X193584942Y-71900622D01*
X193562616Y-71834417D01*
X193579626Y-71766650D01*
X193630574Y-71718837D01*
X193686518Y-71705500D01*
X194876137Y-71705500D01*
X194876145Y-71705500D01*
X194983305Y-71694011D01*
X195034684Y-71682866D01*
X195136975Y-71648921D01*
X195258107Y-71571275D01*
X195305109Y-71530643D01*
X195305883Y-71530055D01*
X195310894Y-71525642D01*
X195310965Y-71525582D01*
X195310968Y-71525580D01*
X195405316Y-71416952D01*
X195408868Y-71409197D01*
X195454681Y-71356446D01*
X195521462Y-71336836D01*
X200299079Y-71331528D01*
X200366137Y-71351137D01*
X200411950Y-71403890D01*
X200421970Y-71473038D01*
X200393016Y-71536626D01*
X200386895Y-71543208D01*
X200321503Y-71608600D01*
X200185965Y-71802169D01*
X200185964Y-71802171D01*
X200086098Y-72016335D01*
X200086094Y-72016344D01*
X200024938Y-72244586D01*
X200024936Y-72244596D01*
X200004341Y-72479999D01*
X200004341Y-72480000D01*
X200024936Y-72715403D01*
X200024938Y-72715413D01*
X200086094Y-72943655D01*
X200086096Y-72943659D01*
X200086097Y-72943663D01*
X200151377Y-73083655D01*
X200185965Y-73157830D01*
X200185967Y-73157834D01*
X200283994Y-73297830D01*
X200321505Y-73351401D01*
X200488599Y-73518495D01*
X200585384Y-73586265D01*
X200682165Y-73654032D01*
X200682167Y-73654033D01*
X200682170Y-73654035D01*
X200896337Y-73753903D01*
X201124592Y-73815063D01*
X201312918Y-73831539D01*
X201359999Y-73835659D01*
X201360000Y-73835659D01*
X201360001Y-73835659D01*
X201399234Y-73832226D01*
X201595408Y-73815063D01*
X201823663Y-73753903D01*
X202037830Y-73654035D01*
X202231401Y-73518495D01*
X202398495Y-73351401D01*
X202534035Y-73157830D01*
X202633903Y-72943663D01*
X202695063Y-72715408D01*
X202715659Y-72480000D01*
X202695063Y-72244592D01*
X202633903Y-72016337D01*
X202534035Y-71802171D01*
X202475685Y-71718837D01*
X202398494Y-71608597D01*
X202330750Y-71540853D01*
X202297265Y-71479530D01*
X202302249Y-71409838D01*
X202344121Y-71353905D01*
X202409585Y-71329488D01*
X202418246Y-71329173D01*
X205606366Y-71325631D01*
X205673424Y-71345240D01*
G37*
%TD.AperFunction*%
%TD*%
%TA.AperFunction,Conductor*%
%TO.N,GND3*%
G36*
X205327856Y-17539642D02*
G01*
X205386629Y-17571057D01*
X205406840Y-17584561D01*
X205501535Y-17662274D01*
X205518725Y-17679464D01*
X205596438Y-17774159D01*
X205609942Y-17794369D01*
X205667690Y-17902407D01*
X205676993Y-17924865D01*
X205712554Y-18042093D01*
X205717296Y-18065935D01*
X205729903Y-18193938D01*
X205730500Y-18206092D01*
X205730500Y-49751000D01*
X205710815Y-49818039D01*
X205658011Y-49863794D01*
X205606500Y-49875000D01*
X195024999Y-49875000D01*
X195000145Y-71076145D01*
X194980382Y-71143162D01*
X194927524Y-71188855D01*
X194876145Y-71200000D01*
X183575000Y-71200000D01*
X183550396Y-78876397D01*
X183530497Y-78943373D01*
X183477547Y-78988959D01*
X183426397Y-79000000D01*
X182107043Y-79000000D01*
X182040004Y-78980315D01*
X181994249Y-78927511D01*
X181984305Y-78858353D01*
X182013330Y-78794797D01*
X182072108Y-78757023D01*
X182086634Y-78753691D01*
X182088013Y-78753460D01*
X182094981Y-78752298D01*
X182314503Y-78676936D01*
X182518626Y-78566470D01*
X182701784Y-78423913D01*
X182858979Y-78253153D01*
X182985924Y-78058849D01*
X183079157Y-77846300D01*
X183136134Y-77621305D01*
X183155300Y-77390000D01*
X183155300Y-77389993D01*
X183136135Y-77158702D01*
X183136133Y-77158691D01*
X183079157Y-76933699D01*
X182985924Y-76721151D01*
X182858983Y-76526852D01*
X182858980Y-76526849D01*
X182858979Y-76526847D01*
X182701784Y-76356087D01*
X182701779Y-76356083D01*
X182701777Y-76356081D01*
X182518634Y-76213535D01*
X182518628Y-76213531D01*
X182314504Y-76103064D01*
X182314495Y-76103061D01*
X182094984Y-76027702D01*
X181923282Y-75999050D01*
X181866049Y-75989500D01*
X181633951Y-75989500D01*
X181588164Y-75997140D01*
X181405015Y-76027702D01*
X181185504Y-76103061D01*
X181185495Y-76103064D01*
X180981371Y-76213531D01*
X180981365Y-76213535D01*
X180798222Y-76356081D01*
X180798219Y-76356084D01*
X180641016Y-76526852D01*
X180583809Y-76614416D01*
X180530662Y-76659773D01*
X180461431Y-76669197D01*
X180398095Y-76639695D01*
X180376191Y-76614416D01*
X180318983Y-76526852D01*
X180318980Y-76526849D01*
X180318979Y-76526847D01*
X180161784Y-76356087D01*
X180161779Y-76356083D01*
X180161777Y-76356081D01*
X179978634Y-76213535D01*
X179978628Y-76213531D01*
X179774504Y-76103064D01*
X179774495Y-76103061D01*
X179554984Y-76027702D01*
X179383282Y-75999050D01*
X179326049Y-75989500D01*
X179093951Y-75989500D01*
X179048164Y-75997140D01*
X178865015Y-76027702D01*
X178645504Y-76103061D01*
X178645495Y-76103064D01*
X178441371Y-76213531D01*
X178441365Y-76213535D01*
X178258222Y-76356081D01*
X178258219Y-76356084D01*
X178101016Y-76526852D01*
X178043809Y-76614416D01*
X177990662Y-76659773D01*
X177921431Y-76669197D01*
X177858095Y-76639695D01*
X177836191Y-76614416D01*
X177778983Y-76526852D01*
X177778980Y-76526849D01*
X177778979Y-76526847D01*
X177621784Y-76356087D01*
X177621779Y-76356083D01*
X177621777Y-76356081D01*
X177438634Y-76213535D01*
X177438628Y-76213531D01*
X177234504Y-76103064D01*
X177234495Y-76103061D01*
X177014984Y-76027702D01*
X176843282Y-75999050D01*
X176786049Y-75989500D01*
X176553951Y-75989500D01*
X176508164Y-75997140D01*
X176325015Y-76027702D01*
X176105504Y-76103061D01*
X176105495Y-76103064D01*
X175901371Y-76213531D01*
X175901365Y-76213535D01*
X175718222Y-76356081D01*
X175718219Y-76356084D01*
X175561016Y-76526852D01*
X175434075Y-76721151D01*
X175340842Y-76933699D01*
X175283866Y-77158691D01*
X175283864Y-77158702D01*
X175264700Y-77389993D01*
X175264700Y-77390006D01*
X175283864Y-77621297D01*
X175283866Y-77621308D01*
X175340842Y-77846300D01*
X175434075Y-78058848D01*
X175561016Y-78253147D01*
X175561019Y-78253151D01*
X175561021Y-78253153D01*
X175718216Y-78423913D01*
X175718219Y-78423915D01*
X175718222Y-78423918D01*
X175901365Y-78566464D01*
X175901371Y-78566468D01*
X175901374Y-78566470D01*
X176105497Y-78676936D01*
X176325019Y-78752298D01*
X176331622Y-78753399D01*
X176333366Y-78753691D01*
X176396251Y-78784141D01*
X176432691Y-78843756D01*
X176431116Y-78913608D01*
X176392027Y-78971519D01*
X176327833Y-78999104D01*
X176312957Y-79000000D01*
X174000000Y-79000000D01*
X174000000Y-82720775D01*
X173980315Y-82787814D01*
X173927511Y-82833569D01*
X173876106Y-82844775D01*
X168958069Y-82848972D01*
X168883815Y-82854521D01*
X168847759Y-82859909D01*
X168775114Y-82876311D01*
X168644855Y-82937412D01*
X168621618Y-82952683D01*
X168554782Y-82973049D01*
X168487546Y-82954047D01*
X168486566Y-82953425D01*
X168480149Y-82949308D01*
X168349229Y-82889654D01*
X168349222Y-82889651D01*
X168282170Y-82870025D01*
X168139729Y-82849669D01*
X155984394Y-82860041D01*
X155926995Y-82863361D01*
X155926992Y-82863361D01*
X155899035Y-82866581D01*
X155899030Y-82866582D01*
X155899021Y-82866583D01*
X155899017Y-82866584D01*
X155887605Y-82868561D01*
X155842373Y-82876398D01*
X155708301Y-82928597D01*
X155708291Y-82928602D01*
X155657508Y-82957280D01*
X155651085Y-82960158D01*
X155533515Y-83050817D01*
X155533513Y-83050819D01*
X155500090Y-83096823D01*
X155444759Y-83139488D01*
X155375146Y-83145467D01*
X155313351Y-83112861D01*
X155306128Y-83105219D01*
X155262375Y-83054811D01*
X155203709Y-83004065D01*
X155153555Y-82960681D01*
X155128600Y-82949310D01*
X155022632Y-82901025D01*
X155022625Y-82901022D01*
X154955573Y-82881396D01*
X154813132Y-82861040D01*
X145040055Y-82869379D01*
X145023461Y-82869394D01*
X144916220Y-82880994D01*
X144916216Y-82880994D01*
X144916215Y-82880995D01*
X144864823Y-82892198D01*
X144864819Y-82892199D01*
X144762496Y-82926280D01*
X144641462Y-83004065D01*
X144641451Y-83004073D01*
X144588659Y-83049817D01*
X144494433Y-83158558D01*
X144494430Y-83158562D01*
X144434664Y-83289428D01*
X144414976Y-83356476D01*
X144394500Y-83498895D01*
X144394500Y-93346129D01*
X144374815Y-93413168D01*
X144322011Y-93458923D01*
X144271111Y-93470127D01*
X139445041Y-93493901D01*
X139445038Y-93493901D01*
X139340591Y-93505336D01*
X139290489Y-93516180D01*
X139290457Y-93516189D01*
X139190645Y-93548966D01*
X139069057Y-93625911D01*
X139015949Y-93671284D01*
X139015946Y-93671286D01*
X138920968Y-93779359D01*
X138920966Y-93779363D01*
X138860281Y-93909819D01*
X138840644Y-93975003D01*
X138840215Y-93976354D01*
X138840126Y-93976723D01*
X138818655Y-94118984D01*
X138818654Y-94118996D01*
X138798883Y-96946367D01*
X138778730Y-97013267D01*
X138725607Y-97058652D01*
X138674886Y-97069500D01*
X123710856Y-97069500D01*
X123643817Y-97049815D01*
X123598062Y-96997011D01*
X123588118Y-96927853D01*
X123599856Y-96890228D01*
X123659139Y-96771172D01*
X123659138Y-96771172D01*
X123659144Y-96771162D01*
X123718022Y-96564229D01*
X123737873Y-96350000D01*
X123718022Y-96135771D01*
X123659144Y-95928838D01*
X123563245Y-95736247D01*
X123433591Y-95564556D01*
X123433587Y-95564552D01*
X123433585Y-95564550D01*
X123274597Y-95419614D01*
X123199787Y-95373294D01*
X123091674Y-95306353D01*
X122891056Y-95228633D01*
X122679573Y-95189100D01*
X122464427Y-95189100D01*
X122252944Y-95228633D01*
X122126075Y-95277782D01*
X122052328Y-95306352D01*
X122052327Y-95306352D01*
X121869402Y-95419614D01*
X121710414Y-95564550D01*
X121710407Y-95564558D01*
X121580760Y-95736239D01*
X121580751Y-95736253D01*
X121484860Y-95928827D01*
X121484855Y-95928840D01*
X121425977Y-96135771D01*
X121406127Y-96349999D01*
X121406127Y-96350000D01*
X121425977Y-96564228D01*
X121484855Y-96771159D01*
X121484860Y-96771172D01*
X121544144Y-96890228D01*
X121556405Y-96959013D01*
X121529532Y-97023508D01*
X121472057Y-97063236D01*
X121433144Y-97069500D01*
X120249500Y-97069500D01*
X120182461Y-97049815D01*
X120136706Y-96997011D01*
X120125500Y-96945500D01*
X120125500Y-93799996D01*
X129669909Y-93799996D01*
X129669909Y-93800003D01*
X129688212Y-93962455D01*
X129742210Y-94116774D01*
X129829192Y-94255204D01*
X129944796Y-94370808D01*
X130083225Y-94457789D01*
X130237539Y-94511786D01*
X130237542Y-94511786D01*
X130237544Y-94511787D01*
X130399996Y-94530091D01*
X130400000Y-94530091D01*
X130400004Y-94530091D01*
X130562455Y-94511787D01*
X130562456Y-94511786D01*
X130562461Y-94511786D01*
X130716775Y-94457789D01*
X130855204Y-94370808D01*
X130970808Y-94255204D01*
X131057789Y-94116775D01*
X131111786Y-93962461D01*
X131112483Y-93956278D01*
X131130091Y-93800003D01*
X131130091Y-93799996D01*
X131111787Y-93637544D01*
X131111786Y-93637542D01*
X131111786Y-93637539D01*
X131057789Y-93483225D01*
X130970808Y-93344796D01*
X130855204Y-93229192D01*
X130716774Y-93142210D01*
X130562455Y-93088212D01*
X130400004Y-93069909D01*
X130399996Y-93069909D01*
X130237544Y-93088212D01*
X130083225Y-93142210D01*
X129944795Y-93229192D01*
X129829192Y-93344795D01*
X129742210Y-93483225D01*
X129688212Y-93637544D01*
X129669909Y-93799996D01*
X120125500Y-93799996D01*
X120125500Y-92699996D01*
X137269909Y-92699996D01*
X137269909Y-92700003D01*
X137288212Y-92862455D01*
X137342210Y-93016774D01*
X137342211Y-93016775D01*
X137429192Y-93155204D01*
X137544796Y-93270808D01*
X137683225Y-93357789D01*
X137837539Y-93411786D01*
X137837542Y-93411786D01*
X137837544Y-93411787D01*
X137999996Y-93430091D01*
X138000000Y-93430091D01*
X138000004Y-93430091D01*
X138162455Y-93411787D01*
X138162456Y-93411786D01*
X138162461Y-93411786D01*
X138316775Y-93357789D01*
X138455204Y-93270808D01*
X138570808Y-93155204D01*
X138657789Y-93016775D01*
X138711786Y-92862461D01*
X138714527Y-92838136D01*
X138730091Y-92700003D01*
X138730091Y-92699996D01*
X138711787Y-92537544D01*
X138711786Y-92537542D01*
X138711786Y-92537539D01*
X138657789Y-92383225D01*
X138570808Y-92244796D01*
X138455204Y-92129192D01*
X138407915Y-92099478D01*
X138316774Y-92042210D01*
X138162455Y-91988212D01*
X138000004Y-91969909D01*
X137999996Y-91969909D01*
X137837544Y-91988212D01*
X137683225Y-92042210D01*
X137544795Y-92129192D01*
X137429192Y-92244795D01*
X137342210Y-92383225D01*
X137288212Y-92537544D01*
X137269909Y-92699996D01*
X120125500Y-92699996D01*
X120125500Y-89299996D01*
X141669909Y-89299996D01*
X141669909Y-89300003D01*
X141688212Y-89462455D01*
X141742210Y-89616774D01*
X141829192Y-89755204D01*
X141944796Y-89870808D01*
X142083225Y-89957789D01*
X142237539Y-90011786D01*
X142237542Y-90011786D01*
X142237544Y-90011787D01*
X142399996Y-90030091D01*
X142400000Y-90030091D01*
X142400004Y-90030091D01*
X142562455Y-90011787D01*
X142562456Y-90011786D01*
X142562461Y-90011786D01*
X142716775Y-89957789D01*
X142855204Y-89870808D01*
X142970808Y-89755204D01*
X143057789Y-89616775D01*
X143111786Y-89462461D01*
X143130091Y-89300000D01*
X143111786Y-89137539D01*
X143057789Y-88983225D01*
X142970808Y-88844796D01*
X142855204Y-88729192D01*
X142716774Y-88642210D01*
X142562455Y-88588212D01*
X142400004Y-88569909D01*
X142399996Y-88569909D01*
X142237544Y-88588212D01*
X142083225Y-88642210D01*
X141944795Y-88729192D01*
X141829192Y-88844795D01*
X141742210Y-88983225D01*
X141688212Y-89137544D01*
X141669909Y-89299996D01*
X120125500Y-89299996D01*
X120125500Y-77389993D01*
X144784700Y-77389993D01*
X144784700Y-77390006D01*
X144803864Y-77621297D01*
X144803866Y-77621308D01*
X144860842Y-77846300D01*
X144954075Y-78058848D01*
X145081016Y-78253147D01*
X145081019Y-78253151D01*
X145081021Y-78253153D01*
X145238216Y-78423913D01*
X145238219Y-78423915D01*
X145238222Y-78423918D01*
X145421365Y-78566464D01*
X145421371Y-78566468D01*
X145421374Y-78566470D01*
X145625497Y-78676936D01*
X145739487Y-78716068D01*
X145845015Y-78752297D01*
X145845017Y-78752297D01*
X145845019Y-78752298D01*
X146073951Y-78790500D01*
X146073952Y-78790500D01*
X146306048Y-78790500D01*
X146306049Y-78790500D01*
X146534981Y-78752298D01*
X146754503Y-78676936D01*
X146958626Y-78566470D01*
X147141784Y-78423913D01*
X147298979Y-78253153D01*
X147425924Y-78058849D01*
X147519157Y-77846300D01*
X147576134Y-77621305D01*
X147595300Y-77390000D01*
X147595300Y-77389993D01*
X149864700Y-77389993D01*
X149864700Y-77390006D01*
X149883864Y-77621297D01*
X149883866Y-77621308D01*
X149940842Y-77846300D01*
X150034075Y-78058848D01*
X150161016Y-78253147D01*
X150161019Y-78253151D01*
X150161021Y-78253153D01*
X150318216Y-78423913D01*
X150318219Y-78423915D01*
X150318222Y-78423918D01*
X150501365Y-78566464D01*
X150501371Y-78566468D01*
X150501374Y-78566470D01*
X150705497Y-78676936D01*
X150819487Y-78716068D01*
X150925015Y-78752297D01*
X150925017Y-78752297D01*
X150925019Y-78752298D01*
X151153951Y-78790500D01*
X151153952Y-78790500D01*
X151386048Y-78790500D01*
X151386049Y-78790500D01*
X151614981Y-78752298D01*
X151834503Y-78676936D01*
X152038626Y-78566470D01*
X152221784Y-78423913D01*
X152378979Y-78253153D01*
X152436191Y-78165582D01*
X152489337Y-78120226D01*
X152558568Y-78110802D01*
X152621904Y-78140304D01*
X152643809Y-78165583D01*
X152701016Y-78253147D01*
X152701019Y-78253151D01*
X152701021Y-78253153D01*
X152858216Y-78423913D01*
X152858219Y-78423915D01*
X152858222Y-78423918D01*
X153041365Y-78566464D01*
X153041371Y-78566468D01*
X153041374Y-78566470D01*
X153245497Y-78676936D01*
X153359487Y-78716068D01*
X153465015Y-78752297D01*
X153465017Y-78752297D01*
X153465019Y-78752298D01*
X153693951Y-78790500D01*
X153693952Y-78790500D01*
X153926048Y-78790500D01*
X153926049Y-78790500D01*
X154154981Y-78752298D01*
X154374503Y-78676936D01*
X154578626Y-78566470D01*
X154761784Y-78423913D01*
X154918979Y-78253153D01*
X154976191Y-78165582D01*
X155029337Y-78120226D01*
X155098568Y-78110802D01*
X155161904Y-78140304D01*
X155183809Y-78165583D01*
X155241016Y-78253147D01*
X155241019Y-78253151D01*
X155241021Y-78253153D01*
X155398216Y-78423913D01*
X155398219Y-78423915D01*
X155398222Y-78423918D01*
X155581365Y-78566464D01*
X155581371Y-78566468D01*
X155581374Y-78566470D01*
X155785497Y-78676936D01*
X155899487Y-78716068D01*
X156005015Y-78752297D01*
X156005017Y-78752297D01*
X156005019Y-78752298D01*
X156233951Y-78790500D01*
X156233952Y-78790500D01*
X156466048Y-78790500D01*
X156466049Y-78790500D01*
X156694981Y-78752298D01*
X156914503Y-78676936D01*
X157118626Y-78566470D01*
X157301784Y-78423913D01*
X157458979Y-78253153D01*
X157516191Y-78165582D01*
X157569337Y-78120226D01*
X157638568Y-78110802D01*
X157701904Y-78140304D01*
X157723809Y-78165583D01*
X157781016Y-78253147D01*
X157781019Y-78253151D01*
X157781021Y-78253153D01*
X157938216Y-78423913D01*
X157938219Y-78423915D01*
X157938222Y-78423918D01*
X158121365Y-78566464D01*
X158121371Y-78566468D01*
X158121374Y-78566470D01*
X158325497Y-78676936D01*
X158439487Y-78716068D01*
X158545015Y-78752297D01*
X158545017Y-78752297D01*
X158545019Y-78752298D01*
X158773951Y-78790500D01*
X158773952Y-78790500D01*
X159006048Y-78790500D01*
X159006049Y-78790500D01*
X159234981Y-78752298D01*
X159454503Y-78676936D01*
X159658626Y-78566470D01*
X159841784Y-78423913D01*
X159998979Y-78253153D01*
X160125924Y-78058849D01*
X160219157Y-77846300D01*
X160276134Y-77621305D01*
X160295300Y-77390000D01*
X160295300Y-77389993D01*
X160276135Y-77158702D01*
X160276133Y-77158691D01*
X160219157Y-76933699D01*
X160125924Y-76721151D01*
X159998983Y-76526852D01*
X159998980Y-76526849D01*
X159998979Y-76526847D01*
X159841784Y-76356087D01*
X159841779Y-76356083D01*
X159841777Y-76356081D01*
X159658634Y-76213535D01*
X159658628Y-76213531D01*
X159454504Y-76103064D01*
X159454495Y-76103061D01*
X159234984Y-76027702D01*
X159063282Y-75999050D01*
X159006049Y-75989500D01*
X158773951Y-75989500D01*
X158728164Y-75997140D01*
X158545015Y-76027702D01*
X158325504Y-76103061D01*
X158325495Y-76103064D01*
X158121371Y-76213531D01*
X158121365Y-76213535D01*
X157938222Y-76356081D01*
X157938219Y-76356084D01*
X157781016Y-76526852D01*
X157723809Y-76614416D01*
X157670662Y-76659773D01*
X157601431Y-76669197D01*
X157538095Y-76639695D01*
X157516191Y-76614416D01*
X157458983Y-76526852D01*
X157458980Y-76526849D01*
X157458979Y-76526847D01*
X157301784Y-76356087D01*
X157301779Y-76356083D01*
X157301777Y-76356081D01*
X157118634Y-76213535D01*
X157118628Y-76213531D01*
X156914504Y-76103064D01*
X156914495Y-76103061D01*
X156694984Y-76027702D01*
X156523282Y-75999050D01*
X156466049Y-75989500D01*
X156233951Y-75989500D01*
X156188164Y-75997140D01*
X156005015Y-76027702D01*
X155785504Y-76103061D01*
X155785495Y-76103064D01*
X155581371Y-76213531D01*
X155581365Y-76213535D01*
X155398222Y-76356081D01*
X155398219Y-76356084D01*
X155241016Y-76526852D01*
X155183809Y-76614416D01*
X155130662Y-76659773D01*
X155061431Y-76669197D01*
X154998095Y-76639695D01*
X154976191Y-76614416D01*
X154918983Y-76526852D01*
X154918980Y-76526849D01*
X154918979Y-76526847D01*
X154761784Y-76356087D01*
X154761779Y-76356083D01*
X154761777Y-76356081D01*
X154578634Y-76213535D01*
X154578628Y-76213531D01*
X154374504Y-76103064D01*
X154374495Y-76103061D01*
X154154984Y-76027702D01*
X153983282Y-75999050D01*
X153926049Y-75989500D01*
X153693951Y-75989500D01*
X153648164Y-75997140D01*
X153465015Y-76027702D01*
X153245504Y-76103061D01*
X153245495Y-76103064D01*
X153041371Y-76213531D01*
X153041365Y-76213535D01*
X152858222Y-76356081D01*
X152858219Y-76356084D01*
X152701016Y-76526852D01*
X152643809Y-76614416D01*
X152590662Y-76659773D01*
X152521431Y-76669197D01*
X152458095Y-76639695D01*
X152436191Y-76614416D01*
X152378983Y-76526852D01*
X152378980Y-76526849D01*
X152378979Y-76526847D01*
X152221784Y-76356087D01*
X152221779Y-76356083D01*
X152221777Y-76356081D01*
X152038634Y-76213535D01*
X152038628Y-76213531D01*
X151834504Y-76103064D01*
X151834495Y-76103061D01*
X151614984Y-76027702D01*
X151443282Y-75999050D01*
X151386049Y-75989500D01*
X151153951Y-75989500D01*
X151108164Y-75997140D01*
X150925015Y-76027702D01*
X150705504Y-76103061D01*
X150705495Y-76103064D01*
X150501371Y-76213531D01*
X150501365Y-76213535D01*
X150318222Y-76356081D01*
X150318219Y-76356084D01*
X150161016Y-76526852D01*
X150034075Y-76721151D01*
X149940842Y-76933699D01*
X149883866Y-77158691D01*
X149883864Y-77158702D01*
X149864700Y-77389993D01*
X147595300Y-77389993D01*
X147576135Y-77158702D01*
X147576133Y-77158691D01*
X147519157Y-76933699D01*
X147425924Y-76721151D01*
X147298983Y-76526852D01*
X147298980Y-76526849D01*
X147298979Y-76526847D01*
X147141784Y-76356087D01*
X147141779Y-76356083D01*
X147141777Y-76356081D01*
X146958634Y-76213535D01*
X146958628Y-76213531D01*
X146754504Y-76103064D01*
X146754495Y-76103061D01*
X146534984Y-76027702D01*
X146363282Y-75999050D01*
X146306049Y-75989500D01*
X146073951Y-75989500D01*
X146028164Y-75997140D01*
X145845015Y-76027702D01*
X145625504Y-76103061D01*
X145625495Y-76103064D01*
X145421371Y-76213531D01*
X145421365Y-76213535D01*
X145238222Y-76356081D01*
X145238219Y-76356084D01*
X145081016Y-76526852D01*
X144954075Y-76721151D01*
X144860842Y-76933699D01*
X144803866Y-77158691D01*
X144803864Y-77158702D01*
X144784700Y-77389993D01*
X120125500Y-77389993D01*
X120125500Y-74339993D01*
X128274700Y-74339993D01*
X128274700Y-74340006D01*
X128293864Y-74571297D01*
X128293866Y-74571308D01*
X128350842Y-74796300D01*
X128444075Y-75008848D01*
X128571016Y-75203147D01*
X128571019Y-75203151D01*
X128571021Y-75203153D01*
X128728216Y-75373913D01*
X128728219Y-75373915D01*
X128728222Y-75373918D01*
X128911365Y-75516464D01*
X128911371Y-75516468D01*
X128911374Y-75516470D01*
X129115497Y-75626936D01*
X129229487Y-75666068D01*
X129335015Y-75702297D01*
X129335017Y-75702297D01*
X129335019Y-75702298D01*
X129563951Y-75740500D01*
X129563952Y-75740500D01*
X129796048Y-75740500D01*
X129796049Y-75740500D01*
X130024981Y-75702298D01*
X130244503Y-75626936D01*
X130448626Y-75516470D01*
X130631784Y-75373913D01*
X130788979Y-75203153D01*
X130915924Y-75008849D01*
X131009157Y-74796300D01*
X131066134Y-74571305D01*
X131085300Y-74340000D01*
X131085300Y-74339993D01*
X131066135Y-74108702D01*
X131066133Y-74108691D01*
X131009157Y-73883699D01*
X130915924Y-73671151D01*
X130788983Y-73476852D01*
X130788980Y-73476849D01*
X130788979Y-73476847D01*
X130631784Y-73306087D01*
X130631779Y-73306083D01*
X130631777Y-73306081D01*
X130448634Y-73163535D01*
X130448628Y-73163531D01*
X130244504Y-73053064D01*
X130244495Y-73053061D01*
X130024984Y-72977702D01*
X129820996Y-72943663D01*
X129796049Y-72939500D01*
X129563951Y-72939500D01*
X129539004Y-72943663D01*
X129335015Y-72977702D01*
X129115504Y-73053061D01*
X129115495Y-73053064D01*
X128911371Y-73163531D01*
X128911365Y-73163535D01*
X128728222Y-73306081D01*
X128728219Y-73306084D01*
X128571016Y-73476852D01*
X128444075Y-73671151D01*
X128350842Y-73883699D01*
X128293866Y-74108691D01*
X128293864Y-74108702D01*
X128274700Y-74339993D01*
X120125500Y-74339993D01*
X120125500Y-68599993D01*
X134894700Y-68599993D01*
X134894700Y-68600006D01*
X134913864Y-68831297D01*
X134913866Y-68831308D01*
X134970842Y-69056300D01*
X135064075Y-69268848D01*
X135191016Y-69463147D01*
X135191019Y-69463151D01*
X135191021Y-69463153D01*
X135348216Y-69633913D01*
X135348219Y-69633915D01*
X135348222Y-69633918D01*
X135531365Y-69776464D01*
X135531371Y-69776468D01*
X135531374Y-69776470D01*
X135735497Y-69886936D01*
X135849487Y-69926068D01*
X135955015Y-69962297D01*
X135955017Y-69962297D01*
X135955019Y-69962298D01*
X136183951Y-70000500D01*
X136183952Y-70000500D01*
X136416048Y-70000500D01*
X136416049Y-70000500D01*
X136644981Y-69962298D01*
X136864503Y-69886936D01*
X137068626Y-69776470D01*
X137223839Y-69655663D01*
X137288831Y-69630021D01*
X137357371Y-69643587D01*
X137376156Y-69655659D01*
X137531374Y-69776470D01*
X137735497Y-69886936D01*
X137849487Y-69926068D01*
X137955015Y-69962297D01*
X137955017Y-69962297D01*
X137955019Y-69962298D01*
X138183951Y-70000500D01*
X138183952Y-70000500D01*
X138416048Y-70000500D01*
X138416049Y-70000500D01*
X138644981Y-69962298D01*
X138864503Y-69886936D01*
X139068626Y-69776470D01*
X139251784Y-69633913D01*
X139408979Y-69463153D01*
X139535924Y-69268849D01*
X139629157Y-69056300D01*
X139686134Y-68831305D01*
X139695851Y-68714035D01*
X139705300Y-68600006D01*
X139705300Y-68599993D01*
X139686135Y-68368702D01*
X139686133Y-68368691D01*
X139629157Y-68143699D01*
X139535924Y-67931151D01*
X139408983Y-67736852D01*
X139408980Y-67736849D01*
X139408979Y-67736847D01*
X139251784Y-67566087D01*
X139251779Y-67566083D01*
X139251777Y-67566081D01*
X139068634Y-67423535D01*
X139068628Y-67423531D01*
X138864504Y-67313064D01*
X138864495Y-67313061D01*
X138644984Y-67237702D01*
X138473282Y-67209050D01*
X138416049Y-67199500D01*
X138183951Y-67199500D01*
X138138164Y-67207140D01*
X137955015Y-67237702D01*
X137735504Y-67313061D01*
X137735495Y-67313064D01*
X137531372Y-67423531D01*
X137376162Y-67544335D01*
X137311168Y-67569977D01*
X137242628Y-67556410D01*
X137223838Y-67544335D01*
X137068627Y-67423531D01*
X137068626Y-67423530D01*
X136974970Y-67372845D01*
X136864504Y-67313064D01*
X136864495Y-67313061D01*
X136644984Y-67237702D01*
X136473282Y-67209050D01*
X136416049Y-67199500D01*
X136183951Y-67199500D01*
X136138164Y-67207140D01*
X135955015Y-67237702D01*
X135735504Y-67313061D01*
X135735495Y-67313064D01*
X135531371Y-67423531D01*
X135531365Y-67423535D01*
X135348222Y-67566081D01*
X135348219Y-67566084D01*
X135191016Y-67736852D01*
X135064075Y-67931151D01*
X134970842Y-68143699D01*
X134913866Y-68368691D01*
X134913864Y-68368702D01*
X134894700Y-68599993D01*
X120125500Y-68599993D01*
X120125500Y-64599993D01*
X134894700Y-64599993D01*
X134894700Y-64600006D01*
X134913864Y-64831297D01*
X134913866Y-64831308D01*
X134970842Y-65056300D01*
X135064075Y-65268848D01*
X135191016Y-65463147D01*
X135191019Y-65463151D01*
X135191021Y-65463153D01*
X135348216Y-65633913D01*
X135348219Y-65633915D01*
X135348222Y-65633918D01*
X135531365Y-65776464D01*
X135531371Y-65776468D01*
X135531374Y-65776470D01*
X135689689Y-65862146D01*
X135705471Y-65870687D01*
X135735497Y-65886936D01*
X135828480Y-65918857D01*
X135955015Y-65962297D01*
X135955017Y-65962297D01*
X135955019Y-65962298D01*
X136183951Y-66000500D01*
X136183952Y-66000500D01*
X136416048Y-66000500D01*
X136416049Y-66000500D01*
X136644981Y-65962298D01*
X136864503Y-65886936D01*
X137068626Y-65776470D01*
X137223839Y-65655663D01*
X137288831Y-65630021D01*
X137357371Y-65643587D01*
X137376156Y-65655659D01*
X137531374Y-65776470D01*
X137689689Y-65862146D01*
X137705471Y-65870687D01*
X137735497Y-65886936D01*
X137828480Y-65918857D01*
X137955015Y-65962297D01*
X137955017Y-65962297D01*
X137955019Y-65962298D01*
X138183951Y-66000500D01*
X138183952Y-66000500D01*
X138416048Y-66000500D01*
X138416049Y-66000500D01*
X138644981Y-65962298D01*
X138864503Y-65886936D01*
X139068626Y-65776470D01*
X139251784Y-65633913D01*
X139408979Y-65463153D01*
X139535924Y-65268849D01*
X139629157Y-65056300D01*
X139686134Y-64831305D01*
X139686135Y-64831297D01*
X139705300Y-64600006D01*
X139705300Y-64599993D01*
X139686135Y-64368702D01*
X139686133Y-64368691D01*
X139629157Y-64143699D01*
X139535924Y-63931151D01*
X139408983Y-63736852D01*
X139408980Y-63736849D01*
X139408979Y-63736847D01*
X139251784Y-63566087D01*
X139251779Y-63566083D01*
X139251777Y-63566081D01*
X139068634Y-63423535D01*
X139068628Y-63423531D01*
X138864504Y-63313064D01*
X138864495Y-63313061D01*
X138644984Y-63237702D01*
X138473282Y-63209050D01*
X138416049Y-63199500D01*
X138183951Y-63199500D01*
X138138164Y-63207140D01*
X137955015Y-63237702D01*
X137735504Y-63313061D01*
X137735495Y-63313064D01*
X137531372Y-63423531D01*
X137376162Y-63544335D01*
X137311168Y-63569977D01*
X137242628Y-63556410D01*
X137223838Y-63544335D01*
X137068627Y-63423531D01*
X137068626Y-63423530D01*
X136974970Y-63372845D01*
X136864504Y-63313064D01*
X136864495Y-63313061D01*
X136644984Y-63237702D01*
X136473282Y-63209050D01*
X136416049Y-63199500D01*
X136183951Y-63199500D01*
X136138164Y-63207140D01*
X135955015Y-63237702D01*
X135735504Y-63313061D01*
X135735495Y-63313064D01*
X135531371Y-63423531D01*
X135531365Y-63423535D01*
X135348222Y-63566081D01*
X135348219Y-63566084D01*
X135191016Y-63736852D01*
X135064075Y-63931151D01*
X134970842Y-64143699D01*
X134913866Y-64368691D01*
X134913864Y-64368702D01*
X134894700Y-64599993D01*
X120125500Y-64599993D01*
X120125500Y-62149993D01*
X121924700Y-62149993D01*
X121924700Y-62150006D01*
X121943864Y-62381297D01*
X121943866Y-62381308D01*
X122000842Y-62606300D01*
X122094075Y-62818848D01*
X122221016Y-63013147D01*
X122221019Y-63013151D01*
X122221021Y-63013153D01*
X122378216Y-63183913D01*
X122378219Y-63183915D01*
X122378222Y-63183918D01*
X122561365Y-63326464D01*
X122561371Y-63326468D01*
X122561374Y-63326470D01*
X122765497Y-63436936D01*
X122822197Y-63456401D01*
X122985015Y-63512297D01*
X122985017Y-63512297D01*
X122985019Y-63512298D01*
X123213951Y-63550500D01*
X123213952Y-63550500D01*
X123446048Y-63550500D01*
X123446049Y-63550500D01*
X123674981Y-63512298D01*
X123894503Y-63436936D01*
X124098626Y-63326470D01*
X124104182Y-63322146D01*
X124180391Y-63262830D01*
X124281784Y-63183913D01*
X124438979Y-63013153D01*
X124565924Y-62818849D01*
X124659157Y-62606300D01*
X124716134Y-62381305D01*
X124735300Y-62150000D01*
X124735300Y-62149993D01*
X139704700Y-62149993D01*
X139704700Y-62150006D01*
X139723864Y-62381297D01*
X139723866Y-62381308D01*
X139780842Y-62606300D01*
X139874075Y-62818848D01*
X140001016Y-63013147D01*
X140001019Y-63013151D01*
X140001021Y-63013153D01*
X140158216Y-63183913D01*
X140158219Y-63183915D01*
X140158222Y-63183918D01*
X140341365Y-63326464D01*
X140341371Y-63326468D01*
X140341374Y-63326470D01*
X140545497Y-63436936D01*
X140602197Y-63456401D01*
X140765015Y-63512297D01*
X140765017Y-63512297D01*
X140765019Y-63512298D01*
X140993951Y-63550500D01*
X140993952Y-63550500D01*
X141226048Y-63550500D01*
X141226049Y-63550500D01*
X141454981Y-63512298D01*
X141674503Y-63436936D01*
X141878626Y-63326470D01*
X141884182Y-63322146D01*
X141960391Y-63262830D01*
X142061784Y-63183913D01*
X142218979Y-63013153D01*
X142276191Y-62925582D01*
X142329337Y-62880226D01*
X142398568Y-62870802D01*
X142461904Y-62900304D01*
X142483809Y-62925583D01*
X142541016Y-63013147D01*
X142541019Y-63013151D01*
X142541021Y-63013153D01*
X142698216Y-63183913D01*
X142698219Y-63183915D01*
X142698222Y-63183918D01*
X142881365Y-63326464D01*
X142881371Y-63326468D01*
X142881374Y-63326470D01*
X143085497Y-63436936D01*
X143142197Y-63456401D01*
X143305015Y-63512297D01*
X143305017Y-63512297D01*
X143305019Y-63512298D01*
X143533951Y-63550500D01*
X143533952Y-63550500D01*
X143766048Y-63550500D01*
X143766049Y-63550500D01*
X143994981Y-63512298D01*
X144214503Y-63436936D01*
X144418626Y-63326470D01*
X144424182Y-63322146D01*
X144500391Y-63262830D01*
X144601784Y-63183913D01*
X144758979Y-63013153D01*
X144885924Y-62818849D01*
X144979157Y-62606300D01*
X145036134Y-62381305D01*
X145055300Y-62150000D01*
X145055300Y-62149993D01*
X149864700Y-62149993D01*
X149864700Y-62150006D01*
X149883864Y-62381297D01*
X149883866Y-62381308D01*
X149940842Y-62606300D01*
X150034075Y-62818848D01*
X150161016Y-63013147D01*
X150161019Y-63013151D01*
X150161021Y-63013153D01*
X150318216Y-63183913D01*
X150318219Y-63183915D01*
X150318222Y-63183918D01*
X150501365Y-63326464D01*
X150501371Y-63326468D01*
X150501374Y-63326470D01*
X150705497Y-63436936D01*
X150762197Y-63456401D01*
X150925015Y-63512297D01*
X150925017Y-63512297D01*
X150925019Y-63512298D01*
X151153951Y-63550500D01*
X151153952Y-63550500D01*
X151386048Y-63550500D01*
X151386049Y-63550500D01*
X151614981Y-63512298D01*
X151834503Y-63436936D01*
X152038626Y-63326470D01*
X152044182Y-63322146D01*
X152120391Y-63262830D01*
X152221784Y-63183913D01*
X152378979Y-63013153D01*
X152436191Y-62925582D01*
X152489337Y-62880226D01*
X152558568Y-62870802D01*
X152621904Y-62900304D01*
X152643809Y-62925583D01*
X152701016Y-63013147D01*
X152701019Y-63013151D01*
X152701021Y-63013153D01*
X152858216Y-63183913D01*
X152858219Y-63183915D01*
X152858222Y-63183918D01*
X153041365Y-63326464D01*
X153041371Y-63326468D01*
X153041374Y-63326470D01*
X153245497Y-63436936D01*
X153302197Y-63456401D01*
X153465015Y-63512297D01*
X153465017Y-63512297D01*
X153465019Y-63512298D01*
X153693951Y-63550500D01*
X153693952Y-63550500D01*
X153926048Y-63550500D01*
X153926049Y-63550500D01*
X154154981Y-63512298D01*
X154374503Y-63436936D01*
X154578626Y-63326470D01*
X154584182Y-63322146D01*
X154660391Y-63262830D01*
X154761784Y-63183913D01*
X154918979Y-63013153D01*
X154976191Y-62925582D01*
X155029337Y-62880226D01*
X155098568Y-62870802D01*
X155161904Y-62900304D01*
X155183809Y-62925583D01*
X155241016Y-63013147D01*
X155241019Y-63013151D01*
X155241021Y-63013153D01*
X155398216Y-63183913D01*
X155398219Y-63183915D01*
X155398222Y-63183918D01*
X155581365Y-63326464D01*
X155581371Y-63326468D01*
X155581374Y-63326470D01*
X155785497Y-63436936D01*
X155842197Y-63456401D01*
X156005015Y-63512297D01*
X156005017Y-63512297D01*
X156005019Y-63512298D01*
X156233951Y-63550500D01*
X156233952Y-63550500D01*
X156466048Y-63550500D01*
X156466049Y-63550500D01*
X156694981Y-63512298D01*
X156914503Y-63436936D01*
X157118626Y-63326470D01*
X157124182Y-63322146D01*
X157200391Y-63262830D01*
X157301784Y-63183913D01*
X157458979Y-63013153D01*
X157585924Y-62818849D01*
X157679157Y-62606300D01*
X157736134Y-62381305D01*
X157755300Y-62150000D01*
X157755300Y-62149993D01*
X165104700Y-62149993D01*
X165104700Y-62150006D01*
X165123864Y-62381297D01*
X165123866Y-62381308D01*
X165180842Y-62606300D01*
X165274075Y-62818848D01*
X165401016Y-63013147D01*
X165401019Y-63013151D01*
X165401021Y-63013153D01*
X165558216Y-63183913D01*
X165558219Y-63183915D01*
X165558222Y-63183918D01*
X165741365Y-63326464D01*
X165741371Y-63326468D01*
X165741374Y-63326470D01*
X165945497Y-63436936D01*
X166002197Y-63456401D01*
X166165015Y-63512297D01*
X166165017Y-63512297D01*
X166165019Y-63512298D01*
X166393951Y-63550500D01*
X166393952Y-63550500D01*
X166626048Y-63550500D01*
X166626049Y-63550500D01*
X166854981Y-63512298D01*
X167074503Y-63436936D01*
X167278626Y-63326470D01*
X167284182Y-63322146D01*
X167360391Y-63262830D01*
X167461784Y-63183913D01*
X167618979Y-63013153D01*
X167676191Y-62925582D01*
X167729337Y-62880226D01*
X167798568Y-62870802D01*
X167861904Y-62900304D01*
X167883809Y-62925583D01*
X167941016Y-63013147D01*
X167941019Y-63013151D01*
X167941021Y-63013153D01*
X168098216Y-63183913D01*
X168098219Y-63183915D01*
X168098222Y-63183918D01*
X168275818Y-63322147D01*
X168316631Y-63378857D01*
X168320306Y-63448630D01*
X168285674Y-63509313D01*
X168275818Y-63517853D01*
X168098222Y-63656081D01*
X168098219Y-63656084D01*
X167941016Y-63826852D01*
X167814075Y-64021151D01*
X167720842Y-64233699D01*
X167663866Y-64458691D01*
X167663864Y-64458702D01*
X167644700Y-64689993D01*
X167644700Y-64690006D01*
X167663864Y-64921297D01*
X167663866Y-64921308D01*
X167720842Y-65146300D01*
X167814075Y-65358848D01*
X167941016Y-65553147D01*
X167941019Y-65553151D01*
X167941021Y-65553153D01*
X168098216Y-65723913D01*
X168098219Y-65723915D01*
X168098222Y-65723918D01*
X168275818Y-65862147D01*
X168316631Y-65918857D01*
X168320306Y-65988630D01*
X168285674Y-66049313D01*
X168275818Y-66057853D01*
X168098222Y-66196081D01*
X168098219Y-66196084D01*
X168098216Y-66196086D01*
X168098216Y-66196087D01*
X168039267Y-66260122D01*
X167941016Y-66366852D01*
X167814075Y-66561151D01*
X167720842Y-66773699D01*
X167663866Y-66998691D01*
X167663864Y-66998702D01*
X167644700Y-67229993D01*
X167644700Y-67230006D01*
X167663864Y-67461297D01*
X167663866Y-67461308D01*
X167720842Y-67686300D01*
X167814075Y-67898848D01*
X167941016Y-68093147D01*
X167941019Y-68093151D01*
X167941021Y-68093153D01*
X168098216Y-68263913D01*
X168098219Y-68263915D01*
X168098222Y-68263918D01*
X168281365Y-68406464D01*
X168281371Y-68406468D01*
X168281374Y-68406470D01*
X168485497Y-68516936D01*
X168599487Y-68556068D01*
X168705015Y-68592297D01*
X168705017Y-68592297D01*
X168705019Y-68592298D01*
X168933951Y-68630500D01*
X168933952Y-68630500D01*
X169166048Y-68630500D01*
X169166049Y-68630500D01*
X169394981Y-68592298D01*
X169614503Y-68516936D01*
X169818626Y-68406470D01*
X170001784Y-68263913D01*
X170158979Y-68093153D01*
X170285924Y-67898849D01*
X170379157Y-67686300D01*
X170416206Y-67539999D01*
X191084341Y-67539999D01*
X191084341Y-67540000D01*
X191104936Y-67775403D01*
X191104938Y-67775413D01*
X191166094Y-68003655D01*
X191166096Y-68003659D01*
X191166097Y-68003663D01*
X191207827Y-68093153D01*
X191265965Y-68217830D01*
X191265967Y-68217834D01*
X191371599Y-68368691D01*
X191401505Y-68411401D01*
X191568599Y-68578495D01*
X191599320Y-68600006D01*
X191762165Y-68714032D01*
X191762167Y-68714033D01*
X191762170Y-68714035D01*
X191976337Y-68813903D01*
X192204592Y-68875063D01*
X192392918Y-68891539D01*
X192439999Y-68895659D01*
X192440000Y-68895659D01*
X192440001Y-68895659D01*
X192479234Y-68892226D01*
X192675408Y-68875063D01*
X192903663Y-68813903D01*
X193117830Y-68714035D01*
X193311401Y-68578495D01*
X193478495Y-68411401D01*
X193614035Y-68217830D01*
X193713903Y-68003663D01*
X193775063Y-67775408D01*
X193795659Y-67540000D01*
X193775063Y-67304592D01*
X193713903Y-67076337D01*
X193614035Y-66862171D01*
X193552088Y-66773700D01*
X193478494Y-66668597D01*
X193311402Y-66501506D01*
X193311395Y-66501501D01*
X193117834Y-66365967D01*
X193117830Y-66365965D01*
X193117828Y-66365964D01*
X192903663Y-66266097D01*
X192903659Y-66266096D01*
X192903655Y-66266094D01*
X192675413Y-66204938D01*
X192675403Y-66204936D01*
X192440001Y-66184341D01*
X192439999Y-66184341D01*
X192204596Y-66204936D01*
X192204586Y-66204938D01*
X191976344Y-66266094D01*
X191976335Y-66266098D01*
X191762171Y-66365964D01*
X191762169Y-66365965D01*
X191568597Y-66501505D01*
X191401505Y-66668597D01*
X191265965Y-66862169D01*
X191265964Y-66862171D01*
X191166098Y-67076335D01*
X191166094Y-67076344D01*
X191104938Y-67304586D01*
X191104936Y-67304596D01*
X191084341Y-67539999D01*
X170416206Y-67539999D01*
X170436134Y-67461305D01*
X170441214Y-67400000D01*
X170455300Y-67230006D01*
X170455300Y-67229993D01*
X170436135Y-66998702D01*
X170436133Y-66998691D01*
X170379157Y-66773699D01*
X170285924Y-66561151D01*
X170158983Y-66366852D01*
X170158980Y-66366849D01*
X170158979Y-66366847D01*
X170001784Y-66196087D01*
X169824180Y-66057853D01*
X169783368Y-66001143D01*
X169779693Y-65931370D01*
X169814324Y-65870687D01*
X169824181Y-65862146D01*
X170001784Y-65723913D01*
X170158979Y-65553153D01*
X170285924Y-65358849D01*
X170379157Y-65146300D01*
X170436134Y-64921305D01*
X170436135Y-64921297D01*
X170455300Y-64690006D01*
X170455300Y-64689993D01*
X170436135Y-64458702D01*
X170436133Y-64458691D01*
X170379157Y-64233699D01*
X170285924Y-64021151D01*
X170158983Y-63826852D01*
X170158980Y-63826849D01*
X170158979Y-63826847D01*
X170001784Y-63656087D01*
X169824180Y-63517853D01*
X169783368Y-63461143D01*
X169779693Y-63391370D01*
X169814324Y-63330687D01*
X169824181Y-63322146D01*
X169835850Y-63313064D01*
X170001784Y-63183913D01*
X170158979Y-63013153D01*
X170216191Y-62925582D01*
X170269337Y-62880226D01*
X170338568Y-62870802D01*
X170401904Y-62900304D01*
X170423809Y-62925583D01*
X170481016Y-63013147D01*
X170481019Y-63013151D01*
X170481021Y-63013153D01*
X170638216Y-63183913D01*
X170638219Y-63183915D01*
X170638222Y-63183918D01*
X170821365Y-63326464D01*
X170821371Y-63326468D01*
X170821374Y-63326470D01*
X171025497Y-63436936D01*
X171082197Y-63456401D01*
X171245015Y-63512297D01*
X171245017Y-63512297D01*
X171245019Y-63512298D01*
X171473951Y-63550500D01*
X171473952Y-63550500D01*
X171706048Y-63550500D01*
X171706049Y-63550500D01*
X171934981Y-63512298D01*
X172154503Y-63436936D01*
X172358626Y-63326470D01*
X172364182Y-63322146D01*
X172440391Y-63262830D01*
X172541784Y-63183913D01*
X172698979Y-63013153D01*
X172756191Y-62925582D01*
X172809337Y-62880226D01*
X172878568Y-62870802D01*
X172941904Y-62900304D01*
X172963809Y-62925583D01*
X173021016Y-63013147D01*
X173021019Y-63013151D01*
X173021021Y-63013153D01*
X173178216Y-63183913D01*
X173178219Y-63183915D01*
X173178222Y-63183918D01*
X173361365Y-63326464D01*
X173361371Y-63326468D01*
X173361374Y-63326470D01*
X173565497Y-63436936D01*
X173622197Y-63456401D01*
X173785015Y-63512297D01*
X173785017Y-63512297D01*
X173785019Y-63512298D01*
X174013951Y-63550500D01*
X174013952Y-63550500D01*
X174246048Y-63550500D01*
X174246049Y-63550500D01*
X174474981Y-63512298D01*
X174694503Y-63436936D01*
X174898626Y-63326470D01*
X174904182Y-63322146D01*
X174980391Y-63262830D01*
X175081784Y-63183913D01*
X175238979Y-63013153D01*
X175296191Y-62925582D01*
X175349337Y-62880226D01*
X175418568Y-62870802D01*
X175481904Y-62900304D01*
X175503809Y-62925583D01*
X175561016Y-63013147D01*
X175561019Y-63013151D01*
X175561021Y-63013153D01*
X175718216Y-63183913D01*
X175718219Y-63183915D01*
X175718222Y-63183918D01*
X175901365Y-63326464D01*
X175901371Y-63326468D01*
X175901374Y-63326470D01*
X176105497Y-63436936D01*
X176162197Y-63456401D01*
X176325015Y-63512297D01*
X176325017Y-63512297D01*
X176325019Y-63512298D01*
X176553951Y-63550500D01*
X176553952Y-63550500D01*
X176786048Y-63550500D01*
X176786049Y-63550500D01*
X177014981Y-63512298D01*
X177234503Y-63436936D01*
X177438626Y-63326470D01*
X177444182Y-63322146D01*
X177520391Y-63262830D01*
X177621784Y-63183913D01*
X177778979Y-63013153D01*
X177836191Y-62925582D01*
X177889337Y-62880226D01*
X177958568Y-62870802D01*
X178021904Y-62900304D01*
X178043809Y-62925583D01*
X178101016Y-63013147D01*
X178101019Y-63013151D01*
X178101021Y-63013153D01*
X178258216Y-63183913D01*
X178258219Y-63183915D01*
X178258222Y-63183918D01*
X178441365Y-63326464D01*
X178441371Y-63326468D01*
X178441374Y-63326470D01*
X178645497Y-63436936D01*
X178702197Y-63456401D01*
X178865015Y-63512297D01*
X178865017Y-63512297D01*
X178865019Y-63512298D01*
X179093951Y-63550500D01*
X179093952Y-63550500D01*
X179326048Y-63550500D01*
X179326049Y-63550500D01*
X179554981Y-63512298D01*
X179774503Y-63436936D01*
X179978626Y-63326470D01*
X179984182Y-63322146D01*
X180060391Y-63262830D01*
X180161784Y-63183913D01*
X180318979Y-63013153D01*
X180445924Y-62818849D01*
X180539157Y-62606300D01*
X180596134Y-62381305D01*
X180615300Y-62150000D01*
X180615300Y-62149993D01*
X180596135Y-61918702D01*
X180596133Y-61918691D01*
X180539157Y-61693699D01*
X180445924Y-61481151D01*
X180318983Y-61286852D01*
X180318980Y-61286849D01*
X180318979Y-61286847D01*
X180229822Y-61189996D01*
X191539909Y-61189996D01*
X191539909Y-61190003D01*
X191558212Y-61352455D01*
X191612210Y-61506774D01*
X191612211Y-61506775D01*
X191699192Y-61645204D01*
X191814796Y-61760808D01*
X191953225Y-61847789D01*
X192107539Y-61901786D01*
X192107542Y-61901786D01*
X192107544Y-61901787D01*
X192269996Y-61920091D01*
X192270000Y-61920091D01*
X192270004Y-61920091D01*
X192432455Y-61901787D01*
X192432456Y-61901786D01*
X192432461Y-61901786D01*
X192586775Y-61847789D01*
X192725204Y-61760808D01*
X192840808Y-61645204D01*
X192927789Y-61506775D01*
X192981786Y-61352461D01*
X192986007Y-61315000D01*
X193000091Y-61190003D01*
X193000091Y-61189996D01*
X192981787Y-61027544D01*
X192981786Y-61027542D01*
X192981786Y-61027539D01*
X192927789Y-60873225D01*
X192840808Y-60734796D01*
X192725204Y-60619192D01*
X192589928Y-60534192D01*
X192586774Y-60532210D01*
X192432455Y-60478212D01*
X192270004Y-60459909D01*
X192269996Y-60459909D01*
X192107544Y-60478212D01*
X191953225Y-60532210D01*
X191814795Y-60619192D01*
X191699192Y-60734795D01*
X191612210Y-60873225D01*
X191558212Y-61027544D01*
X191539909Y-61189996D01*
X180229822Y-61189996D01*
X180161784Y-61116087D01*
X180161779Y-61116083D01*
X180161777Y-61116081D01*
X179978634Y-60973535D01*
X179978628Y-60973531D01*
X179774504Y-60863064D01*
X179774495Y-60863061D01*
X179554984Y-60787702D01*
X179383282Y-60759050D01*
X179326049Y-60749500D01*
X179093951Y-60749500D01*
X179048164Y-60757140D01*
X178865015Y-60787702D01*
X178645504Y-60863061D01*
X178645495Y-60863064D01*
X178441371Y-60973531D01*
X178441365Y-60973535D01*
X178258222Y-61116081D01*
X178258219Y-61116084D01*
X178101016Y-61286852D01*
X178043809Y-61374416D01*
X177990662Y-61419773D01*
X177921431Y-61429197D01*
X177858095Y-61399695D01*
X177836191Y-61374416D01*
X177778983Y-61286852D01*
X177778980Y-61286849D01*
X177778979Y-61286847D01*
X177621784Y-61116087D01*
X177621779Y-61116083D01*
X177621777Y-61116081D01*
X177438634Y-60973535D01*
X177438628Y-60973531D01*
X177234504Y-60863064D01*
X177234495Y-60863061D01*
X177014984Y-60787702D01*
X176843282Y-60759050D01*
X176786049Y-60749500D01*
X176553951Y-60749500D01*
X176508164Y-60757140D01*
X176325015Y-60787702D01*
X176105504Y-60863061D01*
X176105495Y-60863064D01*
X175901371Y-60973531D01*
X175901365Y-60973535D01*
X175718222Y-61116081D01*
X175718219Y-61116084D01*
X175561016Y-61286852D01*
X175503809Y-61374416D01*
X175450662Y-61419773D01*
X175381431Y-61429197D01*
X175318095Y-61399695D01*
X175296191Y-61374416D01*
X175238983Y-61286852D01*
X175238980Y-61286849D01*
X175238979Y-61286847D01*
X175081784Y-61116087D01*
X175081779Y-61116083D01*
X175081777Y-61116081D01*
X174898634Y-60973535D01*
X174898628Y-60973531D01*
X174694504Y-60863064D01*
X174694495Y-60863061D01*
X174474984Y-60787702D01*
X174303282Y-60759050D01*
X174246049Y-60749500D01*
X174013951Y-60749500D01*
X173968164Y-60757140D01*
X173785015Y-60787702D01*
X173565504Y-60863061D01*
X173565495Y-60863064D01*
X173361371Y-60973531D01*
X173361365Y-60973535D01*
X173178222Y-61116081D01*
X173178219Y-61116084D01*
X173021016Y-61286852D01*
X172963809Y-61374416D01*
X172910662Y-61419773D01*
X172841431Y-61429197D01*
X172778095Y-61399695D01*
X172756191Y-61374416D01*
X172698983Y-61286852D01*
X172698980Y-61286849D01*
X172698979Y-61286847D01*
X172541784Y-61116087D01*
X172541779Y-61116083D01*
X172541777Y-61116081D01*
X172358634Y-60973535D01*
X172358628Y-60973531D01*
X172154504Y-60863064D01*
X172154495Y-60863061D01*
X171934984Y-60787702D01*
X171763282Y-60759050D01*
X171706049Y-60749500D01*
X171473951Y-60749500D01*
X171428164Y-60757140D01*
X171245015Y-60787702D01*
X171025504Y-60863061D01*
X171025495Y-60863064D01*
X170821371Y-60973531D01*
X170821365Y-60973535D01*
X170638222Y-61116081D01*
X170638219Y-61116084D01*
X170481016Y-61286852D01*
X170423809Y-61374416D01*
X170370662Y-61419773D01*
X170301431Y-61429197D01*
X170238095Y-61399695D01*
X170216191Y-61374416D01*
X170158983Y-61286852D01*
X170158980Y-61286849D01*
X170158979Y-61286847D01*
X170001784Y-61116087D01*
X170001779Y-61116083D01*
X170001777Y-61116081D01*
X169818634Y-60973535D01*
X169818628Y-60973531D01*
X169614504Y-60863064D01*
X169614495Y-60863061D01*
X169394984Y-60787702D01*
X169223282Y-60759050D01*
X169166049Y-60749500D01*
X168933951Y-60749500D01*
X168888164Y-60757140D01*
X168705015Y-60787702D01*
X168485504Y-60863061D01*
X168485495Y-60863064D01*
X168281371Y-60973531D01*
X168281365Y-60973535D01*
X168098222Y-61116081D01*
X168098219Y-61116084D01*
X167941016Y-61286852D01*
X167883809Y-61374416D01*
X167830662Y-61419773D01*
X167761431Y-61429197D01*
X167698095Y-61399695D01*
X167676191Y-61374416D01*
X167618983Y-61286852D01*
X167618980Y-61286849D01*
X167618979Y-61286847D01*
X167461784Y-61116087D01*
X167461779Y-61116083D01*
X167461777Y-61116081D01*
X167278634Y-60973535D01*
X167278628Y-60973531D01*
X167074504Y-60863064D01*
X167074495Y-60863061D01*
X166854984Y-60787702D01*
X166683282Y-60759050D01*
X166626049Y-60749500D01*
X166393951Y-60749500D01*
X166348164Y-60757140D01*
X166165015Y-60787702D01*
X165945504Y-60863061D01*
X165945495Y-60863064D01*
X165741371Y-60973531D01*
X165741365Y-60973535D01*
X165558222Y-61116081D01*
X165558219Y-61116084D01*
X165401016Y-61286852D01*
X165274075Y-61481151D01*
X165180842Y-61693699D01*
X165123866Y-61918691D01*
X165123864Y-61918702D01*
X165104700Y-62149993D01*
X157755300Y-62149993D01*
X157736135Y-61918702D01*
X157736133Y-61918691D01*
X157679157Y-61693699D01*
X157585924Y-61481151D01*
X157458983Y-61286852D01*
X157458980Y-61286849D01*
X157458979Y-61286847D01*
X157301784Y-61116087D01*
X157301779Y-61116083D01*
X157301777Y-61116081D01*
X157118634Y-60973535D01*
X157118628Y-60973531D01*
X156914504Y-60863064D01*
X156914495Y-60863061D01*
X156694984Y-60787702D01*
X156523282Y-60759050D01*
X156466049Y-60749500D01*
X156233951Y-60749500D01*
X156188164Y-60757140D01*
X156005015Y-60787702D01*
X155785504Y-60863061D01*
X155785495Y-60863064D01*
X155581371Y-60973531D01*
X155581365Y-60973535D01*
X155398222Y-61116081D01*
X155398219Y-61116084D01*
X155241016Y-61286852D01*
X155183809Y-61374416D01*
X155130662Y-61419773D01*
X155061431Y-61429197D01*
X154998095Y-61399695D01*
X154976191Y-61374416D01*
X154918983Y-61286852D01*
X154918980Y-61286849D01*
X154918979Y-61286847D01*
X154761784Y-61116087D01*
X154761779Y-61116083D01*
X154761777Y-61116081D01*
X154578634Y-60973535D01*
X154578628Y-60973531D01*
X154374504Y-60863064D01*
X154374495Y-60863061D01*
X154154984Y-60787702D01*
X153983282Y-60759050D01*
X153926049Y-60749500D01*
X153693951Y-60749500D01*
X153648164Y-60757140D01*
X153465015Y-60787702D01*
X153245504Y-60863061D01*
X153245495Y-60863064D01*
X153041371Y-60973531D01*
X153041365Y-60973535D01*
X152858222Y-61116081D01*
X152858219Y-61116084D01*
X152701016Y-61286852D01*
X152643809Y-61374416D01*
X152590662Y-61419773D01*
X152521431Y-61429197D01*
X152458095Y-61399695D01*
X152436191Y-61374416D01*
X152378983Y-61286852D01*
X152378980Y-61286849D01*
X152378979Y-61286847D01*
X152221784Y-61116087D01*
X152221779Y-61116083D01*
X152221777Y-61116081D01*
X152038634Y-60973535D01*
X152038628Y-60973531D01*
X151834504Y-60863064D01*
X151834495Y-60863061D01*
X151614984Y-60787702D01*
X151443282Y-60759050D01*
X151386049Y-60749500D01*
X151153951Y-60749500D01*
X151108164Y-60757140D01*
X150925015Y-60787702D01*
X150705504Y-60863061D01*
X150705495Y-60863064D01*
X150501371Y-60973531D01*
X150501365Y-60973535D01*
X150318222Y-61116081D01*
X150318219Y-61116084D01*
X150161016Y-61286852D01*
X150034075Y-61481151D01*
X149940842Y-61693699D01*
X149883866Y-61918691D01*
X149883864Y-61918702D01*
X149864700Y-62149993D01*
X145055300Y-62149993D01*
X145036135Y-61918702D01*
X145036133Y-61918691D01*
X144979157Y-61693699D01*
X144885924Y-61481151D01*
X144758983Y-61286852D01*
X144758980Y-61286849D01*
X144758979Y-61286847D01*
X144601784Y-61116087D01*
X144601779Y-61116083D01*
X144601777Y-61116081D01*
X144418634Y-60973535D01*
X144418628Y-60973531D01*
X144214504Y-60863064D01*
X144214495Y-60863061D01*
X143994984Y-60787702D01*
X143823282Y-60759050D01*
X143766049Y-60749500D01*
X143533951Y-60749500D01*
X143488164Y-60757140D01*
X143305015Y-60787702D01*
X143085504Y-60863061D01*
X143085495Y-60863064D01*
X142881371Y-60973531D01*
X142881365Y-60973535D01*
X142698222Y-61116081D01*
X142698219Y-61116084D01*
X142541016Y-61286852D01*
X142483809Y-61374416D01*
X142430662Y-61419773D01*
X142361431Y-61429197D01*
X142298095Y-61399695D01*
X142276191Y-61374416D01*
X142218983Y-61286852D01*
X142218980Y-61286849D01*
X142218979Y-61286847D01*
X142061784Y-61116087D01*
X142061779Y-61116083D01*
X142061777Y-61116081D01*
X141878634Y-60973535D01*
X141878628Y-60973531D01*
X141674504Y-60863064D01*
X141674495Y-60863061D01*
X141454984Y-60787702D01*
X141283282Y-60759050D01*
X141226049Y-60749500D01*
X140993951Y-60749500D01*
X140948164Y-60757140D01*
X140765015Y-60787702D01*
X140545504Y-60863061D01*
X140545495Y-60863064D01*
X140341371Y-60973531D01*
X140341365Y-60973535D01*
X140158222Y-61116081D01*
X140158219Y-61116084D01*
X140001016Y-61286852D01*
X139874075Y-61481151D01*
X139780842Y-61693699D01*
X139723866Y-61918691D01*
X139723864Y-61918702D01*
X139704700Y-62149993D01*
X124735300Y-62149993D01*
X124716135Y-61918702D01*
X124716133Y-61918691D01*
X124659157Y-61693699D01*
X124565924Y-61481151D01*
X124438983Y-61286852D01*
X124438980Y-61286849D01*
X124438979Y-61286847D01*
X124281784Y-61116087D01*
X124281779Y-61116083D01*
X124281777Y-61116081D01*
X124098634Y-60973535D01*
X124098628Y-60973531D01*
X123894504Y-60863064D01*
X123894495Y-60863061D01*
X123674984Y-60787702D01*
X123503282Y-60759050D01*
X123446049Y-60749500D01*
X123213951Y-60749500D01*
X123168164Y-60757140D01*
X122985015Y-60787702D01*
X122765504Y-60863061D01*
X122765495Y-60863064D01*
X122561371Y-60973531D01*
X122561365Y-60973535D01*
X122378222Y-61116081D01*
X122378219Y-61116084D01*
X122221016Y-61286852D01*
X122094075Y-61481151D01*
X122000842Y-61693699D01*
X121943866Y-61918691D01*
X121943864Y-61918702D01*
X121924700Y-62149993D01*
X120125500Y-62149993D01*
X120125500Y-58400000D01*
X122619678Y-58400000D01*
X122638915Y-58583029D01*
X122638916Y-58583032D01*
X122695783Y-58758053D01*
X122695786Y-58758059D01*
X122787805Y-58917440D01*
X122828337Y-58962455D01*
X122910949Y-59054206D01*
X122910951Y-59054208D01*
X123059834Y-59162378D01*
X123059835Y-59162378D01*
X123059839Y-59162381D01*
X123196953Y-59223428D01*
X123227961Y-59237234D01*
X123227966Y-59237236D01*
X123407981Y-59275500D01*
X123592019Y-59275500D01*
X123772034Y-59237236D01*
X123940161Y-59162381D01*
X124089050Y-59054207D01*
X124212195Y-58917440D01*
X124280002Y-58799996D01*
X149469909Y-58799996D01*
X149469909Y-58800003D01*
X149488212Y-58962455D01*
X149542210Y-59116774D01*
X149582815Y-59181396D01*
X149629192Y-59255204D01*
X149744796Y-59370808D01*
X149883225Y-59457789D01*
X150037539Y-59511786D01*
X150037542Y-59511786D01*
X150037544Y-59511787D01*
X150199996Y-59530091D01*
X150200000Y-59530091D01*
X150200004Y-59530091D01*
X150362455Y-59511787D01*
X150362456Y-59511786D01*
X150362461Y-59511786D01*
X150516775Y-59457789D01*
X150655204Y-59370808D01*
X150770808Y-59255204D01*
X150857789Y-59116775D01*
X150911786Y-58962461D01*
X150912665Y-58954664D01*
X150930091Y-58800003D01*
X150930091Y-58799996D01*
X150911787Y-58637544D01*
X150911786Y-58637542D01*
X150911786Y-58637539D01*
X150857789Y-58483225D01*
X150770808Y-58344796D01*
X150655204Y-58229192D01*
X150516774Y-58142210D01*
X150362455Y-58088212D01*
X150200004Y-58069909D01*
X150199996Y-58069909D01*
X150037544Y-58088212D01*
X149883225Y-58142210D01*
X149744795Y-58229192D01*
X149629192Y-58344795D01*
X149542210Y-58483225D01*
X149488212Y-58637544D01*
X149469909Y-58799996D01*
X124280002Y-58799996D01*
X124304214Y-58758059D01*
X124361085Y-58583029D01*
X124380322Y-58400000D01*
X124361085Y-58216971D01*
X124319249Y-58088214D01*
X124304216Y-58041946D01*
X124304213Y-58041940D01*
X124212195Y-57882560D01*
X124089050Y-57745793D01*
X124089048Y-57745791D01*
X123940165Y-57637621D01*
X123940162Y-57637619D01*
X123940161Y-57637619D01*
X123879112Y-57610438D01*
X123772038Y-57562765D01*
X123772033Y-57562763D01*
X123592019Y-57524500D01*
X123407981Y-57524500D01*
X123227966Y-57562763D01*
X123227961Y-57562765D01*
X123059839Y-57637619D01*
X123059834Y-57637621D01*
X122910951Y-57745791D01*
X122910949Y-57745793D01*
X122787804Y-57882561D01*
X122695786Y-58041940D01*
X122695783Y-58041946D01*
X122650008Y-58182830D01*
X122638915Y-58216971D01*
X122619678Y-58400000D01*
X120125500Y-58400000D01*
X120125500Y-57412135D01*
X165254500Y-57412135D01*
X165254500Y-59207870D01*
X165254501Y-59207876D01*
X165260908Y-59267483D01*
X165311202Y-59402328D01*
X165311206Y-59402335D01*
X165397452Y-59517544D01*
X165397455Y-59517547D01*
X165512664Y-59603793D01*
X165512671Y-59603797D01*
X165647517Y-59654091D01*
X165647516Y-59654091D01*
X165654444Y-59654835D01*
X165707127Y-59660500D01*
X167502872Y-59660499D01*
X167562483Y-59654091D01*
X167697331Y-59603796D01*
X167812546Y-59517546D01*
X167898796Y-59402331D01*
X167947810Y-59270916D01*
X167989681Y-59214984D01*
X168055145Y-59190566D01*
X168123418Y-59205417D01*
X168151673Y-59226569D01*
X168273599Y-59348495D01*
X168363972Y-59411775D01*
X168467165Y-59484032D01*
X168467167Y-59484033D01*
X168467170Y-59484035D01*
X168681337Y-59583903D01*
X168909592Y-59645063D01*
X169086034Y-59660500D01*
X169144999Y-59665659D01*
X169145000Y-59665659D01*
X169145001Y-59665659D01*
X169203966Y-59660500D01*
X169380408Y-59645063D01*
X169608663Y-59583903D01*
X169822830Y-59484035D01*
X170016401Y-59348495D01*
X170183495Y-59181401D01*
X170313425Y-58995842D01*
X170368002Y-58952217D01*
X170437500Y-58945023D01*
X170499855Y-58976546D01*
X170516575Y-58995842D01*
X170646500Y-59181395D01*
X170646505Y-59181401D01*
X170813599Y-59348495D01*
X170903972Y-59411775D01*
X171007165Y-59484032D01*
X171007167Y-59484033D01*
X171007170Y-59484035D01*
X171221337Y-59583903D01*
X171449592Y-59645063D01*
X171626034Y-59660500D01*
X171684999Y-59665659D01*
X171685000Y-59665659D01*
X171685001Y-59665659D01*
X171743966Y-59660500D01*
X171920408Y-59645063D01*
X172148663Y-59583903D01*
X172362830Y-59484035D01*
X172556401Y-59348495D01*
X172723495Y-59181401D01*
X172853425Y-58995842D01*
X172908002Y-58952217D01*
X172977500Y-58945023D01*
X173039855Y-58976546D01*
X173056575Y-58995842D01*
X173186500Y-59181395D01*
X173186505Y-59181401D01*
X173353599Y-59348495D01*
X173443972Y-59411775D01*
X173547165Y-59484032D01*
X173547167Y-59484033D01*
X173547170Y-59484035D01*
X173761337Y-59583903D01*
X173989592Y-59645063D01*
X174166034Y-59660500D01*
X174224999Y-59665659D01*
X174225000Y-59665659D01*
X174225001Y-59665659D01*
X174283966Y-59660500D01*
X174460408Y-59645063D01*
X174688663Y-59583903D01*
X174902830Y-59484035D01*
X175096401Y-59348495D01*
X175263495Y-59181401D01*
X175393425Y-58995842D01*
X175448002Y-58952217D01*
X175517500Y-58945023D01*
X175579855Y-58976546D01*
X175596575Y-58995842D01*
X175726500Y-59181395D01*
X175726505Y-59181401D01*
X175893599Y-59348495D01*
X175983972Y-59411775D01*
X176087165Y-59484032D01*
X176087167Y-59484033D01*
X176087170Y-59484035D01*
X176301337Y-59583903D01*
X176529592Y-59645063D01*
X176706034Y-59660500D01*
X176764999Y-59665659D01*
X176765000Y-59665659D01*
X176765001Y-59665659D01*
X176823966Y-59660500D01*
X177000408Y-59645063D01*
X177228663Y-59583903D01*
X177442830Y-59484035D01*
X177636401Y-59348495D01*
X177803495Y-59181401D01*
X177933425Y-58995842D01*
X177988002Y-58952217D01*
X178057500Y-58945023D01*
X178119855Y-58976546D01*
X178136575Y-58995842D01*
X178266500Y-59181395D01*
X178266505Y-59181401D01*
X178433599Y-59348495D01*
X178523972Y-59411775D01*
X178627165Y-59484032D01*
X178627167Y-59484033D01*
X178627170Y-59484035D01*
X178841337Y-59583903D01*
X179069592Y-59645063D01*
X179246034Y-59660500D01*
X179304999Y-59665659D01*
X179305000Y-59665659D01*
X179305001Y-59665659D01*
X179363966Y-59660500D01*
X179540408Y-59645063D01*
X179768663Y-59583903D01*
X179982830Y-59484035D01*
X180176401Y-59348495D01*
X180343495Y-59181401D01*
X180473425Y-58995842D01*
X180528002Y-58952217D01*
X180597500Y-58945023D01*
X180659855Y-58976546D01*
X180676575Y-58995842D01*
X180806500Y-59181395D01*
X180806505Y-59181401D01*
X180973599Y-59348495D01*
X181063972Y-59411775D01*
X181167165Y-59484032D01*
X181167167Y-59484033D01*
X181167170Y-59484035D01*
X181381337Y-59583903D01*
X181609592Y-59645063D01*
X181786034Y-59660500D01*
X181844999Y-59665659D01*
X181845000Y-59665659D01*
X181845001Y-59665659D01*
X181903966Y-59660500D01*
X182080408Y-59645063D01*
X182308663Y-59583903D01*
X182522830Y-59484035D01*
X182716401Y-59348495D01*
X182883495Y-59181401D01*
X183019035Y-58987830D01*
X183118903Y-58773663D01*
X183180063Y-58545408D01*
X183200659Y-58310000D01*
X183200659Y-58309999D01*
X185569341Y-58309999D01*
X185569341Y-58310000D01*
X185589936Y-58545403D01*
X185589938Y-58545413D01*
X185651094Y-58773655D01*
X185651096Y-58773659D01*
X185651097Y-58773663D01*
X185663380Y-58800003D01*
X185750965Y-58987830D01*
X185750967Y-58987834D01*
X185797443Y-59054208D01*
X185886505Y-59181401D01*
X186053599Y-59348495D01*
X186143972Y-59411775D01*
X186247165Y-59484032D01*
X186247167Y-59484033D01*
X186247170Y-59484035D01*
X186461337Y-59583903D01*
X186689592Y-59645063D01*
X186866034Y-59660500D01*
X186924999Y-59665659D01*
X186925000Y-59665659D01*
X186925001Y-59665659D01*
X186983966Y-59660500D01*
X187160408Y-59645063D01*
X187388663Y-59583903D01*
X187602830Y-59484035D01*
X187796401Y-59348495D01*
X187963495Y-59181401D01*
X188099035Y-58987830D01*
X188198903Y-58773663D01*
X188260063Y-58545408D01*
X188280659Y-58310000D01*
X188260063Y-58074592D01*
X188198903Y-57846337D01*
X188099035Y-57632171D01*
X188093425Y-57624158D01*
X187963494Y-57438597D01*
X187796402Y-57271506D01*
X187796395Y-57271501D01*
X187602834Y-57135967D01*
X187602830Y-57135965D01*
X187602828Y-57135964D01*
X187388663Y-57036097D01*
X187388659Y-57036096D01*
X187388655Y-57036094D01*
X187160413Y-56974938D01*
X187160403Y-56974936D01*
X186925001Y-56954341D01*
X186924999Y-56954341D01*
X186689596Y-56974936D01*
X186689586Y-56974938D01*
X186461344Y-57036094D01*
X186461335Y-57036098D01*
X186247171Y-57135964D01*
X186247169Y-57135965D01*
X186053597Y-57271505D01*
X185886505Y-57438597D01*
X185750965Y-57632169D01*
X185750964Y-57632171D01*
X185651098Y-57846335D01*
X185651094Y-57846344D01*
X185589938Y-58074586D01*
X185589936Y-58074596D01*
X185569341Y-58309999D01*
X183200659Y-58309999D01*
X183180063Y-58074592D01*
X183118903Y-57846337D01*
X183019035Y-57632171D01*
X183013425Y-57624158D01*
X182883494Y-57438597D01*
X182716402Y-57271506D01*
X182716395Y-57271501D01*
X182522834Y-57135967D01*
X182522830Y-57135965D01*
X182522828Y-57135964D01*
X182308663Y-57036097D01*
X182308659Y-57036096D01*
X182308655Y-57036094D01*
X182080413Y-56974938D01*
X182080403Y-56974936D01*
X181845001Y-56954341D01*
X181844999Y-56954341D01*
X181609596Y-56974936D01*
X181609586Y-56974938D01*
X181381344Y-57036094D01*
X181381335Y-57036098D01*
X181167171Y-57135964D01*
X181167169Y-57135965D01*
X180973597Y-57271505D01*
X180806505Y-57438597D01*
X180676575Y-57624158D01*
X180621998Y-57667783D01*
X180552500Y-57674977D01*
X180490145Y-57643454D01*
X180473425Y-57624158D01*
X180343494Y-57438597D01*
X180176402Y-57271506D01*
X180176395Y-57271501D01*
X179982834Y-57135967D01*
X179982830Y-57135965D01*
X179982828Y-57135964D01*
X179768663Y-57036097D01*
X179768659Y-57036096D01*
X179768655Y-57036094D01*
X179540413Y-56974938D01*
X179540403Y-56974936D01*
X179305001Y-56954341D01*
X179304999Y-56954341D01*
X179069596Y-56974936D01*
X179069586Y-56974938D01*
X178841344Y-57036094D01*
X178841335Y-57036098D01*
X178627171Y-57135964D01*
X178627169Y-57135965D01*
X178433597Y-57271505D01*
X178266505Y-57438597D01*
X178136575Y-57624158D01*
X178081998Y-57667783D01*
X178012500Y-57674977D01*
X177950145Y-57643454D01*
X177933425Y-57624158D01*
X177803494Y-57438597D01*
X177636402Y-57271506D01*
X177636395Y-57271501D01*
X177442834Y-57135967D01*
X177442830Y-57135965D01*
X177442828Y-57135964D01*
X177228663Y-57036097D01*
X177228659Y-57036096D01*
X177228655Y-57036094D01*
X177000413Y-56974938D01*
X177000403Y-56974936D01*
X176765001Y-56954341D01*
X176764999Y-56954341D01*
X176529596Y-56974936D01*
X176529586Y-56974938D01*
X176301344Y-57036094D01*
X176301335Y-57036098D01*
X176087171Y-57135964D01*
X176087169Y-57135965D01*
X175893597Y-57271505D01*
X175726505Y-57438597D01*
X175596575Y-57624158D01*
X175541998Y-57667783D01*
X175472500Y-57674977D01*
X175410145Y-57643454D01*
X175393425Y-57624158D01*
X175263494Y-57438597D01*
X175096402Y-57271506D01*
X175096395Y-57271501D01*
X174902834Y-57135967D01*
X174902830Y-57135965D01*
X174902828Y-57135964D01*
X174688663Y-57036097D01*
X174688659Y-57036096D01*
X174688655Y-57036094D01*
X174460413Y-56974938D01*
X174460403Y-56974936D01*
X174225001Y-56954341D01*
X174224999Y-56954341D01*
X173989596Y-56974936D01*
X173989586Y-56974938D01*
X173761344Y-57036094D01*
X173761335Y-57036098D01*
X173547171Y-57135964D01*
X173547169Y-57135965D01*
X173353597Y-57271505D01*
X173186505Y-57438597D01*
X173056575Y-57624158D01*
X173001998Y-57667783D01*
X172932500Y-57674977D01*
X172870145Y-57643454D01*
X172853425Y-57624158D01*
X172723494Y-57438597D01*
X172556402Y-57271506D01*
X172556395Y-57271501D01*
X172362834Y-57135967D01*
X172362830Y-57135965D01*
X172362828Y-57135964D01*
X172148663Y-57036097D01*
X172148659Y-57036096D01*
X172148655Y-57036094D01*
X171920413Y-56974938D01*
X171920403Y-56974936D01*
X171685001Y-56954341D01*
X171684999Y-56954341D01*
X171449596Y-56974936D01*
X171449586Y-56974938D01*
X171221344Y-57036094D01*
X171221335Y-57036098D01*
X171007171Y-57135964D01*
X171007169Y-57135965D01*
X170813597Y-57271505D01*
X170646505Y-57438597D01*
X170516575Y-57624158D01*
X170461998Y-57667783D01*
X170392500Y-57674977D01*
X170330145Y-57643454D01*
X170313425Y-57624158D01*
X170183494Y-57438597D01*
X170016402Y-57271506D01*
X170016395Y-57271501D01*
X169822834Y-57135967D01*
X169822830Y-57135965D01*
X169822828Y-57135964D01*
X169608663Y-57036097D01*
X169608659Y-57036096D01*
X169608655Y-57036094D01*
X169380413Y-56974938D01*
X169380403Y-56974936D01*
X169145001Y-56954341D01*
X169144999Y-56954341D01*
X168909596Y-56974936D01*
X168909586Y-56974938D01*
X168681344Y-57036094D01*
X168681335Y-57036098D01*
X168467171Y-57135964D01*
X168467169Y-57135965D01*
X168273600Y-57271503D01*
X168151673Y-57393430D01*
X168090350Y-57426914D01*
X168020658Y-57421930D01*
X167964725Y-57380058D01*
X167947810Y-57349081D01*
X167898797Y-57217671D01*
X167898793Y-57217664D01*
X167812547Y-57102455D01*
X167812544Y-57102452D01*
X167697335Y-57016206D01*
X167697328Y-57016202D01*
X167562482Y-56965908D01*
X167562483Y-56965908D01*
X167502883Y-56959501D01*
X167502881Y-56959500D01*
X167502873Y-56959500D01*
X167502864Y-56959500D01*
X165707129Y-56959500D01*
X165707123Y-56959501D01*
X165647516Y-56965908D01*
X165512671Y-57016202D01*
X165512664Y-57016206D01*
X165397455Y-57102452D01*
X165397452Y-57102455D01*
X165311206Y-57217664D01*
X165311202Y-57217671D01*
X165260908Y-57352517D01*
X165254501Y-57412116D01*
X165254500Y-57412135D01*
X120125500Y-57412135D01*
X120125500Y-54290000D01*
X130449999Y-54290000D01*
X130450000Y-54290000D01*
X146125000Y-54290000D01*
X146125000Y-48900000D01*
X150119678Y-48900000D01*
X150138915Y-49083029D01*
X150138916Y-49083032D01*
X150195783Y-49258053D01*
X150195786Y-49258059D01*
X150287805Y-49417440D01*
X150397327Y-49539077D01*
X150410949Y-49554206D01*
X150410951Y-49554208D01*
X150559834Y-49662378D01*
X150559835Y-49662378D01*
X150559839Y-49662381D01*
X150696953Y-49723428D01*
X150727961Y-49737234D01*
X150727966Y-49737236D01*
X150907981Y-49775500D01*
X151092019Y-49775500D01*
X151272034Y-49737236D01*
X151440161Y-49662381D01*
X151589050Y-49554207D01*
X151712195Y-49417440D01*
X151804214Y-49258059D01*
X151861085Y-49083029D01*
X151880322Y-48900000D01*
X151861085Y-48716971D01*
X151804214Y-48541941D01*
X151712195Y-48382560D01*
X151589050Y-48245793D01*
X151589048Y-48245791D01*
X151440165Y-48137621D01*
X151440162Y-48137619D01*
X151440161Y-48137619D01*
X151379112Y-48110438D01*
X151272038Y-48062765D01*
X151272033Y-48062763D01*
X151092019Y-48024500D01*
X150907981Y-48024500D01*
X150727966Y-48062763D01*
X150727961Y-48062765D01*
X150559839Y-48137619D01*
X150559834Y-48137621D01*
X150410951Y-48245791D01*
X150410949Y-48245793D01*
X150287804Y-48382561D01*
X150195786Y-48541940D01*
X150195783Y-48541946D01*
X150138916Y-48716967D01*
X150138915Y-48716971D01*
X150119678Y-48900000D01*
X146125000Y-48900000D01*
X146125000Y-47965000D01*
X130475000Y-47965000D01*
X130449999Y-54290000D01*
X120125500Y-54290000D01*
X120125500Y-41092135D01*
X144269500Y-41092135D01*
X144269500Y-42887870D01*
X144269501Y-42887876D01*
X144275908Y-42947483D01*
X144326202Y-43082328D01*
X144326206Y-43082335D01*
X144412452Y-43197544D01*
X144412455Y-43197547D01*
X144527664Y-43283793D01*
X144527671Y-43283797D01*
X144662517Y-43334091D01*
X144662516Y-43334091D01*
X144669444Y-43334835D01*
X144722127Y-43340500D01*
X146517872Y-43340499D01*
X146577483Y-43334091D01*
X146712331Y-43283796D01*
X146827546Y-43197546D01*
X146913796Y-43082331D01*
X146962810Y-42950916D01*
X147004681Y-42894984D01*
X147070145Y-42870566D01*
X147138418Y-42885417D01*
X147166673Y-42906569D01*
X147288599Y-43028495D01*
X147385384Y-43096265D01*
X147482165Y-43164032D01*
X147482167Y-43164033D01*
X147482170Y-43164035D01*
X147696337Y-43263903D01*
X147924592Y-43325063D01*
X148101034Y-43340500D01*
X148159999Y-43345659D01*
X148160000Y-43345659D01*
X148160001Y-43345659D01*
X148218966Y-43340500D01*
X148395408Y-43325063D01*
X148623663Y-43263903D01*
X148837830Y-43164035D01*
X149031401Y-43028495D01*
X149198495Y-42861401D01*
X149328425Y-42675842D01*
X149383002Y-42632217D01*
X149452500Y-42625023D01*
X149514855Y-42656546D01*
X149531575Y-42675842D01*
X149661500Y-42861395D01*
X149661505Y-42861401D01*
X149828599Y-43028495D01*
X149925384Y-43096265D01*
X150022165Y-43164032D01*
X150022167Y-43164033D01*
X150022170Y-43164035D01*
X150236337Y-43263903D01*
X150464592Y-43325063D01*
X150641034Y-43340500D01*
X150699999Y-43345659D01*
X150700000Y-43345659D01*
X150700001Y-43345659D01*
X150758966Y-43340500D01*
X150935408Y-43325063D01*
X151163663Y-43263903D01*
X151377830Y-43164035D01*
X151571401Y-43028495D01*
X151738495Y-42861401D01*
X151868425Y-42675842D01*
X151923002Y-42632217D01*
X151992500Y-42625023D01*
X152054855Y-42656546D01*
X152071575Y-42675842D01*
X152201500Y-42861395D01*
X152201505Y-42861401D01*
X152368599Y-43028495D01*
X152465384Y-43096265D01*
X152562165Y-43164032D01*
X152562167Y-43164033D01*
X152562170Y-43164035D01*
X152776337Y-43263903D01*
X153004592Y-43325063D01*
X153181034Y-43340500D01*
X153239999Y-43345659D01*
X153240000Y-43345659D01*
X153240001Y-43345659D01*
X153298966Y-43340500D01*
X153475408Y-43325063D01*
X153703663Y-43263903D01*
X153917830Y-43164035D01*
X154111401Y-43028495D01*
X154278495Y-42861401D01*
X154408425Y-42675842D01*
X154463002Y-42632217D01*
X154532500Y-42625023D01*
X154594855Y-42656546D01*
X154611575Y-42675842D01*
X154741500Y-42861395D01*
X154741505Y-42861401D01*
X154908599Y-43028495D01*
X155005384Y-43096265D01*
X155102165Y-43164032D01*
X155102167Y-43164033D01*
X155102170Y-43164035D01*
X155316337Y-43263903D01*
X155544592Y-43325063D01*
X155721034Y-43340500D01*
X155779999Y-43345659D01*
X155780000Y-43345659D01*
X155780001Y-43345659D01*
X155838966Y-43340500D01*
X156015408Y-43325063D01*
X156243663Y-43263903D01*
X156457830Y-43164035D01*
X156651401Y-43028495D01*
X156818495Y-42861401D01*
X156954035Y-42667830D01*
X157053903Y-42453663D01*
X157115063Y-42225408D01*
X157135659Y-41990000D01*
X157115063Y-41754592D01*
X157053903Y-41526337D01*
X156954035Y-41312171D01*
X156948425Y-41304158D01*
X156818494Y-41118597D01*
X156651402Y-40951506D01*
X156651395Y-40951501D01*
X156457834Y-40815967D01*
X156457830Y-40815965D01*
X156457828Y-40815964D01*
X156243663Y-40716097D01*
X156243659Y-40716096D01*
X156243655Y-40716094D01*
X156015413Y-40654938D01*
X156015403Y-40654936D01*
X155780001Y-40634341D01*
X155779999Y-40634341D01*
X155544596Y-40654936D01*
X155544586Y-40654938D01*
X155316344Y-40716094D01*
X155316335Y-40716098D01*
X155102171Y-40815964D01*
X155102169Y-40815965D01*
X154908597Y-40951505D01*
X154741505Y-41118597D01*
X154611575Y-41304158D01*
X154556998Y-41347783D01*
X154487500Y-41354977D01*
X154425145Y-41323454D01*
X154408425Y-41304158D01*
X154278494Y-41118597D01*
X154111402Y-40951506D01*
X154111395Y-40951501D01*
X153917834Y-40815967D01*
X153917830Y-40815965D01*
X153917828Y-40815964D01*
X153703663Y-40716097D01*
X153703659Y-40716096D01*
X153703655Y-40716094D01*
X153475413Y-40654938D01*
X153475403Y-40654936D01*
X153240001Y-40634341D01*
X153239999Y-40634341D01*
X153004596Y-40654936D01*
X153004586Y-40654938D01*
X152776344Y-40716094D01*
X152776335Y-40716098D01*
X152562171Y-40815964D01*
X152562169Y-40815965D01*
X152368597Y-40951505D01*
X152201505Y-41118597D01*
X152071575Y-41304158D01*
X152016998Y-41347783D01*
X151947500Y-41354977D01*
X151885145Y-41323454D01*
X151868425Y-41304158D01*
X151738494Y-41118597D01*
X151571402Y-40951506D01*
X151571395Y-40951501D01*
X151377834Y-40815967D01*
X151377830Y-40815965D01*
X151377828Y-40815964D01*
X151163663Y-40716097D01*
X151163659Y-40716096D01*
X151163655Y-40716094D01*
X150935413Y-40654938D01*
X150935403Y-40654936D01*
X150700001Y-40634341D01*
X150699999Y-40634341D01*
X150464596Y-40654936D01*
X150464586Y-40654938D01*
X150236344Y-40716094D01*
X150236335Y-40716098D01*
X150022171Y-40815964D01*
X150022169Y-40815965D01*
X149828597Y-40951505D01*
X149661505Y-41118597D01*
X149531575Y-41304158D01*
X149476998Y-41347783D01*
X149407500Y-41354977D01*
X149345145Y-41323454D01*
X149328425Y-41304158D01*
X149198494Y-41118597D01*
X149031402Y-40951506D01*
X149031395Y-40951501D01*
X148837834Y-40815967D01*
X148837830Y-40815965D01*
X148837828Y-40815964D01*
X148623663Y-40716097D01*
X148623659Y-40716096D01*
X148623655Y-40716094D01*
X148395413Y-40654938D01*
X148395403Y-40654936D01*
X148160001Y-40634341D01*
X148159999Y-40634341D01*
X147924596Y-40654936D01*
X147924586Y-40654938D01*
X147696344Y-40716094D01*
X147696335Y-40716098D01*
X147482171Y-40815964D01*
X147482169Y-40815965D01*
X147288600Y-40951503D01*
X147166673Y-41073430D01*
X147105350Y-41106914D01*
X147035658Y-41101930D01*
X146979725Y-41060058D01*
X146962810Y-41029081D01*
X146913797Y-40897671D01*
X146913793Y-40897664D01*
X146827547Y-40782455D01*
X146827544Y-40782452D01*
X146712335Y-40696206D01*
X146712328Y-40696202D01*
X146577482Y-40645908D01*
X146577483Y-40645908D01*
X146517883Y-40639501D01*
X146517881Y-40639500D01*
X146517873Y-40639500D01*
X146517864Y-40639500D01*
X144722129Y-40639500D01*
X144722123Y-40639501D01*
X144662516Y-40645908D01*
X144527671Y-40696202D01*
X144527664Y-40696206D01*
X144412455Y-40782452D01*
X144412452Y-40782455D01*
X144326206Y-40897664D01*
X144326202Y-40897671D01*
X144275908Y-41032517D01*
X144269501Y-41092116D01*
X144269500Y-41092135D01*
X120125500Y-41092135D01*
X120125500Y-39649993D01*
X135249656Y-39649993D01*
X135249656Y-39650006D01*
X135268820Y-39881297D01*
X135268822Y-39881308D01*
X135325798Y-40106300D01*
X135419031Y-40318848D01*
X135545972Y-40513147D01*
X135545975Y-40513151D01*
X135545977Y-40513153D01*
X135703172Y-40683913D01*
X135703175Y-40683915D01*
X135703178Y-40683918D01*
X135886321Y-40826464D01*
X135886327Y-40826468D01*
X135886330Y-40826470D01*
X136090453Y-40936936D01*
X136204443Y-40976068D01*
X136309971Y-41012297D01*
X136309973Y-41012297D01*
X136309975Y-41012298D01*
X136538907Y-41050500D01*
X136538908Y-41050500D01*
X136771004Y-41050500D01*
X136771005Y-41050500D01*
X136999937Y-41012298D01*
X137219459Y-40936936D01*
X137423582Y-40826470D01*
X137437077Y-40815967D01*
X137485085Y-40778600D01*
X137606740Y-40683913D01*
X137763935Y-40513153D01*
X137890880Y-40318849D01*
X137984113Y-40106300D01*
X138041090Y-39881305D01*
X138060256Y-39650000D01*
X138060256Y-39649993D01*
X138041091Y-39418702D01*
X138041089Y-39418691D01*
X138039668Y-39413082D01*
X137984113Y-39193700D01*
X137929882Y-39070067D01*
X137920980Y-39000770D01*
X137950957Y-38937657D01*
X137984416Y-38911207D01*
X138048605Y-38876471D01*
X138231763Y-38733914D01*
X138231767Y-38733909D01*
X138231770Y-38733907D01*
X138245466Y-38719028D01*
X138263711Y-38699208D01*
X138323595Y-38663217D01*
X138393434Y-38665315D01*
X138446170Y-38699204D01*
X138478122Y-38733914D01*
X138478125Y-38733916D01*
X138478128Y-38733919D01*
X138661271Y-38876465D01*
X138661281Y-38876472D01*
X138697909Y-38896294D01*
X138725519Y-38911235D01*
X138775110Y-38960454D01*
X138790218Y-39028670D01*
X138780058Y-39070100D01*
X138725843Y-39193699D01*
X138668866Y-39418691D01*
X138668864Y-39418702D01*
X138649700Y-39649993D01*
X138649700Y-39650006D01*
X138668864Y-39881297D01*
X138668866Y-39881308D01*
X138725842Y-40106300D01*
X138819075Y-40318848D01*
X138946016Y-40513147D01*
X138946019Y-40513151D01*
X138946021Y-40513153D01*
X139103216Y-40683913D01*
X139103219Y-40683915D01*
X139103222Y-40683918D01*
X139286365Y-40826464D01*
X139286371Y-40826468D01*
X139286374Y-40826470D01*
X139490497Y-40936936D01*
X139604487Y-40976068D01*
X139710015Y-41012297D01*
X139710017Y-41012297D01*
X139710019Y-41012298D01*
X139938951Y-41050500D01*
X139938952Y-41050500D01*
X140171048Y-41050500D01*
X140171049Y-41050500D01*
X140399981Y-41012298D01*
X140619503Y-40936936D01*
X140823626Y-40826470D01*
X140837121Y-40815967D01*
X140885129Y-40778600D01*
X141006784Y-40683913D01*
X141163979Y-40513153D01*
X141290924Y-40318849D01*
X141384157Y-40106300D01*
X141441134Y-39881305D01*
X141460300Y-39650000D01*
X141460300Y-39649993D01*
X141441135Y-39418702D01*
X141441133Y-39418691D01*
X141384157Y-39193699D01*
X141290924Y-38981151D01*
X141163983Y-38786852D01*
X141163980Y-38786849D01*
X141163979Y-38786847D01*
X141006784Y-38616087D01*
X141006779Y-38616083D01*
X141006777Y-38616081D01*
X140823634Y-38473535D01*
X140823619Y-38473525D01*
X140759385Y-38438763D01*
X140709794Y-38389543D01*
X140694687Y-38321327D01*
X140704845Y-38279903D01*
X140759063Y-38156301D01*
X140816040Y-37931306D01*
X140835206Y-37700001D01*
X140835206Y-37699994D01*
X140816041Y-37468703D01*
X140816039Y-37468692D01*
X140759063Y-37243700D01*
X140665830Y-37031152D01*
X140538889Y-36836853D01*
X140538886Y-36836850D01*
X140538885Y-36836848D01*
X140381690Y-36666088D01*
X140381685Y-36666084D01*
X140381683Y-36666082D01*
X140198540Y-36523536D01*
X140198534Y-36523532D01*
X139994410Y-36413065D01*
X139994401Y-36413062D01*
X139774890Y-36337703D01*
X139603188Y-36309051D01*
X139545955Y-36299501D01*
X139313857Y-36299501D01*
X139268070Y-36307141D01*
X139084921Y-36337703D01*
X138865410Y-36413062D01*
X138865401Y-36413065D01*
X138661277Y-36523532D01*
X138532020Y-36624137D01*
X138478122Y-36666088D01*
X138478119Y-36666090D01*
X138478118Y-36666092D01*
X138446171Y-36700796D01*
X138386284Y-36736786D01*
X138316446Y-36734685D01*
X138263712Y-36700794D01*
X138231765Y-36666090D01*
X138231756Y-36666082D01*
X138048613Y-36523536D01*
X138048607Y-36523532D01*
X137844483Y-36413065D01*
X137844474Y-36413062D01*
X137624963Y-36337703D01*
X137453261Y-36309051D01*
X137396028Y-36299501D01*
X137163930Y-36299501D01*
X137118143Y-36307141D01*
X136934994Y-36337703D01*
X136715483Y-36413062D01*
X136715474Y-36413065D01*
X136511350Y-36523532D01*
X136511344Y-36523536D01*
X136328201Y-36666082D01*
X136328198Y-36666085D01*
X136328195Y-36666087D01*
X136328195Y-36666088D01*
X136296246Y-36700794D01*
X136170995Y-36836853D01*
X136044054Y-37031152D01*
X135950821Y-37243700D01*
X135893845Y-37468692D01*
X135893843Y-37468703D01*
X135874679Y-37699994D01*
X135874679Y-37700007D01*
X135893843Y-37931298D01*
X135893845Y-37931309D01*
X135950821Y-38156301D01*
X136005051Y-38279931D01*
X136013954Y-38349231D01*
X135983977Y-38412343D01*
X135950513Y-38438795D01*
X135886337Y-38473525D01*
X135886332Y-38473528D01*
X135886330Y-38473530D01*
X135886324Y-38473535D01*
X135703173Y-38616086D01*
X135545972Y-38786852D01*
X135419031Y-38981151D01*
X135325798Y-39193699D01*
X135268822Y-39418691D01*
X135268820Y-39418702D01*
X135249656Y-39649993D01*
X120125500Y-39649993D01*
X120125500Y-18206092D01*
X120126097Y-18193939D01*
X120130407Y-18150172D01*
X120138704Y-18065928D01*
X120143442Y-18042104D01*
X120179010Y-17924855D01*
X120188306Y-17902413D01*
X120246061Y-17794363D01*
X120259556Y-17774165D01*
X120337279Y-17679458D01*
X120354458Y-17662279D01*
X120449165Y-17584556D01*
X120469360Y-17571062D01*
X120528146Y-17539640D01*
X120586597Y-17525000D01*
X205269403Y-17525000D01*
X205327856Y-17539642D01*
G37*
%TD.AperFunction*%
%TD*%
%TA.AperFunction,Conductor*%
%TO.N,GND2*%
G36*
X205673539Y-50400185D02*
G01*
X205719294Y-50452989D01*
X205730500Y-50504500D01*
X205730500Y-70696129D01*
X205710815Y-70763168D01*
X205658011Y-70808923D01*
X205606638Y-70820129D01*
X202417668Y-70823672D01*
X202399875Y-70824006D01*
X202391226Y-70824320D01*
X202374257Y-70825236D01*
X202373522Y-70825276D01*
X202373517Y-70825276D01*
X202232936Y-70855858D01*
X202232931Y-70855859D01*
X202232930Y-70855860D01*
X202217104Y-70861762D01*
X202167464Y-70880277D01*
X202167460Y-70880279D01*
X202041192Y-70949227D01*
X201939454Y-71050961D01*
X201939448Y-71050968D01*
X201903479Y-71099016D01*
X201897579Y-71106898D01*
X201897573Y-71106906D01*
X201888623Y-71123296D01*
X201887623Y-71125128D01*
X201838217Y-71174532D01*
X201769944Y-71189383D01*
X201746699Y-71185474D01*
X201595413Y-71144938D01*
X201595403Y-71144936D01*
X201360001Y-71124341D01*
X201359999Y-71124341D01*
X201124596Y-71144936D01*
X201124586Y-71144938D01*
X200969524Y-71186486D01*
X200899674Y-71184823D01*
X200841811Y-71145660D01*
X200833190Y-71133866D01*
X200793615Y-71072436D01*
X200793612Y-71072431D01*
X200752977Y-71025642D01*
X200752444Y-71024943D01*
X200747800Y-71019679D01*
X200638961Y-70925582D01*
X200638959Y-70925580D01*
X200508017Y-70865956D01*
X200440956Y-70846346D01*
X200440947Y-70846344D01*
X200298523Y-70826028D01*
X200298516Y-70826027D01*
X195630216Y-70831214D01*
X195563154Y-70811604D01*
X195517341Y-70758851D01*
X195506078Y-70707069D01*
X195507902Y-69151606D01*
X195509955Y-67399999D01*
X200004341Y-67399999D01*
X200004341Y-67400000D01*
X200024936Y-67635403D01*
X200024938Y-67635413D01*
X200086094Y-67863655D01*
X200086096Y-67863659D01*
X200086097Y-67863663D01*
X200156462Y-68014561D01*
X200185965Y-68077830D01*
X200185967Y-68077834D01*
X200294281Y-68232521D01*
X200321505Y-68271401D01*
X200488599Y-68438495D01*
X200508149Y-68452184D01*
X200682165Y-68574032D01*
X200682167Y-68574033D01*
X200682170Y-68574035D01*
X200896337Y-68673903D01*
X201124592Y-68735063D01*
X201270368Y-68747817D01*
X201359999Y-68755659D01*
X201360000Y-68755659D01*
X201360001Y-68755659D01*
X201399234Y-68752226D01*
X201595408Y-68735063D01*
X201823663Y-68673903D01*
X202037830Y-68574035D01*
X202231401Y-68438495D01*
X202398495Y-68271401D01*
X202534035Y-68077830D01*
X202633903Y-67863663D01*
X202695063Y-67635408D01*
X202715659Y-67400000D01*
X202695063Y-67164592D01*
X202633903Y-66936337D01*
X202534035Y-66722171D01*
X202503383Y-66678394D01*
X202398494Y-66528597D01*
X202231402Y-66361506D01*
X202231395Y-66361501D01*
X202037834Y-66225967D01*
X202037830Y-66225965D01*
X202037828Y-66225964D01*
X201823663Y-66126097D01*
X201823659Y-66126096D01*
X201823655Y-66126094D01*
X201595413Y-66064938D01*
X201595403Y-66064936D01*
X201360001Y-66044341D01*
X201359999Y-66044341D01*
X201124596Y-66064936D01*
X201124586Y-66064938D01*
X200896344Y-66126094D01*
X200896335Y-66126098D01*
X200682171Y-66225964D01*
X200682169Y-66225965D01*
X200488597Y-66361505D01*
X200321505Y-66528597D01*
X200185965Y-66722169D01*
X200185964Y-66722171D01*
X200086098Y-66936335D01*
X200086094Y-66936344D01*
X200024938Y-67164586D01*
X200024936Y-67164596D01*
X200004341Y-67399999D01*
X195509955Y-67399999D01*
X195518741Y-59904996D01*
X201140760Y-59904996D01*
X201140760Y-59905003D01*
X201159063Y-60067455D01*
X201213061Y-60221774D01*
X201249907Y-60280413D01*
X201300043Y-60360204D01*
X201415647Y-60475808D01*
X201554076Y-60562789D01*
X201708390Y-60616786D01*
X201708393Y-60616786D01*
X201708395Y-60616787D01*
X201870847Y-60635091D01*
X201870851Y-60635091D01*
X201870855Y-60635091D01*
X202033306Y-60616787D01*
X202033307Y-60616786D01*
X202033312Y-60616786D01*
X202187626Y-60562789D01*
X202254696Y-60520645D01*
X202321931Y-60501645D01*
X202388767Y-60522012D01*
X202433050Y-60573234D01*
X202502808Y-60722830D01*
X202502810Y-60722834D01*
X202611124Y-60877521D01*
X202638348Y-60916401D01*
X202805442Y-61083495D01*
X202820358Y-61093939D01*
X202999008Y-61219032D01*
X202999010Y-61219033D01*
X202999013Y-61219035D01*
X203213180Y-61318903D01*
X203441435Y-61380063D01*
X203629761Y-61396539D01*
X203676842Y-61400659D01*
X203676843Y-61400659D01*
X203676844Y-61400659D01*
X203716077Y-61397226D01*
X203912251Y-61380063D01*
X204140506Y-61318903D01*
X204354673Y-61219035D01*
X204548244Y-61083495D01*
X204715338Y-60916401D01*
X204850878Y-60722830D01*
X204950746Y-60508663D01*
X205011906Y-60280408D01*
X205032502Y-60045000D01*
X205011906Y-59809592D01*
X204950746Y-59581337D01*
X204850878Y-59367171D01*
X204766882Y-59247211D01*
X204715337Y-59173597D01*
X204548245Y-59006506D01*
X204548239Y-59006501D01*
X204362685Y-58876575D01*
X204319060Y-58821998D01*
X204311866Y-58752500D01*
X204343389Y-58690145D01*
X204362685Y-58673425D01*
X204402544Y-58645515D01*
X204548244Y-58543495D01*
X204715338Y-58376401D01*
X204850878Y-58182830D01*
X204950746Y-57968663D01*
X205011906Y-57740408D01*
X205032502Y-57505000D01*
X205011906Y-57269592D01*
X204950746Y-57041337D01*
X204850878Y-56827171D01*
X204715338Y-56633599D01*
X204715337Y-56633597D01*
X204548245Y-56466506D01*
X204548239Y-56466501D01*
X204362685Y-56336575D01*
X204319060Y-56281998D01*
X204311866Y-56212500D01*
X204343389Y-56150145D01*
X204362685Y-56133425D01*
X204384869Y-56117891D01*
X204548244Y-56003495D01*
X204715338Y-55836401D01*
X204850878Y-55642830D01*
X204950746Y-55428663D01*
X205011906Y-55200408D01*
X205032502Y-54965000D01*
X205011906Y-54729592D01*
X204950746Y-54501337D01*
X204850878Y-54287171D01*
X204715338Y-54093599D01*
X204593410Y-53971671D01*
X204559927Y-53910351D01*
X204564911Y-53840659D01*
X204606782Y-53784725D01*
X204637758Y-53767810D01*
X204769174Y-53718796D01*
X204884389Y-53632546D01*
X204970639Y-53517331D01*
X205020934Y-53382483D01*
X205027343Y-53322873D01*
X205027342Y-51527128D01*
X205020934Y-51467517D01*
X204970639Y-51332669D01*
X204970638Y-51332668D01*
X204970636Y-51332664D01*
X204884390Y-51217455D01*
X204884387Y-51217452D01*
X204769178Y-51131206D01*
X204769171Y-51131202D01*
X204634325Y-51080908D01*
X204634326Y-51080908D01*
X204574726Y-51074501D01*
X204574724Y-51074500D01*
X204574716Y-51074500D01*
X204574707Y-51074500D01*
X202778972Y-51074500D01*
X202778966Y-51074501D01*
X202719359Y-51080908D01*
X202584514Y-51131202D01*
X202584507Y-51131206D01*
X202469298Y-51217452D01*
X202469295Y-51217455D01*
X202383049Y-51332664D01*
X202383045Y-51332671D01*
X202332751Y-51467517D01*
X202326344Y-51527116D01*
X202326344Y-51527123D01*
X202326343Y-51527135D01*
X202326343Y-53322870D01*
X202326344Y-53322876D01*
X202332751Y-53382483D01*
X202383045Y-53517328D01*
X202383049Y-53517335D01*
X202469295Y-53632544D01*
X202469298Y-53632547D01*
X202584507Y-53718793D01*
X202584514Y-53718797D01*
X202715924Y-53767810D01*
X202771858Y-53809681D01*
X202796275Y-53875145D01*
X202781423Y-53943418D01*
X202760273Y-53971673D01*
X202638346Y-54093600D01*
X202502808Y-54287169D01*
X202502807Y-54287171D01*
X202402941Y-54501335D01*
X202402937Y-54501344D01*
X202341781Y-54729586D01*
X202341779Y-54729596D01*
X202321184Y-54964999D01*
X202321184Y-54965000D01*
X202341779Y-55200403D01*
X202341781Y-55200413D01*
X202402937Y-55428655D01*
X202402939Y-55428659D01*
X202402940Y-55428663D01*
X202502808Y-55642830D01*
X202502810Y-55642834D01*
X202638344Y-55836395D01*
X202638349Y-55836402D01*
X202805440Y-56003493D01*
X202805446Y-56003498D01*
X202991001Y-56133425D01*
X203034626Y-56188002D01*
X203041820Y-56257500D01*
X203010297Y-56319855D01*
X202991001Y-56336575D01*
X202805440Y-56466505D01*
X202638348Y-56633597D01*
X202502808Y-56827169D01*
X202502807Y-56827171D01*
X202402941Y-57041335D01*
X202402937Y-57041344D01*
X202341781Y-57269586D01*
X202341779Y-57269596D01*
X202321184Y-57504999D01*
X202321184Y-57505000D01*
X202341779Y-57740403D01*
X202341781Y-57740413D01*
X202402937Y-57968655D01*
X202402939Y-57968659D01*
X202402940Y-57968663D01*
X202493425Y-58162709D01*
X202502808Y-58182830D01*
X202502810Y-58182834D01*
X202638344Y-58376395D01*
X202638349Y-58376402D01*
X202805440Y-58543493D01*
X202805446Y-58543498D01*
X202991001Y-58673425D01*
X203034626Y-58728002D01*
X203041820Y-58797500D01*
X203010297Y-58859855D01*
X202991001Y-58876575D01*
X202805440Y-59006505D01*
X202638348Y-59173597D01*
X202528358Y-59330681D01*
X202473781Y-59374306D01*
X202404283Y-59381500D01*
X202341928Y-59349977D01*
X202339102Y-59347239D01*
X202326055Y-59334192D01*
X202187625Y-59247210D01*
X202033306Y-59193212D01*
X201870855Y-59174909D01*
X201870847Y-59174909D01*
X201708395Y-59193212D01*
X201554076Y-59247210D01*
X201415646Y-59334192D01*
X201300043Y-59449795D01*
X201213061Y-59588225D01*
X201159063Y-59742544D01*
X201140760Y-59904996D01*
X195518741Y-59904996D01*
X195519905Y-58912452D01*
X195529762Y-50504355D01*
X195549525Y-50437338D01*
X195602383Y-50391645D01*
X195653762Y-50380500D01*
X205606500Y-50380500D01*
X205673539Y-50400185D01*
G37*
%TD.AperFunction*%
%TD*%
%TA.AperFunction,Conductor*%
%TO.N,GND1*%
G36*
X182400000Y-93200000D02*
G01*
X181500000Y-93200000D01*
X181500000Y-91800000D01*
X182400000Y-91800000D01*
X182400000Y-93200000D01*
G37*
%TD.AperFunction*%
%TD*%
%TA.AperFunction,Conductor*%
%TO.N,GND1*%
G36*
X182400000Y-95100000D02*
G01*
X181500000Y-95100000D01*
X181500000Y-93700000D01*
X182400000Y-93700000D01*
X182400000Y-95100000D01*
G37*
%TD.AperFunction*%
%TD*%
%TA.AperFunction,Conductor*%
%TO.N,GND1*%
G36*
X144400026Y-94000000D02*
G01*
X143800000Y-94000000D01*
X143800000Y-95233992D01*
X143675004Y-95219909D01*
X143674996Y-95219909D01*
X143512544Y-95238212D01*
X143358225Y-95292210D01*
X143219795Y-95379192D01*
X143104192Y-95494795D01*
X143017210Y-95633225D01*
X142963212Y-95787544D01*
X142944909Y-95949996D01*
X142944909Y-95950003D01*
X142963212Y-96112455D01*
X143017210Y-96266774D01*
X143017211Y-96266775D01*
X143104192Y-96405204D01*
X143219796Y-96520808D01*
X143358225Y-96607789D01*
X143512539Y-96661786D01*
X143512542Y-96661786D01*
X143512544Y-96661787D01*
X143674996Y-96680091D01*
X143675000Y-96680091D01*
X143675004Y-96680091D01*
X143800000Y-96666007D01*
X143800000Y-110600000D01*
X144417069Y-110600000D01*
X144423405Y-116771500D01*
X120881092Y-116771500D01*
X120868938Y-116770903D01*
X120740935Y-116758296D01*
X120717095Y-116753554D01*
X120599864Y-116717992D01*
X120577407Y-116708690D01*
X120469369Y-116650942D01*
X120449159Y-116637438D01*
X120354464Y-116559725D01*
X120337274Y-116542535D01*
X120259561Y-116447840D01*
X120246057Y-116427630D01*
X120188309Y-116319592D01*
X120179008Y-116297140D01*
X120143443Y-116179897D01*
X120138704Y-116156069D01*
X120126097Y-116028060D01*
X120125500Y-116015907D01*
X120125500Y-101429999D01*
X121406127Y-101429999D01*
X121406127Y-101430000D01*
X121425977Y-101644228D01*
X121484855Y-101851159D01*
X121484860Y-101851172D01*
X121580751Y-102043746D01*
X121580753Y-102043749D01*
X121580755Y-102043753D01*
X121710409Y-102215444D01*
X121710412Y-102215446D01*
X121710414Y-102215449D01*
X121869402Y-102360385D01*
X121869404Y-102360386D01*
X121869405Y-102360387D01*
X122052326Y-102473647D01*
X122252944Y-102551367D01*
X122464427Y-102590900D01*
X122464429Y-102590900D01*
X122679571Y-102590900D01*
X122679573Y-102590900D01*
X122891056Y-102551367D01*
X123091674Y-102473647D01*
X123274595Y-102360387D01*
X123433591Y-102215444D01*
X123563245Y-102043753D01*
X123659144Y-101851162D01*
X123718022Y-101644229D01*
X123737873Y-101430000D01*
X123718022Y-101215771D01*
X123659144Y-101008838D01*
X123642296Y-100975003D01*
X123642293Y-100974996D01*
X138244909Y-100974996D01*
X138244909Y-100975003D01*
X138263212Y-101137455D01*
X138317210Y-101291774D01*
X138317211Y-101291775D01*
X138404192Y-101430204D01*
X138519796Y-101545808D01*
X138658225Y-101632789D01*
X138812539Y-101686786D01*
X138812542Y-101686786D01*
X138812544Y-101686787D01*
X138974996Y-101705091D01*
X138975000Y-101705091D01*
X138975004Y-101705091D01*
X139137455Y-101686787D01*
X139137456Y-101686786D01*
X139137461Y-101686786D01*
X139291775Y-101632789D01*
X139430204Y-101545808D01*
X139545808Y-101430204D01*
X139632789Y-101291775D01*
X139686786Y-101137461D01*
X139701278Y-101008840D01*
X139705091Y-100975003D01*
X139705091Y-100974996D01*
X139686787Y-100812544D01*
X139686786Y-100812542D01*
X139686786Y-100812539D01*
X139632789Y-100658225D01*
X139545808Y-100519796D01*
X139430204Y-100404192D01*
X139291774Y-100317210D01*
X139137455Y-100263212D01*
X138975004Y-100244909D01*
X138974996Y-100244909D01*
X138812544Y-100263212D01*
X138658225Y-100317210D01*
X138519795Y-100404192D01*
X138404192Y-100519795D01*
X138317210Y-100658225D01*
X138263212Y-100812544D01*
X138244909Y-100974996D01*
X123642293Y-100974996D01*
X123563248Y-100816253D01*
X123563247Y-100816252D01*
X123563245Y-100816247D01*
X123433591Y-100644556D01*
X123433587Y-100644552D01*
X123433585Y-100644550D01*
X123274597Y-100499614D01*
X123234811Y-100474979D01*
X123091674Y-100386353D01*
X122891056Y-100308633D01*
X122679573Y-100269100D01*
X122464427Y-100269100D01*
X122252944Y-100308633D01*
X122197555Y-100330091D01*
X122052328Y-100386352D01*
X122052327Y-100386352D01*
X121869402Y-100499614D01*
X121710414Y-100644550D01*
X121710407Y-100644558D01*
X121580760Y-100816239D01*
X121580751Y-100816253D01*
X121484860Y-101008827D01*
X121484855Y-101008840D01*
X121425977Y-101215771D01*
X121406127Y-101429999D01*
X120125500Y-101429999D01*
X120125500Y-99599996D01*
X130019909Y-99599996D01*
X130019909Y-99600003D01*
X130038212Y-99762455D01*
X130092210Y-99916774D01*
X130092211Y-99916775D01*
X130179192Y-100055204D01*
X130294796Y-100170808D01*
X130433225Y-100257789D01*
X130587539Y-100311786D01*
X130587542Y-100311786D01*
X130587544Y-100311787D01*
X130749996Y-100330091D01*
X130750000Y-100330091D01*
X130750004Y-100330091D01*
X130912455Y-100311787D01*
X130912456Y-100311786D01*
X130912461Y-100311786D01*
X131066775Y-100257789D01*
X131205204Y-100170808D01*
X131320808Y-100055204D01*
X131407789Y-99916775D01*
X131461786Y-99762461D01*
X131480091Y-99600000D01*
X131461786Y-99437539D01*
X131407789Y-99283225D01*
X131320808Y-99144796D01*
X131205204Y-99029192D01*
X131066774Y-98942210D01*
X130912455Y-98888212D01*
X130750004Y-98869909D01*
X130749996Y-98869909D01*
X130587544Y-98888212D01*
X130433225Y-98942210D01*
X130294795Y-99029192D01*
X130179192Y-99144795D01*
X130092210Y-99283225D01*
X130038212Y-99437544D01*
X130019909Y-99599996D01*
X120125500Y-99599996D01*
X120125500Y-97699000D01*
X120145185Y-97631961D01*
X120197989Y-97586206D01*
X120249500Y-97575000D01*
X139300000Y-97575000D01*
X139324143Y-94122526D01*
X139344296Y-94055627D01*
X139397419Y-94010242D01*
X139447527Y-93999396D01*
X144399594Y-93975002D01*
X144400000Y-93975000D01*
X144400026Y-94000000D01*
G37*
%TD.AperFunction*%
%TD*%
%TA.AperFunction,Conductor*%
%TO.N,GND1*%
G36*
X174223034Y-84985470D02*
G01*
X174172033Y-84962763D01*
X173992019Y-84924500D01*
X173807981Y-84924500D01*
X173627966Y-84962763D01*
X173627961Y-84962765D01*
X173459839Y-85037619D01*
X173459834Y-85037621D01*
X173310951Y-85145791D01*
X173310949Y-85145793D01*
X173187804Y-85282561D01*
X173095786Y-85441940D01*
X173095783Y-85441946D01*
X173062042Y-85545793D01*
X173038915Y-85616971D01*
X173032021Y-85682560D01*
X173025938Y-85740436D01*
X172999353Y-85805050D01*
X172964618Y-85834860D01*
X172959833Y-85837622D01*
X172810951Y-85945791D01*
X172810949Y-85945793D01*
X172687804Y-86082561D01*
X172595786Y-86241940D01*
X172595783Y-86241946D01*
X172538916Y-86416967D01*
X172538915Y-86416971D01*
X172519678Y-86600000D01*
X172538915Y-86783029D01*
X172538916Y-86783032D01*
X172595783Y-86958053D01*
X172595786Y-86958059D01*
X172687805Y-87117440D01*
X172762142Y-87200000D01*
X172810949Y-87254206D01*
X172810951Y-87254208D01*
X172959834Y-87362378D01*
X172959835Y-87362378D01*
X172959839Y-87362381D01*
X173096953Y-87423428D01*
X173127961Y-87437234D01*
X173127962Y-87437234D01*
X173127966Y-87437236D01*
X173196037Y-87451705D01*
X173257519Y-87484897D01*
X173288187Y-87534674D01*
X173295786Y-87558059D01*
X173387805Y-87717440D01*
X173497327Y-87839077D01*
X173510949Y-87854206D01*
X173510951Y-87854208D01*
X173659834Y-87962378D01*
X173659835Y-87962378D01*
X173659839Y-87962381D01*
X173796953Y-88023428D01*
X173827961Y-88037234D01*
X173827966Y-88037236D01*
X174007981Y-88075500D01*
X174192019Y-88075500D01*
X174372034Y-88037236D01*
X174540161Y-87962381D01*
X174689050Y-87854207D01*
X174812195Y-87717440D01*
X174904214Y-87558059D01*
X174961085Y-87383029D01*
X174980322Y-87200000D01*
X174961085Y-87016971D01*
X174908200Y-86854208D01*
X174904216Y-86841946D01*
X174904213Y-86841940D01*
X174812195Y-86682560D01*
X174689050Y-86545793D01*
X174629706Y-86502677D01*
X174587040Y-86447347D01*
X174581061Y-86377734D01*
X174608670Y-86322908D01*
X174608377Y-86322695D01*
X174609682Y-86320898D01*
X174610445Y-86319383D01*
X174612195Y-86317440D01*
X174704214Y-86158059D01*
X174761085Y-85983029D01*
X174780322Y-85800000D01*
X174761085Y-85616971D01*
X174704214Y-85441941D01*
X174612195Y-85282560D01*
X174489050Y-85145793D01*
X174489048Y-85145791D01*
X174460431Y-85125000D01*
X179600000Y-85125000D01*
X179575172Y-88725000D01*
X179574999Y-88750000D01*
X179668387Y-88753220D01*
X181629557Y-88820846D01*
X181695877Y-88842829D01*
X181739785Y-88897178D01*
X181749280Y-88945513D01*
X181732750Y-91713212D01*
X181732232Y-91800000D01*
X181500000Y-91800000D01*
X181500000Y-93200000D01*
X181723870Y-93200000D01*
X181720884Y-93700000D01*
X181500000Y-93700000D01*
X181500000Y-95100000D01*
X181712522Y-95100000D01*
X181693036Y-98362378D01*
X181656975Y-104400000D01*
X181500000Y-104400000D01*
X181500000Y-105800000D01*
X181648614Y-105800000D01*
X181636321Y-107858225D01*
X181583820Y-116648241D01*
X181563735Y-116715161D01*
X181510659Y-116760600D01*
X181459822Y-116771500D01*
X144423405Y-116771500D01*
X144417069Y-110600000D01*
X144700000Y-110600000D01*
X144700000Y-109149996D01*
X172469909Y-109149996D01*
X172469909Y-109150003D01*
X172488212Y-109312455D01*
X172542210Y-109466774D01*
X172542211Y-109466775D01*
X172629192Y-109605204D01*
X172744796Y-109720808D01*
X172883225Y-109807789D01*
X173037539Y-109861786D01*
X173037542Y-109861786D01*
X173037544Y-109861787D01*
X173199996Y-109880091D01*
X173200000Y-109880091D01*
X173200004Y-109880091D01*
X173362455Y-109861787D01*
X173362456Y-109861786D01*
X173362461Y-109861786D01*
X173516775Y-109807789D01*
X173655204Y-109720808D01*
X173770808Y-109605204D01*
X173857789Y-109466775D01*
X173911786Y-109312461D01*
X173930091Y-109150000D01*
X173911786Y-108987539D01*
X173857789Y-108833225D01*
X173770808Y-108694796D01*
X173655204Y-108579192D01*
X173516774Y-108492210D01*
X173362455Y-108438212D01*
X173200004Y-108419909D01*
X173199996Y-108419909D01*
X173037544Y-108438212D01*
X172883225Y-108492210D01*
X172744795Y-108579192D01*
X172629192Y-108694795D01*
X172542210Y-108833225D01*
X172488212Y-108987544D01*
X172469909Y-109149996D01*
X144700000Y-109149996D01*
X144700000Y-108174996D01*
X158544909Y-108174996D01*
X158544909Y-108175003D01*
X158563212Y-108337455D01*
X158617210Y-108491774D01*
X158617211Y-108491775D01*
X158704192Y-108630204D01*
X158819796Y-108745808D01*
X158958225Y-108832789D01*
X159112539Y-108886786D01*
X159112542Y-108886786D01*
X159112544Y-108886787D01*
X159274996Y-108905091D01*
X159275000Y-108905091D01*
X159275004Y-108905091D01*
X159437455Y-108886787D01*
X159437456Y-108886786D01*
X159437461Y-108886786D01*
X159591775Y-108832789D01*
X159730204Y-108745808D01*
X159845808Y-108630204D01*
X159932789Y-108491775D01*
X159986786Y-108337461D01*
X160005091Y-108175000D01*
X159986786Y-108012539D01*
X159932789Y-107858225D01*
X159845808Y-107719796D01*
X159730204Y-107604192D01*
X159591774Y-107517210D01*
X159437455Y-107463212D01*
X159275004Y-107444909D01*
X159274996Y-107444909D01*
X159112544Y-107463212D01*
X158958225Y-107517210D01*
X158819795Y-107604192D01*
X158704192Y-107719795D01*
X158617210Y-107858225D01*
X158563212Y-108012544D01*
X158544909Y-108174996D01*
X144700000Y-108174996D01*
X144700000Y-106499996D01*
X149519909Y-106499996D01*
X149519909Y-106500003D01*
X149538212Y-106662455D01*
X149592210Y-106816774D01*
X149592211Y-106816775D01*
X149679192Y-106955204D01*
X149794796Y-107070808D01*
X149933225Y-107157789D01*
X150087539Y-107211786D01*
X150087542Y-107211786D01*
X150087544Y-107211787D01*
X150249996Y-107230091D01*
X150250000Y-107230091D01*
X150250004Y-107230091D01*
X150412455Y-107211787D01*
X150412456Y-107211786D01*
X150412461Y-107211786D01*
X150566775Y-107157789D01*
X150705204Y-107070808D01*
X150820808Y-106955204D01*
X150907789Y-106816775D01*
X150961786Y-106662461D01*
X150980091Y-106500000D01*
X150961786Y-106337539D01*
X150907789Y-106183225D01*
X150820808Y-106044796D01*
X150705204Y-105929192D01*
X150566774Y-105842210D01*
X150412455Y-105788212D01*
X150250004Y-105769909D01*
X150249996Y-105769909D01*
X150087544Y-105788212D01*
X149933225Y-105842210D01*
X149794795Y-105929192D01*
X149679192Y-106044795D01*
X149592210Y-106183225D01*
X149538212Y-106337544D01*
X149519909Y-106499996D01*
X144700000Y-106499996D01*
X144700000Y-101649996D01*
X152319909Y-101649996D01*
X152319909Y-101650003D01*
X152338212Y-101812455D01*
X152392210Y-101966774D01*
X152392211Y-101966775D01*
X152479192Y-102105204D01*
X152594796Y-102220808D01*
X152733225Y-102307789D01*
X152887539Y-102361786D01*
X152887542Y-102361786D01*
X152887544Y-102361787D01*
X153049996Y-102380091D01*
X153050000Y-102380091D01*
X153050004Y-102380091D01*
X153212455Y-102361787D01*
X153212456Y-102361786D01*
X153212461Y-102361786D01*
X153366775Y-102307789D01*
X153505204Y-102220808D01*
X153620808Y-102105204D01*
X153707789Y-101966775D01*
X153761786Y-101812461D01*
X153761787Y-101812455D01*
X153768824Y-101749996D01*
X164819909Y-101749996D01*
X164819909Y-101750003D01*
X164838212Y-101912455D01*
X164892210Y-102066774D01*
X164947148Y-102154206D01*
X164979192Y-102205204D01*
X165094796Y-102320808D01*
X165233225Y-102407789D01*
X165387539Y-102461786D01*
X165387542Y-102461786D01*
X165387544Y-102461787D01*
X165549996Y-102480091D01*
X165550000Y-102480091D01*
X165550004Y-102480091D01*
X165712455Y-102461787D01*
X165712456Y-102461786D01*
X165712461Y-102461786D01*
X165866775Y-102407789D01*
X166005204Y-102320808D01*
X166120808Y-102205204D01*
X166207789Y-102066775D01*
X166261786Y-101912461D01*
X166267916Y-101858059D01*
X166280091Y-101750003D01*
X166280091Y-101749996D01*
X166261787Y-101587544D01*
X166261786Y-101587542D01*
X166261786Y-101587539D01*
X166207789Y-101433225D01*
X166120808Y-101294796D01*
X166005204Y-101179192D01*
X165945918Y-101141940D01*
X165866774Y-101092210D01*
X165712455Y-101038212D01*
X165550004Y-101019909D01*
X165549996Y-101019909D01*
X165387544Y-101038212D01*
X165233225Y-101092210D01*
X165094795Y-101179192D01*
X164979192Y-101294795D01*
X164892210Y-101433225D01*
X164838212Y-101587544D01*
X164819909Y-101749996D01*
X153768824Y-101749996D01*
X153780091Y-101650003D01*
X153780091Y-101649996D01*
X153761787Y-101487544D01*
X153761786Y-101487542D01*
X153761786Y-101487539D01*
X153707789Y-101333225D01*
X153620808Y-101194796D01*
X153505204Y-101079192D01*
X153410856Y-101019909D01*
X153366774Y-100992210D01*
X153212455Y-100938212D01*
X153050004Y-100919909D01*
X153049996Y-100919909D01*
X152887544Y-100938212D01*
X152733225Y-100992210D01*
X152594795Y-101079192D01*
X152479192Y-101194795D01*
X152392210Y-101333225D01*
X152338212Y-101487544D01*
X152319909Y-101649996D01*
X144700000Y-101649996D01*
X144700000Y-100674996D01*
X172619909Y-100674996D01*
X172619909Y-100675003D01*
X172638212Y-100837455D01*
X172692210Y-100991774D01*
X172747139Y-101079192D01*
X172779192Y-101130204D01*
X172894796Y-101245808D01*
X173033225Y-101332789D01*
X173187539Y-101386786D01*
X173187542Y-101386786D01*
X173187544Y-101386787D01*
X173349996Y-101405091D01*
X173350000Y-101405091D01*
X173350004Y-101405091D01*
X173512455Y-101386787D01*
X173512456Y-101386786D01*
X173512461Y-101386786D01*
X173666775Y-101332789D01*
X173805204Y-101245808D01*
X173920808Y-101130204D01*
X174007789Y-100991775D01*
X174061786Y-100837461D01*
X174067537Y-100786421D01*
X174080091Y-100675003D01*
X174080091Y-100674996D01*
X174061787Y-100512544D01*
X174061786Y-100512542D01*
X174061786Y-100512539D01*
X174007789Y-100358225D01*
X173920808Y-100219796D01*
X173805204Y-100104192D01*
X173771528Y-100083032D01*
X173666774Y-100017210D01*
X173512455Y-99963212D01*
X173350004Y-99944909D01*
X173349996Y-99944909D01*
X173187544Y-99963212D01*
X173033225Y-100017210D01*
X172894795Y-100104192D01*
X172779192Y-100219795D01*
X172692210Y-100358225D01*
X172638212Y-100512544D01*
X172619909Y-100674996D01*
X144700000Y-100674996D01*
X144700000Y-99900000D01*
X178619678Y-99900000D01*
X178638915Y-100083029D01*
X178638916Y-100083032D01*
X178695783Y-100258053D01*
X178695786Y-100258059D01*
X178787805Y-100417440D01*
X178910950Y-100554207D01*
X178967662Y-100595410D01*
X178973541Y-100599682D01*
X179016206Y-100655012D01*
X179022185Y-100724626D01*
X178989579Y-100786421D01*
X178973541Y-100800318D01*
X178910948Y-100845794D01*
X178787804Y-100982561D01*
X178695786Y-101141940D01*
X178695783Y-101141946D01*
X178662037Y-101245808D01*
X178638915Y-101316971D01*
X178619678Y-101500000D01*
X178638915Y-101683029D01*
X178638916Y-101683032D01*
X178695783Y-101858053D01*
X178695786Y-101858059D01*
X178787805Y-102017440D01*
X178866828Y-102105204D01*
X178910949Y-102154206D01*
X178910951Y-102154208D01*
X179059834Y-102262378D01*
X179059835Y-102262378D01*
X179059839Y-102262381D01*
X179191066Y-102320807D01*
X179227961Y-102337234D01*
X179227966Y-102337236D01*
X179407981Y-102375500D01*
X179592019Y-102375500D01*
X179772034Y-102337236D01*
X179940161Y-102262381D01*
X180089050Y-102154207D01*
X180212195Y-102017440D01*
X180304214Y-101858059D01*
X180361085Y-101683029D01*
X180380322Y-101500000D01*
X180361085Y-101316971D01*
X180304214Y-101141941D01*
X180212195Y-100982560D01*
X180089050Y-100845793D01*
X180026459Y-100800318D01*
X179983793Y-100744988D01*
X179977814Y-100675375D01*
X180010420Y-100613580D01*
X180026459Y-100599682D01*
X180028809Y-100597974D01*
X180089050Y-100554207D01*
X180212195Y-100417440D01*
X180304214Y-100258059D01*
X180361085Y-100083029D01*
X180380322Y-99900000D01*
X180361085Y-99716971D01*
X180304214Y-99541941D01*
X180212195Y-99382560D01*
X180089050Y-99245793D01*
X180089048Y-99245791D01*
X179940165Y-99137621D01*
X179940162Y-99137619D01*
X179940161Y-99137619D01*
X179879112Y-99110438D01*
X179772038Y-99062765D01*
X179772033Y-99062763D01*
X179592019Y-99024500D01*
X179407981Y-99024500D01*
X179227966Y-99062763D01*
X179227961Y-99062765D01*
X179059839Y-99137619D01*
X179059834Y-99137621D01*
X178910951Y-99245791D01*
X178910949Y-99245793D01*
X178787804Y-99382561D01*
X178695786Y-99541940D01*
X178695783Y-99541946D01*
X178638916Y-99716967D01*
X178638915Y-99716971D01*
X178619678Y-99900000D01*
X144700000Y-99900000D01*
X144700000Y-97600000D01*
X173619678Y-97600000D01*
X173638915Y-97783029D01*
X173638916Y-97783032D01*
X173695783Y-97958053D01*
X173695786Y-97958059D01*
X173787805Y-98117440D01*
X173897327Y-98239077D01*
X173910949Y-98254206D01*
X173910951Y-98254208D01*
X174059834Y-98362378D01*
X174059835Y-98362378D01*
X174059839Y-98362381D01*
X174196953Y-98423428D01*
X174227961Y-98437234D01*
X174227966Y-98437236D01*
X174407981Y-98475500D01*
X174592019Y-98475500D01*
X174772034Y-98437236D01*
X174940161Y-98362381D01*
X175089050Y-98254207D01*
X175212195Y-98117440D01*
X175304214Y-97958059D01*
X175361085Y-97783029D01*
X175380322Y-97600000D01*
X175361085Y-97416971D01*
X175304214Y-97241941D01*
X175212195Y-97082560D01*
X175089050Y-96945793D01*
X175089048Y-96945791D01*
X174940165Y-96837621D01*
X174940162Y-96837619D01*
X174940161Y-96837619D01*
X174879112Y-96810438D01*
X174772038Y-96762765D01*
X174772033Y-96762763D01*
X174592019Y-96724500D01*
X174407981Y-96724500D01*
X174227966Y-96762763D01*
X174227961Y-96762765D01*
X174059839Y-96837619D01*
X174059834Y-96837621D01*
X173910951Y-96945791D01*
X173910949Y-96945793D01*
X173787804Y-97082561D01*
X173695786Y-97241940D01*
X173695783Y-97241946D01*
X173638916Y-97416967D01*
X173638915Y-97416971D01*
X173619678Y-97600000D01*
X144700000Y-97600000D01*
X144700000Y-94000000D01*
X144400026Y-94000000D01*
X144400000Y-93975000D01*
X144400205Y-93975000D01*
X144900000Y-93975000D01*
X144900000Y-92424996D01*
X148494909Y-92424996D01*
X148494909Y-92425003D01*
X148513212Y-92587455D01*
X148567210Y-92741774D01*
X148627808Y-92838214D01*
X148654192Y-92880204D01*
X148769796Y-92995808D01*
X148908225Y-93082789D01*
X149062539Y-93136786D01*
X149062542Y-93136786D01*
X149062544Y-93136787D01*
X149224996Y-93155091D01*
X149225000Y-93155091D01*
X149225004Y-93155091D01*
X149387455Y-93136787D01*
X149387456Y-93136786D01*
X149387461Y-93136786D01*
X149436130Y-93119755D01*
X149505906Y-93116193D01*
X149566534Y-93150922D01*
X149598761Y-93212915D01*
X149594125Y-93277750D01*
X149538212Y-93437543D01*
X149519909Y-93599996D01*
X149519909Y-93600003D01*
X149538212Y-93762455D01*
X149592210Y-93916774D01*
X149592211Y-93916775D01*
X149679192Y-94055204D01*
X149794796Y-94170808D01*
X149933225Y-94257789D01*
X150087539Y-94311786D01*
X150087542Y-94311786D01*
X150087544Y-94311787D01*
X150249996Y-94330091D01*
X150250000Y-94330091D01*
X150250004Y-94330091D01*
X150412455Y-94311787D01*
X150412456Y-94311786D01*
X150412461Y-94311786D01*
X150566775Y-94257789D01*
X150705204Y-94170808D01*
X150820808Y-94055204D01*
X150907789Y-93916775D01*
X150961786Y-93762461D01*
X150967420Y-93712461D01*
X150980091Y-93600003D01*
X150980091Y-93599996D01*
X150974457Y-93549996D01*
X160094909Y-93549996D01*
X160094909Y-93550003D01*
X160113212Y-93712455D01*
X160167210Y-93866774D01*
X160254192Y-94005204D01*
X160369796Y-94120808D01*
X160508225Y-94207789D01*
X160662539Y-94261786D01*
X160662542Y-94261786D01*
X160662544Y-94261787D01*
X160824996Y-94280091D01*
X160825000Y-94280091D01*
X160825004Y-94280091D01*
X160987455Y-94261787D01*
X160987456Y-94261786D01*
X160987461Y-94261786D01*
X161141775Y-94207789D01*
X161280204Y-94120808D01*
X161395808Y-94005204D01*
X161482789Y-93866775D01*
X161536786Y-93712461D01*
X161538190Y-93700000D01*
X174419678Y-93700000D01*
X174438915Y-93883029D01*
X174438916Y-93883032D01*
X174495783Y-94058053D01*
X174495786Y-94058059D01*
X174587805Y-94217440D01*
X174644216Y-94280091D01*
X174710949Y-94354206D01*
X174710951Y-94354208D01*
X174859834Y-94462378D01*
X174859835Y-94462378D01*
X174859839Y-94462381D01*
X174996953Y-94523428D01*
X175027961Y-94537234D01*
X175027966Y-94537236D01*
X175207981Y-94575500D01*
X175392019Y-94575500D01*
X175572034Y-94537236D01*
X175740161Y-94462381D01*
X175889050Y-94354207D01*
X176012195Y-94217440D01*
X176104214Y-94058059D01*
X176161085Y-93883029D01*
X176180322Y-93700000D01*
X176161085Y-93516971D01*
X176104214Y-93341941D01*
X176012195Y-93182560D01*
X175889050Y-93045793D01*
X175889048Y-93045791D01*
X175740165Y-92937621D01*
X175740162Y-92937619D01*
X175740161Y-92937619D01*
X175667446Y-92905244D01*
X175572038Y-92862765D01*
X175572033Y-92862763D01*
X175392019Y-92824500D01*
X175207981Y-92824500D01*
X175027966Y-92862763D01*
X175027961Y-92862765D01*
X174859839Y-92937619D01*
X174859834Y-92937621D01*
X174710951Y-93045791D01*
X174710949Y-93045793D01*
X174587804Y-93182561D01*
X174495786Y-93341940D01*
X174495783Y-93341946D01*
X174438916Y-93516967D01*
X174438915Y-93516971D01*
X174419678Y-93700000D01*
X161538190Y-93700000D01*
X161549457Y-93600003D01*
X161555091Y-93550003D01*
X161555091Y-93549996D01*
X161536787Y-93387544D01*
X161536786Y-93387542D01*
X161536786Y-93387539D01*
X161482789Y-93233225D01*
X161395808Y-93094796D01*
X161280204Y-92979192D01*
X161141774Y-92892210D01*
X160987455Y-92838212D01*
X160825004Y-92819909D01*
X160824996Y-92819909D01*
X160662544Y-92838212D01*
X160508225Y-92892210D01*
X160369795Y-92979192D01*
X160254192Y-93094795D01*
X160167210Y-93233225D01*
X160113212Y-93387544D01*
X160094909Y-93549996D01*
X150974457Y-93549996D01*
X150961787Y-93437544D01*
X150961786Y-93437542D01*
X150961786Y-93437539D01*
X150907789Y-93283225D01*
X150820808Y-93144796D01*
X150705204Y-93029192D01*
X150625630Y-92979192D01*
X150566774Y-92942210D01*
X150412455Y-92888212D01*
X150250004Y-92869909D01*
X150249996Y-92869909D01*
X150087543Y-92888212D01*
X150038869Y-92905244D01*
X149969090Y-92908805D01*
X149908464Y-92874075D01*
X149876237Y-92812082D01*
X149880874Y-92747248D01*
X149916369Y-92645808D01*
X149936786Y-92587461D01*
X149942946Y-92532789D01*
X149955091Y-92425003D01*
X149955091Y-92424996D01*
X149936787Y-92262544D01*
X149936786Y-92262542D01*
X149936786Y-92262539D01*
X149882789Y-92108225D01*
X149795808Y-91969796D01*
X149701008Y-91874996D01*
X155719909Y-91874996D01*
X155719909Y-91875003D01*
X155738212Y-92037455D01*
X155792210Y-92191774D01*
X155855426Y-92292381D01*
X155879192Y-92330204D01*
X155994796Y-92445808D01*
X156133225Y-92532789D01*
X156287539Y-92586786D01*
X156287542Y-92586786D01*
X156287544Y-92586787D01*
X156449996Y-92605091D01*
X156450000Y-92605091D01*
X156450004Y-92605091D01*
X156612455Y-92586787D01*
X156612456Y-92586786D01*
X156612461Y-92586786D01*
X156766775Y-92532789D01*
X156858752Y-92474996D01*
X158094909Y-92474996D01*
X158094909Y-92475003D01*
X158113212Y-92637455D01*
X158167210Y-92791774D01*
X158240746Y-92908805D01*
X158254192Y-92930204D01*
X158369796Y-93045808D01*
X158508225Y-93132789D01*
X158662539Y-93186786D01*
X158662542Y-93186786D01*
X158662544Y-93186787D01*
X158824996Y-93205091D01*
X158825000Y-93205091D01*
X158825004Y-93205091D01*
X158987455Y-93186787D01*
X158987456Y-93186786D01*
X158987461Y-93186786D01*
X159141775Y-93132789D01*
X159280204Y-93045808D01*
X159395808Y-92930204D01*
X159482789Y-92791775D01*
X159536786Y-92637461D01*
X159536787Y-92637455D01*
X159555091Y-92475003D01*
X159555091Y-92474996D01*
X159536787Y-92312544D01*
X159536786Y-92312542D01*
X159536786Y-92312539D01*
X159482789Y-92158225D01*
X159395808Y-92019796D01*
X159280204Y-91904192D01*
X159233750Y-91875003D01*
X159141774Y-91817210D01*
X158987455Y-91763212D01*
X158825004Y-91744909D01*
X158824996Y-91744909D01*
X158662544Y-91763212D01*
X158508225Y-91817210D01*
X158369795Y-91904192D01*
X158254192Y-92019795D01*
X158167210Y-92158225D01*
X158113212Y-92312544D01*
X158094909Y-92474996D01*
X156858752Y-92474996D01*
X156905204Y-92445808D01*
X157020808Y-92330204D01*
X157107789Y-92191775D01*
X157161786Y-92037461D01*
X157161787Y-92037455D01*
X157180091Y-91875003D01*
X157180091Y-91874996D01*
X157161787Y-91712544D01*
X157161786Y-91712542D01*
X157161786Y-91712539D01*
X157107789Y-91558225D01*
X157020808Y-91419796D01*
X156905204Y-91304192D01*
X156859541Y-91275500D01*
X156766774Y-91217210D01*
X156612455Y-91163212D01*
X156450004Y-91144909D01*
X156449996Y-91144909D01*
X156287544Y-91163212D01*
X156133225Y-91217210D01*
X155994795Y-91304192D01*
X155879192Y-91419795D01*
X155792210Y-91558225D01*
X155738212Y-91712544D01*
X155719909Y-91874996D01*
X149701008Y-91874996D01*
X149680204Y-91854192D01*
X149541774Y-91767210D01*
X149387455Y-91713212D01*
X149225004Y-91694909D01*
X149224996Y-91694909D01*
X149062544Y-91713212D01*
X148908225Y-91767210D01*
X148769795Y-91854192D01*
X148654192Y-91969795D01*
X148567210Y-92108225D01*
X148513212Y-92262544D01*
X148494909Y-92424996D01*
X144900000Y-92424996D01*
X144900000Y-90999996D01*
X160969909Y-90999996D01*
X160969909Y-91000003D01*
X160988212Y-91162455D01*
X160988213Y-91162460D01*
X160988214Y-91162461D01*
X160991531Y-91171940D01*
X161042210Y-91316774D01*
X161105319Y-91417210D01*
X161129192Y-91455204D01*
X161244796Y-91570808D01*
X161383225Y-91657789D01*
X161537539Y-91711786D01*
X161537542Y-91711786D01*
X161537544Y-91711787D01*
X161699996Y-91730091D01*
X161700000Y-91730091D01*
X161700004Y-91730091D01*
X161862455Y-91711787D01*
X161862456Y-91711786D01*
X161862461Y-91711786D01*
X162016775Y-91657789D01*
X162155204Y-91570808D01*
X162196012Y-91530000D01*
X174130462Y-91530000D01*
X174149699Y-91713029D01*
X174149700Y-91713032D01*
X174206567Y-91888053D01*
X174206570Y-91888059D01*
X174298589Y-92047440D01*
X174323407Y-92075003D01*
X174421733Y-92184206D01*
X174421735Y-92184208D01*
X174570618Y-92292378D01*
X174570619Y-92292378D01*
X174570623Y-92292381D01*
X174707737Y-92353428D01*
X174738745Y-92367234D01*
X174738750Y-92367236D01*
X174918765Y-92405500D01*
X175102803Y-92405500D01*
X175282818Y-92367236D01*
X175450945Y-92292381D01*
X175599834Y-92184207D01*
X175698168Y-92074996D01*
X178519909Y-92074996D01*
X178519909Y-92075003D01*
X178538212Y-92237455D01*
X178592210Y-92391774D01*
X178626162Y-92445808D01*
X178679192Y-92530204D01*
X178794796Y-92645808D01*
X178933225Y-92732789D01*
X179087539Y-92786786D01*
X179087542Y-92786786D01*
X179087544Y-92786787D01*
X179249996Y-92805091D01*
X179250000Y-92805091D01*
X179250004Y-92805091D01*
X179412455Y-92786787D01*
X179412456Y-92786786D01*
X179412461Y-92786786D01*
X179566775Y-92732789D01*
X179705204Y-92645808D01*
X179820808Y-92530204D01*
X179907789Y-92391775D01*
X179961786Y-92237461D01*
X179966934Y-92191774D01*
X179980091Y-92075003D01*
X179980091Y-92074996D01*
X179961787Y-91912544D01*
X179961786Y-91912542D01*
X179961786Y-91912539D01*
X179907789Y-91758225D01*
X179820808Y-91619796D01*
X179705204Y-91504192D01*
X179566774Y-91417210D01*
X179412455Y-91363212D01*
X179250004Y-91344909D01*
X179249996Y-91344909D01*
X179087544Y-91363212D01*
X178933225Y-91417210D01*
X178794795Y-91504192D01*
X178679192Y-91619795D01*
X178592210Y-91758225D01*
X178538212Y-91912544D01*
X178519909Y-92074996D01*
X175698168Y-92074996D01*
X175722979Y-92047440D01*
X175814998Y-91888059D01*
X175871869Y-91713029D01*
X175891106Y-91530000D01*
X175871869Y-91346971D01*
X175814998Y-91171941D01*
X175722979Y-91012560D01*
X175599834Y-90875793D01*
X175599832Y-90875791D01*
X175450949Y-90767621D01*
X175450946Y-90767619D01*
X175450945Y-90767619D01*
X175389896Y-90740438D01*
X175282822Y-90692765D01*
X175282817Y-90692763D01*
X175102803Y-90654500D01*
X174918765Y-90654500D01*
X174738750Y-90692763D01*
X174738745Y-90692765D01*
X174570623Y-90767619D01*
X174570618Y-90767621D01*
X174421735Y-90875791D01*
X174421733Y-90875793D01*
X174298588Y-91012561D01*
X174206570Y-91171940D01*
X174206567Y-91171946D01*
X174159510Y-91316775D01*
X174149699Y-91346971D01*
X174130462Y-91530000D01*
X162196012Y-91530000D01*
X162270808Y-91455204D01*
X162357789Y-91316775D01*
X162411786Y-91162461D01*
X162411795Y-91162380D01*
X162430091Y-91000003D01*
X162430091Y-90999996D01*
X162411787Y-90837544D01*
X162411786Y-90837542D01*
X162411786Y-90837539D01*
X162357789Y-90683225D01*
X162270808Y-90544796D01*
X162155204Y-90429192D01*
X162108746Y-90400000D01*
X163119678Y-90400000D01*
X163138915Y-90583029D01*
X163138916Y-90583032D01*
X163195783Y-90758053D01*
X163195786Y-90758059D01*
X163287805Y-90917440D01*
X163362142Y-91000000D01*
X163410949Y-91054206D01*
X163410951Y-91054208D01*
X163559834Y-91162378D01*
X163559835Y-91162378D01*
X163559839Y-91162381D01*
X163682987Y-91217210D01*
X163727961Y-91237234D01*
X163727966Y-91237236D01*
X163907981Y-91275500D01*
X164092019Y-91275500D01*
X164272034Y-91237236D01*
X164440161Y-91162381D01*
X164589050Y-91054207D01*
X164712195Y-90917440D01*
X164804214Y-90758059D01*
X164861085Y-90583029D01*
X164880322Y-90400000D01*
X164861085Y-90216971D01*
X164804214Y-90041941D01*
X164712195Y-89882560D01*
X164589050Y-89745793D01*
X164589048Y-89745791D01*
X164440165Y-89637621D01*
X164440162Y-89637619D01*
X164440161Y-89637619D01*
X164379112Y-89610438D01*
X164272038Y-89562765D01*
X164272033Y-89562763D01*
X164092019Y-89524500D01*
X163907981Y-89524500D01*
X163727966Y-89562763D01*
X163727961Y-89562765D01*
X163559839Y-89637619D01*
X163559834Y-89637621D01*
X163410951Y-89745791D01*
X163410949Y-89745793D01*
X163287804Y-89882561D01*
X163195786Y-90041940D01*
X163195783Y-90041946D01*
X163138916Y-90216967D01*
X163138915Y-90216971D01*
X163119678Y-90400000D01*
X162108746Y-90400000D01*
X162016774Y-90342210D01*
X161862455Y-90288212D01*
X161700004Y-90269909D01*
X161699996Y-90269909D01*
X161537544Y-90288212D01*
X161383225Y-90342210D01*
X161244795Y-90429192D01*
X161129192Y-90544795D01*
X161042210Y-90683225D01*
X160988212Y-90837544D01*
X160969909Y-90999996D01*
X144900000Y-90999996D01*
X144900000Y-89100000D01*
X153319678Y-89100000D01*
X153338915Y-89283029D01*
X153338916Y-89283032D01*
X153395783Y-89458053D01*
X153395786Y-89458059D01*
X153487805Y-89617440D01*
X153597327Y-89739077D01*
X153610949Y-89754206D01*
X153610951Y-89754208D01*
X153759834Y-89862378D01*
X153759835Y-89862378D01*
X153759839Y-89862381D01*
X153896953Y-89923428D01*
X153927961Y-89937234D01*
X153927966Y-89937236D01*
X154107981Y-89975500D01*
X154292019Y-89975500D01*
X154472034Y-89937236D01*
X154640161Y-89862381D01*
X154789050Y-89754207D01*
X154912195Y-89617440D01*
X155004214Y-89458059D01*
X155037701Y-89354996D01*
X171769909Y-89354996D01*
X171769909Y-89355003D01*
X171788212Y-89517455D01*
X171842210Y-89671774D01*
X171894007Y-89754208D01*
X171929192Y-89810204D01*
X172044796Y-89925808D01*
X172183225Y-90012789D01*
X172337539Y-90066786D01*
X172337542Y-90066786D01*
X172337544Y-90066787D01*
X172499996Y-90085091D01*
X172500000Y-90085091D01*
X172500004Y-90085091D01*
X172662455Y-90066787D01*
X172662456Y-90066786D01*
X172662461Y-90066786D01*
X172816775Y-90012789D01*
X172955204Y-89925808D01*
X173070808Y-89810204D01*
X173157789Y-89671775D01*
X173211786Y-89517461D01*
X173230091Y-89355000D01*
X173221982Y-89283032D01*
X173211787Y-89192544D01*
X173211786Y-89192542D01*
X173211786Y-89192539D01*
X173157789Y-89038225D01*
X173070808Y-88899796D01*
X172955204Y-88784192D01*
X172861001Y-88725000D01*
X172816774Y-88697210D01*
X172662455Y-88643212D01*
X172500004Y-88624909D01*
X172499996Y-88624909D01*
X172337544Y-88643212D01*
X172183225Y-88697210D01*
X172044795Y-88784192D01*
X171929192Y-88899795D01*
X171842210Y-89038225D01*
X171788212Y-89192544D01*
X171769909Y-89354996D01*
X155037701Y-89354996D01*
X155061085Y-89283029D01*
X155080322Y-89100000D01*
X155061085Y-88916971D01*
X155004214Y-88741941D01*
X154912195Y-88582560D01*
X154789050Y-88445793D01*
X154789048Y-88445791D01*
X154640165Y-88337621D01*
X154640162Y-88337619D01*
X154640161Y-88337619D01*
X154579112Y-88310438D01*
X154472038Y-88262765D01*
X154472033Y-88262763D01*
X154292019Y-88224500D01*
X154107981Y-88224500D01*
X153927966Y-88262763D01*
X153927961Y-88262765D01*
X153759839Y-88337619D01*
X153759834Y-88337621D01*
X153610951Y-88445791D01*
X153610949Y-88445793D01*
X153487804Y-88582561D01*
X153395786Y-88741940D01*
X153395783Y-88741946D01*
X153338916Y-88916967D01*
X153338915Y-88916971D01*
X153319678Y-89100000D01*
X144900000Y-89100000D01*
X144900000Y-86755671D01*
X164347338Y-86755671D01*
X164366575Y-86938700D01*
X164366576Y-86938703D01*
X164423443Y-87113724D01*
X164423446Y-87113730D01*
X164515465Y-87273111D01*
X164595841Y-87362378D01*
X164638609Y-87409877D01*
X164638611Y-87409879D01*
X164787494Y-87518049D01*
X164787495Y-87518049D01*
X164787499Y-87518052D01*
X164924613Y-87579099D01*
X164955621Y-87592905D01*
X164955626Y-87592907D01*
X165135641Y-87631171D01*
X165319679Y-87631171D01*
X165499694Y-87592907D01*
X165667821Y-87518052D01*
X165816710Y-87409878D01*
X165939855Y-87273111D01*
X166031874Y-87113730D01*
X166088745Y-86938700D01*
X166107982Y-86755671D01*
X166088745Y-86572642D01*
X166031874Y-86397612D01*
X165939855Y-86238231D01*
X165905432Y-86200000D01*
X170494678Y-86200000D01*
X170513915Y-86383029D01*
X170513916Y-86383032D01*
X170570783Y-86558053D01*
X170570786Y-86558059D01*
X170662805Y-86717440D01*
X170721864Y-86783032D01*
X170785949Y-86854206D01*
X170785951Y-86854208D01*
X170934834Y-86962378D01*
X170934835Y-86962378D01*
X170934839Y-86962381D01*
X171057441Y-87016967D01*
X171102961Y-87037234D01*
X171102966Y-87037236D01*
X171282981Y-87075500D01*
X171467019Y-87075500D01*
X171647034Y-87037236D01*
X171815161Y-86962381D01*
X171964050Y-86854207D01*
X172087195Y-86717440D01*
X172179214Y-86558059D01*
X172236085Y-86383029D01*
X172255322Y-86200000D01*
X172236085Y-86016971D01*
X172179214Y-85841941D01*
X172087195Y-85682560D01*
X171964050Y-85545793D01*
X171964048Y-85545791D01*
X171815165Y-85437621D01*
X171815162Y-85437619D01*
X171815161Y-85437619D01*
X171754112Y-85410438D01*
X171647038Y-85362765D01*
X171647033Y-85362763D01*
X171467019Y-85324500D01*
X171282981Y-85324500D01*
X171102966Y-85362763D01*
X171102961Y-85362765D01*
X170934839Y-85437619D01*
X170934834Y-85437621D01*
X170785951Y-85545791D01*
X170785949Y-85545793D01*
X170662804Y-85682561D01*
X170570786Y-85841940D01*
X170570783Y-85841946D01*
X170513916Y-86016967D01*
X170513915Y-86016971D01*
X170494678Y-86200000D01*
X165905432Y-86200000D01*
X165816710Y-86101464D01*
X165816708Y-86101462D01*
X165667825Y-85993292D01*
X165667822Y-85993290D01*
X165667821Y-85993290D01*
X165606772Y-85966109D01*
X165499698Y-85918436D01*
X165499693Y-85918434D01*
X165319679Y-85880171D01*
X165135641Y-85880171D01*
X164955626Y-85918434D01*
X164955621Y-85918436D01*
X164787499Y-85993290D01*
X164787494Y-85993292D01*
X164638611Y-86101462D01*
X164638609Y-86101464D01*
X164515464Y-86238232D01*
X164423446Y-86397611D01*
X164423443Y-86397617D01*
X164371315Y-86558053D01*
X164366575Y-86572642D01*
X164347338Y-86755671D01*
X144900000Y-86755671D01*
X144900000Y-83498894D01*
X144919685Y-83431855D01*
X144972489Y-83386100D01*
X145023892Y-83374894D01*
X154813569Y-83366541D01*
X154880624Y-83386168D01*
X154926424Y-83438933D01*
X154936427Y-83508083D01*
X154907456Y-83571664D01*
X154886560Y-83590859D01*
X154810948Y-83645794D01*
X154687804Y-83782561D01*
X154595786Y-83941940D01*
X154595783Y-83941946D01*
X154556599Y-84062544D01*
X154538915Y-84116971D01*
X154519678Y-84300000D01*
X154538915Y-84483029D01*
X154538916Y-84483032D01*
X154595783Y-84658053D01*
X154595786Y-84658059D01*
X154687805Y-84817440D01*
X154784202Y-84924500D01*
X154810949Y-84954206D01*
X154810951Y-84954208D01*
X154959834Y-85062378D01*
X154959835Y-85062378D01*
X154959839Y-85062381D01*
X155096953Y-85123428D01*
X155127961Y-85137234D01*
X155127966Y-85137236D01*
X155307981Y-85175500D01*
X155492019Y-85175500D01*
X155672034Y-85137236D01*
X155840161Y-85062381D01*
X155989050Y-84954207D01*
X156112195Y-84817440D01*
X156204214Y-84658059D01*
X156261085Y-84483029D01*
X156280322Y-84300000D01*
X156261085Y-84116971D01*
X156204214Y-83941941D01*
X156112195Y-83782560D01*
X155989050Y-83645793D01*
X155913440Y-83590859D01*
X155912064Y-83589859D01*
X155869399Y-83534528D01*
X155863420Y-83464915D01*
X155896026Y-83403120D01*
X155956865Y-83368763D01*
X155984835Y-83365541D01*
X168140166Y-83355170D01*
X168207221Y-83374797D01*
X168253021Y-83427562D01*
X168263024Y-83496712D01*
X168234053Y-83560293D01*
X168206244Y-83584163D01*
X168094798Y-83654190D01*
X168094795Y-83654192D01*
X167979192Y-83769795D01*
X167892210Y-83908225D01*
X167838212Y-84062544D01*
X167819909Y-84224996D01*
X167819909Y-84225003D01*
X167838212Y-84387455D01*
X167892210Y-84541774D01*
X167965277Y-84658059D01*
X167979192Y-84680204D01*
X168094796Y-84795808D01*
X168233225Y-84882789D01*
X168387539Y-84936786D01*
X168387542Y-84936786D01*
X168387544Y-84936787D01*
X168549996Y-84955091D01*
X168550000Y-84955091D01*
X168550004Y-84955091D01*
X168712455Y-84936787D01*
X168712456Y-84936786D01*
X168712461Y-84936786D01*
X168866775Y-84882789D01*
X169005204Y-84795808D01*
X169120808Y-84680204D01*
X169207789Y-84541775D01*
X169261786Y-84387461D01*
X169280091Y-84225000D01*
X169261786Y-84062539D01*
X169207789Y-83908225D01*
X169120808Y-83769796D01*
X169005204Y-83654192D01*
X169005198Y-83654187D01*
X168892645Y-83583465D01*
X168846354Y-83531131D01*
X168835706Y-83462077D01*
X168864081Y-83398229D01*
X168922471Y-83359857D01*
X168958509Y-83354472D01*
X174200000Y-83350000D01*
X174223034Y-84985470D01*
G37*
%TD.AperFunction*%
%TD*%
%TA.AperFunction,Conductor*%
%TO.N,GND1*%
G36*
X205673539Y-88869685D02*
G01*
X205719294Y-88922489D01*
X205730500Y-88974000D01*
X205730500Y-116015907D01*
X205729903Y-116028061D01*
X205717296Y-116156064D01*
X205712554Y-116179906D01*
X205676993Y-116297134D01*
X205667690Y-116319592D01*
X205609942Y-116427630D01*
X205596438Y-116447840D01*
X205518725Y-116542535D01*
X205501535Y-116559725D01*
X205406840Y-116637438D01*
X205386630Y-116650942D01*
X205278592Y-116708690D01*
X205256134Y-116717993D01*
X205138906Y-116753554D01*
X205115064Y-116758296D01*
X204987062Y-116770903D01*
X204974908Y-116771500D01*
X182325262Y-116771500D01*
X182258223Y-116751815D01*
X182212468Y-116699011D01*
X182201262Y-116647394D01*
X182205359Y-111849995D01*
X191569910Y-111849995D01*
X191569910Y-111850002D01*
X191588213Y-112012454D01*
X191642211Y-112166773D01*
X191642212Y-112166774D01*
X191729193Y-112305203D01*
X191844797Y-112420807D01*
X191983226Y-112507788D01*
X192137540Y-112561785D01*
X192137543Y-112561785D01*
X192137545Y-112561786D01*
X192299997Y-112580090D01*
X192300001Y-112580090D01*
X192300005Y-112580090D01*
X192462456Y-112561786D01*
X192462457Y-112561785D01*
X192462462Y-112561785D01*
X192616776Y-112507788D01*
X192755205Y-112420807D01*
X192870809Y-112305203D01*
X192957790Y-112166774D01*
X193011787Y-112012460D01*
X193030092Y-111849999D01*
X193011787Y-111687538D01*
X192957790Y-111533224D01*
X192870809Y-111394795D01*
X192755205Y-111279191D01*
X192741862Y-111270807D01*
X192616775Y-111192209D01*
X192462456Y-111138211D01*
X192300005Y-111119908D01*
X192299997Y-111119908D01*
X192137545Y-111138211D01*
X191983226Y-111192209D01*
X191844796Y-111279191D01*
X191729193Y-111394794D01*
X191642211Y-111533224D01*
X191588213Y-111687543D01*
X191569910Y-111849995D01*
X182205359Y-111849995D01*
X182205952Y-111155204D01*
X182206341Y-110699996D01*
X189894909Y-110699996D01*
X189894909Y-110700003D01*
X189913212Y-110862455D01*
X189967210Y-111016774D01*
X189967211Y-111016775D01*
X190054192Y-111155204D01*
X190169796Y-111270808D01*
X190308225Y-111357789D01*
X190462539Y-111411786D01*
X190462542Y-111411786D01*
X190462544Y-111411787D01*
X190624996Y-111430091D01*
X190625000Y-111430091D01*
X190625004Y-111430091D01*
X190787455Y-111411787D01*
X190787456Y-111411786D01*
X190787461Y-111411786D01*
X190941775Y-111357789D01*
X191080204Y-111270808D01*
X191195808Y-111155204D01*
X191282789Y-111016775D01*
X191336786Y-110862461D01*
X191355091Y-110700000D01*
X191336786Y-110537539D01*
X191282789Y-110383225D01*
X191195808Y-110244796D01*
X191080204Y-110129192D01*
X190941774Y-110042210D01*
X190787455Y-109988212D01*
X190625004Y-109969909D01*
X190624996Y-109969909D01*
X190462544Y-109988212D01*
X190308225Y-110042210D01*
X190169795Y-110129192D01*
X190054192Y-110244795D01*
X189967210Y-110383225D01*
X189913212Y-110537544D01*
X189894909Y-110699996D01*
X182206341Y-110699996D01*
X182210525Y-105800000D01*
X182400000Y-105800000D01*
X182400000Y-104799996D01*
X189294909Y-104799996D01*
X189294909Y-104800003D01*
X189313212Y-104962455D01*
X189367210Y-105116774D01*
X189454192Y-105255204D01*
X189569796Y-105370808D01*
X189708225Y-105457789D01*
X189862539Y-105511786D01*
X189862542Y-105511786D01*
X189862544Y-105511787D01*
X190024996Y-105530091D01*
X190025000Y-105530091D01*
X190025004Y-105530091D01*
X190187455Y-105511787D01*
X190187456Y-105511786D01*
X190187461Y-105511786D01*
X190341775Y-105457789D01*
X190476528Y-105373117D01*
X190543764Y-105354117D01*
X190608471Y-105373117D01*
X190743225Y-105457789D01*
X190897539Y-105511786D01*
X190897542Y-105511786D01*
X190897544Y-105511787D01*
X191059996Y-105530091D01*
X191060000Y-105530091D01*
X191060004Y-105530091D01*
X191222455Y-105511787D01*
X191222456Y-105511786D01*
X191222461Y-105511786D01*
X191376775Y-105457789D01*
X191515204Y-105370808D01*
X191630808Y-105255204D01*
X191717789Y-105116775D01*
X191771786Y-104962461D01*
X191781589Y-104875456D01*
X191790091Y-104800003D01*
X191790091Y-104799996D01*
X191771787Y-104637544D01*
X191771786Y-104637542D01*
X191771786Y-104637539D01*
X191717789Y-104483225D01*
X191630808Y-104344796D01*
X191515204Y-104229192D01*
X191379312Y-104143805D01*
X191376774Y-104142210D01*
X191256266Y-104100043D01*
X197819701Y-104100043D01*
X197819701Y-104100056D01*
X197838865Y-104331347D01*
X197838867Y-104331358D01*
X197895843Y-104556350D01*
X197989076Y-104768898D01*
X198116019Y-104963200D01*
X198233695Y-105091031D01*
X198264617Y-105153685D01*
X198256757Y-105223111D01*
X198233696Y-105258995D01*
X198116022Y-105386824D01*
X198116020Y-105386825D01*
X198116017Y-105386830D01*
X197989076Y-105581128D01*
X197895843Y-105793676D01*
X197838867Y-106018668D01*
X197838865Y-106018679D01*
X197819701Y-106249970D01*
X197819701Y-106249983D01*
X197838865Y-106481274D01*
X197838867Y-106481285D01*
X197895843Y-106706277D01*
X197989076Y-106918825D01*
X198116017Y-107113124D01*
X198116020Y-107113128D01*
X198116022Y-107113130D01*
X198273217Y-107283890D01*
X198273220Y-107283892D01*
X198273223Y-107283895D01*
X198456366Y-107426441D01*
X198456372Y-107426445D01*
X198456375Y-107426447D01*
X198660498Y-107536913D01*
X198769944Y-107574486D01*
X198880016Y-107612274D01*
X198880018Y-107612274D01*
X198880020Y-107612275D01*
X199108952Y-107650477D01*
X199108953Y-107650477D01*
X199341049Y-107650477D01*
X199341050Y-107650477D01*
X199569982Y-107612275D01*
X199789504Y-107536913D01*
X199796260Y-107533256D01*
X199864586Y-107518657D01*
X199929960Y-107543316D01*
X199959092Y-107574486D01*
X200066021Y-107738153D01*
X200223216Y-107908913D01*
X200223219Y-107908915D01*
X200223222Y-107908918D01*
X200406365Y-108051464D01*
X200406371Y-108051468D01*
X200406374Y-108051470D01*
X200610497Y-108161936D01*
X200724487Y-108201068D01*
X200830015Y-108237297D01*
X200830017Y-108237297D01*
X200830019Y-108237298D01*
X201058951Y-108275500D01*
X201058952Y-108275500D01*
X201291048Y-108275500D01*
X201291049Y-108275500D01*
X201519981Y-108237298D01*
X201739503Y-108161936D01*
X201943626Y-108051470D01*
X202126784Y-107908913D01*
X202283979Y-107738153D01*
X202410924Y-107543849D01*
X202504157Y-107331300D01*
X202561134Y-107106305D01*
X202580300Y-106875000D01*
X202580300Y-106874993D01*
X202561135Y-106643702D01*
X202561133Y-106643691D01*
X202504157Y-106418699D01*
X202410924Y-106206151D01*
X202283983Y-106011852D01*
X202283980Y-106011849D01*
X202283979Y-106011847D01*
X202126784Y-105841087D01*
X202126779Y-105841083D01*
X202126777Y-105841081D01*
X201943634Y-105698535D01*
X201943628Y-105698531D01*
X201739504Y-105588064D01*
X201739495Y-105588061D01*
X201519984Y-105512702D01*
X201348282Y-105484050D01*
X201291049Y-105474500D01*
X201058951Y-105474500D01*
X201013164Y-105482140D01*
X200830015Y-105512702D01*
X200610501Y-105588062D01*
X200610486Y-105588069D01*
X200603730Y-105591725D01*
X200535401Y-105606318D01*
X200470030Y-105581652D01*
X200440908Y-105550490D01*
X200415622Y-105511787D01*
X200333980Y-105386824D01*
X200216306Y-105258995D01*
X200185384Y-105196341D01*
X200193244Y-105126915D01*
X200216302Y-105091035D01*
X200333980Y-104963203D01*
X200440943Y-104799482D01*
X200494088Y-104754127D01*
X200563319Y-104744703D01*
X200603770Y-104758251D01*
X200610497Y-104761892D01*
X200719999Y-104799484D01*
X200830015Y-104837253D01*
X200830017Y-104837253D01*
X200830019Y-104837254D01*
X201058951Y-104875456D01*
X201058952Y-104875456D01*
X201291048Y-104875456D01*
X201291049Y-104875456D01*
X201519981Y-104837254D01*
X201739503Y-104761892D01*
X201943626Y-104651426D01*
X202126784Y-104508869D01*
X202283979Y-104338109D01*
X202410924Y-104143805D01*
X202504157Y-103931256D01*
X202561134Y-103706261D01*
X202580300Y-103474956D01*
X202580300Y-103474949D01*
X202561135Y-103243658D01*
X202561133Y-103243647D01*
X202504157Y-103018655D01*
X202410924Y-102806107D01*
X202283983Y-102611808D01*
X202283980Y-102611805D01*
X202283979Y-102611803D01*
X202126784Y-102441043D01*
X202126779Y-102441039D01*
X202126777Y-102441037D01*
X201943634Y-102298491D01*
X201943628Y-102298487D01*
X201739504Y-102188020D01*
X201739495Y-102188017D01*
X201519984Y-102112658D01*
X201348282Y-102084006D01*
X201291049Y-102074456D01*
X201058951Y-102074456D01*
X201013164Y-102082096D01*
X200830015Y-102112658D01*
X200610504Y-102188017D01*
X200610495Y-102188020D01*
X200406371Y-102298487D01*
X200406365Y-102298491D01*
X200223222Y-102441037D01*
X200223219Y-102441040D01*
X200066018Y-102611806D01*
X199959058Y-102775522D01*
X199905911Y-102820878D01*
X199836680Y-102830302D01*
X199796231Y-102816755D01*
X199792371Y-102814665D01*
X199789503Y-102813113D01*
X199789496Y-102813111D01*
X199569985Y-102737752D01*
X199398283Y-102709100D01*
X199341050Y-102699550D01*
X199108952Y-102699550D01*
X199063165Y-102707190D01*
X198880016Y-102737752D01*
X198660505Y-102813111D01*
X198660496Y-102813114D01*
X198456372Y-102923581D01*
X198456366Y-102923585D01*
X198273223Y-103066131D01*
X198273220Y-103066134D01*
X198116017Y-103236902D01*
X197989076Y-103431201D01*
X197895843Y-103643749D01*
X197838867Y-103868741D01*
X197838865Y-103868752D01*
X197819701Y-104100043D01*
X191256266Y-104100043D01*
X191222455Y-104088212D01*
X191060004Y-104069909D01*
X191059996Y-104069909D01*
X190897544Y-104088212D01*
X190743225Y-104142210D01*
X190608472Y-104226882D01*
X190541235Y-104245882D01*
X190476528Y-104226882D01*
X190341774Y-104142210D01*
X190187455Y-104088212D01*
X190025004Y-104069909D01*
X190024996Y-104069909D01*
X189862544Y-104088212D01*
X189708225Y-104142210D01*
X189569795Y-104229192D01*
X189454192Y-104344795D01*
X189367210Y-104483225D01*
X189313212Y-104637544D01*
X189294909Y-104799996D01*
X182400000Y-104799996D01*
X182400000Y-104400000D01*
X182211721Y-104400000D01*
X182213386Y-102449996D01*
X189394909Y-102449996D01*
X189394909Y-102450003D01*
X189413212Y-102612455D01*
X189467210Y-102766774D01*
X189491925Y-102806107D01*
X189554192Y-102905204D01*
X189669796Y-103020808D01*
X189808225Y-103107789D01*
X189962539Y-103161786D01*
X189962542Y-103161786D01*
X189962544Y-103161787D01*
X190124996Y-103180091D01*
X190125000Y-103180091D01*
X190125004Y-103180091D01*
X190287457Y-103161787D01*
X190287459Y-103161786D01*
X190287461Y-103161786D01*
X190441775Y-103107789D01*
X190441780Y-103107786D01*
X190451633Y-103101595D01*
X190518869Y-103082593D01*
X190583578Y-103101593D01*
X190633225Y-103132789D01*
X190768406Y-103180091D01*
X190787542Y-103186787D01*
X190949996Y-103205091D01*
X190950000Y-103205091D01*
X190950004Y-103205091D01*
X191112455Y-103186787D01*
X191112456Y-103186786D01*
X191112461Y-103186786D01*
X191266775Y-103132789D01*
X191405204Y-103045808D01*
X191520808Y-102930204D01*
X191607789Y-102791775D01*
X191661786Y-102637461D01*
X191664604Y-102612455D01*
X191680091Y-102475003D01*
X191680091Y-102474996D01*
X191661787Y-102312544D01*
X191661786Y-102312542D01*
X191661786Y-102312539D01*
X191607789Y-102158225D01*
X191520808Y-102019796D01*
X191405204Y-101904192D01*
X191342606Y-101864859D01*
X191266774Y-101817210D01*
X191112455Y-101763212D01*
X190950004Y-101744909D01*
X190949996Y-101744909D01*
X190787544Y-101763212D01*
X190633223Y-101817211D01*
X190623361Y-101823408D01*
X190556124Y-101842406D01*
X190491420Y-101823405D01*
X190441776Y-101792211D01*
X190287455Y-101738212D01*
X190125004Y-101719909D01*
X190124996Y-101719909D01*
X189962544Y-101738212D01*
X189808225Y-101792210D01*
X189669795Y-101879192D01*
X189554192Y-101994795D01*
X189467210Y-102133225D01*
X189413212Y-102287544D01*
X189394909Y-102449996D01*
X182213386Y-102449996D01*
X182216695Y-98574996D01*
X190144909Y-98574996D01*
X190144909Y-98575003D01*
X190163212Y-98737455D01*
X190217210Y-98891774D01*
X190217211Y-98891775D01*
X190304192Y-99030204D01*
X190419796Y-99145808D01*
X190558225Y-99232789D01*
X190712539Y-99286786D01*
X190712542Y-99286786D01*
X190712544Y-99286787D01*
X190874996Y-99305091D01*
X190875000Y-99305091D01*
X190875004Y-99305091D01*
X191037455Y-99286787D01*
X191037456Y-99286786D01*
X191037461Y-99286786D01*
X191191775Y-99232789D01*
X191330204Y-99145808D01*
X191445808Y-99030204D01*
X191527224Y-98900630D01*
X191579556Y-98854341D01*
X191646099Y-98843384D01*
X191701255Y-98849598D01*
X191749998Y-98855091D01*
X191750000Y-98855091D01*
X191750004Y-98855091D01*
X191912455Y-98836787D01*
X191912456Y-98836786D01*
X191912461Y-98836786D01*
X192066775Y-98782789D01*
X192205204Y-98695808D01*
X192320808Y-98580204D01*
X192407789Y-98441775D01*
X192461786Y-98287461D01*
X192480091Y-98125000D01*
X192474625Y-98076492D01*
X192461787Y-97962544D01*
X192461786Y-97962542D01*
X192461786Y-97962539D01*
X192407789Y-97808225D01*
X192320808Y-97669796D01*
X192205204Y-97554192D01*
X192115535Y-97497849D01*
X192066774Y-97467210D01*
X191912455Y-97413212D01*
X191750004Y-97394909D01*
X191749996Y-97394909D01*
X191587544Y-97413212D01*
X191433225Y-97467210D01*
X191294795Y-97554192D01*
X191179190Y-97669797D01*
X191097775Y-97799368D01*
X191045440Y-97845658D01*
X190978899Y-97856615D01*
X190875004Y-97844909D01*
X190874996Y-97844909D01*
X190712544Y-97863212D01*
X190558225Y-97917210D01*
X190419795Y-98004192D01*
X190304192Y-98119795D01*
X190217210Y-98258225D01*
X190163212Y-98412544D01*
X190144909Y-98574996D01*
X182216695Y-98574996D01*
X182218863Y-96036874D01*
X182219663Y-95100000D01*
X182400000Y-95100000D01*
X182400000Y-93700000D01*
X182220858Y-93700000D01*
X182221093Y-93424996D01*
X185844909Y-93424996D01*
X185844909Y-93425003D01*
X185863212Y-93587455D01*
X185917210Y-93741774D01*
X185917211Y-93741775D01*
X186004192Y-93880204D01*
X186119796Y-93995808D01*
X186258225Y-94082789D01*
X186412539Y-94136786D01*
X186412542Y-94136786D01*
X186412544Y-94136787D01*
X186574996Y-94155091D01*
X186575000Y-94155091D01*
X186575004Y-94155091D01*
X186737455Y-94136787D01*
X186737456Y-94136786D01*
X186737461Y-94136786D01*
X186770958Y-94125065D01*
X198295500Y-94125065D01*
X198295500Y-94125078D01*
X198314664Y-94356369D01*
X198314666Y-94356380D01*
X198371642Y-94581372D01*
X198464875Y-94793920D01*
X198591818Y-94988222D01*
X198709494Y-95116053D01*
X198740416Y-95178707D01*
X198732556Y-95248133D01*
X198709495Y-95284017D01*
X198591821Y-95411846D01*
X198591819Y-95411847D01*
X198591816Y-95411852D01*
X198464875Y-95606150D01*
X198371642Y-95818698D01*
X198314666Y-96043690D01*
X198314664Y-96043701D01*
X198295500Y-96274992D01*
X198295500Y-96275005D01*
X198314664Y-96506296D01*
X198314666Y-96506307D01*
X198371642Y-96731299D01*
X198464875Y-96943847D01*
X198591816Y-97138146D01*
X198591819Y-97138150D01*
X198591821Y-97138152D01*
X198749016Y-97308912D01*
X198749019Y-97308914D01*
X198749022Y-97308917D01*
X198932165Y-97451463D01*
X198932171Y-97451467D01*
X198932174Y-97451469D01*
X199136297Y-97561935D01*
X199245743Y-97599508D01*
X199355815Y-97637296D01*
X199355817Y-97637296D01*
X199355819Y-97637297D01*
X199584751Y-97675499D01*
X199584752Y-97675499D01*
X199816848Y-97675499D01*
X199816849Y-97675499D01*
X200045781Y-97637297D01*
X200265303Y-97561935D01*
X200272059Y-97558278D01*
X200340385Y-97543679D01*
X200405759Y-97568338D01*
X200434891Y-97599508D01*
X200480812Y-97669796D01*
X200541820Y-97763175D01*
X200699015Y-97933935D01*
X200699018Y-97933937D01*
X200699021Y-97933940D01*
X200882164Y-98076486D01*
X200882170Y-98076490D01*
X200882173Y-98076492D01*
X201086296Y-98186958D01*
X201200286Y-98226090D01*
X201305814Y-98262319D01*
X201305816Y-98262319D01*
X201305818Y-98262320D01*
X201534750Y-98300522D01*
X201534751Y-98300522D01*
X201766847Y-98300522D01*
X201766848Y-98300522D01*
X201995780Y-98262320D01*
X202215302Y-98186958D01*
X202419425Y-98076492D01*
X202602583Y-97933935D01*
X202759778Y-97763175D01*
X202886723Y-97568871D01*
X202979956Y-97356322D01*
X203036933Y-97131327D01*
X203056099Y-96900022D01*
X203056099Y-96900015D01*
X203036934Y-96668724D01*
X203036932Y-96668713D01*
X202979956Y-96443721D01*
X202886723Y-96231173D01*
X202759782Y-96036874D01*
X202759779Y-96036871D01*
X202759778Y-96036869D01*
X202602583Y-95866109D01*
X202602578Y-95866105D01*
X202602576Y-95866103D01*
X202419433Y-95723557D01*
X202419427Y-95723553D01*
X202215303Y-95613086D01*
X202215294Y-95613083D01*
X201995783Y-95537724D01*
X201824081Y-95509072D01*
X201766848Y-95499522D01*
X201534750Y-95499522D01*
X201488963Y-95507162D01*
X201305814Y-95537724D01*
X201086300Y-95613084D01*
X201086285Y-95613091D01*
X201079529Y-95616747D01*
X201011200Y-95631340D01*
X200945829Y-95606674D01*
X200916707Y-95575512D01*
X200892019Y-95537724D01*
X200809779Y-95411846D01*
X200692105Y-95284017D01*
X200661183Y-95221363D01*
X200669043Y-95151937D01*
X200692101Y-95116057D01*
X200809779Y-94988225D01*
X200936724Y-94793921D01*
X201029957Y-94581372D01*
X201086934Y-94356377D01*
X201103613Y-94155091D01*
X201106100Y-94125078D01*
X201106100Y-94125065D01*
X201086935Y-93893774D01*
X201086933Y-93893763D01*
X201029957Y-93668771D01*
X200936724Y-93456223D01*
X200809783Y-93261924D01*
X200809780Y-93261921D01*
X200809779Y-93261919D01*
X200652584Y-93091159D01*
X200652579Y-93091155D01*
X200652577Y-93091153D01*
X200469434Y-92948607D01*
X200469428Y-92948603D01*
X200265304Y-92838136D01*
X200265295Y-92838133D01*
X200045784Y-92762774D01*
X199874082Y-92734122D01*
X199816849Y-92724572D01*
X199584751Y-92724572D01*
X199538964Y-92732212D01*
X199355815Y-92762774D01*
X199136304Y-92838133D01*
X199136295Y-92838136D01*
X198932171Y-92948603D01*
X198932165Y-92948607D01*
X198749022Y-93091153D01*
X198749019Y-93091156D01*
X198591816Y-93261924D01*
X198464875Y-93456223D01*
X198371642Y-93668771D01*
X198314666Y-93893763D01*
X198314664Y-93893774D01*
X198295500Y-94125065D01*
X186770958Y-94125065D01*
X186891775Y-94082789D01*
X187030204Y-93995808D01*
X187145808Y-93880204D01*
X187232789Y-93741775D01*
X187286786Y-93587461D01*
X187305091Y-93425000D01*
X187286786Y-93262539D01*
X187232789Y-93108225D01*
X187145808Y-92969796D01*
X187030204Y-92854192D01*
X187004646Y-92838133D01*
X186891774Y-92767210D01*
X186737455Y-92713212D01*
X186575004Y-92694909D01*
X186574996Y-92694909D01*
X186412544Y-92713212D01*
X186258225Y-92767210D01*
X186119795Y-92854192D01*
X186004192Y-92969795D01*
X185917210Y-93108225D01*
X185863212Y-93262544D01*
X185844909Y-93424996D01*
X182221093Y-93424996D01*
X182221285Y-93200000D01*
X182400000Y-93200000D01*
X182400000Y-91800000D01*
X182222481Y-91800000D01*
X182224894Y-88973893D01*
X182244636Y-88906871D01*
X182297479Y-88861162D01*
X182348894Y-88850000D01*
X205606500Y-88850000D01*
X205673539Y-88869685D01*
G37*
%TD.AperFunction*%
%TD*%
%TA.AperFunction,Conductor*%
%TO.N,GND1*%
G36*
X144700000Y-110600000D02*
G01*
X143800000Y-110600000D01*
X143800000Y-96666007D01*
X143837455Y-96661787D01*
X143837456Y-96661786D01*
X143837461Y-96661786D01*
X143991775Y-96607789D01*
X144130204Y-96520808D01*
X144245808Y-96405204D01*
X144332789Y-96266775D01*
X144386786Y-96112461D01*
X144405091Y-95950000D01*
X144386786Y-95787539D01*
X144332789Y-95633225D01*
X144245808Y-95494796D01*
X144130204Y-95379192D01*
X143991774Y-95292210D01*
X143837455Y-95238212D01*
X143800000Y-95233992D01*
X143800000Y-94000000D01*
X144700000Y-94000000D01*
X144700000Y-110600000D01*
G37*
%TD.AperFunction*%
%TD*%
M02*
