%TF.GenerationSoftware,KiCad,Pcbnew,8.0.7*%
%TF.CreationDate,2025-03-10T13:05:38-04:00*%
%TF.ProjectId,dyno_inst_3,64796e6f-5f69-46e7-9374-5f332e6b6963,rev?*%
%TF.SameCoordinates,Original*%
%TF.FileFunction,Drillmap*%
%TF.FilePolarity,Positive*%
%FSLAX45Y45*%
G04 Gerber Fmt 4.5, Leading zero omitted, Abs format (unit mm)*
G04 Created by KiCad (PCBNEW 8.0.7) date 2025-03-10 13:05:38*
%MOMM*%
%LPD*%
G01*
G04 APERTURE LIST*
%ADD10C,0.250000*%
%ADD11C,0.200000*%
G04 APERTURE END LIST*
D10*
X20598100Y-11602200D02*
G75*
G02*
X20498100Y-11702200I-100000J0D01*
G01*
X20498100Y-11702200D02*
X12087500Y-11702200D01*
X11987500Y-11602200D02*
X11987500Y-1820000D01*
X11987500Y-1820000D02*
G75*
G02*
X12087500Y-1720000I100000J0D01*
G01*
X20498100Y-1720000D02*
G75*
G02*
X20598100Y-1820000I0J-100000D01*
G01*
X12087500Y-1720000D02*
X20498100Y-1720000D01*
X20598100Y-1820000D02*
X20598100Y-11602200D01*
X12087500Y-11702200D02*
G75*
G02*
X11987500Y-11602200I0J100000D01*
G01*
D11*
X12235777Y-12026184D02*
X12235777Y-11826184D01*
X12235777Y-11826184D02*
X12283396Y-11826184D01*
X12283396Y-11826184D02*
X12311967Y-11835708D01*
X12311967Y-11835708D02*
X12331015Y-11854755D01*
X12331015Y-11854755D02*
X12340539Y-11873803D01*
X12340539Y-11873803D02*
X12350062Y-11911898D01*
X12350062Y-11911898D02*
X12350062Y-11940469D01*
X12350062Y-11940469D02*
X12340539Y-11978565D01*
X12340539Y-11978565D02*
X12331015Y-11997612D01*
X12331015Y-11997612D02*
X12311967Y-12016660D01*
X12311967Y-12016660D02*
X12283396Y-12026184D01*
X12283396Y-12026184D02*
X12235777Y-12026184D01*
X12435777Y-12026184D02*
X12435777Y-11892850D01*
X12435777Y-11930946D02*
X12445301Y-11911898D01*
X12445301Y-11911898D02*
X12454824Y-11902374D01*
X12454824Y-11902374D02*
X12473872Y-11892850D01*
X12473872Y-11892850D02*
X12492920Y-11892850D01*
X12559586Y-12026184D02*
X12559586Y-11892850D01*
X12559586Y-11826184D02*
X12550062Y-11835708D01*
X12550062Y-11835708D02*
X12559586Y-11845231D01*
X12559586Y-11845231D02*
X12569110Y-11835708D01*
X12569110Y-11835708D02*
X12559586Y-11826184D01*
X12559586Y-11826184D02*
X12559586Y-11845231D01*
X12683396Y-12026184D02*
X12664348Y-12016660D01*
X12664348Y-12016660D02*
X12654824Y-11997612D01*
X12654824Y-11997612D02*
X12654824Y-11826184D01*
X12788158Y-12026184D02*
X12769110Y-12016660D01*
X12769110Y-12016660D02*
X12759586Y-11997612D01*
X12759586Y-11997612D02*
X12759586Y-11826184D01*
X13016729Y-12026184D02*
X13016729Y-11826184D01*
X13016729Y-11826184D02*
X13083396Y-11969041D01*
X13083396Y-11969041D02*
X13150062Y-11826184D01*
X13150062Y-11826184D02*
X13150062Y-12026184D01*
X13331015Y-12026184D02*
X13331015Y-11921422D01*
X13331015Y-11921422D02*
X13321491Y-11902374D01*
X13321491Y-11902374D02*
X13302443Y-11892850D01*
X13302443Y-11892850D02*
X13264348Y-11892850D01*
X13264348Y-11892850D02*
X13245301Y-11902374D01*
X13331015Y-12016660D02*
X13311967Y-12026184D01*
X13311967Y-12026184D02*
X13264348Y-12026184D01*
X13264348Y-12026184D02*
X13245301Y-12016660D01*
X13245301Y-12016660D02*
X13235777Y-11997612D01*
X13235777Y-11997612D02*
X13235777Y-11978565D01*
X13235777Y-11978565D02*
X13245301Y-11959517D01*
X13245301Y-11959517D02*
X13264348Y-11949993D01*
X13264348Y-11949993D02*
X13311967Y-11949993D01*
X13311967Y-11949993D02*
X13331015Y-11940469D01*
X13426253Y-11892850D02*
X13426253Y-12092850D01*
X13426253Y-11902374D02*
X13445301Y-11892850D01*
X13445301Y-11892850D02*
X13483396Y-11892850D01*
X13483396Y-11892850D02*
X13502443Y-11902374D01*
X13502443Y-11902374D02*
X13511967Y-11911898D01*
X13511967Y-11911898D02*
X13521491Y-11930946D01*
X13521491Y-11930946D02*
X13521491Y-11988088D01*
X13521491Y-11988088D02*
X13511967Y-12007136D01*
X13511967Y-12007136D02*
X13502443Y-12016660D01*
X13502443Y-12016660D02*
X13483396Y-12026184D01*
X13483396Y-12026184D02*
X13445301Y-12026184D01*
X13445301Y-12026184D02*
X13426253Y-12016660D01*
X13607205Y-12007136D02*
X13616729Y-12016660D01*
X13616729Y-12016660D02*
X13607205Y-12026184D01*
X13607205Y-12026184D02*
X13597682Y-12016660D01*
X13597682Y-12016660D02*
X13607205Y-12007136D01*
X13607205Y-12007136D02*
X13607205Y-12026184D01*
X13607205Y-11902374D02*
X13616729Y-11911898D01*
X13616729Y-11911898D02*
X13607205Y-11921422D01*
X13607205Y-11921422D02*
X13597682Y-11911898D01*
X13597682Y-11911898D02*
X13607205Y-11902374D01*
X13607205Y-11902374D02*
X13607205Y-11921422D01*
M02*
