%TF.GenerationSoftware,KiCad,Pcbnew,8.0.7*%
%TF.CreationDate,2025-03-10T13:05:35-04:00*%
%TF.ProjectId,dyno_inst_3,64796e6f-5f69-46e7-9374-5f332e6b6963,rev?*%
%TF.SameCoordinates,Original*%
%TF.FileFunction,Copper,L1,Top*%
%TF.FilePolarity,Positive*%
%FSLAX46Y46*%
G04 Gerber Fmt 4.6, Leading zero omitted, Abs format (unit mm)*
G04 Created by KiCad (PCBNEW 8.0.7) date 2025-03-10 13:05:35*
%MOMM*%
%LPD*%
G01*
G04 APERTURE LIST*
G04 Aperture macros list*
%AMRoundRect*
0 Rectangle with rounded corners*
0 $1 Rounding radius*
0 $2 $3 $4 $5 $6 $7 $8 $9 X,Y pos of 4 corners*
0 Add a 4 corners polygon primitive as box body*
4,1,4,$2,$3,$4,$5,$6,$7,$8,$9,$2,$3,0*
0 Add four circle primitives for the rounded corners*
1,1,$1+$1,$2,$3*
1,1,$1+$1,$4,$5*
1,1,$1+$1,$6,$7*
1,1,$1+$1,$8,$9*
0 Add four rect primitives between the rounded corners*
20,1,$1+$1,$2,$3,$4,$5,0*
20,1,$1+$1,$4,$5,$6,$7,0*
20,1,$1+$1,$6,$7,$8,$9,0*
20,1,$1+$1,$8,$9,$2,$3,0*%
G04 Aperture macros list end*
%TA.AperFunction,SMDPad,CuDef*%
%ADD10R,1.200000X0.600000*%
%TD*%
%TA.AperFunction,SMDPad,CuDef*%
%ADD11R,0.650000X1.500000*%
%TD*%
%TA.AperFunction,SMDPad,CuDef*%
%ADD12RoundRect,0.140000X-0.140000X-0.170000X0.140000X-0.170000X0.140000X0.170000X-0.140000X0.170000X0*%
%TD*%
%TA.AperFunction,SMDPad,CuDef*%
%ADD13RoundRect,0.135000X-0.185000X0.135000X-0.185000X-0.135000X0.185000X-0.135000X0.185000X0.135000X0*%
%TD*%
%TA.AperFunction,SMDPad,CuDef*%
%ADD14RoundRect,0.150000X0.587500X0.150000X-0.587500X0.150000X-0.587500X-0.150000X0.587500X-0.150000X0*%
%TD*%
%TA.AperFunction,ComponentPad*%
%ADD15C,5.000000*%
%TD*%
%TA.AperFunction,SMDPad,CuDef*%
%ADD16RoundRect,0.140000X0.140000X0.170000X-0.140000X0.170000X-0.140000X-0.170000X0.140000X-0.170000X0*%
%TD*%
%TA.AperFunction,ComponentPad*%
%ADD17C,1.800000*%
%TD*%
%TA.AperFunction,ComponentPad*%
%ADD18R,1.700000X1.700000*%
%TD*%
%TA.AperFunction,ComponentPad*%
%ADD19O,1.700000X1.700000*%
%TD*%
%TA.AperFunction,SMDPad,CuDef*%
%ADD20RoundRect,0.140000X-0.170000X0.140000X-0.170000X-0.140000X0.170000X-0.140000X0.170000X0.140000X0*%
%TD*%
%TA.AperFunction,SMDPad,CuDef*%
%ADD21R,0.711200X0.254000*%
%TD*%
%TA.AperFunction,SMDPad,CuDef*%
%ADD22R,0.711200X0.255562*%
%TD*%
%TA.AperFunction,SMDPad,CuDef*%
%ADD23R,1.651000X1.778000*%
%TD*%
%TA.AperFunction,SMDPad,CuDef*%
%ADD24R,1.651000X1.066800*%
%TD*%
%TA.AperFunction,SMDPad,CuDef*%
%ADD25RoundRect,0.250000X0.475000X-0.250000X0.475000X0.250000X-0.475000X0.250000X-0.475000X-0.250000X0*%
%TD*%
%TA.AperFunction,SMDPad,CuDef*%
%ADD26RoundRect,0.140000X0.170000X-0.140000X0.170000X0.140000X-0.170000X0.140000X-0.170000X-0.140000X0*%
%TD*%
%TA.AperFunction,SMDPad,CuDef*%
%ADD27RoundRect,0.250000X0.262500X0.450000X-0.262500X0.450000X-0.262500X-0.450000X0.262500X-0.450000X0*%
%TD*%
%TA.AperFunction,SMDPad,CuDef*%
%ADD28RoundRect,0.225000X0.225000X0.250000X-0.225000X0.250000X-0.225000X-0.250000X0.225000X-0.250000X0*%
%TD*%
%TA.AperFunction,SMDPad,CuDef*%
%ADD29R,0.406400X0.749300*%
%TD*%
%TA.AperFunction,SMDPad,CuDef*%
%ADD30R,0.640000X1.910000*%
%TD*%
%TA.AperFunction,SMDPad,CuDef*%
%ADD31RoundRect,0.150000X-0.150000X0.500000X-0.150000X-0.500000X0.150000X-0.500000X0.150000X0.500000X0*%
%TD*%
%TA.AperFunction,SMDPad,CuDef*%
%ADD32RoundRect,0.135000X0.135000X0.185000X-0.135000X0.185000X-0.135000X-0.185000X0.135000X-0.185000X0*%
%TD*%
%TA.AperFunction,ComponentPad*%
%ADD33R,1.320800X1.320800*%
%TD*%
%TA.AperFunction,ComponentPad*%
%ADD34C,1.320800*%
%TD*%
%TA.AperFunction,SMDPad,CuDef*%
%ADD35R,0.533400X1.461700*%
%TD*%
%TA.AperFunction,SMDPad,CuDef*%
%ADD36RoundRect,0.250000X-1.075000X0.375000X-1.075000X-0.375000X1.075000X-0.375000X1.075000X0.375000X0*%
%TD*%
%TA.AperFunction,SMDPad,CuDef*%
%ADD37R,0.876300X0.355600*%
%TD*%
%TA.AperFunction,SMDPad,CuDef*%
%ADD38RoundRect,0.100000X-0.100000X0.125000X-0.100000X-0.125000X0.100000X-0.125000X0.100000X0.125000X0*%
%TD*%
%TA.AperFunction,SMDPad,CuDef*%
%ADD39RoundRect,0.100000X0.712500X0.100000X-0.712500X0.100000X-0.712500X-0.100000X0.712500X-0.100000X0*%
%TD*%
%TA.AperFunction,SMDPad,CuDef*%
%ADD40RoundRect,0.135000X-0.135000X-0.185000X0.135000X-0.185000X0.135000X0.185000X-0.135000X0.185000X0*%
%TD*%
%TA.AperFunction,SMDPad,CuDef*%
%ADD41RoundRect,0.250000X-0.450000X0.262500X-0.450000X-0.262500X0.450000X-0.262500X0.450000X0.262500X0*%
%TD*%
%TA.AperFunction,SMDPad,CuDef*%
%ADD42RoundRect,0.135000X0.185000X-0.135000X0.185000X0.135000X-0.185000X0.135000X-0.185000X-0.135000X0*%
%TD*%
%TA.AperFunction,SMDPad,CuDef*%
%ADD43R,1.461700X0.533400*%
%TD*%
%TA.AperFunction,SMDPad,CuDef*%
%ADD44R,1.981200X0.558800*%
%TD*%
%TA.AperFunction,SMDPad,CuDef*%
%ADD45R,0.254000X0.711200*%
%TD*%
%TA.AperFunction,SMDPad,CuDef*%
%ADD46R,0.255562X0.711200*%
%TD*%
%TA.AperFunction,SMDPad,CuDef*%
%ADD47R,1.778000X1.651000*%
%TD*%
%TA.AperFunction,SMDPad,CuDef*%
%ADD48R,1.066800X1.651000*%
%TD*%
%TA.AperFunction,SMDPad,CuDef*%
%ADD49RoundRect,0.225000X-0.250000X0.225000X-0.250000X-0.225000X0.250000X-0.225000X0.250000X0.225000X0*%
%TD*%
%TA.AperFunction,SMDPad,CuDef*%
%ADD50RoundRect,0.100000X0.100000X-0.125000X0.100000X0.125000X-0.100000X0.125000X-0.100000X-0.125000X0*%
%TD*%
%TA.AperFunction,SMDPad,CuDef*%
%ADD51R,0.355600X1.473200*%
%TD*%
%TA.AperFunction,ComponentPad*%
%ADD52O,2.250000X4.500000*%
%TD*%
%TA.AperFunction,ViaPad*%
%ADD53C,0.350000*%
%TD*%
%TA.AperFunction,ViaPad*%
%ADD54C,0.400000*%
%TD*%
%TA.AperFunction,ViaPad*%
%ADD55C,0.750000*%
%TD*%
%TA.AperFunction,Conductor*%
%ADD56C,0.160000*%
%TD*%
%TA.AperFunction,Conductor*%
%ADD57C,0.200000*%
%TD*%
%TA.AperFunction,Conductor*%
%ADD58C,0.500000*%
%TD*%
G04 APERTURE END LIST*
D10*
%TO.P,IC3,1,OUT*%
%TO.N,+2v5adc*%
X146245050Y-94641074D03*
%TO.P,IC3,2,GND_1*%
%TO.N,GND1*%
X146245050Y-95591074D03*
%TO.P,IC3,3,GND_2*%
X146245050Y-96541074D03*
%TO.P,IC3,4,~{SHDN}*%
%TO.N,+5vref*%
X148745050Y-96541074D03*
%TO.P,IC3,5,GND_3*%
%TO.N,GND1*%
X148745050Y-95591074D03*
%TO.P,IC3,6,VDD*%
%TO.N,+5vref*%
X148745050Y-94641074D03*
%TD*%
D11*
%TO.P,IC2,1,BOOST*%
%TO.N,+12v*%
X178820784Y-82076326D03*
%TO.P,IC2,2,CAP+*%
%TO.N,Net-(IC2-CAP+)*%
X177550784Y-82076326D03*
%TO.P,IC2,3,GND*%
%TO.N,GND1*%
X176280784Y-82076326D03*
%TO.P,IC2,4,CAP-*%
%TO.N,Net-(IC2-CAP-)*%
X175010784Y-82076326D03*
%TO.P,IC2,5,VOUT*%
%TO.N,-12v*%
X175010784Y-87476326D03*
%TO.P,IC2,6,LOW_VOLTAGE_(LV)*%
%TO.N,unconnected-(IC2-LOW_VOLTAGE_(LV)-Pad6)*%
X176280784Y-87476326D03*
%TO.P,IC2,7,OSC*%
%TO.N,unconnected-(IC2-OSC-Pad7)*%
X177550784Y-87476326D03*
%TO.P,IC2,8,V+*%
%TO.N,+12v*%
X178820784Y-87476326D03*
%TD*%
D12*
%TO.P,C2,1*%
%TO.N,GND3*%
X136990000Y-93564148D03*
%TO.P,C2,2*%
%TO.N,3v3Teensy*%
X137950000Y-93564148D03*
%TD*%
D13*
%TO.P,R3,1*%
%TO.N,Net-(U4-MISO)*%
X156525000Y-79755000D03*
%TO.P,R3,2*%
%TO.N,AMISO*%
X156525000Y-80775000D03*
%TD*%
D14*
%TO.P,U8,1,K*%
%TO.N,GND1*%
X153737273Y-96487500D03*
%TO.P,U8,2,REF*%
%TO.N,Net-(U8-REF)*%
X153737273Y-94587500D03*
%TO.P,U8,3,A*%
%TO.N,-2v5adc*%
X151862273Y-95537500D03*
%TD*%
D13*
%TO.P,R5,1*%
%TO.N,-5vref*%
X150225000Y-94242076D03*
%TO.P,R5,2*%
%TO.N,-2v5adc*%
X150225000Y-95262076D03*
%TD*%
D15*
%TO.P,H2,1,1*%
%TO.N,GND1*%
X123646900Y-113974000D03*
%TD*%
D16*
%TO.P,C36,1*%
%TO.N,+5vexc*%
X179445684Y-94267895D03*
%TO.P,C36,2*%
%TO.N,Net-(U10-BYPP)*%
X178485684Y-94267895D03*
%TD*%
D17*
%TO.P,U4,3.3V_1,3.3V*%
%TO.N,3v3Teensy*%
X158890000Y-77390000D03*
%TO.P,U4,5V,5V*%
%TO.N,unconnected-(U4-Pad5V)*%
X129680000Y-74340000D03*
%TO.P,U4,8,TX2*%
%TO.N,shcalctrl*%
X146190000Y-77390000D03*
%TO.P,U4,10,CS1*%
%TO.N,Net-(U4-CS1)*%
X151270000Y-77390000D03*
%TO.P,U4,11,MOSI*%
%TO.N,Net-(U4-MOSI)*%
X153810000Y-77390000D03*
%TO.P,U4,12,MISO*%
%TO.N,Net-(U4-MISO)*%
X156350000Y-77390000D03*
%TO.P,U4,13,SCK*%
%TO.N,Net-(U4-SCK)*%
X156350000Y-62150000D03*
%TO.P,U4,14,A0*%
%TO.N,BOTINB3v3*%
X153810000Y-62150000D03*
%TO.P,U4,15,A1*%
%TO.N,TOPINB3v3*%
X151270000Y-62150000D03*
%TO.P,U4,18,A4*%
%TO.N,BOTINA3v3*%
X143650000Y-62150000D03*
%TO.P,U4,19,A5*%
%TO.N,TOPINA3v3*%
X141110000Y-62150000D03*
%TO.P,U4,30,CRX3*%
%TO.N,Benc1*%
X176670000Y-77390000D03*
%TO.P,U4,31,CTX3*%
%TO.N,Benc2*%
X179210000Y-77390000D03*
%TO.P,U4,32,OUT1B*%
%TO.N,Benc3*%
X181750000Y-77390000D03*
%TO.P,U4,34,RX8*%
%TO.N,INB*%
X179210000Y-62150000D03*
%TO.P,U4,35,TX8*%
%TO.N,ENB*%
X176670000Y-62150000D03*
%TO.P,U4,36,CS2*%
%TO.N,CURRSNS*%
X174130000Y-62150000D03*
%TO.P,U4,37,CS3*%
%TO.N,PWM*%
X171590000Y-62150000D03*
%TO.P,U4,38,A14*%
%TO.N,ENA*%
X169050000Y-62150000D03*
%TO.P,U4,39,A15*%
%TO.N,INA*%
X166510000Y-62150000D03*
%TO.P,U4,GND1,GND*%
%TO.N,GND3*%
X123330000Y-77390000D03*
%TO.P,U4,GND2,GND__1*%
X158890000Y-62150000D03*
%TO.P,U4,GND3,GND__2*%
X125870000Y-62150000D03*
%TO.P,U4,GND4,GND__3*%
X169050000Y-69770000D03*
%TO.P,U4,GND5,GND__4*%
X138300000Y-66600000D03*
%TO.P,U4,ON/OFF,ON/OFF*%
%TO.N,unconnected-(U4-PadON{slash}OFF)*%
X169050000Y-64690000D03*
%TO.P,U4,PROGRAM,PROGRAM*%
%TO.N,unconnected-(U4-PadPROGRAM)*%
X169050000Y-67230000D03*
%TO.P,U4,R+,R+*%
%TO.N,Rd+*%
X136300000Y-64600000D03*
%TO.P,U4,R-,R-*%
%TO.N,Rd-*%
X138300000Y-64600000D03*
%TO.P,U4,T+,T+*%
%TO.N,Td+*%
X138300000Y-68600000D03*
%TO.P,U4,T-,T-*%
%TO.N,Td-*%
X136300000Y-68600000D03*
%TO.P,U4,USB_GND1,USB_GND*%
%TO.N,GND3*%
X137300000Y-74340000D03*
%TO.P,U4,USB_GND2,USB_GND__1*%
X139840000Y-74340000D03*
%TO.P,U4,VIN,VIN*%
%TO.N,5vpwr*%
X123330000Y-62150000D03*
%TD*%
D18*
%TO.P,J5,1,Pin_1*%
%TO.N,TOPINA5v*%
X149790000Y-42250000D03*
D19*
%TO.P,J5,2,Pin_2*%
%TO.N,BOTINA5v*%
X152330000Y-42250000D03*
%TO.P,J5,3,Pin_3*%
%TO.N,TOPINB5v*%
X154870000Y-42250000D03*
%TO.P,J5,4,Pin_4*%
%TO.N,BOTINB5v*%
X157410000Y-42250000D03*
%TO.P,J5,5,Pin_5*%
%TO.N,5vpwr*%
X159950000Y-42250000D03*
%TO.P,J5,6,Pin_6*%
%TO.N,GND3*%
X162490000Y-42250000D03*
%TD*%
D16*
%TO.P,C28,1*%
%TO.N,GND1*%
X146725050Y-93091074D03*
%TO.P,C28,2*%
%TO.N,+2v5adc*%
X145765050Y-93091074D03*
%TD*%
%TO.P,C48,1*%
%TO.N,Net-(C48-Pad1)*%
X163508615Y-108167095D03*
%TO.P,C48,2*%
%TO.N,Net-(U14B--)*%
X162548615Y-108167095D03*
%TD*%
D20*
%TO.P,C25,1*%
%TO.N,GND3*%
X190950000Y-63170000D03*
%TO.P,C25,2*%
%TO.N,3v3Teensy*%
X190950000Y-64130000D03*
%TD*%
%TO.P,C91,1*%
%TO.N,Net-(T1-RCT)*%
X134550000Y-58085000D03*
%TO.P,C91,2*%
%TO.N,GND3*%
X134550000Y-59045000D03*
%TD*%
D21*
%TO.P,U24,1,OUTP*%
%TO.N,+5vcla*%
X169300000Y-89375000D03*
%TO.P,U24,2,NC*%
%TO.N,unconnected-(U24-NC-Pad2)*%
X169300000Y-88875001D03*
%TO.P,U24,3,BYPP*%
%TO.N,Net-(U24-BYPP)*%
X169300000Y-88374999D03*
%TO.P,U24,4,GND*%
%TO.N,GND1*%
X169300000Y-87875000D03*
%TO.P,U24,5,GND*%
X169300000Y-87374998D03*
%TO.P,U24,6,INN*%
%TO.N,-12v*%
X169300000Y-86874999D03*
%TO.P,U24,7,OUTN*%
%TO.N,Net-(U24-OUTN)*%
X169300000Y-86375000D03*
%TO.P,U24,8,NC*%
%TO.N,unconnected-(U24-NC-Pad8)*%
X166500000Y-86375000D03*
D22*
%TO.P,U24,9,INN*%
%TO.N,-12v*%
X166496370Y-86875780D03*
D21*
%TO.P,U24,10,\u002ASHDNN*%
%TO.N,GND1*%
X166500000Y-87375001D03*
%TO.P,U24,11,BYPN*%
%TO.N,-5vcla*%
X166500000Y-87875000D03*
%TO.P,U24,12,\u002ASHDNP*%
%TO.N,+12v*%
X166500000Y-88375002D03*
%TO.P,U24,13,NC*%
%TO.N,unconnected-(U24-NC-Pad13)*%
X166500000Y-88875001D03*
%TO.P,U24,14,INP*%
%TO.N,+12v*%
X166500000Y-89375000D03*
D22*
%TO.P,U24,15,GND*%
%TO.N,GND1*%
X168785263Y-87876630D03*
D23*
X167855000Y-88665000D03*
D24*
%TO.P,U24,16,INN*%
%TO.N,-12v*%
X167945000Y-86730000D03*
D22*
X167000000Y-86875000D03*
%TD*%
D13*
%TO.P,R10,1*%
%TO.N,Net-(U9-REF)*%
X166139091Y-94235248D03*
%TO.P,R10,2*%
%TO.N,GND1*%
X166139091Y-95255248D03*
%TD*%
D25*
%TO.P,C87,1*%
%TO.N,GND1*%
X202650000Y-74725000D03*
%TO.P,C87,2*%
%TO.N,+12v*%
X202650000Y-72825000D03*
%TD*%
D26*
%TO.P,C80,1*%
%TO.N,+5vcla*%
X170579675Y-89358796D03*
%TO.P,C80,2*%
%TO.N,Net-(U24-BYPP)*%
X170579675Y-88398796D03*
%TD*%
D12*
%TO.P,C39,1*%
%TO.N,-12v*%
X176515000Y-94275000D03*
%TO.P,C39,2*%
%TO.N,GND1*%
X177475000Y-94275000D03*
%TD*%
D16*
%TO.P,C1,1*%
%TO.N,GND3*%
X151910000Y-58799752D03*
%TO.P,C1,2*%
%TO.N,3v3Teensy*%
X150950000Y-58799752D03*
%TD*%
D27*
%TO.P,R13,1*%
%TO.N,-DCSIG*%
X194136723Y-106508188D03*
%TO.P,R13,2*%
%TO.N,Net-(U12-C1{slash}A2)*%
X192311723Y-106508188D03*
%TD*%
D28*
%TO.P,C16,1*%
%TO.N,GND3*%
X124900000Y-59700000D03*
%TO.P,C16,2*%
%TO.N,5vpwr*%
X123350000Y-59700000D03*
%TD*%
D26*
%TO.P,C3,1*%
%TO.N,GND2*%
X199675496Y-64740000D03*
%TO.P,C3,2*%
%TO.N,5venc*%
X199675496Y-63780000D03*
%TD*%
D12*
%TO.P,C75,1*%
%TO.N,+5vref*%
X151040282Y-107550862D03*
%TO.P,C75,2*%
%TO.N,GND1*%
X152000282Y-107550862D03*
%TD*%
%TO.P,C19,1*%
%TO.N,GND1*%
X160170000Y-90725000D03*
%TO.P,C19,2*%
%TO.N,+5vref*%
X161130000Y-90725000D03*
%TD*%
D29*
%TO.P,CR2,1*%
%TO.N,GND1*%
X184790801Y-101565122D03*
%TO.P,CR2,2*%
%TO.N,+DCSIG^*%
X184790801Y-104219422D03*
%TD*%
D30*
%TO.P,T1,1,RD+*%
%TO.N,Rd+*%
X133810000Y-55660000D03*
%TO.P,T1,2,RCT*%
%TO.N,Net-(T1-RCT)*%
X135080000Y-55660000D03*
%TO.P,T1,3,RD-*%
%TO.N,Rd-*%
X136350000Y-55660000D03*
%TO.P,T1,4,NO_CONNECT_1*%
%TO.N,unconnected-(T1-NO_CONNECT_1-Pad4)*%
X137620000Y-55660000D03*
%TO.P,T1,5,NO_CONNECT_2*%
%TO.N,unconnected-(T1-NO_CONNECT_2-Pad5)*%
X138890000Y-55660000D03*
%TO.P,T1,6,TD+*%
%TO.N,Td+*%
X140160000Y-55660000D03*
%TO.P,T1,7,TCT*%
%TO.N,Net-(T1-TCT)*%
X141430000Y-55660000D03*
%TO.P,T1,8,TD-*%
%TO.N,Td-*%
X142700000Y-55660000D03*
%TO.P,T1,9,TX-*%
%TO.N,Tx-*%
X142700000Y-46890000D03*
%TO.P,T1,10,TXCT*%
%TO.N,Net-(T1-TXCT)*%
X141430000Y-46890000D03*
%TO.P,T1,11,TX+*%
%TO.N,Tx+*%
X140160000Y-46890000D03*
%TO.P,T1,12,NO_CONNECT_3*%
%TO.N,unconnected-(T1-NO_CONNECT_3-Pad12)*%
X138890000Y-46890000D03*
%TO.P,T1,13,NO_CONNECT_4*%
%TO.N,unconnected-(T1-NO_CONNECT_4-Pad13)*%
X137620000Y-46890000D03*
%TO.P,T1,14,RX-*%
%TO.N,Rx-*%
X136350000Y-46890000D03*
%TO.P,T1,15,RXCT*%
%TO.N,Net-(T1-RXCT)*%
X135080000Y-46890000D03*
%TO.P,T1,16,RX+*%
%TO.N,Rx+*%
X133810000Y-46890000D03*
%TD*%
D16*
%TO.P,C78,1*%
%TO.N,-5vref*%
X152944276Y-102412061D03*
%TO.P,C78,2*%
%TO.N,GND1*%
X151984276Y-102412061D03*
%TD*%
D31*
%TO.P,U23,1*%
%TO.N,Net-(R41-Pad2)*%
X143265000Y-91500000D03*
%TO.P,U23,2*%
%TO.N,GND3*%
X140725000Y-91500000D03*
%TO.P,U23,3*%
%TO.N,GND1*%
X140725000Y-97100000D03*
%TO.P,U23,4*%
%TO.N,ACSHCAL*%
X143265000Y-97100000D03*
%TD*%
D20*
%TO.P,C40,1*%
%TO.N,GND1*%
X180925000Y-97420000D03*
%TO.P,C40,2*%
%TO.N,+12v*%
X180925000Y-98380000D03*
%TD*%
D17*
%TO.P,J3,1,Pin_1*%
%TO.N,GND1*%
X201650799Y-93499978D03*
%TO.P,J3,2,Pin_2*%
%TO.N,ACSIG*%
X199700800Y-94125072D03*
%TO.P,J3,3,Pin_3*%
%TO.N,ACSHCAL*%
X201650799Y-96900022D03*
%TO.P,J3,4*%
%TO.N,N/C*%
X199700800Y-96274999D03*
%TD*%
D26*
%TO.P,C14,1*%
%TO.N,Net-(U3-REGCAPA)*%
X145924799Y-99960000D03*
%TO.P,C14,2*%
%TO.N,GND1*%
X145924799Y-99000000D03*
%TD*%
D20*
%TO.P,C7,1*%
%TO.N,GND1*%
X144899799Y-98997876D03*
%TO.P,C7,2*%
%TO.N,-2v5adc*%
X144899799Y-99957876D03*
%TD*%
D18*
%TO.P,U7,1,GND*%
%TO.N,GND1*%
X199500000Y-74900000D03*
D19*
%TO.P,U7,2,Vin*%
%TO.N,+12v*%
X199500000Y-72360000D03*
%TO.P,U7,3,0V*%
%TO.N,GND2*%
X199500000Y-69820000D03*
%TO.P,U7,4,+Vo*%
%TO.N,5venc*%
X199500000Y-67280000D03*
%TD*%
D26*
%TO.P,C84,1*%
%TO.N,GND1*%
X165162905Y-89790094D03*
%TO.P,C84,2*%
%TO.N,+12v*%
X165162905Y-88830094D03*
%TD*%
D16*
%TO.P,C22,1*%
%TO.N,GND1*%
X158080000Y-90700000D03*
%TO.P,C22,2*%
%TO.N,-5vref*%
X157120000Y-90700000D03*
%TD*%
D32*
%TO.P,R23,1*%
%TO.N,Net-(U14A--)*%
X165543085Y-108164229D03*
%TO.P,R23,2*%
%TO.N,Net-(C48-Pad1)*%
X164523085Y-108164229D03*
%TD*%
D33*
%TO.P,U21,1,-VIN*%
%TO.N,GND3*%
X122572000Y-93810000D03*
D34*
%TO.P,U21,2,+VIN*%
%TO.N,3v3Teensy*%
X122572000Y-96350000D03*
%TO.P,U21,3,-VOUT*%
%TO.N,GND1*%
X122572000Y-98890000D03*
%TO.P,U21,4,+VOUT*%
%TO.N,Net-(U21-+VOUT)*%
X122572000Y-101430000D03*
%TD*%
D26*
%TO.P,C83,1*%
%TO.N,-12v*%
X165227660Y-86755671D03*
%TO.P,C83,2*%
%TO.N,GND1*%
X165227660Y-85795671D03*
%TD*%
D27*
%TO.P,R21,1*%
%TO.N,Net-(U12-C1{slash}A2)*%
X188577900Y-106493048D03*
%TO.P,R21,2*%
%TO.N,-DCSIG^*%
X186752900Y-106493048D03*
%TD*%
D35*
%TO.P,U1,1,VDDA*%
%TO.N,3v3Teensy*%
X137915000Y-95200496D03*
%TO.P,U1,2,GNDA*%
%TO.N,GND3*%
X136645000Y-95200496D03*
%TO.P,U1,3,INA1*%
%TO.N,!ACS*%
X135375000Y-95200496D03*
%TO.P,U1,4,INA2*%
%TO.N,ASCLK*%
X134105000Y-95200496D03*
%TO.P,U1,5,INA3*%
%TO.N,AMOSI*%
X132835000Y-95200496D03*
%TO.P,U1,6,OUTA1*%
%TO.N,AMISO*%
X131565000Y-95200496D03*
%TO.P,U1,7,ENA*%
%TO.N,3v3Teensy*%
X130295000Y-95200496D03*
%TO.P,U1,8,GNDA*%
%TO.N,GND3*%
X129025000Y-95200496D03*
%TO.P,U1,9,GNDB*%
%TO.N,GND1*%
X129025000Y-100650000D03*
%TO.P,U1,10,ENB*%
%TO.N,3v3Ext*%
X130295000Y-100650000D03*
%TO.P,U1,11,INB1*%
%TO.N,BMISO*%
X131565000Y-100650000D03*
%TO.P,U1,12,OUTB3*%
%TO.N,BMOSI*%
X132835000Y-100650000D03*
%TO.P,U1,13,OUTB2*%
%TO.N,BSCLK*%
X134105000Y-100650000D03*
%TO.P,U1,14,OUTB1*%
%TO.N,!BCS*%
X135375000Y-100650000D03*
%TO.P,U1,15,GNDB*%
%TO.N,GND1*%
X136645000Y-100650000D03*
%TO.P,U1,16,VDDB*%
%TO.N,3v3Ext*%
X137915000Y-100650000D03*
%TD*%
%TO.P,U2,1,VDDA*%
%TO.N,3v3Teensy*%
X150780000Y-57074752D03*
%TO.P,U2,2,GNDA*%
%TO.N,GND3*%
X152050000Y-57074752D03*
%TO.P,U2,3,INA1*%
%TO.N,TOPINA3v3*%
X153320000Y-57074752D03*
%TO.P,U2,4,INA2*%
%TO.N,BOTINA3v3*%
X154590000Y-57074752D03*
%TO.P,U2,5,INA3*%
%TO.N,TOPINB3v3*%
X155860000Y-57074752D03*
%TO.P,U2,6,INA4*%
%TO.N,BOTINB3v3*%
X157130000Y-57074752D03*
%TO.P,U2,7,I.C.*%
%TO.N,unconnected-(U2-I.C.-Pad7)*%
X158400000Y-57074752D03*
%TO.P,U2,8,GNDA*%
%TO.N,GND3*%
X159670000Y-57074752D03*
%TO.P,U2,9,GNDB*%
X159670000Y-51625248D03*
%TO.P,U2,10,ENB*%
%TO.N,5vpwr*%
X158400000Y-51625248D03*
%TO.P,U2,11,OUTB4*%
%TO.N,BOTINB5v*%
X157130000Y-51625248D03*
%TO.P,U2,12,OUTB3*%
%TO.N,TOPINB5v*%
X155860000Y-51625248D03*
%TO.P,U2,13,OUTB2*%
%TO.N,BOTINA5v*%
X154590000Y-51625248D03*
%TO.P,U2,14,OUTB1*%
%TO.N,TOPINA5v*%
X153320000Y-51625248D03*
%TO.P,U2,15,GNDB*%
%TO.N,GND3*%
X152050000Y-51625248D03*
%TO.P,U2,16,VDDB*%
%TO.N,5vpwr*%
X150780000Y-51625248D03*
%TD*%
D20*
%TO.P,C11,1*%
%TO.N,GND1*%
X141724799Y-98997876D03*
%TO.P,C11,2*%
%TO.N,+2v5adc*%
X141724799Y-99957876D03*
%TD*%
D26*
%TO.P,C53,1*%
%TO.N,Net-(U19-+)*%
X154945493Y-106084274D03*
%TO.P,C53,2*%
%TO.N,GND1*%
X154945493Y-105124274D03*
%TD*%
D36*
%TO.P,L1,1,1*%
%TO.N,Net-(U21-+VOUT)*%
X122453000Y-105330000D03*
%TO.P,L1,2,2*%
%TO.N,3v3Ext*%
X122453000Y-108130000D03*
%TD*%
D15*
%TO.P,H3,1,1*%
%TO.N,GND3*%
X123646900Y-20248000D03*
%TD*%
D26*
%TO.P,C43,1*%
%TO.N,GND1*%
X144824799Y-109962876D03*
%TO.P,C43,2*%
%TO.N,Net-(U3-REGCAPD)*%
X144824799Y-109002876D03*
%TD*%
D12*
%TO.P,C81,1*%
%TO.N,-5vcla*%
X168283633Y-84907499D03*
%TO.P,C81,2*%
%TO.N,Net-(U24-OUTN)*%
X169243633Y-84907499D03*
%TD*%
D37*
%TO.P,U19,1*%
%TO.N,SE_DCSIG_filt*%
X153570273Y-106164838D03*
%TO.P,U19,2,V-*%
%TO.N,-5vref*%
X153570273Y-105514839D03*
%TO.P,U19,3,+*%
%TO.N,Net-(U19-+)*%
X153570273Y-104864840D03*
%TO.P,U19,4,-*%
%TO.N,SE_DCSIG_filt*%
X151347773Y-104864840D03*
%TO.P,U19,5,~{DISABLE}*%
%TO.N,+5vref*%
X151347773Y-105514839D03*
%TO.P,U19,6,V+*%
X151347773Y-106164838D03*
%TD*%
D20*
%TO.P,C33,1*%
%TO.N,3v3Ext*%
X124853000Y-106325000D03*
%TO.P,C33,2*%
%TO.N,GND1*%
X124853000Y-107285000D03*
%TD*%
D26*
%TO.P,C41,1*%
%TO.N,Net-(U14A-+)*%
X166616022Y-105447235D03*
%TO.P,C41,2*%
%TO.N,GND1*%
X166616022Y-104487235D03*
%TD*%
D38*
%TO.P,U13,1,A1*%
%TO.N,-5vcla*%
X190942288Y-103049104D03*
%TO.P,U13,2,C2*%
%TO.N,+5vcla*%
X190142288Y-103049104D03*
%TO.P,U13,3,C1/A2*%
%TO.N,Net-(U13-C1{slash}A2)*%
X190542288Y-104199104D03*
%TD*%
D39*
%TO.P,U14,1*%
%TO.N,Net-(U14A--)*%
X164919134Y-106759440D03*
%TO.P,U14,2,-*%
X164919134Y-106109440D03*
%TO.P,U14,3,+*%
%TO.N,Net-(U14A-+)*%
X164919134Y-105459440D03*
%TO.P,U14,4,V-*%
%TO.N,-5vref*%
X164919134Y-104809440D03*
%TO.P,U14,5,+*%
%TO.N,Net-(U14B-+)*%
X160694134Y-104809440D03*
%TO.P,U14,6,-*%
%TO.N,Net-(U14B--)*%
X160694134Y-105459440D03*
%TO.P,U14,7*%
X160694134Y-106109440D03*
%TO.P,U14,8,V+*%
%TO.N,+5vref*%
X160694134Y-106759440D03*
%TD*%
D18*
%TO.P,U6,1,GND*%
%TO.N,GND1*%
X189400000Y-74980000D03*
D19*
%TO.P,U6,2,Vin*%
%TO.N,+12v*%
X189400000Y-72440000D03*
%TO.P,U6,3,0V*%
%TO.N,GND3*%
X189400000Y-69900000D03*
%TO.P,U6,4,+Vo*%
%TO.N,5vpwr*%
X189400000Y-67360000D03*
%TD*%
D16*
%TO.P,C77,1*%
%TO.N,-5vref*%
X152946571Y-103499064D03*
%TO.P,C77,2*%
%TO.N,GND1*%
X151986571Y-103499064D03*
%TD*%
D32*
%TO.P,R26,1*%
%TO.N,Net-(C48-Pad1)*%
X162991778Y-103404582D03*
%TO.P,R26,2*%
%TO.N,Net-(U14B-+)*%
X161971778Y-103404582D03*
%TD*%
D13*
%TO.P,R2,1*%
%TO.N,Net-(U4-CS1)*%
X151525000Y-79735000D03*
%TO.P,R2,2*%
%TO.N,!ACS*%
X151525000Y-80755000D03*
%TD*%
D12*
%TO.P,C31,1*%
%TO.N,GND1*%
X137040000Y-102339148D03*
%TO.P,C31,2*%
%TO.N,3v3Ext*%
X138000000Y-102339148D03*
%TD*%
D20*
%TO.P,C57,1*%
%TO.N,+5vref*%
X160086613Y-108075000D03*
%TO.P,C57,2*%
%TO.N,GND1*%
X160086613Y-109035000D03*
%TD*%
D32*
%TO.P,R11,1*%
%TO.N,SE_DCSIG*%
X170648753Y-105378095D03*
%TO.P,R11,2*%
%TO.N,Net-(C42-Pad1)*%
X169628753Y-105378095D03*
%TD*%
D25*
%TO.P,C69,1*%
%TO.N,GND1*%
X192325000Y-74375000D03*
%TO.P,C69,2*%
%TO.N,+12v*%
X192325000Y-72475000D03*
%TD*%
D12*
%TO.P,C82,1*%
%TO.N,GND1*%
X166274366Y-84897759D03*
%TO.P,C82,2*%
%TO.N,-5vcla*%
X167234366Y-84897759D03*
%TD*%
D20*
%TO.P,C27,1*%
%TO.N,GND1*%
X155875000Y-87195000D03*
%TO.P,C27,2*%
%TO.N,+12v*%
X155875000Y-88155000D03*
%TD*%
D32*
%TO.P,R29,1*%
%TO.N,Net-(U14B--)*%
X159022345Y-106106264D03*
%TO.P,R29,2*%
%TO.N,Net-(C54-Pad1)*%
X158002345Y-106106264D03*
%TD*%
D12*
%TO.P,C45,1*%
%TO.N,GND1*%
X172360137Y-101316370D03*
%TO.P,C45,2*%
%TO.N,-5vref*%
X173320137Y-101316370D03*
%TD*%
D20*
%TO.P,C6,1*%
%TO.N,3v3Ext*%
X142724799Y-108997876D03*
%TO.P,C6,2*%
%TO.N,GND1*%
X142724799Y-109957876D03*
%TD*%
%TO.P,C12,1*%
%TO.N,GND1*%
X150050000Y-99000000D03*
%TO.P,C12,2*%
%TO.N,-2v5ref*%
X150050000Y-99960000D03*
%TD*%
D29*
%TO.P,CR5,1*%
%TO.N,GND1*%
X191150000Y-90722850D03*
%TO.P,CR5,2*%
%TO.N,ACSIG^*%
X191150000Y-93377150D03*
%TD*%
D20*
%TO.P,C5,1*%
%TO.N,3v3Ext*%
X143799799Y-109002876D03*
%TO.P,C5,2*%
%TO.N,GND1*%
X143799799Y-109962876D03*
%TD*%
%TO.P,C58,1*%
%TO.N,+5vref*%
X161142719Y-108076520D03*
%TO.P,C58,2*%
%TO.N,GND1*%
X161142719Y-109036520D03*
%TD*%
D29*
%TO.P,CR4,1*%
%TO.N,GND1*%
X194224799Y-112235026D03*
%TO.P,CR4,2*%
%TO.N,-5vexc*%
X194224799Y-109580726D03*
%TD*%
D16*
%TO.P,C61,1*%
%TO.N,-5vref*%
X165554531Y-103428389D03*
%TO.P,C61,2*%
%TO.N,GND1*%
X164594531Y-103428389D03*
%TD*%
D18*
%TO.P,J2,1,Pin_1*%
%TO.N,INA*%
X167025000Y-42225000D03*
D19*
%TO.P,J2,2,Pin_2*%
%TO.N,ENA*%
X169565000Y-42225000D03*
%TO.P,J2,3,Pin_3*%
%TO.N,PWM*%
X172105000Y-42225000D03*
%TO.P,J2,4,Pin_4*%
%TO.N,CURRSNS*%
X174645000Y-42225000D03*
%TO.P,J2,5,Pin_5*%
%TO.N,ENB*%
X177185000Y-42225000D03*
%TO.P,J2,6,Pin_6*%
%TO.N,INB*%
X179725000Y-42225000D03*
%TO.P,J2,7,Pin_7*%
%TO.N,5vpwr*%
X182265000Y-42225000D03*
%TO.P,J2,8,Pin_8*%
%TO.N,GND3*%
X184805000Y-42225000D03*
%TO.P,J2,9,Pin_9*%
%TO.N,unconnected-(J2-Pin_9-Pad9)*%
X187345000Y-42225000D03*
%TO.P,J2,10,Pin_10*%
%TO.N,GND3*%
X189885000Y-42225000D03*
%TD*%
D13*
%TO.P,R4,1*%
%TO.N,Net-(U4-MOSI)*%
X154025000Y-79745000D03*
%TO.P,R4,2*%
%TO.N,AMOSI*%
X154025000Y-80765000D03*
%TD*%
D40*
%TO.P,R7,1*%
%TO.N,-2v5adc*%
X151290167Y-93190598D03*
%TO.P,R7,2*%
%TO.N,Net-(U8-REF)*%
X152310167Y-93190598D03*
%TD*%
D41*
%TO.P,R16,1*%
%TO.N,Net-(R16-Pad1)*%
X180045137Y-103891370D03*
%TO.P,R16,2*%
%TO.N,Net-(R16-Pad2)*%
X180045137Y-105716370D03*
%TD*%
D29*
%TO.P,CR1,1*%
%TO.N,GND1*%
X184762666Y-108692461D03*
%TO.P,CR1,2*%
%TO.N,-DCSIG^*%
X184762666Y-106038161D03*
%TD*%
D26*
%TO.P,C20,1*%
%TO.N,+5vref*%
X161150000Y-89260000D03*
%TO.P,C20,2*%
%TO.N,Net-(U5-BYPP)*%
X161150000Y-88300000D03*
%TD*%
D20*
%TO.P,C9,1*%
%TO.N,GND1*%
X151074799Y-99000000D03*
%TO.P,C9,2*%
%TO.N,-2v5ref*%
X151074799Y-99960000D03*
%TD*%
D12*
%TO.P,C35,1*%
%TO.N,GND1*%
X178487425Y-93117558D03*
%TO.P,C35,2*%
%TO.N,+5vexc*%
X179447425Y-93117558D03*
%TD*%
D17*
%TO.P,J6,1,Pin_1*%
%TO.N,+5vexc*%
X201175000Y-103474956D03*
%TO.P,J6,2,Pin_2*%
%TO.N,+DCSIG*%
X199225001Y-104100050D03*
%TO.P,J6,3,Pin_3*%
%TO.N,-5vexc*%
X201175000Y-106875000D03*
%TO.P,J6,4,Pin_4*%
%TO.N,-DCSIG*%
X199225001Y-106249977D03*
%TD*%
D27*
%TO.P,R40,1*%
%TO.N,ACSIG*%
X195662500Y-93349999D03*
%TO.P,R40,2*%
%TO.N,ACSIG^*%
X193837500Y-93349999D03*
%TD*%
D17*
%TO.P,J7,1,Pin_1*%
%TO.N,Tx+*%
X140055000Y-39650000D03*
%TO.P,J7,2,Pin_2*%
%TO.N,Tx-*%
X139429906Y-37700001D03*
%TO.P,J7,3,Pin_3*%
%TO.N,Rx-*%
X136654956Y-39650000D03*
%TO.P,J7,4,Pin_4*%
%TO.N,Rx+*%
X137279979Y-37700001D03*
%TD*%
D16*
%TO.P,C47,1*%
%TO.N,Net-(U14B-+)*%
X160960016Y-103385956D03*
%TO.P,C47,2*%
%TO.N,GND1*%
X160000016Y-103385956D03*
%TD*%
%TO.P,C29,1*%
%TO.N,GND1*%
X152267223Y-97896426D03*
%TO.P,C29,2*%
%TO.N,-2v5adc*%
X151307223Y-97896426D03*
%TD*%
D15*
%TO.P,H1,1,1*%
%TO.N,GND3*%
X202209100Y-20248000D03*
%TD*%
D12*
%TO.P,C76,1*%
%TO.N,+5vref*%
X151014005Y-108579518D03*
%TO.P,C76,2*%
%TO.N,GND1*%
X151974005Y-108579518D03*
%TD*%
D13*
%TO.P,R9,1*%
%TO.N,Net-(U8-REF)*%
X155338520Y-94249340D03*
%TO.P,R9,2*%
%TO.N,GND1*%
X155338520Y-95269340D03*
%TD*%
D20*
%TO.P,C92,1*%
%TO.N,Net-(T1-RCT)*%
X135625000Y-58080000D03*
%TO.P,C92,2*%
%TO.N,GND3*%
X135625000Y-59040000D03*
%TD*%
D13*
%TO.P,R39,1*%
%TO.N,GND1*%
X124900000Y-104375000D03*
%TO.P,R39,2*%
%TO.N,3v3Ext*%
X124900000Y-105395000D03*
%TD*%
D20*
%TO.P,C13,1*%
%TO.N,GND1*%
X149024799Y-98997876D03*
%TO.P,C13,2*%
%TO.N,+2v5ref*%
X149024799Y-99957876D03*
%TD*%
D16*
%TO.P,C23,1*%
%TO.N,GND1*%
X157380000Y-93125000D03*
%TO.P,C23,2*%
%TO.N,+2v5ref*%
X156420000Y-93125000D03*
%TD*%
D18*
%TO.P,J1,1,Pin_1*%
%TO.N,Aenc1*%
X203500496Y-56100000D03*
D19*
%TO.P,J1,2,Pin_2*%
%TO.N,Aenc2*%
X203500496Y-58640000D03*
%TO.P,J1,3,Pin_3*%
%TO.N,Aenc3*%
X203500496Y-61180000D03*
%TO.P,J1,4,Pin_4*%
%TO.N,5venc*%
X203500496Y-63720000D03*
%TO.P,J1,5,Pin_5*%
%TO.N,GND2*%
X203500496Y-66260000D03*
%TD*%
D38*
%TO.P,U17,1,A1*%
%TO.N,-5vcla*%
X192375001Y-99400050D03*
%TO.P,U17,2,C2*%
%TO.N,+5vcla*%
X191575001Y-99400050D03*
%TO.P,U17,3,C1/A2*%
%TO.N,+5vexc*%
X191975001Y-100550050D03*
%TD*%
D26*
%TO.P,C15,1*%
%TO.N,Net-(U3-REGCAPA)*%
X146924799Y-99957876D03*
%TO.P,C15,2*%
%TO.N,GND1*%
X146924799Y-98997876D03*
%TD*%
D40*
%TO.P,R37,1*%
%TO.N,SE_DCSIG_filt*%
X161940000Y-110800000D03*
%TO.P,R37,2*%
%TO.N,SE_DCSIG*%
X162960000Y-110800000D03*
%TD*%
D42*
%TO.P,R46,1*%
%TO.N,Net-(T1-TXCT)*%
X141425000Y-44375000D03*
%TO.P,R46,2*%
%TO.N,GND3*%
X141425000Y-43355000D03*
%TD*%
D16*
%TO.P,C37,1*%
%TO.N,-5vexc*%
X177980000Y-100675000D03*
%TO.P,C37,2*%
%TO.N,Net-(U10-OUTN)*%
X177020000Y-100675000D03*
%TD*%
%TO.P,C42,1*%
%TO.N,Net-(C42-Pad1)*%
X168623035Y-106486314D03*
%TO.P,C42,2*%
%TO.N,Net-(U14A--)*%
X167663035Y-106486314D03*
%TD*%
D20*
%TO.P,C10,1*%
%TO.N,GND1*%
X147999799Y-98997876D03*
%TO.P,C10,2*%
%TO.N,+2v5ref*%
X147999799Y-99957876D03*
%TD*%
D16*
%TO.P,C34,1*%
%TO.N,+5vref*%
X173220137Y-108366370D03*
%TO.P,C34,2*%
%TO.N,GND1*%
X172260137Y-108366370D03*
%TD*%
D27*
%TO.P,R14,1*%
%TO.N,+DCSIG*%
X194245337Y-104192121D03*
%TO.P,R14,2*%
%TO.N,Net-(U13-C1{slash}A2)*%
X192420337Y-104192121D03*
%TD*%
D29*
%TO.P,CR3,1*%
%TO.N,GND1*%
X194297101Y-98547900D03*
%TO.P,CR3,2*%
%TO.N,+5vexc*%
X194297101Y-101202200D03*
%TD*%
D20*
%TO.P,C8,1*%
%TO.N,GND1*%
X143874799Y-98997876D03*
%TO.P,C8,2*%
%TO.N,-2v5adc*%
X143874799Y-99957876D03*
%TD*%
D12*
%TO.P,C32,1*%
%TO.N,GND1*%
X148265050Y-93091074D03*
%TO.P,C32,2*%
%TO.N,+5vref*%
X149225050Y-93091074D03*
%TD*%
D13*
%TO.P,R6,1*%
%TO.N,-5vref*%
X160831185Y-94243565D03*
%TO.P,R6,2*%
%TO.N,-2v5ref*%
X160831185Y-95263565D03*
%TD*%
D20*
%TO.P,C94,1*%
%TO.N,Net-(T1-TCT)*%
X142075000Y-58090000D03*
%TO.P,C94,2*%
%TO.N,GND3*%
X142075000Y-59050000D03*
%TD*%
D43*
%TO.P,U11,1,VDDA*%
%TO.N,5venc*%
X198075000Y-64150000D03*
%TO.P,U11,2,GNDA*%
%TO.N,GND2*%
X198075000Y-62880000D03*
%TO.P,U11,3,INA1*%
%TO.N,Aenc3*%
X198075000Y-61610000D03*
%TO.P,U11,4,INA2*%
%TO.N,Aenc2*%
X198075000Y-60340000D03*
%TO.P,U11,5,INA3*%
%TO.N,Aenc1*%
X198075000Y-59070000D03*
%TO.P,U11,6,INA4*%
%TO.N,unconnected-(U11-INA4-Pad6)*%
X198075000Y-57800000D03*
%TO.P,U11,7,I.C.*%
%TO.N,unconnected-(U11-I.C.-Pad7)*%
X198075000Y-56530000D03*
%TO.P,U11,8,GNDA*%
%TO.N,GND2*%
X198075000Y-55260000D03*
%TO.P,U11,9,GNDB*%
%TO.N,GND3*%
X192625496Y-55260000D03*
%TO.P,U11,10,ENB*%
%TO.N,3v3Teensy*%
X192625496Y-56530000D03*
%TO.P,U11,11,OUTB4*%
%TO.N,unconnected-(U11-OUTB4-Pad11)*%
X192625496Y-57800000D03*
%TO.P,U11,12,OUTB3*%
%TO.N,Benc1*%
X192625496Y-59070000D03*
%TO.P,U11,13,OUTB2*%
%TO.N,Benc2*%
X192625496Y-60340000D03*
%TO.P,U11,14,OUTB1*%
%TO.N,Benc3*%
X192625496Y-61610000D03*
%TO.P,U11,15,GNDB*%
%TO.N,GND3*%
X192625496Y-62880000D03*
%TO.P,U11,16,VDDB*%
%TO.N,3v3Teensy*%
X192625496Y-64150000D03*
%TD*%
D13*
%TO.P,R1,1*%
%TO.N,ASCLK*%
X156475000Y-58840000D03*
%TO.P,R1,2*%
%TO.N,Net-(U4-SCK)*%
X156475000Y-59860000D03*
%TD*%
D44*
%TO.P,U16,1,IN-*%
%TO.N,-DCSIG^*%
X177483937Y-106671370D03*
%TO.P,U16,2,RG*%
%TO.N,Net-(R16-Pad2)*%
X177483937Y-105401370D03*
%TO.P,U16,3,RG*%
%TO.N,Net-(R16-Pad1)*%
X177483937Y-104131370D03*
%TO.P,U16,4,IN+*%
%TO.N,+DCSIG^*%
X177483937Y-102861370D03*
%TO.P,U16,5,VS-*%
%TO.N,-5vref*%
X172556337Y-102861370D03*
%TO.P,U16,6,REF*%
%TO.N,GND1*%
X172556337Y-104131370D03*
%TO.P,U16,7,VOUT*%
%TO.N,SE_DCSIG*%
X172556337Y-105401370D03*
%TO.P,U16,8,VS+*%
%TO.N,+5vref*%
X172556337Y-106671370D03*
%TD*%
D12*
%TO.P,C38,1*%
%TO.N,GND1*%
X177020000Y-99625000D03*
%TO.P,C38,2*%
%TO.N,-5vexc*%
X177980000Y-99625000D03*
%TD*%
D21*
%TO.P,U5,1,OUTP*%
%TO.N,+5vref*%
X159904675Y-89278796D03*
%TO.P,U5,2,NC*%
%TO.N,unconnected-(U5-NC-Pad2)*%
X159904675Y-88778797D03*
%TO.P,U5,3,BYPP*%
%TO.N,Net-(U5-BYPP)*%
X159904675Y-88278795D03*
%TO.P,U5,4,GND*%
%TO.N,GND1*%
X159904675Y-87778796D03*
%TO.P,U5,5,GND*%
X159904675Y-87278794D03*
%TO.P,U5,6,INN*%
%TO.N,-12v*%
X159904675Y-86778795D03*
%TO.P,U5,7,OUTN*%
%TO.N,Net-(U5-OUTN)*%
X159904675Y-86278796D03*
%TO.P,U5,8,NC*%
%TO.N,unconnected-(U5-NC-Pad8)*%
X157104675Y-86278796D03*
D22*
%TO.P,U5,9,INN*%
%TO.N,-12v*%
X157101045Y-86779576D03*
D21*
%TO.P,U5,10,\u002ASHDNN*%
%TO.N,GND1*%
X157104675Y-87278797D03*
%TO.P,U5,11,BYPN*%
%TO.N,-5vref*%
X157104675Y-87778796D03*
%TO.P,U5,12,\u002ASHDNP*%
%TO.N,+12v*%
X157104675Y-88278798D03*
%TO.P,U5,13,NC*%
%TO.N,unconnected-(U5-NC-Pad13)*%
X157104675Y-88778797D03*
%TO.P,U5,14,INP*%
%TO.N,+12v*%
X157104675Y-89278796D03*
D22*
%TO.P,U5,15,GND*%
%TO.N,GND1*%
X159389938Y-87780426D03*
D23*
X158459675Y-88568796D03*
D24*
%TO.P,U5,16,INN*%
%TO.N,-12v*%
X158549675Y-86633796D03*
D22*
X157604675Y-86778796D03*
%TD*%
D16*
%TO.P,C30,1*%
%TO.N,GND1*%
X162953536Y-97898311D03*
%TO.P,C30,2*%
%TO.N,-2v5ref*%
X161993536Y-97898311D03*
%TD*%
D12*
%TO.P,C21,1*%
%TO.N,-5vref*%
X157120000Y-91700000D03*
%TO.P,C21,2*%
%TO.N,Net-(U5-OUTN)*%
X158080000Y-91700000D03*
%TD*%
D16*
%TO.P,C24,1*%
%TO.N,GND1*%
X159755000Y-93100000D03*
%TO.P,C24,2*%
%TO.N,+5vref*%
X158795000Y-93100000D03*
%TD*%
D45*
%TO.P,U10,1,OUTP*%
%TO.N,+5vexc*%
X179485000Y-95580000D03*
%TO.P,U10,2,NC*%
%TO.N,unconnected-(U10-NC-Pad2)*%
X178985001Y-95580000D03*
%TO.P,U10,3,BYPP*%
%TO.N,Net-(U10-BYPP)*%
X178484999Y-95580000D03*
%TO.P,U10,4,GND*%
%TO.N,GND1*%
X177985000Y-95580000D03*
%TO.P,U10,5,GND*%
X177484998Y-95580000D03*
%TO.P,U10,6,INN*%
%TO.N,-12v*%
X176984999Y-95580000D03*
%TO.P,U10,7,OUTN*%
%TO.N,Net-(U10-OUTN)*%
X176485000Y-95580000D03*
%TO.P,U10,8,NC*%
%TO.N,unconnected-(U10-NC-Pad8)*%
X176485000Y-98380000D03*
D46*
%TO.P,U10,9,INN*%
%TO.N,-12v*%
X176985780Y-98383630D03*
D45*
%TO.P,U10,10,\u002ASHDNN*%
%TO.N,GND1*%
X177485001Y-98380000D03*
%TO.P,U10,11,BYPN*%
%TO.N,-5vexc*%
X177985000Y-98380000D03*
%TO.P,U10,12,\u002ASHDNP*%
%TO.N,+12v*%
X178485002Y-98380000D03*
%TO.P,U10,13,NC*%
%TO.N,unconnected-(U10-NC-Pad13)*%
X178985001Y-98380000D03*
%TO.P,U10,14,INP*%
%TO.N,+12v*%
X179485000Y-98380000D03*
D46*
%TO.P,U10,15,GND*%
%TO.N,GND1*%
X177986630Y-96094737D03*
D47*
X178775000Y-97025000D03*
D48*
%TO.P,U10,16,INN*%
%TO.N,-12v*%
X176840000Y-96935000D03*
D46*
X176985000Y-97880000D03*
%TD*%
D49*
%TO.P,C70,1*%
%TO.N,GND1*%
X180525000Y-86225000D03*
%TO.P,C70,2*%
%TO.N,+12v*%
X180525000Y-87775000D03*
%TD*%
D14*
%TO.P,U9,1,K*%
%TO.N,GND1*%
X164412500Y-96450000D03*
%TO.P,U9,2,REF*%
%TO.N,Net-(U9-REF)*%
X164412500Y-94550000D03*
%TO.P,U9,3,A*%
%TO.N,-2v5ref*%
X162537500Y-95500000D03*
%TD*%
D26*
%TO.P,C44,1*%
%TO.N,GND1*%
X145849799Y-109962876D03*
%TO.P,C44,2*%
%TO.N,Net-(U3-REGCAPD)*%
X145849799Y-109002876D03*
%TD*%
D28*
%TO.P,C18,1*%
%TO.N,Net-(IC2-CAP+)*%
X176959866Y-79910695D03*
%TO.P,C18,2*%
%TO.N,Net-(IC2-CAP-)*%
X175409866Y-79910695D03*
%TD*%
D32*
%TO.P,R30,1*%
%TO.N,Net-(C54-Pad1)*%
X156989456Y-106100000D03*
%TO.P,R30,2*%
%TO.N,Net-(U19-+)*%
X155969456Y-106100000D03*
%TD*%
%TO.P,R12,1*%
%TO.N,Net-(C42-Pad1)*%
X168659799Y-105399482D03*
%TO.P,R12,2*%
%TO.N,Net-(U14A-+)*%
X167639799Y-105399482D03*
%TD*%
D40*
%TO.P,R8,1*%
%TO.N,-2v5ref*%
X161985875Y-93137731D03*
%TO.P,R8,2*%
%TO.N,Net-(U9-REF)*%
X163005875Y-93137731D03*
%TD*%
D50*
%TO.P,U18,1,A1*%
%TO.N,-5vcla*%
X191500001Y-111150050D03*
%TO.P,U18,2,C2*%
%TO.N,+5vcla*%
X192300001Y-111150050D03*
%TO.P,U18,3,C1/A2*%
%TO.N,-5vexc*%
X191900001Y-110000050D03*
%TD*%
D27*
%TO.P,R22,1*%
%TO.N,Net-(U13-C1{slash}A2)*%
X188645137Y-104191370D03*
%TO.P,R22,2*%
%TO.N,+DCSIG^*%
X186820137Y-104191370D03*
%TD*%
D38*
%TO.P,U12,1,A1*%
%TO.N,-5vcla*%
X190825000Y-105437500D03*
%TO.P,U12,2,C2*%
%TO.N,+5vcla*%
X190025000Y-105437500D03*
%TO.P,U12,3,C1/A2*%
%TO.N,Net-(U12-C1{slash}A2)*%
X190425000Y-106587500D03*
%TD*%
D26*
%TO.P,C26,1*%
%TO.N,-12v*%
X155875000Y-86205000D03*
%TO.P,C26,2*%
%TO.N,GND1*%
X155875000Y-85245000D03*
%TD*%
D16*
%TO.P,C63,1*%
%TO.N,-5vref*%
X165555353Y-102399706D03*
%TO.P,C63,2*%
%TO.N,GND1*%
X164595353Y-102399706D03*
%TD*%
%TO.P,C54,1*%
%TO.N,Net-(C54-Pad1)*%
X155385320Y-107224994D03*
%TO.P,C54,2*%
%TO.N,SE_DCSIG_filt*%
X154425320Y-107224994D03*
%TD*%
D20*
%TO.P,C17,1*%
%TO.N,GND1*%
X142824799Y-98997876D03*
%TO.P,C17,2*%
%TO.N,+2v5adc*%
X142824799Y-99957876D03*
%TD*%
D40*
%TO.P,R41,1*%
%TO.N,shcalctrl*%
X142240000Y-90025000D03*
%TO.P,R41,2*%
%TO.N,Net-(R41-Pad2)*%
X143260000Y-90025000D03*
%TD*%
D51*
%TO.P,U3,1,AIN4*%
%TO.N,unconnected-(U3-AIN4-Pad1)*%
X149299798Y-101688476D03*
%TO.P,U3,2,REF-*%
%TO.N,-2v5ref*%
X148649799Y-101688476D03*
%TO.P,U3,3,REF+*%
%TO.N,+2v5ref*%
X147999801Y-101688476D03*
%TO.P,U3,4,REFOUT*%
%TO.N,unconnected-(U3-REFOUT-Pad4)*%
X147349800Y-101688476D03*
%TO.P,U3,5,REGCAPA*%
%TO.N,Net-(U3-REGCAPA)*%
X146699801Y-101688476D03*
%TO.P,U3,6,AVSS*%
%TO.N,-2v5adc*%
X146049800Y-101688476D03*
%TO.P,U3,7,AVDD1*%
%TO.N,+2v5adc*%
X145399801Y-101688476D03*
%TO.P,U3,8,AVDD2*%
X144749800Y-101688476D03*
%TO.P,U3,9,XTAL1*%
%TO.N,unconnected-(U3-XTAL1-Pad9)*%
X144099801Y-101688476D03*
%TO.P,U3,10,XTAL2/CLKIO*%
%TO.N,unconnected-(U3-XTAL2{slash}CLKIO-Pad10)*%
X143449800Y-101688476D03*
%TO.P,U3,11,DOUT/\u002ARDY*%
%TO.N,BMISO*%
X142799801Y-101688476D03*
%TO.P,U3,12,DIN*%
%TO.N,BMOSI*%
X142149800Y-101688476D03*
%TO.P,U3,13,SCLK*%
%TO.N,BSCLK*%
X142149800Y-107327276D03*
%TO.P,U3,14,\u002ACS*%
%TO.N,!BCS*%
X142799799Y-107327276D03*
%TO.P,U3,15,\u002ASYNC/\u002AERROR*%
%TO.N,GND1*%
X143449800Y-107327276D03*
%TO.P,U3,16,IOVDD*%
%TO.N,3v3Ext*%
X144099798Y-107327276D03*
%TO.P,U3,17,DGND*%
%TO.N,GND1*%
X144749800Y-107327276D03*
%TO.P,U3,18,REGCAPD*%
%TO.N,Net-(U3-REGCAPD)*%
X145399798Y-107327276D03*
%TO.P,U3,19,GPIO0*%
%TO.N,unconnected-(U3-GPIO0-Pad19)*%
X146049797Y-107327276D03*
%TO.P,U3,20,GPIO1*%
%TO.N,unconnected-(U3-GPIO1-Pad20)*%
X146699798Y-107327276D03*
%TO.P,U3,21,AIN0*%
%TO.N,SE_DCSIG_filt*%
X147349797Y-107327276D03*
%TO.P,U3,22,AIN1*%
%TO.N,ACSIG^*%
X147999798Y-107327276D03*
%TO.P,U3,23,AIN2*%
%TO.N,unconnected-(U3-AIN2-Pad23)*%
X148649797Y-107327276D03*
%TO.P,U3,24,AIN3*%
%TO.N,unconnected-(U3-AIN3-Pad24)*%
X149299798Y-107327276D03*
%TD*%
D10*
%TO.P,IC1,1,OUT*%
%TO.N,+2v5ref*%
X156850000Y-94650000D03*
%TO.P,IC1,2,GND_1*%
%TO.N,GND1*%
X156850000Y-95600000D03*
%TO.P,IC1,3,GND_2*%
X156850000Y-96550000D03*
%TO.P,IC1,4,~{SHDN}*%
%TO.N,+5vref*%
X159350000Y-96550000D03*
%TO.P,IC1,5,GND_3*%
%TO.N,GND1*%
X159350000Y-95600000D03*
%TO.P,IC1,6,VDD*%
%TO.N,+5vref*%
X159350000Y-94650000D03*
%TD*%
D42*
%TO.P,R45,1*%
%TO.N,Net-(T1-RXCT)*%
X135100000Y-44310000D03*
%TO.P,R45,2*%
%TO.N,GND3*%
X135100000Y-43290000D03*
%TD*%
D20*
%TO.P,C79,1*%
%TO.N,GND1*%
X171700000Y-88395000D03*
%TO.P,C79,2*%
%TO.N,+5vcla*%
X171700000Y-89355000D03*
%TD*%
D16*
%TO.P,C4,1*%
%TO.N,GND3*%
X151925000Y-49925000D03*
%TO.P,C4,2*%
%TO.N,5vpwr*%
X150965000Y-49925000D03*
%TD*%
D20*
%TO.P,C93,1*%
%TO.N,Net-(T1-TCT)*%
X140825000Y-58090000D03*
%TO.P,C93,2*%
%TO.N,GND3*%
X140825000Y-59050000D03*
%TD*%
D52*
%TO.P,J4,1*%
%TO.N,+12v*%
X191050000Y-81925000D03*
%TO.P,J4,2*%
%TO.N,GND1*%
X197350000Y-81925000D03*
%TD*%
D15*
%TO.P,H4,1,1*%
%TO.N,GND1*%
X202209100Y-113974000D03*
%TD*%
D53*
%TO.N,3v3Teensy*%
X191800000Y-65100000D03*
X138000000Y-92700000D03*
X150200000Y-58800000D03*
X130400000Y-93800000D03*
%TO.N,GND2*%
X199400000Y-62800000D03*
X200400000Y-64800000D03*
X199400000Y-55400000D03*
D54*
%TO.N,5venc*%
X200400000Y-63600000D03*
D53*
%TO.N,3v3Ext*%
X138975000Y-100975000D03*
X130750000Y-99600000D03*
D55*
%TO.N,5vpwr*%
X151000000Y-48900000D03*
X123500000Y-58400000D03*
D53*
%TO.N,+5vref*%
X161700000Y-91000000D03*
X149225000Y-92425000D03*
X173200000Y-109150000D03*
X159275000Y-108175000D03*
X150250000Y-106500000D03*
X158825000Y-92475000D03*
%TO.N,-5vref*%
X150250000Y-93600000D03*
X173350000Y-100675000D03*
X165550000Y-101750000D03*
X153050000Y-101650000D03*
X160825000Y-93550000D03*
X156450000Y-91875000D03*
D55*
%TO.N,+12v*%
X155200000Y-89300000D03*
X182100000Y-87800000D03*
X164200000Y-89000000D03*
X180800000Y-99625000D03*
%TO.N,-12v*%
X164100000Y-86800000D03*
X176600000Y-93575000D03*
X174100000Y-87200000D03*
X173400000Y-86600000D03*
X176425000Y-91975000D03*
X154900000Y-86300000D03*
X171375000Y-86200000D03*
X173900000Y-85800000D03*
D53*
%TO.N,GND1*%
X152675000Y-107550000D03*
X170750000Y-87600000D03*
X163625000Y-97950000D03*
X158050000Y-93150000D03*
X154800000Y-87300000D03*
X177500000Y-93675000D03*
X158700000Y-90825000D03*
X148000201Y-98427124D03*
X194350000Y-97600000D03*
X160775000Y-87450000D03*
X147000000Y-92375000D03*
X184775000Y-100650000D03*
X155700000Y-105100000D03*
X184750000Y-109525000D03*
X171125000Y-87825000D03*
X137300000Y-103175000D03*
X140050000Y-98175000D03*
X164550000Y-101750000D03*
X151925000Y-101625000D03*
X159450000Y-109050000D03*
X192000000Y-90300000D03*
D54*
X192300000Y-75600000D03*
D53*
X194125000Y-113175000D03*
D54*
X181600000Y-86175000D03*
D53*
X142825000Y-98425000D03*
X172075000Y-102000000D03*
X165200000Y-90500000D03*
X170925000Y-104225000D03*
X155775000Y-96050000D03*
X155875000Y-84425000D03*
X128975000Y-102000000D03*
X144800000Y-110700000D03*
X176550000Y-99850000D03*
X165675000Y-84825000D03*
D54*
X202500000Y-75800000D03*
D53*
X160175000Y-95900000D03*
X166600000Y-103800000D03*
X159350000Y-103350000D03*
X145925201Y-98427124D03*
X152875000Y-97950000D03*
X155050000Y-95950000D03*
D54*
X176200000Y-80900000D03*
D53*
X149550000Y-95925000D03*
X159575000Y-90825000D03*
X124800000Y-107950000D03*
X154725000Y-96700000D03*
X165550000Y-96600000D03*
X160400000Y-93100000D03*
X165275000Y-85250000D03*
X143600000Y-110700000D03*
X177850000Y-93200000D03*
X149025201Y-98427124D03*
X141725000Y-98400000D03*
X142600000Y-110700000D03*
X145800000Y-110700000D03*
X180900000Y-96725000D03*
X143500000Y-106300000D03*
X144850000Y-106350000D03*
X166125000Y-95875000D03*
X144900201Y-98427124D03*
X143875201Y-98427124D03*
X148325000Y-92425000D03*
X151825000Y-99000000D03*
X150050201Y-98427124D03*
X172200000Y-107700000D03*
X125600000Y-104400000D03*
X146925201Y-98427124D03*
X145475000Y-95700000D03*
%TO.N,shcalctrl*%
X142400000Y-89300000D03*
%TO.N,ACSHCAL*%
X179250000Y-92075000D03*
X186575000Y-93425000D03*
X143675000Y-95950000D03*
D54*
%TO.N,+5vcla*%
X190025000Y-104800000D03*
X192300001Y-111849999D03*
X172500000Y-89355000D03*
X190125000Y-102450000D03*
X190875000Y-98575000D03*
%TO.N,-5vcla*%
X191750000Y-98125000D03*
X190900000Y-104750000D03*
X190950000Y-102475000D03*
X190625000Y-110700000D03*
X168550000Y-84225000D03*
D53*
%TO.N,GND3*%
X125100000Y-58600000D03*
X140700000Y-59800000D03*
X159800000Y-58400000D03*
X152700000Y-58700000D03*
X152000000Y-49100000D03*
X190500000Y-55300000D03*
X136800000Y-92700000D03*
X159800000Y-50300000D03*
X135600000Y-59800000D03*
X190000000Y-63200000D03*
X134800000Y-42500000D03*
X129100000Y-93800000D03*
X141700000Y-42600000D03*
X140800000Y-90400000D03*
%TD*%
D56*
%TO.N,3v3Teensy*%
X137950000Y-92750000D02*
X138000000Y-92700000D01*
X150949752Y-58800000D02*
X150950000Y-58799752D01*
X130295000Y-93905000D02*
X130400000Y-93800000D01*
X190950000Y-64130000D02*
X192605496Y-64130000D01*
X193526346Y-57430850D02*
X192625496Y-56530000D01*
X192625496Y-64150000D02*
X193526346Y-63249150D01*
X150200000Y-58800000D02*
X150949752Y-58800000D01*
X130295000Y-95200496D02*
X130295000Y-93905000D01*
X190950000Y-64250000D02*
X191800000Y-65100000D01*
X193526346Y-63249150D02*
X193526346Y-57430850D01*
X137915000Y-95200496D02*
X137915000Y-93599148D01*
X150950000Y-58450000D02*
X150780000Y-58280000D01*
X190950000Y-64130000D02*
X190950000Y-64250000D01*
X192605496Y-64130000D02*
X192625496Y-64150000D01*
X137950000Y-93564148D02*
X137950000Y-92750000D01*
X150780000Y-58280000D02*
X150780000Y-57074752D01*
X137915000Y-93599148D02*
X137950000Y-93564148D01*
X150950000Y-58799752D02*
X150950000Y-58450000D01*
%TO.N,GND2*%
X199320000Y-62880000D02*
X199400000Y-62800000D01*
X200340000Y-64740000D02*
X200400000Y-64800000D01*
X198075000Y-55260000D02*
X199260000Y-55260000D01*
X199675496Y-64740000D02*
X200340000Y-64740000D01*
X198075000Y-62880000D02*
X199320000Y-62880000D01*
X199260000Y-55260000D02*
X199400000Y-55400000D01*
D57*
%TO.N,5venc*%
X198075000Y-64150000D02*
X199305496Y-64150000D01*
X199675496Y-63780000D02*
X200220000Y-63780000D01*
X200220000Y-63780000D02*
X200400000Y-63600000D01*
X199305496Y-64150000D02*
X199675496Y-63780000D01*
D56*
%TO.N,3v3Ext*%
X142724799Y-108997876D02*
X143794799Y-108997876D01*
X144099798Y-107932876D02*
X144099798Y-107327276D01*
X124853000Y-105442000D02*
X124900000Y-105395000D01*
X144099798Y-107327276D02*
X144099798Y-106327041D01*
X140111905Y-102339148D02*
X138000000Y-102339148D01*
X138975000Y-100975000D02*
X138240000Y-100975000D01*
X144099798Y-106327041D02*
X140111905Y-102339148D01*
X137915000Y-100650000D02*
X137915000Y-102254148D01*
X142724799Y-108997876D02*
X143034798Y-108997876D01*
X143794799Y-108997876D02*
X143799799Y-109002876D01*
X130295000Y-100650000D02*
X130295000Y-100055000D01*
X124258000Y-106325000D02*
X124853000Y-106325000D01*
X126440850Y-105395000D02*
X124900000Y-105395000D01*
X122453000Y-108130000D02*
X124258000Y-106325000D01*
X138240000Y-100975000D02*
X137915000Y-100650000D01*
X143034798Y-108997876D02*
X144099798Y-107932876D01*
X130295000Y-101540850D02*
X126440850Y-105395000D01*
X137915000Y-102254148D02*
X138000000Y-102339148D01*
X130295000Y-100055000D02*
X130750000Y-99600000D01*
X124853000Y-106325000D02*
X124853000Y-105442000D01*
X130295000Y-100650000D02*
X130295000Y-101540850D01*
%TO.N,-2v5ref*%
X161067620Y-95500000D02*
X160831185Y-95263565D01*
X161993536Y-97898311D02*
X161993536Y-96043964D01*
X149228124Y-100781876D02*
X150050000Y-99960000D01*
X148649799Y-101688476D02*
X148649799Y-101084075D01*
X148951998Y-100781876D02*
X149228124Y-100781876D01*
X162537500Y-95500000D02*
X161067620Y-95500000D01*
X162537500Y-95500000D02*
X161985875Y-94948375D01*
X148649799Y-101084075D02*
X148951998Y-100781876D01*
X159931847Y-99960000D02*
X151074799Y-99960000D01*
X161993536Y-96043964D02*
X162537500Y-95500000D01*
X150050000Y-99960000D02*
X151074799Y-99960000D01*
X161993536Y-97898311D02*
X159931847Y-99960000D01*
X161985875Y-94948375D02*
X161985875Y-93137731D01*
%TO.N,+2v5ref*%
X156420000Y-93125000D02*
X156420000Y-94220000D01*
X156200000Y-97700000D02*
X156940000Y-97700000D01*
X156420000Y-94220000D02*
X156850000Y-94650000D01*
X149024799Y-99957876D02*
X147999799Y-99957876D01*
X147999799Y-101688474D02*
X147999801Y-101688476D01*
X157620000Y-95130000D02*
X157140000Y-94650000D01*
X154390000Y-99510000D02*
X156200000Y-97700000D01*
X157140000Y-94650000D02*
X156850000Y-94650000D01*
X156940000Y-97700000D02*
X157620000Y-97020000D01*
X157620000Y-97020000D02*
X157620000Y-95130000D01*
X149024799Y-99957876D02*
X149472675Y-99510000D01*
X149472675Y-99510000D02*
X154390000Y-99510000D01*
X147999799Y-99957876D02*
X147999799Y-101688474D01*
%TO.N,+2v5adc*%
X146245050Y-93571074D02*
X145765050Y-93091074D01*
X142204799Y-99477876D02*
X141724799Y-99957876D01*
X145765050Y-93091074D02*
X142204799Y-96651325D01*
X144024799Y-100407876D02*
X144749800Y-101132877D01*
X142204799Y-96651325D02*
X142204799Y-99477876D01*
X146245050Y-94641074D02*
X146245050Y-93571074D01*
X143274799Y-100407876D02*
X144024799Y-100407876D01*
X144749800Y-101688476D02*
X145399801Y-101688476D01*
X142824799Y-99957876D02*
X143274799Y-100407876D01*
X141724799Y-99957876D02*
X142824799Y-99957876D01*
X144749800Y-101132877D02*
X144749800Y-101688476D01*
%TO.N,Net-(U3-REGCAPA)*%
X146924799Y-99957876D02*
X146699801Y-100182874D01*
X146699801Y-100182874D02*
X146699801Y-101688476D01*
X146922675Y-99960000D02*
X146924799Y-99957876D01*
X145924799Y-99960000D02*
X146922675Y-99960000D01*
%TO.N,Net-(U3-REGCAPD)*%
X145849799Y-109002876D02*
X145399798Y-108552875D01*
X145399798Y-108552875D02*
X145399798Y-107327276D01*
X144824799Y-109002876D02*
X145849799Y-109002876D01*
D58*
%TO.N,5vpwr*%
X123350000Y-59700000D02*
X123350000Y-62070000D01*
X157800000Y-53100000D02*
X158400000Y-52500000D01*
X123350000Y-58550000D02*
X123500000Y-58400000D01*
X150965000Y-48935000D02*
X151000000Y-48900000D01*
X123350000Y-62070000D02*
X123310000Y-62110000D01*
X150780000Y-51625248D02*
X150780000Y-50110000D01*
X123350000Y-59700000D02*
X123350000Y-58550000D01*
X151847202Y-53100000D02*
X157800000Y-53100000D01*
X150965000Y-49925000D02*
X150965000Y-48935000D01*
X158400000Y-52500000D02*
X158400000Y-51625248D01*
X150780000Y-52032798D02*
X151847202Y-53100000D01*
X150780000Y-50110000D02*
X150965000Y-49925000D01*
X150780000Y-51625248D02*
X150780000Y-52032798D01*
D56*
%TO.N,Net-(IC2-CAP-)*%
X175010784Y-82076326D02*
X175010784Y-80309777D01*
X175010784Y-80309777D02*
X175409866Y-79910695D01*
%TO.N,Net-(IC2-CAP+)*%
X176959866Y-79910695D02*
X176959866Y-81485408D01*
X176959866Y-81485408D02*
X177550784Y-82076326D01*
%TO.N,+5vref*%
X147975050Y-96350050D02*
X148166074Y-96541074D01*
X161425000Y-90725000D02*
X161700000Y-91000000D01*
X158795000Y-94095000D02*
X159350000Y-94650000D01*
X148166074Y-96541074D02*
X148745050Y-96541074D01*
X173220137Y-107335170D02*
X172556337Y-106671370D01*
X151014005Y-108579518D02*
X151014005Y-107577139D01*
X159904675Y-89278796D02*
X161131204Y-89278796D01*
X161131204Y-89278796D02*
X161150000Y-89260000D01*
X159050000Y-94650000D02*
X158580000Y-95120000D01*
X158825000Y-96550000D02*
X159350000Y-96550000D01*
X149225050Y-92425050D02*
X149225000Y-92425000D01*
X151014005Y-107577139D02*
X151040282Y-107550862D01*
X159350000Y-94650000D02*
X159050000Y-94650000D01*
X173220137Y-109129863D02*
X173200000Y-109150000D01*
X173220137Y-108366370D02*
X173220137Y-109129863D01*
X173220137Y-108366370D02*
X173220137Y-107335170D01*
X158795000Y-92505000D02*
X158825000Y-92475000D01*
X160694134Y-106759440D02*
X160694134Y-107467479D01*
X151040282Y-106472329D02*
X151347773Y-106164838D01*
X160694134Y-107467479D02*
X160086613Y-108075000D01*
X160086613Y-108075000D02*
X159375000Y-108075000D01*
X160088133Y-108076520D02*
X160086613Y-108075000D01*
X158580000Y-95120000D02*
X158580000Y-96305000D01*
X148745050Y-94641074D02*
X148445050Y-94641074D01*
X151347773Y-106164838D02*
X151347773Y-105514839D01*
X159375000Y-108075000D02*
X159275000Y-108175000D01*
X158795000Y-93100000D02*
X158795000Y-92505000D01*
X161130000Y-89280000D02*
X161150000Y-89260000D01*
X148445050Y-94641074D02*
X147975050Y-95111074D01*
X158795000Y-93100000D02*
X158795000Y-94095000D01*
X161142719Y-108076520D02*
X160088133Y-108076520D01*
X151040282Y-107550862D02*
X151040282Y-106472329D01*
X150585162Y-106164838D02*
X150250000Y-106500000D01*
X161130000Y-90725000D02*
X161425000Y-90725000D01*
X148745050Y-94641074D02*
X148745050Y-93571074D01*
X161130000Y-90725000D02*
X161130000Y-89280000D01*
X149225050Y-93091074D02*
X149225050Y-92425050D01*
X158580000Y-96305000D02*
X158825000Y-96550000D01*
X147975050Y-95111074D02*
X147975050Y-96350050D01*
X148745050Y-93571074D02*
X149225050Y-93091074D01*
X151347773Y-106164838D02*
X150585162Y-106164838D01*
%TO.N,Net-(U5-BYPP)*%
X161128795Y-88278795D02*
X161150000Y-88300000D01*
X159904675Y-88278795D02*
X161128795Y-88278795D01*
%TO.N,Net-(U5-OUTN)*%
X162125000Y-91375000D02*
X162125000Y-88176520D01*
X158080000Y-91700000D02*
X161800000Y-91700000D01*
X162125000Y-88176520D02*
X160227276Y-86278796D01*
X161800000Y-91700000D02*
X162125000Y-91375000D01*
X160227276Y-86278796D02*
X159904675Y-86278796D01*
%TO.N,-5vref*%
X157104675Y-87778796D02*
X157030879Y-87705000D01*
X150225000Y-94242076D02*
X150225000Y-93625000D01*
X154600000Y-89800000D02*
X155500000Y-90700000D01*
X173320137Y-101316370D02*
X173320137Y-100704863D01*
X165554531Y-102400528D02*
X165555353Y-102399706D01*
X153050000Y-101650000D02*
X152944276Y-101755724D01*
X152944276Y-102412061D02*
X152944276Y-103496769D01*
X160831185Y-93556185D02*
X160831185Y-94243565D01*
X156625000Y-91700000D02*
X156450000Y-91875000D01*
X154600000Y-88200000D02*
X154600000Y-89800000D01*
X155500000Y-90700000D02*
X157120000Y-90700000D01*
X150225000Y-93625000D02*
X150250000Y-93600000D01*
X165554531Y-104174043D02*
X165554531Y-103428389D01*
X152946571Y-103499064D02*
X152946571Y-105197088D01*
X152944276Y-103496769D02*
X152946571Y-103499064D01*
X165554531Y-103428389D02*
X165554531Y-102400528D01*
X173320137Y-100704863D02*
X173350000Y-100675000D01*
X172556337Y-102080170D02*
X173320137Y-101316370D01*
X165555353Y-101755353D02*
X165550000Y-101750000D01*
X164919134Y-104809440D02*
X165554531Y-104174043D01*
X160825000Y-93550000D02*
X160831185Y-93556185D01*
X152946571Y-105197088D02*
X153264322Y-105514839D01*
X157120000Y-91700000D02*
X156625000Y-91700000D01*
X165555353Y-102399706D02*
X165555353Y-101755353D01*
X157030879Y-87705000D02*
X155095000Y-87705000D01*
X155095000Y-87705000D02*
X154600000Y-88200000D01*
X172556337Y-102861370D02*
X172556337Y-102080170D01*
X157120000Y-90700000D02*
X157120000Y-91700000D01*
X153264322Y-105514839D02*
X153570273Y-105514839D01*
X152944276Y-101755724D02*
X152944276Y-102412061D01*
D58*
%TO.N,+12v*%
X192325000Y-72475000D02*
X189440000Y-72475000D01*
X165162905Y-88830094D02*
X165617997Y-88375002D01*
X155200000Y-89300000D02*
X155875000Y-88625000D01*
X178820784Y-82076326D02*
X178820784Y-87476326D01*
X179485000Y-98380000D02*
X180925000Y-98380000D01*
X155875000Y-88711722D02*
X156442074Y-89278796D01*
X180226326Y-87476326D02*
X180525000Y-87775000D01*
X165162905Y-88830094D02*
X164369906Y-88830094D01*
X155875000Y-88155000D02*
X155875000Y-88711722D01*
X180925000Y-99500000D02*
X180800000Y-99625000D01*
X178542401Y-99100000D02*
X180205000Y-99100000D01*
X178485002Y-98380000D02*
X178485002Y-99042601D01*
X178820784Y-87476326D02*
X180226326Y-87476326D01*
X165488093Y-88830094D02*
X166032999Y-89375000D01*
X180525000Y-87775000D02*
X182075000Y-87775000D01*
X156442074Y-89278796D02*
X157104675Y-89278796D01*
X180205000Y-99100000D02*
X180925000Y-98380000D01*
X182075000Y-87775000D02*
X182100000Y-87800000D01*
X155998798Y-88278798D02*
X157104675Y-88278798D01*
X180925000Y-98380000D02*
X180925000Y-99500000D01*
X199865000Y-72825000D02*
X199475000Y-72435000D01*
X165162905Y-88830094D02*
X165488093Y-88830094D01*
X155875000Y-88155000D02*
X155998798Y-88278798D01*
X178485002Y-99042601D02*
X178542401Y-99100000D01*
X165617997Y-88375002D02*
X166500000Y-88375002D01*
X166032999Y-89375000D02*
X166500000Y-89375000D01*
X164369906Y-88830094D02*
X164200000Y-89000000D01*
X202650000Y-72825000D02*
X199865000Y-72825000D01*
X155875000Y-88625000D02*
X155875000Y-88155000D01*
X189440000Y-72475000D02*
X189425000Y-72460000D01*
%TO.N,-12v*%
X155875000Y-86205000D02*
X154995000Y-86205000D01*
X168089999Y-86874999D02*
X169300000Y-86874999D01*
X154995000Y-86205000D02*
X154900000Y-86300000D01*
X156529576Y-86779576D02*
X157101045Y-86779576D01*
X158694674Y-86778795D02*
X158549675Y-86633796D01*
X164100000Y-86800000D02*
X164144329Y-86755671D01*
X176515000Y-94615000D02*
X176984999Y-95084999D01*
X176515000Y-94275000D02*
X176515000Y-94615000D01*
X170700001Y-86874999D02*
X171375000Y-86200000D01*
X155875000Y-86205000D02*
X155955000Y-86205000D01*
X159904675Y-86778795D02*
X158694674Y-86778795D01*
X164144329Y-86755671D02*
X165227660Y-86755671D01*
X175010784Y-90560784D02*
X175010784Y-87476326D01*
X167945000Y-86730000D02*
X168089999Y-86874999D01*
X165347769Y-86875780D02*
X166496370Y-86875780D01*
X169300000Y-86874999D02*
X170700001Y-86874999D01*
X176984999Y-96790001D02*
X176840000Y-96935000D01*
X176425000Y-91975000D02*
X175010784Y-90560784D01*
X176984999Y-95580000D02*
X176984999Y-96790001D01*
X155955000Y-86205000D02*
X156529576Y-86779576D01*
X176515000Y-94275000D02*
X176515000Y-93660000D01*
X176984999Y-95084999D02*
X176984999Y-95580000D01*
X176515000Y-93660000D02*
X176600000Y-93575000D01*
X165227660Y-86755671D02*
X165347769Y-86875780D01*
D56*
%TO.N,-2v5adc*%
X144354799Y-99477876D02*
X143874799Y-99957876D01*
X151586849Y-95262076D02*
X151862273Y-95537500D01*
X146049800Y-101107877D02*
X146049800Y-101688476D01*
X151307223Y-96092550D02*
X151862273Y-95537500D01*
X144899799Y-99957876D02*
X146049800Y-101107877D01*
X144858142Y-97896426D02*
X144354799Y-98399769D01*
X143874799Y-99957876D02*
X144899799Y-99957876D01*
X151307223Y-97896426D02*
X151307223Y-96092550D01*
X151290167Y-94965394D02*
X151290167Y-93190598D01*
X144354799Y-98399769D02*
X144354799Y-99477876D01*
X151307223Y-97896426D02*
X144858142Y-97896426D01*
X150225000Y-95262076D02*
X151586849Y-95262076D01*
X151862273Y-95537500D02*
X151290167Y-94965394D01*
D57*
%TO.N,+5vexc*%
X179445684Y-94267895D02*
X185692846Y-94267895D01*
X191975001Y-100550050D02*
X193644951Y-100550050D01*
X179447425Y-93117558D02*
X179447425Y-94266154D01*
X193644951Y-100550050D02*
X194297101Y-101202200D01*
X179447425Y-94266154D02*
X179445684Y-94267895D01*
X179485000Y-94307211D02*
X179445684Y-94267895D01*
X185692846Y-94267895D02*
X191975001Y-100550050D01*
X198250094Y-100550050D02*
X201175000Y-103474956D01*
X191975001Y-100550050D02*
X198250094Y-100550050D01*
X179485000Y-95580000D02*
X179485000Y-94307211D01*
D56*
%TO.N,Net-(U10-BYPP)*%
X178484999Y-95580000D02*
X178484999Y-94268580D01*
X178484999Y-94268580D02*
X178485684Y-94267895D01*
%TO.N,Net-(U10-OUTN)*%
X176725000Y-100675000D02*
X176136600Y-100086600D01*
X176136600Y-95928400D02*
X176485000Y-95580000D01*
X177020000Y-100675000D02*
X176725000Y-100675000D01*
X176136600Y-100086600D02*
X176136600Y-95928400D01*
D57*
%TO.N,-5vexc*%
X194224799Y-109580726D02*
X198469274Y-109580726D01*
X177980000Y-100675000D02*
X180700000Y-100675000D01*
X183382895Y-94557895D02*
X187875400Y-99050400D01*
X177980000Y-100675000D02*
X177980000Y-99625000D01*
X190743222Y-110000050D02*
X191900001Y-110000050D01*
X181492105Y-94557895D02*
X183382895Y-94557895D01*
X177980000Y-99625000D02*
X177980000Y-98385000D01*
X187875400Y-99050400D02*
X187875400Y-107132228D01*
X191900001Y-110000050D02*
X193805475Y-110000050D01*
X180700000Y-100675000D02*
X181425000Y-99950000D01*
X181425000Y-99950000D02*
X181425000Y-94625000D01*
X177980000Y-98385000D02*
X177985000Y-98380000D01*
X187875400Y-107132228D02*
X190743222Y-110000050D01*
X181425000Y-94625000D02*
X181492105Y-94557895D01*
X198469274Y-109580726D02*
X201175000Y-106875000D01*
X193805475Y-110000050D02*
X194224799Y-109580726D01*
D56*
%TO.N,Net-(U14A-+)*%
X166603817Y-105459440D02*
X166616022Y-105447235D01*
X164919134Y-105459440D02*
X166603817Y-105459440D01*
X166616022Y-105447235D02*
X167592046Y-105447235D01*
X167592046Y-105447235D02*
X167639799Y-105399482D01*
%TO.N,Net-(U14A--)*%
X167286161Y-106109440D02*
X167663035Y-106486314D01*
X164919134Y-106759440D02*
X164919134Y-106109440D01*
X164919134Y-106109440D02*
X167286161Y-106109440D01*
X165543085Y-107383391D02*
X164919134Y-106759440D01*
X165543085Y-108164229D02*
X165543085Y-107383391D01*
%TO.N,Net-(C42-Pad1)*%
X168659799Y-105399482D02*
X169607366Y-105399482D01*
X168623035Y-105436246D02*
X168659799Y-105399482D01*
X169607366Y-105399482D02*
X169628753Y-105378095D01*
X168623035Y-106486314D02*
X168623035Y-105436246D01*
%TO.N,Net-(U14B-+)*%
X161971778Y-103404582D02*
X160978642Y-103404582D01*
X160978642Y-103404582D02*
X160960016Y-103385956D01*
X160960016Y-104543558D02*
X160694134Y-104809440D01*
X160960016Y-103385956D02*
X160960016Y-104543558D01*
%TO.N,Net-(U14B--)*%
X161241244Y-106109440D02*
X160694134Y-106109440D01*
X160690958Y-106106264D02*
X160694134Y-106109440D01*
X160694134Y-105459440D02*
X160694134Y-106109440D01*
X162548615Y-107416811D02*
X161241244Y-106109440D01*
X162548615Y-108167095D02*
X162548615Y-107416811D01*
X159022345Y-106106264D02*
X160690958Y-106106264D01*
%TO.N,Net-(C48-Pad1)*%
X163508615Y-108167095D02*
X164520219Y-108167095D01*
X164520219Y-108167095D02*
X164523085Y-108164229D01*
X162991778Y-107650258D02*
X163508615Y-108167095D01*
X162991778Y-103404582D02*
X162991778Y-107650258D01*
%TO.N,Net-(U19-+)*%
X154961219Y-106100000D02*
X154945493Y-106084274D01*
X154945493Y-105942070D02*
X153868263Y-104864840D01*
X155969456Y-106100000D02*
X154961219Y-106100000D01*
X154945493Y-106084274D02*
X154945493Y-105942070D01*
X153868263Y-104864840D02*
X153570273Y-104864840D01*
%TO.N,Net-(C54-Pad1)*%
X156989456Y-106100000D02*
X157996081Y-106100000D01*
X157996081Y-106100000D02*
X158002345Y-106106264D01*
X155864462Y-107224994D02*
X156989456Y-106100000D01*
X155385320Y-107224994D02*
X155864462Y-107224994D01*
%TO.N,+DCSIG^*%
X184790801Y-104219422D02*
X186792085Y-104219422D01*
X184790801Y-104219422D02*
X184210223Y-104800000D01*
X181500000Y-104800000D02*
X180915137Y-104215137D01*
X180328535Y-102861370D02*
X177483937Y-102861370D01*
X180915137Y-103447972D02*
X180328535Y-102861370D01*
X186792085Y-104219422D02*
X186820137Y-104191370D01*
X180915137Y-104215137D02*
X180915137Y-103447972D01*
X184210223Y-104800000D02*
X181500000Y-104800000D01*
%TO.N,GND1*%
X144900000Y-98427325D02*
X144900201Y-98427124D01*
X166500000Y-87375001D02*
X166558399Y-87433400D01*
X156850000Y-96550000D02*
X156850000Y-95600000D01*
X152821426Y-97896426D02*
X152875000Y-97950000D01*
X142824799Y-98997876D02*
X142824799Y-98425201D01*
D57*
X180525000Y-86225000D02*
X181550000Y-86225000D01*
D56*
X159875000Y-95600000D02*
X160175000Y-95900000D01*
X146725050Y-93091074D02*
X146725050Y-92649950D01*
X149025000Y-99000000D02*
X149025000Y-98427325D01*
X167672400Y-87433400D02*
X167855000Y-87616000D01*
X194224799Y-112235026D02*
X194224799Y-113075201D01*
X164595353Y-101795353D02*
X164550000Y-101750000D01*
X180925000Y-97420000D02*
X180925000Y-96750000D01*
X143875000Y-99000000D02*
X143875000Y-98427325D01*
X143875000Y-98427325D02*
X143875201Y-98427124D01*
X151986571Y-103499064D02*
X151986571Y-102414356D01*
D57*
X176280784Y-80980784D02*
X176200000Y-80900000D01*
D56*
X178575000Y-97025000D02*
X178775000Y-97025000D01*
X148745050Y-95591074D02*
X149216074Y-95591074D01*
X184790801Y-101565122D02*
X184790801Y-100665801D01*
X124853000Y-107285000D02*
X124853000Y-107897000D01*
X162953536Y-97898311D02*
X163573311Y-97898311D01*
X165747759Y-84897759D02*
X165675000Y-84825000D01*
X159904675Y-87278794D02*
X159904675Y-87778796D01*
D57*
X202650000Y-74725000D02*
X202650000Y-75650000D01*
D56*
X141724799Y-98997876D02*
X141724799Y-98400201D01*
X146925000Y-99000000D02*
X146925000Y-98427325D01*
X154512500Y-96487500D02*
X154725000Y-96700000D01*
X165227660Y-85795671D02*
X165227660Y-85297340D01*
X166139091Y-95255248D02*
X166139091Y-95860909D01*
X160603794Y-87278794D02*
X160775000Y-87450000D01*
D57*
X192325000Y-74375000D02*
X192325000Y-75575000D01*
D56*
X155875000Y-84425000D02*
X155875000Y-85245000D01*
X149025000Y-98427325D02*
X149025201Y-98427124D01*
X164594531Y-102400528D02*
X164595353Y-102399706D01*
X159385956Y-103385956D02*
X159350000Y-103350000D01*
X158459675Y-88405197D02*
X158459675Y-88568796D01*
X155338520Y-95661480D02*
X155050000Y-95950000D01*
X157333275Y-87278797D02*
X158459675Y-88405197D01*
X129025000Y-100650000D02*
X129025000Y-101950000D01*
X160086613Y-109035000D02*
X159465000Y-109035000D01*
X165162905Y-90462905D02*
X165200000Y-90500000D01*
X176775000Y-99625000D02*
X176550000Y-99850000D01*
X177485001Y-98380000D02*
X177485001Y-99159999D01*
X166139091Y-95860909D02*
X166125000Y-95875000D01*
X143449800Y-106350200D02*
X143500000Y-106300000D01*
X145583926Y-95591074D02*
X145475000Y-95700000D01*
X158080000Y-90700000D02*
X158575000Y-90700000D01*
X177485001Y-98380000D02*
X177485001Y-98114999D01*
X155675726Y-105124274D02*
X155700000Y-105100000D01*
D57*
X181550000Y-86225000D02*
X181600000Y-86175000D01*
D56*
X165227660Y-85297340D02*
X165275000Y-85250000D01*
X137040000Y-102915000D02*
X137300000Y-103175000D01*
X125575000Y-104375000D02*
X125600000Y-104400000D01*
X143600000Y-110700000D02*
X143799799Y-110500201D01*
X165400000Y-96450000D02*
X165550000Y-96600000D01*
X144749800Y-106450200D02*
X144749800Y-107327276D01*
X177485001Y-99159999D02*
X177020000Y-99625000D01*
X159350000Y-95600000D02*
X159875000Y-95600000D01*
X184762666Y-109512334D02*
X184750000Y-109525000D01*
X144850000Y-106350000D02*
X144749800Y-106450200D01*
X152674138Y-107550862D02*
X152675000Y-107550000D01*
X161142719Y-109036520D02*
X160088133Y-109036520D01*
X145849799Y-109962876D02*
X145849799Y-110650201D01*
X144824799Y-109962876D02*
X144824799Y-110675201D01*
X178487425Y-93117558D02*
X177932442Y-93117558D01*
X172556337Y-104131370D02*
X171018630Y-104131370D01*
X153737273Y-96487500D02*
X154512500Y-96487500D01*
X177932442Y-93117558D02*
X177850000Y-93200000D01*
X146925000Y-98427325D02*
X146925201Y-98427124D01*
X158575000Y-90700000D02*
X158700000Y-90825000D01*
X152267223Y-97896426D02*
X152821426Y-97896426D01*
X146245050Y-96541074D02*
X146245050Y-95591074D01*
D57*
X192325000Y-75575000D02*
X192300000Y-75600000D01*
D56*
X154800000Y-87300000D02*
X154821203Y-87278797D01*
X142724799Y-110575201D02*
X142600000Y-110700000D01*
X157380000Y-93125000D02*
X158025000Y-93125000D01*
X191150000Y-90722850D02*
X191577150Y-90722850D01*
X172360137Y-101714863D02*
X172075000Y-102000000D01*
X144900000Y-99000000D02*
X144900000Y-98427325D01*
X171700000Y-88395000D02*
X171695000Y-88395000D01*
X140725000Y-97100000D02*
X140725000Y-97500000D01*
X184762666Y-108692461D02*
X184762666Y-109512334D01*
X170750000Y-87600000D02*
X170524998Y-87374998D01*
X148000000Y-99000000D02*
X148000000Y-98427325D01*
X143449800Y-107327276D02*
X143449800Y-106350200D01*
X177020000Y-99625000D02*
X176775000Y-99625000D01*
X149216074Y-95591074D02*
X149550000Y-95925000D01*
X164594531Y-103428389D02*
X164594531Y-102400528D01*
X137040000Y-102339148D02*
X137040000Y-102915000D01*
X144824799Y-110675201D02*
X144800000Y-110700000D01*
X159465000Y-109035000D02*
X159450000Y-109050000D01*
X141724799Y-98400201D02*
X141725000Y-98400000D01*
X145925000Y-98427325D02*
X145925201Y-98427124D01*
X160000016Y-103385956D02*
X159385956Y-103385956D01*
X159904675Y-87278794D02*
X160603794Y-87278794D01*
X124900000Y-104375000D02*
X125575000Y-104375000D01*
X136645000Y-100650000D02*
X136645000Y-101944148D01*
X148265050Y-93091074D02*
X148265050Y-92484950D01*
X177475000Y-94275000D02*
X177475000Y-93700000D01*
D57*
X202650000Y-75650000D02*
X202500000Y-75800000D01*
D56*
X145849799Y-110650201D02*
X145800000Y-110700000D01*
X142724799Y-109957876D02*
X142724799Y-110575201D01*
X160088133Y-109036520D02*
X160086613Y-109035000D01*
X142824799Y-98425201D02*
X142825000Y-98425000D01*
X148265050Y-92484950D02*
X148325000Y-92425000D01*
X148000000Y-98427325D02*
X148000201Y-98427124D01*
X158025000Y-93125000D02*
X158050000Y-93150000D01*
X159675000Y-90725000D02*
X160170000Y-90725000D01*
X178775000Y-97025000D02*
X180530000Y-97025000D01*
X145925000Y-99000000D02*
X145925000Y-98427325D01*
X154945493Y-105124274D02*
X155675726Y-105124274D01*
X146725050Y-92649950D02*
X147000000Y-92375000D01*
X171018630Y-104131370D02*
X170925000Y-104225000D01*
X156850000Y-95600000D02*
X156225000Y-95600000D01*
D57*
X176280784Y-82076326D02*
X176280784Y-80980784D01*
D56*
X124853000Y-107897000D02*
X124800000Y-107950000D01*
X143799799Y-110500201D02*
X143799799Y-109962876D01*
X136645000Y-101944148D02*
X137040000Y-102339148D01*
X151984276Y-102412061D02*
X151984276Y-101684276D01*
X194224799Y-113075201D02*
X194125000Y-113175000D01*
X166616022Y-103816022D02*
X166600000Y-103800000D01*
X172360137Y-101316370D02*
X172360137Y-101714863D01*
X159755000Y-93100000D02*
X160400000Y-93100000D01*
X164412500Y-96450000D02*
X165400000Y-96450000D01*
X165162905Y-89790094D02*
X165162905Y-90462905D01*
X164595353Y-102399706D02*
X164595353Y-101795353D01*
X194297101Y-98547900D02*
X194297101Y-97652899D01*
X151984276Y-101684276D02*
X151925000Y-101625000D01*
X180530000Y-97025000D02*
X180925000Y-97420000D01*
X167855000Y-87616000D02*
X167855000Y-88665000D01*
X191577150Y-90722850D02*
X192000000Y-90300000D01*
X159575000Y-90825000D02*
X159675000Y-90725000D01*
X152000282Y-108553241D02*
X151974005Y-108579518D01*
X151986571Y-102414356D02*
X151984276Y-102412061D01*
X151825000Y-99000000D02*
X151075000Y-99000000D01*
X166274366Y-84897759D02*
X165747759Y-84897759D01*
X177485001Y-98114999D02*
X178575000Y-97025000D01*
X146245050Y-95591074D02*
X145583926Y-95591074D01*
X155338520Y-95269340D02*
X155338520Y-95661480D01*
X184790801Y-100665801D02*
X184775000Y-100650000D01*
X157104675Y-87278797D02*
X157333275Y-87278797D01*
X172260137Y-107760137D02*
X172200000Y-107700000D01*
X166558399Y-87433400D02*
X167672400Y-87433400D01*
X194297101Y-97652899D02*
X194350000Y-97600000D01*
X171075000Y-87875000D02*
X169300000Y-87875000D01*
X166616022Y-104487235D02*
X166616022Y-103816022D01*
X140725000Y-97500000D02*
X140050000Y-98175000D01*
X177475000Y-93700000D02*
X177500000Y-93675000D01*
X156225000Y-95600000D02*
X155775000Y-96050000D01*
X180925000Y-96750000D02*
X180900000Y-96725000D01*
X152000282Y-107550862D02*
X152000282Y-108553241D01*
X154821203Y-87278797D02*
X157104675Y-87278797D01*
X152000282Y-107550862D02*
X152674138Y-107550862D01*
X150050000Y-98427325D02*
X150050201Y-98427124D01*
X171125000Y-87825000D02*
X171075000Y-87875000D01*
X150050000Y-99000000D02*
X150050000Y-98427325D01*
X129025000Y-101950000D02*
X128975000Y-102000000D01*
X172260137Y-108366370D02*
X172260137Y-107760137D01*
X163573311Y-97898311D02*
X163625000Y-97950000D01*
X171695000Y-88395000D02*
X171125000Y-87825000D01*
X177484998Y-94284998D02*
X177475000Y-94275000D01*
X170524998Y-87374998D02*
X169300000Y-87374998D01*
X177484998Y-95580000D02*
X177484998Y-94284998D01*
%TO.N,-DCSIG^*%
X177483937Y-106671370D02*
X177505307Y-106650000D01*
X177505307Y-106650000D02*
X180424905Y-106650000D01*
X180925000Y-106149905D02*
X180925000Y-105850000D01*
X184049505Y-105325000D02*
X184762666Y-106038161D01*
X184762666Y-106038161D02*
X186298013Y-106038161D01*
X180424905Y-106650000D02*
X180925000Y-106149905D01*
X186298013Y-106038161D02*
X186752900Y-106493048D01*
X180925000Y-105850000D02*
X181450000Y-105325000D01*
X181450000Y-105325000D02*
X184049505Y-105325000D01*
%TO.N,ACSIG^*%
X191177151Y-93349999D02*
X191150000Y-93377150D01*
X181047895Y-93997895D02*
X179897425Y-92847425D01*
X176300000Y-92625000D02*
X168725000Y-100200000D01*
X150251234Y-104517040D02*
X147999798Y-106768476D01*
X179707155Y-92625000D02*
X176300000Y-92625000D01*
X160045401Y-100200000D02*
X160035401Y-100210000D01*
X168725000Y-100200000D02*
X160045401Y-100200000D01*
X191150000Y-93377150D02*
X190529255Y-93997895D01*
X147999798Y-106768476D02*
X147999798Y-107327276D01*
X179897425Y-92815270D02*
X179707155Y-92625000D01*
X152473392Y-101653851D02*
X152473392Y-103999571D01*
X152473392Y-103999571D02*
X151955923Y-104517040D01*
X153917243Y-100210000D02*
X152473392Y-101653851D01*
X190529255Y-93997895D02*
X181047895Y-93997895D01*
X193837500Y-93349999D02*
X191177151Y-93349999D01*
X160035401Y-100210000D02*
X153917243Y-100210000D01*
X151955923Y-104517040D02*
X150251234Y-104517040D01*
X179897425Y-92847425D02*
X179897425Y-92815270D01*
%TO.N,ASCLK*%
X160500000Y-64100000D02*
X160500000Y-61100000D01*
X160500000Y-61100000D02*
X158240000Y-58840000D01*
X134105000Y-95200496D02*
X134105000Y-87395000D01*
X149700000Y-74900000D02*
X160500000Y-64100000D01*
X146600000Y-74900000D02*
X149700000Y-74900000D01*
X134105000Y-87395000D02*
X146600000Y-74900000D01*
X158240000Y-58840000D02*
X156475000Y-58840000D01*
%TO.N,Net-(U4-SCK)*%
X156330000Y-62110000D02*
X156330000Y-60005000D01*
X156330000Y-60005000D02*
X156475000Y-59860000D01*
%TO.N,!ACS*%
X135375000Y-88725000D02*
X143345000Y-80755000D01*
X135375000Y-95200496D02*
X135375000Y-88725000D01*
X143345000Y-80755000D02*
X151525000Y-80755000D01*
%TO.N,Net-(U4-CS1)*%
X151525000Y-79735000D02*
X151525000Y-77625000D01*
X151525000Y-77625000D02*
X151250000Y-77350000D01*
%TO.N,AMISO*%
X155855000Y-81445000D02*
X156525000Y-80775000D01*
X132914504Y-96550000D02*
X136628300Y-96550000D01*
X136628300Y-96550000D02*
X137478300Y-95700000D01*
X131565000Y-95200496D02*
X132914504Y-96550000D01*
X137478300Y-95700000D02*
X137478300Y-89321700D01*
X145355000Y-81445000D02*
X155855000Y-81445000D01*
X137478300Y-89321700D02*
X145355000Y-81445000D01*
%TO.N,Net-(U4-MISO)*%
X156525000Y-77545000D02*
X156330000Y-77350000D01*
X156525000Y-79755000D02*
X156525000Y-77545000D01*
%TO.N,AMOSI*%
X153595000Y-81195000D02*
X154025000Y-80765000D01*
X132835000Y-95200496D02*
X133934504Y-96300000D01*
X136000000Y-95913046D02*
X136000000Y-89600000D01*
X135613046Y-96300000D02*
X136000000Y-95913046D01*
X133934504Y-96300000D02*
X135613046Y-96300000D01*
X144405000Y-81195000D02*
X153595000Y-81195000D01*
X136000000Y-89600000D02*
X144405000Y-81195000D01*
%TO.N,Net-(U4-MOSI)*%
X154025000Y-77585000D02*
X153790000Y-77350000D01*
X154025000Y-79745000D02*
X154025000Y-77585000D01*
%TO.N,Net-(U8-REF)*%
X152340371Y-93190598D02*
X152310167Y-93190598D01*
X153737273Y-94587500D02*
X152340371Y-93190598D01*
X153737273Y-94587500D02*
X155000360Y-94587500D01*
X155000360Y-94587500D02*
X155338520Y-94249340D01*
%TO.N,Net-(U9-REF)*%
X163005875Y-93143375D02*
X164412500Y-94550000D01*
X164412500Y-94550000D02*
X165824339Y-94550000D01*
X165824339Y-94550000D02*
X166139091Y-94235248D01*
X163005875Y-93137731D02*
X163005875Y-93143375D01*
%TO.N,Net-(U12-C1{slash}A2)*%
X192311723Y-106508188D02*
X190550517Y-106508188D01*
X188702313Y-106617461D02*
X188577900Y-106493048D01*
X190550517Y-106508188D02*
X190441244Y-106617461D01*
X190441244Y-106617461D02*
X188702313Y-106617461D01*
%TO.N,+DCSIG*%
X199132930Y-104192121D02*
X199225001Y-104100050D01*
X194245337Y-104192121D02*
X199132930Y-104192121D01*
%TO.N,Net-(U13-C1{slash}A2)*%
X190534554Y-104191370D02*
X190542288Y-104199104D01*
X190556087Y-104192121D02*
X192420337Y-104192121D01*
X190542288Y-104199104D02*
X190549104Y-104199104D01*
X188645137Y-104191370D02*
X190534554Y-104191370D01*
X190549104Y-104199104D02*
X190556087Y-104192121D01*
%TO.N,-DCSIG*%
X194136723Y-106508188D02*
X198966790Y-106508188D01*
X198966790Y-106508188D02*
X199225001Y-106249977D01*
%TO.N,ACSIG*%
X195662500Y-93349999D02*
X198925727Y-93349999D01*
X198925727Y-93349999D02*
X199700800Y-94125072D01*
%TO.N,Net-(R41-Pad2)*%
X143260000Y-91495000D02*
X143265000Y-91500000D01*
X143260000Y-90025000D02*
X143260000Y-91495000D01*
%TO.N,shcalctrl*%
X142240000Y-90025000D02*
X142240000Y-89460000D01*
X142240000Y-89460000D02*
X142400000Y-89300000D01*
%TO.N,BOTINB5v*%
X157130000Y-42530000D02*
X157410000Y-42250000D01*
X157130000Y-51625248D02*
X157130000Y-42530000D01*
%TO.N,!BCS*%
X142799799Y-106722875D02*
X142497600Y-106420676D01*
X142497600Y-106420676D02*
X139170676Y-106420676D01*
X139170676Y-106420676D02*
X135375000Y-102625000D01*
X142799799Y-107327276D02*
X142799799Y-106722875D01*
X135375000Y-102625000D02*
X135375000Y-100650000D01*
%TO.N,BMISO*%
X142078001Y-100407876D02*
X141422511Y-100407876D01*
X132715850Y-99499150D02*
X131565000Y-100650000D01*
X142799801Y-101688476D02*
X142799801Y-101129676D01*
X140513785Y-99499150D02*
X132715850Y-99499150D01*
X142799801Y-101129676D02*
X142078001Y-100407876D01*
X141422511Y-100407876D02*
X140513785Y-99499150D01*
%TO.N,BMOSI*%
X133735850Y-99749150D02*
X132835000Y-100650000D01*
X142149800Y-101688476D02*
X140210474Y-99749150D01*
X140210474Y-99749150D02*
X133735850Y-99749150D01*
%TO.N,BSCLK*%
X138427276Y-107327276D02*
X134105000Y-103005000D01*
X142149800Y-107327276D02*
X138427276Y-107327276D01*
X134105000Y-103005000D02*
X134105000Y-100650000D01*
%TO.N,Benc1*%
X192625496Y-59070000D02*
X189830000Y-59070000D01*
X178500000Y-70400000D02*
X178500000Y-75500000D01*
X189830000Y-59070000D02*
X178500000Y-70400000D01*
X178500000Y-75500000D02*
X176650000Y-77350000D01*
%TO.N,Benc3*%
X192625496Y-61610000D02*
X190590000Y-61610000D01*
X181730000Y-70470000D02*
X181730000Y-77350000D01*
X190590000Y-61610000D02*
X181730000Y-70470000D01*
%TO.N,Benc2*%
X179900000Y-70600000D02*
X179900000Y-76640000D01*
X190160000Y-60340000D02*
X179900000Y-70600000D01*
X192625496Y-60340000D02*
X190160000Y-60340000D01*
X179900000Y-76640000D02*
X179190000Y-77350000D01*
%TO.N,Aenc2*%
X201800496Y-60340000D02*
X203500496Y-58640000D01*
X198075000Y-60340000D02*
X201800496Y-60340000D01*
%TO.N,Aenc3*%
X198075000Y-61610000D02*
X203070496Y-61610000D01*
X203070496Y-61610000D02*
X203500496Y-61180000D01*
%TO.N,Aenc1*%
X198075000Y-59070000D02*
X200530496Y-59070000D01*
X200530496Y-59070000D02*
X203500496Y-56100000D01*
%TO.N,CURRSNS*%
X174110000Y-42760000D02*
X174645000Y-42225000D01*
X174110000Y-62110000D02*
X174110000Y-42760000D01*
%TO.N,Net-(T1-RCT)*%
X135625000Y-58080000D02*
X135625000Y-56205000D01*
X134550000Y-58085000D02*
X135620000Y-58085000D01*
X135620000Y-58085000D02*
X135625000Y-58080000D01*
X135625000Y-56205000D02*
X135080000Y-55660000D01*
%TO.N,Net-(T1-TCT)*%
X140825000Y-58090000D02*
X140825000Y-56265000D01*
X140825000Y-56265000D02*
X141430000Y-55660000D01*
X142075000Y-58090000D02*
X140825000Y-58090000D01*
%TO.N,Net-(T1-RXCT)*%
X135080000Y-44245000D02*
X135050000Y-44215000D01*
X135080000Y-46890000D02*
X135080000Y-44245000D01*
%TO.N,Net-(T1-TXCT)*%
X141430000Y-46890000D02*
X141430000Y-44380000D01*
X141430000Y-44380000D02*
X141425000Y-44375000D01*
D57*
%TO.N,Rx+*%
X133810000Y-46890000D02*
X133810000Y-39897188D01*
X136007187Y-37700001D02*
X137279979Y-37700001D01*
X133810000Y-39897188D02*
X136007187Y-37700001D01*
%TO.N,Td-*%
X136280000Y-68560000D02*
X137820000Y-70100000D01*
X139700000Y-62600000D02*
X139700000Y-61600000D01*
X142700000Y-59700000D02*
X142700000Y-55660000D01*
X141600000Y-60800000D02*
X142700000Y-59700000D01*
X141000000Y-63900000D02*
X139700000Y-62600000D01*
X141000000Y-68900000D02*
X141000000Y-63900000D01*
X139700000Y-61600000D02*
X140500000Y-60800000D01*
X139800000Y-70100000D02*
X141000000Y-68900000D01*
X137820000Y-70100000D02*
X139800000Y-70100000D01*
X140500000Y-60800000D02*
X141600000Y-60800000D01*
%TO.N,Td+*%
X140554041Y-64000000D02*
X140554041Y-63954041D01*
X140554041Y-65455837D02*
X140554041Y-65335837D01*
X140554041Y-67855837D02*
X140554041Y-67735837D01*
X139657997Y-68455837D02*
X139657997Y-68335837D01*
X139897997Y-66895837D02*
X140314041Y-66895837D01*
X140314041Y-68695837D02*
X139897997Y-68695837D01*
X139100000Y-57105000D02*
X139400000Y-56805000D01*
X139400000Y-56805000D02*
X139400000Y-56420000D01*
X139360000Y-69640000D02*
X139420000Y-69700000D01*
X140314041Y-67495837D02*
X139897997Y-67495837D01*
X139897997Y-68095837D02*
X140314041Y-68095837D01*
X140314041Y-66295837D02*
X139897997Y-66295837D01*
X139657997Y-66055837D02*
X139657997Y-65935837D01*
X139400000Y-56420000D02*
X140160000Y-55660000D01*
X139789878Y-69700000D02*
X140249497Y-69240381D01*
X139657997Y-67255837D02*
X139657997Y-67135837D01*
X139420000Y-69700000D02*
X139789878Y-69700000D01*
X140249497Y-69240381D02*
X140554041Y-68935837D01*
X139100000Y-62500000D02*
X139100000Y-57105000D01*
X139897997Y-65695837D02*
X140314041Y-65695837D01*
X140554041Y-63954041D02*
X139100000Y-62500000D01*
X140554041Y-65335837D02*
X140554041Y-64000000D01*
X140554041Y-66655837D02*
X140554041Y-66535837D01*
X138280000Y-68560000D02*
X139360000Y-69640000D01*
X140314041Y-65695837D02*
G75*
G03*
X140554037Y-65455837I-41J240037D01*
G01*
X139657997Y-65935837D02*
G75*
G02*
X139897997Y-65695797I240003J37D01*
G01*
X140314041Y-66895837D02*
G75*
G03*
X140554037Y-66655837I-41J240037D01*
G01*
X139657997Y-68335837D02*
G75*
G02*
X139897997Y-68095797I240003J37D01*
G01*
X140554041Y-68935837D02*
G75*
G03*
X140314041Y-68695759I-240041J37D01*
G01*
X140554041Y-67735837D02*
G75*
G03*
X140314041Y-67495759I-240041J37D01*
G01*
X139657997Y-67135837D02*
G75*
G02*
X139897997Y-66895797I240003J37D01*
G01*
X140554041Y-66535837D02*
G75*
G03*
X140314041Y-66295759I-240041J37D01*
G01*
X140314041Y-68095837D02*
G75*
G03*
X140554037Y-67855837I-41J240037D01*
G01*
X139897997Y-66295837D02*
G75*
G02*
X139657963Y-66055837I3J240037D01*
G01*
X139897997Y-68695837D02*
G75*
G02*
X139657963Y-68455837I3J240037D01*
G01*
X139897997Y-67495837D02*
G75*
G02*
X139657963Y-67255837I3J240037D01*
G01*
D56*
%TO.N,PWM*%
X171570000Y-42760000D02*
X172105000Y-42225000D01*
X171570000Y-62110000D02*
X171570000Y-42760000D01*
D57*
%TO.N,Rd+*%
X136280000Y-64560000D02*
X136280000Y-61980000D01*
X133810000Y-59510000D02*
X133810000Y-55660000D01*
X136280000Y-61980000D02*
X133810000Y-59510000D01*
D56*
%TO.N,INB*%
X179190000Y-62110000D02*
X179190000Y-42760000D01*
X179190000Y-42760000D02*
X179725000Y-42225000D01*
%TO.N,INA*%
X166490000Y-42760000D02*
X167025000Y-42225000D01*
X166490000Y-62110000D02*
X166490000Y-42760000D01*
%TO.N,ENA*%
X169030000Y-62110000D02*
X169030000Y-42760000D01*
X169030000Y-42760000D02*
X169565000Y-42225000D01*
%TO.N,ENB*%
X176650000Y-62110000D02*
X176650000Y-42760000D01*
X176650000Y-42760000D02*
X177185000Y-42225000D01*
D57*
%TO.N,Tx+*%
X139920000Y-44773390D02*
X140160000Y-44773390D01*
X139505323Y-43573390D02*
X139920000Y-43573390D01*
X140160000Y-44773390D02*
X140564675Y-44773390D01*
X140160000Y-39755000D02*
X140055000Y-39650000D01*
X139920000Y-44173390D02*
X139505323Y-44173390D01*
X140804675Y-44533390D02*
X140804675Y-44413390D01*
X139265323Y-45133390D02*
X139265323Y-45013390D01*
X140160000Y-43333390D02*
X140160000Y-43213390D01*
X140564675Y-44173390D02*
X140160000Y-44173390D01*
X139265323Y-43933390D02*
X139265323Y-43813390D01*
X139920000Y-45373390D02*
X139505323Y-45373390D01*
X139505323Y-44773390D02*
X139920000Y-44773390D01*
X140160000Y-44173390D02*
X139920000Y-44173390D01*
X140160000Y-46890000D02*
X140160000Y-45613390D01*
X140160000Y-43213390D02*
X140160000Y-40655000D01*
X140160000Y-40655000D02*
X140160000Y-39755000D01*
X139265323Y-45013390D02*
G75*
G02*
X139505323Y-44773423I239977J-10D01*
G01*
X139265323Y-43813390D02*
G75*
G02*
X139505323Y-43573423I239977J-10D01*
G01*
X140564675Y-44773390D02*
G75*
G03*
X140804690Y-44533390I25J239990D01*
G01*
X139920000Y-43573390D02*
G75*
G03*
X140159990Y-43333390I0J239990D01*
G01*
X140804675Y-44413390D02*
G75*
G03*
X140564675Y-44173425I-239975J-10D01*
G01*
X140160000Y-45613390D02*
G75*
G03*
X139920000Y-45373400I-240000J-10D01*
G01*
X139505323Y-45373390D02*
G75*
G02*
X139265310Y-45133390I-23J239990D01*
G01*
X139505323Y-44173390D02*
G75*
G02*
X139265310Y-43933390I-23J239990D01*
G01*
%TO.N,Tx-*%
X142700000Y-46890000D02*
X142700000Y-39697303D01*
X142700000Y-39697303D02*
X140702698Y-37700001D01*
X140702698Y-37700001D02*
X139429906Y-37700001D01*
D56*
%TO.N,ACSHCAL*%
X143675000Y-95950000D02*
X143675000Y-96690000D01*
X185225000Y-92075000D02*
X186575000Y-93425000D01*
X143675000Y-96690000D02*
X143265000Y-97100000D01*
X179250000Y-92075000D02*
X185225000Y-92075000D01*
D57*
%TO.N,+5vcla*%
X190875000Y-98700049D02*
X191575001Y-99400050D01*
X172500000Y-89355000D02*
X172480000Y-89375000D01*
X172480000Y-89375000D02*
X169300000Y-89375000D01*
X170563471Y-89375000D02*
X170579675Y-89358796D01*
X192300001Y-111849999D02*
X192300001Y-111150050D01*
X190125000Y-103031816D02*
X190142288Y-103049104D01*
X169300000Y-89375000D02*
X170563471Y-89375000D01*
X190125000Y-102450000D02*
X190125000Y-103031816D01*
X190875000Y-98575000D02*
X190875000Y-98700049D01*
X190025000Y-104800000D02*
X190025000Y-105437500D01*
D56*
%TO.N,Net-(U24-BYPP)*%
X169300000Y-88374999D02*
X170555878Y-88374999D01*
X170555878Y-88374999D02*
X170579675Y-88398796D01*
%TO.N,Net-(U24-OUTN)*%
X169243633Y-84907499D02*
X169243633Y-86318633D01*
X169243633Y-86318633D02*
X169300000Y-86375000D01*
D57*
%TO.N,-5vcla*%
X168283633Y-84491367D02*
X168550000Y-84225000D01*
X163100000Y-85500000D02*
X163100000Y-86700000D01*
X191075050Y-111150050D02*
X191500001Y-111150050D01*
X190625000Y-110700000D02*
X191075050Y-111150050D01*
X163100000Y-86700000D02*
X164275000Y-87875000D01*
X167234366Y-84897759D02*
X166734366Y-84397759D01*
X191750000Y-98125000D02*
X191750000Y-98775049D01*
X164202241Y-84397759D02*
X163100000Y-85500000D01*
X167234366Y-84897759D02*
X168273893Y-84897759D01*
X191750000Y-98775049D02*
X192375001Y-99400050D01*
X164275000Y-87875000D02*
X166500000Y-87875000D01*
X190900000Y-104750000D02*
X190900000Y-105362500D01*
X168273893Y-84897759D02*
X168283633Y-84907499D01*
X168283633Y-84907499D02*
X168283633Y-84491367D01*
X190942288Y-102482712D02*
X190942288Y-103049104D01*
X190900000Y-105362500D02*
X190825000Y-105437500D01*
X190950000Y-102475000D02*
X190942288Y-102482712D01*
X166734366Y-84397759D02*
X164202241Y-84397759D01*
D56*
%TO.N,TOPINA5v*%
X153320000Y-45780000D02*
X149790000Y-42250000D01*
X153320000Y-51625248D02*
X153320000Y-45780000D01*
%TO.N,TOPINB5v*%
X155860000Y-43240000D02*
X154870000Y-42250000D01*
X155860000Y-51625248D02*
X155860000Y-43240000D01*
%TO.N,BOTINA5v*%
X154590000Y-51625248D02*
X154590000Y-44510000D01*
X154590000Y-44510000D02*
X152330000Y-42250000D01*
%TO.N,BOTINB3v3*%
X157130000Y-57074752D02*
X153790000Y-60414752D01*
X153790000Y-60414752D02*
X153790000Y-62110000D01*
%TO.N,TOPINA3v3*%
X153320000Y-58880000D02*
X152400000Y-59800000D01*
X143400000Y-59800000D02*
X141090000Y-62110000D01*
X152400000Y-59800000D02*
X143400000Y-59800000D01*
X153320000Y-57074752D02*
X153320000Y-58880000D01*
%TO.N,TOPINB3v3*%
X155860000Y-57074752D02*
X155860000Y-57500000D01*
X155860000Y-57500000D02*
X151250000Y-62110000D01*
%TO.N,BOTINA3v3*%
X145140000Y-60600000D02*
X143630000Y-62110000D01*
X152200000Y-60600000D02*
X145140000Y-60600000D01*
X154590000Y-57074752D02*
X154590000Y-58210000D01*
X154590000Y-58210000D02*
X152200000Y-60600000D01*
%TO.N,GND3*%
X140725000Y-90475000D02*
X140800000Y-90400000D01*
X190950000Y-63170000D02*
X192335496Y-63170000D01*
X135100000Y-43290000D02*
X135100000Y-42800000D01*
X136645000Y-93909148D02*
X136990000Y-93564148D01*
X159670000Y-51625248D02*
X159670000Y-50430000D01*
X151925000Y-49175000D02*
X152000000Y-49100000D01*
X124900000Y-58800000D02*
X125100000Y-58600000D01*
X140825000Y-59050000D02*
X140825000Y-59675000D01*
X136990000Y-93564148D02*
X136990000Y-92890000D01*
X192335496Y-63170000D02*
X192625496Y-62880000D01*
X190030000Y-63170000D02*
X190000000Y-63200000D01*
X151925000Y-49925000D02*
X151925000Y-49175000D01*
X152050000Y-50050000D02*
X151925000Y-49925000D01*
X136990000Y-92890000D02*
X136800000Y-92700000D01*
X141425000Y-42875000D02*
X141700000Y-42600000D01*
X159670000Y-57074752D02*
X159670000Y-58270000D01*
X192625496Y-55260000D02*
X190540000Y-55260000D01*
X135625000Y-59775000D02*
X135600000Y-59800000D01*
X159670000Y-58270000D02*
X159800000Y-58400000D01*
X152050000Y-51625248D02*
X152050000Y-50050000D01*
X142075000Y-59050000D02*
X140825000Y-59050000D01*
X124900000Y-59700000D02*
X124900000Y-58800000D01*
X190540000Y-55260000D02*
X190500000Y-55300000D01*
X129025000Y-95200496D02*
X129025000Y-93875000D01*
X129025000Y-93875000D02*
X129100000Y-93800000D01*
X151910000Y-58799752D02*
X152600248Y-58799752D01*
X134550000Y-59045000D02*
X135620000Y-59045000D01*
X136645000Y-95200496D02*
X136645000Y-93909148D01*
X135620000Y-59045000D02*
X135625000Y-59040000D01*
X190950000Y-63170000D02*
X190030000Y-63170000D01*
X151910000Y-58799752D02*
X151910000Y-57214752D01*
X152600248Y-58799752D02*
X152700000Y-58700000D01*
X135625000Y-59040000D02*
X135625000Y-59775000D01*
X135100000Y-42800000D02*
X134800000Y-42500000D01*
X140825000Y-59675000D02*
X140700000Y-59800000D01*
X140725000Y-91500000D02*
X140725000Y-90475000D01*
X141425000Y-43355000D02*
X141425000Y-42875000D01*
X159670000Y-50430000D02*
X159800000Y-50300000D01*
X151910000Y-57214752D02*
X152050000Y-57074752D01*
%TO.N,Net-(U21-+VOUT)*%
X122453000Y-105330000D02*
X122453000Y-101549000D01*
X122453000Y-101549000D02*
X122572000Y-101430000D01*
D57*
%TO.N,Rd-*%
X136350000Y-55660000D02*
X136600000Y-55910000D01*
X137302819Y-63217255D02*
X137544300Y-63458736D01*
X136600000Y-62880000D02*
X136937255Y-63217255D01*
X137785783Y-64065783D02*
X137980000Y-64260000D01*
X137980000Y-64260000D02*
X138280000Y-64560000D01*
X137544301Y-63824302D02*
X137785783Y-64065783D01*
X136600000Y-55910000D02*
X136600000Y-62880000D01*
X137120037Y-63217255D02*
G75*
G02*
X137302819Y-63217255I91391J-91392D01*
G01*
X136937255Y-63217255D02*
G75*
G03*
X137120037Y-63217255I91391J91392D01*
G01*
X137544300Y-63458736D02*
G75*
G02*
X137544273Y-63641491I-91400J-91364D01*
G01*
X137544301Y-63641520D02*
G75*
G03*
X137544312Y-63824291I91399J-91380D01*
G01*
%TO.N,Rx-*%
X135649452Y-43825443D02*
X135649452Y-43705443D01*
X136350000Y-44665443D02*
X137010554Y-44665443D01*
X136350000Y-43105443D02*
X136350000Y-40966684D01*
X135499452Y-45025443D02*
X135499452Y-44905443D01*
X136110000Y-44665443D02*
X136350000Y-44665443D01*
X137010554Y-44065443D02*
X136350000Y-44065443D01*
X135739452Y-44665443D02*
X136110000Y-44665443D01*
X136110000Y-45265443D02*
X135739452Y-45265443D01*
X136350000Y-44065443D02*
X136110000Y-44065443D01*
X136350000Y-43225443D02*
X136350000Y-43105443D01*
X135889452Y-43465443D02*
X136110000Y-43465443D01*
X136350000Y-39954956D02*
X136654956Y-39650000D01*
X137250554Y-44425443D02*
X137250554Y-44305443D01*
X136350000Y-46890000D02*
X136350000Y-45505443D01*
X136110000Y-44065443D02*
X135889452Y-44065443D01*
X136350000Y-40966684D02*
X136350000Y-39954956D01*
X135499452Y-44905443D02*
G75*
G02*
X135739452Y-44665352I240048J43D01*
G01*
X137010554Y-44665443D02*
G75*
G03*
X137250643Y-44425443I46J240043D01*
G01*
X137250554Y-44305443D02*
G75*
G03*
X137010554Y-44065446I-239954J43D01*
G01*
X135889452Y-44065443D02*
G75*
G02*
X135649457Y-43825443I48J240043D01*
G01*
X136110000Y-43465443D02*
G75*
G03*
X136350043Y-43225443I0J240043D01*
G01*
X135649452Y-43705443D02*
G75*
G02*
X135889452Y-43465352I240048J43D01*
G01*
X136350000Y-45505443D02*
G75*
G03*
X136110000Y-45265400I-240000J43D01*
G01*
X135739452Y-45265443D02*
G75*
G02*
X135499457Y-45025443I48J240043D01*
G01*
D56*
%TO.N,Net-(R16-Pad1)*%
X177723937Y-103891370D02*
X177483937Y-104131370D01*
X180045137Y-103891370D02*
X177723937Y-103891370D01*
%TO.N,Net-(R16-Pad2)*%
X180045137Y-105716370D02*
X177798937Y-105716370D01*
X177798937Y-105716370D02*
X177483937Y-105401370D01*
%TO.N,SE_DCSIG*%
X170672028Y-105401370D02*
X170648753Y-105378095D01*
X172556337Y-105401370D02*
X170672028Y-105401370D01*
X165226848Y-110800000D02*
X170648753Y-105378095D01*
X162960000Y-110800000D02*
X165226848Y-110800000D01*
%TO.N,SE_DCSIG_filt*%
X151608123Y-104864840D02*
X152908121Y-106164838D01*
X152908121Y-106164838D02*
X153570273Y-106164838D01*
X151347773Y-104864840D02*
X151608123Y-104864840D01*
X147349797Y-107886076D02*
X150263721Y-110800000D01*
X151347773Y-104864840D02*
X151041822Y-104864840D01*
X151041822Y-104864840D02*
X149647598Y-106259064D01*
X147733876Y-108233876D02*
X147349797Y-107849797D01*
X147349797Y-107327276D02*
X147349797Y-107886076D01*
X147349797Y-107849797D02*
X147349797Y-107327276D01*
X154425320Y-107019885D02*
X153570273Y-106164838D01*
X154425320Y-107224994D02*
X154425320Y-107019885D01*
X149647598Y-108233876D02*
X147733876Y-108233876D01*
X150263721Y-110800000D02*
X161940000Y-110800000D01*
X149647598Y-106259064D02*
X149647598Y-108233876D01*
%TD*%
%TA.AperFunction,Conductor*%
%TO.N,-12v*%
G36*
X174486761Y-85322549D02*
G01*
X174532516Y-85375353D01*
X174541150Y-85401741D01*
X174817913Y-86739427D01*
X174820468Y-86766583D01*
X174797692Y-88155897D01*
X174776912Y-88222604D01*
X174723365Y-88267488D01*
X174673709Y-88277864D01*
X173044693Y-88277864D01*
X172977654Y-88258179D01*
X172931899Y-88205375D01*
X172920693Y-88153864D01*
X172920693Y-85426864D01*
X172940378Y-85359825D01*
X172993182Y-85314070D01*
X173044693Y-85302864D01*
X174419722Y-85302864D01*
X174486761Y-85322549D01*
G37*
%TD.AperFunction*%
%TD*%
M02*
