%TF.GenerationSoftware,KiCad,Pcbnew,8.0.7*%
%TF.CreationDate,2025-04-20T01:01:18-04:00*%
%TF.ProjectId,2M_4F,324d5f34-462e-46b6-9963-61645f706362,rev?*%
%TF.SameCoordinates,Original*%
%TF.FileFunction,Copper,L6,Bot*%
%TF.FilePolarity,Positive*%
%FSLAX46Y46*%
G04 Gerber Fmt 4.6, Leading zero omitted, Abs format (unit mm)*
G04 Created by KiCad (PCBNEW 8.0.7) date 2025-04-20 01:01:18*
%MOMM*%
%LPD*%
G01*
G04 APERTURE LIST*
%TA.AperFunction,ComponentPad*%
%ADD10R,3.000000X5.400000*%
%TD*%
%TA.AperFunction,ComponentPad*%
%ADD11R,5.400000X3.000000*%
%TD*%
%TA.AperFunction,ViaPad*%
%ADD12C,0.600000*%
%TD*%
G04 APERTURE END LIST*
D10*
%TO.P,J1,1,Pin_1*%
%TO.N,Net-(J1-Pin_1)*%
X97344600Y-47653300D03*
D11*
%TO.P,J1,2,Pin_2*%
%TO.N,GND*%
X102844600Y-47040800D03*
%TD*%
D10*
%TO.P,J4,1,Pin_1*%
%TO.N,Net-(J1-Pin_1)*%
X97250000Y-38375000D03*
D11*
%TO.P,J4,2,Pin_2*%
%TO.N,GND*%
X102750000Y-37762500D03*
%TD*%
D10*
%TO.P,J6,1,Pin_1*%
%TO.N,Net-(J1-Pin_1)*%
X104250000Y-56362500D03*
D11*
%TO.P,J6,2,Pin_2*%
%TO.N,GND*%
X97750000Y-55750000D03*
%TD*%
%TO.P,J3,1,Pin_1*%
%TO.N,Net-(J1-Pin_1)*%
X111137500Y-47375000D03*
D10*
%TO.P,J3,2,Pin_2*%
%TO.N,GND*%
X111750000Y-40875000D03*
%TD*%
%TO.P,J5,1,Pin_1*%
%TO.N,Net-(J1-Pin_1)*%
X104250000Y-29637500D03*
D11*
%TO.P,J5,2,Pin_2*%
%TO.N,GND*%
X97750000Y-29025000D03*
%TD*%
%TO.P,J2,1,Pin_1*%
%TO.N,Net-(J1-Pin_1)*%
X89362500Y-47375000D03*
D10*
%TO.P,J2,2,Pin_2*%
%TO.N,GND*%
X89975000Y-40875000D03*
%TD*%
D12*
%TO.N,GND*%
X95100000Y-43775000D03*
X107000000Y-45800000D03*
X114750000Y-37250000D03*
X92250000Y-43250000D03*
X107750000Y-31450000D03*
X105300000Y-43750000D03*
X90150000Y-44750000D03*
X86750000Y-41400000D03*
X97500000Y-42025000D03*
X100000000Y-52500000D03*
X107000000Y-52500000D03*
X105750000Y-60000000D03*
X103600000Y-52500000D03*
X108500000Y-56100000D03*
X100250000Y-32750000D03*
X100900000Y-42000000D03*
X92500000Y-32000000D03*
X108250000Y-38600000D03*
X103900000Y-49750000D03*
X104300000Y-42000000D03*
X102350000Y-60000000D03*
X92250000Y-57500000D03*
X86750000Y-44750000D03*
X92250000Y-39850000D03*
X94600000Y-59500000D03*
X114250000Y-44750000D03*
X92500000Y-28600000D03*
X108500000Y-59500000D03*
X94100000Y-42025000D03*
X98000000Y-59500000D03*
X107750000Y-28050000D03*
X98500000Y-43775000D03*
X92500000Y-35250000D03*
X92250000Y-54100000D03*
X97500000Y-34750000D03*
X110850000Y-44750000D03*
X96600000Y-52500000D03*
X94000000Y-50500000D03*
X100250000Y-35000000D03*
X107750000Y-34700000D03*
X100500000Y-49750000D03*
X86750000Y-38000000D03*
X108250000Y-42000000D03*
X101900000Y-43750000D03*
X101750000Y-30250000D03*
X97750000Y-32500000D03*
X94000000Y-47100000D03*
%TO.N,Net-(J1-Pin_1)*%
X108250000Y-36900000D03*
X95800000Y-42025000D03*
X92900000Y-59500000D03*
X92250000Y-38150000D03*
X104050000Y-60000000D03*
X105600000Y-49750000D03*
X111250000Y-37000000D03*
X101750000Y-28550000D03*
X107000000Y-43750000D03*
X102500000Y-35000000D03*
X88450000Y-44750000D03*
X95250000Y-32250000D03*
X86750000Y-43100000D03*
X105350000Y-35000000D03*
X108500000Y-54000000D03*
X95000000Y-34750000D03*
X92500000Y-30300000D03*
X92250000Y-52000000D03*
X96300000Y-59500000D03*
X91850000Y-44750000D03*
X101900000Y-52500000D03*
X102600000Y-42000000D03*
X108500000Y-57800000D03*
X106000000Y-42000000D03*
X100650000Y-60000000D03*
X99200000Y-42025000D03*
X107750000Y-26350000D03*
X98300000Y-52500000D03*
X100200000Y-43775000D03*
X108250000Y-40300000D03*
X92500000Y-26900000D03*
X101950000Y-32750000D03*
X86750000Y-39700000D03*
X112550000Y-44750000D03*
X92250000Y-41550000D03*
X103600000Y-43750000D03*
X109150000Y-44750000D03*
X107000000Y-47500000D03*
X94000000Y-45400000D03*
X94000000Y-48800000D03*
X94900000Y-52500000D03*
X92250000Y-55800000D03*
X114750000Y-49250000D03*
X114500000Y-41750000D03*
X107750000Y-33000000D03*
X107750000Y-29750000D03*
X102200000Y-49750000D03*
X105300000Y-52500000D03*
X92500000Y-33550000D03*
X96800000Y-43775000D03*
%TD*%
%TA.AperFunction,Conductor*%
%TO.N,GND*%
G36*
X107235881Y-25520185D02*
G01*
X107281636Y-25572989D01*
X107291580Y-25642147D01*
X107262555Y-25705703D01*
X107252631Y-25715229D01*
X107252662Y-25715260D01*
X107120184Y-25847737D01*
X107024211Y-26000476D01*
X106964631Y-26170745D01*
X106964630Y-26170750D01*
X106944435Y-26349996D01*
X106944435Y-26350003D01*
X106964630Y-26529249D01*
X106964631Y-26529254D01*
X107024211Y-26699523D01*
X107120184Y-26852262D01*
X107247738Y-26979816D01*
X107400478Y-27075789D01*
X107570745Y-27135368D01*
X107570750Y-27135369D01*
X107749996Y-27155565D01*
X107750000Y-27155565D01*
X107750004Y-27155565D01*
X107929249Y-27135369D01*
X107929252Y-27135368D01*
X107929255Y-27135368D01*
X108099522Y-27075789D01*
X108252262Y-26979816D01*
X108379816Y-26852262D01*
X108475789Y-26699522D01*
X108535368Y-26529255D01*
X108535369Y-26529249D01*
X108555565Y-26350003D01*
X108555565Y-26349996D01*
X108535369Y-26170750D01*
X108535368Y-26170745D01*
X108515733Y-26114631D01*
X108475789Y-26000478D01*
X108379816Y-25847738D01*
X108252262Y-25720184D01*
X108247338Y-25715260D01*
X108248609Y-25713988D01*
X108213705Y-25664260D01*
X108210855Y-25594448D01*
X108246200Y-25534178D01*
X108308518Y-25502584D01*
X108331158Y-25500500D01*
X109184108Y-25500500D01*
X109243038Y-25500500D01*
X109256922Y-25501280D01*
X109347266Y-25511459D01*
X109374331Y-25517636D01*
X109453540Y-25545352D01*
X109478553Y-25557398D01*
X109549606Y-25602043D01*
X109571313Y-25619355D01*
X109630644Y-25678686D01*
X109647957Y-25700395D01*
X109692600Y-25771444D01*
X109704648Y-25796462D01*
X109732362Y-25875666D01*
X109738540Y-25902735D01*
X109748720Y-25993076D01*
X109749500Y-26006961D01*
X109749500Y-35107317D01*
X109780044Y-35319764D01*
X109780047Y-35319774D01*
X109840517Y-35525715D01*
X109929672Y-35720938D01*
X109929679Y-35720951D01*
X110045720Y-35901514D01*
X110186275Y-36063724D01*
X110310277Y-36171172D01*
X110348487Y-36204281D01*
X110451035Y-36270184D01*
X110529048Y-36320320D01*
X110529059Y-36320326D01*
X110557645Y-36333380D01*
X110610450Y-36379133D01*
X110630136Y-36446173D01*
X110611130Y-36512147D01*
X110524211Y-36650476D01*
X110464631Y-36820745D01*
X110464630Y-36820750D01*
X110444435Y-36999996D01*
X110444435Y-37000003D01*
X110464630Y-37179249D01*
X110464631Y-37179254D01*
X110524211Y-37349523D01*
X110571141Y-37424211D01*
X110620184Y-37502262D01*
X110747738Y-37629816D01*
X110900478Y-37725789D01*
X111070745Y-37785368D01*
X111070750Y-37785369D01*
X111249996Y-37805565D01*
X111250000Y-37805565D01*
X111250004Y-37805565D01*
X111429249Y-37785369D01*
X111429252Y-37785368D01*
X111429255Y-37785368D01*
X111599522Y-37725789D01*
X111752262Y-37629816D01*
X111879816Y-37502262D01*
X111975789Y-37349522D01*
X112035368Y-37179255D01*
X112035369Y-37179249D01*
X112055565Y-37000003D01*
X112055565Y-36999996D01*
X112035369Y-36820750D01*
X112035367Y-36820742D01*
X111981030Y-36665454D01*
X111977469Y-36595676D01*
X112012198Y-36535048D01*
X112074191Y-36502821D01*
X112098072Y-36500500D01*
X114934108Y-36500500D01*
X114993038Y-36500500D01*
X115006922Y-36501280D01*
X115097266Y-36511459D01*
X115124331Y-36517636D01*
X115203540Y-36545352D01*
X115228553Y-36557398D01*
X115299606Y-36602043D01*
X115321313Y-36619355D01*
X115380644Y-36678686D01*
X115397957Y-36700395D01*
X115442600Y-36771444D01*
X115454648Y-36796462D01*
X115482362Y-36875666D01*
X115488540Y-36902735D01*
X115498720Y-36993076D01*
X115499500Y-37006961D01*
X115499500Y-41452885D01*
X115479815Y-41519924D01*
X115427011Y-41565679D01*
X115357853Y-41575623D01*
X115294297Y-41546598D01*
X115258459Y-41493840D01*
X115225790Y-41400480D01*
X115225789Y-41400478D01*
X115129816Y-41247738D01*
X115002262Y-41120184D01*
X114978996Y-41105565D01*
X114849523Y-41024211D01*
X114679254Y-40964631D01*
X114679249Y-40964630D01*
X114500004Y-40944435D01*
X114499996Y-40944435D01*
X114320750Y-40964630D01*
X114320745Y-40964631D01*
X114150476Y-41024211D01*
X113997737Y-41120184D01*
X113870184Y-41247737D01*
X113774211Y-41400476D01*
X113714631Y-41570745D01*
X113714630Y-41570750D01*
X113694435Y-41749996D01*
X113694435Y-41750003D01*
X113714630Y-41929249D01*
X113714631Y-41929254D01*
X113774211Y-42099523D01*
X113840019Y-42204255D01*
X113870184Y-42252262D01*
X113997738Y-42379816D01*
X114088080Y-42436582D01*
X114141557Y-42470184D01*
X114150478Y-42475789D01*
X114297579Y-42527262D01*
X114320745Y-42535368D01*
X114320750Y-42535369D01*
X114499996Y-42555565D01*
X114500000Y-42555565D01*
X114500004Y-42555565D01*
X114679249Y-42535369D01*
X114679252Y-42535368D01*
X114679255Y-42535368D01*
X114849522Y-42475789D01*
X115002262Y-42379816D01*
X115129816Y-42252262D01*
X115225789Y-42099522D01*
X115258458Y-42006160D01*
X115299180Y-41949383D01*
X115364133Y-41923636D01*
X115432694Y-41937092D01*
X115483097Y-41985479D01*
X115499500Y-42047114D01*
X115499500Y-48568060D01*
X115479815Y-48635099D01*
X115427011Y-48680854D01*
X115357853Y-48690798D01*
X115294297Y-48661773D01*
X115287819Y-48655741D01*
X115252262Y-48620184D01*
X115099523Y-48524211D01*
X114929254Y-48464631D01*
X114929249Y-48464630D01*
X114750004Y-48444435D01*
X114749996Y-48444435D01*
X114570750Y-48464630D01*
X114570742Y-48464632D01*
X114502953Y-48488353D01*
X114433175Y-48491914D01*
X114372547Y-48457185D01*
X114340320Y-48395192D01*
X114337999Y-48371311D01*
X114337999Y-45827129D01*
X114337998Y-45827123D01*
X114337997Y-45827116D01*
X114331591Y-45767517D01*
X114324879Y-45749522D01*
X114281297Y-45632671D01*
X114281293Y-45632664D01*
X114195047Y-45517455D01*
X114195044Y-45517452D01*
X114079835Y-45431206D01*
X114079828Y-45431202D01*
X113944982Y-45380908D01*
X113944983Y-45380908D01*
X113885383Y-45374501D01*
X113885381Y-45374500D01*
X113885373Y-45374500D01*
X113885365Y-45374500D01*
X113327370Y-45374500D01*
X113260331Y-45354815D01*
X113214576Y-45302011D01*
X113204632Y-45232853D01*
X113222376Y-45184528D01*
X113275789Y-45099522D01*
X113335368Y-44929255D01*
X113338053Y-44905427D01*
X113355565Y-44750003D01*
X113355565Y-44749996D01*
X113335369Y-44570750D01*
X113335368Y-44570745D01*
X113322989Y-44535368D01*
X113275789Y-44400478D01*
X113179816Y-44247738D01*
X113052262Y-44120184D01*
X113019379Y-44099522D01*
X112899523Y-44024211D01*
X112729254Y-43964631D01*
X112729249Y-43964630D01*
X112550004Y-43944435D01*
X112549996Y-43944435D01*
X112370750Y-43964630D01*
X112370745Y-43964631D01*
X112200476Y-44024211D01*
X112047737Y-44120184D01*
X111920184Y-44247737D01*
X111824211Y-44400476D01*
X111764631Y-44570745D01*
X111764630Y-44570750D01*
X111744435Y-44749996D01*
X111744435Y-44750003D01*
X111764630Y-44929249D01*
X111764631Y-44929254D01*
X111824211Y-45099522D01*
X111877624Y-45184528D01*
X111896624Y-45251764D01*
X111876256Y-45318600D01*
X111822989Y-45363814D01*
X111772630Y-45374500D01*
X109927370Y-45374500D01*
X109860331Y-45354815D01*
X109814576Y-45302011D01*
X109804632Y-45232853D01*
X109822376Y-45184528D01*
X109875789Y-45099522D01*
X109935368Y-44929255D01*
X109938053Y-44905427D01*
X109955565Y-44750003D01*
X109955565Y-44749996D01*
X109935369Y-44570750D01*
X109935368Y-44570745D01*
X109922989Y-44535368D01*
X109875789Y-44400478D01*
X109779816Y-44247738D01*
X109652262Y-44120184D01*
X109619379Y-44099522D01*
X109499523Y-44024211D01*
X109329254Y-43964631D01*
X109329249Y-43964630D01*
X109150004Y-43944435D01*
X109149996Y-43944435D01*
X108970750Y-43964630D01*
X108970745Y-43964631D01*
X108800476Y-44024211D01*
X108647737Y-44120184D01*
X108520184Y-44247737D01*
X108424211Y-44400476D01*
X108364631Y-44570745D01*
X108364630Y-44570750D01*
X108344435Y-44749996D01*
X108344435Y-44750003D01*
X108364630Y-44929249D01*
X108364631Y-44929254D01*
X108424211Y-45099524D01*
X108478278Y-45185569D01*
X108497279Y-45252806D01*
X108476912Y-45319641D01*
X108423644Y-45364856D01*
X108386540Y-45374831D01*
X108330020Y-45380907D01*
X108195171Y-45431202D01*
X108195164Y-45431206D01*
X108079955Y-45517452D01*
X108079952Y-45517455D01*
X107993706Y-45632664D01*
X107993702Y-45632671D01*
X107943408Y-45767517D01*
X107937001Y-45827116D01*
X107937001Y-45827123D01*
X107937000Y-45827135D01*
X107937000Y-47056204D01*
X107917315Y-47123243D01*
X107864511Y-47168998D01*
X107795353Y-47178942D01*
X107731797Y-47149917D01*
X107708006Y-47122176D01*
X107629815Y-46997737D01*
X107502262Y-46870184D01*
X107349523Y-46774211D01*
X107179254Y-46714631D01*
X107179249Y-46714630D01*
X107000004Y-46694435D01*
X106999996Y-46694435D01*
X106820750Y-46714630D01*
X106820745Y-46714631D01*
X106650476Y-46774211D01*
X106497737Y-46870184D01*
X106370184Y-46997737D01*
X106274211Y-47150476D01*
X106214631Y-47320745D01*
X106214630Y-47320750D01*
X106194435Y-47499996D01*
X106194435Y-47500003D01*
X106214630Y-47679249D01*
X106214631Y-47679254D01*
X106274211Y-47849523D01*
X106291993Y-47877822D01*
X106370184Y-48002262D01*
X106497738Y-48129816D01*
X106650478Y-48225789D01*
X106820745Y-48285368D01*
X106820750Y-48285369D01*
X106999996Y-48305565D01*
X107000000Y-48305565D01*
X107000004Y-48305565D01*
X107179249Y-48285369D01*
X107179252Y-48285368D01*
X107179255Y-48285368D01*
X107349522Y-48225789D01*
X107502262Y-48129816D01*
X107629816Y-48002262D01*
X107708008Y-47877820D01*
X107760340Y-47831531D01*
X107829394Y-47820882D01*
X107893242Y-47849257D01*
X107931615Y-47907647D01*
X107937000Y-47943794D01*
X107937000Y-48922870D01*
X107937001Y-48922876D01*
X107943408Y-48982483D01*
X107993702Y-49117328D01*
X107993706Y-49117335D01*
X108079952Y-49232544D01*
X108079955Y-49232547D01*
X108195164Y-49318793D01*
X108195171Y-49318797D01*
X108330017Y-49369091D01*
X108330016Y-49369091D01*
X108336944Y-49369835D01*
X108389627Y-49375500D01*
X113857839Y-49375499D01*
X113924878Y-49395184D01*
X113970633Y-49447988D01*
X113974881Y-49458545D01*
X114024210Y-49599521D01*
X114120184Y-49752262D01*
X114155741Y-49787819D01*
X114189226Y-49849142D01*
X114184242Y-49918834D01*
X114142370Y-49974767D01*
X114076906Y-49999184D01*
X114068060Y-49999500D01*
X111142682Y-49999500D01*
X110930235Y-50030044D01*
X110930225Y-50030047D01*
X110724284Y-50090517D01*
X110529061Y-50179672D01*
X110529048Y-50179679D01*
X110348485Y-50295720D01*
X110186275Y-50436275D01*
X110045720Y-50598485D01*
X109929679Y-50779048D01*
X109929672Y-50779061D01*
X109840517Y-50974284D01*
X109780047Y-51180225D01*
X109780044Y-51180235D01*
X109749500Y-51392682D01*
X109749500Y-60493038D01*
X109748720Y-60506923D01*
X109738540Y-60597264D01*
X109732362Y-60624333D01*
X109704648Y-60703537D01*
X109692600Y-60728555D01*
X109647957Y-60799604D01*
X109630644Y-60821313D01*
X109571313Y-60880644D01*
X109549604Y-60897957D01*
X109478555Y-60942600D01*
X109453537Y-60954648D01*
X109374333Y-60982362D01*
X109347264Y-60988540D01*
X109267075Y-60997576D01*
X109256921Y-60998720D01*
X109243038Y-60999500D01*
X104347114Y-60999500D01*
X104280075Y-60979815D01*
X104234320Y-60927011D01*
X104224376Y-60857853D01*
X104253401Y-60794297D01*
X104306160Y-60758458D01*
X104342531Y-60745730D01*
X104399522Y-60725789D01*
X104552262Y-60629816D01*
X104679816Y-60502262D01*
X104775789Y-60349522D01*
X104835368Y-60179255D01*
X104835369Y-60179249D01*
X104855565Y-60000003D01*
X104855565Y-59999996D01*
X104835369Y-59820750D01*
X104835368Y-59820745D01*
X104802899Y-59727954D01*
X104799338Y-59658175D01*
X104834067Y-59597547D01*
X104896060Y-59565320D01*
X104919941Y-59562999D01*
X105797871Y-59562999D01*
X105797872Y-59562999D01*
X105857483Y-59556591D01*
X105992331Y-59506296D01*
X106107546Y-59420046D01*
X106193796Y-59304831D01*
X106244091Y-59169983D01*
X106250500Y-59110373D01*
X106250500Y-57799996D01*
X107694435Y-57799996D01*
X107694435Y-57800003D01*
X107714630Y-57979249D01*
X107714631Y-57979254D01*
X107774211Y-58149523D01*
X107870184Y-58302262D01*
X107997738Y-58429816D01*
X108150478Y-58525789D01*
X108320745Y-58585368D01*
X108320750Y-58585369D01*
X108499996Y-58605565D01*
X108500000Y-58605565D01*
X108500004Y-58605565D01*
X108679249Y-58585369D01*
X108679252Y-58585368D01*
X108679255Y-58585368D01*
X108849522Y-58525789D01*
X109002262Y-58429816D01*
X109129816Y-58302262D01*
X109225789Y-58149522D01*
X109285368Y-57979255D01*
X109305565Y-57800000D01*
X109285368Y-57620745D01*
X109225789Y-57450478D01*
X109129816Y-57297738D01*
X109002262Y-57170184D01*
X108849523Y-57074211D01*
X108679254Y-57014631D01*
X108679249Y-57014630D01*
X108500004Y-56994435D01*
X108499996Y-56994435D01*
X108320750Y-57014630D01*
X108320745Y-57014631D01*
X108150476Y-57074211D01*
X107997737Y-57170184D01*
X107870184Y-57297737D01*
X107774211Y-57450476D01*
X107714631Y-57620745D01*
X107714630Y-57620750D01*
X107694435Y-57799996D01*
X106250500Y-57799996D01*
X106250499Y-53999996D01*
X107694435Y-53999996D01*
X107694435Y-54000003D01*
X107714630Y-54179249D01*
X107714631Y-54179254D01*
X107774211Y-54349523D01*
X107870184Y-54502262D01*
X107997738Y-54629816D01*
X108150478Y-54725789D01*
X108320745Y-54785368D01*
X108320750Y-54785369D01*
X108499996Y-54805565D01*
X108500000Y-54805565D01*
X108500004Y-54805565D01*
X108679249Y-54785369D01*
X108679252Y-54785368D01*
X108679255Y-54785368D01*
X108849522Y-54725789D01*
X109002262Y-54629816D01*
X109129816Y-54502262D01*
X109225789Y-54349522D01*
X109285368Y-54179255D01*
X109305565Y-54000000D01*
X109285368Y-53820745D01*
X109225789Y-53650478D01*
X109129816Y-53497738D01*
X109002262Y-53370184D01*
X108898451Y-53304955D01*
X108849523Y-53274211D01*
X108679254Y-53214631D01*
X108679249Y-53214630D01*
X108500004Y-53194435D01*
X108499996Y-53194435D01*
X108320750Y-53214630D01*
X108320745Y-53214631D01*
X108150476Y-53274211D01*
X107997737Y-53370184D01*
X107870184Y-53497737D01*
X107774211Y-53650476D01*
X107714631Y-53820745D01*
X107714630Y-53820750D01*
X107694435Y-53999996D01*
X106250499Y-53999996D01*
X106250499Y-53614628D01*
X106244091Y-53555017D01*
X106222727Y-53497738D01*
X106193797Y-53420171D01*
X106193793Y-53420164D01*
X106107547Y-53304955D01*
X106107544Y-53304952D01*
X105992335Y-53218706D01*
X105992330Y-53218703D01*
X105969936Y-53210351D01*
X105914003Y-53168479D01*
X105889586Y-53103015D01*
X105904438Y-53034742D01*
X105925591Y-53006486D01*
X105929816Y-53002262D01*
X106025789Y-52849522D01*
X106085368Y-52679255D01*
X106085369Y-52679249D01*
X106105565Y-52500003D01*
X106105565Y-52499996D01*
X106085369Y-52320750D01*
X106085368Y-52320745D01*
X106025789Y-52150478D01*
X105929816Y-51997738D01*
X105802262Y-51870184D01*
X105649523Y-51774211D01*
X105479254Y-51714631D01*
X105479249Y-51714630D01*
X105300004Y-51694435D01*
X105299996Y-51694435D01*
X105120750Y-51714630D01*
X105120745Y-51714631D01*
X104950476Y-51774211D01*
X104797737Y-51870184D01*
X104670184Y-51997737D01*
X104574211Y-52150476D01*
X104514631Y-52320745D01*
X104514630Y-52320750D01*
X104494435Y-52499996D01*
X104494435Y-52500003D01*
X104514630Y-52679249D01*
X104514631Y-52679254D01*
X104574211Y-52849523D01*
X104651186Y-52972028D01*
X104670186Y-53039265D01*
X104649818Y-53106100D01*
X104596550Y-53151314D01*
X104546192Y-53162000D01*
X102702129Y-53162000D01*
X102702123Y-53162001D01*
X102664040Y-53166095D01*
X102595280Y-53153688D01*
X102544144Y-53106077D01*
X102526866Y-53038377D01*
X102545793Y-52976834D01*
X102625789Y-52849522D01*
X102685368Y-52679255D01*
X102685369Y-52679249D01*
X102705565Y-52500003D01*
X102705565Y-52499996D01*
X102685369Y-52320750D01*
X102685368Y-52320745D01*
X102625789Y-52150478D01*
X102529816Y-51997738D01*
X102402262Y-51870184D01*
X102249523Y-51774211D01*
X102079254Y-51714631D01*
X102079249Y-51714630D01*
X101900004Y-51694435D01*
X101899996Y-51694435D01*
X101720750Y-51714630D01*
X101720745Y-51714631D01*
X101550476Y-51774211D01*
X101397737Y-51870184D01*
X101270184Y-51997737D01*
X101174211Y-52150476D01*
X101114631Y-52320745D01*
X101114630Y-52320750D01*
X101094435Y-52499996D01*
X101094435Y-52500003D01*
X101114630Y-52679249D01*
X101114631Y-52679254D01*
X101174211Y-52849523D01*
X101174212Y-52849524D01*
X101270184Y-53002262D01*
X101397738Y-53129816D01*
X101459270Y-53168479D01*
X101539200Y-53218703D01*
X101550478Y-53225789D01*
X101688860Y-53274211D01*
X101720745Y-53285368D01*
X101720750Y-53285369D01*
X101899996Y-53305565D01*
X101900000Y-53305565D01*
X101900004Y-53305565D01*
X102079249Y-53285369D01*
X102079252Y-53285368D01*
X102079255Y-53285368D01*
X102079256Y-53285367D01*
X102079259Y-53285367D01*
X102123054Y-53270041D01*
X102148574Y-53261111D01*
X102218353Y-53257549D01*
X102278981Y-53292278D01*
X102311208Y-53354271D01*
X102305712Y-53421486D01*
X102255908Y-53555017D01*
X102249501Y-53614616D01*
X102249501Y-53614623D01*
X102249500Y-53614635D01*
X102249500Y-59110370D01*
X102249501Y-59110376D01*
X102255908Y-59169983D01*
X102306202Y-59304828D01*
X102306206Y-59304835D01*
X102392452Y-59420044D01*
X102392455Y-59420047D01*
X102507664Y-59506293D01*
X102507671Y-59506297D01*
X102552618Y-59523061D01*
X102642517Y-59556591D01*
X102702127Y-59563000D01*
X103180060Y-59562999D01*
X103247098Y-59582683D01*
X103292853Y-59635487D01*
X103302797Y-59704646D01*
X103297101Y-59727954D01*
X103264631Y-59820745D01*
X103264630Y-59820750D01*
X103244435Y-59999996D01*
X103244435Y-60000003D01*
X103264630Y-60179249D01*
X103264631Y-60179254D01*
X103324211Y-60349523D01*
X103377360Y-60434108D01*
X103420184Y-60502262D01*
X103547738Y-60629816D01*
X103665064Y-60703537D01*
X103700478Y-60725789D01*
X103793840Y-60758458D01*
X103850617Y-60799180D01*
X103876364Y-60864133D01*
X103862908Y-60932694D01*
X103814521Y-60983097D01*
X103752886Y-60999500D01*
X100947114Y-60999500D01*
X100880075Y-60979815D01*
X100834320Y-60927011D01*
X100824376Y-60857853D01*
X100853401Y-60794297D01*
X100906160Y-60758458D01*
X100942531Y-60745730D01*
X100999522Y-60725789D01*
X101152262Y-60629816D01*
X101279816Y-60502262D01*
X101375789Y-60349522D01*
X101435368Y-60179255D01*
X101435369Y-60179249D01*
X101455565Y-60000003D01*
X101455565Y-59999996D01*
X101435369Y-59820750D01*
X101435368Y-59820745D01*
X101394743Y-59704646D01*
X101375789Y-59650478D01*
X101279816Y-59497738D01*
X101152262Y-59370184D01*
X100999523Y-59274211D01*
X100829254Y-59214631D01*
X100829249Y-59214630D01*
X100650004Y-59194435D01*
X100649996Y-59194435D01*
X100470750Y-59214630D01*
X100470745Y-59214631D01*
X100300476Y-59274211D01*
X100147737Y-59370184D01*
X100020184Y-59497737D01*
X99924211Y-59650476D01*
X99864631Y-59820745D01*
X99864630Y-59820750D01*
X99844435Y-59999996D01*
X99844435Y-60000003D01*
X99864630Y-60179249D01*
X99864631Y-60179254D01*
X99924211Y-60349523D01*
X99977360Y-60434108D01*
X100020184Y-60502262D01*
X100147738Y-60629816D01*
X100265064Y-60703537D01*
X100300478Y-60725789D01*
X100393840Y-60758458D01*
X100450617Y-60799180D01*
X100476364Y-60864133D01*
X100462908Y-60932694D01*
X100414521Y-60983097D01*
X100352886Y-60999500D01*
X91506962Y-60999500D01*
X91493078Y-60998720D01*
X91480553Y-60997308D01*
X91402735Y-60988540D01*
X91375666Y-60982362D01*
X91296462Y-60954648D01*
X91271444Y-60942600D01*
X91200395Y-60897957D01*
X91178686Y-60880644D01*
X91119355Y-60821313D01*
X91102042Y-60799604D01*
X91098707Y-60794297D01*
X91057398Y-60728553D01*
X91045351Y-60703537D01*
X91017637Y-60624333D01*
X91011459Y-60597263D01*
X91001280Y-60506922D01*
X91000500Y-60493038D01*
X91000500Y-59499996D01*
X92094435Y-59499996D01*
X92094435Y-59500003D01*
X92114630Y-59679249D01*
X92114631Y-59679254D01*
X92174211Y-59849523D01*
X92268760Y-59999996D01*
X92270184Y-60002262D01*
X92397738Y-60129816D01*
X92550478Y-60225789D01*
X92720745Y-60285368D01*
X92720750Y-60285369D01*
X92899996Y-60305565D01*
X92900000Y-60305565D01*
X92900004Y-60305565D01*
X93079249Y-60285369D01*
X93079252Y-60285368D01*
X93079255Y-60285368D01*
X93249522Y-60225789D01*
X93402262Y-60129816D01*
X93529816Y-60002262D01*
X93625789Y-59849522D01*
X93685368Y-59679255D01*
X93687743Y-59658175D01*
X93705565Y-59500003D01*
X93705565Y-59499996D01*
X95494435Y-59499996D01*
X95494435Y-59500003D01*
X95514630Y-59679249D01*
X95514631Y-59679254D01*
X95574211Y-59849523D01*
X95668760Y-59999996D01*
X95670184Y-60002262D01*
X95797738Y-60129816D01*
X95950478Y-60225789D01*
X96120745Y-60285368D01*
X96120750Y-60285369D01*
X96299996Y-60305565D01*
X96300000Y-60305565D01*
X96300004Y-60305565D01*
X96479249Y-60285369D01*
X96479252Y-60285368D01*
X96479255Y-60285368D01*
X96649522Y-60225789D01*
X96802262Y-60129816D01*
X96929816Y-60002262D01*
X97025789Y-59849522D01*
X97085368Y-59679255D01*
X97087743Y-59658175D01*
X97105565Y-59500003D01*
X97105565Y-59499996D01*
X97085369Y-59320750D01*
X97085368Y-59320745D01*
X97032614Y-59169983D01*
X97025789Y-59150478D01*
X97000587Y-59110370D01*
X96929815Y-58997737D01*
X96802262Y-58870184D01*
X96649523Y-58774211D01*
X96479254Y-58714631D01*
X96479249Y-58714630D01*
X96300004Y-58694435D01*
X96299996Y-58694435D01*
X96120750Y-58714630D01*
X96120745Y-58714631D01*
X95950476Y-58774211D01*
X95797737Y-58870184D01*
X95670184Y-58997737D01*
X95574211Y-59150476D01*
X95514631Y-59320745D01*
X95514630Y-59320750D01*
X95494435Y-59499996D01*
X93705565Y-59499996D01*
X93685369Y-59320750D01*
X93685368Y-59320745D01*
X93632614Y-59169983D01*
X93625789Y-59150478D01*
X93600587Y-59110370D01*
X93529815Y-58997737D01*
X93402262Y-58870184D01*
X93249523Y-58774211D01*
X93079254Y-58714631D01*
X93079249Y-58714630D01*
X92900004Y-58694435D01*
X92899996Y-58694435D01*
X92720750Y-58714630D01*
X92720745Y-58714631D01*
X92550476Y-58774211D01*
X92397737Y-58870184D01*
X92270184Y-58997737D01*
X92174211Y-59150476D01*
X92114631Y-59320745D01*
X92114630Y-59320750D01*
X92094435Y-59499996D01*
X91000500Y-59499996D01*
X91000500Y-55799996D01*
X91444435Y-55799996D01*
X91444435Y-55800003D01*
X91464630Y-55979249D01*
X91464631Y-55979254D01*
X91524211Y-56149523D01*
X91620184Y-56302262D01*
X91747738Y-56429816D01*
X91900478Y-56525789D01*
X92070745Y-56585368D01*
X92070750Y-56585369D01*
X92249996Y-56605565D01*
X92250000Y-56605565D01*
X92250004Y-56605565D01*
X92429249Y-56585369D01*
X92429252Y-56585368D01*
X92429255Y-56585368D01*
X92599522Y-56525789D01*
X92752262Y-56429816D01*
X92879816Y-56302262D01*
X92975789Y-56149522D01*
X93035368Y-55979255D01*
X93055565Y-55800000D01*
X93035368Y-55620745D01*
X92975789Y-55450478D01*
X92879816Y-55297738D01*
X92752262Y-55170184D01*
X92599523Y-55074211D01*
X92429254Y-55014631D01*
X92429249Y-55014630D01*
X92250004Y-54994435D01*
X92249996Y-54994435D01*
X92070750Y-55014630D01*
X92070745Y-55014631D01*
X91900476Y-55074211D01*
X91747737Y-55170184D01*
X91620184Y-55297737D01*
X91524211Y-55450476D01*
X91464631Y-55620745D01*
X91464630Y-55620750D01*
X91444435Y-55799996D01*
X91000500Y-55799996D01*
X91000500Y-51999996D01*
X91444435Y-51999996D01*
X91444435Y-52000003D01*
X91464630Y-52179249D01*
X91464631Y-52179254D01*
X91524211Y-52349523D01*
X91618760Y-52499996D01*
X91620184Y-52502262D01*
X91747738Y-52629816D01*
X91900478Y-52725789D01*
X92070745Y-52785368D01*
X92070750Y-52785369D01*
X92249996Y-52805565D01*
X92250000Y-52805565D01*
X92250004Y-52805565D01*
X92429249Y-52785369D01*
X92429252Y-52785368D01*
X92429255Y-52785368D01*
X92599522Y-52725789D01*
X92752262Y-52629816D01*
X92879816Y-52502262D01*
X92881240Y-52499996D01*
X94094435Y-52499996D01*
X94094435Y-52500003D01*
X94114630Y-52679249D01*
X94114631Y-52679254D01*
X94174211Y-52849523D01*
X94174212Y-52849524D01*
X94270184Y-53002262D01*
X94397738Y-53129816D01*
X94459270Y-53168479D01*
X94539200Y-53218703D01*
X94550478Y-53225789D01*
X94688860Y-53274211D01*
X94720745Y-53285368D01*
X94720750Y-53285369D01*
X94899996Y-53305565D01*
X94900000Y-53305565D01*
X94900004Y-53305565D01*
X95079249Y-53285369D01*
X95079252Y-53285368D01*
X95079255Y-53285368D01*
X95249522Y-53225789D01*
X95402262Y-53129816D01*
X95529816Y-53002262D01*
X95625789Y-52849522D01*
X95685368Y-52679255D01*
X95685369Y-52679249D01*
X95705565Y-52500003D01*
X95705565Y-52499996D01*
X97494435Y-52499996D01*
X97494435Y-52500003D01*
X97514630Y-52679249D01*
X97514631Y-52679254D01*
X97574211Y-52849523D01*
X97574212Y-52849524D01*
X97670184Y-53002262D01*
X97797738Y-53129816D01*
X97859270Y-53168479D01*
X97939200Y-53218703D01*
X97950478Y-53225789D01*
X98088860Y-53274211D01*
X98120745Y-53285368D01*
X98120750Y-53285369D01*
X98299996Y-53305565D01*
X98300000Y-53305565D01*
X98300004Y-53305565D01*
X98479249Y-53285369D01*
X98479252Y-53285368D01*
X98479255Y-53285368D01*
X98649522Y-53225789D01*
X98802262Y-53129816D01*
X98929816Y-53002262D01*
X99025789Y-52849522D01*
X99085368Y-52679255D01*
X99085369Y-52679249D01*
X99105565Y-52500003D01*
X99105565Y-52499996D01*
X99085369Y-52320750D01*
X99085368Y-52320745D01*
X99025789Y-52150478D01*
X98929816Y-51997738D01*
X98802262Y-51870184D01*
X98649523Y-51774211D01*
X98479254Y-51714631D01*
X98479249Y-51714630D01*
X98300004Y-51694435D01*
X98299996Y-51694435D01*
X98120750Y-51714630D01*
X98120745Y-51714631D01*
X97950476Y-51774211D01*
X97797737Y-51870184D01*
X97670184Y-51997737D01*
X97574211Y-52150476D01*
X97514631Y-52320745D01*
X97514630Y-52320750D01*
X97494435Y-52499996D01*
X95705565Y-52499996D01*
X95685369Y-52320750D01*
X95685368Y-52320745D01*
X95625789Y-52150478D01*
X95529816Y-51997738D01*
X95402262Y-51870184D01*
X95249523Y-51774211D01*
X95079254Y-51714631D01*
X95079249Y-51714630D01*
X94900004Y-51694435D01*
X94899996Y-51694435D01*
X94720750Y-51714630D01*
X94720745Y-51714631D01*
X94550476Y-51774211D01*
X94397737Y-51870184D01*
X94270184Y-51997737D01*
X94174211Y-52150476D01*
X94114631Y-52320745D01*
X94114630Y-52320750D01*
X94094435Y-52499996D01*
X92881240Y-52499996D01*
X92975789Y-52349522D01*
X93035368Y-52179255D01*
X93035369Y-52179249D01*
X93055565Y-52000003D01*
X93055565Y-51999996D01*
X93035369Y-51820750D01*
X93035368Y-51820745D01*
X92975788Y-51650476D01*
X92879815Y-51497737D01*
X92752262Y-51370184D01*
X92599523Y-51274211D01*
X92429254Y-51214631D01*
X92429249Y-51214630D01*
X92250004Y-51194435D01*
X92249996Y-51194435D01*
X92070750Y-51214630D01*
X92070745Y-51214631D01*
X91900476Y-51274211D01*
X91747737Y-51370184D01*
X91620184Y-51497737D01*
X91524211Y-51650476D01*
X91464631Y-51820745D01*
X91464630Y-51820750D01*
X91444435Y-51999996D01*
X91000500Y-51999996D01*
X91000500Y-51392683D01*
X91000500Y-51392682D01*
X90974900Y-51214630D01*
X90969955Y-51180235D01*
X90969952Y-51180225D01*
X90931705Y-51049966D01*
X90909484Y-50974290D01*
X90909483Y-50974288D01*
X90909482Y-50974284D01*
X90820327Y-50779061D01*
X90820320Y-50779048D01*
X90772270Y-50704281D01*
X90704281Y-50598487D01*
X90649588Y-50535368D01*
X90563724Y-50436275D01*
X90401514Y-50295720D01*
X90401513Y-50295719D01*
X90333892Y-50252262D01*
X90220951Y-50179679D01*
X90220938Y-50179672D01*
X90025715Y-50090517D01*
X89819774Y-50030047D01*
X89819764Y-50030044D01*
X89628754Y-50002582D01*
X89607318Y-49999500D01*
X89607317Y-49999500D01*
X85756962Y-49999500D01*
X85743078Y-49998720D01*
X85730553Y-49997308D01*
X85652735Y-49988540D01*
X85625666Y-49982362D01*
X85546462Y-49954648D01*
X85521444Y-49942600D01*
X85450395Y-49897957D01*
X85428686Y-49880644D01*
X85369355Y-49821313D01*
X85352042Y-49799604D01*
X85320871Y-49749996D01*
X85307398Y-49728553D01*
X85295351Y-49703537D01*
X85267637Y-49624333D01*
X85261459Y-49597263D01*
X85251280Y-49506922D01*
X85250500Y-49493038D01*
X85250500Y-45827135D01*
X86162000Y-45827135D01*
X86162000Y-48922870D01*
X86162001Y-48922876D01*
X86168408Y-48982483D01*
X86218702Y-49117328D01*
X86218706Y-49117335D01*
X86304952Y-49232544D01*
X86304955Y-49232547D01*
X86420164Y-49318793D01*
X86420171Y-49318797D01*
X86555017Y-49369091D01*
X86555016Y-49369091D01*
X86561944Y-49369835D01*
X86614627Y-49375500D01*
X92110372Y-49375499D01*
X92169983Y-49369091D01*
X92304831Y-49318796D01*
X92420046Y-49232546D01*
X92506296Y-49117331D01*
X92556591Y-48982483D01*
X92563000Y-48922873D01*
X92563000Y-48799996D01*
X93194435Y-48799996D01*
X93194435Y-48800003D01*
X93214630Y-48979249D01*
X93214631Y-48979254D01*
X93274211Y-49149523D01*
X93335924Y-49247738D01*
X93370184Y-49302262D01*
X93497738Y-49429816D01*
X93650478Y-49525789D01*
X93710650Y-49546844D01*
X93820745Y-49585368D01*
X93820750Y-49585369D01*
X93999996Y-49605565D01*
X94000000Y-49605565D01*
X94000004Y-49605565D01*
X94179249Y-49585369D01*
X94179252Y-49585368D01*
X94179255Y-49585368D01*
X94349522Y-49525789D01*
X94502262Y-49429816D01*
X94629816Y-49302262D01*
X94725789Y-49149522D01*
X94785368Y-48979255D01*
X94787016Y-48964630D01*
X94805565Y-48800003D01*
X94805565Y-48799996D01*
X94785369Y-48620750D01*
X94785368Y-48620745D01*
X94739042Y-48488353D01*
X94725789Y-48450478D01*
X94629816Y-48297738D01*
X94502262Y-48170184D01*
X94438017Y-48129816D01*
X94349523Y-48074211D01*
X94179254Y-48014631D01*
X94179249Y-48014630D01*
X94000004Y-47994435D01*
X93999996Y-47994435D01*
X93820750Y-48014630D01*
X93820745Y-48014631D01*
X93650476Y-48074211D01*
X93497737Y-48170184D01*
X93370184Y-48297737D01*
X93274211Y-48450476D01*
X93214631Y-48620745D01*
X93214630Y-48620750D01*
X93194435Y-48799996D01*
X92563000Y-48799996D01*
X92562999Y-45827128D01*
X92556591Y-45767517D01*
X92549879Y-45749522D01*
X92506297Y-45632671D01*
X92506293Y-45632664D01*
X92420047Y-45517455D01*
X92420044Y-45517452D01*
X92417124Y-45515266D01*
X92414939Y-45512347D01*
X92413775Y-45511183D01*
X92413942Y-45511015D01*
X92375255Y-45459331D01*
X92371013Y-45399996D01*
X93194435Y-45399996D01*
X93194435Y-45400003D01*
X93214630Y-45579249D01*
X93214631Y-45579254D01*
X93274211Y-45749523D01*
X93370184Y-45902262D01*
X93497738Y-46029816D01*
X93650478Y-46125789D01*
X93820745Y-46185368D01*
X93820750Y-46185369D01*
X93999996Y-46205565D01*
X94000000Y-46205565D01*
X94000004Y-46205565D01*
X94179249Y-46185369D01*
X94179252Y-46185368D01*
X94179255Y-46185368D01*
X94349522Y-46125789D01*
X94502262Y-46029816D01*
X94629816Y-45902262D01*
X94725789Y-45749522D01*
X94785368Y-45579255D01*
X94792331Y-45517455D01*
X94805565Y-45400003D01*
X94805565Y-45399996D01*
X94785369Y-45220750D01*
X94785368Y-45220745D01*
X94742951Y-45099524D01*
X94725789Y-45050478D01*
X94634652Y-44905435D01*
X95344100Y-44905435D01*
X95344100Y-50401170D01*
X95344101Y-50401176D01*
X95350508Y-50460783D01*
X95400802Y-50595628D01*
X95400806Y-50595635D01*
X95487052Y-50710844D01*
X95487055Y-50710847D01*
X95602264Y-50797093D01*
X95602271Y-50797097D01*
X95737117Y-50847391D01*
X95737116Y-50847391D01*
X95744044Y-50848135D01*
X95796727Y-50853800D01*
X98892472Y-50853799D01*
X98952083Y-50847391D01*
X99086931Y-50797096D01*
X99202146Y-50710846D01*
X99288396Y-50595631D01*
X99338691Y-50460783D01*
X99345100Y-50401173D01*
X99345100Y-49749996D01*
X101394435Y-49749996D01*
X101394435Y-49750003D01*
X101414630Y-49929249D01*
X101414631Y-49929254D01*
X101474211Y-50099523D01*
X101524577Y-50179679D01*
X101570184Y-50252262D01*
X101697738Y-50379816D01*
X101732269Y-50401513D01*
X101826594Y-50460782D01*
X101850478Y-50475789D01*
X102020745Y-50535368D01*
X102020750Y-50535369D01*
X102199996Y-50555565D01*
X102200000Y-50555565D01*
X102200004Y-50555565D01*
X102379249Y-50535369D01*
X102379252Y-50535368D01*
X102379255Y-50535368D01*
X102549522Y-50475789D01*
X102702262Y-50379816D01*
X102829816Y-50252262D01*
X102925789Y-50099522D01*
X102985368Y-49929255D01*
X102986542Y-49918834D01*
X103005565Y-49750003D01*
X103005565Y-49749996D01*
X104794435Y-49749996D01*
X104794435Y-49750003D01*
X104814630Y-49929249D01*
X104814631Y-49929254D01*
X104874211Y-50099523D01*
X104924577Y-50179679D01*
X104970184Y-50252262D01*
X105097738Y-50379816D01*
X105132269Y-50401513D01*
X105226594Y-50460782D01*
X105250478Y-50475789D01*
X105420745Y-50535368D01*
X105420750Y-50535369D01*
X105599996Y-50555565D01*
X105600000Y-50555565D01*
X105600004Y-50555565D01*
X105779249Y-50535369D01*
X105779252Y-50535368D01*
X105779255Y-50535368D01*
X105949522Y-50475789D01*
X106102262Y-50379816D01*
X106229816Y-50252262D01*
X106325789Y-50099522D01*
X106385368Y-49929255D01*
X106386542Y-49918834D01*
X106405565Y-49750003D01*
X106405565Y-49749996D01*
X106385369Y-49570750D01*
X106385368Y-49570745D01*
X106358177Y-49493038D01*
X106325789Y-49400478D01*
X106303172Y-49364484D01*
X106229815Y-49247737D01*
X106102262Y-49120184D01*
X105949523Y-49024211D01*
X105779254Y-48964631D01*
X105779249Y-48964630D01*
X105600004Y-48944435D01*
X105599996Y-48944435D01*
X105420750Y-48964630D01*
X105420745Y-48964631D01*
X105250476Y-49024211D01*
X105097737Y-49120184D01*
X104970184Y-49247737D01*
X104874211Y-49400476D01*
X104814631Y-49570745D01*
X104814630Y-49570750D01*
X104794435Y-49749996D01*
X103005565Y-49749996D01*
X102985369Y-49570750D01*
X102985368Y-49570745D01*
X102958177Y-49493038D01*
X102925789Y-49400478D01*
X102903172Y-49364484D01*
X102829815Y-49247737D01*
X102702262Y-49120184D01*
X102549523Y-49024211D01*
X102379254Y-48964631D01*
X102379249Y-48964630D01*
X102200004Y-48944435D01*
X102199996Y-48944435D01*
X102020750Y-48964630D01*
X102020745Y-48964631D01*
X101850476Y-49024211D01*
X101697737Y-49120184D01*
X101570184Y-49247737D01*
X101474211Y-49400476D01*
X101414631Y-49570745D01*
X101414630Y-49570750D01*
X101394435Y-49749996D01*
X99345100Y-49749996D01*
X99345099Y-44905428D01*
X99338691Y-44845817D01*
X99288396Y-44710969D01*
X99288395Y-44710968D01*
X99288393Y-44710964D01*
X99202147Y-44595755D01*
X99202144Y-44595752D01*
X99086935Y-44509506D01*
X99086928Y-44509502D01*
X98952082Y-44459208D01*
X98952083Y-44459208D01*
X98892483Y-44452801D01*
X98892481Y-44452800D01*
X98892473Y-44452800D01*
X98892465Y-44452800D01*
X97543879Y-44452800D01*
X97476840Y-44433115D01*
X97431085Y-44380311D01*
X97421141Y-44311153D01*
X97438885Y-44262828D01*
X97525789Y-44124522D01*
X97585368Y-43954255D01*
X97585369Y-43954249D01*
X97605565Y-43775003D01*
X97605565Y-43774996D01*
X99394435Y-43774996D01*
X99394435Y-43775003D01*
X99414630Y-43954249D01*
X99414631Y-43954254D01*
X99474211Y-44124523D01*
X99570184Y-44277262D01*
X99697738Y-44404816D01*
X99850478Y-44500789D01*
X99875390Y-44509506D01*
X100020745Y-44560368D01*
X100020750Y-44560369D01*
X100199996Y-44580565D01*
X100200000Y-44580565D01*
X100200004Y-44580565D01*
X100379249Y-44560369D01*
X100379252Y-44560368D01*
X100379255Y-44560368D01*
X100549522Y-44500789D01*
X100702262Y-44404816D01*
X100829816Y-44277262D01*
X100925789Y-44124522D01*
X100985368Y-43954255D01*
X100985369Y-43954249D01*
X101005565Y-43775003D01*
X101005565Y-43774996D01*
X101002748Y-43749996D01*
X102794435Y-43749996D01*
X102794435Y-43750003D01*
X102814630Y-43929249D01*
X102814631Y-43929254D01*
X102874211Y-44099523D01*
X102889920Y-44124523D01*
X102970184Y-44252262D01*
X103097738Y-44379816D01*
X103182563Y-44433115D01*
X103224089Y-44459208D01*
X103250478Y-44475789D01*
X103346830Y-44509504D01*
X103420745Y-44535368D01*
X103420750Y-44535369D01*
X103599996Y-44555565D01*
X103600000Y-44555565D01*
X103600004Y-44555565D01*
X103779249Y-44535369D01*
X103779252Y-44535368D01*
X103779255Y-44535368D01*
X103949522Y-44475789D01*
X104102262Y-44379816D01*
X104229816Y-44252262D01*
X104325789Y-44099522D01*
X104385368Y-43929255D01*
X104385369Y-43929249D01*
X104405565Y-43750003D01*
X104405565Y-43749996D01*
X106194435Y-43749996D01*
X106194435Y-43750003D01*
X106214630Y-43929249D01*
X106214631Y-43929254D01*
X106274211Y-44099523D01*
X106289920Y-44124523D01*
X106370184Y-44252262D01*
X106497738Y-44379816D01*
X106582563Y-44433115D01*
X106624089Y-44459208D01*
X106650478Y-44475789D01*
X106746830Y-44509504D01*
X106820745Y-44535368D01*
X106820750Y-44535369D01*
X106999996Y-44555565D01*
X107000000Y-44555565D01*
X107000004Y-44555565D01*
X107179249Y-44535369D01*
X107179252Y-44535368D01*
X107179255Y-44535368D01*
X107349522Y-44475789D01*
X107502262Y-44379816D01*
X107629816Y-44252262D01*
X107725789Y-44099522D01*
X107785368Y-43929255D01*
X107785369Y-43929249D01*
X107805565Y-43750003D01*
X107805565Y-43749996D01*
X107785369Y-43570750D01*
X107785368Y-43570745D01*
X107725789Y-43400478D01*
X107629816Y-43247738D01*
X107502262Y-43120184D01*
X107470144Y-43100003D01*
X107349523Y-43024211D01*
X107179254Y-42964631D01*
X107179249Y-42964630D01*
X107000004Y-42944435D01*
X106999996Y-42944435D01*
X106820750Y-42964630D01*
X106820745Y-42964631D01*
X106650476Y-43024211D01*
X106497737Y-43120184D01*
X106370184Y-43247737D01*
X106274211Y-43400476D01*
X106214631Y-43570745D01*
X106214630Y-43570750D01*
X106194435Y-43749996D01*
X104405565Y-43749996D01*
X104385369Y-43570750D01*
X104385368Y-43570745D01*
X104325789Y-43400478D01*
X104229816Y-43247738D01*
X104102262Y-43120184D01*
X104070144Y-43100003D01*
X103949523Y-43024211D01*
X103779254Y-42964631D01*
X103779249Y-42964630D01*
X103600004Y-42944435D01*
X103599996Y-42944435D01*
X103420750Y-42964630D01*
X103420745Y-42964631D01*
X103250476Y-43024211D01*
X103097737Y-43120184D01*
X102970184Y-43247737D01*
X102874211Y-43400476D01*
X102814631Y-43570745D01*
X102814630Y-43570750D01*
X102794435Y-43749996D01*
X101002748Y-43749996D01*
X100985369Y-43595750D01*
X100985368Y-43595745D01*
X100976620Y-43570745D01*
X100925789Y-43425478D01*
X100910080Y-43400478D01*
X100829815Y-43272737D01*
X100702262Y-43145184D01*
X100549523Y-43049211D01*
X100379254Y-42989631D01*
X100379249Y-42989630D01*
X100200004Y-42969435D01*
X100199996Y-42969435D01*
X100020750Y-42989630D01*
X100020745Y-42989631D01*
X99850476Y-43049211D01*
X99697737Y-43145184D01*
X99570184Y-43272737D01*
X99474211Y-43425476D01*
X99414631Y-43595745D01*
X99414630Y-43595750D01*
X99394435Y-43774996D01*
X97605565Y-43774996D01*
X97585369Y-43595750D01*
X97585368Y-43595745D01*
X97576620Y-43570745D01*
X97525789Y-43425478D01*
X97510080Y-43400478D01*
X97429815Y-43272737D01*
X97302262Y-43145184D01*
X97149523Y-43049211D01*
X96979254Y-42989631D01*
X96979249Y-42989630D01*
X96800004Y-42969435D01*
X96799996Y-42969435D01*
X96620750Y-42989630D01*
X96620745Y-42989631D01*
X96450476Y-43049211D01*
X96297737Y-43145184D01*
X96170184Y-43272737D01*
X96074211Y-43425476D01*
X96014631Y-43595745D01*
X96014630Y-43595750D01*
X95994435Y-43774996D01*
X95994435Y-43775003D01*
X96014630Y-43954249D01*
X96014631Y-43954254D01*
X96065463Y-44099522D01*
X96074211Y-44124522D01*
X96154475Y-44252262D01*
X96161115Y-44262828D01*
X96180115Y-44330064D01*
X96159748Y-44396900D01*
X96106480Y-44442114D01*
X96056121Y-44452800D01*
X95796730Y-44452800D01*
X95796723Y-44452801D01*
X95737116Y-44459208D01*
X95602271Y-44509502D01*
X95602264Y-44509506D01*
X95487055Y-44595752D01*
X95487052Y-44595755D01*
X95400806Y-44710964D01*
X95400802Y-44710971D01*
X95350508Y-44845817D01*
X95344101Y-44905416D01*
X95344101Y-44905423D01*
X95344100Y-44905435D01*
X94634652Y-44905435D01*
X94629816Y-44897738D01*
X94502262Y-44770184D01*
X94470144Y-44750003D01*
X94349523Y-44674211D01*
X94179254Y-44614631D01*
X94179249Y-44614630D01*
X94000004Y-44594435D01*
X93999996Y-44594435D01*
X93820750Y-44614630D01*
X93820745Y-44614631D01*
X93650476Y-44674211D01*
X93497737Y-44770184D01*
X93370184Y-44897737D01*
X93274211Y-45050476D01*
X93214631Y-45220745D01*
X93214630Y-45220750D01*
X93194435Y-45399996D01*
X92371013Y-45399996D01*
X92370273Y-45389639D01*
X92403757Y-45328321D01*
X92430067Y-45302011D01*
X92479816Y-45252262D01*
X92575789Y-45099522D01*
X92635368Y-44929255D01*
X92638053Y-44905427D01*
X92655565Y-44750003D01*
X92655565Y-44749996D01*
X92635369Y-44570750D01*
X92635368Y-44570745D01*
X92622989Y-44535368D01*
X92575789Y-44400478D01*
X92479816Y-44247738D01*
X92352262Y-44120184D01*
X92319379Y-44099522D01*
X92199523Y-44024211D01*
X92029254Y-43964631D01*
X92029249Y-43964630D01*
X91850004Y-43944435D01*
X91849996Y-43944435D01*
X91670750Y-43964630D01*
X91670745Y-43964631D01*
X91500476Y-44024211D01*
X91347737Y-44120184D01*
X91220184Y-44247737D01*
X91124211Y-44400476D01*
X91064631Y-44570745D01*
X91064630Y-44570750D01*
X91044435Y-44749996D01*
X91044435Y-44750003D01*
X91064630Y-44929249D01*
X91064631Y-44929254D01*
X91124211Y-45099522D01*
X91177624Y-45184528D01*
X91196624Y-45251764D01*
X91176256Y-45318600D01*
X91122989Y-45363814D01*
X91072630Y-45374500D01*
X89227370Y-45374500D01*
X89160331Y-45354815D01*
X89114576Y-45302011D01*
X89104632Y-45232853D01*
X89122376Y-45184528D01*
X89175789Y-45099522D01*
X89235368Y-44929255D01*
X89238053Y-44905427D01*
X89255565Y-44750003D01*
X89255565Y-44749996D01*
X89235369Y-44570750D01*
X89235368Y-44570745D01*
X89222989Y-44535368D01*
X89175789Y-44400478D01*
X89079816Y-44247738D01*
X88952262Y-44120184D01*
X88919379Y-44099522D01*
X88799523Y-44024211D01*
X88629254Y-43964631D01*
X88629249Y-43964630D01*
X88450004Y-43944435D01*
X88449996Y-43944435D01*
X88270750Y-43964630D01*
X88270745Y-43964631D01*
X88100476Y-44024211D01*
X87947737Y-44120184D01*
X87820184Y-44247737D01*
X87724211Y-44400476D01*
X87664631Y-44570745D01*
X87664630Y-44570750D01*
X87644435Y-44749996D01*
X87644435Y-44750003D01*
X87664630Y-44929249D01*
X87664631Y-44929254D01*
X87724211Y-45099522D01*
X87777624Y-45184528D01*
X87796624Y-45251764D01*
X87776256Y-45318600D01*
X87722989Y-45363814D01*
X87672630Y-45374500D01*
X86614629Y-45374500D01*
X86614623Y-45374501D01*
X86555016Y-45380908D01*
X86420171Y-45431202D01*
X86420164Y-45431206D01*
X86304955Y-45517452D01*
X86304952Y-45517455D01*
X86218706Y-45632664D01*
X86218702Y-45632671D01*
X86168408Y-45767517D01*
X86162001Y-45827116D01*
X86162001Y-45827123D01*
X86162000Y-45827135D01*
X85250500Y-45827135D01*
X85250500Y-43099996D01*
X85944435Y-43099996D01*
X85944435Y-43100003D01*
X85964630Y-43279249D01*
X85964631Y-43279254D01*
X86024211Y-43449523D01*
X86100384Y-43570750D01*
X86120184Y-43602262D01*
X86247738Y-43729816D01*
X86400478Y-43825789D01*
X86570745Y-43885368D01*
X86570750Y-43885369D01*
X86749996Y-43905565D01*
X86750000Y-43905565D01*
X86750004Y-43905565D01*
X86929249Y-43885369D01*
X86929252Y-43885368D01*
X86929255Y-43885368D01*
X87099522Y-43825789D01*
X87252262Y-43729816D01*
X87379816Y-43602262D01*
X87475789Y-43449522D01*
X87535368Y-43279255D01*
X87535369Y-43279249D01*
X87555565Y-43100003D01*
X87555565Y-43099996D01*
X87535369Y-42920750D01*
X87535368Y-42920745D01*
X87475789Y-42750478D01*
X87379816Y-42597738D01*
X87252262Y-42470184D01*
X87099523Y-42374211D01*
X86929254Y-42314631D01*
X86929249Y-42314630D01*
X86750004Y-42294435D01*
X86749996Y-42294435D01*
X86570750Y-42314630D01*
X86570745Y-42314631D01*
X86400476Y-42374211D01*
X86247737Y-42470184D01*
X86120184Y-42597737D01*
X86024211Y-42750476D01*
X85964631Y-42920745D01*
X85964630Y-42920750D01*
X85944435Y-43099996D01*
X85250500Y-43099996D01*
X85250500Y-41549996D01*
X91444435Y-41549996D01*
X91444435Y-41550003D01*
X91464630Y-41729249D01*
X91464631Y-41729254D01*
X91524211Y-41899523D01*
X91587347Y-42000003D01*
X91620184Y-42052262D01*
X91747738Y-42179816D01*
X91900478Y-42275789D01*
X92011479Y-42314630D01*
X92070745Y-42335368D01*
X92070750Y-42335369D01*
X92249996Y-42355565D01*
X92250000Y-42355565D01*
X92250004Y-42355565D01*
X92429249Y-42335369D01*
X92429252Y-42335368D01*
X92429255Y-42335368D01*
X92599522Y-42275789D01*
X92752262Y-42179816D01*
X92879816Y-42052262D01*
X92975789Y-41899522D01*
X93035368Y-41729255D01*
X93035369Y-41729249D01*
X93055565Y-41550003D01*
X93055565Y-41549996D01*
X93035369Y-41370750D01*
X93035368Y-41370745D01*
X92992326Y-41247738D01*
X92975789Y-41200478D01*
X92879816Y-41047738D01*
X92752262Y-40920184D01*
X92599523Y-40824211D01*
X92429254Y-40764631D01*
X92429249Y-40764630D01*
X92250004Y-40744435D01*
X92249996Y-40744435D01*
X92070750Y-40764630D01*
X92070745Y-40764631D01*
X91900476Y-40824211D01*
X91747737Y-40920184D01*
X91620184Y-41047737D01*
X91524211Y-41200476D01*
X91464631Y-41370745D01*
X91464630Y-41370750D01*
X91444435Y-41549996D01*
X85250500Y-41549996D01*
X85250500Y-39699996D01*
X85944435Y-39699996D01*
X85944435Y-39700003D01*
X85964630Y-39879249D01*
X85964631Y-39879254D01*
X86024211Y-40049523D01*
X86120184Y-40202262D01*
X86247738Y-40329816D01*
X86400478Y-40425789D01*
X86553258Y-40479249D01*
X86570745Y-40485368D01*
X86570750Y-40485369D01*
X86749996Y-40505565D01*
X86750000Y-40505565D01*
X86750004Y-40505565D01*
X86929249Y-40485369D01*
X86929252Y-40485368D01*
X86929255Y-40485368D01*
X87099522Y-40425789D01*
X87252262Y-40329816D01*
X87379816Y-40202262D01*
X87475789Y-40049522D01*
X87535368Y-39879255D01*
X87555565Y-39700000D01*
X87541392Y-39574211D01*
X87535369Y-39520750D01*
X87535368Y-39520745D01*
X87475788Y-39350476D01*
X87379815Y-39197737D01*
X87252262Y-39070184D01*
X87099523Y-38974211D01*
X86929254Y-38914631D01*
X86929249Y-38914630D01*
X86750004Y-38894435D01*
X86749996Y-38894435D01*
X86570750Y-38914630D01*
X86570745Y-38914631D01*
X86400476Y-38974211D01*
X86247737Y-39070184D01*
X86120184Y-39197737D01*
X86024211Y-39350476D01*
X85964631Y-39520745D01*
X85964630Y-39520750D01*
X85944435Y-39699996D01*
X85250500Y-39699996D01*
X85250500Y-38149996D01*
X91444435Y-38149996D01*
X91444435Y-38150003D01*
X91464630Y-38329249D01*
X91464631Y-38329254D01*
X91524211Y-38499523D01*
X91620184Y-38652262D01*
X91747738Y-38779816D01*
X91900478Y-38875789D01*
X92011479Y-38914630D01*
X92070745Y-38935368D01*
X92070750Y-38935369D01*
X92249996Y-38955565D01*
X92250000Y-38955565D01*
X92250004Y-38955565D01*
X92429249Y-38935369D01*
X92429252Y-38935368D01*
X92429255Y-38935368D01*
X92599522Y-38875789D01*
X92752262Y-38779816D01*
X92879816Y-38652262D01*
X92975789Y-38499522D01*
X93035368Y-38329255D01*
X93055565Y-38150000D01*
X93035368Y-37970745D01*
X92975789Y-37800478D01*
X92966295Y-37785369D01*
X92903461Y-37685369D01*
X92879816Y-37647738D01*
X92752262Y-37520184D01*
X92599523Y-37424211D01*
X92429254Y-37364631D01*
X92429249Y-37364630D01*
X92250004Y-37344435D01*
X92249996Y-37344435D01*
X92070750Y-37364630D01*
X92070745Y-37364631D01*
X91900476Y-37424211D01*
X91747737Y-37520184D01*
X91620184Y-37647737D01*
X91524211Y-37800476D01*
X91464631Y-37970745D01*
X91464630Y-37970750D01*
X91444435Y-38149996D01*
X85250500Y-38149996D01*
X85250500Y-37006961D01*
X85251280Y-36993077D01*
X85251280Y-36993076D01*
X85261459Y-36902731D01*
X85267635Y-36875670D01*
X85295353Y-36796456D01*
X85307396Y-36771450D01*
X85352046Y-36700389D01*
X85369351Y-36678690D01*
X85428690Y-36619351D01*
X85450389Y-36602046D01*
X85521450Y-36557396D01*
X85546456Y-36545353D01*
X85625670Y-36517635D01*
X85652733Y-36511459D01*
X85715419Y-36504396D01*
X85743079Y-36501280D01*
X85756962Y-36500500D01*
X89607317Y-36500500D01*
X89607318Y-36500500D01*
X89789612Y-36474290D01*
X89819764Y-36469955D01*
X89819765Y-36469954D01*
X89819769Y-36469954D01*
X90025710Y-36409484D01*
X90025713Y-36409482D01*
X90025715Y-36409482D01*
X90220938Y-36320327D01*
X90220944Y-36320323D01*
X90220950Y-36320321D01*
X90401513Y-36204281D01*
X90563724Y-36063724D01*
X90704281Y-35901513D01*
X90820321Y-35720950D01*
X90820323Y-35720944D01*
X90820327Y-35720938D01*
X90909482Y-35525715D01*
X90909482Y-35525713D01*
X90909484Y-35525710D01*
X90969954Y-35319769D01*
X91000500Y-35107318D01*
X91000500Y-35000000D01*
X91000500Y-34934108D01*
X91000500Y-34749996D01*
X94194435Y-34749996D01*
X94194435Y-34750003D01*
X94214630Y-34929249D01*
X94214631Y-34929254D01*
X94274211Y-35099523D01*
X94356951Y-35231202D01*
X94370184Y-35252262D01*
X94497738Y-35379816D01*
X94650478Y-35475789D01*
X94793144Y-35525710D01*
X94820745Y-35535368D01*
X94820750Y-35535369D01*
X94999996Y-35555565D01*
X95000000Y-35555565D01*
X95000003Y-35555565D01*
X95111616Y-35542989D01*
X95180438Y-35555043D01*
X95231818Y-35602392D01*
X95249500Y-35666209D01*
X95249500Y-41122870D01*
X95249501Y-41122876D01*
X95255909Y-41182484D01*
X95297204Y-41293204D01*
X95302188Y-41362895D01*
X95268704Y-41424216D01*
X95170185Y-41522736D01*
X95170184Y-41522737D01*
X95074211Y-41675476D01*
X95014631Y-41845745D01*
X95014630Y-41845750D01*
X94994435Y-42024996D01*
X94994435Y-42025003D01*
X95014630Y-42204249D01*
X95014631Y-42204254D01*
X95074211Y-42374523D01*
X95137841Y-42475789D01*
X95170184Y-42527262D01*
X95297738Y-42654816D01*
X95388080Y-42711582D01*
X95449979Y-42750476D01*
X95450478Y-42750789D01*
X95549299Y-42785368D01*
X95620745Y-42810368D01*
X95620750Y-42810369D01*
X95799996Y-42830565D01*
X95800000Y-42830565D01*
X95800004Y-42830565D01*
X95979249Y-42810369D01*
X95979252Y-42810368D01*
X95979255Y-42810368D01*
X96149522Y-42750789D01*
X96302262Y-42654816D01*
X96429816Y-42527262D01*
X96525789Y-42374522D01*
X96585368Y-42204255D01*
X96588185Y-42179254D01*
X96605565Y-42025003D01*
X96605565Y-42024996D01*
X96585369Y-41845750D01*
X96585368Y-41845745D01*
X96548525Y-41740454D01*
X96544964Y-41670675D01*
X96579693Y-41610047D01*
X96641686Y-41577820D01*
X96665567Y-41575499D01*
X98334433Y-41575499D01*
X98401472Y-41595184D01*
X98447227Y-41647988D01*
X98457171Y-41717146D01*
X98451475Y-41740454D01*
X98414631Y-41845745D01*
X98414630Y-41845750D01*
X98394435Y-42024996D01*
X98394435Y-42025003D01*
X98414630Y-42204249D01*
X98414631Y-42204254D01*
X98474211Y-42374523D01*
X98537841Y-42475789D01*
X98570184Y-42527262D01*
X98697738Y-42654816D01*
X98788080Y-42711582D01*
X98849979Y-42750476D01*
X98850478Y-42750789D01*
X98949299Y-42785368D01*
X99020745Y-42810368D01*
X99020750Y-42810369D01*
X99199996Y-42830565D01*
X99200000Y-42830565D01*
X99200004Y-42830565D01*
X99379249Y-42810369D01*
X99379252Y-42810368D01*
X99379255Y-42810368D01*
X99549522Y-42750789D01*
X99702262Y-42654816D01*
X99829816Y-42527262D01*
X99925789Y-42374522D01*
X99985368Y-42204255D01*
X99988185Y-42179254D01*
X100005565Y-42025003D01*
X100005565Y-42024996D01*
X100002748Y-41999996D01*
X101794435Y-41999996D01*
X101794435Y-42000003D01*
X101814630Y-42179249D01*
X101814631Y-42179254D01*
X101874211Y-42349523D01*
X101950028Y-42470184D01*
X101970184Y-42502262D01*
X102097738Y-42629816D01*
X102250478Y-42725789D01*
X102321924Y-42750789D01*
X102420745Y-42785368D01*
X102420750Y-42785369D01*
X102599996Y-42805565D01*
X102600000Y-42805565D01*
X102600004Y-42805565D01*
X102779249Y-42785369D01*
X102779252Y-42785368D01*
X102779255Y-42785368D01*
X102949522Y-42725789D01*
X103102262Y-42629816D01*
X103229816Y-42502262D01*
X103325789Y-42349522D01*
X103385368Y-42179255D01*
X103402748Y-42025003D01*
X103405565Y-42000003D01*
X103405565Y-41999996D01*
X105194435Y-41999996D01*
X105194435Y-42000003D01*
X105214630Y-42179249D01*
X105214631Y-42179254D01*
X105274211Y-42349523D01*
X105350028Y-42470184D01*
X105370184Y-42502262D01*
X105497738Y-42629816D01*
X105650478Y-42725789D01*
X105721924Y-42750789D01*
X105820745Y-42785368D01*
X105820750Y-42785369D01*
X105999996Y-42805565D01*
X106000000Y-42805565D01*
X106000004Y-42805565D01*
X106179249Y-42785369D01*
X106179252Y-42785368D01*
X106179255Y-42785368D01*
X106349522Y-42725789D01*
X106502262Y-42629816D01*
X106629816Y-42502262D01*
X106725789Y-42349522D01*
X106785368Y-42179255D01*
X106802748Y-42025003D01*
X106805565Y-42000003D01*
X106805565Y-41999996D01*
X106785369Y-41820750D01*
X106785368Y-41820745D01*
X106725788Y-41650476D01*
X106678754Y-41575623D01*
X106629816Y-41497738D01*
X106502262Y-41370184D01*
X106490662Y-41362895D01*
X106349523Y-41274211D01*
X106179254Y-41214631D01*
X106179249Y-41214630D01*
X106000004Y-41194435D01*
X105999996Y-41194435D01*
X105820750Y-41214630D01*
X105820745Y-41214631D01*
X105650476Y-41274211D01*
X105497737Y-41370184D01*
X105370184Y-41497737D01*
X105274211Y-41650476D01*
X105214631Y-41820745D01*
X105214630Y-41820750D01*
X105194435Y-41999996D01*
X103405565Y-41999996D01*
X103385369Y-41820750D01*
X103385368Y-41820745D01*
X103325788Y-41650476D01*
X103278754Y-41575623D01*
X103229816Y-41497738D01*
X103102262Y-41370184D01*
X103090662Y-41362895D01*
X102949523Y-41274211D01*
X102779254Y-41214631D01*
X102779249Y-41214630D01*
X102600004Y-41194435D01*
X102599996Y-41194435D01*
X102420750Y-41214630D01*
X102420745Y-41214631D01*
X102250476Y-41274211D01*
X102097737Y-41370184D01*
X101970184Y-41497737D01*
X101874211Y-41650476D01*
X101814631Y-41820745D01*
X101814630Y-41820750D01*
X101794435Y-41999996D01*
X100002748Y-41999996D01*
X99985369Y-41845750D01*
X99985368Y-41845745D01*
X99925788Y-41675476D01*
X99859981Y-41570745D01*
X99829816Y-41522738D01*
X99702262Y-41395184D01*
X99662475Y-41370184D01*
X99549521Y-41299210D01*
X99379249Y-41239630D01*
X99360615Y-41237531D01*
X99296201Y-41210464D01*
X99256646Y-41152869D01*
X99250499Y-41114317D01*
X99250499Y-40299996D01*
X107444435Y-40299996D01*
X107444435Y-40300003D01*
X107464630Y-40479249D01*
X107464631Y-40479254D01*
X107524211Y-40649523D01*
X107583849Y-40744435D01*
X107620184Y-40802262D01*
X107747738Y-40929816D01*
X107838080Y-40986582D01*
X107897966Y-41024211D01*
X107900478Y-41025789D01*
X107963202Y-41047737D01*
X108070745Y-41085368D01*
X108070750Y-41085369D01*
X108249996Y-41105565D01*
X108250000Y-41105565D01*
X108250004Y-41105565D01*
X108429249Y-41085369D01*
X108429252Y-41085368D01*
X108429255Y-41085368D01*
X108599522Y-41025789D01*
X108752262Y-40929816D01*
X108879816Y-40802262D01*
X108975789Y-40649522D01*
X109035368Y-40479255D01*
X109041392Y-40425789D01*
X109055565Y-40300003D01*
X109055565Y-40299996D01*
X109035369Y-40120750D01*
X109035368Y-40120745D01*
X108975788Y-39950476D01*
X108879815Y-39797737D01*
X108752262Y-39670184D01*
X108599523Y-39574211D01*
X108429254Y-39514631D01*
X108429249Y-39514630D01*
X108250004Y-39494435D01*
X108249996Y-39494435D01*
X108070750Y-39514630D01*
X108070745Y-39514631D01*
X107900476Y-39574211D01*
X107747737Y-39670184D01*
X107620184Y-39797737D01*
X107524211Y-39950476D01*
X107464631Y-40120745D01*
X107464630Y-40120750D01*
X107444435Y-40299996D01*
X99250499Y-40299996D01*
X99250499Y-36899996D01*
X107444435Y-36899996D01*
X107444435Y-36900003D01*
X107464630Y-37079249D01*
X107464631Y-37079254D01*
X107524211Y-37249523D01*
X107583849Y-37344435D01*
X107620184Y-37402262D01*
X107747738Y-37529816D01*
X107900478Y-37625789D01*
X107911984Y-37629815D01*
X108070745Y-37685368D01*
X108070750Y-37685369D01*
X108249996Y-37705565D01*
X108250000Y-37705565D01*
X108250004Y-37705565D01*
X108429249Y-37685369D01*
X108429252Y-37685368D01*
X108429255Y-37685368D01*
X108599522Y-37625789D01*
X108752262Y-37529816D01*
X108879816Y-37402262D01*
X108975789Y-37249522D01*
X109035368Y-37079255D01*
X109043514Y-37006961D01*
X109055565Y-36900003D01*
X109055565Y-36899996D01*
X109035369Y-36720750D01*
X109035368Y-36720745D01*
X109024108Y-36688567D01*
X108975789Y-36550478D01*
X108975467Y-36549966D01*
X108910250Y-36446173D01*
X108879816Y-36397738D01*
X108752262Y-36270184D01*
X108599523Y-36174211D01*
X108429254Y-36114631D01*
X108429249Y-36114630D01*
X108250004Y-36094435D01*
X108249996Y-36094435D01*
X108070750Y-36114630D01*
X108070745Y-36114631D01*
X107900476Y-36174211D01*
X107747737Y-36270184D01*
X107620184Y-36397737D01*
X107524211Y-36550476D01*
X107464631Y-36720745D01*
X107464630Y-36720750D01*
X107444435Y-36899996D01*
X99250499Y-36899996D01*
X99250499Y-35627128D01*
X99244091Y-35567517D01*
X99239633Y-35555565D01*
X99193797Y-35432671D01*
X99193793Y-35432664D01*
X99107547Y-35317455D01*
X99107544Y-35317452D01*
X98992335Y-35231206D01*
X98992328Y-35231202D01*
X98857482Y-35180908D01*
X98857483Y-35180908D01*
X98797883Y-35174501D01*
X98797881Y-35174500D01*
X98797873Y-35174500D01*
X98797865Y-35174500D01*
X95874314Y-35174500D01*
X95807275Y-35154815D01*
X95761520Y-35102011D01*
X95751576Y-35032853D01*
X95757271Y-35009550D01*
X95760614Y-34999996D01*
X101694435Y-34999996D01*
X101694435Y-35000003D01*
X101714630Y-35179249D01*
X101714631Y-35179254D01*
X101774211Y-35349523D01*
X101826457Y-35432671D01*
X101870184Y-35502262D01*
X101997738Y-35629816D01*
X102088080Y-35686582D01*
X102142776Y-35720950D01*
X102150478Y-35725789D01*
X102320745Y-35785368D01*
X102320750Y-35785369D01*
X102499996Y-35805565D01*
X102500000Y-35805565D01*
X102500004Y-35805565D01*
X102679249Y-35785369D01*
X102679252Y-35785368D01*
X102679255Y-35785368D01*
X102849522Y-35725789D01*
X103002262Y-35629816D01*
X103129816Y-35502262D01*
X103225789Y-35349522D01*
X103285368Y-35179255D01*
X103293042Y-35111149D01*
X103305565Y-35000003D01*
X103305565Y-34999996D01*
X104544435Y-34999996D01*
X104544435Y-35000003D01*
X104564630Y-35179249D01*
X104564631Y-35179254D01*
X104624211Y-35349523D01*
X104676457Y-35432671D01*
X104720184Y-35502262D01*
X104847738Y-35629816D01*
X104938080Y-35686582D01*
X104992776Y-35720950D01*
X105000478Y-35725789D01*
X105170745Y-35785368D01*
X105170750Y-35785369D01*
X105349996Y-35805565D01*
X105350000Y-35805565D01*
X105350004Y-35805565D01*
X105529249Y-35785369D01*
X105529252Y-35785368D01*
X105529255Y-35785368D01*
X105699522Y-35725789D01*
X105852262Y-35629816D01*
X105979816Y-35502262D01*
X106075789Y-35349522D01*
X106135368Y-35179255D01*
X106143042Y-35111149D01*
X106155565Y-35000003D01*
X106155565Y-34999996D01*
X106135369Y-34820750D01*
X106135368Y-34820745D01*
X106075788Y-34650476D01*
X106036582Y-34588080D01*
X105979816Y-34497738D01*
X105852262Y-34370184D01*
X105828996Y-34355565D01*
X105699523Y-34274211D01*
X105529254Y-34214631D01*
X105529249Y-34214630D01*
X105350004Y-34194435D01*
X105349996Y-34194435D01*
X105170750Y-34214630D01*
X105170745Y-34214631D01*
X105000476Y-34274211D01*
X104847737Y-34370184D01*
X104720184Y-34497737D01*
X104624211Y-34650476D01*
X104564631Y-34820745D01*
X104564630Y-34820750D01*
X104544435Y-34999996D01*
X103305565Y-34999996D01*
X103285369Y-34820750D01*
X103285368Y-34820745D01*
X103225788Y-34650476D01*
X103186582Y-34588080D01*
X103129816Y-34497738D01*
X103002262Y-34370184D01*
X102978996Y-34355565D01*
X102849523Y-34274211D01*
X102679254Y-34214631D01*
X102679249Y-34214630D01*
X102500004Y-34194435D01*
X102499996Y-34194435D01*
X102320750Y-34214630D01*
X102320745Y-34214631D01*
X102150476Y-34274211D01*
X101997737Y-34370184D01*
X101870184Y-34497737D01*
X101774211Y-34650476D01*
X101714631Y-34820745D01*
X101714630Y-34820750D01*
X101694435Y-34999996D01*
X95760614Y-34999996D01*
X95785368Y-34929255D01*
X95785369Y-34929249D01*
X95805565Y-34750003D01*
X95805565Y-34749996D01*
X95785369Y-34570750D01*
X95785368Y-34570745D01*
X95725788Y-34400476D01*
X95684878Y-34335368D01*
X95629816Y-34247738D01*
X95502262Y-34120184D01*
X95349523Y-34024211D01*
X95179254Y-33964631D01*
X95179249Y-33964630D01*
X95000004Y-33944435D01*
X94999996Y-33944435D01*
X94820750Y-33964630D01*
X94820745Y-33964631D01*
X94650476Y-34024211D01*
X94497737Y-34120184D01*
X94370184Y-34247737D01*
X94274211Y-34400476D01*
X94214631Y-34570745D01*
X94214630Y-34570750D01*
X94194435Y-34749996D01*
X91000500Y-34749996D01*
X91000500Y-33549996D01*
X91694435Y-33549996D01*
X91694435Y-33550003D01*
X91714630Y-33729249D01*
X91714631Y-33729254D01*
X91774211Y-33899523D01*
X91815122Y-33964632D01*
X91870184Y-34052262D01*
X91997738Y-34179816D01*
X92088080Y-34236582D01*
X92147966Y-34274211D01*
X92150478Y-34275789D01*
X92320745Y-34335368D01*
X92320750Y-34335369D01*
X92499996Y-34355565D01*
X92500000Y-34355565D01*
X92500004Y-34355565D01*
X92679249Y-34335369D01*
X92679252Y-34335368D01*
X92679255Y-34335368D01*
X92849522Y-34275789D01*
X93002262Y-34179816D01*
X93129816Y-34052262D01*
X93225789Y-33899522D01*
X93285368Y-33729255D01*
X93305565Y-33550000D01*
X93303916Y-33535369D01*
X93285369Y-33370750D01*
X93285368Y-33370745D01*
X93225788Y-33200476D01*
X93129815Y-33047737D01*
X93002262Y-32920184D01*
X92849523Y-32824211D01*
X92679254Y-32764631D01*
X92679249Y-32764630D01*
X92500004Y-32744435D01*
X92499996Y-32744435D01*
X92320750Y-32764630D01*
X92320745Y-32764631D01*
X92150476Y-32824211D01*
X91997737Y-32920184D01*
X91870184Y-33047737D01*
X91774211Y-33200476D01*
X91714631Y-33370745D01*
X91714630Y-33370750D01*
X91694435Y-33549996D01*
X91000500Y-33549996D01*
X91000500Y-32249996D01*
X94444435Y-32249996D01*
X94444435Y-32250003D01*
X94464630Y-32429249D01*
X94464631Y-32429254D01*
X94524211Y-32599523D01*
X94584233Y-32695046D01*
X94620184Y-32752262D01*
X94747738Y-32879816D01*
X94900478Y-32975789D01*
X94969678Y-33000003D01*
X95070745Y-33035368D01*
X95070750Y-33035369D01*
X95249996Y-33055565D01*
X95250000Y-33055565D01*
X95250004Y-33055565D01*
X95429249Y-33035369D01*
X95429252Y-33035368D01*
X95429255Y-33035368D01*
X95599522Y-32975789D01*
X95752262Y-32879816D01*
X95879816Y-32752262D01*
X95975789Y-32599522D01*
X96035368Y-32429255D01*
X96035369Y-32429249D01*
X96055565Y-32250003D01*
X96055565Y-32249996D01*
X96035369Y-32070750D01*
X96035368Y-32070745D01*
X95997542Y-31962644D01*
X95975789Y-31900478D01*
X95879816Y-31747738D01*
X95752262Y-31620184D01*
X95599523Y-31524211D01*
X95429254Y-31464631D01*
X95429249Y-31464630D01*
X95250004Y-31444435D01*
X95249996Y-31444435D01*
X95070750Y-31464630D01*
X95070745Y-31464631D01*
X94900476Y-31524211D01*
X94747737Y-31620184D01*
X94620184Y-31747737D01*
X94524211Y-31900476D01*
X94464631Y-32070745D01*
X94464630Y-32070750D01*
X94444435Y-32249996D01*
X91000500Y-32249996D01*
X91000500Y-30299996D01*
X91694435Y-30299996D01*
X91694435Y-30300003D01*
X91714630Y-30479249D01*
X91714631Y-30479254D01*
X91774211Y-30649523D01*
X91870184Y-30802262D01*
X91997738Y-30929816D01*
X92150478Y-31025789D01*
X92320745Y-31085368D01*
X92320750Y-31085369D01*
X92499996Y-31105565D01*
X92500000Y-31105565D01*
X92500004Y-31105565D01*
X92679249Y-31085369D01*
X92679252Y-31085368D01*
X92679255Y-31085368D01*
X92849522Y-31025789D01*
X93002262Y-30929816D01*
X93129816Y-30802262D01*
X93225789Y-30649522D01*
X93285368Y-30479255D01*
X93305565Y-30300000D01*
X93300186Y-30252262D01*
X93285369Y-30120750D01*
X93285368Y-30120745D01*
X93225788Y-29950476D01*
X93129815Y-29797737D01*
X93002262Y-29670184D01*
X92849523Y-29574211D01*
X92679254Y-29514631D01*
X92679249Y-29514630D01*
X92500004Y-29494435D01*
X92499996Y-29494435D01*
X92320750Y-29514630D01*
X92320745Y-29514631D01*
X92150476Y-29574211D01*
X91997737Y-29670184D01*
X91870184Y-29797737D01*
X91774211Y-29950476D01*
X91714631Y-30120745D01*
X91714630Y-30120750D01*
X91694435Y-30299996D01*
X91000500Y-30299996D01*
X91000500Y-28549996D01*
X100944435Y-28549996D01*
X100944435Y-28550003D01*
X100964630Y-28729249D01*
X100964631Y-28729254D01*
X101024211Y-28899523D01*
X101065122Y-28964632D01*
X101120184Y-29052262D01*
X101247738Y-29179816D01*
X101338080Y-29236582D01*
X101355833Y-29247737D01*
X101400478Y-29275789D01*
X101570739Y-29335366D01*
X101570745Y-29335368D01*
X101570750Y-29335369D01*
X101749996Y-29355565D01*
X101750000Y-29355565D01*
X101750004Y-29355565D01*
X101929249Y-29335369D01*
X101929251Y-29335368D01*
X101929255Y-29335368D01*
X101929258Y-29335366D01*
X101929262Y-29335366D01*
X102084545Y-29281030D01*
X102154324Y-29277468D01*
X102214951Y-29312196D01*
X102247179Y-29374190D01*
X102249500Y-29398071D01*
X102249500Y-31839424D01*
X102229815Y-31906463D01*
X102177011Y-31952218D01*
X102111617Y-31962644D01*
X101950004Y-31944435D01*
X101949996Y-31944435D01*
X101770750Y-31964630D01*
X101770745Y-31964631D01*
X101600476Y-32024211D01*
X101447737Y-32120184D01*
X101320184Y-32247737D01*
X101224211Y-32400476D01*
X101164631Y-32570745D01*
X101164630Y-32570750D01*
X101144435Y-32749996D01*
X101144435Y-32750003D01*
X101164630Y-32929249D01*
X101164631Y-32929254D01*
X101224211Y-33099523D01*
X101287646Y-33200478D01*
X101320184Y-33252262D01*
X101447738Y-33379816D01*
X101600478Y-33475789D01*
X101770745Y-33535368D01*
X101770750Y-33535369D01*
X101949996Y-33555565D01*
X101950000Y-33555565D01*
X101950004Y-33555565D01*
X102129249Y-33535369D01*
X102129252Y-33535368D01*
X102129255Y-33535368D01*
X102299522Y-33475789D01*
X102452262Y-33379816D01*
X102579816Y-33252262D01*
X102675789Y-33099522D01*
X102710615Y-32999996D01*
X106944435Y-32999996D01*
X106944435Y-33000003D01*
X106964630Y-33179249D01*
X106964631Y-33179254D01*
X107024211Y-33349523D01*
X107103549Y-33475788D01*
X107120184Y-33502262D01*
X107247738Y-33629816D01*
X107400478Y-33725789D01*
X107570745Y-33785368D01*
X107570750Y-33785369D01*
X107749996Y-33805565D01*
X107750000Y-33805565D01*
X107750004Y-33805565D01*
X107929249Y-33785369D01*
X107929252Y-33785368D01*
X107929255Y-33785368D01*
X108099522Y-33725789D01*
X108252262Y-33629816D01*
X108379816Y-33502262D01*
X108475789Y-33349522D01*
X108535368Y-33179255D01*
X108544352Y-33099521D01*
X108555565Y-33000003D01*
X108555565Y-32999996D01*
X108535369Y-32820750D01*
X108535368Y-32820745D01*
X108475789Y-32650478D01*
X108379816Y-32497738D01*
X108252262Y-32370184D01*
X108099523Y-32274211D01*
X107929254Y-32214631D01*
X107929249Y-32214630D01*
X107750004Y-32194435D01*
X107749996Y-32194435D01*
X107570750Y-32214630D01*
X107570745Y-32214631D01*
X107400476Y-32274211D01*
X107247737Y-32370184D01*
X107120184Y-32497737D01*
X107024211Y-32650476D01*
X106964631Y-32820745D01*
X106964630Y-32820750D01*
X106944435Y-32999996D01*
X102710615Y-32999996D01*
X102735368Y-32929255D01*
X102735368Y-32929254D01*
X102737668Y-32922682D01*
X102740242Y-32923582D01*
X102768320Y-32873410D01*
X102829989Y-32840565D01*
X102855084Y-32837999D01*
X105797871Y-32837999D01*
X105797872Y-32837999D01*
X105857483Y-32831591D01*
X105992331Y-32781296D01*
X106107546Y-32695046D01*
X106193796Y-32579831D01*
X106244091Y-32444983D01*
X106250500Y-32385373D01*
X106250500Y-29749996D01*
X106944435Y-29749996D01*
X106944435Y-29750003D01*
X106964630Y-29929249D01*
X106964631Y-29929254D01*
X107024211Y-30099523D01*
X107037546Y-30120745D01*
X107120184Y-30252262D01*
X107247738Y-30379816D01*
X107400478Y-30475789D01*
X107570745Y-30535368D01*
X107570750Y-30535369D01*
X107749996Y-30555565D01*
X107750000Y-30555565D01*
X107750004Y-30555565D01*
X107929249Y-30535369D01*
X107929252Y-30535368D01*
X107929255Y-30535368D01*
X108099522Y-30475789D01*
X108252262Y-30379816D01*
X108379816Y-30252262D01*
X108475789Y-30099522D01*
X108535368Y-29929255D01*
X108535369Y-29929249D01*
X108555565Y-29750003D01*
X108555565Y-29749996D01*
X108535369Y-29570750D01*
X108535368Y-29570745D01*
X108515733Y-29514631D01*
X108475789Y-29400478D01*
X108379816Y-29247738D01*
X108252262Y-29120184D01*
X108099523Y-29024211D01*
X107929254Y-28964631D01*
X107929249Y-28964630D01*
X107750004Y-28944435D01*
X107749996Y-28944435D01*
X107570750Y-28964630D01*
X107570745Y-28964631D01*
X107400476Y-29024211D01*
X107247737Y-29120184D01*
X107120184Y-29247737D01*
X107024211Y-29400476D01*
X106964631Y-29570745D01*
X106964630Y-29570750D01*
X106944435Y-29749996D01*
X106250500Y-29749996D01*
X106250499Y-26889628D01*
X106244091Y-26830017D01*
X106193796Y-26695169D01*
X106193795Y-26695168D01*
X106193793Y-26695164D01*
X106107547Y-26579955D01*
X106107544Y-26579952D01*
X105992335Y-26493706D01*
X105992328Y-26493702D01*
X105857482Y-26443408D01*
X105857483Y-26443408D01*
X105797883Y-26437001D01*
X105797881Y-26437000D01*
X105797873Y-26437000D01*
X105797864Y-26437000D01*
X102702129Y-26437000D01*
X102702123Y-26437001D01*
X102642516Y-26443408D01*
X102507671Y-26493702D01*
X102507664Y-26493706D01*
X102392455Y-26579952D01*
X102392452Y-26579955D01*
X102306206Y-26695164D01*
X102306202Y-26695171D01*
X102255908Y-26830017D01*
X102253517Y-26852262D01*
X102249501Y-26889623D01*
X102249500Y-26889635D01*
X102249500Y-27701928D01*
X102229815Y-27768967D01*
X102177011Y-27814722D01*
X102107853Y-27824666D01*
X102084546Y-27818970D01*
X101929257Y-27764632D01*
X101929249Y-27764630D01*
X101750004Y-27744435D01*
X101749996Y-27744435D01*
X101570750Y-27764630D01*
X101570745Y-27764631D01*
X101400476Y-27824211D01*
X101247737Y-27920184D01*
X101120184Y-28047737D01*
X101024211Y-28200476D01*
X100964631Y-28370745D01*
X100964630Y-28370750D01*
X100944435Y-28549996D01*
X91000500Y-28549996D01*
X91000500Y-26899996D01*
X91694435Y-26899996D01*
X91694435Y-26900003D01*
X91714630Y-27079249D01*
X91714631Y-27079254D01*
X91774211Y-27249523D01*
X91870184Y-27402262D01*
X91997738Y-27529816D01*
X92150478Y-27625789D01*
X92320745Y-27685368D01*
X92320750Y-27685369D01*
X92499996Y-27705565D01*
X92500000Y-27705565D01*
X92500004Y-27705565D01*
X92679249Y-27685369D01*
X92679252Y-27685368D01*
X92679255Y-27685368D01*
X92849522Y-27625789D01*
X93002262Y-27529816D01*
X93129816Y-27402262D01*
X93225789Y-27249522D01*
X93285368Y-27079255D01*
X93305565Y-26900000D01*
X93304397Y-26889635D01*
X93285369Y-26720750D01*
X93285368Y-26720745D01*
X93225788Y-26550476D01*
X93158512Y-26443408D01*
X93129816Y-26397738D01*
X93002262Y-26270184D01*
X92849523Y-26174211D01*
X92679254Y-26114631D01*
X92679249Y-26114630D01*
X92500004Y-26094435D01*
X92499996Y-26094435D01*
X92320750Y-26114630D01*
X92320745Y-26114631D01*
X92150476Y-26174211D01*
X91997737Y-26270184D01*
X91870184Y-26397737D01*
X91774211Y-26550476D01*
X91714631Y-26720745D01*
X91714630Y-26720750D01*
X91694435Y-26899996D01*
X91000500Y-26899996D01*
X91000500Y-26006961D01*
X91001280Y-25993077D01*
X91001280Y-25993076D01*
X91011459Y-25902731D01*
X91017635Y-25875670D01*
X91045353Y-25796456D01*
X91057396Y-25771450D01*
X91102046Y-25700389D01*
X91119351Y-25678690D01*
X91178690Y-25619351D01*
X91200389Y-25602046D01*
X91271450Y-25557396D01*
X91296456Y-25545353D01*
X91375670Y-25517635D01*
X91402733Y-25511459D01*
X91465419Y-25504396D01*
X91493079Y-25501280D01*
X91506962Y-25500500D01*
X91565892Y-25500500D01*
X107168842Y-25500500D01*
X107235881Y-25520185D01*
G37*
%TD.AperFunction*%
%TD*%
M02*
